<?xml version="1.0" encoding="UTF-8" standalone="no"?>
<svg
   xmlns:dc="http://purl.org/dc/elements/1.1/"
   xmlns:cc="http://creativecommons.org/ns#"
   xmlns:rdf="http://www.w3.org/1999/02/22-rdf-syntax-ns#"
   xmlns:svg="http://www.w3.org/2000/svg"
   xmlns="http://www.w3.org/2000/svg"
   version="1.1"
   id="svg2"
   viewBox="0 0 48 48">
  <defs
     id="defs4" />
  <metadata
     id="metadata9999">
    <rdf:RDF>
      <cc:Work>
        <dc:format>image/svg+xml</dc:format>
        <dc:type
           rdf:resource="http://purl.org/dc/dcmitype/StillImage" />
        <dc:title></dc:title>
        <cc:license
           rdf:resource="http://creativecommons.org/licenses/by-sa/4.0/" />
        <dc:creator>
          <cc:Agent>
            <dc:title>Sixsixfive (sixsixfive.deviantart.com)</dc:title>
          </cc:Agent>
        </dc:creator>
        <dc:publisher>
          <cc:Agent>
            <dc:title>Sixsixfive (sixsixfive.deviantart.com)</dc:title>
          </cc:Agent>
        </dc:publisher>
        <dc:source>https://github.com/sixsixfive</dc:source>
        <dc:subject>
          <rdf:Bag>
            <rdf:li>ivy</rdf:li>
          </rdf:Bag>
        </dc:subject>
        <dc:contributor>
          <cc:Agent>
            <dc:title>ssf</dc:title>
          </cc:Agent>
        </dc:contributor>
        <dc:rights>
          <cc:Agent>
            <dc:title>Sixsixfive (sixisixfive.deviantart.com)</dc:title>
          </cc:Agent>
        </dc:rights>
        <dc:description>A simple icon theme published under CC-BY-SA_V4(http://creativecommons.org/licenses/by-sa/4.0)</dc:description>
        <dc:identifier>SSF</dc:identifier>
      </cc:Work>
    </rdf:RDF>
  </metadata>
  <!--Part of the Ivy icon them published under the CC-BY-SA_V4: http://creativecommons.org/licenses/by-sa/4.0 -->
  <path
     id="path3361"
     d="M 25 2 A 22 22 0 0 0 6.6289062 11.916016 L 11.560547 15.347656 A 16 16 0 0 1 25 8 A 16 16 0 0 1 41 24 A 16 16 0 0 1 25 40 A 16 16 0 0 1 11.548828 32.662109 L 6.6328125 36.082031 A 22 22 0 0 0 25 46 A 22 22 0 0 0 47 24 A 22 22 0 0 0 25 2 z M 2 11 L 2 37 L 21 24 L 2 11 z M 25 14 A 10 10 0 0 0 16.486328 18.773438 L 21.427734 22.210938 A 4 4 0 0 1 25 20 A 4 4 0 0 1 29 24 A 4 4 0 0 1 25 28 A 4 4 0 0 1 21.425781 25.791016 L 16.488281 29.224609 A 10 10 0 0 0 25 34 A 10 10 0 0 0 35 24 A 10 10 0 0 0 25 14 z "
     style="opacity:1;fill:#66b03e;fill-opacity:1;fill-rule:evenodd;stroke:none;stroke-width:1;stroke-linejoin:miter;stroke-opacity:1" />
  <path
     id="path3344"
     d="M 25,2 A 22,22 0 0 0 6.6289062,11.916016 l 4.9316408,3.43164 A 16,16 0 0 1 25,8 16,16 0 0 1 41,24 16,16 0 0 1 25,40 16,16 0 0 1 11.548828,32.662109 L 6.6328125,36.082031 A 22,22 0 0 0 25,46 22,22 0 0 0 47,24 22,22 0 0 0 25,2 Z"
     style="opacity:1;fill:#ed4c70;fill-opacity:1;fill-rule:evenodd;stroke:#a868d4;stroke-width:1;stroke-linejoin:miter;stroke-opacity:1" />
  <path
     d="m 2.4960938,11.939453 0,24.121094 L 20.125,24 2.4960938,11.939453 Z"
     id="path3346"
     style="opacity:0.56800046;fill:none;fill-opacity:1;fill-rule:evenodd;stroke:#00d4ff;stroke-width:1;stroke-linejoin:miter;stroke-opacity:1" />
  <path
     id="path3338"
     d="m 25,14 a 10,10 0 0 0 -8.513672,4.773438 l 4.941406,3.4375 A 4,4 0 0 1 25,20 a 4,4 0 0 1 4,4 4,4 0 0 1 -4,4 4,4 0 0 1 -3.574219,-2.208984 l -4.9375,3.433593 A 10,10 0 0 0 25,34 10,10 0 0 0 35,24 10,10 0 0 0 25,14 Z"
     style="opacity:1;fill:#ed4c70;fill-opacity:1;fill-rule:evenodd;stroke:none;stroke-width:1;stroke-linejoin:miter;stroke-opacity:1" />
</svg>
