<?xml version="1.0" encoding="UTF-8" standalone="no"?>
<svg xmlns:dc="http://purl.org/dc/elements/1.1/" xmlns:cc="http://creativecommons.org/ns#" xmlns:rdf="http://www.w3.org/1999/02/22-rdf-syntax-ns#" xmlns:svg="http://www.w3.org/2000/svg" xmlns="http://www.w3.org/2000/svg" xmlns:xlink="http://www.w3.org/1999/xlink" viewBox="0 0 16 16" id="svg2" version="1.1">
 <defs id="defs4">
  <radialGradient cx="22" cy="12" id="0" r="21.06" gradientUnits="userSpaceOnUse" gradientTransform="matrix(0.31437 0 0 0.31319 0.397 0.787)">
   <stop stop-color="#bababa" id="stop7"/>
   <stop offset="1" stop-color="#dedede" id="stop9"/>
  </radialGradient>
  <radialGradient cx="24.19" cy="19.837" id="1" r="18.19" gradientUnits="userSpaceOnUse" gradientTransform="matrix(0.31437 0 0 0.31319 0.397 0.787)">
   <stop id="stop12" stop-opacity="0.811"/>
   <stop offset="1" id="stop14" stop-opacity="0.264"/>
  </radialGradient>
  <linearGradient id="0-7" y1="-3" x1="40" y2="26" x2="42" gradientUnits="userSpaceOnUse" gradientTransform="matrix(0.31197424 0 0 0.31197424 0.707188 0.919836)">
   <stop stop-color="#d02604" id="stop4975"/>
   <stop offset="1" stop-color="#eed45a" id="stop4977"/>
  </linearGradient>
  <linearGradient id="1-8" xlink:href="#2" y1="18" y2="45" x2="0" gradientUnits="userSpaceOnUse" gradientTransform="matrix(0.31197424 0 0 0.31197424 0.707188 0.919836)"/>
  <linearGradient id="2">
   <stop stop-color="#ff8b36" id="stop4981"/>
   <stop offset="1" stop-color="#eed45a" id="stop4983"/>
  </linearGradient>
  <linearGradient id="3" xlink:href="#2" y1="16" x1="33" y2="36" x2="31" gradientUnits="userSpaceOnUse" gradientTransform="matrix(0.31197424 0 0 0.31197424 0.707188 0.919836)"/>
 </defs>
 <path fill="url(#0)" id="path16" d="m 7.9415 1.3939 c -3.6624 0 -6.62174 2.94176 -6.62149 6.58675 -0.000259 3.64498 2.96023 6.60632 6.62149 6.60632 3.66125 0 6.62174 -2.96134 6.62148 -6.60632 C 14.563239 4.33566 11.60389 1.3939 7.9415 1.3939 z m 0 5.5199 c 0.59421 0 1.08066 0.484615 1.08066 1.07659 0 0.591971 -0.486448 1.07659 -1.08066 1.07659 -0.59421 0 -1.08066 -0.484615 -1.08066 -1.07659 0 -0.591972 0.486447 -1.07659 1.08066 -1.07659 z"/>
 <path opacity="0.966" fill="#fff" id="path18" d="M 2.548 4.1637 C 1.832682 5.1638 1.38861 6.36788 1.3298 7.67728 h 5.58012 C 6.91496 7.660892 6.923768 7.644394 6.929568 7.628345 l -4.3816 -3.4646 z"/>
 <path opacity="0.18" fill="url(#1)" id="path20" d="m 7.9415 2.041218 c -3.17532 0 -5.873633 2.800719 -5.873403 5.958879 -0.000224 3.15797 2.780494 5.958981 5.951274 5.958981 3.17078 0 6.087779 -2.839957 6.087549 -5.997917 0.000224 -3.15816 -2.99011 -5.919944 -6.16542 -5.919944 z m 0 4.383282 c 0.86767 0 1.57187 0.701543 1.57187 1.56594 0 0.8644 -0.704196 1.56594 -1.57187 1.56594 -0.86767 0 -1.57187 -0.701543 -1.57187 -1.56594 0 -0.864401 0.704196 -1.56594 1.57187 -1.56594 z"/>
 <path fill="#ebebeb" id="path22" d="m 7.9415 6.4245 c -0.86767 0 -1.57187 0.701542 -1.57187 1.56594 0 0.864401 0.704196 1.56594 1.57187 1.56594 0.86767 0 1.57187 -0.701543 1.57187 -1.56594 0 -0.864401 -0.704196 -1.56594 -1.57187 -1.56594 z m 0 0.4894 c 0.59421 0 1.08066 0.484615 1.08066 1.07659 0 0.591971 -0.486448 1.07659 -1.08066 1.07659 -0.59421 0 -1.08066 -0.484615 -1.08066 -1.07659 0 -0.591972 0.486447 -1.07659 1.08066 -1.07659 z"/>
 <path opacity="0.02" fill="#2e3436" id="path24" d="m 7.9415 5.622 c -1.30496 0 -2.37745 1.06845 -2.37745 2.36849 0 1.30004 1.07249 2.36849 2.37745 2.36849 1.30496 0 2.37745 -1.06845 2.37745 -2.36849 C 10.31895 6.69045 9.24646 5.622 7.9415 5.622 z m 0 0.5579 c 1.00183 0 1.81747 0.81257 1.81747 1.81062 0 0.998052 -0.815643 1.81062 -1.81747 1.81062 -1.00183 0 -1.81747 -0.81257 -1.81747 -1.81062 0 -0.998052 0.815643 -1.81062 1.81747 -1.81062 z"/>
 <path opacity="0.5" fill="none" stroke="#000" id="path26" stroke-width="3.087" d="M 24 3 C 12.919681 3 3.999217 11.901724 4 22.96875 3.999217 34.03588 12.926744 42.999999 24 43 35.07326 42.999999 44.00078 34.03588 44 22.96875 44.00078 11.901721 35.08032 3 24 3 z m 0 15.5 c 2.462622 -0.000003 4.5 2.03738 4.5 4.5 0 2.46262 -2.03738 4.5 -4.5 4.5 -2.46262 0 -4.5 -2.03738 -4.5 -4.5 0 -2.46262 2.037381 -4.5 4.5 -4.5 z" transform="matrix(0.32453 0 0 0.32331 0.249 0.557)"/>
 <path opacity="0.375" fill="#fff" id="path28" d="m 9.0221 7.9905 c 0 0.105709 -0.02026 0.206687 -0.04912 0.303401 l 3.875933 3.376632 c 0.721141 -1.05642 1.14753 -2.32657 1.14943 -3.69954 L 9.02208 7.990461 z"/>
 <path opacity="0.783" fill="#fff" isolation="auto" color-rendering="auto" white-space="normal" solid-opacity="1" shape-rendering="auto" mix-blend-mode="normal" color-interpolation-filters="linearRGB" image-rendering="auto" fill-rule="evenodd" id="path3359" color-interpolation="sRGB" color="#000" d="M 8.8769531,2.125 C 6.8933874,1.8874314 4.6871126,2.6114275 3.0566406,4.6484375 l 0.78125,0.625 C 6.7005361,1.6970267 11.258183,2.8743108 12.443359,5.7519531 L 13.367188,5.3710938 C 12.621832,3.561348 10.860519,2.3625686 8.8769531,2.125 Z" solid-color="#000000"/>
 <path opacity="0.557" fill="#fff" isolation="auto" color-rendering="auto" white-space="normal" solid-opacity="1" shape-rendering="auto" mix-blend-mode="normal" color-interpolation-filters="linearRGB" image-rendering="auto" fill-rule="evenodd" id="path3363" color-interpolation="sRGB" color="#000" d="M 6.3398438,8.6523438 5.4902344,9.1777344 C 6.1769163,10.290689 7.053876,10.923146 8,10.958984 8.946124,10.994823 9.8288453,10.442432 10.544922,9.5429688 L 9.7617188,8.9199219 C 9.1683088,9.6653037 8.5660161,9.9809721 8.0371094,9.9609375 7.5082026,9.9409029 6.9204319,9.5933446 6.3398438,8.6523438 Z" solid-color="#000000"/>
 <path opacity="0.14" fill="#fff" id="path5017" d="m 9.2669811,8.0952438 c 0,0.1052994 -0.0201,0.2058859 -0.04875,0.3022251 l 4.4066369,3.3829861 c 0.715637,-1.05232 1.138777,-2.3175504 1.140655,-3.6851956 l -5.4985459,0 z"/>
 <path fill="url(#1-8)" id="path5019" d="M 11.96395,6.0472771 C 11.86958,7.8078538 11.877483,9.6481465 10.95096,11.038866 10,9.4459738 8.5231032,10.069443 7.9598082,10.01598 c 0.562299,0.24635 1.4005529,0.69051 0.5467359,2.446903 -0.998976,-0.375027 -1.89646,-0.474148 -2.4548,-0.40854 1.097881,0.850005 2.814294,1.702716 3.341977,2.797093 3.0436799,-0.53862 5.3366349,-2.804213 5.5836569,-5.9374049 -0.446813,0.5836633 -0.967699,0.7833221 -1.79122,1.0530577 C 13,8 12.508875,7.0751199 11.96395,6.0472771 Z"/>
 <path fill="url(#3)" id="path5021" d="M 8.9763567,5.9884918 C 10,7 11.852666,7.0896123 10.425547,8.9866746 9.0035049,8.6136657 9,7.3966987 8.9763567,5.9884918 Z"/>
 <path fill="url(#0-7)" id="path5037" d="m 13.037777,1.965486 c 0.255816,2.2776397 -0.89934,3.2733471 0.926477,5.0140105 C 15.352258,5.8324671 15.733651,3 13.037777,1.965486 Z"/>
 <path opacity="0.31" fill="none" stroke="#000" id="path5129" d="m 13.533203,2.9042969 c -0.02585,0.7093596 -0.105776,1.3298972 -0.123047,1.7890625 -0.0194,0.5157455 0.137159,0.9462098 0.548828,1.46875 0.355581,-0.477422 0.61951,-1.0760235 0.576172,-1.6972656 -0.04138,-0.5932187 -0.405688,-1.117478 -1.001953,-1.5605469 z M 9.5800781,7.0234375 c 0.024923,0.2212876 0.012153,0.5263805 0.068359,0.6894531 0.1012035,0.2936222 0.2798555,0.4748969 0.5546875,0.6210938 0.09034,-0.1785222 0.241201,-0.414458 0.244141,-0.4921875 0.005,-0.1333386 -0.02399,-0.1876325 -0.167969,-0.3222657 C 10.157656,7.405788 9.8219048,7.1690947 9.5800781,7.0234375 Z M 12.3125,8.1640625 c -0.106786,1.1053717 -0.309752,2.1983605 -0.945312,3.1523435 a 0.49918985,0.49918985 0 0 1 -0.84375,-0.02148 c -0.402462,-0.674137 -0.8097234,-0.807508 -1.257813,-0.847656 -0.019313,-0.0017 -0.039171,0.0031 -0.058594,0.002 0.00162,0.0033 0.00426,0.0045 0.00586,0.0078 0.2596674,0.542064 0.2044201,1.273748 -0.2578125,2.22461 a 0.49918985,0.49918985 0 0 1 -0.625,0.248047 c -0.081791,-0.03071 -0.1462991,-0.03389 -0.2265625,-0.06055 0.044336,0.0313 0.081019,0.05618 0.125,0.08789 0.5264413,0.379534 0.9913776,0.811023 1.34375,1.314453 2.2756134,-0.494955 3.9682844,-2.019309 4.5976564,-4.164062 -0.262511,0.11844 -0.523028,0.234053 -0.828125,0.333984 A 0.49918985,0.49918985 0 0 1 12.689453,10.013672 C 12.613641,9.2125877 12.469205,8.6747028 12.3125,8.1640625 Z" stroke-miterlimit="6.9"/>
 <path opacity="0.5" fill="none" fill-rule="evenodd" stroke="#fff" id="path5131" d="m 13,11 c -2.513724,2.966572 -2.76104,-0.636148 -3.563283,2.128446"/>
 <rect width="1" x="13" opacity="0.46" y="3" fill="#fff" height="2" id="rect5133"/>
 <metadata id="metadata9999">
  <rdf:RDF>
   <cc:Work>
    <dc:format>image/svg+xml</dc:format>
    <dc:type rdf:resource="http://purl.org/dc/dcmitype/StillImage"/>
    <dc:title>Ivy icon theme</dc:title>
    <cc:license rdf:resource="http://creativecommons.org/licenses/by-sa/4.0/"/>
    <dc:creator>
     <cc:Agent>
      <dc:title>Sixsixfive (sixsixfive.deviantart.com)</dc:title>
     </cc:Agent>
    </dc:creator>
    <dc:publisher>
     <cc:Agent>
      <dc:title>Sixsixfive (sixsixfive.deviantart.com)</dc:title>
     </cc:Agent>
    </dc:publisher>
    <dc:source>https://github.com/sixsixfive</dc:source>
    <dc:subject>
     <rdf:Bag>
      <rdf:li>ivy</rdf:li>
     </rdf:Bag>
    </dc:subject>
    <dc:contributor>
     <cc:Agent>
      <dc:title>ssf</dc:title>
     </cc:Agent>
    </dc:contributor>
    <dc:rights>
     <cc:Agent>
      <dc:title>Sixsixfive (sixisixfive.deviantart.com)</dc:title>
     </cc:Agent>
    </dc:rights>
    <dc:description>A simple icon theme published under CC-BY-SA_V4(http://creativecommons.org/licenses/by-sa/4.0)</dc:description>
    <dc:identifier>SSF</dc:identifier>
   </cc:Work>
  </rdf:RDF>
 </metadata>
 <!--Part of the Ivy icon them published under the CC-BY-SA_V4: http://creativecommons.org/licenses/by-sa/4.0 -->
</svg>
