<?xml version="1.0" encoding="UTF-8" standalone="no"?><svg xmlns:cc="http://creativecommons.org/ns#" viewBox="0 0 16 16" version="1.1" id="svg2" xmlns:svg="http://www.w3.org/2000/svg" xmlns:rdf="http://www.w3.org/1999/02/22-rdf-syntax-ns#" xmlns="http://www.w3.org/2000/svg" xmlns:dc="http://purl.org/dc/elements/1.1/"><defs id="1"><linearGradient x2="41" gradientUnits="userSpaceOnUse" x1="6.04" id="5" y2="1.927" gradientTransform="matrix(0.37195 0 0 0.38089 -0.226 -16.754)" y1="1.882"><stop stop-color="#dedede" id="B"/><stop offset="1" stop-color="#f4f4f4" id="C"/></linearGradient><linearGradient x2="40.11" gradientUnits="userSpaceOnUse" x1="6.972" id="6" y2="3.03" gradientTransform="matrix(0 0.37195 -0.38089 0 16.757 -0.229)" y1="3.203"><stop stop-color="#fff" id="D"/><stop offset="1" stop-opacity="0" stop-color="#fff" id="E"/></linearGradient></defs><rect height="15.997" width="13" rx="0.46" ry="0.46" fill="url(#5)" id="2" x="2" transform="matrix(0 1 -1 0 0 0)" y="-15.992"/><g fill="none" id="3"><path opacity="0.4" id="7" stroke="#000" d="m 0.5312,2.5312 0,11.9375 14.9375,0 0,-11.9375 -14.9375,0 z"/><path opacity="0.348" id="8" stroke="url(#6)" d="m 1.5312,3.5 0,10 12.9375,0 0,-10 -12.9375,0 z"/></g><g fill-rule="evenodd" id="4" transform="matrix(1 0 0 1 15.415 0.68)"><path fill="#fff" id="9" d="m -7.9569,4.3194 c -1.99764,0.055763 -2.53956,1.85146 -2.4329,2.99883 0.127324,0.097868 0.866401,-0.039985 1,0 -0.094068,0.971054 0,2 1,2 -0.03708,0.225828 -0.016986,0.656393 0,0.937041 -1.61121,-0.01774 -2.11586,0.341095 -2.98167,0.577027 -1.01076,0.241883 -1.08724,1.73071 -1.01863,2.48593 9.00438,-0.02643 -0.01741,0.01557 9.0003,-0.01979 -0.030858,-0.825631 -0.266424,-2.31072 -1.29446,-2.53807 l -1.7055,-0.5051 c -0.033842,-0.239397 0.042625,-0.783031 0,-1.02099 0.894724,-0.822381 1.06739,-0.648544 1.0624,-2.2434 0.158757,-1.10527 -0.755357,-2.63892 -2.42865,-2.67149 -0.067852,-0.0013 -0.136412,-0.0018 -0.200855,0 z"/><path fill="#6a6a6a" id="A" d="m -7.9569,3.3194 c -1.99764,0.055763 -2.53956,1.85146 -2.4329,2.99883 0.127324,0.097868 0.866401,-0.039985 1,0 -0.094068,0.971054 0,2 1,2 -0.03708,0.225828 -0.016986,0.656393 0,0.937041 -1.61121,-0.01774 -2.11586,0.341095 -2.98167,0.577027 -1.01076,0.241883 -1.08724,1.73071 -1.01863,2.48593 9.00438,-0.02643 -0.01741,0.01557 9.0003,-0.01979 -0.030858,-0.825631 -0.266424,-2.31072 -1.29446,-2.53807 l -1.7055,-0.5051 c -0.033842,-0.239397 0.042625,-0.783031 0,-1.02099 0.894724,-0.822381 1.06739,-0.648544 1.0624,-2.2434 0.158757,-1.10527 -0.755357,-2.63892 -2.42865,-2.67149 -0.067852,-0.0013 -0.136412,-0.0018 -0.200855,0 z"/></g><metadata id="metadata9999"><rdf:RDF><cc:Work><dc:format>image/svg+xml</dc:format><dc:type rdf:resource="http://purl.org/dc/dcmitype/StillImage"/><dc:title>Ivy icon theme</dc:title><cc:license rdf:resource="http://creativecommons.org/licenses/by-sa/4.0/"/><dc:creator><cc:Agent><dc:title>Sixsixfive (sixsixfive.deviantart.com)</dc:title></cc:Agent></dc:creator><dc:publisher><cc:Agent><dc:title>Sixsixfive (sixsixfive.deviantart.com)</dc:title></cc:Agent></dc:publisher><dc:source>https://github.com/sixsixfive</dc:source><dc:subject><rdf:Bag><rdf:li>ivy</rdf:li></rdf:Bag></dc:subject><dc:contributor><cc:Agent><dc:title>ssf</dc:title></cc:Agent></dc:contributor><dc:rights><cc:Agent><dc:title>Sixsixfive (sixisixfive.deviantart.com)</dc:title></cc:Agent></dc:rights><dc:description>A simple icon theme published under CC-BY-SA_V4(http://creativecommons.org/licenses/by-sa/4.0)</dc:description><dc:identifier>SSF</dc:identifier></cc:Work></rdf:RDF></metadata><!--Part of the Ivy icon them published under the CC-BY-SA_V4: http://creativecommons.org/licenses/by-sa/4.0 -->
</svg>