<?xml version="1.0" encoding="UTF-8" standalone="no"?>
<svg xmlns:dc="http://purl.org/dc/elements/1.1/" xmlns:cc="http://creativecommons.org/ns#" xmlns:rdf="http://www.w3.org/1999/02/22-rdf-syntax-ns#" xmlns:svg="http://www.w3.org/2000/svg" xmlns="http://www.w3.org/2000/svg" xmlns:xlink="http://www.w3.org/1999/xlink" viewBox="0 0 16 16" version="1.1" id="svg2">
 <defs id="defs5">
  <linearGradient id="linearGradient4197">
   <stop id="stop4199" stop-color="#ebebeb"/>
   <stop id="stop4201" stop-color="#fff" offset="1"/>
  </linearGradient>
  <linearGradient gradientTransform="matrix(0.36363635,0,0,0.34965033,-0.72727275,-2.3846135)" x2="0" gradientUnits="userSpaceOnUse" y2="48" y1="18" xlink:href="#linearGradient4197" id="linearGradient4203"/>
  <linearGradient id="0-4" y1="1" y2="15" gradientUnits="userSpaceOnUse" x2="0" gradientTransform="matrix(1.125,0,0,1.125,-1.923187,-2.357802)">
   <stop stop-color="#66b03e" id="stop7-9"/>
   <stop offset="1" stop-color="#95ce76" id="stop9-2"/>
  </linearGradient>
 </defs>
 <path d="M 2.7086363,3 C 2.3057272,3 1.9740622,3.311957 1.9813636,3.6993006 l 2e-7,5.3050491 -1.25409109,0 C 0.32436358,9.0043497 0,9.3162377 0,9.7036503 L 0,11.251749 0,12.300699 0,13 0.72727271,13 15.272727,13 16,13 l 0,-0.699301 0,-1.04895 0,-1.5480987 C 16,9.3162377 15.674688,8.9767149 15.272727,9.0043497 l -1.25409,0 0,-5.3050491 C 14.018637,3.3118882 13.694273,3 13.291363,3 Z" id="rect4171" fill="url(#linearGradient4203)" stroke-linejoin="round" stroke-linecap="round"/>
 <path d="m 2.7089844,3.5136719 c -0.1379723,0 -0.2165052,0.087641 -0.2148438,0.1757812 a 0.51345601,0.51345601 0 0 1 0,0.00977 l 0,5.3046874 A 0.51345601,0.51345601 0 0 1 1.9804688,9.5175781 l -1.2539063,0 c -0.1380311,1e-7 -0.21289062,0.084074 -0.21289062,0.1855469 l 0,1.548828 0,1.048828 0,0.185547 0.21289062,0 14.5468755,0 0.21289,0 0,-0.185547 0,-1.048828 0,-1.548828 c 0,-0.1006354 -0.08164,-0.1941066 -0.177734,-0.1875 a 0.51345601,0.51345601 0 0 1 -0.03516,0.00195 l -1.253907,0 A 0.51345601,0.51345601 0 0 1 13.505859,9.0039062 l 0,-5.3046874 c 0,-0.099748 -0.07681,-0.1855469 -0.214843,-0.1855469 l -10.5820316,0 z" id="path4168" opacity="0.4" fill="none" stroke="#000" stroke-linejoin="round" stroke-linecap="round"/>
 <g transform="matrix(0.5,0,0,0.5,8.062,7)" id="g3440">
  <path d="m 4,-2 0,6 -6,0 0,6 6,0 0,6 6,0 0,-6 6.076813,0.0172 L 16,4 10,4 10,-2 Z" id="path16" fill="url(#0-4)"/>
  <path d="M 5.0292969,-0.97070312 5.0292969,4 A 1.0287845,1.0287845 0 0 1 4,5.0292969 l -4.97070312,0 0,3.9414062 4.97070312,0 A 1.0287845,1.0287845 0 0 1 5.0292969,10 l 0,4.970703 3.9414062,0 0,-4.970703 A 1.0287845,1.0287845 0 0 1 10.003906,8.9707031 l 5.029297,0.013672 -0.04883,-3.9550781 -4.984375,0 A 1.0287845,1.0287845 0 0 1 8.9707031,4 l 0,-4.97070312 -3.9414062,0 z" id="path4252" opacity="0.4" fill="none" stroke="#000" stroke-width="2"/>
  <path d="M 6,0 8,0 8,2 6,2 Z" id="rect4254" opacity="0.4" fill="#fff" stroke-linejoin="bevel" stroke-linecap="square" stroke-width="2"/>
  <path d="m 10,10 6,0 0,2 -6,0 z" id="rect4256" opacity="0.1" stroke-linejoin="bevel" stroke-linecap="square"/>
  <path d="m -2,10 6,0 0,2 -6,0 z" id="rect4258" opacity="0.1" stroke-linejoin="bevel" stroke-linecap="square"/>
 </g>
 <metadata id="metadata9999">
  <rdf:RDF>
   <cc:Work>
    <dc:format>image/svg+xml</dc:format>
    <dc:type rdf:resource="http://purl.org/dc/dcmitype/StillImage"/>
    <dc:title>Ivy icon theme</dc:title>
    <cc:license rdf:resource="http://creativecommons.org/licenses/by-sa/4.0/"/>
    <dc:creator>
     <cc:Agent>
      <dc:title>Sixsixfive (sixsixfive.deviantart.com)</dc:title>
     </cc:Agent>
    </dc:creator>
    <dc:publisher>
     <cc:Agent>
      <dc:title>Sixsixfive (sixsixfive.deviantart.com)</dc:title>
     </cc:Agent>
    </dc:publisher>
    <dc:source>https://github.com/sixsixfive</dc:source>
    <dc:subject>
     <rdf:Bag>
      <rdf:li>ivy</rdf:li>
     </rdf:Bag>
    </dc:subject>
    <dc:contributor>
     <cc:Agent>
      <dc:title>ssf</dc:title>
     </cc:Agent>
    </dc:contributor>
    <dc:rights>
     <cc:Agent>
      <dc:title>Sixsixfive (sixisixfive.deviantart.com)</dc:title>
     </cc:Agent>
    </dc:rights>
    <dc:description>A simple icon theme published under CC-BY-SA_V4(http://creativecommons.org/licenses/by-sa/4.0)</dc:description>
    <dc:identifier>SSF</dc:identifier>
   </cc:Work>
  </rdf:RDF>
 </metadata>
 <!--Part of the Ivy icon them published under the CC-BY-SA_V4: http://creativecommons.org/licenses/by-sa/4.0 -->
</svg>
