<?xml version="1.0" encoding="UTF-8" standalone="no"?>
<svg xmlns:dc="http://purl.org/dc/elements/1.1/" xmlns:cc="http://creativecommons.org/ns#" xmlns:rdf="http://www.w3.org/1999/02/22-rdf-syntax-ns#" xmlns:svg="http://www.w3.org/2000/svg" xmlns="http://www.w3.org/2000/svg" viewBox="0 0 16 16" id="svg2" version="1.1">
 <defs id="defs4">
  <radialGradient cx="33" cy="42" id="1" r="19" gradientUnits="userSpaceOnUse" gradientTransform="matrix(-0.46084 -0.54099001 -0.63861 0.54400001 44.35 10.982203)">
   <stop stop-color="#66b03e" id="stop12"/>
   <stop offset="1" stop-color="#7fc55a" id="stop14"/>
  </radialGradient>
 </defs>
 <path opacity="0.1" id="path4159" d="m 8.0061,0.99060326 7.0252,6.00000014 -7,6.0000006 -0.0252,-4.0054006 -3.9748,0.0054 0,5.6865994 0,1.257701 -4,-0.0054 0,-6.9442995 3e-4,-1.6606 C 0.031869,6.0457134 1.05034,5.0166333 2.31577,5.0166333 c 0.05937,0 0.12025,0.0074 0.178451,0.0119 0.06372,-0.0064 0.124871,-0.0119 0.190348,-0.0119 l 5.3219,0 z"/>
 <path fill="url(#1)" id="path18" d="m 8.0061,-0.00959676 7.0252,6.00000006 -7,5.9999997 -0.0252,-4.0053996 -3.9748,0.0054 0,5.6866005 0,2.307999 -4,-0.0054 0,-7.9945996 3e-4,-1.6606001 c 2.691e-4,-1.27891 1.0187401,-2.30799 2.2841701,-2.30799 0.05937,0 0.12025,0.0074 0.178451,0.0119 0.06372,-0.0064 0.124871,-0.0119 0.190348,-0.0119 l 5.3219,0 z"/>
 <g id="g20" transform="translate(0,-32.0678)" fill="none">
  <path id="path22" d="m 7.5625,33 -5.8438,5 5.8125,5 0.0312,-3 a 0.465545,0.465545 0 0 1 0.46875,-0.46875 l 3.96875,0 A 0.465545,0.465545 0 0 1 12.46865,40 l 0,5.6875 0,1.84375 3.0625,0 0,-7.53125 0,-1.65625 C 15.530933,37.31124 14.730601,36.5 13.71865,36.5 c -0.08289,0 -0.150403,-4.52e-4 -0.15625,0 a 0.465545,0.465545 0 0 1 -0.0625,0 c -0.0049,-4.94e-4 -0.06044,0 -0.15625,0 l -5.3125,0 A 0.465545,0.465545 0 0 1 7.5624,36.03125 L 7.5624,33 Z" transform="matrix(-1,0,0,1,16.03,0.058)" opacity="0.4" stroke="#000" stroke-linejoin="round"/>
 </g>
 <path opacity="0.5" fill="#fff" isolation="auto" color-rendering="auto" white-space="normal" solid-opacity="1" shape-rendering="auto" mix-blend-mode="normal" color-interpolation-filters="linearRGB" image-rendering="auto" fill-rule="evenodd" id="path4163" color-interpolation="sRGB" color="#000" d="M 8.9707031,1.8833752 8.8613281,4.3853283 C 8.6774422,4.833118 8.502983,4.9019259 8.1601562,4.9927502 l -6.6113281,0.1347657 0.021484,1 6.7714844,-0.1367187 0.058594,-0.015625 C 8.8843511,5.846657 9.5180569,5.5115576 9.8222656,4.7232189 L 9.8515627,4.6450937 9.8769538,4.0845468 12.744141,6.7388439 13.423828,6.0064221 8.9707031,1.8833752 Z" solid-color="#000000"/>
 <metadata id="metadata9999">
  <rdf:RDF>
   <cc:Work>
    <dc:format>image/svg+xml</dc:format>
    <dc:type rdf:resource="http://purl.org/dc/dcmitype/StillImage"/>
    <dc:title>Ivy icon theme</dc:title>
    <cc:license rdf:resource="http://creativecommons.org/licenses/by-sa/4.0/"/>
    <dc:creator>
     <cc:Agent>
      <dc:title>Sixsixfive (sixsixfive.deviantart.com)</dc:title>
     </cc:Agent>
    </dc:creator>
    <dc:publisher>
     <cc:Agent>
      <dc:title>Sixsixfive (sixsixfive.deviantart.com)</dc:title>
     </cc:Agent>
    </dc:publisher>
    <dc:source>https://github.com/sixsixfive</dc:source>
    <dc:subject>
     <rdf:Bag>
      <rdf:li>ivy</rdf:li>
     </rdf:Bag>
    </dc:subject>
    <dc:contributor>
     <cc:Agent>
      <dc:title>ssf</dc:title>
     </cc:Agent>
    </dc:contributor>
    <dc:rights>
     <cc:Agent>
      <dc:title>Sixsixfive (sixisixfive.deviantart.com)</dc:title>
     </cc:Agent>
    </dc:rights>
    <dc:description>A simple icon theme published under CC-BY-SA_V4(http://creativecommons.org/licenses/by-sa/4.0)</dc:description>
    <dc:identifier>SSF</dc:identifier>
   </cc:Work>
  </rdf:RDF>
 </metadata>
 <!--Part of the Ivy icon them published under the CC-BY-SA_V4: http://creativecommons.org/licenses/by-sa/4.0 -->
</svg>
