<?xml version="1.0" encoding="UTF-8" standalone="no"?>
<svg xmlns:dc="http://purl.org/dc/elements/1.1/" xmlns:cc="http://creativecommons.org/ns#" xmlns:rdf="http://www.w3.org/1999/02/22-rdf-syntax-ns#" xmlns:svg="http://www.w3.org/2000/svg" xmlns="http://www.w3.org/2000/svg" viewBox="0 0 16 16" id="svg2" version="1.1">
 <defs id="defs4">
  <linearGradient id="0" y1="44.01" y2="2" x2="0" gradientUnits="userSpaceOnUse" gradientTransform="matrix(0.37195 0 0 0.38089 -16.227 -16.762)">
   <stop stop-color="#dedede" id="stop7"/>
   <stop offset="1" stop-color="#f4f4f4" id="stop9"/>
  </linearGradient>
  <linearGradient id="1" y1="43.997" y2="1.99" x2="0" gradientUnits="userSpaceOnUse" gradientTransform="matrix(-0.37195 0 0 -0.38089 16.235 16.758)">
   <stop stop-color="#fff" id="stop12"/>
   <stop offset="1" stop-color="#fff" stop-opacity="0" id="stop14"/>
  </linearGradient>
 </defs>
 <rect width="13" x="-14" y="-16" fill="url(#0)" rx="0.46" height="15.997" transform="matrix(-1 0 0 -1 0 0)" ry="0.46" id="rect16"/>
 <g id="g18" fill="none">
  <path d="m 13.4749,0.5322 -11.9375,0 0,14.9375 11.9375,0 0,-14.9375 z" id="path20" opacity="0.4" stroke="#000"/>
  <path d="m 12.5062,1.5322 -10,0 0,12.9375 10,0 0,-12.9375 z" id="path22" opacity="0.81" stroke="url(#1)"/>
 </g>
 <g transform="matrix(1,0,0,-1,15.39,16.255)" id="g24" fill-rule="evenodd">
  <path d="m -7.9569,4.3194 c -1.99764,0.055763 -2.53956,1.85146 -2.4329,2.99883 0.127324,0.097868 0.866401,-0.039985 1,0 -0.094068,0.971054 0,2 1,2 -0.03708,0.225828 -0.016986,0.656393 0,0.937041 -1.61121,-0.01774 -2.11586,0.341095 -2.98167,0.577027 -1.01076,0.241883 -1.08724,1.73071 -1.01863,2.48593 9.00438,-0.02643 -0.01741,0.01557 9.0003,-0.01979 -0.030858,-0.825631 -0.266424,-2.31072 -1.29446,-2.53807 l -1.7055,-0.5051 c -0.033842,-0.239397 0.042625,-0.783031 0,-1.02099 0.894724,-0.822381 1.06739,-0.648544 1.0624,-2.2434 0.158757,-1.10527 -0.755357,-2.63892 -2.42865,-2.67149 -0.067852,-0.0013 -0.136412,-0.0018 -0.200855,0 z" id="path26" fill="#fff"/>
  <path d="m -7.9569,5.3194 c -1.99764,0.055763 -2.53956,1.85146 -2.4329,2.99883 0.127324,0.097868 0.866401,-0.039985 1,0 -0.094068,0.971054 0,2 1,2 -0.03708,0.225828 -0.016986,0.656394 0,0.937041 -1.61121,-0.01774 -2.11586,0.341095 -2.98167,0.577027 -1.01076,0.241883 -1.08724,1.73071 -1.01863,2.48593 9.00438,-0.02643 -0.01741,0.01557 9.0003,-0.01979 -0.030858,-0.825631 -0.266424,-2.31072 -1.29446,-2.53807 l -1.7055,-0.5051 c -0.033842,-0.239397 0.042625,-0.783031 0,-1.02099 0.894724,-0.822381 1.06739,-0.648543 1.0624,-2.2434 0.158757,-1.10527 -0.755357,-2.63892 -2.42865,-2.67149 -0.067852,-0.0013 -0.136412,-0.0018 -0.200855,0 z" id="path28" fill="#6a6a6a"/>
 </g>
 <metadata id="metadata9999">
  <rdf:RDF>
   <cc:Work>
    <dc:format>image/svg+xml</dc:format>
    <dc:type rdf:resource="http://purl.org/dc/dcmitype/StillImage"/>
    <dc:title>Ivy icon theme</dc:title>
    <cc:license rdf:resource="http://creativecommons.org/licenses/by-sa/4.0/"/>
    <dc:creator>
     <cc:Agent>
      <dc:title>Sixsixfive (sixsixfive.deviantart.com)</dc:title>
     </cc:Agent>
    </dc:creator>
    <dc:publisher>
     <cc:Agent>
      <dc:title>Sixsixfive (sixsixfive.deviantart.com)</dc:title>
     </cc:Agent>
    </dc:publisher>
    <dc:source>https://github.com/sixsixfive</dc:source>
    <dc:subject>
     <rdf:Bag>
      <rdf:li>ivy</rdf:li>
     </rdf:Bag>
    </dc:subject>
    <dc:contributor>
     <cc:Agent>
      <dc:title>ssf</dc:title>
     </cc:Agent>
    </dc:contributor>
    <dc:rights>
     <cc:Agent>
      <dc:title>Sixsixfive (sixisixfive.deviantart.com)</dc:title>
     </cc:Agent>
    </dc:rights>
    <dc:description>A simple icon theme published under CC-BY-SA_V4(http://creativecommons.org/licenses/by-sa/4.0)</dc:description>
    <dc:identifier>SSF</dc:identifier>
   </cc:Work>
  </rdf:RDF>
 </metadata>
 <!--Part of the Ivy icon them published under the CC-BY-SA_V4: http://creativecommons.org/licenses/by-sa/4.0 -->
</svg>
