<?xml version="1.0" encoding="UTF-8" standalone="no"?><svg xmlns:cc="http://creativecommons.org/ns#" xmlns:rdf="http://www.w3.org/1999/02/22-rdf-syntax-ns#" xmlns:svg="http://www.w3.org/2000/svg" id="svg2" viewBox="0 0 16 16" version="1.1" xmlns:dc="http://purl.org/dc/elements/1.1/" xmlns="http://www.w3.org/2000/svg"><defs id="defs4"><linearGradient id="0" x2="45.09" y2="43.05" x1="45.11" y1="10.285" gradientUnits="userSpaceOnUse"><stop id="stop7" stop-color="#fff"/><stop offset="1" id="stop9" stop-color="#fff" stop-opacity="0"/></linearGradient><linearGradient id="1" x2="0" y2="5" gradientTransform="matrix(0.39999872 0 0 0.36841362 -1.599955 -0.842063)" y1="43" gradientUnits="userSpaceOnUse"><stop id="stop12" stop-color="#ddd"/><stop offset="1" id="stop14" stop-color="#f3f3f3"/></linearGradient></defs><path id="path25" d="m -3.356e-5,1.0000048 15.99994856,0 0,13.9984002 -15.99994856,0 z" fill="url(#1)"/><g id="g27" stroke-width="2.734" transform="matrix(0.36578 0 0 0.36578 -1.499 -1.762)" fill="none"><path id="path29" opacity="0.4" d="m 5.4688,8.9375 0,35.5 41,0 0,-35.5 -41,0 z" stroke="#000"/><path id="path31" d="m 8.2188,11.6875 0,30 35.5,0 0,-30 -35.5,0 z" stroke="url(#0)"/></g><path id="path33" d="M 2,4 2,7 5,4 z" fill="#fff"/><path id="path35" d="M 2,3 2,6 5,3 z" fill="#6a6a6a"/><path id="path37" d="M 14,4 14,7 11,4 z" fill="#fff"/><path id="path39" d="M 14,3 14,6 11,3 z" fill="#6a6a6a"/><path id="path41" d="m 14,14 0,-3 -3,3 z" fill="#fff"/><path id="path43" d="m 14,13 0,-3 -3,3 z" fill="#6a6a6a"/><path id="path45" d="m 2,14 0,-3 3,3 z" fill="#fff"/><path id="path47" d="m 2,13 0,-3 3,3 z" fill="#6a6a6a"/><metadata id="metadata9999"><rdf:RDF><cc:Work><dc:format>image/svg+xml</dc:format><dc:type rdf:resource="http://purl.org/dc/dcmitype/StillImage"/><dc:title>Ivy icon theme</dc:title><cc:license rdf:resource="http://creativecommons.org/licenses/by-sa/4.0/"/><dc:creator><cc:Agent><dc:title>Sixsixfive (sixsixfive.deviantart.com)</dc:title></cc:Agent></dc:creator><dc:publisher><cc:Agent><dc:title>Sixsixfive (sixsixfive.deviantart.com)</dc:title></cc:Agent></dc:publisher><dc:source>https://github.com/sixsixfive</dc:source><dc:subject><rdf:Bag><rdf:li>ivy</rdf:li></rdf:Bag></dc:subject><dc:contributor><cc:Agent><dc:title>ssf</dc:title></cc:Agent></dc:contributor><dc:rights><cc:Agent><dc:title>Sixsixfive (sixisixfive.deviantart.com)</dc:title></cc:Agent></dc:rights><dc:description>A simple icon theme published under CC-BY-SA_V4(http://creativecommons.org/licenses/by-sa/4.0)</dc:description><dc:identifier>SSF</dc:identifier></cc:Work></rdf:RDF></metadata><!--Part of the Ivy icon them published under the CC-BY-SA_V4: http://creativecommons.org/licenses/by-sa/4.0 -->
</svg>