<?xml version="1.0" encoding="UTF-8" standalone="no"?><svg xmlns:svg="http://www.w3.org/2000/svg" xmlns="http://www.w3.org/2000/svg" viewBox="0 0 16 16" xmlns:rdf="http://www.w3.org/1999/02/22-rdf-syntax-ns#" version="1.1" id="svg2" xmlns:dc="http://purl.org/dc/elements/1.1/" xmlns:cc="http://creativecommons.org/ns#"><defs id="1"><linearGradient x1="38.13" y1="8" x2="38.02" y2="27.845" id="9" gradientUnits="userSpaceOnUse"><stop id="K" stop-color="#ff8b36"/><stop offset="1" id="L" stop-color="#d25900"/></linearGradient><linearGradient x1="15.92" y1="6.127" x2="16.02" y2="13.991" id="A" gradientUnits="userSpaceOnUse"><stop id="M" stop-color="#5288d1"/><stop offset="1" id="N" stop-color="#90b3e2"/></linearGradient><linearGradient y1="6.538" x2="0" y2="14" id="B" gradientUnits="userSpaceOnUse"><stop id="O" stop-color="#fff"/><stop stop-opacity="0" offset="1" id="P" stop-color="#fff"/></linearGradient><linearGradient x1="3.153" y1="3.993" x2="3.795" y2="35.498" id="C" gradientTransform="matrix(0.36446 0 0 0.32416 -0.741 -0.248)" gradientUnits="userSpaceOnUse"><stop id="Q" stop-color="#eeeeec"/><stop offset="1" id="R" stop-color="#555753"/></linearGradient></defs><path id="2" color="#000" fill-rule="evenodd" d="m 1.5598,1.0486 c -0.201912,0 -0.289474,0.157418 -0.364462,0.324155 l -0.4328,0.6729 h -0.41002 c -0.201912,0 -0.364462,0.144573 -0.364462,0.324155 v 11.2904 c 0,0.179583 0.16255,0.324155 0.364462,0.324155 h 15.3074 c 0.201911,0 0.364461,-0.144572 0.364461,-0.324155 V 2.36981 c 0,-0.179582 -0.16255,-0.324155 -0.364461,-0.324155 h -8.2004 l -0.4328,-0.6729 C 6.951731,1.206018 6.864168,1.0486 6.662256,1.0486 z" fill="url(#C)"/><g opacity="0.472" id="3" fill="#fff"><path id="E" transform="matrix(0.33 0 0 0.33 0.317 1.742)" d="m 8.129,12.9024 c 8.99826,0.170115 0.345125,0.225407 9.03718,0.175326 l 0.0537,14.9762 12.3265,-0.13 -0.2053,-15.0215 9.09091,0 -15.2548,-15.0058 z"/></g><g stroke-linejoin="round" stroke-linecap="round" id="4" color="#000" fill="none"><path stroke="#000" opacity="0.43" id="F" transform="matrix(1.09339 0 0 0.9976 -0.75 -0.082)" d="M 2.2188,1.5625 1.8438,2.25 C 1.796079,2.343904 1.724352,2.423468 1.6563,2.46875 1.577832,2.520963 1.502307,2.562084 1.37505,2.5625 l -0.1875,0 0,10.9375 13.625,0 0,-10.9375 -7.3125,0 C 7.245223,2.561666 7.095052,2.379202 7.0313,2.21875 l -0.375,-0.6562 -4.4375,0 z"/><path stroke="#fff" opacity="0.35" id="G" transform="matrix(1.09339 0 0 0.9976 -0.75 0.018)" d="M 2.8125,2.5312 2.7813,2.5937 C 2.626079,2.984355 2.42736,3.142425 2.2188,3.2812 2.2024939,3.29205 2.1729132,3.301896 2.1563,3.31245 l 0,9.21875 11.6875,0 0,-9 -6.34375,0 C 6.796141,3.528897 6.42302,3.1472 6.2188,2.74995 L 6.125,2.59375 6.0938,2.53125 l -3.28125,0 z"/></g><path id="5" transform="matrix(0.33 0 0 0.33 0.317 0.742)" d="m 8.129,12.9024 c 8.99826,0.170115 0.345125,0.225407 9.03718,0.175326 l 0.0537,14.9762 12.3265,-0.13 -0.2053,-15.0215 h 9.09091 l -15.2548,-15.0058 z" fill="url(#9)"/><path opacity="0.339" id="6" d="M 7,1.065 H 9 V 3 H 7 z" fill="#fff"/><g stroke="#000" stroke-width="3.03" opacity="0.5" id="7" fill="none"><path id="H" transform="matrix(0.33 0 0 0.33 0.317 0.742)" d="M 23.1875,-0.0938 11.4687,11.5624 c 0.147217,0.0054 0.608684,0.02629 0.71875,0.03125 0.308519,0.01389 0.473452,0.04543 0.625,0.0625 0.05712,0.0064 0.11364,0.01608 0.1875,0.03125 0.01092,1.69e-4 0.04668,-1.7e-4 0.0625,0 0.07121,7.65e-4 0.106928,3.13e-4 0.28125,0 0.542336,-9.74e-4 1.63912,-0.01873 3.8125,-0.03125 a 1.40576,1.40576 0 0 1 1.40625,1.40625 l 0.0625,13.5938 9.4688,-0.125 -0.1562,-13.5938 a 1.40576,1.40576 0 0 1 1.40625,-1.4375 l 5.65625,0 -11.8125,-11.5938 z"/></g><g id="8" color="#000"><path id="I" fill-rule="evenodd" d="m 8.5871,5.9979 c -0.151434,0 -0.241788,0.063934 -0.307515,0.147217 -0.021907,0.027759 -0.038199,0.058038 -0.056947,0.08833 l -0.2847,0.4711 -0.2961,1.0707 C 7.623089,7.80554 7.606798,7.835818 7.584891,7.863577 7.519165,7.946863 7.425345,8.03161 7.277376,8.010794 l -3.3485,0 -1.75397,0 -2.18677,0 0,5.73812 c 0,0.130493 0.16255,0.235547 0.364462,0.235547 l 15.3074,0 c 0.201912,0 0.36446,-0.105054 0.36446,-0.235547 l 0,-7.51545 c 0,-0.130493 -0.17509,-0.190273 -0.364461,-0.235547 l -1.97037,0 -3.1321,0 z" fill="url(#A)"/><g id="J" fill="none"><path stroke="#000" opacity="0.47" id="U" d="M 8.6618,6.5746 8.3806,7.2308 8.0681,7.887 C 8.052063,7.922638 8.042684,7.978615 8.0056,8.04325 7.982762,8.083058 7.922445,8.233949 7.7556,8.35575 7.638328,8.441356 7.444244,8.560607 7.1931,8.512 l -3.28125,0 -1.75,0 -1.6875,0 0.0257,4.9879 15.0312,0 -0.0257,-6.9254 -1.84375,0 -3.125,0 z"/><path stroke="url(#B)" opacity="0.37" id="V" d="M 9.3125,7.5312 9.2813,7.5937 A 0.976239,0.976239 0 0 1 9.25005,7.62495 l -0.3125,0.6562 C 9.020036,8.097847 8.966595,8.317126 8.8438,8.53115 8.9127122,8.411032 8.836907,8.5576978 8.75005,8.6874 8.663193,8.817102 8.505773,8.983843 8.31255,9.1249 8.129707,9.258371 7.635722,9.591679 7.00005,9.46865 l -3.09375,0 -1.75,0 -0.71875,0 0.0312,3.0625 13.0938,0 -0.0312,-5 -0.875,0 -3.125,0 -1.21875,0 z"/></g></g><metadata id="metadata9999"><rdf:RDF><cc:Work><dc:format>image/svg+xml</dc:format><dc:type rdf:resource="http://purl.org/dc/dcmitype/StillImage"/><dc:title>Ivy icon theme</dc:title><cc:license rdf:resource="http://creativecommons.org/licenses/by-sa/4.0/"/><dc:creator><cc:Agent><dc:title>Sixsixfive (sixsixfive.deviantart.com)</dc:title></cc:Agent></dc:creator><dc:publisher><cc:Agent><dc:title>Sixsixfive (sixsixfive.deviantart.com)</dc:title></cc:Agent></dc:publisher><dc:source>https://github.com/sixsixfive</dc:source><dc:subject><rdf:Bag><rdf:li>ivy</rdf:li></rdf:Bag></dc:subject><dc:contributor><cc:Agent><dc:title>ssf</dc:title></cc:Agent></dc:contributor><dc:rights><cc:Agent><dc:title>Sixsixfive (sixisixfive.deviantart.com)</dc:title></cc:Agent></dc:rights><dc:description>A simple icon theme published under CC-BY-SA_V4(http://creativecommons.org/licenses/by-sa/4.0)</dc:description><dc:identifier>SSF</dc:identifier></cc:Work></rdf:RDF></metadata><!--Part of the Ivy icon them published under the CC-BY-SA_V4: http://creativecommons.org/licenses/by-sa/4.0 -->
</svg>