<?xml version="1.0" encoding="UTF-8" standalone="no"?><svg viewBox="0 0 16 16" xmlns:svg="http://www.w3.org/2000/svg" xmlns="http://www.w3.org/2000/svg" xmlns:rdf="http://www.w3.org/1999/02/22-rdf-syntax-ns#" xmlns:xlink="http://www.w3.org/1999/xlink" version="1.1" id="svg2" xmlns:dc="http://purl.org/dc/elements/1.1/" xmlns:cc="http://creativecommons.org/ns#"><defs id="defs4342"><linearGradient id="linearGradient5132"><stop id="stop5134" stop-color="#eed45a"/><stop offset="1" id="stop5136" stop-color="#ffd506"/></linearGradient><radialGradient xlink:href="#linearGradient5132" gradientTransform="matrix(1.5999998 -1.3333335 1.4206391 1.7047664 -1501.6374 -724.72219)" cy="1051.91" id="radialGradient5138" r="7.5" cx="12.09" gradientUnits="userSpaceOnUse"/></defs><g transform="matrix(1 0 0 1 0 -1036.3622)" id="layer1"><g transform="matrix(1 0 0 1 -0.094023 -0.04695)" id="g4386"><path opacity="0.1" id="path4159" d="m 8.119223,1037.3783 -7.0252,6 7,6 0.0252,-4.0054 3.9748,0.01 0,5.6866 0,1.2577 4,-0.01 0,-6.9443 -3e-4,-1.6606 c -2.69e-4,-1.2789 -1.01874,-2.308 -2.28417,-2.308 -0.05937,0 -0.12025,0.01 -0.178451,0.012 -0.06372,-0.01 -0.124871,-0.012 -0.190348,-0.012 l -5.3219,0 z"/><path id="path18" d="m 8.119223,1036.3781 -7.0252,6 7,6 0.0252,-4.0054 3.9748,0.01 0,5.6866 0,2.308 4,-0.01 0,-7.9946 -3e-4,-1.6606 c -2.69e-4,-1.2789 -1.01874,-2.308 -2.28417,-2.308 -0.05937,0 -0.12025,0.01 -0.178451,0.012 -0.06372,-0.01 -0.124871,-0.012 -0.190348,-0.012 l -5.3219,0 z" fill="url(#radialGradient5138)"/><g transform="matrix(-1 0 0 1 16.12532 1004.3199)" id="g20" fill="none"><path stroke-linejoin="round" stroke="#000" opacity="0.4" transform="matrix(-1 0 0 1 16.03 0.058)" id="path22" d="m 7.5625,33 -5.8438,5 5.8125,5 0.0312,-3 a 0.465545,0.465545 0 0 1 0.46875,-0.46875 l 3.96875,0 A 0.465545,0.465545 0 0 1 12.46865,40 l 0,5.6875 0,1.84375 3.0625,0 0,-7.53125 0,-1.65625 C 15.530933,37.31124 14.730601,36.5 13.71865,36.5 c -0.08289,0 -0.150403,-4.52e-4 -0.15625,0 a 0.465545,0.465545 0 0 1 -0.0625,0 c -0.0049,-4.94e-4 -0.06044,0 -0.15625,0 l -5.3125,0 A 0.465545,0.465545 0 0 1 7.5624,36.03125 L 7.5624,33 Z"/></g><path image-rendering="auto" white-space="normal" shape-rendering="auto" color-rendering="auto" mix-blend-mode="normal" color-interpolation-filters="linearRGB" color-interpolation="sRGB" opacity="0.68" isolation="auto" solid-color="#000000" solid-opacity="1" id="path4163" color="#000" fill-rule="evenodd" d="m 7.15462,1038.271 0.109375,2.502 c 0.183886,0.4478 0.358345,0.5166 0.701172,0.6074 l 6.611328,0.1348 -0.02148,1 -6.771488,-0.1367 -0.05859,-0.016 c -0.483961,-0.1286 -1.117667,-0.4637 -1.421876,-1.252 l -0.0293,-0.078 -0.02539,-0.5606 -2.867187,2.6543 -0.679687,-0.7324 4.453125,-4.1231 z" fill="#fff"/></g></g><metadata id="metadata9999"><rdf:RDF><cc:Work><dc:format>image/svg+xml</dc:format><dc:type rdf:resource="http://purl.org/dc/dcmitype/StillImage"/><dc:title>Ivy icon theme</dc:title><cc:license rdf:resource="http://creativecommons.org/licenses/by-sa/4.0/"/><dc:creator><cc:Agent><dc:title>Sixsixfive (sixsixfive.deviantart.com)</dc:title></cc:Agent></dc:creator><dc:publisher><cc:Agent><dc:title>Sixsixfive (sixsixfive.deviantart.com)</dc:title></cc:Agent></dc:publisher><dc:source>https://github.com/sixsixfive</dc:source><dc:subject><rdf:Bag><rdf:li>ivy</rdf:li></rdf:Bag></dc:subject><dc:contributor><cc:Agent><dc:title>ssf</dc:title></cc:Agent></dc:contributor><dc:rights><cc:Agent><dc:title>Sixsixfive (sixisixfive.deviantart.com)</dc:title></cc:Agent></dc:rights><dc:description>A simple icon theme published under CC-BY-SA_V4(http://creativecommons.org/licenses/by-sa/4.0)</dc:description><dc:identifier>SSF</dc:identifier></cc:Work></rdf:RDF></metadata><!--Part of the Ivy icon them published under the CC-BY-SA_V4: http://creativecommons.org/licenses/by-sa/4.0 -->
</svg>