<?xml version="1.0" encoding="UTF-8" standalone="no"?>
<svg xmlns:dc="http://purl.org/dc/elements/1.1/" xmlns:cc="http://creativecommons.org/ns#" xmlns:rdf="http://www.w3.org/1999/02/22-rdf-syntax-ns#" xmlns:svg="http://www.w3.org/2000/svg" xmlns="http://www.w3.org/2000/svg" viewBox="0 0 16 16" id="svg2" version="1.1">
 <defs id="defs4">
  <linearGradient id="0" y1="2.307" x1="11.893" y2="12.901" x2="11.97" gradientUnits="userSpaceOnUse">
   <stop stop-color="#fff" id="stop7"/>
   <stop offset="1" stop-color="#fff" stop-opacity="0" id="stop9"/>
  </linearGradient>
  <linearGradient id="1" y1="1.262" x1="4.218" y2="15.231" x2="4.333" gradientUnits="userSpaceOnUse">
   <stop stop-color="#66b03e" id="stop12"/>
   <stop offset="1" stop-color="#95ce76" id="stop14"/>
  </linearGradient>
 </defs>
 <path fill="url(#1)" d="m 0.1061,8.1008 3.961,0.0104 0,6.9856 L 8,12.1282 12.071,15.0968 V 8.11124 h 4.03508 l -7.9997,-7.0613 z" id="path16"/>
 <g id="g18" fill="none">
  <path d="m 8.1061,1.6633 -6.7812,5.9688 2.75,0 c 0.244046,0.00496 0.463789,0.224704 0.46875,0.46875 l -0.0385,5.992 3.4564,-2.7335 3.5996,2.6949 0.0385,-5.9535 C 11.60465,7.856704 11.824354,7.636961 12.0684,7.632 l 2.819,0 z" id="path20" opacity="0.4" stroke="#000"/>
  <path d="m 8.1061,2.9758 -4.125,3.6562 0.0938,0 C 4.844318,6.6306 5.54505,7.331332 5.54365,8.10075 l 0,3.87494 2.3913,-1.8874 2.6494,1.9645 0.1156,-3.952 C 10.69855,7.331372 11.399282,6.63064 12.1687,6.63204 l 0.0625,0 z" id="path22" opacity="0.35" stroke="url(#0)"/>
 </g>
 <metadata id="metadata9999">
  <rdf:RDF>
   <cc:Work>
    <dc:format>image/svg+xml</dc:format>
    <dc:type rdf:resource="http://purl.org/dc/dcmitype/StillImage"/>
    <dc:title>Ivy icon theme</dc:title>
    <cc:license rdf:resource="http://creativecommons.org/licenses/by-sa/4.0/"/>
    <dc:creator>
     <cc:Agent>
      <dc:title>Sixsixfive (sixsixfive.deviantart.com)</dc:title>
     </cc:Agent>
    </dc:creator>
    <dc:publisher>
     <cc:Agent>
      <dc:title>Sixsixfive (sixsixfive.deviantart.com)</dc:title>
     </cc:Agent>
    </dc:publisher>
    <dc:source>https://github.com/sixsixfive</dc:source>
    <dc:subject>
     <rdf:Bag>
      <rdf:li>ivy</rdf:li>
     </rdf:Bag>
    </dc:subject>
    <dc:contributor>
     <cc:Agent>
      <dc:title>ssf</dc:title>
     </cc:Agent>
    </dc:contributor>
    <dc:rights>
     <cc:Agent>
      <dc:title>Sixsixfive (sixisixfive.deviantart.com)</dc:title>
     </cc:Agent>
    </dc:rights>
    <dc:description>A simple icon theme published under CC-BY-SA_V4(http://creativecommons.org/licenses/by-sa/4.0)</dc:description>
    <dc:identifier>SSF</dc:identifier>
   </cc:Work>
  </rdf:RDF>
 </metadata>
 <!--Part of the Ivy icon them published under the CC-BY-SA_V4: http://creativecommons.org/licenses/by-sa/4.0 -->
</svg>
