<?xml version="1.0" encoding="UTF-8" standalone="no"?>
<svg xmlns:dc="http://purl.org/dc/elements/1.1/" xmlns:cc="http://creativecommons.org/ns#" xmlns:rdf="http://www.w3.org/1999/02/22-rdf-syntax-ns#" xmlns:svg="http://www.w3.org/2000/svg" xmlns="http://www.w3.org/2000/svg" xmlns:xlink="http://www.w3.org/1999/xlink" viewBox="0 0 16 16" id="svg2" version="1.1">
 <defs id="0">
  <linearGradient id="9">
   <stop stop-color="#eed45a" id="I"/>
   <stop offset="1" stop-color="#f8ecb7" id="J"/>
  </linearGradient>
  <linearGradient id="A" y1="44.01" y2="2" x2="0" gradientUnits="userSpaceOnUse" gradientTransform="matrix(0.37195 0 0 0.38089 -16.227 -16.762)">
   <stop stop-color="#eed45a" id="K"/>
   <stop offset="1" stop-color="#f3e291" id="L"/>
  </linearGradient>
  <linearGradient id="B" y1="43.997" y2="1.99" x2="0" gradientUnits="userSpaceOnUse" gradientTransform="matrix(-0.37195 0 0 -0.38089 16.235 16.758)">
   <stop stop-color="#fff" id="M"/>
   <stop offset="1" stop-color="#fff" id="N" stop-opacity="0"/>
  </linearGradient>
  <linearGradient id="F" xlink:href="#9" y1="0" y2="5" x2="0" gradientUnits="userSpaceOnUse"/>
 </defs>
 <rect width="13" x="-14" y="-16" fill="url(#A)" rx="0.46" height="15.997" id="1" transform="matrix(-1 0 0 -1 0 0)" ry="0.46"/>
 <path opacity="0.1" id="2" color="#000" d="m 2.375,1.1875 -0.75,0.625 3.1875,4 L 4.96875,6 5.1875,6 l 4.625,0 0.21875,0 0.15625,-0.1875 3.1875,-4 -0.75,-0.625 L 9.5625,5 5.4375,5 2.375,1.1875 z"/>
 <path fill="url(#F)" fill-rule="evenodd" id="3" d="M 1,0 14,0 10,5 5,5 z"/>
 <g id="4" fill="none">
  <path id="G" d="m 13.4749,0.5322 -11.9375,0 0,14.9375 11.9375,0 0,-14.9375 z" opacity="0.3" stroke="#000"/>
  <path id="H" d="m 12.5062,1.5322 -10,0 0,12.9375 10,0 0,-12.9375 z" opacity="0.6" stroke="url(#B)"/>
 </g>
 <rect width="11" x="2" opacity="0.3" y="12" height="1" fill-rule="evenodd" id="5"/>
 <rect width="11" x="2" opacity="0.4" y="13" fill="#fff" height="1" fill-rule="evenodd" id="6"/>
 <path opacity="0.4" id="7" color="#000" d="m 2.375,0.1875 -0.75,0.625 3.1875,4 L 4.96875,5 5.1875,5 l 4.625,0 0.21875,0 0.15625,-0.1875 3.1875,-4 -0.75,-0.625 L 9.5625,4 5.4375,4 2.375,0.1875 z"/>
 <rect width="1" x="7" opacity="0.3" y="5" height="7" fill-rule="evenodd" id="8"/>
 <metadata id="metadata9999">
  <rdf:RDF>
   <cc:Work>
    <dc:format>image/svg+xml</dc:format>
    <dc:type rdf:resource="http://purl.org/dc/dcmitype/StillImage"/>
    <dc:title>Ivy icon theme</dc:title>
    <cc:license rdf:resource="http://creativecommons.org/licenses/by-sa/4.0/"/>
    <dc:creator>
     <cc:Agent>
      <dc:title>Sixsixfive (sixsixfive.deviantart.com)</dc:title>
     </cc:Agent>
    </dc:creator>
    <dc:publisher>
     <cc:Agent>
      <dc:title>Sixsixfive (sixsixfive.deviantart.com)</dc:title>
     </cc:Agent>
    </dc:publisher>
    <dc:source>https://github.com/sixsixfive</dc:source>
    <dc:subject>
     <rdf:Bag>
      <rdf:li>ivy</rdf:li>
     </rdf:Bag>
    </dc:subject>
    <dc:contributor>
     <cc:Agent>
      <dc:title>ssf</dc:title>
     </cc:Agent>
    </dc:contributor>
    <dc:rights>
     <cc:Agent>
      <dc:title>Sixsixfive (sixisixfive.deviantart.com)</dc:title>
     </cc:Agent>
    </dc:rights>
    <dc:description>A simple icon theme published under CC-BY-SA_V4(http://creativecommons.org/licenses/by-sa/4.0)</dc:description>
    <dc:identifier>SSF</dc:identifier>
   </cc:Work>
  </rdf:RDF>
 </metadata>
 <!--Part of the Ivy icon them published under the CC-BY-SA_V4: http://creativecommons.org/licenses/by-sa/4.0 -->
</svg>
