<?xml version="1.0" encoding="UTF-8" standalone="no"?><svg xmlns:cc="http://creativecommons.org/ns#" xmlns:rdf="http://www.w3.org/1999/02/22-rdf-syntax-ns#" xmlns:svg="http://www.w3.org/2000/svg" id="svg2" viewBox="0 0 16 16" version="1.1" xmlns:xlink="http://www.w3.org/1999/xlink" xmlns="http://www.w3.org/2000/svg" xmlns:dc="http://purl.org/dc/elements/1.1/"><defs id="defs4"><linearGradient id="0" x2="0" y2="13" y1="0" gradientUnits="userSpaceOnUse"><stop id="stop7" stop-color="#959595"/><stop offset="1" id="stop9" stop-color="#e2e2e2"/></linearGradient><linearGradient id="0-2" x2="-8.254" y2="22.531" gradientTransform="matrix(0.24657 0 0 0.50768 -0.491 4.374)" x1="-8.372" y1="15.469" gradientUnits="userSpaceOnUse"><stop id="stop7-3" stop-color="#ebebeb"/><stop offset="1" id="stop9-0" stop-color="#b7b7b7"/></linearGradient><linearGradient id="1"><stop id="stop12" stop-color="#fff"/><stop offset="1" id="stop14" stop-color="#fff" stop-opacity="0"/></linearGradient><linearGradient id="2" x2="39.906" y2="42.969" gradientTransform="matrix(0.32946 0 0 0.32822 22.589 -5.418)" xlink:href="#1" x1="40" y1="3" gradientUnits="userSpaceOnUse"/><linearGradient id="3" x2="0" y2="2" gradientTransform="matrix(0.37195 0 0 0.38089 3.732888 5.367466)" y1="44.01" gradientUnits="userSpaceOnUse"><stop id="stop18" stop-color="#dedede"/><stop offset="1" id="stop20" stop-color="#f4f4f4"/></linearGradient><linearGradient id="4" x2="0" y2="1.99" gradientTransform="matrix(-0.37195 0 0 -0.38089 16.235 16.758)" xlink:href="#1" y1="43.997" gradientUnits="userSpaceOnUse"/><radialGradient r="5.533" cx="-36.514" id="5" cy="26.712" gradientTransform="matrix(0.40911 -0.35335 0.50465 0.28689 7.3125357 -17.865805)" gradientUnits="userSpaceOnUse"><stop id="stop24" stop-color="#f1d6a5"/><stop offset="1" id="stop26" stop-color="#d49320"/></radialGradient><radialGradient r="14.5" cx="0.704" id="6" cy="16.184" gradientTransform="matrix(-0.1963 -0.2357 0.09354 -0.15865 -1.785 16.483)" gradientUnits="userSpaceOnUse"><stop id="stop29" stop-color="#f28099"/><stop offset="1" id="stop31" stop-color="#ed4c70"/></radialGradient></defs><g id="g16" transform="matrix(0.76583 0.64304 -0.64115 0.76741 0 0)"><path id="rect3389" opacity="0.05" d="M 5.629319,-3.4140195 C 2.8744066,-1.1055809 2.5069676,2.9944803 4.8086214,5.7437207 7.1102751,8.4929611 11.209434,8.8503018 13.964346,6.5418632 15.026279,5.6520322 15.730512,4.4953374 16.066824,3.2530705 l 4.569356,-0.00101 c 0.554,-2e-7 0.999035,-0.4460132 0.999035,-1.0000131 l -5.1e-4,-0.9997911 c 0,-0.55399973 -0.446057,-0.99956921 -1.000057,-0.99956897 l -4.469329,-0.001359 C 15.95778,-0.77208874 15.501917,-1.7595982 14.785044,-2.615877 12.48339,-5.3651175 8.3842314,-5.7224581 5.629319,-3.4140195 Z m 1.9234679,2.2975114 C 9.0362042,-2.359516 11.243438,-2.1671023 12.482792,-0.68673902 13.722147,0.7936241 13.524296,3.0013439 12.040878,4.2443518 10.557461,5.4873597 8.3502273,5.2949459 7.1108728,3.8145828 5.8715183,2.3342196 6.0693696,0.12649978 7.5527869,-1.1165081 Z"/><path id="rect18" d="m 14.634,-0.514 5.36,0 c 0.554,0 1,0.446 1,1 l 0,1 c 0,0.554 -0.446,1 -1,1 l -5.36,0 c -0.554,0 -1,-0.446 -1,-1 l 0,-1 c 0,-0.554 0.446,-1 1,-1 z" fill="#79a3db"/><path id="path20" opacity="0.32" d="m 14.625,-0.0312 c -0.294527,0 -0.53125,0.236723 -0.53125,0.53125 l 0,1 c 0,0.294527 0.236723,0.53125 0.53125,0.53125 l 5.375,0 c 0.294527,0 0.53125,-0.236723 0.53125,-0.53125 l 0,-1 C 20.53125,0.205523 20.294527,-0.0312 20,-0.0312 l -5.375,0 z" stroke="#000" fill="none"/></g><path id="path22" d="M 6.5 0 C 2.91015 0 0 2.91015 0 6.5 0 10.08985 2.91015 13 6.5 13 10.08985 13 13 10.08985 13 6.5 13 2.91015 10.08985 0 6.5 0 z m 0 3 C 8.433 3 10 4.567 10 6.5 10 8.433 8.433 10 6.5 10 4.567 10 3 8.433 3 6.5 3 4.567 4.567 3 6.5 3 z" fill="url(#0)"/><g id="g24" fill="none"><path id="path26" opacity="0.3" d="m 6.5,0.5 c -3.32286,0 -6,2.67714 -6,6 0,3.32286 2.67714,6 6,6 3.32286,0 6,-2.67714 6,-6 0,-3.32286 -2.67714,-6 -6,-6 z m 0,2 c 2.19999,0 4,1.80001 4,4 0,2.19999 -1.80001,4 -4,4 -2.19999,0 -4,-1.80001 -4,-4 0,-2.19999 1.80001,-4 4,-4 z" stroke="#000"/></g><path id="path3366" opacity="0.7" d="M 1.8305085,3.8644067 C 4.7977378,0.7253356 7.8352368,0.18624513 10.983051,3.7288135" stroke="#fff" fill-rule="evenodd" fill="none"/><path id="path3368" opacity="0.6" d="m 12,10.508475 2.847457,2.440678" stroke="#fff" fill-rule="evenodd" fill="none"/><g id="g4374" transform="matrix(1 0 0 1 8.3719643 11.349805)"><path id="path35" opacity="0.72399998" d="m 3.6592857,-11.349805 c -0.630959,0.128459 -1.09375,0.704523 -1.09375,1.375 l 0,0.375 0,7.15625 0,3.15625002 0,0.03125 0.03125,0 2.03125,3.90624998 2,-3.93749998 0,-3.15625002 0,-7.53125 c 0,-0.765944 -0.640035,-1.375 -1.40625,-1.375 l -1.28125,0 c -0.09771,0 -0.193041,-0.01796 -0.28125,0 z" fill="#fff"/><g id="g73" transform="matrix(0 -1 1 0 -8.4344643 -11.349805)"><path id="path75" opacity="0.67000002" d="m -12.08,11.989 10.316,0 0,4.061 -10.316,0 z" fill="#eed45a"/><path id="rect77" d="m -8.9110005,11.989 7.5320001,0 c 0.77116795,0 1.39199993,0.620832 1.39199993,1.392 l 0,1.277 c 0,0.771168 -0.62083198,1.392 -1.39199993,1.392 l -7.5320001,0 C -9.6821685,16.05 -10.303,15.429168 -10.303,14.658 l 0,-1.277 c 0,-0.771168 0.6208315,-1.392 1.3919995,-1.392 z" fill="url(#6)"/></g><path id="path79" d="m 3.5544357,0.70849502 4.0614,0 -1.9912,3.93659998 c -2.07019,-3.93662998 0,0 -2.07019,-3.93662998 z" fill="url(#5)"/><g id="g81" transform="matrix(0 -1 1 0 -8.4344643 -11.349805)"><path id="path83" d="m -12.08,15.03 10.162,0 0,1.015 -10.162,0 z" fill="#a07018"/><path id="path85" d="m -12.08,13.02 10.06,0 0,2.01 -10.06,0 z" fill="#e4ae4e"/><path id="path87" d="m -12.08,11.989 10.111,0 0,1.01 -10.111,0 z" fill="#eecd92"/><path id="path89" d="m -2.957,11.989 0.986,0 0,4.061 -0.986,0 z" fill="url(#0-2)"/></g><path id="path91" d="m 4.5781357,2.635195 1.0388,2.0099 0.9814,-1.9842 z" fill="#6a6a6a"/><path id="path93" opacity="0.06000001" d="m 4.0775357,0.68019502 2.969,0 0,0.94699998 -2.969,0 z"/><path id="path95" opacity="0.34000017" d="m 4.7530357,-10.849805 c -0.399133,0.08126 -0.6875,0.427203 -0.6875,0.875 l 0,0.375 0,7.15625 0,3.03125002 1.5625,2.99999998 1.5,-2.99999998 0,-3.03125002 0,-7.53125 c 0,-0.495922 -0.396765,-0.875 -0.90625,-0.875 l -1.28125,0 c -0.160622,0 -0.22722,0.0081 -0.1875,0 z" stroke="#000" stroke-linejoin="round" fill="none"/></g><metadata id="metadata9999"><rdf:RDF><cc:Work><dc:format>image/svg+xml</dc:format><dc:type rdf:resource="http://purl.org/dc/dcmitype/StillImage"/><dc:title/><cc:license rdf:resource="http://creativecommons.org/licenses/by-sa/4.0/"/><dc:creator><cc:Agent><dc:title>Sixsixfive (sixsixfive.deviantart.com)</dc:title></cc:Agent></dc:creator><dc:publisher><cc:Agent><dc:title>Sixsixfive (sixsixfive.deviantart.com)</dc:title></cc:Agent></dc:publisher><dc:source>https://github.com/sixsixfive</dc:source><dc:subject><rdf:Bag><rdf:li>ivy</rdf:li></rdf:Bag></dc:subject><dc:contributor><cc:Agent><dc:title>ssf</dc:title></cc:Agent></dc:contributor><dc:rights><cc:Agent><dc:title>Sixsixfive (sixisixfive.deviantart.com)</dc:title></cc:Agent></dc:rights><dc:description>A simple icon theme published under CC-BY-SA_V4(http://creativecommons.org/licenses/by-sa/4.0)</dc:description><dc:identifier>SSF</dc:identifier></cc:Work></rdf:RDF></metadata><!--Part of the Ivy icon them published under the CC-BY-SA_V4: http://creativecommons.org/licenses/by-sa/4.0 -->
</svg>