<?xml version="1.0" encoding="UTF-8" standalone="no"?><svg viewBox="0 0 16 16" xmlns="http://www.w3.org/2000/svg" xmlns:svg="http://www.w3.org/2000/svg" xmlns:rdf="http://www.w3.org/1999/02/22-rdf-syntax-ns#" version="1.1" id="svg2" xmlns:dc="http://purl.org/dc/elements/1.1/" xmlns:cc="http://creativecommons.org/ns#"><defs id="defs4"><linearGradient y1="1.0003" x2="0" y2="-0.000014" id="0"><stop id="stop7" stop-color="#dedede"/><stop offset="1" id="stop9" stop-color="#f4f4f4"/></linearGradient><linearGradient y1="-0.118359" x2="0" y2="1.11836" id="1"><stop id="stop12" stop-color="#fff"/><stop stop-opacity="0" offset="1" id="stop14" stop-color="#fff"/></linearGradient><linearGradient y1="-0.000368" x2="0" y2="1.00025" id="0-8"><stop id="stop7-9" stop-color="#d02604"/><stop offset="1" id="stop9-0" stop-color="#fa3711"/></linearGradient></defs><g id="g15"><path transform="matrix(-1 0 0 -1 0 0)" id="rect16" d="m -13.54,-16 12.08,0 c 0.25484,0 0.46,0.20516 0.46,0.46 l 0,15.07699973 c 0,0.25484001 -0.20516,0.46000001 -0.46,0.46000001 l -12.08,0 c -0.25484,0 -0.46,-0.20516 -0.46,-0.46000001 L -14,-15.54 c 0,-0.25484 0.20516,-0.46 0.46,-0.46 z" fill="url(#0)"/><g id="g18" fill="none"><path stroke="#000" opacity="0.4" id="path20" d="m 13.4749,0.5322 -11.9375,0 0,14.9375 11.9375,0 0,-14.9375 z"/><path stroke="url(#1)" opacity="0.81" id="path22" d="m 12.5062,1.5322 -10,0 0,12.9375 10,0 0,-12.9375 z"/></g><g id="g4336"><path transform="matrix(1 0 0 1 0.170606 0.959918)" id="path16" d="m 5.82939,7.9399 0,4.10018 10,0 0,-4.10018 c -10,0 0,0.10018 -10,0 z" fill="url(#0-8)"/><path stroke-linejoin="bevel" stroke-width="0.997" opacity="0.37" stroke-linecap="square" id="rect4896" d="m 7,10 8,0 0,1 -8,0 z" fill="#fff"/><path stroke-linejoin="bevel" stroke-width="0.997" opacity="0.1" stroke-linecap="square" id="rect4902" d="m 6,13 10,0 0,1 -10,0 z"/><path stroke="#000" opacity="0.4" id="path4959" stroke-miterlimit="1.5" d="m 15.436236,9.465778 c -3.43624,-0.058081 -5.96706,0.03306 -8.8711,0.0039 l 0,2.9668 8.8711,0 0,-2.970699 z" fill="none"/></g></g><metadata id="metadata9999"><rdf:RDF><cc:Work><dc:format>image/svg+xml</dc:format><dc:type rdf:resource="http://purl.org/dc/dcmitype/StillImage"/><dc:title>Ivy icon theme</dc:title><cc:license rdf:resource="http://creativecommons.org/licenses/by-sa/4.0/"/><dc:creator><cc:Agent><dc:title>Sixsixfive (sixsixfive.deviantart.com)</dc:title></cc:Agent></dc:creator><dc:publisher><cc:Agent><dc:title>Sixsixfive (sixsixfive.deviantart.com)</dc:title></cc:Agent></dc:publisher><dc:source>https://github.com/sixsixfive</dc:source><dc:subject><rdf:Bag><rdf:li>ivy</rdf:li></rdf:Bag></dc:subject><dc:contributor><cc:Agent><dc:title>ssf</dc:title></cc:Agent></dc:contributor><dc:rights><cc:Agent><dc:title>Sixsixfive (sixisixfive.deviantart.com)</dc:title></cc:Agent></dc:rights><dc:description>A simple icon theme published under CC-BY-SA_V4(http://creativecommons.org/licenses/by-sa/4.0)</dc:description><dc:identifier>SSF</dc:identifier></cc:Work></rdf:RDF></metadata><!--Part of the Ivy icon them published under the CC-BY-SA_V4: http://creativecommons.org/licenses/by-sa/4.0 -->
</svg>