<?xml version="1.0" encoding="UTF-8" standalone="no"?>
<svg xmlns:dc="http://purl.org/dc/elements/1.1/" xmlns:cc="http://creativecommons.org/ns#" xmlns:rdf="http://www.w3.org/1999/02/22-rdf-syntax-ns#" xmlns:svg="http://www.w3.org/2000/svg" xmlns="http://www.w3.org/2000/svg" version="1.1" viewBox="0 0 16 16" id="svg2">
 <defs id="0"/>
 <rect width="5" x="5" fill="#5288d1" height="4" id="rect3007"/>
 <path opacity="0.4" fill="none" stroke="#000" id="path3015" d="m 5.5,0.5 0,3 4,0 0,-3 -4,0 z"/>
 <rect width="3" x="6" opacity="0.4" y="1" fill="#fff" height="1" id="rect3017"/>
 <rect width="5" x="5" y="6" fill="#5288d1" height="4" id="rect3019"/>
 <path opacity="0.4" fill="none" stroke="#000" id="path3021" d="m 5.5,0.5 0,3 4,0 0,-3 -4,0 z" transform="matrix(1 0 0 1 0 6)"/>
 <rect width="3" x="6" opacity="0.4" y="7" fill="#fff" height="1" id="rect3023"/>
 <rect width="5" x="5" y="12" fill="#5288d1" height="4" id="rect3025"/>
 <path opacity="0.4" fill="none" stroke="#000" id="path3027" d="m 5.5,0.5 0,3 4,0 0,-3 -4,0 z" transform="matrix(1 0 0 1 0 12)"/>
 <rect width="3" x="6" opacity="0.4" y="13" fill="#fff" height="1" id="rect3029"/>
 <metadata id="metadata9999">
  <rdf:RDF>
   <cc:Work>
    <dc:format>image/svg+xml</dc:format>
    <dc:type rdf:resource="http://purl.org/dc/dcmitype/StillImage"/>
    <dc:title>Ivy icon theme</dc:title>
    <cc:license rdf:resource="http://creativecommons.org/licenses/by-sa/4.0/"/>
    <dc:creator>
     <cc:Agent>
      <dc:title>Sixsixfive (sixsixfive.deviantart.com)</dc:title>
     </cc:Agent>
    </dc:creator>
    <dc:publisher>
     <cc:Agent>
      <dc:title>Sixsixfive (sixsixfive.deviantart.com)</dc:title>
     </cc:Agent>
    </dc:publisher>
    <dc:source>https://github.com/sixsixfive</dc:source>
    <dc:subject>
     <rdf:Bag>
      <rdf:li>ivy</rdf:li>
     </rdf:Bag>
    </dc:subject>
    <dc:contributor>
     <cc:Agent>
      <dc:title>ssf</dc:title>
     </cc:Agent>
    </dc:contributor>
    <dc:rights>
     <cc:Agent>
      <dc:title>Sixsixfive (sixisixfive.deviantart.com)</dc:title>
     </cc:Agent>
    </dc:rights>
    <dc:description>A simple icon theme published under CC-BY-SA_V4(http://creativecommons.org/licenses/by-sa/4.0)</dc:description>
    <dc:identifier>SSF</dc:identifier>
   </cc:Work>
  </rdf:RDF>
 </metadata>
 <!--Part of the Ivy icon them published under the CC-BY-SA_V4: http://creativecommons.org/licenses/by-sa/4.0 -->
</svg>
