<?xml version="1.0" encoding="UTF-8" standalone="no"?><svg xmlns:svg="http://www.w3.org/2000/svg" xmlns="http://www.w3.org/2000/svg" viewBox="0 0 16 16" xmlns:rdf="http://www.w3.org/1999/02/22-rdf-syntax-ns#" version="1.1" id="svg2" xmlns:dc="http://purl.org/dc/elements/1.1/" xmlns:cc="http://creativecommons.org/ns#"><defs id="defs4"><linearGradient x1="45.11" y1="10.285" x2="45.09" y2="43.05" id="0" gradientUnits="userSpaceOnUse"><stop id="stop7" stop-color="#fff"/><stop stop-opacity="0" offset="1" id="stop9" stop-color="#fff"/></linearGradient><linearGradient y1="43" x2="0" y2="5" id="1" gradientTransform="matrix(0.39999872 0 0 0.36841362 -1.599922 -0.841268)" gradientUnits="userSpaceOnUse"><stop id="stop12" stop-color="#ddd"/><stop offset="1" id="stop14" stop-color="#fff"/></linearGradient></defs><path id="path25" d="m 0,1.0007999 15.999949,0 0,13.9984001 L 0,14.9992 Z" fill="url(#1)"/><g stroke-width="2.734" id="g27" transform="matrix(0.36578 0 0 0.36578 -1.499 -1.762)" fill="none"><path stroke="#000" opacity="0.50040009" id="path29" d="m 5.4688,8.9375 0,35.5 41,0 0,-35.5 -41,0 z"/><path stroke="url(#0)" opacity="1" id="path31" d="m 8.2188,11.6875 0,30 35.5,0 0,-30 -35.5,0 z"/></g><path id="path3456" d="m 13,6 -2,0 0,2 2,0 z" fill="#fff"/><path id="path3458" d="M 9,6 7,6 7,8 9,8 Z" fill="#fff"/><path id="path3460" d="M 5,6 3,6 3,8 5,8 Z" fill="#fff"/><path opacity="0.66799998" id="path3470" d="m 9,12 -2,0 0,2 2,0 z" fill="#fff"/><path opacity="0.66799998" id="path3472" d="m 5,12 -2,0 0,2 2,0 z" fill="#fff"/><path opacity="0.7" id="path37" d="m 13,5 -2,0 0,2 2,0 z" fill="#6a6a6a"/><path opacity="0.7" id="path3358" d="M 9,5 7,5 7,7 9,7 Z" fill="#6a6a6a"/><path opacity="0.7" id="path3374" d="M 5,5 3,5 3,7 5,7 Z" fill="#6a6a6a"/><rect stroke-dasharray="none" stroke-opacity="1" stroke="none" stroke-linejoin="round" y="3" x="2" stroke-width="1" stroke-dashoffset="0" stroke-linecap="round" opacity="0.7" fill-opacity="1" height="1" id="rect3363" width="12" stroke-miterlimit="4" fill-rule="evenodd" fill="#171717"/><rect stroke-dasharray="none" stroke-opacity="1" stroke="none" stroke-linejoin="round" y="9" x="2" stroke-width="1" stroke-dashoffset="0" stroke-linecap="round" opacity="0.7" fill-opacity="1" height="1" id="rect3367" width="12" stroke-miterlimit="4" fill-rule="evenodd" fill="#171717"/><path opacity="0.7" id="path3452" d="m 9,11 -2,0 0,2 2,0 z" fill="#6a6a6a"/><path opacity="0.7" id="path3454" d="m 5,11 -2,0 0,2 2,0 z" fill="#6a6a6a"/><metadata id="metadata9999"><rdf:RDF><cc:Work><dc:format>image/svg+xml</dc:format><dc:type rdf:resource="http://purl.org/dc/dcmitype/StillImage"/><dc:title/><cc:license rdf:resource="http://creativecommons.org/licenses/by-sa/4.0/"/><dc:creator><cc:Agent><dc:title>Sixsixfive (sixsixfive.deviantart.com)</dc:title></cc:Agent></dc:creator><dc:publisher><cc:Agent><dc:title>Sixsixfive (sixsixfive.deviantart.com)</dc:title></cc:Agent></dc:publisher><dc:source>https://github.com/sixsixfive</dc:source><dc:subject><rdf:Bag><rdf:li>ivy</rdf:li></rdf:Bag></dc:subject><dc:contributor><cc:Agent><dc:title>ssf</dc:title></cc:Agent></dc:contributor><dc:rights><cc:Agent><dc:title>Sixsixfive (sixisixfive.deviantart.com)</dc:title></cc:Agent></dc:rights><dc:description>A simple icon theme published under CC-BY-SA_V4(http://creativecommons.org/licenses/by-sa/4.0)</dc:description><dc:identifier>SSF</dc:identifier></cc:Work></rdf:RDF></metadata><!--Part of the Ivy icon them published under the CC-BY-SA_V4: http://creativecommons.org/licenses/by-sa/4.0 -->
</svg>