<?xml version="1.0" encoding="UTF-8" standalone="no"?>
<svg xmlns:dc="http://purl.org/dc/elements/1.1/" xmlns:cc="http://creativecommons.org/ns#" xmlns:rdf="http://www.w3.org/1999/02/22-rdf-syntax-ns#" xmlns:svg="http://www.w3.org/2000/svg" xmlns="http://www.w3.org/2000/svg" viewBox="0 0 16 16" id="svg2" version="1.1">
 <defs id="defs4">
  <linearGradient id="0" y1="44.01" y2="2" gradientUnits="userSpaceOnUse" x2="0" gradientTransform="matrix(0.37195 0 0 0.38089 -16.227 -16.762)">
   <stop stop-color="#dedede" id="stop7"/>
   <stop offset="1" stop-color="#f4f4f4" id="stop9"/>
  </linearGradient>
  <linearGradient id="1" y1="43.997" y2="1.99" gradientUnits="userSpaceOnUse" x2="0" gradientTransform="matrix(-0.37195 0 0 -0.38089 16.235 16.758)">
   <stop stop-color="#fff" id="stop12"/>
   <stop offset="1" stop-color="#fff" id="stop14" stop-opacity="0"/>
  </linearGradient>
  <linearGradient id="2" y1="1" y2="8" gradientUnits="userSpaceOnUse" x2="0">
   <stop stop-color="#ffc093" id="stop17"/>
   <stop offset="1" stop-color="#ff8b36" id="stop19"/>
  </linearGradient>
 </defs>
 <rect width="13" x="-14" y="-16" fill="url(#0)" rx="0.46" height="15.997" id="rect21" transform="matrix(-1 0 0 -1 0 0)" ry="0.46"/>
 <path opacity="0.39" fill="#fff" id="path23" d="M 5,12 H10 V13 H5 z"/>
 <g id="g25" transform="matrix(-1,0,0,-1,15,17)">
  <path id="path27" d="M 6,2 6,6 5,6 5,7 6,7 6,8 7,8 7,9 8,9 8,8 9,8 9,7 10,7 10,6 9,6 9,2 6,2 Z" opacity="0.5" fill="#fff"/>
  <path id="path29" d="M 6,1 6,5 5,5 5,6 6,6 6,7 7,7 7,8 8,8 8,7 9,7 9,6 10,6 10,5 9,5 9,1 6,1 Z" fill="url(#2)"/>
  <path id="path31" d="M 6,1 7,1 7,5 6,5 Z" opacity="0.32" fill="#171717"/>
  <path id="path33" d="M 8,1 9,1 9,5 8,5 Z" opacity="0.32"/>
 </g>
 <g id="g35" fill="none">
  <path id="path37" d="m 13.4749,0.5322 -11.9375,0 0,14.9375 11.9375,0 0,-14.9375 z" opacity="0.4" stroke="#000"/>
  <path id="path39" d="m 12.5062,1.5322 -10,0 0,12.9375 10,0 0,-12.9375 z" opacity="0.81" stroke="url(#1)"/>
 </g>
 <rect width="3.051" x="5.966" opacity="0.3" y="14.915" fill="#171717" height="1.085" stroke-linejoin="round" id="rect4170" stroke-linecap="round"/>
 <metadata id="metadata9999">
  <rdf:RDF>
   <cc:Work>
    <dc:format>image/svg+xml</dc:format>
    <dc:type rdf:resource="http://purl.org/dc/dcmitype/StillImage"/>
    <dc:title>Ivy icon theme</dc:title>
    <cc:license rdf:resource="http://creativecommons.org/licenses/by-sa/4.0/"/>
    <dc:creator>
     <cc:Agent>
      <dc:title>Sixsixfive (sixsixfive.deviantart.com)</dc:title>
     </cc:Agent>
    </dc:creator>
    <dc:publisher>
     <cc:Agent>
      <dc:title>Sixsixfive (sixsixfive.deviantart.com)</dc:title>
     </cc:Agent>
    </dc:publisher>
    <dc:source>https://github.com/sixsixfive</dc:source>
    <dc:subject>
     <rdf:Bag>
      <rdf:li>ivy</rdf:li>
     </rdf:Bag>
    </dc:subject>
    <dc:contributor>
     <cc:Agent>
      <dc:title>ssf</dc:title>
     </cc:Agent>
    </dc:contributor>
    <dc:rights>
     <cc:Agent>
      <dc:title>Sixsixfive (sixisixfive.deviantart.com)</dc:title>
     </cc:Agent>
    </dc:rights>
    <dc:description>A simple icon theme published under CC-BY-SA_V4(http://creativecommons.org/licenses/by-sa/4.0)</dc:description>
    <dc:identifier>SSF</dc:identifier>
   </cc:Work>
  </rdf:RDF>
 </metadata>
 <!--Part of the Ivy icon them published under the CC-BY-SA_V4: http://creativecommons.org/licenses/by-sa/4.0 -->
</svg>
