<?xml version="1.0" encoding="UTF-8" standalone="no"?><svg xmlns:xlink="http://www.w3.org/1999/xlink" xmlns:cc="http://creativecommons.org/ns#" viewBox="0 0 16 16" version="1.1" id="svg2" xmlns:svg="http://www.w3.org/2000/svg" xmlns="http://www.w3.org/2000/svg" xmlns:rdf="http://www.w3.org/1999/02/22-rdf-syntax-ns#" xmlns:dc="http://purl.org/dc/elements/1.1/"><defs id="defs4"><linearGradient x2="0" gradientUnits="userSpaceOnUse" y2="45" id="0" gradientTransform="matrix(0.38095 0 0 0.38084 -1.143 -1.143)" y1="3"><stop stop-color="#6a6a6a" id="stop7"/><stop offset="1" stop-color="#b2b2b2" id="stop9"/></linearGradient><linearGradient x2="0" gradientUnits="userSpaceOnUse" y2="15" id="1" y1="1"><stop stop-color="#fff" id="stop12"/><stop offset="1" stop-opacity="0" stop-color="#fff" id="stop14"/></linearGradient></defs><rect height="15.995" width="16" rx="1.524" ry="1.523" fill="url(#0)" id="rect16"/><g fill="none" id="g18"><path opacity="0.45" stroke="#000" id="path20" d="M 1.53125,0.5 C 0.953503,0.5 0.5,0.953706 0.5,1.53125 l 0,12.9375 C 0.5,15.04629 0.953503,15.5 1.53125,15.5 l 12.9375,0 C 15.0465,15.5 15.5,15.0463 15.5,14.46875 l 0,-12.9375 C 15.5,0.953705 15.0465,0.5 14.46875,0.5 l -12.9375,0 z"/><path opacity="0.45" stroke="url(#1)" id="path22" d="M 1.53125,1.5 C 1.504466,1.5 1.5,1.504632 1.5,1.53125 l 0,12.9375 C 1.5,14.49537 1.50447,14.5 1.53125,14.5 l 12.9375,0 C 14.49554,14.5 14.5,14.4954 14.5,14.46875 l 0,-12.9375 C 14.5,1.504631 14.495535,1.5 14.46875,1.5 l -12.9375,0 z"/></g><g opacity="0.28" id="g24" transform="matrix(0.33333 0 0 0.27695 22.414 -0.202)"><path id="2" d="m -44.6476,8.4084 c -5.8724,0 -10.5938,4.72135 -10.5938,10.5938 l 0,11.75 c 0,5.8724 4.72135,10.5938 10.5938,10.5938 l 2.8125,0 c 5.8724,0 10.5938,-4.72135 10.5938,-10.5938 l 0,-11.75 c 0,-5.8724 -4.72135,-10.5938 -10.5938,-10.5938 l -2.8125,0 z m 0,6.3125 2.8125,0 c 2.52494,0 4.28125,1.75631 4.28125,4.28125 l 0,11.75 c 0,2.52494 -1.75631,4.28125 -4.28125,4.28125 l -2.8125,0 c -2.52494,0 -4.28125,-1.75631 -4.28125,-4.28125 l 0,-11.75 c 0,-2.52494 1.75631,-4.28125 4.28125,-4.28125 z"/><path id="3" d="m -57.157002,22.393999 27.834,0 c 0.599982,0 1.083,0.483018 1.083,1.083 l 0,19.499001 c 0,0.599982 -0.483018,1.083 -1.083,1.083 l -27.834,0 c -0.599982,0 -1.083,-0.483018 -1.083,-1.083 l 0,-19.499001 c 0,-0.599982 0.483018,-1.083 1.083,-1.083 z"/></g><g fill="#fff" id="g28" transform="matrix(0.33333 0 0 0.27695 22.414 0.798)"><use height="16" width="16" xlink:href="#2" id="use30" x="0" y="0"/><use height="16" width="16" xlink:href="#3" id="use32" x="0" y="0"/></g><metadata id="metadata9999"><rdf:RDF><cc:Work><dc:format>image/svg+xml</dc:format><dc:type rdf:resource="http://purl.org/dc/dcmitype/StillImage"/><dc:title>Ivy icon theme</dc:title><cc:license rdf:resource="http://creativecommons.org/licenses/by-sa/4.0/"/><dc:creator><cc:Agent><dc:title>Sixsixfive (sixsixfive.deviantart.com)</dc:title></cc:Agent></dc:creator><dc:publisher><cc:Agent><dc:title>Sixsixfive (sixsixfive.deviantart.com)</dc:title></cc:Agent></dc:publisher><dc:source>https://github.com/sixsixfive</dc:source><dc:subject><rdf:Bag><rdf:li>ivy</rdf:li></rdf:Bag></dc:subject><dc:contributor><cc:Agent><dc:title>ssf</dc:title></cc:Agent></dc:contributor><dc:rights><cc:Agent><dc:title>Sixsixfive (sixisixfive.deviantart.com)</dc:title></cc:Agent></dc:rights><dc:description>A simple icon theme published under CC-BY-SA_V4(http://creativecommons.org/licenses/by-sa/4.0)</dc:description><dc:identifier>SSF</dc:identifier></cc:Work></rdf:RDF></metadata><!--Part of the Ivy icon them published under the CC-BY-SA_V4: http://creativecommons.org/licenses/by-sa/4.0 -->
</svg>