<?xml version="1.0" encoding="UTF-8" standalone="no"?><svg viewBox="0 0 16 16" xmlns="http://www.w3.org/2000/svg" xmlns:svg="http://www.w3.org/2000/svg" xmlns:rdf="http://www.w3.org/1999/02/22-rdf-syntax-ns#" version="1.1" id="svg2" xmlns:dc="http://purl.org/dc/elements/1.1/" xmlns:cc="http://creativecommons.org/ns#"><defs id="defs4"><linearGradient y1="1" x2="0" y2="15.406" id="0" gradientUnits="userSpaceOnUse"><stop id="stop7" stop-color="#fff"/><stop stop-opacity="0" offset="1" id="stop9" stop-color="#fff"/></linearGradient><linearGradient y1="28" x2="0" y2="44" gradientTransform="matrix(0.41612 0 0 0.43921 -1.98 -3.312)" id="1" gradientUnits="userSpaceOnUse"><stop id="stop12" stop-color="#999"/><stop offset="1" id="stop14" stop-color="#ebebeb"/></linearGradient><linearGradient y1="27" x2="0" y2="4" gradientTransform="matrix(0.4 0 0 0.3055 -1.6 -1.248)" id="2" gradientUnits="userSpaceOnUse"><stop id="stop17" stop-color="#eee"/><stop offset="1" id="stop19" stop-color="#dedede"/></linearGradient><radialGradient gradientTransform="matrix(0.38089 0 0 0.381 -1.14 -0.96)" id="3" cy="44.548" cx="23" r="21" gradientUnits="userSpaceOnUse"><stop id="stop22" stop-color="#90b3e1"/><stop offset="1" id="stop24" stop-color="#5288d1"/></radialGradient></defs><path id="path26" d="m 0.5977,-0.002 c -0.325489,0 -0.595144,0.276941 -0.595144,0.611227 v 13.9971 a 0.188745,0.193846 0 0 0 0.059515,0.13447 l 1.1665,1.198 a 0.188745,0.193846 0 0 0 0.130932,0.06112 h 14.0454 c 0.325489,4e-6 0.595142,-0.276937 0.595142,-0.611223 v -14.7795 c 0,-0.334285 -0.269653,-0.611227 -0.595143,-0.611227 h -14.8072 z" fill="url(#3)"/><path id="path28" d="m 2,-0.026 h 12 v 7.03 H 2 z" fill="url(#2)"/><rect y="-0.026" x="2" ry="0.064" height="2.026" rx="0.05" id="rect30" width="12" fill="#d02604"/><path id="path32" d="M 3.897269,9 C 3.400045,9 3,9.439515 3,9.974507 v 5.792129 a 0.225411,0.237918 0 0 0 0.221066,0.233332 h 9.557868 A 0.225411,0.237918 0 0 0 13,15.766636 V 9.974507 C 13,9.444827 12.612958,9 12.11574,9 H 3.897269 z" fill="url(#1)"/><rect y="11" x="5" ry="0.224" height="3" rx="0.299" id="rect34" width="2" fill="#5288d1"/><g id="g36" fill="#fff"><path id="path38" d="M 2,2 14,2 14,3 2,3 Z"/><path opacity="0.51" id="path40" d="m 4,10 8,0 0,1 -8,0 z"/><path opacity="0.38" id="path42" d="M 2,7 14,7 14,8 2,8 Z"/></g><path opacity="0.6" id="path44" d="M 2.0625,0 C 2.034532,0 2,0.027079 2,0.0625 v 6.875 C 2,6.972921 2.034532,7 2.0625,7 h 0.875 C 2.965468,7 3,6.972921 3,6.9375 3,6.972921 3.034532,7 3.0625,7 h 10.875 C 13.965468,7 14,6.972921 14,6.9375 V 6.0625 C 14,6.02708 13.965468,6 13.9375,6 13.965468,6 14,5.972921 14,5.9375 V 0.0625 C 14,0.027079 13.965468,0 13.9375,0 h -0.875 C 13.03453,0 13,0.027079 13,0.0625 v 5.875 C 13,5.972921 13.03453,6 13.0625,6 h -10 C 3.034532,6 3,6.02708 3,6.0625 v -6 C 3,0.027079 2.965468,0 2.9375,0 h -0.875 z"/><g id="g46" fill="none"><path stroke="#000" opacity="0.66" id="path48" d="M 0.5938,0.5 C 0.53293,0.5 0.50005,0.525856 0.50005,0.59375 l 0,13.9062 a 0.497984,0.497984 0 0 1 0,0.03125 l 0.9688,0.9688 13.9375,0 c 0.02899,0 0.09375,-0.0571 0.09375,-0.125 l 0,-14.7812 c 0,-0.067894 -0.03288,-0.09375 -0.09375,-0.09375 l -14.8125,0 z"/><path stroke="url(#0)" opacity="0.019" id="path50" d="m 1.5,1.5 0,12.5938 0.375,0.4062 12.625,0 0,-13 -13,0 z m 0.75,13.3125 c 0.010417,0.03125 0.052083,0.09375 0.0625,0.09375 C 2.271432,14.871308 2.213025,14.783254 2.25,14.8125 Z"/><path stroke="#000" opacity="0.3" id="path52" d="M 3.90625,9.5 C 3.698611,9.5 3.5,9.687554 3.5,9.96875 l 0,5.53125 9,0 0,-5.53125 C 12.5,9.675827 12.32909,9.5 12.125,9.5 l -8.21875,0 z"/></g><rect stroke-linejoin="round" y="1.017" x="0.949" opacity="0.4" stroke-linecap="round" height="0.881" id="rect3383" width="0.949" fill="#fff"/><rect stroke-linejoin="round" y="1.017" x="14.03" opacity="0.4" stroke-linecap="round" height="0.881" id="rect3387" width="0.949" fill="#fff"/><rect stroke-linejoin="round" y="11" x="5" opacity="0.38" stroke-linecap="round" height="1" id="rect3389" width="2"/><g opacity="0.3" id="g3028"><path id="path3030" d="M 0,4 0,13 16,13 16,4 0,4 0,4 Z"/><path stroke-linejoin="round" stroke-width="1.5" stroke-linecap="round" id="rect3032" d="M 2,6 3,6 3,7 2,7 Z"/><path stroke-linejoin="round" stroke-width="1.5" stroke-linecap="round" id="rect3034" d="M 2,5 3,5 3,6 2,6 Z"/><path stroke-linejoin="round" stroke-width="1.5" stroke-linecap="round" id="rect3036" d="M 4,6 5,6 5,7 4,7 Z"/><path stroke-linejoin="round" stroke-width="1.5" stroke-linecap="round" id="rect3038" d="M 4,5 5,5 5,6 4,6 Z"/><path stroke-linejoin="round" stroke-width="1.5" stroke-linecap="round" id="rect3040" d="m 3,7 1,0 0,5 -1,0 z"/><path stroke-linejoin="round" stroke-width="1.5" stroke-linecap="round" id="rect3042" d="m 3,6 1,0 0,5 -1,0 z"/><path stroke-linejoin="round" stroke-width="1.5" stroke-linecap="round" id="rect3044" d="m 2,11 1,0 0,1 -1,0 z"/><path stroke-linejoin="round" stroke-width="1.5" stroke-linecap="round" id="rect3046" d="m 4,11 1,0 0,1 -1,0 z"/><path stroke="#000" opacity="0.4" id="path3048" d="m 0.50195312,4.5019531 0,7.9960939 14.99609388,0 0,-7.9960939 -14.99609388,0 z"/><path stroke-linejoin="round" stroke-width="1.5" opacity="0.6" stroke-linecap="round" id="rect3050" d="m 2,12 1,0 0,1 -1,0 z"/><path stroke-linejoin="round" stroke-width="1.5" opacity="0.6" stroke-linecap="round" id="rect3052" d="m 4,12 1,0 0,1 -1,0 z"/></g><g transform="matrix(1 0 0 1 0 -1)" id="g3122"><path id="2-0" d="M 0,4 0,13 16,13 16,4 0,4 0,4 Z" fill="#ebebeb"/><path stroke-linejoin="round" stroke-width="1.5" stroke-linecap="round" id="rect3382" d="M 2,6 3,6 3,7 2,7 Z" fill="#fff"/><path stroke-linejoin="round" stroke-width="1.5" stroke-linecap="round" id="rect3364" d="M 2,5 3,5 3,6 2,6 Z" fill="#171717"/><path stroke-linejoin="round" stroke-width="1.5" stroke-linecap="round" id="rect3384" d="M 4,6 5,6 5,7 4,7 Z" fill="#fff"/><path stroke-linejoin="round" stroke-width="1.5" stroke-linecap="round" id="rect3366" d="M 4,5 5,5 5,6 4,6 Z" fill="#171717"/><path stroke-linejoin="round" stroke-width="1.5" stroke-linecap="round" id="rect3386" d="m 3,7 1,0 0,5 -1,0 z" fill="#fff"/><path stroke-linejoin="round" stroke-width="1.5" stroke-linecap="round" id="rect3368" d="m 3,6 1,0 0,5 -1,0 z" fill="#171717"/><path stroke-linejoin="round" stroke-width="1.5" stroke-linecap="round" id="rect3370" d="m 2,11 1,0 0,1 -1,0 z" fill="#171717"/><path stroke-linejoin="round" stroke-width="1.5" stroke-linecap="round" id="rect3372" d="m 4,11 1,0 0,1 -1,0 z" fill="#171717"/><path stroke="#000" opacity="0.4" id="path3376" d="m 0.50195312,4.5019531 0,7.9960939 14.99609388,0 0,-7.9960939 -14.99609388,0 z" fill="none"/><path stroke-linejoin="round" stroke-width="1.5" opacity="0.6" stroke-linecap="round" id="rect3388" d="m 2,12 1,0 0,1 -1,0 z" fill="#fff"/><path stroke-linejoin="round" stroke-width="1.5" opacity="0.6" stroke-linecap="round" id="rect3390" d="m 4,12 1,0 0,1 -1,0 z" fill="#fff"/></g><metadata id="metadata9999"><rdf:RDF><cc:Work><dc:format>image/svg+xml</dc:format><dc:type rdf:resource="http://purl.org/dc/dcmitype/StillImage"/><dc:title>Ivy icon theme</dc:title><cc:license rdf:resource="http://creativecommons.org/licenses/by-sa/4.0/"/><dc:creator><cc:Agent><dc:title>Sixsixfive (sixsixfive.deviantart.com)</dc:title></cc:Agent></dc:creator><dc:publisher><cc:Agent><dc:title>Sixsixfive (sixsixfive.deviantart.com)</dc:title></cc:Agent></dc:publisher><dc:source>https://github.com/sixsixfive</dc:source><dc:subject><rdf:Bag><rdf:li>ivy</rdf:li></rdf:Bag></dc:subject><dc:contributor><cc:Agent><dc:title>ssf</dc:title></cc:Agent></dc:contributor><dc:rights><cc:Agent><dc:title>Sixsixfive (sixisixfive.deviantart.com)</dc:title></cc:Agent></dc:rights><dc:description>A simple icon theme published under CC-BY-SA_V4(http://creativecommons.org/licenses/by-sa/4.0)</dc:description><dc:identifier>SSF</dc:identifier></cc:Work></rdf:RDF></metadata><!--Part of the Ivy icon them published under the CC-BY-SA_V4: http://creativecommons.org/licenses/by-sa/4.0 -->
</svg>