<?xml version="1.0" encoding="UTF-8" standalone="no"?><svg viewBox="0 0 16 16" xmlns:svg="http://www.w3.org/2000/svg" xmlns="http://www.w3.org/2000/svg" xmlns:rdf="http://www.w3.org/1999/02/22-rdf-syntax-ns#" xmlns:xlink="http://www.w3.org/1999/xlink" version="1.1" id="svg2" xmlns:dc="http://purl.org/dc/elements/1.1/" xmlns:cc="http://creativecommons.org/ns#"><defs id="0"><linearGradient id="linearGradient4165"><stop id="stop4167" stop-color="#eed45a"/><stop offset="1" id="stop4169" stop-color="#e9c82a"/></linearGradient><linearGradient x1="3" xlink:href="#linearGradient4165" x2="45" gradientTransform="matrix(0 -0.35714285 -0.375 0 17.25 16.07143)" id="linearGradient4171" gradientUnits="userSpaceOnUse"/></defs><path opacity="0.08" id="path4189" d="m 12,16 -9,0 0,-15 9,0 0,15 0,0 z"/><path id="2" d="m 12,15 -9,0 0,-15 9,0 0,15 0,0 z" fill="url(#linearGradient4171)"/><rect stroke-dasharray="39 19.5 9.75 19.5" stroke-linejoin="round" y="2" x="-11" stroke-width="19.5" opacity="0.4" stroke-linecap="round" height="1" transform="matrix(-1 0 0 1 0 0)" id="rect4151" width="2"/><rect stroke-dasharray="39 19.5 9.75 19.5" stroke-linejoin="round" y="4" x="-11" stroke-width="19.5" opacity="0.4" stroke-linecap="round" height="1" transform="matrix(-1 0 0 1 0 0)" id="rect4153" width="4"/><rect stroke-dasharray="39 19.5 9.75 19.5" stroke-linejoin="round" y="6" x="-11" stroke-width="19.5" opacity="0.4" stroke-linecap="round" height="1" transform="matrix(-1 0 0 1 0 0)" id="rect4155" width="2"/><rect stroke-dasharray="39 19.5 9.75 19.5" stroke-linejoin="round" y="8" x="-11" stroke-width="19.5" opacity="0.4" stroke-linecap="round" height="1" transform="matrix(-1 0 0 1 0 0)" id="rect4157" width="4"/><rect stroke-dasharray="39 19.5 9.75 19.5" stroke-linejoin="round" y="12" x="-11" stroke-width="19.5" opacity="0.4" stroke-linecap="round" height="1" transform="matrix(-1 0 0 1 0 0)" id="rect4161" width="4"/><rect stroke-dasharray="39 19.5 9.75 19.5" stroke-linejoin="round" y="10" x="-11" stroke-width="19.5" opacity="0.4" stroke-linecap="round" height="1" transform="matrix(-1 0 0 1 0 0)" id="rect4183" width="2"/><path stroke="#000" opacity="0.4" transform="matrix(-1 0 0 1 15 0)" id="path4187" d="m 3.5,0.5 0,14 8,0 0,-14 -8,0 z" fill="none"/><rect stroke-dasharray="39 19.5 9.75 19.5" stroke-linejoin="round" y="2.999999" x="-11" stroke-width="19.5" opacity="0.2" stroke-linecap="round" height="1" transform="matrix(-1 0 0 1 0 0)" id="rect4193" width="2" fill="#fff"/><rect stroke-dasharray="39 19.5 9.75 19.5" stroke-linejoin="round" y="5" x="-11" stroke-width="19.5" opacity="0.2" stroke-linecap="round" height="1" transform="matrix(-1 0 0 1 0 0)" id="rect4195" width="4" fill="#fff"/><rect stroke-dasharray="39 19.5 9.75 19.5" stroke-linejoin="round" y="7" x="-11" stroke-width="19.5" opacity="0.2" stroke-linecap="round" height="1" transform="matrix(-1 0 0 1 0 0)" id="rect4197" width="2" fill="#fff"/><rect stroke-dasharray="39 19.5 9.75 19.5" stroke-linejoin="round" y="9" x="-11" stroke-width="19.5" opacity="0.2" stroke-linecap="round" height="1" transform="matrix(-1 0 0 1 0 0)" id="rect4199" width="4" fill="#fff"/><rect stroke-dasharray="39 19.5 9.75 19.5" stroke-linejoin="round" y="13" x="-11" stroke-width="19.5" opacity="0.2" stroke-linecap="round" height="1" transform="matrix(-1 0 0 1 0 0)" id="rect4201" width="4" fill="#fff"/><rect stroke-dasharray="39 19.5 9.75 19.5" stroke-linejoin="round" y="11" x="-11" stroke-width="19.5" opacity="0.2" stroke-linecap="round" height="1" transform="matrix(-1 0 0 1 0 0)" id="rect4203" width="2" fill="#fff"/><rect stroke-linejoin="bevel" y="1" x="-11" opacity="0.2" stroke-linecap="square" height="1" transform="matrix(-1 0 0 1 0 0)" id="rect4205" width="7" fill="#fff"/><metadata id="metadata9999"><rdf:RDF><cc:Work><dc:format>image/svg+xml</dc:format><dc:type rdf:resource="http://purl.org/dc/dcmitype/StillImage"/><dc:title>Ivy icon theme</dc:title><cc:license rdf:resource="http://creativecommons.org/licenses/by-sa/4.0/"/><dc:creator><cc:Agent><dc:title>Sixsixfive (sixsixfive.deviantart.com)</dc:title></cc:Agent></dc:creator><dc:publisher><cc:Agent><dc:title>Sixsixfive (sixsixfive.deviantart.com)</dc:title></cc:Agent></dc:publisher><dc:source>https://github.com/sixsixfive</dc:source><dc:subject><rdf:Bag><rdf:li>ivy</rdf:li></rdf:Bag></dc:subject><dc:contributor><cc:Agent><dc:title>ssf</dc:title></cc:Agent></dc:contributor><dc:rights><cc:Agent><dc:title>Sixsixfive (sixisixfive.deviantart.com)</dc:title></cc:Agent></dc:rights><dc:description>A simple icon theme published under CC-BY-SA_V4(http://creativecommons.org/licenses/by-sa/4.0)</dc:description><dc:identifier>SSF</dc:identifier></cc:Work></rdf:RDF></metadata><!--Part of the Ivy icon them published under the CC-BY-SA_V4: http://creativecommons.org/licenses/by-sa/4.0 -->
</svg>