<?xml version="1.0" encoding="UTF-8" standalone="no"?><svg xmlns:cc="http://creativecommons.org/ns#" xmlns:dc="http://purl.org/dc/elements/1.1/" xmlns="http://www.w3.org/2000/svg" xmlns:svg="http://www.w3.org/2000/svg" xmlns:rdf="http://www.w3.org/1999/02/22-rdf-syntax-ns#" id="svg2" version="1.1" viewBox="0 0 16 16"><defs id="defs4"><linearGradient gradientUnits="userSpaceOnUse" y1="10.285" id="0" x1="45.11" y2="43.05" x2="45.09"><stop id="stop7" stop-color="#fff"/><stop stop-opacity="0" id="stop9" stop-color="#fff" offset="1"/></linearGradient><linearGradient gradientTransform="matrix(1.09355 0 0 1.0072 -0.276 2.515)" gradientUnits="userSpaceOnUse" y1="43" id="1" y2="5" x2="0"><stop id="stop12" stop-color="#ddd"/><stop id="stop14" stop-color="#fff" offset="1"/></linearGradient></defs><g transform="matrix(0.36578 0 0 0.36578 -1.499 -1.762)" id="g21"><path d="m 4.098,7.551 43.742,0 0,38.27 -43.742,0 z" id="path25" fill="url(#1)"/><g stroke-width="2.734" id="g27" fill="none"><path stroke="#000" opacity="0.4" d="m 5.4688,8.9375 0,35.5 41,0 0,-35.5 -41,0 z" id="path29"/><path stroke="url(#0)" d="m 8.2188,11.6875 0,30 35.5,0 0,-30 -35.5,0 z" id="path31"/></g></g><path d="M 2,6 H12 V7 H2 z" id="path33" fill="#fff"/><path d="M 2,5 H12 V6 H2 z" id="path35" fill="#6a6a6a"/><path d="M 2,8 H7 V9 H2 z" id="path37" fill="#fff"/><path d="M 2,7 H7 V8 H2 z" id="path39" fill="#6a6a6a"/><path d="M 2,10 H10 V11 H2 z" id="path41" fill="#fff"/><path d="M 2,9 H10 V10 H2 z" id="path43" fill="#6a6a6a"/><path d="M 2,12 H14 V13 H2 z" id="path45" fill="#fff"/><path d="M 2,11 H14 V12 H2 z" id="path47" fill="#6a6a6a"/><metadata id="metadata9999"><rdf:RDF><cc:Work><dc:format>image/svg+xml</dc:format><dc:type rdf:resource="http://purl.org/dc/dcmitype/StillImage"/><dc:title>Ivy icon theme</dc:title><cc:license rdf:resource="http://creativecommons.org/licenses/by-sa/4.0/"/><dc:creator><cc:Agent><dc:title>Sixsixfive (sixsixfive.deviantart.com)</dc:title></cc:Agent></dc:creator><dc:publisher><cc:Agent><dc:title>Sixsixfive (sixsixfive.deviantart.com)</dc:title></cc:Agent></dc:publisher><dc:source>https://github.com/sixsixfive</dc:source><dc:subject><rdf:Bag><rdf:li>ivy</rdf:li></rdf:Bag></dc:subject><dc:contributor><cc:Agent><dc:title>ssf</dc:title></cc:Agent></dc:contributor><dc:rights><cc:Agent><dc:title>Sixsixfive (sixisixfive.deviantart.com)</dc:title></cc:Agent></dc:rights><dc:description>A simple icon theme published under CC-BY-SA_V4(http://creativecommons.org/licenses/by-sa/4.0)</dc:description><dc:identifier>SSF</dc:identifier></cc:Work></rdf:RDF></metadata><!--Part of the Ivy icon them published under the CC-BY-SA_V4: http://creativecommons.org/licenses/by-sa/4.0 -->
</svg>