<?xml version="1.0" encoding="UTF-8" standalone="no"?><svg xmlns:cc="http://creativecommons.org/ns#" xmlns:rdf="http://www.w3.org/1999/02/22-rdf-syntax-ns#" xmlns:svg="http://www.w3.org/2000/svg" id="svg2" viewBox="0 0 16 16" version="1.1" xmlns:dc="http://purl.org/dc/elements/1.1/" xmlns="http://www.w3.org/2000/svg"><defs id="defs4"><linearGradient id="0" x2="0" y2="41.29" gradientTransform="matrix(0.41466 0 0 0.44697 -3.554 -3.455)" y1="9.966" gradientUnits="userSpaceOnUse"><stop id="stop7" stop-color="#bababa"/><stop offset="1" id="stop9" stop-color="#ebebeb"/></linearGradient><linearGradient id="1" x2="0" y2="14" y1="2" gradientUnits="userSpaceOnUse"><stop id="stop12" stop-color="#fff"/><stop offset="1" id="stop14" stop-color="#fff" stop-opacity="0"/></linearGradient></defs><path id="path16" d="M 15 8 A 7 7 0 1 1 1 8 7 7 0 1 1 15 8 z" fill="url(#0)"/><g id="g18" fill="none"><path id="path20" opacity="0.3" d="m 8.0282,1.5649 c -3.58054,0 -6.48134,2.90169 -6.48134,6.46619 0,3.56451 2.9008,6.4662 6.48134,6.4662 3.58054,0 6.46906,-2.90126 6.46906,-6.4662 0,-3.56493 -2.88852,-6.46619 -6.46906,-6.46619 z" stroke-width="1.01" stroke="#000"/><path id="path22" opacity="0.4" d="M 8,2.5625 C 4.97422,2.5625 2.5625,4.99443 2.5625,8 c 0,3.00558 2.41172,5.4375 5.4375,5.4375 3.02586,0 5.4375,-2.43144 5.4375,-5.4375 C 13.4375,4.99394 11.02586,2.5625 8,2.5625 Z" stroke="url(#1)"/></g><path id="path24" opacity="0.5" d="M 11 8 A 3 3 0 1 1 5 8 3 3 0 1 1 11 8 z" transform="matrix(1 0 0 1 0 1)" fill="#fff"/><path id="path26" d="M 11 8 A 3 3 0 1 1 5 8 3 3 0 1 1 11 8 z" fill="#6a6a6a"/><metadata id="metadata9999"><rdf:RDF><cc:Work><dc:format>image/svg+xml</dc:format><dc:type rdf:resource="http://purl.org/dc/dcmitype/StillImage"/><dc:title>Ivy icon theme</dc:title><cc:license rdf:resource="http://creativecommons.org/licenses/by-sa/4.0/"/><dc:creator><cc:Agent><dc:title>Sixsixfive (sixsixfive.deviantart.com)</dc:title></cc:Agent></dc:creator><dc:publisher><cc:Agent><dc:title>Sixsixfive (sixsixfive.deviantart.com)</dc:title></cc:Agent></dc:publisher><dc:source>https://github.com/sixsixfive</dc:source><dc:subject><rdf:Bag><rdf:li>ivy</rdf:li></rdf:Bag></dc:subject><dc:contributor><cc:Agent><dc:title>ssf</dc:title></cc:Agent></dc:contributor><dc:rights><cc:Agent><dc:title>Sixsixfive (sixisixfive.deviantart.com)</dc:title></cc:Agent></dc:rights><dc:description>A simple icon theme published under CC-BY-SA_V4(http://creativecommons.org/licenses/by-sa/4.0)</dc:description><dc:identifier>SSF</dc:identifier></cc:Work></rdf:RDF></metadata><!--Part of the Ivy icon them published under the CC-BY-SA_V4: http://creativecommons.org/licenses/by-sa/4.0 -->
</svg>