<?xml version="1.0" encoding="UTF-8" standalone="no"?>
<svg xmlns:dc="http://purl.org/dc/elements/1.1/" xmlns:cc="http://creativecommons.org/ns#" xmlns:rdf="http://www.w3.org/1999/02/22-rdf-syntax-ns#" xmlns:svg="http://www.w3.org/2000/svg" xmlns="http://www.w3.org/2000/svg" viewBox="0 0 16 16" id="svg2" version="1.1">
 <defs id="defs4">
  <linearGradient id="0" y1="10.285" y2="43.05" x1="45.11" gradientUnits="userSpaceOnUse" x2="45.09">
   <stop stop-color="#fff" id="stop7"/>
   <stop offset="1" stop-color="#fff" id="stop9" stop-opacity="0"/>
  </linearGradient>
  <linearGradient id="1" y1="43" y2="5" gradientUnits="userSpaceOnUse" x2="0" gradientTransform="matrix(1.09355 0 0 1.0072 -0.276 2.515)">
   <stop stop-color="#ddd" id="stop12"/>
   <stop offset="1" stop-color="#fff" id="stop14"/>
  </linearGradient>
 </defs>
 <g id="g21" transform="matrix(0.36578,0,0,0.36578,-1.499,-1.762)">
  <path id="path25" d="m 4.098,7.551 43.742,0 0,38.27 -43.742,0 z" fill="url(#1)"/>
  <g id="g27" fill="none" stroke-width="2.734">
   <path id="path29" d="m 5.4688,8.9375 0,35.5 41,0 0,-35.5 -41,0 z" opacity="0.4" stroke="#000"/>
   <path id="path31" d="m 8.2188,11.6875 0,30 35.5,0 0,-30 -35.5,0 z" stroke="url(#0)"/>
  </g>
 </g>
 <g id="g33" transform="scale(-1,1)">
  <path id="path35" d="m -13,6 10,0 0,1 -10,0 z" fill="#fff"/>
  <path id="path37" d="m -13,5 10,0 0,1 -10,0 z" fill="#6a6a6a"/>
  <path id="path39" d="m -10,8 4,0 0,1 -4,0 z" fill="#fff"/>
  <path id="path41" d="m -10,7 4,0 0,1 -4,0 z" fill="#6a6a6a"/>
  <path id="path43" d="m -12,10 8,0 0,1 -8,0 z" fill="#fff"/>
  <path id="path45" d="m -12,9 8,0 0,1 -8,0 z" fill="#6a6a6a"/>
  <path id="path47" d="m -14,12 12,0 0,1 -12,0 z" fill="#fff"/>
  <path id="path49" d="m -14,11 12,0 0,1 -12,0 z" fill="#6a6a6a"/>
 </g>
 <metadata id="metadata9999">
  <rdf:RDF>
   <cc:Work>
    <dc:format>image/svg+xml</dc:format>
    <dc:type rdf:resource="http://purl.org/dc/dcmitype/StillImage"/>
    <dc:title>Ivy icon theme</dc:title>
    <cc:license rdf:resource="http://creativecommons.org/licenses/by-sa/4.0/"/>
    <dc:creator>
     <cc:Agent>
      <dc:title>Sixsixfive (sixsixfive.deviantart.com)</dc:title>
     </cc:Agent>
    </dc:creator>
    <dc:publisher>
     <cc:Agent>
      <dc:title>Sixsixfive (sixsixfive.deviantart.com)</dc:title>
     </cc:Agent>
    </dc:publisher>
    <dc:source>https://github.com/sixsixfive</dc:source>
    <dc:subject>
     <rdf:Bag>
      <rdf:li>ivy</rdf:li>
     </rdf:Bag>
    </dc:subject>
    <dc:contributor>
     <cc:Agent>
      <dc:title>ssf</dc:title>
     </cc:Agent>
    </dc:contributor>
    <dc:rights>
     <cc:Agent>
      <dc:title>Sixsixfive (sixisixfive.deviantart.com)</dc:title>
     </cc:Agent>
    </dc:rights>
    <dc:description>A simple icon theme published under CC-BY-SA_V4(http://creativecommons.org/licenses/by-sa/4.0)</dc:description>
    <dc:identifier>SSF</dc:identifier>
   </cc:Work>
  </rdf:RDF>
 </metadata>
 <!--Part of the Ivy icon them published under the CC-BY-SA_V4: http://creativecommons.org/licenses/by-sa/4.0 -->
</svg>
