<?xml version="1.0" encoding="UTF-8" standalone="no"?><svg xmlns:svg="http://www.w3.org/2000/svg" viewBox="0 0 16 16" xmlns="http://www.w3.org/2000/svg" xmlns:rdf="http://www.w3.org/1999/02/22-rdf-syntax-ns#" xmlns:xlink="http://www.w3.org/1999/xlink" version="1.1" id="svg2" xmlns:dc="http://purl.org/dc/elements/1.1/" xmlns:cc="http://creativecommons.org/ns#"><defs id="defs4"><linearGradient x1="44" y1="43" x2="43.912" y2="-1.016" id="2" gradientTransform="matrix(0.4 0 0 0.39474 -1.6 -1.974)" gradientUnits="userSpaceOnUse"><stop id="stop7" stop-color="#ddd"/><stop offset="1" id="stop9" stop-color="#fff"/></linearGradient></defs><path id="path13" d="M 0 0 H 16 V 15 H 0 z" fill="url(#2)"/><path id="path15" d="M 0 0 H 16 V 5 H 0 z" fill="#5288d1"/><g id="g17" fill="none"><g stroke-width="0.999" id="g19"><path stroke="#000" opacity="0.4" id="path21" d="M 0.9835,4.4995 15.0037,4.5006"/><path stroke="#fff" id="path23" d="M 0.9877,5.4995 15.0256,5.5006"/></g><path stroke="#000" opacity="0.4" id="path25" d="m 0.5,0.5 0,14 15,0 0,-14 -15,0 z"/></g><g id="g27" fill="#fff"><path opacity="0.47" id="path29" d="M 1,1 15,1 15,2 1,2 Z"/><path id="path31" d="M 2,2 3,2 3,3 2,3 Z"/><path id="path33" d="M 4,2 5,2 5,3 4,3 Z"/><path id="path35" d="M 6,2 7,2 7,3 6,3 Z"/></g><path opacity="0.266" id="path37" d="M 2 3 H 3 V 4 H 2 z"/><path opacity="0.266" id="path39" d="M 4 3 H 5 V 4 H 4 z"/><path opacity="0.266" id="path41" d="M 6 3 H 7 V 4 H 6 z"/><path opacity="0.266" id="path43" d="M 1 2 H 2 V 3 H 1 z"/><path opacity="0.266" id="0" d="M 3 2 H 4 V 3 H 3 z"/><path opacity="0.266" id="1" d="M 5 2 H 6 V 3 H 5 z"/><path opacity="0.266" id="path47" d="M 2 1 H 3 V 2 H 2 z"/><path opacity="0.266" id="path49" d="M 4 1 H 5 V 2 H 4 z"/><path opacity="0.266" id="path51" d="M 6 1 H 7 V 2 H 6 z"/><use xlink:href="#0" height="16" id="use53" width="16"/><use xlink:href="#1" height="16" id="use55" width="16"/><path opacity="0.266" id="path57" d="M 7 2 H 8 V 3 H 7 z"/><metadata id="metadata9999"><rdf:RDF><cc:Work><dc:format>image/svg+xml</dc:format><dc:type rdf:resource="http://purl.org/dc/dcmitype/StillImage"/><dc:title>Ivy icon theme</dc:title><cc:license rdf:resource="http://creativecommons.org/licenses/by-sa/4.0/"/><dc:creator><cc:Agent><dc:title>Sixsixfive (sixsixfive.deviantart.com)</dc:title></cc:Agent></dc:creator><dc:publisher><cc:Agent><dc:title>Sixsixfive (sixsixfive.deviantart.com)</dc:title></cc:Agent></dc:publisher><dc:source>https://github.com/sixsixfive</dc:source><dc:subject><rdf:Bag><rdf:li>ivy</rdf:li></rdf:Bag></dc:subject><dc:contributor><cc:Agent><dc:title>ssf</dc:title></cc:Agent></dc:contributor><dc:rights><cc:Agent><dc:title>Sixsixfive (sixisixfive.deviantart.com)</dc:title></cc:Agent></dc:rights><dc:description>A simple icon theme published under CC-BY-SA_V4(http://creativecommons.org/licenses/by-sa/4.0)</dc:description><dc:identifier>SSF</dc:identifier></cc:Work></rdf:RDF></metadata><!--Part of the Ivy icon them published under the CC-BY-SA_V4: http://creativecommons.org/licenses/by-sa/4.0 -->
</svg>