<?xml version="1.0" encoding="UTF-8" standalone="no"?>
<svg xmlns:dc="http://purl.org/dc/elements/1.1/" xmlns:cc="http://creativecommons.org/ns#" xmlns:rdf="http://www.w3.org/1999/02/22-rdf-syntax-ns#" xmlns:svg="http://www.w3.org/2000/svg" xmlns="http://www.w3.org/2000/svg" viewBox="0 0 16 16" id="svg2" version="1.1">
 <defs id="defs4">
  <linearGradient id="0" y1="44.01" y2="2" gradientUnits="userSpaceOnUse" x2="0" gradientTransform="matrix(0.37195 0 0 0.38089 -16.227 -16.762)">
   <stop stop-color="#dedede" id="stop7"/>
   <stop offset="1" stop-color="#f4f4f4" id="stop9"/>
  </linearGradient>
  <linearGradient id="1" y1="43.997" y2="1.99" gradientUnits="userSpaceOnUse" x2="0" gradientTransform="matrix(-0.37195 0 0 -0.38089 16.235 16.758)">
   <stop stop-color="#fff" id="stop12"/>
   <stop offset="1" stop-color="#fff" id="stop14" stop-opacity="0"/>
  </linearGradient>
  <linearGradient id="2" y1="8.05" x1="6.441" y2="0.949" gradientUnits="userSpaceOnUse" x2="6.169">
   <stop stop-color="#a868d4" id="stop17"/>
   <stop offset="1" stop-color="#e0c8f0" id="stop19"/>
  </linearGradient>
 </defs>
 <rect width="13" x="-14" y="-16" fill="url(#0)" rx="0.46" height="15.997" id="rect21" transform="matrix(-1 0 0 -1 0 0)" ry="0.46"/>
 <path opacity="0.4" fill="none" stroke="#000" id="path23" d="m 13.4749 0.5322 h -11.9375 v 14.9375 h 11.9375 v -14.9375 z"/>
 <path opacity="0.32" fill="#fff" id="path25" d="M 6 2 V 6 H 5 V 7 H 6 V 8 H 7 V 9 H 8 V 8 H 9 V 7 H 10 V 6 H 9 V 2 H 6 z"/>
 <path fill="url(#2)" id="path27" d="M 6 1 V 5 H 5 V 6 H 6 V 7 H 7 V 8 H 8 V 7 H 9 V 6 H 10 V 5 H 9 V 1 H 6 z"/>
 <path opacity="0.32" fill="#171717" id="path29" d="M 6,1 H7 V5 H6 z"/>
 <path opacity="0.32" id="path31" d="M 8,1 H9 V5 H8 z"/>
 <path opacity="0.81" fill="none" stroke="url(#1)" id="path33" d="m 12.5062 1.5322 h -10 v 12.9375 h 10 v -12.9375 z"/>
 <rect width="3.051" x="5.966" opacity="0.4" y="1.085" fill="#a868d4" height="1.017" stroke-linejoin="round" id="rect4164" stroke-linecap="round"/>
 <metadata id="metadata9999">
  <rdf:RDF>
   <cc:Work>
    <dc:format>image/svg+xml</dc:format>
    <dc:type rdf:resource="http://purl.org/dc/dcmitype/StillImage"/>
    <dc:title>Ivy icon theme</dc:title>
    <cc:license rdf:resource="http://creativecommons.org/licenses/by-sa/4.0/"/>
    <dc:creator>
     <cc:Agent>
      <dc:title>Sixsixfive (sixsixfive.deviantart.com)</dc:title>
     </cc:Agent>
    </dc:creator>
    <dc:publisher>
     <cc:Agent>
      <dc:title>Sixsixfive (sixsixfive.deviantart.com)</dc:title>
     </cc:Agent>
    </dc:publisher>
    <dc:source>https://github.com/sixsixfive</dc:source>
    <dc:subject>
     <rdf:Bag>
      <rdf:li>ivy</rdf:li>
     </rdf:Bag>
    </dc:subject>
    <dc:contributor>
     <cc:Agent>
      <dc:title>ssf</dc:title>
     </cc:Agent>
    </dc:contributor>
    <dc:rights>
     <cc:Agent>
      <dc:title>Sixsixfive (sixisixfive.deviantart.com)</dc:title>
     </cc:Agent>
    </dc:rights>
    <dc:description>A simple icon theme published under CC-BY-SA_V4(http://creativecommons.org/licenses/by-sa/4.0)</dc:description>
    <dc:identifier>SSF</dc:identifier>
   </cc:Work>
  </rdf:RDF>
 </metadata>
 <!--Part of the Ivy icon them published under the CC-BY-SA_V4: http://creativecommons.org/licenses/by-sa/4.0 -->
</svg>
