<?xml version="1.0" encoding="UTF-8" standalone="no"?><svg xmlns:svg="http://www.w3.org/2000/svg" viewBox="0 0 16 16" xmlns="http://www.w3.org/2000/svg" xmlns:rdf="http://www.w3.org/1999/02/22-rdf-syntax-ns#" xmlns:xlink="http://www.w3.org/1999/xlink" version="1.1" id="svg2" xmlns:dc="http://purl.org/dc/elements/1.1/" xmlns:cc="http://creativecommons.org/ns#"><defs id="defs4"><linearGradient y1="2" x2="0" y2="21" id="0" gradientTransform="matrix(0.79999996 0 0 0.73684213 -0.8 0.526316)" gradientUnits="userSpaceOnUse"><stop id="stop7" stop-color="#ebebeb"/><stop offset="1" id="stop9" stop-color="#f3f3f3"/></linearGradient><linearGradient id="linearGradient3797"><stop id="stop3799" stop-color="#ff8b36"/><stop offset="1" id="stop3801" stop-color="#ffd506"/></linearGradient><linearGradient x1="1.037171" xlink:href="#linearGradient3797" y1="-9.139025" x2="0" y2="42.838985" id="linearGradient4173" gradientTransform="matrix(0.40149352 0 0 0.4210526 -26.729314 -2.1052625)" gradientUnits="userSpaceOnUse"/></defs><path id="path23" d="M 0,2 16,2 16,16 0,16 Z" fill="url(#0)"/><path stroke-linejoin="round" stroke-linecap="round" opacity="0.6" id="rect3417" d="m 3,9 0,1 3,0 0,1 -2,0 0,1 2,0 0,1 -3,0 0,1 4,0 0,-1 0,-3 0,-1 -4,0 z m 6,0 0,1 0,1 1,0 0,-1 1,0 0,3 -2,0 0,1 4,0 0,-1 -1,0 0,-3 0,-1 -3,0 z" fill="#fff"/><path id="path27" d="M 0,2 16,2 16,5 0,5 Z" fill="#5288d1"/><path stroke="#000" opacity="0.4" id="path3397" d="m 0.52929688,2.5292969 0,12.9414061 14.94140612,0 0,-12.9414061 -14.94140612,0 z" fill="none"/><rect stroke-linejoin="round" y="5" x="1" stroke-linecap="round" opacity="0.4" height="1" id="rect3399" width="14"/><rect stroke-linejoin="round" y="8" x="3" stroke-linecap="round" opacity="0.4" height="1" id="rect3401" width="4"/><rect stroke-linejoin="round" y="12" x="3" stroke-linecap="round" opacity="0.4" height="1" id="rect3403" width="4"/><rect stroke-linejoin="round" y="10" x="4" stroke-linecap="round" opacity="0.4" height="1" id="rect3405" width="2"/><rect stroke-linejoin="round" y="9" x="6" stroke-linecap="round" opacity="0.4" height="3" id="rect3407" width="1"/><rect stroke-linejoin="round" y="9" x="9" stroke-linecap="round" opacity="0.4" height="1" id="rect3409" width="1"/><rect stroke-linejoin="round" y="8" x="9" stroke-linecap="round" opacity="0.4" height="1" id="rect3411" width="3"/><rect stroke-linejoin="round" y="9" x="11" stroke-linecap="round" opacity="0.4" height="3" id="rect3413" width="1"/><rect stroke-linejoin="round" y="12" x="9" stroke-linecap="round" opacity="0.4" height="1" id="rect3415" width="4"/><rect stroke-linejoin="round" y="6" x="1" stroke-linecap="round" opacity="0.6" height="1" id="rect3434" width="14" fill="#fff"/><rect stroke-linejoin="round" y="3" x="1" stroke-linecap="round" opacity="0.3" height="1" id="rect3436" width="14" fill="#fff"/><g id="g3448" transform="matrix(1 0 0 1 1 0)"><path opacity="0.1" id="rect3446" d="M 3.1619999,1 3.8380001,1 C 4.481748,1 5,1.518252 5,2.1619999 L 5,3.8380001 C 5,4.481748 4.481748,5 3.8380001,5 L 3.1619999,5 C 2.518252,5 2,4.481748 2,3.8380001 L 2,2.1619999 C 2,1.518252 2.518252,1 3.1619999,1 Z"/><path id="rect49" d="M 3.1619999,0 3.8380001,0 C 4.481748,0 5,0.51825197 5,1.1619999 L 5,2.8380001 C 5,3.481748 4.481748,4 3.8380001,4 L 3.1619999,4 C 2.518252,4 2,3.481748 2,2.8380001 L 2,1.1619999 C 2,0.51825197 2.518252,0 3.1619999,0 Z" fill="#ddd"/><path stroke="#000" opacity="0.6" id="path3440" d="m 3.1621094,0.52929688 c -0.359933,0 -0.6328125,0.2728795 -0.6328125,0.63281252 l 0,1.6757812 c 0,0.3599329 0.2728796,0.6328125 0.6328125,0.6328125 l 0.6757812,0 c 0.3599329,0 0.6328125,-0.2728796 0.6328125,-0.6328125 l 0,-1.6757812 c 0,-0.35993302 -0.2728795,-0.63281253 -0.6328125,-0.63281252 l -0.6757812,0 z" fill="none"/><path stroke-linejoin="round" stroke-linecap="round" opacity="0.9" id="rect3442" d="M 3.5,1 C 3.777,1 4,1.223 4,1.5 4,1.777 3.777,2 3.5,2 3.223,2 3,1.777 3,1.5 3,1.223 3.223,1 3.5,1 Z" fill="#fff"/></g><g id="g3454" transform="matrix(1 0 0 1 8 0)"><path opacity="0.1" id="rect3456" d="M 3.1619999,1 3.8380001,1 C 4.481748,1 5,1.518252 5,2.1619999 L 5,3.8380001 C 5,4.481748 4.481748,5 3.8380001,5 L 3.1619999,5 C 2.518252,5 2,4.481748 2,3.8380001 L 2,2.1619999 C 2,1.518252 2.518252,1 3.1619999,1 Z"/><path id="rect3458" d="M 3.1619999,0 3.8380001,0 C 4.481748,0 5,0.51825197 5,1.1619999 L 5,2.8380001 C 5,3.481748 4.481748,4 3.8380001,4 L 3.1619999,4 C 2.518252,4 2,3.481748 2,2.8380001 L 2,1.1619999 C 2,0.51825197 2.518252,0 3.1619999,0 Z" fill="#ddd"/><path stroke="#000" opacity="0.6" id="path3460" d="m 3.1621094,0.52929688 c -0.359933,0 -0.6328125,0.2728795 -0.6328125,0.63281252 l 0,1.6757812 c 0,0.3599329 0.2728796,0.6328125 0.6328125,0.6328125 l 0.6757812,0 c 0.3599329,0 0.6328125,-0.2728796 0.6328125,-0.6328125 l 0,-1.6757812 c 0,-0.35993302 -0.2728795,-0.63281253 -0.6328125,-0.63281252 l -0.6757812,0 z" fill="none"/><path stroke-linejoin="round" stroke-linecap="round" opacity="0.9" id="rect3462" d="M 3.5,1 C 3.777,1 4,1.223 4,1.5 4,1.777 3.777,2 3.5,2 3.223,2 3,1.777 3,1.5 3,1.223 3.223,1 3.5,1 Z" fill="#fff"/></g><g id="g3570" transform="matrix(1 0 0 1 23.118644 0.20347487)"><g id="g3532" transform="matrix(0.6875 0 0 0.6875 -1.119216 4.8091599)"><path stroke-linejoin="round" stroke-linecap="round" id="path3363" d="m -11.994272,15.933698 c -0.635915,0.484182 -3.949703,-2.859966 -4.735544,-2.860243 -0.785842,-2.79e-4 -4.100853,3.341383 -4.736456,2.85675 -0.635603,-0.484632 -0.01141,-4.708158 -0.254,-5.492032 C -21.962858,9.6542984 -24.95717,6.8663424 -24.71408,6.0826398 -24.470989,5.298937 -20.905628,4.833681 -20.269713,4.349498 -19.633798,3.8653148 -17.511126,-2.7784376e-4 -16.725285,8.2539016e-8 -15.939443,2.779062e-4 -13.673316,3.8669599 -13.037713,4.351593 c 0.635603,0.4846329 4.054723,0.9528214 4.297309,1.736696 0.242586,0.7838745 -2.752778,3.5695712 -2.995868,4.353273 -0.243091,0.783704 0.377914,5.007952 -0.258,5.492136 z" fill="url(#linearGradient4173)"/><path stroke-linejoin="round" stroke-dasharray="none" stroke="#000" stroke-width="1.45454597" opacity="0.6" stroke-linecap="round" id="path4316" stroke-miterlimit="4" d="m -16.71875,0.79882812 c -0.07635,0.069201 -0.159034,0.14354141 -0.269531,0.27148438 -0.28562,0.3307155 -0.637386,0.8165089 -0.986328,1.3222656 -0.348943,0.5057568 -0.698802,1.0342453 -1.007813,1.4765625 -0.309011,0.4423172 -0.493668,0.7591275 -0.861328,1.0390625 -0.367818,0.2800552 -0.710546,0.3507635 -1.158203,0.4804688 -0.447657,0.1297052 -0.961128,0.2581976 -1.451172,0.3925781 -0.490044,0.1343805 -0.960149,0.278022 -1.279297,0.4140625 -0.250607,0.1068244 -0.251472,0.1349842 -0.24414,0.074219 0.03732,0.082776 0.08928,0.18848 0.18164,0.3300782 0.218576,0.3351017 0.565303,0.7696909 0.933594,1.2089844 0.368291,0.4392934 0.758133,0.8854763 1.082031,1.2851562 0.323898,0.3996799 0.583863,0.6629872 0.730469,1.1367187 0.138525,0.447612 0.09893,0.817437 0.08398,1.347656 -0.01495,0.530219 -0.05142,1.146081 -0.07422,1.744141 -0.0228,0.598059 -0.03079,1.180188 0,1.603515 0.0064,0.08846 0.01779,0.127392 0.02734,0.199219 0.03572,-0.01931 0.04478,-0.01773 0.08398,-0.04102 0.357581,-0.212421 0.84589,-0.5739 1.34375,-0.957031 0.497859,-0.38313 1.008551,-0.788007 1.464843,-1.111328 0.228146,-0.161661 0.440677,-0.304552 0.650391,-0.417969 0.209714,-0.113417 0.39098,-0.226686 0.738281,-0.226562 0.347343,1.22e-4 0.528608,0.114948 0.738281,0.228515 0.209674,0.113568 0.42227,0.254175 0.650391,0.416016 0.456243,0.323683 0.967,0.729728 1.464844,1.113281 0.497844,0.383554 0.98611,0.746238 1.34375,0.958985 0.03905,0.02323 0.04838,0.02173 0.08398,0.04101 0.0096,-0.07187 0.02279,-0.110691 0.0293,-0.199218 0.03109,-0.423328 0.02237,-1.005419 0,-1.603516 -0.02237,-0.598098 -0.0577,-1.2139 -0.07227,-1.744141 -0.01457,-0.530241 -0.05482,-0.902125 0.08399,-1.349609 0.146879,-0.4735254 0.406399,-0.7353019 0.730469,-1.1347655 0.324069,-0.3994635 0.715517,-0.8461059 1.083984,-1.2851562 0.368467,-0.4390503 0.7148751,-0.8740287 0.9335938,-1.2089844 0.092776,-0.1420813 0.1443737,-0.2473321 0.1816406,-0.3300781 0.00418,0.050343 0.00592,0.028659 -0.2304688,-0.076172 -0.3043486,-0.1349645 -0.7534816,-0.279468 -1.2245956,-0.4140537 -0.471113,-0.1345856 -0.966686,-0.2623037 -1.40039,-0.3925781 -0.433705,-0.1302744 -0.77177,-0.20816 -1.128907,-0.4804688 -0.357135,-0.2723077 -0.553251,-0.5881605 -0.875,-1.0292968 -0.321748,-0.4411363 -0.69004,-0.9685588 -1.05664,-1.4746094 -0.366601,-0.5060506 -0.735771,-0.9913524 -1.035157,-1.3242188 -0.118539,-0.13179621 -0.207758,-0.21245051 -0.289062,-0.28320308 z" fill="none"/></g><path stroke-linejoin="miter" stroke="#fff" stroke-opacity="1" stroke-width="1" opacity="0.49000005" stroke-linecap="butt" id="path4318" fill-rule="evenodd" d="m -16.454192,9.8091602 c 1.624372,-0.1098352 2.757024,-0.9397172 3.856194,-2.6578093 0.859995,1.3442981 1.649958,2.3634741 4,2.4660681" fill="none"/></g><metadata id="metadata9999"><rdf:RDF><cc:Work><dc:format>image/svg+xml</dc:format><dc:type rdf:resource="http://purl.org/dc/dcmitype/StillImage"/><dc:title/><cc:license rdf:resource="http://creativecommons.org/licenses/by-sa/4.0/"/><dc:creator><cc:Agent><dc:title>Sixsixfive (sixsixfive.deviantart.com)</dc:title></cc:Agent></dc:creator><dc:publisher><cc:Agent><dc:title>Sixsixfive (sixsixfive.deviantart.com)</dc:title></cc:Agent></dc:publisher><dc:source>https://github.com/sixsixfive</dc:source><dc:subject><rdf:Bag><rdf:li>ivy</rdf:li></rdf:Bag></dc:subject><dc:contributor><cc:Agent><dc:title>ssf</dc:title></cc:Agent></dc:contributor><dc:rights><cc:Agent><dc:title>Sixsixfive (sixisixfive.deviantart.com)</dc:title></cc:Agent></dc:rights><dc:description>A simple icon theme published under CC-BY-SA_V4(http://creativecommons.org/licenses/by-sa/4.0)</dc:description><dc:identifier>SSF</dc:identifier></cc:Work></rdf:RDF></metadata><!--Part of the Ivy icon them published under the CC-BY-SA_V4: http://creativecommons.org/licenses/by-sa/4.0 -->
</svg>