<?xml version="1.0" encoding="UTF-8" standalone="no"?><svg viewBox="0 0 16 16" xmlns:svg="http://www.w3.org/2000/svg" xmlns="http://www.w3.org/2000/svg" xmlns:rdf="http://www.w3.org/1999/02/22-rdf-syntax-ns#" version="1.1" id="svg2" xmlns:dc="http://purl.org/dc/elements/1.1/" xmlns:cc="http://creativecommons.org/ns#"><defs id="defs4"><linearGradient x1="2.557" x2="13.443" id="0" gradientUnits="userSpaceOnUse"><stop id="stop7" stop-color="#fff"/><stop stop-opacity="0" offset="1" id="stop9" stop-color="#fff"/></linearGradient><linearGradient x1="0.106" y1="15.08" x2="16.256" y2="15.13" id="1" gradientUnits="userSpaceOnUse"><stop id="stop12" stop-color="#66b03e"/><stop offset="1" id="stop14" stop-color="#95ce76"/></linearGradient></defs><g transform="matrix(0 0.98149 -0.99046 0 15.987 0.044)" id="g16"><path id="path18" d="m 0.1061,8.0274 3.961,-0.0104 0,-6.9856 8.0039,0 0,6.9856 4.0351,0 -7.9997,7.0613 z" fill="url(#1)"/><g transform="matrix(1 0 0 -1 0.106 16.03)" id="g20" fill="none"><path stroke="#000" opacity="0.4" id="path22" d="m 8,1.5625 -6.7812,5.9688 2.75,0 c 0.244046,0.00496 0.463789,0.224704 0.46875,0.46875 l 0,6.53125 7.05605,0 0,-6.53125 c 0.005,-0.244046 0.224704,-0.463789 0.46875,-0.46875 l 2.81895,0 z"/><path stroke="url(#0)" opacity="0.35" id="path24" d="m 8,2.875 -4.125,3.65625 0.09375,0 A 1.46608,1.46608 0 0 1 5.4375,8 l 0,5.53125 5.15625,0 0,-5.53125 A 1.46608,1.46608 0 0 1 12.0625,6.53125 l 0.0625,0 L 8,2.875 Z"/></g></g><metadata id="metadata9999"><rdf:RDF><cc:Work><dc:format>image/svg+xml</dc:format><dc:type rdf:resource="http://purl.org/dc/dcmitype/StillImage"/><dc:title>Ivy icon theme</dc:title><cc:license rdf:resource="http://creativecommons.org/licenses/by-sa/4.0/"/><dc:creator><cc:Agent><dc:title>Sixsixfive (sixsixfive.deviantart.com)</dc:title></cc:Agent></dc:creator><dc:publisher><cc:Agent><dc:title>Sixsixfive (sixsixfive.deviantart.com)</dc:title></cc:Agent></dc:publisher><dc:source>https://github.com/sixsixfive</dc:source><dc:subject><rdf:Bag><rdf:li>ivy</rdf:li></rdf:Bag></dc:subject><dc:contributor><cc:Agent><dc:title>ssf</dc:title></cc:Agent></dc:contributor><dc:rights><cc:Agent><dc:title>Sixsixfive (sixisixfive.deviantart.com)</dc:title></cc:Agent></dc:rights><dc:description>A simple icon theme published under CC-BY-SA_V4(http://creativecommons.org/licenses/by-sa/4.0)</dc:description><dc:identifier>SSF</dc:identifier></cc:Work></rdf:RDF></metadata><!--Part of the Ivy icon them published under the CC-BY-SA_V4: http://creativecommons.org/licenses/by-sa/4.0 -->
</svg>