<?xml version="1.0" encoding="UTF-8" standalone="no"?><svg viewBox="0 0 16 16" xmlns:svg="http://www.w3.org/2000/svg" xmlns="http://www.w3.org/2000/svg" xmlns:rdf="http://www.w3.org/1999/02/22-rdf-syntax-ns#" version="1.1" id="svg2" xmlns:dc="http://purl.org/dc/elements/1.1/" xmlns:cc="http://creativecommons.org/ns#"><defs id="defs4"><linearGradient x1="45.11" y1="10.285" x2="45.09" y2="43.05" id="0" gradientUnits="userSpaceOnUse"><stop id="stop7" stop-color="#fff"/><stop stop-opacity="0" offset="1" id="stop9" stop-color="#fff"/></linearGradient><linearGradient y1="43" x2="0" y2="5" gradientTransform="matrix(1.09355 0 0 1.0072 -0.276 2.515)" id="1" gradientUnits="userSpaceOnUse"><stop id="stop12" stop-color="#ddd"/><stop offset="1" id="stop14" stop-color="#fff"/></linearGradient></defs><g transform="matrix(0.36578 0 0 0.36578 -1.499 -1.762)" id="g21"><path id="path25" d="m 4.098,7.551 43.742,0 0,38.27 -43.742,0 z" fill="url(#1)"/><g stroke-width="2.734" id="g27" fill="none"><path stroke="#000" opacity="0.4" id="path29" d="m 5.4688,8.9375 0,35.5 41,0 0,-35.5 -41,0 z"/><path stroke="url(#0)" id="path31" d="m 8.2188,11.6875 0,30 35.5,0 0,-30 -35.5,0 z"/></g></g><g transform="matrix(-1 0 0 1 0 0)" id="g33"><path id="path35" d="m -14,6 10,0 0,1 -10,0 z" fill="#fff"/><path id="path37" d="m -14,5 10,0 0,1 -10,0 z" fill="#6a6a6a"/><path id="path39" d="m -14,8 5,0 0,1 -5,0 z" fill="#fff"/><path id="path41" d="m -14,7 5,0 0,1 -5,0 z" fill="#6a6a6a"/><path id="path43" d="m -14,10 8,0 0,1 -8,0 z" fill="#fff"/><path id="path45" d="m -14,9 8,0 0,1 -8,0 z" fill="#6a6a6a"/><path id="path47" d="m -14,12 12,0 0,1 -12,0 z" fill="#fff"/><path id="path49" d="m -14,11 12,0 0,1 -12,0 z" fill="#6a6a6a"/></g><metadata id="metadata9999"><rdf:RDF><cc:Work><dc:format>image/svg+xml</dc:format><dc:type rdf:resource="http://purl.org/dc/dcmitype/StillImage"/><dc:title>Ivy icon theme</dc:title><cc:license rdf:resource="http://creativecommons.org/licenses/by-sa/4.0/"/><dc:creator><cc:Agent><dc:title>Sixsixfive (sixsixfive.deviantart.com)</dc:title></cc:Agent></dc:creator><dc:publisher><cc:Agent><dc:title>Sixsixfive (sixsixfive.deviantart.com)</dc:title></cc:Agent></dc:publisher><dc:source>https://github.com/sixsixfive</dc:source><dc:subject><rdf:Bag><rdf:li>ivy</rdf:li></rdf:Bag></dc:subject><dc:contributor><cc:Agent><dc:title>ssf</dc:title></cc:Agent></dc:contributor><dc:rights><cc:Agent><dc:title>Sixsixfive (sixisixfive.deviantart.com)</dc:title></cc:Agent></dc:rights><dc:description>A simple icon theme published under CC-BY-SA_V4(http://creativecommons.org/licenses/by-sa/4.0)</dc:description><dc:identifier>SSF</dc:identifier></cc:Work></rdf:RDF></metadata><!--Part of the Ivy icon them published under the CC-BY-SA_V4: http://creativecommons.org/licenses/by-sa/4.0 -->
</svg>