<?xml version="1.0" encoding="UTF-8" standalone="no"?><svg xmlns:cc="http://creativecommons.org/ns#" xmlns:dc="http://purl.org/dc/elements/1.1/" xmlns="http://www.w3.org/2000/svg" xmlns:svg="http://www.w3.org/2000/svg" xmlns:rdf="http://www.w3.org/1999/02/22-rdf-syntax-ns#" id="svg2" version="1.1" viewBox="0 0 16 16"><defs id="defs4"><linearGradient gradientUnits="userSpaceOnUse" y1="10.285" id="0" x1="45.11" y2="43.05" x2="45.09"><stop id="stop7" stop-color="#fff"/><stop stop-opacity="0" id="stop9" stop-color="#fff" offset="1"/></linearGradient><linearGradient gradientTransform="matrix(0.39999872 0 0 0.36841362 -1.599922 -0.841268)" gradientUnits="userSpaceOnUse" y1="43" id="1" y2="5" x2="0"><stop id="stop12" stop-color="#ddd"/><stop id="stop14" stop-color="#fff" offset="1"/></linearGradient></defs><path d="m 0,1.0007999 15.999949,0 0,13.9984001 L 0,14.9992 Z" id="path25" fill="url(#1)"/><g transform="matrix(0.36578 0 0 0.36578 -1.499 -1.762)" stroke-width="2.734" id="g27" fill="none"><path stroke="#000" opacity="0.4" d="m 5.4688,8.9375 0,35.5 41,0 0,-35.5 -41,0 z" id="path29"/><path stroke="url(#0)" d="m 8.2188,11.6875 0,30 35.5,0 0,-30 -35.5,0 z" id="path31"/></g><path d="m 14,6 -2,0 0,1 2,0 z" id="path35" fill="#fff"/><path d="m 14,5 -2,0 0,1 2,0 z" id="path37" fill="#6a6a6a"/><path d="m 14,8 -2,0 0,1 2,0 z" id="path39" fill="#fff"/><path d="m 14,7 -2,0 0,1 2,0 z" id="path41" fill="#6a6a6a"/><path d="m 14,10 -1.992466,0 0,1 L 14,11 Z" id="path43" fill="#fff"/><path d="m 14,9 -1.992466,0 0,1 L 14,10 Z" id="path45" fill="#6a6a6a"/><path d="m 14,12 -1.992466,0 0,1 L 14,13 Z" id="path47" fill="#fff"/><path d="m 14,11 -1.992466,0 0,1 L 14,12 Z" id="path49" fill="#6a6a6a"/><path d="M 11,6 6,6 6,7 11,7 Z" id="path3356" fill="#fff"/><path d="M 11,5 6,5 6,6 11,6 Z" id="path3358" fill="#6a6a6a"/><path d="M 11,8 6,8 6,9 11,9 Z" id="path3360" fill="#fff"/><path d="M 11,7 6,7 6,8 11,8 Z" id="path3362" fill="#6a6a6a"/><path d="m 11,10 -4.981165,0 0,1 L 11,11 Z" id="path3364" fill="#fff"/><path d="m 11,9 -4.981165,0 0,1 L 11,10 Z" id="path3366" fill="#6a6a6a"/><path d="m 11,12 -4.981165,0 0,1 L 11,13 Z" id="path3368" fill="#fff"/><path d="m 11,11 -4.981165,0 0,1 L 11,12 Z" id="path3370" fill="#6a6a6a"/><path d="M 5,6 2,6 2,7 5,7 Z" id="path3372" fill="#fff"/><path d="M 5,5 2,5 2,6 5,6 Z" id="path3374" fill="#6a6a6a"/><path d="M 5,8 2,8 2,9 5,9 Z" id="path3376" fill="#fff"/><path d="M 5,7 2,7 2,8 5,8 Z" id="path3378" fill="#6a6a6a"/><path d="m 5,10 -2.988699,0 0,1 L 5,11 Z" id="path3380" fill="#fff"/><path d="m 5,9 -2.988699,0 0,1 L 5,10 Z" id="path3382" fill="#6a6a6a"/><path d="m 5,12 -2.988699,0 0,1 L 5,13 Z" id="path3384" fill="#fff"/><path d="m 5,11 -2.988699,0 0,1 L 5,12 Z" id="path3386" fill="#6a6a6a"/><metadata id="metadata9999"><rdf:RDF><cc:Work><dc:format>image/svg+xml</dc:format><dc:type rdf:resource="http://purl.org/dc/dcmitype/StillImage"/><dc:title>Ivy icon theme</dc:title><cc:license rdf:resource="http://creativecommons.org/licenses/by-sa/4.0/"/><dc:creator><cc:Agent><dc:title>Sixsixfive (sixsixfive.deviantart.com)</dc:title></cc:Agent></dc:creator><dc:publisher><cc:Agent><dc:title>Sixsixfive (sixsixfive.deviantart.com)</dc:title></cc:Agent></dc:publisher><dc:source>https://github.com/sixsixfive</dc:source><dc:subject><rdf:Bag><rdf:li>ivy</rdf:li></rdf:Bag></dc:subject><dc:contributor><cc:Agent><dc:title>ssf</dc:title></cc:Agent></dc:contributor><dc:rights><cc:Agent><dc:title>Sixsixfive (sixisixfive.deviantart.com)</dc:title></cc:Agent></dc:rights><dc:description>A simple icon theme published under CC-BY-SA_V4(http://creativecommons.org/licenses/by-sa/4.0)</dc:description><dc:identifier>SSF</dc:identifier></cc:Work></rdf:RDF></metadata><!--Part of the Ivy icon them published under the CC-BY-SA_V4: http://creativecommons.org/licenses/by-sa/4.0 -->
</svg>