<?xml version="1.0" encoding="UTF-8" standalone="no"?><svg viewBox="0 0 16 16" xmlns="http://www.w3.org/2000/svg" xmlns:svg="http://www.w3.org/2000/svg" xmlns:rdf="http://www.w3.org/1999/02/22-rdf-syntax-ns#" version="1.1" id="svg2" xmlns:dc="http://purl.org/dc/elements/1.1/" xmlns:cc="http://creativecommons.org/ns#"><defs id="defs4"><linearGradient y1="3" x2="0" y2="45" gradientTransform="matrix(0.38095 0 0 0.38084 -1.143 -1.143)" id="0" gradientUnits="userSpaceOnUse"><stop id="stop7" stop-color="#a868d4"/><stop offset="1" id="stop9" stop-color="#caa3e5"/></linearGradient><linearGradient y1="1" x2="0" y2="15" id="1" gradientUnits="userSpaceOnUse"><stop id="stop12" stop-color="#fff"/><stop stop-opacity="0" offset="1" id="stop14" stop-color="#fff"/></linearGradient></defs><rect ry="1.523" height="15.995" rx="1.524" id="rect16" width="16" fill="url(#0)"/><g id="g18" fill="none"><path stroke="#000" opacity="0.45" id="path20" d="M 1.53125,0.5 C 0.953503,0.5 0.5,0.953706 0.5,1.53125 l 0,12.9375 C 0.5,15.04629 0.953503,15.5 1.53125,15.5 l 12.9375,0 C 15.0465,15.5 15.5,15.0463 15.5,14.46875 l 0,-12.9375 C 15.5,0.953705 15.0465,0.5 14.46875,0.5 l -12.9375,0 z"/><path stroke="url(#1)" opacity="0.45" id="path22" d="M 1.53125,1.5 C 1.504466,1.5 1.5,1.504632 1.5,1.53125 l 0,12.9375 C 1.5,14.49537 1.50447,14.5 1.53125,14.5 l 12.9375,0 C 14.49554,14.5 14.5,14.4954 14.5,14.46875 l 0,-12.9375 C 14.5,1.504631 14.495535,1.5 14.46875,1.5 l -12.9375,0 z"/></g><g transform="matrix(0.36512 0 0 0.40163 -0.716 -1.449)" id="g24"><g stroke-linecap="round" id="g26" fill="none"><g stroke="#171717" id="g28"><path stroke-width="5.24" opacity="0.26" id="path30" d="m 23.903,11.2096 0,19.604"/><path stroke-width="4.993" opacity="0.26" id="path32" d="m 34.9434,21.0116 -22.3455,0"/><g stroke-width="5.467" id="g34"><path opacity="0.26" id="path36" d="M 15.5747,13.8039 31.977,28.3167"/><path opacity="0.26" id="path38" d="M 31.977,13.8039 15.5747,28.3167"/></g></g><g stroke="#fff" id="g40"><path stroke-width="5.24" id="path42" d="m 23.9948,13.7136 0,19.604"/><path stroke-width="4.993" id="path44" d="m 35.0352,23.5156 -22.3455,0"/><g stroke-width="5.467" id="g46"><path id="path48" d="M 15.6665,16.3079 32.0688,30.8207"/><path id="path50" d="M 32.0688,16.3079 15.6665,30.8207"/></g></g></g><path opacity="0.47" id="path52" d="m 26.6117,23.5087 a 2.738835,2.506775 0 0 1 -5.47767,0 2.738835,2.506775 0 1 1 5.47767,0 z"/><path id="path54" d="m 26.6117,23.0079 a 2.738835,2.00597 0 0 1 -5.47767,0 2.738835,2.00597 0 1 1 5.47767,0 z" fill="#be8edf"/></g><metadata id="metadata9999"><rdf:RDF><cc:Work><dc:format>image/svg+xml</dc:format><dc:type rdf:resource="http://purl.org/dc/dcmitype/StillImage"/><dc:title>Ivy icon theme</dc:title><cc:license rdf:resource="http://creativecommons.org/licenses/by-sa/4.0/"/><dc:creator><cc:Agent><dc:title>Sixsixfive (sixsixfive.deviantart.com)</dc:title></cc:Agent></dc:creator><dc:publisher><cc:Agent><dc:title>Sixsixfive (sixsixfive.deviantart.com)</dc:title></cc:Agent></dc:publisher><dc:source>https://github.com/sixsixfive</dc:source><dc:subject><rdf:Bag><rdf:li>ivy</rdf:li></rdf:Bag></dc:subject><dc:contributor><cc:Agent><dc:title>ssf</dc:title></cc:Agent></dc:contributor><dc:rights><cc:Agent><dc:title>Sixsixfive (sixisixfive.deviantart.com)</dc:title></cc:Agent></dc:rights><dc:description>A simple icon theme published under CC-BY-SA_V4(http://creativecommons.org/licenses/by-sa/4.0)</dc:description><dc:identifier>SSF</dc:identifier></cc:Work></rdf:RDF></metadata><!--Part of the Ivy icon them published under the CC-BY-SA_V4: http://creativecommons.org/licenses/by-sa/4.0 -->
</svg>