<?xml version="1.0" encoding="UTF-8" standalone="no"?><svg xmlns:xlink="http://www.w3.org/1999/xlink" xmlns:cc="http://creativecommons.org/ns#" viewBox="0 0 16 16" version="1.1" id="svg2" xmlns:svg="http://www.w3.org/2000/svg" xmlns:rdf="http://www.w3.org/1999/02/22-rdf-syntax-ns#" xmlns="http://www.w3.org/2000/svg" xmlns:dc="http://purl.org/dc/elements/1.1/"><defs id="defs4"><linearGradient x2="0" gradientUnits="userSpaceOnUse" id="0" y2="45.02" gradientTransform="matrix(0.32155 0 0 0.33315 -0.71704737 -0.992257)" y1="3"><stop id="stop7" stop-color="#171717"/><stop offset="1" id="stop9" stop-color="#555"/></linearGradient><linearGradient x2="0" gradientUnits="userSpaceOnUse" x1="1.037171" xlink:href="#linearGradient3797" id="linearGradient4173" y2="42.838985" gradientTransform="matrix(0.40149352 0 0 0.4210526 -26.729314 -2.1052625)" y1="-9.139025"/><linearGradient id="linearGradient3797"><stop id="stop3799" stop-color="#ff8b36"/><stop offset="1" id="stop3801" stop-color="#ffd506"/></linearGradient></defs><path fill-rule="evenodd" fill="url(#0)" id="path11" d="m 6.9104526,0.009543 c -3.10094,0.086696 -4.07957,2.18846 -3.91401,3.97228 0.197645,0.152155 0.786932,0.04666 0.994318,0.108825 -0.146021,1.5097 0.067458,2.85131 1.072842,3.91488 -0.05756,0.351095 -0.06363,0.560968 -0.03726,0.997292 l -3.4163,1.1323 C 0.04103263,10.511175 -0.07767737,12.82586 0.02882263,14 14.006323,13.95891 0.00181463,14.0242 14.000023,13.96923 c -0.0479,-1.28361 -0.413569,-3.59248 -2.0094,-3.94595 l -2.9298004,-0.985 c -0.05254,-0.37219 -0.04144,-0.659748 -0.107606,-1.029697 1.3888804,-1.27856 2.0467764,-1.36618 2.0390504,-3.8457 0.246438,-1.71837 -1.1725404,-4.10274 -3.7700004,-4.15337 -0.105327,-0.002008 -0.211753,-0.002795 -0.311788,0 z"/><path opacity="0.29" fill="#fff" id="path13" d="m 4.2829526,1.007743 4.717,0 0,1 -4.717,0 z"/><path opacity="0.7" fill="none" id="path15" stroke="#000" d="m 6.9061526,0.570243 c -1.42725,0.039903 -2.24767,0.500119 -2.75,1.125 -0.413974,0.51497 -0.547378,1.167 -0.5625,1.8125 0.151402,-0.00544 0.293625,-0.018098 0.5625,0.0625 a 0.554162,0.554162 0 0 1 0.40625,0.59375 c -0.138271,1.42957 0.034044,2.54606 0.90625,3.46875 a 0.554162,0.554162 0 0 1 0.125,0.46875 c -0.051791,0.315914 -0.025709,0.44954 0,0.875 a 0.554162,0.554162 0 0 1 -0.375,0.5625 l -3.4062,1.125 a 0.554162,0.554162 0 0 1 -0.0625,0 c -0.53623,0.128522 -0.84375497,0.576123 -1.03124997,1.25 -0.141339,0.50799 -0.102718,1.03942 -0.09375,1.53125 2.85696997,-0.0081 4.74356997,5.08e-4 5.53124997,0 0.436115,-2.81e-4 0.638163,-8.55e-4 0.75,0 0.055918,4.28e-4 0.095638,-0.0012 0.125,0 -8.56e-4,-2.7e-5 0.038873,-2.08e-4 0.0625,0 0.00554,9.36e-4 0.018576,-0.0033 0.03125,0 0.105269,3.8e-4 0.31348,0.0011 0.75,0 0.779503,-0.002 2.6701004,-0.02038 5.4687504,-0.03125 -0.05229,-0.516943 -0.09238,-1.05748 -0.28125,-1.5625 -0.260375,-0.696216 -0.632246,-1.18951 -1.1875,-1.3125 a 0.554162,0.554162 0 0 1 -0.0625,0 l -2.9375004,-0.9688 a 0.554162,0.554162 0 0 1 -0.375,-0.46875 c -0.061476,-0.435555 -0.00939,-0.703067 -0.0625,-1 a 0.554162,0.554162 0 0 1 0.15625,-0.5 c 0.721599,-0.664279 1.2137,-1.00124 1.4687504,-1.375 0.255047,-0.373761 0.378715,-0.871184 0.375,-2.0625 a 0.554162,0.554162 0 0 1 0,-0.09375 c 0.09672,-0.674383 -0.125848,-1.54479 -0.6875004,-2.25 -0.561652,-0.705206 -1.4002,-1.22796 -2.53125,-1.25 -0.100923,-0.00192 -0.226407,-0.00241 -0.3125,0 z"/><g stroke-linejoin="round" id="g3503" transform="matrix(0.6875 0 0 0.6875 21.999428 5.0126348)"><path stroke-linejoin="round" fill="url(#linearGradient4173)" id="path3363" stroke-linecap="round" d="m -11.994272,15.933698 c -0.635915,0.484182 -3.949703,-2.859966 -4.735544,-2.860243 -0.785842,-2.79e-4 -4.100853,3.341383 -4.736456,2.85675 -0.635603,-0.484632 -0.01141,-4.708158 -0.254,-5.492032 C -21.962858,9.6542984 -24.95717,6.8663424 -24.71408,6.0826398 -24.470989,5.298937 -20.905628,4.833681 -20.269713,4.349498 -19.633798,3.8653148 -17.511126,-2.7784376e-4 -16.725285,8.2539016e-8 -15.939443,2.779062e-4 -13.673316,3.8669599 -13.037713,4.351593 c 0.635603,0.4846329 4.054723,0.9528214 4.297309,1.736696 0.242586,0.7838745 -2.752778,3.5695712 -2.995868,4.353273 -0.243091,0.783704 0.377914,5.007952 -0.258,5.492136 z"/><path stroke-dasharray="none" stroke-linejoin="round" stroke-miterlimit="4" opacity="0.5" fill="none" id="path4316" stroke="#000" stroke-width="1.454546" stroke-linecap="round" d="m -16.71875,0.79882812 c -0.07635,0.069201 -0.159034,0.14354141 -0.269531,0.27148438 -0.28562,0.3307155 -0.637386,0.8165089 -0.986328,1.3222656 -0.348943,0.5057568 -0.698802,1.0342453 -1.007813,1.4765625 -0.309011,0.4423172 -0.493668,0.7591275 -0.861328,1.0390625 -0.367818,0.2800552 -0.710546,0.3507635 -1.158203,0.4804688 -0.447657,0.1297052 -0.961128,0.2581976 -1.451172,0.3925781 -0.490044,0.1343805 -0.960149,0.278022 -1.279297,0.4140625 -0.250607,0.1068244 -0.251472,0.1349842 -0.24414,0.074219 0.03732,0.082776 0.08928,0.18848 0.18164,0.3300782 0.218576,0.3351017 0.565303,0.7696909 0.933594,1.2089844 0.368291,0.4392934 0.758133,0.8854763 1.082031,1.2851562 0.323898,0.3996799 0.583863,0.6629872 0.730469,1.1367187 0.138525,0.447612 0.09893,0.817437 0.08398,1.347656 -0.01495,0.530219 -0.05142,1.146081 -0.07422,1.744141 -0.0228,0.598059 -0.03079,1.180188 0,1.603515 0.0064,0.08846 0.01779,0.127392 0.02734,0.199219 0.03572,-0.01931 0.04478,-0.01773 0.08398,-0.04102 0.357581,-0.212421 0.84589,-0.5739 1.34375,-0.957031 0.497859,-0.38313 1.008551,-0.788007 1.464843,-1.111328 0.228146,-0.161661 0.440677,-0.304552 0.650391,-0.417969 0.209714,-0.113417 0.39098,-0.226686 0.738281,-0.226562 0.347343,1.22e-4 0.528608,0.114948 0.738281,0.228515 0.209674,0.113568 0.42227,0.254175 0.650391,0.416016 0.456243,0.323683 0.967,0.729728 1.464844,1.113281 0.497844,0.383554 0.98611,0.746238 1.34375,0.958985 0.03905,0.02323 0.04838,0.02173 0.08398,0.04101 0.0096,-0.07187 0.02279,-0.110691 0.0293,-0.199218 0.03109,-0.423328 0.02237,-1.005419 0,-1.603516 -0.02237,-0.598098 -0.0577,-1.2139 -0.07227,-1.744141 -0.01457,-0.530241 -0.05482,-0.902125 0.08399,-1.349609 0.146879,-0.4735254 0.406399,-0.7353019 0.730469,-1.1347655 0.324069,-0.3994635 0.715517,-0.8461059 1.083984,-1.2851562 0.368467,-0.4390503 0.7148751,-0.8740287 0.9335938,-1.2089844 0.092776,-0.1420813 0.1443737,-0.2473321 0.1816406,-0.3300781 0.00418,0.050343 0.00592,0.028659 -0.2304688,-0.076172 -0.3043486,-0.1349645 -0.7534816,-0.279468 -1.2245956,-0.4140537 -0.471113,-0.1345856 -0.966686,-0.2623037 -1.40039,-0.3925781 -0.433705,-0.1302744 -0.77177,-0.20816 -1.128907,-0.4804688 -0.357135,-0.2723077 -0.553251,-0.5881605 -0.875,-1.0292968 -0.321748,-0.4411363 -0.69004,-0.9685588 -1.05664,-1.4746094 -0.366601,-0.5060506 -0.735771,-0.9913524 -1.035157,-1.3242188 -0.118539,-0.13179621 -0.207758,-0.21245051 -0.289062,-0.28320308 z"/></g><path fill-rule="evenodd" stroke-linejoin="round" opacity="0.49" fill="none" id="path4318" stroke="#fff" stroke-width="1" stroke-linecap="butt" stroke-opacity="1" d="m 6.6644533,10.012635 c 1.6243715,-0.1098351 2.757024,-0.9397174 3.8561937,-2.6578097 0.859995,1.3442988 1.649958,2.3634748 4,2.466068"/><metadata id="metadata9999"><rdf:RDF><cc:Work><dc:format>image/svg+xml</dc:format><dc:type rdf:resource="http://purl.org/dc/dcmitype/StillImage"/><dc:title>Ivy icon theme</dc:title><cc:license rdf:resource="http://creativecommons.org/licenses/by-sa/4.0/"/><dc:creator><cc:Agent><dc:title>Sixsixfive (sixsixfive.deviantart.com)</dc:title></cc:Agent></dc:creator><dc:publisher><cc:Agent><dc:title>Sixsixfive (sixsixfive.deviantart.com)</dc:title></cc:Agent></dc:publisher><dc:source>https://github.com/sixsixfive</dc:source><dc:subject><rdf:Bag><rdf:li>ivy</rdf:li></rdf:Bag></dc:subject><dc:contributor><cc:Agent><dc:title>ssf</dc:title></cc:Agent></dc:contributor><dc:rights><cc:Agent><dc:title>Sixsixfive (sixisixfive.deviantart.com)</dc:title></cc:Agent></dc:rights><dc:description>A simple icon theme published under CC-BY-SA_V4(http://creativecommons.org/licenses/by-sa/4.0)</dc:description><dc:identifier>SSF</dc:identifier></cc:Work></rdf:RDF></metadata><!--Part of the Ivy icon them published under the CC-BY-SA_V4: http://creativecommons.org/licenses/by-sa/4.0 -->
</svg>