<?xml version="1.0" encoding="UTF-8" standalone="no"?>
<svg xmlns:dc="http://purl.org/dc/elements/1.1/" xmlns:cc="http://creativecommons.org/ns#" xmlns:rdf="http://www.w3.org/1999/02/22-rdf-syntax-ns#" xmlns:svg="http://www.w3.org/2000/svg" xmlns="http://www.w3.org/2000/svg" viewBox="0 0 16 16" id="svg2" version="1.1">
 <defs id="defs4"/>
 <rect width="14" x="1" y="3" fill="#ddd" rx="0.667" height="12" id="1" ry="0.667"/>
 <path fill="#5288d1" id="2" d="M 3,4 3,12 13,12 13,4 3,4 Z"/>
 <path opacity="0.8" fill="#fff" id="3" d="m 3,12 10,0 0,1 -10,0 z"/>
 <g id="4" transform="translate(0,-1)" fill="#ffd506">
  <path id="D" d="m 11,5 0,8 1,0 0,-8 -1,0 z"/>
  <path id="E" d="m 9,5 0,8 1,0 0,-8 -1,0 z"/>
 </g>
 <g id="6" fill="none" stroke="#000">
  <path id="F" d="m 1.65625,3.53125 c -0.10143,0 -0.125,0.02357 -0.125,0.125 l 0,10.6875 c 0,0.101429 0.02357,0.125 0.125,0.125 l 12.6875,0 c 0.101429,0 0.125,-0.02357 0.125,-0.125 l 0,-10.6875 c 0,-0.10143 -0.02357,-0.125 -0.125,-0.125 l -12.6875,0 z" opacity="0.4"/>
  <path id="G" d="m 3.5,4.5 0,7 9,0 0,-7 -9,0 z" opacity="0.4"/>
 </g>
 <metadata id="metadata9999">
  <rdf:RDF>
   <cc:Work>
    <dc:format>image/svg+xml</dc:format>
    <dc:type rdf:resource="http://purl.org/dc/dcmitype/StillImage"/>
    <dc:title>Ivy icon theme</dc:title>
    <cc:license rdf:resource="http://creativecommons.org/licenses/by-sa/4.0/"/>
    <dc:creator>
     <cc:Agent>
      <dc:title>Sixsixfive (sixsixfive.deviantart.com)</dc:title>
     </cc:Agent>
    </dc:creator>
    <dc:publisher>
     <cc:Agent>
      <dc:title>Sixsixfive (sixsixfive.deviantart.com)</dc:title>
     </cc:Agent>
    </dc:publisher>
    <dc:source>https://github.com/sixsixfive</dc:source>
    <dc:subject>
     <rdf:Bag>
      <rdf:li>ivy</rdf:li>
     </rdf:Bag>
    </dc:subject>
    <dc:contributor>
     <cc:Agent>
      <dc:title>ssf</dc:title>
     </cc:Agent>
    </dc:contributor>
    <dc:rights>
     <cc:Agent>
      <dc:title>Sixsixfive (sixisixfive.deviantart.com)</dc:title>
     </cc:Agent>
    </dc:rights>
    <dc:description>A simple icon theme published under CC-BY-SA_V4(http://creativecommons.org/licenses/by-sa/4.0)</dc:description>
    <dc:identifier>SSF</dc:identifier>
   </cc:Work>
  </rdf:RDF>
 </metadata>
 <!--Part of the Ivy icon them published under the CC-BY-SA_V4: http://creativecommons.org/licenses/by-sa/4.0 -->
</svg>
