<?xml version="1.0" encoding="UTF-8" standalone="no"?><svg xmlns:xlink="http://www.w3.org/1999/xlink" xmlns:cc="http://creativecommons.org/ns#" viewBox="0 0 16 16" version="1.1" id="svg2" xmlns:svg="http://www.w3.org/2000/svg" xmlns:rdf="http://www.w3.org/1999/02/22-rdf-syntax-ns#" xmlns="http://www.w3.org/2000/svg" xmlns:dc="http://purl.org/dc/elements/1.1/"><defs id="defs4"><linearGradient id="linearGradient4144"><stop stop-opacity="1" id="stop4146" stop-color="#e6e6e6"/><stop offset="1" stop-opacity="1" id="stop4148" stop-color="#f2f2f2"/></linearGradient><linearGradient x2="0" gradientUnits="userSpaceOnUse" id="1" y2="14.875" y1="1.125"><stop id="stop12" stop-color="#fff"/><stop offset="1" stop-opacity="0" id="stop14" stop-color="#fff"/></linearGradient><linearGradient x2="11.716913" gradientUnits="userSpaceOnUse" x1="11.808411" xlink:href="#linearGradient4144" id="linearGradient4150" y2="16" y1="0.135593"/></defs><path fill-opacity="1" fill="url(#linearGradient4150)" id="path16" d="M 15.9881,8 A 7.98815,7.98815 0 1 1 0.0118,8 7.98815,7.98815 0 1 1 15.9881,8 z"/><path opacity="0.4" fill="none" id="path18" stroke="#000" stroke-linecap="round" d="M 8,0.625 C 3.92775,0.625 0.625,3.92775 0.625,8 c 0,4.07225 3.30275,7.375 7.375,7.375 4.07225,0 7.375,-3.30275 7.375,-7.375 C 15.375,3.92775 12.07225,0.625 8,0.625 z"/><path opacity="0.4" fill="none" id="path22" stroke="url(#1)" stroke-linecap="round" d="M 8,1.625 C 4.45743,1.625 1.625,4.45743 1.625,8 c 0,3.54257 2.83243,6.375 6.375,6.375 3.54257,0 6.375,-2.83243 6.375,-6.375 C 14.375,4.45743 11.54257,1.625 8,1.625 z"/><metadata id="metadata9999"><rdf:RDF><cc:Work><dc:format>image/svg+xml</dc:format><dc:type rdf:resource="http://purl.org/dc/dcmitype/StillImage"/><dc:title>Ivy icon theme</dc:title><cc:license rdf:resource="http://creativecommons.org/licenses/by-sa/4.0/"/><dc:creator><cc:Agent><dc:title>Sixsixfive (sixsixfive.deviantart.com)</dc:title></cc:Agent></dc:creator><dc:publisher><cc:Agent><dc:title>Sixsixfive (sixsixfive.deviantart.com)</dc:title></cc:Agent></dc:publisher><dc:source>https://github.com/sixsixfive</dc:source><dc:subject><rdf:Bag><rdf:li>ivy</rdf:li></rdf:Bag></dc:subject><dc:contributor><cc:Agent><dc:title>ssf</dc:title></cc:Agent></dc:contributor><dc:rights><cc:Agent><dc:title>Sixsixfive (sixisixfive.deviantart.com)</dc:title></cc:Agent></dc:rights><dc:description>A simple icon theme published under CC-BY-SA_V4(http://creativecommons.org/licenses/by-sa/4.0)</dc:description><dc:identifier>SSF</dc:identifier></cc:Work></rdf:RDF></metadata><!--Part of the Ivy icon them published under the CC-BY-SA_V4: http://creativecommons.org/licenses/by-sa/4.0 -->
</svg>