<?xml version="1.0" encoding="UTF-8" standalone="no"?>
<svg xmlns:dc="http://purl.org/dc/elements/1.1/" xmlns:cc="http://creativecommons.org/ns#" xmlns:rdf="http://www.w3.org/1999/02/22-rdf-syntax-ns#" xmlns:svg="http://www.w3.org/2000/svg" xmlns="http://www.w3.org/2000/svg" viewBox="0 0 16 16" id="svg2" version="1.1">
 <defs id="defs4">
  <linearGradient id="0" y1="10.285" x1="45.11" y2="43.05" x2="45.09" gradientUnits="userSpaceOnUse">
   <stop stop-color="#fff" id="stop7"/>
   <stop offset="1" stop-color="#fff" id="stop9" stop-opacity="0"/>
  </linearGradient>
  <linearGradient id="1" y1="43" y2="5" x2="0" gradientUnits="userSpaceOnUse" gradientTransform="matrix(0.39999872 0 0 0.36841362 -1.599922 -0.841268)">
   <stop stop-color="#ddd" id="stop12"/>
   <stop offset="1" stop-color="#fff" id="stop14"/>
  </linearGradient>
 </defs>
 <path fill="url(#1)" id="path25" d="m 0,1.0007999 15.999949,0 0,13.9984001 L 0,14.9992 Z"/>
 <g id="g27" transform="matrix(0.36578,0,0,0.36578,-1.499,-1.762)" fill="none" stroke-width="2.734">
  <path id="path29" d="m 5.4688,8.9375 0,35.5 41,0 0,-35.5 -41,0 z" opacity="0.4" stroke="#000"/>
  <path id="path31" d="m 8.2188,11.6875 0,30 35.5,0 0,-30 -35.5,0 z" stroke="url(#0)"/>
 </g>
 <path fill="#fff" id="path35" d="M 14,6 2,6 2,7 14,7 Z"/>
 <path fill="#6a6a6a" id="path37" d="M 14,5 2,5 2,6 14,6 Z"/>
 <path fill="#fff" id="path39" d="M 14,8 2,8 2,9 14,9 Z"/>
 <path fill="#6a6a6a" id="path41" d="M 14,7 2,7 2,8 14,8 Z"/>
 <path fill="#fff" id="path43" d="m 14,10 -11.8870056,0 0,1 L 14,11 Z"/>
 <path fill="#6a6a6a" id="path45" d="m 14,9 -11.8870056,0 0,1 L 14,10 Z"/>
 <path fill="#fff" id="path47" d="m 14,12 -11.8870056,0 0,1 L 14,13 Z"/>
 <path fill="#6a6a6a" id="path49" d="m 14,11 -11.8870056,0 0,1 L 14,12 Z"/>
 <metadata id="metadata9999">
  <rdf:RDF>
   <cc:Work>
    <dc:format>image/svg+xml</dc:format>
    <dc:type rdf:resource="http://purl.org/dc/dcmitype/StillImage"/>
    <dc:title>Ivy icon theme</dc:title>
    <cc:license rdf:resource="http://creativecommons.org/licenses/by-sa/4.0/"/>
    <dc:creator>
     <cc:Agent>
      <dc:title>Sixsixfive (sixsixfive.deviantart.com)</dc:title>
     </cc:Agent>
    </dc:creator>
    <dc:publisher>
     <cc:Agent>
      <dc:title>Sixsixfive (sixsixfive.deviantart.com)</dc:title>
     </cc:Agent>
    </dc:publisher>
    <dc:source>https://github.com/sixsixfive</dc:source>
    <dc:subject>
     <rdf:Bag>
      <rdf:li>ivy</rdf:li>
     </rdf:Bag>
    </dc:subject>
    <dc:contributor>
     <cc:Agent>
      <dc:title>ssf</dc:title>
     </cc:Agent>
    </dc:contributor>
    <dc:rights>
     <cc:Agent>
      <dc:title>Sixsixfive (sixisixfive.deviantart.com)</dc:title>
     </cc:Agent>
    </dc:rights>
    <dc:description>A simple icon theme published under CC-BY-SA_V4(http://creativecommons.org/licenses/by-sa/4.0)</dc:description>
    <dc:identifier>SSF</dc:identifier>
   </cc:Work>
  </rdf:RDF>
 </metadata>
 <!--Part of the Ivy icon them published under the CC-BY-SA_V4: http://creativecommons.org/licenses/by-sa/4.0 -->
</svg>
