<?xml version="1.0" encoding="UTF-8" standalone="no"?><svg xmlns:svg="http://www.w3.org/2000/svg" viewBox="0 0 16 16" xmlns="http://www.w3.org/2000/svg" xmlns:rdf="http://www.w3.org/1999/02/22-rdf-syntax-ns#" version="1.1" id="svg2" xmlns:dc="http://purl.org/dc/elements/1.1/" xmlns:cc="http://creativecommons.org/ns#"><defs id="defs4"><linearGradient y1="9.966" x2="0" y2="41.29" id="0" gradientTransform="matrix(0.41466 0 0 0.44697 -3.554 -3.455)" gradientUnits="userSpaceOnUse"><stop id="stop7" stop-color="#bababa"/><stop offset="1" id="stop9" stop-color="#ebebeb"/></linearGradient><linearGradient y1="2" x2="0" y2="14" id="1" gradientUnits="userSpaceOnUse"><stop id="stop12" stop-color="#fff"/><stop stop-opacity="0" offset="1" id="stop14" stop-color="#fff"/></linearGradient></defs><path id="path16" d="M 15 8 A 7 7 0 1 1 1 8 7 7 0 1 1 15 8 z" fill="url(#0)"/><g id="g18" fill="none"><path stroke="#000" stroke-width="1.01" opacity="0.3" id="path20" d="m 8.0282,1.5649 c -3.58054,0 -6.48134,2.90169 -6.48134,6.46619 0,3.56451 2.9008,6.4662 6.48134,6.4662 3.58054,0 6.46906,-2.90126 6.46906,-6.4662 0,-3.56493 -2.88852,-6.46619 -6.46906,-6.46619 z"/><path stroke="url(#1)" opacity="0.4" id="path22" d="M 8,2.5625 C 4.97422,2.5625 2.5625,4.99443 2.5625,8 c 0,3.00558 2.41172,5.4375 5.4375,5.4375 3.02586,0 5.4375,-2.43144 5.4375,-5.4375 C 13.4375,4.99394 11.02586,2.5625 8,2.5625 Z"/></g><path opacity="0.5" id="path24" d="M 4,6 H5 V12 H4 z" fill="#fff"/><path id="path26" d="M 4,5 H5 V11 H4 z" fill="#6a6a6a"/><path opacity="0.5" id="path28" d="M 5,7 H6 V11 H5 z" fill="#fff"/><path id="path30" d="M 5,6 H6 V10 H5 z" fill="#6a6a6a"/><path opacity="0.5" id="path32" d="M 6,8 H7 V10 H6 z" fill="#fff"/><path id="path34" d="M 6,7 H7 V9 H6 z" fill="#6a6a6a"/><path opacity="0.5" id="path36" d="M 7,6 H8 V12 H7 z" fill="#fff"/><path id="path38" d="M 7,5 H8 V11 H7 z" fill="#6a6a6a"/><path opacity="0.5" id="path40" d="M 8,7 H9 V11 H8 z" fill="#fff"/><path id="path42" d="M 8,6 H9 V10 H8 z" fill="#6a6a6a"/><path opacity="0.5" id="path44" d="M 9,8 H10 V10 H9 z" fill="#fff"/><path id="path46" d="M 9,7 H10 V9 H9 z" fill="#6a6a6a"/><g id="g48" transform="matrix(-1 0 0 1 0 0)"><path opacity="0.5" id="path50" d="m -12,6 2,0 0,6 -2,0 z" fill="#fff"/><path id="path52" d="m -12,5 2,0 0,6 -2,0 z" fill="#6a6a6a"/></g><metadata id="metadata9999"><rdf:RDF><cc:Work><dc:format>image/svg+xml</dc:format><dc:type rdf:resource="http://purl.org/dc/dcmitype/StillImage"/><dc:title>Ivy icon theme</dc:title><cc:license rdf:resource="http://creativecommons.org/licenses/by-sa/4.0/"/><dc:creator><cc:Agent><dc:title>Sixsixfive (sixsixfive.deviantart.com)</dc:title></cc:Agent></dc:creator><dc:publisher><cc:Agent><dc:title>Sixsixfive (sixsixfive.deviantart.com)</dc:title></cc:Agent></dc:publisher><dc:source>https://github.com/sixsixfive</dc:source><dc:subject><rdf:Bag><rdf:li>ivy</rdf:li></rdf:Bag></dc:subject><dc:contributor><cc:Agent><dc:title>ssf</dc:title></cc:Agent></dc:contributor><dc:rights><cc:Agent><dc:title>Sixsixfive (sixisixfive.deviantart.com)</dc:title></cc:Agent></dc:rights><dc:description>A simple icon theme published under CC-BY-SA_V4(http://creativecommons.org/licenses/by-sa/4.0)</dc:description><dc:identifier>SSF</dc:identifier></cc:Work></rdf:RDF></metadata><!--Part of the Ivy icon them published under the CC-BY-SA_V4: http://creativecommons.org/licenses/by-sa/4.0 -->
</svg>