<?xml version="1.0" encoding="UTF-8" standalone="no"?>
<svg xmlns:dc="http://purl.org/dc/elements/1.1/" xmlns:cc="http://creativecommons.org/ns#" xmlns:rdf="http://www.w3.org/1999/02/22-rdf-syntax-ns#" xmlns:svg="http://www.w3.org/2000/svg" xmlns="http://www.w3.org/2000/svg" xmlns:xlink="http://www.w3.org/1999/xlink" viewBox="0 0 16 16" version="1.1" id="svg2">
 <defs id="defs4">
  <linearGradient gradientTransform="matrix(0.4 0 0 0.39474 -1.6 -1.974)" gradientUnits="userSpaceOnUse" x2="43.912" y2="-1.016" x1="44" y1="43" id="2">
   <stop id="stop7" stop-color="#ddd"/>
   <stop id="stop9" stop-color="#fff" offset="1"/>
  </linearGradient>
 </defs>
 <path d="M 0,0 H 16 V 15 H 0 z" id="path13" fill="url(#2)"/>
 <path d="M 0,0 H 16 V 5 H 0 z" id="path15" fill="#5288d1"/>
 <rect id="rect3013" height="7" y="8" width="16" fill="#66b03e"/>
 <g id="g17" fill="none">
  <path id="path21" d="M 0.9835,4.4995 15.0037,4.5006" opacity="0.4" stroke="#000" stroke-width="0.999"/>
  <path id="path23" d="m 8,5.4995 7.0256,0.0011" stroke="#fff" stroke-width="0.999"/>
  <path transform="matrix(0,1,-1,0,0,0)" d="m 8,-15 1,0 0,14 -1,0 z" id="rect3017" opacity="0.4" fill="#000" stroke-width="0.999"/>
  <path id="path3015" d="M 1,5.4994 8.0256,5.5005" opacity="0.5" stroke="#fff" stroke-width="0.999"/>
  <path d="m 5,10 7,0 0,3 -7,0 z" id="rect3023" opacity="0.3" fill="#000" stroke-width="0.999"/>
  <path d="m 6,11 5,0 0,1 -5,0 z" id="rect3019" fill="#ebebeb" stroke-width="0.999"/>
  <path d="m 0.5,0.5 0,14 15,0 0,-14 -15,0 z" id="path25" opacity="0.4" stroke="#000"/>
  <path transform="matrix(0,1,-1,0,0,0)" d="m 13,-10 1,0 0,3 -1,0 z" id="rect3438" opacity="0.3" fill="#000" stroke-width="0.999"/>
  <path transform="matrix(0,1,-1,0,0,0)" d="m 9,-10 1,0 0,3 -1,0 z" id="rect3436" opacity="0.3" fill="#000" stroke-width="0.999"/>
  <path transform="matrix(0,1,-1,0,0,0)" d="m 9,-9 5,0 0,1 -5,0 z" id="rect3434" fill="#ebebeb" stroke-width="0.999"/>
 </g>
 <g id="g27" fill="#fff">
  <path d="M 1,1 15,1 15,2 1,2 Z" id="path29" opacity="0.47"/>
  <path d="M 2,2 3,2 3,3 2,3 Z" id="path31"/>
  <path d="M 4,2 5,2 5,3 4,3 Z" id="path33"/>
  <path d="M 6,2 7,2 7,3 6,3 Z" id="path35"/>
 </g>
 <path d="M 2,3 H 3 V 4 H 2 z" id="path37" opacity="0.266"/>
 <path d="M 4,3 H 5 V 4 H 4 z" id="path39" opacity="0.266"/>
 <path d="M 6,3 H 7 V 4 H 6 z" id="path41" opacity="0.266"/>
 <path d="M 1,2 H 2 V 3 H 1 z" id="path43" opacity="0.266"/>
 <path d="M 3,2 H 4 V 3 H 3 z" id="0" opacity="0.266"/>
 <path d="M 5,2 H 6 V 3 H 5 z" id="1" opacity="0.266"/>
 <path d="M 2,1 H 3 V 2 H 2 z" id="path47" opacity="0.266"/>
 <path d="M 4,1 H 5 V 2 H 4 z" id="path49" opacity="0.266"/>
 <path d="M 6,1 H 7 V 2 H 6 z" id="path51" opacity="0.266"/>
 <use xlink:href="#0" id="use53" height="16" width="16"/>
 <use xlink:href="#1" id="use55" height="16" width="16"/>
 <path d="M 7,2 H 8 V 3 H 7 z" id="path57" opacity="0.266"/>
 <metadata id="metadata9999">
  <rdf:RDF>
   <cc:Work>
    <dc:format>image/svg+xml</dc:format>
    <dc:type rdf:resource="http://purl.org/dc/dcmitype/StillImage"/>
    <dc:title>Ivy icon theme</dc:title>
    <cc:license rdf:resource="http://creativecommons.org/licenses/by-sa/4.0/"/>
    <dc:creator>
     <cc:Agent>
      <dc:title>Sixsixfive (sixsixfive.deviantart.com)</dc:title>
     </cc:Agent>
    </dc:creator>
    <dc:publisher>
     <cc:Agent>
      <dc:title>Sixsixfive (sixsixfive.deviantart.com)</dc:title>
     </cc:Agent>
    </dc:publisher>
    <dc:source>https://github.com/sixsixfive</dc:source>
    <dc:subject>
     <rdf:Bag>
      <rdf:li>ivy</rdf:li>
     </rdf:Bag>
    </dc:subject>
    <dc:contributor>
     <cc:Agent>
      <dc:title>ssf</dc:title>
     </cc:Agent>
    </dc:contributor>
    <dc:rights>
     <cc:Agent>
      <dc:title>Sixsixfive (sixisixfive.deviantart.com)</dc:title>
     </cc:Agent>
    </dc:rights>
    <dc:description>A simple icon theme published under CC-BY-SA_V4(http://creativecommons.org/licenses/by-sa/4.0)</dc:description>
    <dc:identifier>SSF</dc:identifier>
   </cc:Work>
  </rdf:RDF>
 </metadata>
 <!--Part of the Ivy icon them published under the CC-BY-SA_V4: http://creativecommons.org/licenses/by-sa/4.0 -->
</svg>
