<?xml version="1.0" encoding="UTF-8" standalone="no"?>
<svg xmlns:dc="http://purl.org/dc/elements/1.1/" xmlns:cc="http://creativecommons.org/ns#" xmlns:rdf="http://www.w3.org/1999/02/22-rdf-syntax-ns#" xmlns:svg="http://www.w3.org/2000/svg" xmlns="http://www.w3.org/2000/svg" version="1.1" id="svg2" viewBox="0 0 16 16">
 <defs id="defs4">
  <linearGradient gradientTransform="matrix(0.33319 0 0 0.33479 0.005 0.937)" gradientUnits="userSpaceOnUse" x2="0" y2="42" y1="21" id="0">
   <stop id="stop7" stop-color="#c1c1c1"/>
   <stop id="stop9" stop-color="#ebebeb" offset="1"/>
  </linearGradient>
  <linearGradient gradientTransform="matrix(0.3122 0 0 0.3058 0.559 1.103)" gradientUnits="userSpaceOnUse" x2="0" y2="29" y1="21" id="1">
   <stop id="stop12" stop-color="#a1bfe5"/>
   <stop id="stop14" stop-color="#5288d1" offset="1"/>
  </linearGradient>
  <linearGradient gradientTransform="matrix(0.3122 0 0 0.35169 0.526 0.616)" gradientUnits="userSpaceOnUse" x2="0" y2="21" y1="6" id="2">
   <stop id="stop17" stop-color="#ebebeb"/>
   <stop id="stop19" stop-color="#fff" offset="1"/>
  </linearGradient>
 </defs>
 <rect id="rect21" height="4.262" rx="0.355" fill="#6a6a6a" y="5.05" x="1.995" width="12.01" ry="0.355"/>
 <rect id="rect23" height="7.03" rx="0.67" fill="url(#0)" y="7.968" x="1" width="13.994" ry="0.67"/>
 <path d="m 1.0046 11.9275 v 2.31 c 0 0.36564 0.296495 0.66 0.664788 0.66 h 12.631 c 0.368292 0 0.664787 -0.29436 0.664787 -0.66 v -2.31 h -13.9605 z" id="path25" fill="#6a6a6a" opacity="0.419"/>
 <rect id="rect27" height="5.504" rx="0.306" fill="url(#1)" y="4.466" x="3.057" width="9.99" ry="0.306"/>
 <path d="m 3,12 9.99,0 0,0.99 -9.99,0 z" id="path31" fill="#171717"/>
 <path d="m 3.3354 2.0224 c -0.172956 0 -0.312196 0.156852 -0.312196 0.351686 v 5.62697 h 9.99026 v -5.62697 c 0 -0.194834 -0.139239 -0.351686 -0.312196 -0.351686 z" id="path33" fill="url(#2)"/>
 <path d="M 3.972,3.058 H12.002 V4.002 H3.972 z" id="path35" fill="#fff" opacity="0.3"/>
 <path transform="matrix(1 0 0 1.0056 0 -0.048)" d="m 1.6562 8.4688 c -0.09927 0 -0.15625 0.05698 -0.15625 0.15625 v 5.625 c 0 0.09927 0.05698 0.15625 0.15625 0.15625 h 12.6875 c 0.09927 0 0.15625 -0.05698 0.15625 -0.15625 v -5.625 c 0 -0.09927 -0.05698 -0.15625 -0.15625 -0.15625 H 1.6562 z" stroke-width="0.997" id="path37" stroke="#000" fill="none" opacity="0.4"/>
 <path d="m 3,0.98305085 1,0 L 4,9 3,9 Z" id="path39" opacity="0.4"/>
 <path d="m 12.02,0.98305085 1,0 L 13.02,9 l -1,0 z" id="path41" opacity="0.4"/>
 <g transform="matrix(0,1,-1,0,0,0)" id="g43">
  <path d="M 0.98305085,-12.02 2,-12.02 2,-4 0.98305085,-4 Z" id="path45" opacity="0.4"/>
  <path d="m 6.977,-11.994 1,0 0,7.972 -1,0 z" id="path47" opacity="0.1"/>
 </g>
 <rect id="rect3382" stroke-linecap="round" stroke-linejoin="round" height="1" fill="#fff" y="10.98" x="1.98" opacity="0.603" width="12"/>
 <rect id="rect3384" stroke-linecap="round" stroke-linejoin="round" height="1" fill="#fff" y="2" x="4" opacity="0.8" width="8"/>
 <rect id="rect3386" stroke-linecap="round" stroke-linejoin="round" height="1" fill="#5288d1" y="10" x="3" width="10"/>
 <rect id="rect4188" stroke-linecap="round" stroke-linejoin="round" height="1" fill="#fff" y="10" x="3" opacity="0.602" width="10"/>
 <rect id="rect4190" stroke-linecap="round" stroke-linejoin="round" height="1" fill="#fff" y="9" x="2" opacity="0.602" width="1"/>
 <rect id="rect4192" stroke-linecap="round" stroke-linejoin="round" height="1" fill="#fff" y="9" x="13" opacity="0.602" width="1"/>
 <rect id="rect4194" stroke-linecap="round" stroke-linejoin="round" height="1" y="8" x="4" opacity="0.7" width="8"/>
 <rect id="rect4196" stroke-linecap="round" stroke-linejoin="round" height="1" fill="#fff" y="13" x="3" opacity="0.471" width="10"/>
 <metadata id="metadata9999">
  <rdf:RDF>
   <cc:Work>
    <dc:format>image/svg+xml</dc:format>
    <dc:type rdf:resource="http://purl.org/dc/dcmitype/StillImage"/>
    <dc:title>Ivy icon theme</dc:title>
    <cc:license rdf:resource="http://creativecommons.org/licenses/by-sa/4.0/"/>
    <dc:creator>
     <cc:Agent>
      <dc:title>Sixsixfive (sixsixfive.deviantart.com)</dc:title>
     </cc:Agent>
    </dc:creator>
    <dc:publisher>
     <cc:Agent>
      <dc:title>Sixsixfive (sixsixfive.deviantart.com)</dc:title>
     </cc:Agent>
    </dc:publisher>
    <dc:source>https://github.com/sixsixfive</dc:source>
    <dc:subject>
     <rdf:Bag>
      <rdf:li>ivy</rdf:li>
     </rdf:Bag>
    </dc:subject>
    <dc:contributor>
     <cc:Agent>
      <dc:title>ssf</dc:title>
     </cc:Agent>
    </dc:contributor>
    <dc:rights>
     <cc:Agent>
      <dc:title>Sixsixfive (sixisixfive.deviantart.com)</dc:title>
     </cc:Agent>
    </dc:rights>
    <dc:description>A simple icon theme published under CC-BY-SA_V4(http://creativecommons.org/licenses/by-sa/4.0)</dc:description>
    <dc:identifier>SSF</dc:identifier>
   </cc:Work>
  </rdf:RDF>
 </metadata>
 <!--Part of the Ivy icon them published under the CC-BY-SA_V4: http://creativecommons.org/licenses/by-sa/4.0 -->
</svg>
