<?xml version="1.0" encoding="UTF-8" standalone="no"?><svg xmlns:cc="http://creativecommons.org/ns#" xmlns:rdf="http://www.w3.org/1999/02/22-rdf-syntax-ns#" xmlns:svg="http://www.w3.org/2000/svg" id="svg2" viewBox="0 0 16 16" version="1.1" xmlns="http://www.w3.org/2000/svg" xmlns:dc="http://purl.org/dc/elements/1.1/"><defs id="defs4"><linearGradient id="0" x2="0" y2="2" gradientTransform="matrix(0.37195 0 0 0.38089 -16.227 -16.762)" y1="44.01" gradientUnits="userSpaceOnUse"><stop id="stop7" stop-color="#dedede"/><stop offset="1" id="stop9" stop-color="#f4f4f4"/></linearGradient><linearGradient id="1" x2="0" y2="1.99" gradientTransform="matrix(-0.37195 0 0 -0.38089 16.235 16.758)" y1="43.997" gradientUnits="userSpaceOnUse"><stop id="stop12" stop-color="#fff"/><stop offset="1" id="stop14" stop-color="#fff" stop-opacity="0"/></linearGradient><linearGradient id="0-8" x2="0" y2="15" gradientTransform="matrix(0.64349949 0 0 0.64349949 5.4984584 4.8566507)" y1="1" gradientUnits="userSpaceOnUse"><stop id="stop7-9" stop-color="#66b03e"/><stop offset="1" id="stop9-0" stop-color="#95ce76"/></linearGradient></defs><rect rx="0.46" ry="0.46" height="15.997" id="rect16" width="13" transform="matrix(-1 0 0 -1 0 0)" x="-14" y="-16" fill="url(#0)"/><g id="g18" fill="none"><path id="path20" opacity="0.4" d="m 13.4749,0.5322 -11.9375,0 0,14.9375 11.9375,0 0,-14.9375 z" stroke="#000"/><path id="path22" opacity="0.81" d="m 12.5062,1.5322 -10,0 0,12.9375 10,0 0,-12.9375 z" stroke="url(#1)"/></g><g id="g4336" transform="matrix(1 0 0 1 0.17060642 0.9599178)"><path id="path16" d="m 8.8701182,4.9080382 -0.040725,3.0318602 -3,0 0,3.9999996 3,0 0,3 4.0000008,0 0,-3 3,0 0,-3.9999996 -3,0 0,-3 z" fill="url(#0-8)"/><path id="path4892" opacity="0.45" d="M 9.3339844,4.4804688 9.2988281,7.046875 a 0.46943995,0.46943995 0 0 1 -0.46875,0.4628906 l -2.53125,0 0,3.0625004 2.53125,0 a 0.46943995,0.46943995 0 0 1 0.46875,0.46875 l 0,2.53125 3.0624999,0 0,-2.53125 a 0.46943995,0.46943995 0 0 1 0.46875,-0.46875 l 2.53125,0 0,-3.0625004 -2.53125,0 a 0.46943995,0.46943995 0 0 1 -0.46875,-0.46875 l 0,-2.5351562 -3.0273436,-0.025391 z" stroke="#000" transform="matrix(1 0 0 1 0 0.8998162)" fill="none"/><path stroke-linecap="square" id="rect4894" opacity="0.4" stroke-width="0.997" d="m 9.8293934,6.0400801 1.9999996,0 0,1 -1.9999996,0 z" stroke-linejoin="bevel" fill="#fff"/><path stroke-linecap="square" id="rect4896" opacity="0.4" stroke-width="0.997" d="m 6.8293929,9.0400801 2,0 0,0.9999999 -2,0 z" stroke-linejoin="bevel" fill="#fff"/><path stroke-linecap="square" id="rect4898" opacity="0.4" stroke-width="0.997" d="m 12.829393,9.0400801 2,0 0,0.9999999 -2,0 z" stroke-linejoin="bevel" fill="#fff"/><path stroke-linecap="square" id="rect4900" opacity="0.1" stroke-width="0.997" d="m 12.829393,12.04008 3,0 0,1 -3,0 z" stroke-linejoin="bevel"/><path stroke-linecap="square" id="rect4902" opacity="0.1" stroke-width="0.997" d="m 5.8293929,12.04008 3,0 0,1 -3,0 z" stroke-linejoin="bevel"/></g><metadata id="metadata9999"><rdf:RDF><cc:Work><dc:format>image/svg+xml</dc:format><dc:type rdf:resource="http://purl.org/dc/dcmitype/StillImage"/><dc:title>Ivy icon theme</dc:title><cc:license rdf:resource="http://creativecommons.org/licenses/by-sa/4.0/"/><dc:creator><cc:Agent><dc:title>Sixsixfive (sixsixfive.deviantart.com)</dc:title></cc:Agent></dc:creator><dc:publisher><cc:Agent><dc:title>Sixsixfive (sixsixfive.deviantart.com)</dc:title></cc:Agent></dc:publisher><dc:source>https://github.com/sixsixfive</dc:source><dc:subject><rdf:Bag><rdf:li>ivy</rdf:li></rdf:Bag></dc:subject><dc:contributor><cc:Agent><dc:title>ssf</dc:title></cc:Agent></dc:contributor><dc:rights><cc:Agent><dc:title>Sixsixfive (sixisixfive.deviantart.com)</dc:title></cc:Agent></dc:rights><dc:description>A simple icon theme published under CC-BY-SA_V4(http://creativecommons.org/licenses/by-sa/4.0)</dc:description><dc:identifier>SSF</dc:identifier></cc:Work></rdf:RDF></metadata><!--Part of the Ivy icon them published under the CC-BY-SA_V4: http://creativecommons.org/licenses/by-sa/4.0 -->
</svg>