<?xml version="1.0" encoding="UTF-8" standalone="no"?><svg xmlns:rdf="http://www.w3.org/1999/02/22-rdf-syntax-ns#" xmlns:cc="http://creativecommons.org/ns#" xmlns:svg="http://www.w3.org/2000/svg" id="svg2" viewBox="0 0 16 16" version="1.1" xmlns:dc="http://purl.org/dc/elements/1.1/" xmlns="http://www.w3.org/2000/svg"><defs id="defs4"><linearGradient id="0" x2="0" y2="0" y1="11.998" gradientUnits="userSpaceOnUse"><stop id="stop7" stop-color="#d3d7cf"/><stop offset="1" id="stop9" stop-color="#eeeeec"/></linearGradient><linearGradient id="1" x2="0" y2="11" y1="1" gradientUnits="userSpaceOnUse"><stop id="stop12" stop-color="#fff"/><stop offset="1" id="stop14" stop-color="#fff" stop-opacity="0"/></linearGradient><linearGradient id="2" x2="0" y2="15" y1="11" gradientUnits="userSpaceOnUse"><stop id="stop17" stop-color="#6a6a6a"/><stop offset="1" id="stop19" stop-color="#ebebeb"/></linearGradient></defs><path id="path21" opacity="0.965" d="m 5 10 v 3 h -2 v 2 h 10 v -2 h -2 v -3 h -6 z" fill="url(#2)"/><path id="path23" opacity="0.3" d="m 5.4688 10.4688 v 2.5312 A 0.468305 0.468305 0 0 1 5.00005 13.46875 H 3.4688 v 1.0625 h 9.0625 v -1.0625 H 11.00005 A 0.468305 0.468305 0 0 1 10.5313 13 V 10.46875 H 5.4688 z" stroke="#000" fill="none"/><rect rx="0.8" ry="0.8" height="12" id="rect25" width="16" fill="url(#0)"/><path id="path27" opacity="0.3" d="M 7,5 H9 V8 H7 z"/><path id="path29" d="M 2,2 H14 V9 H2 z" fill="#d02604"/><path id="path31" opacity="0.3" d="M 6,5 H7 V6 H6 z"/><path id="path33" opacity="0.5" d="M 0.8125 0.5 C 0.652273 0.5 0.5 0.652273 0.5 0.8125 v 10.375 C 0.5 11.347727 0.652273 11.5 0.8125 11.5 h 14.375 C 15.347727 11.5 15.5 11.347727 15.5 11.1875 V 0.8125 C 15.5 0.652273 15.347727 0.5 15.1875 0.5 H 0.8125 z" stroke="#000" fill="none"/><path id="path35" opacity="0.3" d="M 9,5 H10 V6 H9 z"/><path id="path37" opacity="0.62" d="m 1.5 1.5 v 9 h 13 v -9 h -13 z" stroke="url(#1)" fill="none"/><path id="path39" opacity="0.3" d="M 7,4 H9 V5 H7 z"/><path id="path41" opacity="0.965" d="M 2,9 H14 V10 H2 z" fill="#fff"/><g id="g43" fill="#ebebeb"><path id="path45" d="M 7,6 9,6 9,9 7,9 Z"/><path id="path47" d="M 6,6 7,6 7,7 6,7 Z"/><path id="path49" d="m 9,6 1,0 0,1 -1,0 z"/><path id="path51" d="M 7,5 9,5 9,6 7,6 Z"/></g><path id="path53" opacity="0.385" d="m 2.5 2.5 v 6 h 11 v -6 h -11 z" stroke="#000" fill="none"/><metadata id="metadata9999"><rdf:RDF><cc:Work><dc:format>image/svg+xml</dc:format><dc:type rdf:resource="http://purl.org/dc/dcmitype/StillImage"/><dc:title>Ivy icon theme</dc:title><cc:license rdf:resource="http://creativecommons.org/licenses/by-sa/4.0/"/><dc:creator><cc:Agent><dc:title>Sixsixfive (sixsixfive.deviantart.com)</dc:title></cc:Agent></dc:creator><dc:publisher><cc:Agent><dc:title>Sixsixfive (sixsixfive.deviantart.com)</dc:title></cc:Agent></dc:publisher><dc:source>https://github.com/sixsixfive</dc:source><dc:subject><rdf:Bag><rdf:li>ivy</rdf:li></rdf:Bag></dc:subject><dc:contributor><cc:Agent><dc:title>ssf</dc:title></cc:Agent></dc:contributor><dc:rights><cc:Agent><dc:title>Sixsixfive (sixisixfive.deviantart.com)</dc:title></cc:Agent></dc:rights><dc:description>A simple icon theme published under CC-BY-SA_V4(http://creativecommons.org/licenses/by-sa/4.0)</dc:description><dc:identifier>SSF</dc:identifier></cc:Work></rdf:RDF></metadata><!--Part of the Ivy icon them published under the CC-BY-SA_V4: http://creativecommons.org/licenses/by-sa/4.0 -->
</svg>