<?xml version="1.0" encoding="UTF-8" standalone="no"?><svg xmlns:cc="http://creativecommons.org/ns#" xmlns:rdf="http://www.w3.org/1999/02/22-rdf-syntax-ns#" xmlns:svg="http://www.w3.org/2000/svg" id="svg2" viewBox="0 0 16 16" version="1.1" xmlns:dc="http://purl.org/dc/elements/1.1/" xmlns="http://www.w3.org/2000/svg"><defs id="defs4"/><path id="path46" d="M 6,12 H10 V16 H6 z" fill="#6a6a6a"/><g id="g4" fill="#6a6a6a"><path id="path6" d="M 0,0 4,0 4,4 0,4 Z"/><path id="path8" d="m 6,0 4,0 0,4 -4,0 z"/><path id="path10" d="m 12,0 4,0 0,4 -4,0 z"/><path id="path12" d="m 0,6 4,0 0,4 -4,0 z"/><path id="path14" d="m 6,6 4,0 0,4 -4,0 z"/><path id="path16" d="m 12,6 4,0 0,4 -4,0 z"/><path id="path18" d="m 0,12 4,0 0,4 -4,0 z"/></g><path id="path20" d="m 6 12 h 4 v 4 H 6 z" fill="#6a6a6a"/><path id="path22" d="m 12 12 h 4 v 4 h -4 z" fill="#6a6a6a"/><path id="path24" opacity="0.5" d="m 0.5 0.5 v 3 h 3 v -3 h -3 z m 6 0 v 3 h 3 v -3 h -3 z m 6 0 v 3 h 3 v -3 h -3 z m -12 6 v 3 h 3 v -3 h -3 z m 6 0 v 3 h 3 v -3 h -3 z m 6 0 v 3 h 3 v -3 h -3 z m -12 6 v 3 h 3 v -3 h -3 z m 6 0 v 3 h 3 v -3 h -3 z m 6 0 v 3 h 3 v -3 h -3 z" stroke="#000" fill="none"/><rect height="5" id="rect4415" width="5" y="11" stroke-linejoin="round" fill="#ff8b36"/><g id="g26" fill="#fff"><path id="path28" opacity="0.3" d="m 7,13 2,0 0,1 -2,0 z"/><path id="path30" opacity="0.3" d="m 1,13 2,0 0,1 -2,0 z"/><path id="path32" opacity="0.3" d="M 1,7 3,7 3,8 1,8 Z"/><path id="path34" opacity="0.3" d="M 1,1 3,1 3,2 1,2 Z"/><path id="path36" opacity="0.3" d="M 7,1 9,1 9,2 7,2 Z"/><path id="path38" opacity="0.3" d="M 7,7 9,7 9,8 7,8 Z"/><path id="path40" opacity="0.3" d="m 13,7 2,0 0,1 -2,0 z"/><path id="path42" opacity="0.3" d="m 13,1 2,0 0,1 -2,0 z"/><path id="path44" opacity="0.3" d="m 13,13 2,0 0,1 -2,0 z"/></g><rect height="1" id="rect4305" opacity="0.3" width="1" transform="matrix(-1 0 0 1 0 0)" x="-4" y="13" stroke-linejoin="round" fill="#fff"/><g id="g4425" transform="matrix(1 0 0 1 0 11)"><path id="rect4417" d="M 0,0 1,0 1,5 0,5 Z" stroke-linejoin="round" fill="#994100"/><path id="rect4419" d="M 1,0 5,0 5,1 1,1 Z" stroke-linejoin="round" fill="#994100"/><path id="rect4421" d="M 4,1 5,1 5,5 4,5 Z" stroke-linejoin="round" fill="#994100"/><path id="rect4423" d="M 1,4 4,4 4,5 1,5 Z" stroke-linejoin="round" fill="#994100"/></g><metadata id="metadata9999"><rdf:RDF><cc:Work><dc:format>image/svg+xml</dc:format><dc:type rdf:resource="http://purl.org/dc/dcmitype/StillImage"/><dc:title>Ivy icon theme</dc:title><cc:license rdf:resource="http://creativecommons.org/licenses/by-sa/4.0/"/><dc:creator><cc:Agent><dc:title>Sixsixfive (sixsixfive.deviantart.com)</dc:title></cc:Agent></dc:creator><dc:publisher><cc:Agent><dc:title>Sixsixfive (sixsixfive.deviantart.com)</dc:title></cc:Agent></dc:publisher><dc:source>https://github.com/sixsixfive</dc:source><dc:subject><rdf:Bag><rdf:li>ivy</rdf:li></rdf:Bag></dc:subject><dc:contributor><cc:Agent><dc:title>ssf</dc:title></cc:Agent></dc:contributor><dc:rights><cc:Agent><dc:title>Sixsixfive (sixisixfive.deviantart.com)</dc:title></cc:Agent></dc:rights><dc:description>A simple icon theme published under CC-BY-SA_V4(http://creativecommons.org/licenses/by-sa/4.0)</dc:description><dc:identifier>SSF</dc:identifier></cc:Work></rdf:RDF></metadata><!--Part of the Ivy icon them published under the CC-BY-SA_V4: http://creativecommons.org/licenses/by-sa/4.0 -->
</svg>