<?xml version="1.0" encoding="UTF-8" standalone="no"?>
<svg xmlns:dc="http://purl.org/dc/elements/1.1/" xmlns:cc="http://creativecommons.org/ns#" xmlns:rdf="http://www.w3.org/1999/02/22-rdf-syntax-ns#" xmlns:svg="http://www.w3.org/2000/svg" xmlns="http://www.w3.org/2000/svg" version="1.1" viewBox="0 0 16 16" id="svg2">
 <defs id="defs4">
  <linearGradient gradientTransform="matrix(0.37195 0 0 0.38089 -16.227 -16.762)" gradientUnits="userSpaceOnUse" x2="0" y2="2" y1="44.01" id="0">
   <stop id="stop7" stop-color="#dedede"/>
   <stop id="stop9" stop-color="#f4f4f4" offset="1"/>
  </linearGradient>
  <linearGradient gradientTransform="matrix(-0.37195 0 0 -0.38089 16.235 16.758)" gradientUnits="userSpaceOnUse" x2="0" y2="1.99" y1="43.997" id="1">
   <stop id="stop12" stop-color="#fff"/>
   <stop id="stop14" stop-opacity="0" stop-color="#fff" offset="1"/>
  </linearGradient>
  <linearGradient gradientTransform="matrix(0.64349949,0,0,0.64349949,5.4984584,4.8566507)" id="0-8" y1="1" y2="15" x2="0" gradientUnits="userSpaceOnUse">
   <stop stop-color="#66b03e" id="stop7-9"/>
   <stop offset="1" stop-color="#95ce76" id="stop9-0"/>
  </linearGradient>
 </defs>
 <rect id="rect16" transform="matrix(-1 0 0 -1 0 0)" height="15.997" rx="0.46" fill="url(#0)" y="-16" x="-14" width="13" ry="0.46"/>
 <g id="g18" fill="none">
  <path id="path20" d="m 13.4749,0.5322 -11.9375,0 0,14.9375 11.9375,0 0,-14.9375 z" opacity="0.4" stroke="#000"/>
  <path id="path22" d="m 12.5062,1.5322 -10,0 0,12.9375 10,0 0,-12.9375 z" opacity="0.81" stroke="url(#1)"/>
 </g>
 <g transform="translate(0.17060642,0.9599178)" id="g4336">
  <path id="path16" d="m 8.8701182,4.9080382 -0.040725,3.0318602 -3,0 0,3.9999996 3,0 0,3 4.0000008,0 0,-3 3,0 0,-3.9999996 -3,0 0,-3 z" fill="url(#0-8)"/>
  <path transform="translate(0,0.8998162)" d="M 9.3339844,4.4804688 9.2988281,7.046875 a 0.46943995,0.46943995 0 0 1 -0.46875,0.4628906 l -2.53125,0 0,3.0625004 2.53125,0 a 0.46943995,0.46943995 0 0 1 0.46875,0.46875 l 0,2.53125 3.0624999,0 0,-2.53125 a 0.46943995,0.46943995 0 0 1 0.46875,-0.46875 l 2.53125,0 0,-3.0625004 -2.53125,0 a 0.46943995,0.46943995 0 0 1 -0.46875,-0.46875 l 0,-2.5351562 -3.0273436,-0.025391 z" id="path4892" opacity="0.45" fill="none" stroke="#000"/>
  <path d="m 9.8293934,6.0400801 1.9999996,0 0,1 -1.9999996,0 z" id="rect4894" opacity="0.4" fill="#fff" stroke-linejoin="bevel" stroke-linecap="square" stroke-width="0.997"/>
  <path d="m 6.8293929,9.0400801 2,0 0,0.9999999 -2,0 z" id="rect4896" opacity="0.4" fill="#fff" stroke-linejoin="bevel" stroke-linecap="square" stroke-width="0.997"/>
  <path d="m 12.829393,9.0400801 2,0 0,0.9999999 -2,0 z" id="rect4898" opacity="0.4" fill="#fff" stroke-linejoin="bevel" stroke-linecap="square" stroke-width="0.997"/>
  <path d="m 12.829393,12.04008 3,0 0,1 -3,0 z" id="rect4900" opacity="0.1" stroke-linejoin="bevel" stroke-linecap="square" stroke-width="0.997"/>
  <path d="m 5.8293929,12.04008 3,0 0,1 -3,0 z" id="rect4902" opacity="0.1" stroke-linejoin="bevel" stroke-linecap="square" stroke-width="0.997"/>
 </g>
 <metadata id="metadata9999">
  <rdf:RDF>
   <cc:Work>
    <dc:format>image/svg+xml</dc:format>
    <dc:type rdf:resource="http://purl.org/dc/dcmitype/StillImage"/>
    <dc:title>Ivy icon theme</dc:title>
    <cc:license rdf:resource="http://creativecommons.org/licenses/by-sa/4.0/"/>
    <dc:creator>
     <cc:Agent>
      <dc:title>Sixsixfive (sixsixfive.deviantart.com)</dc:title>
     </cc:Agent>
    </dc:creator>
    <dc:publisher>
     <cc:Agent>
      <dc:title>Sixsixfive (sixsixfive.deviantart.com)</dc:title>
     </cc:Agent>
    </dc:publisher>
    <dc:source>https://github.com/sixsixfive</dc:source>
    <dc:subject>
     <rdf:Bag>
      <rdf:li>ivy</rdf:li>
     </rdf:Bag>
    </dc:subject>
    <dc:contributor>
     <cc:Agent>
      <dc:title>ssf</dc:title>
     </cc:Agent>
    </dc:contributor>
    <dc:rights>
     <cc:Agent>
      <dc:title>Sixsixfive (sixisixfive.deviantart.com)</dc:title>
     </cc:Agent>
    </dc:rights>
    <dc:description>A simple icon theme published under CC-BY-SA_V4(http://creativecommons.org/licenses/by-sa/4.0)</dc:description>
    <dc:identifier>SSF</dc:identifier>
   </cc:Work>
  </rdf:RDF>
 </metadata>
 <!--Part of the Ivy icon them published under the CC-BY-SA_V4: http://creativecommons.org/licenses/by-sa/4.0 -->
</svg>
