<?xml version="1.0" encoding="UTF-8" standalone="no"?><svg xmlns:rdf="http://www.w3.org/1999/02/22-rdf-syntax-ns#" xmlns:cc="http://creativecommons.org/ns#" xmlns:svg="http://www.w3.org/2000/svg" id="svg2" viewBox="0 0 16 16" version="1.1" xmlns:xlink="http://www.w3.org/1999/xlink" xmlns:dc="http://purl.org/dc/elements/1.1/" xmlns="http://www.w3.org/2000/svg"><defs id="0"><linearGradient id="linearGradient4153"><stop id="stop4155" stop-opacity="0.54"/><stop offset="1" id="stop4157" stop-opacity="0"/></linearGradient><linearGradient id="F" x2="0" y2="44.908" gradientTransform="matrix(0.29999998 0 0 0.39473686 0.2093 -2.726843)" y1="6.908" gradientUnits="userSpaceOnUse"><stop id="G" stop-color="#ddd"/><stop offset="1" id="H" stop-color="#fff"/></linearGradient><linearGradient id="linearGradient4159" x2="14" y2="13.669" xlink:href="#linearGradient4153" x1="13.864" y1="0.246" gradientUnits="userSpaceOnUse"/></defs><path id="2" d="M 2,0 H 14 V 15 H 2 z" fill="url(#F)"/><path id="path4163" opacity="0.565" d="m 4,7.9491525 2,0 0,2 -2,0 z" fill-rule="evenodd" fill="#fff"/><path id="3" d="m 2,11 h 12 v 4 H 2 z" fill-rule="evenodd" fill="#5288d1"/><path id="4" opacity="0.2" d="M 3,5 H 13 V 5.9999999 H 3 z" fill-rule="evenodd"/><path id="path4165" opacity="0.565" d="m 4,2.9491525 3.9999999,0 0,2 -3.9999999,0 z" fill-rule="evenodd" fill="#fff"/><path id="5" d="m 4,12 h 2 v 2 H 4 z" fill-rule="evenodd" fill="#ebebeb"/><path id="6" opacity="0.8" d="M 4,7 H 6 V 9 H 4 z" fill-rule="evenodd" fill="#6a6a6a"/><path id="path4167" opacity="0.565" d="m 8.9999999,2.9491525 3.0000001,0 0,2 -3.0000001,0 z" fill-rule="evenodd" fill="#fff"/><path id="7" opacity="0.8" d="M 4,2 H 7.9999999 V 4 H 4 z" fill-rule="evenodd" fill="#6a6a6a"/><path id="path4169" opacity="0.565" d="m 7,7.9491525 5,0 0,2 -5,0 z" fill-rule="evenodd" fill="#fff"/><path id="8" opacity="0.8" d="M 8.9999999,2 H 12 V 4 H 8.9999999 z" fill-rule="evenodd" fill="#6a6a6a"/><path id="9" opacity="0.8" d="m 7,7 h 5 V 9 H 7 z" fill-rule="evenodd" fill="#6a6a6a"/><path id="A" d="m 7,12 h 1 v 2 H 7 z" fill-rule="evenodd" fill="#ebebeb"/><path id="B" d="m 9,12 h 3 v 2 H 9 z" fill-rule="evenodd" fill="#ebebeb"/><path id="C" opacity="0.4" d="m 2.5,0.5 0,14 11,0 0,-14 -11,0 z" stroke="#000" fill="none"/><rect height="1" id="D" opacity="0.4" width="10" x="3" y="11" fill="#fff"/><rect height="1" id="E" opacity="0.32" width="10" x="3" y="10"/><path id="path3351" opacity="0.4" d="m 2.5,0.5 0,14 11,0 0,-14 -11,0 z" stroke="url(#linearGradient4159)" fill="none"/><metadata id="metadata9999"><rdf:RDF><cc:Work><dc:format>image/svg+xml</dc:format><dc:type rdf:resource="http://purl.org/dc/dcmitype/StillImage"/><dc:title>Ivy icon theme</dc:title><cc:license rdf:resource="http://creativecommons.org/licenses/by-sa/4.0/"/><dc:creator><cc:Agent><dc:title>Sixsixfive (sixsixfive.deviantart.com)</dc:title></cc:Agent></dc:creator><dc:publisher><cc:Agent><dc:title>Sixsixfive (sixsixfive.deviantart.com)</dc:title></cc:Agent></dc:publisher><dc:source>https://github.com/sixsixfive</dc:source><dc:subject><rdf:Bag><rdf:li>ivy</rdf:li></rdf:Bag></dc:subject><dc:contributor><cc:Agent><dc:title>ssf</dc:title></cc:Agent></dc:contributor><dc:rights><cc:Agent><dc:title>Sixsixfive (sixisixfive.deviantart.com)</dc:title></cc:Agent></dc:rights><dc:description>A simple icon theme published under CC-BY-SA_V4(http://creativecommons.org/licenses/by-sa/4.0)</dc:description><dc:identifier>SSF</dc:identifier></cc:Work></rdf:RDF></metadata><!--Part of the Ivy icon them published under the CC-BY-SA_V4: http://creativecommons.org/licenses/by-sa/4.0 -->
</svg>