<?xml version="1.0" encoding="UTF-8" standalone="no"?>
<svg xmlns:dc="http://purl.org/dc/elements/1.1/" xmlns:cc="http://creativecommons.org/ns#" xmlns:rdf="http://www.w3.org/1999/02/22-rdf-syntax-ns#" xmlns:svg="http://www.w3.org/2000/svg" xmlns="http://www.w3.org/2000/svg" xmlns:xlink="http://www.w3.org/1999/xlink" version="1.1" viewBox="0 0 16 16" id="svg2">
 <defs id="defs4">
  <linearGradient gradientTransform="matrix(0.4 0 0 0.39474 -1.6 -1.974)" x2="43.912" gradientUnits="userSpaceOnUse" x1="44" y2="-1.016" y1="43" id="2">
   <stop id="stop7" stop-color="#ddd"/>
   <stop id="stop9" stop-color="#fff" offset="1"/>
  </linearGradient>
  <linearGradient id="linearGradient4165">
   <stop stop-color="#eed45a" id="stop4167"/>
   <stop offset="1" stop-color="#e9c82a" id="stop4169"/>
  </linearGradient>
  <linearGradient gradientUnits="userSpaceOnUse" y2="4" x2="0" y1="16" id="linearGradient4544" xlink:href="#linearGradient4165"/>
 </defs>
 <path d="M 0 0 H 16 V 15 H 0 z" id="path13" fill="url(#2)"/>
 <rect id="rect4550" width="3" height="3" x="3" y="7" opacity="0.3" fill-rule="evenodd"/>
 <path id="path3736" d="M 9.3535534,14.353553 14.353553,9.3535534" opacity="0.2" fill="none" fill-rule="evenodd" stroke="#000"/>
 <path d="M 0 0 H 16 V 5 H 0 z" id="path15" fill="#5288d1"/>
 <rect y="11" x="3" height="3" width="3" id="rect4552" opacity="0.3" fill-rule="evenodd"/>
 <g id="g17" fill="none">
  <g id="g19" stroke-width="0.999">
   <path d="M 0.9835,4.4995 15.0037,4.5006" id="path21" opacity="0.4" stroke="#000"/>
   <path d="M 0.9877,5.4995 15.0256,5.5006" id="path23" stroke="#fff"/>
  </g>
  <path d="m 0.5,0.5 0,14 15,0 0,-14 -15,0 z" id="path25" opacity="0.3" stroke="#000"/>
 </g>
 <rect y="8" x="4" height="1" width="1" id="rect4546" fill="#fff" fill-rule="evenodd" stroke-width="1"/>
 <g id="g27" fill="#fff">
  <path d="M 1,1 15,1 15,2 1,2 Z" id="path29" opacity="0.47"/>
  <path d="M 2,2 3,2 3,3 2,3 Z" id="path31"/>
  <path d="M 4,2 5,2 5,3 4,3 Z" id="path33"/>
  <path d="M 6,2 7,2 7,3 6,3 Z" id="path35"/>
 </g>
 <path d="M 2 3 H 3 V 4 H 2 z" id="path37" opacity="0.266"/>
 <path d="M 4 3 H 5 V 4 H 4 z" id="path39" opacity="0.266"/>
 <path d="M 6 3 H 7 V 4 H 6 z" id="path41" opacity="0.266"/>
 <path d="M 1 2 H 2 V 3 H 1 z" id="path43" opacity="0.266"/>
 <path d="M 3 2 H 4 V 3 H 3 z" id="0" opacity="0.266"/>
 <path d="M 5 2 H 6 V 3 H 5 z" id="1" opacity="0.266"/>
 <path d="M 2 1 H 3 V 2 H 2 z" id="path47" opacity="0.266"/>
 <path d="M 4 1 H 5 V 2 H 4 z" id="path49" opacity="0.266"/>
 <path d="M 6 1 H 7 V 2 H 6 z" id="path51" opacity="0.266"/>
 <use xlink:href="#0" id="use53" height="16" width="16"/>
 <use xlink:href="#1" id="use55" height="16" width="16"/>
 <path d="M 7 2 H 8 V 3 H 7 z" id="path57" opacity="0.266"/>
 <path id="path3721" d="M 16 4 L 3 16 L 16 16 L 16 4 z M 13 10 L 13 13 L 10 13 L 13 10 z " fill="url(#linearGradient4544)" fill-rule="evenodd"/>
 <path d="M 15.5,5.1425781 4.2792969,15.5 15.5,15.5 15.5,5.1425781 Z M 13.007812,9.5 A 0.50083752,0.50083752 0 0 1 13.5,10 l 0,3 A 0.50083752,0.50083752 0 0 1 13,13.5 l -3,0 A 0.50083752,0.50083752 0 0 1 9.6464844,12.646484 L 12.646484,9.6464844 A 0.50083752,0.50083752 0 0 1 13.007812,9.5 Z" id="path3728" opacity="0.4" fill="none" fill-rule="evenodd" stroke="#000"/>
 <rect id="rect4554" width="1" height="1" x="4" y="12" fill="#e2e2e2" fill-rule="evenodd"/>
 <metadata id="metadata9999">
  <rdf:RDF>
   <cc:Work>
    <dc:format>image/svg+xml</dc:format>
    <dc:type rdf:resource="http://purl.org/dc/dcmitype/StillImage"/>
    <dc:title>Ivy icon theme</dc:title>
    <cc:license rdf:resource="http://creativecommons.org/licenses/by-sa/4.0/"/>
    <dc:creator>
     <cc:Agent>
      <dc:title>Sixsixfive (sixsixfive.deviantart.com)</dc:title>
     </cc:Agent>
    </dc:creator>
    <dc:publisher>
     <cc:Agent>
      <dc:title>Sixsixfive (sixsixfive.deviantart.com)</dc:title>
     </cc:Agent>
    </dc:publisher>
    <dc:source>https://github.com/sixsixfive</dc:source>
    <dc:subject>
     <rdf:Bag>
      <rdf:li>ivy</rdf:li>
     </rdf:Bag>
    </dc:subject>
    <dc:contributor>
     <cc:Agent>
      <dc:title>ssf</dc:title>
     </cc:Agent>
    </dc:contributor>
    <dc:rights>
     <cc:Agent>
      <dc:title>Sixsixfive (sixisixfive.deviantart.com)</dc:title>
     </cc:Agent>
    </dc:rights>
    <dc:description>A simple icon theme published under CC-BY-SA_V4(http://creativecommons.org/licenses/by-sa/4.0)</dc:description>
    <dc:identifier>SSF</dc:identifier>
   </cc:Work>
  </rdf:RDF>
 </metadata>
 <!--Part of the Ivy icon them published under the CC-BY-SA_V4: http://creativecommons.org/licenses/by-sa/4.0 -->
</svg>
