<?xml version="1.0" encoding="UTF-8" standalone="no"?><svg xmlns:cc="http://creativecommons.org/ns#" xmlns:dc="http://purl.org/dc/elements/1.1/" xmlns:svg="http://www.w3.org/2000/svg" xmlns="http://www.w3.org/2000/svg" xmlns:rdf="http://www.w3.org/1999/02/22-rdf-syntax-ns#" id="svg2" version="1.1" xmlns:xlink="http://www.w3.org/1999/xlink" viewBox="0 0 16 16"><defs id="defs4"><linearGradient gradientTransform="matrix(0.4 0 0 0.39474 -1.6 -1.974)" gradientUnits="userSpaceOnUse" y1="43" id="2" x1="44" y2="-1.016" x2="43.912"><stop id="stop7" stop-color="#ddd"/><stop id="stop9" stop-color="#fff" offset="1"/></linearGradient><linearGradient id="linearGradient4165"><stop id="stop4167" stop-color="#eed45a"/><stop id="stop4169" stop-color="#e9c82a" offset="1"/></linearGradient><linearGradient gradientUnits="userSpaceOnUse" xlink:href="#linearGradient4165" y1="16" id="linearGradient4544" y2="4" x2="0"/></defs><path d="M 0 0 H 16 V 15 H 0 z" id="path13" fill="url(#2)"/><rect width="3" height="3" opacity="0.3" id="rect4550" fill-rule="evenodd" y="7" x="3"/><path stroke="#000" opacity="0.2" d="M 9.3535534,14.353553 14.353553,9.3535534" id="path3736" fill-rule="evenodd" fill="none"/><path d="M 0 0 H 16 V 5 H 0 z" id="path15" fill="#5288d1"/><rect width="3" height="3" opacity="0.3" id="rect4552" fill-rule="evenodd" y="11" x="3"/><g id="g17" fill="none"><g stroke-width="0.999" id="g19"><path stroke="#000" opacity="0.4" d="M 0.9835,4.4995 15.0037,4.5006" id="path21"/><path stroke="#fff" d="M 0.9877,5.4995 15.0256,5.5006" id="path23"/></g><path stroke="#000" opacity="0.3" d="m 0.5,0.5 0,14 15,0 0,-14 -15,0 z" id="path25"/></g><rect width="1" height="1" stroke-width="1" id="rect4546" fill-rule="evenodd" y="8" x="4" fill="#fff"/><g id="g27" fill="#fff"><path opacity="0.47" d="M 1,1 15,1 15,2 1,2 Z" id="path29"/><path d="M 2,2 3,2 3,3 2,3 Z" id="path31"/><path d="M 4,2 5,2 5,3 4,3 Z" id="path33"/><path d="M 6,2 7,2 7,3 6,3 Z" id="path35"/></g><path opacity="0.266" d="M 2 3 H 3 V 4 H 2 z" id="path37"/><path opacity="0.266" d="M 4 3 H 5 V 4 H 4 z" id="path39"/><path opacity="0.266" d="M 6 3 H 7 V 4 H 6 z" id="path41"/><path opacity="0.266" d="M 1 2 H 2 V 3 H 1 z" id="path43"/><path opacity="0.266" d="M 3 2 H 4 V 3 H 3 z" id="0"/><path opacity="0.266" d="M 5 2 H 6 V 3 H 5 z" id="1"/><path opacity="0.266" d="M 2 1 H 3 V 2 H 2 z" id="path47"/><path opacity="0.266" d="M 4 1 H 5 V 2 H 4 z" id="path49"/><path opacity="0.266" d="M 6 1 H 7 V 2 H 6 z" id="path51"/><use width="16" height="16" xlink:href="#0" id="use53"/><use width="16" height="16" xlink:href="#1" id="use55"/><path opacity="0.266" d="M 7 2 H 8 V 3 H 7 z" id="path57"/><path d="M 16 4 L 3 16 L 16 16 L 16 4 z M 13 10 L 13 13 L 10 13 L 13 10 z " id="path3721" fill-rule="evenodd" fill="url(#linearGradient4544)"/><path stroke="#000" opacity="0.4" d="M 15.5,5.1425781 4.2792969,15.5 15.5,15.5 15.5,5.1425781 Z M 13.007812,9.5 A 0.50083752,0.50083752 0 0 1 13.5,10 l 0,3 A 0.50083752,0.50083752 0 0 1 13,13.5 l -3,0 A 0.50083752,0.50083752 0 0 1 9.6464844,12.646484 L 12.646484,9.6464844 A 0.50083752,0.50083752 0 0 1 13.007812,9.5 Z" id="path3728" fill-rule="evenodd" fill="none"/><rect width="1" height="1" id="rect4554" fill-rule="evenodd" y="12" x="4" fill="#e2e2e2"/><metadata id="metadata9999"><rdf:RDF><cc:Work><dc:format>image/svg+xml</dc:format><dc:type rdf:resource="http://purl.org/dc/dcmitype/StillImage"/><dc:title>Ivy icon theme</dc:title><cc:license rdf:resource="http://creativecommons.org/licenses/by-sa/4.0/"/><dc:creator><cc:Agent><dc:title>Sixsixfive (sixsixfive.deviantart.com)</dc:title></cc:Agent></dc:creator><dc:publisher><cc:Agent><dc:title>Sixsixfive (sixsixfive.deviantart.com)</dc:title></cc:Agent></dc:publisher><dc:source>https://github.com/sixsixfive</dc:source><dc:subject><rdf:Bag><rdf:li>ivy</rdf:li></rdf:Bag></dc:subject><dc:contributor><cc:Agent><dc:title>ssf</dc:title></cc:Agent></dc:contributor><dc:rights><cc:Agent><dc:title>Sixsixfive (sixisixfive.deviantart.com)</dc:title></cc:Agent></dc:rights><dc:description>A simple icon theme published under CC-BY-SA_V4(http://creativecommons.org/licenses/by-sa/4.0)</dc:description><dc:identifier>SSF</dc:identifier></cc:Work></rdf:RDF></metadata><!--Part of the Ivy icon them published under the CC-BY-SA_V4: http://creativecommons.org/licenses/by-sa/4.0 -->
</svg>