<?xml version="1.0" encoding="UTF-8" standalone="no"?>
<svg xmlns:dc="http://purl.org/dc/elements/1.1/" xmlns:cc="http://creativecommons.org/ns#" xmlns:rdf="http://www.w3.org/1999/02/22-rdf-syntax-ns#" xmlns:svg="http://www.w3.org/2000/svg" xmlns="http://www.w3.org/2000/svg" xmlns:xlink="http://www.w3.org/1999/xlink" viewBox="0 0 16 16" id="svg2" version="1.1">
 <defs id="0">
  <linearGradient id="R">
   <stop stop-color="#c9c9c9" id="T"/>
   <stop offset="1" stop-color="#ebebeb" id="U"/>
  </linearGradient>
  <linearGradient xlink:href="#R" id="linearGradient3366" y1="10" y2="24" gradientUnits="userSpaceOnUse" x2="0" gradientTransform="matrix(0.50000002 0 0 0.5714285 -8.5 2.285715)"/>
  <linearGradient xlink:href="#R" id="linearGradient3378" y1="10" y2="24" gradientUnits="userSpaceOnUse" x2="0" gradientTransform="matrix(0.50000002 0 0 0.5714285 0.5 2.285715)"/>
  <linearGradient xlink:href="#R" id="linearGradient3392" y1="10" y2="24" gradientUnits="userSpaceOnUse" x2="0" gradientTransform="matrix(0.50000002 0 0 0.49999994 -3.5 -4.999999)"/>
 </defs>
 <path fill="url(#linearGradient3366)" id="9" d="m 0,8 7,0 0,8 -7,0 z"/>
 <path opacity="0.7" id="A" d="m 2,10 1,0 0,4 -1,0 z"/>
 <path opacity="0.7" id="B" d="m 3,12 1,0 0,1 -1,0 z"/>
 <path opacity="0.7" id="C" d="m 4,10 1,0 0,4 -1,0 z"/>
 <path opacity="0.7" id="D" d="m 3,11 1,0 0,-1 -1,0 z"/>
 <path fill="url(#linearGradient3378)" id="path3368" d="m 9,8 7,0 0,8 -7,0 z"/>
 <path opacity="0.7" id="path3370" d="m 12,12 -1,0 0,-1 1,0 z"/>
 <path opacity="0.7" id="path3372" d="m 11,13 2,0 0,1 -2,0 z"/>
 <path opacity="0.7" id="path3374" d="m 13,12 1,0 0,1 -1,0 z"/>
 <path opacity="0.7" id="path3376" d="m 12,11 2,0 0,-1 -2,0 z"/>
 <path opacity="0.3" id="path3380" d="m 12,11 1,0 0,2 -1,0 z"/>
 <path fill="url(#linearGradient3392)" id="path3382" d="m 5,0 7,0 0,7 -7,0 z"/>
 <path opacity="0.7" id="path3384" d="M 7,2 8,2 8,5 7,5 Z"/>
 <path opacity="0.7" id="path3388" d="m 9,2 1,0 0,3 -1,0 z"/>
 <path opacity="0.7" id="path3390" d="M 8,5 9,5 9,4 8,4 Z"/>
 <path opacity="0.3" id="path3394" d="M 8,3 9,3 9,4 8,4 Z"/>
 <path opacity="0.4" fill="none" stroke="#000" id="path3398" d="m 5.515625,0.515625 0,5.96875 5.96875,0 0,-5.96875 -5.96875,0 z"/>
 <rect width="5" opacity="0.4" x="1" y="9" fill="#fff" height="1" stroke-linejoin="round" stroke-linecap="round" id="rect3404"/>
 <rect width="5" opacity="0.4" x="10" y="9" fill="#fff" height="1" stroke-linejoin="round" stroke-linecap="round" id="rect3406"/>
 <rect width="5" opacity="0.4" x="6" y="1" fill="#fff" height="1" stroke-linejoin="round" stroke-linecap="round" id="rect3408"/>
 <path opacity="0.4" fill="none" stroke="#000" id="path4176" d="m 0.49609375,8.4960938 0,7.0078122 6.00781245,0 0,-7.0078122 -6.00781245,0 z"/>
 <path opacity="0.4" fill="none" stroke="#000" id="path4178" d="m 0.49609375,8.4960938 0,7.0078122 6.00781245,0 0,-7.0078122 -6.00781245,0 z" transform="matrix(1 0 0 1 9.00391 0.003906)"/>
 <metadata id="metadata9999">
  <rdf:RDF>
   <cc:Work>
    <dc:format>image/svg+xml</dc:format>
    <dc:type rdf:resource="http://purl.org/dc/dcmitype/StillImage"/>
    <dc:title>Ivy icon theme</dc:title>
    <cc:license rdf:resource="http://creativecommons.org/licenses/by-sa/4.0/"/>
    <dc:creator>
     <cc:Agent>
      <dc:title>Sixsixfive (sixsixfive.deviantart.com)</dc:title>
     </cc:Agent>
    </dc:creator>
    <dc:publisher>
     <cc:Agent>
      <dc:title>Sixsixfive (sixsixfive.deviantart.com)</dc:title>
     </cc:Agent>
    </dc:publisher>
    <dc:source>https://github.com/sixsixfive</dc:source>
    <dc:subject>
     <rdf:Bag>
      <rdf:li>ivy</rdf:li>
     </rdf:Bag>
    </dc:subject>
    <dc:contributor>
     <cc:Agent>
      <dc:title>ssf</dc:title>
     </cc:Agent>
    </dc:contributor>
    <dc:rights>
     <cc:Agent>
      <dc:title>Sixsixfive (sixisixfive.deviantart.com)</dc:title>
     </cc:Agent>
    </dc:rights>
    <dc:description>A simple icon theme published under CC-BY-SA_V4(http://creativecommons.org/licenses/by-sa/4.0)</dc:description>
    <dc:identifier>SSF</dc:identifier>
   </cc:Work>
  </rdf:RDF>
 </metadata>
 <!--Part of the Ivy icon them published under the CC-BY-SA_V4: http://creativecommons.org/licenses/by-sa/4.0 -->
</svg>
