<?xml version="1.0" encoding="UTF-8" standalone="no"?>
<svg xmlns:dc="http://purl.org/dc/elements/1.1/" xmlns:cc="http://creativecommons.org/ns#" xmlns:rdf="http://www.w3.org/1999/02/22-rdf-syntax-ns#" xmlns:svg="http://www.w3.org/2000/svg" xmlns="http://www.w3.org/2000/svg" viewBox="0 0 16 16" id="svg2" version="1.1">
 <defs id="defs4">
  <linearGradient id="0" y1="21" y2="42" x2="0" gradientUnits="userSpaceOnUse" gradientTransform="matrix(0.33319 0 0 0.33479 0.005 0.937)">
   <stop stop-color="#c1c1c1" id="stop7"/>
   <stop offset="1" stop-color="#ebebeb" id="stop9"/>
  </linearGradient>
  <linearGradient id="1" y1="21" y2="29" x2="0" gradientUnits="userSpaceOnUse" gradientTransform="matrix(0.3122 0 0 0.3058 0.559 1.103)">
   <stop stop-color="#a1bfe5" id="stop12"/>
   <stop offset="1" stop-color="#5288d1" id="stop14"/>
  </linearGradient>
  <linearGradient id="2" y1="6" y2="21" x2="0" gradientUnits="userSpaceOnUse" gradientTransform="matrix(0.3122 0 0 0.35169 0.526 0.616)">
   <stop stop-color="#ebebeb" id="stop17"/>
   <stop offset="1" stop-color="#fff" id="stop19"/>
  </linearGradient>
 </defs>
 <rect width="12.01" x="1.995" y="5.05" fill="#6a6a6a" rx="0.355" height="4.262" id="rect21" ry="0.355"/>
 <rect width="13.994" x="1" y="7.968" fill="url(#0)" rx="0.67" height="7.03" id="rect23" ry="0.67"/>
 <path opacity="0.419" fill="#6a6a6a" id="path25" d="m 1.0046 11.9275 v 2.31 c 0 0.36564 0.296495 0.66 0.664788 0.66 h 12.631 c 0.368292 0 0.664787 -0.29436 0.664787 -0.66 v -2.31 h -13.9605 z"/>
 <rect width="9.99" x="3.057" y="4.466" fill="url(#1)" rx="0.306" height="5.504" id="rect27" ry="0.306"/>
 <path fill="#171717" id="path31" d="m 3,12 9.99,0 0,0.99 -9.99,0 z"/>
 <path fill="url(#2)" id="path33" d="m 3.3354 2.0224 c -0.172956 0 -0.312196 0.156852 -0.312196 0.351686 v 5.62697 h 9.99026 v -5.62697 c 0 -0.194834 -0.139239 -0.351686 -0.312196 -0.351686 z"/>
 <path opacity="0.3" fill="#fff" id="path35" d="M 3.972,3.058 H12.002 V4.002 H3.972 z"/>
 <path opacity="0.4" fill="none" stroke="#000" id="path37" stroke-width="0.997" d="m 1.6562 8.4688 c -0.09927 0 -0.15625 0.05698 -0.15625 0.15625 v 5.625 c 0 0.09927 0.05698 0.15625 0.15625 0.15625 h 12.6875 c 0.09927 0 0.15625 -0.05698 0.15625 -0.15625 v -5.625 c 0 -0.09927 -0.05698 -0.15625 -0.15625 -0.15625 H 1.6562 z" transform="matrix(1 0 0 1.0056 0 -0.048)"/>
 <path opacity="0.4" id="path39" d="m 3,0.98305085 1,0 L 4,9 3,9 Z"/>
 <path opacity="0.4" id="path41" d="m 12.02,0.98305085 1,0 L 13.02,9 l -1,0 z"/>
 <g id="g43" transform="matrix(0,1,-1,0,0,0)">
  <path id="path45" d="M 0.98305085,-12.02 2,-12.02 2,-4 0.98305085,-4 Z" opacity="0.4"/>
  <path id="path47" d="m 6.977,-11.994 1,0 0,7.972 -1,0 z" opacity="0.1"/>
 </g>
 <rect width="12" opacity="0.603" x="1.98" y="10.98" fill="#fff" height="1" stroke-linejoin="round" stroke-linecap="round" id="rect3382"/>
 <rect width="8" opacity="0.8" x="4" y="2" fill="#fff" height="1" stroke-linejoin="round" stroke-linecap="round" id="rect3384"/>
 <rect width="10" x="3" y="10" fill="#5288d1" height="1" stroke-linejoin="round" stroke-linecap="round" id="rect3386"/>
 <rect width="10" opacity="0.602" x="3" y="10" fill="#fff" height="1" stroke-linejoin="round" stroke-linecap="round" id="rect4188"/>
 <rect width="1" opacity="0.602" x="2" y="9" fill="#fff" height="1" stroke-linejoin="round" stroke-linecap="round" id="rect4190"/>
 <rect width="1" opacity="0.602" x="13" y="9" fill="#fff" height="1" stroke-linejoin="round" stroke-linecap="round" id="rect4192"/>
 <rect width="8" opacity="0.7" x="4" y="8" height="1" stroke-linejoin="round" stroke-linecap="round" id="rect4194"/>
 <rect width="10" opacity="0.471" x="3" y="13" fill="#fff" height="1" stroke-linejoin="round" stroke-linecap="round" id="rect4196"/>
 <metadata id="metadata9999">
  <rdf:RDF>
   <cc:Work>
    <dc:format>image/svg+xml</dc:format>
    <dc:type rdf:resource="http://purl.org/dc/dcmitype/StillImage"/>
    <dc:title>Ivy icon theme</dc:title>
    <cc:license rdf:resource="http://creativecommons.org/licenses/by-sa/4.0/"/>
    <dc:creator>
     <cc:Agent>
      <dc:title>Sixsixfive (sixsixfive.deviantart.com)</dc:title>
     </cc:Agent>
    </dc:creator>
    <dc:publisher>
     <cc:Agent>
      <dc:title>Sixsixfive (sixsixfive.deviantart.com)</dc:title>
     </cc:Agent>
    </dc:publisher>
    <dc:source>https://github.com/sixsixfive</dc:source>
    <dc:subject>
     <rdf:Bag>
      <rdf:li>ivy</rdf:li>
     </rdf:Bag>
    </dc:subject>
    <dc:contributor>
     <cc:Agent>
      <dc:title>ssf</dc:title>
     </cc:Agent>
    </dc:contributor>
    <dc:rights>
     <cc:Agent>
      <dc:title>Sixsixfive (sixisixfive.deviantart.com)</dc:title>
     </cc:Agent>
    </dc:rights>
    <dc:description>A simple icon theme published under CC-BY-SA_V4(http://creativecommons.org/licenses/by-sa/4.0)</dc:description>
    <dc:identifier>SSF</dc:identifier>
   </cc:Work>
  </rdf:RDF>
 </metadata>
 <!--Part of the Ivy icon them published under the CC-BY-SA_V4: http://creativecommons.org/licenses/by-sa/4.0 -->
</svg>
