<?xml version="1.0" encoding="UTF-8" standalone="no"?><svg xmlns:svg="http://www.w3.org/2000/svg" viewBox="0 0 16 16" xmlns="http://www.w3.org/2000/svg" xmlns:rdf="http://www.w3.org/1999/02/22-rdf-syntax-ns#" version="1.1" id="svg2" xmlns:dc="http://purl.org/dc/elements/1.1/" xmlns:cc="http://creativecommons.org/ns#"><defs id="defs4"><linearGradient y1="1011.36" x2="0" y2="1016.36" id="0" gradientTransform="matrix(0.49261 0 0 0.38192 -5.78 -385.24)" gradientUnits="userSpaceOnUse"><stop id="stop7"/><stop stop-opacity="0" offset="1" id="stop9"/></linearGradient><linearGradient x1="37" y1="17" x2="8" y2="38" id="1" gradientTransform="matrix(0.30695 0 0 0.29346 0.326 -0.01)" gradientUnits="userSpaceOnUse"><stop id="stop12" stop-color="#c5c5c5"/><stop offset="1" id="stop14" stop-color="#9d9d9d"/></linearGradient><linearGradient y1="1011.36" x2="0" y2="1018.36" id="2" gradientTransform="matrix(0.30695 0 0 0.39017 -0.316 -393.63)" gradientUnits="userSpaceOnUse"><stop id="stop17" stop-color="#eed45a"/><stop stop-opacity="0" offset="1" id="stop19" stop-color="#eed45a"/></linearGradient><linearGradient y1="1016.36" x2="0" y2="1049.36" id="3" gradientTransform="matrix(0.33333 0 0 0.33077 -0.333 -333.09)" gradientUnits="userSpaceOnUse"><stop id="stop22" stop-color="#b6b6b6"/><stop offset="1" id="stop24" stop-color="#cfcfcf"/></linearGradient><linearGradient y1="1008.36" x2="0" y2="1016.36" id="4" gradientTransform="matrix(0.3356 0 0 0.25007 -0.424 -251.16)" gradientUnits="userSpaceOnUse"><stop id="stop27" stop-color="#6a6a6a"/><stop offset="1" id="stop29" stop-color="#797979"/></linearGradient></defs><rect y="2.43" x="3" ry="0.662" height="11.577" rx="0.662" id="rect35" width="10" fill="url(#3)"/><path opacity="0.5" id="path37" d="M 5.7938,4.052 C 5.66626,4.4357 5.329949,4.7145 4.930513,4.7145 l 0,2.9919 c 0.04995,-0.011 0.100498,-0.011 0.153473,-0.011 0.423805,0 0.767366,0.2966 0.767366,0.6626 0,0.3659 -0.343561,0.6625 -0.767366,0.6625 -0.05297,0 -0.103519,0 -0.153473,-0.011 l 0,0.5074 0,0.1655 0.0096,0 c 0.103788,1.2962 1.43237,2.319 3.05987,2.319 1.6275,0 2.95608,-1.0228 3.05987,-2.319 l 0.0096,0 0,-0.1655 0,-0.5074 c -0.04995,0.011 -0.100497,0.011 -0.153473,0.011 -0.423804,0 -0.767366,-0.2966 -0.767366,-0.6625 0,-0.366 0.343562,-0.6626 0.767366,-0.6626 0.05298,0 0.103519,0 0.153473,0.011 l 0,-3.0541 c -0.258411,-0.1 -0.463646,-0.3215 -0.55634,-0.6003 l -4.7193,0 z" fill="#fff"/><rect y="6.07" x="5.544" opacity="0.38" ry="0.312" height="1.874" rx="0.312" id="rect39" width="4.911" fill="#6a6a6a"/><path id="path41" d="m 4.1207,1.0022 7.7906,0 c 0.085,0 0.141538,0.051 0.153419,0.114 l 0.9353,1.772 c 0.01188,0.063 -0.06842,0.114 -0.153418,0.114 l -9.76123,0 c -0.084998,0 -0.165298,-0.051 -0.153419,-0.114 l 1.0354,-1.772 C 3.979226,1.0532 4.035774,1.0022 4.12077,1.0022 Z" fill="url(#4)"/><path opacity="0.68" id="path43" d="m 3.9816,0.9707 3.6834,0 0,1.9509 -3.6834,0 z" fill="url(#2)"/><path opacity="0.548" id="path45" d="m 4.595,0.97 0.921,0 0,1.95 -0.921,0 z"/><path id="path47" d="m 9.984,1.02 1.97,0 0,1.91 -1.97,0 z" fill="url(#0)"/><path opacity="0.548" id="path49" d="m 6.13,0.97 0.921,0 0,1.95 -0.921,0 z"/><path opacity="0.281" id="path51" d="M 5.7938,4.9242 C 5.66626,5.3118 5.329949,5.5936 4.930513,5.5936 l 0,3.023 c 0.04995,-0.01 0.100498,-0.01 0.153473,-0.01 0.423805,0 0.767366,0.2997 0.767366,0.6693 0,0.3698 -0.343561,0.6695 -0.767366,0.6695 -0.05297,0 -0.103519,0 -0.153473,-0.01 l 0,0.5124 0,0.1674 0.0096,0 c 0.103788,1.3096 1.43237,2.3431 3.05987,2.3431 1.6275,0 2.95608,-1.0335 3.05987,-2.3431 l 0.0096,0 0,-0.1674 0,-0.5124 c -0.04995,0.01 -0.100497,0.01 -0.153473,0.01 -0.423804,0 -0.767366,-0.2997 -0.767366,-0.6695 0,-0.3696 0.343562,-0.6693 0.767366,-0.6693 0.05298,0 0.103519,0 0.153473,0.01 l 0,-3.0857 C 10.811042,5.4303 10.605807,5.206 10.513113,4.9242 l -4.7193,0 z"/><path id="path53" d="M 5.7938,4.9833 C 5.66626,5.3232 5.329949,5.5702 4.930513,5.5702 l 0,2.6502 c 0.04995,-0.01 0.100498,-0.01 0.153473,-0.01 0.423805,0 0.767366,0.2629 0.767366,0.587 0,0.3241 -0.343561,0.5868 -0.767366,0.5868 -0.05297,0 -0.103519,0 -0.153473,-0.01 l 0,0.4494 0,0.1467 0.0096,0 c 0.103788,1.1482 1.43237,2.0542 3.05987,2.0542 1.6275,0 2.95608,-0.906 3.05987,-2.0542 l 0.0096,0 0,-0.1467 0,-0.4494 c -0.04995,0.01 -0.100497,0.01 -0.153473,0.01 -0.423804,0 -0.767366,-0.2627 -0.767366,-0.5868 0,-0.3241 0.343562,-0.587 0.767366,-0.587 0.05298,0 0.103519,0 0.153473,0.01 l 0,-2.7051 c -0.258411,-0.088 -0.463646,-0.2849 -0.55634,-0.532 l -4.7193,0 z" fill="url(#1)"/><rect y="5.01" x="5.998" opacity="0.936" ry="0.34" height="2.039" rx="0.34" id="rect55" width="3.921" fill="#fff"/><path stroke="#000" opacity="0.3" id="path57" d="M 4.375,1.5312 3.5625,2.875 a 0.53641,0.53641 0 0 1 0,0.03125 0.53641,0.53641 0 0 1 0,0.15625 C 3.5299962,3.241455 3.53125,3.26397 3.53125,3.09375 l 0,10.25 c 0,0.08378 0.04122,0.125 0.125,0.125 l 8.6875,0 c 0.08378,0 0.125,-0.04122 0.125,-0.125 l 0,-10.25 c 0,0.170207 0.0013,0.147682 -0.03125,-0.03125 a 0.53641,0.53641 0 0 1 0,-0.09375 0.53641,0.53641 0 0 1 0,-0.03125 l 0,-0.03125 -0.75,-1.375 -7.3125,0 z" fill="none"/><path opacity="0.4" id="path59" d="m 4.04,3.05 7.862,0 0,0.95 -7.862,0 z" fill="#fff"/><metadata id="metadata9999"><rdf:RDF><cc:Work><dc:format>image/svg+xml</dc:format><dc:type rdf:resource="http://purl.org/dc/dcmitype/StillImage"/><dc:title>Ivy icon theme</dc:title><cc:license rdf:resource="http://creativecommons.org/licenses/by-sa/4.0/"/><dc:creator><cc:Agent><dc:title>Sixsixfive (sixsixfive.deviantart.com)</dc:title></cc:Agent></dc:creator><dc:publisher><cc:Agent><dc:title>Sixsixfive (sixsixfive.deviantart.com)</dc:title></cc:Agent></dc:publisher><dc:source>https://github.com/sixsixfive</dc:source><dc:subject><rdf:Bag><rdf:li>ivy</rdf:li></rdf:Bag></dc:subject><dc:contributor><cc:Agent><dc:title>ssf</dc:title></cc:Agent></dc:contributor><dc:rights><cc:Agent><dc:title>Sixsixfive (sixisixfive.deviantart.com)</dc:title></cc:Agent></dc:rights><dc:description>A simple icon theme published under CC-BY-SA_V4(http://creativecommons.org/licenses/by-sa/4.0)</dc:description><dc:identifier>SSF</dc:identifier></cc:Work></rdf:RDF></metadata><!--Part of the Ivy icon them published under the CC-BY-SA_V4: http://creativecommons.org/licenses/by-sa/4.0 -->
</svg>