<?xml version="1.0" encoding="UTF-8" standalone="no"?>
<svg xmlns:dc="http://purl.org/dc/elements/1.1/" xmlns:cc="http://creativecommons.org/ns#" xmlns:rdf="http://www.w3.org/1999/02/22-rdf-syntax-ns#" xmlns:svg="http://www.w3.org/2000/svg" xmlns="http://www.w3.org/2000/svg" xmlns:xlink="http://www.w3.org/1999/xlink" viewBox="0 0 16 16" id="svg2" version="1.1">
 <defs id="defs4">
  <linearGradient id="1" xlink:href="#4" y1="-17" y2="-11" x2="0" gradientUnits="userSpaceOnUse" gradientTransform="matrix(0 0.3859736 -0.50072108 0 -2.512627 -388.43264)"/>
  <linearGradient id="2" xlink:href="#4" y1="-17" y2="-11" x2="0" gradientUnits="userSpaceOnUse" gradientTransform="matrix(0 0.3859736 -0.50000024 0 4.500003 -388.4325)"/>
  <linearGradient id="3" y1="22" y2="36" x2="0" gradientUnits="userSpaceOnUse" gradientTransform="matrix(0.3888876 0 0 0.42398472 -0.944352 -2.511668)">
   <stop stop-color="#343434" id="stop9"/>
   <stop offset="1" stop-color="#6a6a6a" id="stop11"/>
  </linearGradient>
  <linearGradient id="4">
   <stop stop-color="#ebebeb" id="stop14"/>
   <stop offset="1" stop-color="#cbcbcb" id="stop16"/>
  </linearGradient>
 </defs>
 <path fill="url(#2)" id="path20" d="m 13,0 0,6.1753417 -3,0 L 10,0 Z"/>
 <path fill="url(#1)" id="path22" d="m 6,0 0,6.1753398 -3,0 L 3,0 Z"/>
 <path fill="#6a6a6a" id="path33" d="m 3,11 10,0 0,4 -10,0 z"/>
 <path opacity="0.5" fill="none" stroke="#000" id="path4182" d="m 10.492188,0.4921875 0,5.1914063 2.015624,0 0,-5.1914063 -2.015624,0 z"/>
 <path opacity="0.5" fill="none" stroke="#000" id="path4184" d="m 10.492188,0.4921875 0,5.1914063 2.015624,0 0,-5.1914063 -2.015624,0 z" transform="matrix(1 0 0 1 -6.992188 0.007813)"/>
 <path fill="url(#3)" id="path27" d="m 1,3 0,4 2,5 10,0 2,-5 -4.8e-5,-4 z"/>
 <path opacity="0.2" fill="#fff" id="path31" d="M 2,7 14,7 14,8 2,8 Z"/>
 <path opacity="0.5" id="path35" d="M 2,6 14,6 14,7 2,7 Z"/>
 <path opacity="0.5" id="path37" d="m 4,12 8,0 0,1 -8,0 z"/>
 <path opacity="0.8" fill="none" stroke="#000" id="path4178" d="m 1.4921875,3.4921875 0,3.4121094 1.9648437,4.9121091 A 0.49216498,0.49216498 0 0 1 3.4921875,12 l 0,2.507812 9.0156245,0 0,-2.507812 a 0.49216498,0.49216498 0 0 1 0.03516,-0.183594 l 1.964843,-4.9121091 0,-3.4121094 -13.0156245,0 z"/>
 <rect width="1" x="4" y="1" fill="#fff" height="1" stroke-linejoin="round" id="rect4186" stroke-linecap="round" stroke-width="1.5"/>
 <rect width="1" x="11" y="1" fill="#fff" height="1" stroke-linejoin="round" id="rect4188" stroke-linecap="round" stroke-width="1.5"/>
 <rect width="12" x="2" opacity="0.3" y="4" fill="#fff" height="1" stroke-linejoin="round" id="rect4190" stroke-linecap="round" stroke-width="1.5"/>
 <metadata id="metadata9999">
  <rdf:RDF>
   <cc:Work>
    <dc:format>image/svg+xml</dc:format>
    <dc:type rdf:resource="http://purl.org/dc/dcmitype/StillImage"/>
    <dc:title>Ivy icon theme</dc:title>
    <cc:license rdf:resource="http://creativecommons.org/licenses/by-sa/4.0/"/>
    <dc:creator>
     <cc:Agent>
      <dc:title>Sixsixfive (sixsixfive.deviantart.com)</dc:title>
     </cc:Agent>
    </dc:creator>
    <dc:publisher>
     <cc:Agent>
      <dc:title>Sixsixfive (sixsixfive.deviantart.com)</dc:title>
     </cc:Agent>
    </dc:publisher>
    <dc:source>https://github.com/sixsixfive</dc:source>
    <dc:subject>
     <rdf:Bag>
      <rdf:li>ivy</rdf:li>
     </rdf:Bag>
    </dc:subject>
    <dc:contributor>
     <cc:Agent>
      <dc:title>ssf</dc:title>
     </cc:Agent>
    </dc:contributor>
    <dc:rights>
     <cc:Agent>
      <dc:title>Sixsixfive (sixisixfive.deviantart.com)</dc:title>
     </cc:Agent>
    </dc:rights>
    <dc:description>A simple icon theme published under CC-BY-SA_V4(http://creativecommons.org/licenses/by-sa/4.0)</dc:description>
    <dc:identifier>SSF</dc:identifier>
   </cc:Work>
  </rdf:RDF>
 </metadata>
 <!--Part of the Ivy icon them published under the CC-BY-SA_V4: http://creativecommons.org/licenses/by-sa/4.0 -->
</svg>
