<?xml version="1.0" encoding="UTF-8" standalone="no"?><svg xmlns:svg="http://www.w3.org/2000/svg" xmlns="http://www.w3.org/2000/svg" viewBox="0 0 16 16" xmlns:rdf="http://www.w3.org/1999/02/22-rdf-syntax-ns#" version="1.1" id="svg2" xmlns:dc="http://purl.org/dc/elements/1.1/" xmlns:cc="http://creativecommons.org/ns#"><defs id="1"><linearGradient x1="9.969" y1="6.03" x2="10" y2="44" id="E" gradientTransform="matrix(0.31915 0 0 0.31579 0.809 0.105)" gradientUnits="userSpaceOnUse"><stop id="N" stop-color="#6a6a6a"/><stop offset="1" id="O" stop-color="#5d5d5d"/></linearGradient><linearGradient y1="4" x2="0" y2="13.255" id="F" gradientUnits="userSpaceOnUse"><stop id="P" stop-color="#5288d1"/><stop offset="1" id="Q" stop-color="#9dbce5"/></linearGradient></defs><path opacity="0.1" id="0" d="M 2,3 2,4 3,4 3,4.9375 3,6 2,6 l 0,1 1,0 0,1.03125 -1,0 L 2,9 l 1,0 0,4 0,2 1,0 0,-2 2,0 0,1 1.03125,0 4.96875,0 0,-1 1,0 0,1 2,0 0,-1 L 15,5 4,4.9375 4,4.25 4,3 2,3 z"/><path id="2" d="M 3,3.941602 V 12 h 3 v 1 H 7.02128 12 v -1 h 1 v 1 h 2 V 12 4 z" fill="url(#F)"/><g id="3" fill="#eed45a"><path id="G" d="m 13,12 2,0 0,1 -2,0 z"/><path id="H" d="m 6,12 6,0 0,1 -6,0 z"/></g><g id="4" fill="#171717"><path opacity="0.8" id="I" d="M 6,6 8,6 8,8 6,8 Z"/><path opacity="0.8" id="J" d="m 10,6 2,0 0,2 -2,0 z"/><g id="K" fill-rule="evenodd"><path opacity="0.8" id="R" d="m 6,9 1,0 0,2 -1,0 z"/><path opacity="0.8" id="S" d="m 8,9 1,0 0,2 -1,0 z"/><path opacity="0.8" id="T" d="m 12,9 1,0 0,2 -1,0 z"/><path opacity="0.8" id="U" d="m 10,9 1,0 0,2 -1,0 z"/></g></g><g id="5" fill="#6a6a6a"><path id="L" d="m 2,7.04 1.596,0 0,0.957 -1.596,0 z"/><path id="M" d="m 2,5 1.596,0 0,1 L 2,6 Z"/></g><path id="6" d="M 2,2 V 3 H 3 V 14 H 4 V 3.263158 2 z" fill="url(#E)"/><path opacity="0.2" id="7" d="m 10,12 h 1 v 1 h -1 z"/><path opacity="0.2" id="8" d="m 8,12 h 1 v 1 H 8 z"/><path opacity="0.2" id="9" d="m 6,12 h 1 v 1 H 6 z"/><path opacity="0.2" id="A" d="m 13,12 h 1 v 1 h -1 z"/><path opacity="0.4" id="B" d="M 4,4 H 15 V 5 H 4 z"/><path opacity="0.4" id="C" d="m 14,5 h 1 v 7 h -1 z"/><path opacity="0.4" id="D" d="m 4,11 h 10 v 1 H 4 z"/><metadata id="metadata9999"><rdf:RDF><cc:Work><dc:format>image/svg+xml</dc:format><dc:type rdf:resource="http://purl.org/dc/dcmitype/StillImage"/><dc:title>Ivy icon theme</dc:title><cc:license rdf:resource="http://creativecommons.org/licenses/by-sa/4.0/"/><dc:creator><cc:Agent><dc:title>Sixsixfive (sixsixfive.deviantart.com)</dc:title></cc:Agent></dc:creator><dc:publisher><cc:Agent><dc:title>Sixsixfive (sixsixfive.deviantart.com)</dc:title></cc:Agent></dc:publisher><dc:source>https://github.com/sixsixfive</dc:source><dc:subject><rdf:Bag><rdf:li>ivy</rdf:li></rdf:Bag></dc:subject><dc:contributor><cc:Agent><dc:title>ssf</dc:title></cc:Agent></dc:contributor><dc:rights><cc:Agent><dc:title>Sixsixfive (sixisixfive.deviantart.com)</dc:title></cc:Agent></dc:rights><dc:description>A simple icon theme published under CC-BY-SA_V4(http://creativecommons.org/licenses/by-sa/4.0)</dc:description><dc:identifier>SSF</dc:identifier></cc:Work></rdf:RDF></metadata><!--Part of the Ivy icon them published under the CC-BY-SA_V4: http://creativecommons.org/licenses/by-sa/4.0 -->
</svg>