<?xml version="1.0" encoding="UTF-8" standalone="no"?>
<svg xmlns:dc="http://purl.org/dc/elements/1.1/" xmlns:cc="http://creativecommons.org/ns#" xmlns:rdf="http://www.w3.org/1999/02/22-rdf-syntax-ns#" xmlns:svg="http://www.w3.org/2000/svg" xmlns="http://www.w3.org/2000/svg" version="1.1" id="svg2" viewBox="0 0 16 16">
 <defs id="defs4">
  <linearGradient gradientUnits="userSpaceOnUse" x2="0" y2="0" y1="11.998" id="0">
   <stop id="stop7" stop-color="#d3d7cf"/>
   <stop id="stop9" stop-color="#eeeeec" offset="1"/>
  </linearGradient>
  <linearGradient gradientUnits="userSpaceOnUse" x2="0" y2="11" y1="1" id="1">
   <stop id="stop12" stop-color="#fff"/>
   <stop id="stop14" stop-opacity="0" stop-color="#fff" offset="1"/>
  </linearGradient>
  <linearGradient gradientUnits="userSpaceOnUse" x2="0" y2="15" y1="11" id="2">
   <stop id="stop17" stop-color="#6a6a6a"/>
   <stop id="stop19" stop-color="#ebebeb" offset="1"/>
  </linearGradient>
 </defs>
 <path id="path21" d="m 5 10 v 3 h -2 v 2 h 10 v -2 h -2 v -3 H 5 z" fill="url(#2)" opacity="0.965"/>
 <path id="path23" d="m 5.4688 10.4688 v 2.5312 A 0.468305 0.468305 0 0 1 5.00005 13.46875 H 3.4688 v 1.0625 h 9.0625 v -1.0625 H 11.00005 A 0.468305 0.468305 0 0 1 10.5313 13 V 10.46875 H 5.4688 z" stroke="#000" fill="none" opacity="0.3"/>
 <rect id="rect25" ry="0.8" height="12" rx="0.8" fill="url(#0)" width="16"/>
 <path id="path27" d="M 2,2 H14 V9 H2 z" fill="#171717"/>
 <g id="g29" fill="none">
  <path id="path31" d="M 0.8125,0.5 C 0.652273,0.5 0.5,0.652273 0.5,0.8125 l 0,10.375 C 0.5,11.347727 0.652273,11.5 0.8125,11.5 l 14.375,0 c 0.160227,0 0.3125,-0.152273 0.3125,-0.3125 l 0,-10.375 C 15.5,0.652273 15.347727,0.5 15.1875,0.5 l -14.375,0 z" opacity="0.5" stroke="#000"/>
  <path id="path33" d="m 1.5,1.5 0,9 13,0 0,-9 -13,0 z" opacity="0.62" stroke="url(#1)"/>
  <path id="path35" d="m 2.5,2.5 0,6 11,0 0,-6 -11,0 z" opacity="0.385" stroke="#000"/>
 </g>
 <path id="path37" d="M 2,9 H14 V10 H2 z" fill="#fff" opacity="0.965"/>
 <metadata id="metadata9999">
  <rdf:RDF>
   <cc:Work>
    <dc:format>image/svg+xml</dc:format>
    <dc:type rdf:resource="http://purl.org/dc/dcmitype/StillImage"/>
    <dc:title>Ivy icon theme</dc:title>
    <cc:license rdf:resource="http://creativecommons.org/licenses/by-sa/4.0/"/>
    <dc:creator>
     <cc:Agent>
      <dc:title>Sixsixfive (sixsixfive.deviantart.com)</dc:title>
     </cc:Agent>
    </dc:creator>
    <dc:publisher>
     <cc:Agent>
      <dc:title>Sixsixfive (sixsixfive.deviantart.com)</dc:title>
     </cc:Agent>
    </dc:publisher>
    <dc:source>https://github.com/sixsixfive</dc:source>
    <dc:subject>
     <rdf:Bag>
      <rdf:li>ivy</rdf:li>
     </rdf:Bag>
    </dc:subject>
    <dc:contributor>
     <cc:Agent>
      <dc:title>ssf</dc:title>
     </cc:Agent>
    </dc:contributor>
    <dc:rights>
     <cc:Agent>
      <dc:title>Sixsixfive (sixisixfive.deviantart.com)</dc:title>
     </cc:Agent>
    </dc:rights>
    <dc:description>A simple icon theme published under CC-BY-SA_V4(http://creativecommons.org/licenses/by-sa/4.0)</dc:description>
    <dc:identifier>SSF</dc:identifier>
   </cc:Work>
  </rdf:RDF>
 </metadata>
 <!--Part of the Ivy icon them published under the CC-BY-SA_V4: http://creativecommons.org/licenses/by-sa/4.0 -->
</svg>
