<?xml version="1.0" encoding="UTF-8" standalone="no"?><svg xmlns:cc="http://creativecommons.org/ns#" viewBox="0 0 16 16" version="1.1" id="svg2" xmlns:svg="http://www.w3.org/2000/svg" xmlns:rdf="http://www.w3.org/1999/02/22-rdf-syntax-ns#" xmlns="http://www.w3.org/2000/svg" xmlns:dc="http://purl.org/dc/elements/1.1/"><defs id="defs4"/><g fill="#171717" id="g17"><path opacity="0.2" id="path19" d="m 1.012331,12 0,2.94375 c 0,0.01997 0.007,0.03718 0.010417,0.05625 l 13.979172,0 c 0.0034,-0.01907 0.01042,-0.03628 0.01042,-0.05625 l 0,-2.94375 -14.000009,0 z"/><path opacity="0.3" id="path21" d="m 12,5 1,0 0,3 -1,0 z"/><path opacity="0.3" id="path23" d="m 3,9 8,0 0,1 -8,0 z"/></g><path opacity="0.46" fill="none" id="path25" stroke="#000" transform="matrix(0 1 -1 0 0 0)" d="m 3.53125 -14.46875 v 12.90625 h 10.9375 v -12.90625 h -10.9375 z"/><g fill-rule="evenodd" id="g27"><path opacity="0.4" id="path29" d="m 2,11 12,0 0,1 -12,0 z"/><path opacity="0.4" fill="#fff" id="path31" transform="matrix(-1 0 0 -1 0 0)" d="m -14,-13 12,0 0,1 -12,0 z"/><g id="g33" transform="matrix(0 1 -1 0 0 0)"><path opacity="0.4" id="path35" d="m 12,-8 2,0 0,1 -2,0 z"/><path opacity="0.4" fill="#fff" id="path37" d="m 12,-9 2,0 0,1 -2,0 z"/></g></g><metadata id="metadata9999"><rdf:RDF><cc:Work><dc:format>image/svg+xml</dc:format><dc:type rdf:resource="http://purl.org/dc/dcmitype/StillImage"/><dc:title>Ivy icon theme</dc:title><cc:license rdf:resource="http://creativecommons.org/licenses/by-sa/4.0/"/><dc:creator><cc:Agent><dc:title>Sixsixfive (sixsixfive.deviantart.com)</dc:title></cc:Agent></dc:creator><dc:publisher><cc:Agent><dc:title>Sixsixfive (sixsixfive.deviantart.com)</dc:title></cc:Agent></dc:publisher><dc:source>https://github.com/sixsixfive</dc:source><dc:subject><rdf:Bag><rdf:li>ivy</rdf:li></rdf:Bag></dc:subject><dc:contributor><cc:Agent><dc:title>ssf</dc:title></cc:Agent></dc:contributor><dc:rights><cc:Agent><dc:title>Sixsixfive (sixisixfive.deviantart.com)</dc:title></cc:Agent></dc:rights><dc:description>A simple icon theme published under CC-BY-SA_V4(http://creativecommons.org/licenses/by-sa/4.0)</dc:description><dc:identifier>SSF</dc:identifier></cc:Work></rdf:RDF></metadata><!--Part of the Ivy icon them published under the CC-BY-SA_V4: http://creativecommons.org/licenses/by-sa/4.0 -->
</svg>