<?xml version="1.0" encoding="UTF-8" standalone="no"?>
<svg
   xmlns:dc="http://purl.org/dc/elements/1.1/"
   xmlns:cc="http://creativecommons.org/ns#"
   xmlns:rdf="http://www.w3.org/1999/02/22-rdf-syntax-ns#"
   xmlns:svg="http://www.w3.org/2000/svg"
   xmlns="http://www.w3.org/2000/svg"
   style="shape-rendering:crispEdges"
   height="16"
   width="16"
   version="1.1"
   id="svg9999"
   viewBox="0 0 16 16">
  <defs
     id="defs7" />
  <title
     id="title9999">Ivy icon theme</title>
  <metadata
     id="metadata9999">
    <rdf:RDF>
      <cc:Work>
        <dc:format>image/svg+xml</dc:format>
        <dc:type
           rdf:resource="http://purl.org/dc/dcmitype/StillImage" />
        <dc:title>Ivy icon theme</dc:title>
        <cc:license
           rdf:resource="http://creativecommons.org/licenses/by-sa/4.0/" />
        <dc:creator>
          <cc:Agent>
            <dc:title>Sixsixfive (sixisixfive.deviantart.com)</dc:title>
          </cc:Agent>
        </dc:creator>
        <dc:publisher>
          <cc:Agent>
            <dc:title>Sixsixfive (sixisixfive.deviantart.com)</dc:title>
          </cc:Agent>
        </dc:publisher>
        <dc:source>https://github.com/sixsixfive</dc:source>
        <dc:subject>
          <rdf:Bag>
            <rdf:li>ivy</rdf:li>
          </rdf:Bag>
        </dc:subject>
        <dc:contributor>
          <cc:Agent>
            <dc:title>ssf</dc:title>
          </cc:Agent>
        </dc:contributor>
        <dc:rights>
          <cc:Agent>
            <dc:title>Sixsixfive (sixisixfive.deviantart.com)</dc:title>
          </cc:Agent>
        </dc:rights>
        <dc:description>A simple icon theme published under CC-BY-SA(http://creativecommons.org/licenses/by-sa/4.0/)</dc:description>
        <dc:identifier>SSF</dc:identifier>
      </cc:Work>
    </rdf:RDF>
  </metadata>
  <g
     style="fill:#ff8080"
     transform="matrix(0.1790972,0,0,0.17691263,-0.03221542,-0.0347419)"
     id="g7930">
    <path
       id="path7811"
       transform="matrix(2.1270171,0,0,2.1532823,-6.1999916,-6.2615077)"
       d="M 24.982422,3 C 20.302566,3.1517559 37.205196,25.510257 23.999972,23.999616 35.011569,27.0503 38.815147,14.417876 36.566281,7.4644545 34.338576,0.57649277 32.142942,4.5903619 25.503906,3.0605469 25.305764,3.0148895 25.133385,2.9951046 24.982422,3 Z M 12.144531,5.7312472 C 5.0390778,5.7219374 9.3317573,8.5506433 6.0119829,14.240234 2.442081,20.358505 29.590309,9.3727524 23.999972,21.37455 28.962263,12.873903 19.317489,5.7406413 12.144531,5.7312472 Z M 16.955078,16.978516 C 11.1632,16.964746 5.3328636,23.543684 3.703125,28.537109 1.4570106,35.419025 4.8263659,31.586326 9.2983068,36.726688 13.56921,41.635707 13.888561,12.100196 23.999972,21.37455 21.998706,18.859911 19.221465,16.983904 16.955078,16.978516 Z m 24.704035,1.965629 c -3.909976,0.374199 -16.149013,13.191388 -19.240748,5.055471 2.952657,15.750395 13.669819,10.256785 19.587494,5.969134 5.862035,-4.247312 1.226681,-3.172887 0.629817,-9.960152 -0.07123,-0.810264 -0.417995,-1.11791 -0.976563,-1.064453 z m -21.276226,2.829567 c -7.448807,7.004679 -4.038743,17.210732 1.953051,21.394257 6.510527,4.545709 3.268972,-0.752991 9.539232,-3.417958 C 34.500236,37.124945 14.253878,29.061205 20.382887,21.773712 Z"
       style="opacity:1;fill:#93b4e2;fill-opacity:1;fill-rule:evenodd" />
    <g
       id="g4163">
      <path
         style="opacity:0.8;fill:none;fill-rule:evenodd;stroke:#ffffff;stroke-width:5.61792803px;stroke-linecap:butt;stroke-linejoin:miter;stroke-opacity:1"
         d="m 14.015528,13.702264 13.83565,0"
         id="path4155" />
      <path
         style="opacity:0.8;fill:none;fill-rule:evenodd;stroke:#ffffff;stroke-width:5.61792803px;stroke-linecap:butt;stroke-linejoin:miter;stroke-opacity:1"
         d="m 17.624828,43.745185 9.825317,-7.307737"
         id="path4157" />
      <path
         style="opacity:0.8;fill:none;fill-rule:evenodd;stroke:#ffffff;stroke-width:5.61792803px;stroke-linecap:butt;stroke-linejoin:miter;stroke-opacity:1"
         d="M 74.972598,49.225988 80.78758,42.324236"
         id="path4159" />
      <path
         style="opacity:0.8;fill:none;fill-rule:evenodd;stroke:#ffffff;stroke-width:5.61792803px;stroke-linecap:butt;stroke-linejoin:miter;stroke-opacity:1"
         d="m 32.864094,60.390586 8.622217,4.668821"
         id="path4161" />
    </g>
    <path
       id="path4153"
       d="M 51.913178,9.2364238 66.149862,9.0334314"
       style="fill:none;fill-rule:evenodd;stroke:#ffffff;stroke-width:5.61792803px;stroke-linecap:butt;stroke-linejoin:miter;stroke-opacity:1;opacity:0.8" />
    <path
       transform="matrix(2.1270171,0,0,2.1532823,-6.1999916,-6.2615077)"
       d="m 25.652344,4.4746094 c 0.05267,0.3779449 0.123404,0.8480795 0.390625,1.625 0.679566,1.9757793 1.945754,4.7582456 2.966797,7.5390626 1.021042,2.780817 1.892367,5.530273 1.441406,7.992187 -0.05239,0.28601 -0.218752,0.544588 -0.322266,0.822266 0.06171,-0.02644 0.144483,-0.02279 0.205078,-0.05078 1.552114,-0.717087 2.783297,-1.985907 3.69336,-3.607422 1.820125,-3.243029 2.175272,-7.878559 1.199218,-10.8964845 C 34.702804,6.2790004 34.198466,5.4407812 33.841797,5.0878906 33.485127,4.735 33.28301,4.6788617 32.648438,4.6601562 31.443282,4.6246316 28.985125,5.1295911 25.652344,4.4746094 Z M 12.142578,7.1386719 C 10.459498,7.1364666 9.5807116,7.3567402 9.328125,7.4941406 9.0755384,7.631541 9.1334116,7.553074 9.0488281,8.0742188 c -0.1652676,1.0182647 -0.038759,3.6143302 -1.75,6.6796872 0.1847874,0.03997 0.2493588,0.08071 0.8164063,0.08594 1.7392764,0.01604 4.6494906,-0.396907 7.5292966,-0.642578 2.879806,-0.245671 5.729139,-0.41935 7.970703,0.572265 0.0058,0.0026 0.0098,0.0091 0.01563,0.01172 C 23.24803,13.543079 22.588001,12.383114 21.599609,11.335938 19.213557,8.8079722 15.262962,7.1427585 12.142578,7.1386719 Z m 4.808594,11.2480471 c -2.361587,-0.0056 -4.995539,1.406101 -7.2128908,3.513672 -2.2173515,2.107571 -3.9794869,4.874986 -4.6972656,7.074218 -0.541264,1.65839 -0.6653709,2.617932 -0.6386718,2.88086 0.026699,0.262928 -0.1743134,-0.0175 0.1953124,0.162109 0.714899,0.34739 3.1338969,0.957565 5.5214848,3.556641 0.132363,-0.194725 0.292266,-0.37295 0.552734,-1.011719 0.718788,-1.762748 1.490629,-4.725176 2.451172,-7.595703 0.960543,-2.870527 2.037507,-5.693439 3.964844,-7.455078 0.307862,-0.281395 0.698325,-0.462016 1.068359,-0.669922 -0.398922,-0.13308 -0.889838,-0.454329 -1.205078,-0.455078 z m 24.396484,2.191406 c -0.518881,0.173933 -1.644264,0.670518 -3.146484,1.640625 -1.71487,1.107432 -3.729074,2.505981 -5.775391,3.667969 -2.046317,1.161987 -4.107593,2.1343 -6.193359,2.214843 -0.396741,0.01532 -0.796503,-0.04743 -1.19336,-0.115234 0.567367,1.391143 1.201893,2.49699 1.886719,3.236328 1.261366,1.361771 2.614176,1.842388 4.197266,1.867188 3.16618,0.0496 7.193485,-2.18722 10.056641,-4.261719 1.416912,-1.026618 2.118218,-1.730121 2.291015,-2.003906 0.172797,-0.273786 0.142863,0.03814 -0.01172,-0.304688 -0.293206,-0.650258 -1.68403,-2.584597 -2.111328,-5.941406 z m -22.949218,6.544922 c -0.82155,2.02946 -1.03832,4.125876 -0.691407,6.169922 0.603147,3.553799 2.777592,6.864895 5.435547,8.720703 1.567313,1.094312 2.519869,1.485428 2.746094,1.517578 0.113112,0.01608 0.0056,0.01474 -0.02344,0.03125 -0.02905,0.01651 0.04913,-0.03037 0.189454,-0.224609 0.504224,-0.697941 1.606722,-2.839904 4.361328,-4.361329 -0.209669,-0.265058 -0.47796,-0.591284 -1.011719,-1.052734 -1.340217,-1.158656 -3.447258,-2.65442 -5.482422,-4.324219 -2.035164,-1.669798 -4.027833,-3.499477 -5.195313,-5.636718 -0.144252,-0.264075 -0.217777,-0.559327 -0.328124,-0.839844 z"
       id="path4151"
       style="opacity:0.6;fill:none;fill-opacity:1;fill-rule:evenodd;stroke:#000000;stroke-width:2.62506588;stroke-miterlimit:29.6;stroke-dasharray:none" />
  </g>
</svg>
