<?xml version="1.0" encoding="UTF-8" standalone="no"?><svg xmlns:svg="http://www.w3.org/2000/svg" xmlns="http://www.w3.org/2000/svg" viewBox="0 0 32 32" xmlns:rdf="http://www.w3.org/1999/02/22-rdf-syntax-ns#" xmlns:xlink="http://www.w3.org/1999/xlink" version="1.1" id="svg2" xmlns:dc="http://purl.org/dc/elements/1.1/" xmlns:cc="http://creativecommons.org/ns#"><defs id="defs4"><linearGradient id="linearGradient4205"><stop stop-opacity="1" id="stop4207" stop-color="#6a6a6a"/><stop stop-opacity="1" offset="1" id="stop4209" stop-color="#b5b5b5"/></linearGradient><linearGradient id="linearGradient4195"><stop stop-opacity="1" id="stop4197" stop-color="#fff"/><stop stop-opacity="0" offset="1" id="stop4199" stop-color="#fff"/></linearGradient><linearGradient x1="27.000002" xlink:href="#linearGradient4195" y1="-5" x2="27.000002" y2="25" id="linearGradient4201" gradientUnits="userSpaceOnUse"/><linearGradient x1="20.000002" xlink:href="#linearGradient4205" y1="0.99999988" x2="20.000002" y2="31" id="linearGradient4211" gradientUnits="userSpaceOnUse"/></defs><metadata id="metadata9999"><rdf:RDF><cc:Work><dc:format>image/svg+xml</dc:format><dc:type rdf:resource="http://purl.org/dc/dcmitype/StillImage"/><dc:title/><cc:license rdf:resource="http://creativecommons.org/licenses/by-sa/4.0/"/><dc:creator><cc:Agent><dc:title>Sixsixfive (sixsixfive.deviantart.com)</dc:title></cc:Agent></dc:creator><dc:publisher><cc:Agent><dc:title>Sixsixfive (sixsixfive.deviantart.com)</dc:title></cc:Agent></dc:publisher><dc:source>https://github.com/sixsixfive</dc:source><dc:subject><rdf:Bag><rdf:li>ivy</rdf:li></rdf:Bag></dc:subject><dc:contributor><cc:Agent><dc:title>ssf</dc:title></cc:Agent></dc:contributor><dc:rights><cc:Agent><dc:title>Sixsixfive (sixisixfive.deviantart.com)</dc:title></cc:Agent></dc:rights><dc:description>A simple icon theme published under CC-BY-SA_V4(http://creativecommons.org/licenses/by-sa/4.0)</dc:description><dc:identifier>SSF</dc:identifier></cc:Work></rdf:RDF></metadata><!--Part of the Ivy icon them published under the CC-BY-SA_V4: http://creativecommons.org/licenses/by-sa/4.0 -->
<g fill-opacity="1" id="g6230" transform="matrix(0.26377654 0 0 0.26125952 42.426026 32.115358)" fill="#bebebe"><path stroke="none" opacity="0.1" fill-opacity="1" id="path4203" fill-rule="nonzero" d="m -61.317334,-115.26991 c -25.263111,0 -29.998236,34.448517 -15.786324,34.448517 14.209857,0 41.050459,-34.448517 15.786324,-34.448517 z m -34.490012,7.72251 c -12.844324,1.56255 -8.327464,22.499632 -1.488297,22.89092 6.836396,0.391288 14.337264,-24.45346 1.488297,-22.89092 z m -23.235224,7.617841 c -0.65604,0.0647 -1.35889,0.23536 -2.11027,0.523311 -12.02429,4.608211 -1.82695,23.631159 4.90916,22.35266 6.32018,-1.19671 7.04176,-23.845972 -2.79889,-22.875971 z m -17.5708,15.280554 c -0.80519,-0.03113 -1.67188,0.273804 -2.59897,1.009234 -7.4134,5.884395 2.49489,20.101695 6.85654,17.897074 3.81645,-1.929874 1.37875,-18.688405 -4.25757,-18.906308 z m 47.344168,11.318367 c -17.416248,-0.286861 -40.754208,7.130527 -44.804438,24.012285 -2.38574,19.178049 17.36182,45.0491957 39.873063,45.0491957 11.074374,0 21.948704,-9.9990787 24.338488,-22.6666397 1.34308,-6.739222 -20.132746,-4.758671 -19.125742,0.60554 -1.667324,11.678583 -5.674496,13.302053 -11.721269,6.50395 -16.53354,-16.5539 33.955926,-23.472783 30.950674,-45.049194 -0.743277,-5.336388 -9.061025,-8.283021 -19.510776,-8.455137 z" fill="#000"/><path stroke="none" fill-opacity="1" id="path9" transform="matrix(3.7910877 0 0 3.8276117 -160.84079 -122.92512)" fill-rule="nonzero" d="M 26.251953 1 C 19.588137 1 18.339122 10 22.087891 10 C 25.836118 10 32.916039 1 26.251953 1 z M 17.154297 3.0175781 C 13.766266 3.4258092 14.957706 8.8958192 16.761719 8.9980469 C 18.565 9.1002746 20.543553 2.6093497 17.154297 3.0175781 z M 11.025391 5.0078125 C 10.852342 5.0247073 10.666947 5.0693014 10.46875 5.1445312 C 7.2970244 6.3484687 9.9868441 11.318395 11.763672 10.984375 C 13.430786 10.671723 13.621123 4.7543899 11.025391 5.0078125 z M 6.390625 9 C 6.1782352 8.9918673 5.9496227 9.0715338 5.7050781 9.2636719 C 3.7495971 10.801026 6.3631709 14.515431 7.5136719 13.939453 C 8.5203625 13.435255 7.8773533 9.0569292 6.390625 9 z M 18.878906 11.957031 C 14.284909 11.882086 8.1289029 13.819949 7.0605469 18.230469 C 6.4312446 23.240917 11.640186 30 17.578125 30 C 20.499285 30 23.367678 27.387646 23.998047 24.078125 C 24.35232 22.317439 18.687501 22.834877 18.953125 24.236328 C 18.513324 27.287469 17.456326 27.711616 15.861328 25.935547 C 11.500168 21.610683 24.818106 19.803059 24.025391 14.166016 C 23.829332 12.771834 21.635305 12.001998 18.878906 11.957031 z " fill="url(#linearGradient4211)"/><path stroke-linejoin="round" stroke="#000" stroke-width="1" opacity="0.4" fill-opacity="1" id="path3383" transform="matrix(3.7910877 0 0 3.8276117 -160.84079 -122.92512)" fill-rule="nonzero" d="m 26.251953,1.5078125 c -3.103282,0 -4.875089,2.0606691 -5.5,4.1386719 -0.312455,1.0390013 -0.309763,2.0699971 -0.05469,2.7734375 0.255075,0.7034404 0.656635,1.0722656 1.390625,1.0722656 0.733824,0 1.820873,-0.4940255 2.857421,-1.2988281 C 25.981861,7.3885567 26.9791,6.2957293 27.644531,5.2304688 28.309963,4.1652082 28.600375,3.1325946 28.447266,2.53125 28.370711,2.2305777 28.22105,2.0162137 27.890625,1.8300781 27.5602,1.6439426 27.02781,1.5078125 26.251953,1.5078125 Z m -9.037109,2.0136719 c -0.709769,0.085522 -1.100786,0.3930797 -1.367188,0.8457031 -0.266402,0.4526234 -0.374669,1.081562 -0.330078,1.7207031 0.04459,0.6391412 0.241473,1.2809293 0.50586,1.7324219 0.264386,0.4514926 0.568831,0.6586595 0.767578,0.6699219 0.142381,0.00807 0.505506,-0.2028372 0.845703,-0.7207032 C 17.976916,7.2516653 18.270617,6.5122141 18.40625,5.7988281 18.541883,5.0854422 18.504636,4.4029593 18.318359,4.0136719 18.132083,3.6243845 17.909348,3.4378328 17.214844,3.5214844 Z M 11.074219,5.5136719 C 10.952271,5.5255776 10.810653,5.5575684 10.648438,5.6191406 9.9861498,5.8705347 9.7037805,6.250733 9.5742188,6.7421875 9.444657,7.233642 9.5135818,7.8605795 9.7363281,8.4648438 9.9590745,9.069108 10.332095,9.6434916 10.71875,10.017578 c 0.386655,0.374087 0.754557,0.503758 0.951172,0.466797 0.133254,-0.02499 0.385771,-0.258572 0.568359,-0.7714844 0.182589,-0.5129124 0.27949,-1.2237299 0.248047,-1.90625 -0.03144,-0.68252 -0.196138,-1.3370428 -0.449219,-1.75 C 11.784028,5.6436835 11.533526,5.4688294 11.074219,5.5136719 Z M 6.3710938,9.5078125 c -0.071753,-0.00275 -0.1742975,0.01502 -0.3515626,0.1542969 -0.3675493,0.2889588 -0.502254,0.6338456 -0.5117187,1.0722656 -0.00946,0.43842 0.1414004,0.958385 0.3867187,1.423828 0.2453184,0.465443 0.5857769,0.874472 0.8867188,1.107422 0.150471,0.116475 0.2905222,0.187761 0.3808594,0.212891 0.090337,0.02513 0.1132908,0.01172 0.125,0.0059 -0.029548,0.01415 0.1304064,-0.172646 0.1796875,-0.582031 0.049432,-0.41064 0.023833,-0.967922 -0.078125,-1.50586 C 7.2867133,10.858547 7.1071367,10.335207 6.8984375,9.984375 6.6897383,9.6335433 6.4954617,9.5125747 6.3710938,9.5078125 Z M 18.871094,12.464844 c -2.221922,-0.03625 -4.851332,0.421265 -7.011719,1.408203 -2.1507111,0.982518 -3.8010083,2.459897 -4.2949219,4.451172 -0.2765741,2.299921 0.7963866,5.122936 2.6796879,7.341797 1.891451,2.228463 4.557704,3.826171 7.333984,3.826172 2.61839,0 5.335297,-2.430153 5.921875,-5.509766 a 0.50789124,0.50789124 0 0 1 0,-0.0039 c 0.01894,-0.09415 0.01263,-0.09278 -0.02539,-0.140625 -0.03802,-0.04785 -0.147344,-0.131355 -0.330078,-0.199219 -0.365468,-0.135728 -0.983753,-0.199255 -1.603515,-0.160156 -0.619763,0.0391 -1.250146,0.176883 -1.654297,0.357422 -0.202076,0.09027 -0.342543,0.192999 -0.398438,0.255859 -0.05589,0.06286 -0.03903,0.04065 -0.03711,0.05078 a 0.50789124,0.50789124 0 0 1 0.0039,0.166016 c -0.113811,0.789571 -0.266402,1.424356 -0.478516,1.927734 -0.212113,0.503378 -0.489042,0.8988 -0.904296,1.111328 -0.415255,0.212529 -0.915439,0.165624 -1.339844,-0.04297 -0.421846,-0.207335 -0.818991,-0.555531 -1.240234,-1.023438 -0.587948,-0.587472 -0.93271,-1.186046 -1.003907,-1.802734 -0.07181,-0.622006 0.147456,-1.210087 0.507813,-1.710938 0.720714,-1.001701 1.990776,-1.802887 3.33789,-2.654297 1.347115,-0.851409 2.776704,-1.731643 3.785157,-2.703125 1.008452,-0.971482 1.574647,-1.962454 1.404297,-3.173828 -0.06345,-0.45117 -0.472805,-0.874147 -1.302735,-1.210937 -0.82993,-0.33679 -2.016472,-0.538799 -3.349609,-0.560547 z" fill="none"/><path stroke-linejoin="round" stroke="url(#linearGradient4201)" stroke-width="1" opacity="0.3" fill-opacity="1" id="path3385" transform="matrix(3.7910877 0 0 3.8276117 -160.84079 -122.92512)" fill-rule="nonzero" d="m 26.251953,2.5097656 c -2.652234,0 -4.01815,1.6871058 -4.541015,3.4257813 -0.261433,0.8693377 -0.226967,1.7159495 -0.07227,2.1425781 0.1547,0.4266286 0.116121,0.4121094 0.449219,0.4121094 0.332874,0 1.306555,-0.361879 2.24414,-1.0898438 0.937585,-0.7279648 1.871081,-1.7537692 2.462891,-2.7011718 0.59181,-0.9474027 0.712986,-1.7968102 0.68164,-1.9199219 -0.01567,-0.061556 0.04231,-0.010279 -0.07812,-0.078125 -0.12044,-0.067846 -0.483386,-0.1914063 -1.146485,-0.1914063 z m -8.837891,1.9355469 c -0.03501,-0.073171 0.312955,0.022973 -0.08008,0.070312 -0.439014,0.052898 -0.495051,0.1419069 -0.623046,0.359375 -0.127996,0.2174681 -0.227419,0.6543883 -0.19336,1.1425781 0.02914,0.4176996 0.176098,0.8094164 0.31836,1.109375 0.235958,-0.3860051 0.481565,-0.9666605 0.585937,-1.515625 0.110848,-0.5830267 0.0272,-1.092845 -0.0078,-1.1660156 z m -6.242187,2.0644531 c -0.02113,0.00206 -0.07674,0.012247 -0.167969,0.046875 -0.404545,0.1535592 -0.403442,0.2213603 -0.460937,0.4394532 -0.0575,0.2180928 -0.03609,0.6595394 0.134765,1.1230468 0.149408,0.4053106 0.412754,0.7672838 0.646485,1.0292969 0.09614,-0.3586859 0.18218,-0.8168583 0.160156,-1.2949219 -0.02591,-0.5624744 -0.181956,-1.0795481 -0.300781,-1.2734375 -0.118825,-0.1938894 0.07348,-0.078631 -0.01172,-0.070312 z m 7.681641,6.9570314 c -2.073805,-0.03383 -4.588211,0.409299 -6.578125,1.318359 -1.954873,0.893053 -3.2863915,2.154693 -3.7031254,3.72461 -0.2036615,1.903723 0.7154782,4.481268 2.4355464,6.507812 1.396227,1.645001 3.254893,2.659612 5.160157,3.087891 -0.532338,-0.289429 -0.973883,-0.664531 -1.402344,-1.138672 -0.679921,-0.685639 -1.169944,-1.478562 -1.273437,-2.375 -0.105444,-0.913329 0.234545,-1.773224 0.691406,-2.408203 0.913722,-1.269958 2.259263,-2.059009 3.615234,-2.916016 1.355971,-0.857007 2.735877,-1.723551 3.625,-2.580078 0.889124,-0.856527 1.222872,-1.489576 1.107422,-2.310547 0.0048,0.034 -0.03046,-0.155245 -0.6875,-0.421875 -0.657039,-0.26663 -1.745999,-0.467983 -2.990234,-0.488281 z m 2.75,11.011719 c -0.48991,0.03091 -0.970238,0.153234 -1.228516,0.255859 -0.11571,0.702206 -0.245116,1.346002 -0.474609,1.890625 -0.263904,0.626284 -0.650115,1.245235 -1.373047,1.615234 -0.335255,0.171585 -0.710018,0.220063 -1.076172,0.214844 0.04315,9.14e-4 0.08382,0.03516 0.126953,0.03516 1.819089,0 3.884192,-1.709251 4.658203,-3.958984 -0.22147,-0.02508 -0.356055,-0.07019 -0.632812,-0.05273 z" fill="none"/></g></svg>