<?xml version="1.0" encoding="UTF-8" standalone="no"?><svg xmlns:cc="http://creativecommons.org/ns#" xmlns:svg="http://www.w3.org/2000/svg" xmlns:dc="http://purl.org/dc/elements/1.1/" xmlns="http://www.w3.org/2000/svg" xmlns:rdf="http://www.w3.org/1999/02/22-rdf-syntax-ns#" id="svg2" version="1.1" xmlns:xlink="http://www.w3.org/1999/xlink" viewBox="0 0 48 48"><defs id="defs4"><linearGradient id="linearGradient4589"><stop stop-opacity="1" id="stop4591" stop-color="#c4c4c4"/><stop stop-opacity="1" id="stop4593" stop-color="#fff" offset="1"/></linearGradient><linearGradient gradientUnits="userSpaceOnUse" y1="4.02" id="0" y2="44.02" x2="0"><stop id="stop7" stop-color="#fff"/><stop stop-opacity="0" id="stop9" stop-color="#fff" offset="1"/></linearGradient><linearGradient gradientUnits="userSpaceOnUse" y1="3" id="1" y2="45" x2="0"><stop stop-opacity="1" id="stop12" stop-color="#171717"/><stop stop-opacity="1" id="stop14" stop-color="#6a6a6a" offset="1"/></linearGradient><linearGradient gradientUnits="userSpaceOnUse" xlink:href="#linearGradient4589" y1="17" id="linearGradient4595" x1="36" y2="42" x2="36"/></defs><rect ry="4" width="42" rx="4" height="42" opacity="0.1" id="rect16" y="4" x="3"/><rect ry="4" width="42" rx="4" height="42" id="rect18" y="3" x="3" fill="url(#1)"/><path block-progression="tb" fill-rule="evenodd" text-rendering="auto" opacity="0.4" font-stretch="normal" text-decoration="none" stroke-width="3" stroke-linejoin="round" text-anchor="start" display="inline" color-rendering="auto" font-variant="normal" text-align="start" font-size="0" stroke-opacity="1" baseline-shift="0" stroke="none" color-interpolation="sRGB" clip-rule="nonzero" stroke-dasharray="none" shape-rendering="auto" color-interpolation-filters="linearRGB" fill="#000" id="path4587" image-rendering="auto" font-weight="normal" direction="ltr" fill-opacity="1" enable-background="accumulate" letter-spacing="0" font-family="sans-serif" font-style="normal" stroke-linecap="round" color="#000" stroke-dashoffset="0" stroke-miterlimit="4" writing-mode="lr-tb" line-height="normal" visibility="visible" word-spacing="0" overflow="visible" d="m 27.5,4.9667969 c -1.326707,0 -2.533203,1.2064962 -2.533203,2.5332031 0,0.049773 0.0533,0.083433 0.05664,0.1328125 C 24.5826,7.2698935 24.073176,6.9667969 23.5,6.9667969 c -1.326707,0 -2.533203,1.2064962 -2.533203,2.5332031 0,1.326707 1.206496,2.533203 2.533203,2.533203 1.326707,0 2.533203,-1.206496 2.533203,-2.533203 0,-0.049773 -0.0533,-0.083433 -0.05664,-0.1328125 0.440838,0.362919 0.950262,0.6660155 1.523438,0.6660155 1.326707,0 2.533203,-1.2064961 2.533203,-2.533203 0,-1.3267069 -1.206496,-2.5332031 -2.533203,-2.5332031 z m 1,5 c -0.925153,0 -1.843865,0.3809741 -2.498047,1.0351561 -0.654182,0.654182 -1.035156,1.572894 -1.035156,2.498047 0,0.925153 0.380974,1.843865 1.035156,2.498047 0.654182,0.654182 1.572894,1.035156 2.498047,1.035156 0.925153,0 1.843865,-0.380974 2.498047,-1.035156 0.654182,-0.654182 1.035156,-1.572894 1.035156,-2.498047 0,-0.925153 -0.380974,-1.843865 -1.035156,-2.498047 C 30.343865,10.347771 29.425153,9.9667969 28.5,9.9667969 Z M 21,11.966797 c -1.588506,0 -3.033203,1.444697 -3.033203,3.033203 0,0.588686 0.350921,1.083324 0.681641,1.566406 -0.542234,-0.381127 -1.187686,-0.590833 -1.851563,-0.599609 a 1.033927,1.033927 0 0 0 -0.0039,0 C 15.90275,15.956003 15.047186,16.307067 14.419922,16.9375 11.555935,19.815762 9.9691412,23.759585 9.9667969,27.861328 9.9670364,36.117253 16.411755,43.033203 24.5,43.033203 c 8.088245,0 14.532964,-6.91595 14.533203,-15.171875 l 0,-0.002 c 0,0 0,-0.002 0,-0.002 a 1.033927,1.033927 0 0 0 0,-0.002 c -0.0062,-4.100923 -1.596178,-8.04122 -4.460937,-10.916016 -0.0011,-0.0011 -0.0028,-0.0028 -0.0039,-0.0039 -1.128185,-1.126871 -2.918135,-1.280688 -4.222656,-0.363281 -1.584277,1.111949 -3.682585,1.774607 -5.84375,1.777343 -1.081725,-9.56e-4 -2.145415,-0.169445 -3.138672,-0.474609 1.420668,-0.21832 2.669922,-1.423038 2.669922,-2.875 0,-1.588506 -1.444697,-3.033203 -3.033203,-3.033203 z m -3.607422,9.527344 c 2.149971,1.152896 4.544419,1.919231 7.103516,1.921875 0.0022,2e-6 0.0056,2e-6 0.0078,0 2.556211,-0.0022 4.948871,-0.765778 7.097656,-1.916016 1.430684,1.801647 2.361657,3.991833 2.365235,6.363281 -0.0012,5.651174 -4.273432,10.103516 -9.466797,10.103516 -5.193982,0 -9.466632,-4.453338 -9.466797,-10.105469 0.0014,-2.373939 0.9292,-4.563977 2.359375,-6.367187 z"/><path block-progression="tb" fill-rule="evenodd" text-rendering="auto" opacity="1" font-stretch="normal" text-decoration="none" stroke-width="3" stroke-linejoin="round" text-anchor="start" display="inline" color-rendering="auto" font-variant="normal" text-align="start" font-size="0" stroke-opacity="1" baseline-shift="0" stroke="url(#linearGradient4595)" color-interpolation="sRGB" clip-rule="nonzero" stroke-dasharray="none" shape-rendering="auto" color-interpolation-filters="linearRGB" fill="none" id="path3753" image-rendering="auto" font-weight="normal" direction="ltr" fill-opacity="1" enable-background="accumulate" letter-spacing="0" font-family="sans-serif" font-style="normal" stroke-linecap="round" color="#000" stroke-dashoffset="0" stroke-miterlimit="4" writing-mode="lr-tb" line-height="normal" visibility="visible" word-spacing="0" overflow="visible" d="m 16.763672,18.5 a 0.76026126,0.76026126 0 0 0 -0.548828,0.224609 C 13.838521,21.112777 12.501971,24.413089 12.5,27.861328 12.500202,34.810454 17.858371,40.5 24.5,40.5 c 6.641629,0 11.999798,-5.689546 12,-12.638672 a 0.76026126,0.76026126 0 0 0 0,-0.002 C 36.4948,24.41226 35.154543,21.113996 32.777344,18.728469 a 0.76026126,0.76026126 0 0 0 -0.97461,-0.08398 C 29.754421,20.082937 27.169983,20.880775 24.5,20.88277 21.827279,20.88037 19.240292,20.080033 17.191406,18.63863 A 0.76026126,0.76026126 0 0 0 16.763672,18.5 Z"/><g id="g20" fill="none"><path stroke="#000" opacity="0.45" d="m 7,3.5128 c -1.94587,0 -3.5,1.5541 -3.5,3.5 l 0,34 c 0,1.9459 1.55413,3.5 3.5,3.5 l 34,0 c 1.94587,0 3.5,-1.5541 3.5,-3.5 l 0,-34 c 0,-1.9459 -1.55413,-3.5 -3.5,-3.5 l -34,0 z" id="path22"/><path stroke="url(#0)" opacity="0.25" d="m 7,4.5128 c -1.40738,0 -2.5,1.0926 -2.5,2.5 l 0,34 c 0,1.4074 1.09262,2.5 2.5,2.5 l 34,0 c 1.40738,0 2.5,-1.0926 2.5,-2.5 l 0,-34 c 0,-1.4074 -1.09262,-2.5 -2.5,-2.5 l -34,0 z" id="path24"/></g><circle cy="13.5" cx="28.5" stroke="none" stroke-width="3" opacity="1" r="2.5" stroke-dashoffset="0" stroke-dasharray="none" stroke-linejoin="round" id="circle4564" fill-rule="evenodd" stroke-miterlimit="4" fill="#00b7ff" stroke-linecap="round" stroke-opacity="1" fill-opacity="1"/><circle cy="9.5" cx="23.5" stroke="none" stroke-width="3" opacity="1" r="1.5" stroke-dashoffset="0" stroke-dasharray="none" stroke-linejoin="round" id="circle4566" fill-rule="evenodd" stroke-miterlimit="4" fill="#00b7ff" stroke-linecap="round" stroke-opacity="1" fill-opacity="1"/><circle cy="15" cx="21" stroke="none" stroke-width="3" opacity="1" r="2" stroke-dashoffset="0" stroke-dasharray="none" stroke-linejoin="round" id="circle4562" fill-rule="evenodd" stroke-miterlimit="4" fill="#00b7ff" stroke-linecap="round" stroke-opacity="1" fill-opacity="1"/><circle cy="7.5" cx="27.5" stroke="none" stroke-width="3" opacity="1" r="1.5" stroke-dashoffset="0" stroke-dasharray="none" stroke-linejoin="round" id="path4560" fill-rule="evenodd" stroke-miterlimit="4" fill="#00b7ff" stroke-linecap="round" stroke-opacity="1" fill-opacity="1"/><metadata id="metadata9999"><rdf:RDF><cc:Work><dc:format>image/svg+xml</dc:format><dc:type rdf:resource="http://purl.org/dc/dcmitype/StillImage"/><dc:title/><cc:license rdf:resource="http://creativecommons.org/licenses/by-sa/4.0/"/><dc:creator><cc:Agent><dc:title>Sixsixfive (sixsixfive.deviantart.com)</dc:title></cc:Agent></dc:creator><dc:publisher><cc:Agent><dc:title>Sixsixfive (sixsixfive.deviantart.com)</dc:title></cc:Agent></dc:publisher><dc:source>https://github.com/sixsixfive</dc:source><dc:subject><rdf:Bag><rdf:li>ivy</rdf:li></rdf:Bag></dc:subject><dc:contributor><cc:Agent><dc:title>ssf</dc:title></cc:Agent></dc:contributor><dc:rights><cc:Agent><dc:title>Sixsixfive (sixisixfive.deviantart.com)</dc:title></cc:Agent></dc:rights><dc:description>A simple icon theme published under CC-BY-SA_V4(http://creativecommons.org/licenses/by-sa/4.0)</dc:description><dc:identifier>SSF</dc:identifier></cc:Work></rdf:RDF></metadata><!--Part of the Ivy icon them published under the CC-BY-SA_V4: http://creativecommons.org/licenses/by-sa/4.0 -->
</svg>