<?xml version="1.0" encoding="UTF-8" standalone="no"?><svg xmlns:rdf="http://www.w3.org/1999/02/22-rdf-syntax-ns#" xmlns:cc="http://creativecommons.org/ns#" xmlns:svg="http://www.w3.org/2000/svg" id="svg2" viewBox="0 0 16 16" version="1.1" xmlns:xlink="http://www.w3.org/1999/xlink" xmlns:dc="http://purl.org/dc/elements/1.1/" xmlns="http://www.w3.org/2000/svg"><defs id="0"><linearGradient id="linearGradient4165"><stop id="stop4167" stop-color="#ebebeb"/><stop offset="1" id="stop4169" stop-color="#bdbdbd"/></linearGradient><linearGradient id="8" x2="46.992" y2="43.525" gradientTransform="matrix(0.35105 0 0 0.35 -0.425 -0.4)" x1="47.38" y1="4.271" gradientUnits="userSpaceOnUse"><stop id="C" stop-color="#d02604"/><stop offset="1" id="D" stop-color="#fc593b"/></linearGradient><linearGradient id="9" x2="0" y2="13.7" y1="2.317" gradientUnits="userSpaceOnUse"><stop id="E" stop-color="#fff"/><stop offset="1" id="F" stop-color="#fff" stop-opacity="0"/></linearGradient><linearGradient id="linearGradient4171" x2="0" y2="5" xlink:href="#linearGradient4165" y1="10" gradientUnits="userSpaceOnUse"/></defs><path id="2" d="M 7.9633,1 C 7.730774,1.00262 7.523804,1.127746 7.407385,1.328444 l -7.3299,12.686196 c -0.114782,0.203217 -0.097253,0.455432 0.020587,0.656893 0.117842,0.201463 0.321997,0.327981 0.555916,0.328445 l 14.6803,-0.0205 c 0.190556,0.0011 0.388758,-0.08325 0.514735,-0.225809 0.125975,-0.142547 0.169227,-0.324862 0.144127,-0.513196 -0.01131,-0.07997 -0.02237,-0.175753 -0.06177,-0.246331 L 8.53978,1.307942 C 8.418776,1.10996 8.195803,0.997366 7.963278,1.00002 z" fill="url(#8)"/><path id="path4163" opacity="0.26" d="m 8.012844,11 c -1.0984868,0 -1.9889854,0.654731 -1.9889854,1.462383 0,0.80765 0.8904986,1.462383 1.9889854,1.462383 1.0984867,0 1.988985,-0.654733 1.988985,-1.462383 C 10.001829,11.654731 9.1113307,11 8.012844,11 Z"/><path id="path4161" opacity="0.25" d="m 7.987156,3.9706479 c -0.8609973,0.00288 -1.9728271,0.3931312 -2.0074553,1.2273884 0,4.5745611 0,0 0,4.5745611 0.023556,0.8344246 1.146458,1.2245056 2.0074553,1.2273876 0.8609974,0.0028 1.9837778,-0.380771 2.0074554,-1.2136579 0,-4.6020201 0,0 0,-4.6020201 C 9.9638551,4.3515188 8.8481534,3.9677885 7.987156,3.9706479 Z" fill="#171717"/><path id="7" d="M 8,5 C 7,5 7.0748329,5.2796359 7.0585938,5.8730469 l 0,3.2539062 C 7.0696404,9.7204835 7.596231,9.99795 8,10 8.403769,10.002 8.9303025,9.7291562 8.9414062,9.1367188 l 0,-3.2734376 C 8.9269829,5.2709152 9,5 8,5 Z" fill="url(#linearGradient4171)"/><path id="4" d="m 8,11 c -0.552285,0 -1,0.447715 -1,1 0,0.552284 0.447715,1 1,1 0.552285,0 1,-0.447716 1,-1 0,-0.552285 -0.447715,-1 -1,-1 z" fill="#ebebeb"/><g stroke-linecap="round" id="6" fill="none"><path id="A" opacity="0.4" d="m 7.96875,1.53125 c -0.026509,2.99e-4 -0.094366,0.00969 -0.125,0.0625 L 0.5,14.25 l 0.03125,0 c -0.006314,0.01118 -0.040724,0.08663 0,0.15625 0.035008,0.05985 0.100939,0.06245 0.125,0.0625 l 14.6875,-0.03125 c 0.04782,2.76e-4 0.103302,-0.0067 0.125,-0.03125 0.04078,-0.04614 0.0065,-0.04528 0,-0.09375 l 0.03125,0 C 15.48733,14.22294 15.42822,14.177403 15.46875,14.25 L 15.5,14.25 8.09375,1.59375 C 8.06419,1.545381 8.0228,1.530632 7.96875,1.53125 Z" stroke="#000" stroke-linejoin="round"/><path id="B" opacity="0.33" d="M 7.9688,3.3125 2.0938,13.4687 13.875,13.4375 Z" stroke="url(#9)"/></g><path stroke-linecap="butt" id="path4173" opacity="0.2296" d="M 8,2.3340204 6.6788622,4.5431825 9.2733433,4.5688704 Z" fill-rule="evenodd" fill="#fff"/><metadata id="metadata9999"><rdf:RDF><cc:Work><dc:format>image/svg+xml</dc:format><dc:type rdf:resource="http://purl.org/dc/dcmitype/StillImage"/><dc:title>Ivy icon theme</dc:title><cc:license rdf:resource="http://creativecommons.org/licenses/by-sa/4.0/"/><dc:creator><cc:Agent><dc:title>Sixsixfive (sixsixfive.deviantart.com)</dc:title></cc:Agent></dc:creator><dc:publisher><cc:Agent><dc:title>Sixsixfive (sixsixfive.deviantart.com)</dc:title></cc:Agent></dc:publisher><dc:source>https://github.com/sixsixfive</dc:source><dc:subject><rdf:Bag><rdf:li>ivy</rdf:li></rdf:Bag></dc:subject><dc:contributor><cc:Agent><dc:title>ssf</dc:title></cc:Agent></dc:contributor><dc:rights><cc:Agent><dc:title>Sixsixfive (sixisixfive.deviantart.com)</dc:title></cc:Agent></dc:rights><dc:description>A simple icon theme published under CC-BY-SA_V4(http://creativecommons.org/licenses/by-sa/4.0)</dc:description><dc:identifier>SSF</dc:identifier></cc:Work></rdf:RDF></metadata><!--Part of the Ivy icon them published under the CC-BY-SA_V4: http://creativecommons.org/licenses/by-sa/4.0 -->
</svg>