<?xml version="1.0" encoding="UTF-8" standalone="no"?><svg xmlns:cc="http://creativecommons.org/ns#" xmlns:svg="http://www.w3.org/2000/svg" xmlns:dc="http://purl.org/dc/elements/1.1/" xmlns="http://www.w3.org/2000/svg" xmlns:rdf="http://www.w3.org/1999/02/22-rdf-syntax-ns#" id="svg2" version="1.1" viewBox="0 0 16 16"><defs id="defs4"><linearGradient gradientTransform="matrix(0.30951 0 0 0.31981 -1.536 -4.19)" gradientUnits="userSpaceOnUse" y1="13.04" id="0" y2="56.805" x2="0"><stop id="stop7" stop-color="#171717"/><stop id="stop9" stop-color="#a1a1a1" offset="1"/></linearGradient><linearGradient gradientTransform="matrix(0.33333 0 0 0.33322 0.064 -0.683)" gradientUnits="userSpaceOnUse" y1="8.998" id="1" y2="43.998" x2="0"><stop id="stop12" stop-color="#171717"/><stop id="stop14" stop-color="#6a6a6a" offset="1"/></linearGradient><linearGradient gradientTransform="matrix(0.32381 0 0 0.33322 0.493 -0.683)" gradientUnits="userSpaceOnUse" y1="9.476" id="2" y2="44.48" x2="0"><stop id="stop17" stop-color="#ebebeb"/><stop id="stop19" stop-color="#fff" offset="1"/></linearGradient></defs><path d="m 15.0642 6.9798 a 6.5244 6.997591 0 1 1 -13.0488 0 6.5244 6.997591 0 1 1 13.0488 0 z" id="path21" fill="url(#0)"/><path d="m 9.998 2.015 v 4.9648 h -3.967 v 3.9652 h -4.9668 v 3.0324 h 4.6667 h 4.6667 h 4.6667 v -11.9624 z" id="path23" fill="url(#1)"/><path d="m 10.031,2.016 0,4.9646 -4.0336,0 -3e-4,4.0654 H 3.37099 c 1.18595,1.42782 3.30296,2.93226 5.21696,2.93226 3.57491,0 6.47629,-3.13496 6.47629,-6.99762 0,-1.7946 -1.06425,-3.98065 -2.05925,-4.96465 z" id="path25" fill="url(#2)"/><path stroke="#000" opacity="0.4" d="m 10.5312,2.5312 0,4.4375 A 0.521724,0.521724 0 0 1 9.99995,7.49995 h -3.4375 v 3.4375 A 0.521724,0.521724 0 0 1 6.0312,11.4687 H 1.5937 v 1.96875 h 4.125 4.6875 4.125 V 2.53125 h -4 z" id="path27" fill="none"/><path opacity="0.4" d="m 8.7188 -0.0312 a 6.52439 6.99758 0 0 0 -6.71875 7 6.53125 7.00493 0 1 0 13.0625 0 6.52439 6.99758 0 0 0 -6.34375 -7 z M 8.0626 1 a 5.5 5.99919 0 0 1 5.90625 5.96875 5.5 5.99919 0 0 1 -11 0 A 5.5 5.99919 0 0 1 8.0626 1 z" id="path29"/><g id="g31" fill="#fff"><path opacity="0.5" d="m 11,3 3,0 0,1 -3,0 z" id="path33"/><path d="m 7.159,8.03 3,0 0,1 -3,0 z" id="path35"/><path opacity="0.5" d="m 2.132,11.916 3,0 0,1 -3,0 z" id="path37"/><path opacity="0.2" d="m 6.874,1.01 3,0 0,1 -3,0 z" id="path39"/></g><path opacity="0.8" d="M 10,2 H11 V8 H10 z" id="path41"/><path opacity="0.8" d="M 7,7 H10 V8 H7 z" id="path43"/><path opacity="0.8" d="M 6,7 H7 V12 H6 z" id="path45"/><metadata id="metadata9999"><rdf:RDF><cc:Work><dc:format>image/svg+xml</dc:format><dc:type rdf:resource="http://purl.org/dc/dcmitype/StillImage"/><dc:title>Ivy icon theme</dc:title><cc:license rdf:resource="http://creativecommons.org/licenses/by-sa/4.0/"/><dc:creator><cc:Agent><dc:title>Sixsixfive (sixsixfive.deviantart.com)</dc:title></cc:Agent></dc:creator><dc:publisher><cc:Agent><dc:title>Sixsixfive (sixsixfive.deviantart.com)</dc:title></cc:Agent></dc:publisher><dc:source>https://github.com/sixsixfive</dc:source><dc:subject><rdf:Bag><rdf:li>ivy</rdf:li></rdf:Bag></dc:subject><dc:contributor><cc:Agent><dc:title>ssf</dc:title></cc:Agent></dc:contributor><dc:rights><cc:Agent><dc:title>Sixsixfive (sixisixfive.deviantart.com)</dc:title></cc:Agent></dc:rights><dc:description>A simple icon theme published under CC-BY-SA_V4(http://creativecommons.org/licenses/by-sa/4.0)</dc:description><dc:identifier>SSF</dc:identifier></cc:Work></rdf:RDF></metadata><!--Part of the Ivy icon them published under the CC-BY-SA_V4: http://creativecommons.org/licenses/by-sa/4.0 -->
</svg>