<?xml version="1.0" encoding="UTF-8" standalone="no"?><svg xmlns:cc="http://creativecommons.org/ns#" xmlns:dc="http://purl.org/dc/elements/1.1/" xmlns="http://www.w3.org/2000/svg" xmlns:svg="http://www.w3.org/2000/svg" xmlns:rdf="http://www.w3.org/1999/02/22-rdf-syntax-ns#" id="svg2" version="1.1" viewBox="0 0 16 16"><defs id="defs4"><linearGradient gradientUnits="userSpaceOnUse" y1="-0.032" id="0" y2="16.01" x2="0"><stop id="stop7" stop-color="#d02604"/><stop id="stop9" stop-color="#fb5736" offset="1"/></linearGradient><linearGradient gradientUnits="userSpaceOnUse" y1="1" id="1" y2="15" x2="0"><stop id="stop12" stop-color="#fff"/><stop stop-opacity="0" id="stop14" stop-color="#fff" offset="1"/></linearGradient></defs><path d="m 5,0 -5,5 0,6 5,5 6,0 5,-5 0,-6 -5,-5 z" id="path16" fill-rule="evenodd" fill="url(#0)"/><path opacity="0.31" d="M 5.8043,2.9546 4,4.7589 6.2128,6.9603 4.0454,9.1277 5.8383,10.9206 8.0057,8.7532 10.1617,10.9206 11.966,9.1163 9.7986,6.9603 12,4.7589 10.2071,2.966 8.0057,5.1674 5.8043,2.9546 z" id="path18"/><g id="g20" fill="none"><path stroke="#000" opacity="0.64" d="M 5.1875,0.5 0.5,5.21875 l 0,5.5625 4.71875,4.71875 5.5625,0 L 15.5,10.78125 15.5,5.21875 10.78125,0.5 5.1875,0.5 Z" id="path22"/><path stroke="url(#1)" opacity="0.4" d="M 5.625,1.5 1.5,5.625 l 0,4.75 4.125,4.125 4.75,0 4.125,-4.125 0,-4.75 -4.125,-4.125 -4.75,0 z" id="path24"/></g><path d="M 5.8043,3.9887 4,5.793 6.2128,7.9944 4.0454,10.1618 5.8383,11.9547 8.0057,9.7873 10.1617,11.9547 11.966,10.1504 9.7986,7.9944 12,5.793 10.2071,4.0001 8.0057,6.2015 5.8043,3.9887 z" id="path26" fill="#fff"/><metadata id="metadata9999"><rdf:RDF><cc:Work><dc:format>image/svg+xml</dc:format><dc:type rdf:resource="http://purl.org/dc/dcmitype/StillImage"/><dc:title>Ivy icon theme</dc:title><cc:license rdf:resource="http://creativecommons.org/licenses/by-sa/4.0/"/><dc:creator><cc:Agent><dc:title>Sixsixfive (sixsixfive.deviantart.com)</dc:title></cc:Agent></dc:creator><dc:publisher><cc:Agent><dc:title>Sixsixfive (sixsixfive.deviantart.com)</dc:title></cc:Agent></dc:publisher><dc:source>https://github.com/sixsixfive</dc:source><dc:subject><rdf:Bag><rdf:li>ivy</rdf:li></rdf:Bag></dc:subject><dc:contributor><cc:Agent><dc:title>ssf</dc:title></cc:Agent></dc:contributor><dc:rights><cc:Agent><dc:title>Sixsixfive (sixisixfive.deviantart.com)</dc:title></cc:Agent></dc:rights><dc:description>A simple icon theme published under CC-BY-SA_V4(http://creativecommons.org/licenses/by-sa/4.0)</dc:description><dc:identifier>SSF</dc:identifier></cc:Work></rdf:RDF></metadata><!--Part of the Ivy icon them published under the CC-BY-SA_V4: http://creativecommons.org/licenses/by-sa/4.0 -->
</svg>