<?xml version="1.0" encoding="UTF-8" standalone="no"?>
<svg xmlns:dc="http://purl.org/dc/elements/1.1/" xmlns:cc="http://creativecommons.org/ns#" xmlns:rdf="http://www.w3.org/1999/02/22-rdf-syntax-ns#" xmlns:svg="http://www.w3.org/2000/svg" xmlns="http://www.w3.org/2000/svg" xmlns:xlink="http://www.w3.org/1999/xlink" version="1.1" viewBox="0 0 16 16" id="svg2">
 <defs id="defs4">
  <linearGradient gradientUnits="userSpaceOnUse" x2="-0.001" y2="22.624" x1="11.311" y1="11.313" id="0">
   <stop id="stop7" stop-color="#ffb636"/>
   <stop id="stop9" stop-color="#ffe775" offset="1"/>
  </linearGradient>
  <linearGradient gradientTransform="matrix(0.80816,-0.80816,0.80816,0.80816,-1.143,-1.143)" gradientUnits="userSpaceOnUse" x2="-1.213" y2="15.356" x1="5.657" y1="8.485" id="1">
   <stop id="stop12" stop-color="#fff"/>
   <stop id="stop14" stop-opacity="0" stop-color="#fff" offset="1"/>
  </linearGradient>
  <linearGradient gradientUnits="userSpaceOnUse" y2="33.039" x2="30.983452" y1="15.961003" x1="30.95437" id="linearGradient4180" xlink:href="#linearGradient4174" gradientTransform="matrix(0.39938348,0,0,0.41176469,-1.780272,-1.5882347)"/>
  <linearGradient id="linearGradient4174">
   <stop id="stop4176" stop-color="#171717"/>
   <stop id="stop4178" offset="1" stop-color="#6a6a6a"/>
  </linearGradient>
 </defs>
 <rect id="rect16" transform="matrix(0.70711 -0.70711 0.70711 0.70711 0 0)" height="11.705" rx="0.669" fill="url(#0)" y="5.461" x="-5.852" width="11.705" ry="0.669"/>
 <path d="M 7.0061644,6 11,6 11,10.117647 9.8018495,8.8823534 C 8.2253082,8.8737764 5.7744971,10.542551 5.4086307,13 3.9801023,9.8733135 6.633216,7.2357828 8.2043149,7.2352941 Z" id="path3385" opacity="0.6428" fill="#ebebeb" fill-rule="evenodd"/>
 <path d="m 2.03913,7.89829 a 0.2569435,0.2569435 0 0 0 0,0.15153 0.2569435,0.2569435 0 0 0 0.05051,0.10102 0.2569435,0.2569435 0 0 0 0.025255,0.025255 l 5.70763,5.70763 a 0.2569435,0.2569435 0 0 0 0.025255,0.02525 0.2569435,0.2569435 0 0 0 0.20204,0.05051 0.2569435,0.2569435 0 0 0 0.10102,-0.05051 0.2569435,0.2569435 0 0 0 0.025255,-0.02525 l 5.70763,-5.70763 A 0.2569435,0.2569435 0 0 0 13.90898,8.15084 0.2569435,0.2569435 0 0 0 13.95949,7.9488 0.2569435,0.2569435 0 0 0 13.90898,7.84778 0.2569435,0.2569435 0 0 0 13.883725,7.822525 L 8.176095,2.114895 A 0.2569435,0.2569435 0 0 0 8.15084,2.08964 0.2569435,0.2569435 0 0 0 7.9488,2.03913 0.2569435,0.2569435 0 0 0 7.84778,2.08964 0.2569435,0.2569435 0 0 0 7.822525,2.114895 l -5.70763,5.70763 A 0.2569435,0.2569435 0 0 0 2.08964,7.84778 0.2569435,0.2569435 0 0 0 2.03913,7.89829 Z" stroke-miterlimit="14.4" id="path32" opacity="0.4" fill="none" stroke="url(#1)" stroke-width="1.043478"/>
 <path id="path3370" d="M 7.0061644,5 11,5 11,9.1176475 9.8018495,7.8823534 C 8.2253082,7.8737764 5.7744971,9.5425509 5.4086307,12 3.9801023,8.8733135 6.633216,6.2357828 8.2043149,6.2352941 Z" fill="url(#linearGradient4180)" fill-rule="evenodd"/>
 <path d="M 0.549085,7.873035 C 0.51122674,7.9108933 0.52383,7.9581795 0.52383,7.99931 c 0,0.041131 -0.0126033,0.088417 0.025255,0.126275 l 7.32395,7.32395 c 0.037854,0.03785 0.085141,0.02525 0.126275,0.02526 0.041132,0 0.088418,0.0126 0.126275,-0.02526 l 7.32395,-7.32395 c 0.03786,-0.037857 0.02526,-0.085141 0.02526,-0.126275 -2e-6,-0.041134 0.0126,-0.088421 -0.02526,-0.126275 L 8.125585,0.549085 C 8.0877267,0.51122674 8.0404405,0.52383 7.99931,0.52383 c -0.041131,0 -0.088417,-0.0126033 -0.126275,0.025255 l -7.32395,7.32395 z" id="path30" opacity="0.5" fill="none" stroke="#000" stroke-width="1.00005"/>
 <metadata id="metadata9999">
  <rdf:RDF>
   <cc:Work>
    <dc:format>image/svg+xml</dc:format>
    <dc:type rdf:resource="http://purl.org/dc/dcmitype/StillImage"/>
    <dc:title>Ivy icon theme</dc:title>
    <cc:license rdf:resource="http://creativecommons.org/licenses/by-sa/4.0/"/>
    <dc:creator>
     <cc:Agent>
      <dc:title>Sixsixfive (sixsixfive.deviantart.com)</dc:title>
     </cc:Agent>
    </dc:creator>
    <dc:publisher>
     <cc:Agent>
      <dc:title>Sixsixfive (sixsixfive.deviantart.com)</dc:title>
     </cc:Agent>
    </dc:publisher>
    <dc:source>https://github.com/sixsixfive</dc:source>
    <dc:subject>
     <rdf:Bag>
      <rdf:li>ivy</rdf:li>
     </rdf:Bag>
    </dc:subject>
    <dc:contributor>
     <cc:Agent>
      <dc:title>ssf</dc:title>
     </cc:Agent>
    </dc:contributor>
    <dc:rights>
     <cc:Agent>
      <dc:title>Sixsixfive (sixisixfive.deviantart.com)</dc:title>
     </cc:Agent>
    </dc:rights>
    <dc:description>A simple icon theme published under CC-BY-SA_V4(http://creativecommons.org/licenses/by-sa/4.0)</dc:description>
    <dc:identifier>SSF</dc:identifier>
   </cc:Work>
  </rdf:RDF>
 </metadata>
 <!--Part of the Ivy icon them published under the CC-BY-SA_V4: http://creativecommons.org/licenses/by-sa/4.0 -->
</svg>
