<?xml version="1.0" encoding="UTF-8" standalone="no"?><svg xmlns:svg="http://www.w3.org/2000/svg" viewBox="0 0 48 48" xmlns="http://www.w3.org/2000/svg" xmlns:rdf="http://www.w3.org/1999/02/22-rdf-syntax-ns#" xmlns:xlink="http://www.w3.org/1999/xlink" version="1.1" id="svg2" xmlns:dc="http://purl.org/dc/elements/1.1/" xmlns:cc="http://creativecommons.org/ns#"><defs id="defs4"><linearGradient id="linearGradient4194"><stop id="stop4196" stop-color="#fff"/><stop stop-opacity="0" offset="1" id="stop4198" stop-color="#fff"/></linearGradient><linearGradient id="linearGradient4172"><stop id="stop4174" stop-color="#ffb906"/><stop offset="1" id="stop4176" stop-color="#ffd60d"/></linearGradient><linearGradient xlink:href="#linearGradient4172" y1="1011.3622" x2="0" y2="1045.3622" id="linearGradient4178" gradientUnits="userSpaceOnUse"/><linearGradient xlink:href="#linearGradient4194" y1="1012.3622" x2="0" y2="1044.3622" id="linearGradient4200" gradientUnits="userSpaceOnUse"/></defs><g id="layer1" transform="matrix(1 0 0 1 0 -1004.3622)"><path opacity="0.1" id="rect4202" fill-rule="evenodd" d="m 10,1012.3622 28,0 c 3.324,0 6,2.676 6,6 l 0,22 c 0,3.324 -2.676,6 -6,6 l -28,0 c -3.324,0 -6,-2.676 -6,-6 l 0,-22 c 0,-3.324 2.676,-6 6,-6 z"/><path id="rect3338" fill-rule="evenodd" d="m 10,1011.3622 28,0 c 3.324,0 6,2.676 6,6 l 0,22 c 0,3.324 -2.676,6 -6,6 l -28,0 c -3.324,0 -6,-2.676 -6,-6 l 0,-22 c 0,-3.324 2.676,-6 6,-6 z" fill="url(#linearGradient4178)"/><path opacity="0.3" id="path4180" fill-rule="evenodd" d="m 9,1026.362 2,0 3,-5 3,5 2,0 -4,-7 -2,0 -4,7 z" fill="#fff"/><path stroke="#000" opacity="0.4" id="path3342" fill-rule="evenodd" d="m 10,1011.8984 c -3.0361989,0 -5.4628906,2.4267 -5.4628906,5.4629 l 0,22 c 0,3.0362 2.4266917,5.4629 5.4628906,5.4629 l 28,0 c 3.036199,0 5.462891,-2.4267 5.462891,-5.4629 l 0,-22 c 0,-3.0362 -2.426692,-5.4629 -5.462891,-5.4629 l -28,0 z" fill="none"/><path opacity="0.3" id="path4184" fill-rule="evenodd" d="m 29,1026.362 2,0 3,-5 3,5 2,0 -4,-7 -2,0 -4,7 z" fill="#fff"/><path id="path3362" fill-rule="evenodd" d="m 9,1025.3622 2,0 3,-5 3,5 2,0 -4,-7 -2,0 -4,7 z" fill="#171717"/><path opacity="0.3" id="rect4188" fill-rule="evenodd" d="m 19,1039.3622 10,0 0,2 -10,0 z" fill="#fff"/><path id="path3366" fill-rule="evenodd" d="m 29,1025.3622 2,0 3,-5 3,5 2,0 -4,-7 -2,0 -4,7 z" fill="#171717"/><path id="rect3370" fill-rule="evenodd" d="m 19,1038.3622 10,0 0,2 -10,0 z" fill="#171717"/><path stroke="url(#linearGradient4200)" opacity="0.5" id="path4192" fill-rule="evenodd" d="m 10,1012.8945 c -2.5055529,0 -4.4667969,1.9613 -4.4667969,4.4668 l 0,22 c 0,2.5056 1.961244,4.4668 4.4667969,4.4668 l 28,0 c 2.505553,0 4.466797,-1.9612 4.466797,-4.4668 l 0,-22 c 0,-2.5055 -1.961244,-4.4668 -4.466797,-4.4668 l -28,0 z" fill="none"/></g><metadata id="metadata9999"><rdf:RDF><cc:Work><dc:format>image/svg+xml</dc:format><dc:type rdf:resource="http://purl.org/dc/dcmitype/StillImage"/><dc:title>Ivy icon theme</dc:title><cc:license rdf:resource="http://creativecommons.org/licenses/by-sa/4.0/"/><dc:creator><cc:Agent><dc:title>Sixsixfive (sixsixfive.deviantart.com)</dc:title></cc:Agent></dc:creator><dc:publisher><cc:Agent><dc:title>Sixsixfive (sixsixfive.deviantart.com)</dc:title></cc:Agent></dc:publisher><dc:source>https://github.com/sixsixfive</dc:source><dc:subject><rdf:Bag><rdf:li>ivy</rdf:li></rdf:Bag></dc:subject><dc:contributor><cc:Agent><dc:title>ssf</dc:title></cc:Agent></dc:contributor><dc:rights><cc:Agent><dc:title>Sixsixfive (sixisixfive.deviantart.com)</dc:title></cc:Agent></dc:rights><dc:description>A simple icon theme published under CC-BY-SA_V4(http://creativecommons.org/licenses/by-sa/4.0)</dc:description><dc:identifier>SSF</dc:identifier></cc:Work></rdf:RDF></metadata><!--Part of the Ivy icon them published under the CC-BY-SA_V4: http://creativecommons.org/licenses/by-sa/4.0 -->
</svg>