<?xml version="1.0" encoding="UTF-8" standalone="no"?>
<svg
   xmlns:dc="http://purl.org/dc/elements/1.1/"
   xmlns:cc="http://creativecommons.org/ns#"
   xmlns:rdf="http://www.w3.org/1999/02/22-rdf-syntax-ns#"
   xmlns:svg="http://www.w3.org/2000/svg"
   xmlns="http://www.w3.org/2000/svg"
   xmlns:xlink="http://www.w3.org/1999/xlink"
   xmlns:sodipodi="http://sodipodi.sourceforge.net/DTD/sodipodi-0.dtd"
   xmlns:inkscape="http://www.inkscape.org/namespaces/inkscape"
   version="1.1"
   viewBox="0 0 48 48"
   id="svg2"
   inkscape:version="0.91 r13725"
   sodipodi:docname="flag-bd.svg">
  <sodipodi:namedview
     pagecolor="#ffffff"
     bordercolor="#666666"
     borderopacity="1"
     objecttolerance="10"
     gridtolerance="10"
     guidetolerance="10"
     inkscape:pageopacity="0"
     inkscape:pageshadow="2"
     inkscape:window-width="640"
     inkscape:window-height="480"
     id="namedview20"
     showgrid="false"
     inkscape:zoom="4.9166667"
     inkscape:cx="24"
     inkscape:cy="24"
     inkscape:current-layer="svg2" />
  <defs
     id="0">
    <linearGradient
       id="linearGradient4170">
      <stop
         id="stop4172"
         stop-color="#d02604" />
      <stop
         id="stop4174"
         offset="1"
         stop-color="#de2904" />
    </linearGradient>
    <linearGradient
       id="linearGradient4159">
      <stop
         id="stop4161"
         stop-color="#fff" />
      <stop
         stop-opacity="0"
         id="stop4163"
         stop-color="#fff"
         offset="1" />
    </linearGradient>
    <linearGradient
       gradientTransform="translate(-0.5,0)"
       x2="45.49"
       gradientUnits="userSpaceOnUse"
       x1="45.561"
       y2="37.841"
       y1="10.05"
       xlink:href="#linearGradient4159"
       id="linearGradient4165" />
    <linearGradient
       gradientTransform="translate(-1.999797,0)"
       gradientUnits="userSpaceOnUse"
       y2="33"
       x2="0"
       y1="15"
       id="linearGradient4176"
       xlink:href="#linearGradient4170" />
  </defs>
  <rect
     width="45"
     x="1"
     y="10"
     height="30"
     id="rect4167"
     opacity="0.1" />
  <rect
     style="fill:#66b03e;fill-opacity:1"
     width="45"
     x="1"
     y="9"
     height="30"
     id="9"
     fill="#ebebeb" />
  <path
     id="C"
     d="m 1.53125,9.53125 0,28.9375 43.9375,0 0,-28.9375 -43.9375,0 z"
     opacity="0.4"
     fill="none"
     stroke="#000" />
  <path
     id="path4157"
     d="m 2.5117188,10.511719 0,26.976562 41.9765622,0 0,-26.976562 -41.9765622,0 z"
     opacity="0.4"
     fill="none"
     stroke="url(#linearGradient4165)" />
  <circle
     style="fill:url(#linearGradient4176);stroke-linecap:square"
     r="9"
     cy="24"
     cx="21.000202"
     id="path4162" />
  <path
     style="opacity:0.5;fill:none;stroke:#000000;stroke-linecap:square"
     d="m 21.000203,15.462891 c -2.235135,0 -4.45663,0.91952 -6.037109,2.5 -1.58048,1.580479 -2.5,3.801974 -2.5,6.037109 0,2.235135 0.91952,4.45663 2.5,6.037109 1.580479,1.58048 3.801974,2.5 6.037109,2.5 2.235135,0 4.45663,-0.91952 6.037109,-2.5 1.58048,-1.580479 2.5,-3.801974 2.5,-6.037109 0,-2.235135 -0.91952,-4.45663 -2.5,-6.037109 -1.580479,-1.58048 -3.801974,-2.5 -6.037109,-2.5 z"
     id="path4166" />
  <path
     style="opacity:0.1;fill:none;stroke:#ffffff;stroke-linecap:square"
     id="path4168"
     d="m 21.000203,14.466797 c -2.495791,0 -4.975444,1.028178 -6.740234,2.792969 C 12.495178,19.024556 11.467,21.504209 11.467,24 c 0,2.495791 1.028178,4.975444 2.792969,6.740234 1.76479,1.764791 4.244443,2.792969 6.740234,2.792969 2.495791,0 4.975444,-1.028178 6.740234,-2.792969 1.764791,-1.76479 2.792969,-4.244443 2.792969,-6.740234 0,-2.495791 -1.028178,-4.975444 -2.792969,-6.740234 -1.76479,-1.764791 -4.244443,-2.792969 -6.740234,-2.792969 z" />
  <metadata
     id="metadata9999">
    <rdf:RDF>
      <cc:Work>
        <dc:format>image/svg+xml</dc:format>
        <dc:type
           rdf:resource="http://purl.org/dc/dcmitype/StillImage" />
        <dc:title />
        <cc:license
           rdf:resource="http://creativecommons.org/licenses/by-sa/4.0/" />
        <dc:creator>
          <cc:Agent>
            <dc:title>Sixsixfive (sixsixfive.deviantart.com)</dc:title>
          </cc:Agent>
        </dc:creator>
        <dc:publisher>
          <cc:Agent>
            <dc:title>Sixsixfive (sixsixfive.deviantart.com)</dc:title>
          </cc:Agent>
        </dc:publisher>
        <dc:source>https://github.com/sixsixfive</dc:source>
        <dc:subject>
          <rdf:Bag>
            <rdf:li>ivy</rdf:li>
          </rdf:Bag>
        </dc:subject>
        <dc:contributor>
          <cc:Agent>
            <dc:title>ssf</dc:title>
          </cc:Agent>
        </dc:contributor>
        <dc:rights>
          <cc:Agent>
            <dc:title>Sixsixfive (sixisixfive.deviantart.com)</dc:title>
          </cc:Agent>
        </dc:rights>
        <dc:description>A simple icon theme published under CC-BY-SA_V4(http://creativecommons.org/licenses/by-sa/4.0)</dc:description>
        <dc:identifier>SSF</dc:identifier>
      </cc:Work>
    </rdf:RDF>
  </metadata>
  <!--Part of the Ivy icon them published under the CC-BY-SA_V4: http://creativecommons.org/licenses/by-sa/4.0 -->
</svg>
