<?xml version="1.0" encoding="UTF-8" standalone="no"?><svg xmlns:rdf="http://www.w3.org/1999/02/22-rdf-syntax-ns#" xmlns:cc="http://creativecommons.org/ns#" xmlns:svg="http://www.w3.org/2000/svg" id="svg2" viewBox="0 0 48 48" version="1.1" xmlns:xlink="http://www.w3.org/1999/xlink" xmlns:dc="http://purl.org/dc/elements/1.1/" xmlns="http://www.w3.org/2000/svg"><defs id="0"><linearGradient id="linearGradient4159"><stop id="stop4161" stop-color="#fff"/><stop offset="1" id="stop4163" stop-color="#fff" stop-opacity="0"/></linearGradient><linearGradient id="linearGradient4165" x2="45.49" y2="37.841" xlink:href="#linearGradient4159" x1="45.561" y1="10.05" gradientUnits="userSpaceOnUse"/></defs><g id="1" transform="matrix(1 0 0 1 -0.5 0)"><path id="rect4167" opacity="0.1" d="m 1.5,10 45,0 0,30 -45,0 z"/><path id="9" d="m 1.5,9 45,0 0,30 -45,0 z" fill="#ebebeb"/><path id="A" d="m 1.5,9 45,0 0,10 -45,0 z" fill="#d02604"/><path id="B" d="m 1.5,29 45,0 0,10 -45,0 z" fill="#171717"/><path id="C" opacity="0.4" d="m 2.03125,9.53125 0,28.9375 43.9375,0 0,-28.9375 -43.9375,0 z" stroke="#000" fill="none"/><path id="path4157" opacity="0.4" d="m 3.0117188,10.511719 0,26.976562 41.9765622,0 0,-26.976562 -41.9765622,0 z" stroke="url(#linearGradient4165)" fill="none"/></g><rect stroke-linecap="round" fill-opacity="1" height="8" id="rect4175" stroke-dasharray="none" stroke-miterlimit="4" opacity="0.51680008" stroke-width="3" width="8" stroke="none" x="20" y="20" fill="#e4ae4e" stroke-dashoffset="0" fill-rule="evenodd" stroke-opacity="1" stroke-linejoin="round"/><metadata id="metadata9999"><rdf:RDF><cc:Work><dc:format>image/svg+xml</dc:format><dc:type rdf:resource="http://purl.org/dc/dcmitype/StillImage"/><dc:title/><cc:license rdf:resource="http://creativecommons.org/licenses/by-sa/4.0/"/><dc:creator><cc:Agent><dc:title>Sixsixfive (sixsixfive.deviantart.com)</dc:title></cc:Agent></dc:creator><dc:publisher><cc:Agent><dc:title>Sixsixfive (sixsixfive.deviantart.com)</dc:title></cc:Agent></dc:publisher><dc:source>https://github.com/sixsixfive</dc:source><dc:subject><rdf:Bag><rdf:li>ivy</rdf:li></rdf:Bag></dc:subject><dc:contributor><cc:Agent><dc:title>ssf</dc:title></cc:Agent></dc:contributor><dc:rights><cc:Agent><dc:title>Sixsixfive (sixisixfive.deviantart.com)</dc:title></cc:Agent></dc:rights><dc:description>A simple icon theme published under CC-BY-SA_V4(http://creativecommons.org/licenses/by-sa/4.0)</dc:description><dc:identifier>SSF</dc:identifier></cc:Work></rdf:RDF></metadata><!--Part of the Ivy icon them published under the CC-BY-SA_V4: http://creativecommons.org/licenses/by-sa/4.0 -->
</svg>