<?xml version="1.0" encoding="UTF-8" standalone="no"?><svg xmlns:cc="http://creativecommons.org/ns#" xmlns:svg="http://www.w3.org/2000/svg" xmlns:dc="http://purl.org/dc/elements/1.1/" xmlns="http://www.w3.org/2000/svg" xmlns:rdf="http://www.w3.org/1999/02/22-rdf-syntax-ns#" id="svg2" version="1.1" xmlns:xlink="http://www.w3.org/1999/xlink" viewBox="0 0 48 48"><defs id="0"><linearGradient id="linearGradient4159"><stop id="stop4161" stop-color="#fff"/><stop stop-opacity="0" id="stop4163" stop-color="#fff" offset="1"/></linearGradient><linearGradient gradientTransform="matrix(1 0 0 1 -0.5 0)" gradientUnits="userSpaceOnUse" xlink:href="#linearGradient4159" y1="10.05" id="linearGradient4165" x1="45.561" y2="37.841" x2="45.49"/></defs><rect width="45" height="30" opacity="0.1" id="rect4167" y="10" x="1"/><rect width="45" height="30" id="9" y="9" x="1" fill="#d02604"/><path stroke="#000" opacity="0.4" d="m 1.53125,9.53125 0,28.9375 43.9375,0 0,-28.9375 -43.9375,0 z" id="C" fill="none"/><path stroke="url(#linearGradient4165)" opacity="0.2" d="m 2.5117188,10.511719 0,26.976562 41.9765622,0 0,-26.976562 -41.9765622,0 z" id="path4157" fill="none"/><path opacity="0.2" d="M 20,11.091797 A 0.90923436,0.90923436 0 0 0 19.091797,12 l 0,7.091797 -7.091797,0 A 0.90923436,0.90923436 0 0 0 11.091797,20 l 0,8 A 0.90923436,0.90923436 0 0 0 12,28.908203 l 7.091797,0 0,7.091797 A 0.90923436,0.90923436 0 0 0 20,36.908203 l 8,0 A 0.90923436,0.90923436 0 0 0 28.908203,36 l 0,-7.091797 7.091797,0 A 0.90923436,0.90923436 0 0 0 36.908203,28 l 0,-8 A 0.90923436,0.90923436 0 0 0 36,19.091797 l -7.091797,0 0,-7.091797 A 0.90923436,0.90923436 0 0 0 28,11.091797 l -8,0 z" id="path3374" fill-rule="evenodd"/><rect width="24" height="8" id="rect3363" fill-rule="evenodd" y="20" x="12" fill="#ebebeb"/><rect transform="matrix(0 1 -1 0 0 0)" width="24" height="8" id="rect3367" fill-rule="evenodd" y="-28" x="12" fill="#ebebeb"/><metadata id="metadata9999"><rdf:RDF><cc:Work><dc:format>image/svg+xml</dc:format><dc:type rdf:resource="http://purl.org/dc/dcmitype/StillImage"/><dc:title>Ivy icon theme</dc:title><cc:license rdf:resource="http://creativecommons.org/licenses/by-sa/4.0/"/><dc:creator><cc:Agent><dc:title>Sixsixfive (sixsixfive.deviantart.com)</dc:title></cc:Agent></dc:creator><dc:publisher><cc:Agent><dc:title>Sixsixfive (sixsixfive.deviantart.com)</dc:title></cc:Agent></dc:publisher><dc:source>https://github.com/sixsixfive</dc:source><dc:subject><rdf:Bag><rdf:li>ivy</rdf:li></rdf:Bag></dc:subject><dc:contributor><cc:Agent><dc:title>ssf</dc:title></cc:Agent></dc:contributor><dc:rights><cc:Agent><dc:title>Sixsixfive (sixisixfive.deviantart.com)</dc:title></cc:Agent></dc:rights><dc:description>A simple icon theme published under CC-BY-SA_V4(http://creativecommons.org/licenses/by-sa/4.0)</dc:description><dc:identifier>SSF</dc:identifier></cc:Work></rdf:RDF></metadata><!--Part of the Ivy icon them published under the CC-BY-SA_V4: http://creativecommons.org/licenses/by-sa/4.0 -->
</svg>