<?xml version="1.0" encoding="UTF-8" standalone="no"?><svg viewBox="0 0 48 48" xmlns:svg="http://www.w3.org/2000/svg" xmlns="http://www.w3.org/2000/svg" inkscape:version="0.91 r13725" xmlns:rdf="http://www.w3.org/1999/02/22-rdf-syntax-ns#" xmlns:xlink="http://www.w3.org/1999/xlink" sodipodi:docname="flag-es.svg" xmlns:inkscape="http://www.inkscape.org/namespaces/inkscape" version="1.1" id="svg2" xmlns:sodipodi="http://sodipodi.sourceforge.net/DTD/sodipodi-0.dtd" xmlns:dc="http://purl.org/dc/elements/1.1/" xmlns:cc="http://creativecommons.org/ns#"><defs id="0"><linearGradient id="linearGradient4159"><stop id="stop4161" stop-color="#fff"/><stop stop-opacity="0" offset="1" id="stop4163" stop-color="#fff"/></linearGradient><linearGradient x1="45.561" xlink:href="#linearGradient4159" y1="10.05" x2="45.49" y2="37.841" gradientTransform="matrix(1 0 0 1 -0.5 0)" id="linearGradient4165" gradientUnits="userSpaceOnUse"/></defs><sodipodi:namedview showgrid="true" inkscape:window-height="480" inkscape:bbox-paths="true" inkscape:snap-bbox-edge-midpoints="true" objecttolerance="10" borderopacity="1" inkscape:pageshadow="2" inkscape:zoom="9.8198104" bordercolor="#666666" inkscape:window-width="640" inkscape:cy="26.334753" inkscape:cx="18.393549" gridtolerance="10" pagecolor="#ffffff" inkscape:current-layer="svg2" guidetolerance="10" inkscape:snap-bbox="true" id="namedview16" inkscape:pageopacity="0" inkscape:bbox-nodes="true"><inkscape:grid id="grid3350" type="xygrid"/></sodipodi:namedview><path inkscape:connector-curvature="0" opacity="0.1" id="rect4167" d="m 1,10 45,0 0,30 -45,0 z"/><path inkscape:connector-curvature="0" id="9" d="M 1,9 46,9 46,39 1,39 Z" fill="#ffd506"/><path inkscape:connector-curvature="0" id="A" d="m 1,9 45,0 0,7 -45,0 z" fill="#d02604"/><path inkscape:connector-curvature="0" id="B" d="m 1,32 45,0 0,7 -45,0 z" fill="#d02604"/><path stroke="#000" inkscape:connector-curvature="0" opacity="0.4" id="C" d="m 1.53125,9.53125 0,28.9375 43.9375,0 0,-28.9375 -43.9375,0 z" fill="none"/><path stroke="url(#linearGradient4165)" inkscape:connector-curvature="0" opacity="0.35" id="path4157" d="m 2.5117188,10.511719 0,26.976562 41.9765622,0 0,-26.976562 -41.9765622,0 z" fill="none"/><g transform="matrix(1 0 0 1 22.067807 12.644068)" id="g3608"><path inkscape:connector-curvature="0" fill-opacity="1" id="path3373" d="m -9.192797,5.7309315 q 0.125,-0.375 0.5,-0.5 0.375,-0.125 0.65625,0.15625 l 0.28125,0.28125 0.0625,-0.0625 0.0625,-0.0625 -0.125,0.125 q -0.125,0.125 -0.1875,0.3125 l -0.0625,0.1875 0.09375,-0.28125 0.09375,-0.28125 -0.125,0.375 -0.125,0.375 -0.375,0.125 -0.375,0.125 0.28125,-0.09375 0.28125,-0.09375 -0.1875,0.0625 q -0.1875,0.0625 -0.3125,0.1875 l -0.125,0.125 0.0625,-0.0625 0.0625,-0.0625 -0.3125,-0.3125 -0.3125,-0.3125 -0.0625,0.0625 -0.0625,0.0625 0.125,-0.125 q 0.125,-0.125 0.1875,-0.3125 l 0.0625,-0.1875 -0.09375,0.28125 -0.09375,0.28125 0.125,-0.375" fill="#ffc403"/><path inkscape:connector-curvature="0" fill-opacity="1" id="path3375" d="m -7.942797,5.9809315 q 0.125,-0.375 0.5,-0.5 l 0.375,-0.125 0,0.5 0,0.5 -0.5,0 -0.5,0 0.125,-0.375" fill="#e1bb19"/><path inkscape:connector-curvature="0" fill-opacity="1" id="path3377" d="m -7.067797,5.8559315 0,-0.5 0.375,0.125 q 0.375,0.125 0.5,0.5 l 0.125,0.375 -0.5,0 -0.5,0 0,-0.5" fill="#e0ba19"/><path inkscape:connector-curvature="0" fill-opacity="1" id="path3379" d="m -6.192797,5.9809315 -0.125,-0.375 0.09375,0.28125 0.09375,0.28125 -0.0625,-0.1875 q -0.0625,-0.1875 -0.1875,-0.3125 l -0.125,-0.125 0.0625,0.0625 0.0625,0.0625 0.28125,-0.28125 q 0.28125,-0.28125 0.65625,-0.15625 0.375,0.125 0.5,0.5 l 0.125,0.375 -0.09375,-0.28125 -0.09375,-0.28125 0.0625,0.1875 q 0.0625,0.1875 0.1875,0.3125 l 0.125,0.125 -0.0625,-0.0625 -0.0625,-0.0625 -0.3125,0.3125 -0.3125,0.3125 0.0625,0.0625 0.0625,0.0625 -0.125,-0.125 q -0.125,-0.125 -0.3125,-0.1875 l -0.1875,-0.0625 0.28125,0.09375 0.28125,0.09375 -0.375,-0.125 -0.375,-0.125 -0.125,-0.375" fill="#ffc403"/><path inkscape:connector-curvature="0" fill-opacity="1" id="path3381" d="m -11.192797,6.7309315 q 0.125,-0.375 0.625,-0.375 l 0.5,0 -0.125,0.375 q -0.125,0.375 -0.375,0.625 l -0.25,0.25 0.1875,-0.1875 0.1875,-0.1875 -0.125,0.125 q -0.125,0.125 -0.1875,0.25 l -0.0625,0.125 0.03125,-0.0625 0.03125,-0.0625 -0.28125,-0.25 q -0.28125,-0.25 -0.15625,-0.625" fill="#fcc406"/><path inkscape:connector-curvature="0" fill-opacity="1" id="path3383" d="m -10.192797,6.7309315 0.125,-0.375 0.375,-0.125 0.375,-0.125 -0.28125,0.09375 -0.28125,0.09375 0.1875,-0.0625 q 0.1875,-0.0625 0.3125,-0.1874999 l 0.125,-0.125 -0.0625,0.0625 -0.0625,0.0625 0.3125,0.3124999 0.3125,0.3125 0.0625,-0.0625 0.0625,-0.0625 -0.125,0.125 q -0.125,0.125 -0.1875,0.3125 l -0.0625,0.1875 0.09375,-0.28125 0.09375,-0.28125 -0.125,0.375 -0.125,0.375 -0.375,0.125 -0.375,0.125 0.28125,-0.09375 0.28125,-0.09375 -0.1875,0.0625 q -0.1875,0.0625 -0.3125,0.1875 l -0.125,0.125 0.0625,-0.0625 0.0625,-0.0625 -0.296875,-0.296875 -0.296875,-0.296875 -0.04687,0.07813 -0.04687,0.07813 0.09375,-0.15625 q 0.09375,-0.15625 0.15625,-0.34375 l 0.0625,-0.1875 -0.09375,0.28125 -0.09375,0.28125 0.125,-0.375" fill="#f9c20a"/><path inkscape:connector-curvature="0" fill-opacity="1" id="path3385" d="m -8.942797,6.9809315 q 0.125,-0.375 0.5,-0.5 l 0.375,-0.125 0,0.5 0,0.5 -0.5,0 -0.5,0 0.125,-0.375 m 0.5,0.375 0.375,0 0.125,0 0.125,0 -0.25,0 q -0.25,0 -0.5,0 l -0.25,0 0.375,0" fill="#eebf0f"/><path inkscape:connector-curvature="0" fill-opacity="1" id="path3387" d="m -8.067797,6.8559315 0,-0.5 0.5,0 0.5,0 0,0.5 0,0.5 -0.5,0 -0.5,0 0,-0.5 m -0.125,0.5 0.125,0 0.375,0 0.375,0 -0.25,0 q -0.25,0 -0.5,0 l -0.25,0 0.125,0" fill="#dda70b"/><path inkscape:connector-curvature="0" fill-opacity="1" id="path3389" d="m -7.067797,6.8559315 0,-0.5 0.5,0 0.5,0 0,0.5 0,0.5 -0.5,0 -0.5,0 0,-0.5 m 0.625,0.5 0.375,0 0.125,0 0.125,0 -0.25,0 q -0.25,0 -0.5,0 l -0.25,0 0.375,0" fill="#dfa80c"/><path inkscape:connector-curvature="0" fill-opacity="1" id="path3391" d="m -6.067797,6.8559315 0,-0.5 0.375,0.125 q 0.375,0.125 0.5,0.5 l 0.125,0.375 -0.5,0 -0.5,0 0,-0.5 m -0.125,0.5 0.125,0 0.375,0 0.375,0 -0.25,0 q -0.25,0 -0.5,0 l -0.25,0 0.125,0" fill="#eebf0f"/><path inkscape:connector-curvature="0" fill-opacity="1" id="path3393" d="m -5.192797,6.9809315 -0.125,-0.375 0.09375,0.28125 0.09375,0.28125 -0.0625,-0.1875 q -0.0625,-0.1875 -0.1875,-0.3125 l -0.125,-0.125 0.0625,0.0625 0.0625,0.0625 0.3125,-0.3125 0.3125,-0.3125 -0.0625,-0.0625 -0.0625,-0.0625 0.125,0.125 q 0.125,0.125 0.3125,0.1875 l 0.1875,0.0625 -0.28125,-0.09375 -0.28125,-0.09375 0.375,0.125 0.375,0.125 0.125,0.375 0.125,0.375 -0.09375,-0.28125 -0.09375,-0.28125 0.0625,0.1875 q 0.0625,0.1875 0.15625,0.34375 l 0.09375,0.15625 -0.04687,-0.07813 -0.04687,-0.07813 -0.296875,0.296875 -0.296875,0.296875 0.0625,0.0625 0.0625,0.0625 -0.125,-0.125 q -0.125,-0.125 -0.3125,-0.1875 l -0.1875,-0.0625 0.28125,0.09375 0.28125,0.09375 -0.375,-0.125 -0.375,-0.125 -0.125,-0.375" fill="#f9c20a"/><path inkscape:connector-curvature="0" fill-opacity="1" id="path3395" d="m -3.942797,6.7309315 -0.125,-0.375 0.5,0 q 0.5,0 0.625,0.375 0.125,0.375 -0.125,0.625 l -0.25,0.25 -0.25,-0.25 q -0.25,-0.25 -0.375,-0.625 m 0.4375,0.6875 0.1875,0.1875 0.0625,0.0625 0.0625,0.0625 -0.125,-0.125 q -0.125,-0.125 -0.25,-0.25 l -0.125,-0.125 0.1875,0.1875" fill="#fcc406"/><path inkscape:connector-curvature="0" fill-opacity="1" id="path3397" d="m -10.817797,7.8559315 q 0,-0.25 0.25,-0.5 l 0.25,-0.25 -0.1875,0.1875 -0.1875,0.1875 0.125,-0.125 q 0.125,-0.125 0.21875,-0.28125 l 0.09375,-0.15625 -0.04687,0.07813 -0.04687,0.07813 0.296875,0.296875 0.296875,0.296875 0.0625,-0.0625 0.0625,-0.0625 -0.125,0.125 q -0.125,0.125 -0.1875,0.3125 l -0.06251,0.18749 0.09375,-0.28125 0.09375,-0.28125 -0.125,0.375 -0.125,0.375 -0.375,-0.125 q -0.375,-0.125 -0.375,-0.375" fill="#f1bc09"/><path inkscape:connector-curvature="0" fill-opacity="1" id="path3399" d="m -9.942797,7.9809315 q 0.125,-0.375 0.5,-0.5 l 0.375,-0.125 -0.28125,0.09375 -0.28125,0.09375 0.1875,-0.0625 q 0.1875,-0.0625 0.40625,-0.09375 l 0.21875,-0.03125 -0.109375,0.01563 -0.109375,0.01563 -0.01563,0.484375 -0.01563,0.484375 -0.5,0 -0.5,0 0.125,-0.375" fill="#b93a14"/><path inkscape:connector-curvature="0" fill-opacity="1" id="path3401" d="m -9.052172,7.8715565 0.01563,-0.484375 -0.109375,0.01563 -0.109375,0.01563 0.21875,-0.03125 q 0.218745,-0.03126 0.468745,-0.03126 l 0.25,0 -0.375,0 -0.375,0 0.5,0 0.5,0 0,0.5 0,0.5 -0.5,0 -0.5,0 0.01563,-0.484375" fill="#b84b13"/><path inkscape:connector-curvature="0" fill-opacity="1" id="path3403" d="m -8.067797,7.8559315 0,-0.5 0.5,0 0.5,0 0,0.5 0,0.5 -0.5,0 -0.5,0 0,-0.5" fill="#b54618"/><path inkscape:connector-curvature="0" fill-opacity="1" id="path3405" d="m -7.067797,7.8559315 0,-0.5 0.5,0 0.5,0 0,0.5 0,0.5 -0.5,0 -0.5,0 0,-0.5" fill="#b44717"/><path inkscape:connector-curvature="0" fill-opacity="1" id="path3407" d="m -6.067797,7.8559315 0,-0.5 0.5,0 0.5,0 -0.375,0 -0.375,0 0.25,0 q 0.25,0 0.46875,0.03125 l 0.21875,0.03125 -0.109375,-0.01563 -0.109375,-0.01563 0.01563,0.484375 0.01562,0.484385 -0.5,0 -0.5,0 0,-0.5" fill="#b84b13"/><path inkscape:connector-curvature="0" fill-opacity="1" id="path3409" d="m -5.083422,7.8715565 -0.01563,-0.484375 -0.109375,-0.01563 -0.109375,-0.01563 0.21875,0.03125 q 0.21875,0.03125 0.40625,0.09375 l 0.1875,0.0625 -0.28125,-0.09375 -0.28125,-0.09375 0.375,0.125 q 0.375,0.125 0.5,0.5 l 0.125,0.375 -0.5,0 -0.5,0 -0.01563,-0.484375" fill="#ba3a13"/><path inkscape:connector-curvature="0" fill-opacity="1" id="path3411" d="m -4.192797,7.9809315 -0.125,-0.375 0.09375,0.28125 0.09375,0.28125 -0.0625,-0.1875 q -0.0625,-0.1875 -0.1875,-0.3125 l -0.125,-0.125 0.0625,0.0625 0.0625,0.0625 0.296875,-0.296875 0.296875,-0.296875 -0.04687,-0.07813 -0.04687,-0.07813 0.09375,0.15625 q 0.09374,0.15626 0.21874,0.28126 l 0.125,0.125 -0.1875,-0.1875 -0.1875,-0.1875 0.25,0.25 q 0.25,0.25 0.5,0.5 l 0.25,0.25 -0.296875,0.265625 -0.296875,0.265625 0.04687,0.04687 0.04688,0.04688 -0.09375,-0.09375 q -0.09375,-0.09375 -0.28125,-0.15625 l -0.1875,-0.0625 0.28125,0.09375 0.28125,0.09375 -0.375,-0.125 -0.375,-0.125 -0.125,-0.375 m 1.4375,0.1875 -0.0625,-0.0625 -0.1875,-0.1875 -0.1875,-0.1875 0.125,0.125 q 0.125,0.125 0.25,0.25 l 0.125,0.125 -0.0625,-0.0625" fill="#f2be09"/><path inkscape:connector-curvature="0" fill-opacity="1" id="path3413" d="m -12.942797,8.9809315 q 0.125,-0.375 0.5,-0.5 l 0.375,-0.125 -0.28125,0.09375 -0.28125,0.09375 0.1875,-0.0625 q 0.1875,-0.0625 0.375,-0.0625 l 0.1875,0 -0.09375,0 -0.09375,0 0,0.46875 0,0.46875 -0.484375,0.015625 -0.484375,0.015625 -0.01563,0.109375 -0.01563,0.109375 0.03125,-0.21875 q 0.03125,-0.21875 0.09375,-0.40625 l 0.0625,-0.1875 -0.09375,0.28125 -0.09375,0.28125 0.125,-0.375" fill="#f5b203"/><path inkscape:connector-curvature="0" fill-opacity="1" id="path3415" d="m -12.067797,8.8871815 0,-0.46875 -0.09375,0 -0.09375,0 0.1875,0 q 0.1875,0 0.375,0.0625 l 0.1875,0.0625 -0.28125,-0.09375 -0.28125,-0.09375 0.375,0.125 q 0.375,0.125 0.5,0.5 l 0.125,0.375 -0.5,0 -0.5,0 0,-0.46875" fill="#e79e06"/><path inkscape:connector-curvature="0" fill-opacity="1" id="path3417" d="m -10.067797,8.8559315 0,-0.5 0.5,0 0.5,0 0,0.5 0,0.5 -0.5,0 -0.5,0 0,-0.5 m 0.625,0.5 0.375,0 0.125,0 0.125,0 -0.25,0 q -0.25,0 -0.5,0 l -0.25,0 0.375,0" fill="#da8d0b"/><path inkscape:connector-curvature="0" fill-opacity="1" id="path3419" d="m -9.067797,8.8559315 0,-0.5 0.5,0 0.5,0 0,0.5 0,0.5 -0.5,0 -0.5,0 0,-0.5 m -0.125,0.5 0.125,0 0.375,0 0.375,0 -0.25,0 q -0.25,0 -0.5,0 l -0.25,0 0.125,0" fill="#c58b0b"/><path inkscape:connector-curvature="0" fill-opacity="1" id="path3421" d="m -8.067797,8.8559315 0,-0.5 0.5,0 0.5,0 0.5,0 0.5,0 0,0.5 0,0.5 -0.5,0 q -0.5,0 -1,0 l -0.5,0 0,-0.5" fill="#cb940a"/><path inkscape:connector-curvature="0" fill-opacity="1" id="path3423" d="m -6.067797,8.8559315 0,-0.5 0.5,0 0.5,0 0,0.5 0,0.5 -0.5,0 -0.5,0 0,-0.5 m 0.625,0.5 0.375,0 0.125,0 0.125,0 -0.25,0 q -0.25,0 -0.5,0 l -0.25,0 0.375,0" fill="#c48a0c"/><path inkscape:connector-curvature="0" fill-opacity="1" id="path3425" d="m -5.067797,8.8559315 0,-0.5 0.5,0 0.5,0 0,0.5 0,0.5 -0.5,0 -0.5,0 0,-0.5 m -0.125,0.5 0.125,0 0.375,0 0.375,0 -0.25,0 q -0.25,0 -0.5,0 l -0.25,0 0.125,0" fill="#da900b"/><path inkscape:connector-curvature="0" fill-opacity="1" id="path3427" d="m -4.067797,8.8559315 0,-0.5 0.375,0.125 q 0.375,0.125 0.375,0.375 0,0.25 -0.375,0.375 l -0.375,0.125 0,-0.5" fill="#ffc400"/><path inkscape:connector-curvature="0" fill-opacity="1" id="path3429" d="m -3.317797,8.8559315 0,-0.25 0,0.1875 0,0.1875 0,-0.125 q 0,-0.125 -0.09375,-0.21875 l -0.09375,-0.09375 0.04687,0.04687 0.04687,0.04687 0.296875,-0.265625 0.296885,-0.265615 0.25,0.25 q 0.25,0.25 0.5,0.5 l 0.25,0.25 -0.25,0.28125 -0.25,0.28125 0.0625,0.03125 0.0625,0.03125 -0.125,-0.0625 q -0.125,-0.0625 -0.25,-0.0625 l -0.125,0 0.1875,0 0.1875,0 -0.25,0 -0.25,0 0.1875,0 0.1875,0 -0.125,0 q -0.125,0 -0.21875,0.09375 l -0.09375,0.09375 0.04687,-0.04687 0.04687,-0.04687 -0.3125,-0.3125 -0.3125,-0.3125 -0.04687,0.04687 -0.04687,0.04687 0.09375,-0.09375 q 0.09375,-0.09375 0.09375,-0.21875 l 0,-0.125 0,0.1875 0,0.1875 0,-0.25 m 1.5625,0.3125 -0.0625,-0.0625 -0.1875,-0.1875 -0.1875,-0.1875 0.125,0.125 q 0.125,0.125 0.25,0.25 l 0.125,0.125 -0.0625,-0.0625 m -0.875,-0.875 -0.1875,-0.1875 -0.0625,-0.0625 -0.0625,-0.0625 0.125,0.125 q 0.125,0.125 0.25,0.25 l 0.125,0.125 -0.1875,-0.1875" fill="#f4b503"/><path inkscape:connector-curvature="0" fill-opacity="1" id="path3431" d="m -2.067797,8.8559315 -0.25,-0.25 0.25,-0.25 q 0.25,-0.25 0.625,-0.125 0.375,0.125 0.5,0.5 0.125,0.375 -0.140625,0.640625 l -0.265625,0.265625 0.04687,0.07813 0.04687,0.07813 -0.09375,-0.15625 q -0.09374,-0.15626 -0.21874,-0.28126 l -0.125,-0.125 0.1875,0.1875 0.1875,0.1875 -0.25,-0.25 q -0.25,-0.25 -0.5,-0.5 m -0.3125,-0.3125 0.0625,0.0625 0.1875,0.1875 0.1875,0.1875 -0.125,-0.125 q -0.125,-0.125 -0.25,-0.25 l -0.125,-0.125 0.0625,0.0625" fill="#fcbe02"/><path inkscape:connector-curvature="0" fill-opacity="1" id="path3433" d="m -13.067797,9.8559315 0,-0.5 0,0.375 0,0.3749995 0,-0.2499995 q 0,-0.25 0.03125,-0.46875 l 0.03125,-0.21875 -0.01563,0.109375 -0.01563,0.109375 0.484375,-0.01563 0.484385,-0.01562 -0.125,0.375 q -0.125,0.3749995 -0.5,0.4999995 l -0.375,0.125 0,-0.4999995 m 0,0.125 0,0.3749995 0,0.125 0,0.125 0,-0.25 q 0,-0.25 0,-0.4999995 l 0,-0.25 0,0.375" fill="#e7b202"/><path inkscape:connector-curvature="0" fill-opacity="1" id="path3435" d="m -12.192797,9.7309315 0.125,-0.375 0.5,0 0.5,0 0,0.5 0,0.4999995 -0.375,0.125 -0.375,0.125 0.28125,-0.09375 0.28125,-0.09375 -0.1875,0.0625 q -0.1875,0.0625 -0.3125,0.1875 l -0.125,0.125 0.0625,-0.0625 0.0625,-0.0625 -0.3125,-0.3125 -0.3125,-0.3125 -0.0625,0.0625 -0.0625,0.0625 0.125,-0.125 q 0.125,-0.1249995 0.1875,-0.3124995 l 0.0625,-0.1875 -0.09375,0.28125 -0.09375,0.2812495 0.125,-0.3749995 m 1.125,0.7499995 0,-0.125 0,-0.3749995 0,-0.375 0,0.25 q 0,0.2499995 0,0.4999995 l 0,0.25 0,-0.125" fill="#d3aa06"/><path inkscape:connector-curvature="0" fill-opacity="1" id="path3437" d="m -11.067797,9.8559315 0,-0.5 0.5,0 0.5,0 0,0.5 0,0.4999995 -0.5,0 -0.5,0 0,-0.4999995" fill="#f6b103"/><path inkscape:connector-curvature="0" fill-opacity="1" id="path3439" d="m -10.067797,9.8559315 0,-0.5 0.5,0 0.5,0 0,0.5 0,0.4999995 -0.5,0 -0.5,0 0,-0.4999995 m 0,0.125 0,0.3749995 0,0.125 0,0.125 0,-0.25 q 0,-0.25 0,-0.4999995 l 0,-0.25 0,0.375" fill="#d0610e"/><path inkscape:connector-curvature="0" fill-opacity="1" id="path3441" d="m -9.067797,9.8559315 0,-0.5 0.5,0 0.5,0 0,0.5 0,0.4999995 -0.5,0 -0.5,0 0,-0.4999995 m 1.125,-0.5 -0.125,0 -0.375,0 -0.375,0 0.25,0 q 0.25,0 0.5,0 l 0.25,0 -0.125,0" fill="#c85d0e"/><path inkscape:connector-curvature="0" fill-opacity="1" id="path3443" d="m -8.067797,9.8559315 0,-0.5 0.5,0 0.5,0 0,0.5 0,0.4999995 -0.5,0 -0.5,0 0,-0.4999995 m 1.125,-0.5 -0.125,0 -0.375,0 -0.375,0 0.25,0 q 0.25,0 0.5,0 l 0.25,0 -0.125,0 m -0.75,0 -0.375,0 -0.125,0 -0.125,0 0.25,0 q 0.25,0 0.5,0 l 0.25,0 -0.375,0" fill="#bf4911"/><path inkscape:connector-curvature="0" fill-opacity="1" id="path3445" d="m -7.067797,9.8559315 0,-0.5 0.5,0 0.5,0 0,0.5 0,0.4999995 -0.5,0 -0.5,0 0,-0.4999995 m 0.375,-0.5 -0.375,0 -0.125,0 -0.125,0 0.25,0 q 0.25,0 0.5,0 l 0.25,0 -0.375,0" fill="#d0af74"/><path inkscape:connector-curvature="0" fill-opacity="1" id="path3447" d="m -6.067797,9.8559315 0,-0.5 0.5,0 0.5,0 0,0.5 0,0.4999995 -0.5,0 -0.5,0 0,-0.4999995" fill="#d8bf72"/><path inkscape:connector-curvature="0" fill-opacity="1" id="path3449" d="m -5.067797,9.8559315 0,-0.5 0.5,0 0.5,0 0,0.5 0,0.4999995 -0.5,0 -0.5,0 0,-0.4999995" fill="#e2c774"/><path inkscape:connector-curvature="0" fill-opacity="1" id="path3451" d="m -4.067797,9.8559315 0,-0.5 0.375,-0.125 0.375,-0.125 -0.28125,0.09375 -0.28125,0.09375 0.1875,-0.0625 q 0.1875,-0.0625 0.28125,-0.15625 l 0.09375,-0.09375 -0.04687,0.04687 -0.04687,0.04687 0.3125,0.3125 0.3125,0.3125 0.04687,-0.04687 0.04687,-0.04687 -0.09375,0.09375 q -0.09375,0.09375 -0.15625,0.28125 l -0.0625,0.1874995 0.09375,-0.2812495 0.09375,-0.28125 -0.125,0.375 -0.125,0.3749995 -0.5,0 -0.5,0 0,-0.4999995" fill="#f8c51b"/><path inkscape:connector-curvature="0" fill-opacity="1" id="path3453" d="m -2.942797,9.9809315 q 0.125,-0.375 0.375,-0.375 0.25,0 0.5,0.25 l 0.25,0.2499995 -0.1875,-0.1874995 -0.1875,-0.1875 0.125,0.125 q 0.125,0.125 0.28125,0.2187495 l 0.15625,0.09375 -0.07813,-0.04687 -0.07813,-0.04687 -0.296875,0.296875 -0.296875,0.296875 0.0625,0.0625 0.0625,0.0625 -0.125,-0.125 q -0.12499,-0.12501 -0.31249,-0.18751 l -0.1875,-0.0625 0.28125,0.09375 0.28125,0.09375 -0.375,-0.125 -0.375,-0.125 0.125,-0.3749995" fill="#d8aa05"/><path inkscape:connector-curvature="0" fill-opacity="1" id="path3455" d="m -2.067797,9.8559315 -0.25,-0.25 0.1875,0.1875 0.1875,0.1875 -0.125,-0.125 q -0.125,-0.125 -0.25,-0.1875 l -0.125,-0.0625 0.0625,0.03125 0.0625,0.03125 0.25,-0.28125 0.25,-0.28125 0.25,0.25 q 0.25,0.25 0.375,0.625 l 0.125,0.3749995 -0.09375,-0.28125 -0.09375,-0.2812495 0.0625,0.1875 q 0.0625,0.1874995 0.09375,0.4062495 l 0.03125,0.21875 -0.01563,-0.109375 -0.01563,-0.109375 -0.359375,-0.140625 Q -1.817807,10.105931 -2.067807,9.8559315 m 0.4375,-0.5625 -0.1875,-0.1875 -0.0625,-0.0625 -0.0625,-0.0625 0.125,0.125 q 0.125,0.125 0.25,0.25 l 0.125,0.125 -0.1875,-0.1875" fill="#e9b402"/><path inkscape:connector-curvature="0" fill-opacity="1" id="path3457" d="m -13.067797,10.855931 0,-0.5 0.375,-0.125 0.375,-0.125 -0.28125,0.09375 -0.28125,0.09375 0.1875,-0.0625 q 0.1875,-0.0625 0.3125,-0.1875 l 0.125,-0.1249995 -0.0625,0.0625 -0.0625,0.062499 0.3125,0.3125 0.3125,0.3125 0.0625,-0.0625 0.0625,-0.0625 -0.125,0.125 q -0.125,0.125 -0.1875,0.3125 l -0.0625,0.1875 0.09375,-0.28125 0.09375,-0.28125 -0.125,0.375 -0.125,0.375 -0.5,0 -0.5,0 0,-0.5 m 0,0.125 0,0.375 0,0.125 0,0.125 0,-0.25 q 0,-0.25 0,-0.5 l 0,-0.25 0,0.375 m 0,-0.75 0,0.125 0,0.375 0,0.375 0,-0.25 q 0,-0.25 0,-0.5 l 0,-0.25 0,0.125" fill="#f3c429"/><path inkscape:connector-curvature="0" fill-opacity="1" id="path3459" d="m -11.942797,10.980931 q 0.125,-0.375 0.5,-0.5 l 0.375,-0.125 0,0.5 0,0.5 -0.5,0 -0.5,0 0.125,-0.375 m 0.875,-0.25 0,-0.375 0,-0.125 0,-0.125 0,0.25 q 0,0.25 0,0.5 l 0,0.25 0,-0.375" fill="#dfc770"/><path inkscape:connector-curvature="0" fill-opacity="1" id="path3461" d="m -11.067797,10.855931 0,-0.5 0.5,0 0.5,0 0,0.5 0,0.5 -0.5,0 -0.5,0 0,-0.5 m 1,0.625 0,-0.125 0,-0.375 0,-0.375 0,0.25 q 0,0.25 0,0.5 l 0,0.25 0,-0.125" fill="#efa205"/><path inkscape:connector-curvature="0" fill-opacity="1" id="path3463" d="m -10.067797,10.855931 0,-0.5 0.5,0 0.5,0 0,0.5 0,0.5 -0.5,0 -0.5,0 0,-0.5 m 1.125,-0.5 -0.125,0 -0.375,0 -0.375,0 0.25,0 q 0.25,0 0.5,0 l 0.25,0 -0.125,0 m -1.125,-0.125 0,0.125 0,0.375 0,0.375 0,-0.25 q 0,-0.25 0,-0.5 l 0,-0.25 0,0.125" fill="#b43e12"/><path inkscape:connector-curvature="0" fill-opacity="1" id="path3465" d="m -9.067797,10.855931 0,-0.5 0.5,0 0.5,0 0,0.5 0,0.5 -0.5,0 -0.5,0 0,-0.5 m 0,0.125 0,0.375 0,0.125 0,0.125 0,-0.25 q 0,-0.25 0,-0.5 l 0,-0.25 0,0.375 m 1,0.5 0,-0.125 0,-0.375 0,-0.375 0,0.25 q 0,0.25 0,0.5 l 0,0.25 0,-0.125 m -0.625,-1.125 -0.375,0 -0.125,0 -0.125,0 0.25,0 q 0.25,0 0.5,0 l 0.25,0 -0.375,0" fill="#c08c07"/><path inkscape:connector-curvature="0" fill-opacity="1" id="path3467" d="m -8.067797,10.855931 0,-0.5 0.5,0 0.5,0 0,0.5 0,0.5 -0.5,0 -0.5,0 0,-0.5" fill="#b02616"/><path inkscape:connector-curvature="0" fill-opacity="1" id="path3469" d="m -7.067797,10.855931 0,-0.5 0.5,0 0.5,0 0,0.5 0,0.5 -0.5,0 -0.5,0 0,-0.5 m 1.125,-0.5 -0.125,0 -0.375,0 -0.375,0 0.25,0 q 0.25,0 0.5,0 l 0.25,0 -0.125,0" fill="#d2b9be"/><path inkscape:connector-curvature="0" fill-opacity="1" id="path3471" d="m -6.067797,10.855931 0,-0.5 0.5,0 0.5,0 0,0.5 0,0.5 -0.484375,-0.01563 -0.484375,-0.01563 0.01563,0.109375 0.01563,0.109375 -0.03125,-0.21875 q -0.03126,-0.21874 -0.03126,-0.46874 l 0,-0.25 0,0.375 0,0.375 0,-0.5 m 1,0.625 0,-0.125 0,-0.375 0,-0.375 0,0.25 q 0,0.25 0,0.5 l 0,0.25 0,-0.125 m 0.125,-1.125 -0.125,0 -0.375,0 -0.375,0 0.25,0 q 0.25,0 0.5,0 l 0.25,0 -0.125,0 m -0.75,0 -0.375,0 -0.125,0 -0.125,0 0.25,0 q 0.25,0 0.5,0 l 0.25,0 -0.375,0" fill="#e18ab0"/><path inkscape:connector-curvature="0" fill-opacity="1" id="path3473" d="m -5.067797,10.855931 0,-0.5 0.5,0 0.5,0 0,0.5 0,0.5 -0.5,0 -0.5,0 0,-0.5 m 0.375,-0.5 -0.375,0 -0.125,0 -0.125,0 0.25,0 q 0.25,0 0.5,0 l 0.25,0 -0.375,0" fill="#d3b6bd"/><path inkscape:connector-curvature="0" fill-opacity="1" id="path3475" d="m -4.067797,10.855931 0,-0.5 0.5,0 0.5,0 -0.375,0 -0.375,0 0.25,0 q 0.25,0 0.46875,0.03125 l 0.21875,0.03125 -0.109375,-0.01563 -0.109375,-0.01563 0.01563,0.484375 0.01562,0.484385 -0.5,0 -0.5,0 0,-0.5 m 0,0.125 0,0.375 0,0.125 0,0.125 0,-0.25 q 0,-0.25 0,-0.5 l 0,-0.25 0,0.375" fill="#f3c631"/><path inkscape:connector-curvature="0" fill-opacity="1" id="path3477" d="m -3.083422,10.871556 -0.01563,-0.484375 -0.109375,-0.01563 -0.109375,-0.01563 0.21875,0.03125 q 0.21875,0.03125 0.40625,0.09375 l 0.1875,0.0625 -0.28125,-0.09375 -0.28125,-0.09375 0.375,0.125 q 0.375,0.125 0.5,0.5 l 0.125,0.375 -0.5,0 -0.5,0 -0.01563,-0.484375" fill="#e0c76b"/><path inkscape:connector-curvature="0" fill-opacity="1" id="path3479" d="m -2.192797,10.980931 -0.125,-0.375 0.09375,0.28125 0.09375,0.28125 -0.0625,-0.1875 q -0.0625,-0.1875 -0.1875,-0.3125 l -0.125,-0.125 0.0625,0.0625 0.0625,0.0625 0.296875,-0.296875 0.296875,-0.296875 -0.07813,-0.04687 -0.07812,-0.046879 0.15625,0.093749 q 0.15625,0.09375 0.34375,0.15625 l 0.1875,0.0625 -0.28125,-0.09375 -0.28125,-0.09375 0.359375,0.140625 0.359375,0.140625 -0.01563,-0.109375 -0.01563,-0.109375 0.03125,0.21875 q 0.03125,0.21875 0.03125,0.46875 l 0,0.25 0,-0.375 0,-0.375 0,0.5 0,0.5 -0.5,0 -0.5,0 -0.125,-0.375 m 1.125,0.5 0,-0.125 0,-0.375 0,-0.375 0,0.25 q 0,0.25 0,0.5 l 0,0.25 0,-0.125" fill="#f1c62e"/><path inkscape:connector-curvature="0" fill-opacity="1" id="path3481" d="m -13.067797,11.855931 0,-0.5 0.5,0 0.5,0 0,0.5 0,0.5 -0.5,0 -0.5,0 0,-0.5 m 0,-0.625 0,0.125 0,0.375 0,0.375 0,-0.25 q 0,-0.25 0,-0.5 l 0,-0.25 0,0.125" fill="#db902e"/><path inkscape:connector-curvature="0" fill-opacity="1" id="path3483" d="m -12.067797,11.855931 0,-0.5 0.5,0 0.5,0 0,0.5 0,0.5 -0.5,0 -0.5,0 0,-0.5 m 0,0.125 0,0.375 0,0.125 0,0.125 0,-0.25 q 0,-0.25 0,-0.5 l 0,-0.25 0,0.375" fill="#c06e48"/><path inkscape:connector-curvature="0" fill-opacity="1" id="path3485" d="m -11.067797,11.855931 0,-0.5 0.5,0 0.5,0 0,0.5 0,0.5 -0.5,0 -0.5,0 0,-0.5 m 1,0.625 0,-0.125 0,-0.375 0,-0.375 0,0.25 q 0,0.25 0,0.5 l 0,0.25 0,-0.125 m 0,-0.75 0,-0.375 0,-0.125 0,-0.125 0,0.25 q 0,0.25 0,0.5 l 0,0.25 0,-0.375" fill="#d36b0d"/><path inkscape:connector-curvature="0" fill-opacity="1" id="path3487" d="m -10.067797,11.855931 0,-0.5 0.5,0 0.5,0 0,0.5 0,0.5 -0.5,0 -0.5,0 0,-0.5" fill="#af4318"/><path inkscape:connector-curvature="0" fill-opacity="1" id="path3489" d="m -9.067797,11.855931 0,-0.5 0.5,0 0.5,0 0,0.5 0,0.5 -0.5,0 -0.5,0 0,-0.5 m 0,0.125 0,0.375 0,0.125 0,0.125 0,-0.25 q 0,-0.25 0,-0.5 l 0,-0.25 0,0.375 m 1,-0.25 0,-0.375 0,-0.125 0,-0.125 0,0.25 q 0,0.25 0,0.5 l 0,0.25 0,-0.375 m -1,-0.5 0,0.125 0,0.375 0,0.375 0,-0.25 q 0,-0.25 0,-0.5 l 0,-0.25 0,0.125" fill="#aa9f24"/><path inkscape:connector-curvature="0" fill-opacity="1" id="path3491" d="m -8.067797,11.855931 0,-0.5 0.5,0 0.5,0 0,0.5 0,0.5 -0.5,0 -0.5,0 0,-0.5" fill="#af2416"/><path inkscape:connector-curvature="0" fill-opacity="1" id="path3493" d="m -7.067797,11.855931 0,-0.5 0.5,0 0.5,0 0.125,0.375 0.125,0.375 -0.09375,-0.28125 -0.09375,-0.28125 0.0625,0.1875 q 0.0625,0.1875 0.1875,0.3125 l 0.125,0.125 -0.0625,-0.0625 -0.0625,-0.0625 -0.3125,0.3125 -0.3125,0.3125 0.0625,0.0625 0.0625,0.0625 -0.125,-0.125 q -0.125,-0.125 -0.3125,-0.1875 l -0.1875,-0.0625 0.28125,0.09375 0.28125,0.09375 -0.375,-0.125 -0.375,-0.125 0,-0.5" fill="#cbb2b4"/><path inkscape:connector-curvature="0" fill-opacity="1" id="path3495" d="m -5.942797,11.730931 -0.125,-0.375 0.09375,0.28125 0.09375,0.28125 -0.0625,-0.1875 q -0.0625,-0.1875 -0.09375,-0.40625 l -0.03125,-0.21875 0.01563,0.109375 0.01563,0.109375 0.484375,0.01563 0.484365,0.01562 0.01563,0.484375 0.01563,0.484375 0.109375,0.01563 0.109365,0.01562 -0.21875,-0.03125 q -0.21875,-0.03125 -0.40625,-0.09375 l -0.1875,-0.0625 0.28125,0.09375 0.28125,0.09375 -0.375,-0.125 q -0.375,-0.125 -0.5,-0.5 m 0.875,0 0,-0.375 0,-0.125 0,-0.125 0,0.25 q 0,0.25 0,0.5 l 0,0.25 0,-0.375" fill="#df96b7"/><path inkscape:connector-curvature="0" fill-opacity="1" id="path3497" d="m -5.052172,11.840306 -0.01563,-0.484375 0.5,0 0.5,0 0,0.5 0,0.5 -0.5,0 -0.5,0 0.375,0 0.375,0 -0.25,0 q -0.25,0 -0.46875,-0.03125 l -0.21875,-0.03125 0.109375,0.01563 0.109375,0.01563 -0.01563,-0.484375" fill="#d5b4c3"/><path inkscape:connector-curvature="0" fill-opacity="1" id="path3499" d="m -4.067797,11.855931 0,-0.5 0.5,0 0.5,0 0,0.5 0,0.5 -0.5,0 -0.5,0 0,-0.5 m 0,-0.625 0,0.125 0,0.375 0,0.375 0,-0.25 q 0,-0.25 0,-0.5 l 0,-0.25 0,0.125" fill="#d99538"/><path inkscape:connector-curvature="0" fill-opacity="1" id="path3501" d="m -3.067797,11.855931 0,-0.5 0.5,0 0.5,0 0,0.5 0,0.5 -0.5,0 -0.5,0 0,-0.5 m 1,0.625 0,-0.125 0,-0.375 0,-0.375 0,0.25 q 0,0.25 0,0.5 l 0,0.25 0,-0.125" fill="#c36e43"/><path inkscape:connector-curvature="0" fill-opacity="1" id="path3503" d="m -2.067797,11.855931 0,-0.5 0.5,0 0.5,0 0,0.5 0,0.5 -0.5,0 -0.5,0 0,-0.5 m 1,-0.125 0,-0.375 0,-0.125 0,-0.125 0,0.25 q 0,0.25 0,0.5 l 0,0.25 0,-0.375" fill="#d8912f"/><path inkscape:connector-curvature="0" fill-opacity="1" id="path3505" d="m -13.067797,12.855931 0,-0.5 0.5,0 0.5,0 0,0.5 0,0.5 -0.5,0 -0.5,0 0,-0.5" fill="#d37b2b"/><path inkscape:connector-curvature="0" fill-opacity="1" id="path3507" d="m -12.067797,12.855931 0,-0.5 0.5,0 0.5,0 0,0.5 0,0.5 -0.5,0 -0.5,0 0,-0.5 m 0,0.125 0,0.375 0,0.125 0,0.125 0,-0.25 q 0,-0.25 0,-0.5 l 0,-0.25 0,0.375 m 0,-0.75 0,0.125 0,0.375 0,0.375 0,-0.25 q 0,-0.25 0,-0.5 l 0,-0.25 0,0.125" fill="#d0ad87"/><path inkscape:connector-curvature="0" fill-opacity="1" id="path3509" d="m -11.067797,12.855931 0,-0.5 0.5,0 0.5,0 0,0.5 0,0.5 -0.5,0 -0.5,0 0,-0.5 m 1,-0.125 0,-0.375 0,-0.125 0,-0.125 0,0.25 q 0,0.25 0,0.5 l 0,0.25 0,-0.375" fill="#e48b08"/><path inkscape:connector-curvature="0" fill-opacity="1" id="path3511" d="m -10.067797,12.855931 0,-0.5 0.5,0 0.5,0 0,0.5 0,0.5 -0.5,0 -0.5,0 0,-0.5 m 0.625,0.5 0.375,0 0.125,0 0.125,0 -0.25,0 q -0.25,0 -0.5,0 l -0.25,0 0.375,0" fill="#b43b13"/><path inkscape:connector-curvature="0" fill-opacity="1" id="path3513" d="m -9.067797,12.855931 0,-0.5 0.5,0 0.5,0 0,0.5 0,0.5 0,-0.375 0,-0.375 0,0.25 q 0,0.25 0.03125,0.46875 l 0.03125,0.21875 -0.01563,-0.109375 -0.01563,-0.109375 -0.515625,0.01563 -0.515625,0.01563 0,-0.5 m -0.125,0.5 0.125,0 0.375,0 0.375,0 -0.25,0 q -0.25,0 -0.5,0 l -0.25,0 0.125,0 m 0.125,-1.125 0,0.125 0,0.375 0,0.375 0,-0.25 q 0,-0.25 0,-0.5 l 0,-0.25 0,0.125" fill="#9f722f"/><path inkscape:connector-curvature="0" fill-opacity="1" id="path3515" d="m -8.067797,12.855931 0,-0.5 0.5,0 0.5,0 0.125,0.375 0.125,0.375 -0.09375,-0.28125 -0.09375,-0.28125 0.0625,0.1875 q 0.0625,0.1875 0.1875,0.3125 l 0.125,0.125 -0.0625,-0.0625 -0.0625,-0.0625 -0.3125,0.3125 -0.3125,0.3125 0.0625,0.0625 0.0625,0.0625 -0.125,-0.125 q -0.125,-0.125 -0.3125,-0.1875 l -0.1875,-0.0625 0.28125,0.09375 0.28125,0.09375 -0.375,-0.125 -0.375,-0.125 0,-0.5" fill="#714953"/><path inkscape:connector-curvature="0" fill-opacity="1" id="path3517" d="m -6.942797,12.730931 -0.125,-0.375 0.375,0.125 q 0.375,0.125 0.5,0.5 l 0.125,0.375 -0.09375,-0.28125 -0.09375,-0.28125 0.0625,0.1875 q 0.0625,0.1875 0.21875,0.28125 l 0.15625,0.09375 -0.07813,-0.04687 -0.07813,-0.04687 -0.421875,-0.07813 q -0.421865,-0.07813 -0.546865,-0.45313" fill="#6a5162"/><path inkscape:connector-curvature="0" fill-opacity="1" id="path3519" d="m -6.192797,12.980931 -0.125,-0.375 0.09375,0.28125 0.09375,0.28125 -0.0625,-0.1875 q -0.0625,-0.1875 -0.1875,-0.3125 l -0.125,-0.125 0.0625,0.0625 0.0625,0.0625 0.3125,-0.3125 0.3125,-0.3125 -0.0625,-0.0625 -0.0625,-0.0625 0.125,0.125 q 0.125,0.125 0.3125,0.1875 l 0.1875,0.0625 -0.28125,-0.09375 -0.28125,-0.09375 0.375,0.125 0.375,0.125 0,0.5 0,0.5 -0.5,0 q -0.5,0 -0.625,-0.375" fill="#d0bec4"/><path inkscape:connector-curvature="0" fill-opacity="1" id="path3521" d="m -5.067797,12.855931 0,-0.5 0.5,0 0.5,0 0,0.5 0,0.5 -0.5,0 -0.5,0 0,-0.5" fill="#d1bec5"/><path inkscape:connector-curvature="0" fill-opacity="1" id="path3523" d="m -4.067797,12.855931 0,-0.5 0.5,0 0.5,0 0,0.5 0,0.5 -0.5,0 -0.5,0 0,-0.5" fill="#e9b233"/><path inkscape:connector-curvature="0" fill-opacity="1" id="path3525" d="m -3.067797,12.855931 0,-0.5 0.5,0 0.5,0 0,0.5 0,0.5 -0.5,0 -0.5,0 0,-0.5 m 1,0.625 0,-0.125 0,-0.375 0,-0.375 0,0.25 q 0,0.25 0,0.5 l 0,0.25 0,-0.125 m 0,-0.75 0,-0.375 0,-0.125 0,-0.125 0,0.25 q 0,0.25 0,0.5 l 0,0.25 0,-0.375" fill="#d3ab7f"/><path inkscape:connector-curvature="0" fill-opacity="1" id="path3527" d="m -2.067797,12.855931 0,-0.5 0.5,0 0.5,0 0,0.5 0,0.5 -0.5,0 -0.5,0 0,-0.5" fill="#d37e2e"/><path inkscape:connector-curvature="0" fill-opacity="1" id="path3529" d="m -1.067797,12.855931 0,-0.5 0.5,0 q 0.5,0 0.5,0.5 0,0.5 -0.5,0.5 l -0.5,0 0,-0.5" fill="#fec200"/><path inkscape:connector-curvature="0" fill-opacity="1" id="path3531" d="m -13.067797,13.855931 0,-0.5 0.5,0 0.5,0 0,0.5 0,0.5 -0.5,0 -0.5,0 0,-0.5 m 0,0.125 0,0.375 0,0.125 0,0.125 0,-0.25 q 0,-0.25 0,-0.5 l 0,-0.25 0,0.375" fill="#d67f2c"/><path inkscape:connector-curvature="0" fill-opacity="1" id="path3533" d="m -12.067797,13.855931 0,-0.5 0.5,0 0.5,0 0,0.5 0,0.5 -0.5,0 -0.5,0 0,-0.5 m 1,0.625 0,-0.125 0,-0.375 0,-0.375 0,0.25 q 0,0.25 0,0.5 l 0,0.25 0,-0.125 m -1,-1.25 0,0.125 0,0.375 0,0.375 0,-0.25 q 0,-0.25 0,-0.5 l 0,-0.25 0,0.125" fill="#c16b57"/><path inkscape:connector-curvature="0" fill-opacity="1" id="path3535" d="m -11.067797,13.855931 0,-0.5 0.5,0 0.5,0 0,0.5 0,0.5 -0.5,0 -0.5,0 0,-0.5" fill="#dea11e"/><path inkscape:connector-curvature="0" fill-opacity="1" id="path3537" d="m -10.067797,13.855931 0,-0.5 0.5,0 0.5,0 0,0.5 q 0,0.5 0,1 l 0,0.500001 -0.5,0 -0.5,0 0,-0.500001 0,-0.5 0,-0.5" fill="#ba610c"/><path inkscape:connector-curvature="0" fill-opacity="1" id="path3539" d="m -9.067797,13.855931 0,-0.5 0.515625,-0.01563 0.515625,-0.01563 -0.01563,-0.109375 -0.01563,-0.109375 0.03125,0.21875 q 0.03125,0.21875 0.09375,0.40625 l 0.0625,0.1875 -0.09375,-0.28125 -0.09375,-0.28125 0.125,0.375 0.125,0.375 -0.09375,-0.28125 -0.09375,-0.28125 0.0625,0.1875 q 0.0625,0.1875 0.1875,0.3125 l 0.125,0.125 -0.0625,-0.0625 -0.0625,-0.0625 -0.28125,0.28125 q -0.28125,0.28125 -0.15625,0.65625 l 0.125,0.375001 -0.5,0 -0.5,0 0,-0.500001 q 0,-0.5 0,-1" fill="#b9570f"/><path inkscape:connector-curvature="0" fill-opacity="1" id="path3541" d="m -7.942797,13.730931 -0.125,-0.375 0.375,0.125 q 0.375,0.125 0.5,0.5 l 0.125,0.375 -0.375,-0.125 q -0.375,-0.125 -0.5,-0.5" fill="#704356"/><path inkscape:connector-curvature="0" fill-opacity="1" id="path3543" d="m -7.192797,13.980931 -0.125,-0.375 0.09375,0.28125 0.09375,0.28125 -0.0625,-0.1875 q -0.0625,-0.1875 -0.1875,-0.3125 l -0.125,-0.125 0.0625,0.0625 0.0625,0.0625 0.3125,-0.3125 0.3125,-0.3125 -0.0625,-0.0625 -0.0625,-0.0625 0.125,0.125 q 0.125,0.125 0.3125,0.1875 l 0.1875,0.0625 -0.28125,-0.09375 -0.28125,-0.09375 0.421875,0.07813 0.421875,0.07813 -0.171875,0.421875 q -0.171875,0.421865 -0.546875,0.546865 l -0.375,0.125 -0.125,-0.375" fill="#6b4459"/><path inkscape:connector-curvature="0" fill-opacity="1" id="path3545" d="m -6.145922,13.684056 0.171875,-0.421875 -0.07813,-0.04687 -0.07813,-0.04687 0.15625,0.09375 q 0.15626,0.09374 0.40626,0.09374 l 0.25,0 -0.375,0 -0.375,0 0.5,0 0.5,0 0.125,0.375 0.125,0.375 -0.09375,-0.28125 -0.09375,-0.28125 0.0625,0.1875 q 0.0625,0.1875 0.1875,0.3125 l 0.125,0.125 -0.0625,-0.0625 -0.0625,-0.0625 -0.3125,0.3125 -0.3125,0.3125 0.03125,0.03125 0.03125,0.03125 -0.0625,-0.0625 q -0.0625,-0.0625 -0.1875,-0.0625 l -0.125,0 0.1875,0 0.1875,0 -0.25,0 -0.25,0 0.1875,0 0.1875,0 -0.125,0 q -0.125,0 -0.21875,0.09375 l -0.09375,0.09375 0.04687,-0.04687 0.04687,-0.04687 -0.296865,-0.328135 -0.296875,-0.328125 -0.0625,0.0625 -0.0625,0.0625 0.125,-0.125 q 0.125,-0.125 0.1875,-0.3125 l 0.0625,-0.1875 -0.09375,0.28125 -0.09375,0.28125 0.171875,-0.421875" fill="#b53f12"/><path inkscape:connector-curvature="0" fill-opacity="1" id="path3547" d="m -4.942797,13.730931 -0.125,-0.375 0.5,0 0.5,0 0,0.5 0,0.5 -0.375,-0.125 q -0.375,-0.125 -0.5,-0.5" fill="#b54312"/><path inkscape:connector-curvature="0" fill-opacity="1" id="path3549" d="m -4.067797,13.855931 0,-0.5 0.5,0 0.5,0 0,0.5 0,0.5 -0.5,0 -0.5,0 0,-0.5" fill="#e0982c"/><path inkscape:connector-curvature="0" fill-opacity="1" id="path3551" d="m -3.067797,13.855931 0,-0.5 0.5,0 0.5,0 0,0.5 0,0.5 -0.5,0 -0.5,0 0,-0.5 m 0,0.125 0,0.375 0,0.125 0,0.125 0,-0.25 q 0,-0.25 0,-0.5 l 0,-0.25 0,0.375 m 1,-0.25 0,-0.375 0,-0.125 0,-0.125 0,0.25 q 0,0.25 0,0.5 l 0,0.25 0,-0.375" fill="#c36c55"/><path inkscape:connector-curvature="0" fill-opacity="1" id="path3553" d="m -2.067797,13.855931 0,-0.5 0.5,0 0.5,0 0,0.5 0,0.5 -0.5,0 -0.5,0 0,-0.5 m 1,0.625 0,-0.125 0,-0.375 0,-0.375 0,0.25 q 0,0.25 0,0.5 l 0,0.25 0,-0.125" fill="#d47c2f"/><path inkscape:connector-curvature="0" fill-opacity="1" id="path3555" d="m -13.067797,14.855931 0,-0.5 0.5,0 0.5,0 0,0.5 0,0.500001 -0.5,0 -0.5,0 0,-0.500001 m 0,0.125 0,0.375001 0,0.125 0,0.125 0,-0.25 q 0,-0.250001 0,-0.500001 l 0,-0.25 0,0.375 m 0,-0.75 0,0.125 0,0.375 0,0.375 0,-0.25 q 0,-0.25 0,-0.5 l 0,-0.25 0,0.125" fill="#e6ab37"/><path inkscape:connector-curvature="0" fill-opacity="1" id="path3557" d="m -12.067797,14.855931 0,-0.5 0.5,0 0.5,0 0,0.5 0,0.500001 -0.5,0 -0.5,0 0,-0.500001 m 1,-0.125 0,-0.375 0,-0.125 0,-0.125 0,0.25 q 0,0.25 0,0.5 l 0,0.25 0,-0.375" fill="#d8ca9c"/><path inkscape:connector-curvature="0" fill-opacity="1" id="path3559" d="m -11.067797,14.855931 0,-0.5 0.5,0 0.5,0 0,0.5 0,0.500001 -0.5,0 -0.5,0 0,-0.500001 m 1,0.625001 0,-0.125 0,-0.375001 0,-0.375 0,0.25 q 0,0.25 0,0.500001 l 0,0.25 0,-0.125" fill="#e1a51d"/><path inkscape:connector-curvature="0" fill-opacity="1" id="path3561" d="m -8.192797,14.980931 q -0.125,-0.375 0.15625,-0.65625 l 0.28125,-0.28125 -0.0625,-0.0625 -0.0625,-0.0625 0.125,0.125 q 0.125,0.125 0.3125,0.1875 l 0.1875,0.0625 -0.28125,-0.09375 -0.28125,-0.09375 0.375,0.125 0.375,0.125 -0.28125,-0.09375 -0.28125,-0.09375 0.1875,0.0625 q 0.1875,0.0625 0.375,0.0625 l 0.1875,0 -0.09375,0 -0.09375,0 0,0.53125 0,0.531251 -0.5,0 -0.5,0 -0.125,-0.375001" fill="#bb660c"/><path inkscape:connector-curvature="0" fill-opacity="1" id="path3563" d="m -7.067797,14.824681 0,-0.53125 -0.09375,0 -0.09375,0 0.1875,0 q 0.1875,0 0.375,-0.0625 l 0.1875,-0.0625 -0.28125,0.09375 -0.28125,0.09375 0.375,-0.125 0.375,-0.125 -0.28125,0.09375 -0.28125,0.09375 0.1875,-0.0625 q 0.1875,-0.0625 0.3125,-0.1875 l 0.125,-0.125 -0.0625,0.0625 -0.0625,0.0625 0.296875,0.328125 0.296875,0.328125 0.04687,-0.04687 0.04688,-0.04688 -0.09375,0.09375 q -0.09375,0.09375 -0.15625,0.28125 l -0.0625,0.1875 0.09375,-0.28125 0.09375,-0.28125 -0.140625,0.359375 -0.140625,0.359376 0.109375,-0.01563 0.109375,-0.01563 -0.21875,0.03125 q -0.21875,0.03125 -0.46875,0.03125 l -0.25,0 0.375,0 0.375,0 -0.5,0 -0.5,0 0,-0.531251 m 0,0.15625 0,0.375001 0,0.125 0,0.125 0,-0.25 q 0,-0.250001 0,-0.500001 l 0,-0.25 0,0.375" fill="#b43817"/><path inkscape:connector-curvature="0" fill-opacity="1" id="path3565" d="m -5.958422,14.965306 q 0.140625,-0.359375 0.390625,-0.359375 0.25,0 0.25,0.25 0,0.25 -0.375,0.375001 l -0.375,0.125 0.28125,-0.09375 0.28125,-0.09375 -0.1875,0.0625 q -0.1875,0.0625 -0.40625,0.09375 l -0.21875,0.03125 0.109375,-0.01563 0.109375,-0.01563 0.140625,-0.359376" fill="#ae5e13"/><path inkscape:connector-curvature="0" fill-opacity="1" id="path3567" d="m -5.317797,14.855931 0,-0.25 0,0.1875 0,0.1875 0,-0.125 q 0,-0.125 -0.0625,-0.1875 l -0.0625,-0.0625 0.03125,0.03125 0.03125,0.03125 0.3125,-0.3125 0.3125,-0.3125 -0.0625,-0.0625 -0.0625,-0.0625 0.125,0.125 q 0.125,0.125 0.3125,0.1875 l 0.1875,0.0625 -0.28125,-0.09375 -0.28125,-0.09375 0.375,0.125 0.375,0.125 0,0.5 0,0.500001 -0.375,0.125 -0.375,0.125 0.28125,-0.09375 0.28125,-0.09375 -0.1875,0.0625 q -0.1875,0.0625 -0.3125,0.1875 l -0.125,0.125 0.0625,-0.0625 0.0625,-0.0625 -0.328125,-0.296875 -0.328125,-0.296876 -0.04687,0.04687 -0.04687,0.04687 0.09375,-0.09375 q 0.09374,-0.09374 0.09374,-0.21874 l 0,-0.125 0,0.1875 0,0.1875 0,-0.25" fill="#b64512"/><path inkscape:connector-curvature="0" fill-opacity="1" id="path3569" d="m -4.067797,14.855931 0,-0.5 0.5,0 0.5,0 0,0.5 0,0.500001 -0.5,0 -0.5,0 0,-0.500001 m 0,0.125 0,0.375001 0,0.125 0,0.125 0,-0.25 q 0,-0.250001 0,-0.500001 l 0,-0.25 0,0.375" fill="#e29b2b"/><path inkscape:connector-curvature="0" fill-opacity="1" id="path3571" d="m -3.067797,14.855931 0,-0.5 0.5,0 0.5,0 0,0.5 0,0.500001 -0.5,0 -0.5,0 0,-0.500001 m 0,-0.625 0,0.125 0,0.375 0,0.375 0,-0.25 q 0,-0.25 0,-0.5 l 0,-0.25 0,0.125" fill="#daca95"/><path inkscape:connector-curvature="0" fill-opacity="1" id="path3573" d="m -2.067797,14.855931 0,-0.5 0.5,0 0.5,0 0,0.5 0,0.500001 -0.5,0 -0.5,0 0,-0.500001 m 1,0.625001 0,-0.125 0,-0.375001 0,-0.375 0,0.25 q 0,0.25 0,0.500001 l 0,0.25 0,-0.125 m 0,-0.750001 0,-0.375 0,-0.125 0,-0.125 0,0.25 q 0,0.25 0,0.5 l 0,0.25 0,-0.375" fill="#e5ab3e"/><path inkscape:connector-curvature="0" fill-opacity="1" id="path3575" d="m -13.067797,15.855932 0,-0.5 0.5,0 0.5,0 0,0.5 0,0.5 -0.484375,-0.01563 -0.484375,-0.01563 0.01563,0.109375 0.01563,0.109375 -0.03125,-0.21875 q -0.03126,-0.21874 -0.03126,-0.46874 l 0,-0.25 0,0.375 0,0.375 0,-0.5 m 0,-0.625 0,0.125 0,0.375 0,0.375 0,-0.25 q 0,-0.25 0,-0.5 l 0,-0.250001 0,0.125001" fill="#f0c115"/><path inkscape:connector-curvature="0" fill-opacity="1" id="path3577" d="m -12.067797,15.855932 0,-0.5 0.5,0 0.5,0 0,0.5 0,0.5 -0.5,0 -0.5,0 0,-0.5" fill="#e0c13a"/><path inkscape:connector-curvature="0" fill-opacity="1" id="path3579" d="m -11.067797,15.855932 0,-0.5 0.5,0 0.5,0 0,0.5 0,0.5 -0.5,0 -0.5,0 0,-0.5 m 1,-0.125 0,-0.375 0,-0.125 0,-0.125001 0,0.250001 q 0,0.25 0,0.5 l 0,0.25 0,-0.375" fill="#edb111"/><path inkscape:connector-curvature="0" fill-opacity="1" id="path3581" d="m -10.067797,15.855932 0,-0.5 0.5,0 0.5,0 0,0.5 0,0.5 -0.5,0 -0.5,0 0,-0.5" fill="#ba610e"/><path inkscape:connector-curvature="0" fill-opacity="1" id="path3583" d="m -9.067797,15.855932 0,-0.5 0.5,0 0.5,0 0,0.5 0,0.5 -0.5,0 -0.5,0 0,-0.5" fill="#b8580f"/><path inkscape:connector-curvature="0" fill-opacity="1" id="path3585" d="m -8.067797,15.855932 0,-0.5 0.5,0 0.5,0 0,0.5 0,0.5 -0.5,0 -0.5,0 0,-0.5" fill="#bb6716"/><path inkscape:connector-curvature="0" fill-opacity="1" id="path3587" d="m -7.067797,15.855932 0,-0.5 0.5,0 0.5,0 0,0.5 0,0.5 -0.5,0 -0.5,0 0,-0.5 m 0,-0.625 0,0.125 0,0.375 0,0.375 0,-0.25 q 0,-0.25 0,-0.5 l 0,-0.250001 0,0.125001" fill="#b64c23"/><path inkscape:connector-curvature="0" fill-opacity="1" id="path3589" d="m -6.067797,15.855932 0,-0.5 0.375,-0.125 0.375,-0.125001 -0.28125,0.09375 -0.28125,0.09375 0.1875,-0.0625 q 0.1875,-0.0625 0.28125,-0.156251 l 0.09375,-0.09375 -0.04687,0.04687 -0.04687,0.04687 0.328125,0.296876 0.328125,0.296875 0.0625,-0.0625 0.0625,-0.0625 -0.125,0.125 q -0.125,0.125 -0.1875,0.3125 l -0.06251,0.18751 0.09375,-0.28125 0.09375,-0.28125 -0.125,0.375 -0.125,0.375 -0.5,0 -0.5,0 0,-0.5" fill="#b64611"/><path inkscape:connector-curvature="0" fill-opacity="1" id="path3591" d="m -4.942797,15.980932 q 0.125,-0.375 0.5,-0.5 l 0.375,-0.125 0,0.5 0,0.5 -0.5,0 -0.5,0 0.125,-0.375" fill="#b64b11"/><path inkscape:connector-curvature="0" fill-opacity="1" id="path3593" d="m -4.067797,15.855932 0,-0.5 0.5,0 0.5,0 0,0.5 0,0.5 -0.5,0 -0.5,0 0,-0.5 m 0,-0.625 0,0.125 0,0.375 0,0.375 0,-0.25 q 0,-0.25 0,-0.5 l 0,-0.250001 0,0.125001" fill="#eeab1a"/><path inkscape:connector-curvature="0" fill-opacity="1" id="path3595" d="m -3.067797,15.855932 0,-0.5 0.5,0 0.5,0 0,0.5 0,0.5 -0.5,0 -0.5,0 0,-0.5" fill="#e0c137"/><path inkscape:connector-curvature="0" fill-opacity="1" id="path3597" d="m -2.067797,15.855932 0,-0.5 0.5,0 0.5,0 0,0.5 0,0.5 0,-0.375 0,-0.375 0,0.25 q 0,0.25 -0.03125,0.46875 l -0.03125,0.21875 0.01563,-0.109375 0.01563,-0.109375 -0.484375,0.01563 -0.484385,0.01562 0,-0.5 m 1,-0.125 0,-0.375 0,-0.125 0,-0.125001 0,0.250001 q 0,0.25 0,0.5 l 0,0.25 0,-0.375" fill="#edc017"/><path inkscape:connector-curvature="0" fill-opacity="1" id="path3599" d="m -12.942797,16.730932 -0.125,-0.375 0.09375,0.28125 0.09375,0.28125 -0.0625,-0.1875 q -0.0625,-0.1875 -0.09375,-0.40625 l -0.03125,-0.21875 0.01563,0.109375 0.01563,0.109375 0.484375,0.01563 0.484365,0.01562 0.01563,0.484375 0.01563,0.484375 0.109375,0.01563 0.109365,0.01562 -0.21875,-0.03125 q -0.21875,-0.03125 -0.40625,-0.09375 l -0.1875,-0.0625 0.28125,0.09375 0.28125,0.09375 -0.375,-0.125 q -0.375,-0.125 -0.5,-0.5" fill="#b1a954"/><path inkscape:connector-curvature="0" fill-opacity="1" id="path3601" d="m -12.052172,16.840307 -0.01563,-0.484375 0.5,0 0.5,0 0,0.5 0,0.5 -0.5,0 -0.5,0 0.375,0 0.375,0 -0.25,0 q -0.25,0 -0.46875,-0.03125 l -0.21875,-0.03125 0.109375,0.01563 0.109375,0.01563 -0.01563,-0.484375 m 0.60938,0.515615 0.375,0 0.125,0 0.125,0 -0.25,0 q -0.25,0 -0.5,0 l -0.25,0 0.375,0" fill="#a0a464"/><path inkscape:connector-curvature="0" fill-opacity="1" id="path3603" d="m -11.067797,16.855932 0,-0.5 0.5,0 0.5,0 0,0.5 0,0.5 -0.5,0 -0.5,0 0,-0.5 m -0.125,0.5 0.125,0 0.375,0 0.375,0 -0.25,0 q -0.25,0 -0.5,0 l -0.25,0 0.125,0 m 0.75,0 0.375,0 0.125,0 0.125,0 -0.25,0 q -0.25,0 -0.5,0 l -0.25,0 0.375,0" fill="#e1b921"/><path inkscape:connector-curvature="0" fill-opacity="1" id="path3605" d="m -10.067797,16.855932 0,-0.5 0.5,0 0.5,0 0,0.5 0,0.5 -0.5,0 -0.5,0 0,-0.5 m -0.125,0.5 0.125,0 0.375,0 0.375,0 -0.25,0 q -0.25,0 -0.5,0 l -0.25,0 0.125,0 m 0.75,0 0.375,0 0.125,0 0.125,0 -0.25,0 q -0.25,0 -0.5,0 l -0.25,0 0.375,0 m 0.5,-1 -0.125,0 -0.375,0 -0.375,0 0.25,0 q 0.25,0 0.5,0 l 0.25,0 -0.125,0" fill="#d7952a"/><path inkscape:connector-curvature="0" fill-opacity="1" id="path3607" d="m -9.067797,16.855932 0,-0.5 0.5,0 0.5,0 0,0.5 0,0.5 -0.5,0 -0.5,0 0,-0.5 m -0.125,0.5 0.125,0 0.375,0 0.375,0 -0.25,0 q -0.25,0 -0.5,0 l -0.25,0 0.125,0 m 0.75,0 0.375,0 0.125,0 0.125,0 -0.25,0 q -0.25,0 -0.5,0 l -0.25,0 0.375,0 m 0.5,-1 -0.125,0 -0.375,0 -0.375,0 0.25,0 q 0.25,0 0.5,0 l 0.25,0 -0.125,0 m -0.75,0 -0.375,0 -0.125,0 -0.125,0 0.25,0 q 0.25,0 0.5,0 l 0.25,0 -0.375,0" fill="#c07438"/><path inkscape:connector-curvature="0" fill-opacity="1" id="path3609" d="m -8.067797,16.855932 0,-0.5 0.5,0 0.5,0 0,0.5 0,0.5 -0.5,0 -0.5,0 0,-0.5 m -0.125,0.5 0.125,0 0.375,0 0.375,0 -0.25,0 q -0.25,0 -0.5,0 l -0.25,0 0.125,0 m 0.75,0 0.375,0 0.125,0 0.125,0 -0.25,0 q -0.25,0 -0.5,0 l -0.25,0 0.375,0 m -0.25,-1 -0.375,0 -0.125,0 -0.125,0 0.25,0 q 0.25,0 0.5,0 l 0.25,0 -0.375,0" fill="#bba786"/><path inkscape:connector-curvature="0" fill-opacity="1" id="path3611" d="m -7.067797,16.855932 0,-0.5 0.5,0 0.5,0 0,0.5 0,0.5 -0.5,0 -0.5,0 0,-0.5 m -0.125,0.5 0.125,0 0.375,0 0.375,0 -0.25,0 q -0.25,0 -0.5,0 l -0.25,0 0.125,0 m 0.75,0 0.375,0 0.125,0 0.125,0 -0.25,0 q -0.25,0 -0.5,0 l -0.25,0 0.375,0 m 0.5,-1 -0.125,0 -0.375,0 -0.375,0 0.25,0 q 0.25,0 0.5,0 l 0.25,0 -0.125,0" fill="#b9a494"/><path inkscape:connector-curvature="0" fill-opacity="1" id="path3613" d="m -6.067797,16.855932 0,-0.5 0.5,0 0.5,0 0,0.5 0,0.5 -0.5,0 -0.5,0 0,-0.5 m -0.125,0.5 0.125,0 0.375,0 0.375,0 -0.25,0 q -0.25,0 -0.5,0 l -0.25,0 0.125,0 m 0.75,0 0.375,0 0.125,0 0.125,0 -0.25,0 q -0.25,0 -0.5,0 l -0.25,0 0.375,0 m 0.5,-1 -0.125,0 -0.375,0 -0.375,0 0.25,0 q 0.25,0 0.5,0 l 0.25,0 -0.125,0 m -0.75,0 -0.375,0 -0.125,0 -0.125,0 0.25,0 q 0.25,0 0.5,0 l 0.25,0 -0.375,0" fill="#bf6a44"/><path inkscape:connector-curvature="0" fill-opacity="1" id="path3615" d="m -5.067797,16.855932 0,-0.5 0.5,0 0.5,0 0,0.5 0,0.5 -0.5,0 -0.5,0 0,-0.5 m -0.125,0.5 0.125,0 0.375,0 0.375,0 -0.25,0 q -0.25,0 -0.5,0 l -0.25,0 0.125,0 m 0.75,0 0.375,0 0.125,0 0.125,0 -0.25,0 q -0.25,0 -0.5,0 l -0.25,0 0.375,0 m -0.25,-1 -0.375,0 -0.125,0 -0.125,0 0.25,0 q 0.25,0 0.5,0 l 0.25,0 -0.375,0" fill="#d78b35"/><path inkscape:connector-curvature="0" fill-opacity="1" id="path3617" d="m -4.067797,16.855932 0,-0.5 0.5,0 0.5,0 0,0.5 0,0.5 -0.5,0 -0.5,0 0,-0.5 m -0.125,0.5 0.125,0 0.375,0 0.375,0 -0.25,0 q -0.25,0 -0.5,0 l -0.25,0 0.125,0 m 0.75,0 0.375,0 0.125,0 0.125,0 -0.25,0 q -0.25,0 -0.5,0 l -0.25,0 0.375,0" fill="#e6bb1c"/><path inkscape:connector-curvature="0" fill-opacity="1" id="path3619" d="m -3.067797,16.855932 0,-0.5 0.5,0 0.5,0 -0.01563,0.484375 -0.01563,0.484375 0.109375,-0.01563 0.109375,-0.01563 -0.21875,0.03125 q -0.21874,0.03126 -0.46874,0.03126 l -0.25,0 0.375,0 0.375,0 -0.5,0 -0.5,0 0,-0.5 m -0.125,0.5 0.125,0 0.375,0 0.375,0 -0.25,0 q -0.25,0 -0.5,0 l -0.25,0 0.125,0" fill="#a0a365"/><path inkscape:connector-curvature="0" fill-opacity="1" id="path3621" d="m -2.083422,16.840307 0.01563,-0.484375 0.484375,-0.01563 0.484375,-0.01563 0.01563,-0.109375 0.01563,-0.109375 -0.03125,0.21875 q -0.03125,0.21875 -0.09375,0.40625 l -0.0625,0.1875 0.09375,-0.28125 0.09375,-0.28125 -0.125,0.375 q -0.125,0.375 -0.5,0.5 l -0.375,0.125 0.28125,-0.09375 0.28125,-0.09375 -0.1875,0.0625 q -0.1875,0.0625 -0.40625,0.09375 l -0.21875,0.03125 0.109375,-0.01563 0.109375,-0.01563 0.01563,-0.484375" fill="#ada859"/><path inkscape:connector-curvature="0" fill-opacity="1" id="path3623" d="m -7.067797,17.855932 0,-0.5 0.5,0 0.5,0 0,0.5 q 0,0.5 -0.5,0.5 -0.5,0 -0.5,-0.5" fill="#ffc401"/></g><metadata id="metadata9999"><rdf:RDF><cc:Work><dc:format>image/svg+xml</dc:format><dc:type rdf:resource="http://purl.org/dc/dcmitype/StillImage"/><dc:title/><cc:license rdf:resource="http://creativecommons.org/licenses/by-sa/4.0/"/><dc:creator><cc:Agent><dc:title>Sixsixfive (sixsixfive.deviantart.com)</dc:title></cc:Agent></dc:creator><dc:publisher><cc:Agent><dc:title>Sixsixfive (sixsixfive.deviantart.com)</dc:title></cc:Agent></dc:publisher><dc:source>https://github.com/sixsixfive</dc:source><dc:subject><rdf:Bag><rdf:li>ivy</rdf:li></rdf:Bag></dc:subject><dc:contributor><cc:Agent><dc:title>ssf</dc:title></cc:Agent></dc:contributor><dc:rights><cc:Agent><dc:title>Sixsixfive (sixisixfive.deviantart.com)</dc:title></cc:Agent></dc:rights><dc:description>A simple icon theme published under CC-BY-SA_V4(http://creativecommons.org/licenses/by-sa/4.0)</dc:description><dc:identifier>SSF</dc:identifier></cc:Work></rdf:RDF></metadata><!--Part of the Ivy icon them published under the CC-BY-SA_V4: http://creativecommons.org/licenses/by-sa/4.0 -->
</svg>