<?xml version="1.0" encoding="UTF-8" standalone="no"?><svg xmlns:cc="http://creativecommons.org/ns#" viewBox="0 0 16 16" version="1.1" id="svg2" xmlns:svg="http://www.w3.org/2000/svg" xmlns:rdf="http://www.w3.org/1999/02/22-rdf-syntax-ns#" xmlns="http://www.w3.org/2000/svg" xmlns:dc="http://purl.org/dc/elements/1.1/"><defs id="defs4"><linearGradient x2="2.281" gradientUnits="userSpaceOnUse" x1="3.153" id="0" y2="22.971" gradientTransform="matrix(0.36446 0 0 0.32416 -0.741 -0.248)" y1="3.993"><stop stop-color="#eeeeec" id="stop7"/><stop offset="1" stop-color="#555753" id="stop9"/></linearGradient><linearGradient x2="15.331" gradientUnits="userSpaceOnUse" x1="15" id="1" y2="8.345" y1="4"><stop stop-color="#fff" id="stop12"/><stop offset="1" stop-opacity="0" stop-color="#fff" id="stop14"/></linearGradient><linearGradient x2="16.02" gradientUnits="userSpaceOnUse" x1="16.06" id="2" y2="13.938" y1="3.226"><stop stop-color="#00d4d4" id="stop17"/><stop offset="1" stop-color="#9fffff" id="stop19"/></linearGradient></defs><g id="g21" color="#000"><g fill-rule="evenodd" id="g23"><path fill="url(#0)" id="path27" d="m 1.5598,1.0486 c -0.201912,0 -0.289474,0.157418 -0.364462,0.324155 l -0.4328,0.6729 -0.41002,0 c -0.201912,0 -0.364462,0.144573 -0.364462,0.324155 l 0,11.2904 c 0,0.179583 0.16255,0.324155 0.364462,0.324155 l 15.3074,0 c 0.201911,0 0.364461,-0.144572 0.364461,-0.324155 l 0,-11.2904 c 0,-0.179582 -0.16255,-0.324155 -0.364461,-0.324155 l -8.2004,0 -0.4328,-0.6729 C 6.951731,1.206018 6.864168,1.0486 6.662256,1.0486 Z"/></g><g stroke-linejoin="round" fill="none" id="g29" stroke-linecap="round"><path opacity="0.43" id="path31" stroke="#000" transform="matrix(1.09339 0 0 0.9976 -0.75 -0.082)" d="M 2.21875,1.5625 1.84375,2.25 C 1.796029,2.343904 1.724302,2.423468 1.65625,2.46875 1.577782,2.520963 1.502257,2.562084 1.375,2.5625 l -0.1875,0 0,10.9375 13.625,0 0,-10.9375 -7.3125,0 C 7.245173,2.561666 7.095002,2.379202 7.03125,2.21875 l -0.375,-0.65625 -4.4375,0 z"/><path opacity="0.35" id="path33" stroke="#fff" transform="matrix(1.09339 0 0 0.9976 -0.75 0.018)" d="M 2.8125,2.5312 2.7813,2.5937 C 2.626079,2.984355 2.42736,3.142425 2.2188,3.2812 2.2024939,3.29205 2.1729132,3.301896 2.1563,3.31245 l 0,9.21875 11.6875,0 0,-9 -6.34375,0 C 6.796141,3.528897 6.42302,3.1472 6.2188,2.74995 L 6.125,2.59375 6.0938,2.53125 l -3.28125,0 z"/></g><path fill-rule="evenodd" fill="url(#2)" id="path35" d="M 8.5871,3.0438 C 8.435666,3.0438 8.345312,3.131382 8.279585,3.24547 8.257678,3.283496 8.241386,3.324975 8.222638,3.366472 l -0.2847,0.6453 -0.2961,0.6453 C 7.623089,4.69857 7.606798,4.740047 7.584891,4.778074 7.519165,4.892166 7.425345,5.008261 7.277376,4.979744 l -3.3485,0 -1.75397,0 -2.18677,0 0,8.68195 c 0,0.178761 0.16255,0.322673 0.364462,0.322673 l 15.3074,0 c 0.201912,0 0.36446,-0.143912 0.36446,-0.322673 l 0,-10.2953 c 0,-0.178761 -0.17509,-0.260653 -0.364461,-0.322672 l -1.97037,0 -3.13209,0 z"/><g fill="none" id="g37"><path opacity="0.37" id="path39" stroke="#000" d="M 8.6875,3.5 8.4063,4.1562 8.0938,4.8124 C 8.077763,4.848038 8.068384,4.904015 8.0313,4.96865 8.008462,5.008458 7.948145,5.15935 7.7813,5.28115 7.664028,5.366756 7.469944,5.486007 7.2188,5.4374 l -3.28125,0 -1.75,0 -1.6875,0 0,8.0625 15.0312,0 0,-10 -1.84375,0 -3.125,0 -1.875,0 z"/><path stroke-linejoin="round" stroke-miterlimit="1.7" opacity="0.4" id="path41" stroke="url(#1)" d="m 9.3438,4.5312 0,0.0312 a 1.33554,1.33554 0 0 1 0,0.03125 L 9.0313,5.24985 C 9.0170179,5.2815887 8.9660276,5.364499 8.9063,5.4686 8.9410227,5.4080758 8.8302567,5.792539 8.37505,6.12485 8.133997,6.300813 7.731932,6.572952 7.0313,6.43735 l 0.25,0.0312 -3.34375,0 -1.75,0 -0.65625,0 0,6 12.9688,0 0,-7.9375 -0.8125,0 -3.125,0 -1.21875,0 z"/></g></g><metadata id="metadata9999"><rdf:RDF><cc:Work><dc:format>image/svg+xml</dc:format><dc:type rdf:resource="http://purl.org/dc/dcmitype/StillImage"/><dc:title>Ivy icon theme</dc:title><cc:license rdf:resource="http://creativecommons.org/licenses/by-sa/4.0/"/><dc:creator><cc:Agent><dc:title>Sixsixfive (sixsixfive.deviantart.com)</dc:title></cc:Agent></dc:creator><dc:publisher><cc:Agent><dc:title>Sixsixfive (sixsixfive.deviantart.com)</dc:title></cc:Agent></dc:publisher><dc:source>https://github.com/sixsixfive</dc:source><dc:subject><rdf:Bag><rdf:li>ivy</rdf:li></rdf:Bag></dc:subject><dc:contributor><cc:Agent><dc:title>ssf</dc:title></cc:Agent></dc:contributor><dc:rights><cc:Agent><dc:title>Sixsixfive (sixisixfive.deviantart.com)</dc:title></cc:Agent></dc:rights><dc:description>A simple icon theme published under CC-BY-SA_V4(http://creativecommons.org/licenses/by-sa/4.0)</dc:description><dc:identifier>SSF</dc:identifier></cc:Work></rdf:RDF></metadata><!--Part of the Ivy icon them published under the CC-BY-SA_V4: http://creativecommons.org/licenses/by-sa/4.0 -->
</svg>