<?xml version="1.0" encoding="UTF-8" standalone="no"?><svg xmlns:cc="http://creativecommons.org/ns#" xmlns:svg="http://www.w3.org/2000/svg" xmlns="http://www.w3.org/2000/svg" xmlns:dc="http://purl.org/dc/elements/1.1/" xmlns:rdf="http://www.w3.org/1999/02/22-rdf-syntax-ns#" id="svg2" version="1.1" viewBox="0 0 16 16"><defs id="defs4"><linearGradient gradientUnits="userSpaceOnUse" y1="1" id="0" y2="15" x2="0"><stop id="stop7" stop-color="#5288d1"/><stop id="stop9" stop-color="#8aafe0" offset="1"/></linearGradient></defs><rect ry="1" width="13" rx="1" height="14" id="rect13" y="1" x="1" fill="url(#0)"/><rect ry="0.214" width="9" rx="0.214" height="3" opacity="0.3" id="rect15" y="4" x="3" fill="#fff"/><rect ry="0.214" width="9" rx="0.214" height="3" opacity="0.6" id="rect17" y="3" x="3"/><path stroke="#000" opacity="0.4" d="M 2 1.5 C 1.707227 1.5 1.5 1.707227 1.5 2 v 12 c 0 0.292773 0.207227 0.5 0.5 0.5 h 11 c 0.292773 0 0.5 -0.207227 0.5 -0.5 V 2 C 13.5 1.707227 13.292773 1.5 13 1.5 H 2 z" id="path19" fill="none"/><g id="g21" fill="#fff"><path opacity="0.7" d="M 7.107,8 7.893,8 C 7.952278,8 8,8.047722 8,8.107 L 8,8.893 C 8,8.952278 7.952278,9 7.893,9 L 7.107,9 C 7.047722,9 7,8.952278 7,8.893 L 7,8.107 C 7,8.047722 7.047722,8 7.107,8 Z" id="rect23"/><path opacity="0.7" d="M 6.107,9 6.893,9 C 6.952278,9 7,9.047722 7,9.107 L 7,9.893 C 7,9.952278 6.952278,10 6.893,10 L 6.107,10 C 6.047722,10 6,9.952278 6,9.893 L 6,9.107 C 6,9.047722 6.047722,9 6.107,9 Z" id="rect25"/><path opacity="0.7" d="M 8.107,9 8.893,9 C 8.952278,9 9,9.047722 9,9.107 L 9,9.893 C 9,9.952278 8.952278,10 8.893,10 L 8.107,10 C 8.047722,10 8,9.952278 8,9.893 L 8,9.107 C 8,9.047722 8.047722,9 8.107,9 Z" id="rect27"/><path opacity="0.7" d="m 9.107,12 0.786,0 C 9.952278,12 10,12.047722 10,12.107 l 0,0.786 C 10,12.952278 9.952278,13 9.893,13 L 9.107,13 C 9.047722,13 9,12.952278 9,12.893 L 9,12.107 C 9,12.047722 9.047722,12 9.107,12 Z" id="rect29"/><path opacity="0.7" d="m 9.107,11 0.786,0 C 9.952278,11 10,11.047722 10,11.107 l 0,0.786 C 10,11.952278 9.952278,12 9.893,12 L 9.107,12 C 9.047722,12 9,11.952278 9,11.893 L 9,11.107 C 9,11.047722 9.047722,11 9.107,11 Z" id="rect31"/><path opacity="0.7" d="m 8.107,12 0.786,0 C 8.952278,12 9,12.047722 9,12.107 l 0,0.786 C 9,12.952278 8.952278,13 8.893,13 L 8.107,13 C 8.047722,13 8,12.952278 8,12.893 L 8,12.107 C 8,12.047722 8.047722,12 8.107,12 Z" id="rect33"/><g transform="matrix(-1 0 0 1 0 0)" id="g35"><path opacity="0.7" d="m -5.893,12 0.786,0 C -5.047722,12 -5,12.047722 -5,12.107 l 0,0.786 C -5,12.952278 -5.047722,13 -5.107,13 l -0.786,0 C -5.952278,13 -6,12.952278 -6,12.893 l 0,-0.786 C -6,12.047722 -5.952278,12 -5.893,12 Z" id="rect37"/><path opacity="0.7" d="m -5.893,11 0.786,0 C -5.047722,11 -5,11.047722 -5,11.107 l 0,0.786 C -5,11.952278 -5.047722,12 -5.107,12 l -0.786,0 C -5.952278,12 -6,11.952278 -6,11.893 l 0,-0.786 C -6,11.047722 -5.952278,11 -5.893,11 Z" id="rect39"/><path opacity="0.7" d="m -6.893,12 0.786,0 C -6.047722,12 -6,12.047722 -6,12.107 l 0,0.786 C -6,12.952278 -6.047722,13 -6.107,13 l -0.786,0 C -6.952278,13 -7,12.952278 -7,12.893 l 0,-0.786 C -7,12.047722 -6.952278,12 -6.893,12 Z" id="rect41"/></g></g><metadata id="metadata9999"><rdf:RDF><cc:Work><dc:format>image/svg+xml</dc:format><dc:type rdf:resource="http://purl.org/dc/dcmitype/StillImage"/><dc:title>Ivy icon theme</dc:title><cc:license rdf:resource="http://creativecommons.org/licenses/by-sa/4.0/"/><dc:creator><cc:Agent><dc:title>Sixsixfive (sixsixfive.deviantart.com)</dc:title></cc:Agent></dc:creator><dc:publisher><cc:Agent><dc:title>Sixsixfive (sixsixfive.deviantart.com)</dc:title></cc:Agent></dc:publisher><dc:source>https://github.com/sixsixfive</dc:source><dc:subject><rdf:Bag><rdf:li>ivy</rdf:li></rdf:Bag></dc:subject><dc:contributor><cc:Agent><dc:title>ssf</dc:title></cc:Agent></dc:contributor><dc:rights><cc:Agent><dc:title>Sixsixfive (sixisixfive.deviantart.com)</dc:title></cc:Agent></dc:rights><dc:description>A simple icon theme published under CC-BY-SA_V4(http://creativecommons.org/licenses/by-sa/4.0)</dc:description><dc:identifier>SSF</dc:identifier></cc:Work></rdf:RDF></metadata><!--Part of the Ivy icon them published under the CC-BY-SA_V4: http://creativecommons.org/licenses/by-sa/4.0 -->
</svg>