<?xml version="1.0" encoding="UTF-8" standalone="no"?><svg xmlns:svg="http://www.w3.org/2000/svg" viewBox="0 0 16 16" xmlns="http://www.w3.org/2000/svg" xmlns:rdf="http://www.w3.org/1999/02/22-rdf-syntax-ns#" version="1.1" id="svg2" xmlns:dc="http://purl.org/dc/elements/1.1/" xmlns:cc="http://creativecommons.org/ns#"><defs id="defs4"><radialGradient id="1" gradientTransform="matrix(0.33333 0 0 0.29189 0.164 1.253)" cy="50.27" r="23" cx="24" gradientUnits="userSpaceOnUse"><stop id="stop12" stop-color="#5288d1"/><stop offset="1" id="stop14" stop-color="#6f9bd9"/></radialGradient></defs><path id="path23" d="M 8.03125,0.96875 0,9 2.9375,8.96875 l 0.0625,6 10,0 L 13.03125,9 16.0625,9.0625 12,4.96875 12,2 10,2 10,2.9375 8.03125,0.96875 z" fill="url(#1)"/><g id="g25" fill="none"><path stroke-linejoin="round" stroke="#000" opacity="0.4" id="path27" d="M 8.0312,1.6562 1.1562,8.5312 2.9374,8.5 a 0.481339,0.481339 0 0 1 0.46875,0.46875 l 0.0625,5.5312 9.0625,0 0.0312,-5.5 A 0.481339,0.481339 0 0 1 13.0311,8.5312 l 1.8438,0.0312 -3.2188,-3.25 a 0.481339,0.481339 0 0 1 -0.125,-0.34375 l 0,-2.5 -1.0625,0 0,0.46875 A 0.481339,0.481339 0 0 1 9.6561,3.28115 l -1.625,-1.625 z"/></g><path stroke="#fff" opacity="0.35" id="path4162" fill-rule="evenodd" d="M 3,8 8,3 9,4 C 9.6055815,4.2766339 10.182474,4.4385121 10.609269,4 10.674905,4.6666667 10.367842,5.3333333 11,6 l 2,2" fill="none"/><metadata id="metadata9999"><rdf:RDF><cc:Work><dc:format>image/svg+xml</dc:format><dc:type rdf:resource="http://purl.org/dc/dcmitype/StillImage"/><dc:title>Ivy icon theme</dc:title><cc:license rdf:resource="http://creativecommons.org/licenses/by-sa/4.0/"/><dc:creator><cc:Agent><dc:title>Sixsixfive (sixsixfive.deviantart.com)</dc:title></cc:Agent></dc:creator><dc:publisher><cc:Agent><dc:title>Sixsixfive (sixsixfive.deviantart.com)</dc:title></cc:Agent></dc:publisher><dc:source>https://github.com/sixsixfive</dc:source><dc:subject><rdf:Bag><rdf:li>ivy</rdf:li></rdf:Bag></dc:subject><dc:contributor><cc:Agent><dc:title>ssf</dc:title></cc:Agent></dc:contributor><dc:rights><cc:Agent><dc:title>Sixsixfive (sixisixfive.deviantart.com)</dc:title></cc:Agent></dc:rights><dc:description>A simple icon theme published under CC-BY-SA_V4(http://creativecommons.org/licenses/by-sa/4.0)</dc:description><dc:identifier>SSF</dc:identifier></cc:Work></rdf:RDF></metadata><!--Part of the Ivy icon them published under the CC-BY-SA_V4: http://creativecommons.org/licenses/by-sa/4.0 -->
</svg>