<?xml version="1.0" encoding="UTF-8" standalone="no"?><svg xmlns:xlink="http://www.w3.org/1999/xlink" xmlns:cc="http://creativecommons.org/ns#" viewBox="0 0 16 16" version="1.1" id="svg2" xmlns:svg="http://www.w3.org/2000/svg" xmlns:rdf="http://www.w3.org/1999/02/22-rdf-syntax-ns#" xmlns="http://www.w3.org/2000/svg" xmlns:dc="http://purl.org/dc/elements/1.1/"><defs id="defs4"><linearGradient id="linearGradient4201"><stop stop-opacity="1" stop-color="#fff" id="stop4203"/><stop offset="1" stop-opacity="0" stop-color="#fff" id="stop4205"/></linearGradient><linearGradient id="linearGradient4379"><stop stop-opacity="1" stop-color="#fff" id="stop4381"/><stop offset="1" stop-opacity="0.14" stop-color="#fff" id="stop4383"/></linearGradient><linearGradient id="linearGradient4359"><stop stop-opacity="1" stop-color="#6a6a6a" id="stop4361"/><stop offset="1" stop-opacity="1" stop-color="#626262" id="stop4363"/></linearGradient><linearGradient id="linearGradient4324"><stop stop-opacity="1" stop-color="#fff" id="stop4326"/><stop offset="1" stop-opacity="0" stop-color="#fff" id="stop4328"/></linearGradient><linearGradient id="linearGradient4304"><stop stop-opacity="1" stop-color="#ebebeb" id="stop4306"/><stop offset="1" stop-opacity="1" stop-color="#6a6a6a" id="stop4308"/></linearGradient><linearGradient x2="0" gradientUnits="userSpaceOnUse" y2="45" id="1" y1="3"><stop stop-opacity="1" stop-color="#ebebeb" id="stop12"/><stop offset="1" stop-opacity="1" stop-color="#b6b6b6" id="stop14"/></linearGradient><radialGradient gradientUnits="userSpaceOnUse" r="81.978134" fx="288.84537" fy="346.42093" cx="288.84537" xlink:href="#linearGradient4304" cy="346.42093" id="radialGradient4310" gradientTransform="matrix(1 0 0 1.3535463 0 -131.29678)"/><radialGradient gradientUnits="userSpaceOnUse" r="18.496094" fx="23.619123" fy="22.015238" cx="23.619123" xlink:href="#1" cy="22.015238" id="radialGradient4316" gradientTransform="matrix(0.97875804 0 0 1.0531014 -15.440321 -17.271233)"/><linearGradient x2="41.029297" gradientUnits="userSpaceOnUse" x1="41.029297" xlink:href="#linearGradient4324" y2="46.037109" id="linearGradient4330" y1="1.9628906"/><linearGradient x2="26" gradientUnits="userSpaceOnUse" x1="38" xlink:href="#linearGradient4359" y2="37" id="linearGradient4367" gradientTransform="matrix(0.34782609 0 0 0.33333334 -1.2173916 -0.33333347)" y1="25"/><linearGradient x2="9" gradientUnits="userSpaceOnUse" x1="21" xlink:href="#linearGradient4359" y2="25" id="linearGradient4375" gradientTransform="matrix(0.33333333 0 0 0.33333333 0.00000006 -0.28713796)" y1="37"/><radialGradient gradientUnits="userSpaceOnUse" r="13.423409" fx="24" fy="25.528646" cx="24" xlink:href="#linearGradient4379" cy="25.528646" id="radialGradient4387" gradientTransform="matrix(1 0 0 0.36642394 0 19.645693)"/><linearGradient x2="9" gradientUnits="userSpaceOnUse" x1="9" xlink:href="#linearGradient4201" y2="8" id="linearGradient4207" y1="1"/></defs><metadata id="metadata9999"><rdf:RDF><cc:Work><dc:format>image/svg+xml</dc:format><dc:type rdf:resource="http://purl.org/dc/dcmitype/StillImage"/><dc:title/><cc:license rdf:resource="http://creativecommons.org/licenses/by-sa/4.0/"/><dc:creator><cc:Agent><dc:title>Sixsixfive (sixsixfive.deviantart.com)</dc:title></cc:Agent></dc:creator><dc:publisher><cc:Agent><dc:title>Sixsixfive (sixsixfive.deviantart.com)</dc:title></cc:Agent></dc:publisher><dc:source>https://github.com/sixsixfive</dc:source><dc:subject><rdf:Bag><rdf:li>ivy</rdf:li></rdf:Bag></dc:subject><dc:contributor><cc:Agent><dc:title>ssf</dc:title></cc:Agent></dc:contributor><dc:rights><cc:Agent><dc:title>Sixsixfive (sixisixfive.deviantart.com)</dc:title></cc:Agent></dc:rights><dc:description>A simple icon theme published under CC-BY-SA_V4(http://creativecommons.org/licenses/by-sa/4.0)</dc:description><dc:identifier>SSF</dc:identifier></cc:Work></rdf:RDF></metadata><!--Part of the Ivy icon them published under the CC-BY-SA_V4: http://creativecommons.org/licenses/by-sa/4.0 -->
<metadata id="metadata17">image/svg+xmlSixsixfive (sixsixfive.deviantart.com)Sixsixfive (sixsixfive.deviantart.com)https://github.com/sixsixfiveivyssfSixsixfive (sixisixfive.deviantart.com)A simple icon theme published under CC-BY-SA_V4(http://creativecommons.org/licenses/by-sa/4.0)SSF</metadata><!--Part of the Ivy icon them published under the CC-BY-SA_V4: http://creativecommons.org/licenses/by-sa/4.0 -->
<path fill-opacity="1" fill="url(#radialGradient4316)" id="path3050" d="M 7.5672649,-1.4e-7 C 6.1201535,-1.4e-7 4.1007931,0.44979179 2.8024286,1.9184781 1.5552059,3.3293498 1,5.7157237 1,7.8485053 1,9.7543968 2.2122849,11.471091 3.2739703,12.891984 4.6372731,14.716549 6.0628013,16 7.6578667,16 9.2260533,16 10.804412,14.389611 12.052745,12.625679 13.062893,11.198297 14,9.5462438 14,7.5991846 14,5.596034 13.868264,3.816563 12.789229,2.425951 12.202654,1.670011 11.514801,1.0605075 10.634689,0.65964661 9.6155021,0.19541948 8.3891794,-1.4e-7 7.5672649,-1.4e-7 Z"/><path fill-opacity="1" fill-rule="evenodd" stroke-linejoin="miter" opacity="0.4" fill="#fff" id="path4209" stroke="none" stroke-width="1" stroke-linecap="butt" stroke-opacity="1" d="m 3,9.0460003 c 2.0000001,0 4,2.1538467 4,3.9999997 -1.9999999,0 -4,-1.999999 -4,-3.9999997 z"/><path fill-opacity="1" fill-rule="evenodd" stroke-linejoin="miter" opacity="1" fill="url(#linearGradient4375)" id="path3495" stroke="none" stroke-width="1" stroke-linecap="butt" stroke-opacity="1" d="m 3,8.0461953 c 2.0000001,0 4,2.1538467 4,3.9999997 -1.9999999,0 -4,-1.999999 -4,-3.9999997 z"/><path fill-opacity="1" fill-rule="evenodd" stroke-linejoin="miter" opacity="0.4" fill="#fff" id="path4211" stroke="none" stroke-width="1" stroke-linecap="butt" stroke-opacity="1" d="m 12,8.999805 c -2.086957,0 -4.1739132,2.153847 -4.1739132,4 2.0869562,0 4.1739132,-2 4.1739132,-4 z"/><path fill-opacity="1" fill-rule="evenodd" stroke-linejoin="miter" opacity="1" fill="url(#linearGradient4367)" id="path3502" stroke="none" stroke-width="1" stroke-linecap="butt" stroke-opacity="1" d="M 12,8 C 9.913043,8 7.8260868,10.153847 7.8260868,12 9.913043,12 12,10 12,8 Z"/><path fill-opacity="1" opacity="0.4" fill="none" id="path3397" stroke="#000" d="m 7.5664062,0.4921875 c -1.3453136,0 -3.2307104,0.43546014 -4.3945312,1.7519531 -1.1129753,1.2590097 -1.6796875,3.5561359 -1.6796875,5.6035156 0,1.6974253 1.1204807,3.3376518 2.1757813,4.7499998 1.3310082,1.781344 2.6588749,2.910156 3.9902343,2.910156 0.6156684,0 1.3058236,-0.330958 2.0019531,-0.912109 0.6961298,-0.581151 1.3817318,-1.394073 1.9902348,-2.253906 0.989702,-1.398491 1.857421,-2.9529387 1.857421,-4.7421876 0,-1.9815602 -0.141104,-3.6276998 -1.107421,-4.8730469 C 11.849532,2.0166504 11.22874,1.4704733 10.431641,1.1074219 9.5004861,0.6832926 8.3101593,0.4921875 7.5664062,0.4921875 Z"/><path fill-opacity="1" opacity="0.4" fill="none" id="path3399" stroke="url(#linearGradient4207)" d="m 7.5664062,1.4921875 c -1.1382156,0 -2.7563803,0.407193 -3.6464843,1.4140625 -0.8398614,0.9500602 -1.4277344,3.0677686 -1.4277344,4.9414062 0,1.2733197 0.9342512,2.7573798 1.9765625,4.1523438 1.2653079,1.693414 2.3945793,2.507813 3.1894531,2.507812 0.2730233,0 0.7678107,-0.1842 1.3613281,-0.679687 0.5935175,-0.495487 1.2378168,-1.249648 1.8144528,-2.064453 0.948107,-1.339716 1.673828,-2.6958643 1.673828,-4.1640626 0,-1.9376364 -0.161432,-3.3099468 -0.898437,-4.2597656 C 11.131176,2.7235712 10.643843,2.3037098 10.015625,2.0175781 9.2635652,1.6750242 8.151147,1.4921875 7.5664062,1.4921875 Z"/></svg>