<?xml version="1.0" encoding="UTF-8" standalone="no"?>
<svg xmlns:dc="http://purl.org/dc/elements/1.1/" xmlns:cc="http://creativecommons.org/ns#" xmlns:rdf="http://www.w3.org/1999/02/22-rdf-syntax-ns#" xmlns:svg="http://www.w3.org/2000/svg" xmlns="http://www.w3.org/2000/svg" xmlns:xlink="http://www.w3.org/1999/xlink" viewBox="0 0 16 16" id="svg2" version="1.1">
 <defs id="defs4">
  <linearGradient id="0">
   <stop stop-color="#5288d1" id="stop7"/>
   <stop offset="1" stop-color="#aac4e9" id="stop9"/>
  </linearGradient>
  <linearGradient xlink:href="#0" id="1" y1="2" y2="46" gradientUnits="userSpaceOnUse" x2="0"/>
  <linearGradient xlink:href="#0" id="2" y1="0" y2="16" gradientUnits="userSpaceOnUse" x2="0"/>
 </defs>
 <g id="g13" transform="matrix(0.36364,0,0,0.36364,-0.727,-0.727)" fill="url(#1)">
  <path id="path15" d="M 5,0 5,4 8,7 11,4 11,0 5,0 Z M 0,5 0,11 4,11 7,8 4,5 0,5 Z m 12,0 -3,3 3,3 4,0 0,-6 -4,0 z m -4,4 -3,3 0,4 6,0 0,-4 -3,-3 z" transform="matrix(2.75,0,0,2.75,2,2)" fill="url(#2)"/>
  <path id="path17" d="m 5.53125,0.53125 0,3.25 L 8,6.25 l 2.46875,-2.46875 0,-3.25 -4.9375,0 z m -5,5 0,4.9375 3.25,0 L 6.25,8 3.78125,5.53125 l -3.25,0 z m 11.6875,0 L 9.75,8 l 2.46875,2.46875 3.25,0 0,-4.9375 -3.25,0 z M 8,9.75 l -2.46875,2.46875 0,3.25 4.9375,0 0,-3.25 L 8,9.75 Z" transform="matrix(2.75,0,0,2.75,2,2)" opacity="0.4" fill="none" stroke="#000"/>
 </g>
 <path opacity="0.441" fill="#fff" isolation="auto" color-rendering="auto" white-space="normal" solid-opacity="1" shape-rendering="auto" mix-blend-mode="normal" color-interpolation-filters="linearRGB" image-rendering="auto" fill-rule="evenodd" id="path3350" color-interpolation="sRGB" color="#000" d="M 9.8710938,1.0820312 6.0878906,1.125 l 0.00977,1 3.7851563,-0.042969 -0.011719,-1 z" solid-color="#000000"/>
 <path opacity="0.441" fill="#fff" isolation="auto" color-rendering="auto" white-space="normal" solid-opacity="1" shape-rendering="auto" mix-blend-mode="normal" color-interpolation-filters="linearRGB" image-rendering="auto" fill-rule="evenodd" id="path3352" color-interpolation="sRGB" color="#000" d="m 3.6933594,6.0078125 -2.6582032,0.041016 0.015625,1 2.6582032,-0.042969 -0.015625,-0.9980469 z" solid-color="#000000"/>
 <path opacity="0.441" fill="#fff" isolation="auto" color-rendering="auto" white-space="normal" solid-opacity="1" shape-rendering="auto" mix-blend-mode="normal" color-interpolation-filters="linearRGB" image-rendering="auto" fill-rule="evenodd" id="path3354" color-interpolation="sRGB" color="#000" d="m 12.150391,6.0078125 -0.01367,0.9980469 2.824219,0.042969 0.01367,-1 -2.824218,-0.041016 z" solid-color="#000000"/>
 <metadata id="metadata9999">
  <rdf:RDF>
   <cc:Work>
    <dc:format>image/svg+xml</dc:format>
    <dc:type rdf:resource="http://purl.org/dc/dcmitype/StillImage"/>
    <dc:title>Ivy icon theme</dc:title>
    <cc:license rdf:resource="http://creativecommons.org/licenses/by-sa/4.0/"/>
    <dc:creator>
     <cc:Agent>
      <dc:title>Sixsixfive (sixsixfive.deviantart.com)</dc:title>
     </cc:Agent>
    </dc:creator>
    <dc:publisher>
     <cc:Agent>
      <dc:title>Sixsixfive (sixsixfive.deviantart.com)</dc:title>
     </cc:Agent>
    </dc:publisher>
    <dc:source>https://github.com/sixsixfive</dc:source>
    <dc:subject>
     <rdf:Bag>
      <rdf:li>ivy</rdf:li>
     </rdf:Bag>
    </dc:subject>
    <dc:contributor>
     <cc:Agent>
      <dc:title>ssf</dc:title>
     </cc:Agent>
    </dc:contributor>
    <dc:rights>
     <cc:Agent>
      <dc:title>Sixsixfive (sixisixfive.deviantart.com)</dc:title>
     </cc:Agent>
    </dc:rights>
    <dc:description>A simple icon theme published under CC-BY-SA_V4(http://creativecommons.org/licenses/by-sa/4.0)</dc:description>
    <dc:identifier>SSF</dc:identifier>
   </cc:Work>
  </rdf:RDF>
 </metadata>
 <!--Part of the Ivy icon them published under the CC-BY-SA_V4: http://creativecommons.org/licenses/by-sa/4.0 -->
</svg>
