<?xml version="1.0" encoding="UTF-8" standalone="no"?><svg xmlns:cc="http://creativecommons.org/ns#" xmlns:rdf="http://www.w3.org/1999/02/22-rdf-syntax-ns#" xmlns:svg="http://www.w3.org/2000/svg" id="svg2" viewBox="0 0 16 16" version="1.1" xmlns:dc="http://purl.org/dc/elements/1.1/" xmlns="http://www.w3.org/2000/svg"><defs id="defs4"><linearGradient id="0" x2="0" y2="15" y1="1" gradientUnits="userSpaceOnUse"><stop id="stop7" stop-color="#5288d1"/><stop offset="1" id="stop9" stop-color="#7aa4dc"/></linearGradient><linearGradient id="1" x2="0" y2="41" gradientTransform="matrix(0.38562 0 0 0.29739 -0.879 1.58)" y1="8" gradientUnits="userSpaceOnUse"><stop id="stop12" stop-color="#ebebeb"/><stop offset="1" id="stop14" stop-color="#fff"/></linearGradient></defs><rect rx="1.333" height="14" ry="1.333" id="rect16" width="14" x="1" y="1" fill="url(#0)"/><path id="path18" opacity="0.4" d="M 2.34375 1.5 C 1.885714 1.5 1.5 1.885705 1.5 2.34375 v 11.3125 C 1.5 14.1143 1.885714 14.5 2.34375 14.5 h 11.3125 C 14.11429 14.5 14.5 14.1143 14.5 13.65625 v -11.3125 C 14.5 1.885705 14.11429 1.5 13.65625 1.5 h -11.3125 z" stroke="#000" fill="none"/><path id="path20" opacity="0.2" d="m 7.02149 2.968658 c -0.278914 0.0071 -0.599538 0.030559 -0.96875 0.030559 -1.137721 0.153839 -2.039308 1.051073 -2 1.95578 -0.42082 0.062937 -1.848749 0.927404 -1 0.97789 1.023779 -0.25874 2.901312 0.024053 4 0 0.124106 0.010147 0.199573 0.050467 0.25 0.091677 -0.138468 0.086762 -0.25 0.223842 -0.25 0.397268 0 0.270875 0.223 0.488945 0.5 0.488945 0.02246 0 0.040841 0.00278 0.0625 0 0.796457 0.132771 0.464833 -0.696549 0.4375 -0.97789 0.409421 -0.343692 1.304341 -0.066212 1.71875 0.183354 C 10.306877 6.388494 11.00962 6.481018 11.05274 7 c -0.03261 0.582702 -0.482693 1.411639 -1 1.866558 C 9.961863 9.381538 8.932354 10.03587 8.395805 10 7.853596 9.981265 8.0126 10.415412 8.05274 11 c 0.744151 -0.00009 1.290198 -0.09362 2 0 0 0 -0.10218 1.098185 0 1.778118 0.213982 0.65612 1.10086 -0.320727 1 -0.64174 -0.03972 -0.5886 -0.196756 -1.701053 0 -2.29193 0.264437 -0.745496 1.01049 -0.983843 1.625 -1.497394 0.583279 -1.03194 0.519863 -2.288732 -0.375 -3.208702 -0.324145 -0.299776 -0.661282 -0.800962 -0.21875 -1.130685 0.03698 -0.033951 0.118614 -0.079974 0.1875 -0.122236 0.08161 0.056598 0.173152 0.091677 0.28125 0.091677 0.277 0 0.5 -0.218069 0.5 -0.488945 0 -0.032944 0.0063 -0.060592 0 -0.091677 0.176914 -0.148918 0.244671 -0.289697 0 -0.397268 C 12.0068 2.848314 10.56821 3.311387 9.61524 3.57984 8.414351 2.990488 7.858234 2.947349 7.02149 2.968658 z"/><path id="path22" d="m 6.96875 3.933254 c -0.278914 0.0071 -0.599538 0.030559 -0.96875 0.030559 -1.137721 0.153839 -2.039308 1.051073 -2 1.95578 C 3.533005 5.76731 3.167936 5.731033 3 6 3 6 3 6 3 7 3.64494 7.01186 5.709786 7.05834 7 6.897484 c 0.124106 0.010147 0.199573 0.050467 0.25 0.091677 -0.138468 0.086763 -0.25 0.223842 -0.25 0.397268 0 0.270875 0.223 0.488945 0.5 0.488945 0.02246 0 0.040841 0.00278 0.0625 0 0.796457 0.132771 0.464833 -0.696549 0.4375 -0.97789 0.409421 -0.343692 1.304341 -0.066212 1.71875 0.183354 C 10.254136 7.35309 10.956874 7.445614 11 7.964596 10.967393 8.547298 10.517307 9.376235 10 9.831154 9.909122 10.346134 8.879614 11.00047 8.343065 10.964596 c -0.542209 -0.01873 -0.383205 0.415412 -0.343065 1 0.744151 -0.00009 1.290198 -0.09362 2 0 0 0 -0.102179 1.098185 0 1.778118 C 10.213982 14.398834 11.10086 13.421987 11 13.10097 c -0.03972 -0.5886 -0.196756 -1.701053 0 -2.29193 0.264437 -0.745496 1.01049 -0.983843 1.625 -1.497394 C 13.208279 8.279709 13.144863 7.02292 12.25 6.102948 11.925855 5.803171 11.588718 5.301986 12.03125 4.972263 c 0.03698 -0.033951 0.118614 -0.079974 0.1875 -0.122236 0.08161 0.056598 0.173152 0.091677 0.28125 0.091677 0.277 0 0.5 -0.21807 0.5 -0.488945 0 -0.032944 0.0063 -0.060592 0 -0.091677 0.176914 -0.148918 0.244671 -0.289697 0 -0.397268 C 11.954061 3.81291 10.515469 4.275983 9.5625 4.544436 8.36161 3.955084 7.805493 3.911945 6.96875 3.933254 z" fill="url(#1)"/><metadata id="metadata9999"><rdf:RDF><cc:Work><dc:format>image/svg+xml</dc:format><dc:type rdf:resource="http://purl.org/dc/dcmitype/StillImage"/><dc:title>Ivy icon theme</dc:title><cc:license rdf:resource="http://creativecommons.org/licenses/by-sa/4.0/"/><dc:creator><cc:Agent><dc:title>Sixsixfive (sixsixfive.deviantart.com)</dc:title></cc:Agent></dc:creator><dc:publisher><cc:Agent><dc:title>Sixsixfive (sixsixfive.deviantart.com)</dc:title></cc:Agent></dc:publisher><dc:source>https://github.com/sixsixfive</dc:source><dc:subject><rdf:Bag><rdf:li>ivy</rdf:li></rdf:Bag></dc:subject><dc:contributor><cc:Agent><dc:title>ssf</dc:title></cc:Agent></dc:contributor><dc:rights><cc:Agent><dc:title>Sixsixfive (sixisixfive.deviantart.com)</dc:title></cc:Agent></dc:rights><dc:description>A simple icon theme published under CC-BY-SA_V4(http://creativecommons.org/licenses/by-sa/4.0)</dc:description><dc:identifier>SSF</dc:identifier></cc:Work></rdf:RDF></metadata><!--Part of the Ivy icon them published under the CC-BY-SA_V4: http://creativecommons.org/licenses/by-sa/4.0 -->
</svg>