<?xml version="1.0" encoding="UTF-8" standalone="no"?><svg xmlns:svg="http://www.w3.org/2000/svg" xmlns="http://www.w3.org/2000/svg" viewBox="0 0 16 16" xmlns:rdf="http://www.w3.org/1999/02/22-rdf-syntax-ns#" version="1.1" id="svg2" xmlns:dc="http://purl.org/dc/elements/1.1/" xmlns:cc="http://creativecommons.org/ns#"><defs id="defs4"><linearGradient y1="3" x2="0" y2="45" id="0" gradientTransform="matrix(0.38095 0 0 0.38084 -1.143 -1.143)" gradientUnits="userSpaceOnUse"><stop stop-opacity="1" id="stop7" stop-color="#6a6a6a"/><stop stop-opacity="1" offset="1" id="stop9" stop-color="#7d7d7d"/></linearGradient><linearGradient y1="1" x2="0" y2="9.982235" id="1" gradientUnits="userSpaceOnUse"><stop id="stop12" stop-color="#fff"/><stop stop-opacity="0" offset="1" id="stop14" stop-color="#fff"/></linearGradient><linearGradient y1="3" x2="0" y2="45" id="1-9" gradientUnits="userSpaceOnUse"><stop stop-opacity="1" id="stop12-1" stop-color="#6a6a6a"/><stop stop-opacity="1" offset="1" id="stop14-0" stop-color="#7d7d7d"/></linearGradient><mask id="mask4358" maskUnits="userSpaceOnUse"><rect y="0" x="0" ry="1.523" fill-opacity="1" rx="1.524" height="15.995" id="rect4360" width="16" fill="#fff"/></mask><mask id="mask4364" maskUnits="userSpaceOnUse"><rect y="0" x="0" ry="1.523" fill-opacity="1" rx="1.524" height="15.995" id="rect4366" width="16" fill="#fff"/></mask></defs><rect ry="1.523" fill-opacity="1" rx="1.524" height="15.995" id="rect16" width="16" fill="url(#0)"/><path stroke-linejoin="miter" stroke-opacity="1" stroke="none" stroke-width="1" stroke-linecap="butt" opacity="0.4" id="path4352" mask="url(#mask4364)" fill-rule="evenodd" d="m 10.5,1.0175781 c -1.1736164,0 -2.3400498,0.4826279 -3.1699219,1.3125 C 6.500206,3.1599502 6.0175781,4.3263836 6.0175781,5.5 6.017622,6.3056602 6.2952069,7.0794401 6.7070312,7.7714844 L 6.5742188,8.1679688 C 6.1176996,8.222308 5.7088023,8.4128503 5.296875,8.6171875 L -3.4804688,3.1660156 A 0.98298264,0.98298264 0 0 0 -4.9824219,4 l 0,2 a 0.98298264,0.98298264 0 0 0 0.4453125,0.8222656 l 7.5800782,4.9492184 c -0.00468,0.07475 -0.026894,0.147762 -0.027344,0.222657 a 0.98298264,0.98298264 0 0 0 0,0.0059 c -4.043e-4,1.043438 0.4281934,2.080537 1.1660156,2.818359 C 4.9194628,15.556182 5.9565619,15.984779 7,15.984375 8.043006,15.9841 9.0791297,15.554163 9.8164062,14.816406 10.553683,14.07865 10.982826,13.043006 10.982422,12 a 0.98298264,0.98298264 0 0 0 0,-0.002 c -0.0012,-0.434227 -0.211255,-0.827378 -0.351563,-1.238281 L 11.617188,9.7734375 C 13.497453,9.2560089 14.981165,7.4620355 14.982422,5.5 c 0,-1.1736164 -0.482628,-2.3400498 -1.3125,-3.1699219 C 12.84005,1.500206 11.673616,1.0175781 10.5,1.0175781 Z" fill="#000"/><path stroke-linejoin="miter" stroke-opacity="1" stroke="none" stroke-width="1" stroke-linecap="butt" id="path4341" mask="url(#mask4358)" fill-rule="evenodd" d="m 6.5906838,12.912398 -10.5906833,-6.9123923 0,-2 11.4182739,7.0916793 z" fill="#ebebeb"/><g id="g18" fill="none"><path stroke="url(#1)" opacity="0.3" id="path22" d="M 1.53125,1.5 C 1.504466,1.5 1.5,1.504632 1.5,1.53125 l 0,12.9375 C 1.5,14.49537 1.50447,14.5 1.53125,14.5 l 12.9375,0 C 14.49554,14.5 14.5,14.4954 14.5,14.46875 l 0,-12.9375 C 14.5,1.504631 14.495535,1.5 14.46875,1.5 l -12.9375,0 z"/><path stroke="#000" opacity="0.45" id="path20" d="M 1.53125,0.5 C 0.953503,0.5 0.5,0.953706 0.5,1.53125 l 0,12.9375 C 0.5,15.04629 0.953503,15.5 1.53125,15.5 l 12.9375,0 C 15.0465,15.5 15.5,15.0463 15.5,14.46875 l 0,-12.9375 C 15.5,0.953705 15.0465,0.5 14.46875,0.5 l -12.9375,0 z"/></g><metadata id="metadata9999"><rdf:RDF><cc:Work><dc:format>image/svg+xml</dc:format><dc:type rdf:resource="http://purl.org/dc/dcmitype/StillImage"/><dc:title/><cc:license rdf:resource="http://creativecommons.org/licenses/by-sa/4.0/"/><dc:creator><cc:Agent><dc:title>Sixsixfive (sixsixfive.deviantart.com)</dc:title></cc:Agent></dc:creator><dc:publisher><cc:Agent><dc:title>Sixsixfive (sixsixfive.deviantart.com)</dc:title></cc:Agent></dc:publisher><dc:source>https://github.com/sixsixfive</dc:source><dc:subject><rdf:Bag><rdf:li>ivy</rdf:li></rdf:Bag></dc:subject><dc:contributor><cc:Agent><dc:title>ssf</dc:title></cc:Agent></dc:contributor><dc:rights><cc:Agent><dc:title>Sixsixfive (sixisixfive.deviantart.com)</dc:title></cc:Agent></dc:rights><dc:description>A simple icon theme published under CC-BY-SA_V4(http://creativecommons.org/licenses/by-sa/4.0)</dc:description><dc:identifier>SSF</dc:identifier></cc:Work></rdf:RDF></metadata><!--Part of the Ivy icon them published under the CC-BY-SA_V4: http://creativecommons.org/licenses/by-sa/4.0 -->
<circle stroke-linejoin="miter" stroke-dasharray="none" stroke-opacity="1" stroke="none" stroke-width="1" stroke-dashoffset="0" stroke-linecap="round" opacity="1" fill-opacity="1" cy="5.500006" id="path4292" r="3.5" cx="10.5" stroke-miterlimit="4" fill-rule="evenodd" fill="#ebebeb"/><circle stroke-linejoin="miter" stroke-dasharray="none" stroke-opacity="1" stroke="none" stroke-width="1" stroke-dashoffset="0" stroke-linecap="round" opacity="1" fill-opacity="1" cy="12.00079" id="circle4303" r="3.00079" cx="6.999209" stroke-miterlimit="4" fill-rule="evenodd" fill="#ebebeb"/><path stroke-linejoin="miter" stroke-opacity="1" stroke="none" stroke-width="1" stroke-linecap="butt" id="path4307" fill-rule="evenodd" d="m 7.0000005,10.000006 1,-3.0000003 3.9999995,1 -3,3.0000003 z" fill="#ebebeb"/><circle stroke-linejoin="miter" stroke-dasharray="none" stroke-opacity="1" stroke="none" stroke-width="1" stroke-dashoffset="0" stroke-linecap="round" opacity="0.8" fill-opacity="1" cy="5.5" id="circle4311" r="2.5" cx="10.5" stroke-miterlimit="4" fill-rule="evenodd" fill="#000"/><circle stroke-linejoin="miter" stroke-dasharray="none" stroke-opacity="1" stroke="none" stroke-width="1" stroke-dashoffset="0" stroke-linecap="round" opacity="0.7" fill-opacity="1" cy="12" id="circle4333" cx="7" r="2" stroke-miterlimit="4" fill-rule="evenodd" fill="#000"/><circle stroke-linejoin="miter" stroke-dasharray="none" stroke-opacity="1" stroke="none" stroke-width="1" stroke-dashoffset="0" stroke-linecap="round" opacity="1" fill-opacity="1" cy="12.00001" id="path4337" r="1" cx="7" stroke-miterlimit="4" fill-rule="evenodd" fill="#ebebeb"/><circle stroke-linejoin="miter" stroke-dasharray="none" stroke-opacity="1" stroke="none" stroke-width="1" stroke-dashoffset="0" stroke-linecap="round" opacity="1" fill-opacity="1" cy="5.5" id="path4354" r="1.5" cx="10.5" stroke-miterlimit="4" fill-rule="evenodd" fill="#ebebeb"/></svg>