<?xml version="1.0" encoding="UTF-8" standalone="no"?>
<svg
   xmlns:dc="http://purl.org/dc/elements/1.1/"
   xmlns:cc="http://creativecommons.org/ns#"
   xmlns:rdf="http://www.w3.org/1999/02/22-rdf-syntax-ns#"
   xmlns:svg="http://www.w3.org/2000/svg"
   xmlns="http://www.w3.org/2000/svg"
   xmlns:xlink="http://www.w3.org/1999/xlink"
   height="16"
   width="16"
   version="1.1"
   id="svg2"
   viewBox="0 0 16 16">
  <defs
     id="defs4">
    <linearGradient
       id="linearGradient4157">
      <stop
         id="stop4159"
         offset="0"
         style="stop-color:#ffffff;stop-opacity:1;" />
      <stop
         id="stop4161"
         offset="1"
         style="stop-color:#ffffff;stop-opacity:0;" />
    </linearGradient>
    <linearGradient
       id="linearGradient4182">
      <stop
         stop-opacity="1"
         stop-color="#ffd506"
         id="stop4184" />
      <stop
         stop-opacity="1"
         stop-color="#579635"
         id="stop4186"
         offset="1" />
    </linearGradient>
    <linearGradient
       gradientTransform="matrix(0.34285716,0,0,0.34782609,0.28571422,-0.347826)"
       gradientUnits="userSpaceOnUse"
       y2="64.499397"
       x2="33.146431"
       y1="-42.492264"
       x1="24.427177"
       id="linearGradient4188"
       xlink:href="#linearGradient4182" />
    <linearGradient
       gradientUnits="userSpaceOnUse"
       y2="10"
       x2="10.599569"
       y1="5.7519035"
       x1="9.3896084"
       id="linearGradient4163"
       xlink:href="#linearGradient4157" />
  </defs>
  <metadata
     id="metadata9999">
    <rdf:RDF>
      <cc:Work>
        <dc:format>image/svg+xml</dc:format>
        <dc:type
           rdf:resource="http://purl.org/dc/dcmitype/StillImage" />
        <dc:title></dc:title>
        <cc:license
           rdf:resource="http://creativecommons.org/licenses/by-sa/4.0/" />
        <dc:creator>
          <cc:Agent>
            <dc:title>Sixsixfive (sixsixfive.deviantart.com)</dc:title>
          </cc:Agent>
        </dc:creator>
        <dc:publisher>
          <cc:Agent>
            <dc:title>Sixsixfive (sixsixfive.deviantart.com)</dc:title>
          </cc:Agent>
        </dc:publisher>
        <dc:source>https://github.com/sixsixfive</dc:source>
        <dc:subject>
          <rdf:Bag>
            <rdf:li>ivy</rdf:li>
          </rdf:Bag>
        </dc:subject>
        <dc:contributor>
          <cc:Agent>
            <dc:title>ssf</dc:title>
          </cc:Agent>
        </dc:contributor>
        <dc:rights>
          <cc:Agent>
            <dc:title>Sixsixfive (sixisixfive.deviantart.com)</dc:title>
          </cc:Agent>
        </dc:rights>
        <dc:description>A simple icon theme published under CC-BY-SA_V4(http://creativecommons.org/licenses/by-sa/4.0)</dc:description>
        <dc:identifier>SSF</dc:identifier>
      </cc:Work>
    </rdf:RDF>
  </metadata>
  <!--Part of the Ivy icon them published under the CC-BY-SA_V4: http://creativecommons.org/licenses/by-sa/4.0 -->
  <path
     style="display:inline;opacity:1;fill:url(#linearGradient4188);fill-opacity:1;stroke:none;stroke-width:0.26249999;stroke-miterlimit:4;stroke-dasharray:none;stroke-opacity:1"
     stroke-miterlimit="4"
     display="inline"
     d="M 13.524011,8.973235 C 13.841023,9.592195 14,10.341746 14,11.197416 c 0,0.825109 -0.174266,1.564156 -0.52249,2.167579 -0.348325,0.603732 -0.813486,1.112431 -1.370952,1.502146 -0.557261,0.389711 -1.200877,0.667482 -1.905071,0.858713 C 9.4967705,15.916671 8.7760753,16 8.0641323,16 6.6396199,16 5.5431007,15.776842 4.5756233,15.257743 3.4714029,14.738334 1.9704612,13.143993 2.0004422,12.896988 c 0.038987,-0.32119 0.6852721,-0.670898 1.3991007,-1.347023 0.3125455,-0.296036 0.3841122,-0.517728 0.7592815,-0.189314 0,0 0.2941217,0.178952 0.6192001,0.43099 0.3250745,0.252352 0.6894875,0.424682 1.0690241,0.615499 0.379115,0.191437 0.6048158,0.298613 1.0616436,0.433033 0.394928,0.122654 0.8369479,0.171176 1.1776285,0.171176 0.3403682,0 0.567391,-0.125659 0.7282388,-0.269471 0.1778278,-0.158992 0.2298952,-0.326807 0.2298952,-0.663068 0,-0.290059 -0.2460322,-1.026532 -0.5630439,-1.28665 C 8.1639802,10.532664 7.8063128,10.31071 7.334199,10.027697 6.861769,9.744995 6.3384847,9.415033 5.7890808,9.086129 5.2393634,8.757743 5.0284466,8.347391 4.5563295,7.904226 4.0837977,7.461266 3.7511837,7.051235 3.4339647,6.478372 3.1165311,5.905301 3.0016705,5.269165 3.0016705,4.520299 c 0,-0.733534 0.045802,-1.4488 0.324481,-1.998974 C 3.6048342,1.971148 3.9800741,1.509231 4.4525042,1.134643 4.9245156,0.76047 5.1704101,0.477868 5.7897733,0.286431 6.40882,0.095614 7.0670398,0 7.7636905,0 c 1.3997844,0 2.5989915,0.20105 3.5200715,0.61471 1.243934,0.524553 1.898384,1.211565 2.574424,1.821033 0.263511,0.237561 0.02617,0.518004 -0.101329,0.735067 -0.323885,0.551416 -0.60046,1.107037 -0.849085,1.497204 -0.121317,0.228442 -0.345558,0.314365 -0.531555,0.155144 0,0 -0.459763,-0.38545 -0.831238,-0.622675 -0.371571,-0.2365 -0.722978,-0.414347 -1.07895,-0.58258 C 10.109746,3.449878 9.2889538,3.1484015 8.979482,3.0642835 8.6695902,2.9804835 8.423818,2.9504995 8.1915315,2.9504995 c -0.2786831,0 -0.808422,0.01154 -0.9397487,0.149001 C 7.1200332,3.2369685 6.969626,3.633137 6.9765181,3.846946 c 0.01241,0.385513 0.1743049,0.457291 0.5415239,0.804682 0.3170116,0.237019 0.5668626,0.407569 1.2083123,0.745718 0.479481,0.252765 1.4948847,0.534946 2.0446057,0.848108 0.549405,0.313363 1.101509,0.716153 1.581584,1.159109 0.479969,0.443687 0.853827,0.949917 1.171467,1.568672 z"
     id="path3268" />
  <path
     d="m 7.7636719,0.52734375 c -0.6480779,0 -1.2541818,0.0891659 -1.8203125,0.26367187 C 5.4276415,0.95077958 5.2842587,1.1481299 4.78125,1.546875 4.367493,1.8749413 4.0429774,2.2739087 3.796875,2.7597656 3.590845,3.1665143 3.5292969,3.8078139 3.5292969,4.5195312 c 0,0.6952735 0.102065,1.2280188 0.3652343,1.703125 0.293047,0.5292109 0.5790686,0.8803154 1.0234376,1.296875 0.533399,0.5006889 0.7058922,0.8535839 1.140625,1.1132813 a 0.52717056,0.52717056 0 0 1 0.00195,0 c 0.5561307,0.3329311 1.0803802,0.6634244 1.5449219,0.9414063 a 0.52717056,0.52717056 0 0 1 0,0.00195 c 0.4764087,0.2855876 0.8562694,0.5202531 1.2089843,0.8085941 0.2947221,0.241828 0.4367771,0.545508 0.5566407,0.84375 0.1198635,0.298241 0.2011718,0.55469 0.2011718,0.849609 0,0.195637 -0.011802,0.378992 -0.076172,0.568359 -0.06437,0.189368 -0.191327,0.364227 -0.3300782,0.488282 -0.2310017,0.206535 -0.6099118,0.404296 -1.0800781,0.404296 -0.3891255,0 -0.8655364,-0.05144 -1.3261719,-0.193359 l -0.00781,-0.002 C 6.2732412,13.202256 5.99088,13.068583 5.6113281,12.876953 l -0.00195,0 C 5.2380255,12.690295 4.8392495,12.50526 4.4550781,12.207031 4.1568601,11.975819 3.8847656,11.8125 3.8847656,11.8125 a 0.52717056,0.52717056 0 0 1 -0.00391,-0.002 c -0.04435,0.04295 -0.019567,0.03058 -0.1171875,0.123047 -0.381875,0.361705 -0.7404322,0.631518 -0.9804688,0.830078 -0.1693165,0.14006 -0.1642379,0.13638 -0.1835937,0.138672 0.01828,0.0247 0.023863,0.03568 0.046875,0.06445 0.1340082,0.167571 0.3422923,0.394436 0.5839844,0.628906 0.483384,0.46894 1.122949,0.975114 1.5703124,1.185547 a 0.52717056,0.52717056 0 0 1 0.025391,0.01172 c 0.8767368,0.470412 1.8688025,0.679687 3.2382812,0.679687 0.6711617,0 1.3437133,-0.07868 1.9980469,-0.255859 l 0,0.002 c 0.657849,-0.178645 1.24479,-0.435357 1.742188,-0.783203 0.493406,-0.344932 0.903611,-0.794543 1.214843,-1.333985 0.293307,-0.508257 0.453125,-1.15381 0.453125,-1.904296 0,-0.790145 -0.146999,-1.4553125 -0.417968,-1.9843754 C 12.760161,8.6391605 12.429171,8.1913559 11.996094,7.7910156 11.547386,7.3770018 11.022813,6.9957507 10.509766,6.703125 l 0,0.00195 C 10.296749,6.5837279 9.9183864,6.4334245 9.5390625,6.2929688 9.1597386,6.152513 8.7840752,6.0233316 8.4804688,5.8632812 7.8250231,5.5177541 7.5286248,5.3190444 7.2011719,5.0742188 A 0.52717056,0.52717056 0 0 1 7.15625,5.0351562 C 6.9874781,4.8754971 6.8497607,4.7767249 6.703125,4.59375 6.5564893,4.4107751 6.457754,4.1303806 6.4492188,3.8652344 6.441453,3.6243218 6.4994133,3.4470351 6.5683594,3.2617188 6.6371134,3.0769187 6.7004032,2.9149635 6.8710938,2.7363281 7.0237091,2.5765841 7.1547002,2.5445334 7.2714844,2.5117188 c 0.1167842,-0.032815 0.2280485,-0.050579 0.3378906,-0.0625 0.2196843,-0.023842 0.4357692,-0.025391 0.5820312,-0.025391 0.2768869,0 0.5764464,0.036922 0.9238282,0.1308594 a 0.52717056,0.52717056 0 0 1 0.00195,0.00195 c 0.3880604,0.1054793 1.1542135,0.3859076 1.5742185,0.5839844 0.36587,0.1729105 0.740227,0.3628725 1.136719,0.6152344 a 0.52717056,0.52717056 0 0 1 0,0.00195 c 0.33113,0.2114607 0.556826,0.4039854 0.695313,0.5175781 0.21378,-0.3507503 0.468112,-0.8432541 0.779296,-1.3730468 0.05565,-0.094736 0.07171,-0.1233424 0.09766,-0.1679688 C 12.748313,2.1395043 12.173826,1.5636072 11.078125,1.1015625 a 0.52717056,0.52717056 0 0 1 -0.01172,-0.00586 C 10.242856,0.72584403 9.1128516,0.52734375 7.7636719,0.52734375 Z"
     id="path4149"
     style="display:inline;opacity:0.6;fill:none;fill-opacity:1;stroke:#000000;stroke-width:1;stroke-miterlimit:4;stroke-dasharray:none;stroke-opacity:1;stroke-linejoin:round" />
  <path
     id="path4151"
     d="M 3.641417,12.880328 C 5,14 8.9261599,15.552885 10.466158,13.179292"
     style="fill:none;fill-rule:evenodd;stroke:#ffffff;stroke-width:1px;stroke-linecap:butt;stroke-linejoin:miter;stroke-opacity:1;opacity:0.3140002" />
  <path
     id="path4153"
     d="M 12.537875,3.1075749 C 10.479282,1.309436 8,1.4015845 6.2868664,1.7489919"
     style="fill:none;fill-rule:evenodd;stroke:#ffffff;stroke-width:1px;stroke-linecap:butt;stroke-linejoin:miter;stroke-opacity:1;opacity:0.40840011" />
  <path
     id="path4155"
     d="M 7.0676842,6.2151498 C 9,7 11.3548,7.9991923 12.406972,10.21515"
     style="opacity:0.41799999;fill:none;fill-rule:evenodd;stroke:url(#linearGradient4163);stroke-width:1px;stroke-linecap:butt;stroke-linejoin:miter;stroke-opacity:1" />
</svg>
