<?xml version="1.0" encoding="UTF-8" standalone="no"?>
<svg
   xmlns:dc="http://purl.org/dc/elements/1.1/"
   xmlns:cc="http://creativecommons.org/ns#"
   xmlns:rdf="http://www.w3.org/1999/02/22-rdf-syntax-ns#"
   xmlns:svg="http://www.w3.org/2000/svg"
   xmlns="http://www.w3.org/2000/svg"
   xmlns:sodipodi="http://sodipodi.sourceforge.net/DTD/sodipodi-0.dtd"
   xmlns:inkscape="http://www.inkscape.org/namespaces/inkscape"
   id="svg2"
   version="1.1"
   viewBox="0 0 16 16"
   inkscape:version="0.91 r13725"
   sodipodi:docname="game-lutris.svg">
  <sodipodi:namedview
     pagecolor="#ffffff"
     bordercolor="#666666"
     borderopacity="1"
     objecttolerance="10"
     gridtolerance="10"
     guidetolerance="10"
     inkscape:pageopacity="0"
     inkscape:pageshadow="2"
     inkscape:window-width="1366"
     inkscape:window-height="742"
     id="namedview24"
     showgrid="false"
     inkscape:zoom="14.75"
     inkscape:cx="0.74576271"
     inkscape:cy="8"
     inkscape:window-x="0"
     inkscape:window-y="0"
     inkscape:window-maximized="1"
     inkscape:current-layer="svg2" />
  <defs
     id="defs4">
    <linearGradient
       x1="-0.35593444"
       y1="-24.948923"
       gradientTransform="matrix(0.38095 0 0 0.38084 -1.143 -1.143)"
       id="0"
       y2="53.366875"
       gradientUnits="userSpaceOnUse"
       x2="0.53390163">
      <stop
         style="stop-color:#ff8b36;stop-opacity:1"
         id="stop7"
         stop-color="#ff8b36" />
      <stop
         style="stop-color:#ffd506;stop-opacity:1"
         id="stop9"
         stop-color="#ffa869"
         offset="1" />
    </linearGradient>
    <linearGradient
       y1="1"
       id="1"
       y2="15"
       gradientUnits="userSpaceOnUse"
       x2="0">
      <stop
         id="stop12"
         stop-color="#fff" />
      <stop
         id="stop14"
         stop-color="#fff"
         stop-opacity="0"
         offset="1" />
    </linearGradient>
  </defs>
  <rect
     style="fill:url(#0)"
     id="rect16"
     fill="url(#0)"
     ry="1.523"
     rx="1.524"
     width="16"
     height="15.995" />
  <g
     id="g18"
     fill="none">
    <path
       d="M 1.53125,0.5 C 0.953503,0.5 0.5,0.953706 0.5,1.53125 l 0,12.9375 C 0.5,15.04629 0.953503,15.5 1.53125,15.5 l 12.9375,0 C 15.0465,15.5 15.5,15.0463 15.5,14.46875 l 0,-12.9375 C 15.5,0.953705 15.0465,0.5 14.46875,0.5 l -12.9375,0 z"
       id="path20"
       stroke="#000"
       opacity="0.45" />
    <path
       d="M 1.53125,1.5 C 1.504466,1.5 1.5,1.504632 1.5,1.53125 l 0,12.9375 C 1.5,14.49537 1.50447,14.5 1.53125,14.5 l 12.9375,0 C 14.49554,14.5 14.5,14.4954 14.5,14.46875 l 0,-12.9375 C 14.5,1.504631 14.495535,1.5 14.46875,1.5 l -12.9375,0 z"
       id="path22"
       stroke="url(#1)"
       opacity="0.45" />
  </g>
  <path
     id="rect4149"
     d="M 7 3 C 6.446 3 6 3.446 6 4 L 6 6 L 4 6 C 3.446 6 3 6.446 3 7 L 3 9 C 3 9.554 3.446 10 4 10 L 6 10 L 6 12 C 6 12.554 6.446 13 7 13 L 9 13 C 9.554 13 10 12.554 10 12 L 10 10 L 12 10 C 12.554 10 13 9.554 13 9 L 13 7 C 13 6.446 12.554 6 12 6 L 10 6 L 10 4 C 10 3.446 9.554 3 9 3 L 7 3 z "
     style="opacity:1;fill:#171717;fill-opacity:1;stroke:none;stroke-width:1;stroke-linecap:round;stroke-linejoin:round;stroke-miterlimit:22.5;stroke-dasharray:none;stroke-opacity:1" />
  <path
     d="M 7,3.5761719 C 6.7547246,3.5761719 6.5761719,3.7547246 6.5761719,4 l 0,2 A 0.57528204,0.57528204 0 0 1 6,6.5761719 l -2,0 C 3.7547246,6.5761719 3.5761719,6.7547246 3.5761719,7 l 0,2 c 0,0.2452754 0.1785527,0.4238281 0.4238281,0.4238281 l 2,0 A 0.57528204,0.57528204 0 0 1 6.5761719,10 l 0,2 c 0,0.245275 0.1785527,0.423828 0.4238281,0.423828 l 2,0 c 0.2452754,0 0.4238281,-0.178553 0.4238281,-0.423828 l 0,-2 A 0.57528204,0.57528204 0 0 1 10,9.4238281 l 2,0 c 0.245275,0 0.423828,-0.1785527 0.423828,-0.4238281 l 0,-2 C 12.423828,6.7547246 12.245275,6.5761719 12,6.5761719 l -2,0 A 0.57528204,0.57528204 0 0 1 9.4238281,6 l 0,-2 C 9.4238281,3.7547246 9.2452754,3.5761719 9,3.5761719 l -2,0 z"
     id="path4154"
     style="opacity:1;fill:none;fill-opacity:1;stroke:#000000;stroke-width:1;stroke-linecap:round;stroke-linejoin:round;stroke-miterlimit:22.5;stroke-dasharray:none;stroke-opacity:1" />
  <rect
     style="opacity:0.35960004;fill:#ffffff;fill-opacity:1;stroke:none;stroke-width:1;stroke-linecap:round;stroke-linejoin:round;stroke-miterlimit:22.5;stroke-dasharray:none;stroke-opacity:1"
     id="rect4168"
     width="2"
     height="1"
     x="4"
     y="10" />
  <rect
     y="4"
     x="7"
     height="1"
     width="2"
     id="rect4156"
     style="opacity:0.35960004;fill:#ffffff;fill-opacity:1;stroke:none;stroke-width:1;stroke-linecap:round;stroke-linejoin:round;stroke-miterlimit:22.5;stroke-dasharray:none;stroke-opacity:1" />
  <rect
     y="7"
     x="4"
     height="1"
     width="2"
     id="rect4158"
     style="opacity:0.35960004;fill:#ffffff;fill-opacity:1;stroke:none;stroke-width:1;stroke-linecap:round;stroke-linejoin:round;stroke-miterlimit:22.5;stroke-dasharray:none;stroke-opacity:1" />
  <rect
     y="7"
     x="10"
     height="1"
     width="2"
     id="rect4160"
     style="opacity:0.35960004;fill:#ffffff;fill-opacity:1;stroke:none;stroke-width:1;stroke-linecap:round;stroke-linejoin:round;stroke-miterlimit:22.5;stroke-dasharray:none;stroke-opacity:1" />
  <rect
     y="10"
     x="10"
     height="1"
     width="2"
     id="rect4162"
     style="opacity:0.35960004;fill:#ffffff;fill-opacity:1;stroke:none;stroke-width:1;stroke-linecap:round;stroke-linejoin:round;stroke-miterlimit:22.5;stroke-dasharray:none;stroke-opacity:1" />
  <rect
     y="13"
     x="7"
     height="1"
     width="2"
     id="rect4166"
     style="opacity:0.3;fill:#ffffff;fill-opacity:1;stroke:none;stroke-width:1;stroke-linecap:round;stroke-linejoin:round;stroke-miterlimit:22.5;stroke-dasharray:none;stroke-opacity:1" />
  <metadata
     id="metadata9999">
    <rdf:RDF>
      <cc:Work>
        <dc:format>image/svg+xml</dc:format>
        <dc:type
           rdf:resource="http://purl.org/dc/dcmitype/StillImage" />
        <dc:title />
        <cc:license
           rdf:resource="http://creativecommons.org/licenses/by-sa/4.0/" />
        <dc:creator>
          <cc:Agent>
            <dc:title>Sixsixfive (sixsixfive.deviantart.com)</dc:title>
          </cc:Agent>
        </dc:creator>
        <dc:publisher>
          <cc:Agent>
            <dc:title>Sixsixfive (sixsixfive.deviantart.com)</dc:title>
          </cc:Agent>
        </dc:publisher>
        <dc:source>https://github.com/sixsixfive</dc:source>
        <dc:subject>
          <rdf:Bag>
            <rdf:li>ivy</rdf:li>
          </rdf:Bag>
        </dc:subject>
        <dc:contributor>
          <cc:Agent>
            <dc:title>ssf</dc:title>
          </cc:Agent>
        </dc:contributor>
        <dc:rights>
          <cc:Agent>
            <dc:title>Sixsixfive (sixisixfive.deviantart.com)</dc:title>
          </cc:Agent>
        </dc:rights>
        <dc:description>A simple icon theme published under CC-BY-SA_V4(http://creativecommons.org/licenses/by-sa/4.0)</dc:description>
        <dc:identifier>SSF</dc:identifier>
      </cc:Work>
    </rdf:RDF>
  </metadata>
  <!--Part of the Ivy icon them published under the CC-BY-SA_V4: http://creativecommons.org/licenses/by-sa/4.0 -->
</svg>
