<?xml version="1.0" encoding="UTF-8" standalone="no"?><svg xmlns:xlink="http://www.w3.org/1999/xlink" xmlns:cc="http://creativecommons.org/ns#" viewBox="0 0 16 16" version="1.1" id="svg2" xmlns:svg="http://www.w3.org/2000/svg" xmlns:rdf="http://www.w3.org/1999/02/22-rdf-syntax-ns#" xmlns="http://www.w3.org/2000/svg" xmlns:dc="http://purl.org/dc/elements/1.1/"><defs id="defs4"><linearGradient x2="0" gradientUnits="userSpaceOnUse" id="1" y2="34" gradientTransform="matrix(0.36363637 0 0 0.4 -0.72727276 -0.60000195)" y1="14"><stop id="stop7" stop-color="#ebebeb"/><stop offset="1" id="stop9" stop-color="#eee"/></linearGradient><linearGradient x2="0" gradientUnits="userSpaceOnUse" id="2" y2="6" y1="19"><stop id="stop12" stop-color="#fff"/><stop offset="1" stop-opacity="0" id="stop14" stop-color="#fff"/></linearGradient><mask id="3"><rect height="18" width="15" opacity="0.4" rx="1" ry="1" fill="url(#2)" id="rect17" x="13" y="1"/></mask></defs><g mask="url(#3)" id="g21" transform="matrix(0.44233494 0 0 0.33333333 -2.1809506 0)"><path id="path23" d="M 15.53125,1.78125 A 0.859511,0.859511 0 0 0 15,3.03125 c 1.735311,3.119725 4.04498,6.486233 5.25,9.1875 0.60251,1.350634 0.88921,2.519237 0.8125,3.3125 -0.07671,0.793263 -0.344792,1.244167 -1.375,1.65625 A 0.859511,0.859511 0 0 0 20,18.875 l 5,0 A 0.859511,0.859511 0 0 0 25.875,18 c 0,-3.477458 -2.65797,-7.217111 -4.25,-10.15625 C 20.828983,6.37418 20.348198,5.067282 20.375,4.53125 20.388401,4.263234 20.414916,4.241287 20.59375,4.125 20.772584,4.00871 21.21708,3.875 22,3.875 a 0.859943,0.859943 0 0 0 0.0625,-1.71875 l -6.25,-0.375 a 0.859511,0.859511 0 0 0 -0.28125,0 z"/><path fill="#6a6a6a" id="path25" d="M 20,18 C 25,16 19.17067,8.74019 15.762895,2.613732 L 22,3 c -7,0 3,9 3,15 z"/></g><rect height="8" width="16" rx="0.363636" ry="0.363636" fill="url(#1)" id="rect27" y="5"/><rect height="4" width="12" rx="0.3" ry="0.3" fill="#171717" id="rect31" x="2" y="7"/><path fill="#ebebeb" id="path3476" d="m 10,9.5 a 1.5,1.5 0 0 1 -3,0 1.5,1.5 0 1 1 3,0 z"/><g fill="#171717" id="g37" transform="matrix(0.33333333 0 0 0.33333333 0 0)"><path opacity="0.8804" fill="#ebebeb" id="path3491" transform="matrix(3 0 0 3 0 0)" d="m 3.4003906,5.9824219 c -0.6554824,0 -1.1398352,0.5093901 -1.2929687,1.125 C 1.491812,7.2605554 0.98242188,7.7449082 0.98242188,8.4003906 l 0,0.1992188 c 0,0.6554824 0.50939012,1.1398352 1.12500002,1.2929687 0.1531335,0.6156099 0.6374863,1.1249999 1.2929687,1.1249999 l 0.1992188,0 c 0.6554824,0 1.1398352,-0.50939 1.2929687,-1.1249999 0.6156099,-0.1531335 1.125,-0.6374863 1.125,-1.2929687 l 0,-0.1992188 c 0,-0.6554824 -0.5093901,-1.1398352 -1.125,-1.2929687 -0.1531335,-0.6156099 -0.6374863,-1.125 -1.2929687,-1.125 l -0.1992188,0 z"/><path id="rect39" transform="matrix(0 1 -1 0 0 0)" d="m 25.2,-15 0.6,0 c 0.6648,0 1.2,0.5352 1.2,1.2 l 0,6.6 c 0,0.6648 -0.5352,1.2 -1.2,1.2 l -0.6,0 C 24.5352,-6 24,-6.5352 24,-7.2 l 0,-6.6 c 0,-0.6648 0.5352,-1.2 1.2,-1.2 z"/><path id="rect41" transform="matrix(-1 0 0 -1 0 0)" d="m -10.8,-30 0.6,0 c 0.6648,0 1.2,0.5352 1.2,1.2 l 0,6.6 c 0,0.6648 -0.5352,1.2 -1.2,1.2 l -0.6,0 c -0.6648,0 -1.2,-0.5352 -1.2,-1.2 l 0,-6.6 c 0,-0.6648 0.5352,-1.2 1.2,-1.2 z"/></g><path fill="#ebebeb" id="path3478" d="m 8,9.5 a 1.5,1.5 0 0 1 -3,0 1.5,1.5 0 1 1 3,0 z"/><rect height="1" width="1" rx="0.2" ry="0.2" fill="#171717" id="rect45" x="6" y="9"/><rect height="1" width="1" rx="0.2" ry="0.2" fill="#171717" id="rect49" x="8" y="9"/><path opacity="0.94" fill="#ebebeb" id="path3472" d="M 11.542969 8 A 1.5 1.5 0 0 0 10 9.5 A 1.5 1.5 0 0 0 12.498047 10.617188 A 1.5 1.5 0 0 0 15 9.5 A 1.5 1.5 0 0 0 12.501953 8.3828125 A 1.5 1.5 0 0 0 11.542969 8 z "/><path fill="#d02604" id="0" d="m 12,9.5 a 0.5,0.5 0 0 1 -1,0 0.5,0.5 0 1 1 1,0 z"/><use height="16" width="16" xlink:href="#0" id="use78" transform="matrix(1 0 0 1 2 0)"/><path opacity="0.4" fill="#fff" id="path80" d="m 6,11 3,0 0,0.539468 -3,0 z"/><rect height="0.94929" width="4" fill-rule="evenodd" opacity="0.635" rx="0.218182" ry="0.218182" fill="#d02604" id="rect3419" x="10" y="7"/><rect height="1" width="1" rx="0.2" ry="0.2" fill="#6a6a6a" id="rect3493" x="7" y="9"/><rect height="1" width="5" fill-rule="evenodd" opacity="0.254" rx="0.367365" ry="0.367365" fill="#000" id="rect3495" x="5" y="10"/><path opacity="0.6" fill="none" id="path3501" stroke="#000" d="m 0.53320312,5.5332031 0,6.9335939 14.93359388,0 0,-6.9335939 -14.93359388,0 z"/><rect height="1" width="4" fill-rule="evenodd" opacity="0.254" rx="0.293892" ry="0.293892" fill="#000" id="rect3497" x="6" y="8"/><metadata id="metadata9999"><rdf:RDF><cc:Work><dc:format>image/svg+xml</dc:format><dc:type rdf:resource="http://purl.org/dc/dcmitype/StillImage"/><dc:title>Ivy icon theme</dc:title><cc:license rdf:resource="http://creativecommons.org/licenses/by-sa/4.0/"/><dc:creator><cc:Agent><dc:title>Sixsixfive (sixsixfive.deviantart.com)</dc:title></cc:Agent></dc:creator><dc:publisher><cc:Agent><dc:title>Sixsixfive (sixsixfive.deviantart.com)</dc:title></cc:Agent></dc:publisher><dc:source>https://github.com/sixsixfive</dc:source><dc:subject><rdf:Bag><rdf:li>ivy</rdf:li></rdf:Bag></dc:subject><dc:contributor><cc:Agent><dc:title>ssf</dc:title></cc:Agent></dc:contributor><dc:rights><cc:Agent><dc:title>Sixsixfive (sixisixfive.deviantart.com)</dc:title></cc:Agent></dc:rights><dc:description>A simple icon theme published under CC-BY-SA_V4(http://creativecommons.org/licenses/by-sa/4.0)</dc:description><dc:identifier>SSF</dc:identifier></cc:Work></rdf:RDF></metadata><!--Part of the Ivy icon them published under the CC-BY-SA_V4: http://creativecommons.org/licenses/by-sa/4.0 -->
</svg>