<?xml version="1.0" encoding="UTF-8" standalone="no"?><svg xmlns:rdf="http://www.w3.org/1999/02/22-rdf-syntax-ns#" xmlns:cc="http://creativecommons.org/ns#" xmlns:svg="http://www.w3.org/2000/svg" id="svg2" viewBox="0 0 16 16" version="1.1" xmlns:dc="http://purl.org/dc/elements/1.1/" xmlns="http://www.w3.org/2000/svg"><defs id="defs4"><linearGradient id="0" x2="0" y2="48" gradientTransform="matrix(0.34783 0 0 0.34854 -0.348 31.619)" y1="3" gradientUnits="userSpaceOnUse"><stop id="stop7" stop-color="#bfbfbf"/><stop offset="1" id="stop9" stop-color="#e7e7e7"/></linearGradient><linearGradient id="1" x2="12.04" y2="43.991" x1="12" y1="35" gradientUnits="userSpaceOnUse"><stop id="stop12" stop-opacity="0.268"/><stop offset="1" id="stop14" stop-opacity="0"/></linearGradient></defs><g id="g16" transform="matrix(1 0 0 1 0 -32)"><path id="path18" d="m 7.5761,31.9673 c -0.166174,0.01139 -0.31838,0.03758 -0.456523,0.05447 -0.012989,0.0015 -0.030715,-0.0014 -0.043478,0 A 0.346619,0.347327 0 0 0 6.77175,32.30495 l -0.3478,1.8952 c -0.479457,0.13112 -0.93532,0.316454 -1.3587,0.555482 l -1.5544,-1.111 a 0.346619,0.347327 0 0 0 -0.423914,0.01084 c -0.482249,0.375167 -0.910538,0.80374 -1.29348,1.27434 A 0.346619,0.347327 0 0 0 1.782584,35.3437 l 1.0544,1.5575 c -0.280428,0.467467 -0.494153,0.974572 -0.641303,1.51401 l -1.8478,0.2941 A 0.346619,0.347327 0 0 0 0.054402,39.00339 C 0.014723,39.32813 5.4e-5,39.66408 5.4e-5,39.99454 c 0,0.266895 0.0056,0.535466 0.032609,0.805993 a 0.346619,0.347327 0 0 0 0.28261,0.30497 l 1.8587,0.3376 c 0.144671,0.581117 0.36383,1.13352 0.663046,1.63377 l -1.087,1.514 a 0.346619,0.347327 0 0 0 0.010872,0.42478 c 0.367761,0.457491 0.784784,0.86628 1.23913,1.23077 a 0.346619,0.347327 0 0 0 0.413045,0.01084 l 1.5652,-1.0674 c 0.519179,0.304864 1.07975,0.527093 1.68479,0.664398 l 0.2935,1.8298 a 0.346619,0.347327 0 0 0 0.304349,0.294079 c 0.251847,0.02298 0.501932,0.02178 0.739134,0.02178 0.342762,0 0.679098,-0.01026 1.02174,-0.05447 a 0.346619,0.347327 0 0 0 0.29348,-0.283186 l 0.3587,-1.8952 c 0.567706,-0.165288 1.09085,-0.415137 1.57609,-0.72975 l 1.5,1.0892 a 0.346619,0.347327 0 0 0 0.434784,-0.02178 c 0.455628,-0.38843 0.851479,-0.833665 1.20653,-1.30702 a 0.346619,0.347327 0 0 0 0.01081,-0.402996 l -1.087,-1.6011 c 0.2504,-0.473926 0.426776,-0.986502 0.543479,-1.52485 l 1.8261,-0.2941 a 0.346619,0.347327 0 0 0 0.293479,-0.304971 c 0.01921,-0.228986 0.02175,-0.452439 0.02175,-0.675283 0,-0.407373 -0.04343,-0.804296 -0.09782,-1.17631 a 0.346619,0.347327 0 0 0 -0.28261,-0.283186 l -1.9022,-0.3485 c -0.149591,-0.4697 -0.36859,-0.909813 -0.619568,-1.31791 l 1.1087,-1.5249 a 0.346619,0.347327 0 0 0 -0.01081,-0.42478 c -0.394965,-0.483946 -0.847232,-0.924127 -1.34783,-1.30696 a 0.346619,0.347327 0 0 0 -0.402175,-0.01084 l -1.6196,1.111 C 10.419104,34.490627 9.991767,34.3115 9.532573,34.18922 l -0.2935,-1.8734 A 0.346619,0.347327 0 0 0 8.945594,32.021743 c -0.308095,-0.03631 -0.625604,-0.05447 -0.945655,-0.05447 -0.075237,0 -0.164036,-0.0031 -0.26087,0 -0.011865,3.77e-4 -0.056472,-0.0043 -0.130435,0 0.032128,-0.0019 0.023439,-0.0038 -0.032609,0 z M 8,37.8924 c 1.1526,0 2.08696,0.936273 2.08696,2.09122 0,1.15495 -0.934365,2.09123 -2.08696,2.09123 -1.1526,0 -2.08696,-0.936273 -2.08696,-2.09123 0,-1.15495 0.934366,-2.09122 2.08696,-2.09122 z" fill="url(#0)" color="#000"/><path id="path20" d="m 8,36 c -2.20914,0 -4,1.79086 -4,4 0,2.20914 1.79086,4 4,4 2.20914,0 4,-1.79086 4,-4 0,-2.20914 -1.79086,-4 -4,-4 z m 0,1.8182 c 1.20498,0 2.18182,0.976832 2.18182,2.18182 0,1.20499 -0.976835,2.18182 -2.18182,2.18182 -1.20498,0 -2.18182,-0.976831 -2.18182,-2.18182 0,-1.20499 0.976834,-2.18182 2.18182,-2.18182 z" fill="url(#1)"/><path id="path22" opacity="0.4" d="m 7.5312,32.4688 c -0.082223,0.0097 -0.168018,0.0459 -0.28125,0.0625 l -0.3125,1.75 a 0.495246,0.495246 0 0 1 -0.375,0.375 c -0.440386,0.120435 -0.864834,0.313797 -1.25,0.53125 A 0.495246,0.495246 0 0 1 4.7812,35.1563 L 3.3124,34.1251 c -0.385257,0.308836 -0.746716,0.657315 -1.0625,1.03125 l 1,1.4688 a 0.495246,0.495246 0 0 1 0.03125,0.53125 c -0.262495,0.437572 -0.491965,0.887304 -0.625,1.375 a 0.495246,0.495246 0 0 1 -0.375,0.375 l -1.7188,0.2812 c -0.028648,0.269252 -0.0625,0.545678 -0.0625,0.8125 0,0.218117 0.01616,0.418516 0.03125,0.625 l 1.75,0.3125 a 0.495246,0.495246 0 0 1 0.375,0.375 c 0.134717,0.541134 0.353929,1.0468 0.625,1.5 a 0.495246,0.495246 0 0 1 -0.03125,0.53125 l -1.0312,1.4688 c 0.29203,0.346789 0.638775,0.671765 1,0.96875 l 1.4688,-1 A 0.495246,0.495246 0 0 1 5.2187,44.75015 c 0.471605,0.276928 1.00111,0.4976 1.5625,0.625 a 0.495246,0.495246 0 0 1 0.375,0.375 l 0.2812,1.7188 c 0.185446,0.0123 0.385782,0.03125 0.5625,0.03125 0.283366,0 0.565244,-0.03195 0.84375,-0.0625 l 0.3438,-1.75 a 0.495246,0.495246 0 0 1 0.375,-0.375 c 0.505044,-0.147044 0.94523,-0.388593 1.40625,-0.6875 a 0.495246,0.495246 0 0 1 0.5625,0 l 1.4062,1.0312 c 0.37585,-0.326822 0.703665,-0.680959 1,-1.0625 l -1.0312,-1.5312 a 0.495246,0.495246 0 0 1 -0.03125,-0.5 c 0.226603,-0.428885 0.390546,-0.87009 0.5,-1.375 a 0.495246,0.495246 0 0 1 0.375,-0.40625 l 1.7188,-0.2812 c 0.01233,-0.168352 0.03125,-0.335887 0.03125,-0.5 0,-0.334044 -0.05084,-0.678876 -0.09375,-1 l -1.7812,-0.3125 a 0.495246,0.495246 0 0 1 -0.375,-0.34375 c -0.13294,-0.417418 -0.324717,-0.832111 -0.5625,-1.21875 a 0.495246,0.495246 0 0 1 0,-0.53125 l 1.0625,-1.4375 C 13.415947,34.758364 13.01709,34.423961 12.5938,34.094 l -1.5,1.0312 a 0.495246,0.495246 0 0 1 -0.53125,0.03125 c -0.385924,-0.209958 -0.747036,-0.391035 -1.15625,-0.5 A 0.495246,0.495246 0 0 1 9.0313,34.2502 l -0.25,-1.7188 C 8.517103,32.50232 8.261849,32.4689 8.00005,32.4689 c -0.088839,0 -0.14096,-0.0025 -0.21875,0 -0.101983,0.0032 -0.072991,4.28e-4 -0.09375,0 -0.020759,-4.28e-4 -0.044994,-10e-4 -0.0625,0 a 0.495246,0.495246 0 0 1 -0.03125,0 c -0.00808,-3.98e-4 -0.047254,0.002 -0.0625,0 z M 8,37.4063 c 1.41254,0 2.59375,1.13853 2.59375,2.5625 0,1.42397 -1.17226,2.59375 -2.59375,2.59375 -1.42149,0 -2.59375,-1.16978 -2.59375,-2.59375 0,-1.42397 1.18121,-2.5625 2.59375,-2.5625 z" stroke="#000" fill="none" color="#000"/></g><path solid-color="#000000" image-rendering="auto" id="path3363" isolation="auto" opacity="0.8" solid-opacity="1" d="M 8.6699219,1.1816406 7.6777344,1.3105469 C 7.7590455,1.9370743 7.1737056,2.754681 6.265625,3.1601562 5.3575444,3.5656315 4.2696451,3.5640035 3.3925781,2.6914062 L 2.6875,3.4003906 C 3.8689701,4.5758397 5.4685905,4.6123803 6.6738281,4.0742188 7.8790658,3.5360572 8.8317465,2.4285497 8.6699219,1.1816406 Z" mix-blend-mode="normal" color-rendering="auto" white-space="normal" color-interpolation="sRGB" color-interpolation-filters="linearRGB" shape-rendering="auto" fill-rule="evenodd" fill="#fff" color="#000"/><path solid-color="#000000" image-rendering="auto" id="path3365" isolation="auto" opacity="0.8" solid-opacity="1" d="M 7.5800781,0.828125 C 7.3468614,1.5570141 7.4658619,2.2797542 7.8007812,2.8535156 8.1357006,3.427277 8.6639981,3.8673023 9.2636719,4.1621094 10.463019,4.7517235 12.039194,4.7988683 13.019531,3.7753906 L 12.296875,3.0839844 C 11.716862,3.6895216 10.60859,3.7078493 9.7050781,3.2636719 9.2533224,3.0415831 8.876683,2.7138565 8.6640625,2.3496094 8.451442,1.9853622 8.3817724,1.5999855 8.53125,1.1328125 L 7.5800781,0.828125 Z" mix-blend-mode="normal" color-rendering="auto" white-space="normal" color-interpolation="sRGB" color-interpolation-filters="linearRGB" shape-rendering="auto" fill-rule="evenodd" fill="#fff" color="#000"/><path solid-color="#000000" image-rendering="auto" id="path3367" isolation="auto" opacity="0.8" solid-opacity="1" d="M 11.193359,8.2070312 C 10.836199,10.114318 9.4069168,10.9951 8.0019531,11.001953 6.5969895,11.008806 5.2648136,10.171945 5.0410156,8.2695312 L 4.046875,8.3867188 c 0.276613,2.3513732 2.1175607,3.6242162 3.9589844,3.6152342 1.8414236,-0.009 3.7313236,-1.269149 4.1699216,-3.611328 L 11.193359,8.2070312 Z" mix-blend-mode="normal" color-rendering="auto" white-space="normal" color-interpolation="sRGB" color-interpolation-filters="linearRGB" shape-rendering="auto" fill-rule="evenodd" fill="#fff" color="#000"/><metadata id="metadata9999"><rdf:RDF><cc:Work><dc:format>image/svg+xml</dc:format><dc:type rdf:resource="http://purl.org/dc/dcmitype/StillImage"/><dc:title>Ivy icon theme</dc:title><cc:license rdf:resource="http://creativecommons.org/licenses/by-sa/4.0/"/><dc:creator><cc:Agent><dc:title>Sixsixfive (sixsixfive.deviantart.com)</dc:title></cc:Agent></dc:creator><dc:publisher><cc:Agent><dc:title>Sixsixfive (sixsixfive.deviantart.com)</dc:title></cc:Agent></dc:publisher><dc:source>https://github.com/sixsixfive</dc:source><dc:subject><rdf:Bag><rdf:li>ivy</rdf:li></rdf:Bag></dc:subject><dc:contributor><cc:Agent><dc:title>ssf</dc:title></cc:Agent></dc:contributor><dc:rights><cc:Agent><dc:title>Sixsixfive (sixisixfive.deviantart.com)</dc:title></cc:Agent></dc:rights><dc:description>A simple icon theme published under CC-BY-SA_V4(http://creativecommons.org/licenses/by-sa/4.0)</dc:description><dc:identifier>SSF</dc:identifier></cc:Work></rdf:RDF></metadata><!--Part of the Ivy icon them published under the CC-BY-SA_V4: http://creativecommons.org/licenses/by-sa/4.0 -->
</svg>