<?xml version="1.0" encoding="UTF-8" standalone="no"?>
<svg xmlns:dc="http://purl.org/dc/elements/1.1/" xmlns:cc="http://creativecommons.org/ns#" xmlns:rdf="http://www.w3.org/1999/02/22-rdf-syntax-ns#" xmlns:svg="http://www.w3.org/2000/svg" xmlns="http://www.w3.org/2000/svg" xmlns:xlink="http://www.w3.org/1999/xlink" viewBox="0 0 16 16" id="svg2" version="1.1">
 <defs id="defs6">
  <linearGradient id="linearGradient4236">
   <stop stop-color="#adadad" id="stop4238"/>
   <stop offset="1" stop-color="#ebebeb" id="stop4240"/>
  </linearGradient>
  <linearGradient id="linearGradient4228">
   <stop stop-color="#f4e292" id="stop4230"/>
   <stop offset="1" stop-color="#e8bb6c" id="stop4232"/>
  </linearGradient>
  <linearGradient id="linearGradient4317" xlink:href="#linearGradient4236" y1="8" y2="11" gradientUnits="userSpaceOnUse" x2="0"/>
  <linearGradient id="linearGradient4331" xlink:href="#linearGradient4228" y1="11" y2="16" gradientUnits="userSpaceOnUse" x2="0"/>
 </defs>
 <path fill="#d02604" stroke-linejoin="round" id="rect4268" stroke-linecap="round" d="M 6 0 C 5.446 0 5 0.446 5 1 L 5 6 L 1 6 C 0.446 6 0 6.446 0 7 L 0 15 C 0 15.554 0.446 16 1 16 L 15 16 C 15.554 16 16 15.554 16 15 L 16 7 C 16 6.446 15.554 6 15 6 L 11 6 L 11 1 C 11 0.446 10.554 0 10 0 L 6 0 z M 8 2 A 1 1 0 0 1 9 3 A 1 1 0 0 1 8 4 A 1 1 0 0 1 7 3 A 1 1 0 0 1 8 2 z "/>
 <path fill="url(#linearGradient4331)" stroke-linejoin="round" id="rect4276" stroke-linecap="round" d="M 0 11 L 0 15 C 0 15.554 0.446 16 1 16 L 15 16 C 15.554 16 16 15.554 16 15 L 16 11 L 0 11 z "/>
 <rect width="16" y="8" fill="url(#linearGradient4317)" height="3" stroke-linejoin="round" id="rect4281" stroke-linecap="round"/>
 <rect width="1" x="2" opacity="0.2" y="11" height="4" stroke-linejoin="round" id="rect4283" stroke-linecap="round"/>
 <rect width="1" x="4" opacity="0.2" y="11" height="4" stroke-linejoin="round" id="rect4285" stroke-linecap="round"/>
 <rect width="1" x="6" opacity="0.2" y="11" height="4" stroke-linejoin="round" id="rect4287" stroke-linecap="round"/>
 <rect width="1" x="8" opacity="0.2" y="11" height="4" stroke-linejoin="round" id="rect4289" stroke-linecap="round"/>
 <rect width="1" x="10" opacity="0.2" y="11" height="4" stroke-linejoin="round" id="rect4291" stroke-linecap="round"/>
 <rect width="1" x="12" opacity="0.2" y="11" height="4" stroke-linejoin="round" id="rect4293" stroke-linecap="round"/>
 <rect width="1" x="14" opacity="0.2" y="11" height="4" stroke-linejoin="round" id="rect4295" stroke-linecap="round"/>
 <path opacity="0.4" fill="none" stroke="#000" stroke-linejoin="round" id="path4303" stroke-linecap="round" d="M 6,0.5 C 5.7143676,0.5 5.5,0.7143676 5.5,1 l 0,5 A 0.50008022,0.50008022 0 0 1 5,6.5 l -4,0 C 0.7143676,6.5 0.5,6.7143676 0.5,7 l 0,8 c 0,0.285632 0.2143676,0.5 0.5,0.5 l 14,0 c 0.285632,0 0.5,-0.214368 0.5,-0.5 l 0,-8 C 15.5,6.7143676 15.285632,6.5 15,6.5 l -4,0 A 0.50008022,0.50008022 0 0 1 10.5,6 l 0,-5 C 10.5,0.7143676 10.285632,0.5 10,0.5 l -4,0 z"/>
 <path opacity="0.4" fill="none" stroke="#000" stroke-linejoin="round" id="path4309" stroke-linecap="round" d="M 8,1.4863281 C 7.2077199,1.4863281 6.4863281,2.2077199 6.4863281,3 6.4863281,3.7922801 7.2077199,4.5136719 8,4.5136719 8.7922801,4.5136719 9.5136719,3.7922801 9.5136719,3 9.5136719,2.2077199 8.7922801,1.4863281 8,1.4863281 Z"/>
 <rect width="14" x="1" opacity="0.4" y="8" height="1" stroke-linejoin="round" id="rect4319" stroke-linecap="round"/>
 <rect width="14" x="1" opacity="0.6" y="9" fill="#fff" height="1" stroke-linejoin="round" id="rect4321" stroke-linecap="round"/>
 <rect width="14" x="1" opacity="0.4" y="10" height="1" stroke-linejoin="round" id="rect4323" stroke-linecap="round"/>
 <path opacity="0.42" fill="none" fill-rule="evenodd" stroke="#fff" id="path4333" d="m 1,7.4682346 4,0.031252"/>
 <path opacity="0.42" fill="none" fill-rule="evenodd" stroke="#fff" id="path4335" d="m 10.875657,7.4994864 4.062745,0.062504"/>
 <path opacity="0.6" fill="none" fill-rule="evenodd" stroke="#fff" id="path4337" d="M 6.3128814,4.6874811 C 7.9347671,6.0876838 8.86892,5.338721 9.8443447,4.718733"/>
 <path opacity="0.27" fill="none" fill-rule="evenodd" stroke="#fff" id="path4339" d="m 6.0312519,1.4375264 3.9068484,0.062504"/>
 <metadata id="metadata9999">
  <rdf:RDF>
   <cc:Work>
    <dc:format>image/svg+xml</dc:format>
    <dc:type rdf:resource="http://purl.org/dc/dcmitype/StillImage"/>
    <dc:title>Ivy icon theme</dc:title>
    <cc:license rdf:resource="http://creativecommons.org/licenses/by-sa/4.0/"/>
    <dc:creator>
     <cc:Agent>
      <dc:title>Sixsixfive (sixsixfive.deviantart.com)</dc:title>
     </cc:Agent>
    </dc:creator>
    <dc:publisher>
     <cc:Agent>
      <dc:title>Sixsixfive (sixsixfive.deviantart.com)</dc:title>
     </cc:Agent>
    </dc:publisher>
    <dc:source>https://github.com/sixsixfive</dc:source>
    <dc:subject>
     <rdf:Bag>
      <rdf:li>ivy</rdf:li>
     </rdf:Bag>
    </dc:subject>
    <dc:contributor>
     <cc:Agent>
      <dc:title>ssf</dc:title>
     </cc:Agent>
    </dc:contributor>
    <dc:rights>
     <cc:Agent>
      <dc:title>Sixsixfive (sixisixfive.deviantart.com)</dc:title>
     </cc:Agent>
    </dc:rights>
    <dc:description>A simple icon theme published under CC-BY-SA_V4(http://creativecommons.org/licenses/by-sa/4.0)</dc:description>
    <dc:identifier>SSF</dc:identifier>
   </cc:Work>
  </rdf:RDF>
 </metadata>
 <!--Part of the Ivy icon them published under the CC-BY-SA_V4: http://creativecommons.org/licenses/by-sa/4.0 -->
</svg>
