<?xml version="1.0" encoding="UTF-8" standalone="no"?>
<svg xmlns:dc="http://purl.org/dc/elements/1.1/" xmlns:cc="http://creativecommons.org/ns#" xmlns:rdf="http://www.w3.org/1999/02/22-rdf-syntax-ns#" xmlns:svg="http://www.w3.org/2000/svg" xmlns="http://www.w3.org/2000/svg" xmlns:xlink="http://www.w3.org/1999/xlink" version="1.1" viewBox="0 0 16 16" id="svg2">
 <defs id="defs4">
  <linearGradient id="linearGradient3799">
   <stop stop-color="#d02604" id="stop3801"/>
   <stop offset="1" stop-color="#fc8871" id="stop3803"/>
  </linearGradient>
  <linearGradient id="0" y1="44.01" y2="2" x2="0" gradientUnits="userSpaceOnUse" gradientTransform="matrix(0.37195 0 0 0.38089 -16.227 -16.762)">
   <stop stop-color="#dedede" id="stop7"/>
   <stop offset="1" stop-color="#f4f4f4" id="stop9"/>
  </linearGradient>
  <linearGradient id="linearGradient3805" xlink:href="#linearGradient3799" y1="0" y2="16" x2="0" gradientUnits="userSpaceOnUse" gradientTransform="matrix(1.3333333 0 0 1 -0.333333 0)"/>
 </defs>
 <rect width="13" x="-14" y="-16" fill="url(#0)" rx="0.46" height="15.997" id="rect16" transform="matrix(-1 0 0 -1 0 0)" ry="0.46"/>
 <rect width="4" x="1" fill="url(#linearGradient3805)" height="16" id="rect3029"/>
 <g id="g18" fill="none">
  <path id="path20" d="m 13.4749,0.5322 -11.9375,0 0,14.9375 11.9375,0 0,-14.9375 z" opacity="0.4" stroke="#000"/>
 </g>
 <rect width="11" x="2" y="1" fill="#fff" height="1" fill-opacity="0.594" id="rect3807"/>
 <rect width="1" x="4" opacity="0.4" y="1" height="14" id="rect3809"/>
 <rect width="1" x="3" y="5" fill="#fff" height="1" id="rect3811"/>
 <rect width="1" x="3" y="10" fill="#fff" height="1" id="rect3813"/>
 <path fill="#fff" id="path4383" d="m 9,9 c -1.6568544,0 -3.0000003,0.639594 -3.0000003,1.428571 0,2.142857 0,0 0,2.142857 C 5.9999997,13.360407 7.3431456,14 9,14 c 1.656855,0 3,-0.639593 3,-1.428572 0,-2.142857 0,0 0,-2.142857 C 12,9.639594 10.656855,9 9,9 z"/>
 <path fill="#8c8c8c" id="path38" d="M 9,8 C 7.3431456,8 5.9999997,8.6395935 5.9999997,9.428571 c 0,2.142857 0,0 0,2.142857 C 5.9999997,12.360407 7.3431456,13 9,13 c 1.656855,0 3,-0.639593 3,-1.428572 0,-2.142857 0,0 0,-2.142857 C 12,8.6395935 10.656855,8 9,8 z"/>
 <path fill="#a0a0a0" id="path40" d="M 9,5 C 7.3431456,5 5.9999997,5.639593 5.9999997,6.4285711 c 0,2.1428577 0,0.4285712 0,2.5714289 0,0.788979 1.3431459,1 3.0000003,1 1.656855,0 3,-0.211021 3,-1 C 12,6.8571423 12,8.5714288 12,6.4285711 12,5.639593 10.656855,5 9,5 z"/>
 <path fill="#aaa" id="path42" d="M 9.0000003,2 C 7.3431459,2 6,2.6395931 6,3.4285717 6,5.5714286 6,3.8571431 6,6 6,6.7889786 7.3431459,7 9.0000003,7 10.656855,7 12,6.7889786 12,6 12,3.8571432 12,5.5714286 12,3.4285718 12,2.6395931 10.656855,2 9.0000003,2 z"/>
 <metadata id="metadata9999">
  <rdf:RDF>
   <cc:Work>
    <dc:format>image/svg+xml</dc:format>
    <dc:type rdf:resource="http://purl.org/dc/dcmitype/StillImage"/>
    <dc:title>Ivy icon theme</dc:title>
    <cc:license rdf:resource="http://creativecommons.org/licenses/by-sa/4.0/"/>
    <dc:creator>
     <cc:Agent>
      <dc:title>Sixsixfive (sixsixfive.deviantart.com)</dc:title>
     </cc:Agent>
    </dc:creator>
    <dc:publisher>
     <cc:Agent>
      <dc:title>Sixsixfive (sixsixfive.deviantart.com)</dc:title>
     </cc:Agent>
    </dc:publisher>
    <dc:source>https://github.com/sixsixfive</dc:source>
    <dc:subject>
     <rdf:Bag>
      <rdf:li>ivy</rdf:li>
     </rdf:Bag>
    </dc:subject>
    <dc:contributor>
     <cc:Agent>
      <dc:title>ssf</dc:title>
     </cc:Agent>
    </dc:contributor>
    <dc:rights>
     <cc:Agent>
      <dc:title>Sixsixfive (sixisixfive.deviantart.com)</dc:title>
     </cc:Agent>
    </dc:rights>
    <dc:description>A simple icon theme published under CC-BY-SA_V4(http://creativecommons.org/licenses/by-sa/4.0)</dc:description>
    <dc:identifier>SSF</dc:identifier>
   </cc:Work>
  </rdf:RDF>
 </metadata>
 <!--Part of the Ivy icon them published under the CC-BY-SA_V4: http://creativecommons.org/licenses/by-sa/4.0 -->
</svg>
