<?xml version="1.0" encoding="UTF-8" standalone="no"?>
<svg xmlns:dc="http://purl.org/dc/elements/1.1/" xmlns:cc="http://creativecommons.org/ns#" xmlns:rdf="http://www.w3.org/1999/02/22-rdf-syntax-ns#" xmlns:svg="http://www.w3.org/2000/svg" xmlns="http://www.w3.org/2000/svg" viewBox="0 0 16 16" id="svg2" version="1.1">
 <defs id="defs4">
  <linearGradient id="0" y1="44.01" y2="2" x2="0" gradientUnits="userSpaceOnUse" gradientTransform="matrix(0.37195 0 0 0.38089 -16.227 -16.762)">
   <stop stop-color="#5288d1" id="stop7"/>
   <stop offset="1" stop-color="#86acdf" id="stop9"/>
  </linearGradient>
  <linearGradient id="1" y1="43.997" y2="1.99" x2="0" gradientUnits="userSpaceOnUse" gradientTransform="matrix(-0.37195 0 0 -0.38089 16.235 16.758)">
   <stop stop-color="#fff" id="stop12"/>
   <stop offset="1" stop-color="#fff" stop-opacity="0" id="stop14"/>
  </linearGradient>
 </defs>
 <rect width="13" x="-14" y="-16" fill="url(#0)" rx="0.46" height="15.997" transform="matrix(-1 0 0 -1 0 0)" ry="0.46" id="rect16"/>
 <g id="g18" fill="none">
  <path d="m 13.4749,0.5322 -11.9375,0 0,14.9375 11.9375,0 0,-14.9375 z" id="path20" opacity="0.4" stroke="#000"/>
  <path d="m 12.5062,1.5322 -10,0 0,12.9375 10,0 0,-12.9375 z" id="path22" opacity="0.3" stroke="url(#1)"/>
 </g>
 <g id="g24" fill="#ebebeb" color="#000">
  <path d="m 3,3 9,0 0,1 -9,0 z" id="path26"/>
  <path d="m 3,13 9,0 0,1 -9,0 z" id="path28"/>
  <g transform="matrix(0,1,-1,0,0,0)" id="g30">
   <path d="m 2,-5 13,0 0,1 -13,0 z" id="path32"/>
   <path d="m 2,-11 13,0 0,1 -13,0 z" id="path34"/>
  </g>
  <path d="m 9,12 1,0 0,1 -1,0 z" id="path36" opacity="0.7"/>
  <path d="M 6,5 7,5 7,6 6,6 Z" id="path38"/>
  <path d="M 5,6 6,6 6,7 5,7 Z" id="path40"/>
  <path d="M 7,4 8,4 8,5 7,5 Z" id="path42"/>
  <path d="M 5,4 6,4 6,5 5,5 Z" id="path44" opacity="0.679"/>
 </g>
 <metadata id="metadata9999">
  <rdf:RDF>
   <cc:Work>
    <dc:format>image/svg+xml</dc:format>
    <dc:type rdf:resource="http://purl.org/dc/dcmitype/StillImage"/>
    <dc:title>Ivy icon theme</dc:title>
    <cc:license rdf:resource="http://creativecommons.org/licenses/by-sa/4.0/"/>
    <dc:creator>
     <cc:Agent>
      <dc:title>Sixsixfive (sixsixfive.deviantart.com)</dc:title>
     </cc:Agent>
    </dc:creator>
    <dc:publisher>
     <cc:Agent>
      <dc:title>Sixsixfive (sixsixfive.deviantart.com)</dc:title>
     </cc:Agent>
    </dc:publisher>
    <dc:source>https://github.com/sixsixfive</dc:source>
    <dc:subject>
     <rdf:Bag>
      <rdf:li>ivy</rdf:li>
     </rdf:Bag>
    </dc:subject>
    <dc:contributor>
     <cc:Agent>
      <dc:title>ssf</dc:title>
     </cc:Agent>
    </dc:contributor>
    <dc:rights>
     <cc:Agent>
      <dc:title>Sixsixfive (sixisixfive.deviantart.com)</dc:title>
     </cc:Agent>
    </dc:rights>
    <dc:description>A simple icon theme published under CC-BY-SA_V4(http://creativecommons.org/licenses/by-sa/4.0)</dc:description>
    <dc:identifier>SSF</dc:identifier>
   </cc:Work>
  </rdf:RDF>
 </metadata>
 <!--Part of the Ivy icon them published under the CC-BY-SA_V4: http://creativecommons.org/licenses/by-sa/4.0 -->
</svg>
