<?xml version="1.0" encoding="UTF-8" standalone="no"?><svg xmlns:cc="http://creativecommons.org/ns#" xmlns:rdf="http://www.w3.org/1999/02/22-rdf-syntax-ns#" xmlns:svg="http://www.w3.org/2000/svg" id="svg2" viewBox="0 0 16 16" version="1.1" xmlns="http://www.w3.org/2000/svg" xmlns:dc="http://purl.org/dc/elements/1.1/"><defs id="defs4"><linearGradient id="0" x2="0" y2="2" gradientTransform="matrix(0.37195 0 0 0.38089 -16.227 -16.762)" y1="44.01" gradientUnits="userSpaceOnUse"><stop id="stop7" stop-color="#dedede"/><stop offset="1" id="stop9" stop-color="#f4f4f4"/></linearGradient><linearGradient id="1" x2="0" y2="1.99" gradientTransform="matrix(-0.37195 0 0 -0.38089 16.235 16.758)" y1="43.997" gradientUnits="userSpaceOnUse"><stop id="stop12" stop-color="#fff"/><stop offset="1" id="stop14" stop-color="#fff" stop-opacity="0"/></linearGradient><linearGradient id="0-7" x2="0" y2="15" y1="6" gradientUnits="userSpaceOnUse"><stop id="stop3448" stop-color="#fff"/><stop offset="1" id="stop3450" stop-color="#fff" stop-opacity="0"/></linearGradient><linearGradient id="1-6" x2="0" y2="47" gradientTransform="matrix(0.39987 0 0 0.40756 -1.597 -3.154)" y1="20" gradientUnits="userSpaceOnUse"><stop id="stop3453" stop-color="#929292"/><stop offset="1" id="stop3455" stop-color="#d6d6d6"/></linearGradient><radialGradient r="11" cx="25.27" id="2" cy="12.786" gradientTransform="matrix(-0.99255 0.75504 -0.82653 -0.83152 41.831 -7.189)" gradientUnits="userSpaceOnUse"><stop id="stop3458" stop-color="#ebebeb"/><stop offset="1" id="stop3460" stop-color="#6a6a6a"/></radialGradient><mask id="mask3523" maskUnits="userSpaceOnUse"><rect rx="0.46" ry="0.46" height="15.997" id="rect3525" width="13" transform="matrix(-1 0 0 -1 0 0)" x="-11" y="-14.0262" fill="#fff"/></mask></defs><rect rx="0.46" ry="0.46" height="15.997" id="rect16" width="13" transform="matrix(-1 0 0 -1 0 0)" x="-14" y="-16" fill="url(#0)"/><g mask="url(#mask3523)" id="g3503" transform="matrix(1 0 0 1 3 1.9738)"><path id="path3462" d="m 6.6362,0.0262 c -2.01475,0 -3.63673,1.41893 -3.63673,3.18145 l 0,4.37449 c 0,1.76252 1.62198,3.18145 3.63673,3.18145 l 2.72754,0 c 2.01475,0 3.63673,-1.41893 3.63673,-3.18145 l 0,-4.37449 c 0,-1.76252 -1.62198,-3.18145 -3.63673,-3.18145 z m 0.3813,3.0089 1.9921,0 c 1.04228,0 1.04398,0.105314 1.037,1.01709 l -0.0272,3.5574 c -0.007,0.911775 0.386613,1.56336 -0.65567,1.56336 l -2.72754,0 c -1.04228,0 -0.601196,-0.59721 -0.601196,-1.50901 l 0,-2.18725 -0.0545,-1.4791 C 3.272394,3.00007 3.272394,3.035101 4.289954,3.035101 Z" fill="url(#2)"/><path id="path3464" opacity="0.3" d="m 6.625,0.5625 c -1.75789,0 -3.09375,1.22552 -3.09375,2.65625 l 0,4.375 c 0,1.43073 1.33023,2.625 3.09375,2.625 l 2.75,0 c 1.76352,0 3.09375,-1.19427 3.09375,-2.625 l 0,-4.375 C 12.46875,1.78802 11.13289,0.5625 9.375,0.5625 l -2.75,0 z M 6.4062,2.5 c 0.192093,-0.016983 0.373178,0 0.625,0 l 1.96875,0 c 0.270978,0 0.47835,-0.00518 0.6875,0.03125 0.20915,0.036433 0.451837,0.118513 0.625,0.3125 0.173163,0.193987 0.229412,0.432672 0.25,0.625 0.02059,0.192328 0.0017,0.366118 0,0.59375 l 0,3.5625 c -0.0029,0.376625 0.117257,0.727086 0.0625,1.1875 -0.02738,0.230207 -0.154601,0.546334 -0.40625,0.71875 -0.251649,0.172416 -0.526495,0.1875 -0.84375,0.1875 l -2.75,0 C 6.310419,9.71875 6.03471,9.706661 5.7812,9.53125 5.527687,9.355839 5.421526,9.03948 5.4062,8.8125 5.375548,8.358533 5.49995,8.02282 5.49995,7.65625 l 0,-2.1875 -0.0625,-1.4375 A 0.544809,0.544809 0 0 1 5.43745,4 C 5.442358,3.748249 5.438687,3.540148 5.4687,3.34375 5.498713,3.147352 5.578705,2.893696 5.7812,2.71875 5.983695,2.543804 6.214107,2.516983 6.4062,2.5 Z" stroke="#000" fill="none"/><path id="rect3466" d="m 3.223,4.9980001 9.55,0 c 0.677542,0 1.223,0.5454581 1.223,1.2230001 l 0,8.5539998 c 0,0.677542 -0.545458,1.223 -1.223,1.223 l -9.55,0 C 2.545458,15.998 2,15.452542 2,14.775 L 2,6.2210002 C 2,5.5434582 2.545458,4.9980001 3.223,4.9980001 Z" fill="url(#1-6)"/><path id="path3468" opacity="0.5" d="m 6,1 4,0 0,1 -4,0 z" fill="#fff"/><path id="path3470" d="m 2.219,7.972 11.596,0 0,2.038 -11.596,0 z" fill="#ffd506"/><path id="path3472" d="m 2.2195,10.0097 1.9994,-2.0378 1.9994,0 -1.9994,2.0378 z"/><path id="path3474" d="m 6,10 2.2721,-2.0328 2.2721,0 L 8.2721,10 Z"/><path id="path3476" d="m 12.2163,7.9719 -1.9994,2.0378 1.9994,0 1.5995,-1.6303 0,-0.4076 -1.59949,0 z"/><path id="path3478" opacity="0.4" d="m 3.1875,5.5312 c -0.388647,0 -0.65625,0.277882 -0.65625,0.6875 l 0,8.5625 c 0,0.409617 0.267603,0.6875 0.65625,0.6875 l 9.625,0 c 0.388648,0 0.65625,-0.277882 0.65625,-0.6875 l 0,-8.5625 c 0,-0.409618 -0.267602,-0.6875 -0.65625,-0.6875 l -9.625,0 z" stroke="#000" fill="none"/><path id="path3480" opacity="0.3" d="m 2.219,9 11.196,0 0,1.01 -11.196,0 z"/><g id="g3482" fill="#fff"><path id="path3484" opacity="0.36" d="m 2,10 11.196,0 0,1 L 2,11 Z"/><path id="path3486" opacity="0.26" d="m 2.219,7 11.196,0 0,0.972 -11.196,0 z"/></g><path id="path3488" opacity="0.2" d="m 3.5312,6.5312 0,7.9375 8.9375,0 0,-7.9375 -8.9375,0 z" stroke="url(#0-7)" transform="matrix(1 0 0 1 -0.031 -0.031)" fill="none"/></g><g id="g18" fill="none"><path id="path20" opacity="0.4" d="m 13.4749,0.5322 -11.9375,0 0,14.9375 11.9375,0 0,-14.9375 z" stroke="#000"/><path id="path22" opacity="0.81" d="m 12.5062,1.5322 -10,0 0,12.9375 10,0 0,-12.9375 z" stroke="url(#1)"/></g><metadata id="metadata9999"><rdf:RDF><cc:Work><dc:format>image/svg+xml</dc:format><dc:type rdf:resource="http://purl.org/dc/dcmitype/StillImage"/><dc:title>Ivy icon theme</dc:title><cc:license rdf:resource="http://creativecommons.org/licenses/by-sa/4.0/"/><dc:creator><cc:Agent><dc:title>Sixsixfive (sixsixfive.deviantart.com)</dc:title></cc:Agent></dc:creator><dc:publisher><cc:Agent><dc:title>Sixsixfive (sixsixfive.deviantart.com)</dc:title></cc:Agent></dc:publisher><dc:source>https://github.com/sixsixfive</dc:source><dc:subject><rdf:Bag><rdf:li>ivy</rdf:li></rdf:Bag></dc:subject><dc:contributor><cc:Agent><dc:title>ssf</dc:title></cc:Agent></dc:contributor><dc:rights><cc:Agent><dc:title>Sixsixfive (sixisixfive.deviantart.com)</dc:title></cc:Agent></dc:rights><dc:description>A simple icon theme published under CC-BY-SA_V4(http://creativecommons.org/licenses/by-sa/4.0)</dc:description><dc:identifier>SSF</dc:identifier></cc:Work></rdf:RDF></metadata><!--Part of the Ivy icon them published under the CC-BY-SA_V4: http://creativecommons.org/licenses/by-sa/4.0 -->
</svg>