<?xml version="1.0" encoding="UTF-8" standalone="no"?>
<svg xmlns:dc="http://purl.org/dc/elements/1.1/" xmlns:cc="http://creativecommons.org/ns#" xmlns:rdf="http://www.w3.org/1999/02/22-rdf-syntax-ns#" xmlns:svg="http://www.w3.org/2000/svg" xmlns="http://www.w3.org/2000/svg" version="1.1" viewBox="0 0 48 48" id="svg2">
 <defs id="defs4">
  <linearGradient gradientUnits="userSpaceOnUse" x2="0" y2="43" y1="9.879" id="0">
   <stop id="stop7" stop-color="#fff"/>
   <stop id="stop9" stop-opacity="0" stop-color="#fff" offset="1"/>
  </linearGradient>
  <linearGradient gradientUnits="userSpaceOnUse" x2="8" x1="15.901" id="1">
   <stop id="stop12" stop-color="#ffe463"/>
   <stop id="stop14" stop-color="#e7c000" offset="1"/>
  </linearGradient>
  <linearGradient gradientUnits="userSpaceOnUse" x2="43" x1="8" id="2">
   <stop id="stop17" stop-color="#dedede"/>
   <stop id="stop19" stop-color="#f4f4f4" offset="1"/>
  </linearGradient>
 </defs>
 <g id="g21" transform="matrix(0,1,-1,0,0,0)">
  <path d="m 11.259,-45 32.533,0 c 0.669786,0 1.209,0.539214 1.209,1.209 l 0,39.582 C 45.001,-3.539214 44.461786,-3 43.792,-3 L 11.259,-3 C 10.589214,-3 10.05,-3.539214 10.05,-4.209 l 0,-39.582 c 0,-0.669786 0.539214,-1.209 1.209,-1.209 z" id="rect23" opacity="0.1"/>
  <path d="m 10.259,-45 32.533,0 c 0.669786,0 1.209,0.539214 1.209,1.209 l 0,39.582 C 44.001,-3.539214 43.461786,-3 42.792,-3 L 10.259,-3 C 9.5892142,-3 9.0500002,-3.539214 9.0500002,-4.209 l 0,-39.582 c 0,-0.669786 0.539214,-1.209 1.2089998,-1.209 z" id="rect25" fill="url(#2)"/>
  <path d="m 10.269,-45 4.592001,0 c 0.669786,0 1.209,0.539214 1.209,1.209 l 0,39.582 c 0,0.669786 -0.539214,1.209 -1.209,1.209 L 10.269,-3 C 9.5992144,-3 9.0600004,-3.539214 9.0600004,-4.209 l 0,-39.582 c 0,-0.669786 0.539214,-1.209 1.2089996,-1.209 z" id="rect27" fill="url(#1)"/>
 </g>
 <g transform="translate(0,1)" id="g4201" opacity="0.5" fill="#fff">
  <path d="m 17,18 14,0 c 1.108,0 2,0.892 2,2 l 0,2 c 0,1.108 -0.892,2 -2,2 l -14,0 c -1.108,0 -2,-0.892 -2,-2 l 0,-2 c 0,-1.108 0.892,-2 2,-2 z" id="rect4203" fill-rule="evenodd"/>
  <path d="m 27,38 a 3,3 0 0 1 -3,3 3,3 0 0 1 -3,-3 3,3 0 0 1 3,-3 3,3 0 0 1 3,3 z" id="circle4205" opacity="1" stroke-linejoin="round" stroke-linecap="round"/>
  <path d="m 23,24 2,0 0,8 -2,0 z" id="rect4207" fill-rule="evenodd"/>
  <path transform="matrix(1.1475966,0,0,1.2500002,4.4908578,-8.750007)" d="m 17,35 c -0.313841,0 -1.401925,-1.828206 -1.558846,-2.1 -0.15692,-0.271794 -1.196151,-2.128206 -1.03923,-2.4 0.15692,-0.271794 2.284235,-0.3 2.598076,-0.3 0.313841,0 2.441156,0.02821 2.598076,0.3 0.156921,0.271794 -0.88231,2.128206 -1.03923,2.4 C 18.401925,33.171794 17.313841,35 17,35 Z" id="path4209" opacity="1" stroke-linejoin="round" stroke-linecap="round"/>
 </g>
 <path id="path29" d="M 44.5 10.25 C 44.5 9.846221 44.20016 9.5625 43.78125 9.5625 H 4.21875 C 3.799839 9.5625 3.5 9.846221 3.5 10.25 V 42.78125 C 3.5 43.18503 3.81497 43.5 4.21875 43.5 H 43.78125 C 44.18503 43.5 44.5 43.18503 44.5 42.78125 V 10.25 z" stroke="#000" fill="none" opacity="0.4"/>
 <path id="path31" transform="matrix(0 1 -1 0 0 0)" d="M 15.0625,-44 H16.0625 V-4 H15.0625 z" opacity="0.4"/>
 <path id="path33" d="M 43.4688 10.5937 H 4.5313 V 42.4687 H 43.4688 V 10.5937 z" stroke="url(#0)" fill="none" opacity="0.4"/>
 <path id="path35" d="M 31.5 15.062 A 1.5 1.5 0 1 1 31.5 12.062 1.5 1.5 0 0 1 31.5 15.062 z" opacity="0.1"/>
 <path id="path37" d="M 16.5 15.062 A 1.5 1.5 0 1 1 16.5 12.062 1.5 1.5 0 0 1 16.5 15.062 z" opacity="0.1"/>
 <g id="g39" fill="#fff">
  <path id="path41" d="m 31.5,14.0625 a 1.5,1.5 0 1 1 0,-3 1.5,1.5 0 0 1 0,3 z"/>
  <path id="path43" d="m 16.5,14.0625 a 1.5,1.5 0 1 1 0,-3 1.5,1.5 0 0 1 0,3 z"/>
 </g>
 <g id="g4195" opacity="0.3976" fill="#6a6a6a">
  <path d="m 17,18 14,0 c 1.108,0 2,0.892 2,2 l 0,2 c 0,1.108 -0.892,2 -2,2 l -14,0 c -1.108,0 -2,-0.892 -2,-2 l 0,-2 c 0,-1.108 0.892,-2 2,-2 z" id="rect4187" fill-rule="evenodd"/>
  <path d="m 27,38 a 3,3 0 0 1 -3,3 3,3 0 0 1 -3,-3 3,3 0 0 1 3,-3 3,3 0 0 1 3,3 z" id="path4189" opacity="1" stroke-linejoin="round" stroke-linecap="round"/>
  <path d="m 23,24 2,0 0,8 -2,0 z" id="rect4191" fill-rule="evenodd"/>
  <path id="path4193" d="m 17,35 c -0.313841,0 -1.401925,-1.828206 -1.558846,-2.1 -0.15692,-0.271794 -1.196151,-2.128206 -1.03923,-2.4 0.15692,-0.271794 2.284235,-0.3 2.598076,-0.3 0.313841,0 2.441156,0.02821 2.598076,0.3 0.156921,0.271794 -0.88231,2.128206 -1.03923,2.4 C 18.401925,33.171794 17.313841,35 17,35 Z" transform="matrix(1.1475966,0,0,1.2500002,4.4908578,-8.750007)" opacity="1" stroke-linejoin="round" stroke-linecap="round"/>
 </g>
 <metadata id="metadata9999">
  <rdf:RDF>
   <cc:Work>
    <dc:format>image/svg+xml</dc:format>
    <dc:type rdf:resource="http://purl.org/dc/dcmitype/StillImage"/>
    <dc:title>Ivy icon theme</dc:title>
    <cc:license rdf:resource="http://creativecommons.org/licenses/by-sa/4.0/"/>
    <dc:creator>
     <cc:Agent>
      <dc:title>Sixsixfive (sixsixfive.deviantart.com)</dc:title>
     </cc:Agent>
    </dc:creator>
    <dc:publisher>
     <cc:Agent>
      <dc:title>Sixsixfive (sixsixfive.deviantart.com)</dc:title>
     </cc:Agent>
    </dc:publisher>
    <dc:source>https://github.com/sixsixfive</dc:source>
    <dc:subject>
     <rdf:Bag>
      <rdf:li>ivy</rdf:li>
     </rdf:Bag>
    </dc:subject>
    <dc:contributor>
     <cc:Agent>
      <dc:title>ssf</dc:title>
     </cc:Agent>
    </dc:contributor>
    <dc:rights>
     <cc:Agent>
      <dc:title>Sixsixfive (sixisixfive.deviantart.com)</dc:title>
     </cc:Agent>
    </dc:rights>
    <dc:description>A simple icon theme published under CC-BY-SA_V4(http://creativecommons.org/licenses/by-sa/4.0)</dc:description>
    <dc:identifier>SSF</dc:identifier>
   </cc:Work>
  </rdf:RDF>
 </metadata>
 <!--Part of the Ivy icon them published under the CC-BY-SA_V4: http://creativecommons.org/licenses/by-sa/4.0 -->
</svg>
