<?xml version="1.0" encoding="UTF-8" standalone="no"?>
<svg xmlns:dc="http://purl.org/dc/elements/1.1/" xmlns:cc="http://creativecommons.org/ns#" xmlns:rdf="http://www.w3.org/1999/02/22-rdf-syntax-ns#" xmlns:svg="http://www.w3.org/2000/svg" xmlns="http://www.w3.org/2000/svg" xmlns:xlink="http://www.w3.org/1999/xlink" version="1.1" viewBox="0 0 16 16" id="svg2">
 <defs id="defs4">
  <linearGradient id="linearGradient3799">
   <stop stop-color="#66b03e" id="stop3801"/>
   <stop offset="1" stop-color="#aeda96" id="stop3803"/>
  </linearGradient>
  <linearGradient id="0" y1="44.01" y2="2" x2="0" gradientUnits="userSpaceOnUse" gradientTransform="matrix(0.37195 0 0 0.38089 -16.227 -16.762)">
   <stop stop-color="#dedede" id="stop7"/>
   <stop offset="1" stop-color="#f4f4f4" id="stop9"/>
  </linearGradient>
  <linearGradient id="linearGradient3805" xlink:href="#linearGradient3799" y1="0" y2="16" x2="0" gradientUnits="userSpaceOnUse" gradientTransform="matrix(1.3333333 0 0 1 -0.333333 0)"/>
 </defs>
 <rect width="13" x="-14" y="-16" fill="url(#0)" rx="0.46" height="15.997" id="rect16" transform="matrix(-1 0 0 -1 0 0)" ry="0.46"/>
 <rect width="4" x="1" fill="url(#linearGradient3805)" height="16" id="rect3029"/>
 <g id="g18" fill="none">
  <path id="path20" d="m 13.4749,0.5322 -11.9375,0 0,14.9375 11.9375,0 0,-14.9375 z" opacity="0.4" stroke="#000"/>
 </g>
 <rect width="11" x="2" y="1" fill="#fff" height="1" fill-opacity="0.594" id="rect3807"/>
 <rect width="1" x="4" opacity="0.4" y="1" height="14" id="rect3809"/>
 <rect width="1" x="3" y="5" fill="#fff" height="1" id="rect3811"/>
 <rect width="1" x="3" y="10" fill="#fff" height="1" id="rect3813"/>
 <rect width="1" x="6" opacity="0.3" y="3" height="10" id="rect4002"/>
 <rect width="1" x="3" opacity="0.3" y="-11" height="4" id="rect4006" transform="matrix(0 1 -1 0 0 0)"/>
 <rect width="1" x="11" opacity="0.3" y="3" height="10" id="rect4004"/>
 <rect width="1" x="12" opacity="0.3" y="-11" height="4" id="rect4008" transform="matrix(0 1 -1 0 0 0)"/>
 <rect width="1" x="6" opacity="0.3" y="-11" height="4" id="rect4010" transform="matrix(0 1 -1 0 0 0)"/>
 <rect width="1" x="9" opacity="0.3" y="-11" height="4" id="rect4014" transform="matrix(0 1 -1 0 0 0)"/>
 <rect width="1" x="8" opacity="0.1" y="7" height="2" id="rect4016"/>
 <rect width="1" x="9" opacity="0.1" y="7" height="2" id="rect4018"/>
 <rect width="1" x="8" opacity="0.1" y="4" height="2" id="rect4020"/>
 <rect width="1" x="9" opacity="0.1" y="4" height="2" id="rect4022"/>
 <rect width="1" x="8" opacity="0.1" y="10" height="2" id="rect4024"/>
 <rect width="1" x="9" opacity="0.1" y="10" height="2" id="rect4026"/>
 <rect width="1" x="13" opacity="0.4" y="-12" fill="#fff" height="6" id="rect4028" transform="matrix(0 1 -1 0 0 0)"/>
 <metadata id="metadata9999">
  <rdf:RDF>
   <cc:Work>
    <dc:format>image/svg+xml</dc:format>
    <dc:type rdf:resource="http://purl.org/dc/dcmitype/StillImage"/>
    <dc:title>Ivy icon theme</dc:title>
    <cc:license rdf:resource="http://creativecommons.org/licenses/by-sa/4.0/"/>
    <dc:creator>
     <cc:Agent>
      <dc:title>Sixsixfive (sixsixfive.deviantart.com)</dc:title>
     </cc:Agent>
    </dc:creator>
    <dc:publisher>
     <cc:Agent>
      <dc:title>Sixsixfive (sixsixfive.deviantart.com)</dc:title>
     </cc:Agent>
    </dc:publisher>
    <dc:source>https://github.com/sixsixfive</dc:source>
    <dc:subject>
     <rdf:Bag>
      <rdf:li>ivy</rdf:li>
     </rdf:Bag>
    </dc:subject>
    <dc:contributor>
     <cc:Agent>
      <dc:title>ssf</dc:title>
     </cc:Agent>
    </dc:contributor>
    <dc:rights>
     <cc:Agent>
      <dc:title>Sixsixfive (sixisixfive.deviantart.com)</dc:title>
     </cc:Agent>
    </dc:rights>
    <dc:description>A simple icon theme published under CC-BY-SA_V4(http://creativecommons.org/licenses/by-sa/4.0)</dc:description>
    <dc:identifier>SSF</dc:identifier>
   </cc:Work>
  </rdf:RDF>
 </metadata>
 <!--Part of the Ivy icon them published under the CC-BY-SA_V4: http://creativecommons.org/licenses/by-sa/4.0 -->
</svg>
