<?xml version="1.0" encoding="UTF-8" standalone="no"?><svg xmlns:svg="http://www.w3.org/2000/svg" xmlns="http://www.w3.org/2000/svg" viewBox="0 0 16 16" xmlns:rdf="http://www.w3.org/1999/02/22-rdf-syntax-ns#" xmlns:xlink="http://www.w3.org/1999/xlink" version="1.1" id="svg2" xmlns:dc="http://purl.org/dc/elements/1.1/" xmlns:cc="http://creativecommons.org/ns#"><defs id="defs4"><linearGradient id="linearGradient3799"><stop id="stop3801" stop-color="#d02604"/><stop offset="1" id="stop3803" stop-color="#fc8871"/></linearGradient><linearGradient y1="44.01" x2="0" y2="2" id="0" gradientTransform="matrix(0.37195 0 0 0.38089 -16.227 -16.762)" gradientUnits="userSpaceOnUse"><stop id="stop7" stop-color="#dedede"/><stop offset="1" id="stop9" stop-color="#f4f4f4"/></linearGradient><linearGradient xlink:href="#linearGradient3799" y1="0" x2="0" y2="16" id="linearGradient3805" gradientTransform="matrix(1.3333333 0 0 1 -0.333333 0)" gradientUnits="userSpaceOnUse"/></defs><rect y="-16" x="-14" ry="0.46" rx="0.46" height="15.997" id="rect16" transform="matrix(-1 0 0 -1 0 0)" width="13" fill="url(#0)"/><rect x="1" height="16" id="rect3029" width="4" fill="url(#linearGradient3805)"/><g id="g18" fill="none"><path stroke="#000" opacity="0.4" id="path20" d="m 13.4749,0.5322 -11.9375,0 0,14.9375 11.9375,0 0,-14.9375 z"/></g><rect y="1" x="2" fill-opacity="0.594" height="1" id="rect3807" width="11" fill="#fff"/><rect y="1" x="4" opacity="0.4" height="14" id="rect3809" width="1"/><rect y="5" x="3" height="1" id="rect3811" width="1" fill="#fff"/><rect y="10" x="3" height="1" id="rect3813" width="1" fill="#fff"/><path id="path4383" d="m 9,9 c -1.6568544,0 -3.0000003,0.639594 -3.0000003,1.428571 0,2.142857 0,0 0,2.142857 C 5.9999997,13.360407 7.3431456,14 9,14 c 1.656855,0 3,-0.639593 3,-1.428572 0,-2.142857 0,0 0,-2.142857 C 12,9.639594 10.656855,9 9,9 z" fill="#fff"/><path id="path38" d="M 9,8 C 7.3431456,8 5.9999997,8.6395935 5.9999997,9.428571 c 0,2.142857 0,0 0,2.142857 C 5.9999997,12.360407 7.3431456,13 9,13 c 1.656855,0 3,-0.639593 3,-1.428572 0,-2.142857 0,0 0,-2.142857 C 12,8.6395935 10.656855,8 9,8 z" fill="#8c8c8c"/><path id="path40" d="M 9,5 C 7.3431456,5 5.9999997,5.639593 5.9999997,6.4285711 c 0,2.1428577 0,0.4285712 0,2.5714289 0,0.788979 1.3431459,1 3.0000003,1 1.656855,0 3,-0.211021 3,-1 C 12,6.8571423 12,8.5714288 12,6.4285711 12,5.639593 10.656855,5 9,5 z" fill="#a0a0a0"/><path id="path42" d="M 9.0000003,2 C 7.3431459,2 6,2.6395931 6,3.4285717 6,5.5714286 6,3.8571431 6,6 6,6.7889786 7.3431459,7 9.0000003,7 10.656855,7 12,6.7889786 12,6 12,3.8571432 12,5.5714286 12,3.4285718 12,2.6395931 10.656855,2 9.0000003,2 z" fill="#aaa"/><metadata id="metadata9999"><rdf:RDF><cc:Work><dc:format>image/svg+xml</dc:format><dc:type rdf:resource="http://purl.org/dc/dcmitype/StillImage"/><dc:title>Ivy icon theme</dc:title><cc:license rdf:resource="http://creativecommons.org/licenses/by-sa/4.0/"/><dc:creator><cc:Agent><dc:title>Sixsixfive (sixsixfive.deviantart.com)</dc:title></cc:Agent></dc:creator><dc:publisher><cc:Agent><dc:title>Sixsixfive (sixsixfive.deviantart.com)</dc:title></cc:Agent></dc:publisher><dc:source>https://github.com/sixsixfive</dc:source><dc:subject><rdf:Bag><rdf:li>ivy</rdf:li></rdf:Bag></dc:subject><dc:contributor><cc:Agent><dc:title>ssf</dc:title></cc:Agent></dc:contributor><dc:rights><cc:Agent><dc:title>Sixsixfive (sixisixfive.deviantart.com)</dc:title></cc:Agent></dc:rights><dc:description>A simple icon theme published under CC-BY-SA_V4(http://creativecommons.org/licenses/by-sa/4.0)</dc:description><dc:identifier>SSF</dc:identifier></cc:Work></rdf:RDF></metadata><!--Part of the Ivy icon them published under the CC-BY-SA_V4: http://creativecommons.org/licenses/by-sa/4.0 -->
</svg>