<?xml version="1.0" encoding="UTF-8" standalone="no"?>
<svg xmlns:dc="http://purl.org/dc/elements/1.1/" xmlns:cc="http://creativecommons.org/ns#" xmlns:rdf="http://www.w3.org/1999/02/22-rdf-syntax-ns#" xmlns:svg="http://www.w3.org/2000/svg" xmlns="http://www.w3.org/2000/svg" version="1.1" id="svg2" viewBox="0 0 48 48">
 <defs id="defs4">
  <linearGradient gradientUnits="userSpaceOnUse" x2="44.06" y2="-45.07" x1="9.103" y1="-45.12" id="0">
   <stop id="stop7" stop-color="#dcdcdc" stop-opacity="1"/>
   <stop id="stop9" stop-color="#f1f1f1" offset="1" stop-opacity="1"/>
  </linearGradient>
  <linearGradient gradientUnits="userSpaceOnUse" x2="43.977" y2="43.17" x1="43.804" y1="10.03" id="1">
   <stop id="stop12" stop-color="#fff"/>
   <stop id="stop14" stop-opacity="0" stop-color="#fff" offset="1"/>
  </linearGradient>
 </defs>
 <g id="g16" transform="matrix(0,1,-1,0,0,0)">
  <path id="rect18" d="m 11.259,-45 32.533,0 c 0.669786,0 1.209,0.539214 1.209,1.209 l 0,39.582 C 45.001,-3.539214 44.461786,-3 43.792,-3 L 11.259,-3 C 10.589214,-3 10.05,-3.539214 10.05,-4.209 l 0,-39.582 c 0,-0.669786 0.539214,-1.209 1.209,-1.209 z" opacity="0.1"/>
  <path id="rect20" d="m 10.259,-45 32.533,0 c 0.669786,0 1.209,0.539214 1.209,1.209 l 0,39.582 C 44.001,-3.539214 43.461786,-3 42.792,-3 L 10.259,-3 C 9.5892142,-3 9.0500002,-3.539214 9.0500002,-4.209 l 0,-39.582 c 0,-0.669786 0.539214,-1.209 1.2089998,-1.209 z" fill="url(#0)"/>
 </g>
 <g id="g26" fill="none">
  <path id="path28" d="m 44.5069,10.2431 c 0,-0.403779 -0.299839,-0.6875 -0.71875,-0.6875 l -39.5625,0 c -0.418911,0 -0.71875,0.283721 -0.71875,0.6875 l 0,32.5312 c 0,0.40378 0.31497,0.71875 0.71875,0.71875 l 39.5625,0 c 0.403779,0 0.71875,-0.31497 0.71875,-0.71875 l 0,-32.5312 z" opacity="0.4" stroke="#000"/>
  <path id="path30" d="m 43.4756,10.5869 -38.9375,0 0,31.875 38.9375,0 0,-31.875 z" opacity="0.348" stroke="url(#1)"/>
 </g>
 <g id="g4178" transform="translate(0,0.89960853)" opacity="0.4228" fill="#fff">
  <g id="g4180" transform="matrix(0.70710678,-0.70710678,0.70710678,0.70710678,-12.0804,24.886117)" fill="#fff">
   <path id="path4182" d="m 24,18.025391 a 9,9 0 0 0 -9,9 9,9 0 0 0 9,9 9,9 0 0 0 9,-9 9,9 0 0 0 -9,-9 z M 24,20 a 7,7.0000005 0 0 1 7,7 7,7.0000005 0 0 1 -7,7 7,7.0000005 0 0 1 -7,-7 7,7.0000005 0 0 1 7,-7 z" opacity="1" stroke-dasharray="none" stroke-opacity="1" fill="#fff" stroke="none" stroke-linejoin="round" fill-opacity="1" stroke-linecap="round" stroke-width="1" stroke-dashoffset="0" stroke-miterlimit="4"/>
   <path id="path4184" d="m 23,35 2,0 0,-16 -2,0 c 0,5.333333 0,10.666667 0,16 z" stroke-opacity="1" fill="#fff" fill-rule="evenodd" stroke="none" stroke-linejoin="miter" stroke-linecap="butt" stroke-width="1"/>
   <path d="m 16,26 0,2 16,0 0,-2 c -5.333333,0 -10.666667,0 -16,0 z" id="path4186" stroke-opacity="1" fill="#fff" fill-rule="evenodd" stroke="none" stroke-linejoin="miter" stroke-linecap="butt" stroke-width="1"/>
  </g>
  <path id="rect4188" d="m 10,26 6,0 0,2 -6,0 z" opacity="1" stroke-dasharray="none" stroke-opacity="1" fill="#fff" stroke="none" stroke-linejoin="round" fill-opacity="1" stroke-linecap="round" stroke-width="1" stroke-dashoffset="0" stroke-miterlimit="4"/>
  <path id="rect4190" d="m 32,26 6,0 0,2 -6,0 z" opacity="1" stroke-dasharray="none" stroke-opacity="1" fill="#fff" stroke="none" stroke-linejoin="round" fill-opacity="1" stroke-linecap="round" stroke-width="1" stroke-dashoffset="0" stroke-miterlimit="4"/>
 </g>
 <g id="g4170" fill="#909090" fill-opacity="1">
  <g transform="matrix(0.70710678,-0.70710678,0.70710678,0.70710678,-12.0804,24.886117)" id="g4161" fill="#909090" fill-opacity="1">
   <path d="m 24,18.025391 a 9,9 0 0 0 -9,9 9,9 0 0 0 9,9 9,9 0 0 0 9,-9 9,9 0 0 0 -9,-9 z M 24,20 a 7,7.0000005 0 0 1 7,7 7,7.0000005 0 0 1 -7,7 7,7.0000005 0 0 1 -7,-7 7,7.0000005 0 0 1 7,-7 z" id="path4152" opacity="1" stroke-dasharray="none" stroke-opacity="1" fill="#909090" stroke="none" stroke-linejoin="round" fill-opacity="1" stroke-linecap="round" stroke-width="1" stroke-dashoffset="0" stroke-miterlimit="4"/>
   <path d="m 23,35 2,0 0,-16 -2,0 c 0,5.333333 0,10.666667 0,16 z" id="path4157" stroke-opacity="1" fill="#909090" fill-rule="evenodd" stroke="none" stroke-linejoin="miter" fill-opacity="1" stroke-linecap="butt" stroke-width="1"/>
   <path id="path4159" d="m 16,26 0,2 16,0 0,-2 c -5.333333,0 -10.666667,0 -16,0 z" stroke-opacity="1" fill="#909090" fill-rule="evenodd" stroke="none" stroke-linejoin="miter" fill-opacity="1" stroke-linecap="butt" stroke-width="1"/>
  </g>
  <path id="rect4166" d="m 10,26 6,0 0,2 -6,0 z" opacity="1" stroke-dasharray="none" stroke-opacity="1" fill="#909090" stroke="none" stroke-linejoin="round" fill-opacity="1" stroke-linecap="round" stroke-width="1" stroke-dashoffset="0" stroke-miterlimit="4"/>
  <path id="rect4168" d="m 32,26 6,0 0,2 -6,0 z" opacity="1" stroke-dasharray="none" stroke-opacity="1" fill="#909090" stroke="none" stroke-linejoin="round" fill-opacity="1" stroke-linecap="round" stroke-width="1" stroke-dashoffset="0" stroke-miterlimit="4"/>
 </g>
 <metadata id="metadata9999">
  <rdf:RDF>
   <cc:Work>
    <dc:format>image/svg+xml</dc:format>
    <dc:type rdf:resource="http://purl.org/dc/dcmitype/StillImage"/>
    <dc:title>Ivy icon theme</dc:title>
    <cc:license rdf:resource="http://creativecommons.org/licenses/by-sa/4.0/"/>
    <dc:creator>
     <cc:Agent>
      <dc:title>Sixsixfive (sixsixfive.deviantart.com)</dc:title>
     </cc:Agent>
    </dc:creator>
    <dc:publisher>
     <cc:Agent>
      <dc:title>Sixsixfive (sixsixfive.deviantart.com)</dc:title>
     </cc:Agent>
    </dc:publisher>
    <dc:source>https://github.com/sixsixfive</dc:source>
    <dc:subject>
     <rdf:Bag>
      <rdf:li>ivy</rdf:li>
     </rdf:Bag>
    </dc:subject>
    <dc:contributor>
     <cc:Agent>
      <dc:title>ssf</dc:title>
     </cc:Agent>
    </dc:contributor>
    <dc:rights>
     <cc:Agent>
      <dc:title>Sixsixfive (sixisixfive.deviantart.com)</dc:title>
     </cc:Agent>
    </dc:rights>
    <dc:description>A simple icon theme published under CC-BY-SA_V4(http://creativecommons.org/licenses/by-sa/4.0)</dc:description>
    <dc:identifier>SSF</dc:identifier>
   </cc:Work>
  </rdf:RDF>
 </metadata>
 <!--Part of the Ivy icon them published under the CC-BY-SA_V4: http://creativecommons.org/licenses/by-sa/4.0 -->
</svg>
