<?xml version="1.0" encoding="UTF-8" standalone="no"?><svg viewBox="0 0 48 48" xmlns:svg="http://www.w3.org/2000/svg" xmlns="http://www.w3.org/2000/svg" xmlns:rdf="http://www.w3.org/1999/02/22-rdf-syntax-ns#" version="1.1" id="svg2" xmlns:dc="http://purl.org/dc/elements/1.1/" xmlns:cc="http://creativecommons.org/ns#"><defs id="defs4"><linearGradient y1="3" x2="0" y2="44" id="0" gradientUnits="userSpaceOnUse"><stop id="stop7" stop-color="#dedede"/><stop offset="1" id="stop9" stop-color="#f4f4f4"/></linearGradient><linearGradient x1="40" y1="3" x2="39.906" y2="42.969" id="1" gradientUnits="userSpaceOnUse"><stop id="stop12" stop-color="#fff"/><stop stop-opacity="0" offset="1" id="stop14" stop-color="#fff"/></linearGradient><linearGradient y1="10.765" x2="0" y2="40.485" gradientTransform="matrix(-1.18474 0 0 1.27706 57 -8.727)" id="2" gradientUnits="userSpaceOnUse"><stop id="M" stop-color="#fff"/><stop stop-opacity="0" offset="1" id="N" stop-color="#fff"/></linearGradient><mask id="3"><path id="O" d="m 3.9828,24 a 20,20 0 0 0 40,0 20,20 0 1 0 -40,0 z" fill="#fff"/></mask><mask id="4"><path id="P" d="m 3.9828,24 a 20,20 0 0 0 40,0 20,20 0 1 0 -40,0 z" fill="#fff"/></mask><mask id="5"><path id="Q" d="m 3.9828,24 a 20,20 0 0 0 40,0 20,20 0 1 0 -40,0 z" fill="#fff"/></mask><mask id="6"><path id="R" d="m 3.9828,24 a 20,20 0 0 0 40,0 20,20 0 1 0 -40,0 z" fill="#fff"/></mask><mask id="7"><path id="S" d="m 3.9828,24 a 20,20 0 0 0 40,0 20,20 0 1 0 -40,0 z" fill="#fff"/></mask><mask id="8"><path id="T" d="m 3.9828,24 a 20,20 0 0 0 40,0 20,20 0 1 0 -40,0 z" fill="#fff"/></mask><mask id="9"><path id="U" d="m 3.9828,24 a 20,20 0 0 0 40,0 20,20 0 1 0 -40,0 z" fill="#fff"/></mask><mask id="A"><path id="V" d="m 3.9828,24 a 20,20 0 0 0 40,0 20,20 0 1 0 -40,0 z" fill="#fff"/></mask><filter y="-0.515" x="-0.515" color-interpolation-filters="sRGB" height="2.031" id="B" width="2.031"><feGaussianBlur stdDeviation="5.15337" id="W"/></filter><mask id="mask3575" maskUnits="userSpaceOnUse"><rect y="-6.937154" x="-0.713865" ry="1.209" rx="1.209" height="42" id="rect3577" width="34.951" fill="#fff"/></mask></defs><rect y="3" x="6" opacity="0.1" ry="1.209" rx="1.209" height="42" id="rect16" width="34.951"/><rect y="2" x="5.986" ry="1.209" rx="1.209" height="42" id="rect18" width="34.951" fill="url(#0)"/><g transform="matrix(1 0 0 1 6.6998651 8.9371537)" id="1-4" mask="url(#mask3575)"><path opacity="0.1" id="C" d="m 3.9828,25 a 20,20 0 0 0 40,0 20,20 0 1 0 -40,0 z"/><path id="D" mask="url(#5)" filter="url(#B)" d="M 24,0 48,0 C 24,24 48,0 24,24 Z" fill="#ffd506"/><path id="E" mask="url(#4)" filter="url(#B)" d="M 24,0 0,0 c 24,24 0,0 24,24 z" fill="#66b03e"/><path id="F" mask="url(#8)" filter="url(#B)" d="m 24,48 24,0 C 24,24 48,48 24,24 Z" fill="#ee445f"/><path id="G" mask="url(#9)" filter="url(#B)" d="M 24,48 0,48 C 24,24 0,48 24,24 Z" fill="#c268d4"/><path id="H" mask="url(#A)" filter="url(#B)" d="M 0,24 0,48 C 24,24 0,48 24,24 Z" fill="#52a3d1"/><path id="I" mask="url(#3)" filter="url(#B)" d="M 0,24 0,0 c 24,24 0,0 24,24 z" fill="#3eb084"/><path id="J" mask="url(#7)" filter="url(#B)" d="m 48,24 0,24 C 24,24 48,48 24,24 Z" fill="#d02604"/><path id="K" mask="url(#6)" filter="url(#B)" d="M 48,24 48,0 C 24,24 48,0 24,24 Z" fill="#ff8b36"/><g id="L" fill="none"><path stroke="#000" opacity="0.4" id="X" d="m 23.9762,4.5222 c 10.7992,0 19.5482,8.7394 19.5482,19.4751 0,10.7357 -8.74902,19.4751 -19.5482,19.4751 -10.7992,0 -19.5112,-8.73812 -19.5112,-19.4751 0,-10.737 8.712,-19.4751 19.5112,-19.4751 z"/><path stroke="url(#2)" opacity="0.6" id="Y" d="m 23.9762,5.5199 c 10.3443,0 18.6226,8.31366 18.6226,18.4774 0,10.1637 -8.27831,18.4774 -18.6226,18.4774 -10.3443,0 -18.5856,-8.31002 -18.5856,-18.4774 0,-10.1674 8.24128,-18.4774 18.5856,-18.4774 z"/></g></g><g id="g20" fill="none"><path stroke="#000" opacity="0.4" id="path22" d="M 7.1875,2.5 C 6.783721,2.5 6.5,2.799839 6.5,3.21875 l 0,39.5625 C 6.5,43.20016 6.783721,43.5 7.1875,43.5 l 32.53125,0 c 0.40378,0 0.71875,-0.31497 0.71875,-0.71875 l 0,-39.5625 C 40.4375,2.814971 40.12253,2.5 39.71875,2.5 L 7.1875,2.5 Z"/><path stroke="url(#1)" opacity="0.78" id="path24" d="m 7.5312,3.5312 0,38.9375 31.875,0 0,-38.9375 -31.875,0 z"/></g><metadata id="metadata9999"><rdf:RDF><cc:Work><dc:format>image/svg+xml</dc:format><dc:type rdf:resource="http://purl.org/dc/dcmitype/StillImage"/><dc:title>Ivy icon theme</dc:title><cc:license rdf:resource="http://creativecommons.org/licenses/by-sa/4.0/"/><dc:creator><cc:Agent><dc:title>Sixsixfive (sixsixfive.deviantart.com)</dc:title></cc:Agent></dc:creator><dc:publisher><cc:Agent><dc:title>Sixsixfive (sixsixfive.deviantart.com)</dc:title></cc:Agent></dc:publisher><dc:source>https://github.com/sixsixfive</dc:source><dc:subject><rdf:Bag><rdf:li>ivy</rdf:li></rdf:Bag></dc:subject><dc:contributor><cc:Agent><dc:title>ssf</dc:title></cc:Agent></dc:contributor><dc:rights><cc:Agent><dc:title>Sixsixfive (sixisixfive.deviantart.com)</dc:title></cc:Agent></dc:rights><dc:description>A simple icon theme published under CC-BY-SA_V4(http://creativecommons.org/licenses/by-sa/4.0)</dc:description><dc:identifier>SSF</dc:identifier></cc:Work></rdf:RDF></metadata><!--Part of the Ivy icon them published under the CC-BY-SA_V4: http://creativecommons.org/licenses/by-sa/4.0 -->
</svg>