<?xml version="1.0" encoding="UTF-8" standalone="no"?>
<svg xmlns:dc="http://purl.org/dc/elements/1.1/" xmlns:cc="http://creativecommons.org/ns#" xmlns:rdf="http://www.w3.org/1999/02/22-rdf-syntax-ns#" xmlns:svg="http://www.w3.org/2000/svg" xmlns="http://www.w3.org/2000/svg" viewBox="0 0 16 16" id="svg2" version="1.1">
 <defs id="defs4">
  <linearGradient id="0" y1="44.01" y2="2" x2="0" gradientUnits="userSpaceOnUse" gradientTransform="matrix(0.37195 0 0 0.38089 -16.227 -16.762)">
   <stop stop-color="#dedede" id="stop7"/>
   <stop offset="1" stop-color="#f4f4f4" id="stop9"/>
  </linearGradient>
  <linearGradient id="1" y1="43.997" y2="1.99" x2="0" gradientUnits="userSpaceOnUse" gradientTransform="matrix(-0.37195 0 0 -0.38089 16.235 16.758)">
   <stop stop-color="#fff" id="stop12"/>
   <stop offset="1" stop-color="#fff" stop-opacity="0" id="stop14"/>
  </linearGradient>
 </defs>
 <g id="g16" opacity="0.5">
  <path transform="scale(-1,-1)" d="m -13.54,-16 12.08,0 c 0.25484,0 0.46,0.20516 0.46,0.46 l 0,15.07699973 c 0,0.25484001 -0.20516,0.46000001 -0.46,0.46000001 l -12.08,0 c -0.25484,0 -0.46,-0.20516 -0.46,-0.46000001 L -14,-15.54 c 0,-0.25484 0.20516,-0.46 0.46,-0.46 z" id="rect18" fill="url(#0)"/>
  <g id="g20" fill="none">
   <path d="m 13.4749,0.5322 -11.9375,0 0,14.9375 11.9375,0 0,-14.9375 z" id="path22" opacity="0.4" stroke="#000"/>
   <path d="m 12.5062,1.5322 -10,0 0,12.9375 10,0 0,-12.9375 z" id="path24" opacity="0.81" stroke="url(#1)"/>
  </g>
  <g id="g26" fill="#6a6a6a">
   <path d="M 7.107,6 7.893,6 C 7.952278,6 8,6.047722 8,6.107 L 8,6.893 C 8,6.952278 7.952278,7 7.893,7 L 7.107,7 C 7.047722,7 7,6.952278 7,6.893 L 7,6.107 C 7,6.047722 7.047722,6 7.107,6 Z" id="rect28"/>
   <path d="M 6.107,7 6.893,7 C 6.952278,7 7,7.047722 7,7.107 L 7,7.893 C 7,7.952278 6.952278,8 6.893,8 L 6.107,8 C 6.047722,8 6,7.952278 6,7.893 L 6,7.107 C 6,7.047722 6.047722,7 6.107,7 Z" id="rect30"/>
   <path d="M 8.107,7 8.893,7 C 8.952278,7 9,7.047722 9,7.107 L 9,7.893 C 9,7.952278 8.952278,8 8.893,8 L 8.107,8 C 8.047722,8 8,7.952278 8,7.893 L 8,7.107 C 8,7.047722 8.047722,7 8.107,7 Z" id="rect32"/>
   <path d="m 9.107,10 0.786,0 C 9.952278,10 10,10.047722 10,10.107 l 0,0.786 C 10,10.952278 9.952278,11 9.893,11 L 9.107,11 C 9.047722,11 9,10.952278 9,10.893 L 9,10.107 C 9,10.047722 9.047722,10 9.107,10 Z" id="rect34"/>
   <path d="M 9.107,9 9.893,9 C 9.952278,9 10,9.047722 10,9.107 l 0,0.786 C 10,9.952278 9.952278,10 9.893,10 L 9.107,10 C 9.047722,10 9,9.952278 9,9.893 L 9,9.107 C 9,9.047722 9.047722,9 9.107,9 Z" id="rect36"/>
   <path d="m 8.107,10 0.786,0 C 8.952278,10 9,10.047722 9,10.107 l 0,0.786 C 9,10.952278 8.952278,11 8.893,11 L 8.107,11 C 8.047722,11 8,10.952278 8,10.893 L 8,10.107 C 8,10.047722 8.047722,10 8.107,10 Z" id="rect38"/>
   <g transform="scale(-1,1)" id="g40">
    <path d="m -5.893,10 0.786,0 C -5.047722,10 -5,10.047722 -5,10.107 l 0,0.786 C -5,10.952278 -5.047722,11 -5.107,11 l -0.786,0 C -5.952278,11 -6,10.952278 -6,10.893 l 0,-0.786 C -6,10.047722 -5.952278,10 -5.893,10 Z" id="rect42"/>
    <path d="m -5.893,9 0.786,0 C -5.047722,9 -5,9.047722 -5,9.107 l 0,0.786 C -5,9.952278 -5.047722,10 -5.107,10 l -0.786,0 C -5.952278,10 -6,9.952278 -6,9.893 L -6,9.107 C -6,9.047722 -5.952278,9 -5.893,9 Z" id="rect44"/>
    <path d="m -6.893,10 0.786,0 C -6.047722,10 -6,10.047722 -6,10.107 l 0,0.786 C -6,10.952278 -6.047722,11 -6.107,11 l -0.786,0 C -6.952278,11 -7,10.952278 -7,10.893 l 0,-0.786 C -7,10.047722 -6.952278,10 -6.893,10 Z" id="rect46"/>
   </g>
  </g>
 </g>
 <metadata id="metadata9999">
  <rdf:RDF>
   <cc:Work>
    <dc:format>image/svg+xml</dc:format>
    <dc:type rdf:resource="http://purl.org/dc/dcmitype/StillImage"/>
    <dc:title>Ivy icon theme</dc:title>
    <cc:license rdf:resource="http://creativecommons.org/licenses/by-sa/4.0/"/>
    <dc:creator>
     <cc:Agent>
      <dc:title>Sixsixfive (sixsixfive.deviantart.com)</dc:title>
     </cc:Agent>
    </dc:creator>
    <dc:publisher>
     <cc:Agent>
      <dc:title>Sixsixfive (sixsixfive.deviantart.com)</dc:title>
     </cc:Agent>
    </dc:publisher>
    <dc:source>https://github.com/sixsixfive</dc:source>
    <dc:subject>
     <rdf:Bag>
      <rdf:li>ivy</rdf:li>
     </rdf:Bag>
    </dc:subject>
    <dc:contributor>
     <cc:Agent>
      <dc:title>ssf</dc:title>
     </cc:Agent>
    </dc:contributor>
    <dc:rights>
     <cc:Agent>
      <dc:title>Sixsixfive (sixisixfive.deviantart.com)</dc:title>
     </cc:Agent>
    </dc:rights>
    <dc:description>A simple icon theme published under CC-BY-SA_V4(http://creativecommons.org/licenses/by-sa/4.0)</dc:description>
    <dc:identifier>SSF</dc:identifier>
   </cc:Work>
  </rdf:RDF>
 </metadata>
 <!--Part of the Ivy icon them published under the CC-BY-SA_V4: http://creativecommons.org/licenses/by-sa/4.0 -->
</svg>
