<?xml version="1.0" encoding="UTF-8" standalone="no"?><svg xmlns:cc="http://creativecommons.org/ns#" viewBox="0 0 16 16" version="1.1" id="svg2" xmlns:svg="http://www.w3.org/2000/svg" xmlns="http://www.w3.org/2000/svg" xmlns:rdf="http://www.w3.org/1999/02/22-rdf-syntax-ns#" xmlns:dc="http://purl.org/dc/elements/1.1/"><defs id="defs4"><linearGradient x2="0" gradientUnits="userSpaceOnUse" y2="2" id="0" gradientTransform="matrix(0.37195 0 0 0.38089 -16.227 -16.762)" y1="44.01"><stop stop-color="#dedede" id="stop7"/><stop offset="1" stop-color="#f4f4f4" id="stop9"/></linearGradient><linearGradient x2="0" gradientUnits="userSpaceOnUse" y2="1.99" id="1" gradientTransform="matrix(-0.37195 0 0 -0.38089 16.235 16.758)" y1="43.997"><stop stop-color="#fff" id="stop12"/><stop offset="1" stop-opacity="0" stop-color="#fff" id="stop14"/></linearGradient></defs><rect height="15.997" width="13" rx="0.46" ry="0.46" fill="url(#0)" id="rect16" x="-14" transform="matrix(-1 0 0 -1 0 0)" y="-16"/><g fill="none" id="g18"><path opacity="0.4" stroke="#000" id="path20" d="m 13.4749,0.5322 -11.9375,0 0,14.9375 11.9375,0 0,-14.9375 z"/><path opacity="0.81" stroke="url(#1)" id="path22" d="m 12.5062,1.5322 -10,0 0,12.9375 10,0 0,-12.9375 z"/></g><rect height="1" width="1" stroke-linejoin="round" opacity="0.32" fill="#6a6a6a" id="rect3355" x="7" stroke-linecap="round" y="11"/><rect height="1" width="1" stroke-linejoin="round" opacity="0.64" fill="#6a6a6a" id="rect3357" x="8" stroke-linecap="round" y="10"/><rect height="1" width="1" stroke-linejoin="round" opacity="0.64" fill="#6a6a6a" id="rect3359" x="8" stroke-linecap="round" y="12"/><rect height="1" width="1" stroke-linejoin="round" opacity="0.32" fill="#6a6a6a" id="rect3349" x="8" stroke-linecap="round" y="9"/><rect height="1" width="1" stroke-linejoin="round" opacity="0.32" fill="#6a6a6a" id="rect3353" x="8" stroke-linecap="round" y="13"/><rect height="1" width="1" stroke-linejoin="round" opacity="0.32" fill="#6a6a6a" id="rect3356" x="-12" stroke-linecap="round" transform="matrix(-1 0 0 1 0 0)" y="11"/><rect height="1" width="1" stroke-linejoin="round" opacity="0.64" fill="#6a6a6a" id="rect3358" x="-11" stroke-linecap="round" transform="matrix(-1 0 0 1 0 0)" y="10"/><rect height="1" width="1" stroke-linejoin="round" opacity="0.64" fill="#6a6a6a" id="rect3360" x="-11" stroke-linecap="round" transform="matrix(-1 0 0 1 0 0)" y="12"/><rect height="1" width="1" stroke-linejoin="round" opacity="0.32" fill="#6a6a6a" id="rect3362" x="-11" stroke-linecap="round" transform="matrix(-1 0 0 1 0 0)" y="9"/><rect height="1" width="1" stroke-linejoin="round" opacity="0.32" fill="#6a6a6a" id="rect3364" x="-11" stroke-linecap="round" transform="matrix(-1 0 0 1 0 0)" y="13"/><metadata id="metadata9999"><rdf:RDF><cc:Work><dc:format>image/svg+xml</dc:format><dc:type rdf:resource="http://purl.org/dc/dcmitype/StillImage"/><dc:title>Ivy icon theme</dc:title><cc:license rdf:resource="http://creativecommons.org/licenses/by-sa/4.0/"/><dc:creator><cc:Agent><dc:title>Sixsixfive (sixsixfive.deviantart.com)</dc:title></cc:Agent></dc:creator><dc:publisher><cc:Agent><dc:title>Sixsixfive (sixsixfive.deviantart.com)</dc:title></cc:Agent></dc:publisher><dc:source>https://github.com/sixsixfive</dc:source><dc:subject><rdf:Bag><rdf:li>ivy</rdf:li></rdf:Bag></dc:subject><dc:contributor><cc:Agent><dc:title>ssf</dc:title></cc:Agent></dc:contributor><dc:rights><cc:Agent><dc:title>Sixsixfive (sixisixfive.deviantart.com)</dc:title></cc:Agent></dc:rights><dc:description>A simple icon theme published under CC-BY-SA_V4(http://creativecommons.org/licenses/by-sa/4.0)</dc:description><dc:identifier>SSF</dc:identifier></cc:Work></rdf:RDF></metadata><!--Part of the Ivy icon them published under the CC-BY-SA_V4: http://creativecommons.org/licenses/by-sa/4.0 -->
</svg>