<?xml version="1.0" encoding="UTF-8" standalone="no"?>
<svg xmlns:dc="http://purl.org/dc/elements/1.1/" xmlns:cc="http://creativecommons.org/ns#" xmlns:rdf="http://www.w3.org/1999/02/22-rdf-syntax-ns#" xmlns:svg="http://www.w3.org/2000/svg" xmlns="http://www.w3.org/2000/svg" viewBox="0 0 16 16" id="svg2" version="1.1">
 <defs id="defs4">
  <linearGradient id="0" y1="44.01" y2="2" gradientUnits="userSpaceOnUse" x2="0" gradientTransform="matrix(0.37195 0 0 0.38089 -16.227 -16.762)">
   <stop stop-color="#dedede" id="stop7"/>
   <stop offset="1" stop-color="#f4f4f4" id="stop9"/>
  </linearGradient>
  <linearGradient id="1" y1="43.997" y2="1.99" gradientUnits="userSpaceOnUse" x2="0" gradientTransform="matrix(-0.37195 0 0 -0.38089 16.235 16.758)">
   <stop stop-color="#fff" id="stop12"/>
   <stop offset="1" stop-color="#fff" id="stop14" stop-opacity="0"/>
  </linearGradient>
  <linearGradient id="2" y1="3" y2="45" gradientUnits="userSpaceOnUse" x2="0" gradientTransform="matrix(0.34694 0 0 0.34351 1.091 2.98)">
   <stop stop-color="#a868d4" id="stop17"/>
   <stop offset="1" stop-color="#c69de3" id="stop19"/>
  </linearGradient>
  <mask id="3">
   <rect width="13" x="-14" y="-16" fill="#fff" rx="0.46" height="15.997" id="rect22" transform="matrix(-1 0 0 -1 0 0)" ry="0.46"/>
  </mask>
 </defs>
 <rect width="13" x="-14" y="-16" fill="url(#0)" rx="0.46" height="15.997" id="rect24" transform="matrix(-1 0 0 -1 0 0)" ry="0.46"/>
 <g id="g26" mask="url(#3)">
  <g id="g28" fill-rule="evenodd">
   <path id="path30" d="M 9.00522,5 C 8.269657,5.00494 7.116061,5.06825 6.991976,5.991238 6.924756,6.676919 8.454484,7.414629 8,8 5.403778,8.04328 7.596223,7.956717 5,8 4.98501,9.236435 5,7.500358 5,11.500358 4.831127,12.474028 5.851504,11.09343 6.526486,11 7.130604,10.916379 7.948455,11.356483 8,13 8.0459,14.463404 7.142927,14.992475 6.6,15 5.315943,15.0178 5.645638,14.03035 5,14 c 0,3 0,3 0,5 9,0 11,0 11,0 0,-5 0,-2 0,-7 C 15.9966,10.72593 16.0035,9.274069 16,8 14.547007,8 11.452994,8 10,8 10.037,7.160039 11.32575,6.622097 10.975329,5.750645 10.665519,5.137887 9.600595,5.01582 9.00522,5 Z" opacity="0.1"/>
   <path id="path32" d="M 9.00522,4 C 8.269657,4.00494 7.116061,4.06825 6.991976,4.991238 6.924756,5.676919 8.454484,6.414629 8,7 5.403778,7.04328 7.596223,6.956717 5,7 4.98501,8.236435 5,6.500358 5,10.500358 4.831127,11.474028 5.851504,10.09343 6.526486,10 7.130604,9.916379 7.948455,10.356483 8,12 8.0459,13.463404 7.142927,13.992475 6.6,14 5.315943,14.0178 5.645638,13.03035 5,13 c 0,3 0,3 0,5 9,0 11,0 11,0 0,-5 0,-2 0,-7 C 15.9966,9.72593 16.0035,8.274069 16,7 14.547007,7 11.452994,7 10,7 10.037,6.160039 11.32575,5.622097 10.975329,4.750645 10.665519,4.137887 9.600595,4.01582 9.00522,4 Z" fill="url(#2)"/>
  </g>
  <path id="path34" d="m 9,4.46875 c -0.354162,0.00238 -0.795797,0.023283 -1.09375,0.125 -0.28511,0.097333 -0.394668,0.188579 -0.4375,0.4375 -0.00193,0.011213 0.0016,0.019352 0,0.03125 C 7.47202,5.073534 7.47809,5.133592 7.5625,5.25 7.658496,5.382386 7.836248,5.54154 8,5.71875 8.163752,5.89596 8.315755,6.090897 8.4375,6.34375 8.559245,6.596604 8.594726,6.998245 8.375,7.28125 A 0.466589,0.466589 0 0 1 8,7.46875 c -1.301106,0.021691 -1.461556,0.010821 -1.5625,0 -0.068028,-0.00729 -0.551374,-0.00341 -0.96875,0 -0.00576,0.441365 -0.00226,0.592068 0,2.59375 0.087617,-0.066231 0.150983,-0.120579 0.25,-0.1875 0.211914,-0.143223 0.442603,-0.301201 0.75,-0.34375 0.440331,-0.06095 0.957841,0.087324 1.34375,0.5 C 8.198409,10.443926 8.440609,11.10272 8.46875,12 8.520808,13.659884 7.432463,14.457125 6.59375,14.46875 6.213239,14.47405 5.90093,14.38919 5.65625,14.25 5.561634,14.19618 5.538764,14.12816 5.46875,14.0625 l 0,3.46875 10.0625,0 0,-6.53125 c -0.003,-1.127087 0.0012,-2.375809 0,-3.53125 l -5.53125,0 a 0.466589,0.466589 0 0 1 -0.46875,-0.5 c 0.028733,-0.652298 0.486147,-1.048121 0.75,-1.375 0.131927,-0.163439 0.210474,-0.30334 0.25,-0.40625 0.03953,-0.10291 0.04466,-0.138941 0,-0.25 C 10.454999,4.817714 10.266486,4.679313 9.96875,4.59375 9.651542,4.502591 9.27338,4.476014 9,4.46875 Z" opacity="0.63" fill="none" stroke="#000"/>
  <g id="g36" fill="#fff">
   <path id="path38" d="m 8.05,5 1.898,0 0,1 -1.898,0 z" opacity="0.3"/>
   <path id="path40" d="m 6,8 9,0 0,1 -9,0 z" opacity="0.3"/>
  </g>
 </g>
 <g id="g42" fill="none">
  <path id="path44" d="m 13.4749,0.5322 -11.9375,0 0,14.9375 11.9375,0 0,-14.9375 z" opacity="0.4" stroke="#000"/>
  <path id="path46" d="m 12.5062,1.5322 -10,0 0,12.9375 10,0 0,-12.9375 z" opacity="0.81" stroke="url(#1)"/>
 </g>
 <metadata id="metadata9999">
  <rdf:RDF>
   <cc:Work>
    <dc:format>image/svg+xml</dc:format>
    <dc:type rdf:resource="http://purl.org/dc/dcmitype/StillImage"/>
    <dc:title>Ivy icon theme</dc:title>
    <cc:license rdf:resource="http://creativecommons.org/licenses/by-sa/4.0/"/>
    <dc:creator>
     <cc:Agent>
      <dc:title>Sixsixfive (sixsixfive.deviantart.com)</dc:title>
     </cc:Agent>
    </dc:creator>
    <dc:publisher>
     <cc:Agent>
      <dc:title>Sixsixfive (sixsixfive.deviantart.com)</dc:title>
     </cc:Agent>
    </dc:publisher>
    <dc:source>https://github.com/sixsixfive</dc:source>
    <dc:subject>
     <rdf:Bag>
      <rdf:li>ivy</rdf:li>
     </rdf:Bag>
    </dc:subject>
    <dc:contributor>
     <cc:Agent>
      <dc:title>ssf</dc:title>
     </cc:Agent>
    </dc:contributor>
    <dc:rights>
     <cc:Agent>
      <dc:title>Sixsixfive (sixisixfive.deviantart.com)</dc:title>
     </cc:Agent>
    </dc:rights>
    <dc:description>A simple icon theme published under CC-BY-SA_V4(http://creativecommons.org/licenses/by-sa/4.0)</dc:description>
    <dc:identifier>SSF</dc:identifier>
   </cc:Work>
  </rdf:RDF>
 </metadata>
 <!--Part of the Ivy icon them published under the CC-BY-SA_V4: http://creativecommons.org/licenses/by-sa/4.0 -->
</svg>
