<?xml version="1.0" encoding="UTF-8" standalone="no"?><svg xmlns:cc="http://creativecommons.org/ns#" viewBox="0 0 16 16" version="1.1" id="svg2" xmlns:svg="http://www.w3.org/2000/svg" xmlns="http://www.w3.org/2000/svg" xmlns:rdf="http://www.w3.org/1999/02/22-rdf-syntax-ns#" xmlns:dc="http://purl.org/dc/elements/1.1/"><defs id="defs4"><linearGradient x2="0" gradientUnits="userSpaceOnUse" y2="2" id="0" gradientTransform="matrix(0.37195 0 0 0.38089 -16.227 -16.762)" y1="44.01"><stop stop-color="#dedede" id="stop7"/><stop offset="1" stop-color="#f4f4f4" id="stop9"/></linearGradient><linearGradient x2="0" gradientUnits="userSpaceOnUse" y2="1.99" id="1" gradientTransform="matrix(-0.37195 0 0 -0.38089 16.235 16.758)" y1="43.997"><stop stop-color="#fff" id="stop12"/><stop offset="1" stop-opacity="0" stop-color="#fff" id="stop14"/></linearGradient><linearGradient x2="0" gradientUnits="userSpaceOnUse" y2="45" id="2" gradientTransform="matrix(0.36946 0 0 0.35703 -0.238 -1.068)" y1="3"><stop stop-color="#5288d1" id="stop17"/><stop offset="1" stop-color="#90b2e1" id="stop19"/></linearGradient><mask id="3"><rect height="15.997" width="13" rx="0.46" ry="0.46" fill="#fff" id="rect22" x="-12" transform="matrix(-1 0 0 -1 0 0)" y="-13.03"/></mask></defs><rect height="15.997" width="13" rx="0.46" ry="0.46" fill="url(#0)" id="rect24" x="-14" transform="matrix(-1 0 0 -1 0 0)" y="-16"/><g mask="url(#3)" id="g26" transform="matrix(1 0 0 1 2 2.969)"><path fill-rule="evenodd" fill="url(#2)" id="path28" d="M 8.5016,0.0038 C 8.168512,0.023812 7.916559,0.07694 7.915411,0.25599 l 0.0339,8.8823 C 7.389205,8.940227 6.675591,9.03121 6,9.03121 c -3,0 -4.0063,1.69933 -4.0063,3.21524 0,1.51591 1.80554,2.75116 4.04351,2.75116 2.13746,0 3.89054,-1.12343 4.04351,-2.54482 l 0.01198,0 0,-6.6601 c 0.03399,-0.019362 0.06058,-0.035705 0.0957,-0.057316 1.61699,0.362066 3.17782,0.87884 3.32573,4.95209 3.85206,-3.38294 -0.963111,-7.04835 -5.01254,-10.6837 z"/><path stroke-miterlimit="0" opacity="0.54" fill="none" stroke="#132948" id="path30" d="M 8.4688,0.6875 C 8.46409,3.75226 8.444312,6.47923 8.427842,9.54325 8.385396,9.796325 8.271261,9.482996 8.154935,9.668038 7.725602,9.821649 8.295582,9.393457 7.00005,9.529613 5.63771,9.374333 3.44073,9.724469 2.79666,11.031243 c -0.554407,0.697038 -0.207579,2.06409 0.484299,2.55433 1.23904,0.954064 2.9694,1.04252 4.42451,0.595682 0.879275,-0.283066 1.89777,-0.998094 1.82583,-2.03194 l 0,-6.36807 c 0.294251,0.085686 -0.00927,-0.337897 0.25,-0.4375 0.108116,0.024015 0.206894,-0.111177 0.488289,-0.127438 1.19238,0.217927 2.46038,0.768403 2.99487,1.9328 0.33766,0.686172 0.496961,1.44326 0.610593,2.19463 0.447152,-0.591114 0.64607,-1.36746 0.394656,-2.08489 -0.498206,-1.62019 -1.78407,-2.82422 -2.94964,-3.9882 C 10.393476,2.383675 9.425692,1.541267 8.468812,0.687497 Z"/></g><g fill="none" id="g32"><path opacity="0.81" stroke="url(#1)" id="path34" d="m 12.5062,1.5322 -10,0 0,12.9375 10,0 0,-12.9375 z"/><path opacity="0.4" stroke="#000" id="path36" d="m 13.4749,0.5322 -11.9375,0 0,14.9375 11.9375,0 0,-14.9375 z"/><path opacity="0.402" stroke="#fff" id="path38" d="M 9.3898,11.661 C 6.33027,11.277329 4.30323,12.12471 3.59319,14.54236"/></g><path fill-rule="evenodd" opacity="0.448" fill="none" stroke="#fff" id="path4169" d="M 5.5769524,14.4656 C 7.0544836,13.048534 8.628631,13.606622 10.180151,13.521354"/><path fill-rule="evenodd" opacity="0.448" fill="none" stroke="#fff" id="path4171" d="M 11.124397,5.2001874 13.307966,7.295233"/><metadata id="metadata9999"><rdf:RDF><cc:Work><dc:format>image/svg+xml</dc:format><dc:type rdf:resource="http://purl.org/dc/dcmitype/StillImage"/><dc:title>Ivy icon theme</dc:title><cc:license rdf:resource="http://creativecommons.org/licenses/by-sa/4.0/"/><dc:creator><cc:Agent><dc:title>Sixsixfive (sixsixfive.deviantart.com)</dc:title></cc:Agent></dc:creator><dc:publisher><cc:Agent><dc:title>Sixsixfive (sixsixfive.deviantart.com)</dc:title></cc:Agent></dc:publisher><dc:source>https://github.com/sixsixfive</dc:source><dc:subject><rdf:Bag><rdf:li>ivy</rdf:li></rdf:Bag></dc:subject><dc:contributor><cc:Agent><dc:title>ssf</dc:title></cc:Agent></dc:contributor><dc:rights><cc:Agent><dc:title>Sixsixfive (sixisixfive.deviantart.com)</dc:title></cc:Agent></dc:rights><dc:description>A simple icon theme published under CC-BY-SA_V4(http://creativecommons.org/licenses/by-sa/4.0)</dc:description><dc:identifier>SSF</dc:identifier></cc:Work></rdf:RDF></metadata><!--Part of the Ivy icon them published under the CC-BY-SA_V4: http://creativecommons.org/licenses/by-sa/4.0 -->
</svg>