<?xml version="1.0" encoding="UTF-8" standalone="no"?><svg xmlns:xlink="http://www.w3.org/1999/xlink" xmlns:cc="http://creativecommons.org/ns#" viewBox="0 0 16 16" version="1.1" id="svg2" xmlns:svg="http://www.w3.org/2000/svg" xmlns:rdf="http://www.w3.org/1999/02/22-rdf-syntax-ns#" xmlns="http://www.w3.org/2000/svg" xmlns:dc="http://purl.org/dc/elements/1.1/"><defs id="defs4"><linearGradient x2="0" gradientUnits="userSpaceOnUse" id="0" y2="2" gradientTransform="matrix(0.37195 0 0 0.38089 -16.227 -16.762)" y1="44.01"><stop id="stop7" stop-color="#dedede"/><stop offset="1" id="stop9" stop-color="#f4f4f4"/></linearGradient><linearGradient x2="0" gradientUnits="userSpaceOnUse" id="1" y2="1.99" gradientTransform="matrix(-0.37195 0 0 -0.38089 16.235 16.758)" y1="43.997"><stop id="stop12" stop-color="#fff"/><stop offset="1" stop-opacity="0" id="stop14" stop-color="#fff"/></linearGradient><linearGradient x2="43.912" gradientUnits="userSpaceOnUse" x1="44" id="2" y2="-1.016" gradientTransform="matrix(0.4 0 0 0.39474 3.4 2.026)" y1="43"><stop id="stop7-5" stop-color="#ddd"/><stop offset="1" id="stop9-6" stop-color="#fff"/></linearGradient><clipPath clipPathUnits="userSpaceOnUse" id="clipPath4178"><rect height="15.997" width="13" rx="0.46000001" ry="0.46000001" fill="#fff" id="rect4180" x="-14" transform="matrix(-1 0 0 -1 0 0)" y="-16"/></clipPath></defs><rect height="15.997" width="13" rx="0.46" ry="0.46" fill="url(#0)" id="rect16" x="-14" transform="matrix(-1 0 0 -1 0 0)" y="-16"/><g clip-path="url(#clipPath4178)" mask="none" id="g3563"><path fill="url(#2)" id="path13" d="M 5,4 21,4 21,19 5,19 Z"/><path fill-rule="evenodd" opacity="0.3" id="rect4550" d="m 7.999999,11 3,0 0,3 -3,0 z"/><path fill="#5288d1" id="path15" d="M 5,4 21,4 21,9 5,9 Z"/><path fill-rule="evenodd" opacity="0.3" id="rect4552" d="m 7.999999,15 3,0 0,3 -3,0 z"/><g fill="none" id="g17" transform="matrix(1 0 0 1 5 4)"><g id="g19" stroke-width="0.999"><path opacity="0.4" id="path21" stroke="#000" d="M 0.9835,4.4995 15.0037,4.5006"/><path id="path23" stroke="#fff" d="M 0.9877,5.4995 15.0256,5.5006"/></g><path opacity="0.3" id="path25" stroke="#000" d="m 0.5,0.5 0,14 15,0 0,-14 -15,0 z"/></g><path fill-rule="evenodd" fill="#fff" id="rect4546" stroke-width="1" d="m 9,12 1,0 0,1 -1,0 z"/><g fill="#fff" id="g27" transform="matrix(1 0 0 1 5 4)"><path opacity="0.47" id="path29" d="M 1,1 15,1 15,2 1,2 Z"/><path id="path31" d="M 2,2 3,2 3,3 2,3 Z"/><path id="path33" d="M 4,2 5,2 5,3 4,3 Z"/><path id="path35" d="M 6,2 7,2 7,3 6,3 Z"/></g><path opacity="0.266" id="path37" d="M 7,7 8,7 8,8 7,8 Z"/><path opacity="0.266" id="path39" d="m 9,7 0.9999993,0 0,1 L 9,8 Z"/><path opacity="0.266" id="path41" d="m 11,7 1,0 0,1 -1,0 z"/><path opacity="0.266" id="path43" d="M 6,6 7,6 7,7 6,7 Z"/><path opacity="0.266" id="0-2" d="M 8,6 9,6 9,7 8,7 Z"/><path opacity="0.266" id="1-4" d="M 9.9999993,6 11,6 11,7 9.9999993,7 Z"/><path opacity="0.266" id="path47" d="M 7,5 8,5 8,6 7,6 Z"/><path opacity="0.266" id="path49" d="m 9,5 0.9999993,0 0,1 L 9,6 Z"/><path opacity="0.266" id="path51" d="m 11,5 1,0 0,1 -1,0 z"/><use height="16" width="16" xlink:href="#0-2" id="use53" x="0" y="0"/><use height="16" width="16" xlink:href="#1-4" id="use55" x="0" y="0"/><path opacity="0.266" id="path57" d="m 12,6 1,0 0,1 -1,0 z"/><path fill-rule="evenodd" fill="#e2e2e2" id="rect4554" d="m 9,16 1,0 0,1 -1,0 z"/></g><g fill="none" id="g18"><path opacity="0.4" id="path20" stroke="#000" d="m 13.4749,0.5322 -11.9375,0 0,14.9375 11.9375,0 0,-14.9375 z"/><path opacity="0.81" id="path22" stroke="url(#1)" d="m 12.5062,1.5322 -10,0 0,12.9375 10,0 0,-12.9375 z"/></g><metadata id="metadata9999"><rdf:RDF><cc:Work><dc:format>image/svg+xml</dc:format><dc:type rdf:resource="http://purl.org/dc/dcmitype/StillImage"/><dc:title/><cc:license rdf:resource="http://creativecommons.org/licenses/by-sa/4.0/"/><dc:creator><cc:Agent><dc:title>Sixsixfive (sixsixfive.deviantart.com)</dc:title></cc:Agent></dc:creator><dc:publisher><cc:Agent><dc:title>Sixsixfive (sixsixfive.deviantart.com)</dc:title></cc:Agent></dc:publisher><dc:source>https://github.com/sixsixfive</dc:source><dc:subject><rdf:Bag><rdf:li>ivy</rdf:li></rdf:Bag></dc:subject><dc:contributor><cc:Agent><dc:title>ssf</dc:title></cc:Agent></dc:contributor><dc:rights><cc:Agent><dc:title>Sixsixfive (sixisixfive.deviantart.com)</dc:title></cc:Agent></dc:rights><dc:description>A simple icon theme published under CC-BY-SA_V4(http://creativecommons.org/licenses/by-sa/4.0)</dc:description><dc:identifier>SSF</dc:identifier></cc:Work></rdf:RDF></metadata><!--Part of the Ivy icon them published under the CC-BY-SA_V4: http://creativecommons.org/licenses/by-sa/4.0 -->
</svg>