<?xml version="1.0" encoding="UTF-8" standalone="no"?><svg xmlns:rdf="http://www.w3.org/1999/02/22-rdf-syntax-ns#" xmlns:cc="http://creativecommons.org/ns#" xmlns:svg="http://www.w3.org/2000/svg" id="svg2" viewBox="0 0 16 16" version="1.1" xmlns:dc="http://purl.org/dc/elements/1.1/" xmlns="http://www.w3.org/2000/svg"><defs id="defs4"><linearGradient id="0" x2="41" y2="1.927" gradientTransform="matrix(0.37195 0 0 0.38089 -0.226 -16.754)" x1="6.04" y1="1.882" gradientUnits="userSpaceOnUse"><stop id="stop7" stop-color="#5288d1"/><stop offset="1" id="stop9" stop-color="#b0c9ea"/></linearGradient><linearGradient id="1" x2="40.11" y2="3.03" gradientTransform="matrix(0 0.37195 -0.38089 0 16.757 -0.229)" x1="6.972" y1="3.203" gradientUnits="userSpaceOnUse"><stop id="stop12" stop-color="#fff"/><stop offset="1" id="stop14" stop-color="#fff" stop-opacity="0"/></linearGradient></defs><rect rx="0.46" ry="0.46" height="15.997" id="rect16" width="13" transform="matrix(0 1 -1 0 0 0)" x="2" y="-15.992" fill="url(#0)"/><path id="path18" opacity="0.5" d="M 5.1875 8.9998 C 3.64418 9.03256 2.02995 8.897344 0 9.96855 v 0.9375 C 2.02995 9.83484 3.64418 9.970059 5.1875 9.9373 c 4.03819 -0.08572 6.86468 2.25166 10.7188 2.09375 l 0.0625 1.75 c 0.02324 -0.05417 0.03315 -0.12526 0.03125 -0.1875 l -0.0938 -2.5 C 12.05218 11.251462 9.22569 8.91408 5.18745 8.9998 z" fill="#6a6a6a"/><path id="path20" opacity="0.4" d="M 5.1764 9.9484 C 3.63308 9.981159 2.02508 9.849293 -0.00486 10.920499 v 3.6265 c 0 0.249076 0.209145 0.45331 0.464209 0.45331 h 15.069 c 0.255064 0 0.471814 -0.20435 0.46421 -0.45331 l -0.077 -2.5209 c -3.85407 0.157912 -6.70093 -2.16341 -10.7391 -2.0777 z" fill="#fff"/><g id="g22" fill="none"><path id="path24" opacity="0.4" d="m 0.5312,2.5312 0,11.9375 14.9375,0 0,-11.9375 -14.9375,0 z" stroke="#000"/><path id="path26" opacity="0.348" d="m 1.5312,3.5 0,10 12.9375,0 0,-10 -12.9375,0 z" stroke="url(#1)"/></g><path id="path28" opacity="0.5" d="m 12 6.5002 a 1.5 1.49981 0 0 1 -3 0 1.5 1.49981 0 1 1 3 0 z" fill="#fff"/><path id="path30" opacity="0.13" d="m 10.3438 4 a 2.49999 2.4974 0 0 0 -2.34375 2.5 2.5 2.49741 0 0 0 5 0 A 2.49999 2.4974 0 0 0 10.3438 4 z m 0.0625 1 a 1.5 1.49981 0 0 1 1.59375 1.5 1.5 1.49981 0 0 1 -3 0 A 1.5 1.49981 0 0 1 10.4063 5 z"/><path id="path3362" opacity="0.5" d="m 1.4237288,10.711864 c 5.330905,-1.450306 8.1980293,1.327868 13.4237282,1.762713" stroke="#fff" fill-rule="evenodd" fill="none"/><metadata id="metadata9999"><rdf:RDF><cc:Work><dc:format>image/svg+xml</dc:format><dc:type rdf:resource="http://purl.org/dc/dcmitype/StillImage"/><dc:title>Ivy icon theme</dc:title><cc:license rdf:resource="http://creativecommons.org/licenses/by-sa/4.0/"/><dc:creator><cc:Agent><dc:title>Sixsixfive (sixsixfive.deviantart.com)</dc:title></cc:Agent></dc:creator><dc:publisher><cc:Agent><dc:title>Sixsixfive (sixsixfive.deviantart.com)</dc:title></cc:Agent></dc:publisher><dc:source>https://github.com/sixsixfive</dc:source><dc:subject><rdf:Bag><rdf:li>ivy</rdf:li></rdf:Bag></dc:subject><dc:contributor><cc:Agent><dc:title>ssf</dc:title></cc:Agent></dc:contributor><dc:rights><cc:Agent><dc:title>Sixsixfive (sixisixfive.deviantart.com)</dc:title></cc:Agent></dc:rights><dc:description>A simple icon theme published under CC-BY-SA_V4(http://creativecommons.org/licenses/by-sa/4.0)</dc:description><dc:identifier>SSF</dc:identifier></cc:Work></rdf:RDF></metadata><!--Part of the Ivy icon them published under the CC-BY-SA_V4: http://creativecommons.org/licenses/by-sa/4.0 -->
</svg>