<?xml version="1.0" encoding="UTF-8" standalone="no"?><svg xmlns:xlink="http://www.w3.org/1999/xlink" xmlns:cc="http://creativecommons.org/ns#" viewBox="0 0 16 16" version="1.1" id="svg2" xmlns:svg="http://www.w3.org/2000/svg" xmlns:rdf="http://www.w3.org/1999/02/22-rdf-syntax-ns#" xmlns="http://www.w3.org/2000/svg" xmlns:dc="http://purl.org/dc/elements/1.1/"><defs id="defs4"><linearGradient x2="0" gradientUnits="userSpaceOnUse" id="0" y2="78.13" gradientTransform="matrix(0.14591 0 0 0.15221 -0.773 -0.892)" y1="5.862"><stop stop-color="#d02604" id="stop7"/><stop offset="1" stop-color="#fc7357" id="stop9"/></linearGradient><linearGradient x2="0" gradientUnits="userSpaceOnUse" id="1" y2="78.13" gradientTransform="matrix(0.14591 0 0 0.15221 4.227 3.108)" y1="5.862"><stop stop-color="#171717" id="stop12"/><stop offset="1" stop-color="#686868" id="stop14"/></linearGradient><linearGradient x2="0" gradientUnits="userSpaceOnUse" id="2" y2="1.99" gradientTransform="matrix(-0.37195 0 0 -0.38089 16.235 16.758)" y1="43.997"><stop stop-color="#fff" id="stop17"/><stop offset="1" stop-opacity="0" stop-color="#fff" id="stop19"/></linearGradient><linearGradient x2="0" gradientUnits="userSpaceOnUse" id="3" y2="2" gradientTransform="matrix(0.37195 0 0 0.38089 -16.227 -16.762)" y1="44.01"><stop stop-color="#dedede" id="stop22"/><stop offset="1" stop-color="#f4f4f4" id="stop24"/></linearGradient><mask id="4"><rect height="15.997" width="13" rx="0.46" ry="0.46" fill="#fff" id="rect27" x="-10" transform="matrix(-1 0 0 -1 0 0)" y="-13"/></mask></defs><rect height="15.997" width="13" rx="0.46" ry="0.46" fill="url(#3)" id="rect29" x="-14" transform="matrix(-1 0 0 -1 0 0)" y="-16"/><g mask="url(#4)" id="g31" transform="matrix(1 0 0 1 4 3)"><path fill-rule="evenodd" fill="url(#0)" id="path33" d="M -0.026061,0 0,4 1,4 C 1,3 1,3.00017 2.811529,3.00017 L 4,3.00017 4,8.666667 C 4,9 3.791522,8.742697 3.541195,9 L 2,9 2,11 5.48697,11 9,11 9,9 7.432745,9 C 7.07376,9 7,9 7,8.666334 L 7,2.999833 8.162411,3.00017 C 10,3.00069 10,3 10,4 L 10.999591,4 11,0 5.48697,0 Z"/><path opacity="0.4" fill="none" id="5" stroke="#000" d="m 0.4375,0.4688 0.0312,3.0625 0.0938,0 C 0.568165,3.462963 0.548351,3.382617 0.5625,3.31255 0.607059,3.091883 0.76965,2.845822 1,2.7188 1.4607,2.464757 1.906736,2.5313 2.8125,2.5313 l 1.1875,0 a 0.474294,0.474294 0 0 1 0.46875,0.46875 l 0,5.65625 c 0,0.135127 -0.014244,0.307172 -0.15625,0.46875 C 4.170494,9.286628 4.00531,9.302991 3.9375,9.31255 3.801877,9.331668 3.899223,9.3189 3.875,9.3438 a 0.474294,0.474294 0 0 1 -0.34375,0.125 l -1.0625,0 0,1.0625 3.03125,0 3.03125,0 0,-1.0625 -1.09375,0 c -0.183932,0 -0.361208,0.055882 -0.625,-0.125 C 6.680604,9.253359 6.595128,9.08922 6.5625,8.9688 6.529872,8.848384 6.53125,8.758316 6.53125,8.6563 l 0,-5.65625 A 0.474294,0.474294 0 0 1 7,2.5313 l 1.15625,0 C 9.075,2.531564 9.53688,2.468584 10,2.7188 c 0.231561,0.125108 0.391209,0.371564 0.4375,0.59375 0.0147,0.07055 -0.0059,0.150057 0,0.21875 l 0.09375,0 0,-3.0625 -5.03125,0 -5.0625,0 z"/><path opacity="0.5" fill="#fff" id="path36" d="m 1,1 9,0 0,1 -9,0 z"/><path fill-rule="evenodd" fill="url(#1)" id="path38" d="M 4.973939,4 5,8 6,8 C 6,7 6,7.000167 7.811529,7.000167 l 1.188471,0 0,5.6665 C 9,13 8.791522,12.742697 8.541195,13 L 7,13 7,15 10.48697,15 14,15 14,13 12.432745,13 C 12.07376,13 12,13 12,12.666334 l 0,-5.666501 1.162411,3.34e-4 C 15,7.00069 15,7 15,8 L 15.999591,8 16,4 10.48697,4 Z"/><use height="16" width="16" xlink:href="#5" id="use40" x="0" transform="matrix(1 0 0 1 5 4)" y="0"/><path opacity="0.46" fill="#fff" id="path42" d="m 6,5 9,0 0,1 -9,0 z"/></g><g fill="none" id="g44"><path opacity="0.4" id="path46" stroke="#000" d="m 13.4749,0.5322 -11.9375,0 0,14.9375 11.9375,0 0,-14.9375 z"/><path opacity="0.81" id="path48" stroke="url(#2)" d="m 12.5062,1.5322 -10,0 0,12.9375 10,0 0,-12.9375 z"/></g><metadata id="metadata9999"><rdf:RDF><cc:Work><dc:format>image/svg+xml</dc:format><dc:type rdf:resource="http://purl.org/dc/dcmitype/StillImage"/><dc:title>Ivy icon theme</dc:title><cc:license rdf:resource="http://creativecommons.org/licenses/by-sa/4.0/"/><dc:creator><cc:Agent><dc:title>Sixsixfive (sixsixfive.deviantart.com)</dc:title></cc:Agent></dc:creator><dc:publisher><cc:Agent><dc:title>Sixsixfive (sixsixfive.deviantart.com)</dc:title></cc:Agent></dc:publisher><dc:source>https://github.com/sixsixfive</dc:source><dc:subject><rdf:Bag><rdf:li>ivy</rdf:li></rdf:Bag></dc:subject><dc:contributor><cc:Agent><dc:title>ssf</dc:title></cc:Agent></dc:contributor><dc:rights><cc:Agent><dc:title>Sixsixfive (sixisixfive.deviantart.com)</dc:title></cc:Agent></dc:rights><dc:description>A simple icon theme published under CC-BY-SA_V4(http://creativecommons.org/licenses/by-sa/4.0)</dc:description><dc:identifier>SSF</dc:identifier></cc:Work></rdf:RDF></metadata><!--Part of the Ivy icon them published under the CC-BY-SA_V4: http://creativecommons.org/licenses/by-sa/4.0 -->
</svg>