<?xml version="1.0" encoding="UTF-8" standalone="no"?>
<svg
   xmlns:dc="http://purl.org/dc/elements/1.1/"
   xmlns:cc="http://creativecommons.org/ns#"
   xmlns:rdf="http://www.w3.org/1999/02/22-rdf-syntax-ns#"
   xmlns:svg="http://www.w3.org/2000/svg"
   xmlns="http://www.w3.org/2000/svg"
   xmlns:xlink="http://www.w3.org/1999/xlink"
   version="1.1"
   id="svg2"
   viewBox="0 0 16 16">
  <defs
     id="1">
    <linearGradient
       gradientTransform="matrix(1.0000046 0 0 1.0000046 0.708927 -0.708927)"
       x2="5.303"
       gradientUnits="userSpaceOnUse"
       x1="-5.083"
       y2="6.718"
       y1="17.09"
       id="7">
      <stop
         style="stop-color:#78a2db;stop-opacity:1"
         id="D"
         stop-color="#fb5938" />
      <stop
         style="stop-color:#5288d1;stop-opacity:1"
         id="E"
         stop-color="#d02604"
         offset="1" />
    </linearGradient>
    <linearGradient
       x2="-0.635"
       gradientUnits="userSpaceOnUse"
       x1="7.07"
       y2="17.796"
       y1="9.899"
       id="8">
      <stop
         id="F"
         stop-color="#fff" />
      <stop
         stop-opacity="0"
         id="G"
         stop-color="#fff"
         offset="1" />
    </linearGradient>
    <linearGradient
       xlink:href="#linearGradient4195"
       id="linearGradient4173"
       x1="27.28688"
       y1="5.2729168"
       x2="27.262621"
       y2="44.740971"
       gradientUnits="userSpaceOnUse" />
    <linearGradient
       id="linearGradient4195">
      <stop
         id="stop4197"
         stop-color="#e0e0e0" />
      <stop
         id="stop4199"
         offset="1"
         stop-color="#fff" />
    </linearGradient>
    <mask
       id="mask4173"
       maskUnits="userSpaceOnUse">
      <rect
         style="fill:#ffffff"
         width="30.666977"
         x="-15.152744"
         y="16.838861"
         rx="2.5551231"
         height="30.666977"
         id="rect4175"
         transform="matrix(0.70710678,-0.70710678,0.70710678,0.70710678,0,0)"
         ry="2.5551231" />
    </mask>
  </defs>
  <rect
     ry="0.929"
     transform="matrix(0.70710678 -0.70710678 0.70710678 0.70710678 0 0)"
     id="0"
     height="11.15"
     rx="0.929"
     y="6.444"
     x="-5.573"
     opacity="0.05"
     width="11.15" />
  <rect
     ry="0.929"
     transform="matrix(0.70710678 -0.70710678 0.70710678 0.70710678 0 0)"
     id="2"
     height="11.15"
     rx="0.929"
     fill="url(#7)"
     y="5.737"
     x="-4.866"
     width="11.15" />
  <path
     id="path4185"
     d="M 4,10 4,5"
     style="fill:none;fill-rule:evenodd;stroke:#000000;stroke-width:1px;stroke-linecap:butt;stroke-linejoin:miter;stroke-opacity:1" />
  <path
     id="path4183"
     d="M 6,9 6,3"
     style="fill:none;fill-rule:evenodd;stroke:#000000;stroke-width:1px;stroke-linecap:butt;stroke-linejoin:miter;stroke-opacity:1;opacity:0.4" />
  <path
     id="path4179"
     d="m 6,12 3,-3 2.940912,2.940912"
     style="fill:none;fill-rule:evenodd;stroke:#000000;stroke-width:1px;stroke-linecap:butt;stroke-linejoin:miter;stroke-opacity:1;opacity:0.5" />
  <path
     id="path4177"
     d="M 6,9 11.243951,3.7560492"
     style="fill:none;fill-rule:evenodd;stroke:#000000;stroke-width:1px;stroke-linecap:butt;stroke-linejoin:miter;stroke-opacity:1;opacity:0.6" />
  <path
     id="path4181"
     d="M 13.940912,9.9409119 11,7 13.342851,4.657149"
     style="fill:none;fill-rule:evenodd;stroke:#000000;stroke-width:1px;stroke-linecap:butt;stroke-linejoin:miter;stroke-opacity:1;opacity:0.4" />
  <path
     transform="matrix(0.36358327,0,0,0.36358327,0.18240234,-0.72733907)"
     style="fill:url(#linearGradient4173);fill-rule:evenodd"
     d="M 10.499927,40.506097 24.251935,26.754089 c 11.001606,11.001606 0,0 11.001606,11.001606 0.319035,0.319035 5.500803,-5.500803 5.500803,-5.500803 L 29.752738,21.253286 38.003942,13.002081 35.253541,7.5012777 16.00073,26.754089 l 0,-22.0032129 -5.500803,0 c 0,18.9999999 -0.002,0.5056658 0,27.5040159 l 0,0 -5.5008035,5.500803 z"
     id="path3355"
     mask="url(#mask4173)" />
  <g
     fill="none"
     transform="matrix(0.70711,-0.70711,0.70711,0.70711,0,-1.00257)"
     id="6">
    <path
       style="opacity:0.5"
       stroke="#000"
       opacity="0.65"
       d="m -4.6562,6.9375 c -0.242177,0 -0.40625,0.175174 -0.40625,0.4375 l 0,9.28125 c 0,0.262326 0.164072,0.4375 0.40625,0.4375 l 9.3125,0 c 0.242178,0 0.40625,-0.175174 0.40625,-0.4375 l 0,-9.28125 c 0,-0.262326 -0.164073,-0.4375 -0.40625,-0.4375 l -9.3125,0 z"
       id="B" />
    <path
       style="opacity:0.5"
       stroke="url(#8)"
       opacity="0.848"
       d="m -4.0625,7.9375 0,8.1562 8.125,0 0,-8.1562 -8.125,0 z"
       id="C" />
  </g>
  <metadata
     id="metadata9999">
    <rdf:RDF>
      <cc:Work>
        <dc:format>image/svg+xml</dc:format>
        <dc:type
           rdf:resource="http://purl.org/dc/dcmitype/StillImage" />
        <dc:title></dc:title>
        <cc:license
           rdf:resource="http://creativecommons.org/licenses/by-sa/4.0/" />
        <dc:creator>
          <cc:Agent>
            <dc:title>Sixsixfive (sixsixfive.deviantart.com)</dc:title>
          </cc:Agent>
        </dc:creator>
        <dc:publisher>
          <cc:Agent>
            <dc:title>Sixsixfive (sixsixfive.deviantart.com)</dc:title>
          </cc:Agent>
        </dc:publisher>
        <dc:source>https://github.com/sixsixfive</dc:source>
        <dc:subject>
          <rdf:Bag>
            <rdf:li>ivy</rdf:li>
          </rdf:Bag>
        </dc:subject>
        <dc:contributor>
          <cc:Agent>
            <dc:title>ssf</dc:title>
          </cc:Agent>
        </dc:contributor>
        <dc:rights>
          <cc:Agent>
            <dc:title>Sixsixfive (sixisixfive.deviantart.com)</dc:title>
          </cc:Agent>
        </dc:rights>
        <dc:description>A simple icon theme published under CC-BY-SA_V4(http://creativecommons.org/licenses/by-sa/4.0)</dc:description>
        <dc:identifier>SSF</dc:identifier>
      </cc:Work>
    </rdf:RDF>
  </metadata>
  <!--Part of the Ivy icon them published under the CC-BY-SA_V4: http://creativecommons.org/licenses/by-sa/4.0 -->
</svg>
