<?xml version="1.0" encoding="UTF-8" standalone="no"?><svg xmlns:cc="http://creativecommons.org/ns#" viewBox="0 0 16 16" version="1.1" id="svg2" xmlns:svg="http://www.w3.org/2000/svg" xmlns:rdf="http://www.w3.org/1999/02/22-rdf-syntax-ns#" xmlns="http://www.w3.org/2000/svg" xmlns:dc="http://purl.org/dc/elements/1.1/"><defs id="defs4"><linearGradient x2="0" gradientUnits="userSpaceOnUse" id="1" y2="14" y1="2"><stop id="stop12" stop-color="#fff"/><stop offset="1" stop-opacity="0" id="stop14" stop-color="#fff"/></linearGradient></defs><path fill="#a868d4" id="path16" d="M 15 8 A 7 7 0 1 1 1 8 7 7 0 1 1 15 8 z"/><path opacity="0.4" fill="#171717" id="path18" d="M 12,9 12,8 6,6 6,12 c 6,-3 0,0 6,-3 z"/><path fill="#fff" id="path20" d="M 12,8 6,5 6,11 c 6,-3 0,0 6,-3 z"/><g fill="none" id="g22"><path opacity="0.3" id="path24" stroke="#000" stroke-width="1.01" d="m 8.0282,1.5649 c -3.58054,0 -6.48134,2.90169 -6.48134,6.46619 0,3.56451 2.9008,6.4662 6.48134,6.4662 3.58054,0 6.46906,-2.90126 6.46906,-6.4662 0,-3.56493 -2.88852,-6.46619 -6.46906,-6.46619 z"/><path opacity="0.4" id="path26" stroke="url(#1)" d="M 8,2.5625 C 4.97422,2.5625 2.5625,4.99443 2.5625,8 c 0,3.00558 2.41172,5.4375 5.4375,5.4375 3.02586,0 5.4375,-2.43144 5.4375,-5.4375 C 13.4375,4.99394 11.02586,2.5625 8,2.5625 Z"/></g><metadata id="metadata9999"><rdf:RDF><cc:Work><dc:format>image/svg+xml</dc:format><dc:type rdf:resource="http://purl.org/dc/dcmitype/StillImage"/><dc:title>Ivy icon theme</dc:title><cc:license rdf:resource="http://creativecommons.org/licenses/by-sa/4.0/"/><dc:creator><cc:Agent><dc:title>Sixsixfive (sixsixfive.deviantart.com)</dc:title></cc:Agent></dc:creator><dc:publisher><cc:Agent><dc:title>Sixsixfive (sixsixfive.deviantart.com)</dc:title></cc:Agent></dc:publisher><dc:source>https://github.com/sixsixfive</dc:source><dc:subject><rdf:Bag><rdf:li>ivy</rdf:li></rdf:Bag></dc:subject><dc:contributor><cc:Agent><dc:title>ssf</dc:title></cc:Agent></dc:contributor><dc:rights><cc:Agent><dc:title>Sixsixfive (sixisixfive.deviantart.com)</dc:title></cc:Agent></dc:rights><dc:description>A simple icon theme published under CC-BY-SA_V4(http://creativecommons.org/licenses/by-sa/4.0)</dc:description><dc:identifier>SSF</dc:identifier></cc:Work></rdf:RDF></metadata><!--Part of the Ivy icon them published under the CC-BY-SA_V4: http://creativecommons.org/licenses/by-sa/4.0 -->
</svg>