<?xml version="1.0" encoding="UTF-8" standalone="no"?><svg xmlns:cc="http://creativecommons.org/ns#" xmlns:rdf="http://www.w3.org/1999/02/22-rdf-syntax-ns#" xmlns:svg="http://www.w3.org/2000/svg" id="svg2" viewBox="0 0 16 16" version="1.1" xmlns:dc="http://purl.org/dc/elements/1.1/" xmlns="http://www.w3.org/2000/svg"><defs id="defs4"><linearGradient id="0" x2="0" y2="45.12" gradientTransform="matrix(0.36461 0 0 0.35679 -1.278 -1.039)" y1="3" gradientUnits="userSpaceOnUse"><stop id="stop7" stop-color="#66b03e"/><stop offset="1" id="stop9" stop-color="#a3d588"/></linearGradient></defs><path id="path13" d="m 0.97232993,9.8819447 0,5.1416853 L 14,7 0.97232993,0.02362966 l 0,7.44308804 L 5,5 9,7 5,10 5,7 z" fill="url(#0)"/><path id="path3355" d="M 1.6271502,1.3898823 11.542327,6.8644182" stroke="#fff" fill-rule="evenodd" fill="none"/><path id="path19" opacity="0.4" d="M 1.5,0.9062 1.5,6.5 4.7188,4.5312 a 0.533369,0.533369 0 0 1 0.53125,0 l 4,2 a 0.533369,0.533369 0 0 1 0.0625,0.90625 l -4,3 A 0.533369,0.533369 0 0 1 4.4688,9.99995 V 8.0312 L 1.5,10.1562 v 3.90625 L 12.9062,7.03125 1.5,0.90625 z" stroke="#000" fill="none"/><path id="path3353" opacity="0.461" d="M 2.2033726,10.949581 4,9.593764" stroke="#fff" fill-rule="evenodd" fill="none"/><metadata id="metadata9999"><rdf:RDF><cc:Work><dc:format>image/svg+xml</dc:format><dc:type rdf:resource="http://purl.org/dc/dcmitype/StillImage"/><dc:title>Ivy icon theme</dc:title><cc:license rdf:resource="http://creativecommons.org/licenses/by-sa/4.0/"/><dc:creator><cc:Agent><dc:title>Sixsixfive (sixsixfive.deviantart.com)</dc:title></cc:Agent></dc:creator><dc:publisher><cc:Agent><dc:title>Sixsixfive (sixsixfive.deviantart.com)</dc:title></cc:Agent></dc:publisher><dc:source>https://github.com/sixsixfive</dc:source><dc:subject><rdf:Bag><rdf:li>ivy</rdf:li></rdf:Bag></dc:subject><dc:contributor><cc:Agent><dc:title>ssf</dc:title></cc:Agent></dc:contributor><dc:rights><cc:Agent><dc:title>Sixsixfive (sixisixfive.deviantart.com)</dc:title></cc:Agent></dc:rights><dc:description>A simple icon theme published under CC-BY-SA_V4(http://creativecommons.org/licenses/by-sa/4.0)</dc:description><dc:identifier>SSF</dc:identifier></cc:Work></rdf:RDF></metadata><!--Part of the Ivy icon them published under the CC-BY-SA_V4: http://creativecommons.org/licenses/by-sa/4.0 -->
</svg>