<?xml version="1.0" encoding="UTF-8" standalone="no"?><svg xmlns:svg="http://www.w3.org/2000/svg" xmlns="http://www.w3.org/2000/svg" viewBox="0 0 16 16" xmlns:rdf="http://www.w3.org/1999/02/22-rdf-syntax-ns#" version="1.1" id="svg2" xmlns:dc="http://purl.org/dc/elements/1.1/" xmlns:cc="http://creativecommons.org/ns#"><defs id="defs4"><linearGradient y1="42" x2="0" y2="30" id="0" gradientTransform="matrix(0.35 0 0 0.40917 -0.4 -2.275)" gradientUnits="userSpaceOnUse"><stop id="stop7" stop-color="#ebebeb"/><stop offset="1" id="stop9" stop-color="#bfbfbf"/></linearGradient><linearGradient y1="2" x2="0" y2="14" id="1" gradientUnits="userSpaceOnUse"><stop id="stop12" stop-color="#fff"/><stop stop-opacity="0" offset="1" id="stop14" stop-color="#fff"/></linearGradient></defs><path id="path16" d="M 1,1 H15 V15 H1 z" fill="#171717"/><path id="path18" d="M 1,10 H15 V15 H1 z" fill="url(#0)"/><path stroke="#000" opacity="0.4" id="path20" d="m 1.5625 1.5625 v 12.875 h 12.875 v -12.875 h -12.875 z" fill="none"/><g id="g22" fill="#fff"><path id="path24" transform="matrix(0.24261 -0.00373 0.0043 0.2102 2.942 1.193)" d="M 28.678,23.3898 12.0273,32.5963 12.3796,13.5731 28.678,23.3898 Z"/></g><path id="path26" d="M 3.02,11 H12.999 V12.979 H3.02 z" fill="#6a6a6a"/><path id="path28" d="M 3.02,11 H7.687 V12.979 H3.02 z" fill="#d02604"/><path opacity="0.6" id="path30" d="M 2,10 H14 V11 H2 z" fill="#fff"/><path opacity="0.5" id="path32" d="M 3.02,11 H12.999 V11.979 H3.02 z"/><path stroke="url(#1)" opacity="0.2" id="path34" transform="matrix(1.0055 0 0 0.99976 -0.013 0.002)" d="m 2.5625 2.5625 v 10.875 h 10.875 v -10.875 h -10.875 z" fill="none"/><path opacity="0.8" id="path36" d="M 2,9 H14 V10 H2 z"/><metadata id="metadata9999"><rdf:RDF><cc:Work><dc:format>image/svg+xml</dc:format><dc:type rdf:resource="http://purl.org/dc/dcmitype/StillImage"/><dc:title>Ivy icon theme</dc:title><cc:license rdf:resource="http://creativecommons.org/licenses/by-sa/4.0/"/><dc:creator><cc:Agent><dc:title>Sixsixfive (sixsixfive.deviantart.com)</dc:title></cc:Agent></dc:creator><dc:publisher><cc:Agent><dc:title>Sixsixfive (sixsixfive.deviantart.com)</dc:title></cc:Agent></dc:publisher><dc:source>https://github.com/sixsixfive</dc:source><dc:subject><rdf:Bag><rdf:li>ivy</rdf:li></rdf:Bag></dc:subject><dc:contributor><cc:Agent><dc:title>ssf</dc:title></cc:Agent></dc:contributor><dc:rights><cc:Agent><dc:title>Sixsixfive (sixisixfive.deviantart.com)</dc:title></cc:Agent></dc:rights><dc:description>A simple icon theme published under CC-BY-SA_V4(http://creativecommons.org/licenses/by-sa/4.0)</dc:description><dc:identifier>SSF</dc:identifier></cc:Work></rdf:RDF></metadata><!--Part of the Ivy icon them published under the CC-BY-SA_V4: http://creativecommons.org/licenses/by-sa/4.0 -->
</svg>