<?xml version="1.0" encoding="UTF-8" standalone="no"?>
<svg xmlns:dc="http://purl.org/dc/elements/1.1/" xmlns:cc="http://creativecommons.org/ns#" xmlns:rdf="http://www.w3.org/1999/02/22-rdf-syntax-ns#" xmlns:svg="http://www.w3.org/2000/svg" xmlns="http://www.w3.org/2000/svg" xmlns:xlink="http://www.w3.org/1999/xlink" viewBox="0 0 16 16" id="svg2" version="1.1">
 <defs id="defs4">
  <linearGradient id="linearGradient4175">
   <stop stop-color="#6a6a6a" id="stop4177"/>
   <stop offset="1" stop-color="#3e3e3e" id="stop4179"/>
  </linearGradient>
  <linearGradient id="linearGradient4169">
   <stop stop-color="#6a6a6a" id="stop4171"/>
   <stop offset="1" stop-color="#2d2d2d" id="stop4173"/>
  </linearGradient>
  <linearGradient id="4" y1="43" y2="5" x2="0" gradientUnits="userSpaceOnUse" gradientTransform="matrix(0.375 0 0 0.36841514 -1.5 -0.841893)">
   <stop stop-color="#f0f0f0" id="stop15"/>
   <stop offset="1" stop-color="#ebebeb" id="stop17"/>
  </linearGradient>
  <linearGradient id="6" xlink:href="#linearGradient4169" y1="11" y2="17" x2="0" gradientUnits="userSpaceOnUse" gradientTransform="matrix(0.42856993 0 0 0.38095245 -1.429001 3.523806)"/>
  <linearGradient xlink:href="#linearGradient4175" id="linearGradient3424" y1="11" y2="17" gradientUnits="userSpaceOnUse" x2="0" gradientTransform="matrix(0.42856993 0 0 0.38095245 2.570999 0.523806)"/>
  <linearGradient xlink:href="#linearGradient4169" id="linearGradient3432" y1="11" y2="17" gradientUnits="userSpaceOnUse" x2="0" gradientTransform="matrix(0.42856993 0 0 0.38095245 6.570999 5.523806)"/>
 </defs>
 <path fill="url(#4)" id="path27" d="M -2.3e-7,1 15,1 15,15 -2.3e-7,15 Z"/>
 <path opacity="0.5" fill="#6a6a6a" id="path39" d="M 3,3 4,3 4,13 3,13 Z"/>
 <path opacity="0.5" fill="#fff" id="path3416" d="M 4,3 5,3 5,13 4,13 Z"/>
 <path opacity="0.5" fill="#6a6a6a" id="path3418" d="M 7,3 8,3 8,13 7,13 Z"/>
 <path opacity="0.5" fill="#fff" id="path3420" d="M 8,3 9,3 9,13 8,13 Z"/>
 <path opacity="0.5" fill="#6a6a6a" id="path3426" d="m 11,3 1,0 0,10 -1,0 z"/>
 <path opacity="0.5" fill="#fff" id="path3428" d="m 12,3 1,0 0,10 -1,0 z"/>
 <path opacity="0.4" fill="none" stroke="#000" id="path3444" d="m 0.515625,1.515625 0,12.96875 13.96875,0 0,-12.96875 -13.96875,0 z"/>
 <rect width="13" opacity="0.55" x="1" y="2" fill="#fff" rx="1" ry="0.5" height="1" stroke-linejoin="round" stroke-linecap="round" id="rect3446"/>
 <rect width="1" opacity="0.8" x="3" y="13" fill="#fff" rx="0.077" height="1" stroke-linejoin="round" stroke-linecap="round" id="rect3448" ry="0.077"/>
 <rect width="1" opacity="0.8" x="7" y="13" fill="#fff" rx="0.077" height="1" stroke-linejoin="round" stroke-linecap="round" id="rect3450" ry="0.077"/>
 <rect width="1" opacity="0.8" x="11" y="13" fill="#fff" rx="0.077" height="1" stroke-linejoin="round" stroke-linecap="round" id="rect3452" ry="0.077"/>
 <g id="g3466" opacity="0.7" fill="#fff" fill-opacity="0.784">
  <path id="path4205" d="M 6,5.7148438 6,8 9,8 9,5.7148438 l -3,0 z" opacity="1"/>
  <path id="path4203" d="M 2,8.7148438 2,11 l 3,0 0,-2.2851562 -3,0 z" opacity="1"/>
  <path id="path3454" d="M 10,10.714844 10,13 l 3,0 0,-2.285156 -3,0 z" opacity="1"/>
 </g>
 <path fill="url(#6)" id="path53" d="m 2,7.7142835 3,0 L 5,10 2,10 Z"/>
 <path fill="url(#linearGradient3424)" id="path3422" d="m 6,4.7142835 3,0 L 9,7 6,7 Z"/>
 <path fill="url(#linearGradient3432)" id="path3430" d="m 10,9.7142835 3,0 L 13,12 10,12 Z"/>
 <metadata id="metadata9999">
  <rdf:RDF>
   <cc:Work>
    <dc:format>image/svg+xml</dc:format>
    <dc:type rdf:resource="http://purl.org/dc/dcmitype/StillImage"/>
    <dc:title>Ivy icon theme</dc:title>
    <cc:license rdf:resource="http://creativecommons.org/licenses/by-sa/4.0/"/>
    <dc:creator>
     <cc:Agent>
      <dc:title>Sixsixfive (sixsixfive.deviantart.com)</dc:title>
     </cc:Agent>
    </dc:creator>
    <dc:publisher>
     <cc:Agent>
      <dc:title>Sixsixfive (sixsixfive.deviantart.com)</dc:title>
     </cc:Agent>
    </dc:publisher>
    <dc:source>https://github.com/sixsixfive</dc:source>
    <dc:subject>
     <rdf:Bag>
      <rdf:li>ivy</rdf:li>
     </rdf:Bag>
    </dc:subject>
    <dc:contributor>
     <cc:Agent>
      <dc:title>ssf</dc:title>
     </cc:Agent>
    </dc:contributor>
    <dc:rights>
     <cc:Agent>
      <dc:title>Sixsixfive (sixisixfive.deviantart.com)</dc:title>
     </cc:Agent>
    </dc:rights>
    <dc:description>A simple icon theme published under CC-BY-SA_V4(http://creativecommons.org/licenses/by-sa/4.0)</dc:description>
    <dc:identifier>SSF</dc:identifier>
   </cc:Work>
  </rdf:RDF>
 </metadata>
 <!--Part of the Ivy icon them published under the CC-BY-SA_V4: http://creativecommons.org/licenses/by-sa/4.0 -->
</svg>
