<?xml version="1.0" encoding="UTF-8" standalone="no"?>
<svg
   xmlns:dc="http://purl.org/dc/elements/1.1/"
   xmlns:cc="http://creativecommons.org/ns#"
   xmlns:rdf="http://www.w3.org/1999/02/22-rdf-syntax-ns#"
   xmlns:svg="http://www.w3.org/2000/svg"
   xmlns="http://www.w3.org/2000/svg"
   xmlns:xlink="http://www.w3.org/1999/xlink"
   id="svg2"
   version="1.1"
   viewBox="0 0 48 48">
  <defs
     id="defs4">
    <linearGradient
       id="linearGradient4176">
      <stop
         id="stop4178"
         offset="0"
         style="stop-color:#ee6400;stop-opacity:1" />
      <stop
         id="stop4180"
         offset="1"
         style="stop-color:#ff8b36;stop-opacity:1" />
    </linearGradient>
    <linearGradient
       id="linearGradient4168">
      <stop
         id="stop4170"
         offset="0"
         style="stop-color:#ffffff;stop-opacity:1;" />
      <stop
         id="stop4172"
         offset="1"
         style="stop-color:#ffffff;stop-opacity:0;" />
    </linearGradient>
    <linearGradient
       y1="4.02"
       id="0"
       y2="44.02"
       gradientUnits="userSpaceOnUse"
       x2="0">
      <stop
         id="stop7"
         stop-color="#fff" />
      <stop
         id="stop9"
         stop-color="#fff"
         stop-opacity="0"
         offset="1" />
    </linearGradient>
    <linearGradient
       y1="3"
       id="1"
       y2="45"
       gradientUnits="userSpaceOnUse"
       x2="0">
      <stop
         id="stop12"
         stop-color="#171717"
         stop-opacity="1" />
      <stop
         id="stop14"
         stop-color="#6a6a6a"
         stop-opacity="1"
         offset="1" />
    </linearGradient>
    <linearGradient
       gradientUnits="userSpaceOnUse"
       y2="38"
       x2="35"
       y1="8"
       x1="35"
       id="linearGradient4174"
       xlink:href="#linearGradient4168" />
    <linearGradient
       gradientUnits="userSpaceOnUse"
       y2="38"
       x2="25"
       y1="10.3057"
       x1="25"
       id="linearGradient4182"
       xlink:href="#linearGradient4176" />
  </defs>
  <rect
     y="4"
     x="3"
     id="rect16"
     ry="4"
     rx="4"
     opacity="0.1"
     width="42"
     height="42" />
  <rect
     fill="url(#1)"
     y="3"
     x="3"
     id="rect18"
     ry="4"
     rx="4"
     width="42"
     height="42" />
  <path
     d="M 12.966797,8.9960938 A 1.0050852,1.0050852 0 0 0 11.994141,10 l 0,28 a 1.0050852,1.0050852 0 0 0 1.544921,0.847656 l 22,-14 a 1.0050852,1.0050852 0 0 0 0,-1.695312 l -22,-14.0000002 a 1.0050852,1.0050852 0 0 0 -0.572265,-0.15625 z"
     id="path3362"
     style="fill:#000000;fill-rule:evenodd;stroke:none;stroke-width:1px;stroke-linecap:butt;stroke-linejoin:miter;stroke-opacity:1;opacity:0.5" />
  <g
     id="g20"
     fill="none">
    <path
       style="opacity:1"
       d="m 7,3.5128 c -1.94587,0 -3.5,1.5541 -3.5,3.5 l 0,34 c 0,1.9459 1.55413,3.5 3.5,3.5 l 34,0 c 1.94587,0 3.5,-1.5541 3.5,-3.5 l 0,-34 c 0,-1.9459 -1.55413,-3.5 -3.5,-3.5 l -34,0 z"
       id="path22"
       stroke="#000"
       opacity="0.45" />
    <path
       d="m 7,4.5128 c -1.40738,0 -2.5,1.0926 -2.5,2.5 l 0,34 c 0,1.4074 1.09262,2.5 2.5,2.5 l 34,0 c 1.40738,0 2.5,-1.0926 2.5,-2.5 l 0,-34 c 0,-1.4074 -1.09262,-2.5 -2.5,-2.5 l -34,0 z"
       id="path24"
       stroke="url(#0)"
       opacity="0.25" />
  </g>
  <path
     id="path3356"
     d="M 13,38 13,10 35,24 Z"
     style="fill:url(#linearGradient4182);fill-rule:evenodd;stroke:none;stroke-width:1px;stroke-linecap:butt;stroke-linejoin:miter;stroke-opacity:1;fill-opacity:1" />
  <path
     d="m 13.53125,10.966797 0,26.066406 L 34.011719,24 13.53125,10.966797 Z"
     id="path3366"
     style="fill:none;fill-rule:evenodd;stroke:url(#linearGradient4174);stroke-width:1px;stroke-linecap:butt;stroke-linejoin:miter;stroke-opacity:1;opacity:0.41999998" />
  <metadata
     id="metadata9999">
    <rdf:RDF>
      <cc:Work>
        <dc:format>image/svg+xml</dc:format>
        <dc:type
           rdf:resource="http://purl.org/dc/dcmitype/StillImage" />
        <dc:title></dc:title>
        <cc:license
           rdf:resource="http://creativecommons.org/licenses/by-sa/4.0/" />
        <dc:creator>
          <cc:Agent>
            <dc:title>Sixsixfive (sixsixfive.deviantart.com)</dc:title>
          </cc:Agent>
        </dc:creator>
        <dc:publisher>
          <cc:Agent>
            <dc:title>Sixsixfive (sixsixfive.deviantart.com)</dc:title>
          </cc:Agent>
        </dc:publisher>
        <dc:source>https://github.com/sixsixfive</dc:source>
        <dc:subject>
          <rdf:Bag>
            <rdf:li>ivy</rdf:li>
          </rdf:Bag>
        </dc:subject>
        <dc:contributor>
          <cc:Agent>
            <dc:title>ssf</dc:title>
          </cc:Agent>
        </dc:contributor>
        <dc:rights>
          <cc:Agent>
            <dc:title>Sixsixfive (sixisixfive.deviantart.com)</dc:title>
          </cc:Agent>
        </dc:rights>
        <dc:description>A simple icon theme published under CC-BY-SA_V4(http://creativecommons.org/licenses/by-sa/4.0)</dc:description>
        <dc:identifier>SSF</dc:identifier>
      </cc:Work>
    </rdf:RDF>
  </metadata>
  <!--Part of the Ivy icon them published under the CC-BY-SA_V4: http://creativecommons.org/licenses/by-sa/4.0 -->
</svg>
