<?xml version="1.0" encoding="UTF-8" standalone="no"?>
<svg xmlns:dc="http://purl.org/dc/elements/1.1/" xmlns:cc="http://creativecommons.org/ns#" xmlns:rdf="http://www.w3.org/1999/02/22-rdf-syntax-ns#" xmlns:svg="http://www.w3.org/2000/svg" xmlns="http://www.w3.org/2000/svg" viewBox="0 0 16 16" id="svg2" version="1.1">
 <defs id="defs4">
  <radialGradient cx="29.744" cy="1018.98" r="12.555" id="0" gradientUnits="userSpaceOnUse" gradientTransform="matrix(0.01521 0.78699 -0.18825 0.00286 199.41 -18.684)">
   <stop stop-color="#ffa563" id="stop7"/>
   <stop offset="1" stop-color="#ff8b36" id="stop9"/>
  </radialGradient>
  <radialGradient cx="21" cy="1045.84" r="21" id="1" gradientUnits="userSpaceOnUse" gradientTransform="matrix(0 0.07194 -0.25272 0 272.3 11.784)">
   <stop stop-color="#ff9548" id="stop12"/>
   <stop offset="1" stop-color="#ff9343" id="stop14"/>
  </radialGradient>
 </defs>
 <rect width="13.931" x="1.028" y="12" fill="url(#1)" rx="0.671" height="3.02" ry="0.671" id="rect16"/>
 <path fill="url(#0)" d="m 7.1085307,0.99987634 1.3808184,0 c 0.5000802,0 0.7565905,0.37613336 0.902671,0.80002006 L 12.976018,12.199981 C 13.122097,12.623867 12.573426,13 12.073347,13 L 3.92277,13 C 3.4226906,13 2.8890722,12.627715 3.0200997,12.199981 L 6.2058604,1.7998964 C 6.3368874,1.3721626 6.6084514,0.99987634 7.1085307,0.99987634 z" id="path18"/>
 <g id="g20" fill="#ebebeb">
  <path d="m 5.59375,4 -0.65625,2.03125 5.90625,0 L 10.125,4 5.59375,4 Z" id="path22"/>
  <path d="m 4.3125,8 -0.59375,2 8.5,0 -0.6875,-2 -7.21875,0 z" id="path24"/>
 </g>
 <path opacity="0.4" fill="none" stroke="#000" d="M 7.09375,1.46875 C 6.9671214,1.46875 6.939785,1.4931772 6.875,1.5625 6.810215,1.6318228 6.7403588,1.7961939 6.6875,1.96875 l -3.125,10.1875 a 0.48123877,0.48123877 0 0 1 -0.46875,0.3125 l -1.40625,0 c -0.1267644,0 -0.1875,0.06074 -0.1875,0.1875 l 0,1.6875 c 0,0.126764 0.087687,0.21875 0.1875,0.21875 l 12.59375,0 c 0.09981,0 0.21875,-0.118938 0.21875,-0.21875 l 0,-1.6875 c 0,-0.09981 -0.09199,-0.1875 -0.21875,-0.1875 l -1.375,0 a 0.48123877,0.48123877 0 0 1 -0.46875,-0.3125 l -3.5,-10.1875 C 8.8783631,1.7971504 8.8224753,1.6683861 8.75,1.59375 8.6775247,1.5191139 8.6253954,1.46875 8.5,1.46875 l -1.40625,0 z" id="path26"/>
 <rect width="8" x="4" opacity="0.2" y="10" rx="0.5" height="1" ry="0.5" id="rect28"/>
 <rect width="5.844" x="5" opacity="0.2" y="6" rx="0.5" height="1" ry="0.5" id="rect30"/>
 <rect width="4.448" x="5.552" opacity="0.09" y="4" rx="0.5" height="1" ry="0.5" id="rect32"/>
 <rect width="6.448" x="4.552" opacity="0.09" y="8" rx="0.5" height="1" ry="0.5" id="rect34"/>
 <g id="g36" fill="#fff">
  <path d="m 6.4299998,3 3.139,0 C 9.8459998,3 10.069,3.223 10.069,3.5 10.069,3.777 9.8459998,4 9.5689998,4 l -3.139,0 c -0.277,0 -0.5,-0.223 -0.5,-0.5 0,-0.277 0.223,-0.5 0.5,-0.5 z" id="rect38" opacity="0.09"/>
  <path d="m 5.5,7 5,0 C 10.777,7 11,7.223 11,7.5 11,7.777 10.777,8 10.5,8 l -5,0 C 5.223,8 5,7.777 5,7.5 5,7.223 5.223,7 5.5,7 Z" id="rect40" opacity="0.09"/>
  <path d="m 6.0380001,5 3.46,0 c 0.277,0 0.5,0.223 0.5,0.5 0,0.277 -0.223,0.5 -0.5,0.5 l -3.46,0 c -0.277,0 -0.5,-0.223 -0.5,-0.5 0,-0.277 0.223,-0.5 0.5,-0.5 z" id="rect42" opacity="0.09"/>
  <path d="M 5.0349998,9 10.5,9 C 10.777,9 11,9.223 11,9.5 11,9.777 10.777,10 10.5,10 l -5.4650002,0 c -0.277,0 -0.5,-0.223 -0.5,-0.5 0,-0.277 0.223,-0.5 0.5,-0.5 z" id="rect44" opacity="0.09"/>
 </g>
 <rect width="8" x="4" opacity="0.09" y="11" rx="0.5" height="1" ry="0.5" id="rect46"/>
 <metadata id="metadata9999">
  <rdf:RDF>
   <cc:Work>
    <dc:format>image/svg+xml</dc:format>
    <dc:type rdf:resource="http://purl.org/dc/dcmitype/StillImage"/>
    <dc:title>Ivy icon theme</dc:title>
    <cc:license rdf:resource="http://creativecommons.org/licenses/by-sa/4.0/"/>
    <dc:creator>
     <cc:Agent>
      <dc:title>Sixsixfive (sixsixfive.deviantart.com)</dc:title>
     </cc:Agent>
    </dc:creator>
    <dc:publisher>
     <cc:Agent>
      <dc:title>Sixsixfive (sixsixfive.deviantart.com)</dc:title>
     </cc:Agent>
    </dc:publisher>
    <dc:source>https://github.com/sixsixfive</dc:source>
    <dc:subject>
     <rdf:Bag>
      <rdf:li>ivy</rdf:li>
     </rdf:Bag>
    </dc:subject>
    <dc:contributor>
     <cc:Agent>
      <dc:title>ssf</dc:title>
     </cc:Agent>
    </dc:contributor>
    <dc:rights>
     <cc:Agent>
      <dc:title>Sixsixfive (sixisixfive.deviantart.com)</dc:title>
     </cc:Agent>
    </dc:rights>
    <dc:description>A simple icon theme published under CC-BY-SA_V4(http://creativecommons.org/licenses/by-sa/4.0)</dc:description>
    <dc:identifier>SSF</dc:identifier>
   </cc:Work>
  </rdf:RDF>
 </metadata>
 <!--Part of the Ivy icon them published under the CC-BY-SA_V4: http://creativecommons.org/licenses/by-sa/4.0 -->
</svg>
