<?xml version="1.0" encoding="UTF-8" standalone="no"?>
<svg
   xmlns:dc="http://purl.org/dc/elements/1.1/"
   xmlns:cc="http://creativecommons.org/ns#"
   xmlns:rdf="http://www.w3.org/1999/02/22-rdf-syntax-ns#"
   xmlns:svg="http://www.w3.org/2000/svg"
   xmlns="http://www.w3.org/2000/svg"
   height="16"
   width="16"
   version="1.1"
   viewBox="0 0 16 16"
   id="svg2">
  <path
     id="path23"
     d="m 8.00624,1 c 2.772689,-0.0106175 5.708264,1.1826556 7.20601,3.6105296 1.157037,1.8113833 0.995393,4.2746815 -0.270667,5.9880594 C 13.271469,12.94837 10.252888,14.1483 7.4196353,13.908385 6.2476512,13.747283 5.1146327,13.38573 4.0000001,13 2.9987087,13.671417 1.9907529,14.332696 0.98672843,15 0.98994206,13.666605 1.0056952,12.333419 1.0000001,11 0.10619244,10.186751 -0.04766861,8.9227104 -8.4191383e-4,7.7817665 -0.15241599,5.7136131 1.0193798,3.7475307 2.6960411,2.6045465 4.2354313,1.519741 6.133101,0.9991275 8.00624,1 Z"
     style="fill:url(#0)" />
  <defs
     id="defs4">
    <linearGradient
       gradientUnits="userSpaceOnUse"
       y1="7.3969998"
       x1="37.773998"
       gradientTransform="matrix(0.48656663,0,0,0.47300809,-2.3720628,-2.5267372)"
       y2="37.110001"
       x2="37.847"
       id="0">
      <stop
         stop-color="#171717"
         id="stop7" />
      <stop
         stop-color="#6a6a6a"
         id="stop9"
         offset="1" />
    </linearGradient>
  </defs>
  <metadata
     id="metadata9999">
    <rdf:RDF>
      <cc:Work>
        <dc:format>image/svg+xml</dc:format>
        <dc:type
           rdf:resource="http://purl.org/dc/dcmitype/StillImage" />
        <dc:title></dc:title>
        <cc:license
           rdf:resource="http://creativecommons.org/licenses/by-sa/4.0/" />
        <dc:creator>
          <cc:Agent>
            <dc:title>Sixsixfive (sixsixfive.deviantart.com)</dc:title>
          </cc:Agent>
        </dc:creator>
        <dc:publisher>
          <cc:Agent>
            <dc:title>Sixsixfive (sixsixfive.deviantart.com)</dc:title>
          </cc:Agent>
        </dc:publisher>
        <dc:source>https://github.com/sixsixfive</dc:source>
        <dc:subject>
          <rdf:Bag>
            <rdf:li>ivy</rdf:li>
          </rdf:Bag>
        </dc:subject>
        <dc:contributor>
          <cc:Agent>
            <dc:title>ssf</dc:title>
          </cc:Agent>
        </dc:contributor>
        <dc:rights>
          <cc:Agent>
            <dc:title>Sixsixfive (sixisixfive.deviantart.com)</dc:title>
          </cc:Agent>
        </dc:rights>
        <dc:description>A simple icon theme published under CC-BY-SA_V4(http://creativecommons.org/licenses/by-sa/4.0)</dc:description>
        <dc:identifier>SSF</dc:identifier>
      </cc:Work>
    </rdf:RDF>
  </metadata>
  <!--Part of the Ivy icon them published under the CC-BY-SA_V4: http://creativecommons.org/licenses/by-sa/4.0 -->
  <g
     transform="translate(10,3)"
     id="g4182">
    <rect
       y="1"
       x="-3"
       height="2"
       width="1"
       id="rect4165"
       style="opacity:1;fill:#ff8b36;fill-opacity:1;stroke:none;stroke-width:1;stroke-linecap:round;stroke-linejoin:round;stroke-miterlimit:4;stroke-dasharray:none;stroke-opacity:1" />
    <rect
       y="3"
       x="-4"
       height="3"
       width="1"
       id="rect4167"
       style="opacity:1;fill:#ff8b36;fill-opacity:1;stroke:none;stroke-width:1;stroke-linecap:round;stroke-linejoin:round;stroke-miterlimit:4;stroke-dasharray:none;stroke-opacity:1" />
    <rect
       style="opacity:1;fill:#ff8b36;fill-opacity:1;stroke:none;stroke-width:1;stroke-linecap:round;stroke-linejoin:round;stroke-miterlimit:4;stroke-dasharray:none;stroke-opacity:1"
       id="rect4169"
       width="1"
       height="3"
       x="-5"
       y="6" />
    <rect
       style="opacity:1;fill:#ff8b36;fill-opacity:1;stroke:none;stroke-width:1;stroke-linecap:round;stroke-linejoin:round;stroke-miterlimit:4;stroke-dasharray:none;stroke-opacity:1"
       id="rect4171"
       width="1"
       height="2"
       x="0"
       y="1" />
    <rect
       style="opacity:1;fill:#ff8b36;fill-opacity:1;stroke:none;stroke-width:1;stroke-linecap:round;stroke-linejoin:round;stroke-miterlimit:4;stroke-dasharray:none;stroke-opacity:1"
       id="rect4174"
       width="1"
       height="3"
       x="-1"
       y="3" />
    <rect
       y="6"
       x="-2"
       height="3"
       width="1"
       id="rect4176"
       style="opacity:1;fill:#ff8b36;fill-opacity:1;stroke:none;stroke-width:1;stroke-linecap:round;stroke-linejoin:round;stroke-miterlimit:4;stroke-dasharray:none;stroke-opacity:1" />
    <rect
       style="opacity:1;fill:#ff8b36;fill-opacity:1;stroke:none;stroke-width:1;stroke-linecap:round;stroke-linejoin:round;stroke-miterlimit:4;stroke-dasharray:none;stroke-opacity:1"
       id="rect4178"
       width="9"
       height="1"
       x="-6"
       y="3" />
    <rect
       y="6"
       x="-7"
       height="1"
       width="9"
       id="rect4180"
       style="opacity:1;fill:#ff8b36;fill-opacity:1;stroke:none;stroke-width:1;stroke-linecap:round;stroke-linejoin:round;stroke-miterlimit:4;stroke-dasharray:none;stroke-opacity:1" />
  </g>
  <g
     style="stroke:#000000;fill:none;stroke-width:2.76527378;stroke-miterlimit:4;stroke-dasharray:none"
     id="g4192"
     transform="matrix(0.36415569,0,0,0.35911755,-0.744651,-0.05493113)" />
  <path
     d="M 8.0058594,1.5410156 C 6.2333174,1.54019 4.442775,2.0356594 3.0078125,3.046875 A 0.54109107,0.54109107 0 0 1 3,3.0527344 C 1.4649481,4.099183 0.40415211,5.9014019 0.5390625,7.7421875 a 0.54109107,0.54109107 0 0 1 0.001953,0.060547 C 0.49684101,8.8790597 0.65323554,9.9535599 1.3632812,10.599609 a 0.54109107,0.54109107 0 0 1 0.1777344,0.398438 c 0.00427,1.000902 -0.00413,1.996616 -0.00977,2.992187 0.7243605,-0.479183 1.4492261,-0.957499 2.1679688,-1.439453 a 0.54109107,0.54109107 0 0 1 0.4785156,-0.0625 c 1.1010254,0.381021 2.1956241,0.727109 3.3007812,0.88086 C 10.124487,13.588497 12.960412,12.451293 14.5,10.285156 a 0.54109107,0.54109107 0 0 1 0.0059,-0.0098 C 15.637876,8.7434152 15.78278,6.5069667 14.757812,4.9023438 a 0.54109107,0.54109107 0 0 1 -0.0059,-0.00781 C 13.378503,2.6681432 10.623708,1.5309985 8.0078125,1.5410156 a 0.54109107,0.54109107 0 0 1 -0.00195,0 z"
     id="path4202"
     style="opacity:0.7;fill:none;stroke:#000000" />
  <path
     id="path4204"
     d="M 2,5 C 5.4016944,2.3233699 9.1295999,1.1061046 14,5"
     style="fill:none;fill-rule:evenodd;stroke:#ffffff;stroke-width:1px;stroke-linecap:butt;stroke-linejoin:miter;stroke-opacity:1;opacity:0.3" />
</svg>
