<?xml version="1.0" encoding="UTF-8" standalone="no"?><svg xmlns:cc="http://creativecommons.org/ns#" xmlns:rdf="http://www.w3.org/1999/02/22-rdf-syntax-ns#" xmlns:svg="http://www.w3.org/2000/svg" id="svg2" viewBox="0 0 16 16" version="1.1" xmlns:xlink="http://www.w3.org/1999/xlink" xmlns:dc="http://purl.org/dc/elements/1.1/" xmlns="http://www.w3.org/2000/svg"><defs id="defs4"><linearGradient id="2" x2="43.912" y2="-1.016" gradientTransform="matrix(0.4 0 0 0.39474 -1.6 -1.974)" x1="44" y1="43" gradientUnits="userSpaceOnUse"><stop id="stop7" stop-color="#ddd"/><stop offset="1" id="stop9" stop-color="#fff"/></linearGradient></defs><path id="path13" d="M 0,0 H 16 V 15 H 0 z" fill="url(#2)"/><path id="path15" d="M 0,0 H 16 V 5 H 0 z" fill="#5288d1"/><rect stroke-linecap="round" fill-opacity="1" height="7" stroke-dasharray="none" stroke-miterlimit="4" id="rect3383" opacity="1" stroke-width="1" stroke="none" width="12" x="2" y="6" stroke-linejoin="round" stroke-dashoffset="0" fill-rule="evenodd" stroke-opacity="1" fill="#5288d1"/><path id="path21" opacity="0.4" d="M 0.9835,4.4995 15.0037,4.5006" stroke-width="0.99900001" stroke="#000" fill="none"/><rect stroke-linecap="round" fill-opacity="1" height="1" stroke-dasharray="none" stroke-miterlimit="4" id="rect3381" opacity="0.50999995" stroke-width="1" stroke="none" width="14" x="1" y="5" stroke-linejoin="round" stroke-dashoffset="0" fill-rule="evenodd" stroke-opacity="1" fill="#fff"/><path id="path25" opacity="0.4" d="m 0.5,0.5 0,14 15,0 0,-14 -15,0 z" stroke="#000" fill="none"/><rect stroke-linecap="round" fill-opacity="1" height="7" stroke-dasharray="none" stroke-miterlimit="4" id="rect3385" opacity="1" stroke-width="1" stroke="none" width="1" x="12" y="6" stroke-linejoin="round" stroke-dashoffset="0" fill-rule="evenodd" stroke-opacity="1" fill="#ffd506"/><rect stroke-linecap="round" fill-opacity="1" height="7" stroke-dasharray="none" stroke-miterlimit="4" id="rect3387" opacity="1" stroke-width="1" stroke="none" width="1" x="10" y="6" stroke-linejoin="round" stroke-dashoffset="0" fill-rule="evenodd" stroke-opacity="1" fill="#ffd506"/><rect stroke-linecap="round" fill-opacity="1" height="5" stroke-dasharray="none" stroke-miterlimit="4" id="rect3389" opacity="1" stroke-width="1" stroke="none" width="8" x="4" y="7" stroke-linejoin="round" stroke-dashoffset="0" fill-rule="evenodd" stroke-opacity="1" fill="#171717"/><rect stroke-linecap="round" fill-opacity="1" height="1" stroke-dasharray="none" stroke-miterlimit="4" id="rect3391" opacity="1" stroke-width="1" stroke="none" width="6" x="5" y="8" stroke-linejoin="round" stroke-dashoffset="0" fill-rule="evenodd" stroke-opacity="1" fill="#5288d1"/><rect stroke-linecap="round" fill-opacity="1" height="1" stroke-dasharray="none" stroke-miterlimit="4" id="rect3395" opacity="0.6" stroke-width="1" stroke="none" width="2" x="5" y="10" stroke-linejoin="round" stroke-dashoffset="0" fill-rule="evenodd" stroke-opacity="1" fill="#fff"/><g id="g27" fill="#fff"><path id="path29" opacity="0.47" d="M 1,1 15,1 15,2 1,2 Z"/><path id="path31" d="M 2,2 3,2 3,3 2,3 Z"/><path id="path33" d="M 4,2 5,2 5,3 4,3 Z"/><path id="path35" d="M 6,2 7,2 7,3 6,3 Z"/></g><path id="path37" opacity="0.266" d="M 2,3 H 3 V 4 H 2 z"/><path id="path39" opacity="0.266" d="M 4,3 H 5 V 4 H 4 z"/><path id="path41" opacity="0.266" d="M 6,3 H 7 V 4 H 6 z"/><path id="path43" opacity="0.266" d="M 1,2 H 2 V 3 H 1 z"/><path id="0" opacity="0.266" d="M 3,2 H 4 V 3 H 3 z"/><path id="1" opacity="0.266" d="M 5,2 H 6 V 3 H 5 z"/><path id="path47" opacity="0.266" d="M 2,1 H 3 V 2 H 2 z"/><path id="path49" opacity="0.266" d="M 4,1 H 5 V 2 H 4 z"/><path id="path51" opacity="0.266" d="M 6,1 H 7 V 2 H 6 z"/><use height="16" id="use53" width="16" xlink:href="#0"/><use height="16" id="use55" width="16" xlink:href="#1"/><path id="path57" opacity="0.266" d="M 7,2 H 8 V 3 H 7 z"/><metadata id="metadata9999"><rdf:RDF><cc:Work><dc:format>image/svg+xml</dc:format><dc:type rdf:resource="http://purl.org/dc/dcmitype/StillImage"/><dc:title/><cc:license rdf:resource="http://creativecommons.org/licenses/by-sa/4.0/"/><dc:creator><cc:Agent><dc:title>Sixsixfive (sixsixfive.deviantart.com)</dc:title></cc:Agent></dc:creator><dc:publisher><cc:Agent><dc:title>Sixsixfive (sixsixfive.deviantart.com)</dc:title></cc:Agent></dc:publisher><dc:source>https://github.com/sixsixfive</dc:source><dc:subject><rdf:Bag><rdf:li>ivy</rdf:li></rdf:Bag></dc:subject><dc:contributor><cc:Agent><dc:title>ssf</dc:title></cc:Agent></dc:contributor><dc:rights><cc:Agent><dc:title>Sixsixfive (sixisixfive.deviantart.com)</dc:title></cc:Agent></dc:rights><dc:description>A simple icon theme published under CC-BY-SA_V4(http://creativecommons.org/licenses/by-sa/4.0)</dc:description><dc:identifier>SSF</dc:identifier></cc:Work></rdf:RDF></metadata><!--Part of the Ivy icon them published under the CC-BY-SA_V4: http://creativecommons.org/licenses/by-sa/4.0 -->
</svg>