<?xml version="1.0" encoding="UTF-8" standalone="no"?>
<svg
   xmlns:dc="http://purl.org/dc/elements/1.1/"
   xmlns:cc="http://creativecommons.org/ns#"
   xmlns:rdf="http://www.w3.org/1999/02/22-rdf-syntax-ns#"
   xmlns:svg="http://www.w3.org/2000/svg"
   xmlns="http://www.w3.org/2000/svg"
   xmlns:xlink="http://www.w3.org/1999/xlink"
   height="16"
   width="16"
   id="svg2"
   viewBox="0 0 16 16"
   version="1.1">
  <defs
     id="defs4">
    <linearGradient
       id="linearGradient4180">
      <stop
         id="stop4182"
         offset="0"
         style="stop-color:#ffffff;stop-opacity:1;" />
      <stop
         id="stop4184"
         offset="1"
         style="stop-color:#ffffff;stop-opacity:0;" />
    </linearGradient>
    <linearGradient
       id="linearGradient4185">
      <stop
         style="stop-color:#66b03e;stop-opacity:1;"
         offset="0"
         id="stop4187" />
      <stop
         style="stop-color:#82c65d;stop-opacity:1"
         offset="1"
         id="stop4189" />
    </linearGradient>
    <linearGradient
       gradientTransform="matrix(0.34999961,0,0,0.34782609,-0.04999844,-0.34782284)"
       xlink:href="#linearGradient4185"
       id="linearGradient4191"
       x1="30"
       y1="1"
       x2="30"
       y2="47"
       gradientUnits="userSpaceOnUse" />
    <linearGradient
       gradientUnits="userSpaceOnUse"
       y2="6"
       x2="12"
       y1="-1"
       x1="12"
       id="linearGradient4186"
       xlink:href="#linearGradient4180" />
  </defs>
  <metadata
     id="metadata9999">
    <rdf:RDF>
      <cc:Work>
        <dc:format>image/svg+xml</dc:format>
        <dc:type
           rdf:resource="http://purl.org/dc/dcmitype/StillImage" />
        <dc:title></dc:title>
        <cc:license
           rdf:resource="http://creativecommons.org/licenses/by-sa/4.0/" />
        <dc:creator>
          <cc:Agent>
            <dc:title>Sixsixfive (sixsixfive.deviantart.com)</dc:title>
          </cc:Agent>
        </dc:creator>
        <dc:publisher>
          <cc:Agent>
            <dc:title>Sixsixfive (sixsixfive.deviantart.com)</dc:title>
          </cc:Agent>
        </dc:publisher>
        <dc:source>https://github.com/sixsixfive</dc:source>
        <dc:subject>
          <rdf:Bag>
            <rdf:li>ivy</rdf:li>
          </rdf:Bag>
        </dc:subject>
        <dc:contributor>
          <cc:Agent>
            <dc:title>ssf</dc:title>
          </cc:Agent>
        </dc:contributor>
        <dc:rights>
          <cc:Agent>
            <dc:title>Sixsixfive (sixisixfive.deviantart.com)</dc:title>
          </cc:Agent>
        </dc:rights>
        <dc:description>A simple icon theme published under CC-BY-SA_V4(http://creativecommons.org/licenses/by-sa/4.0)</dc:description>
        <dc:identifier>SSF</dc:identifier>
      </cc:Work>
    </rdf:RDF>
  </metadata>
  <!--Part of the Ivy icon them published under the CC-BY-SA_V4: http://creativecommons.org/licenses/by-sa/4.0 -->
  <path
     style="fill:url(#linearGradient4191);fill-opacity:1;fill-rule:evenodd;stroke:none"
     d="m 7.5049153,3.16e-6 c -0.010012,0.02287 -0.031484,0.01483 -0.048511,0.0163 -0.2382318,0.02069 -0.4759102,0.04739 -0.7110354,0.09103 C 5.0258744,0.42676516 3.613703,1.2541811 2.5207384,2.5910291 1.621746,3.6904341 1.1266275,4.9517841 1.019664,6.3580121 c -0.0517967,0.681551 -0.00121,1.356343 0.1510777,2.022419 0.1132618,0.495664 0.2821353,0.97448 0.5093674,1.432065 0.019952,0.03904 0.039378,0.07807 0.059599,0.116848 0.3733103,0.7205889 0.8535509,1.3631849 1.4553352,1.9177989 0.316899,0.291957 0.6554533,0.55574 1.0221997,0.783967 1.1232075,0.698854 2.3494025,1.36508 3.681305,1.3816 0.081687,9.39e-4 0.1037031,0.02085 0.1032596,0.102581 -0.00373,0.698854 -0.00161,1.098128 -0.0014,1.797069 8.51e-5,0.02704 0.00189,0.05399 0.00346,0.08764 0.023058,-0.0092 0.037357,-0.01394 0.051284,-0.02038 1.3389993,-0.616692 2.5685124,-1.396149 3.6646724,-2.372962 0.218095,-0.194319 0.427071,-0.397998 0.627873,-0.610054 0.08585,-0.0906 0.170811,-0.183269 0.257109,-0.273778 0.13304,-0.139544 0.248124,-0.294814 0.373536,-0.441576 0.144836,-0.169366 0.275086,-0.349379 0.403336,-0.53057 0.283552,-0.400463 0.536288,-0.818864 0.74915,-1.260191 0.107674,-0.223097 0.21073,-0.447849 0.301464,-0.6779889 0.003,-0.0043 0.0072,-0.0081 0.0091,-0.01291 0.247276,-0.630168 0.405526,-1.281881 0.489962,-1.951087 0.02953,-0.232835 0.04832,-0.467364 0.06029,-0.701766 0.02572,-0.504185 -0.0076,-1.00627 -0.100484,-1.502717 C 14.643367,4.3201321 14.051862,3.1642131 13.117657,2.1773131 12.723328,1.7606791 12.281718,1.3983821 11.793995,1.0910361 10.885687,0.51859816 9.8962195,0.16781216 8.823033,0.04348116 8.6923001,0.02826716 8.559746,0.03016016 8.4307851,3.16e-6 Z"
     id="path164" />
  <path
     id="path4166"
     d="M 6.7851562,4.0366387 C 5.8807199,4.0512199 4.9720441,4.0007128 4.070314,4.0637161 3.3769827,4.1974508 2.8934351,4.9505207 3.0644531,5.6362481 c -0.043775,-0.4720973 -0.010878,0.4439252 -0.022295,0.593252 0.013753,0.5881498 -0.0372,1.1827075 0.036681,1.7665047 0.1226953,0.4755383 0.5446757,0.9226558 1.0656919,0.8902433 -0.1085689,0.3862044 -0.076459,0.8179017 -0.011419,1.2124049 0.1201113,0.571245 0.7064303,0.949084 1.2762726,0.861838 1.3128704,-0.104858 2.5553536,-1.196158 2.5930366,-2.5565866 0.00784,-0.2507799 0.00684,-0.4281115 0.1192846,-0.1039595 0.1495121,0.3497983 0.4771794,0.6210948 0.8724349,0.5863032 -0.1085691,0.3862044 -0.076459,0.8179016 -0.011419,1.2124049 0.1182351,0.554449 0.6958319,0.962447 1.2575133,0.848142 0.76353,0.0522 0.902995,-0.128999 1.615235,-0.640625 0.821205,-0.6452816 1.177474,-1.728488 1.105578,-2.7472462 -0.0091,-0.8273722 0.0285,-1.6579552 -0.02355,-2.4832226 C 12.822756,4.4449841 12.196027,3.9719353 11.557266,4.0367744 10.678662,4.0505222 9.7958211,4.0012481 8.9199217,4.0637152 8.500802,4.166465 8.0146517,4.4871509 8.0214844,4.9643731 7.8633384,4.4289458 7.3572815,4.006219 6.7851562,4.0366387 Z M 5.25,8.0639824 c -0.2666023,0.041476 -0.2348277,0.012223 0,0 z m 4.849609,0 c -0.2919345,0.047378 -0.2297848,0.010524 0,0 z"
     style="opacity:0.4;fill:#000000;fill-opacity:1;fill-rule:evenodd;stroke:none" />
  <path
     id="path4155"
     d="m 6.8127451,5.0008542 c -0.8439674,0.00211 -1.6884699,-0.00707 -2.5320281,0.00525 -0.208079,0.029534 -0.3113232,0.2484536 -0.2727536,0.4316746 0.00249,0.7704278 -0.00901,1.5416789 0.00343,2.3116525 0.033799,0.189438 0.2481259,0.2861399 0.4333982,0.2600525 0.5540686,7.043e-4 1.1084291,0.00168 1.6624981,0.00261 0.041629,0.1987406 -0.049878,0.414631 -0.1469725,0.5908488 C 5.8076575,8.8547685 5.5104126,8.9714149 5.2268216,9.0293761 5.0487898,9.0249554 5.0490754,9.0244738 5.0490754,9.7911956 5.0181424,10.116408 5.4871828,9.9752473 5.6759303,9.9300652 6.1967857,9.7882057 6.6474543,9.4350277 6.8879404,8.9691145 7.1087527,8.5722007 7.165767,8.1152184 7.1477059,7.6714713 7.1485809,6.8714041 7.1528614,6.0703831 7.1422354,5.2707327 7.111257,5.1209102 6.9773608,4.9961035 6.8127433,5.0008542 Z"
     style="fill:#ffffff;fill-opacity:1;fill-rule:evenodd;stroke:none" />
  <path
     style="fill:#ffffff;fill-opacity:1;fill-rule:evenodd;stroke:none"
     d="m 11.66192,5.0008542 c -0.843967,0.00211 -1.6884691,-0.00707 -2.5320273,0.00525 -0.208079,0.029534 -0.3113232,0.2484536 -0.2727536,0.4316746 0.00249,0.7704278 -0.00901,1.5416789 0.00343,2.3116525 0.033799,0.189438 0.2481259,0.2861399 0.4333982,0.2600525 0.5540686,7.043e-4 1.1084287,0.00168 1.6624977,0.00261 0.04163,0.1987406 -0.04988,0.414631 -0.146972,0.5908488 -0.15266,0.2518259 -0.449905,0.3684723 -0.733496,0.4264335 -0.1780315,-0.00442 -0.1777459,-0.0049 -0.1777459,0.7618195 -0.030933,0.3252124 0.4381069,0.1840517 0.6268549,0.1388696 0.520855,-0.1418595 0.971524,-0.4950375 1.21201,-0.9609507 0.220812,-0.3969138 0.277826,-0.8538961 0.259765,-1.2976432 8.75e-4,-0.8000672 0.0052,-1.6010882 -0.0055,-2.4007386 -0.03098,-0.1498225 -0.164875,-0.2746292 -0.329492,-0.2698785 z"
     id="path4157" />
  <path
     d="m 7.5527344,0.50195312 c -0.00552,0.001019 -0.014544,0.0131838 -0.019531,0.0136719 -0.1120659,0.0109658 -0.1277231,0.00816 -0.033203,0 -0.2287349,0.0198652 -0.4494923,0.046475 -0.6621094,0.0859375 -1.6147902,0.29998098 -2.9046224,1.0571853 -3.9277344,2.3085937 -0.8368386,1.0233953 -1.2905424,2.1734283 -1.390625,3.484375 -0.048048,0.6322309 -5.236e-4,1.2576442 0.140625,1.875 0.104687,0.4581382 0.2593477,0.898632 0.46875,1.3203126 0.018303,0.03577 0.037852,0.07139 0.056641,0.1074218 a 0.50230942,0.50230942 0 0 1 0,0.00195 c 0.3485394,0.6727742 0.7921622,1.2655442 1.3496093,1.7792972 0.2966267,0.27328 0.6100119,0.516688 0.9472657,0.726562 1.1057443,0.687989 2.2539038,1.292154 3.421875,1.306641 0.079031,9.08e-4 0.2481986,-0.008 0.4238281,0.160156 0.1756295,0.168182 0.1762517,0.358616 0.1757812,0.445313 -0.00217,0.406568 -0.00206,0.724792 -0.00195,1.046874 1.0365928,-0.538405 2.0154139,-1.156941 2.8847659,-1.93164 0.205584,-0.183172 0.402903,-0.378426 0.595703,-0.582031 0.08341,-0.08802 0.170301,-0.179607 0.259766,-0.273438 0.104177,-0.10927 0.212733,-0.257126 0.353515,-0.421875 a 0.50230942,0.50230942 0 0 1 0.002,0 c 0.126085,-0.147439 0.245764,-0.316269 0.373047,-0.496094 0.269918,-0.381206 0.508071,-0.774994 0.707031,-1.1875 0.104513,-0.216545 0.202779,-0.4286797 0.28711,-0.6425778 a 0.50230942,0.50230942 0 0 1 0.01563,-0.039062 c 0.225498,-0.5809518 0.374493,-1.1814826 0.453125,-1.8046876 0.02764,-0.2179199 0.04519,-0.4397644 0.05664,-0.6640624 0.0237,-0.4645121 -0.008,-0.9263657 -0.09375,-1.3847657 C 14.165553,4.5025276 13.624301,3.4449915 12.751953,2.5234375 12.386075,2.1368641 11.979916,1.8027735 11.527344,1.5175781 10.679883,0.98348769 9.7643067,0.65694136 8.7636719,0.54101562 8.699492,0.53354671 8.564303,0.52067266 8.4316406,0.50195312 l -0.8789062,0 z"
     id="path4171"
     style="opacity:0.4;fill:none;fill-opacity:1;fill-rule:evenodd;stroke:#000000" />
  <path
     d="M 7.6171875,1.4589844 C 5.9561587,1.5820865 4.329986,2.4688718 3.40625,3.8359375 a 0.95728272,0.95728272 0 0 1 -0.017578,0.025391 C 2.062416,5.6967004 2.1988518,8.526414 3.6796875,10.242188 A 0.95728272,0.95728272 0 0 1 3.6875,10.25 c 0.8266749,0.981051 2.0420059,1.685575 3.3457031,2.158203 a 0.95728272,0.95728272 0 0 1 0.1464844,0.06836 c -0.1000468,-0.05677 0.2294657,0.0028 0.734375,0.06641 0.2524546,0.0318 0.581862,0.08485 0.9238281,0.335937 0.195936,0.143865 0.2453829,0.421764 0.3554688,0.66211 1.9923506,-1.264859 3.6933366,-3.054088 4.1874996,-5.2734379 a 0.95728272,0.95728272 0 0 1 0.0039,-0.019531 C 13.819368,6.4819018 13.331277,4.474059 12.070312,3.1953125 a 0.95728272,0.95728272 0 0 1 -0.01758,-0.017578 C 10.940306,1.9885297 9.2646306,1.3673238 7.6171875,1.4589844 Z"
     id="path4178"
     style="opacity:0.4;fill:none;fill-opacity:1;fill-rule:evenodd;stroke:url(#linearGradient4186)" />
</svg>
