<?xml version="1.0" encoding="UTF-8" standalone="no"?>
<svg
   xmlns:dc="http://purl.org/dc/elements/1.1/"
   xmlns:cc="http://creativecommons.org/ns#"
   xmlns:rdf="http://www.w3.org/1999/02/22-rdf-syntax-ns#"
   xmlns:svg="http://www.w3.org/2000/svg"
   xmlns="http://www.w3.org/2000/svg"
   xmlns:xlink="http://www.w3.org/1999/xlink"
   height="16"
   width="16"
   id="svg2"
   viewBox="0 0 16 16"
   version="1.1">
  <defs
     id="defs4">
    <linearGradient
       id="linearGradient4161">
      <stop
         style="stop-color:#ff8b36;stop-opacity:1"
         offset="0"
         id="stop4163" />
      <stop
         style="stop-color:#d02604;stop-opacity:1"
         offset="1"
         id="stop4165" />
    </linearGradient>
    <linearGradient
       gradientTransform="matrix(0.34782606,0,0,0.35000001,-0.34782606,-0.05000003)"
       xlink:href="#linearGradient4161"
       id="linearGradient4167"
       x1="25"
       y1="-12"
       x2="25"
       y2="38"
       gradientUnits="userSpaceOnUse" />
    <linearGradient
       y2="38"
       x2="25"
       y1="-12"
       x1="25"
       gradientTransform="matrix(0.3622855,0,0,0.36363637,-0.52113886,-0.63636377)"
       gradientUnits="userSpaceOnUse"
       id="linearGradient4162"
       xlink:href="#linearGradient4161" />
    <linearGradient
       y2="38"
       x2="25"
       y1="-12"
       x1="25"
       gradientTransform="matrix(0.36363636,0,0,0.36363642,-0.36363636,-0.6363123)"
       gradientUnits="userSpaceOnUse"
       id="linearGradient4164"
       xlink:href="#linearGradient4161" />
  </defs>
  <metadata
     id="metadata9999">
    <rdf:RDF>
      <cc:Work>
        <dc:format>image/svg+xml</dc:format>
        <dc:type
           rdf:resource="http://purl.org/dc/dcmitype/StillImage" />
        <dc:title></dc:title>
        <cc:license
           rdf:resource="http://creativecommons.org/licenses/by-sa/4.0/" />
        <dc:creator>
          <cc:Agent>
            <dc:title>Sixsixfive (sixsixfive.deviantart.com)</dc:title>
          </cc:Agent>
        </dc:creator>
        <dc:publisher>
          <cc:Agent>
            <dc:title>Sixsixfive (sixsixfive.deviantart.com)</dc:title>
          </cc:Agent>
        </dc:publisher>
        <dc:source>https://github.com/sixsixfive</dc:source>
        <dc:subject>
          <rdf:Bag>
            <rdf:li>ivy</rdf:li>
          </rdf:Bag>
        </dc:subject>
        <dc:contributor>
          <cc:Agent>
            <dc:title>ssf</dc:title>
          </cc:Agent>
        </dc:contributor>
        <dc:rights>
          <cc:Agent>
            <dc:title>Sixsixfive (sixisixfive.deviantart.com)</dc:title>
          </cc:Agent>
        </dc:rights>
        <dc:description>A simple icon theme published under CC-BY-SA_V4(http://creativecommons.org/licenses/by-sa/4.0)</dc:description>
        <dc:identifier>SSF</dc:identifier>
      </cc:Work>
    </rdf:RDF>
  </metadata>
  <!--Part of the Ivy icon them published under the CC-BY-SA_V4: http://creativecommons.org/licenses/by-sa/4.0 -->
  <path
     id="path4159"
     d="m 0,0.99999999 0.0033986,1.80673831 0.00339862,1.8673818 0.04144027,0.086816 c 0.05244866,0.1106091 0.13724889,0.1957455 0.24796193,0.2481444 l 0.0869565,0.041016 4.88994508,0.00684 c 4.5968658,0.00627 4.870869,0.00792 4.986858,0.029397 0.402843,0.074629 0.720546,0.2014222 0.989131,0.3944335 0.118671,0.085276 0.307298,0.2752789 0.391984,0.3951171 0.166368,0.2354237 0.279828,0.3560233 0.319293,0.7001965 0.0088,0.076282 0.01405,1.3337327 0.01427,3.3899414 2.09e-4,1.9610463 0.0049,3.1794993 0.01291,3.2566403 0.06453,0.622283 0.350862,1.116521 0.834918,1.441015 0.266268,0.178496 0.604836,0.29393 0.946332,0.321973 0.07376,0.0061 0.425612,0.01133 0.995244,0.01231 L 16,14.999947 16,9.9037565 C 15.999912,6.5667714 15.9951,4.7434594 15.98642,4.6202603 15.970169,4.3899244 15.932109,4.1182557 15.887907,3.919629 15.571162,2.4962048 14.572388,1.5339372 13.006793,1.1442383 12.85248,1.1058293 12.533524,1.0490893 12.383151,1.0328125 c -0.04286,-0.00462 -0.0922,-0.012502 -0.110055,-0.01709 -0.01784,-0.00459 -2.7867584,-0.01029 -6.152852,-0.012305 z"
     style="fill:url(#linearGradient4167);fill-opacity:1" />
  <rect
     ry="0.33333299"
     rx="0.50793701"
     y="2"
     x="1"
     height="1"
     width="13"
     id="rect4177"
     style="opacity:0.4;fill:#ffffff;fill-opacity:1;stroke:none;stroke-width:6;stroke-linecap:round;stroke-linejoin:round;stroke-miterlimit:4;stroke-dasharray:none" />
  <path
     id="path4157"
     d="m 0,7.0000525 7.0909005e-4,3.0568185 c 2.7218411e-4,3.270963 -0.001600591,3.184358 0.06392056,3.446734 0.09962367,0.399316 0.30913886,0.757723 0.58522725,0.999291 0.32391502,0.283404 0.7126684,0.445371 1.1576705,0.482953 0.070211,0.0059 0.5919254,0.01108 1.1598011,0.01207 L 4,15 4,11.000001 4,7 1.9999998,7 5.2272731e-8,7 Z"
     style="fill:url(#linearGradient4164);fill-opacity:1" />
  <path
     id="path3358"
     d="M 6,7 6,11.000001 6,15 7.999646,15 10,15 10,11.000001 10,7 7.999646,7 Z"
     style="fill:url(#linearGradient4162);fill-opacity:1" />
  <path
     d="m 0.5078125,1.5058594 0.001953,1.2988281 a 0.50612867,0.50612867 0 0 1 0,0.00195 l 0.001953,1.7382813 4.76171875,0.00586 c 4.5969522,0.00627 4.8263925,-0.0095 5.0781245,0.037109 0.456848,0.084634 0.856019,0.2400008 1.19336,0.4824219 0.202179,0.1452846 0.3672,0.309976 0.509766,0.5117187 0.150612,0.2131279 0.357654,0.4947322 0.408203,0.9355469 0.0099,0.085681 0.0068,0.081887 0.0078,0.1308594 0.001,0.048972 0.0011,0.1138908 0.002,0.1953125 0.0017,0.1628435 0.0028,0.3924518 0.0039,0.6835938 0.0023,0.5822839 0.0038,1.4109782 0.0039,2.4394531 1.04e-4,0.9800621 0.0015,1.7740341 0.0039,2.3320311 0.0012,0.278999 0.0023,0.498614 0.0039,0.652344 8.1e-4,0.07686 0.0031,0.138163 0.0039,0.179687 8.52e-4,0.04152 0.0057,0.09416 0,0.03906 0.05158,0.497377 0.248426,0.830943 0.611328,1.074219 0.185037,0.124042 0.451454,0.217293 0.707031,0.238281 -0.01828,-0.0015 0.110076,0.0038 0.275391,0.0059 0.165314,0.002 0.394113,0.0034 0.677734,0.0039 l 0.730469,0.002 0,-4.5898441 c -4.4e-5,-1.6682466 -0.0016,-2.9582319 -0.0039,-3.8457031 -0.0012,-0.4437357 -0.0022,-0.7863847 -0.0039,-1.0253907 -0.0017,-0.2390059 -0.0076,-0.4299995 -0.0039,-0.3769531 -0.01441,-0.204178 -0.05191,-0.4652798 -0.08789,-0.6269531 -0.278171,-1.2500751 -1.086573,-2.0397921 -2.511719,-2.3945313 -0.109164,-0.027171 -0.453218,-0.086673 -0.554687,-0.097656 -0.03352,-0.00361 -0.06405,-0.011735 -0.08984,-0.015625 -0.0016,-2.463e-4 -0.0042,2.628e-4 -0.0059,0 -0.02004,-2.634e-4 -0.0523,-0.00167 -0.09375,-0.00195 -0.0829,-5.754e-4 -0.206245,-0.00138 -0.363281,-0.00195 -0.314072,-0.00115 -0.76684,-9.016e-4 -1.324219,-0.00195 -1.1147584,-0.0021 -2.6472044,-0.00485 -4.3300782,-0.00586 l -5.6132813,-0.00391 z m -0.001953,6 0,2.5507816 c 1.3609e-4,1.63555 1.5271e-4,2.433861 0.007813,2.841797 0.00766,0.407935 0.0053,0.339399 0.0410156,0.482421 0.0763036,0.305844 0.24383046,0.577616 0.4296875,0.740235 0.2459911,0.215225 0.5182568,0.332024 0.8652344,0.361328 -0.057713,-0.0048 0.1471568,0.0038 0.3554687,0.0059 0.208312,0.002 0.4789451,0.0034 0.7617188,0.0039 l 0.5273437,0.002 0,-3.494141 0,-3.4941406 -1.4941406,0 -1.49414062,0 z m 6.00000002,0 0,3.4941406 0,3.494141 1.4941406,0 1.4941406,0 0,-3.494141 0,-3.4941406 -1.4941406,0 -1.4941406,0 z"
     id="path4175"
     style="opacity:0.5;fill:none;fill-opacity:1;stroke:#000000;stroke-linejoin:round" />
  <rect
     ry="0.33333299"
     rx="0.50793701"
     y="8"
     x="1"
     height="1"
     width="2"
     id="rect4179"
     style="opacity:0.4;fill:#ffffff;fill-opacity:1;stroke:none;stroke-width:6;stroke-linecap:round;stroke-linejoin:round;stroke-miterlimit:4;stroke-dasharray:none" />
  <rect
     ry="0.33333299"
     rx="0.50793701"
     y="8"
     x="7"
     height="1"
     width="2"
     id="rect4181"
     style="opacity:0.4;fill:#ffffff;fill-opacity:1;stroke:none;stroke-width:6;stroke-linecap:round;stroke-linejoin:round;stroke-miterlimit:4;stroke-dasharray:none" />
</svg>
