<?xml version="1.0" encoding="UTF-8" standalone="no"?>
<svg xmlns:dc="http://purl.org/dc/elements/1.1/" xmlns:cc="http://creativecommons.org/ns#" xmlns:rdf="http://www.w3.org/1999/02/22-rdf-syntax-ns#" xmlns:svg="http://www.w3.org/2000/svg" xmlns="http://www.w3.org/2000/svg" viewBox="0 0 16 16" id="svg2" version="1.1">
 <defs id="defs4">
  <linearGradient id="0" y1="3" y2="45" x2="0" gradientUnits="userSpaceOnUse" gradientTransform="matrix(0.38095 0 0 0.38084 -1.143 -1.143)">
   <stop stop-color="#ff8b36" id="stop7"/>
   <stop offset="1" stop-color="#ff9f58" id="stop9"/>
  </linearGradient>
  <linearGradient id="1" y1="1" y2="15" x2="0" gradientUnits="userSpaceOnUse">
   <stop stop-color="#fff" id="stop12"/>
   <stop offset="1" stop-color="#fff" stop-opacity="0" id="stop14"/>
  </linearGradient>
 </defs>
 <rect width="16" fill="url(#0)" rx="1.524" height="15.995" ry="1.523" id="rect16"/>
 <path opacity="0.45" fill="none" stroke="#000" d="M 1.53125 0.5 C 0.953503 0.5 0.5 0.953706 0.5 1.53125 v 12.9375 C 0.5 15.04629 0.953503 15.5 1.53125 15.5 h 12.9375 C 15.0465 15.5 15.5 15.0463 15.5 14.46875 v -12.9375 C 15.5 0.953705 15.0465 0.5 14.46875 0.5 h -12.9375 z" id="path18"/>
 <path opacity="0.16" d="m 6 11.5 a 1 1.5 0 1 1 -2 0 1 1.5 0 1 1 2 0 z" transform="matrix(1.5 0 0 1 -3 0)" id="path20"/>
 <path opacity="0.45" fill="none" stroke="url(#1)" d="M 1.53125 1.5 C 1.504466 1.5 1.5 1.504632 1.5 1.53125 v 12.9375 C 1.5 14.49537 1.50447 14.5 1.53125 14.5 h 12.9375 C 14.49554 14.5 14.5 14.4954 14.5 14.46875 v -12.9375 C 14.5 1.504631 14.495535 1.5 14.46875 1.5 h -12.9375 z" id="path22"/>
 <path opacity="0.16" d="M 4.5 6 C 3.975273 6 3.48067 5.862765 3 6 v 2 c 0.320165 -0.082565 0.654049 0 1 0 2.20914 0 4 1.79086 4 4 0 0.345951 0.082565 0.679835 0 1 h 2 c 0.137235 -0.480673 0 -0.975273 0 -1.5 C 10 8.46243 7.53757 6 4.5 6 z" id="path24"/>
 <path fill="#fff" d="m 6 11.5 a 1 1.5 0 1 1 -2 0 1 1.5 0 1 1 2 0 z" transform="matrix(1.5 0 0 1 -3 1)" id="path26"/>
 <path opacity="0.16" d="M 5.5 3 C 4.618473 3 3.78568 2.720638 3 3 v 2 c 2.5 0 1.60203 0 2.5 0 3.03757 0 5.5 2.46243 5.5 5.5 0 0.897967 0 0.5 0 2.5 h 2 c 0.279362 -0.785677 0 -1.61847 0 -2.5 C 13 6.35787 9.64214 3 5.5 3 z" id="path28"/>
 <g id="g30" fill="#fff">
  <path d="M 4.5,7 C 3.975273,7 3.48067,6.862765 3,7 l 0,2 c 0.320165,-0.082565 0.654049,0 1,0 2.20914,0 4,1.79086 4,4 0,0.345951 0.082565,0.679835 0,1 l 2,0 c 0.137235,-0.480673 0,-0.975273 0,-1.5 C 10,9.46243 7.53757,7 4.5,7 Z" id="path32"/>
  <path d="M 5.5,4 C 4.618473,4 3.78568,3.720638 3,4 l 0,2 c 2.5,0 1.60203,0 2.5,0 3.03757,0 5.5,2.46243 5.5,5.5 0,0.897967 0,0.5 0,2.5 l 2,0 c 0.279362,-0.785677 0,-1.61847 0,-2.5 C 13,7.35787 9.64214,4 5.5,4 Z" id="path34"/>
 </g>
 <metadata id="metadata9999">
  <rdf:RDF>
   <cc:Work>
    <dc:format>image/svg+xml</dc:format>
    <dc:type rdf:resource="http://purl.org/dc/dcmitype/StillImage"/>
    <dc:title>Ivy icon theme</dc:title>
    <cc:license rdf:resource="http://creativecommons.org/licenses/by-sa/4.0/"/>
    <dc:creator>
     <cc:Agent>
      <dc:title>Sixsixfive (sixsixfive.deviantart.com)</dc:title>
     </cc:Agent>
    </dc:creator>
    <dc:publisher>
     <cc:Agent>
      <dc:title>Sixsixfive (sixsixfive.deviantart.com)</dc:title>
     </cc:Agent>
    </dc:publisher>
    <dc:source>https://github.com/sixsixfive</dc:source>
    <dc:subject>
     <rdf:Bag>
      <rdf:li>ivy</rdf:li>
     </rdf:Bag>
    </dc:subject>
    <dc:contributor>
     <cc:Agent>
      <dc:title>ssf</dc:title>
     </cc:Agent>
    </dc:contributor>
    <dc:rights>
     <cc:Agent>
      <dc:title>Sixsixfive (sixisixfive.deviantart.com)</dc:title>
     </cc:Agent>
    </dc:rights>
    <dc:description>A simple icon theme published under CC-BY-SA_V4(http://creativecommons.org/licenses/by-sa/4.0)</dc:description>
    <dc:identifier>SSF</dc:identifier>
   </cc:Work>
  </rdf:RDF>
 </metadata>
 <!--Part of the Ivy icon them published under the CC-BY-SA_V4: http://creativecommons.org/licenses/by-sa/4.0 -->
</svg>
