<?xml version="1.0" encoding="UTF-8" standalone="no"?><svg viewBox="0 0 48 48" xmlns:svg="http://www.w3.org/2000/svg" xmlns="http://www.w3.org/2000/svg" xmlns:rdf="http://www.w3.org/1999/02/22-rdf-syntax-ns#" xmlns:xlink="http://www.w3.org/1999/xlink" version="1.1" id="svg2" xmlns:dc="http://purl.org/dc/elements/1.1/" xmlns:cc="http://creativecommons.org/ns#"><defs id="defs4"><linearGradient id="linearGradient4174"><stop id="stop4176" stop-color="#ffd506"/><stop offset="1" id="stop4178" stop-color="#ffe461"/></linearGradient><linearGradient id="linearGradient4166"><stop id="stop4168" stop-color="#fff"/><stop stop-opacity="0" offset="1" id="stop4170" stop-color="#fff"/></linearGradient><linearGradient x1="19" xlink:href="#linearGradient4166" y1="1009.3622" x2="18.8125" y2="1014.3613" id="linearGradient4172" gradientUnits="userSpaceOnUse"/><linearGradient xlink:href="#linearGradient4174" y1="1009.3622" x2="0" y2="1019.3622" id="linearGradient4180" gradientUnits="userSpaceOnUse"/></defs><g transform="matrix(1 0 0 1 0 -1004.3622)" id="layer1"><g id="g4184"><path opacity="0.15" id="ellipse4182" d="m 22,1015.3622 a 8,7.9999881 0 0 1 -8,8 8,7.9999881 0 0 1 -8,-8 8,7.9999881 0 0 1 8,-8 8,7.9999881 0 0 1 8,8 z"/><path id="path3338" d="m 22,1014.3622 a 8,7.9999881 0 0 1 -8,8 8,7.9999881 0 0 1 -8,-8 8,7.9999881 0 0 1 8,-8 8,7.9999881 0 0 1 8,8 z" fill="#6a6a6a"/><path id="path3346" d="m 14,1009.5547 c -2.516899,0 -4.8066444,2.2897 -4.8066406,4.8066 -3.8e-6,2.5169 2.2897416,4.8067 4.8066406,4.8067 2.516899,0 4.806644,-2.2898 4.806641,-4.8067 3e-6,-2.5169 -2.289742,-4.8066 -4.806641,-4.8066 z" fill="url(#linearGradient4180)"/><path stroke="#000" opacity="0.6" id="path3350" d="m 14,1006.8652 c -1.96227,0 -3.913248,0.8078 -5.3007812,2.1953 -1.3875331,1.3876 -2.1953155,3.3386 -2.1953126,5.3008 -2.9e-6,1.9623 0.8077795,3.9133 2.1953126,5.3008 1.3875332,1.3875 3.3385112,2.1953 5.3007812,2.1953 1.96227,0 3.913248,-0.8078 5.300781,-2.1953 1.387533,-1.3875 2.195316,-3.3385 2.195313,-5.3008 3e-6,-1.9622 -0.80778,-3.9132 -2.195313,-5.3008 C 17.913248,1007.673 15.96227,1006.8652 14,1006.8652 Z" fill="none"/><path stroke="#000" opacity="0.6" id="path3354" d="m 14,1009.0273 c -2.837138,0 -5.3339887,2.4969 -5.3339844,5.334 -4.3e-6,2.8372 2.4968324,5.334 5.3339844,5.334 2.837152,0 5.333988,-2.4968 5.333984,-5.334 4e-6,-2.8371 -2.496846,-5.334 -5.333984,-5.334 z" fill="none"/><path stroke="url(#linearGradient4172)" opacity="0.4" id="path4156" d="m 14,1010.0488 c -2.217086,0 -4.3125033,2.0954 -4.3125,4.3125 -3.3e-6,2.2171 2.095427,4.3125 4.3125,4.3125 2.217073,0 4.312503,-2.0954 4.3125,-4.3125 3e-6,-2.2171 -2.095414,-4.3125 -4.3125,-4.3125 z" fill="none"/></g><g transform="matrix(1 0 0 1 20 14.000005)" id="g4192"><path opacity="0.15" id="ellipse4194" d="m 22,1015.3622 a 8,7.9999881 0 0 1 -8,8 8,7.9999881 0 0 1 -8,-8 8,7.9999881 0 0 1 8,-8 8,7.9999881 0 0 1 8,8 z"/><path id="ellipse4196" d="m 22,1014.3622 a 8,7.9999881 0 0 1 -8,8 8,7.9999881 0 0 1 -8,-8 8,7.9999881 0 0 1 8,-8 8,7.9999881 0 0 1 8,8 z" fill="#6a6a6a"/><path id="path4198" d="m 14,1009.5547 c -2.516899,0 -4.8066444,2.2897 -4.8066406,4.8066 -3.8e-6,2.5169 2.2897416,4.8067 4.8066406,4.8067 2.516899,0 4.806644,-2.2898 4.806641,-4.8067 3e-6,-2.5169 -2.289742,-4.8066 -4.806641,-4.8066 z" fill="url(#linearGradient4180)"/><path stroke="#000" opacity="0.6" id="path4200" d="m 14,1006.8652 c -1.96227,0 -3.913248,0.8078 -5.3007812,2.1953 -1.3875331,1.3876 -2.1953155,3.3386 -2.1953126,5.3008 -2.9e-6,1.9623 0.8077795,3.9133 2.1953126,5.3008 1.3875332,1.3875 3.3385112,2.1953 5.3007812,2.1953 1.96227,0 3.913248,-0.8078 5.300781,-2.1953 1.387533,-1.3875 2.195316,-3.3385 2.195313,-5.3008 3e-6,-1.9622 -0.80778,-3.9132 -2.195313,-5.3008 C 17.913248,1007.673 15.96227,1006.8652 14,1006.8652 Z" fill="none"/><path stroke="#000" opacity="0.6" id="path4202" d="m 14,1009.0273 c -2.837138,0 -5.3339887,2.4969 -5.3339844,5.334 -4.3e-6,2.8372 2.4968324,5.334 5.3339844,5.334 2.837152,0 5.333988,-2.4968 5.333984,-5.334 4e-6,-2.8371 -2.496846,-5.334 -5.333984,-5.334 z" fill="none"/><path stroke="url(#linearGradient4172)" opacity="0.4" id="path4204" d="m 14,1010.0488 c -2.217086,0 -4.3125033,2.0954 -4.3125,4.3125 -3.3e-6,2.2171 2.095427,4.3125 4.3125,4.3125 2.217073,0 4.312503,-2.0954 4.3125,-4.3125 3e-6,-2.2171 -2.095414,-4.3125 -4.3125,-4.3125 z" fill="none"/></g><g transform="matrix(1 0 0 1 0 27.000005)" id="g4210"><path opacity="0.15" id="ellipse4212" d="m 22,1015.3622 a 8,7.9999881 0 0 1 -8,8 8,7.9999881 0 0 1 -8,-8 8,7.9999881 0 0 1 8,-8 8,7.9999881 0 0 1 8,8 z"/><path id="ellipse4214" d="m 22,1014.3622 a 8,7.9999881 0 0 1 -8,8 8,7.9999881 0 0 1 -8,-8 8,7.9999881 0 0 1 8,-8 8,7.9999881 0 0 1 8,8 z" fill="#6a6a6a"/><path id="path4216" d="m 14,1009.5547 c -2.516899,0 -4.8066444,2.2897 -4.8066406,4.8066 -3.8e-6,2.5169 2.2897416,4.8067 4.8066406,4.8067 2.516899,0 4.806644,-2.2898 4.806641,-4.8067 3e-6,-2.5169 -2.289742,-4.8066 -4.806641,-4.8066 z" fill="url(#linearGradient4180)"/><path stroke="#000" opacity="0.6" id="path4218" d="m 14,1006.8652 c -1.96227,0 -3.913248,0.8078 -5.3007812,2.1953 -1.3875331,1.3876 -2.1953155,3.3386 -2.1953126,5.3008 -2.9e-6,1.9623 0.8077795,3.9133 2.1953126,5.3008 1.3875332,1.3875 3.3385112,2.1953 5.3007812,2.1953 1.96227,0 3.913248,-0.8078 5.300781,-2.1953 1.387533,-1.3875 2.195316,-3.3385 2.195313,-5.3008 3e-6,-1.9622 -0.80778,-3.9132 -2.195313,-5.3008 C 17.913248,1007.673 15.96227,1006.8652 14,1006.8652 Z" fill="none"/><path stroke="#000" opacity="0.6" id="path4220" d="m 14,1009.0273 c -2.837138,0 -5.3339887,2.4969 -5.3339844,5.334 -4.3e-6,2.8372 2.4968324,5.334 5.3339844,5.334 2.837152,0 5.333988,-2.4968 5.333984,-5.334 4e-6,-2.8371 -2.496846,-5.334 -5.333984,-5.334 z" fill="none"/><path stroke="url(#linearGradient4172)" opacity="0.4" id="path4222" d="m 14,1010.0488 c -2.217086,0 -4.3125033,2.0954 -4.3125,4.3125 -3.3e-6,2.2171 2.095427,4.3125 4.3125,4.3125 2.217073,0 4.312503,-2.0954 4.3125,-4.3125 3e-6,-2.2171 -2.095414,-4.3125 -4.3125,-4.3125 z" fill="none"/></g></g><metadata id="metadata9999"><rdf:RDF><cc:Work><dc:format>image/svg+xml</dc:format><dc:type rdf:resource="http://purl.org/dc/dcmitype/StillImage"/><dc:title>Ivy icon theme</dc:title><cc:license rdf:resource="http://creativecommons.org/licenses/by-sa/4.0/"/><dc:creator><cc:Agent><dc:title>Sixsixfive (sixsixfive.deviantart.com)</dc:title></cc:Agent></dc:creator><dc:publisher><cc:Agent><dc:title>Sixsixfive (sixsixfive.deviantart.com)</dc:title></cc:Agent></dc:publisher><dc:source>https://github.com/sixsixfive</dc:source><dc:subject><rdf:Bag><rdf:li>ivy</rdf:li></rdf:Bag></dc:subject><dc:contributor><cc:Agent><dc:title>ssf</dc:title></cc:Agent></dc:contributor><dc:rights><cc:Agent><dc:title>Sixsixfive (sixisixfive.deviantart.com)</dc:title></cc:Agent></dc:rights><dc:description>A simple icon theme published under CC-BY-SA_V4(http://creativecommons.org/licenses/by-sa/4.0)</dc:description><dc:identifier>SSF</dc:identifier></cc:Work></rdf:RDF></metadata><!--Part of the Ivy icon them published under the CC-BY-SA_V4: http://creativecommons.org/licenses/by-sa/4.0 -->
</svg>