<?xml version="1.0" encoding="UTF-8" standalone="no"?>
<svg
   xmlns:dc="http://purl.org/dc/elements/1.1/"
   xmlns:cc="http://creativecommons.org/ns#"
   xmlns:rdf="http://www.w3.org/1999/02/22-rdf-syntax-ns#"
   xmlns:svg="http://www.w3.org/2000/svg"
   xmlns="http://www.w3.org/2000/svg"
   xmlns:xlink="http://www.w3.org/1999/xlink"
   version="1.1"
   viewBox="0 0 48 48"
   id="svg2">
  <path
     style="fill:#000000;fill-opacity:1;fill-rule:evenodd;stroke:none;opacity:0.1"
     d="M 21.585492,2 C 21.556882,2.065754 21.495539,2.042642 21.446888,2.046875 20.766225,2.10635 20.087143,2.1831101 19.415356,2.3085937 14.50251,3.2269608 10.46773,5.6057831 7.3449704,9.4492187 4.7764177,12.610008 3.3617917,16.236391 3.0561818,20.279297 c -0.1479914,1.959459 -0.00344,3.899484 0.4316509,5.814453 0.3236054,1.425036 0.8061016,2.801631 1.4553369,4.117187 0.057005,0.112234 0.1125068,0.224454 0.1702842,0.335938 1.0666022,2.071695 2.4387198,3.919156 4.1581055,5.513672 0.9054267,0.839377 1.8727257,1.597753 2.9205737,2.253906 3.209168,2.009205 6.712586,3.061882 10.518026,3.109375 0.233393,0.0027 0.296295,0.05996 0.295028,0.294922 -0.01066,2.009204 -0.0046,4.019841 -0.004,6.029297 2.43e-4,0.07774 0.0054,0.155218 0.0099,0.251953 0.06588,-0.02649 0.106734,-0.04009 0.146523,-0.05859 3.825718,-1.772989 7.338618,-4.013927 10.470506,-6.822265 0.62313,-0.558667 1.220206,-1.144246 1.793925,-1.753907 0.2453,-0.260462 0.488032,-0.526897 0.734598,-0.787109 0.380115,-0.40119 0.708927,-0.847592 1.067248,-1.269531 0.413817,-0.486928 0.785959,-1.004467 1.152389,-1.525391 0.810149,-1.151331 1.532252,-2.354234 2.140434,-3.623047 0.307639,-0.641406 0.602085,-1.287566 0.861322,-1.949219 0.0086,-0.01226 0.02067,-0.02336 0.02574,-0.03711 0.706505,-1.811734 1.15865,-3.68541 1.399895,-5.609375 0.08438,-0.669403 0.138054,-1.343673 0.172264,-2.017578 0.07349,-1.449531 -0.0218,-2.893027 -0.287107,-4.320313 C 41.981095,14.420371 40.291078,11.097103 37.621918,8.2597656 36.495262,7.0619423 35.233519,6.0203391 33.840022,5.1367187 31.244855,3.4909614 28.417796,2.4824513 25.351547,2.125 24.978025,2.0812576 24.599296,2.0867014 24.230838,2 l -2.645346,0 z"
     id="path4235" />
  <defs
     id="defs4">
    <linearGradient
       id="linearGradient4199">
      <stop
         id="stop4201"
         offset="0"
         style="stop-color:#ffffff;stop-opacity:1;" />
      <stop
         id="stop4203"
         offset="1"
         style="stop-color:#ffffff;stop-opacity:0;" />
    </linearGradient>
    <linearGradient
       id="linearGradient4185">
      <stop
         id="stop4187"
         offset="0"
         style="stop-color:#66b03e;stop-opacity:1;" />
      <stop
         id="stop4189"
         offset="1"
         style="stop-color:#82c65d;stop-opacity:1" />
    </linearGradient>
    <linearGradient
       gradientUnits="userSpaceOnUse"
       y2="47"
       x2="30"
       y1="1"
       x1="30"
       id="linearGradient4191"
       xlink:href="#linearGradient4185" />
    <linearGradient
       gradientUnits="userSpaceOnUse"
       y2="46"
       x2="26"
       y1="2"
       x1="26"
       id="linearGradient4205"
       xlink:href="#linearGradient4199" />
  </defs>
  <metadata
     id="metadata9999">
    <rdf:RDF>
      <cc:Work>
        <dc:format>image/svg+xml</dc:format>
        <dc:type
           rdf:resource="http://purl.org/dc/dcmitype/StillImage" />
        <dc:title></dc:title>
        <cc:license
           rdf:resource="http://creativecommons.org/licenses/by-sa/4.0/" />
        <dc:creator>
          <cc:Agent>
            <dc:title>Sixsixfive (sixsixfive.deviantart.com)</dc:title>
          </cc:Agent>
        </dc:creator>
        <dc:publisher>
          <cc:Agent>
            <dc:title>Sixsixfive (sixsixfive.deviantart.com)</dc:title>
          </cc:Agent>
        </dc:publisher>
        <dc:source>https://github.com/sixsixfive</dc:source>
        <dc:subject>
          <rdf:Bag>
            <rdf:li>ivy</rdf:li>
          </rdf:Bag>
        </dc:subject>
        <dc:contributor>
          <cc:Agent>
            <dc:title>ssf</dc:title>
          </cc:Agent>
        </dc:contributor>
        <dc:rights>
          <cc:Agent>
            <dc:title>Sixsixfive (sixisixfive.deviantart.com)</dc:title>
          </cc:Agent>
        </dc:rights>
        <dc:description>A simple icon theme published under CC-BY-SA_V4(http://creativecommons.org/licenses/by-sa/4.0)</dc:description>
        <dc:identifier>SSF</dc:identifier>
      </cc:Work>
    </rdf:RDF>
  </metadata>
  <!--Part of the Ivy icon them published under the CC-BY-SA_V4: http://creativecommons.org/licenses/by-sa/4.0 -->
  <path
     id="path164"
     d="M 21.585492,1 C 21.556882,1.065754 21.495539,1.042642 21.446888,1.046875 20.766225,1.10635 20.087143,1.1831101 19.415356,1.3085937 14.50251,2.2269608 10.46773,4.6057831 7.3449704,8.4492187 4.7764177,11.610008 3.3617917,15.236391 3.0561818,19.279297 c -0.1479914,1.959459 -0.00344,3.899484 0.4316509,5.814453 0.3236054,1.425036 0.8061016,2.801631 1.4553369,4.117187 0.057005,0.112234 0.1125068,0.224454 0.1702842,0.335938 1.0666022,2.071695 2.4387198,3.919156 4.1581055,5.513672 0.9054267,0.839377 1.8727257,1.597753 2.9205737,2.253906 3.209168,2.009205 6.712586,3.061882 10.518026,3.109375 0.233393,0.0027 0.296295,0.05996 0.295028,0.294922 -0.01066,2.009204 -0.0046,4.019841 -0.004,6.029297 2.43e-4,0.07774 0.0054,0.155218 0.0099,0.251953 0.06588,-0.02649 0.106734,-0.04009 0.146523,-0.05859 3.825718,-1.772989 7.338618,-4.013927 10.470506,-6.822265 0.62313,-0.558667 1.220206,-1.144246 1.793925,-1.753907 0.2453,-0.260462 0.488032,-0.526897 0.734598,-0.787109 0.380115,-0.40119 0.708927,-0.847592 1.067248,-1.269531 0.413817,-0.486928 0.785959,-1.004467 1.152389,-1.525391 0.810149,-1.151331 1.532252,-2.354234 2.140434,-3.623047 0.307639,-0.641406 0.602085,-1.287566 0.861322,-1.949219 0.0086,-0.01226 0.02067,-0.02336 0.02574,-0.03711 0.706505,-1.811734 1.15865,-3.68541 1.399895,-5.609375 0.08438,-0.669403 0.138054,-1.343673 0.172264,-2.017578 0.07349,-1.449531 -0.0218,-2.893027 -0.287107,-4.320313 C 41.981095,13.420371 40.291078,10.097103 37.621918,7.2597656 36.495262,6.0619423 35.233519,5.0203391 33.840022,4.1367187 31.244855,2.4909614 28.417796,1.4824513 25.351547,1.125 24.978025,1.0812576 24.599296,1.0867014 24.230838,1 l -2.645346,0 z"
     style="fill:url(#linearGradient4191);fill-opacity:1;fill-rule:evenodd;stroke:none" />
  <g
     transform="translate(1.9984015,0)"
     id="g4230">
    <path
       style="opacity:0.4;fill:#000000;fill-opacity:1;fill-rule:evenodd;stroke:none"
       id="path4228"
       d="m 19.007812,12.974609 c -2.392192,0.006 -4.800192,-0.0212 -7.21875,0.01563 a 1.0269826,1.0269826 0 0 0 -0.134765,0.01172 c -0.636689,0.09431 -1.142648,0.521295 -1.402344,0.990235 -0.2596958,0.468939 -0.3383137,0.990671 -0.232422,1.515624 l -0.021484,-0.199218 c 0.00706,2.285247 -0.02608,4.588087 0.00977,6.904297 a 1.0269826,1.0269826 0 0 0 0.01563,0.158203 c 0.104155,0.609206 0.510815,1.089225 0.957031,1.345703 0.446215,0.256478 0.939816,0.345189 1.441406,0.271484 L 12.271484,24 c 1.166203,0.0015 2.333342,0.0038 3.5,0.0059 -0.03745,0.09195 -0.01772,0.131475 -0.06641,0.226563 -0.217411,0.36535 -0.738325,0.633632 -1.412109,0.777344 l 0.242187,-0.02344 c -0.126673,-0.0033 -0.35133,-0.06587 -0.759765,0.126953 -0.408436,0.19282 -0.651161,0.664065 -0.714844,0.949219 -0.121993,0.546251 -0.08683,1.084266 -0.08399,2.128906 -0.04278,0.469344 0.152096,1.079675 0.558594,1.396485 0.406498,0.316809 0.810677,0.346393 1.126953,0.345703 0.632554,-0.0014 1.157231,-0.183392 1.376953,-0.238282 a 1.0269826,1.0269826 0 0 0 0.0332,-0.0078 c 1.765402,-0.501778 3.27078,-1.733121 4.09375,-3.388672 0.742619,-1.402924 0.911196,-2.94418 0.855468,-4.373047 l 0.002,0.04102 c 0.0025,-2.382741 0.01489,-4.777295 -0.01563,-7.173828 a 1.0269826,1.0269826 0 0 0 -0.01953,-0.185547 C 20.811264,13.713991 20.035807,12.94365 19.007812,12.974609 Z m 12.998047,0.002 c -2.392192,0.006 -4.80019,-0.0212 -7.21875,0.01563 a 1.0269826,1.0269826 0 0 0 -0.134765,0.01172 c -0.63669,0.09431 -1.142648,0.521296 -1.402344,0.990235 -0.259696,0.468939 -0.338315,0.99067 -0.232422,1.515625 l -0.02148,-0.199219 c 0.0071,2.28525 -0.02607,4.588093 0.0098,6.904297 a 1.0269826,1.0269826 0 0 0 0.01563,0.158203 c 0.104155,0.609205 0.510816,1.089225 0.957032,1.345703 0.446215,0.256478 0.939816,0.345189 1.441406,0.271484 l -0.150391,0.01172 c 1.166204,0.0015 2.333342,0.0038 3.5,0.0059 -0.03745,0.09195 -0.01772,0.131476 -0.06641,0.226563 -0.217411,0.365351 -0.738325,0.633632 -1.412109,0.777344 l 0.242187,-0.02344 c -0.126666,-0.0033 -0.351328,-0.06587 -0.759765,0.126953 -0.408438,0.192821 -0.651158,0.664066 -0.714844,0.949219 -0.122001,0.54625 -0.08683,1.084258 -0.08398,2.128906 -0.04278,0.469344 0.152096,1.079675 0.558594,1.396485 0.406498,0.316809 0.810676,0.346393 1.126953,0.345703 0.632554,-0.0014 1.157231,-0.183392 1.376953,-0.238281 a 1.0269826,1.0269826 0 0 0 0.0332,-0.0078 c 1.765405,-0.501778 3.270781,-1.733122 4.09375,-3.388672 0.74262,-1.402925 0.911197,-2.94418 0.855469,-4.373047 l 0.002,0.04102 c 0.0025,-2.382744 0.01488,-4.777301 -0.01563,-7.173828 a 1.0269826,1.0269826 0 0 0 -0.01953,-0.185547 C 33.80931,13.715942 33.033855,12.945603 32.005859,12.976562 Z" />
    <path
       style="fill:#ffffff;fill-opacity:1;fill-rule:evenodd;stroke:none"
       d="m 19.039062,14.001953 c -2.411338,0.0063 -4.824205,-0.02107 -7.234374,0.01563 -0.594512,0.08806 -0.889496,0.740806 -0.779297,1.28711 0.0071,2.297159 -0.02573,4.596773 0.0098,6.892578 0.09657,0.564841 0.708932,0.853174 1.238282,0.77539 1.583055,0.0021 3.166944,0.005 4.75,0.0078 0.11894,0.592583 -0.142508,1.236296 -0.419922,1.761719 -0.436171,0.750862 -1.285443,1.098663 -2.095704,1.271484 C 13.999184,26.000483 14,25.999047 14,28.285156 c -0.08838,0.969676 1.251737,0.548781 1.791016,0.414063 1.48816,-0.422978 2.775786,-1.476037 3.46289,-2.865235 0.630893,-1.183465 0.793791,-2.546034 0.742188,-3.86914 0.0025,-2.385534 0.01473,-4.773912 -0.01563,-7.158203 -0.08851,-0.446721 -0.471071,-0.818853 -0.941407,-0.804688 z m 12.998047,0.002 c -2.411338,0.0063 -4.824205,-0.02107 -7.234375,0.01563 -0.594511,0.08806 -0.889495,0.740807 -0.779296,1.28711 0.0071,2.297159 -0.02572,4.596773 0.0098,6.892578 0.09657,0.564841 0.708931,0.853174 1.238281,0.77539 1.583056,0.0021 3.166945,0.005 4.75,0.0078 0.118941,0.592583 -0.142507,1.236297 -0.419922,1.761719 -0.436171,0.750863 -1.285442,1.098663 -2.095703,1.271484 -0.508628,-0.01319 -0.507812,-0.01463 -0.507812,2.271484 -0.08838,0.969676 1.251736,0.548781 1.791015,0.414063 1.488161,-0.422978 2.775787,-1.476036 3.462891,-2.865234 0.630893,-1.183465 0.793791,-2.546035 0.742188,-3.869141 0.0025,-2.385534 0.01472,-4.773912 -0.01563,-7.158203 -0.08851,-0.446721 -0.471072,-0.818853 -0.941407,-0.804688 z"
       id="path4218" />
    <path
       style="fill:#ffffff;fill-opacity:1;fill-rule:evenodd;stroke:none"
       d="m 30.169922,29.773438 c -0.01679,0.0095 -0.03427,0.01785 -0.05078,0.02734 0.01651,-0.0095 0.03405,-0.01785 0.05078,-0.02734 z"
       id="path168" />
  </g>
  <path
     d="m 21.644531,1.53125 c -0.01959,0.00596 -0.04233,0.041038 -0.05859,0.042969 -0.135939,0.016145 -0.170036,0.00876 -0.0918,0.00195 -0.671674,0.058689 -1.333775,0.1350629 -1.980469,0.2558593 C 14.712232,2.7295729 10.806889,5.0324087 7.7578125,8.7851562 5.254561,11.865588 3.8859992,15.376641 3.5878906,19.320312 c -0.1440457,1.907218 -0.00361,3.792164 0.4199219,5.65625 0.314392,1.384464 0.7808103,2.718095 1.4101563,3.994141 0.059119,0.116396 0.1136752,0.22727 0.1679687,0.332031 1.0405172,2.021029 2.3742425,3.81603 4.046875,5.367188 0.8841425,0.819645 1.8254955,1.55696 2.8417965,2.193359 3.13233,1.961098 6.530768,2.982978 10.242188,3.029297 0.159647,0.0018 0.392568,0.0052 0.603515,0.212891 0.210948,0.207683 0.217688,0.450123 0.216797,0.615234 -0.0096,1.80015 -0.0053,3.604454 -0.0039,5.408203 3.54118,-1.704666 6.821415,-3.788969 9.740235,-6.40625 C 33.884554,39.17476 34.470966,38.599535 35.035156,38 c 0.241136,-0.25604 0.482892,-0.521708 0.734375,-0.787109 0.350305,-0.369728 0.674961,-0.807802 1.048828,-1.248047 0.395264,-0.465097 0.758726,-0.970356 1.123047,-1.488282 0.795428,-1.13041 1.501838,-2.30793 2.095703,-3.546874 0.304632,-0.635137 0.593466,-1.268322 0.845703,-1.91211 a 0.53211288,0.53211288 0 0 1 0.03711,-0.07422 c 0.681085,-1.756102 1.120721,-3.573168 1.355469,-5.445312 0.08244,-0.654005 0.136272,-1.315627 0.169921,-1.978516 0.07141,-1.408462 -0.02159,-2.80889 -0.279296,-4.195312 C 41.475964,13.613097 39.838333,10.393027 37.234375,7.625 36.138009,6.4593803 34.91109,5.4460363 33.554688,4.5859375 31.024075,2.9811178 28.278343,2.0027754 25.289062,1.6542969 24.994415,1.6197913 24.624763,1.6078902 24.226562,1.53125 l -2.582031,0 z"
     id="path4195"
     style="opacity:0.4;fill:none;fill-opacity:1;fill-rule:evenodd;stroke:#000000" />
  <path
     style="opacity:0.4;fill:none;fill-opacity:1;fill-rule:evenodd;stroke:url(#linearGradient4205)"
     id="path4197"
     d="m 21.751953,2.5058594 c -0.0147,0.00288 -0.03726,0.035503 -0.05078,0.037109 -0.339139,0.040278 -0.389164,0.029014 -0.123047,0.00586 l 0,-0.00195 C 20.922918,2.6041257 20.294087,2.6768521 19.693359,2.7890625 15.095995,3.648456 11.429728,5.8118134 8.515625,9.3984375 a 1.5068433,1.5068433 0 0 1 0,0.00195 C 6.131993,12.333622 4.8429613,15.630686 4.5585938,19.392578 c -0.1368181,1.811521 -0.00392,3.596307 0.3984374,5.367188 0.2984258,1.314154 0.742217,2.578132 1.3378907,3.785156 0.059093,0.116635 0.1106418,0.220591 0.15625,0.308594 a 1.5068433,1.5068433 0 0 1 0.00195,0.0039 c 0.9927341,1.928218 2.2567606,3.625921 3.84375,5.097656 0.844812,0.783068 1.73528,1.48209 2.693359,2.082031 2.991014,1.872623 6.199882,2.836352 9.738282,2.88086 0.238324,0.0028 0.759935,-0.01529 1.27539,0.492187 0.515455,0.507479 0.509174,1.064045 0.507813,1.316406 -0.0066,1.247982 -0.003,2.503044 -0.002,3.75586 2.913068,-1.533467 5.664639,-3.288698 8.113281,-5.484375 0.58911,-0.528167 1.154437,-1.08503 1.701172,-1.666016 0.233507,-0.24794 0.47779,-0.516108 0.738281,-0.791015 0.295699,-0.312094 0.611327,-0.733252 1.013672,-1.207032 a 1.5068433,1.5068433 0 0 1 0,-0.002 c 0.361278,-0.425107 0.707902,-0.903583 1.068359,-1.416015 0.768462,-1.092088 1.446033,-2.22202 2.013672,-3.40625 a 1.5068433,1.5068433 0 0 1 0,-0.002 c 0.299123,-0.623651 0.578944,-1.23464 0.818359,-1.845703 a 1.5068433,1.5068433 0 0 1 0.03516,-0.07813 c 0.648303,-1.67336 1.071298,-3.408026 1.296875,-5.207031 0.07888,-0.625799 0.131437,-1.263542 0.164062,-1.90625 0.06759,-1.333233 -0.01987,-2.657183 -0.263672,-3.96875 C 40.551316,13.964985 39.007957,10.934032 36.523438,8.2929688 35.482558,7.18634 34.321657,6.225215 33.033203,5.4082031 30.620841,3.8783737 28.026022,2.9531359 25.177734,2.6210938 a 1.5068433,1.5068433 0 0 1 -0.002,0 C 24.994773,2.5998962 24.600462,2.5621961 24.210938,2.5058594 l -2.458985,0 z" />
</svg>
