<?xml version="1.0" encoding="UTF-8" standalone="no"?>
<svg
   xmlns:dc="http://purl.org/dc/elements/1.1/"
   xmlns:cc="http://creativecommons.org/ns#"
   xmlns:rdf="http://www.w3.org/1999/02/22-rdf-syntax-ns#"
   xmlns:svg="http://www.w3.org/2000/svg"
   xmlns="http://www.w3.org/2000/svg"
   xmlns:xlink="http://www.w3.org/1999/xlink"
   version="1.1"
   viewBox="0 0 48 48"
   id="svg2">
  <defs
     id="0">
    <linearGradient
       id="linearGradient4202">
      <stop
         style="stop-color:#6194d6;stop-opacity:1"
         id="stop4204"
         stop-color="#ff8b36" />
      <stop
         style="stop-color:#82a9de;stop-opacity:1"
         id="stop4206"
         offset="1"
         stop-color="#ffa15a" />
    </linearGradient>
    <linearGradient
       id="9">
      <stop
         id="F"
         stop-color="#fff" />
      <stop
         stop-opacity="0"
         id="G"
         stop-color="#fff"
         offset="1" />
    </linearGradient>
    <linearGradient
       gradientUnits="userSpaceOnUse"
       x2="0"
       y2="45"
       y1="3"
       xlink:href="#9"
       id="A" />
    <linearGradient
       gradientUnits="userSpaceOnUse"
       y2="47"
       x2="0"
       y1="2"
       id="linearGradient4208"
       xlink:href="#linearGradient4202" />
    <mask
       id="mask4173"
       maskUnits="userSpaceOnUse">
      <rect
         style="fill:#ffffff;fill-rule:evenodd"
         ry="6"
         width="44"
         x="2"
         y="2"
         rx="6"
         height="44"
         id="rect4175" />
    </mask>
  </defs>
  <symbol
     fill-rule="evenodd"
     transform="translate(289.77752,-235.70156)"
     id="4"
     viewBox="89.4717 132.972 31.0566 31.0566">
    <path
       stroke-width="0.076"
       stroke="#1f1a17"
       fill="none"
       d="m 97.2549,133.01 15.4902,0 c 4.2599,0 7.7451,3.4852 7.7451,7.7451 l 0,15.4902 c 0,4.2599 -3.4852,7.7451 -7.7451,7.7451 l -15.4902,0 c -4.2599,0 -7.7451,-3.4852 -7.7451,-7.7451 l 0,-15.4902 c 0,-4.2599 3.4852,-7.7451 7.7451,-7.7451 z"
       id="C" />
  </symbol>
  <g
     transform="matrix(-1,0,0,1,47.950095,0)"
     id="g4199">
    <rect
       style="opacity:0.1;fill-rule:evenodd"
       ry="6"
       width="44"
       x="2"
       y="3"
       rx="6"
       height="44"
       id="1" />
    <rect
       style="fill:url(#linearGradient4208);fill-rule:evenodd"
       ry="6"
       width="44"
       x="2"
       y="2"
       rx="6"
       height="44"
       id="2" />
    <path
       style="fill:#2f65af;fill-opacity:1;fill-rule:evenodd;stroke:none;stroke-width:2;stroke-linecap:butt;stroke-linejoin:miter;stroke-miterlimit:4;stroke-dasharray:none;stroke-opacity:1"
       d="m 14.355469,12.998047 c -0.495037,0.182088 4.468009,2.802226 3.236328,15.400391 C 17.044993,33.99138 8.7412262,32.382595 2,32.90625 L 2,40 c 0,3.324 2.676,6 6,6 l 32,0 c 3.324,0 6,-2.676 6,-6 l 0,-6.710938 C 40.633122,32.991795 35.652097,32.627573 33.460938,28.6875 27.02104,17.107485 17.855681,13.505813 14.935547,13.046875 c -0.327468,-0.05147 -0.509359,-0.07484 -0.580078,-0.04883 z"
       id="path4158" />
    <path
       style="opacity:1;fill:none;fill-rule:evenodd;stroke:#ebebeb;stroke-width:2;stroke-linecap:butt;stroke-linejoin:miter;stroke-miterlimit:4;stroke-dasharray:none;stroke-opacity:1"
       d="M -3,34 C 3.600205,30.945011 16.895829,35.522355 17.592364,28.397902 19,14 12.316667,12.63605 14.93641,13.047779 17.856544,13.506717 27.021394,17.107518 33.461292,28.687533 37.181716,35.37748 48.90468,31.774969 57,35"
       id="path3356"
       mask="url(#mask4173)" />
    <path
       style="opacity:0.6;fill:none;stroke:#000000"
       id="5"
       d="M 8,2.53125 C 4.9541958,2.53125 2.53125,4.9541958 2.53125,8 l 0,32 c 0,3.045804 2.4229458,5.46875 5.46875,5.46875 l 32,0 c 3.045804,0 5.46875,-2.422946 5.46875,-5.46875 l 0,-32 C 45.46875,4.9541958 43.045804,2.53125 40,2.53125 l -32,0 z" />
    <path
       style="opacity:0.3;fill:none;stroke:url(#A)"
       id="6"
       d="M 8,3.53125 C 5.4930705,3.53125 3.53125,5.4930705 3.53125,8 l 0,32 c 0,2.50693 1.9618205,4.46875 4.46875,4.46875 l 32,0 c 2.50693,0 4.46875,-1.96182 4.46875,-4.46875 l 0,-32 C 44.46875,5.4930705 42.50693,3.53125 40,3.53125 l -32,0 z" />
  </g>
  <metadata
     id="metadata9999">
    <rdf:RDF>
      <cc:Work>
        <dc:format>image/svg+xml</dc:format>
        <dc:type
           rdf:resource="http://purl.org/dc/dcmitype/StillImage" />
        <dc:title></dc:title>
        <cc:license
           rdf:resource="http://creativecommons.org/licenses/by-sa/4.0/" />
        <dc:creator>
          <cc:Agent>
            <dc:title>Sixsixfive (sixsixfive.deviantart.com)</dc:title>
          </cc:Agent>
        </dc:creator>
        <dc:publisher>
          <cc:Agent>
            <dc:title>Sixsixfive (sixsixfive.deviantart.com)</dc:title>
          </cc:Agent>
        </dc:publisher>
        <dc:source>https://github.com/sixsixfive</dc:source>
        <dc:subject>
          <rdf:Bag>
            <rdf:li>ivy</rdf:li>
          </rdf:Bag>
        </dc:subject>
        <dc:contributor>
          <cc:Agent>
            <dc:title>ssf</dc:title>
          </cc:Agent>
        </dc:contributor>
        <dc:rights>
          <cc:Agent>
            <dc:title>Sixsixfive (sixisixfive.deviantart.com)</dc:title>
          </cc:Agent>
        </dc:rights>
        <dc:description>A simple icon theme published under CC-BY-SA_V4(http://creativecommons.org/licenses/by-sa/4.0)</dc:description>
        <dc:identifier>SSF</dc:identifier>
      </cc:Work>
    </rdf:RDF>
  </metadata>
  <!--Part of the Ivy icon them published under the CC-BY-SA_V4: http://creativecommons.org/licenses/by-sa/4.0 -->
</svg>
