<?xml version="1.0" encoding="UTF-8" standalone="no"?><svg xmlns:svg="http://www.w3.org/2000/svg" xmlns="http://www.w3.org/2000/svg" viewBox="0 0 16 16" xmlns:rdf="http://www.w3.org/1999/02/22-rdf-syntax-ns#" version="1.1" id="svg2" xmlns:dc="http://purl.org/dc/elements/1.1/" xmlns:cc="http://creativecommons.org/ns#"><defs id="defs4"><linearGradient y1="9.966" x2="0" y2="41.29" id="0" gradientTransform="matrix(0.47319 0 0 0.51007 -5.185 -5.072)" gradientUnits="userSpaceOnUse"><stop id="stop7" stop-color="#5288d1"/><stop offset="1" id="stop9" stop-color="#729eda"/></linearGradient><linearGradient y1="1.125" x2="0" y2="14.875" id="1" gradientUnits="userSpaceOnUse"><stop id="stop12" stop-color="#fff"/><stop stop-opacity="0" offset="1" id="stop14" stop-color="#fff"/></linearGradient><mask id="2"><path id="path17" d="m 42.945315 23.837399 a 18.567056 18.567056 0 0 1 -37.13411 0 18.567056 18.567056 0 1 1 37.13411 0 z" fill="#fff"/></mask></defs><path id="path19" d="M 15.9881 8 A 7.98815 7.98815 0 1 1 0.0118 8 7.98815 7.98815 0 1 1 15.9881 8 z" fill="url(#0)"/><path id="path21" transform="matrix(0.43023 0 0 0.43023 -2.488 -2.256)" mask="url(#2)" d="m 5,34 c 9,-1 19,-26 31,-9 -9,-4 -11.7027,7.810374 9.2973,5.810374 L 46,44 21,50 0,46 z" fill="#fff"/><g stroke-linecap="round" id="g23" fill="none"><path stroke="#000" opacity="0.6" id="path25" d="M 8,0.625 C 3.92775,0.625 0.625,3.92775 0.625,8 c 0,4.07225 3.30275,7.375 7.375,7.375 4.07225,0 7.375,-3.30275 7.375,-7.375 C 15.375,3.92775 12.07225,0.625 8,0.625 Z"/><path stroke="url(#1)" opacity="0.4" id="path27" d="M 8,1.625 C 4.45743,1.625 1.625,4.45743 1.625,8 c 0,3.54257 2.83243,6.375 6.375,6.375 3.54257,0 6.375,-2.83243 6.375,-6.375 C 14.375,4.45743 11.54257,1.625 8,1.625 Z"/></g><path stroke="#000" opacity="0.31" id="path33" fill-rule="evenodd" d="m 1.220339,11.457627 c 4.0844441,4.652115 8.6374978,5.996116 13.423729,-0.338983" fill="none"/><metadata id="metadata9999"><rdf:RDF><cc:Work><dc:format>image/svg+xml</dc:format><dc:type rdf:resource="http://purl.org/dc/dcmitype/StillImage"/><dc:title/><cc:license rdf:resource="http://creativecommons.org/licenses/by-sa/4.0/"/><dc:creator><cc:Agent><dc:title>Sixsixfive (sixsixfive.deviantart.com)</dc:title></cc:Agent></dc:creator><dc:publisher><cc:Agent><dc:title>Sixsixfive (sixsixfive.deviantart.com)</dc:title></cc:Agent></dc:publisher><dc:source>https://github.com/sixsixfive</dc:source><dc:subject><rdf:Bag><rdf:li>ivy</rdf:li></rdf:Bag></dc:subject><dc:contributor><cc:Agent><dc:title>ssf</dc:title></cc:Agent></dc:contributor><dc:rights><cc:Agent><dc:title>Sixsixfive (sixisixfive.deviantart.com)</dc:title></cc:Agent></dc:rights><dc:description>A simple icon theme published under CC-BY-SA_V4(http://creativecommons.org/licenses/by-sa/4.0)</dc:description><dc:identifier>SSF</dc:identifier></cc:Work></rdf:RDF></metadata><!--Part of the Ivy icon them published under the CC-BY-SA_V4: http://creativecommons.org/licenses/by-sa/4.0 -->
</svg>