<?xml version="1.0" encoding="UTF-8" standalone="no"?><svg xmlns:cc="http://creativecommons.org/ns#" xmlns:dc="http://purl.org/dc/elements/1.1/" xmlns:svg="http://www.w3.org/2000/svg" xmlns="http://www.w3.org/2000/svg" xmlns:rdf="http://www.w3.org/1999/02/22-rdf-syntax-ns#" id="svg2" version="1.1" xmlns:xlink="http://www.w3.org/1999/xlink" viewBox="0 0 16 16"><defs id="defs4"><linearGradient id="linearGradient4198"><stop id="stop4200" stop-color="#a868d4"/><stop id="stop4202" stop-color="#d5b6ea" offset="1"/></linearGradient><linearGradient gradientTransform="matrix(0.36363638 0 0 0.36585367 -0.72727276 -1.8292688)" gradientUnits="userSpaceOnUse" xlink:href="#linearGradient4198" y1="5" id="linearGradient4204" y2="46" x2="0"/></defs><path d="M 1.4545455,0 C 0.64872726,0 0,0.65268225 0,1.4634144 L 0,9.1463413 0,15 l 4.0724435,-3.990293 10.4730115,0 C 15.351273,11.009707 16,10.357026 16,9.5462931 L 16,1.4634144 C 16,0.65268225 15.351273,0 14.545455,0 Z" id="rect3362" fill-rule="evenodd" fill="url(#linearGradient4204)"/><rect stroke="none" width="3" height="1" stroke-width="1" opacity="1" stroke-dashoffset="0" stroke-dasharray="3 1" id="rect4154" stroke-linejoin="round" y="4" x="8" stroke-miterlimit="4" fill="#fcfcfc" stroke-linecap="round" stroke-opacity="1" fill-opacity="1"/><rect stroke="none" width="3" height="1" stroke-width="1" opacity="1" stroke-dashoffset="0" stroke-dasharray="3 1" id="rect4156" stroke-linejoin="round" y="6" x="8" stroke-miterlimit="4" fill="#fcfcfc" stroke-linecap="round" stroke-opacity="1" fill-opacity="1"/><g opacity="0.3" id="g4174"><path stroke="none" stroke-width="1" opacity="1" stroke-dashoffset="0" stroke-dasharray="3 1" d="m 8,5 3,0 0,1 -3,0 z" id="rect4164" stroke-linejoin="round" stroke-miterlimit="4" fill="#000" stroke-linecap="round" stroke-opacity="1" fill-opacity="1"/><path stroke="none" stroke-width="1" opacity="1" stroke-dashoffset="0" stroke-dasharray="3 1" d="m 8,7 3,0 0,1 -3,0 z" id="rect4166" stroke-linejoin="round" stroke-miterlimit="4" fill="#000" stroke-linecap="round" stroke-opacity="1" fill-opacity="1"/><path stroke="none" stroke-width="1" opacity="1" stroke-dashoffset="0" stroke-dasharray="3 1" d="M 5,4 6,4 6,9 5,9 Z" id="rect4168" stroke-linejoin="round" stroke-miterlimit="4" fill="#000" stroke-linecap="round" stroke-opacity="1" fill-opacity="1"/><path stroke="none" stroke-width="1" opacity="1" stroke-dashoffset="0" stroke-dasharray="3 1" d="m 6,9 1,0 0,1 -1,0 z" id="rect4170" stroke-linejoin="round" stroke-miterlimit="4" fill="#000" stroke-linecap="round" stroke-opacity="1" fill-opacity="1"/><path stroke="none" stroke-width="1" opacity="1" stroke-dashoffset="0" stroke-dasharray="3 1" d="M 6,3 7,3 7,4 6,4 Z" id="rect4172" stroke-linejoin="round" stroke-miterlimit="4" fill="#000" stroke-linecap="round" stroke-opacity="1" fill-opacity="1"/></g><rect stroke="none" width="1" height="5" stroke-width="1" opacity="1" stroke-dashoffset="0" stroke-dasharray="3 1" id="rect4158" stroke-linejoin="round" y="3" x="5" stroke-miterlimit="4" fill="#fcfcfc" stroke-linecap="round" stroke-opacity="1" fill-opacity="1"/><rect stroke="none" width="1" height="1" stroke-width="1" opacity="1" stroke-dashoffset="0" stroke-dasharray="3 1" id="rect4160" stroke-linejoin="round" y="8" x="6" stroke-miterlimit="4" fill="#fcfcfc" stroke-linecap="round" stroke-opacity="1" fill-opacity="1"/><rect stroke="none" width="14" height="1" stroke-width="1" opacity="0.4" stroke-dashoffset="0" stroke-dasharray="3 1" id="rect4185" stroke-linejoin="round" y="1" x="1" stroke-miterlimit="4" fill="#fff" stroke-linecap="round" stroke-opacity="1" fill-opacity="1"/><rect stroke="none" width="1" height="1" stroke-width="1" opacity="1" stroke-dashoffset="0" stroke-dasharray="3 1" id="rect4162" stroke-linejoin="round" y="2" x="6" stroke-miterlimit="4" fill="#fcfcfc" stroke-linecap="round" stroke-opacity="1" fill-opacity="1"/><path stroke="#000" opacity="0.4" d="m 1.4550781,0.51757812 c -0.52664372,0 -0.93749997,0.41082945 -0.93749998,0.94531248 l 0,7.6835938 0,4.6230466 3.19335938,-3.128906 a 0.51748092,0.51748092 0 0 1 0.3613281,-0.148437 l 10.4726564,0 c 0.526644,0 0.9375,-0.410829 0.9375,-0.945313 l 0,-8.0839844 c 0,-0.53448298 -0.410857,-0.94531247 -0.9375,-0.94531248 l -13.0898439,0 z" id="path4183" fill-rule="evenodd" fill="none"/><metadata id="metadata9999"><rdf:RDF><cc:Work><dc:format>image/svg+xml</dc:format><dc:type rdf:resource="http://purl.org/dc/dcmitype/StillImage"/><dc:title>Ivy icon theme</dc:title><cc:license rdf:resource="http://creativecommons.org/licenses/by-sa/4.0/"/><dc:creator><cc:Agent><dc:title>Sixsixfive (sixsixfive.deviantart.com)</dc:title></cc:Agent></dc:creator><dc:publisher><cc:Agent><dc:title>Sixsixfive (sixsixfive.deviantart.com)</dc:title></cc:Agent></dc:publisher><dc:source>https://github.com/sixsixfive</dc:source><dc:subject><rdf:Bag><rdf:li>ivy</rdf:li></rdf:Bag></dc:subject><dc:contributor><cc:Agent><dc:title>ssf</dc:title></cc:Agent></dc:contributor><dc:rights><cc:Agent><dc:title>Sixsixfive (sixisixfive.deviantart.com)</dc:title></cc:Agent></dc:rights><dc:description>A simple icon theme published under CC-BY-SA_V4(http://creativecommons.org/licenses/by-sa/4.0)</dc:description><dc:identifier>SSF</dc:identifier></cc:Work></rdf:RDF></metadata><!--Part of the Ivy icon them published under the CC-BY-SA_V4: http://creativecommons.org/licenses/by-sa/4.0 -->
</svg>