<?xml version="1.0" encoding="UTF-8" standalone="no"?>
<svg
   xmlns:dc="http://purl.org/dc/elements/1.1/"
   xmlns:cc="http://creativecommons.org/ns#"
   xmlns:rdf="http://www.w3.org/1999/02/22-rdf-syntax-ns#"
   xmlns:svg="http://www.w3.org/2000/svg"
   xmlns="http://www.w3.org/2000/svg"
   xmlns:xlink="http://www.w3.org/1999/xlink"
   height="16"
   width="16"
   version="1.1"
   id="svg2"
   viewBox="0 0 16 16">
  <defs
     id="defs4">
    <linearGradient
       id="linearGradient4206">
      <stop
         id="stop4208"
         offset="0"
         style="stop-color:#ffffff;stop-opacity:1;" />
      <stop
         id="stop4210"
         offset="1"
         style="stop-color:#ffffff;stop-opacity:0;" />
    </linearGradient>
    <linearGradient
       gradientTransform="matrix(0.38095238,0,0,0.38095238,-1.1428571,-1.518858)"
       gradientUnits="userSpaceOnUse"
       x1="3"
       x2="3"
       y2="46.000019"
       y1="4.00002"
       id="0">
      <stop
         id="stop7"
         stop-color="#5288d1" />
      <stop
         id="stop9"
         stop-color="#9cbbe5"
         offset="1" />
    </linearGradient>
    <linearGradient
       gradientUnits="userSpaceOnUse"
       x1="4"
       x2="4"
       y2="45.523083"
       y1="4.4871602"
       id="1">
      <stop
         id="stop12"
         stop-color="#fff" />
      <stop
         stop-opacity="0"
         id="stop14"
         stop-color="#fff"
         offset="1" />
    </linearGradient>
    <linearGradient
       gradientUnits="userSpaceOnUse"
       y2="15"
       x2="14"
       y1="1"
       x1="14"
       id="linearGradient4212"
       xlink:href="#linearGradient4206" />
  </defs>
  <path
     d="M 1.5238095,0 14.47619,0 C 15.320381,0 16,0.679619 16,1.523809 L 16,14.47619 C 16,15.320381 15.320381,16 14.47619,16 L 1.5238095,16 C 0.679619,16 0,15.320381 0,14.47619 L 0,1.523809 C 0,0.679619 0.679619,0 1.5238095,0 Z"
     id="rect21"
     style="fill:url(#0)" />
  <path
     style="fill:none;stroke:url(#linearGradient4212);opacity:0.4"
     id="path4204"
     d="M 1.5234375,1.5 C 1.4841231,1.5 1.5,1.4841235 1.5,1.5234375 l 0,12.9531245 C 1.5,14.51588 1.4841213,14.5 1.5234375,14.5 l 12.9531245,0 c 0.03932,0 0.02344,0.01588 0.02344,-0.02344 l 0,-12.9531245 C 14.5,1.4841235 14.515878,1.5 14.476562,1.5 l -12.9531245,0 z" />
  <g
     transform="translate(0,-1)"
     style="fill:#000000;opacity:0.3"
     id="g4194">
    <path
       d="M 3,3 13,3 13,4 3,4 Z"
       id="path4186"
       style="fill:#000000;stroke-linejoin:round" />
    <path
       d="M 3,6 13,6 13,7 3,7 Z"
       id="path4188"
       style="fill:#000000;stroke-linejoin:round" />
    <path
       d="m 3,9 10,0 0,1 -10,0 z"
       id="path4190"
       style="fill:#000000;stroke-linejoin:round" />
    <path
       d="m 3,12 10,0 0,1 -10,0 z"
       id="path4192"
       style="fill:#000000;stroke-linejoin:round" />
  </g>
  <path
     d="M 3,3 13,3 13,4 3,4 Z"
     id="rect4162"
     style="fill:#ebebeb;stroke-linejoin:round" />
  <path
     d="M 3,6 13,6 13,7 3,7 Z"
     id="rect4164"
     style="fill:#ebebeb;stroke-linejoin:round" />
  <path
     d="M 1.5234375,0.5 C 0.94758272,0.5 0.5,0.94758319 0.5,1.5234375 l 0,12.9531245 C 0.5,15.052419 0.94758213,15.5 1.5234375,15.5 l 12.9531245,0 C 15.052419,15.5 15.5,15.052419 15.5,14.476562 l 0,-12.9531245 C 15.5,0.94758319 15.052418,0.5 14.476562,0.5 l -12.9531245,0 z"
     id="path4202"
     style="fill:none;stroke:#000000;opacity:0.4" />
  <path
     d="m 3,9 10,0 0,1 -10,0 z"
     id="rect4166"
     style="fill:#ebebeb;stroke-linejoin:round" />
  <path
     d="m 3,12 10,0 0,1 -10,0 z"
     id="rect4168"
     style="fill:#ebebeb;stroke-linejoin:round" />
  <metadata
     id="metadata9999">
    <rdf:RDF>
      <cc:Work>
        <dc:format>image/svg+xml</dc:format>
        <dc:type
           rdf:resource="http://purl.org/dc/dcmitype/StillImage" />
        <dc:title></dc:title>
        <cc:license
           rdf:resource="http://creativecommons.org/licenses/by-sa/4.0/" />
        <dc:creator>
          <cc:Agent>
            <dc:title>Sixsixfive (sixsixfive.deviantart.com)</dc:title>
          </cc:Agent>
        </dc:creator>
        <dc:publisher>
          <cc:Agent>
            <dc:title>Sixsixfive (sixsixfive.deviantart.com)</dc:title>
          </cc:Agent>
        </dc:publisher>
        <dc:source>https://github.com/sixsixfive</dc:source>
        <dc:subject>
          <rdf:Bag>
            <rdf:li>ivy</rdf:li>
          </rdf:Bag>
        </dc:subject>
        <dc:contributor>
          <cc:Agent>
            <dc:title>ssf</dc:title>
          </cc:Agent>
        </dc:contributor>
        <dc:rights>
          <cc:Agent>
            <dc:title>Sixsixfive (sixisixfive.deviantart.com)</dc:title>
          </cc:Agent>
        </dc:rights>
        <dc:description>A simple icon theme published under CC-BY-SA_V4(http://creativecommons.org/licenses/by-sa/4.0)</dc:description>
        <dc:identifier>SSF</dc:identifier>
      </cc:Work>
    </rdf:RDF>
  </metadata>
  <!--Part of the Ivy icon them published under the CC-BY-SA_V4: http://creativecommons.org/licenses/by-sa/4.0 -->
</svg>
