<?xml version="1.0" encoding="UTF-8" standalone="no"?><svg xmlns:xlink="http://www.w3.org/1999/xlink" xmlns:cc="http://creativecommons.org/ns#" viewBox="0 0 16 16" version="1.1" id="svg2" xmlns:svg="http://www.w3.org/2000/svg" xmlns:rdf="http://www.w3.org/1999/02/22-rdf-syntax-ns#" xmlns="http://www.w3.org/2000/svg" xmlns:dc="http://purl.org/dc/elements/1.1/"><defs id="defs4"><linearGradient id="linearGradient4206"><stop stop-opacity="1" id="stop4208" stop-color="#fff"/><stop offset="1" stop-opacity="0" id="stop4210" stop-color="#fff"/></linearGradient><linearGradient x2="3" gradientUnits="userSpaceOnUse" x1="3" id="0" y2="46.000019" gradientTransform="matrix(0.38095238 0 0 0.38095238 -1.1428571 -1.518858)" y1="4.00002"><stop id="stop7" stop-color="#5288d1"/><stop offset="1" id="stop9" stop-color="#9cbbe5"/></linearGradient><linearGradient x2="4" gradientUnits="userSpaceOnUse" x1="4" id="1" y2="45.523083" y1="4.4871602"><stop id="stop12" stop-color="#fff"/><stop offset="1" stop-opacity="0" id="stop14" stop-color="#fff"/></linearGradient><linearGradient x2="14" gradientUnits="userSpaceOnUse" x1="14" xlink:href="#linearGradient4206" id="linearGradient4212" y2="15" y1="1"/></defs><path fill="url(#0)" id="rect21" d="M 1.5238095,0 14.47619,0 C 15.320381,0 16,0.679619 16,1.523809 L 16,14.47619 C 16,15.320381 15.320381,16 14.47619,16 L 1.5238095,16 C 0.679619,16 0,15.320381 0,14.47619 L 0,1.523809 C 0,0.679619 0.679619,0 1.5238095,0 Z"/><path opacity="0.4" fill="none" id="path4204" stroke="url(#linearGradient4212)" d="M 1.5234375,1.5 C 1.4841231,1.5 1.5,1.4841235 1.5,1.5234375 l 0,12.9531245 C 1.5,14.51588 1.4841213,14.5 1.5234375,14.5 l 12.9531245,0 c 0.03932,0 0.02344,0.01588 0.02344,-0.02344 l 0,-12.9531245 C 14.5,1.4841235 14.515878,1.5 14.476562,1.5 l -12.9531245,0 z"/><g opacity="0.3" fill="#000" id="g4194" transform="matrix(1 0 0 1 0 -1)"><path stroke-linejoin="round" fill="#000" id="path4186" d="M 3,3 13,3 13,4 3,4 Z"/><path stroke-linejoin="round" fill="#000" id="path4188" d="M 3,6 13,6 13,7 3,7 Z"/><path stroke-linejoin="round" fill="#000" id="path4190" d="m 3,9 10,0 0,1 -10,0 z"/><path stroke-linejoin="round" fill="#000" id="path4192" d="m 3,12 10,0 0,1 -10,0 z"/></g><path stroke-linejoin="round" fill="#ebebeb" id="rect4162" d="M 3,3 13,3 13,4 3,4 Z"/><path stroke-linejoin="round" fill="#ebebeb" id="rect4164" d="M 3,6 13,6 13,7 3,7 Z"/><path opacity="0.4" fill="none" id="path4202" stroke="#000" d="M 1.5234375,0.5 C 0.94758272,0.5 0.5,0.94758319 0.5,1.5234375 l 0,12.9531245 C 0.5,15.052419 0.94758213,15.5 1.5234375,15.5 l 12.9531245,0 C 15.052419,15.5 15.5,15.052419 15.5,14.476562 l 0,-12.9531245 C 15.5,0.94758319 15.052418,0.5 14.476562,0.5 l -12.9531245,0 z"/><path stroke-linejoin="round" fill="#ebebeb" id="rect4166" d="m 3,9 10,0 0,1 -10,0 z"/><path stroke-linejoin="round" fill="#ebebeb" id="rect4168" d="m 3,12 10,0 0,1 -10,0 z"/><metadata id="metadata9999"><rdf:RDF><cc:Work><dc:format>image/svg+xml</dc:format><dc:type rdf:resource="http://purl.org/dc/dcmitype/StillImage"/><dc:title/><cc:license rdf:resource="http://creativecommons.org/licenses/by-sa/4.0/"/><dc:creator><cc:Agent><dc:title>Sixsixfive (sixsixfive.deviantart.com)</dc:title></cc:Agent></dc:creator><dc:publisher><cc:Agent><dc:title>Sixsixfive (sixsixfive.deviantart.com)</dc:title></cc:Agent></dc:publisher><dc:source>https://github.com/sixsixfive</dc:source><dc:subject><rdf:Bag><rdf:li>ivy</rdf:li></rdf:Bag></dc:subject><dc:contributor><cc:Agent><dc:title>ssf</dc:title></cc:Agent></dc:contributor><dc:rights><cc:Agent><dc:title>Sixsixfive (sixisixfive.deviantart.com)</dc:title></cc:Agent></dc:rights><dc:description>A simple icon theme published under CC-BY-SA_V4(http://creativecommons.org/licenses/by-sa/4.0)</dc:description><dc:identifier>SSF</dc:identifier></cc:Work></rdf:RDF></metadata><!--Part of the Ivy icon them published under the CC-BY-SA_V4: http://creativecommons.org/licenses/by-sa/4.0 -->
</svg>