<?xml version="1.0" encoding="UTF-8" standalone="no"?><svg xmlns:svg="http://www.w3.org/2000/svg" xmlns="http://www.w3.org/2000/svg" viewBox="0 0 48 48" xmlns:rdf="http://www.w3.org/1999/02/22-rdf-syntax-ns#" xmlns:xlink="http://www.w3.org/1999/xlink" version="1.1" id="svg2" xmlns:dc="http://purl.org/dc/elements/1.1/" xmlns:cc="http://creativecommons.org/ns#"><defs id="defs4"><linearGradient id="linearGradient4189"><stop stop-opacity="1" id="stop4191" stop-color="#fff"/><stop stop-opacity="0" offset="1" id="stop4193" stop-color="#fff"/></linearGradient><linearGradient y1="3" x2="0" y2="44" id="linearGradient7346" gradientUnits="userSpaceOnUse"><stop id="stop7348" stop-color="#171717"/><stop offset="1" id="stop7350" stop-color="#6a6a6a"/></linearGradient><linearGradient y1="3" x2="0" y2="44" id="linearGradient6540" gradientUnits="userSpaceOnUse"><stop stop-opacity="1" id="stop6542" stop-color="#66b03e"/><stop stop-opacity="1" offset="1" id="stop6544" stop-color="#8cca6a"/></linearGradient><linearGradient y1="3" x2="0" y2="44" id="0" gradientUnits="userSpaceOnUse"><stop id="stop7" stop-color="#5288d1"/><stop offset="1" id="stop9" stop-color="#8db0e1"/></linearGradient><linearGradient x1="40" y1="3" x2="39.906" y2="42.969" id="1" gradientUnits="userSpaceOnUse"><stop id="stop12" stop-color="#fff"/><stop stop-opacity="0" offset="1" id="stop14" stop-color="#fff"/></linearGradient><linearGradient x1="40" xlink:href="#1" y1="3" x2="39.906" y2="42.969" id="linearGradient3369" gradientUnits="userSpaceOnUse"/><linearGradient xlink:href="#linearGradient6540" y1="3" x2="0" y2="44" id="linearGradient3371" gradientTransform="matrix(1 0 0 1 0 3.0000001)" gradientUnits="userSpaceOnUse"/><linearGradient xlink:href="#linearGradient7346" y1="3" x2="0" y2="44" id="linearGradient3375" gradientTransform="matrix(1 0 0 1 0 3.0000001)" gradientUnits="userSpaceOnUse"/><linearGradient xlink:href="#0" y1="3" x2="0" y2="44" id="linearGradient3417" gradientTransform="matrix(1 0 0 1 0 -0.9999999)" gradientUnits="userSpaceOnUse"/><linearGradient x1="40" xlink:href="#1" y1="3" x2="39.906" y2="42.969" id="linearGradient3419" gradientTransform="matrix(1 0 0 1 0 -0.9999999)" gradientUnits="userSpaceOnUse"/><linearGradient x1="35" xlink:href="#linearGradient4189" y1="4" x2="35" y2="23" id="linearGradient4195" gradientUnits="userSpaceOnUse"/></defs><rect y="1" x="3.986" ry="1.209" rx="1.209" height="42" id="rect3401" width="34.951" fill="url(#linearGradient3417)"/><path stroke="#000" opacity="0.4" id="path3405" d="m 5.1873,1.5000001 c -0.403779,0 -0.6875,0.299839 -0.6875,0.71875 l 0,39.5624999 c 0,0.418911 0.283721,0.71875 0.6875,0.71875 l 32.5313,0 c 0.40378,0 0.71875,-0.31497 0.71875,-0.71875 l 0,-39.5624999 c 0,-0.403779 -0.31497,-0.71875 -0.71875,-0.71875 l -32.5313,0 z" fill="none"/><path stroke="url(#linearGradient3419)" opacity="0.5" id="path3407" d="m 5.531,2.5312001 0,38.9374999 31.875,0 0,-38.9374999 -31.875,0 z" fill="none"/><rect y="1" x="7.986" ry="1.209" rx="1.209" height="42" id="rect3409" width="34.951" fill="url(#linearGradient3417)"/><path stroke="#000" opacity="0.4" id="path3413" d="m 9.1875,1.5000001 c -0.403779,0 -0.6875,0.299839 -0.6875,0.71875 L 8.5,41.78125 C 8.5,42.20016 8.783721,42.5 9.1875,42.5 l 32.5312,0 c 0.40378,0 0.71875,-0.31497 0.71875,-0.71875 l 0,-39.5624999 c 0,-0.403779 -0.31497,-0.71875 -0.71875,-0.71875 l -32.5312,0 z" fill="none"/><path stroke="url(#linearGradient3419)" opacity="0.5" id="path3415" d="m 9.5313,2.5312001 0,38.9374999 31.875,0 0,-38.9374999 -31.875,0 z" fill="none"/><rect y="2" x="3.986" ry="1.209" rx="1.209" height="42" id="rect3377" width="34.951" fill="#ebebeb"/><path stroke="#fff" id="path3381" d="m 5.1873,2.5000001 c -0.403779,0 -0.6875,0.299839 -0.6875,0.71875 l 0,39.5624999 c 0,0.418911 0.283721,0.71875 0.6875,0.71875 l 32.5313,0 c 0.40378,0 0.71875,-0.31497 0.71875,-0.71875 l 0,-39.5624999 c 0,-0.403779 -0.31497,-0.71875 -0.71875,-0.71875 l -32.5313,0 z" fill="none"/><path stroke="#000" opacity="0.4" id="path3441" d="m 5.1873,1.5000001 c -0.403779,0 -0.6875,0.299839 -0.6875,0.71875 l 0,39.5624999 c 0,0.418911 0.283721,0.71875 0.6875,0.71875 l 32.5313,0 c 0.40378,0 0.71875,-0.31497 0.71875,-0.71875 l 0,-39.5624999 c 0,-0.403779 -0.31497,-0.71875 -0.71875,-0.71875 l -32.5313,0 z" fill="none"/><rect y="2" x="7.986" ry="1.209" rx="1.209" height="42" id="rect3385" width="34.951" fill="#ebebeb"/><path stroke="#fff" opacity="0.82" id="path3389" d="m 9.1875,2.5000001 c -0.403779,0 -0.6875,0.299839 -0.6875,0.71875 L 8.5,42.78125 C 8.5,43.20016 8.783721,43.5 9.1875,43.5 l 32.5312,0 c 0.40378,0 0.71875,-0.31497 0.71875,-0.71875 l 0,-39.5624999 c 0,-0.403779 -0.31497,-0.71875 -0.71875,-0.71875 l -32.5312,0 z" fill="none"/><rect y="6" x="4" opacity="0.1" ry="1.209" rx="1.209" height="42" id="rect16" width="38.951"/><rect y="2" x="8" stroke-linecap="square" opacity="0.2" height="4" id="rect3431" width="1"/><rect y="5" x="3.986" ry="1.209" rx="1.209" height="42" id="rect18" width="34.951" fill="url(#linearGradient3375)"/><path stroke="#000" opacity="0.4" id="path3445" d="m 9.1875,1.5000001 c -0.403779,0 -0.6875,0.299839 -0.6875,0.71875 L 8.5,41.78125 C 8.5,42.20016 8.783721,42.5 9.1875,42.5 l 32.5312,0 c 0.40378,0 0.71875,-0.31497 0.71875,-0.71875 l 0,-39.5624999 c 0,-0.403779 -0.31497,-0.71875 -0.71875,-0.71875 l -32.5312,0 z" fill="none"/><g id="g20" transform="matrix(1 0 0 1 0 3.0000001)" fill="none"><path stroke="#000" opacity="0.4" id="path22" d="M 5.1873,2.5 C 4.783521,2.5 4.4998,2.799839 4.4998,3.21875 l 0,39.5625 c 0,0.418911 0.283721,0.71875 0.6875,0.71875 l 32.5313,0 c 0.40378,0 0.71875,-0.31497 0.71875,-0.71875 l 0,-39.5625 C 38.43735,2.814971 38.12238,2.5 37.7186,2.5 l -32.5313,0 z"/><path stroke="url(#linearGradient3369)" opacity="0.4" id="path24" d="m 5.531,3.5312 0,38.9375 31.875,0 0,-38.9375 -31.875,0 z"/></g><rect y="5" x="7.986" ry="1.209" rx="1.209" height="42" id="rect26" width="34.951" fill="url(#linearGradient3371)"/><g id="g30" transform="matrix(1 0 0 1 0 3.0000001)" fill="none"><path stroke="#000" opacity="0.5" id="path32" d="M 9.1875,2.5 C 8.783721,2.5 8.5,2.799839 8.5,3.21875 l 0,39.5625 C 8.5,43.20016 8.783721,43.5 9.1875,43.5 l 32.5312,0 c 0.40378,0 0.71875,-0.31497 0.71875,-0.71875 l 0,-39.5625 C 42.43745,2.814971 42.12248,2.5 41.7187,2.5 l -32.5312,0 z"/><path stroke="url(#linearGradient3369)" opacity="0.3" id="path34" d="m 9.5313,3.5312 0,38.9375 31.875,0 0,-38.9375 -31.875,0 z"/></g><path stroke-linejoin="miter" stroke-dasharray="none" stroke-opacity="1" stroke="none" stroke-width="1" stroke-dashoffset="0" stroke-linecap="round" opacity="0.4" fill-opacity="1" id="path4197" stroke-miterlimit="4" fill-rule="evenodd" d="m 27,4 10,0 0,24 -5,-6 -5,6 z" fill="#000"/><path stroke-linejoin="miter" stroke-dasharray="none" stroke-opacity="1" stroke="none" stroke-width="1" stroke-dashoffset="0" stroke-linecap="round" opacity="1" fill-opacity="1" id="rect4180" stroke-miterlimit="4" fill-rule="evenodd" d="m 27,3 10,0 0,24 -5,-6 -5,6 z" fill="#d02604"/><path stroke-linejoin="miter" stroke-dasharray="none" stroke-opacity="1" stroke="#000" stroke-width="1" stroke-dashoffset="0" stroke-linecap="round" opacity="0.4" fill-opacity="1" id="path4185" stroke-miterlimit="4" fill-rule="evenodd" d="m 27.537109,3.5371094 0,21.9804686 4.050782,-4.861328 a 0.53624663,0.53624663 0 0 1 0.824218,0 l 4.050782,4.861328 0,-21.9804686 -8.925782,0 z" fill="none"/><path stroke-linejoin="miter" stroke-dasharray="none" stroke-opacity="1" stroke="url(#linearGradient4195)" stroke-width="1" stroke-dashoffset="0" stroke-linecap="round" opacity="0.4" fill-opacity="1" id="path4187" stroke-miterlimit="4" fill-rule="evenodd" d="m 28.542969,4.5429688 0,18.1953122 2.271484,-2.726562 a 1.5426255,1.5426255 0 0 1 2.371094,0 l 2.271484,2.726562 0,-18.1953122 -6.914062,0 z" fill="none"/><metadata id="metadata9999"><rdf:RDF><cc:Work><dc:format>image/svg+xml</dc:format><dc:type rdf:resource="http://purl.org/dc/dcmitype/StillImage"/><dc:title/><cc:license rdf:resource="http://creativecommons.org/licenses/by-sa/4.0/"/><dc:creator><cc:Agent><dc:title>Sixsixfive (sixsixfive.deviantart.com)</dc:title></cc:Agent></dc:creator><dc:publisher><cc:Agent><dc:title>Sixsixfive (sixsixfive.deviantart.com)</dc:title></cc:Agent></dc:publisher><dc:source>https://github.com/sixsixfive</dc:source><dc:subject><rdf:Bag><rdf:li>ivy</rdf:li></rdf:Bag></dc:subject><dc:contributor><cc:Agent><dc:title>ssf</dc:title></cc:Agent></dc:contributor><dc:rights><cc:Agent><dc:title>Sixsixfive (sixisixfive.deviantart.com)</dc:title></cc:Agent></dc:rights><dc:description>A simple icon theme published under CC-BY-SA_V4(http://creativecommons.org/licenses/by-sa/4.0)</dc:description><dc:identifier>SSF</dc:identifier></cc:Work></rdf:RDF></metadata><!--Part of the Ivy icon them published under the CC-BY-SA_V4: http://creativecommons.org/licenses/by-sa/4.0 -->
</svg>