<?xml version="1.0" encoding="UTF-8" standalone="no"?>
<svg xmlns:dc="http://purl.org/dc/elements/1.1/" xmlns:cc="http://creativecommons.org/ns#" xmlns:rdf="http://www.w3.org/1999/02/22-rdf-syntax-ns#" xmlns:svg="http://www.w3.org/2000/svg" xmlns="http://www.w3.org/2000/svg" viewBox="0 0 16 16" id="svg2" version="1.1">
 <defs id="defs4">
  <linearGradient id="1" y1="45" y2="13" x2="0" gradientUnits="userSpaceOnUse" gradientTransform="matrix(0.33333333 0 0 0.3573359 0 -1.080116)">
   <stop stop-color="#fb5434" id="stop12"/>
   <stop offset="1" stop-color="#d02604" id="stop14"/>
  </linearGradient>
  <linearGradient id="5" y1="4" y2="36" x2="0" gradientUnits="userSpaceOnUse" gradientTransform="matrix(0.37499996 0 0 0.375 -0.972754 -0.5)">
   <stop stop-color="#dbdbdb" id="stop28"/>
   <stop offset="1" stop-color="#fff" id="stop30"/>
  </linearGradient>
  <linearGradient id="6" y1="16" y2="3" x2="0" gradientUnits="userSpaceOnUse" gradientTransform="matrix(0.40000003 0 0 0.38336472 -1.600001 -1.133836)">
   <stop stop-color="#dbdbdb" id="stop33"/>
   <stop offset="1" stop-color="#ebebeb" id="stop35"/>
  </linearGradient>
 </defs>
 <rect width="12" x="2.027" y="1" fill="url(#5)" rx="0.546" height="12" id="rect45" ry="0.546"/>
 <path opacity="0.4" fill="none" stroke="#000" id="path4250" d="m 2.5449219,1.4902344 c -0.039821,0 -0.054687,0.014866 -0.054687,0.054687 l 0,10.9101561 c 0,0.03982 0.014867,0.05469 0.054687,0.05469 l 10.9101561,0 c 0.03982,0 0.05469,-0.01487 0.05469,-0.05469 l 0,-10.9101561 c 0,-0.039821 -0.01487,-0.054687 -0.05469,-0.054687 l -10.9101561,0 z"/>
 <path fill="url(#6)" fill-rule="evenodd" id="path53" d="M 5.1428573,0.0162586 C 4.509714,0.0162586 4,0.510203 4,1.1237566 l 0,0.553749 C 4,2.7850038 4,2.7850038 4,3.0618786 4,4.1322735 5.790861,5 8.0000003,5 10.209141,5 12,4.1322735 12,3.0618786 c 0,-1.384373 0,-0.2768748 0,-1.384373 l 0,-0.553749 C 12,0.510203 11.490287,0.0162586 10.857144,0.0162586 Z"/>
 <path opacity="0.1" fill="none" stroke="#000" fill-rule="evenodd" id="path4267" d="M 3.6457998,3.7937177 C 6,6 9.6307474,6 12.214165,3.9452384"/>
 <path fill="none" stroke="#fff" fill-rule="evenodd" id="path4273" d="M 6.2977618,5.8245258 5.4823228,11.891015"/>
 <path opacity="0.37" fill="none" stroke="#000" fill-rule="evenodd" id="path4254" d="m 5.1425781,0.53320312 c -0.3639422,0 -0.625,0.26284236 -0.625,0.58984378 l 0,0.5546875 0,1.3847656 c 0,0.2464917 0.248038,0.5987574 0.8789063,0.9042969 C 6.0273526,4.2723363 6.9631612,4.4824219 8,4.4824219 c 1.0368397,0 1.9726477,-0.2100856 2.603516,-0.515625 0.630868,-0.3055394 0.878906,-0.657805 0.878906,-0.9042969 l 0,-1.3847656 0,-0.5546875 c 0,-0.32700129 -0.261058,-0.58984378 -0.625,-0.58984378 l -5.7148439,0 z"/>
 <path fill="none" stroke="#fff" fill-rule="evenodd" id="path4275" d="M 9.6477458,5.7972798 10.381446,11.945508"/>
 <path fill="url(#1)" id="path55" d="m 7,4 c -1,9 0,0 -1,9 l 2,2 2,-2 C 9.00121,4.0108904 10,13 9,4 Z"/>
 <path opacity="0.7" fill="#171717" id="path57" d="m 5.9936206,1.0335176 3.9855122,-0.027246 0.027246,1.0720077 -1.3647121,1.4869718 -1.283334,0 -1.3374661,-1.5414641 z"/>
 <path fill="#d02604" fill-rule="evenodd" id="path65" d="m 10,3.5 a 2,1.5 0 0 1 -4,0 2,1.5 0 1 1 4,0 z"/>
 <path opacity="0.4" fill="none" stroke="#000" fill-rule="evenodd" id="path4261" d="M 8.0175781,2.5019531 C 7.6748185,2.4734911 7.1939555,2.6116783 6.8867188,2.8476562 6.5872684,3.0776537 6.4586884,3.3174139 6.53125,3.6582031 6.6719941,4.0480558 6.9881608,4.295827 7.4257812,4.4199219 c 0.4465114,0.126616 0.9896724,0.0876 1.3789063,-0.085937 a 0.50427431,0.50427431 0 0 1 0.050781,-0.019531 C 9.1140322,4.2313652 9.3516949,3.9812957 9.4433594,3.7128906 9.5350239,3.4444856 9.5137749,3.219548 9.3027344,3.0175781 A 0.50427431,0.50427431 0 0 1 9.2792969,2.9941406 C 8.994077,2.685466 8.5221617,2.5153686 8.046875,2.5039062 a 0.50427431,0.50427431 0 0 1 -0.029297,-0.00195 z"/>
 <path opacity="0.4" fill="none" stroke="#000" id="path4265" d="M 7.4472656,4.5 6.5234375,12.816406 8,14.292969 9.4765625,12.816406 8.5527344,4.5 7.4472656,4.5 Z"/>
 <path opacity="0.71" fill="none" stroke="#fff" fill-rule="evenodd" id="path4271" d="M 5.7547845,2.6493787 C 6.5792963,1.4902344 9,1 10.297195,2.6719454"/>
 <path fill="none" stroke="#ff2d2d" fill-rule="evenodd" id="path4281" stroke-width="1.046" d="m 8.0136231,6 0,3.8151203"/>
 <path opacity="0.37" fill="none" stroke="#000" fill-rule="evenodd" id="path4277" d="m 8.6097884,6 0.7670487,5.918667"/>
 <path opacity="0.35" fill="none" stroke="#000" fill-rule="evenodd" id="path4279" d="M 7.2452155,6.0272462 6.6400258,11.930342"/>
 <metadata id="metadata9999">
  <rdf:RDF>
   <cc:Work>
    <dc:format>image/svg+xml</dc:format>
    <dc:type rdf:resource="http://purl.org/dc/dcmitype/StillImage"/>
    <dc:title>Ivy icon theme</dc:title>
    <cc:license rdf:resource="http://creativecommons.org/licenses/by-sa/4.0/"/>
    <dc:creator>
     <cc:Agent>
      <dc:title>Sixsixfive (sixsixfive.deviantart.com)</dc:title>
     </cc:Agent>
    </dc:creator>
    <dc:publisher>
     <cc:Agent>
      <dc:title>Sixsixfive (sixsixfive.deviantart.com)</dc:title>
     </cc:Agent>
    </dc:publisher>
    <dc:source>https://github.com/sixsixfive</dc:source>
    <dc:subject>
     <rdf:Bag>
      <rdf:li>ivy</rdf:li>
     </rdf:Bag>
    </dc:subject>
    <dc:contributor>
     <cc:Agent>
      <dc:title>ssf</dc:title>
     </cc:Agent>
    </dc:contributor>
    <dc:rights>
     <cc:Agent>
      <dc:title>Sixsixfive (sixisixfive.deviantart.com)</dc:title>
     </cc:Agent>
    </dc:rights>
    <dc:description>A simple icon theme published under CC-BY-SA_V4(http://creativecommons.org/licenses/by-sa/4.0)</dc:description>
    <dc:identifier>SSF</dc:identifier>
   </cc:Work>
  </rdf:RDF>
 </metadata>
 <!--Part of the Ivy icon them published under the CC-BY-SA_V4: http://creativecommons.org/licenses/by-sa/4.0 -->
</svg>
