<?xml version="1.0" encoding="UTF-8" standalone="no"?>
<svg xmlns:dc="http://purl.org/dc/elements/1.1/" xmlns:cc="http://creativecommons.org/ns#" xmlns:rdf="http://www.w3.org/1999/02/22-rdf-syntax-ns#" xmlns:svg="http://www.w3.org/2000/svg" xmlns="http://www.w3.org/2000/svg" xmlns:xlink="http://www.w3.org/1999/xlink" viewBox="0 0 16 16" id="svg2" version="1.1">
 <defs id="1">
  <linearGradient id="8" y1="5.862" y2="78.13" gradientUnits="userSpaceOnUse" x2="0" gradientTransform="matrix(0.14591 0 0 0.15221 -0.773 -0.892)">
   <stop stop-color="#d02604" id="B"/>
   <stop offset="1" stop-color="#fc7357" id="C"/>
  </linearGradient>
  <linearGradient id="9" y1="5.862" y2="78.13" gradientUnits="userSpaceOnUse" x2="0" gradientTransform="matrix(0.14591 0 0 0.15221 4.227 3.108)">
   <stop stop-color="#171717" id="D"/>
   <stop offset="1" stop-color="#686868" id="E"/>
  </linearGradient>
 </defs>
 <path fill="url(#8)" fill-rule="evenodd" id="2" d="M -0.026061,0 0,4 H 1 C 1,3 1,3.00017 2.811529,3.00017 H 4 V 8.666667 C 4,9 3.791522,8.742697 3.541195,9 H 2 v 2 H 5.48697 9 V 9 H 7.432745 C 7.07376,9 7,9 7,8.666334 V 2.999833 L 8.162411,3.00017 C 10,3.00069 10,3 10,4 h 0.999591 L 11,0 H 5.48697 z"/>
 <path opacity="0.4" fill="none" stroke="#000" id="3" d="M 0.4375,0.4688 0.4687,3.5313 H 0.5625 C 0.568165,3.462963 0.548351,3.382617 0.5625,3.31255 0.607059,3.091883 0.76965,2.845822 1,2.7188 1.4607,2.464757 1.906736,2.5313 2.8125,2.5313 H 4 A 0.474294,0.474294 0 0 1 4.46875,3.00005 V 8.6563 c 0,0.135127 -0.014244,0.307172 -0.15625,0.46875 C 4.170494,9.286628 4.00531,9.302991 3.9375,9.31255 3.801877,9.331668 3.899223,9.3189 3.875,9.3438 a 0.474294,0.474294 0 0 1 -0.34375,0.125 h -1.0625 v 1.0625 H 5.5 8.53125 V 9.4688 H 7.4375 c -0.183932,0 -0.361208,0.055882 -0.625,-0.125 C 6.680604,9.253359 6.595128,9.08922 6.5625,8.9688 6.529872,8.848384 6.53125,8.758316 6.53125,8.6563 V 3.00005 A 0.474294,0.474294 0 0 1 7,2.5313 H 8.15625 C 9.075,2.531564 9.53688,2.468584 10,2.7188 c 0.231561,0.125108 0.391209,0.371564 0.4375,0.59375 0.0147,0.07055 -0.0059,0.150057 0,0.21875 h 0.09375 V 0.4688 H 5.5 0.4375 z"/>
 <path opacity="0.2" fill="#fff" id="4" d="m 1,1 h 9 V 2 H 1 z"/>
 <path fill="url(#9)" fill-rule="evenodd" id="5" d="M 4.973939,4 5,8 H 6 C 6,7 6,7.000167 7.811529,7.000167 H 9 v 5.6665 C 9,13 8.791522,12.742697 8.541195,13 H 7 v 2 H 10.48697 14 V 13 H 12.432745 C 12.07376,13 12,13 12,12.666334 V 6.999833 l 1.162411,3.34e-4 C 15,7.00069 15,7 15,8 h 0.999591 L 16,4 h -5.51303 z"/>
 <use width="16" height="16" xlink:href="#3" id="6" transform="matrix(1 0 0 1 5 4)"/>
 <path opacity="0.2" fill="#fff" id="7" d="m 6,5 h 9 V 6 H 6 z"/>
 <metadata id="metadata9999">
  <rdf:RDF>
   <cc:Work>
    <dc:format>image/svg+xml</dc:format>
    <dc:type rdf:resource="http://purl.org/dc/dcmitype/StillImage"/>
    <dc:title>Ivy icon theme</dc:title>
    <cc:license rdf:resource="http://creativecommons.org/licenses/by-sa/4.0/"/>
    <dc:creator>
     <cc:Agent>
      <dc:title>Sixsixfive (sixsixfive.deviantart.com)</dc:title>
     </cc:Agent>
    </dc:creator>
    <dc:publisher>
     <cc:Agent>
      <dc:title>Sixsixfive (sixsixfive.deviantart.com)</dc:title>
     </cc:Agent>
    </dc:publisher>
    <dc:source>https://github.com/sixsixfive</dc:source>
    <dc:subject>
     <rdf:Bag>
      <rdf:li>ivy</rdf:li>
     </rdf:Bag>
    </dc:subject>
    <dc:contributor>
     <cc:Agent>
      <dc:title>ssf</dc:title>
     </cc:Agent>
    </dc:contributor>
    <dc:rights>
     <cc:Agent>
      <dc:title>Sixsixfive (sixisixfive.deviantart.com)</dc:title>
     </cc:Agent>
    </dc:rights>
    <dc:description>A simple icon theme published under CC-BY-SA_V4(http://creativecommons.org/licenses/by-sa/4.0)</dc:description>
    <dc:identifier>SSF</dc:identifier>
   </cc:Work>
  </rdf:RDF>
 </metadata>
 <!--Part of the Ivy icon them published under the CC-BY-SA_V4: http://creativecommons.org/licenses/by-sa/4.0 -->
</svg>
