<?xml version="1.0" encoding="UTF-8" standalone="no"?>
<svg xmlns:dc="http://purl.org/dc/elements/1.1/" xmlns:cc="http://creativecommons.org/ns#" xmlns:rdf="http://www.w3.org/1999/02/22-rdf-syntax-ns#" xmlns:svg="http://www.w3.org/2000/svg" xmlns="http://www.w3.org/2000/svg" xmlns:xlink="http://www.w3.org/1999/xlink" viewBox="0 0 16 16" id="svg2" version="1.1">
 <defs id="defs4">
  <linearGradient xlink:href="#4" id="1" y1="1011.36" y2="1019.36" gradientUnits="userSpaceOnUse" x2="0" gradientTransform="matrix(0.35714276 0 0 0.4761844 -0.072639 556.8385)"/>
  <linearGradient id="4">
   <stop stop-color="#c1871d" id="stop11"/>
   <stop offset="1" stop-color="#e4ae4e" id="stop13"/>
  </linearGradient>
  <linearGradient id="5">
   <stop stop-color="#fff" id="stop16"/>
   <stop offset="1" stop-color="#fff" id="stop18" stop-opacity="0"/>
  </linearGradient>
  <linearGradient id="6" y1="1007.36" y2="1049.36" gradientUnits="userSpaceOnUse" x2="0" gradientTransform="matrix(0.49999944 0 0 0.38095227 -3.499994 -383.75579)">
   <stop stop-color="#df9e2a" id="stop21"/>
   <stop offset="1" stop-color="#e8ba69" id="stop23"/>
  </linearGradient>
  <linearGradient id="linearGradient3423" xlink:href="#5" y1="1012.36" y2="1018.36" x2="0" gradientUnits="userSpaceOnUse" gradientTransform="matrix(1 0 0 1 0 -1004.36)"/>
 </defs>
 <path fill="url(#6)" id="path31" color="#000" d="m 7,0 3,0 0,16 -3,0 z"/>
 <path opacity="0.4" fill="none" stroke="#000" id="path3433" color="#000" d="m 7.4960938,0.49609375 0,15.00781225 2.0078124,0 0,-15.00781225 -2.0078124,0 z"/>
 <g id="g37" transform="matrix(1.1789479,0,0,1.0493179,-1.598573,-1087.6459)" color="#000">
  <path id="path45" d="m 3.05236,1038.4326 11.874995,-1e-4 0,3.812 -11.874995,10e-5 -1.6964278,-1.906 z" fill="url(#1)"/>
 </g>
 <g id="g51" transform="matrix(-1,0,0,1,51,-1024.373)">
  <path id="use53" d="m 9.1875,7.515 -4.375,3.5 4.375,3.5 32.3125,0 0,-7 -32.3125,0 z" opacity="0.4" fill="none" stroke="#000" color="#000"/>
  <path id="use55" d="m 9.5625,8.515 -3.125,2.5 3.125,2.5 30.9375,0 0,-5 -30.9375,0 z" opacity="0.4" fill="none" stroke="url(#linearGradient3423)" color="#000"/>
 </g>
 <rect width="13" x="2" opacity="0.4" y="3" fill="#fff" height="1" id="rect4255"/>
 <g id="g3435" transform="matrix(1.1789479,0,0,1.0493179,-1.598573,-1087.6459)" opacity="0.4" fill="none" stroke="#000" color="#000" stroke-width="0.899">
  <path id="path4239" d="m 3.2636719,1038.9043 -1.2753907,1.4336 1.2753907,1.4336 11.1914061,0 0,-2.8672 -11.1914061,0 z"/>
 </g>
 <g id="g4241" transform="matrix(-1.1789479,0,0,1.0493179,17.598574,-1082.6459)" color="#000">
  <path id="path4243" d="m 3.05236,1038.4326 11.874995,-1e-4 0,3.812 -11.874995,10e-5 -1.6964278,-1.906 z" fill="url(#1)"/>
 </g>
 <rect width="13" x="1" opacity="0.4" y="8" fill="#fff" height="1" id="rect4257"/>
 <g id="g4245" transform="matrix(-1.1789479,0,0,1.0493179,17.598574,-1082.6459)" opacity="0.4" fill="none" stroke="#000" color="#000" stroke-width="0.899">
  <path id="path4247" d="m 3.2636719,1038.9043 -1.2753907,1.4336 1.2753907,1.4336 11.1914061,0 0,-2.8672 -11.1914061,0 z"/>
 </g>
 <rect width="3" x="7" opacity="0.4" y="6" height="1" id="rect4251"/>
 <rect width="1" x="8" opacity="0.4" y="1" fill="#fff" height="1" id="rect4253"/>
 <rect width="3" x="7" opacity="0.4" y="11" height="1" id="rect4259"/>
 <metadata id="metadata9999">
  <rdf:RDF>
   <cc:Work>
    <dc:format>image/svg+xml</dc:format>
    <dc:type rdf:resource="http://purl.org/dc/dcmitype/StillImage"/>
    <dc:title>Ivy icon theme</dc:title>
    <cc:license rdf:resource="http://creativecommons.org/licenses/by-sa/4.0/"/>
    <dc:creator>
     <cc:Agent>
      <dc:title>Sixsixfive (sixsixfive.deviantart.com)</dc:title>
     </cc:Agent>
    </dc:creator>
    <dc:publisher>
     <cc:Agent>
      <dc:title>Sixsixfive (sixsixfive.deviantart.com)</dc:title>
     </cc:Agent>
    </dc:publisher>
    <dc:source>https://github.com/sixsixfive</dc:source>
    <dc:subject>
     <rdf:Bag>
      <rdf:li>ivy</rdf:li>
     </rdf:Bag>
    </dc:subject>
    <dc:contributor>
     <cc:Agent>
      <dc:title>ssf</dc:title>
     </cc:Agent>
    </dc:contributor>
    <dc:rights>
     <cc:Agent>
      <dc:title>Sixsixfive (sixisixfive.deviantart.com)</dc:title>
     </cc:Agent>
    </dc:rights>
    <dc:description>A simple icon theme published under CC-BY-SA_V4(http://creativecommons.org/licenses/by-sa/4.0)</dc:description>
    <dc:identifier>SSF</dc:identifier>
   </cc:Work>
  </rdf:RDF>
 </metadata>
 <!--Part of the Ivy icon them published under the CC-BY-SA_V4: http://creativecommons.org/licenses/by-sa/4.0 -->
</svg>
