<?xml version="1.0" encoding="UTF-8" standalone="no"?><svg xmlns:cc="http://creativecommons.org/ns#" xmlns:dc="http://purl.org/dc/elements/1.1/" xmlns="http://www.w3.org/2000/svg" xmlns:svg="http://www.w3.org/2000/svg" xmlns:rdf="http://www.w3.org/1999/02/22-rdf-syntax-ns#" id="svg2" version="1.1" viewBox="0 0 16 16"><defs id="defs4"><linearGradient gradientTransform="matrix(0.57142 0 0 0.50794 -1.428 0)" gradientUnits="userSpaceOnUse" y1="0" id="0" y2="12" x2="0"><stop id="stop7" stop-color="#fff"/><stop stop-opacity="0.635" id="stop9" stop-color="#fff" offset="1"/></linearGradient><linearGradient gradientUnits="userSpaceOnUse" y1="0.969" id="1" y2="19.656" x2="0"><stop id="stop12" stop-color="#fff"/><stop stop-opacity="0" id="stop14" stop-color="#fff" offset="1"/></linearGradient><radialGradient gradientTransform="matrix(0.95236 0 0 0.7619 -7.714 -3.428)" cy="15" cx="16.5" gradientUnits="userSpaceOnUse" r="10.5" id="2"><stop id="stop17" stop-color="#ebebeb"/><stop id="stop19" stop-color="#b8b8b8" offset="1"/></radialGradient></defs><path d="M 6.571611 0.000117 C 4.0391 0.000117 2.00029 1.903036 2.00029 4.266753 2.00029 9.06672 2.00029 4.266753 2.00029 9.06672 2.00029 12.90776 4.676225 16 8.00014 16 11.32409 16 14 12.90776 14 9.06672 14 4.266753 14 9.06672 14 4.266753 14 1.903036 11.961192 0.000117 9.428693 0.000117 z" id="path21" fill="url(#2)"/><path opacity="0.6" d="M 6.571611 0.000117 C 4.0391 0.000117 2.00029 1.812422 2.00029 4.063579 V 6.095306 H 7.714444 H 14 V 4.063579 C 14 1.812422 11.961192 0.000117 9.428693 0.000117 H 7.714444 H 6.571611 z" id="path23" fill="url(#0)"/><path d="M 6.800179 3.809613 H 9.200117 V 6.095306 H 6.800179 z" id="path25" fill="#cecece"/><path opacity="0.4" d="M 3 6 H 12.87505 V 7 H 3 z" id="path27"/><path opacity="0.2" d="M 7 1.047725 H 9 V 3.047714 H 7 z" id="path29"/><path opacity="0.6" d="M 9.4375 0 C 11.970014 0 14 1.811343 14 4.0625 V 6.09375 H 9 V 4 H 8 V 0 z" id="path31" fill="#ff8b36"/><path opacity="0.4" d="M 6 4 H 7 V 6.095306 H 6 z" id="path33"/><path opacity="0.4" d="M 9 4 H 10 V 6.095306 H 9 z" id="path35"/><path opacity="0.4" d="M 9.200117 3.062952 V 4 H 7 V 3.062952 z" id="path37"/><path opacity="0.4" d="M 7 4 H 9 V 5 H 7 z" id="path39" fill="#fff"/><g transform="matrix(0.79998 0 0 0.7619 -1.2 0)" id="g41" fill="none"><path transform="matrix(0.99936 0 0 1.01865 0.007 -0.005)" stroke="#000" stroke-width="1.27" opacity="0.4" d="m 9.71875,0.65625 c -2.828678,0 -5.0625,2.161696 -5.0625,4.84375 l 0,6.1875 c 0,4.657506 3.107784,8.28125 6.84375,8.28125 3.735968,0 6.84375,-3.623744 6.84375,-8.28125 l 0,-6.1875 c 0,-2.682054 -2.23382,-4.84375 -5.0625,-4.84375 l -3.5625,0 z" id="path43"/><path stroke="url(#1)" stroke-width="1.281" opacity="0.4" d="m 9.71875,2.03125 c -2.143868,0 -3.6875,1.535858 -3.6875,3.46875 l 0,6.1875 c 0,4.057973 2.613624,6.90625 5.46875,6.90625 2.855128,0 5.46875,-2.848276 5.46875,-6.90625 l 0,-6.1875 c 0,-1.932893 -1.543631,-3.46875 -3.6875,-3.46875 l -3.5625,0 z" id="path45"/></g><path opacity="0.4" d="M 3 7 H 12.87505 V 8 H 3 z" id="path47" fill="#fff"/><metadata id="metadata9999"><rdf:RDF><cc:Work><dc:format>image/svg+xml</dc:format><dc:type rdf:resource="http://purl.org/dc/dcmitype/StillImage"/><dc:title>Ivy icon theme</dc:title><cc:license rdf:resource="http://creativecommons.org/licenses/by-sa/4.0/"/><dc:creator><cc:Agent><dc:title>Sixsixfive (sixsixfive.deviantart.com)</dc:title></cc:Agent></dc:creator><dc:publisher><cc:Agent><dc:title>Sixsixfive (sixsixfive.deviantart.com)</dc:title></cc:Agent></dc:publisher><dc:source>https://github.com/sixsixfive</dc:source><dc:subject><rdf:Bag><rdf:li>ivy</rdf:li></rdf:Bag></dc:subject><dc:contributor><cc:Agent><dc:title>ssf</dc:title></cc:Agent></dc:contributor><dc:rights><cc:Agent><dc:title>Sixsixfive (sixisixfive.deviantart.com)</dc:title></cc:Agent></dc:rights><dc:description>A simple icon theme published under CC-BY-SA_V4(http://creativecommons.org/licenses/by-sa/4.0)</dc:description><dc:identifier>SSF</dc:identifier></cc:Work></rdf:RDF></metadata><!--Part of the Ivy icon them published under the CC-BY-SA_V4: http://creativecommons.org/licenses/by-sa/4.0 -->
</svg>