<?xml version="1.0" encoding="UTF-8" standalone="no"?><svg xmlns:cc="http://creativecommons.org/ns#" xmlns:rdf="http://www.w3.org/1999/02/22-rdf-syntax-ns#" xmlns:svg="http://www.w3.org/2000/svg" id="svg2" viewBox="0 0 48 48" version="1.1" xmlns:xlink="http://www.w3.org/1999/xlink" xmlns="http://www.w3.org/2000/svg" xmlns:dc="http://purl.org/dc/elements/1.1/"><defs id="defs4"><linearGradient id="linearGradient4276"><stop id="stop4278"/><stop offset="1" id="stop4280" stop-opacity="0"/></linearGradient><linearGradient id="linearGradient4264"><stop id="stop4266" stop-color="#fff"/><stop offset="1" id="stop4268" stop-color="#fff" stop-opacity="0"/></linearGradient><linearGradient id="linearGradient4254"><stop id="stop4256" stop-color="#6a6a6a"/><stop offset="1" id="stop4258" stop-color="#aeaeae"/></linearGradient><linearGradient id="linearGradient4242"><stop id="stop4244" stop-color="#a868d4"/><stop offset="1" id="stop4246" stop-color="#cca6e6"/></linearGradient><linearGradient id="linearGradient4198" x2="0" y2="16" xlink:href="#linearGradient4264" y1="4" gradientUnits="userSpaceOnUse"/><linearGradient id="linearGradient4248" x2="0" y2="42" xlink:href="#linearGradient4242" y1="28" gradientUnits="userSpaceOnUse"/><linearGradient id="linearGradient4250" x2="0" y2="17" xlink:href="#linearGradient4242" y1="3" gradientUnits="userSpaceOnUse"/><linearGradient id="linearGradient4260" x2="43" y2="27" xlink:href="#linearGradient4254" x1="16" y1="7" gradientUnits="userSpaceOnUse"/><linearGradient id="linearGradient4270" x2="11" gradientTransform="matrix(1 0 0 1.1875 0 -6.375)" xlink:href="#linearGradient4264" x1="14" gradientUnits="userSpaceOnUse"/><linearGradient id="linearGradient4282" x2="37" xlink:href="#linearGradient4276" x1="34" gradientUnits="userSpaceOnUse"/></defs><path id="path4226" opacity="0.1" d="m 9,13 a 1.0001,1.0001 0 0 0 -1,1 l 0,24 a 1.0001,1.0001 0 0 0 1,1 l 30,0 a 1.0001,1.0001 0 0 0 1,-1 l 0,-24 -1,0 -1,0 -2,0 -1,0 -1,0 0,19 -20,0 0,-19 a 1.0001,1.0001 0 0 0 -1,-1 l -4,0 z" fill-rule="evenodd"/><path id="path3379" d="M 9 12 A 1.0001 1.0001 0 0 0 8 13 L 8 37 A 1.0001 1.0001 0 0 0 9 38 L 39 38 A 1.0001 1.0001 0 0 0 40 37 L 40 13 L 39 13 L 38 13 L 36 13 L 35 13 L 34 13 L 34 32 L 14 32 L 14 13 A 1.0001 1.0001 0 0 0 13 12 L 9 12 z " fill-rule="evenodd" fill="url(#linearGradient4260)"/><rect rx="1.5" ry="4" height="19" id="rect4272" opacity="0.1" width="3" x="34" y="15" fill-rule="evenodd" fill="url(#linearGradient4282)"/><circle stroke-linecap="round" r="7" cx="11" id="circle4200" cy="11" opacity="0.1"/><rect rx="1.5" ry="4" height="19" id="rect4262" opacity="0.6" width="3" x="11" y="15" fill-rule="evenodd" fill="url(#linearGradient4270)"/><path id="path4224" opacity="0.4" d="M 9,12.496094 C 8.7356313,12.49612 8.4961202,12.735631 8.4960938,13 l 0,24 C 8.4961202,37.264369 8.7356313,37.50388 9,37.503906 l 30,0 C 39.264369,37.50388 39.50388,37.264369 39.503906,37 l 0,-23.503906 -0.503906,0 -1,0 -2,0 -1,0 -0.503906,0 0,18.503906 A 0.49517811,0.49517811 0 0 1 34,32.496094 l -20,0 A 0.49517811,0.49517811 0 0 1 13.503906,32 l 0,-19 C 13.50388,12.735631 13.264369,12.49612 13,12.496094 l -4,0 z" stroke="#000" fill-rule="evenodd" fill="none"/><circle stroke-linecap="round" r="7" cx="11" id="path3358" cy="10" fill="url(#linearGradient4250)"/><path stroke-linecap="round" id="path4188" opacity="0.4" d="m 11,3.4882812 c -1.7049939,1e-7 -3.399856,0.7006373 -4.6054688,1.90625 C 5.1889185,6.600144 4.4882812,8.2950061 4.4882812,10 c 0,1.704994 0.7006373,3.399856 1.90625,4.605469 1.2056128,1.205613 2.9004749,1.90625 4.6054688,1.90625 1.704994,0 3.399856,-0.700637 4.605469,-1.90625 1.205613,-1.205613 1.90625,-2.900475 1.90625,-4.605469 0,-1.7049939 -0.700637,-3.399856 -1.90625,-4.6054688 C 14.399856,4.1889185 12.704994,3.4882812 11,3.4882812 Z" stroke="#000" fill="none"/><path stroke-linecap="round" id="path4190" opacity="0.4" d="m 11,4.4960938 c -1.4409823,0 -2.8736498,0.5923997 -3.8925781,1.6113281 C 6.0884935,7.1263502 5.4960938,8.5590177 5.4960938,10 c 0,1.440982 0.5923997,2.87365 1.6113281,3.892578 1.0189283,1.018928 2.4515958,1.611328 3.8925781,1.611328 1.440982,0 2.87365,-0.5924 3.892578,-1.611328 C 15.911506,12.87365 16.503906,11.440982 16.503906,10 c 0,-1.4409823 -0.5924,-2.8736498 -1.611328,-3.8925781 C 13.87365,5.0884935 12.440982,4.4960938 11,4.4960938 Z" stroke="url(#linearGradient4198)" fill="none"/><rect height="1" id="rect4228" opacity="0.25" width="21" x="13" y="33" fill-rule="evenodd" fill="#fff"/><circle stroke-linecap="round" r="7" cx="24" id="circle4202" cy="36.01172" opacity="0.1"/><circle stroke-linecap="round" r="7" cx="24" id="circle4204" cy="35.01172" fill="url(#linearGradient4248)"/><path stroke-linecap="round" id="path4206" opacity="0.4" d="m 11,3.4882812 c -1.7049939,1e-7 -3.399856,0.7006373 -4.6054688,1.90625 C 5.1889185,6.600144 4.4882812,8.2950061 4.4882812,10 c 0,1.704994 0.7006373,3.399856 1.90625,4.605469 1.2056128,1.205613 2.9004749,1.90625 4.6054688,1.90625 1.704994,0 3.399856,-0.700637 4.605469,-1.90625 1.205613,-1.205613 1.90625,-2.900475 1.90625,-4.605469 0,-1.7049939 -0.700637,-3.399856 -1.90625,-4.6054688 C 14.399856,4.1889185 12.704994,3.4882812 11,3.4882812 Z" stroke="#000" transform="matrix(1 0 0 1 13 25.011719)" fill="none"/><path stroke-linecap="round" id="path4208" opacity="0.4" d="m 11,4.4960938 c -1.4409823,0 -2.8736498,0.5923997 -3.8925781,1.6113281 C 6.0884935,7.1263502 5.4960938,8.5590177 5.4960938,10 c 0,1.440982 0.5923997,2.87365 1.6113281,3.892578 1.0189283,1.018928 2.4515958,1.611328 3.8925781,1.611328 1.440982,0 2.87365,-0.5924 3.892578,-1.611328 C 15.911506,12.87365 16.503906,11.440982 16.503906,10 c 0,-1.4409823 -0.5924,-2.8736498 -1.611328,-3.8925781 C 13.87365,5.0884935 12.440982,4.4960938 11,4.4960938 Z" stroke="url(#linearGradient4198)" transform="matrix(1 0 0 1 13 25.011719)" fill="none"/><circle stroke-linecap="round" r="7" cx="37.00391" id="circle4212" cy="11" opacity="0.1"/><circle stroke-linecap="round" r="7" cx="37.00391" id="circle4214" cy="10" fill="url(#linearGradient4250)"/><path stroke-linecap="round" id="path4216" opacity="0.4" d="m 11,3.4882812 c -1.7049939,1e-7 -3.399856,0.7006373 -4.6054688,1.90625 C 5.1889185,6.600144 4.4882812,8.2950061 4.4882812,10 c 0,1.704994 0.7006373,3.399856 1.90625,4.605469 1.2056128,1.205613 2.9004749,1.90625 4.6054688,1.90625 1.704994,0 3.399856,-0.700637 4.605469,-1.90625 1.205613,-1.205613 1.90625,-2.900475 1.90625,-4.605469 0,-1.7049939 -0.700637,-3.399856 -1.90625,-4.6054688 C 14.399856,4.1889185 12.704994,3.4882812 11,3.4882812 Z" stroke="#000" transform="matrix(1 0 0 1 26.003906 0.0000001)" fill="none"/><path stroke-linecap="round" id="path4218" opacity="0.4" d="m 11,4.4960938 c -1.4409823,0 -2.8736498,0.5923997 -3.8925781,1.6113281 C 6.0884935,7.1263502 5.4960938,8.5590177 5.4960938,10 c 0,1.440982 0.5923997,2.87365 1.6113281,3.892578 1.0189283,1.018928 2.4515958,1.611328 3.8925781,1.611328 1.440982,0 2.87365,-0.5924 3.892578,-1.611328 C 15.911506,12.87365 16.503906,11.440982 16.503906,10 c 0,-1.4409823 -0.5924,-2.8736498 -1.611328,-3.8925781 C 13.87365,5.0884935 12.440982,4.4960938 11,4.4960938 Z" stroke="url(#linearGradient4198)" transform="matrix(1 0 0 1 26.003906 0.0000001)" fill="none"/><metadata id="metadata9999"><rdf:RDF><cc:Work><dc:format>image/svg+xml</dc:format><dc:type rdf:resource="http://purl.org/dc/dcmitype/StillImage"/><dc:title>Ivy icon theme</dc:title><cc:license rdf:resource="http://creativecommons.org/licenses/by-sa/4.0/"/><dc:creator><cc:Agent><dc:title>Sixsixfive (sixsixfive.deviantart.com)</dc:title></cc:Agent></dc:creator><dc:publisher><cc:Agent><dc:title>Sixsixfive (sixsixfive.deviantart.com)</dc:title></cc:Agent></dc:publisher><dc:source>https://github.com/sixsixfive</dc:source><dc:subject><rdf:Bag><rdf:li>ivy</rdf:li></rdf:Bag></dc:subject><dc:contributor><cc:Agent><dc:title>ssf</dc:title></cc:Agent></dc:contributor><dc:rights><cc:Agent><dc:title>Sixsixfive (sixisixfive.deviantart.com)</dc:title></cc:Agent></dc:rights><dc:description>A simple icon theme published under CC-BY-SA_V4(http://creativecommons.org/licenses/by-sa/4.0)</dc:description><dc:identifier>SSF</dc:identifier></cc:Work></rdf:RDF></metadata><!--Part of the Ivy icon them published under the CC-BY-SA_V4: http://creativecommons.org/licenses/by-sa/4.0 -->
</svg>