<?xml version="1.0" encoding="UTF-8" standalone="no"?>
<svg xmlns:dc="http://purl.org/dc/elements/1.1/" xmlns:cc="http://creativecommons.org/ns#" xmlns:rdf="http://www.w3.org/1999/02/22-rdf-syntax-ns#" xmlns:svg="http://www.w3.org/2000/svg" xmlns="http://www.w3.org/2000/svg" version="1.1" id="svg2" viewBox="0 0 16 16">
 <defs id="defs4">
  <linearGradient gradientUnits="userSpaceOnUse" x2="0" y2="15" y1="6" id="0">
   <stop id="stop7" stop-color="#fff"/>
   <stop id="stop9" stop-opacity="0" stop-color="#fff" offset="1"/>
  </linearGradient>
  <linearGradient gradientTransform="matrix(0.39987 0 0 0.40756 -1.597 -3.154)" gradientUnits="userSpaceOnUse" x2="0" y2="47" y1="20" id="1">
   <stop id="stop12" stop-color="#929292"/>
   <stop id="stop14" stop-color="#d6d6d6" offset="1"/>
  </linearGradient>
  <radialGradient gradientTransform="matrix(-0.99255 0.75504 -0.82653 -0.83152 41.831 -7.189)" gradientUnits="userSpaceOnUse" id="2" r="11" cy="12.786" cx="25.27">
   <stop id="stop17" stop-color="#ebebeb"/>
   <stop id="stop19" stop-color="#6a6a6a" offset="1"/>
  </radialGradient>
 </defs>
 <path id="path21" d="m 6.6362 0.0262 c -2.01475 0 -3.63673 1.41893 -3.63673 3.18145 v 4.37449 c 0 1.76252 1.62198 3.18145 3.63673 3.18145 h 2.72754 c 2.01475 0 3.63673 -1.41893 3.63673 -3.18145 V 3.20765 c 0 -1.76252 -1.62198 -3.18145 -3.63673 -3.18145 z m 0.3813 3.0089 h 1.9921 c 1.04228 0 1.04398 0.105314 1.037 1.01709 l -0.0272 3.5574 c -0.007 0.911775 0.386613 1.56336 -0.65567 1.56336 H 6.63619 c -1.04228 0 -0.601196 -0.59721 -0.601196 -1.50901 V 5.47669 l -0.0545 -1.4791 C 3.272394 3.00007 3.272394 3.035101 4.289954 3.035101 z" fill="url(#2)"/>
 <path id="path23" d="m 6.625 0.5625 c -1.75789 0 -3.09375 1.22552 -3.09375 2.65625 v 4.375 c 0 1.43073 1.33023 2.625 3.09375 2.625 h 2.75 c 1.76352 0 3.09375 -1.19427 3.09375 -2.625 v -4.375 C 12.46875 1.78802 11.13289 0.5625 9.375 0.5625 H 6.625 z M 6.4062 2.5 c 0.192093 -0.016983 0.373178 0 0.625 0 h 1.96875 c 0.270978 0 0.47835 -0.00518 0.6875 0.03125 0.20915 0.036433 0.451837 0.118513 0.625 0.3125 0.173163 0.193987 0.229412 0.432672 0.25 0.625 0.02059 0.192328 0.0017 0.366118 0 0.59375 V 7.625 c -0.0029 0.376625 0.117257 0.727086 0.0625 1.1875 -0.02738 0.230207 -0.154601 0.546334 -0.40625 0.71875 -0.251649 0.172416 -0.526495 0.1875 -0.84375 0.1875 h -2.75 C 6.310419 9.71875 6.03471 9.706661 5.7812 9.53125 5.527687 9.355839 5.421526 9.03948 5.4062 8.8125 5.375548 8.358533 5.49995 8.02282 5.49995 7.65625 V 5.46875 L 5.43745 4.03125 A 0.544809 0.544809 0 0 1 5.43745 4 C 5.442358 3.748249 5.438687 3.540148 5.4687 3.34375 5.498713 3.147352 5.578705 2.893696 5.7812 2.71875 5.983695 2.543804 6.214107 2.516983 6.4062 2.5 z" stroke="#000" fill="none" opacity="0.3"/>
 <rect id="rect25" height="11" rx="1.223" fill="url(#1)" y="4.998" x="2" width="11.996" ry="1.223"/>
 <path id="path27" d="M 6,1 H10 V2 H6 z" fill="#fff" opacity="0.5"/>
 <path id="path29" d="M 2.219,7.972 H13.815 V10.01 H2.219 z" fill="#ffd506"/>
 <path id="path31" d="m 2.2195,10.0097 1.9994,-2.0378 1.9994,0 -1.9994,2.0378 z"/>
 <path id="path33" d="m 6,10 2.2721,-2.0328 2.2721,0 L 8.2721,10 z"/>
 <path id="path35" d="m 12.2163,7.9719 -1.9994,2.0378 1.9994,0 1.5995,-1.6303 0,-0.4076 h -1.59949 z"/>
 <path id="path37" d="m 3.1875 5.5312 c -0.388647 0 -0.65625 0.277882 -0.65625 0.6875 v 8.5625 c 0 0.409617 0.267603 0.6875 0.65625 0.6875 h 9.625 c 0.388648 0 0.65625 -0.277882 0.65625 -0.6875 V 6.2187 c 0 -0.409618 -0.267602 -0.6875 -0.65625 -0.6875 h -9.625 z" stroke="#000" fill="none" opacity="0.4"/>
 <path id="path39" d="M 2.219,9 H13.415 V10.01 H2.219 z" opacity="0.3"/>
 <g id="g41" fill="#fff">
  <path id="path43" d="m 2,10 11.196,0 0,1 L 2,11 Z" opacity="0.36"/>
  <path id="path45" d="m 2.219,7 11.196,0 0,0.972 -11.196,0 z" opacity="0.26"/>
 </g>
 <path id="path47" transform="matrix(1 0 0 1 -0.031 -0.031)" d="m 3.5312 6.5312 v 7.9375 h 8.9375 v -7.9375 H 3.5312 z" stroke="url(#0)" fill="none" opacity="0.2"/>
 <metadata id="metadata9999">
  <rdf:RDF>
   <cc:Work>
    <dc:format>image/svg+xml</dc:format>
    <dc:type rdf:resource="http://purl.org/dc/dcmitype/StillImage"/>
    <dc:title>Ivy icon theme</dc:title>
    <cc:license rdf:resource="http://creativecommons.org/licenses/by-sa/4.0/"/>
    <dc:creator>
     <cc:Agent>
      <dc:title>Sixsixfive (sixsixfive.deviantart.com)</dc:title>
     </cc:Agent>
    </dc:creator>
    <dc:publisher>
     <cc:Agent>
      <dc:title>Sixsixfive (sixsixfive.deviantart.com)</dc:title>
     </cc:Agent>
    </dc:publisher>
    <dc:source>https://github.com/sixsixfive</dc:source>
    <dc:subject>
     <rdf:Bag>
      <rdf:li>ivy</rdf:li>
     </rdf:Bag>
    </dc:subject>
    <dc:contributor>
     <cc:Agent>
      <dc:title>ssf</dc:title>
     </cc:Agent>
    </dc:contributor>
    <dc:rights>
     <cc:Agent>
      <dc:title>Sixsixfive (sixisixfive.deviantart.com)</dc:title>
     </cc:Agent>
    </dc:rights>
    <dc:description>A simple icon theme published under CC-BY-SA_V4(http://creativecommons.org/licenses/by-sa/4.0)</dc:description>
    <dc:identifier>SSF</dc:identifier>
   </cc:Work>
  </rdf:RDF>
 </metadata>
 <!--Part of the Ivy icon them published under the CC-BY-SA_V4: http://creativecommons.org/licenses/by-sa/4.0 -->
</svg>
