<?xml version="1.0" encoding="UTF-8" standalone="no"?>
<svg xmlns:dc="http://purl.org/dc/elements/1.1/" xmlns:cc="http://creativecommons.org/ns#" xmlns:rdf="http://www.w3.org/1999/02/22-rdf-syntax-ns#" xmlns:svg="http://www.w3.org/2000/svg" xmlns="http://www.w3.org/2000/svg" xmlns:xlink="http://www.w3.org/1999/xlink" viewBox="0 0 16 16" id="svg2" version="1.1">
 <defs id="0">
  <linearGradient id="6">
   <stop stop-color="#fff" id="F"/>
   <stop offset="1" stop-color="#fff" id="G" stop-opacity="0"/>
  </linearGradient>
  <linearGradient id="7">
   <stop stop-color="#a3c0e7" id="H"/>
   <stop offset="1" stop-color="#fff" id="I"/>
  </linearGradient>
  <linearGradient id="8">
   <stop id="J"/>
   <stop offset="1" id="K" stop-opacity="0"/>
  </linearGradient>
  <mask id="9">
   <path fill="#fff" id="L" d="m 24,11 c -3.406245,0 -6.164865,2.32542 -7.078125,5.4375 C 15.88203,15.891755 14.75511,15.5 13.5,15.5 9.36,15.5 5.999985,18.859985 6,23 6,23.868395 6.24378,24.66155 6.515625,25.4375 4.45542,26.59361 3,28.721 3,31.25 c 0,3.726 3.024,6.750015 6.75,6.75 0.265695,0 28.234305,0 28.5,0 C 41.975985,38 45,34.976 45,31.25 45,28.721 43.54458,26.59361 41.484375,25.4375 41.756235,24.661565 42,23.86838 42,23 c 0,-4.14 -3.36,-7.499985 -7.5,-7.5 -1.25511,0 -2.38203,0.391755 -3.421875,0.9375 C 30.164865,13.32542 27.406245,11 24,11 z"/>
  </mask>
  <linearGradient xlink:href="#7" id="A" y1="11" y2="38" gradientUnits="userSpaceOnUse" x2="0" gradientTransform="matrix(0.38095238 0 0 0.40740738 -1.142857 -2.481481)"/>
  <radialGradient cx="14" cy="23.5" xlink:href="#8" id="B" r="10" gradientUnits="userSpaceOnUse" gradientTransform="matrix(1 0 0 0.65 0 8.225)"/>
  <linearGradient xlink:href="#6" id="C" y1="3" y2="12" gradientUnits="userSpaceOnUse" x2="0"/>
 </defs>
 <path fill="url(#A)" id="2" d="M 7.9999999,2 C 6.7023829,2 5.6514799,2.9473934 5.3035715,4.2152777 4.90744,3.9929372 4.4781372,3.8333333 4.0000001,3.8333333 c -1.5771429,0 -2.8571486,1.3688827 -2.8571431,3.0555553 0,0.3537907 0.092869,0.6769279 0.1964287,0.9930556 C 0.55444577,8.352952 0,9.2196663 0,10.25 0,11.768 1.152,13.000005 2.5714286,13 2.6726451,13 13.327354,13 13.428572,13 14.847994,13 16,11.768 16,10.25 16,9.2196663 15.445554,8.352952 14.660714,7.8819442 c 0.103561,-0.3161216 0.196429,-0.6392711 0.196429,-0.9930556 0,-1.6866665 -1.28,-3.0555492 -2.857142,-3.0555553 -0.478139,0 -0.907441,0.1596039 -1.303573,0.3819444 C 10.34852,2.9473934 9.2976172,2 7.9999999,2 z"/>
 <g id="3" mask="url(#9)" transform="matrix(0.38095238,0,0,0.40740738,-1.142857,-2.481481)">
  <path id="D" d="m 24,23.5 a 10,6.5 0 1 1 -20,0 10,6.5 0 1 1 20,0 z" transform="matrix(1,0,0,1.3846154,11,-13.538462)" opacity="0.094" fill="url(#B)" fill-rule="evenodd"/>
  <path id="E" d="m 24,23.5 a 10,6.5 0 1 1 -20,0 10,6.5 0 1 1 20,0 z" transform="matrix(1,0,0,1.3846154,22,-9.538462)" opacity="0.09" fill="url(#B)" fill-rule="evenodd"/>
 </g>
 <path opacity="0.4" fill="none" stroke="#000" id="4" d="M 8,2.5 C 6.9430052,2.5 6.0793779,3.257281 5.78125,4.34375 A 0.4926038,0.4926038 0 0 1 5.0625,4.65625 C 4.7176605,4.4626987 4.3732953,4.34375 4,4.34375 c -1.2971946,0 -2.3437547,1.0911686 -2.34375,2.53125 0,0.2758818 0.059755,0.5491868 0.15625,0.84375 A 0.4926038,0.4926038 0 0 1 1.59375,8.3125 C 0.95087214,8.6983118 0.5,9.3977922 0.5,10.25 c 0,1.270734 0.9280836,2.250004 2.0625,2.25 l 10.875,0 C 14.571911,12.5 15.5,11.520732 15.5,10.25 15.5,9.3977922 15.049128,8.6983118 14.40625,8.3125 A 0.4926038,0.4926038 0 0 1 14.1875,7.71875 C 14.283994,7.424201 14.34375,7.1508754 14.34375,6.875 14.34375,5.4349239 13.297195,4.343755 12,4.34375 c -0.373298,0 -0.717659,0.1189481 -1.0625,0.3125 A 0.4926038,0.4926038 0 0 1 10.21875,4.34375 C 9.9206225,3.2572811 9.0569951,2.5 8,2.5 z"/>
 <path opacity="0.4" fill="none" stroke="url(#C)" id="5" d="M 8,3.5 C 7.4396408,3.5 6.9766328,3.9129656 6.78125,4.625 A 1.5093203,1.5093203 0 0 1 4.5625,5.53125 C 4.3235254,5.3971185 4.1569056,5.34375 4,5.34375 c -0.7193914,0 -1.343753,0.600124 -1.34375,1.53125 0,0.1150806 0.043085,0.2811952 0.125,0.53125 A 1.5093203,1.5093203 0 0 1 2.125,9.15625 C 1.7751267,9.3662203 1.5,9.7654377 1.5,10.25 c 0,0.760385 0.5163384,1.250002 1.0625,1.25 l 10.875,0 c 0.546157,0 1.0625,-0.489619 1.0625,-1.25 0,-0.4845624 -0.275127,-0.8837798 -0.625,-1.09375 a 1.5093203,1.5093203 0 0 1 -0.65625,-1.75 c 0.08191,-0.2500241 0.125,-0.4161761 0.125,-0.53125 0,-0.9311226 -0.624357,-1.5312472 -1.34375,-1.53125 -0.156909,0 -0.323522,0.053367 -0.5625,0.1875 A 1.5093203,1.5093203 0 0 1 9.21875,4.625 C 9.0233676,3.912966 8.5603597,3.5 8,3.5 z"/>
 <metadata id="metadata9999">
  <rdf:RDF>
   <cc:Work>
    <dc:format>image/svg+xml</dc:format>
    <dc:type rdf:resource="http://purl.org/dc/dcmitype/StillImage"/>
    <dc:title>Ivy icon theme</dc:title>
    <cc:license rdf:resource="http://creativecommons.org/licenses/by-sa/4.0/"/>
    <dc:creator>
     <cc:Agent>
      <dc:title>Sixsixfive (sixsixfive.deviantart.com)</dc:title>
     </cc:Agent>
    </dc:creator>
    <dc:publisher>
     <cc:Agent>
      <dc:title>Sixsixfive (sixsixfive.deviantart.com)</dc:title>
     </cc:Agent>
    </dc:publisher>
    <dc:source>https://github.com/sixsixfive</dc:source>
    <dc:subject>
     <rdf:Bag>
      <rdf:li>ivy</rdf:li>
     </rdf:Bag>
    </dc:subject>
    <dc:contributor>
     <cc:Agent>
      <dc:title>ssf</dc:title>
     </cc:Agent>
    </dc:contributor>
    <dc:rights>
     <cc:Agent>
      <dc:title>Sixsixfive (sixisixfive.deviantart.com)</dc:title>
     </cc:Agent>
    </dc:rights>
    <dc:description>A simple icon theme published under CC-BY-SA_V4(http://creativecommons.org/licenses/by-sa/4.0)</dc:description>
    <dc:identifier>SSF</dc:identifier>
   </cc:Work>
  </rdf:RDF>
 </metadata>
 <!--Part of the Ivy icon them published under the CC-BY-SA_V4: http://creativecommons.org/licenses/by-sa/4.0 -->
</svg>
