<?xml version="1.0" encoding="UTF-8" standalone="no"?><svg xmlns:rdf="http://www.w3.org/1999/02/22-rdf-syntax-ns#" xmlns:cc="http://creativecommons.org/ns#" xmlns:svg="http://www.w3.org/2000/svg" id="svg2" viewBox="0 0 16 16" version="1.1" xmlns:xlink="http://www.w3.org/1999/xlink" xmlns:dc="http://purl.org/dc/elements/1.1/" xmlns="http://www.w3.org/2000/svg"><defs id="1"><linearGradient id="a"><stop id="p" stop-color="#ddd"/><stop offset="1" id="q" stop-color="#fff"/></linearGradient><linearGradient id="b" x2="43.912" y2="-1.016" gradientTransform="matrix(0.35 0 0 0.36842 -1.4 -1.842)" xlink:href="#a" x1="44" y1="43" gradientUnits="userSpaceOnUse"/><linearGradient id="c" x2="43.912" y2="-1.016" gradientTransform="matrix(0.35 0 0 0.36842 0.638 -0.842)" xlink:href="#a" x1="44" y1="43" gradientUnits="userSpaceOnUse"/></defs><path id="2" d="M 0,0 H 14 V 14 H 0 z" fill="url(#b)"/><path id="3" d="M 0,0 H 14 V 5 H 0 z" fill="#a7a7a7"/><g id="4" stroke-width="0.999" fill="none"><path id="d" opacity="0.4" d="M 1.022,4.4994 13.9616,4.5006" stroke="#000"/><path id="e" d="M 0.9877,5.4995 15.0256,5.5006" stroke="#fff"/></g><g id="5" fill="#fff"><path id="f" opacity="0.47" d="M 1,1 14,1 14,2 1,2 Z"/><path id="g" d="M 2,2 3,2 3,3 2,3 Z"/><path id="h" d="M 4,2 5,2 5,3 4,3 Z"/><path id="i" d="M 6,2 7,2 7,3 6,3 Z"/></g><path id="6" opacity="0.266" d="M 2,3 H 3 V 4 H 2 z"/><path id="7" opacity="0.266" d="M 4,3 H 5 V 4 H 4 z"/><path id="8" opacity="0.266" d="M 6,3 H 7 V 4 H 6 z"/><path id="9" opacity="0.266" d="M 1,2 H 2 V 3 H 1 z"/><path id="A" opacity="0.266" d="M 3,2 H 4 V 3 H 3 z"/><path id="B" opacity="0.266" d="M 5,2 H 6 V 3 H 5 z"/><path id="C" opacity="0.266" d="M 2,1 H 3 V 2 H 2 z"/><path id="D" opacity="0.266" d="M 4,1 H 5 V 2 H 4 z"/><path id="E" opacity="0.266" d="M 6,1 H 7 V 2 H 6 z"/><use height="16" id="F" width="16" xlink:href="#A"/><use height="16" id="G" width="16" xlink:href="#B"/><path id="H" opacity="0.266" d="M 7,2 H 8 V 3 H 7 z"/><path id="I" opacity="0.4" d="m 0.5,0.5 v 13 h 13 v -13 h -13 z" stroke="#000" fill="none"/><path id="J" d="m 2.038,1 h 14 v 14 h -14 z" fill="url(#c)"/><path id="K" d="m 2.038,1 h 14 v 5 h -14 z" fill="#5288d1"/><g id="L" stroke-width="0.999" fill="none"><path id="j" opacity="0.4" d="M 3.0604,5.4994 16,5.5006" stroke="#000"/><path id="k" d="M 3.0261,6.4995 17.064,6.5006" stroke="#fff"/></g><g id="M" fill="#fff"><path id="l" opacity="0.47" d="m 3.038,2 13,0 0,1 -13,0 z"/><path id="m" d="m 4.04,3 1,0 0,1 -1,0 z"/><path id="n" d="m 6.04,3 1,0 0,1 -1,0 z"/><path id="o" d="m 8.04,3 1,0 0,1 -1,0 z"/></g><path id="N" opacity="0.266" d="m 4.04,4 h 1 v 1 h -1 z"/><path id="O" opacity="0.266" d="m 6.04,4 h 1 v 1 h -1 z"/><path id="P" opacity="0.266" d="m 8.04,4 h 1 v 1 h -1 z"/><path id="Q" opacity="0.266" d="m 3.038,3 h 1 v 1 h -1 z"/><path id="R" opacity="0.266" d="m 5.04,3 h 1 v 1 h -1 z"/><path id="S" opacity="0.266" d="m 7.04,3 h 1 v 1 h -1 z"/><path id="T" opacity="0.266" d="m 4.04,2 h 1 v 1 h -1 z"/><path id="U" opacity="0.266" d="m 6.04,2 h 1 v 1 h -1 z"/><path id="V" opacity="0.266" d="m 8.04,2 h 1 v 1 h -1 z"/><use height="16" id="W" width="16" xlink:href="#R"/><use height="16" id="X" width="16" xlink:href="#S"/><path id="Y" opacity="0.266" d="m 9.04,3 h 1 v 1 h -1 z"/><use height="16" id="Z" width="16" transform="matrix(1 0 0 1 2.038 1)" xlink:href="#I"/><metadata id="metadata9999"><rdf:RDF><cc:Work><dc:format>image/svg+xml</dc:format><dc:type rdf:resource="http://purl.org/dc/dcmitype/StillImage"/><dc:title>Ivy icon theme</dc:title><cc:license rdf:resource="http://creativecommons.org/licenses/by-sa/4.0/"/><dc:creator><cc:Agent><dc:title>Sixsixfive (sixsixfive.deviantart.com)</dc:title></cc:Agent></dc:creator><dc:publisher><cc:Agent><dc:title>Sixsixfive (sixsixfive.deviantart.com)</dc:title></cc:Agent></dc:publisher><dc:source>https://github.com/sixsixfive</dc:source><dc:subject><rdf:Bag><rdf:li>ivy</rdf:li></rdf:Bag></dc:subject><dc:contributor><cc:Agent><dc:title>ssf</dc:title></cc:Agent></dc:contributor><dc:rights><cc:Agent><dc:title>Sixsixfive (sixisixfive.deviantart.com)</dc:title></cc:Agent></dc:rights><dc:description>A simple icon theme published under CC-BY-SA_V4(http://creativecommons.org/licenses/by-sa/4.0)</dc:description><dc:identifier>SSF</dc:identifier></cc:Work></rdf:RDF></metadata><!--Part of the Ivy icon them published under the CC-BY-SA_V4: http://creativecommons.org/licenses/by-sa/4.0 -->
</svg>