<?xml version="1.0" encoding="UTF-8" standalone="no"?>
<svg xmlns:dc="http://purl.org/dc/elements/1.1/" xmlns:cc="http://creativecommons.org/ns#" xmlns:rdf="http://www.w3.org/1999/02/22-rdf-syntax-ns#" xmlns:svg="http://www.w3.org/2000/svg" xmlns="http://www.w3.org/2000/svg" version="1.1" id="svg2" viewBox="0 0 16 16">
 <defs id="defs4">
  <linearGradient x2="0" gradientUnits="userSpaceOnUse" y2="3" y1="13" id="0">
   <stop id="stop7" stop-color="#ebebeb"/>
   <stop id="stop9" stop-color="#ebebeb" offset="1"/>
  </linearGradient>
 </defs>
 <rect id="rect13" height="14" rx="0.667" fill="#f1f1f1" y="1" x="1" width="14" ry="0.667"/>
 <rect id="rect15" height="10" rx="1.176" fill="url(#0)" y="3" x="3" width="10" ry="1.176"/>
 <path d="M 7 5 V 6 H 6 V 7 H 5 V 11 H 11 V 7 H 10 V 6 H 9 V 5 z" color="#000" id="path17" fill-rule="evenodd" fill="#171717"/>
 <rect id="rect19" height="1" ry="0.5" rx="0.179" fill="#fff" y="13" x="3" opacity="0.6" width="10"/>
 <g id="g21" fill="none" stroke="#000">
  <path d="m 1.65625,1.5625 c -0.082068,0 -0.09375,0.011682 -0.09375,0.09375 l 0,12.6875 c 0,0.08207 0.011682,0.09375 0.09375,0.09375 l 12.6875,0 c 0.08207,0 0.09375,-0.01168 0.09375,-0.09375 l 0,-12.6875 c 0,-0.082068 -0.01168,-0.09375 -0.09375,-0.09375 l -12.6875,0 z" id="path23" opacity="0.4"/>
  <path d="m 4.1875,3.53125 c -0.364241,0 -0.65625,0.292009 -0.65625,0.65625 l 0,7.625 c 0,0.364242 0.292009,0.65625 0.65625,0.65625 l 7.625,0 c 0.364242,0 0.65625,-0.292008 0.65625,-0.65625 l 0,-7.625 c 0,-0.364241 -0.292008,-0.65625 -0.65625,-0.65625 l -7.625,0 z" id="path25" opacity="0.3"/>
 </g>
 <metadata id="metadata9999">
  <rdf:RDF>
   <cc:Work>
    <dc:format>image/svg+xml</dc:format>
    <dc:type rdf:resource="http://purl.org/dc/dcmitype/StillImage"/>
    <dc:title>Ivy icon theme</dc:title>
    <cc:license rdf:resource="http://creativecommons.org/licenses/by-sa/4.0/"/>
    <dc:creator>
     <cc:Agent>
      <dc:title>Sixsixfive (sixsixfive.deviantart.com)</dc:title>
     </cc:Agent>
    </dc:creator>
    <dc:publisher>
     <cc:Agent>
      <dc:title>Sixsixfive (sixsixfive.deviantart.com)</dc:title>
     </cc:Agent>
    </dc:publisher>
    <dc:source>https://github.com/sixsixfive</dc:source>
    <dc:subject>
     <rdf:Bag>
      <rdf:li>ivy</rdf:li>
     </rdf:Bag>
    </dc:subject>
    <dc:contributor>
     <cc:Agent>
      <dc:title>ssf</dc:title>
     </cc:Agent>
    </dc:contributor>
    <dc:rights>
     <cc:Agent>
      <dc:title>Sixsixfive (sixisixfive.deviantart.com)</dc:title>
     </cc:Agent>
    </dc:rights>
    <dc:description>A simple icon theme published under CC-BY-SA_V4(http://creativecommons.org/licenses/by-sa/4.0)</dc:description>
    <dc:identifier>SSF</dc:identifier>
   </cc:Work>
  </rdf:RDF>
 </metadata>
 <!--Part of the Ivy icon them published under the CC-BY-SA_V4: http://creativecommons.org/licenses/by-sa/4.0 -->
</svg>
