<?xml version="1.0" encoding="UTF-8" standalone="no"?><svg viewBox="0 0 16 16" xmlns="http://www.w3.org/2000/svg" xmlns:svg="http://www.w3.org/2000/svg" xmlns:rdf="http://www.w3.org/1999/02/22-rdf-syntax-ns#" xmlns:xlink="http://www.w3.org/1999/xlink" version="1.1" id="svg2" xmlns:dc="http://purl.org/dc/elements/1.1/" xmlns:cc="http://creativecommons.org/ns#"><defs id="defs4"><linearGradient xlink:href="#4" y1="1011.36" x2="0" y2="1019.36" gradientTransform="matrix(0.35714276 0 0 0.4761844 -0.072639 556.8385)" id="1" gradientUnits="userSpaceOnUse"/><linearGradient id="4"><stop id="stop11" stop-color="#c1871d"/><stop offset="1" id="stop13" stop-color="#e4ae4e"/></linearGradient><linearGradient id="5"><stop id="stop16" stop-color="#fff"/><stop stop-opacity="0" offset="1" id="stop18" stop-color="#fff"/></linearGradient><linearGradient y1="1007.36" x2="0" y2="1049.36" gradientTransform="matrix(0.49999944 0 0 0.38095227 -3.499994 -383.75579)" id="6" gradientUnits="userSpaceOnUse"><stop id="stop21" stop-color="#df9e2a"/><stop offset="1" id="stop23" stop-color="#e8ba69"/></linearGradient><linearGradient xlink:href="#5" y1="1012.36" x2="0" y2="1018.36" gradientTransform="matrix(1 0 0 1 0 -1004.36)" id="linearGradient3423" gradientUnits="userSpaceOnUse"/></defs><path id="path31" color="#000" d="m 7,0 3,0 0,16 -3,0 z" fill="url(#6)"/><path stroke="#000" opacity="0.4" id="path3433" color="#000" d="m 7.4960938,0.49609375 0,15.00781225 2.0078124,0 0,-15.00781225 -2.0078124,0 z" fill="none"/><g transform="matrix(1.1789479 0 0 1.0493179 -1.598573 -1087.6459)" id="g37" color="#000"><path id="path45" d="m 3.05236,1038.4326 11.874995,-1e-4 0,3.812 -11.874995,10e-5 -1.6964278,-1.906 z" fill="url(#1)"/></g><g transform="matrix(-1 0 0 1 51 -1024.373)" id="g51"><path stroke="#000" opacity="0.4" id="use53" color="#000" d="m 9.1875,7.515 -4.375,3.5 4.375,3.5 32.3125,0 0,-7 -32.3125,0 z" fill="none"/><path stroke="url(#linearGradient3423)" opacity="0.4" id="use55" color="#000" d="m 9.5625,8.515 -3.125,2.5 3.125,2.5 30.9375,0 0,-5 -30.9375,0 z" fill="none"/></g><rect y="3" x="2" opacity="0.4" height="1" id="rect4255" width="13" fill="#fff"/><g stroke="#000" stroke-width="0.899" opacity="0.4" transform="matrix(1.1789479 0 0 1.0493179 -1.598573 -1087.6459)" id="g3435" color="#000" fill="none"><path id="path4239" d="m 3.2636719,1038.9043 -1.2753907,1.4336 1.2753907,1.4336 11.1914061,0 0,-2.8672 -11.1914061,0 z"/></g><g transform="matrix(-1.1789479 0 0 1.0493179 17.598574 -1082.6459)" id="g4241" color="#000"><path id="path4243" d="m 3.05236,1038.4326 11.874995,-1e-4 0,3.812 -11.874995,10e-5 -1.6964278,-1.906 z" fill="url(#1)"/></g><rect y="8" x="1" opacity="0.4" height="1" id="rect4257" width="13" fill="#fff"/><g stroke="#000" stroke-width="0.899" opacity="0.4" transform="matrix(-1.1789479 0 0 1.0493179 17.598574 -1082.6459)" id="g4245" color="#000" fill="none"><path id="path4247" d="m 3.2636719,1038.9043 -1.2753907,1.4336 1.2753907,1.4336 11.1914061,0 0,-2.8672 -11.1914061,0 z"/></g><rect y="6" x="7" opacity="0.4" height="1" id="rect4251" width="3"/><rect y="1" x="8" opacity="0.4" height="1" id="rect4253" width="1" fill="#fff"/><rect y="11" x="7" opacity="0.4" height="1" id="rect4259" width="3"/><metadata id="metadata9999"><rdf:RDF><cc:Work><dc:format>image/svg+xml</dc:format><dc:type rdf:resource="http://purl.org/dc/dcmitype/StillImage"/><dc:title>Ivy icon theme</dc:title><cc:license rdf:resource="http://creativecommons.org/licenses/by-sa/4.0/"/><dc:creator><cc:Agent><dc:title>Sixsixfive (sixsixfive.deviantart.com)</dc:title></cc:Agent></dc:creator><dc:publisher><cc:Agent><dc:title>Sixsixfive (sixsixfive.deviantart.com)</dc:title></cc:Agent></dc:publisher><dc:source>https://github.com/sixsixfive</dc:source><dc:subject><rdf:Bag><rdf:li>ivy</rdf:li></rdf:Bag></dc:subject><dc:contributor><cc:Agent><dc:title>ssf</dc:title></cc:Agent></dc:contributor><dc:rights><cc:Agent><dc:title>Sixsixfive (sixisixfive.deviantart.com)</dc:title></cc:Agent></dc:rights><dc:description>A simple icon theme published under CC-BY-SA_V4(http://creativecommons.org/licenses/by-sa/4.0)</dc:description><dc:identifier>SSF</dc:identifier></cc:Work></rdf:RDF></metadata><!--Part of the Ivy icon them published under the CC-BY-SA_V4: http://creativecommons.org/licenses/by-sa/4.0 -->
</svg>