<?xml version="1.0" encoding="UTF-8" standalone="no"?>
<svg xmlns:dc="http://purl.org/dc/elements/1.1/" xmlns:cc="http://creativecommons.org/ns#" xmlns:rdf="http://www.w3.org/1999/02/22-rdf-syntax-ns#" xmlns:svg="http://www.w3.org/2000/svg" xmlns="http://www.w3.org/2000/svg" viewBox="0 0 16 16" id="svg2" version="1.1">
 <defs id="defs4">
  <linearGradient id="0" y1="11.998" y2="0" x2="0" gradientUnits="userSpaceOnUse">
   <stop stop-color="#d3d7cf" id="stop7"/>
   <stop offset="1" stop-color="#eeeeec" id="stop9"/>
  </linearGradient>
  <linearGradient id="1" y1="1" y2="11" x2="0" gradientUnits="userSpaceOnUse">
   <stop stop-color="#fff" id="stop12"/>
   <stop offset="1" stop-color="#fff" stop-opacity="0" id="stop14"/>
  </linearGradient>
  <linearGradient id="2" y1="11" y2="15" x2="0" gradientUnits="userSpaceOnUse">
   <stop stop-color="#6a6a6a" id="stop17"/>
   <stop offset="1" stop-color="#ebebeb" id="stop19"/>
  </linearGradient>
 </defs>
 <path opacity="0.965" fill="url(#2)" d="m 5 10 v 3 h -2 v 2 h 10 v -2 h -2 v -3 h -6 z" id="path21"/>
 <path opacity="0.3" fill="none" stroke="#000" d="m 5.4688 10.4688 v 2.5312 A 0.468305 0.468305 0 0 1 5.00005 13.46875 H 3.4688 v 1.0625 h 9.0625 v -1.0625 H 11.00005 A 0.468305 0.468305 0 0 1 10.5313 13 V 10.46875 H 5.4688 z" id="path23"/>
 <rect width="16" fill="url(#0)" rx="0.8" height="12" ry="0.8" id="rect25"/>
 <path fill="#171717" d="M 2,2 H14 V9 H2 z" id="path27"/>
 <g id="g29" fill="none">
  <path d="M 0.8125,0.5 C 0.652273,0.5 0.5,0.652273 0.5,0.8125 l 0,10.375 C 0.5,11.347727 0.652273,11.5 0.8125,11.5 l 14.375,0 c 0.160227,0 0.3125,-0.152273 0.3125,-0.3125 l 0,-10.375 C 15.5,0.652273 15.347727,0.5 15.1875,0.5 l -14.375,0 z" id="path31" opacity="0.5" stroke="#000"/>
  <path d="m 1.5,1.5 0,9 13,0 0,-9 -13,0 z" id="path33" opacity="0.62" stroke="url(#1)"/>
  <path d="m 2.5,2.5 0,6 11,0 0,-6 -11,0 z" id="path35" opacity="0.385" stroke="#000"/>
 </g>
 <g id="g37" fill="#fff">
  <path d="m 2,9 12,0 0,1 -12,0 z" id="path39" opacity="0.965"/>
  <g transform="matrix(0.4221,0,0,0.33416,-2.348,-2.264)" id="g41">
   <path d="m 24.2779,19.2782 c 0.450414,0.741885 2.60905,1.94593 2.60905,5.45265 0,2.99256 -0.84152,2.99256 -3.53579,3.69447 -0.404616,0.105411 -0.817706,-0.04908 -1.20246,-0.139673 0.888521,1.4635 2.51225,2.38009 4.38038,2.43032 3.15112,0.08472 5.19977,-2.28741 5.09612,-4.97238 -0.145559,-3.77071 -4.3786,-6.40031 -7.3473,-6.4654 z" id="path43"/>
   <path d="m 35.6792,30.716 -0.5841,-0.7909 -0.7845,-0.2066 0.5425,-0.8514 0.1417,-1.1436 0.5841,0.7909 0.7845,0.2066 -0.5425,0.8514 -0.1417,1.1436 z" id="path45"/>
   <path d="m 15.6068,27.7235 -0.196,-1.1388 -0.7243,-0.8427 1.0366,-0.2154 0.767,-0.7957 0.196,1.1388 0.7243,0.8427 -1.0366,0.2154 -0.767,0.7957 z" id="path47"/>
   <path d="m 15.6979,18.7458 -0.0775,-1.2031 -0.5791,-0.9602 0.9525,-0.0978 0.7602,-0.7314 0.0774,1.2031 0.5791,0.9602 -0.9525,0.0978 -0.7602,0.7314 z" id="path49"/>
   <path d="m 23.2962,18.7458 -0.3948,-0.9838 -0.7526,-0.5593 0.7789,-0.4987 0.4428,-0.9507 0.3948,0.9838 0.7526,0.5593 -0.7789,0.4987 -0.4428,0.9507 z" id="path51"/>
   <path d="m 34.6509,18.7458 -0.0774,-1.3116 -0.5791,-1.0468 0.9525,-0.1066 0.7602,-0.7974 0.0774,1.3116 0.5791,1.0468 -0.9525,0.1066 -0.7602,0.7974 z" id="path53"/>
  </g>
 </g>
 <metadata id="metadata9999">
  <rdf:RDF>
   <cc:Work>
    <dc:format>image/svg+xml</dc:format>
    <dc:type rdf:resource="http://purl.org/dc/dcmitype/StillImage"/>
    <dc:title>Ivy icon theme</dc:title>
    <cc:license rdf:resource="http://creativecommons.org/licenses/by-sa/4.0/"/>
    <dc:creator>
     <cc:Agent>
      <dc:title>Sixsixfive (sixsixfive.deviantart.com)</dc:title>
     </cc:Agent>
    </dc:creator>
    <dc:publisher>
     <cc:Agent>
      <dc:title>Sixsixfive (sixsixfive.deviantart.com)</dc:title>
     </cc:Agent>
    </dc:publisher>
    <dc:source>https://github.com/sixsixfive</dc:source>
    <dc:subject>
     <rdf:Bag>
      <rdf:li>ivy</rdf:li>
     </rdf:Bag>
    </dc:subject>
    <dc:contributor>
     <cc:Agent>
      <dc:title>ssf</dc:title>
     </cc:Agent>
    </dc:contributor>
    <dc:rights>
     <cc:Agent>
      <dc:title>Sixsixfive (sixisixfive.deviantart.com)</dc:title>
     </cc:Agent>
    </dc:rights>
    <dc:description>A simple icon theme published under CC-BY-SA_V4(http://creativecommons.org/licenses/by-sa/4.0)</dc:description>
    <dc:identifier>SSF</dc:identifier>
   </cc:Work>
  </rdf:RDF>
 </metadata>
 <!--Part of the Ivy icon them published under the CC-BY-SA_V4: http://creativecommons.org/licenses/by-sa/4.0 -->
</svg>
