<?xml version="1.0" encoding="UTF-8" standalone="no"?><svg viewBox="0 0 16 16" xmlns:svg="http://www.w3.org/2000/svg" xmlns="http://www.w3.org/2000/svg" xmlns:rdf="http://www.w3.org/1999/02/22-rdf-syntax-ns#" version="1.1" id="svg2" xmlns:dc="http://purl.org/dc/elements/1.1/" xmlns:cc="http://creativecommons.org/ns#"><defs id="defs4"/><path opacity="0.2" id="path6" d="M 9.01111 2 L 8.999982 4.121544 C 8.644062 4.107924 7.841054 4.117145 7.487251 4.143643 L 6.261135 2.121565 L 4.277056 2.928176 L 4.856675 5.226515 C 4.587316 5.439891 4.340336 5.681013 4.121005 5.944747 L 1.813695 5.381193 L 1.00002 7.325942 L 3.02868 8.552478 C 2.997223 8.890518 3.00096 9.231768 3.03983 9.569051 L 1 10.784519 L 1.813677 12.751367 L 4.132152 12.176783 C 4.347397 12.443803 4.590632 12.688637 4.856675 12.906064 L 4.288185 15.193371 L 6.249971 15.999982 L 7.487251 13.988935 C 7.828253 14.02013 8.172493 14.01641 8.51273 13.977885 L 9.738846 16 L 11.722926 15.193389 L 11.143307 12.895049 C 11.412666 12.681672 11.659645 12.44055 11.878977 12.176818 L 14.186322 12.740371 L 15 10.795622 L 12.971334 9.569087 L 11.01511 8.971016 C 11.01511 10.533279 9.57594 11.997267 7.999991 11.997267 6.424042 11.997267 4.966916 10.551236 4.966916 8.988973 4.966916 7.456709 6.574251 6 7.964689 5.998636 9 6 8 6 8.999982 5.991732 L 9.00681 8.03869 L 14.00722 5.03041 L 9.01115 2.00004 z"/><path id="path8" d="M 9.01111 1 L 8.999982 3.121544 C 8.644062 3.107924 7.841054 3.117145 7.487251 3.143643 L 6.261135 1.121565 L 4.277056 1.928176 L 4.856675 4.226515 C 4.587316 4.439891 4.340336 4.681013 4.121005 4.944747 L 1.813695 4.381193 L 1.00002 6.325942 L 3.02868 7.552478 C 2.997223 7.890518 3.00096 8.231768 3.03983 8.569051 L 1 9.78452 L 1.813677 11.751367 L 4.132152 11.176783 C 4.347397 11.443803 4.590632 11.688637 4.856675 11.906064 L 4.288185 14.193371 L 6.249971 14.999982 L 7.487251 12.988935 C 7.828253 13.02013 8.172493 13.01641 8.51273 12.977885 L 9.738846 15 L 11.722926 14.193389 L 11.143307 11.895049 C 11.412666 11.681672 11.659645 11.44055 11.878977 11.176818 L 14.186322 11.740371 L 15 9.795622 L 12.971334 8.569087 L 11.01511 7.971016 C 11.01511 9.533279 9.57594 10.997267 7.999991 10.997267 6.424042 10.997267 4.966916 9.551236 4.966916 7.988973 4.966916 6.456709 6.574251 5 7.964689 4.998636 9 5 8 5 8.999982 4.991732 L 9.00681 7.03869 L 14.00722 4.03041 L 9.01115 1.00004 z" fill="#66b03e"/><path stroke="#000" opacity="0.4" id="path10" d="M 6.0625 1.71875 L 4.84375 2.21875 L 5.3125 4.09375 A 0.467999 0.467999 0 0 1 5.125 4.59375 C 4.888772 4.780881 4.706319 5.00191 4.5 5.25 A 0.467999 0.467999 0 0 1 4 5.40625 L 2.09375 4.9375 L 1.59375 6.125 L 3.28125 7.15625 A 0.467999 0.467999 0 0 1 3.5 7.59375 C 3.470474 7.911009 3.465818 8.203358 3.5 8.5 A 0.467999 0.467999 0 0 1 3.28125 8.96875 L 1.59375 9.96875 L 2.09375 11.1875 L 4 10.71875 A 0.467999 0.467999 0 0 1 4.5 10.90625 C 4.693651 11.146481 4.88086 11.331723 5.125 11.53125 A 0.467999 0.467999 0 0 1 5.3125 12.03125 L 4.84375 13.90625 L 6.0625 14.40625 L 7.09375 12.75 A 0.467999 0.467999 0 0 1 7.53125 12.53125 C 7.824298 12.55805 8.108209 12.53725 8.4375 12.5 A 0.467999 0.467999 0 0 1 8.90625 12.71875 L 9.9375 14.40625 L 11.15625 13.90625 L 10.6875 12.03125 A 0.467999 0.467999 0 0 1 10.875 11.53125 C 11.11123 11.344119 11.293679 11.123087 11.5 10.875 A 0.467999 0.467999 0 0 1 12 10.71875 L 13.90625 11.1875 L 14.40625 9.96875 L 12.78125 9 L 11.34375 8.5625 C 11.03788 10.145022 9.655786 11.46875 8 11.46875 6.139443 11.46875 4.5 9.852872 4.5 8 4.5 7.07001 4.976652 6.221958 5.625 5.59375 6.273348 4.965542 7.109206 4.532093 7.96875 4.53125 8.228198 4.531592 8.367146 4.530506 8.4375 4.53125 8.472677 4.531622 8.482278 4.530629 8.5 4.53125 8.50886 4.53156 8.513415 4.52963 8.53125 4.53125 8.53957 4.531204 8.547001 4.531372 8.5625 4.53125 8.624497 4.530761 8.749896 4.53332 9 4.53125 A 0.467999 0.467999 0 0 1 9.46875 5 V 6.1875 L 13.0625 4.03125 L 9.46875 1.84375 V 3.125 A 0.467999 0.467999 0 0 1 8.96875 3.59375 C 8.655348 3.581757 7.849364 3.601175 7.53125 3.625 A 0.467999 0.467999 0 0 1 7.09375 3.40625 L 6.0625 1.71875 z" fill="none"/><g stroke="#fff" id="g12" fill="#fff"><path opacity="0.2" id="path14" d="M 5.469841,3 6.114286,2.761905"/><path opacity="0.2" id="path16" d="m 9.736508,3.520635 2.244444,0.015873"/></g><metadata id="metadata9999"><rdf:RDF><cc:Work><dc:format>image/svg+xml</dc:format><dc:type rdf:resource="http://purl.org/dc/dcmitype/StillImage"/><dc:title>Ivy icon theme</dc:title><cc:license rdf:resource="http://creativecommons.org/licenses/by-sa/4.0/"/><dc:creator><cc:Agent><dc:title>Sixsixfive (sixsixfive.deviantart.com)</dc:title></cc:Agent></dc:creator><dc:publisher><cc:Agent><dc:title>Sixsixfive (sixsixfive.deviantart.com)</dc:title></cc:Agent></dc:publisher><dc:source>https://github.com/sixsixfive</dc:source><dc:subject><rdf:Bag><rdf:li>ivy</rdf:li></rdf:Bag></dc:subject><dc:contributor><cc:Agent><dc:title>ssf</dc:title></cc:Agent></dc:contributor><dc:rights><cc:Agent><dc:title>Sixsixfive (sixisixfive.deviantart.com)</dc:title></cc:Agent></dc:rights><dc:description>A simple icon theme published under CC-BY-SA_V4(http://creativecommons.org/licenses/by-sa/4.0)</dc:description><dc:identifier>SSF</dc:identifier></cc:Work></rdf:RDF></metadata><!--Part of the Ivy icon them published under the CC-BY-SA_V4: http://creativecommons.org/licenses/by-sa/4.0 -->
</svg>