<?xml version="1.0" encoding="UTF-8" standalone="no"?>
<svg xmlns:dc="http://purl.org/dc/elements/1.1/" xmlns:cc="http://creativecommons.org/ns#" xmlns:rdf="http://www.w3.org/1999/02/22-rdf-syntax-ns#" xmlns:svg="http://www.w3.org/2000/svg" xmlns="http://www.w3.org/2000/svg" xmlns:xlink="http://www.w3.org/1999/xlink" viewBox="0 0 16 16" id="svg2" version="1.1">
 <defs id="defs4">
  <path opacity="0.4" fill="none" stroke="#000" id="0" d="m 1.5 2.5 v 2 h 2 v -2 h -2 z m 5 0 v 2 h 8 v -2 h -8 z"/>
  <linearGradient id="1" xlink:href="#8" y1="6" y2="14" x2="0" gradientUnits="userSpaceOnUse" gradientTransform="matrix(1.0071 0 0 1.175 0.612 29.483)"/>
  <linearGradient id="2" xlink:href="#8" y1="36.574" y2="45.974" x2="0" gradientUnits="userSpaceOnUse"/>
  <linearGradient id="3" xlink:href="#8" y1="6" y2="14" x2="0" gradientUnits="userSpaceOnUse" gradientTransform="matrix(1.0071 0 0 1.175 0.612 13.817)"/>
  <linearGradient id="4" xlink:href="#8" y1="20.907" y2="30.31" x2="0" gradientUnits="userSpaceOnUse"/>
  <linearGradient id="5" xlink:href="#8" y1="6" y2="14" x2="0" gradientUnits="userSpaceOnUse" gradientTransform="matrix(1.0071 0 0 1.175 0.612 -1.85)"/>
  <linearGradient id="6" xlink:href="#8" y1="5.241" y2="14.641" x2="0" gradientUnits="userSpaceOnUse"/>
  <linearGradient id="7" xlink:href="#8" y1="6" y2="14" x2="0" gradientUnits="userSpaceOnUse"/>
  <linearGradient id="8">
   <stop stop-color="#5288d1" id="stop15"/>
   <stop offset="1" stop-color="#b1c9eb" id="stop17"/>
  </linearGradient>
 </defs>
 <g transform="matrix(0.31915,0,0,0.31915,0.34,0.34)" id="g19" fill="url(#7)">
  <path d="m 2.067,5.2 9.4,0 0,9.4 -9.4,0 z" id="path21" fill="url(#6)"/>
  <path d="m 17.733,5.2 28.2,0 0,9.4 -28.2,0 z" id="path23" fill="url(#5)"/>
  <path d="m 2.067,20.867 9.4,0 0,9.4 -9.4,0 z" id="path25" fill="url(#4)"/>
  <path d="m 17.733,20.867 28.2,0 0,9.4 -28.2,0 z" id="path27" fill="url(#3)"/>
  <path d="m 2.067,36.533 9.4,0 0,9.4 -9.4,0 z" id="path29" fill="url(#2)"/>
  <path d="m 17.733,36.533 28.2,0 0,9.4 -28.2,0 z" id="path31" fill="url(#1)"/>
  <use xlink:href="#0" transform="matrix(3.13333,0,0,3.13333,-1.067,-1.067)" id="use33" x="0" y="0" width="16" height="16"/>
  <use xlink:href="#0" transform="matrix(3.13333,0,0,3.13333,-1.067,14.6)" id="use35" x="0" y="0" width="16" height="16"/>
  <use xlink:href="#0" transform="matrix(3.13333,0,0,3.13333,-1.067,30.27)" id="use37" x="0" y="0" width="16" height="16"/>
 </g>
 <metadata id="metadata9999">
  <rdf:RDF>
   <cc:Work>
    <dc:format>image/svg+xml</dc:format>
    <dc:type rdf:resource="http://purl.org/dc/dcmitype/StillImage"/>
    <dc:title>Ivy icon theme</dc:title>
    <cc:license rdf:resource="http://creativecommons.org/licenses/by-sa/4.0/"/>
    <dc:creator>
     <cc:Agent>
      <dc:title>Sixsixfive (sixsixfive.deviantart.com)</dc:title>
     </cc:Agent>
    </dc:creator>
    <dc:publisher>
     <cc:Agent>
      <dc:title>Sixsixfive (sixsixfive.deviantart.com)</dc:title>
     </cc:Agent>
    </dc:publisher>
    <dc:source>https://github.com/sixsixfive</dc:source>
    <dc:subject>
     <rdf:Bag>
      <rdf:li>ivy</rdf:li>
     </rdf:Bag>
    </dc:subject>
    <dc:contributor>
     <cc:Agent>
      <dc:title>ssf</dc:title>
     </cc:Agent>
    </dc:contributor>
    <dc:rights>
     <cc:Agent>
      <dc:title>Sixsixfive (sixisixfive.deviantart.com)</dc:title>
     </cc:Agent>
    </dc:rights>
    <dc:description>A simple icon theme published under CC-BY-SA_V4(http://creativecommons.org/licenses/by-sa/4.0)</dc:description>
    <dc:identifier>SSF</dc:identifier>
   </cc:Work>
  </rdf:RDF>
 </metadata>
 <!--Part of the Ivy icon them published under the CC-BY-SA_V4: http://creativecommons.org/licenses/by-sa/4.0 -->
</svg>
