<?xml version="1.0" encoding="UTF-8" standalone="no"?><svg xmlns:xlink="http://www.w3.org/1999/xlink" xmlns:cc="http://creativecommons.org/ns#" viewBox="0 0 48 48" version="1.1" id="svg2" xmlns:svg="http://www.w3.org/2000/svg" xmlns:rdf="http://www.w3.org/1999/02/22-rdf-syntax-ns#" xmlns="http://www.w3.org/2000/svg" xmlns:dc="http://purl.org/dc/elements/1.1/"><defs id="defs4"><linearGradient x2="0" gradientUnits="userSpaceOnUse" id="2" y2="43" y1="19"><stop id="stop17" stop-color="#d4d4d4"/><stop offset="1" id="stop19" stop-color="#f5f5f5"/></linearGradient><linearGradient x2="45.03" gradientUnits="userSpaceOnUse" x1="45" id="4" y2="29.03" y1="5"><stop id="stop27" stop-color="#d02604"/><stop offset="1" id="stop29" stop-color="#fb7257"/></linearGradient><linearGradient id="5"><stop id="stop32" stop-color="#fff"/><stop offset="1" stop-opacity="0" id="stop34" stop-color="#fff"/></linearGradient><linearGradient x2="0" gradientUnits="userSpaceOnUse" xlink:href="#5" id="6" y2="28.03" y1="5.969"/><linearGradient x2="0" gradientUnits="userSpaceOnUse" xlink:href="#5" id="7" y2="42" y1="20"/><linearGradient x2="45.49" gradientUnits="userSpaceOnUse" x1="45.561" xlink:href="#5" id="linearGradient4165-7" y2="37.841" gradientTransform="matrix(0.79259613 0 0 0.79259613 47.978088 17.892411)" y1="10.05"/></defs><path fill-rule="evenodd" opacity="0.1" id="path45" d="m 9,6 0,14 -7,0 0,24 36,0 0,-14 7,0 L 45,6 9,6 Z"/><path fill-rule="evenodd" fill="url(#4)" id="path47" d="M 9,5 45,5 45,29 9,29 Z"/><path opacity="0.4" fill="none" id="path55" stroke="#000" d="m 9.46875,5.46875 0,23.0625 35.0625,0 0,-23.0625 -35.0625,0 z"/><path opacity="0.1" fill="none" id="path57" stroke="url(#6)" d="m 10.46875,6.46875 0,21.0625 33.0625,0 0,-21.0625 -33.0625,0 z"/><path stroke-linejoin="round" opacity="0.2" id="path4481" stroke-linecap="round" d="m 26.990234,9.8457031 a 1.0399145,1.0399145 0 0 0 -0.964843,0.6621089 l -1.736329,4.453126 -4.289062,0 a 1.0399145,1.0399145 0 0 0 -0.535156,1.93164 l 4.21289,2.527344 -1.574218,3.560547 a 1.0399145,1.0399145 0 0 0 1.298828,1.40039 l 3.599609,-1.279297 3.621094,1.267579 a 1.0399145,1.0399145 0 0 0 1.292969,-1.40625 l -1.589844,-3.546875 4.208984,-2.523438 A 1.0399145,1.0399145 0 0 0 34,14.960938 l -4.291016,0 -1.746093,-4.455079 A 1.0399145,1.0399145 0 0 0 26.990234,9.8457031 Z"/><path stroke-linejoin="round" fill="#ffd506" id="path3365" stroke-linecap="round" d="M 23.055381,23.400196 25,19 20,16 25,16 26.993246,10.883961 29,16 l 5,0 -5,3 1.966475,4.388406 L 27,22 Z"/><path fill-rule="evenodd" fill="url(#2)" id="path61" d="m 2,19 36,0 0,24 -36,0 z"/><g fill="none" id="g67"><path opacity="0.4" id="path69" stroke="#000" d="m 2.46875,19.46875 0,23.0625 35.0625,0 0,-23.0625 -35.0625,0 z"/><path opacity="0.4" id="path71" stroke="url(#7)" d="m 3.40625,20.40625 0,21.1875 33.1875,0 0,-21.1875 -33.1875,0 z"/></g><g fill-rule="evenodd" id="g73"><path opacity="0.564" id="path75" d="m 9,19 29,0 0,1 -29,0 z"/><path opacity="0.564" id="path77" transform="matrix(0 1 -1 0 0 0)" d="m 19.5,-38 9.5,0 0,1 -9.5,0 z"/></g><rect height="23.777884" width="35.666824" opacity="0.1" id="rect4167" x="49.16698" y="25.818373"/><rect height="23.777884" width="35.666824" fill="#ebebeb" id="9" x="49.16698" y="25.02578"/><path opacity="0.4" fill="none" id="C" stroke="#000" stroke-width="0.792596" d="m 49.588049,25.446843 0,22.93575 34.824692,0 0,-22.93575 -34.824692,0 z"/><path opacity="0.4" fill="none" id="path4157" stroke="url(#linearGradient4165-7)" stroke-width="0.792596" d="m 50.365165,26.223959 0,21.381518 33.27046,0 0,-21.381518 -33.27046,0 z"/><path stroke-linejoin="round" opacity="0.4" fill="#fff" id="path4487" stroke-linecap="round" d="m 20,23.001953 c -2.093697,0 -4.173829,0.863283 -5.654297,2.34375 -1.480467,1.480468 -2.34375,3.5606 -2.34375,5.654297 0,2.093697 0.863283,4.173829 2.34375,5.654297 1.480468,1.480467 3.5606,2.34375 5.654297,2.34375 2.093697,0 4.173829,-0.863283 5.654297,-2.34375 1.480467,-1.480468 2.34375,-3.5606 2.34375,-5.654297 0,-2.093697 -0.863283,-4.173829 -2.34375,-5.654297 C 24.173829,23.865236 22.093697,23.001953 20,23.001953 Z"/><circle r="7" stroke-linejoin="round" cx="20" cy="31" fill="#d02604" id="path4483" stroke-linecap="round"/><path stroke-linejoin="round" opacity="0.4" fill="none" id="path4491" stroke="#000" stroke-linecap="round" d="m 20,24.472656 c -1.708758,0 -3.40696,0.703835 -4.615234,1.91211 -1.208275,1.208274 -1.91211,2.906476 -1.91211,4.615234 0,1.708758 0.703835,3.40696 1.91211,4.615234 1.208274,1.208275 2.906476,1.91211 4.615234,1.91211 1.708758,0 3.40696,-0.703835 4.615234,-1.91211 1.208275,-1.208274 1.91211,-2.906476 1.91211,-4.615234 0,-1.708758 -0.703835,-3.40696 -1.91211,-4.615234 C 23.40696,25.176491 21.708758,24.472656 20,24.472656 Z"/><metadata id="metadata9999"><rdf:RDF><cc:Work><dc:format>image/svg+xml</dc:format><dc:type rdf:resource="http://purl.org/dc/dcmitype/StillImage"/><dc:title>Ivy icon theme</dc:title><cc:license rdf:resource="http://creativecommons.org/licenses/by-sa/4.0/"/><dc:creator><cc:Agent><dc:title>Sixsixfive (sixsixfive.deviantart.com)</dc:title></cc:Agent></dc:creator><dc:publisher><cc:Agent><dc:title>Sixsixfive (sixsixfive.deviantart.com)</dc:title></cc:Agent></dc:publisher><dc:source>https://github.com/sixsixfive</dc:source><dc:subject><rdf:Bag><rdf:li>ivy</rdf:li></rdf:Bag></dc:subject><dc:contributor><cc:Agent><dc:title>ssf</dc:title></cc:Agent></dc:contributor><dc:rights><cc:Agent><dc:title>Sixsixfive (sixisixfive.deviantart.com)</dc:title></cc:Agent></dc:rights><dc:description>A simple icon theme published under CC-BY-SA_V4(http://creativecommons.org/licenses/by-sa/4.0)</dc:description><dc:identifier>SSF</dc:identifier></cc:Work></rdf:RDF></metadata><!--Part of the Ivy icon them published under the CC-BY-SA_V4: http://creativecommons.org/licenses/by-sa/4.0 -->
</svg>