<?xml version="1.0" encoding="UTF-8" standalone="no"?><svg xmlns:xlink="http://www.w3.org/1999/xlink" xmlns:cc="http://creativecommons.org/ns#" viewBox="0 0 16 16" version="1.1" id="svg2" xmlns:svg="http://www.w3.org/2000/svg" xmlns:rdf="http://www.w3.org/1999/02/22-rdf-syntax-ns#" xmlns="http://www.w3.org/2000/svg" xmlns:dc="http://purl.org/dc/elements/1.1/"><defs id="defs4"><path opacity="0.4" fill="none" id="0" stroke="#000" d="m 1.5 2.5 v 2 h 2 v -2 h -2 z m 5 0 v 2 h 8 v -2 h -8 z"/><linearGradient x2="0" gradientUnits="userSpaceOnUse" xlink:href="#8" id="1" y2="14" gradientTransform="matrix(1.0071 0 0 1.175 0.612 29.483)" y1="6"/><linearGradient x2="0" gradientUnits="userSpaceOnUse" xlink:href="#8" id="2" y2="45.974" y1="36.574"/><linearGradient x2="0" gradientUnits="userSpaceOnUse" xlink:href="#8" id="3" y2="14" gradientTransform="matrix(1.0071 0 0 1.175 0.612 13.817)" y1="6"/><linearGradient x2="0" gradientUnits="userSpaceOnUse" xlink:href="#8" id="4" y2="30.31" y1="20.907"/><linearGradient x2="0" gradientUnits="userSpaceOnUse" xlink:href="#8" id="5" y2="14" gradientTransform="matrix(1.0071 0 0 1.175 0.612 -1.85)" y1="6"/><linearGradient x2="0" gradientUnits="userSpaceOnUse" xlink:href="#8" id="6" y2="14.641" y1="5.241"/><linearGradient x2="0" gradientUnits="userSpaceOnUse" xlink:href="#8" id="7" y2="14" y1="6"/><linearGradient id="8"><stop id="stop15" stop-color="#5288d1"/><stop offset="1" id="stop17" stop-color="#b1c9eb"/></linearGradient></defs><g fill="url(#7)" id="g19" transform="matrix(0.31915 0 0 0.31915 0.34 0.34)"><path fill="url(#6)" id="path21" d="m 2.067,5.2 9.4,0 0,9.4 -9.4,0 z"/><path fill="url(#5)" id="path23" d="m 17.733,5.2 28.2,0 0,9.4 -28.2,0 z"/><path fill="url(#4)" id="path25" d="m 2.067,20.867 9.4,0 0,9.4 -9.4,0 z"/><path fill="url(#3)" id="path27" d="m 17.733,20.867 28.2,0 0,9.4 -28.2,0 z"/><path fill="url(#2)" id="path29" d="m 2.067,36.533 9.4,0 0,9.4 -9.4,0 z"/><path fill="url(#1)" id="path31" d="m 17.733,36.533 28.2,0 0,9.4 -28.2,0 z"/><use height="16" width="16" xlink:href="#0" id="use33" x="0" transform="matrix(3.13333 0 0 3.13333 -1.067 -1.067)" y="0"/><use height="16" width="16" xlink:href="#0" id="use35" x="0" transform="matrix(3.13333 0 0 3.13333 -1.067 14.6)" y="0"/><use height="16" width="16" xlink:href="#0" id="use37" x="0" transform="matrix(3.13333 0 0 3.13333 -1.067 30.27)" y="0"/></g><metadata id="metadata9999"><rdf:RDF><cc:Work><dc:format>image/svg+xml</dc:format><dc:type rdf:resource="http://purl.org/dc/dcmitype/StillImage"/><dc:title>Ivy icon theme</dc:title><cc:license rdf:resource="http://creativecommons.org/licenses/by-sa/4.0/"/><dc:creator><cc:Agent><dc:title>Sixsixfive (sixsixfive.deviantart.com)</dc:title></cc:Agent></dc:creator><dc:publisher><cc:Agent><dc:title>Sixsixfive (sixsixfive.deviantart.com)</dc:title></cc:Agent></dc:publisher><dc:source>https://github.com/sixsixfive</dc:source><dc:subject><rdf:Bag><rdf:li>ivy</rdf:li></rdf:Bag></dc:subject><dc:contributor><cc:Agent><dc:title>ssf</dc:title></cc:Agent></dc:contributor><dc:rights><cc:Agent><dc:title>Sixsixfive (sixisixfive.deviantart.com)</dc:title></cc:Agent></dc:rights><dc:description>A simple icon theme published under CC-BY-SA_V4(http://creativecommons.org/licenses/by-sa/4.0)</dc:description><dc:identifier>SSF</dc:identifier></cc:Work></rdf:RDF></metadata><!--Part of the Ivy icon them published under the CC-BY-SA_V4: http://creativecommons.org/licenses/by-sa/4.0 -->
</svg>