<?xml version="1.0" encoding="UTF-8" standalone="no"?>
<svg xmlns:dc="http://purl.org/dc/elements/1.1/" xmlns:cc="http://creativecommons.org/ns#" xmlns:rdf="http://www.w3.org/1999/02/22-rdf-syntax-ns#" xmlns:svg="http://www.w3.org/2000/svg" xmlns="http://www.w3.org/2000/svg" viewBox="0 0 16 16" id="svg2" version="1.1">
 <defs id="defs4">
  <radialGradient cx="26" cy="41.01" r="15.973" id="1" gradientUnits="userSpaceOnUse" gradientTransform="matrix(0.40522 0 0 0.49962 -2.273 -4.422)">
   <stop stop-color="#5288d1" id="stop7"/>
   <stop offset="1" stop-color="#79a3dc" id="stop9"/>
  </radialGradient>
 </defs>
 <path fill="url(#1)" id="path11" d="M 4.3086 0.4469 C 4.105967 0.609458 3.979358 0.852024 3.979358 1.108728 l 0.0506 7.9066 l -0.4781 -2.0035 C 3.534267 6.969975 3.508291 6.931562 3.475876 6.899442 3.213653 6.633201 2.914565 6.487638 2.614781 6.449899 2.314996 6.412166 2.039289 6.468096 1.741023 6.524826 1.414182 6.586975 1.171899 6.825535 1.069876 7.099242 0.967852 7.372949 0.985452 7.681 1.133192 7.960866 l 1.8095 4.8189 c 0.011306 0.03569 0 0 0.050653 0.0999 l 1.9491 3.0122 c 0.067678 0.0877 0.179538 0.140464 0.291253 0.13736 1.44085 -0.0015 3.15196 0.05551 6.29598 0.03593 0.132093 -0.0011 0.260206 -0.08199 0.316578 -0.199797 l 2.1727 -3.9052 c 0.01128 -0.02393 0.01979 -0.04911 0.02533 -0.07493 0.03843 -0.186933 0.04347 -0.426833 0.05065 -0.724264 0.005 -0.952566 -0.04397 -2.05124 -0.04397 -2.97531 -0.000446 -0.029515 -0.0047 -0.05896 -0.01266 -0.087415 -0.07317 -0.252032 -0.412834 -0.701403 -0.617759 -0.864947 -0.19869 -0.158568 -0.47255 -0.234982 -0.747125 -0.212284 -0.495868 0.0054 -0.845805 0.00211 -0.97301 0.37587 V 6.785001 c 0 -0.294949 -0.182582 -0.358886 -0.405221 -0.507125 -0.222639 -0.148239 -0.498905 -0.224772 -0.797779 -0.224772 -0.298874 0 -0.578262 0.082106 -0.810441 0.224772 -0.175746 0.107997 -0.311631 0.098348 -0.379894 0.307334 V 5.973332 c 0 -0.339557 -0.248463 -0.563119 -0.493863 -0.699289 -0.245399 -0.136171 -0.537009 -0.212285 -0.835769 -0.212285 -0.298773 0 -0.575106 0.076667 -0.797779 0.224772 -0.076712 0.051021 -0.128827 0.127659 -0.189948 0.199797 l 0.1078 -4.4934 C 7.101968 0.807579 7.01017 0.654796 6.907571 0.543384 6.804972 0.431972 6.683784 0.346206 6.553008 0.281151 5.958325 0.005033 4.815088 0.117289 4.308658 0.446904 z"/>
 <path opacity="0.4" fill="none" stroke="#000" stroke-linejoin="round" id="path28" stroke-linecap="round" d="M 5.4375 0.6562 C 5.073416 0.683944 4.719403 0.793167 4.59375 0.87495 4.518606 0.950552 4.46875 1.034208 4.46875 1.0937 l 0.0625 7.9062 a 0.510401 0.510401 0 0 1 -1 0.125 L 3.09375 7.2499 C 2.885903 7.03887 2.718958 6.957096 2.5625 6.9374 2.384219 6.91496 2.165893 6.969879 1.84375 7.03115 1.69206 7.05999 1.566886 7.185547 1.53125 7.28115 1.481297 7.415164 1.482623 7.567337 1.5625 7.71865 a 0.510401 0.510401 0 0 1 0.03125 0.0625 l 1.7812 4.75 c 0.00798 0.01122 0.02415 0.02001 0.03125 0.03125 v 0.03125 c 0.0011 0.003 0.030416 -0.0025 0.03125 0 a 0.510401 0.510401 0 0 1 0 0.03125 c 0.00597 0.011 0.025838 0.02058 0.03125 0.03125 l 1.8438 2.875 c 1.41835 0.000056 3.12161 0.04816 6.125 0.03125 l 2.0938 -3.7188 c 0.0018 -0.02998 -0.01071 -0.0126 0 -0.0625 0.02742 -0.133402 0.05563 -0.340406 0.0625 -0.625 C 13.5986 10.248133 13.56469 9.19801 13.56255 8.2811 13.55845 8.27144 13.53727 8.267958 13.5313 8.24985 V 8.2186 C 13.5206 8.197261 13.43853 8.06741 13.3438 7.93735 13.241555 7.796968 13.12389 7.648868 13.0938 7.62485 13.01308 7.560432 12.905159 7.515695 12.7188 7.5311 a 0.510401 0.510401 0 0 1 -0.03125 0 c -0.250769 0.00273 -0.431917 0.012914 -0.5 0.03125 -0.06808 0.018336 -0.01737 -0.040783 -0.03125 0 A 0.510401 0.510401 0 0 1 11.18755 7.4061 V 6.81235 C 11.16761 6.800661 11.11649 6.796127 11.00005 6.7186 10.867683 6.630466 10.718655 6.56235 10.50005 6.56235 10.287789 6.56235 10.113198 6.629873 9.9688 6.7186 9.864741 6.782545 9.812453 6.79928 9.7813 6.81235 9.763485 6.834179 9.722046 6.841624 9.7188 6.8436 A 0.510401 0.510401 0 0 1 8.81255 6.5936 V 5.9686 C 8.81255 5.926375 8.784998 5.916498 8.75005 5.87485 8.715102 5.833202 8.652578 5.768556 8.56255 5.7186 8.394699 5.62546 8.173516 5.56235 7.9688 5.56235 c -0.218325 0 -0.367433 0.068077 -0.5 0.15625 0.083459 -0.055509 0.022967 -0.012755 -0.09375 0.125 a 0.510401 0.510401 0 0 1 -0.875 -0.34375 l 0.0938 -4.5 C 6.594184 0.98594 6.556671 0.902346 6.53135 0.87485 6.476503 0.815291 6.439844 0.797602 6.34385 0.74985 6.1823 0.674841 5.801684 0.628356 5.4376 0.6561 z"/>
 <path opacity="0.4" fill="none" stroke="#fff" fill-rule="evenodd" id="path4159" d="M 5.6271186,1.3559322 C 5.3768412,5.0169798 5.6065654,7.75231 7.8644068,6.5762712 8.4439605,8.0852817 9.251273,8.455498 10.372881,7.2542373 c 0.768362,2.4036548 1.536723,1.3491351 2.305085,1.0169491"/>
 <path opacity="0.43" fill="none" stroke="#fff" fill-rule="evenodd" id="path4161" d="M 2.2372881,7.7288136 C 3.2278366,10.183851 4.1393299,11.057786 4.9491525,9.8983051"/>
 <metadata id="metadata9999">
  <rdf:RDF>
   <cc:Work>
    <dc:format>image/svg+xml</dc:format>
    <dc:type rdf:resource="http://purl.org/dc/dcmitype/StillImage"/>
    <dc:title>Ivy icon theme</dc:title>
    <cc:license rdf:resource="http://creativecommons.org/licenses/by-sa/4.0/"/>
    <dc:creator>
     <cc:Agent>
      <dc:title>Sixsixfive (sixsixfive.deviantart.com)</dc:title>
     </cc:Agent>
    </dc:creator>
    <dc:publisher>
     <cc:Agent>
      <dc:title>Sixsixfive (sixsixfive.deviantart.com)</dc:title>
     </cc:Agent>
    </dc:publisher>
    <dc:source>https://github.com/sixsixfive</dc:source>
    <dc:subject>
     <rdf:Bag>
      <rdf:li>ivy</rdf:li>
     </rdf:Bag>
    </dc:subject>
    <dc:contributor>
     <cc:Agent>
      <dc:title>ssf</dc:title>
     </cc:Agent>
    </dc:contributor>
    <dc:rights>
     <cc:Agent>
      <dc:title>Sixsixfive (sixisixfive.deviantart.com)</dc:title>
     </cc:Agent>
    </dc:rights>
    <dc:description>A simple icon theme published under CC-BY-SA_V4(http://creativecommons.org/licenses/by-sa/4.0)</dc:description>
    <dc:identifier>SSF</dc:identifier>
   </cc:Work>
  </rdf:RDF>
 </metadata>
 <!--Part of the Ivy icon them published under the CC-BY-SA_V4: http://creativecommons.org/licenses/by-sa/4.0 -->
</svg>
