<?xml version="1.0" encoding="UTF-8" standalone="no"?><svg xmlns:cc="http://creativecommons.org/ns#" xmlns:dc="http://purl.org/dc/elements/1.1/" xmlns="http://www.w3.org/2000/svg" xmlns:svg="http://www.w3.org/2000/svg" xmlns:rdf="http://www.w3.org/1999/02/22-rdf-syntax-ns#" id="svg2" version="1.1" viewBox="0 0 48 48"><defs id="defs4"/><path opacity="0.1" d="m 4,5.22 h 40 v 38 H 4 z" id="0"/><path d="m 4,4.22 h 40 v 38 H 4 z" id="1" fill="#d02604"/><path stroke="#000" opacity="0.4" d="m 4.468728,4.688542 v 37.0625 h 39.0625 v -37.0625 h -39.0625 z" id="2" fill="none"/><rect width="38" height="1" opacity="0.3" id="3" y="35" fill-rule="evenodd" x="5"/><rect width="38" height="1" opacity="0.3" id="4" y="29" fill-rule="evenodd" x="5"/><rect width="38" height="1" opacity="0.3" id="5" y="23" fill-rule="evenodd" x="5"/><rect width="38" height="1" opacity="0.3" id="6" y="17" fill-rule="evenodd" x="5"/><rect width="38" height="1" opacity="0.3" id="7" y="11" fill-rule="evenodd" x="5"/><rect width="38" height="1" opacity="0.1" id="8" y="36" fill-rule="evenodd" x="5" fill="#fff"/><rect width="38" height="1" opacity="0.1" id="9" y="30" fill-rule="evenodd" x="5" fill="#fff"/><rect width="38" height="1" opacity="0.1" id="A" y="24" fill-rule="evenodd" x="5" fill="#fff"/><rect width="38" height="1" opacity="0.1" id="B" y="18" fill-rule="evenodd" x="5" fill="#fff"/><rect width="38" height="1" opacity="0.1" id="C" y="12" fill-rule="evenodd" x="5" fill="#fff"/><rect width="1" height="6" opacity="0.3" id="D" y="5" fill-rule="evenodd" x="15"/><rect width="1" height="5" opacity="0.3" id="E" y="18" fill-rule="evenodd" x="15"/><rect width="38" height="1" opacity="0.1" id="F" y="5" fill-rule="evenodd" x="5" fill="#fff"/><rect width="1" height="5" opacity="0.3" id="G" y="30" fill-rule="evenodd" x="15"/><rect width="1" height="6" opacity="0.3" id="H" y="5" fill-rule="evenodd" x="32"/><rect width="1" height="5" opacity="0.3" id="I" y="18" fill-rule="evenodd" x="32"/><rect width="1" height="5" opacity="0.3" id="J" y="30" fill-rule="evenodd" x="32"/><rect width="1" height="5" opacity="0.3" id="K" y="12" fill-rule="evenodd" x="24"/><rect width="1" height="5" opacity="0.3" id="L" y="24" fill-rule="evenodd" x="24"/><rect width="1" height="5" opacity="0.3" id="M" y="36" fill-rule="evenodd" x="24"/><metadata id="metadata9999"><rdf:RDF><cc:Work><dc:format>image/svg+xml</dc:format><dc:type rdf:resource="http://purl.org/dc/dcmitype/StillImage"/><dc:title>Ivy icon theme</dc:title><cc:license rdf:resource="http://creativecommons.org/licenses/by-sa/4.0/"/><dc:creator><cc:Agent><dc:title>Sixsixfive (sixsixfive.deviantart.com)</dc:title></cc:Agent></dc:creator><dc:publisher><cc:Agent><dc:title>Sixsixfive (sixsixfive.deviantart.com)</dc:title></cc:Agent></dc:publisher><dc:source>https://github.com/sixsixfive</dc:source><dc:subject><rdf:Bag><rdf:li>ivy</rdf:li></rdf:Bag></dc:subject><dc:contributor><cc:Agent><dc:title>ssf</dc:title></cc:Agent></dc:contributor><dc:rights><cc:Agent><dc:title>Sixsixfive (sixisixfive.deviantart.com)</dc:title></cc:Agent></dc:rights><dc:description>A simple icon theme published under CC-BY-SA_V4(http://creativecommons.org/licenses/by-sa/4.0)</dc:description><dc:identifier>SSF</dc:identifier></cc:Work></rdf:RDF></metadata><!--Part of the Ivy icon them published under the CC-BY-SA_V4: http://creativecommons.org/licenses/by-sa/4.0 -->
</svg>