<?xml version="1.0" encoding="UTF-8" standalone="no"?><svg xmlns:cc="http://creativecommons.org/ns#" viewBox="0 0 16 16" version="1.1" id="svg2" xmlns:svg="http://www.w3.org/2000/svg" xmlns:rdf="http://www.w3.org/1999/02/22-rdf-syntax-ns#" xmlns="http://www.w3.org/2000/svg" xmlns:dc="http://purl.org/dc/elements/1.1/"><defs id="1"><linearGradient x2="0" gradientUnits="userSpaceOnUse" x1="9.899" y2="21.21" id="6" y1="11.313"><stop stop-color="#ffb636" id="E"/><stop offset="1" stop-color="#ffe775" id="F"/></linearGradient><linearGradient x2="-3.947" gradientUnits="userSpaceOnUse" x1="3.947" y2="15.26" id="7" y1="7.365"><stop stop-color="#fff" id="G"/><stop offset="1" stop-opacity="0" stop-color="#fff" id="H"/></linearGradient></defs><rect height="10.242" width="10.242" rx="0.585" fill="url(#6)" ry="0.585" id="2" x="-5.121" transform="matrix(0.70711 -0.70711 0.70711 0.70711 0 0)" y="6.193"/><path opacity="0.46" fill="none" id="3" stroke="#000" transform="matrix(0.70711 -0.70711 0.70711 0.70711 0 0)" d="m -4.53125,6.71875 c -0.025341,0 -0.0625,0.037159 -0.0625,0.0625 v 9.0625 c 0,0.02534 0.037159,0.0625 0.0625,0.0625 h 9.0625 c 0.025341,0 0.0625,-0.03716 0.0625,-0.0625 v -9.0625 c 0,-0.025341 -0.037159,-0.0625 -0.0625,-0.0625 h -9.0625 z"/><g fill="#6a6a6a" id="4" color="#000"><path id="8" d="m 6,8 1,0 0,2 -1,0 z"/><path id="9" d="M 5,7 8,7 8,8 5,8 Z"/><path id="A" d="M 6,6 7,6 7,7 6,7 Z"/><path id="B" d="m 9,9 1,0 0,1 -1,0 z"/><path id="C" d="m 8,8 3,0 0,1 -3,0 z"/><path id="D" d="m 9,6 1,0 0,2 -1,0 z"/></g><path opacity="0.41" fill="none" id="5" stroke="url(#7)" transform="matrix(0.70711 -0.70711 0.70711 0.70711 0 0)" d="m -3.59375,7.71875 v 7.1875 h 7.1875 v -7.1875 h -7.1875 z"/><metadata id="metadata9999"><rdf:RDF><cc:Work><dc:format>image/svg+xml</dc:format><dc:type rdf:resource="http://purl.org/dc/dcmitype/StillImage"/><dc:title>Ivy icon theme</dc:title><cc:license rdf:resource="http://creativecommons.org/licenses/by-sa/4.0/"/><dc:creator><cc:Agent><dc:title>Sixsixfive (sixsixfive.deviantart.com)</dc:title></cc:Agent></dc:creator><dc:publisher><cc:Agent><dc:title>Sixsixfive (sixsixfive.deviantart.com)</dc:title></cc:Agent></dc:publisher><dc:source>https://github.com/sixsixfive</dc:source><dc:subject><rdf:Bag><rdf:li>ivy</rdf:li></rdf:Bag></dc:subject><dc:contributor><cc:Agent><dc:title>ssf</dc:title></cc:Agent></dc:contributor><dc:rights><cc:Agent><dc:title>Sixsixfive (sixisixfive.deviantart.com)</dc:title></cc:Agent></dc:rights><dc:description>A simple icon theme published under CC-BY-SA_V4(http://creativecommons.org/licenses/by-sa/4.0)</dc:description><dc:identifier>SSF</dc:identifier></cc:Work></rdf:RDF></metadata><!--Part of the Ivy icon them published under the CC-BY-SA_V4: http://creativecommons.org/licenses/by-sa/4.0 -->
</svg>