<?xml version="1.0" encoding="UTF-8" standalone="no"?><svg xmlns:cc="http://creativecommons.org/ns#" xmlns:rdf="http://www.w3.org/1999/02/22-rdf-syntax-ns#" xmlns:svg="http://www.w3.org/2000/svg" id="svg2" viewBox="0 0 16 16" version="1.1" xmlns:dc="http://purl.org/dc/elements/1.1/" xmlns="http://www.w3.org/2000/svg"><defs id="1"><linearGradient id="6" x2="0" y2="21.21" x1="9.899" y1="11.313" gradientUnits="userSpaceOnUse"><stop id="E" stop-color="#ffb636"/><stop offset="1" id="F" stop-color="#ffe775"/></linearGradient><linearGradient id="7" x2="-3.947" y2="15.26" x1="3.947" y1="7.365" gradientUnits="userSpaceOnUse"><stop id="G" stop-color="#fff"/><stop offset="1" id="H" stop-color="#fff" stop-opacity="0"/></linearGradient></defs><rect rx="0.585" height="10.242" ry="0.585" id="2" width="10.242" transform="matrix(0.70711 -0.70711 0.70711 0.70711 0 0)" x="-5.121" y="6.193" fill="url(#6)"/><path id="3" opacity="0.46" d="m -4.53125,6.71875 c -0.025341,0 -0.0625,0.037159 -0.0625,0.0625 v 9.0625 c 0,0.02534 0.037159,0.0625 0.0625,0.0625 h 9.0625 c 0.025341,0 0.0625,-0.03716 0.0625,-0.0625 v -9.0625 c 0,-0.025341 -0.037159,-0.0625 -0.0625,-0.0625 h -9.0625 z" stroke="#000" transform="matrix(0.70711 -0.70711 0.70711 0.70711 0 0)" fill="none"/><g id="4" fill="#6a6a6a" color="#000"><path id="8" opacity="0.5" d="m 6,8 1,0 0,2 -1,0 z"/><path id="9" opacity="0.5" d="M 5,7 8,7 8,8 5,8 Z"/><path id="A" opacity="0.5" d="M 6,6 7,6 7,7 6,7 Z"/><path id="B" d="m 9,9 1,0 0,1 -1,0 z"/><path id="C" d="m 8,8 3,0 0,1 -3,0 z"/><path id="D" d="m 9,6 1,0 0,2 -1,0 z"/></g><path id="5" opacity="0.41" d="m -3.59375,7.71875 v 7.1875 h 7.1875 v -7.1875 h -7.1875 z" stroke="url(#7)" transform="matrix(0.70711 -0.70711 0.70711 0.70711 0 0)" fill="none"/><metadata id="metadata9999"><rdf:RDF><cc:Work><dc:format>image/svg+xml</dc:format><dc:type rdf:resource="http://purl.org/dc/dcmitype/StillImage"/><dc:title>Ivy icon theme</dc:title><cc:license rdf:resource="http://creativecommons.org/licenses/by-sa/4.0/"/><dc:creator><cc:Agent><dc:title>Sixsixfive (sixsixfive.deviantart.com)</dc:title></cc:Agent></dc:creator><dc:publisher><cc:Agent><dc:title>Sixsixfive (sixsixfive.deviantart.com)</dc:title></cc:Agent></dc:publisher><dc:source>https://github.com/sixsixfive</dc:source><dc:subject><rdf:Bag><rdf:li>ivy</rdf:li></rdf:Bag></dc:subject><dc:contributor><cc:Agent><dc:title>ssf</dc:title></cc:Agent></dc:contributor><dc:rights><cc:Agent><dc:title>Sixsixfive (sixisixfive.deviantart.com)</dc:title></cc:Agent></dc:rights><dc:description>A simple icon theme published under CC-BY-SA_V4(http://creativecommons.org/licenses/by-sa/4.0)</dc:description><dc:identifier>SSF</dc:identifier></cc:Work></rdf:RDF></metadata><!--Part of the Ivy icon them published under the CC-BY-SA_V4: http://creativecommons.org/licenses/by-sa/4.0 -->
</svg>