<?xml version="1.0" encoding="UTF-8" standalone="no"?><svg xmlns:cc="http://creativecommons.org/ns#" xmlns:rdf="http://www.w3.org/1999/02/22-rdf-syntax-ns#" xmlns:svg="http://www.w3.org/2000/svg" id="svg2" viewBox="0 0 16 16" version="1.1" xmlns:xlink="http://www.w3.org/1999/xlink" xmlns:dc="http://purl.org/dc/elements/1.1/" xmlns="http://www.w3.org/2000/svg"><defs id="defs12"><linearGradient id="linearGradient4227"><stop id="stop4229" stop-color="#5288d1" stop-opacity="1"/><stop offset="1" id="stop4231" stop-color="#7aa4dc" stop-opacity="1"/></linearGradient><linearGradient id="linearGradient4233" x2="15.042133" y2="24.844351" gradientTransform="matrix(0.3749999 0 0 0.3749999 -16.003906 0.00000058)" xlink:href="#linearGradient4227" x1="14.977173" y1="0.00878514" gradientUnits="userSpaceOnUse"/></defs><path stroke-linecap="round" fill-opacity="1" id="rect4227" stroke-miterlimit="4.0999999" stroke-dasharray="none" opacity="1" stroke-width="1" d="m 2.5039064,1 c -1.385,0 -2.5,1.115 -2.5,2.5 l 0,8 c 0,1.385 1.115,2.5 2.5,2.5 l 1.583985,0 0,-2 -0.25,0 c -1.015667,0 -1.833985,-0.818318 -1.833985,-1.833984 l 0,-5.3320316 C 2.0039064,3.8183177 2.8222244,3 3.8378914,3 l 7.3320316,0 c 1.015666,0 1.833984,0.8183177 1.833984,1.8339844 l 0,5.3320316 C 13.003907,11.181682 12.185589,12 11.169923,12 l -1.166016,0 0,-2 -3.0000005,3 3.0000005,3 0,-2 2.5,0 c 1.385,0 2.5,-1.115 2.5,-2.5 l 0,-8 c 0,-1.385 -1.115,-2.5 -2.5,-2.5 z" stroke="none" stroke-linejoin="round" stroke-dashoffset="0" fill-rule="evenodd" fill="#66b03e" stroke-opacity="1"/><path stroke-linecap="butt" id="path4241" opacity="0.2" stroke-width="1" d="M 13.003907,2 1.0039064,2" stroke="#fff" stroke-linejoin="miter" fill-rule="evenodd" fill="none" stroke-opacity="1"/><path stroke-linecap="round" fill-opacity="1" id="path4237" stroke-miterlimit="4.0999999" stroke-dasharray="none" opacity="0.36140005" stroke-width="1" d="M 3.5,1.4941406 C 2.3805979,1.4941406 1.4941406,2.3805979 1.4941406,3.5 l 0,8 c 0,1.119402 0.8864573,2.005859 2.0058594,2.005859 l 1.0898438,0 0,-1.060547 C 3.427712,12.316994 2.5058594,11.361049 2.5058594,10.166016 l 0,-5.3320316 c 0,-1.2814761 1.0466489,-2.328125 2.328125,-2.328125 l 7.3320316,0 c 1.281475,0 2.328125,1.0466488 2.328125,2.328125 l 0,5.3320316 c 0,1.281475 -1.04665,2.328125 -2.328125,2.328125 l -1.166016,0 A 0.49491908,0.49491908 0 0 1 10.505859,12 l 0,-0.806641 L 8.6992188,13 10.505859,14.806641 10.505859,14 A 0.49491908,0.49491908 0 0 1 11,13.505859 l 2.5,0 c 1.119402,0 2.005859,-0.886457 2.005859,-2.005859 l 0,-8 c 0,-1.1194021 -0.886457,-2.0058594 -2.005859,-2.0058594 l -10,0 z" stroke="#000" transform="matrix(1 0 0 1 -0.9960936 0)" stroke-linejoin="round" stroke-dashoffset="0" fill-rule="evenodd" fill="none" stroke-opacity="1"/><path stroke-linecap="butt" id="path4239" opacity="0.3" stroke-width="1" d="m 10.702082,13 c 2.147171,0.180498 3.258263,-0.624542 3.301824,-2.445038" stroke="#fff" stroke-linejoin="miter" fill-rule="evenodd" fill="none" stroke-opacity="1"/><metadata id="metadata9999"><rdf:RDF><cc:Work><dc:format>image/svg+xml</dc:format><dc:type rdf:resource="http://purl.org/dc/dcmitype/StillImage"/><dc:title/><cc:license rdf:resource="http://creativecommons.org/licenses/by-sa/4.0/"/><dc:creator><cc:Agent><dc:title>Sixsixfive (sixsixfive.deviantart.com)</dc:title></cc:Agent></dc:creator><dc:publisher><cc:Agent><dc:title>Sixsixfive (sixsixfive.deviantart.com)</dc:title></cc:Agent></dc:publisher><dc:source>https://github.com/sixsixfive</dc:source><dc:subject><rdf:Bag><rdf:li>ivy</rdf:li></rdf:Bag></dc:subject><dc:contributor><cc:Agent><dc:title>ssf</dc:title></cc:Agent></dc:contributor><dc:rights><cc:Agent><dc:title>Sixsixfive (sixisixfive.deviantart.com)</dc:title></cc:Agent></dc:rights><dc:description>A simple icon theme published under CC-BY-SA_V4(http://creativecommons.org/licenses/by-sa/4.0)</dc:description><dc:identifier>SSF</dc:identifier></cc:Work></rdf:RDF></metadata><!--Part of the Ivy icon them published under the CC-BY-SA_V4: http://creativecommons.org/licenses/by-sa/4.0 -->
</svg>