<?xml version="1.0" encoding="UTF-8" standalone="no"?>
<svg xmlns:dc="http://purl.org/dc/elements/1.1/" xmlns:cc="http://creativecommons.org/ns#" xmlns:rdf="http://www.w3.org/1999/02/22-rdf-syntax-ns#" xmlns:svg="http://www.w3.org/2000/svg" xmlns="http://www.w3.org/2000/svg" viewBox="0 0 16 16" id="svg2" version="1.1">
 <defs id="defs4">
  <linearGradient id="0" y1="21" x1="-3" y2="46" x2="-2" gradientUnits="userSpaceOnUse" gradientTransform="matrix(0.28571 0 0 0.31818 7.571 0.364)">
   <stop stop-color="#fff" stop-opacity="0.568" id="stop7"/>
   <stop offset="1" stop-color="#6a6a6a" id="stop9"/>
  </linearGradient>
  <linearGradient id="1" y1="6" x1="10" y2="46" x2="23" gradientUnits="userSpaceOnUse" gradientTransform="matrix(0.30435 0 0 0.31863 0 0.353)">
   <stop stop-color="#ebebeb" id="stop12"/>
   <stop offset="1" stop-color="#6a6a6a" id="stop14"/>
  </linearGradient>
  <linearGradient id="2" y1="21" y2="27" x2="0" gradientUnits="userSpaceOnUse" gradientTransform="matrix(0.5 0 0 0.66667 -5 -8)">
   <stop stop-color="#66b03e" id="stop17"/>
   <stop offset="1" stop-color="#bfe3ad" id="stop19"/>
  </linearGradient>
  <linearGradient id="3" y1="16" y2="32" x2="0" gradientUnits="userSpaceOnUse" gradientTransform="matrix(0.5 0 0 0.375 -5.5 -1)">
   <stop stop-color="#ff8b36" id="stop22"/>
   <stop offset="1" stop-color="#ffc59b" id="stop24"/>
  </linearGradient>
 </defs>
 <path opacity="0.1" d="m 5 2 l -4 4.994953 v 0.010094 h -0.99999 V 11 H 1 l 4 5 h 2 v -13.999951 h -2 z" id="path26"/>
 <path opacity="0.067" d="M 7,6 H9 V10 H7 z" id="path28"/>
 <path opacity="0.067" d="M 10,5 H12 V11 H10 z" id="path30"/>
 <path opacity="0.1" d="M 8,7 H10 V11 H8 z" id="path32"/>
 <path opacity="0.1" d="M 11,6 H13 V12 H11 z" id="path34"/>
 <path fill="url(#1)" d="m 5 1 l -4 4.994953 v 0.010094 h -0.99999 V 10 H 1 l 4 5 h 2 v -13.999951 h -2 z" id="path36"/>
 <path fill="url(#0)" d="M 5,1 H7 V15 H5 z" id="path38"/>
 <path fill="url(#2)" d="M 8,6 H10 V10 H8 z" id="path40"/>
 <path fill="url(#3)" d="M 11,5 H13 V11 H11 z" id="path42"/>
 <path opacity="0.302" fill="none" stroke="#000" d="M 5.25 1.53125 L 1.40625 6.34375 A 0.527024 0.527024 0 0 1 1 6.53125 h -0.46875 v 2.9375 h 0.46875 a 0.527024 0.527024 0 0 1 0.40625 0.1875 l 3.84375 4.8125 h 1.21875 v -12.9375 h -1.21875 z" id="path44"/>
 <path opacity="0.15" d="M 4,4 H5 V12 H4 z" id="path46"/>
 <path opacity="0.15" d="M 8,9 H10 V10 H8 z" id="path48"/>
 <path opacity="0.15" d="M 11,10 H13 V11 H11 z" id="path50"/>
 <g id="g52" fill="#fff">
  <path d="m 11,5 2,0 0,1 -2,0 z" id="path54" opacity="0.707"/>
  <path d="m 8,6 2,0 0,1 -2,0 z" id="path56" opacity="0.707"/>
 </g>
 <metadata id="metadata9999">
  <rdf:RDF>
   <cc:Work>
    <dc:format>image/svg+xml</dc:format>
    <dc:type rdf:resource="http://purl.org/dc/dcmitype/StillImage"/>
    <dc:title>Ivy icon theme</dc:title>
    <cc:license rdf:resource="http://creativecommons.org/licenses/by-sa/4.0/"/>
    <dc:creator>
     <cc:Agent>
      <dc:title>Sixsixfive (sixsixfive.deviantart.com)</dc:title>
     </cc:Agent>
    </dc:creator>
    <dc:publisher>
     <cc:Agent>
      <dc:title>Sixsixfive (sixsixfive.deviantart.com)</dc:title>
     </cc:Agent>
    </dc:publisher>
    <dc:source>https://github.com/sixsixfive</dc:source>
    <dc:subject>
     <rdf:Bag>
      <rdf:li>ivy</rdf:li>
     </rdf:Bag>
    </dc:subject>
    <dc:contributor>
     <cc:Agent>
      <dc:title>ssf</dc:title>
     </cc:Agent>
    </dc:contributor>
    <dc:rights>
     <cc:Agent>
      <dc:title>Sixsixfive (sixisixfive.deviantart.com)</dc:title>
     </cc:Agent>
    </dc:rights>
    <dc:description>A simple icon theme published under CC-BY-SA_V4(http://creativecommons.org/licenses/by-sa/4.0)</dc:description>
    <dc:identifier>SSF</dc:identifier>
   </cc:Work>
  </rdf:RDF>
 </metadata>
 <!--Part of the Ivy icon them published under the CC-BY-SA_V4: http://creativecommons.org/licenses/by-sa/4.0 -->
</svg>
