<?xml version="1.0" encoding="UTF-8" standalone="no"?><svg xmlns:cc="http://creativecommons.org/ns#" xmlns:rdf="http://www.w3.org/1999/02/22-rdf-syntax-ns#" xmlns:svg="http://www.w3.org/2000/svg" id="svg2" viewBox="0 0 16 16" version="1.1" xmlns:dc="http://purl.org/dc/elements/1.1/" xmlns="http://www.w3.org/2000/svg"><defs id="defs4"><linearGradient id="0" x2="0" y2="45.02" gradientTransform="matrix(0.32155 0 0 0.33315 0.283 0)" y1="3" gradientUnits="userSpaceOnUse"><stop id="stop7" stop-color="#171717"/><stop offset="1" id="stop9" stop-color="#555"/></linearGradient><linearGradient id="1" x2="78.78" y2="25.05" x1="78.75" y1="6.91" gradientUnits="userSpaceOnUse"><stop id="stop12" stop-color="#fff"/><stop offset="1" id="stop14" stop-color="#fff" stop-opacity="0"/></linearGradient><linearGradient id="2" x2="0" y2="27.75" y1="3.933" gradientUnits="userSpaceOnUse"><stop id="stop17" stop-color="#66b03e"/><stop offset="1" id="stop19" stop-color="#abd992"/></linearGradient></defs><path id="path21" d="M 7.9105 1.0018 C 4.80956 1.088496 3.83093 3.19026 3.99649 4.97408 4.194135 5.126235 4.783422 5.02074 4.990808 5.082905 4.844787 6.592605 5.058266 7.934215 6.06365 8.997785 6.00609 9.34888 6.00002 9.558753 6.02639 9.995077 l -3.4163 1.1323 c -1.56901 0.376055 -1.68772 2.69074 -1.58122 3.86488 13.9775 -0.04109 -0.027008 0.0242 13.9712 -0.03077 -0.0479 -1.28361 -0.413569 -3.59248 -2.0094 -3.94595 l -2.9298 -0.985 C 10.00833 9.658347 10.01943 9.370789 9.953264 9.00084 11.342144 7.72228 12.00004 7.63466 11.992314 5.15514 12.238752 3.43677 10.819774 1.0524 8.222314 1.00177 c -0.105327 -0.002008 -0.211753 -0.002795 -0.311788 0 z" fill-rule="evenodd" fill="url(#0)"/><path id="path23" opacity="0.29" d="M 5.283,2 H10 V3 H5.283 z" fill="#fff"/><path id="path25" opacity="0.7" d="M 7.9062,1.5625 C 6.47895,1.602403 5.65853,2.062619 5.1562,2.6875 4.742226,3.20247 4.608822,3.8545 4.5937,4.5 4.745102,4.4945571 4.887325,4.481902 5.1562,4.5625 A 0.554162,0.554162 0 0 1 5.56245,5.15625 C 5.424179,6.58582 5.5964936,7.70231 6.4687,8.625 a 0.554162,0.554162 0 0 1 0.125,0.46875 c -0.051791,0.315914 -0.025709,0.44954 0,0.875 a 0.554162,0.554162 0 0 1 -0.375,0.5625 l -3.4062,1.125 a 0.554162,0.554162 0 0 1 -0.0625,0 c -0.53623,0.128522 -0.843755,0.576123 -1.03125,1.25 -0.141339,0.50799 -0.102718,1.03942 -0.09375,1.53125 2.85697,-0.0081 4.74357,5.08e-4 5.53125,0 0.436115,-2.81e-4 0.638163,-8.55e-4 0.75,0 0.055918,4.28e-4 0.095638,-0.0012 0.125,0 -8.56e-4,-2.7e-5 0.038873,-2.08e-4 0.0625,0 0.00554,9.36e-4 0.018576,-0.0033 0.03125,0 0.105269,3.8e-4 0.31348,0.0011 0.75,0 0.779503,-0.002 2.6701,-0.02038 5.46875,-0.03125 -0.05229,-0.516943 -0.09238,-1.05748 -0.28125,-1.5625 -0.260375,-0.696216 -0.632246,-1.18951 -1.1875,-1.3125 a 0.554162,0.554162 0 0 1 -0.0625,0 L 9.875,10.56245 A 0.554162,0.554162 0 0 1 9.5,10.0937 C 9.438524,9.658145 9.49061,9.390633 9.4375,9.0937 a 0.554162,0.554162 0 0 1 0.15625,-0.5 c 0.721599,-0.664279 1.2137,-1.00124 1.46875,-1.375 0.255047,-0.373761 0.378715,-0.871184 0.375,-2.0625 a 0.554162,0.554162 0 0 1 0,-0.09375 C 11.53422,4.388067 11.311652,3.51766 10.75,2.81245 10.188348,2.107244 9.3498,1.58449 8.21875,1.56245 c -0.100923,-0.00192 -0.226407,-0.00241 -0.3125,0 z" stroke="#000" fill="none"/><path id="path27" d="m 81.7228 15.8435 a 11.9085 11.9045 0 1 1 -23.817 0 11.9085 11.9045 0 1 1 23.817 0 z" transform="matrix(0.33589 0 0 0.33589 -11.45 6.679)" fill="url(#2)"/><g id="g29" stroke-width="2.977" stroke="#000" transform="matrix(0.33589 0 0 0.33589 -11.45 6.679)" fill="none"><path id="path31" opacity="0.4" d="m 70.09375,5.59375 c -0.452448,-0.012976 -0.548516,-9.94e-4 -1,0.03125 -0.451484,0.032244 -0.585241,0.047858 -1.03125,0.125 -0.446009,0.077142 -0.563921,0.09748 -1,0.21875 -0.436079,0.12127 -0.546958,0.179563 -0.96875,0.34375 -0.421792,0.164187 -0.534209,0.200786 -0.9375,0.40625 -0.403291,0.205464 -0.494239,0.25531 -0.875,0.5 -0.380761,0.24469 -0.489324,0.312278 -0.84375,0.59375 -0.354426,0.281472 -0.425451,0.372058 -0.75,0.6875 -0.324549,0.315442 -0.427322,0.403739 -0.71875,0.75 -0.291428,0.346261 -0.338356,0.43888 -0.59375,0.8125 -0.255394,0.37362 -0.345692,0.477753 -0.5625,0.875 -0.216808,0.397247 -0.261446,0.489346 -0.4375,0.90625 -0.176054,0.416904 -0.210211,0.536355 -0.34375,0.96875 -0.133539,0.432395 -0.16031,0.556435 -0.25,1 -0.08969,0.443565 -0.111307,0.549698 -0.15625,1 -0.04494,0.450302 -0.06275,0.578712 -0.0625,1.03125 a 1.670949,1.670949 0 0 1 0,0.03125 c -0.0087,0.449672 -0.0047,0.582931 0.03125,1.03125 0.03595,0.448319 0.07598,0.557461 0.15625,1 0.08027,0.442539 0.09495,0.536359 0.21875,0.96875 0.123796,0.432391 0.177648,0.550775 0.34375,0.96875 0.166102,0.417975 0.199483,0.538067 0.40625,0.9375 0.206767,0.399433 0.254609,0.498052 0.5,0.875 0.245391,0.376948 0.312158,0.461757 0.59375,0.8125 0.281592,0.350743 0.372488,0.460173 0.6875,0.78125 0.315012,0.321077 0.404678,0.399257 0.75,0.6875 0.345322,0.288243 0.440276,0.341185 0.8125,0.59375 0.372224,0.252565 0.479548,0.316855 0.875,0.53125 0.395452,0.214395 0.491473,0.26339 0.90625,0.4375 0.414777,0.17411 0.538742,0.211642 0.96875,0.34375 0.430008,0.132108 0.527754,0.161198 0.96875,0.25 0.440996,0.0888 0.552368,0.111629 1,0.15625 0.447632,0.04462 0.581398,0.0625 1.03125,0.0625 0.449852,0 0.583618,-0.01788 1.03125,-0.0625 0.447632,-0.04462 0.559004,-0.06745 1,-0.15625 0.440996,-0.0888 0.538742,-0.117892 0.96875,-0.25 0.430008,-0.132108 0.553973,-0.16964 0.96875,-0.34375 0.414777,-0.17411 0.510798,-0.223105 0.90625,-0.4375 0.395452,-0.214395 0.502776,-0.278685 0.875,-0.53125 0.372224,-0.252565 0.467178,-0.305507 0.8125,-0.59375 0.345322,-0.288243 0.434988,-0.366423 0.75,-0.6875 0.315012,-0.321077 0.405908,-0.430507 0.6875,-0.78125 0.281592,-0.350743 0.348359,-0.435552 0.59375,-0.8125 0.245391,-0.376948 0.293233,-0.475567 0.5,-0.875 0.206767,-0.399433 0.240148,-0.519525 0.40625,-0.9375 0.166102,-0.417975 0.219954,-0.536359 0.34375,-0.96875 0.123796,-0.432391 0.138482,-0.526211 0.21875,-0.96875 0.08027,-0.442539 0.120304,-0.551681 0.15625,-1 0.03595,-0.448319 0.03998,-0.581578 0.03125,-1.03125 a 1.670949,1.670949 0 0 1 0,-0.03125 c 2.48e-4,-0.436211 -0.02075,-0.565791 -0.0625,-1 C 79.95825,14.409541 79.95836,14.303175 79.875,13.875 79.79164,13.446825 79.7492,13.355665 79.625,12.9375 79.5008,12.519335 79.47638,12.404271 79.3125,12 79.14862,11.595729 79.07704,11.480374 78.875,11.09375 78.67296,10.707126 78.61332,10.615387 78.375,10.25 78.13668,9.884614 78.08489,9.778257 77.8125,9.4375 77.54011,9.09674 77.46018,9.03171 77.15625,8.71875 76.852322,8.405786 76.77014,8.313516 76.4375,8.03125 76.10486,7.748984 76.01452,7.686448 75.65625,7.4375 75.29798,7.188552 75.19307,7.11957 74.8125,6.90625 74.43193,6.69293 74.33684,6.644462 73.9375,6.46875 73.53816,6.293038 73.4144,6.261474 73,6.125 72.5856,5.988527 72.48811,5.939719 72.0625,5.84375 71.63689,5.747781 71.52662,5.742074 71.09375,5.6875 c -0.432875,-0.054574 -0.563881,-0.081078 -1,-0.09375 z" transform="matrix(1.01524 0 0 0.99898 -1.062 -0.152)"/><path id="path33" opacity="0.4" d="m 70.0312,8.375 c -1.08874,-0.031225 -0.426747,-0.091881 -1.5,0.09375 -1.07325,0.185631 -0.422505,0.011153 -1.4375,0.40625 -1.01499,0.395097 -0.39622,0.098668 -1.3125,0.6875 -0.91628,0.588832 -0.406469,0.147136 -1.1875,0.90625 -0.781031,0.759114 -0.354122,0.257102 -0.96875,1.15625 -0.614628,0.899148 -0.263802,0.309161 -0.6875,1.3125 -0.423698,1.00334 -0.221646,0.33873 -0.4375,1.40625 -0.215854,1.06752 -0.156858,0.410878 -0.15625,1.5 a 4.43092,4.43092 0 0 1 0,0.09375 c -0.02101,1.08222 -0.06818,0.403698 0.125,1.46875 0.193179,1.06505 0.0065,0.431582 0.40625,1.4375 0.399749,1.00592 0.06569,0.405341 0.65625,1.3125 0.590555,0.907159 0.179417,0.383571 0.9375,1.15625 0.758083,0.772679 0.260511,0.329715 1.15625,0.9375 0.895739,0.607785 0.283135,0.299773 1.28125,0.71875 0.998115,0.418977 0.376309,0.22381 1.4375,0.4375 1.06119,0.21369 0.386255,0.15625 1.46875,0.15625 1.08249,0 0.407559,0.05744 1.46875,-0.15625 1.06119,-0.21369 0.439385,-0.01852 1.4375,-0.4375 0.998115,-0.418977 0.385511,-0.110965 1.28125,-0.71875 0.895739,-0.607785 0.398167,-0.164821 1.15625,-0.9375 0.758083,-0.772679 0.346945,-0.249091 0.9375,-1.15625 0.590555,-0.907159 0.256501,-0.306582 0.65625,-1.3125 0.399749,-1.00592 0.213071,-0.372448 0.40625,-1.4375 0.193179,-1.06505 0.14601,-0.386526 0.125,-1.46875 a 4.43092,4.43092 0 0 1 0,-0.09375 c 5.97e-4,-1.04983 0.07562,-0.407018 -0.125,-1.4375 -0.200622,-1.03048 -0.01185,-0.402063 -0.40625,-1.375 -0.3944,-0.97294 -0.11396,-0.401915 -0.6875,-1.28125 -0.57354,-0.879335 -0.14359,-0.371845 -0.875,-1.125 C 74.45604,9.871845 74.955866,10.286582 74.0937,9.6875 73.23153,9.08842 73.77342,9.422832 72.81245,9 71.851479,8.577168 72.49288,8.762185 71.4687,8.53125 70.44452,8.300315 71.08065,8.405493 70.0312,8.375 Z" stroke="url(#1)"/></g><metadata id="metadata9999"><rdf:RDF><cc:Work><dc:format>image/svg+xml</dc:format><dc:type rdf:resource="http://purl.org/dc/dcmitype/StillImage"/><dc:title>Ivy icon theme</dc:title><cc:license rdf:resource="http://creativecommons.org/licenses/by-sa/4.0/"/><dc:creator><cc:Agent><dc:title>Sixsixfive (sixsixfive.deviantart.com)</dc:title></cc:Agent></dc:creator><dc:publisher><cc:Agent><dc:title>Sixsixfive (sixsixfive.deviantart.com)</dc:title></cc:Agent></dc:publisher><dc:source>https://github.com/sixsixfive</dc:source><dc:subject><rdf:Bag><rdf:li>ivy</rdf:li></rdf:Bag></dc:subject><dc:contributor><cc:Agent><dc:title>ssf</dc:title></cc:Agent></dc:contributor><dc:rights><cc:Agent><dc:title>Sixsixfive (sixisixfive.deviantart.com)</dc:title></cc:Agent></dc:rights><dc:description>A simple icon theme published under CC-BY-SA_V4(http://creativecommons.org/licenses/by-sa/4.0)</dc:description><dc:identifier>SSF</dc:identifier></cc:Work></rdf:RDF></metadata><!--Part of the Ivy icon them published under the CC-BY-SA_V4: http://creativecommons.org/licenses/by-sa/4.0 -->
</svg>