<?xml version="1.0" encoding="UTF-8" standalone="no"?>
<svg xmlns:dc="http://purl.org/dc/elements/1.1/" xmlns:cc="http://creativecommons.org/ns#" xmlns:rdf="http://www.w3.org/1999/02/22-rdf-syntax-ns#" xmlns:svg="http://www.w3.org/2000/svg" xmlns="http://www.w3.org/2000/svg" viewBox="0 0 16 16" id="svg2" version="1.1">
 <defs id="defs4">
  <linearGradient id="0" y1="-0.032" y2="16.01" gradientUnits="userSpaceOnUse" x2="0">
   <stop stop-color="#d02604" id="stop7"/>
   <stop offset="1" stop-color="#fb5736" id="stop9"/>
  </linearGradient>
  <linearGradient id="1" y1="1" y2="15" gradientUnits="userSpaceOnUse" x2="0">
   <stop stop-color="#fff" id="stop12"/>
   <stop offset="1" stop-color="#fff" id="stop14" stop-opacity="0"/>
  </linearGradient>
 </defs>
 <path fill="url(#0)" fill-rule="evenodd" id="path16" d="m 5,0 -5,5 0,6 5,5 6,0 5,-5 0,-6 -5,-5 z"/>
 <path opacity="0.61" id="path18" d="M 13 8.8072 V 6 H 3 v 2.8072 h 10 z"/>
 <path fill="#fff" id="path20" d="M 13 10 V 7 H 3 V 10 H 13 z"/>
 <g id="g22" fill="none">
  <path id="path24" d="M 5.1875,0.5 0.5,5.21875 l 0,5.5625 4.71875,4.71875 5.5625,0 L 15.5,10.78125 15.5,5.21875 10.78125,0.5 5.1875,0.5 Z" opacity="0.64" stroke="#000"/>
  <path id="path26" d="M 5.625,1.5 1.5,5.625 l 0,4.75 4.125,4.125 4.75,0 4.125,-4.125 0,-4.75 -4.125,-4.125 -4.75,0 z" opacity="0.4" stroke="url(#1)"/>
 </g>
 <metadata id="metadata9999">
  <rdf:RDF>
   <cc:Work>
    <dc:format>image/svg+xml</dc:format>
    <dc:type rdf:resource="http://purl.org/dc/dcmitype/StillImage"/>
    <dc:title>Ivy icon theme</dc:title>
    <cc:license rdf:resource="http://creativecommons.org/licenses/by-sa/4.0/"/>
    <dc:creator>
     <cc:Agent>
      <dc:title>Sixsixfive (sixsixfive.deviantart.com)</dc:title>
     </cc:Agent>
    </dc:creator>
    <dc:publisher>
     <cc:Agent>
      <dc:title>Sixsixfive (sixsixfive.deviantart.com)</dc:title>
     </cc:Agent>
    </dc:publisher>
    <dc:source>https://github.com/sixsixfive</dc:source>
    <dc:subject>
     <rdf:Bag>
      <rdf:li>ivy</rdf:li>
     </rdf:Bag>
    </dc:subject>
    <dc:contributor>
     <cc:Agent>
      <dc:title>ssf</dc:title>
     </cc:Agent>
    </dc:contributor>
    <dc:rights>
     <cc:Agent>
      <dc:title>Sixsixfive (sixisixfive.deviantart.com)</dc:title>
     </cc:Agent>
    </dc:rights>
    <dc:description>A simple icon theme published under CC-BY-SA_V4(http://creativecommons.org/licenses/by-sa/4.0)</dc:description>
    <dc:identifier>SSF</dc:identifier>
   </cc:Work>
  </rdf:RDF>
 </metadata>
 <!--Part of the Ivy icon them published under the CC-BY-SA_V4: http://creativecommons.org/licenses/by-sa/4.0 -->
</svg>
