<?xml version="1.0" encoding="UTF-8" standalone="no"?><svg xmlns:cc="http://creativecommons.org/ns#" xmlns:svg="http://www.w3.org/2000/svg" xmlns="http://www.w3.org/2000/svg" xmlns:dc="http://purl.org/dc/elements/1.1/" xmlns:rdf="http://www.w3.org/1999/02/22-rdf-syntax-ns#" id="svg2" version="1.1" viewBox="0 0 48 48" xmlns:xlink="http://www.w3.org/1999/xlink"><defs id="defs4"><linearGradient id="linearGradient4198"><stop id="stop4200"/><stop stop-opacity="0.882" id="stop4202" offset="1"/></linearGradient><linearGradient id="linearGradient4236"><stop id="stop4238"/><stop stop-opacity="0" id="stop4240" offset="1"/></linearGradient><linearGradient id="linearGradient4226"><stop id="stop4228" stop-color="#6a6a6a"/><stop id="stop4230" stop-color="#333" offset="1"/></linearGradient><linearGradient gradientUnits="userSpaceOnUse" y1="7.06" id="0" x1="43.917" y2="41.3" x2="43.928"><stop id="stop7" stop-color="#fff"/><stop stop-opacity="0" id="stop9" stop-color="#fff" offset="1"/></linearGradient><linearGradient gradientUnits="userSpaceOnUse" y1="42" xlink:href="#linearGradient4226" id="linearGradient4234" y2="6" x2="0"/><linearGradient gradientUnits="userSpaceOnUse" y1="39" xlink:href="#linearGradient4236" id="linearGradient4242" y2="35" x2="0"/><radialGradient gradientTransform="matrix(1.2352943 -1.3529414 1.0461815 0.95520928 -52.611803 29.15752)" cy="42.718" cx="25.841" gradientUnits="userSpaceOnUse" r="17" xlink:href="#linearGradient4198" id="radialGradient4204"/><linearGradient id="linearGradient4181"><stop stop-opacity="1" id="stop4183" stop-color="#fff"/><stop stop-opacity="0" id="stop4185" stop-color="#fff" offset="1"/></linearGradient><linearGradient gradientTransform="matrix(0.69999997 0 0 0.7 -0.7879593 -0.795417)" gradientUnits="userSpaceOnUse" y1="3" id="1" y2="43" x2="0"><stop id="stop12" stop-color="#66b03e"/><stop id="stop14" stop-color="#95ce76" offset="1"/></linearGradient><linearGradient gradientUnits="userSpaceOnUse" y1="19" xlink:href="#linearGradient4181" id="linearGradient4187" x1="22" y2="45" x2="22"/></defs><rect ry="1" width="46" rx="1" height="6" stroke-width="1.5" opacity="0.1" stroke-linejoin="round" id="rect4164" y="38" x="1" stroke-linecap="round"/><rect ry="2" width="42" rx="2" height="36" id="rect18" y="6" x="3" fill="url(#linearGradient4234)"/><path d="M 7 10 V 34 H 41 V 10 H 7 z" id="path20" fill="url(#radialGradient4204)"/><g id="g26" fill="none"><path stroke="#000" opacity="0.7" d="M 5,6.5 C 4.161723,6.5 3.5,7.161723 3.5,8 l 0,32 c 0,0.838277 0.661723,1.5 1.5,1.5 l 38,0 c 0.838277,0 1.5,-0.661723 1.5,-1.5 l 0,-32 C 44.5,7.161723 43.838277,6.5 43,6.5 l -38,0 z" id="path28"/><path stroke="url(#0)" opacity="0.2" d="M 5,7.5 C 4.699797,7.5 4.5,7.699797 4.5,8 l 0,32 c 0,0.300203 0.199797,0.5 0.5,0.5 l 38,0 c 0.300203,0 0.5,-0.199797 0.5,-0.5 l 0,-32 C 43.5,7.699797 43.3002,7.5 43,7.5 l -38,0 z" id="path30"/></g><path opacity="0.2" d="M 7,34 H41 V35 H7 z" id="path32" fill="#fff"/><path stroke="#000" d="m 7.5094376,10.509438 -0.038521,22.942604 33.0581662,0.07704 0,-22.981125 z" id="path36" fill="none"/><rect width="40" height="4" opacity="0.6" stroke-linejoin="round" id="rect4214" y="35" x="4" fill="url(#linearGradient4242)" stroke-linecap="round"/><rect ry="1" width="46" rx="1" height="6" stroke-width="1.5" stroke-linejoin="round" id="rect4170" y="37" x="1" fill="#777" stroke-linecap="round"/><rect ry="1" width="9" rx="1" height="2" opacity="0.2" stroke-linejoin="round" id="rect4212" y="40" x="34" fill="#fff" stroke-linecap="round"/><circle cy="41" cx="8" opacity="0.2" r="1" stroke-linejoin="round" id="circle4206" fill="#fff" stroke-linecap="round"/><circle cy="40" cx="8" r="1" stroke-linejoin="round" id="path4202" stroke-linecap="round"/><circle cy="41" cx="12" opacity="0.2" r="1" stroke-linejoin="round" id="circle4208" fill="#fff" stroke-linecap="round"/><circle cy="40" cx="12" r="1" stroke-linejoin="round" id="circle4204" stroke-linecap="round"/><rect ry="1" width="9" rx="1" height="2" stroke-linejoin="round" id="rect4210" y="39" x="34" stroke-linecap="round"/><rect ry="0.5" width="44" rx="1" height="1" opacity="0.2" stroke-linejoin="round" id="rect4220" y="38" x="2" fill="#fff" stroke-linecap="round"/><path transform="matrix(1 0 0 1 0 -1.00045)" stroke="#000" d="m 2,38.435547 c -0.3199994,0 -0.5644531,0.244454 -0.5644531,0.564453 l 0,4 c 0,0.319999 0.2444537,0.564453 0.5644531,0.564453 l 44,0 c 0.319999,0 0.564453,-0.244454 0.564453,-0.564453 l 0,-4 c 0,-0.319999 -0.244454,-0.564453 -0.564453,-0.564453 l -44,0 z" stroke-linejoin="round" id="path4218" fill="none" stroke-linecap="round"/><g transform="matrix(1 0 0 1 15.993594 16)" id="g3512"><path opacity="0.1" d="m 2.0000005,17.004583 a 14,14 0 0 0 27.9999985,0 14,14 0 1 0 -27.9999985,0 z" id="path4189" fill="#000"/><path d="m 2.0000005,16.004583 a 14,14 0 0 0 27.9999985,0 14,14 0 1 0 -27.9999985,0 z" id="path18" fill="url(#1)"/><path transform="matrix(1 0 0 1 0 -16)" stroke="url(#linearGradient4187)" opacity="0.4" d="m 15.578125,19.480469 c -5.161908,-0.06676 -9.9121334,3.926235 -11.5117188,8.791015 a 1.0338241,1.0338241 0 0 1 -0.00781,0.01953 c -0.8963556,2.553917 -0.8167408,5.422197 0.1386718,7.970703 a 1.0338241,1.0338241 0 0 1 0.015625,0.04492 c 1.6739702,5.183842 7.418556,8.51595 12.802734,8.185547 a 1.0338241,1.0338241 0 0 1 0.02148,-0.002 c 2.522945,-0.101114 4.96676,-1.160496 6.94336,-2.798828 a 1.0338241,1.0338241 0 0 1 0.02734,-0.02148 c 5.357977,-4.158253 5.906819,-13.184805 1.3125,-18.117188 l -0.0039,-0.0039 c -2.490584,-2.6232 -6.084809,-4.206358 -9.685547,-4.068359 a 1.0338241,1.0338241 0 0 1 -0.05273,0 z" stroke-linejoin="round" id="path4179" fill="none"/><path opacity="0.4" d="m 20,15 a 4,4 0 0 1 -8,0 4,4 0 1 1 8,0 z" id="path26"/><path d="m 20,16 a 4,4 0 0 1 -8,0 4,4 0 1 1 8,0 z" id="path28-7" fill="#fff"/><path stroke="#000" opacity="0.6" d="M 15.591797,2.447266 C 9.901317,2.373666 4.818698,6.673977 3.0840211,11.949608 2.101983,14.747654 2.189803,17.85601 3.2277213,20.624595 c 1.842539,5.705855 8.0045787,9.256683 13.8494527,8.898008 2.783347,-0.111551 5.434003,-1.270365 7.563564,-3.03548 5.8913,-4.572158 6.476001,-14.23629 1.429528,-19.645484 C 23.382295,4.008126 19.519895,2.296721 15.591797,2.447266 Z" stroke-linejoin="round" id="path3374" fill="none"/></g><metadata id="metadata9999"><rdf:RDF><cc:Work><dc:format>image/svg+xml</dc:format><dc:type rdf:resource="http://purl.org/dc/dcmitype/StillImage"/><dc:title/><cc:license rdf:resource="http://creativecommons.org/licenses/by-sa/4.0/"/><dc:creator><cc:Agent><dc:title>Sixsixfive (sixsixfive.deviantart.com)</dc:title></cc:Agent></dc:creator><dc:publisher><cc:Agent><dc:title>Sixsixfive (sixsixfive.deviantart.com)</dc:title></cc:Agent></dc:publisher><dc:source>https://github.com/sixsixfive</dc:source><dc:subject><rdf:Bag><rdf:li>ivy</rdf:li></rdf:Bag></dc:subject><dc:contributor><cc:Agent><dc:title>ssf</dc:title></cc:Agent></dc:contributor><dc:rights><cc:Agent><dc:title>Sixsixfive (sixisixfive.deviantart.com)</dc:title></cc:Agent></dc:rights><dc:description>A simple icon theme published under CC-BY-SA_V4(http://creativecommons.org/licenses/by-sa/4.0)</dc:description><dc:identifier>SSF</dc:identifier></cc:Work></rdf:RDF></metadata><!--Part of the Ivy icon them published under the CC-BY-SA_V4: http://creativecommons.org/licenses/by-sa/4.0 -->
</svg>