<?xml version="1.0" encoding="UTF-8" standalone="no"?><svg xmlns:svg="http://www.w3.org/2000/svg" xmlns="http://www.w3.org/2000/svg" viewBox="0 0 48 48" xmlns:rdf="http://www.w3.org/1999/02/22-rdf-syntax-ns#" xmlns:xlink="http://www.w3.org/1999/xlink" version="1.1" id="svg2" xmlns:dc="http://purl.org/dc/elements/1.1/" xmlns:cc="http://creativecommons.org/ns#"><defs id="defs12"><linearGradient id="linearGradient4182"><stop stop-opacity="1" id="stop4184" stop-color="#fff"/><stop stop-opacity="0" offset="1" id="stop4186" stop-color="#fff"/></linearGradient><linearGradient x1="34" xlink:href="#linearGradient4182" y1="2" x2="34" y2="38" id="linearGradient4188" gradientUnits="userSpaceOnUse"/></defs><path stroke-linejoin="miter" stroke-opacity="1" stroke="none" stroke-width="1" stroke-linecap="butt" opacity="0.1" id="path4190" fill-rule="evenodd" d="M 36,4 36,9 35,9 23.5,20.960938 12,9 5,9 5,15 10,15 19.615234,25 10,35 5,35 5,41 12,41 23.5,29.039062 35,41 l 1,0 0,5 7,-8 -7,-8 0,3.960938 L 27.384766,25 36,16.039062 36,20 43,12 36,4 Z" fill="#000"/><path stroke-linejoin="miter" stroke-opacity="1" stroke="none" stroke-width="1" stroke-linecap="butt" id="path4155" fill-rule="evenodd" d="m 36,29 0,16 7,-8 c -7,-8 0,0 -7,-8 z" fill="#66b03e"/><path stroke-linejoin="miter" stroke-opacity="1" stroke="none" stroke-width="1" stroke-linecap="butt" id="path4151" fill-rule="evenodd" d="m 36,3 0,16 7,-8 c -7,-8 0,0 -7,-8 z" fill="#66b03e"/><path stroke-linejoin="miter" stroke-opacity="1" stroke="none" stroke-width="1" stroke-linecap="butt" id="path4161" fill-rule="evenodd" d="m 39,14 -2,0 c -25,26 0,0 -25,26 l -7,0 0,-6 5,0 C 35,8 10,34 35,8 l 4,0 z" fill="#66b03e"/><path stroke-linejoin="miter" stroke-opacity="1" stroke="none" stroke-width="1" stroke-linecap="butt" id="path4167" fill-rule="evenodd" d="m 39,34 -2,0 C 12,8 37,34 12,8 l -7,0 0,6 5,0 c 25,26 0,0 25,26 l 4,0 z" fill="#66b03e"/><path stroke-linejoin="miter" stroke-opacity="1" stroke="#000" stroke-width="1" stroke-linecap="butt" opacity="0.4" id="path4178" fill-rule="evenodd" d="M 36.507812,4.3515625 36.507812,8 A 0.50818089,0.50818089 0 0 1 36,8.5078125 l -0.783203,0 L 23.867188,20.3125 a 0.50818089,0.50818089 0 0 1 -0.734376,0 L 11.783203,8.5078125 l -6.2753905,0 0,4.9843755 4.4921875,0 a 0.50818089,0.50818089 0 0 1 0.367188,0.15625 l 9.615234,10 a 0.50818089,0.50818089 0 0 1 0,0.703124 l -9.615234,10 A 0.50818089,0.50818089 0 0 1 10,34.507812 l -4.4921875,0 0,4.984376 6.2753905,0 L 23.132812,27.6875 a 0.50818089,0.50818089 0 0 1 0.734376,0 l 11.349609,11.804688 0.783203,0 A 0.50818089,0.50818089 0 0 1 36.507812,40 l 0,3.648438 L 42.324219,37 l -5.816407,-6.648438 0,2.609376 a 0.50818089,0.50818089 0 0 1 -0.875,0.351562 l -8.615234,-8.960938 a 0.50818089,0.50818089 0 0 1 0,-0.703124 L 35.632812,14.6875 a 0.50818089,0.50818089 0 0 1 0.875,0.351562 l 0,2.609376 L 42.324219,11 36.507812,4.3515625 Z" fill="none"/><path stroke-linejoin="miter" stroke-opacity="1" stroke="url(#linearGradient4188)" stroke-width="1" stroke-linecap="butt" opacity="0.4" id="path4180" fill-rule="evenodd" d="M 37.523438,7.0546875 37.523438,8 A 1.5242246,1.5242246 0 0 1 36,9.5234375 l -0.351562,0 -11.048829,11.4941405 a 1.5242246,1.5242246 0 0 1 -2.199218,0 L 11.351562,9.5234375 l -4.8281245,0 0,2.9531245 3.4765625,0 a 1.5242246,1.5242246 0 0 1 1.097656,0.466797 l 9.615235,10 a 1.5242246,1.5242246 0 0 1 0,2.113282 l -9.615235,10 A 1.5242246,1.5242246 0 0 1 10,35.523438 l -3.4765625,0 0,2.953124 4.8281245,0 11.048829,-11.49414 a 1.5242246,1.5242246 0 0 1 2.199218,0 l 11.048829,11.49414 0.351562,0 A 1.5242246,1.5242246 0 0 1 37.523438,40 l 0,0.945312 L 40.974609,37 37.519531,33.050781 a 1.5242246,1.5242246 0 0 1 -2.61914,0.966797 l -8.615235,-8.960937 a 1.5242246,1.5242246 0 0 1 0,-2.113282 l 8.615235,-8.960937 a 1.5242246,1.5242246 0 0 1 2.61914,0.964844 L 40.974609,11 37.523438,7.0546875 Z" fill="none"/><metadata id="metadata9999"><rdf:RDF><cc:Work><dc:format>image/svg+xml</dc:format><dc:type rdf:resource="http://purl.org/dc/dcmitype/StillImage"/><dc:title/><cc:license rdf:resource="http://creativecommons.org/licenses/by-sa/4.0/"/><dc:creator><cc:Agent><dc:title>Sixsixfive (sixsixfive.deviantart.com)</dc:title></cc:Agent></dc:creator><dc:publisher><cc:Agent><dc:title>Sixsixfive (sixsixfive.deviantart.com)</dc:title></cc:Agent></dc:publisher><dc:source>https://github.com/sixsixfive</dc:source><dc:subject><rdf:Bag><rdf:li>ivy</rdf:li></rdf:Bag></dc:subject><dc:contributor><cc:Agent><dc:title>ssf</dc:title></cc:Agent></dc:contributor><dc:rights><cc:Agent><dc:title>Sixsixfive (sixisixfive.deviantart.com)</dc:title></cc:Agent></dc:rights><dc:description>A simple icon theme published under CC-BY-SA_V4(http://creativecommons.org/licenses/by-sa/4.0)</dc:description><dc:identifier>SSF</dc:identifier></cc:Work></rdf:RDF></metadata><!--Part of the Ivy icon them published under the CC-BY-SA_V4: http://creativecommons.org/licenses/by-sa/4.0 -->
</svg>