<?xml version="1.0" encoding="UTF-8" standalone="no"?><svg xmlns:cc="http://creativecommons.org/ns#" xmlns:dc="http://purl.org/dc/elements/1.1/" xmlns:svg="http://www.w3.org/2000/svg" xmlns="http://www.w3.org/2000/svg" xmlns:rdf="http://www.w3.org/1999/02/22-rdf-syntax-ns#" id="svg2" version="1.1" viewBox="0 0 16 16"><defs id="defs4"><linearGradient gradientTransform="matrix(0.38095 0 0 0.38084 -1.143 -1.143)" gradientUnits="userSpaceOnUse" y1="3" id="0" y2="45" x2="0"><stop id="stop7" stop-color="#c2c2c2"/><stop id="stop9" stop-color="#ebebeb" offset="1"/></linearGradient><linearGradient gradientUnits="userSpaceOnUse" y1="1" id="1" y2="15" x2="0"><stop id="stop12" stop-color="#fff"/><stop stop-opacity="0" id="stop14" stop-color="#fff" offset="1"/></linearGradient></defs><rect width="16" ry="1.523" height="15.995" rx="1.524" id="rect16" fill="url(#0)"/><g id="g18" fill="none"><path stroke="#000" opacity="0.45" d="M 1.53125,0.5 C 0.953503,0.5 0.5,0.953706 0.5,1.53125 l 0,12.9375 C 0.5,15.04629 0.953503,15.5 1.53125,15.5 l 12.9375,0 C 15.0465,15.5 15.5,15.0463 15.5,14.46875 l 0,-12.9375 C 15.5,0.953705 15.0465,0.5 14.46875,0.5 l -12.9375,0 z" id="path20"/><path stroke="url(#1)" opacity="0.6" d="M 1.53125,1.5 C 1.504466,1.5 1.5,1.504632 1.5,1.53125 l 0,12.9375 C 1.5,14.49537 1.50447,14.5 1.53125,14.5 l 12.9375,0 C 14.49554,14.5 14.5,14.4954 14.5,14.46875 l 0,-12.9375 C 14.5,1.504631 14.495535,1.5 14.46875,1.5 l -12.9375,0 z" id="path22"/></g><path opacity="0.3" d="m 8.939973 1.977904 c -0.560788 0 -1.01176 0.450253 -1.01176 1.01015 0 0.559899 0.450968 1.02232 1.01176 1.02232 0.560788 0 1.01176 -0.462424 1.01176 -1.02232 0 -0.559899 -0.450969 -1.01015 -1.01176 -1.01015 z" id="path24" fill="#fff"/><path opacity="0.8" d="m 8.951773 2.977904 c -0.554272 0 -1 0.443059 -1 0.994012 0 0.550953 0.445728 1.00599 1 1.00599 0.554272 0 1 -0.455035 1 -1.00599 0 -0.550953 -0.445728 -0.994012 -1 -0.994012 z" id="path26" fill="#171717"/><path opacity="0.3" d="m 9.2096643,5.0021527 c -0.115772,0.01453 -0.220496,0.058747 -0.363344,0.1076421 -0.18971,0.064934 -0.414403,0.1448169 -0.681267,0.2631247 -0.533579,0.2365499 -1.230798,0.5818807 -2.028663,1.0046594 -0.001,6.167e-4 10e-4,0.01132 0,0.011958 -0.001,6.525e-4 -0.01411,-6.535e-4 -0.01514,0 -9.76e-4,6.892e-4 -0.01418,0.011243 -0.01514,0.011958 -8.63e-4,7.617e-4 8.63e-4,0.011185 0,0.011958 -8.63e-4,7.617e-4 -0.01427,-7.985e-4 -0.01514,0 -8.26e-4,8.342e-4 7.88e-4,0.011127 0,0.011958 -7.88e-4,8.342e-4 -0.01439,-8.343e-4 -0.01514,0 -7.51e-4,8.7e-4 7.51e-4,0.011078 0,0.011958 -6.01e-4,9.435e-4 -0.01452,-9.426e-4 -0.01514,0 -6.01e-4,9.435e-4 6e-4,0.01103 0,0.011958 -5.26e-4,9.667e-4 5.25e-4,0.011001 0,0.011958 -4.5e-4,0.00106 4.5e-4,0.010972 0,0.011958 -4.5e-4,0.00106 -0.01471,-0.00106 -0.01514,0 -3.6e-4,0.00106 3.54e-4,0.010953 0,0.011958 -3e-4,0.00106 2.82e-4,0.010943 0,0.011958 -2.1e-4,0.00106 1.92e-4,0.010934 0,0.011958 -1.19e-4,0.00106 1.01e-4,0.010924 0,0.011958 l -0.04542,0.4186083 c -4.5e-5,0.00116 1.9e-5,0.01073 0,0.011958 5.6e-5,0.00116 -8.2e-5,0.01074 0,0.011958 1.57e-4,0.00116 -1.84e-4,0.01074 0,0.011958 2.58e-4,0.00116 -2.84e-4,0.01076 0,0.011958 3.58e-4,0.00116 -3.61e-4,0.010769 0,0.011958 4.5e-4,0.00116 -4.51e-4,0.010789 0,0.011958 4.5e-4,0.00116 0.01461,-0.00116 0.01514,0 5.25e-4,0.00116 -5.63e-4,0.010817 0,0.011958 6.75e-4,0.00106 -6.76e-4,0.010856 0,0.011958 7.5e-4,0.00106 0.0144,-0.00106 0.01514,0 7.88e-4,0.00106 -7.88e-4,0.010904 0,0.011958 8.63e-4,0.00106 -8.63e-4,0.010953 0,0.011958 8.63e-4,0.00106 0.01423,-0.00106 0.01514,0 9.76e-4,9.667e-4 -9.76e-4,0.011011 0,0.011958 10e-4,9.435e-4 0.01411,-9.435e-4 0.01514,0 0.001,8.71e-4 -0.001,0.011078 0,0.011958 0.0011,8.342e-4 0.014,-8.353e-4 0.01514,0 0.0012,7.975e-4 -0.0012,0.011165 0,0.011958 0.0012,7.628e-4 0.01392,-7.617e-4 0.01514,0 0.0013,7.26e-4 -0.0013,0.011262 0,0.011958 0.0013,6.893e-4 0.01385,-6.892e-4 0.01514,0 0.0014,6.168e-4 0.01378,-5.8e-4 0.01514,0 0.0014,5.81e-4 -0.0014,0.011407 0,0.011958 0.0014,5.443e-4 0.01373,-5.442e-4 0.01514,0 0.0014,4.718e-4 0.01369,-4.35e-4 0.01514,0 0.0014,3.993e-4 -0.0015,0.011591 0,0.011958 0.0015,3.596e-4 0.01365,-3.528e-4 0.01514,0 0.0015,2.939e-4 0.01363,-2.755e-4 0.01514,0 0.0015,2.156e-4 0.01361,-1.962e-4 0.01514,0 0.0015,1.363e-4 0.01359,-1.16e-4 0.01514,0 0.0015,5.61e-5 0.01359,-3.67e-5 0.01514,0 0.0015,-2.41e-5 0.01359,4.35e-5 0.01514,0 0.0015,-1.044e-4 0.01359,1.238e-4 0.01514,0 0.0015,-1.836e-4 0.01361,2.03e-4 0.01514,0 0.0015,-2.629e-4 0.01363,2.823e-4 0.01514,0 0.0015,-3.403e-4 0.01366,3.596e-4 0.01514,0 0.0015,-3.596e-4 -0.0014,-0.011581 0,-0.011958 0.0014,-4.35e-4 0.01368,4.351e-4 0.01514,0 0.0014,-5.085e-4 0.01373,5.076e-4 0.01514,0 0.571028,-0.244675 0.887114,-0.3804561 1.05975,-0.4425285 0.07414,-0.026662 0.12341,-0.029852 0.151392,-0.035884 0.02798,-0.00599 0.03845,-0.012123 0.06056,-0.011958 0.0049,-0.00121 0.01025,-0.00121 0.01514,0 0.0015,0.00386 0.0015,0.0081 0,0.011958 0.0049,-0.00121 0.01025,-0.00121 0.01514,0 0,0 -0.0045,0.013234 0,0.023926 0.0045,0.010682 0.01514,0.022766 0.01514,0.047842 0,0.1714469 -0.05795,0.3605371 -0.348204,1.2319048 -0.455382,1.3395235 -0.671922,2.0022935 -0.787243,2.3920435 -0.115214,0.389395 -0.121113,0.526903 -0.121113,0.717614 0,0.208561 0.0283,0.389696 0.136254,0.53821 0.107088,0.147328 0.317613,0.263125 0.545013,0.263125 0.449855,0 0.977513,-0.216482 2.013525,-0.741534 0.363664,-0.181452 0.716816,-0.368578 1.0748877,-0.562131 0.01184,-0.0052 0.02274,-0.0086 0.03028,-0.01196 0.177223,-0.07942 0.353149,-0.167395 0.529874,-0.251165 0.0012,-5.8e-4 -0.0012,-0.01138 0,-0.01196 0.0012,-6.18e-4 0.01401,6.16e-4 0.01514,0 9.88e-4,-6.54e-4 0.01407,6.89e-4 0.01514,0 0.0011,-6.91e-4 -9.88e-4,-0.01127 0,-0.01196 9.88e-4,-7.26e-4 0.01415,7.25e-4 0.01514,0 9.76e-4,-7.61e-4 -9.75e-4,-0.01119 0,-0.01196 9.39e-4,-7.98e-4 0.01423,7.99e-4 0.01514,0 8.63e-4,-7.98e-4 -8.64e-4,-0.01113 0,-0.01196 8.26e-4,-8.7e-4 -8.26e-4,-0.01108 0,-0.01196 8.26e-4,-8.71e-4 0.01436,8.7e-4 0.01514,0 7.51e-4,-9.44e-4 -6.74e-4,-0.01103 0,-0.01196 6.76e-4,-9.67e-4 0.01449,9.66e-4 0.01514,0 6.01e-4,-9.67e-4 -6.38e-4,-0.01099 0,-0.01196 5.26e-4,-0.0011 -5.24e-4,-0.01096 0,-0.01196 4.51e-4,-0.0011 0.01469,0.0011 0.01514,0 4.51e-4,-0.0011 -4.49e-4,-0.01093 0,-0.01196 3.61e-4,-0.0011 -3.55e-4,-0.01091 0,-0.01196 2.8e-4,-0.0011 -2.6e-4,-0.0109 0,-0.01196 1.83e-4,-0.0011 -1.62e-4,-0.01089 0,-0.01196 l 0.0757,-0.818433 c 1.44e-4,-0.0013 -1.16e-4,-0.0107 0,-0.01196 3.6e-5,-0.0013 -8e-6,-0.01069 0,-0.01196 -4.6e-5,-0.0013 7.3e-5,-0.0107 0,-0.01196 -1.54e-4,-0.0013 1.81e-4,-0.0107 0,-0.01196 -2.61e-4,-0.0013 2.88e-4,-0.01072 0,-0.01196 -3.6e-4,-0.0012 4.13e-4,-0.01073 0,-0.01196 -4.51e-4,-0.0012 4.5e-4,-0.01076 0,-0.01196 -5.26e-4,-0.0012 -0.0146,0.0012 -0.01514,0 -5.63e-4,-0.0012 5.63e-4,-0.01078 0,-0.01196 -6.74e-4,-0.0012 6.76e-4,-0.01082 0,-0.01196 -7.88e-4,-0.0011 -0.01434,0.0011 -0.01514,0 -7.89e-4,-0.0011 8.25e-4,-0.01087 0,-0.01196 -8.64e-4,-0.0011 9.38e-4,-0.01092 0,-0.01196 -9.39e-4,-9.67e-4 -0.01419,0.0011 -0.01514,0 -9.88e-4,-9.67e-4 9.88e-4,-0.01098 0,-0.01196 -0.0011,-9.67e-4 -0.01406,9.43e-4 -0.01514,0 -0.0011,-9.44e-4 0.0011,-0.01106 0,-0.01196 -0.0012,-8.71e-4 -0.01397,8.71e-4 -0.01514,0 -0.0012,-8.35e-4 0.0012,-0.01115 0,-0.01196 -0.0013,-7.97e-4 -0.01388,7.62e-4 -0.01514,0 -0.0014,-7.25e-4 0.0013,-0.01124 0,-0.01196 -0.0014,-7.26e-4 -0.0138,6.89e-4 -0.01514,0 -0.0014,-6.18e-4 -0.01373,6.17e-4 -0.01514,0 -0.0014,-6.18e-4 0.0014,-0.01138 0,-0.01196 -0.0014,-5.44e-4 -0.01367,5.44e-4 -0.01514,0 -0.0015,-4.72e-4 -0.01364,4.72e-4 -0.01514,0 -0.0015,-4.36e-4 0.0015,-0.01157 0,-0.01196 -0.0015,-3.99e-4 -0.01361,3.59e-4 -0.01514,0 -0.0015,-3.05e-4 -0.01358,2.84e-4 -0.01514,0 -0.0016,-2.22e-4 -0.01356,2e-4 -0.01514,0 -0.0016,-1.37e-4 -0.01354,1.15e-4 -0.01514,0 -0.0016,-5.1e-5 -0.01354,3e-5 -0.01514,0 -0.0016,3.5e-5 -0.01354,-5.6e-5 -0.01514,0 -0.0016,9.8e-5 -0.01354,-1.19e-4 -0.01514,0 -0.0016,1.83e-4 -0.01356,-2.04e-4 -0.01514,0 -0.0015,2.68e-4 -0.01358,-2.88e-4 -0.01514,0 -0.0015,3.51e-4 -0.01361,-3.6e-4 -0.01514,0 -0.0015,3.99e-4 0.0015,0.01155 0,0.01196 -0.0015,4.35e-4 -0.01364,-4.72e-4 -0.01514,0 -0.0014,5.08e-4 -0.0137,-5.44e-4 -0.01514,0 -0.6204437,0.842702 -1.3950167,0.998645 -1.6501797,1.093521 -0.126967,0.04721 -0.18325,0.06176 -0.227089,0.07176 -0.04384,0.01 -0.07608,0.01196 -0.136254,0.01196 -0.0032,0 -0.01034,-1.52e-4 -0.01514,0 -3.08e-4,-9.5e-5 -0.01487,-0.01178 -0.01514,-0.01196 -0.0044,-0.0045 -0.01288,-0.0086 -0.01514,-0.01196 -0.0023,-0.0034 0.0056,-0.005 0,-0.01196 -0.0273,-0.03394 -0.0757,-0.109368 -0.0757,-0.215285 0,-0.122578 0.05472,-0.393728 0.166533,-0.717613 2e-5,-0.0011 0,-0.01087 0,-0.01196 0.494109,-1.6072746 0.781723,-2.5627411 0.953774,-3.1335182 0.08608,-0.2855755 0.147461,-0.4707564 0.181671,-0.5980111 0.03433,-0.127711 0.04542,-0.1916502 0.04542,-0.2631257 0,-0.093645 -0.04759,-0.1901769 -0.136254,-0.2511646 -0.08943,-0.061512 -0.204259,-0.083717 -0.317929,-0.083717 -0.040409,-1.76e-5 -0.082528,-0.00486 -0.121114,-1.66e-5 z" id="path28" fill="#fff"/><path opacity="0.8" d="m 9.1649333,6.0799146 c -0.115772,0.014836 -0.293276,-0.1219641 -0.436124,-0.072037 -0.18971,0.066304 -0.341623,-0.070108 -0.608487,0.050697 -0.533579,0.2415425 -1.230798,0.4943509 -2.028663,0.9260527 -0.0011,6.297e-4 0.001,0.011559 0,0.012211 -0.0011,6.663e-4 -0.01411,-6.672e-4 -0.01514,0 -9.76e-4,7.038e-4 -0.01418,0.011481 -0.01514,0.012211 -8.64e-4,7.777e-4 8.63e-4,0.011421 0,0.01221 -8.64e-4,7.779e-4 -0.01427,-8.153e-4 -0.01514,0 -8.26e-4,8.519e-4 7.88e-4,0.011362 0,0.012211 -7.88e-4,8.518e-4 -0.01439,-8.52e-4 -0.01514,0 -7.51e-4,8.883e-4 7.5e-4,0.011312 0,0.012211 -6.01e-4,9.635e-4 -0.01452,-9.624e-4 -0.01514,0 -6.01e-4,9.635e-4 6e-4,0.011263 0,0.012211 -5.26e-4,9.87e-4 5.25e-4,0.011233 0,0.012211 -4.51e-4,0.00108 4.5e-4,0.011204 0,0.012211 -4.51e-4,0.00108 -0.01471,-0.00108 -0.01514,0 -3.61e-4,0.00108 3.54e-4,0.011184 0,0.012211 -3.01e-4,0.00108 2.82e-4,0.011174 0,0.012211 -2.1e-4,0.00108 1.92e-4,0.011165 0,0.012211 -1.2e-4,0.00108 1.01e-4,0.011154 0,0.012211 l -0.045428,0.7270582 c -4.5e-5,0.00119 1.9e-5,0.010957 0,0.012211 5.6e-5,0.00119 -8.2e-5,0.010967 0,0.012211 1.57e-4,0.00119 -1.84e-4,0.010967 0,0.012211 2.58e-4,0.00119 -2.84e-4,0.010987 0,0.012211 3.58e-4,0.00119 -3.61e-4,0.010996 0,0.012211 4.5e-4,0.00119 -4.51e-4,0.011017 0,0.012211 4.5e-4,0.0012 0.01461,-0.0012 0.01514,0 5.25e-4,0.0012 -5.63e-4,0.01104 0,0.01221 6.75e-4,0.0011 -6.76e-4,0.01109 0,0.01221 7.5e-4,0.0011 0.0144,-0.0011 0.01514,0 7.88e-4,0.0011 -7.88e-4,0.01113 0,0.01221 8.63e-4,0.0011 -8.64e-4,0.01118 0,0.01221 8.63e-4,0.0011 0.01423,-0.0011 0.01514,0 9.76e-4,9.87e-4 -9.76e-4,0.01124 0,0.01221 0.001,9.63e-4 0.01411,-9.63e-4 0.01514,0 10e-4,8.89e-4 -0.0011,0.01131 0,0.01221 0.0011,8.52e-4 0.014,-8.53e-4 0.01514,0 0.0012,8.14e-4 -0.0012,0.0114 0,0.01221 0.0012,7.79e-4 0.01392,-7.78e-4 0.01514,0 0.0013,7.41e-4 -0.0013,0.0115 0,0.01221 0.0013,7.04e-4 0.01385,-7.04e-4 0.01514,0 0.0014,6.3e-4 0.01378,-5.92e-4 0.01514,0 0.0014,5.93e-4 -0.0014,0.01165 0,0.01221 0.0014,5.56e-4 0.01373,-5.56e-4 0.01514,0 0.0014,4.82e-4 0.01369,-4.44e-4 0.01514,0 0.0014,4.08e-4 -0.0015,0.01184 0,0.01221 0.0015,3.67e-4 0.01365,-3.6e-4 0.01514,0 0.0015,3e-4 0.01363,-2.81e-4 0.01514,0 0.0015,2.2e-4 0.01361,-2e-4 0.01514,0 0.0015,1.39e-4 0.01359,-1.18e-4 0.01514,0 0.0015,5.7e-5 0.01359,-3.7e-5 0.01514,0 0.0015,-2.5e-5 0.01359,4.4e-5 0.01514,0 0.0015,-1.06e-4 0.01359,1.27e-4 0.01514,0 0.0015,-1.87e-4 0.01361,2.07e-4 0.01514,0 0.0015,-2.68e-4 0.01363,2.88e-4 0.01514,0 0.0015,-3.47e-4 0.01366,3.67e-4 0.01514,0 0.0015,-3.67e-4 -0.0014,-0.01182 0,-0.01221 0.0014,-4.44e-4 0.01368,4.44e-4 0.01514,0 0.0014,-5.19e-4 0.01373,5.18e-4 0.01514,0 0.571027,-0.2498391 0.887114,-0.2881687 1.059749,-0.3515512 0.07414,-0.027225 0.123411,-0.030483 0.151393,-0.036642 0.02798,-0.00611 0.03845,-0.4123111 0.06056,-0.4121431 0.0049,-0.00124 0.01025,-0.00124 0.01514,0 0.0015,0.00394 0.0015,0.4081988 0,0.4121431 0.0049,-0.00124 0.01025,-0.00124 0.01514,0 0,0 -0.0045,0.013514 0,0.024431 0.0045,0.010908 0.01514,0.023247 0.01514,0.048851 0,0.1750654 -0.05795,0.3681462 -0.348204,1.2579047 -0.455383,1.367797 -0.671923,2.044555 -0.787243,2.442531 -0.115214,0.397614 -0.121114,0.538024 -0.121114,0.73276 0,0.212963 0.0283,0.397921 0.136254,0.54957 0.107089,0.150428 0.317614,0.268669 0.545014,0.268669 0.449855,0 1.032098,-0.09369 2.06811,-0.629819 1.4973997,-0.78921 1.8533437,-0.873331 1.7621407,-2.143731 1.44e-4,-0.0013 -1.16e-4,-0.01093 0,-0.01221 3.6e-5,-0.0013 -8e-6,-0.01092 0,-0.01222 -4.6e-5,-0.0013 7.3e-5,-0.01093 0,-0.01221 -1.54e-4,-0.0013 1.81e-4,-0.01093 0,-0.01222 -2.61e-4,-0.0013 2.88e-4,-0.01095 0,-0.01222 -3.6e-4,-0.0012 4.13e-4,-0.01096 0,-0.01221 -4.51e-4,-0.0012 4.5e-4,-0.01099 0,-0.01222 -5.26e-4,-0.0012 -0.0146,0.0012 -0.01514,0 -5.63e-4,-0.0012 5.63e-4,-0.01101 0,-0.01221 -6.74e-4,-0.0012 6.76e-4,-0.01105 0,-0.01222 -7.88e-4,-0.0011 -0.01434,0.0011 -0.01514,0 -7.89e-4,-0.0011 8.25e-4,-0.0111 0,-0.01222 -8.64e-4,-0.0011 9.38e-4,-0.01115 0,-0.01221 -9.39e-4,-9.87e-4 -0.01419,0.0011 -0.01514,0 -9.88e-4,-9.87e-4 9.88e-4,-0.01121 0,-0.01222 -0.0011,-9.87e-4 -0.01406,9.63e-4 -0.01514,0 -0.0011,-9.63e-4 0.0011,-0.01129 0,-0.01221 -0.0012,-8.9e-4 -0.01397,8.9e-4 -0.01514,0 -0.0012,-8.52e-4 0.0012,-0.01139 0,-0.01222 -0.0013,-8.15e-4 -0.01388,7.78e-4 -0.01514,0 -0.0014,-7.41e-4 0.0013,-0.01148 0,-0.01221 -0.0014,-7.42e-4 -0.0138,7.02e-4 -0.01514,0 -0.0014,-6.32e-4 -0.01373,6.29e-4 -0.01514,0 -0.0014,-6.32e-4 0.0014,-0.01162 0,-0.01222 -0.0014,-5.56e-4 -0.01367,5.55e-4 -0.01514,0 -0.0015,-4.82e-4 -0.01364,4.81e-4 -0.01514,0 -0.0015,-4.45e-4 0.0015,-0.01181 0,-0.01222 -0.0015,-4.07e-4 -0.01361,3.67e-4 -0.01514,0 -0.0015,-3.11e-4 -0.01358,2.9e-4 -0.01514,0 -0.0016,-2.26e-4 -0.01356,2.05e-4 -0.01514,0 -0.0016,-1.4e-4 -0.01354,1.18e-4 -0.01514,0 -0.0016,-5.2e-5 -0.01354,3.1e-5 -0.01514,0 -0.0016,3.6e-5 -0.01354,-5.7e-5 -0.01514,0 -0.0016,10e-5 -0.01354,-1.21e-4 -0.01514,0 -0.0016,1.87e-4 -0.01356,-2.08e-4 -0.01514,0 -0.0015,2.74e-4 -0.01358,-2.94e-4 -0.01514,0 -0.0015,3.59e-4 -0.01361,-3.67e-4 -0.01514,0 -0.0015,4.07e-4 0.0015,0.01179 0,0.01222 -0.0015,4.44e-4 -0.01364,-4.82e-4 -0.01514,0 -0.0014,5.19e-4 -0.0137,-5.56e-4 -0.01514,0 -0.5757171,0.744314 -1.3950211,0.910869 -1.6501841,1.007748 -0.126968,0.04821 -0.18325,0.06306 -0.227089,0.07327 -0.04384,0.01021 -0.07608,0.01222 -0.136254,0.01222 -0.0032,0 -0.01034,-1.56e-4 -0.01514,0 -3.08e-4,-9.7e-5 -0.01487,-0.01202 -0.01514,-0.01222 -0.0044,-0.0046 -0.01288,-0.0088 -0.01514,-0.01222 -0.0023,-0.0034 0.0056,-0.0051 0,-0.01221 -0.0273,-0.03465 -0.0757,-0.111677 -0.0757,-0.21983 0,-0.125164 0.05472,-0.101852 0.166532,-0.432573 2.1e-5,-0.0011 0,-0.0111 0,-0.01222 0.494109,-1.6410325 0.781724,-2.6166651 0.953775,-3.199489 0.08608,-0.2916028 0.147461,-0.4806922 0.181671,-0.6106327 0.03433,-0.1304065 0.04542,-0.1956952 0.04542,-0.2686792 0,-0.095622 -0.04759,-0.1941908 -0.136254,-0.2564657 -0.08943,-0.06281 -0.204259,0.014327 -0.317929,0.014327 -0.040401,-7.7e-6 -0.08252,-0.00496 -0.1211056,-6.7e-6 z" id="path30" fill="#171717"/><metadata id="metadata9999"><rdf:RDF><cc:Work><dc:format>image/svg+xml</dc:format><dc:type rdf:resource="http://purl.org/dc/dcmitype/StillImage"/><dc:title>Ivy icon theme</dc:title><cc:license rdf:resource="http://creativecommons.org/licenses/by-sa/4.0/"/><dc:creator><cc:Agent><dc:title>Sixsixfive (sixsixfive.deviantart.com)</dc:title></cc:Agent></dc:creator><dc:publisher><cc:Agent><dc:title>Sixsixfive (sixsixfive.deviantart.com)</dc:title></cc:Agent></dc:publisher><dc:source>https://github.com/sixsixfive</dc:source><dc:subject><rdf:Bag><rdf:li>ivy</rdf:li></rdf:Bag></dc:subject><dc:contributor><cc:Agent><dc:title>ssf</dc:title></cc:Agent></dc:contributor><dc:rights><cc:Agent><dc:title>Sixsixfive (sixisixfive.deviantart.com)</dc:title></cc:Agent></dc:rights><dc:description>A simple icon theme published under CC-BY-SA_V4(http://creativecommons.org/licenses/by-sa/4.0)</dc:description><dc:identifier>SSF</dc:identifier></cc:Work></rdf:RDF></metadata><!--Part of the Ivy icon them published under the CC-BY-SA_V4: http://creativecommons.org/licenses/by-sa/4.0 -->
</svg>