<?xml version="1.0" encoding="UTF-8" standalone="no"?>
<svg
   xmlns:dc="http://purl.org/dc/elements/1.1/"
   xmlns:cc="http://creativecommons.org/ns#"
   xmlns:rdf="http://www.w3.org/1999/02/22-rdf-syntax-ns#"
   xmlns:svg="http://www.w3.org/2000/svg"
   xmlns="http://www.w3.org/2000/svg"
   xmlns:xlink="http://www.w3.org/1999/xlink"
   version="1.1"
   id="svg2"
   viewBox="0 0 16 16">
  <defs
     id="defs4">
    <linearGradient
       id="linearGradient4170">
      <stop
         id="stop4172"
         offset="0"
         style="stop-color:#66b03e;stop-opacity:1" />
      <stop
         id="stop4174"
         offset="1"
         style="stop-color:#8ecc6d;stop-opacity:1" />
    </linearGradient>
    <linearGradient
       gradientTransform="matrix(0.49258982,0,0,0.38192,-7.7104225,-385.247)"
       x2="0"
       gradientUnits="userSpaceOnUse"
       y2="1016.36"
       y1="1011.36"
       id="0">
      <stop
         id="stop7" />
      <stop
         stop-opacity="0"
         id="stop9"
         offset="1" />
    </linearGradient>
    <linearGradient
       gradientTransform="matrix(0.30693743,0,0,0.29346,-1.6046726,-0.0169996)"
       x2="8"
       gradientUnits="userSpaceOnUse"
       x1="37"
       y2="38"
       y1="17"
       id="1">
      <stop
         id="stop12"
         stop-color="#c5c5c5" />
      <stop
         id="stop14"
         stop-color="#9d9d9d"
         offset="1" />
    </linearGradient>
    <linearGradient
       gradientTransform="matrix(0.30693743,0,0,0.39017,-2.2466463,-393.637)"
       x2="0"
       gradientUnits="userSpaceOnUse"
       y2="1018.36"
       y1="1011.36"
       id="2">
      <stop
         id="stop17"
         stop-color="#eed45a" />
      <stop
         stop-opacity="0"
         id="stop19"
         stop-color="#eed45a"
         offset="1" />
    </linearGradient>
    <linearGradient
       gradientTransform="matrix(0.33331635,0,0,0.33077,-2.2636456,-333.097)"
       x2="0"
       gradientUnits="userSpaceOnUse"
       y2="1049.36"
       y1="1016.36"
       id="3">
      <stop
         id="stop22"
         stop-color="#b6b6b6" />
      <stop
         id="stop24"
         stop-color="#cfcfcf"
         offset="1" />
    </linearGradient>
    <linearGradient
       gradientTransform="matrix(0.33558625,0,0,0.25007,-2.3546419,-251.167)"
       x2="0"
       gradientUnits="userSpaceOnUse"
       y2="1016.36"
       y1="1008.36"
       id="4">
      <stop
         id="stop27"
         stop-color="#6a6a6a" />
      <stop
         id="stop29"
         stop-color="#797979"
         offset="1" />
    </linearGradient>
    <linearGradient
       gradientUnits="userSpaceOnUse"
       y2="15.972528"
       x2="14.143901"
       y1="7.0051088"
       x1="14.11764"
       id="linearGradient4176"
       xlink:href="#linearGradient4170" />
  </defs>
  <rect
     style="fill:url(#3)"
     ry="0.662"
     id="rect35"
     height="11.577"
     rx="0.66197288"
     y="2.4230003"
     x="1.0692178"
     width="9.9995899" />
  <path
     style="opacity:0.5;fill:#ffffff"
     d="m 3.8629034,4.0450003 c -0.1275348,0.3837 -0.463832,0.6625 -0.8632516,0.6625 l 0,2.9919 c 0.049948,-0.011 0.1004938,-0.011 0.1534667,-0.011 0.4237876,0 0.7673345,0.2966 0.7673345,0.6626 0,0.3659 -0.3435469,0.6625 -0.7673345,0.6625 -0.052968,0 -0.1035148,0 -0.1534667,-0.011 l 0,0.5074 0,0.1655 0.0096,0 C 3.1130355,10.9716 4.4415631,11.9944 6.0689964,11.9944 c 1.6274333,0 2.9559589,-1.0228 3.0597447,-2.3189997 l 0.0096,0 0,-0.1655 0,-0.5074 c -0.049948,0.011 -0.1004929,0.011 -0.1534667,0.011 -0.4237867,0 -0.7673346,-0.2966 -0.7673346,-0.6625 0,-0.366 0.3435479,-0.6626 0.7673346,-0.6626 0.052978,0 0.1035147,0 0.1534667,0.011 l 0,-3.0541 c -0.2584004,-0.1 -0.463627,-0.3215 -0.5563172,-0.6003 l -4.7191067,0 z"
     id="path37" />
  <rect
     style="opacity:0.38000039;fill:#6a6a6a"
     ry="0.31200001"
     id="rect39"
     height="1.874"
     rx="0.31198722"
     y="6.0630007"
     x="3.6131139"
     width="4.9107985" />
  <path
     style="fill:url(#4)"
     d="m 2.1898719,0.99520033 7.7902809,0 c 0.084997,0 0.1415322,0.051 0.1534132,0.11399997 l 0.935261,1.772 c 0.01188,0.063 -0.06842,0.114 -0.153412,0.114 l -9.7608297,0 c -0.084995,0 -0.16529118,-0.051 -0.1534127,-0.114 l 1.0353576,-1.772 c 0.011874,-0.063 0.068419,-0.11399997 0.1534117,-0.11399997 z"
     id="path41" />
  <path
     style="opacity:0.68000034;fill:url(#2)"
     d="m 2.0507776,0.96370033 3.6832491,0 0,1.95089997 -3.6832491,0 z"
     id="path43" />
  <path
     style="opacity:0.54799996"
     d="m 2.6641525,0.96300033 0.9209623,0 0,1.94999997 -0.9209623,0 z"
     id="path45" />
  <path
     style="fill:url(#0)"
     d="m 8.0529317,1.0130003 1.9699193,0 0,1.91 -1.9699193,0 z"
     id="path47" />
  <path
     style="opacity:0.54799996"
     d="m 4.1990896,0.96300033 0.9209623,0 0,1.94999997 -0.9209623,0 z"
     id="path49" />
  <path
     style="opacity:0.281"
     d="m 3.8629034,4.9172003 c -0.1275348,0.3876 -0.463832,0.6694 -0.8632516,0.6694 l 0,3.023 c 0.049948,-0.01 0.1004938,-0.01 0.1534667,-0.01 0.4237876,0 0.7673345,0.2997 0.7673345,0.6693 0,0.3698 -0.3435469,0.6695 -0.7673345,0.6695 -0.052968,0 -0.1035148,0 -0.1534667,-0.01 l 0,0.5123997 0,0.1674 0.0096,0 c 0.1037833,1.3096 1.4323109,2.3431 3.0597442,2.3431 1.6274333,0 2.9559589,-1.0335 3.0597447,-2.3431 l 0.0096,0 0,-0.1674 0,-0.5123997 c -0.049948,0.01 -0.1004929,0.01 -0.1534667,0.01 -0.4237867,0 -0.7673346,-0.2997 -0.7673346,-0.6695 0,-0.3696 0.3435479,-0.6693 0.7673346,-0.6693 0.052978,0 0.1035147,0 0.1534667,0.01 l 0,-3.0857 c -0.2584004,-0.1006 -0.463627,-0.3249 -0.5563172,-0.6067 l -4.7191067,0 z"
     id="path51" />
  <path
     style="fill:url(#1)"
     d="m 3.8629034,4.9763003 c -0.1275348,0.3399 -0.463832,0.5869 -0.8632516,0.5869 l 0,2.6502 c 0.049948,-0.01 0.1004938,-0.01 0.1534667,-0.01 0.4237876,0 0.7673345,0.2629 0.7673345,0.587 0,0.3241 -0.3435469,0.5868 -0.7673345,0.5868 -0.052968,0 -0.1035148,0 -0.1534667,-0.01 l 0,0.4494 0,0.1467 0.0096,0 C 3.1130351,11.1115 4.4415627,12.0175 6.068996,12.0175 c 1.6274333,0 2.9559589,-0.906 3.0597447,-2.0541997 l 0.0096,0 0,-0.1467 0,-0.4494 c -0.049948,0.01 -0.1004929,0.01 -0.1534667,0.01 -0.4237867,0 -0.7673346,-0.2627 -0.7673346,-0.5868 0,-0.3241 0.3435479,-0.587 0.7673346,-0.587 0.052978,0 0.1035147,0 0.1534667,0.01 l 0,-2.7051 c -0.2584004,-0.088 -0.463627,-0.2849 -0.5563172,-0.532 l -4.7191067,0 z"
     id="path53" />
  <rect
     style="opacity:0.93599997;fill:#ffffff"
     ry="0.34"
     id="rect55"
     height="2.039"
     rx="0.33998609"
     y="5.0030007"
     x="4.0670953"
     width="3.9208393" />
  <path
     style="opacity:0.5;fill:none;stroke:#000000;stroke-width:1;stroke-linejoin:round"
     d="m 2.4441615,1.5242003 -0.8124667,1.3438 a 0.53638803,0.53641 0 0 1 0,0.03125 0.53638803,0.53641 0 0 1 0,0.15625 c -0.032503,0.178955 -0.031249,0.20147 -0.031249,0.03125 l 0,10.2499997 c 0,0.08378 0.041218,0.125 0.1249948,0.125 l 8.6871444,0 c 0.08378,0 0.124995,-0.04122 0.124995,-0.125 l 0,-10.2499997 c 0,0.170207 0.0013,0.147682 -0.03125,-0.03125 a 0.53638803,0.53641 0 0 1 0,-0.09375 0.53638803,0.53641 0 0 1 0,-0.03125 l 0,-0.03125 -0.7499693,-1.375 -7.3122005,0 z"
     id="path57" />
  <path
     style="opacity:0.4;fill:#ffffff"
     d="m 2.1091752,3.0430003 7.861678,0 0,0.95 -7.861678,0 z"
     id="path59" />
  <path
     style="opacity:0.99940025;fill:url(#linearGradient4176);fill-opacity:1;fill-rule:evenodd;stroke:none;stroke-linejoin:round;stroke-opacity:1"
     d="M 10.5 7 A 4.5 4.5 0 0 0 6 11.5 A 4.5 4.5 0 0 0 10 15.966797 L 10 12.912109 A 1.5 1.5 0 0 1 9 11.5 A 1.5 1.5 0 0 1 10.5 10 A 1.5 1.5 0 0 1 11.912109 11 L 11 11 L 13 16 L 14 16 L 16 11 L 14.96875 11 A 4.5 4.5 0 0 0 10.5 7 z "
     id="path3380" />
  <path
     d="M 10.480469,7.4960938 C 7.9346746,7.3992851 5.8272491,10.264848 6.671875,12.666016 a 0.49722246,0.49722246 0 0 1 0.011719,0.03906 c 0.1752647,0.672816 0.6891424,1.405159 1.3242187,1.921875 0.4855027,0.395019 1.0119127,0.593755 1.4941406,0.666016 l 0,-2.123047 C 8.5442933,12.609247 8.1748618,11.313362 8.8535156,10.375 9.5734017,9.2547492 11.27052,9.1973113 12.064453,10.267578 c 0.08418,0.08774 0.162591,0.172666 0.220703,0.28125 0.06897,0.128875 0.140491,0.317486 0.05859,0.550781 -0.0819,0.233296 -0.317696,0.366215 -0.476562,0.398438 -0.05006,0.01015 -0.08929,-0.0058 -0.134766,-0.0039 l 1.603516,4.007812 0.328124,0 1.601563,-4.003906 -0.296875,0 A 0.49722246,0.49722246 0 0 1 14.474609,11.046875 C 14.292935,9.0982809 12.46518,7.4637039 10.507812,7.4980469 a 0.49722246,0.49722246 0 0 1 -0.02734,-0.00195 z"
     id="path3368"
     style="opacity:0.6;fill:none;fill-opacity:1;fill-rule:evenodd;stroke:#000000;stroke-linejoin:miter;stroke-opacity:1" />
  <path
     id="path4178"
     d="M 8.1623648,9.604284 C 9.81979,8.0662715 11.439531,8.2993993 13.037421,9.5595587"
     style="fill:none;fill-rule:evenodd;stroke:#ffffff;stroke-width:1px;stroke-linecap:butt;stroke-linejoin:miter;stroke-opacity:1;opacity:0.68199998" />
  <metadata
     id="metadata9999">
    <rdf:RDF>
      <cc:Work>
        <dc:format>image/svg+xml</dc:format>
        <dc:type
           rdf:resource="http://purl.org/dc/dcmitype/StillImage" />
        <dc:title></dc:title>
        <cc:license
           rdf:resource="http://creativecommons.org/licenses/by-sa/4.0/" />
        <dc:creator>
          <cc:Agent>
            <dc:title>Sixsixfive (sixsixfive.deviantart.com)</dc:title>
          </cc:Agent>
        </dc:creator>
        <dc:publisher>
          <cc:Agent>
            <dc:title>Sixsixfive (sixsixfive.deviantart.com)</dc:title>
          </cc:Agent>
        </dc:publisher>
        <dc:source>https://github.com/sixsixfive</dc:source>
        <dc:subject>
          <rdf:Bag>
            <rdf:li>ivy</rdf:li>
          </rdf:Bag>
        </dc:subject>
        <dc:contributor>
          <cc:Agent>
            <dc:title>ssf</dc:title>
          </cc:Agent>
        </dc:contributor>
        <dc:rights>
          <cc:Agent>
            <dc:title>Sixsixfive (sixisixfive.deviantart.com)</dc:title>
          </cc:Agent>
        </dc:rights>
        <dc:description>A simple icon theme published under CC-BY-SA_V4(http://creativecommons.org/licenses/by-sa/4.0)</dc:description>
        <dc:identifier>SSF</dc:identifier>
      </cc:Work>
    </rdf:RDF>
  </metadata>
  <!--Part of the Ivy icon them published under the CC-BY-SA_V4: http://creativecommons.org/licenses/by-sa/4.0 -->
</svg>
