<?xml version="1.0" encoding="UTF-8" standalone="no"?>
<svg
   xmlns:dc="http://purl.org/dc/elements/1.1/"
   xmlns:cc="http://creativecommons.org/ns#"
   xmlns:rdf="http://www.w3.org/1999/02/22-rdf-syntax-ns#"
   xmlns:svg="http://www.w3.org/2000/svg"
   xmlns="http://www.w3.org/2000/svg"
   xmlns:xlink="http://www.w3.org/1999/xlink"
   viewBox="0 0 16 16"
   version="1.1"
   id="svg2">
  <defs
     id="defs4">
    <linearGradient
       id="linearGradient4499">
      <stop
         id="stop4501"
         offset="0"
         style="stop-color:#ffffff;stop-opacity:1;" />
      <stop
         id="stop4503"
         offset="1"
         style="stop-color:#ffffff;stop-opacity:0;" />
    </linearGradient>
    <linearGradient
       x2="0"
       y2="1016.36"
       id="0"
       y1="1011.36"
       gradientUnits="userSpaceOnUse"
       gradientTransform="matrix(0.49401779 0 0 0.38192 -7.7356731 -385.24)">
      <stop
         id="stop7" />
      <stop
         offset="1"
         id="stop9"
         stop-opacity="0" />
    </linearGradient>
    <linearGradient
       x2="8"
       y2="38"
       id="1"
       x1="37"
       y1="17"
       gradientUnits="userSpaceOnUse"
       gradientTransform="matrix(0.3078272 0 0 0.29346 -1.6122233 -0.01)">
      <stop
         stop-color="#c5c5c5"
         id="stop12" />
      <stop
         offset="1"
         stop-color="#9d9d9d"
         id="stop14" />
    </linearGradient>
    <linearGradient
       x2="0"
       y2="1018.36"
       id="2"
       y1="1011.36"
       gradientUnits="userSpaceOnUse"
       gradientTransform="matrix(0.3078272 0 0 0.39017 -2.256058 -393.63)">
      <stop
         stop-color="#eed45a"
         id="stop17" />
      <stop
         offset="1"
         stop-color="#eed45a"
         id="stop19"
         stop-opacity="0" />
    </linearGradient>
    <linearGradient
       x2="0"
       y2="1049.36"
       id="3"
       y1="1016.36"
       gradientUnits="userSpaceOnUse"
       gradientTransform="matrix(0.33428259 0 0 0.33077 -2.2731066 -333.09)">
      <stop
         stop-color="#b6b6b6"
         id="stop22" />
      <stop
         offset="1"
         stop-color="#cfcfcf"
         id="stop24" />
    </linearGradient>
    <linearGradient
       x2="0"
       y2="1016.36"
       id="4"
       y1="1008.36"
       gradientUnits="userSpaceOnUse"
       gradientTransform="matrix(0.33655908 0 0 0.25007 -2.3643667 -251.16)">
      <stop
         stop-color="#6a6a6a"
         id="stop27" />
      <stop
         offset="1"
         stop-color="#797979"
         id="stop29" />
    </linearGradient>
    <linearGradient
       gradientTransform="matrix(0.6875,0,0,0.71357025,4.9270562,5.2640236)"
       y1="0.997"
       x2="0"
       y2="15"
       id="1-0"
       gradientUnits="userSpaceOnUse">
      <stop
         style="stop-color:#171717;stop-opacity:1"
         id="stop12-0"
         stop-color="#66b03e" />
      <stop
         style="stop-color:#6a6a6a;stop-opacity:1"
         offset="1"
         id="stop14-5"
         stop-color="#95ce76" />
    </linearGradient>
    <linearGradient
       gradientUnits="userSpaceOnUse"
       y2="10.83479"
       x2="13.188049"
       y1="6"
       x1="13"
       id="linearGradient4505"
       xlink:href="#linearGradient4499" />
  </defs>
  <rect
     fill="url(#3)"
     x="1.0694185"
     y="2.4300001"
     id="rect35"
     rx="0.66389185"
     height="11.577"
     ry="0.662"
     width="10.028578" />
  <path
     fill="#fff"
     id="path37"
     d="M 3.8712026,4.052 C 3.7432982,4.4357 3.406026,4.7145 3.0054485,4.7145 l 0,2.9919 c 0.050093,-0.011 0.1007852,-0.011 0.1539116,-0.011 0.4250162,0 0.769559,0.2966 0.769559,0.6626 0,0.3659 -0.3445428,0.6625 -0.769559,0.6625 -0.053121,0 -0.1038148,0 -0.1539116,-0.011 l 0,0.5074 0,0.1655 0.00963,0 c 0.1040846,1.2962 1.4364634,2.319 3.0686145,2.319 1.6321511,0 2.9645279,-1.0228 3.0686145,-2.319 l 0.00963,0 0,-0.1655 0,-0.5074 c -0.050093,0.011 -0.1007842,0.011 -0.1539116,0.011 -0.4250152,0 -0.769559,-0.2966 -0.769559,-0.6625 0,-0.366 0.3445438,-0.6626 0.769559,-0.6626 0.053131,0 0.1038148,0 0.1539116,0.011 l 0,-3.0541 C 8.902783,4.5523 8.6969614,4.3308 8.6040025,4.052 l -4.7327868,0 z"
     opacity="0.5" />
  <rect
     fill="#6a6a6a"
     x="3.6206889"
     y="6.0700002"
     id="rect39"
     opacity="0.3800001"
     rx="0.31289163"
     height="1.874"
     ry="0.31200001"
     width="4.9250345" />
  <path
     fill="url(#4)"
     id="path41"
     d="m 2.1933212,1.0022 7.8128638,0 c 0.08524,0 0.141943,0.051 0.153858,0.114 l 0.937973,1.772 c 0.01191,0.063 -0.06862,0.114 -0.153857,0.114 l -9.7891255,0 c -0.085241,0 -0.16577043,-0.051 -0.1538575,-0.114 l 1.038359,-1.772 c 0.011908,-0.063 0.068618,-0.114 0.1538564,-0.114 z" />
  <path
     fill="url(#2)"
     id="path43"
     d="m 2.0538237,0.9707 3.6939265,0 0,1.9509 -3.6939265,0 z"
     opacity="0.6800001" />
  <path
     id="path45"
     d="m 2.6689767,0.97 0.923632,0 0,1.95 -0.923632,0 z"
     opacity="0.54799996" />
  <path
     fill="url(#0)"
     id="path47"
     d="m 8.0733774,1.02 1.9756296,0 0,1.91 -1.9756296,0 z" />
  <path
     id="path49"
     d="m 4.2083634,0.97 0.9236321,0 0,1.95 -0.9236321,0 z"
     opacity="0.54799996" />
  <path
     id="path51"
     d="M 3.8712026,4.9242 C 3.7432982,5.3118 3.406026,5.5936 3.0054485,5.5936 l 0,3.023 c 0.050093,-0.01 0.1007852,-0.01 0.1539116,-0.01 0.4250162,0 0.769559,0.2997 0.769559,0.6693 0,0.3698 -0.3445428,0.6695 -0.769559,0.6695 -0.053121,0 -0.1038148,0 -0.1539116,-0.01 l 0,0.5124 0,0.1674 0.00963,0 c 0.1040846,1.3096 1.4364634,2.3431 3.0686145,2.3431 1.6321511,0 2.9645279,-1.0335 3.0686145,-2.3431 l 0.00963,0 0,-0.1674 0,-0.5124 c -0.050093,0.01 -0.1007842,0.01 -0.1539116,0.01 -0.4250152,0 -0.769559,-0.2997 -0.769559,-0.6695 0,-0.3696 0.3445438,-0.6693 0.769559,-0.6693 0.053131,0 0.1038148,0 0.1539116,0.01 l 0,-3.0857 C 8.902783,5.4303 8.6969614,5.206 8.6040025,4.9242 l -4.7327868,0 z"
     opacity="0.281" />
  <path
     fill="url(#1)"
     id="path53"
     d="M 3.8712026,4.9833 C 3.7432982,5.3232 3.406026,5.5702 3.0054485,5.5702 l 0,2.6502 c 0.050093,-0.01 0.1007852,-0.01 0.1539116,-0.01 0.4250162,0 0.769559,0.2629 0.769559,0.587 0,0.3241 -0.3445428,0.5868 -0.769559,0.5868 -0.053121,0 -0.1038148,0 -0.1539116,-0.01 l 0,0.4494 0,0.1467 0.00963,0 c 0.1040846,1.1482 1.4364634,2.0542 3.0686145,2.0542 1.6321511,0 2.9645279,-0.906 3.0686145,-2.0542 l 0.00963,0 0,-0.1467 0,-0.4494 c -0.050093,0.01 -0.1007842,0.01 -0.1539116,0.01 -0.4250152,0 -0.769559,-0.2627 -0.769559,-0.5868 0,-0.3241 0.3445438,-0.587 0.769559,-0.587 0.053131,0 0.1038148,0 0.1539116,0.01 l 0,-2.7051 C 8.902783,5.4273 8.6969614,5.2304 8.6040025,4.9833 l -4.7327868,0 z" />
  <rect
     fill="#fff"
     x="4.0759864"
     y="5.0100002"
     id="rect55"
     opacity="0.93599997"
     rx="0.34097165"
     height="2.039"
     ry="0.34"
     width="3.9322054" />
  <path
     style="opacity:0.4"
     fill="none"
     id="path57"
     d="M 2.448348,1.5312 1.633526,2.875 a 0.53794296,0.53641 0 0 1 0,0.03125 0.53794296,0.53641 0 0 1 0,0.15625 C 1.600929,3.241455 1.602187,3.26397 1.602187,3.09375 l 0,10.25 c 0,0.08378 0.041338,0.125 0.1253572,0.125 l 8.7123268,0 c 0.08402,0 0.125357,-0.04122 0.125357,-0.125 l 0,-10.25 c 0,0.170207 0.0013,0.147682 -0.03134,-0.03125 a 0.53794296,0.53641 0 0 1 0,-0.09375 0.53794296,0.53641 0 0 1 0,-0.03125 l 0,-0.03125 -0.752143,-1.375 -7.3333977,0 z"
     opacity="0.3"
     stroke-width="1.0014279"
     stroke="#000" />
  <path
     style="fill:url(#1-0)"
     d="m 5,11 3.0134062,0 -0.026813,-5 5.0013413,0 0.02413,5 L 16,11 10.500206,16.02345 Z"
     id="path16" />
  <path
     d="m 8.5292969,6.5390625 0.023437,4.4570315 a 0.53934305,0.53934305 0 0 1 -0.5390625,0.542968 l -1.6230469,0 4.109375,3.753907 4.109375,-3.753907 -1.597656,0 a 0.53934305,0.53934305 0 0 1 -0.539063,-0.537109 l -0.02148,-4.4628905 -3.9218751,0 z"
     id="path3695"
     style="fill:none;stroke:#000000;opacity:0.7" />
  <path
     style="opacity:0.2;fill:none;stroke:url(#linearGradient4505)"
     id="path3697"
     d="m 9.4921875,7.4980469 0.019531,3.4941411 A 1.4990062,1.4990062 0 0 1 8.6875,12.337891 l 1.8125,1.65625 1.822266,-1.666016 a 1.4990062,1.4990062 0 0 1 -0.808594,-1.320313 l -0.01758,-3.5097651 -2.0039065,0 z" />
  <path
     fill="#fff"
     id="path59"
     d="m 2.1123906,3.05 7.8844681,0 0,0.95 -7.8844681,0 z"
     opacity="0.4" />
  <metadata
     id="metadata9999">
    <rdf:RDF>
      <cc:Work>
        <dc:format>image/svg+xml</dc:format>
        <dc:type
           rdf:resource="http://purl.org/dc/dcmitype/StillImage" />
        <dc:title></dc:title>
        <cc:license
           rdf:resource="http://creativecommons.org/licenses/by-sa/4.0/" />
        <dc:creator>
          <cc:Agent>
            <dc:title>Sixsixfive (sixsixfive.deviantart.com)</dc:title>
          </cc:Agent>
        </dc:creator>
        <dc:publisher>
          <cc:Agent>
            <dc:title>Sixsixfive (sixsixfive.deviantart.com)</dc:title>
          </cc:Agent>
        </dc:publisher>
        <dc:source>https://github.com/sixsixfive</dc:source>
        <dc:subject>
          <rdf:Bag>
            <rdf:li>ivy</rdf:li>
          </rdf:Bag>
        </dc:subject>
        <dc:contributor>
          <cc:Agent>
            <dc:title>ssf</dc:title>
          </cc:Agent>
        </dc:contributor>
        <dc:rights>
          <cc:Agent>
            <dc:title>Sixsixfive (sixisixfive.deviantart.com)</dc:title>
          </cc:Agent>
        </dc:rights>
        <dc:description>A simple icon theme published under CC-BY-SA_V4(http://creativecommons.org/licenses/by-sa/4.0)</dc:description>
        <dc:identifier>SSF</dc:identifier>
      </cc:Work>
    </rdf:RDF>
  </metadata>
  <!--Part of the Ivy icon them published under the CC-BY-SA_V4: http://creativecommons.org/licenses/by-sa/4.0 -->
</svg>
