<?xml version="1.0" encoding="UTF-8" standalone="no"?>
<svg
   xmlns:dc="http://purl.org/dc/elements/1.1/"
   xmlns:cc="http://creativecommons.org/ns#"
   xmlns:rdf="http://www.w3.org/1999/02/22-rdf-syntax-ns#"
   xmlns:svg="http://www.w3.org/2000/svg"
   xmlns="http://www.w3.org/2000/svg"
   version="1.1"
   id="svg2"
   viewBox="0 0 16 16">
  <defs
     id="defs4">
    <linearGradient
       gradientTransform="matrix(0.49258982,0,0,0.38192,-8.7104225,-386.247)"
       x2="0"
       gradientUnits="userSpaceOnUse"
       y2="1016.36"
       y1="1011.36"
       id="0">
      <stop
         id="stop7" />
      <stop
         stop-opacity="0"
         id="stop9"
         offset="1" />
    </linearGradient>
    <linearGradient
       gradientTransform="matrix(0.30693743,0,0,0.29346,-2.6046726,-1.0169996)"
       x2="8"
       gradientUnits="userSpaceOnUse"
       x1="37"
       y2="38"
       y1="17"
       id="1">
      <stop
         id="stop12"
         stop-color="#c5c5c5" />
      <stop
         id="stop14"
         stop-color="#9d9d9d"
         offset="1" />
    </linearGradient>
    <linearGradient
       gradientTransform="matrix(0.30693743,0,0,0.39017,-3.2466463,-394.637)"
       x2="0"
       gradientUnits="userSpaceOnUse"
       y2="1018.36"
       y1="1011.36"
       id="2">
      <stop
         id="stop17"
         stop-color="#eed45a" />
      <stop
         stop-opacity="0"
         id="stop19"
         stop-color="#eed45a"
         offset="1" />
    </linearGradient>
    <linearGradient
       gradientTransform="matrix(0.33331635,0,0,0.33077,-3.2636456,-334.097)"
       x2="0"
       gradientUnits="userSpaceOnUse"
       y2="1049.36"
       y1="1016.36"
       id="3">
      <stop
         id="stop22"
         stop-color="#b6b6b6" />
      <stop
         id="stop24"
         stop-color="#cfcfcf"
         offset="1" />
    </linearGradient>
    <linearGradient
       gradientTransform="matrix(0.33558625,0,0,0.25007,-3.3546419,-252.167)"
       x2="0"
       gradientUnits="userSpaceOnUse"
       y2="1016.36"
       y1="1008.36"
       id="4">
      <stop
         id="stop27"
         stop-color="#6a6a6a" />
      <stop
         id="stop29"
         stop-color="#797979"
         offset="1" />
    </linearGradient>
    <linearGradient
       x1="14.600859"
       id="1-8"
       y1="15.05576"
       y2="15"
       gradientUnits="userSpaceOnUse"
       x2="0">
      <stop
         style="stop-color:#adda97;stop-opacity:1"
         stop-color="#5288d1"
         id="stop12-2" />
      <stop
         style="stop-color:#66b03e;stop-opacity:1"
         offset="1"
         stop-color="#76a1db"
         id="stop14-1" />
    </linearGradient>
  </defs>
  <rect
     style="fill:url(#3)"
     ry="0.662"
     id="rect35"
     height="11.577"
     rx="0.66197288"
     y="1.4230003"
     x="0.069217801"
     width="9.9995899" />
  <path
     style="opacity:0.5;fill:#ffffff"
     d="m 2.8629034,3.0450003 c -0.1275348,0.3837 -0.463832,0.6625 -0.8632516,0.6625 l 0,2.9919 c 0.049948,-0.011 0.1004938,-0.011 0.1534667,-0.011 0.4237876,0 0.7673345,0.2966 0.7673345,0.6626 0,0.3659 -0.3435469,0.6625 -0.7673345,0.6625 -0.052968,0 -0.1035148,0 -0.1534667,-0.011 l 0,0.5074 0,0.1655 0.0096,0 C 2.1130355,9.9716 3.4415631,10.9944 5.0689964,10.9944 c 1.6274333,0 2.9559589,-1.0228 3.0597447,-2.3189997 l 0.0096,0 0,-0.1655 0,-0.5074 c -0.049948,0.011 -0.1004929,0.011 -0.1534667,0.011 -0.4237867,0 -0.7673346,-0.2966 -0.7673346,-0.6625 0,-0.366 0.3435479,-0.6626 0.7673346,-0.6626 0.052978,0 0.1035147,0 0.1534667,0.011 l 0,-3.0541 c -0.2584004,-0.1 -0.463627,-0.3215 -0.5563172,-0.6003 l -4.7191067,0 z"
     id="path37" />
  <rect
     style="opacity:0.38000028;fill:#6a6a6a"
     ry="0.31200001"
     id="rect39"
     height="1.874"
     rx="0.31198722"
     y="5.0630007"
     x="2.6131139"
     width="4.9107985" />
  <path
     style="fill:url(#4)"
     d="m 1.1898719,-0.00479967 7.7902809,0 c 0.084997,0 0.1415322,0.051 0.1534132,0.114 l 0.935261,1.77199997 c 0.01188,0.063 -0.06842,0.114 -0.153412,0.114 l -9.76082969,0 c -0.084995,0 -0.16529119,-0.051 -0.15341268,-0.114 L 1.0365302,0.10920033 c 0.011874,-0.063 0.068419,-0.114 0.1534117,-0.114 z"
     id="path41" />
  <path
     style="opacity:0.68000028;fill:url(#2)"
     d="m 1.0507776,-0.03629967 3.6832491,0 0,1.95089997 -3.6832491,0 z"
     id="path43" />
  <path
     style="opacity:0.54799996"
     d="m 1.6641525,-0.03699967 0.9209623,0 0,1.94999997 -0.9209623,0 z"
     id="path45" />
  <path
     style="fill:url(#0)"
     d="m 7.0529317,0.01300033 1.9699193,0 0,1.90999997 -1.9699193,0 z"
     id="path47" />
  <path
     style="opacity:0.54799996"
     d="m 3.1990896,-0.03699967 0.9209623,0 0,1.94999997 -0.9209623,0 z"
     id="path49" />
  <path
     style="opacity:0.281"
     d="m 2.8629034,3.9172003 c -0.1275348,0.3876 -0.463832,0.6694 -0.8632516,0.6694 l 0,3.023 c 0.049948,-0.01 0.1004938,-0.01 0.1534667,-0.01 0.4237876,0 0.7673345,0.2997 0.7673345,0.6693 0,0.3698 -0.3435469,0.6695 -0.7673345,0.6695 -0.052968,0 -0.1035148,0 -0.1534667,-0.01 l 0,0.5123997 0,0.1674 0.0096,0 c 0.1037833,1.3096 1.4323109,2.3431 3.0597442,2.3431 1.6274333,0 2.9559589,-1.0335 3.0597447,-2.3431 l 0.0096,0 0,-0.1674 0,-0.5123997 c -0.049948,0.01 -0.1004929,0.01 -0.1534667,0.01 -0.4237867,0 -0.7673346,-0.2997 -0.7673346,-0.6695 0,-0.3696 0.3435479,-0.6693 0.7673346,-0.6693 0.052978,0 0.1035147,0 0.1534667,0.01 l 0,-3.0857 c -0.2584004,-0.1006 -0.463627,-0.3249 -0.5563172,-0.6067 l -4.7191067,0 z"
     id="path51" />
  <path
     style="fill:url(#1)"
     d="m 2.8629034,3.9763003 c -0.1275348,0.3399 -0.463832,0.5869 -0.8632516,0.5869 l 0,2.6502 c 0.049948,-0.01 0.1004938,-0.01 0.1534667,-0.01 0.4237876,0 0.7673345,0.2629 0.7673345,0.587 0,0.3241 -0.3435469,0.5868 -0.7673345,0.5868 -0.052968,0 -0.1035148,0 -0.1534667,-0.01 l 0,0.4494 0,0.1467 0.0096,0 C 2.1130351,10.1115 3.4415627,11.0175 5.068996,11.0175 c 1.6274333,0 2.9559589,-0.906 3.0597447,-2.0541997 l 0.0096,0 0,-0.1467 0,-0.4494 c -0.049948,0.01 -0.1004929,0.01 -0.1534667,0.01 -0.4237867,0 -0.7673346,-0.2627 -0.7673346,-0.5868 0,-0.3241 0.3435479,-0.587 0.7673346,-0.587 0.052978,0 0.1035147,0 0.1534667,0.01 l 0,-2.7051 c -0.2584004,-0.088 -0.463627,-0.2849 -0.5563172,-0.532 l -4.7191067,0 z"
     id="path53" />
  <rect
     style="opacity:0.93599997;fill:#ffffff"
     ry="0.34"
     id="rect55"
     height="2.039"
     rx="0.33998609"
     y="4.0030007"
     x="3.0670953"
     width="3.9208393" />
  <path
     style="opacity:0.3;fill:none;stroke:#000000;stroke-width:1;stroke-linejoin:round"
     d="M 1.4441615,0.52420033 0.63169481,1.8680003 a 0.53638803,0.53641 0 0 1 0,0.03125 0.53638803,0.53641 0 0 1 0,0.15625 c -0.032503,0.178955 -0.031249,0.20147 -0.031249,0.03125 l 0,10.2499997 c 0,0.08378 0.041218,0.125 0.1249948,0.125 l 8.68714439,0 c 0.08378,0 0.124995,-0.04122 0.124995,-0.125 l 0,-10.2499997 c 0,0.170207 0.0013,0.147682 -0.03125,-0.03125 a 0.53638803,0.53641 0 0 1 0,-0.09375 0.53638803,0.53641 0 0 1 0,-0.03125 l 0,-0.03125 -0.7499693,-1.37499997 -7.3122005,0 z"
     id="path57" />
  <path
     style="opacity:0.4;fill:#ffffff"
     d="m 1.1091752,2.0430003 7.861678,0 0,0.95 -7.861678,0 z"
     id="path59" />
  <g
     transform="matrix(0,1,-1,0,16,0.93504269)"
     id="g3519">
    <path
       style="opacity:0.1"
       id="path4155"
       d="m 8.0332031,1 -0.011719,2.1796875 c -3.4732486,0.01486 -6.3352985,2.5608822 -6.8378906,5.875 l 3.7402343,0 C 5.3594063,7.7570764 6.5718377,6.8120363 8.0214844,6.7988281 L 8.0117188,9.0214844 11.511719,7.0253906 15.009766,5.03125 11.521484,3.015625 8.0332031,1 Z" />
    <path
       id="path16"
       d="M 8.0324,0 8.0221,2.18 C 4.19403,2.196378 1.09617,5.28392 1.09617,9.09002 c 0,3.8163 3.11473,6.91002 6.95694,6.91002 3.84222,0 6.95694,-3.1937 6.95694,-7.01 l -3.64411,0 c 0,1.81725 -1.4832,3.39046 -3.31283,3.39046 -1.82963,0 -3.31283,-1.47323 -3.31283,-3.29048 0,-1.80701 1.46644,-3.27394 3.28177,-3.29048 l -0.0104,2.2211 3.4992,-1.9949 3.4992,-1.9949 -3.4888,-2.0154 z"
       style="fill:url(#1-8)" />
    <g
       style="fill:none"
       id="g18">
      <path
         style="opacity:0.60039996;stroke:#000000"
         id="path20"
         d="m 8.5,0.8125 0,1.375 A 0.473349,0.473349 0 0 1 8.03125,2.65625 C 4.45626,2.671545 1.5625,5.54543 1.5625,9.09375 c 0,3.5578 2.91154,6.4375 6.5,6.4375 3.42134,0 6.19632,-2.71567 6.4375,-6.0625 l -2.75,0 c -0.240655,1.85599 -1.75691,3.375 -3.6875,3.375 -2.0821,0 -3.78125,-1.67527 -3.78125,-3.75 0,-2.06298 1.68365,-3.73118 3.75,-3.75 A 0.473349,0.473349 0 0 1 8.5,5.8125 L 8.4688,7.2187 11.25,5.6249 14.0625,4.0311 11.2813,2.4061 8.5001,0.8123 Z" />
    </g>
    <path
       style="opacity:0.5;fill:none;fill-rule:evenodd;stroke:#ffffff"
       id="path4162"
       d="M 4.0231147,12.644597 C 1.8595735,10.788357 2.3663123,6.6270909 4.0356755,5.5209206" />
    <path
       style="opacity:0.38999999;fill:none;fill-rule:evenodd;stroke:#ffffff"
       id="path4164"
       d="m 12.542373,10.101695 c -0.525391,1.703339 -0.910477,2.643579 -2.008537,2.570579" />
  </g>
  <metadata
     id="metadata9999">
    <rdf:RDF>
      <cc:Work>
        <dc:format>image/svg+xml</dc:format>
        <dc:type
           rdf:resource="http://purl.org/dc/dcmitype/StillImage" />
        <dc:title></dc:title>
        <cc:license
           rdf:resource="http://creativecommons.org/licenses/by-sa/4.0/" />
        <dc:creator>
          <cc:Agent>
            <dc:title>Sixsixfive (sixsixfive.deviantart.com)</dc:title>
          </cc:Agent>
        </dc:creator>
        <dc:publisher>
          <cc:Agent>
            <dc:title>Sixsixfive (sixsixfive.deviantart.com)</dc:title>
          </cc:Agent>
        </dc:publisher>
        <dc:source>https://github.com/sixsixfive</dc:source>
        <dc:subject>
          <rdf:Bag>
            <rdf:li>ivy</rdf:li>
          </rdf:Bag>
        </dc:subject>
        <dc:contributor>
          <cc:Agent>
            <dc:title>ssf</dc:title>
          </cc:Agent>
        </dc:contributor>
        <dc:rights>
          <cc:Agent>
            <dc:title>Sixsixfive (sixisixfive.deviantart.com)</dc:title>
          </cc:Agent>
        </dc:rights>
        <dc:description>A simple icon theme published under CC-BY-SA_V4(http://creativecommons.org/licenses/by-sa/4.0)</dc:description>
        <dc:identifier>SSF</dc:identifier>
      </cc:Work>
    </rdf:RDF>
  </metadata>
  <!--Part of the Ivy icon them published under the CC-BY-SA_V4: http://creativecommons.org/licenses/by-sa/4.0 -->
</svg>
