<?xml version="1.0" encoding="UTF-8" standalone="no"?><svg xmlns:cc="http://creativecommons.org/ns#" viewBox="0 0 16 16" version="1.1" id="svg2" xmlns:svg="http://www.w3.org/2000/svg" xmlns:rdf="http://www.w3.org/1999/02/22-rdf-syntax-ns#" xmlns="http://www.w3.org/2000/svg" xmlns:dc="http://purl.org/dc/elements/1.1/"><defs id="defs4"><linearGradient x2="0" gradientUnits="userSpaceOnUse" y2="0" id="0" y1="11.998"><stop stop-color="#d3d7cf" id="stop7"/><stop offset="1" stop-color="#eeeeec" id="stop9"/></linearGradient><linearGradient x2="0" gradientUnits="userSpaceOnUse" y2="11" id="1" y1="1"><stop stop-color="#fff" id="stop12"/><stop offset="1" stop-opacity="0" stop-color="#fff" id="stop14"/></linearGradient><linearGradient x2="0" gradientUnits="userSpaceOnUse" y2="15" id="2" y1="11"><stop stop-color="#6a6a6a" id="stop17"/><stop offset="1" stop-color="#ebebeb" id="stop19"/></linearGradient></defs><path opacity="0.965" fill="url(#2)" id="path21" d="m 5 10 v 3 h -2 v 2 h 10 v -2 h -2 v -3 h -6 z"/><path opacity="0.3" fill="none" id="path23" stroke="#000" d="m 5.4688 10.4688 v 2.5312 A 0.468305 0.468305 0 0 1 5.00005 13.46875 H 3.4688 v 1.0625 h 9.0625 v -1.0625 H 11.00005 A 0.468305 0.468305 0 0 1 10.5313 13 V 10.46875 H 5.4688 z"/><rect height="12" width="16" rx="0.8" fill="url(#0)" ry="0.8" id="rect25"/><path opacity="0.3" id="path27" d="M 7,5 H9 V8 H7 z"/><path fill="#d02604" id="path29" d="M 2,2 H14 V9 H2 z"/><path opacity="0.3" id="path31" d="M 6,5 H7 V6 H6 z"/><path opacity="0.5" fill="none" id="path33" stroke="#000" d="M 0.8125 0.5 C 0.652273 0.5 0.5 0.652273 0.5 0.8125 v 10.375 C 0.5 11.347727 0.652273 11.5 0.8125 11.5 h 14.375 C 15.347727 11.5 15.5 11.347727 15.5 11.1875 V 0.8125 C 15.5 0.652273 15.347727 0.5 15.1875 0.5 H 0.8125 z"/><path opacity="0.3" id="path35" d="M 9,5 H10 V6 H9 z"/><path opacity="0.62" fill="none" id="path37" stroke="url(#1)" d="m 1.5 1.5 v 9 h 13 v -9 h -13 z"/><path opacity="0.3" id="path39" d="M 7,4 H9 V5 H7 z"/><path opacity="0.965" fill="#fff" id="path41" d="M 2,9 H14 V10 H2 z"/><g fill="#ebebeb" id="g43"><path id="path45" d="M 7,6 9,6 9,9 7,9 Z"/><path id="path47" d="M 6,6 7,6 7,7 6,7 Z"/><path id="path49" d="m 9,6 1,0 0,1 -1,0 z"/><path id="path51" d="M 7,5 9,5 9,6 7,6 Z"/></g><path opacity="0.385" fill="none" id="path53" stroke="#000" d="m 2.5 2.5 v 6 h 11 v -6 h -11 z"/><metadata id="metadata9999"><rdf:RDF><cc:Work><dc:format>image/svg+xml</dc:format><dc:type rdf:resource="http://purl.org/dc/dcmitype/StillImage"/><dc:title>Ivy icon theme</dc:title><cc:license rdf:resource="http://creativecommons.org/licenses/by-sa/4.0/"/><dc:creator><cc:Agent><dc:title>Sixsixfive (sixsixfive.deviantart.com)</dc:title></cc:Agent></dc:creator><dc:publisher><cc:Agent><dc:title>Sixsixfive (sixsixfive.deviantart.com)</dc:title></cc:Agent></dc:publisher><dc:source>https://github.com/sixsixfive</dc:source><dc:subject><rdf:Bag><rdf:li>ivy</rdf:li></rdf:Bag></dc:subject><dc:contributor><cc:Agent><dc:title>ssf</dc:title></cc:Agent></dc:contributor><dc:rights><cc:Agent><dc:title>Sixsixfive (sixisixfive.deviantart.com)</dc:title></cc:Agent></dc:rights><dc:description>A simple icon theme published under CC-BY-SA_V4(http://creativecommons.org/licenses/by-sa/4.0)</dc:description><dc:identifier>SSF</dc:identifier></cc:Work></rdf:RDF></metadata><!--Part of the Ivy icon them published under the CC-BY-SA_V4: http://creativecommons.org/licenses/by-sa/4.0 -->
</svg>