<?xml version="1.0" encoding="UTF-8" standalone="no"?><svg xmlns:rdf="http://www.w3.org/1999/02/22-rdf-syntax-ns#" xmlns:cc="http://creativecommons.org/ns#" xmlns:svg="http://www.w3.org/2000/svg" id="svg2" viewBox="0 0 16 16" version="1.1" xmlns:xlink="http://www.w3.org/1999/xlink" xmlns:dc="http://purl.org/dc/elements/1.1/" xmlns="http://www.w3.org/2000/svg"><defs id="defs4"><linearGradient id="0" x2="0" y2="0" y1="11.998" gradientUnits="userSpaceOnUse"><stop id="stop7" stop-color="#d3d7cf"/><stop offset="1" id="stop9" stop-color="#eeeeec"/></linearGradient><linearGradient id="1" x2="0" y2="11" y1="1" gradientUnits="userSpaceOnUse"><stop id="stop12" stop-color="#fff"/><stop offset="1" id="stop14" stop-color="#fff" stop-opacity="0"/></linearGradient><linearGradient id="2" x2="0" y2="15" y1="11" gradientUnits="userSpaceOnUse"><stop id="stop17" stop-color="#6a6a6a"/><stop offset="1" id="stop19" stop-color="#ebebeb"/></linearGradient><linearGradient id="linearGradient4165"><stop id="stop4167" stop-color="#eed45a"/><stop offset="1" id="stop4169" stop-color="#e9c82a"/></linearGradient><linearGradient id="linearGradient4544" x2="0" y2="4" xlink:href="#linearGradient4165" y1="16" gradientUnits="userSpaceOnUse"/><linearGradient id="0-6" x2="0" y2="1016.36" gradientTransform="matrix(0.49401779 0 0 0.38192 -41.259865 -386.66339)" y1="1011.36" gradientUnits="userSpaceOnUse"><stop id="stop7-9"/><stop offset="1" id="stop9-7" stop-opacity="0"/></linearGradient><linearGradient id="1-2" x2="8" y2="38" gradientTransform="matrix(0.3078272 0 0 0.29346 -35.136415 -1.4333862)" x1="37" y1="17" gradientUnits="userSpaceOnUse"><stop id="stop12-3" stop-color="#c5c5c5"/><stop offset="1" id="stop14-1" stop-color="#9d9d9d"/></linearGradient><linearGradient id="2-9" x2="0" y2="1018.36" gradientTransform="matrix(0.3078272 0 0 0.39017 -35.78025 -395.05339)" y1="1011.36" gradientUnits="userSpaceOnUse"><stop id="stop17-7" stop-color="#eed45a"/><stop offset="1" id="stop19-1" stop-color="#eed45a" stop-opacity="0"/></linearGradient><linearGradient id="3" x2="0" y2="1049.36" gradientTransform="matrix(0.33428259 0 0 0.33077 -35.797299 -334.51339)" y1="1016.36" gradientUnits="userSpaceOnUse"><stop id="stop22" stop-color="#b6b6b6"/><stop offset="1" id="stop24" stop-color="#cfcfcf"/></linearGradient><linearGradient id="4" x2="0" y2="1016.36" gradientTransform="matrix(0.33655908 0 0 0.25007 -35.888559 -252.58339)" y1="1008.36" gradientUnits="userSpaceOnUse"><stop id="stop27" stop-color="#6a6a6a"/><stop offset="1" id="stop29" stop-color="#797979"/></linearGradient><linearGradient id="0-7" x2="0" y2="41.29" gradientTransform="matrix(0.32580072 0 0 0.35119333 1.4219 1.4996682)" y1="9.966" gradientUnits="userSpaceOnUse"><stop id="stop7-7" stop-color="#5288d1"/><stop offset="1" id="stop9-9" stop-color="#729eda"/></linearGradient></defs><path id="path21" opacity="0.965" d="m 5 10 v 3 h -2 v 2 h 10 v -2 h -2 v -3 H 5 z" fill="url(#2)"/><path id="path23" opacity="0.3" d="m 5.4688 10.4688 v 2.5312 A 0.468305 0.468305 0 0 1 5.00005 13.46875 H 3.4688 v 1.0625 h 9.0625 v -1.0625 H 11.00005 A 0.468305 0.468305 0 0 1 10.5313 13 V 10.46875 H 5.4688 z" stroke="#000" fill="none"/><rect rx="0.8" ry="0.8" height="12" id="rect25" width="16" fill="url(#0)"/><path id="path27" d="M 2,2 H14 V9 H2 z" fill="#171717"/><g id="g29" fill="none"><path id="path31" opacity="0.5" d="M 0.8125,0.5 C 0.652273,0.5 0.5,0.652273 0.5,0.8125 l 0,10.375 C 0.5,11.347727 0.652273,11.5 0.8125,11.5 l 14.375,0 c 0.160227,0 0.3125,-0.152273 0.3125,-0.3125 l 0,-10.375 C 15.5,0.652273 15.347727,0.5 15.1875,0.5 l -14.375,0 z" stroke="#000"/><path id="path33" opacity="0.62" d="m 1.5,1.5 0,9 13,0 0,-9 -13,0 z" stroke="url(#1)"/><path id="path35" opacity="0.385" d="m 2.5,2.5 0,6 11,0 0,-6 -11,0 z" stroke="#000"/></g><path id="path37" opacity="0.965" d="M 2,9 H14 V10 H2 z" fill="#fff"/><g id="g3624" transform="matrix(1 0 0 1 -0.01448481 -0.0308485)"><path id="path16" d="m 16,10.5 a 5.5,5.5 0 0 1 -11,0 5.5,5.5 0 1 1 11,0 z" fill="url(#0-7)"/><path id="path3512" opacity="0.4" d="M 10.628906,5.4707031 C 7.3623239,5.2485309 4.601319,8.8807998 5.6894531,11.96875 a 0.47024577,0.47024577 0 0 1 0.011719,0.03516 c 0.8455484,3.163082 5.1738019,4.602198 7.7441399,2.574219 a 0.47024577,0.47024577 0 0 1 0.0293,-0.02148 c 2.621649,-1.764742 2.711782,-6.1139992 0.166016,-7.9863285 a 0.47024577,0.47024577 0 0 1 -0.01367,-0.011719 C 12.788185,5.8898064 11.720909,5.5015256 10.648438,5.4726562 a 0.47024577,0.47024577 0 0 1 -0.01953,-0.00195 z" stroke="#000" fill="none"/><g id="g3520" transform="matrix(1 0 0 1 0 -1)" fill="#000"><rect stroke-linecap="round" fill-opacity="1" height="1" id="rect3522" stroke-dasharray="none" stroke-miterlimit="4" opacity="1" stroke-width="1" width="1" stroke="none" x="9" y="10" fill="#000" stroke-dashoffset="0" fill-rule="evenodd" stroke-opacity="1" stroke-linejoin="round"/><rect stroke-linecap="round" fill-opacity="1" height="4" id="rect3524" stroke-dasharray="none" stroke-miterlimit="4" opacity="1" stroke-width="1" width="1" stroke="none" x="10" y="10" fill="#000" stroke-dashoffset="0" fill-rule="evenodd" stroke-opacity="1" stroke-linejoin="round"/><rect stroke-linecap="round" fill-opacity="1" height="1" id="rect3526" stroke-dasharray="none" stroke-miterlimit="4" opacity="1" stroke-width="1" width="1" stroke="none" x="11" y="13" fill="#000" stroke-dashoffset="0" fill-rule="evenodd" stroke-opacity="1" stroke-linejoin="round"/><rect stroke-linecap="round" fill-opacity="1" height="1" id="rect3528" stroke-dasharray="none" stroke-miterlimit="4" opacity="1" stroke-width="1" width="1" stroke="none" x="10" y="8" fill="#000" stroke-dashoffset="0" fill-rule="evenodd" stroke-opacity="1" stroke-linejoin="round"/></g><g id="g3536"><rect stroke-linecap="round" fill-opacity="1" height="1" id="rect3485" stroke-dasharray="none" stroke-miterlimit="4" opacity="1" stroke-width="1" width="1" stroke="none" x="9" y="10" fill="#fff" stroke-dashoffset="0" fill-rule="evenodd" stroke-opacity="1" stroke-linejoin="round"/><rect stroke-linecap="round" fill-opacity="1" height="4" id="rect3493" stroke-dasharray="none" stroke-miterlimit="4" opacity="1" stroke-width="1" width="1" stroke="none" x="10" y="10" fill="#fff" stroke-dashoffset="0" fill-rule="evenodd" stroke-opacity="1" stroke-linejoin="round"/><rect stroke-linecap="round" fill-opacity="1" height="1" id="rect3501" stroke-dasharray="none" stroke-miterlimit="4" opacity="1" stroke-width="1" width="1" stroke="none" x="11" y="13" fill="#fff" stroke-dashoffset="0" fill-rule="evenodd" stroke-opacity="1" stroke-linejoin="round"/><rect stroke-linecap="round" fill-opacity="1" height="1" id="rect3505" stroke-dasharray="none" stroke-miterlimit="4" opacity="1" stroke-width="1" width="1" stroke="none" x="10" y="8" fill="#fff" stroke-dashoffset="0" fill-rule="evenodd" stroke-opacity="1" stroke-linejoin="round"/></g><path stroke-linecap="butt" id="path3530" opacity="0.50999995" d="M 6.6056962,9.1101266 C 9,5 13,6 14.559494,9.385443" stroke-width="1" stroke="#fff" stroke-linejoin="miter" fill-rule="evenodd" fill="none" stroke-opacity="1"/></g><metadata id="metadata9999"><rdf:RDF><cc:Work><dc:format>image/svg+xml</dc:format><dc:type rdf:resource="http://purl.org/dc/dcmitype/StillImage"/><dc:title/><cc:license rdf:resource="http://creativecommons.org/licenses/by-sa/4.0/"/><dc:creator><cc:Agent><dc:title>Sixsixfive (sixsixfive.deviantart.com)</dc:title></cc:Agent></dc:creator><dc:publisher><cc:Agent><dc:title>Sixsixfive (sixsixfive.deviantart.com)</dc:title></cc:Agent></dc:publisher><dc:source>https://github.com/sixsixfive</dc:source><dc:subject><rdf:Bag><rdf:li>ivy</rdf:li></rdf:Bag></dc:subject><dc:contributor><cc:Agent><dc:title>ssf</dc:title></cc:Agent></dc:contributor><dc:rights><cc:Agent><dc:title>Sixsixfive (sixisixfive.deviantart.com)</dc:title></cc:Agent></dc:rights><dc:description>A simple icon theme published under CC-BY-SA_V4(http://creativecommons.org/licenses/by-sa/4.0)</dc:description><dc:identifier>SSF</dc:identifier></cc:Work></rdf:RDF></metadata><!--Part of the Ivy icon them published under the CC-BY-SA_V4: http://creativecommons.org/licenses/by-sa/4.0 -->
</svg>