<?xml version="1.0" encoding="UTF-8" standalone="no"?><svg xmlns:xlink="http://www.w3.org/1999/xlink" xmlns:cc="http://creativecommons.org/ns#" viewBox="0 0 16 16" version="1.1" id="svg2" xmlns:svg="http://www.w3.org/2000/svg" xmlns:rdf="http://www.w3.org/1999/02/22-rdf-syntax-ns#" xmlns="http://www.w3.org/2000/svg" xmlns:dc="http://purl.org/dc/elements/1.1/"><defs id="0"><linearGradient id="linearGradient4153"><stop stop-opacity="0.54" id="stop4155"/><stop offset="1" id="stop4157"/></linearGradient><linearGradient x2="0" gradientUnits="userSpaceOnUse" id="F" y2="44.908" gradientTransform="matrix(0.29999998 0 0 0.39473686 0.2093 -2.726843)" y1="6.908"><stop id="G" stop-color="#ddd"/><stop offset="1" id="H" stop-color="#fff"/></linearGradient><linearGradient x2="14" gradientUnits="userSpaceOnUse" x1="13.864" xlink:href="#linearGradient4153" id="linearGradient4159" y2="13.669" y1="0.246"/><linearGradient x2="-8.254" gradientUnits="userSpaceOnUse" x1="-8.372" id="0-6" y2="22.531" gradientTransform="matrix(0.24657 0 0 0.50768 -0.491 4.374)" y1="15.469"><stop id="stop4668" stop-color="#ebebeb"/><stop offset="1" id="stop4670" stop-color="#b7b7b7"/></linearGradient><radialGradient r="5.533" gradientUnits="userSpaceOnUse" cx="-36.514" cy="26.712" id="5-0" gradientTransform="matrix(0.40911 -0.35335 0.50465 0.28689 15.697 -6.434)"><stop id="stop4685" stop-color="#f1d6a5"/><stop offset="1" id="stop4687" stop-color="#d49320"/></radialGradient><radialGradient r="14.5" gradientUnits="userSpaceOnUse" cx="0.704" cy="16.184" id="6-7" gradientTransform="matrix(-0.1963 -0.2357 0.09354 -0.15865 -1.785 16.483)"><stop id="stop4690" stop-color="#f28099"/><stop offset="1" id="stop4692" stop-color="#ed4c70"/></radialGradient></defs><path fill="url(#F)" id="2" d="M 2,0 H 14 V 15 H 2 z"/><path fill-rule="evenodd" opacity="0.565" fill="#fff" id="path4163" d="m 4,7.9491525 2,0 0,2 -2,0 z"/><path fill-rule="evenodd" fill="#5288d1" id="3" d="m 2,11 h 12 v 4 H 2 z"/><path fill-rule="evenodd" opacity="0.2" id="4" d="M 3,5 H 13 V 5.9999999 H 3 z"/><path fill-rule="evenodd" opacity="0.565" fill="#fff" id="path4165" d="m 4,2.9491525 3.9999999,0 0,2 -3.9999999,0 z"/><path fill-rule="evenodd" fill="#ebebeb" id="5" d="m 4,12 h 2 v 2 H 4 z"/><path fill-rule="evenodd" opacity="0.8" fill="#6a6a6a" id="6" d="M 4,7 H 6 V 9 H 4 z"/><path fill-rule="evenodd" opacity="0.565" fill="#fff" id="path4167" d="m 8.9999999,2.9491525 3.0000001,0 0,2 -3.0000001,0 z"/><path fill-rule="evenodd" opacity="0.8" fill="#6a6a6a" id="7" d="M 4,2 H 7.9999999 V 4 H 4 z"/><path fill-rule="evenodd" opacity="0.565" fill="#fff" id="path4169" d="m 7,7.9491525 5,0 0,2 -5,0 z"/><path fill-rule="evenodd" opacity="0.8" fill="#6a6a6a" id="8" d="M 8.9999999,2 H 12 V 4 H 8.9999999 z"/><path fill-rule="evenodd" opacity="0.8" fill="#6a6a6a" id="9" d="m 7,7 h 5 V 9 H 7 z"/><path fill-rule="evenodd" fill="#ebebeb" id="A" d="m 7,12 h 1 v 2 H 7 z"/><path fill-rule="evenodd" fill="#ebebeb" id="B" d="m 9,12 h 3 v 2 H 9 z"/><path opacity="0.4" fill="none" id="C" stroke="#000" d="m 2.5,0.5 0,14 11,0 0,-14 -11,0 z"/><rect height="1" width="10" opacity="0.4" fill="#fff" id="D" x="3" y="11"/><rect height="1" width="10" opacity="0.32" id="E" x="3" y="10"/><path opacity="0.5" fill="none" id="path3351" stroke="url(#linearGradient4159)" d="m 2.5,0.5 0,14 11,0 0,-14 -11,0 z"/><path opacity="0.409" fill="#fff" id="path4696" d="M 12.04375,0.082 C 11.412791,0.21045901 10.95,0.786523 10.95,1.457 l 0,0.375 0,7.15625 0,3.156251 0,0.03125 0.03125,0 2.03125,3.90625 2,-3.9375 0,-3.156251 0,-7.53125 c 0,-0.76594399 -0.640035,-1.375 -1.40625,-1.375 l -1.28125,0 c -0.09771,0 -0.193041,-0.017959 -0.28125,0 z"/><g id="g4734" transform="matrix(0 -1 1 0 -0.05 0.082)"><path opacity="0.67" fill="#eed45a" id="path4736" d="m -12.08,11.989 10.316,0 0,4.061 -10.316,0 z"/><path fill="url(#6-7)" id="rect4738" d="m -8.9110005,11.989 7.5320001,0 c 0.77116795,0 1.39199993,0.620832 1.39199993,1.392 l 0,1.277 c 0,0.771168 -0.62083198,1.392 -1.39199993,1.392 l -7.5320001,0 C -9.6821685,16.05 -10.303,15.429168 -10.303,14.658 l 0,-1.277 c 0,-0.771168 0.6208315,-1.392 1.3919995,-1.392 z"/></g><path fill="url(#5-0)" id="path4740" d="m 11.9389,12.140301 4.0614,0 -1.9912,3.9366 c -2.07019,-3.93663 0,0 -2.07019,-3.93663 z"/><g id="g4742" transform="matrix(0 -1 1 0 -0.05 0.082)"><path fill="#a07018" id="path4744" d="m -12.08,15.03 10.162,0 0,1.015 -10.162,0 z"/><path fill="#e4ae4e" id="path4746" d="m -12.08,13.02 10.06,0 0,2.01 -10.06,0 z"/><path fill="#eecd92" id="path4748" d="m -12.08,11.989 10.111,0 0,1.01 -10.111,0 z"/><path fill="url(#0-6)" id="path4750" d="m -2.957,11.989 0.986,0 0,4.061 -0.986,0 z"/></g><path fill="#6a6a6a" id="path4752" d="m 12.9626,14.067001 1.0388,2.0099 0.9814,-1.9842 z"/><path opacity="0.06" id="path4754" d="m 12.462,12.112001 2.969,0 0,0.947 -2.969,0 z"/><path stroke-linejoin="round" opacity="0.5" fill="none" id="path4756" stroke="#000" d="M 13.1375,0.58200001 C 12.738367,0.66326101 12.45,1.009203 12.45,1.457 l 0,0.375 0,7.15625 0,3.031251 1.5625,3 1.5,-3 0,-3.031251 0,-7.53125 c 0,-0.49592204 -0.396765,-0.87499999 -0.90625,-0.87499999 l -1.28125,0 c -0.160622,0 -0.22722,0.00809 -0.1875,0 z"/><metadata id="metadata9999"><rdf:RDF><cc:Work><dc:format>image/svg+xml</dc:format><dc:type rdf:resource="http://purl.org/dc/dcmitype/StillImage"/><dc:title>Ivy icon theme</dc:title><cc:license rdf:resource="http://creativecommons.org/licenses/by-sa/4.0/"/><dc:creator><cc:Agent><dc:title>Sixsixfive (sixsixfive.deviantart.com)</dc:title></cc:Agent></dc:creator><dc:publisher><cc:Agent><dc:title>Sixsixfive (sixsixfive.deviantart.com)</dc:title></cc:Agent></dc:publisher><dc:source>https://github.com/sixsixfive</dc:source><dc:subject><rdf:Bag><rdf:li>ivy</rdf:li></rdf:Bag></dc:subject><dc:contributor><cc:Agent><dc:title>ssf</dc:title></cc:Agent></dc:contributor><dc:rights><cc:Agent><dc:title>Sixsixfive (sixisixfive.deviantart.com)</dc:title></cc:Agent></dc:rights><dc:description>A simple icon theme published under CC-BY-SA_V4(http://creativecommons.org/licenses/by-sa/4.0)</dc:description><dc:identifier>SSF</dc:identifier></cc:Work></rdf:RDF></metadata><!--Part of the Ivy icon them published under the CC-BY-SA_V4: http://creativecommons.org/licenses/by-sa/4.0 -->
</svg>