<?xml version="1.0" encoding="UTF-8" standalone="no"?><svg xmlns:rdf="http://www.w3.org/1999/02/22-rdf-syntax-ns#" xmlns:cc="http://creativecommons.org/ns#" xmlns:svg="http://www.w3.org/2000/svg" id="svg2" viewBox="0 0 22 22" version="1.1" xmlns:xlink="http://www.w3.org/1999/xlink" xmlns:dc="http://purl.org/dc/elements/1.1/" xmlns="http://www.w3.org/2000/svg"><defs id="defs4"><linearGradient id="0" x2="0" y2="1024.36" gradientTransform="matrix(0.4628 0 0 0.52941 -0.628 -532.31)" y1="1007.36" gradientUnits="userSpaceOnUse"><stop id="stop7" stop-color="#ebebeb"/><stop offset="1" id="stop9" stop-color="#a7a7a7"/></linearGradient><linearGradient id="1" x2="28" y2="1030.17" gradientTransform="matrix(0.50909 0 0 0.77443 -1.255 -784.84)" x1="27.643" y1="1026.32" gradientUnits="userSpaceOnUse"><stop id="stop12"/><stop offset="1" id="stop14" stop-opacity="0"/></linearGradient><linearGradient id="2" x2="28" y2="1019.58" gradientTransform="matrix(0.5 0 0 0.47126 -1 -473.53)" x1="27.929" y1="1049.22" gradientUnits="userSpaceOnUse"><stop id="stop17" stop-color="#6a6a6a"/><stop offset="1" id="stop19" stop-color="#505050"/></linearGradient><linearGradient id="3"><stop id="stop22" stop-color="#ebebeb"/><stop offset="1" id="stop24" stop-color="#bbb"/></linearGradient><linearGradient id="4" x2="7" y2="1015.36" gradientTransform="matrix(0.52778 0 0 0.45833 -0.694 -460.33)" xlink:href="#3" x1="10.194" y1="1015.25" gradientUnits="userSpaceOnUse"/><linearGradient id="5" x2="41.789" gradientTransform="matrix(0.26389 0 0 0.45833 6.931 -460.37)" xlink:href="#3" x1="38" gradientUnits="userSpaceOnUse"/><radialGradient r="9" cx="13.07" id="6" cy="1043.36" gradientTransform="matrix(0.44444 0 0 0.22222 0.333 -214.53)" gradientUnits="userSpaceOnUse"><stop id="stop29" stop-color="#fb6446"/><stop offset="1" id="stop31" stop-color="#d02604"/></radialGradient><radialGradient r="8" cx="27.07" id="7" cy="1041.31" gradientTransform="matrix(-0.15484 0.20015 -0.24386 -0.19924 270.15 214.41)" gradientUnits="userSpaceOnUse"><stop id="stop34" stop-color="#ac1f03"/><stop offset="1" id="stop36" stop-color="#fa5b3a"/></radialGradient></defs><path id="path38" opacity="0.1" d="M 3 2 V 10 L 3.999547 11 H 9 V 16.90625 c -1.770567 0.32902 -6 -0.256575 -6 -0.256575 0 1.037825 0 0 0 1.037825 L 4 20 c 0.71977 -0.903951 2.747145 0.319584 5 -0.0625 V 22 h 4 v -5.90625 c 0.608772 1.383038 1.230725 3.325153 2 4.90625 l 2 -2 c -0.09756 -0.328448 0.092 -0.704514 0 -1 -1.296113 -4.162954 -2.372218 -5.077776 -4 -5.34375 V 11 H 17.01997 L 18 10 L 17.96875 2 z"/><path id="path40" d="M 9.625 11.474512 C 14.14597 11.76645 14.81825 10.654603 17 18 l -2 2 c -1.382812 -2.842105 -2.236214 -6.93502 -3.53125 -6.631579 z" fill="url(#7)"/><path id="path42" opacity="0.4" d="m 10.8125 12 l 0.9375 0.96875 c 0.146786 0.02399 0.316373 -0.0088 0.4375 0.0625 0.233781 0.137559 0.396367 0.337167 0.5625 0.5625 0.332267 0.450666 0.626315 1.034893 0.90625 1.71875 0.47815 1.168081 0.985958 2.565117 1.53125 3.8125 l 1.25 -1.25 C 15.40859 14.471688 14.688263 13.0272 13.90625 12.5 13.502442 12.227769 13.04251 12.1122 12.34375 12.0625 11.954578 12.03482 11.33511 12.01456 10.8125 12 z" stroke="#000" fill="none"/><path id="path44" d="M 3 16.69398 C 4.56608 14.807677 8.333333 17.258642 11 15 l -0.444444 3.38796 C 7.745191 19.973696 4.882089 17.892195 4 19 z" fill="url(#6)"/><path id="path46" opacity="0.34" d="M 10.40625 15.9375 C 9.134426 16.572761 7.755096 16.546783 6.5625 16.46875 5.820961 16.42023 5.13655 16.375578 4.59375 16.4375 c -0.42977 0.04903 -0.735578 0.187486 -1 0.40625 l 0.625 1.4375 c 0.254677 -0.09021 0.546669 -0.133129 0.8125 -0.125 0.502969 0.01538 1.017054 0.130493 1.59375 0.21875 1.097826 0.168009 2.295793 0.230961 3.5 -0.375 l 0.28125 -2.0625 z" stroke="#000" fill="none"/><path id="path48" d="M 9,7.333 H13 V21 H9 z" fill="url(#2)"/><path id="path50" d="m 9 15 v 2 c 1.08596 0.438255 2.25619 1.157668 4 0.927315 V 16 c -1.424435 0.06059 -2.76597 -0.383249 -4 -1 z" fill="#d02604"/><path id="path52" opacity="0.43" d="M 9,10 H13 V13.208 H9 z" fill="url(#1)"/><path id="path54" d="m 9 12 v 2.389396 c 1.333334 0.624614 2.666666 0.666811 4 0.572321 V 13 C 11.437907 12.97081 10 12.499449 9 12 z" fill="#d02604"/><path id="path56" opacity="0.4" d="m 9.5 7.84375 v 12.65625 h 3 v -12.65625 h -3 z" stroke="#000" fill="none"/><path id="path58" d="M 4,1 H16.958 V10 H4 z" fill="url(#0)"/><path id="path60" opacity="0.1" d="M 15.958,2 H16.958 V9 H15.958 z"/><path id="path62" d="m 16.958334,0.9583335 1,1 0,7 -1,1.0833335 z" fill="url(#5)"/><path id="path64" opacity="0.1" d="M 4,2 H5 V9 H4 z"/><path id="path66" d="M 4,1 3,2 3,9 4,10 z" fill="url(#4)"/><g id="g68" fill-rule="evenodd"><path id="path70" opacity="0.2" d="m 15,4 -0.612245,0.027473 -0.551021,0.027472 c -0.336395,0.014726 -0.983617,0.059532 -1.653061,0.137363 -0.669443,0.07783 -1.334077,0.180892 -1.714285,0.32967 -0.03999,0.015649 -0.05338,0.063512 -0.09183,0.082418 L 10.132653,4.494506 C 9.93458,4.407968 9.719306,4.350412 9.489796,4.302198 8.657796,4.127843 7.786933,4.131596 7.0102,4.10989 l -0.459184,0 L 6,4.082417 6.367347,4.467032 6.673469,4.76923 l -0.030612,0 C 6.940631,5.074076 7.195635,5.633897 7.714285,6.142857 8.010244,6.433299 8.471661,6.6072 8.969387,6.747252 8.963207,7.126548 8.992818,7.477468 9.214285,7.763735 9.580392,8.237162 10.127097,8.527166 10.285713,8.642856 L 10.5,8.807692 10.744898,9 10.897959,8.725275 10.989796,8.505495 C 11.043226,8.40557 11.187624,8.281424 11.357143,8.12088 11.526661,7.960336 11.727782,7.775646 11.846939,7.516484 12.031955,7.114144 11.981275,6.770398 11.969388,6.637363 12.455683,6.457057 12.891911,6.231299 13.163265,5.923077 13.606132,5.420059 13.872351,5.014488 14.204082,4.714286 L 14.571429,4.412088 15,4 Z m -2.846939,0.906593 c 0.170112,-0.00251 0.322225,0.021436 0.489796,0.027473 -0.107381,0.157029 -0.21245,0.318576 -0.367346,0.494505 -0.108713,0.12347 -0.288316,0.234431 -0.459185,0.357143 -0.03778,-0.140146 0.01201,-0.203811 -0.15306,-0.384615 -0.102961,-0.11271 -0.22511,-0.1743 -0.336735,-0.247252 C 11.404545,5.1154 11.575257,4.99608 11.60204,4.989011 11.794835,4.938055 11.982949,4.9091 12.153061,4.906594 Z M 9.581633,5.043956 9.704082,5.126374 C 9.685441,5.145913 9.660823,5.16185 9.642858,5.181319 9.615625,5.121568 9.581633,5.04396 9.581633,5.04396 Z m -1.5,0.054945 c 0.130674,-0.00695 0.291866,0.00549 0.397959,0 0.212499,-0.010999 0.408928,-6.28e-4 0.673469,0.054945 0.033499,0.00703 0.110896,0.027773 0.183673,0.054945 0.036389,0.013587 0.066077,0.017569 0.091837,0.027473 0.01288,0.00495 0.019197,0.023372 0.030612,0.027473 0.00571,0.00204 0.018735,-0.00351 0.030612,0 0.00598,0.00176 0.030102,-8.8e-5 0.030612,0 C 9.398242,5.402347 9.316568,5.523932 9.244897,5.620879 9.209062,5.669352 9.173153,5.701667 9.153061,5.730769 9.143015,5.74532 9.128405,5.776739 9.122449,5.785714 9.120119,5.789344 9.092031,5.812786 9.091837,5.813187 L 9.06122,5.923077 C 9.00071,5.904009 8.933292,5.887846 8.877551,5.868132 8.654585,5.789274 8.457426,5.689263 8.387755,5.620879 8.253333,5.488967 8.231324,5.39076 8.173469,5.263736 8.153299,5.21945 8.106743,5.152272 8.08163,5.098901 Z m 2.479591,0.54945 0.03061,0.027473 c 0.176288,0.095074 0.285881,0.202805 0.39796,0.43956 l -0.122449,0.027473 c 0.0092,-0.00176 -0.237313,0.023929 -0.489796,0.027473 -0.100754,0.00142 -0.198713,-0.020359 -0.306122,-0.027473 l 0,-0.027473 c 0.05987,-0.111981 0.27346,-0.289372 0.489795,-0.467033 z m 0.581633,1.236264 c -0.02174,0.12087 -0.07524,0.180196 -0.122448,0.274725 -0.06331,0.126761 -0.120357,0.214529 -0.214287,0.302198 C 10.755272,7.509 10.687366,7.589215 10.622449,7.653846 10.478452,7.588101 10.236607,7.486087 10.132653,7.351648 10.051703,7.247006 10.038813,7.085497 10.010204,6.93956 c 0.150128,0.027253 0.190673,0.066659 0.459184,0.054945 0.175097,-0.00772 0.351684,-0.02792 0.489795,-0.054945 l 0.183674,-0.054945 z" fill="#fff"/><path id="path72" opacity="0.5" d="m 15,3 -0.612245,0.027473 -0.551021,0.027472 c -0.336395,0.014726 -0.983617,0.059532 -1.653061,0.137363 -0.669443,0.07783 -1.334077,0.180893 -1.714285,0.32967 -0.03999,0.015649 -0.05338,0.063512 -0.09183,0.082418 L 10.132653,3.494506 C 9.93458,3.407968 9.719306,3.350412 9.489796,3.302198 8.657796,3.127843 7.786933,3.131596 7.0102,3.10989 l -0.459184,0 L 6,3.082417 6.367347,3.467032 6.673469,3.76923 l -0.030612,0 C 6.940631,4.074076 7.195635,4.633897 7.714285,5.142857 8.010244,5.433299 8.471661,5.6072 8.969387,5.747252 8.963207,6.126548 8.992818,6.477468 9.214285,6.763736 9.580392,7.237163 10.127097,7.527167 10.285713,7.642857 L 10.5,7.807692 10.744898,8 10.897959,7.725275 10.989796,7.505495 C 11.043226,7.40557 11.187624,7.281424 11.357143,7.12088 11.526661,6.960336 11.727782,6.775646 11.846939,6.516484 12.031955,6.114144 11.981275,5.770398 11.969388,5.637363 12.455683,5.457057 12.891911,5.231299 13.163265,4.923077 13.606132,4.420059 13.872351,4.014488 14.204082,3.714286 L 14.571429,3.412088 15,3 Z m -2.846939,0.906593 c 0.170112,-0.00251 0.322225,0.021436 0.489796,0.027473 -0.107381,0.157029 -0.21245,0.318576 -0.367346,0.494506 -0.108713,0.12347 -0.288316,0.234431 -0.459185,0.357143 C 11.778546,4.645569 11.828336,4.581904 11.663266,4.4011 11.560305,4.288389 11.438156,4.226799 11.326531,4.153847 11.404545,4.1154 11.575257,3.99608 11.60204,3.989011 11.794835,3.938055 11.982949,3.9091 12.153061,3.906594 Z M 9.581633,4.043956 9.704082,4.126374 C 9.685441,4.145913 9.660823,4.16185 9.642858,4.181319 9.615625,4.121568 9.581633,4.04396 9.581633,4.04396 Z m -1.5,0.054945 c 0.130674,-0.00695 0.291866,0.00549 0.397959,0 0.212499,-0.010999 0.408928,-6.28e-4 0.673469,0.054945 0.033499,0.00703 0.110896,0.027773 0.183673,0.054945 0.036389,0.013587 0.066077,0.017569 0.091837,0.027473 0.01288,0.00495 0.019197,0.023372 0.030612,0.027473 0.00571,0.00204 0.018735,-0.00351 0.030612,0 0.00598,0.00176 0.030102,-8.8e-5 0.030612,0 C 9.398242,4.402347 9.316568,4.523932 9.244897,4.620879 9.209062,4.669352 9.173153,4.701667 9.153061,4.730769 9.143015,4.74532 9.128405,4.776739 9.122449,4.785714 9.120119,4.789344 9.092031,4.812786 9.091837,4.813187 L 9.06122,4.923077 C 9.00071,4.904009 8.933292,4.887846 8.877551,4.868132 8.654585,4.789274 8.457426,4.689263 8.387755,4.620879 8.253333,4.488967 8.231324,4.39076 8.173469,4.263736 8.153299,4.21945 8.106743,4.152272 8.08163,4.098901 Z m 2.479591,0.54945 0.03061,0.027473 c 0.176288,0.095074 0.285881,0.202805 0.39796,0.43956 l -0.122449,0.027473 c 0.0092,-0.00176 -0.237313,0.023929 -0.489796,0.027473 -0.100754,0.00142 -0.198713,-0.020359 -0.306122,-0.027473 l 0,-0.027473 c 0.05987,-0.111981 0.27346,-0.289372 0.489795,-0.467033 z m 0.581633,1.236264 c -0.02174,0.12087 -0.07524,0.180196 -0.122448,0.274725 -0.06331,0.126761 -0.120357,0.214529 -0.214287,0.302198 C 10.755272,6.509 10.687366,6.589215 10.622449,6.653846 10.478452,6.588101 10.236607,6.486087 10.132653,6.351648 10.051703,6.247006 10.038813,6.085497 10.010204,5.93956 c 0.150128,0.027253 0.190673,0.066659 0.459184,0.054945 0.175097,-0.00772 0.351684,-0.02792 0.489795,-0.054945 l 0.183674,-0.054945 z" fill="#6a6a6a"/></g><path id="path74" opacity="0.4" d="M 4,2 H17 V3 H4 z" fill="#fff"/><g id="g76" fill="none"><g id="g78" stroke="#000"><path id="path80" opacity="0.31" d="M 4.1875,1.5 3.5,2.1875 l 0,6.625 0.6875,0.6875 12.59375,0 0.6875,-0.71875 0,-6.625 L 16.78125,1.5 4.1875,1.5 Z"/><path id="path82" opacity="0.3" d="m 9,15 c 1.303887,0.399053 3.0057,0.603314 4,0.460594"/><path id="path84" opacity="0.3" d="m 9.2,11.529194 c 1.303887,0.399053 2.805698,1.099608 3.8,0.956888"/></g><g id="g86" stroke="#fff"><path id="path88" opacity="0.1" d="m 10,13 c 1.303887,0.399053 1,0.369764 2,0.4314"/><path id="path90" opacity="0.2" d="m 10,16 c 1.041316,0.387042 1,0.478734 2,0.453183"/></g></g><metadata id="metadata9999"><rdf:RDF><cc:Work><dc:format>image/svg+xml</dc:format><dc:type rdf:resource="http://purl.org/dc/dcmitype/StillImage"/><dc:title>Ivy icon theme</dc:title><cc:license rdf:resource="http://creativecommons.org/licenses/by-sa/4.0/"/><dc:creator><cc:Agent><dc:title>Sixsixfive (sixsixfive.deviantart.com)</dc:title></cc:Agent></dc:creator><dc:publisher><cc:Agent><dc:title>Sixsixfive (sixsixfive.deviantart.com)</dc:title></cc:Agent></dc:publisher><dc:source>https://github.com/sixsixfive</dc:source><dc:subject><rdf:Bag><rdf:li>ivy</rdf:li></rdf:Bag></dc:subject><dc:contributor><cc:Agent><dc:title>ssf</dc:title></cc:Agent></dc:contributor><dc:rights><cc:Agent><dc:title>Sixsixfive (sixisixfive.deviantart.com)</dc:title></cc:Agent></dc:rights><dc:description>A simple icon theme published under CC-BY-SA_V4(http://creativecommons.org/licenses/by-sa/4.0)</dc:description><dc:identifier>SSF</dc:identifier></cc:Work></rdf:RDF></metadata><!--Part of the Ivy icon them published under the CC-BY-SA_V4: http://creativecommons.org/licenses/by-sa/4.0 -->
</svg>