<?xml version="1.0" encoding="UTF-8" standalone="no"?><svg xmlns:cc="http://creativecommons.org/ns#" xmlns:dc="http://purl.org/dc/elements/1.1/" xmlns="http://www.w3.org/2000/svg" xmlns:svg="http://www.w3.org/2000/svg" xmlns:rdf="http://www.w3.org/1999/02/22-rdf-syntax-ns#" id="svg2" version="1.1" viewBox="0 0 16 16"><defs id="defs4"><linearGradient gradientTransform="matrix(0.49401779 0 0 0.38192 -7.7356731 -385.24)" gradientUnits="userSpaceOnUse" y1="1011.36" id="0" y2="1016.36" x2="0"><stop id="stop7"/><stop stop-opacity="0" id="stop9" offset="1"/></linearGradient><linearGradient gradientTransform="matrix(0.3078272 0 0 0.29346 -1.6122233 -0.01)" gradientUnits="userSpaceOnUse" y1="17" x1="37" id="1" y2="38" x2="8"><stop id="stop12" stop-color="#c5c5c5"/><stop id="stop14" stop-color="#9d9d9d" offset="1"/></linearGradient><linearGradient gradientTransform="matrix(0.3078272 0 0 0.39017 -2.256058 -393.63)" gradientUnits="userSpaceOnUse" y1="1011.36" id="2" y2="1018.36" x2="0"><stop id="stop17" stop-color="#eed45a"/><stop stop-opacity="0" id="stop19" stop-color="#eed45a" offset="1"/></linearGradient><linearGradient gradientTransform="matrix(0.33428259 0 0 0.33077 -2.2731066 -333.09)" gradientUnits="userSpaceOnUse" y1="1016.36" id="3" y2="1049.36" x2="0"><stop id="stop22" stop-color="#b6b6b6"/><stop id="stop24" stop-color="#cfcfcf" offset="1"/></linearGradient><linearGradient gradientTransform="matrix(0.33655908 0 0 0.25007 -2.3643667 -251.16)" gradientUnits="userSpaceOnUse" y1="1008.36" id="4" y2="1016.36" x2="0"><stop id="stop27" stop-color="#6a6a6a"/><stop id="stop29" stop-color="#797979" offset="1"/></linearGradient><linearGradient gradientTransform="matrix(0.32580072 0 0 0.35119333 1.4219 1.4996682)" gradientUnits="userSpaceOnUse" y1="9.966" id="0-7" y2="41.29" x2="0"><stop id="stop7-7" stop-color="#5288d1"/><stop id="stop9-9" stop-color="#729eda" offset="1"/></linearGradient></defs><rect width="10.028578" ry="0.662" height="11.577" rx="0.66389185" id="rect35" y="2.4300001" x="1.0694185" fill="url(#3)"/><path opacity="0.5" d="M 3.8712026,4.052 C 3.7432982,4.4357 3.406026,4.7145 3.0054485,4.7145 l 0,2.9919 c 0.050093,-0.011 0.1007852,-0.011 0.1539116,-0.011 0.4250162,0 0.769559,0.2966 0.769559,0.6626 0,0.3659 -0.3445428,0.6625 -0.769559,0.6625 -0.053121,0 -0.1038148,0 -0.1539116,-0.011 l 0,0.5074 0,0.1655 0.00963,0 c 0.1040846,1.2962 1.4364634,2.319 3.0686145,2.319 1.6321511,0 2.9645279,-1.0228 3.0686145,-2.319 l 0.00963,0 0,-0.1655 0,-0.5074 c -0.050093,0.011 -0.1007842,0.011 -0.1539116,0.011 -0.4250152,0 -0.769559,-0.2966 -0.769559,-0.6625 0,-0.366 0.3445438,-0.6626 0.769559,-0.6626 0.053131,0 0.1038148,0 0.1539116,0.011 l 0,-3.0541 C 8.902783,4.5523 8.6969614,4.3308 8.6040025,4.052 l -4.7327868,0 z" id="path37" fill="#fff"/><rect width="4.9250345" ry="0.31200001" height="1.874" rx="0.31289163" opacity="0.3800001" id="rect39" y="6.0700002" x="3.6206889" fill="#6a6a6a"/><path d="m 2.1933212,1.0022 7.8128638,0 c 0.08524,0 0.141943,0.051 0.153858,0.114 l 0.937973,1.772 c 0.01191,0.063 -0.06862,0.114 -0.153857,0.114 l -9.7891255,0 c -0.085241,0 -0.16577043,-0.051 -0.1538575,-0.114 l 1.038359,-1.772 c 0.011908,-0.063 0.068618,-0.114 0.1538564,-0.114 z" id="path41" fill="url(#4)"/><path opacity="0.6800001" d="m 2.0538237,0.9707 3.6939265,0 0,1.9509 -3.6939265,0 z" id="path43" fill="url(#2)"/><path opacity="0.54799996" d="m 2.6689767,0.97 0.923632,0 0,1.95 -0.923632,0 z" id="path45"/><path d="m 8.0733774,1.02 1.9756296,0 0,1.91 -1.9756296,0 z" id="path47" fill="url(#0)"/><path opacity="0.54799996" d="m 4.2083634,0.97 0.9236321,0 0,1.95 -0.9236321,0 z" id="path49"/><path opacity="0.281" d="M 3.8712026,4.9242 C 3.7432982,5.3118 3.406026,5.5936 3.0054485,5.5936 l 0,3.023 c 0.050093,-0.01 0.1007852,-0.01 0.1539116,-0.01 0.4250162,0 0.769559,0.2997 0.769559,0.6693 0,0.3698 -0.3445428,0.6695 -0.769559,0.6695 -0.053121,0 -0.1038148,0 -0.1539116,-0.01 l 0,0.5124 0,0.1674 0.00963,0 c 0.1040846,1.3096 1.4364634,2.3431 3.0686145,2.3431 1.6321511,0 2.9645279,-1.0335 3.0686145,-2.3431 l 0.00963,0 0,-0.1674 0,-0.5124 c -0.050093,0.01 -0.1007842,0.01 -0.1539116,0.01 -0.4250152,0 -0.769559,-0.2997 -0.769559,-0.6695 0,-0.3696 0.3445438,-0.6693 0.769559,-0.6693 0.053131,0 0.1038148,0 0.1539116,0.01 l 0,-3.0857 C 8.902783,5.4303 8.6969614,5.206 8.6040025,4.9242 l -4.7327868,0 z" id="path51"/><path d="M 3.8712026,4.9833 C 3.7432982,5.3232 3.406026,5.5702 3.0054485,5.5702 l 0,2.6502 c 0.050093,-0.01 0.1007852,-0.01 0.1539116,-0.01 0.4250162,0 0.769559,0.2629 0.769559,0.587 0,0.3241 -0.3445428,0.5868 -0.769559,0.5868 -0.053121,0 -0.1038148,0 -0.1539116,-0.01 l 0,0.4494 0,0.1467 0.00963,0 c 0.1040846,1.1482 1.4364634,2.0542 3.0686145,2.0542 1.6321511,0 2.9645279,-0.906 3.0686145,-2.0542 l 0.00963,0 0,-0.1467 0,-0.4494 c -0.050093,0.01 -0.1007842,0.01 -0.1539116,0.01 -0.4250152,0 -0.769559,-0.2627 -0.769559,-0.5868 0,-0.3241 0.3445438,-0.587 0.769559,-0.587 0.053131,0 0.1038148,0 0.1539116,0.01 l 0,-2.7051 C 8.902783,5.4273 8.6969614,5.2304 8.6040025,4.9833 l -4.7327868,0 z" id="path53" fill="url(#1)"/><rect width="3.9322054" ry="0.34" height="2.039" rx="0.34097165" opacity="0.93599997" id="rect55" y="5.0100002" x="4.0759864" fill="#fff"/><path stroke="#000" stroke-width="1.0014279" opacity="0.3" d="M 2.448348,1.5312 1.633526,2.875 a 0.53794296,0.53641 0 0 1 0,0.03125 0.53794296,0.53641 0 0 1 0,0.15625 C 1.600929,3.241455 1.602187,3.26397 1.602187,3.09375 l 0,10.25 c 0,0.08378 0.041338,0.125 0.1253572,0.125 l 8.7123268,0 c 0.08402,0 0.125357,-0.04122 0.125357,-0.125 l 0,-10.25 c 0,0.170207 0.0013,0.147682 -0.03134,-0.03125 a 0.53794296,0.53641 0 0 1 0,-0.09375 0.53794296,0.53641 0 0 1 0,-0.03125 l 0,-0.03125 -0.752143,-1.375 -7.3333977,0 z" id="path57" fill="none"/><g id="g3624"><path d="m 16,10.5 a 5.5,5.5 0 0 1 -11,0 5.5,5.5 0 1 1 11,0 z" id="path16" fill="url(#0-7)"/><path stroke="#000" opacity="0.4" d="M 10.628906,5.4707031 C 7.3623239,5.2485309 4.601319,8.8807998 5.6894531,11.96875 a 0.47024577,0.47024577 0 0 1 0.011719,0.03516 c 0.8455484,3.163082 5.1738021,4.602198 7.7441401,2.574219 a 0.47024577,0.47024577 0 0 1 0.0293,-0.02148 c 2.621649,-1.764742 2.711782,-6.1139992 0.166016,-7.9863285 a 0.47024577,0.47024577 0 0 1 -0.01367,-0.011719 C 12.788185,5.8898064 11.720909,5.5015256 10.648438,5.4726562 a 0.47024577,0.47024577 0 0 1 -0.01953,-0.00195 z" id="path3512" fill="none"/><g transform="matrix(1 0 0 1 0 -1)" id="g3520" fill="#000"><rect stroke="none" width="1" height="1" opacity="1" stroke-width="1" stroke-dashoffset="0" stroke-dasharray="none" stroke-linejoin="round" id="rect3522" y="10" fill-rule="evenodd" x="9" stroke-miterlimit="4" fill="#000" stroke-linecap="round" stroke-opacity="1" fill-opacity="1"/><rect stroke="none" width="1" height="4" opacity="1" stroke-width="1" stroke-dashoffset="0" stroke-dasharray="none" stroke-linejoin="round" id="rect3524" y="10" fill-rule="evenodd" x="10" stroke-miterlimit="4" fill="#000" stroke-linecap="round" stroke-opacity="1" fill-opacity="1"/><rect stroke="none" width="1" height="1" opacity="1" stroke-width="1" stroke-dashoffset="0" stroke-dasharray="none" stroke-linejoin="round" id="rect3526" y="13" fill-rule="evenodd" x="11" stroke-miterlimit="4" fill="#000" stroke-linecap="round" stroke-opacity="1" fill-opacity="1"/><rect stroke="none" width="1" height="1" opacity="1" stroke-width="1" stroke-dashoffset="0" stroke-dasharray="none" stroke-linejoin="round" id="rect3528" y="8" fill-rule="evenodd" x="10" stroke-miterlimit="4" fill="#000" stroke-linecap="round" stroke-opacity="1" fill-opacity="1"/></g><g id="g3514"><rect stroke="none" width="1" height="1" opacity="1" stroke-width="1" stroke-dashoffset="0" stroke-dasharray="none" stroke-linejoin="round" id="rect3485" y="10" fill-rule="evenodd" x="9" stroke-miterlimit="4" fill="#fff" stroke-linecap="round" stroke-opacity="1" fill-opacity="1"/><rect stroke="none" width="1" height="4" opacity="1" stroke-width="1" stroke-dashoffset="0" stroke-dasharray="none" stroke-linejoin="round" id="rect3493" y="10" fill-rule="evenodd" x="10" stroke-miterlimit="4" fill="#fff" stroke-linecap="round" stroke-opacity="1" fill-opacity="1"/><rect stroke="none" width="1" height="1" opacity="1" stroke-width="1" stroke-dashoffset="0" stroke-dasharray="none" stroke-linejoin="round" id="rect3501" y="13" fill-rule="evenodd" x="11" stroke-miterlimit="4" fill="#fff" stroke-linecap="round" stroke-opacity="1" fill-opacity="1"/><rect stroke="none" width="1" height="1" opacity="1" stroke-width="1" stroke-dashoffset="0" stroke-dasharray="none" stroke-linejoin="round" id="rect3505" y="8" fill-rule="evenodd" x="10" stroke-miterlimit="4" fill="#fff" stroke-linecap="round" stroke-opacity="1" fill-opacity="1"/></g><path stroke="#fff" stroke-width="1" opacity="0.50999996" d="M 6.6056962,9.1101266 C 9,5 13,6 14.559494,9.385443" stroke-linejoin="miter" id="path3530" fill-rule="evenodd" fill="none" stroke-opacity="1" stroke-linecap="butt"/></g><path opacity="0.4" d="m 2.1123906,3.05 7.8844681,0 0,0.95 -7.8844681,0 z" id="path59" fill="#fff"/><metadata id="metadata9999"><rdf:RDF><cc:Work><dc:format>image/svg+xml</dc:format><dc:type rdf:resource="http://purl.org/dc/dcmitype/StillImage"/><dc:title/><cc:license rdf:resource="http://creativecommons.org/licenses/by-sa/4.0/"/><dc:creator><cc:Agent><dc:title>Sixsixfive (sixsixfive.deviantart.com)</dc:title></cc:Agent></dc:creator><dc:publisher><cc:Agent><dc:title>Sixsixfive (sixsixfive.deviantart.com)</dc:title></cc:Agent></dc:publisher><dc:source>https://github.com/sixsixfive</dc:source><dc:subject><rdf:Bag><rdf:li>ivy</rdf:li></rdf:Bag></dc:subject><dc:contributor><cc:Agent><dc:title>ssf</dc:title></cc:Agent></dc:contributor><dc:rights><cc:Agent><dc:title>Sixsixfive (sixisixfive.deviantart.com)</dc:title></cc:Agent></dc:rights><dc:description>A simple icon theme published under CC-BY-SA_V4(http://creativecommons.org/licenses/by-sa/4.0)</dc:description><dc:identifier>SSF</dc:identifier></cc:Work></rdf:RDF></metadata><!--Part of the Ivy icon them published under the CC-BY-SA_V4: http://creativecommons.org/licenses/by-sa/4.0 -->
</svg>