<?xml version="1.0" encoding="UTF-8" standalone="no"?>
<svg xmlns:dc="http://purl.org/dc/elements/1.1/" xmlns:cc="http://creativecommons.org/ns#" xmlns:rdf="http://www.w3.org/1999/02/22-rdf-syntax-ns#" xmlns:svg="http://www.w3.org/2000/svg" xmlns="http://www.w3.org/2000/svg" id="svg2" version="1.0" viewBox="0 0 16 16">
 <defs id="defs2608"/>
 <path id="path4333" d="M 11.0625,0.01171875 C 8.412131,0.01171851 6.2632403,2.1427803 6.1699219,4.7714844 L 4.6992188,3.3007812 A 0.98913415,0.98913415 0 0 0 4,3.0117188 l -3,0 A 0.98913415,0.98913415 0 0 0 0.01171875,4 l 0,3 a 0.98913415,0.98913415 0 0 0 0.3203125,0.7304688 L 2.1796875,9.421875 0.30078125,11.300781 A 0.98913415,0.98913415 0 0 0 0.01171875,12 l 0,3 A 0.98913415,0.98913415 0 0 0 1,15.988281 l 3,0 A 0.98913415,0.98913415 0 0 0 4.6992188,15.699219 L 5.4101562,14.988281 6,14.988281 A 0.98913415,0.98913415 0 0 0 6.9882812,14 l 0,-0.185547 2.09375,1.916016 A 0.98913415,0.98913415 0 0 0 9.75,15.988281 l 2.25,0 A 0.98913415,0.98913415 0 0 0 12.988281,15 l 0,-3 A 0.98913415,0.98913415 0 0 0 12.699219,11.300781 L 11.228516,9.8300781 c 2.628703,-0.093318 4.759765,-2.2422089 4.759765,-4.8925781 0,-2.7091356 -2.216646,-4.92578125 -4.925781,-4.92578125 z" fill="#6a6a6a" fill-rule="evenodd"/>
 <path d="m 11.0625,1 c -2.174621,-2e-7 -3.9375,1.7628788 -3.9375,3.9375001 0.00153,0.2832244 0.033621,0.5654567 0.095703,0.8417969 L 6.5,6.5 4,4 1,4 1,7 3.611328,9.388672 1,12 1,15 4,15 5,14 6,14 6,13 6.7460939,12.253906 9.75,15 12,15 12,12 9.5,9.5 10.21875,8.7812501 C 10.495799,8.8428167 10.778693,8.8742494 11.0625,8.875 13.237121,8.875 15,7.1121214 15,4.9375001 15,2.7628789 13.237121,1 11.0625,1 Z" id="path4192" fill="#ebebeb" fill-rule="evenodd"/>
 <path d="M 11 2 A 3 3 0 0 0 8 5 A 3 3 0 0 0 8.1738281 6 L 8 6 L 8 7 L 7 7 L 7 8 L 6 8 L 6 7 L 5 7 L 5 6 L 4 6 L 4 5 L 3 5 L 2 5 L 2 6 L 2 7 L 3 7 L 3 8 L 4 8 L 4 9 L 5 9 L 5 10 L 4 10 L 4 11 L 3 11 L 3 12 L 2 12 L 2 13 L 2 14 L 3 14 L 4 14 L 4 13 L 5 13 L 5 12 L 6 12 L 6 11 L 7 11 L 7 12 L 8 12 L 8 13 L 9 13 L 9 14 L 10 14 L 11 14 L 11 13 L 11 12 L 10 12 L 10 11 L 9 11 L 9 10 L 8 10 L 8 9 L 9 9 L 9 8 L 10 8 L 10 7.8242188 A 3 3 0 0 0 11 8 A 3 3 0 0 0 14 5 A 3 3 0 0 0 11 2 z " id="path4289" opacity="1" stroke-dasharray="3 1" stroke-opacity="1" fill="#66b03e" stroke="none" stroke-linejoin="round" fill-opacity="1" stroke-linecap="round" stroke-width="1" stroke-dashoffset="0" stroke-miterlimit="4"/>
 <circle r="1" cy="5" cx="11" id="path4200" opacity="1" stroke-dasharray="8.625 2.875" stroke-opacity="1" fill="#ebebeb" stroke="none" stroke-linejoin="round" fill-opacity="1" stroke-linecap="round" stroke-width="2.875" stroke-dashoffset="0" stroke-miterlimit="4"/>
 <metadata id="metadata9999">
  <rdf:RDF>
   <cc:Work>
    <dc:format>image/svg+xml</dc:format>
    <dc:type rdf:resource="http://purl.org/dc/dcmitype/StillImage"/>
    <dc:title>Ivy icon theme</dc:title>
    <cc:license rdf:resource="http://creativecommons.org/licenses/by-sa/4.0/"/>
    <dc:creator>
     <cc:Agent>
      <dc:title>Sixsixfive (sixsixfive.deviantart.com)</dc:title>
     </cc:Agent>
    </dc:creator>
    <dc:publisher>
     <cc:Agent>
      <dc:title>Sixsixfive (sixsixfive.deviantart.com)</dc:title>
     </cc:Agent>
    </dc:publisher>
    <dc:source>https://github.com/sixsixfive</dc:source>
    <dc:subject>
     <rdf:Bag>
      <rdf:li>ivy</rdf:li>
     </rdf:Bag>
    </dc:subject>
    <dc:contributor>
     <cc:Agent>
      <dc:title>ssf</dc:title>
     </cc:Agent>
    </dc:contributor>
    <dc:rights>
     <cc:Agent>
      <dc:title>Sixsixfive (sixisixfive.deviantart.com)</dc:title>
     </cc:Agent>
    </dc:rights>
    <dc:description>A simple icon theme published under CC-BY-SA_V4(http://creativecommons.org/licenses/by-sa/4.0)</dc:description>
    <dc:identifier>SSF</dc:identifier>
   </cc:Work>
  </rdf:RDF>
 </metadata>
 <!--Part of the Ivy icon them published under the CC-BY-SA_V4: http://creativecommons.org/licenses/by-sa/4.0 -->
</svg>
