<?xml version="1.0" encoding="UTF-8" standalone="no"?>
<svg
   xmlns:dc="http://purl.org/dc/elements/1.1/"
   xmlns:cc="http://creativecommons.org/ns#"
   xmlns:rdf="http://www.w3.org/1999/02/22-rdf-syntax-ns#"
   xmlns:svg="http://www.w3.org/2000/svg"
   xmlns="http://www.w3.org/2000/svg"
   xmlns:xlink="http://www.w3.org/1999/xlink"
   version="1.1"
   id="svg2"
   viewBox="0 0 16 16">
  <defs
     id="defs4" />
  <g
     fill="#171717"
     id="g4">
    <path
       d="M 0,0 16,0 16,15 0,15 Z"
       id="path8" />
  </g>
  <path
     d="M 0,0 H16 V5 H0 z"
     id="path10"
     fill="#5288d1" />
  <g
     stroke="#000"
     fill="none"
     id="g12">
    <path
       stroke-width="0.999"
       opacity="0.4"
       d="M 0.9797,4.4995 14.9999,4.5006"
       id="path14" />
    <path
       opacity="0.5"
       d="m 0.5,0.5 0,14 15,0 0,-14 -15,0 z"
       id="path16" />
  </g>
  <g
     id="g24"
     style="fill:#ffffff"
     transform="translate(-2,4)">
    <path
       id="path26-8"
       d="M 4,4 5,4 5,5 4,5 Z" />
    <path
       id="path28-0"
       d="M 6,3 7,3 7,6 6,6 Z" />
    <path
       id="path30-1"
       d="M 8,5 9,5 9,6 8,6 Z" />
  </g>
  <g
     fill="#fff"
     id="g18">
    <path
       opacity="0.47"
       d="M 1,1 15,1 15,2 1,2 Z"
       id="path20" />
    <path
       d="M 2,2 3,2 3,3 2,3 Z"
       id="path22" />
    <path
       d="M 4,2 5,2 5,3 4,3 Z"
       id="path24" />
    <path
       d="M 6,2 7,2 7,3 6,3 Z"
       id="path26" />
  </g>
  <path
     d="M 2,3 H3 V4 H2 z"
     id="path28"
     opacity="0.266" />
  <path
     d="M 4,3 H5 V4 H4 z"
     id="path30"
     opacity="0.266" />
  <path
     d="M 6,3 H7 V4 H6 z"
     id="path32"
     opacity="0.266" />
  <path
     d="M 1,2 H2 V3 H1 z"
     id="path34"
     opacity="0.266" />
  <path
     d="M 3,2 H4 V3 H3 z"
     id="0"
     opacity="0.266" />
  <path
     d="M 5,2 H6 V3 H5 z"
     id="1"
     opacity="0.266" />
  <path
     d="M 2,1 H3 V2 H2 z"
     id="path38"
     opacity="0.266" />
  <path
     d="M 4,1 H5 V2 H4 z"
     id="path40"
     opacity="0.266" />
  <path
     d="M 6,1 H7 V2 H6 z"
     id="path42"
     opacity="0.266" />
  <use
     xlink:href="#0"
     id="use44" />
  <use
     xlink:href="#1"
     id="use46" />
  <path
     d="M 7,2 H8 V3 H7 z"
     id="path48"
     opacity="0.266" />
  <path
     d="M 0.9797,5.4995 14.9999,5.5006"
     stroke-width="0.999"
     id="path50"
     stroke="#fff"
     fill="none"
     opacity="0.2" />
  <metadata
     id="metadata9999">
    <rdf:RDF>
      <cc:Work>
        <dc:format>image/svg+xml</dc:format>
        <dc:type
           rdf:resource="http://purl.org/dc/dcmitype/StillImage" />
        <dc:title></dc:title>
        <cc:license
           rdf:resource="http://creativecommons.org/licenses/by-sa/4.0/" />
        <dc:creator>
          <cc:Agent>
            <dc:title>Sixsixfive (sixsixfive.deviantart.com)</dc:title>
          </cc:Agent>
        </dc:creator>
        <dc:publisher>
          <cc:Agent>
            <dc:title>Sixsixfive (sixsixfive.deviantart.com)</dc:title>
          </cc:Agent>
        </dc:publisher>
        <dc:source>https://github.com/sixsixfive</dc:source>
        <dc:subject>
          <rdf:Bag>
            <rdf:li>ivy</rdf:li>
          </rdf:Bag>
        </dc:subject>
        <dc:contributor>
          <cc:Agent>
            <dc:title>ssf</dc:title>
          </cc:Agent>
        </dc:contributor>
        <dc:rights>
          <cc:Agent>
            <dc:title>Sixsixfive (sixisixfive.deviantart.com)</dc:title>
          </cc:Agent>
        </dc:rights>
        <dc:description>A simple icon theme published under CC-BY-SA_V4(http://creativecommons.org/licenses/by-sa/4.0)</dc:description>
        <dc:identifier>SSF</dc:identifier>
      </cc:Work>
    </rdf:RDF>
  </metadata>
  <!--Part of the Ivy icon them published under the CC-BY-SA_V4: http://creativecommons.org/licenses/by-sa/4.0 -->
</svg>
