<?xml version="1.0" encoding="UTF-8" standalone="no"?><svg viewBox="0 0 16 16" xmlns:svg="http://www.w3.org/2000/svg" xmlns="http://www.w3.org/2000/svg" xmlns:rdf="http://www.w3.org/1999/02/22-rdf-syntax-ns#" xmlns:xlink="http://www.w3.org/1999/xlink" version="1.1" id="svg2" xmlns:dc="http://purl.org/dc/elements/1.1/" xmlns:cc="http://creativecommons.org/ns#"><defs id="defs4"/><g id="g4" fill="#171717"><path id="path8" d="M 0,0 16,0 16,15 0,15 Z"/></g><path id="path10" d="M 0,0 H16 V5 H0 z" fill="#5288d1"/><g stroke="#000" id="g12" fill="none"><path stroke-width="0.999" opacity="0.4" id="path14" d="M 0.9797,4.4995 14.9999,4.5006"/><path opacity="0.5" id="path16" d="m 0.5,0.5 0,14 15,0 0,-14 -15,0 z"/></g><g transform="matrix(1 0 0 1 -2 4)" id="g24" fill="#fff"><path id="path26-8" d="M 4,4 5,4 5,5 4,5 Z"/><path id="path28-0" d="M 6,3 7,3 7,6 6,6 Z"/><path id="path30-1" d="M 8,5 9,5 9,6 8,6 Z"/></g><g id="g18" fill="#fff"><path opacity="0.47" id="path20" d="M 1,1 15,1 15,2 1,2 Z"/><path id="path22" d="M 2,2 3,2 3,3 2,3 Z"/><path id="path24" d="M 4,2 5,2 5,3 4,3 Z"/><path id="path26" d="M 6,2 7,2 7,3 6,3 Z"/></g><path opacity="0.266" id="path28" d="M 2,3 H3 V4 H2 z"/><path opacity="0.266" id="path30" d="M 4,3 H5 V4 H4 z"/><path opacity="0.266" id="path32" d="M 6,3 H7 V4 H6 z"/><path opacity="0.266" id="path34" d="M 1,2 H2 V3 H1 z"/><path opacity="0.266" id="0" d="M 3,2 H4 V3 H3 z"/><path opacity="0.266" id="1" d="M 5,2 H6 V3 H5 z"/><path opacity="0.266" id="path38" d="M 2,1 H3 V2 H2 z"/><path opacity="0.266" id="path40" d="M 4,1 H5 V2 H4 z"/><path opacity="0.266" id="path42" d="M 6,1 H7 V2 H6 z"/><use xlink:href="#0" id="use44"/><use xlink:href="#1" id="use46"/><path opacity="0.266" id="path48" d="M 7,2 H8 V3 H7 z"/><path stroke="#fff" stroke-width="0.999" opacity="0.2" id="path50" d="M 0.9797,5.4995 14.9999,5.5006" fill="none"/><metadata id="metadata9999"><rdf:RDF><cc:Work><dc:format>image/svg+xml</dc:format><dc:type rdf:resource="http://purl.org/dc/dcmitype/StillImage"/><dc:title/><cc:license rdf:resource="http://creativecommons.org/licenses/by-sa/4.0/"/><dc:creator><cc:Agent><dc:title>Sixsixfive (sixsixfive.deviantart.com)</dc:title></cc:Agent></dc:creator><dc:publisher><cc:Agent><dc:title>Sixsixfive (sixsixfive.deviantart.com)</dc:title></cc:Agent></dc:publisher><dc:source>https://github.com/sixsixfive</dc:source><dc:subject><rdf:Bag><rdf:li>ivy</rdf:li></rdf:Bag></dc:subject><dc:contributor><cc:Agent><dc:title>ssf</dc:title></cc:Agent></dc:contributor><dc:rights><cc:Agent><dc:title>Sixsixfive (sixisixfive.deviantart.com)</dc:title></cc:Agent></dc:rights><dc:description>A simple icon theme published under CC-BY-SA_V4(http://creativecommons.org/licenses/by-sa/4.0)</dc:description><dc:identifier>SSF</dc:identifier></cc:Work></rdf:RDF></metadata><!--Part of the Ivy icon them published under the CC-BY-SA_V4: http://creativecommons.org/licenses/by-sa/4.0 -->
</svg>