<?xml version="1.0" encoding="UTF-8" standalone="no"?><svg xmlns:xlink="http://www.w3.org/1999/xlink" xmlns:cc="http://creativecommons.org/ns#" viewBox="0 0 16 16" version="1.1" id="svg2" xmlns:svg="http://www.w3.org/2000/svg" xmlns:rdf="http://www.w3.org/1999/02/22-rdf-syntax-ns#" xmlns="http://www.w3.org/2000/svg" xmlns:dc="http://purl.org/dc/elements/1.1/"><defs id="defs4"><linearGradient x2="-8.254" gradientUnits="userSpaceOnUse" x1="-8.372" y2="22.531" id="0" gradientTransform="matrix(0.24657 0 0 0.50768 -0.491 4.374)" y1="15.469"><stop stop-color="#ebebeb" id="stop7"/><stop offset="1" stop-color="#b7b7b7" id="stop9"/></linearGradient><linearGradient id="1"><stop stop-color="#fff" id="stop12"/><stop offset="1" stop-opacity="0" stop-color="#fff" id="stop14"/></linearGradient><linearGradient x2="0" gradientUnits="userSpaceOnUse" y2="2" id="3" gradientTransform="matrix(0.37195 0 0 0.38089 -16.227 -16.762)" y1="44.01"><stop stop-color="#dedede" id="stop18"/><stop offset="1" stop-color="#f4f4f4" id="stop20"/></linearGradient><linearGradient x2="0" gradientUnits="userSpaceOnUse" xlink:href="#1" y2="1.99" id="4" gradientTransform="matrix(-0.37195 0 0 -0.38089 16.235 16.758)" y1="43.997"/><radialGradient gradientUnits="userSpaceOnUse" r="5.533" cx="-36.514" cy="26.712" id="5" gradientTransform="matrix(0.40911 -0.35335 0.50465 0.28689 15.747 -6.516)"><stop stop-color="#f1d6a5" id="stop24"/><stop offset="1" stop-color="#d49320" id="stop26"/></radialGradient><radialGradient gradientUnits="userSpaceOnUse" r="14.5" cx="0.704" cy="16.184" id="6" gradientTransform="matrix(-0.1963 -0.2357 0.09354 -0.15865 -1.785 16.483)"><stop stop-color="#f28099" id="stop29"/><stop offset="1" stop-color="#ed4c70" id="stop31"/></radialGradient></defs><rect height="15.997" width="13" rx="0.46" fill="url(#3)" ry="0.46" id="rect33" x="-14" transform="matrix(-1 0 0 -1 0 0)" y="-16"/><path opacity="0.724" fill="#fff" id="path35" transform="matrix(1 0 0 1 -1 0)" d="M 13.09375 0 C 12.462791 0.128459 12 0.704523 12 1.375 v 0.375 v 7.15625 v 3.15625 v 0.03125 h 0.03125 L 14.0625 16 l 2 -3.9375 v -3.15625 v -7.53125 C 16.0625 0.609056 15.422465 0 14.65625 0 H 13.375 c -0.09771 0 -0.193041 -0.017959 -0.28125 0 z"/><g fill="none" id="g37"><path opacity="0.4" id="path39" stroke="#000" d="m 13.4749,0.5322 -11.9375,0 0,14.9375 11.9375,0 0,-14.9375 z"/><path opacity="0.81" id="path41" stroke="url(#4)" d="m 12.5062,1.5322 -10,0 0,12.9375 10,0 0,-12.9375 z"/></g><g id="g43" transform="matrix(1 0 0 1 19.801 0.333)"><path opacity="0.3" id="path45" d="m -15.801,2.667 7.04,0 0,1 -7.04,0 z"/><path opacity="0.3" id="path47" d="m -15.845,4.667 5.04,0 0,1 -5.04,0 z"/><path opacity="0.3" id="path49" d="m -15.845,6.667 6.04,0 0,1 -6.04,0 z"/><path opacity="0.3" id="path51" d="m -15.845,8.667 4.04,0 0,1 -4.04,0 z"/><path opacity="0.3" id="path53" d="m -15.845,10.667 5.04,0 0,1 -5.04,0 z"/><g fill="#fff" id="g55"><path opacity="0.4" id="path57" d="m -15.801,3.667 7.04,0 0,1 -7.04,0 z"/><path opacity="0.4" id="path59" d="m -15.845,5.667 5.04,0 0,1 -5.04,0 z"/><path opacity="0.4" id="path61" d="m -15.845,7.667 6.04,0 0,1 -6.04,0 z"/><path opacity="0.4" id="path63" d="m -15.845,9.667 4.04,0 0,1 -4.04,0 z"/><path opacity="0.4" id="path65" d="m -15.845,11.667 5.04,0 0,1 -5.04,0 z"/></g></g><g id="g73" transform="matrix(0 -1 1 0 0 0)"><path opacity="0.67" fill="#eed45a" id="path75" d="m -12.08,11.989 10.316,0 0,4.061 -10.316,0 z"/><path fill="url(#6)" id="rect77" d="m -8.9110005,11.989 7.5320001,0 c 0.77116795,0 1.39199993,0.620832 1.39199993,1.392 l 0,1.277 c 0,0.771168 -0.62083198,1.392 -1.39199993,1.392 l -7.5320001,0 C -9.6821685,16.05 -10.303,15.429168 -10.303,14.658 l 0,-1.277 c 0,-0.771168 0.6208315,-1.392 1.3919995,-1.392 z"/></g><path fill="url(#5)" id="path79" d="m 11.9889,12.0583 4.0614,0 -1.9912,3.9366 c -2.07019,-3.93663 0,0 -2.07019,-3.93663 z"/><g id="g81" transform="matrix(0 -1 1 0 0 0)"><path fill="#a07018" id="path83" d="m -12.08,15.03 10.162,0 0,1.015 -10.162,0 z"/><path fill="#e4ae4e" id="path85" d="m -12.08,13.02 10.06,0 0,2.01 -10.06,0 z"/><path fill="#eecd92" id="path87" d="m -12.08,11.989 10.111,0 0,1.01 -10.111,0 z"/><path fill="url(#0)" id="path89" d="m -2.957,11.989 0.986,0 0,4.061 -0.986,0 z"/></g><path fill="#6a6a6a" id="path91" d="m 13.0126,13.985 1.0388,2.0099 0.9814,-1.9842 z"/><path opacity="0.06" id="path93" d="M 12.512,12.03 H15.481 V12.977 H12.512 z"/><path stroke-linejoin="round" opacity="0.34" fill="none" id="path95" stroke="#000" d="M 13.1875,0.5 C 12.788367,0.581261 12.5,0.927203 12.5,1.375 V 1.75 8.90625 11.9375 l 1.5625,3 1.5,-3 V 8.90625 1.375 C 15.5625,0.879078 15.165735,0.5 14.65625,0.5 H 13.375 c -0.160622,0 -0.22722,0.008087 -0.1875,0 z"/><metadata id="metadata9999"><rdf:RDF><cc:Work><dc:format>image/svg+xml</dc:format><dc:type rdf:resource="http://purl.org/dc/dcmitype/StillImage"/><dc:title/><cc:license rdf:resource="http://creativecommons.org/licenses/by-sa/4.0/"/><dc:creator><cc:Agent><dc:title>Sixsixfive (sixsixfive.deviantart.com)</dc:title></cc:Agent></dc:creator><dc:publisher><cc:Agent><dc:title>Sixsixfive (sixsixfive.deviantart.com)</dc:title></cc:Agent></dc:publisher><dc:source>https://github.com/sixsixfive</dc:source><dc:subject><rdf:Bag><rdf:li>ivy</rdf:li></rdf:Bag></dc:subject><dc:contributor><cc:Agent><dc:title>ssf</dc:title></cc:Agent></dc:contributor><dc:rights><cc:Agent><dc:title>Sixsixfive (sixisixfive.deviantart.com)</dc:title></cc:Agent></dc:rights><dc:description>A simple icon theme published under CC-BY-SA_V4(http://creativecommons.org/licenses/by-sa/4.0)</dc:description><dc:identifier>SSF</dc:identifier></cc:Work></rdf:RDF></metadata><!--Part of the Ivy icon them published under the CC-BY-SA_V4: http://creativecommons.org/licenses/by-sa/4.0 -->
</svg>