<?xml version="1.0" encoding="UTF-8" standalone="no"?><svg viewBox="0 0 16 16" xmlns:svg="http://www.w3.org/2000/svg" xmlns="http://www.w3.org/2000/svg" xmlns:rdf="http://www.w3.org/1999/02/22-rdf-syntax-ns#" version="1.1" id="svg2" xmlns:dc="http://purl.org/dc/elements/1.1/" xmlns:cc="http://creativecommons.org/ns#"><defs id="defs4"><linearGradient y1="3" x2="0" y2="45" gradientTransform="matrix(0.38095 0 0 0.38084 -1.143 -1.143)" id="0" gradientUnits="userSpaceOnUse"><stop id="stop7" stop-color="#ffb636"/><stop offset="1" id="stop9" stop-color="#ffe775"/></linearGradient><linearGradient y1="1" x2="0" y2="15" id="1" gradientUnits="userSpaceOnUse"><stop id="stop12" stop-color="#fff"/><stop stop-opacity="0" offset="1" id="stop14" stop-color="#fff"/></linearGradient></defs><rect ry="1.523" rx="1.524" height="15.995" id="rect16" width="16" fill="url(#0)"/><g id="g18" fill="none"><path stroke="#000" opacity="0.4" id="path20" d="M 1.53125,0.5 C 0.953503,0.5 0.5,0.953706 0.5,1.53125 l 0,12.9375 C 0.5,15.04629 0.953503,15.5 1.53125,15.5 l 12.9375,0 C 15.0465,15.5 15.5,15.0463 15.5,14.46875 l 0,-12.9375 C 15.5,0.953705 15.0465,0.5 14.46875,0.5 l -12.9375,0 z"/><path stroke="url(#1)" opacity="0.4" id="path22" d="M 1.53125,1.5 C 1.504466,1.5 1.5,1.504632 1.5,1.53125 l 0,12.9375 C 1.5,14.49537 1.50447,14.5 1.53125,14.5 l 12.9375,0 C 14.49554,14.5 14.5,14.4954 14.5,14.46875 l 0,-12.9375 C 14.5,1.504631 14.495535,1.5 14.46875,1.5 l -12.9375,0 z"/></g><g transform="matrix(0.33 0 0 0.33 16.881 0.414)" id="g24"><path stroke-width="3.03" opacity="0.66" id="path26" d="m -32.973,-1.251 9.09,0 0,27.27 -9.09,0 z" fill="#6a6a6a"/><path opacity="0.66" id="path28" d="m -29.942,-1.251 3.03,0 0,24.24 -3.03,0 z"/><g id="g30" fill="#535353"><path id="path32" d="m -36,19.961 15.15,0 0,6.06 -15.15,0 z"/><path stroke-width="3.03" id="path34" d="m -32.973,26.02 9.09,0 0,9.09 -9.09,0 z"/></g><g stroke-width="3.03" id="g36"><path opacity="0.66" id="path38" d="m -29.942,29.05 3.03,0 0,3.03 -3.03,0 z" fill="#eed45a"/><path opacity="0.4" id="path40" d="m -32.973,16.931 6.06,0 0,3.03 -6.06,0 z"/></g><path opacity="0.4" id="path42" d="m -32.973,10.871 6.06,0 0,3.03 -6.06,0 z"/><path opacity="0.4" id="path44" d="m -32.973,4.81 6.06,0 0,3.03 -6.06,0 z"/><path opacity="0.4" id="path46" d="m -32.973,-1.251 6.06,0 0,3.03 -6.06,0 z"/><path opacity="0.4" id="path48" d="m -26.912,1.78 3.03,0 0,3.03 -3.03,0 z"/><path opacity="0.4" id="path50" d="m -26.912,7.84 3.03,0 0,3.03 -3.03,0 z"/><path opacity="0.4" id="path52" d="m -26.912,13.901 3.03,0 0,3.03 -3.03,0 z"/><g id="g54" fill="#fff"><path opacity="0.4" id="path56" d="m -32.973,13.901 6.06,0 0,3.03 -6.06,0 z"/><path opacity="0.4" id="path58" d="m -32.973,7.84 6.06,0 0,3.03 -6.06,0 z"/><path opacity="0.4" id="path60" d="m -32.973,1.78 6.06,0 0,3.03 -6.06,0 z"/><path opacity="0.4" id="path62" d="m -26.912,-1.251 3.03,0 0,3.03 -3.03,0 z"/><path opacity="0.4" id="path64" d="m -26.912,4.81 3.03,0 0,3.03 -3.03,0 z"/><path opacity="0.4" id="path66" d="m -26.912,10.871 3.03,0 0,3.03 -3.03,0 z"/><path opacity="0.4" id="path68" d="m -26.912,16.931 3.03,0 0,3.03 -3.03,0 z"/></g></g><rect stroke-linejoin="round" y="12" x="6" opacity="0.4" stroke-linecap="round" height="1" id="rect4201" width="3" fill="#fff"/><rect stroke-linejoin="round" y="9" x="5" opacity="0.4" stroke-linecap="round" height="1" id="rect4203" width="1" fill="#fff"/><rect stroke-linejoin="round" y="9" x="9" opacity="0.4" stroke-linecap="round" height="1" id="rect4205" width="1" fill="#fff"/><metadata id="metadata9999"><rdf:RDF><cc:Work><dc:format>image/svg+xml</dc:format><dc:type rdf:resource="http://purl.org/dc/dcmitype/StillImage"/><dc:title>Ivy icon theme</dc:title><cc:license rdf:resource="http://creativecommons.org/licenses/by-sa/4.0/"/><dc:creator><cc:Agent><dc:title>Sixsixfive (sixsixfive.deviantart.com)</dc:title></cc:Agent></dc:creator><dc:publisher><cc:Agent><dc:title>Sixsixfive (sixsixfive.deviantart.com)</dc:title></cc:Agent></dc:publisher><dc:source>https://github.com/sixsixfive</dc:source><dc:subject><rdf:Bag><rdf:li>ivy</rdf:li></rdf:Bag></dc:subject><dc:contributor><cc:Agent><dc:title>ssf</dc:title></cc:Agent></dc:contributor><dc:rights><cc:Agent><dc:title>Sixsixfive (sixisixfive.deviantart.com)</dc:title></cc:Agent></dc:rights><dc:description>A simple icon theme published under CC-BY-SA_V4(http://creativecommons.org/licenses/by-sa/4.0)</dc:description><dc:identifier>SSF</dc:identifier></cc:Work></rdf:RDF></metadata><!--Part of the Ivy icon them published under the CC-BY-SA_V4: http://creativecommons.org/licenses/by-sa/4.0 -->
</svg>