<?xml version="1.0" encoding="UTF-8" standalone="no"?>
<svg
   xmlns:dc="http://purl.org/dc/elements/1.1/"
   xmlns:cc="http://creativecommons.org/ns#"
   xmlns:rdf="http://www.w3.org/1999/02/22-rdf-syntax-ns#"
   xmlns:svg="http://www.w3.org/2000/svg"
   xmlns="http://www.w3.org/2000/svg"
   xmlns:xlink="http://www.w3.org/1999/xlink"
   viewBox="0 0 16 16"
   version="1.1"
   id="svg9999"
   width="16"
   height="16">
  <defs
     id="defs7">
    <linearGradient
       id="linearGradient4146">
      <stop
         id="stop4148"
         offset="0"
         style="stop-color:#ffd508;stop-opacity:1" />
      <stop
         id="stop4150"
         offset="1"
         style="stop-color:#ffd506;stop-opacity:1" />
    </linearGradient>
    <linearGradient
       gradientUnits="userSpaceOnUse"
       y2="16"
       x2="15"
       y1="0"
       x1="15"
       id="linearGradient4152"
       xlink:href="#linearGradient4146" />
  </defs>
  <title
     id="title9999">Ivy icon theme</title>
  <metadata
     id="metadata9999">
    <rdf:RDF>
      <cc:Work>
        <dc:format>image/svg+xml</dc:format>
        <dc:type
           rdf:resource="http://purl.org/dc/dcmitype/StillImage" />
        <dc:title>Ivy icon theme</dc:title>
        <cc:license
           rdf:resource="http://creativecommons.org/licenses/by-sa/4.0/" />
        <dc:creator>
          <cc:Agent>
            <dc:title>Sixsixfive (sixisixfive.deviantart.com)</dc:title>
          </cc:Agent>
        </dc:creator>
        <dc:publisher>
          <cc:Agent>
            <dc:title>Sixsixfive (sixisixfive.deviantart.com)</dc:title>
          </cc:Agent>
        </dc:publisher>
        <dc:source>https://github.com/sixsixfive</dc:source>
        <dc:subject>
          <rdf:Bag>
            <rdf:li>ivy</rdf:li>
          </rdf:Bag>
        </dc:subject>
        <dc:contributor>
          <cc:Agent>
            <dc:title>ssf</dc:title>
          </cc:Agent>
        </dc:contributor>
        <dc:rights>
          <cc:Agent>
            <dc:title>Sixsixfive (sixisixfive.deviantart.com)</dc:title>
          </cc:Agent>
        </dc:rights>
        <dc:description>A simple icon theme published under CC-BY-SA(http://creativecommons.org/licenses/by-sa/4.0/)</dc:description>
        <dc:identifier>SSF</dc:identifier>
      </cc:Work>
    </rdf:RDF>
  </metadata>
  <path
     style="fill:url(#linearGradient4152);fill-opacity:1;stroke:none;stroke-width:5.14706993;stroke-miterlimit:4;stroke-dasharray:none"
     d="M 8 0 C 5.6659902 0 3.9665805 1.5167629 4 3.3476562 C 4.024233 4.6749515 4.5007809 5.4171211 6 7 L 1 7 L 1 10 L 6 10 L 5 16 L 8 16 L 11 16 L 10 10 L 15 10 L 15 7 L 10 7 C 11.49922 5.4171211 11.975767 4.6749515 12 3.3476562 C 12.033419 1.516763 10.33401 2.9605947e-16 8 0 z M 8 2 A 1 1.5 0 0 1 9 3.5 A 1 1.5 0 0 1 8 5 A 1 1.5 0 0 1 7 3.5 A 1 1.5 0 0 1 8 2 z "
     id="path2987" />
  <path
     id="path4158"
     d="M 5.4366948,2.9486241 C 6.3390914,1 9.7327185,1 10.537617,3"
     style="fill:none;fill-rule:evenodd;stroke:#ffffff;stroke-width:1px;stroke-linecap:butt;stroke-linejoin:miter;stroke-opacity:1;opacity:0.6" />
  <path
     id="path4154"
     d="m 2,8.1 4,0"
     style="fill:none;fill-rule:evenodd;stroke:#ffffff;stroke-width:1px;stroke-linecap:butt;stroke-linejoin:miter;stroke-opacity:1;opacity:0.6" />
  <path
     id="path4156"
     d="m 10,8.1 4,0"
     style="fill:none;fill-rule:evenodd;stroke:#ffffff;stroke-width:1px;stroke-linecap:butt;stroke-linejoin:miter;stroke-opacity:1;opacity:0.6" />
  <path
     id="path4142"
     d="M 7.9882812,0.50976562 C 6.4575318,0.46233039 4.6904145,1.4334258 4.5173972,3.0797376 4.4041407,4.1203829 4.9479392,5.0930137 5.6156158,5.844322 5.8373336,6.132024 6.8134882,6.7666177 6.2547858,7.3421699 5.7605945,7.657725 5.6338644,7.4607289 5.1671278,7.5097656 l -3.6573622,0 0,1.9804688 c 1.5302836,0.00689 3.0623125,-0.013781 4.591505,0.010348 0.4128646,0.073309 0.4639947,0.5469616 0.3518462,0.8766306 l -0.8515543,5.113021 4.7968755,0 C 10.099496,13.65394 9.7734986,11.820432 9.4914005,9.9824033 9.4949917,9.563241 9.9535332,9.4334287 10.297268,9.4902344 l 4.192966,0 0,-1.9804688 C 12.95994,7.5029756 11.427942,7.5233456 9.898714,7.4995686 9.4521618,7.4275853 9.3555769,6.7949448 9.7205828,6.5538807 10.626077,5.6074228 11.658653,4.4627072 11.480405,3.0472912 11.298628,1.4011527 9.5107696,0.45703072 7.9882812,0.50976562 Z M 8.0256879,2.4406879 C 9.1445037,2.5225651 9.6585845,2.8486138 9.4809966,3.8404595 9.4764831,4.7577197 8.6159908,5.7106656 7.6544175,5.4614568 6.5848521,5.0712639 6.2726965,4.1769682 6.6181532,3.1864749 6.8265702,2.6038224 7.3547602,2.4341054 8.0256879,2.4406879 Z"
     style="opacity:0.5;fill:none;fill-opacity:1;stroke:#000000;stroke-width:1;stroke-linecap:round;stroke-linejoin:round;stroke-miterlimit:4;stroke-dasharray:none" />
</svg>
