<?xml version="1.0" encoding="UTF-8" standalone="no"?>
<svg xmlns:dc="http://purl.org/dc/elements/1.1/" xmlns:cc="http://creativecommons.org/ns#" xmlns:rdf="http://www.w3.org/1999/02/22-rdf-syntax-ns#" xmlns:svg="http://www.w3.org/2000/svg" xmlns="http://www.w3.org/2000/svg" viewBox="0 0 16 16" id="svg2" version="1.1">
 <defs id="defs4">
  <linearGradient id="0" y1="1010.36" y2="1015.36" gradientUnits="userSpaceOnUse" x2="0" gradientTransform="matrix(0.34211 0 0 0.40217901 -0.711 -405.33608)">
   <stop stop-color="#eabd70" id="stop7"/>
   <stop offset="1" stop-color="#f2d8aa" id="stop9"/>
  </linearGradient>
  <linearGradient id="1" y1="1019.36" y2="1043.36" gradientUnits="userSpaceOnUse" x2="0" gradientTransform="matrix(0.3000031 0 0 0.29167 0.299593 -292.31821)">
   <stop stop-color="#fff" id="stop12" stop-opacity="0.238"/>
   <stop offset="1" stop-color="#ed4c70" id="stop14" stop-opacity="0"/>
  </linearGradient>
  <radialGradient cx="23" cy="1049.17" id="2" r="19" gradientUnits="userSpaceOnUse" gradientTransform="matrix(0.46815017 -0.4157493 0.3634303 0.41243579 -384.91079 -409.48587)">
   <stop stop-color="#e4ae4e" id="stop17"/>
   <stop offset="1" stop-color="#e8b964" id="stop19"/>
  </radialGradient>
 </defs>
 <path fill="url(#2)" id="path25" d="m 0.99955,3.0237042 13.00018,0 0,10.9911668 -13.00018,0 z"/>
 <path opacity="0.242" id="path27" d="m 2.0238273,3.0237042 10.9509407,0 0,0.9733226 -10.9509407,0 z"/>
 <path fill="url(#0)" id="path29" d="m 2.7101,1.0110698 9.57908,0 1.71055,2.0108775 -13.00018,0 z"/>
 <path fill="url(#1)" id="path31" d="m 2.9995251,4.994946 9.0002299,0 0,6.99949 -9.0002299,0 z"/>
 <path opacity="0.4" fill="#171717" id="path33" d="m 5.9994876,6.997812 2.9999626,0 0,1.001433 -2.9999625,0 z"/>
 <path opacity="0.5" fill="none" stroke="#000" id="path35" stroke-width="1.013" d="m 2.9346097,1.5373668 -1.4005128,1.669055 -0.021382,10.2778652 11.9738501,0 0,-10.2559039 -1.421895,-1.6910163 -9.1300604,0 z"/>
 <g id="g37" transform="matrix(0.34211,0,0,0.35138,-0.711,-354.01)" fill="#fff">
  <path id="path39" d="m 10.846,1041.6 26.308,0 0,2.76 -26.308,0 z" opacity="0.4"/>
  <path id="path41" d="m 7.923,1018.86 32.15,0 0,2.85 -32.15,0 z" opacity="0.1"/>
 </g>
 <path opacity="0.3" fill="none" stroke="#000" id="path43" d="m 3.5012294,5.5176238 0,5.9624622 7.9968216,0 0,-5.9624623 -7.9968216,0 z"/>
 <path opacity="0.1" id="path45" d="m 5.9994876,7.9957312 2.9999626,0 0,1.001433 -2.9999625,0 z"/>
 <metadata id="metadata9999">
  <rdf:RDF>
   <cc:Work>
    <dc:format>image/svg+xml</dc:format>
    <dc:type rdf:resource="http://purl.org/dc/dcmitype/StillImage"/>
    <dc:title>Ivy icon theme</dc:title>
    <cc:license rdf:resource="http://creativecommons.org/licenses/by-sa/4.0/"/>
    <dc:creator>
     <cc:Agent>
      <dc:title>Sixsixfive (sixsixfive.deviantart.com)</dc:title>
     </cc:Agent>
    </dc:creator>
    <dc:publisher>
     <cc:Agent>
      <dc:title>Sixsixfive (sixsixfive.deviantart.com)</dc:title>
     </cc:Agent>
    </dc:publisher>
    <dc:source>https://github.com/sixsixfive</dc:source>
    <dc:subject>
     <rdf:Bag>
      <rdf:li>ivy</rdf:li>
     </rdf:Bag>
    </dc:subject>
    <dc:contributor>
     <cc:Agent>
      <dc:title>ssf</dc:title>
     </cc:Agent>
    </dc:contributor>
    <dc:rights>
     <cc:Agent>
      <dc:title>Sixsixfive (sixisixfive.deviantart.com)</dc:title>
     </cc:Agent>
    </dc:rights>
    <dc:description>A simple icon theme published under CC-BY-SA_V4(http://creativecommons.org/licenses/by-sa/4.0)</dc:description>
    <dc:identifier>SSF</dc:identifier>
   </cc:Work>
  </rdf:RDF>
 </metadata>
 <!--Part of the Ivy icon them published under the CC-BY-SA_V4: http://creativecommons.org/licenses/by-sa/4.0 -->
</svg>
