<?xml version="1.0" encoding="UTF-8" standalone="no"?><svg xmlns:xlink="http://www.w3.org/1999/xlink" xmlns:cc="http://creativecommons.org/ns#" viewBox="0 0 16 16" version="1.1" id="svg2" xmlns:svg="http://www.w3.org/2000/svg" xmlns="http://www.w3.org/2000/svg" xmlns:rdf="http://www.w3.org/1999/02/22-rdf-syntax-ns#" xmlns:dc="http://purl.org/dc/elements/1.1/"><defs id="defs4"><linearGradient x2="0" gradientUnits="userSpaceOnUse" y2="41" id="1" gradientTransform="matrix(1 0 0 1 16.371681 -27.309734)" y1="4"><stop stop-color="#ddd" id="stop12"/><stop offset="1" stop-color="#ebebeb" id="stop14"/></linearGradient><linearGradient x2="0" gradientUnits="userSpaceOnUse" xlink:href="#1" y2="15" id="linearGradient4174" y1="1"/></defs><rect height="16" width="16" fill="url(#linearGradient4174)" id="rect3362"/><g fill="#fff" id="g4202" transform="matrix(1 0 0 1 0 2)"><path opacity="0.4" id="rect4190" d="M 5,2 6,2 6,13 5,13 Z"/><path opacity="0.4" id="rect4192" d="M 6,2 9,2 9,3 6,3 Z"/><path opacity="0.4" id="rect4194" d="m 9,3 1,0 0,3 -1,0 z"/><path opacity="0.4" id="rect4196" d="m 7,6 3,0 0,1 -3,0 z"/><path opacity="0.4" id="rect4198" d="m 10,7 1,0 0,3 -1,0 z"/><path opacity="0.4" id="rect4200" d="m 6,10 4,0 0,1 -4,0 z"/></g><path stroke-miterlimit="6.9" opacity="0.4" fill="none" stroke="#000" id="path3366" stroke-linecap="round" d="m 0.46679688,0.46679688 0,15.06640612 15.06640612,0 0,-15.06640612 -15.06640612,0 z"/><path stroke-miterlimit="6.9" opacity="0.7" fill="none" stroke="#fff" id="path4176" stroke-linecap="round" d="m 1.4375,1.4375 0,13.125 13.125,0 0,-13.125 -13.125,0 z"/><rect height="11" width="1" opacity="0.4" id="rect4178" x="5" y="3"/><rect height="1" width="3" opacity="0.4" id="rect4180" x="6" y="3"/><rect height="3" width="1" opacity="0.4" id="rect4182" x="9" y="4"/><rect height="1" width="3" opacity="0.4" id="rect4184" x="7" y="7"/><rect height="3" width="1" opacity="0.4" id="rect4186" x="10" y="8"/><rect height="1" width="4" opacity="0.4" id="rect4188" x="6" y="11"/><metadata id="metadata9999"><rdf:RDF><cc:Work><dc:format>image/svg+xml</dc:format><dc:type rdf:resource="http://purl.org/dc/dcmitype/StillImage"/><dc:title>Ivy icon theme</dc:title><cc:license rdf:resource="http://creativecommons.org/licenses/by-sa/4.0/"/><dc:creator><cc:Agent><dc:title>Sixsixfive (sixsixfive.deviantart.com)</dc:title></cc:Agent></dc:creator><dc:publisher><cc:Agent><dc:title>Sixsixfive (sixsixfive.deviantart.com)</dc:title></cc:Agent></dc:publisher><dc:source>https://github.com/sixsixfive</dc:source><dc:subject><rdf:Bag><rdf:li>ivy</rdf:li></rdf:Bag></dc:subject><dc:contributor><cc:Agent><dc:title>ssf</dc:title></cc:Agent></dc:contributor><dc:rights><cc:Agent><dc:title>Sixsixfive (sixisixfive.deviantart.com)</dc:title></cc:Agent></dc:rights><dc:description>A simple icon theme published under CC-BY-SA_V4(http://creativecommons.org/licenses/by-sa/4.0)</dc:description><dc:identifier>SSF</dc:identifier></cc:Work></rdf:RDF></metadata><!--Part of the Ivy icon them published under the CC-BY-SA_V4: http://creativecommons.org/licenses/by-sa/4.0 -->
</svg>