<?xml version="1.0" encoding="UTF-8" standalone="no"?>
<svg
   xmlns:dc="http://purl.org/dc/elements/1.1/"
   xmlns:cc="http://creativecommons.org/ns#"
   xmlns:rdf="http://www.w3.org/1999/02/22-rdf-syntax-ns#"
   xmlns:svg="http://www.w3.org/2000/svg"
   xmlns="http://www.w3.org/2000/svg"
   id="svg2"
   version="1.1"
   viewBox="0 0 16 16">
  <defs
     id="defs4">
    <linearGradient
       gradientUnits="userSpaceOnUse"
       gradientTransform="matrix(0.38095 0 0 0.38084 -1.143 -1.143)"
       id="0"
       y2="45"
       x2="0"
       y1="3">
      <stop
         stop-color="#ff8b36"
         id="stop7" />
      <stop
         stop-color="#ffa869"
         id="stop9"
         offset="1" />
    </linearGradient>
    <linearGradient
       gradientUnits="userSpaceOnUse"
       id="1"
       y2="15"
       x2="0"
       y1="1">
      <stop
         stop-color="#fff"
         id="stop12" />
      <stop
         stop-color="#fff"
         id="stop14"
         offset="1"
         stop-opacity="0" />
    </linearGradient>
  </defs>
  <rect
     fill="url(#0)"
     width="16"
     id="rect16"
     rx="1.524"
     height="15.995"
     ry="1.523" />
  <path
     style="fill:#000000;opacity:0.1"
     d="M 6.2402344,2.9785156 C 5.7413673,2.8922404 5.2033339,3.007124 4.7675781,3.3242188 3.9346786,3.9303109 3.7485981,5.0770055 4.2714844,5.9511719 L 4,5.9511719 C 2.8832967,5.9511719 1.9511719,6.8832967 1.9511719,8 c 0,1.1167033 0.9321248,2.048828 2.0488281,2.048828 l 0.2714844,0 c -0.5228864,0.874167 -0.3368056,2.020861 0.4960937,2.626953 0.867031,0.630929 2.1383461,0.409482 2.7421875,-0.474609 L 8,11.484375 8.4902344,12.201172 c 0.6038411,0.884091 1.8751566,1.105538 2.7421876,0.474609 0.832899,-0.606091 1.01898,-1.752786 0.496094,-2.626953 l 0.271484,0 c 1.116703,0 2.048828,-0.9321247 2.048828,-2.048828 0,-1.1167033 -0.932125,-2.0488281 -2.048828,-2.0488281 l -0.271484,0 C 12.251403,5.0770048 12.065321,3.9303105 11.232422,3.3242188 10.365391,2.6932895 9.0940756,2.9147376 8.4902344,3.7988281 L 8,4.515625 7.5097656,3.7988281 C 7.2094691,3.3591603 6.7416976,3.0652396 6.2402344,2.9785156 Z"
     id="path4154" />
  <g
     fill="none"
     id="g18">
    <path
       d="M 1.53125,0.5 C 0.953503,0.5 0.5,0.953706 0.5,1.53125 l 0,12.9375 C 0.5,15.04629 0.953503,15.5 1.53125,15.5 l 12.9375,0 C 15.0465,15.5 15.5,15.0463 15.5,14.46875 l 0,-12.9375 C 15.5,0.953705 15.0465,0.5 14.46875,0.5 l -12.9375,0 z"
       id="path20"
       opacity="0.45"
       stroke="#000" />
    <path
       d="M 1.53125,1.5 C 1.504466,1.5 1.5,1.504632 1.5,1.53125 l 0,12.9375 C 1.5,14.49537 1.50447,14.5 1.53125,14.5 l 12.9375,0 C 14.49554,14.5 14.5,14.4954 14.5,14.46875 l 0,-12.9375 C 14.5,1.504631 14.495535,1.5 14.46875,1.5 l -12.9375,0 z"
       id="path22"
       opacity="0.45"
       stroke="url(#1)" />
  </g>
  <rect
     fill="#fff"
     fill-rule="evenodd"
     width="10"
     id="rect3374"
     rx="1"
     height="2"
     ry="1"
     x="3"
     y="7" />
  <rect
     fill="#fff"
     fill-rule="evenodd"
     width="9.271406"
     transform="matrix(0.56400773 0.82576951 -0.80857583 0.58839198 0 0)"
     id="rect3382"
     rx="0.917326"
     height="1.834653"
     ry="0.917326"
     x="6.545016"
     y="-3.01235" />
  <rect
     fill="#fff"
     fill-rule="evenodd"
     width="9.271406"
     transform="matrix(0.56400773 -0.82576951 -0.80857583 -0.58839198 0 0)"
     id="rect3386"
     rx="0.917326"
     height="1.834653"
     ry="0.917326"
     x="-6.397958"
     y="-12.0405" />
  <rect
     style="fill:#e46100;fill-opacity:1"
     fill="#ff8b36"
     fill-rule="evenodd"
     width="2"
     id="rect4199"
     height="2"
     x="7"
     y="7" />
  <metadata
     id="metadata9999">
    <rdf:RDF>
      <cc:Work>
        <dc:format>image/svg+xml</dc:format>
        <dc:type
           rdf:resource="http://purl.org/dc/dcmitype/StillImage" />
        <dc:title></dc:title>
        <cc:license
           rdf:resource="http://creativecommons.org/licenses/by-sa/4.0/" />
        <dc:creator>
          <cc:Agent>
            <dc:title>Sixsixfive (sixsixfive.deviantart.com)</dc:title>
          </cc:Agent>
        </dc:creator>
        <dc:publisher>
          <cc:Agent>
            <dc:title>Sixsixfive (sixsixfive.deviantart.com)</dc:title>
          </cc:Agent>
        </dc:publisher>
        <dc:source>https://github.com/sixsixfive</dc:source>
        <dc:subject>
          <rdf:Bag>
            <rdf:li>ivy</rdf:li>
          </rdf:Bag>
        </dc:subject>
        <dc:contributor>
          <cc:Agent>
            <dc:title>ssf</dc:title>
          </cc:Agent>
        </dc:contributor>
        <dc:rights>
          <cc:Agent>
            <dc:title>Sixsixfive (sixisixfive.deviantart.com)</dc:title>
          </cc:Agent>
        </dc:rights>
        <dc:description>A simple icon theme published under CC-BY-SA_V4(http://creativecommons.org/licenses/by-sa/4.0)</dc:description>
        <dc:identifier>SSF</dc:identifier>
      </cc:Work>
    </rdf:RDF>
  </metadata>
  <!--Part of the Ivy icon them published under the CC-BY-SA_V4: http://creativecommons.org/licenses/by-sa/4.0 -->
</svg>
