<?xml version="1.0" encoding="UTF-8" standalone="no"?>
<svg xmlns:dc="http://purl.org/dc/elements/1.1/" xmlns:cc="http://creativecommons.org/ns#" xmlns:rdf="http://www.w3.org/1999/02/22-rdf-syntax-ns#" xmlns:svg="http://www.w3.org/2000/svg" xmlns="http://www.w3.org/2000/svg" xmlns:xlink="http://www.w3.org/1999/xlink" viewBox="0 0 16 16" id="svg2" version="1.1">
 <defs id="defs4"/>
 <g id="g4" fill="#171717">
  <path id="path8" d="M 0,0 16,0 16,15 0,15 Z"/>
 </g>
 <path fill="#5288d1" id="path10" d="M 0,0 H16 V5 H0 z"/>
 <g id="g12" fill="none" stroke="#000">
  <path id="path14" d="M 0.9797,4.4995 14.9999,4.5006" opacity="0.4" stroke-width="0.999"/>
  <path id="path16" d="m 0.5,0.5 0,14 15,0 0,-14 -15,0 z" opacity="0.5"/>
 </g>
 <g id="g18" fill="#fff">
  <path id="path20" d="M 1,1 15,1 15,2 1,2 Z" opacity="0.47"/>
  <path id="path22" d="M 2,2 3,2 3,3 2,3 Z"/>
  <path id="path24" d="M 4,2 5,2 5,3 4,3 Z"/>
  <path id="path26" d="M 6,2 7,2 7,3 6,3 Z"/>
 </g>
 <path opacity="0.266" id="path28" d="M 2,3 H3 V4 H2 z"/>
 <path opacity="0.266" id="path30" d="M 4,3 H5 V4 H4 z"/>
 <path opacity="0.266" id="path32" d="M 6,3 H7 V4 H6 z"/>
 <path opacity="0.266" id="path34" d="M 1,2 H2 V3 H1 z"/>
 <path opacity="0.266" id="0" d="M 3,2 H4 V3 H3 z"/>
 <path opacity="0.266" id="1" d="M 5,2 H6 V3 H5 z"/>
 <path opacity="0.266" id="path38" d="M 2,1 H3 V2 H2 z"/>
 <path opacity="0.266" id="path40" d="M 4,1 H5 V2 H4 z"/>
 <path opacity="0.266" id="path42" d="M 6,1 H7 V2 H6 z"/>
 <use id="use44" xlink:href="#0"/>
 <use id="use46" xlink:href="#1"/>
 <path opacity="0.266" id="path48" d="M 7,2 H8 V3 H7 z"/>
 <path opacity="0.2" fill="none" stroke="#fff" id="path50" stroke-width="0.999" d="M 0.9797,5.4995 14.9999,5.5006"/>
 <metadata id="metadata9999">
  <rdf:RDF>
   <cc:Work>
    <dc:format>image/svg+xml</dc:format>
    <dc:type rdf:resource="http://purl.org/dc/dcmitype/StillImage"/>
    <dc:title>Ivy icon theme</dc:title>
    <cc:license rdf:resource="http://creativecommons.org/licenses/by-sa/4.0/"/>
    <dc:creator>
     <cc:Agent>
      <dc:title>Sixsixfive (sixsixfive.deviantart.com)</dc:title>
     </cc:Agent>
    </dc:creator>
    <dc:publisher>
     <cc:Agent>
      <dc:title>Sixsixfive (sixsixfive.deviantart.com)</dc:title>
     </cc:Agent>
    </dc:publisher>
    <dc:source>https://github.com/sixsixfive</dc:source>
    <dc:subject>
     <rdf:Bag>
      <rdf:li>ivy</rdf:li>
     </rdf:Bag>
    </dc:subject>
    <dc:contributor>
     <cc:Agent>
      <dc:title>ssf</dc:title>
     </cc:Agent>
    </dc:contributor>
    <dc:rights>
     <cc:Agent>
      <dc:title>Sixsixfive (sixisixfive.deviantart.com)</dc:title>
     </cc:Agent>
    </dc:rights>
    <dc:description>A simple icon theme published under CC-BY-SA_V4(http://creativecommons.org/licenses/by-sa/4.0)</dc:description>
    <dc:identifier>SSF</dc:identifier>
   </cc:Work>
  </rdf:RDF>
 </metadata>
 <!--Part of the Ivy icon them published under the CC-BY-SA_V4: http://creativecommons.org/licenses/by-sa/4.0 -->
</svg>
