<?xml version="1.0" encoding="UTF-8" standalone="no"?><svg xmlns:cc="http://creativecommons.org/ns#" xmlns:rdf="http://www.w3.org/1999/02/22-rdf-syntax-ns#" xmlns:svg="http://www.w3.org/2000/svg" id="svg2" viewBox="0 0 32 32" version="1.1" xmlns="http://www.w3.org/2000/svg" xmlns:dc="http://purl.org/dc/elements/1.1/"><defs id="defs4"><linearGradient id="0" x2="0" y2="44" gradientTransform="matrix(0.65798 0 0 0.66676 1.063 0.661)" y1="3" gradientUnits="userSpaceOnUse"><stop id="stop7" stop-color="#dedede"/><stop offset="1" id="stop9" stop-color="#f4f4f4"/></linearGradient><linearGradient id="1" x2="0" y2="27.29" y1="1.614" gradientUnits="userSpaceOnUse"><stop id="stop12" stop-color="#fff"/><stop offset="1" id="stop14" stop-color="#fff" stop-opacity="0"/></linearGradient><linearGradient id="0-9" x2="0" y2="15" y1="1" gradientUnits="userSpaceOnUse"><stop id="stop7-2" stop-color="#66b03e"/><stop offset="1" id="stop9-7" stop-color="#95ce76"/></linearGradient><linearGradient id="1-5" x2="0" y2="15" y1="1.195" gradientUnits="userSpaceOnUse"><stop id="stop12-1" stop-color="#fff"/><stop offset="1" id="stop14-7" stop-color="#fff" stop-opacity="0"/></linearGradient></defs><rect rx="0.806" ry="0.806" height="28" id="rect16" opacity="0.06" width="22.997" x="5" y="2.995"/><rect rx="0.806" ry="0.806" height="28" id="rect18" width="22.997" x="5" y="1.995" fill="url(#0)"/><g id="g20" stroke-width="0.994" transform="matrix(0.99956 0 0 1.01258 -0.983 1.366)" fill="none"><path id="path22" opacity="0.4" d="m 6.7812,1.1562 c -0.142866,0 -0.25,0.112596 -0.25,0.28125 l 0,26.0938 c 0,0.168654 0.08985,0.25 0.25,0.25 l 21.4688,0 c 0.154628,0 0.25,-0.09537 0.25,-0.25 l 0,-26.0938 C 28.5,1.282823 28.387343,1.1562 28.25,1.1562 l -21.4688,0 z" stroke="#000"/><path id="path24" opacity="0.7" d="m 7.5312,2.1562 0,24.625 19.9688,0 0,-24.625 -19.9688,0 z" stroke="url(#1)"/></g><g id="g3431" transform="matrix(1 0 0 1 16 16)"><path id="path16-9" d="m 5,0 0,5 -5,0 0,6 5,0 0,5 6,0 0,-5 5,0 0,-6 -5,0 0,-5 z" fill="url(#0-9)"/><g id="g18" fill="none"><path id="path20-2" opacity="0.6" d="M 5.5,0.5 5.5,5 A 0.498012,0.498012 0 0 1 5,5.5 l -4.5,0 0,5 4.5,0 A 0.498012,0.498012 0 0 1 5.5,11 l 0,4.5 5,0 0,-4.5 A 0.498012,0.498012 0 0 1 11,10.5 l 4.5,0 0,-5 -4.5,0 A 0.498012,0.498012 0 0 1 10.5,5 l 0,-4.5 -5,0 z" stroke="#000"/><path id="path22-9" opacity="0.38000039" d="M 6.5,1.5 6.5,5 A 1.49607,1.49607 0 0 1 5,6.5 l -3.5,0 0,3 3.5,0 A 1.49607,1.49607 0 0 1 6.5,11 l 0,3.5 3,0 0,-3.5 A 1.49607,1.49607 0 0 1 11,9.5 l 3.5,0 0,-3 -3.5,0 A 1.49607,1.49607 0 0 1 9.5,5 l 0,-3.5 -3,0 z" stroke="url(#1-5)"/></g></g><metadata id="metadata9999"><rdf:RDF><cc:Work><dc:format>image/svg+xml</dc:format><dc:type rdf:resource="http://purl.org/dc/dcmitype/StillImage"/><dc:title/><cc:license rdf:resource="http://creativecommons.org/licenses/by-sa/4.0/"/><dc:creator><cc:Agent><dc:title>Sixsixfive (sixsixfive.deviantart.com)</dc:title></cc:Agent></dc:creator><dc:publisher><cc:Agent><dc:title>Sixsixfive (sixsixfive.deviantart.com)</dc:title></cc:Agent></dc:publisher><dc:source>https://github.com/sixsixfive</dc:source><dc:subject><rdf:Bag><rdf:li>ivy</rdf:li></rdf:Bag></dc:subject><dc:contributor><cc:Agent><dc:title>ssf</dc:title></cc:Agent></dc:contributor><dc:rights><cc:Agent><dc:title>Sixsixfive (sixisixfive.deviantart.com)</dc:title></cc:Agent></dc:rights><dc:description>A simple icon theme published under CC-BY-SA_V4(http://creativecommons.org/licenses/by-sa/4.0)</dc:description><dc:identifier>SSF</dc:identifier></cc:Work></rdf:RDF></metadata><!--Part of the Ivy icon them published under the CC-BY-SA_V4: http://creativecommons.org/licenses/by-sa/4.0 -->
</svg>