<?xml version="1.0" encoding="UTF-8" standalone="no"?><svg viewBox="0 0 32 32" xmlns="http://www.w3.org/2000/svg" xmlns:svg="http://www.w3.org/2000/svg" xmlns:rdf="http://www.w3.org/1999/02/22-rdf-syntax-ns#" xmlns:xlink="http://www.w3.org/1999/xlink" version="1.1" id="svg2" xmlns:dc="http://purl.org/dc/elements/1.1/" xmlns:cc="http://creativecommons.org/ns#"><defs id="defs4"><linearGradient xlink:href="#5" y1="3" x2="0" y2="44" gradientTransform="matrix(0.65798 0 0 0.66676 4.02 1.612)" id="0" gradientUnits="userSpaceOnUse"/><linearGradient xlink:href="#4" y1="1.614" x2="0" y2="27.29" gradientTransform="matrix(0.99956 0 0 1.01258 -5.03 0.317)" id="1" gradientUnits="userSpaceOnUse"/><linearGradient xlink:href="#4" y1="1.614" x2="0" y2="27.29" gradientTransform="matrix(0.99956 0 0 1.01258 1.972 2.317)" id="2" gradientUnits="userSpaceOnUse"/><linearGradient xlink:href="#5" y1="3" x2="0" y2="44" gradientTransform="matrix(0.65798 0 0 0.66676 -2.982 -0.388)" id="3" gradientUnits="userSpaceOnUse"/><linearGradient id="4"><stop id="stop11" stop-color="#fff"/><stop stop-opacity="0" offset="1" id="stop13" stop-color="#fff"/></linearGradient><linearGradient id="5"><stop id="stop16" stop-color="#dedede"/><stop offset="1" id="stop18" stop-color="#f4f4f4"/></linearGradient></defs><rect y="1.946" x="0.957" opacity="0.06" ry="0.806" height="28" rx="0.806" id="rect20" width="22.997"/><rect y="0.946" x="0.957" ry="0.806" height="28" rx="0.806" id="rect22" width="22.997" fill="url(#3)"/><g id="g24" fill="none"><path stroke="#000" opacity="0.4" id="path26" d="m 1.7503,1.4874 c -0.142802,0 -0.249889,0.114013 -0.249889,0.284789 l 0,26.422101 c 0,0.170775 0.08981,0.253145 0.249889,0.253145 l 21.4592,0 c 0.15456,0 0.249889,-0.09657 0.249889,-0.253145 l 0,-26.422101 C 23.459389,1.615617 23.346782,1.4874 23.2095,1.4874 l -21.4592,0 z"/><path stroke="url(#1)" opacity="0.7" id="path28" d="m 2.5,2.5 0,24.9349 19.9599,0 0,-24.9349 L 2.5,2.5 Z"/></g><rect y="2.946" x="7" opacity="0.466" ry="0.806" height="28" rx="0.806" id="rect30" width="22.997" fill="#fff"/><rect y="3.946" x="7.957" opacity="0.06" ry="0.806" height="28" rx="0.806" id="rect32" width="22.997"/><rect y="2.946" x="7.957" ry="0.806" height="28" rx="0.806" id="rect34" width="22.997" fill="url(#0)"/><g id="g36" fill="none"><path stroke="#000" opacity="0.4" id="path38" d="m 8.7503,3.4874 c -0.142803,0 -0.249889,0.114013 -0.249889,0.284789 l 0,26.422101 c 0,0.170775 0.08981,0.253145 0.249889,0.253145 l 21.4592,0 c 0.15456,0 0.249889,-0.09657 0.249889,-0.253145 l 0,-26.422101 C 30.459389,3.615617 30.346782,3.4874 30.2095,3.4874 l -21.4592,0 z"/><path stroke="url(#2)" opacity="0.7" id="path40" d="m 9.5,4.5 0,24.9349 19.9599,0 0,-24.9349 L 9.5,4.5 Z"/></g><metadata id="metadata9999"><rdf:RDF><cc:Work><dc:format>image/svg+xml</dc:format><dc:type rdf:resource="http://purl.org/dc/dcmitype/StillImage"/><dc:title>Ivy icon theme</dc:title><cc:license rdf:resource="http://creativecommons.org/licenses/by-sa/4.0/"/><dc:creator><cc:Agent><dc:title>Sixsixfive (sixsixfive.deviantart.com)</dc:title></cc:Agent></dc:creator><dc:publisher><cc:Agent><dc:title>Sixsixfive (sixsixfive.deviantart.com)</dc:title></cc:Agent></dc:publisher><dc:source>https://github.com/sixsixfive</dc:source><dc:subject><rdf:Bag><rdf:li>ivy</rdf:li></rdf:Bag></dc:subject><dc:contributor><cc:Agent><dc:title>ssf</dc:title></cc:Agent></dc:contributor><dc:rights><cc:Agent><dc:title>Sixsixfive (sixisixfive.deviantart.com)</dc:title></cc:Agent></dc:rights><dc:description>A simple icon theme published under CC-BY-SA_V4(http://creativecommons.org/licenses/by-sa/4.0)</dc:description><dc:identifier>SSF</dc:identifier></cc:Work></rdf:RDF></metadata><!--Part of the Ivy icon them published under the CC-BY-SA_V4: http://creativecommons.org/licenses/by-sa/4.0 -->
</svg>