<?xml version="1.0" encoding="UTF-8" standalone="no"?><svg xmlns:cc="http://creativecommons.org/ns#" xmlns:svg="http://www.w3.org/2000/svg" xmlns="http://www.w3.org/2000/svg" xmlns:dc="http://purl.org/dc/elements/1.1/" xmlns:rdf="http://www.w3.org/1999/02/22-rdf-syntax-ns#" id="svg2" version="1.1" viewBox="0 0 48 48"><defs id="defs4"><linearGradient gradientTransform="matrix(0.85 0 0 1.1052632 1.92635 -4.635158)" gradientUnits="userSpaceOnUse" y1="6.908" id="0" y2="44.908" x2="0"><stop id="stop7" stop-color="#ddd"/><stop id="stop9" stop-color="#fff" offset="1"/></linearGradient></defs><path opacity="0.1" d="M 7 4 H 41 V 46 H 7 z" id="path11"/><path d="M 7 3 H 41 V 45 H 7 z" id="path13" fill="url(#0)"/><path stroke="#fff" opacity="0.651" d="m 8.53125 4.53125 v 38.9375 h 30.9375 v -38.9375 h -30.9375 z" id="path15" fill="none"/><path d="M 7,32 H41 V45 H7 z" id="path17" fill-rule="evenodd" fill="#5288d1"/><path stroke="#000" opacity="0.4" d="m 7.5 3.5 v 41 h 33 v -41 h -33 z" id="path19" fill="none"/><g id="g21" fill-rule="evenodd"><path opacity="0.2" d="m 11,16 26,0 0,2 -26,0 z" id="path23"/><path opacity="0.4" d="m 8,32 32,0 0,1 -32,0 z" id="path25"/><g id="g27" fill="#fff"><path opacity="0.4" d="m 8,33 32,0 0,1 -32,0 z" id="path29"/><path opacity="0.3" d="m 11,18 26,0 0,1 -26,0 z" id="path31"/></g><path d="m 12,36 5,0 0,5 -5,0 z" id="path33" fill="#ebebeb"/><g id="g35" fill="#6a6a6a"><path opacity="0.8" d="m 12,23 8,0 0,5 -8,0 z" id="path37"/><path opacity="0.8" d="m 12,7 12,0 0,5 -12,0 z" id="path39"/><path opacity="0.8" d="m 27,7 9,0 0,5 -9,0 z" id="path41"/><path opacity="0.8" d="m 23,23 11,0 0,5 -11,0 z" id="path43"/></g><g id="g45" fill="#ebebeb"><path d="m 20,36 3,0 0,5 -3,0 z" id="path47"/><path d="m 26,36 10,0 0,5 -10,0 z" id="path49"/></g></g><metadata id="metadata9999"><rdf:RDF><cc:Work><dc:format>image/svg+xml</dc:format><dc:type rdf:resource="http://purl.org/dc/dcmitype/StillImage"/><dc:title>Ivy icon theme</dc:title><cc:license rdf:resource="http://creativecommons.org/licenses/by-sa/4.0/"/><dc:creator><cc:Agent><dc:title>Sixsixfive (sixsixfive.deviantart.com)</dc:title></cc:Agent></dc:creator><dc:publisher><cc:Agent><dc:title>Sixsixfive (sixsixfive.deviantart.com)</dc:title></cc:Agent></dc:publisher><dc:source>https://github.com/sixsixfive</dc:source><dc:subject><rdf:Bag><rdf:li>ivy</rdf:li></rdf:Bag></dc:subject><dc:contributor><cc:Agent><dc:title>ssf</dc:title></cc:Agent></dc:contributor><dc:rights><cc:Agent><dc:title>Sixsixfive (sixisixfive.deviantart.com)</dc:title></cc:Agent></dc:rights><dc:description>A simple icon theme published under CC-BY-SA_V4(http://creativecommons.org/licenses/by-sa/4.0)</dc:description><dc:identifier>SSF</dc:identifier></cc:Work></rdf:RDF></metadata><!--Part of the Ivy icon them published under the CC-BY-SA_V4: http://creativecommons.org/licenses/by-sa/4.0 -->
</svg>