<?xml version="1.0" encoding="UTF-8" standalone="no"?>
<svg xmlns:dc="http://purl.org/dc/elements/1.1/" xmlns:cc="http://creativecommons.org/ns#" xmlns:rdf="http://www.w3.org/1999/02/22-rdf-syntax-ns#" xmlns:svg="http://www.w3.org/2000/svg" xmlns="http://www.w3.org/2000/svg" viewBox="0 0 32 32" id="svg2" version="1.1">
 <defs id="defs4">
  <linearGradient id="0" y1="2" y2="30" x2="0" gradientUnits="userSpaceOnUse">
   <stop stop-color="#a868d4" id="stop7"/>
   <stop offset="1" stop-color="#cba4e5" id="stop9"/>
  </linearGradient>
  <linearGradient id="1" y1="3" y2="29" x2="0" gradientUnits="userSpaceOnUse">
   <stop stop-color="#fff" id="stop12"/>
   <stop offset="1" stop-color="#fff" stop-opacity="0" id="stop14"/>
  </linearGradient>
 </defs>
 <rect width="28" x="2" opacity="0.1" y="3" rx="2.667" height="28" ry="2.667" id="rect16"/>
 <rect width="28" x="2" y="2" fill="url(#0)" rx="2.667" height="28" ry="2.667" id="rect18"/>
 <path opacity="0.3" fill="#fff" stroke="#000" stroke-linecap="round" stroke-width="4" d="m 16 7.9995 v 14" id="path20"/>
 <path opacity="0.5" fill="none" stroke="url(#1)" d="M 4.65625 3.5 C 3.976867 3.5 3.5 3.976867 3.5 4.65625 v 22.6875 C 3.5 28.02313 3.976868 28.5 4.65625 28.5 h 22.6875 C 28.02313 28.5 28.5 28.02313 28.5 27.34375 v -22.6875 C 28.5 3.976868 28.02313 3.5 27.34375 3.5 h -22.6875 z" id="path22"/>
 <g id="g24" stroke="#000">
  <path d="m 23,14.9995 -15,0" id="path26" opacity="0.3" fill="#fff" stroke-linecap="round" stroke-width="4"/>
  <path d="M 4.65625,2.5 C 3.51151,2.5 2.5,3.51151 2.5,4.65625 l 0,22.6875 C 2.5,28.48849 3.511509,29.5 4.65625,29.5 l 22.6875,0 C 28.488491,29.5 29.5,28.488491 29.5,27.34375 l 0,-22.6875 C 29.5,3.511509 28.48849,2.5 27.34375,2.5 l -22.6875,0 z" id="path28" opacity="0.45" fill="none"/>
  <g id="g30" fill="#fff" stroke-linecap="round" stroke-width="4">
   <path d="m 21,20.9995 -11,-12" id="path32" opacity="0.3"/>
   <path d="m 10,20.9995 12,-12" id="path34" opacity="0.3"/>
  </g>
 </g>
 <g id="g36" fill="#fff" stroke="#fff" stroke-linecap="round" stroke-width="4">
  <path d="m 16,9 0,14" id="path38"/>
  <path d="M 23,16 8,16" id="path40"/>
  <path d="M 21,22 10,10" id="path42"/>
  <path d="M 10,22 22,10" id="path44"/>
 </g>
 <path fill="#a868d4" d="m 18 16 a 2 2 0 1 1 -4 0 2 2 0 1 1 4 0 z" id="path46"/>
 <metadata id="metadata9999">
  <rdf:RDF>
   <cc:Work>
    <dc:format>image/svg+xml</dc:format>
    <dc:type rdf:resource="http://purl.org/dc/dcmitype/StillImage"/>
    <dc:title>Ivy icon theme</dc:title>
    <cc:license rdf:resource="http://creativecommons.org/licenses/by-sa/4.0/"/>
    <dc:creator>
     <cc:Agent>
      <dc:title>Sixsixfive (sixsixfive.deviantart.com)</dc:title>
     </cc:Agent>
    </dc:creator>
    <dc:publisher>
     <cc:Agent>
      <dc:title>Sixsixfive (sixsixfive.deviantart.com)</dc:title>
     </cc:Agent>
    </dc:publisher>
    <dc:source>https://github.com/sixsixfive</dc:source>
    <dc:subject>
     <rdf:Bag>
      <rdf:li>ivy</rdf:li>
     </rdf:Bag>
    </dc:subject>
    <dc:contributor>
     <cc:Agent>
      <dc:title>ssf</dc:title>
     </cc:Agent>
    </dc:contributor>
    <dc:rights>
     <cc:Agent>
      <dc:title>Sixsixfive (sixisixfive.deviantart.com)</dc:title>
     </cc:Agent>
    </dc:rights>
    <dc:description>A simple icon theme published under CC-BY-SA_V4(http://creativecommons.org/licenses/by-sa/4.0)</dc:description>
    <dc:identifier>SSF</dc:identifier>
   </cc:Work>
  </rdf:RDF>
 </metadata>
 <!--Part of the Ivy icon them published under the CC-BY-SA_V4: http://creativecommons.org/licenses/by-sa/4.0 -->
</svg>
