<?xml version="1.0" encoding="UTF-8" standalone="no"?>
<svg xmlns:dc="http://purl.org/dc/elements/1.1/" xmlns:cc="http://creativecommons.org/ns#" xmlns:rdf="http://www.w3.org/1999/02/22-rdf-syntax-ns#" xmlns:svg="http://www.w3.org/2000/svg" xmlns="http://www.w3.org/2000/svg" xmlns:xlink="http://www.w3.org/1999/xlink" viewBox="0 0 48 48" version="1.1" id="svg2">
 <defs id="defs4">
  <linearGradient id="linearGradient3814">
   <stop id="stop3816" stop-color="#fff"/>
   <stop stop-opacity="0" id="stop3818" stop-color="#fff" offset="1"/>
  </linearGradient>
  <linearGradient x1="14" gradientTransform="matrix(0,1,-1,0,16,2)" gradientUnits="userSpaceOnUse" x2="31" xlink:href="#linearGradient3814" id="linearGradient3820"/>
 </defs>
 <rect transform="matrix(0,1,-1,0,0,0)" id="rect3838" height="12" y="-45.999985" x="16" width="19" opacity="0.1"/>
 <rect transform="matrix(0,1,-1,0,0,0)" id="rect3840" height="12" y="-30" x="16" width="19" opacity="0.1"/>
 <rect transform="matrix(0,1,-1,0,0,0)" id="rect3842" height="12" y="-14" x="16" width="19" opacity="0.1"/>
 <rect transform="matrix(0,1,-1,0,0,0)" id="rect3034" height="12" y="-46" x="15" width="19" fill="#5288d1"/>
 <path d="m 45.5,15.5 -11,0 0,18 11,0 0,-18 z" id="path3042" opacity="0.4" fill="none" stroke="#000"/>
 <path d="m 44.5,16.5 -9,0 0,16 9,0 0,-16 z" id="path3044" opacity="0.4" fill="none" stroke="url(#linearGradient3820)"/>
 <rect transform="matrix(0,1,-1,0,0,0)" id="rect3822" height="12" y="-30" x="15" width="19" fill="#5288d1"/>
 <path d="m 29.5,15.5 -11,0 0,18 11,0 0,-18 z" id="path3824" opacity="0.4" fill="none" stroke="#000"/>
 <path d="m 28.5,16.5 -9,0 0,16 9,0 0,-16 z" id="path3826" opacity="0.4" fill="none" stroke="url(#linearGradient3820)"/>
 <rect transform="matrix(0,1,-1,0,0,0)" id="rect3830" height="12" y="-14" x="15" width="19" fill="#5288d1"/>
 <path d="m 13.5,15.5 -11,0 0,18 11,0 0,-18 z" id="path3832" opacity="0.4" fill="none" stroke="#000"/>
 <path d="m 12.5,16.5 -9,0 0,16 9,0 0,-16 z" id="path3834" opacity="0.4" fill="none" stroke="url(#linearGradient3820)"/>
 <metadata id="metadata9999">
  <rdf:RDF>
   <cc:Work>
    <dc:format>image/svg+xml</dc:format>
    <dc:type rdf:resource="http://purl.org/dc/dcmitype/StillImage"/>
    <dc:title>Ivy icon theme</dc:title>
    <cc:license rdf:resource="http://creativecommons.org/licenses/by-sa/4.0/"/>
    <dc:creator>
     <cc:Agent>
      <dc:title>Sixsixfive (sixsixfive.deviantart.com)</dc:title>
     </cc:Agent>
    </dc:creator>
    <dc:publisher>
     <cc:Agent>
      <dc:title>Sixsixfive (sixsixfive.deviantart.com)</dc:title>
     </cc:Agent>
    </dc:publisher>
    <dc:source>https://github.com/sixsixfive</dc:source>
    <dc:subject>
     <rdf:Bag>
      <rdf:li>ivy</rdf:li>
     </rdf:Bag>
    </dc:subject>
    <dc:contributor>
     <cc:Agent>
      <dc:title>ssf</dc:title>
     </cc:Agent>
    </dc:contributor>
    <dc:rights>
     <cc:Agent>
      <dc:title>Sixsixfive (sixisixfive.deviantart.com)</dc:title>
     </cc:Agent>
    </dc:rights>
    <dc:description>A simple icon theme published under CC-BY-SA_V4(http://creativecommons.org/licenses/by-sa/4.0)</dc:description>
    <dc:identifier>SSF</dc:identifier>
   </cc:Work>
  </rdf:RDF>
 </metadata>
 <!--Part of the Ivy icon them published under the CC-BY-SA_V4: http://creativecommons.org/licenses/by-sa/4.0 -->
</svg>
