<?xml version="1.0" encoding="UTF-8" standalone="no"?><svg viewBox="0 0 32 32" xmlns="http://www.w3.org/2000/svg" xmlns:svg="http://www.w3.org/2000/svg" xmlns:rdf="http://www.w3.org/1999/02/22-rdf-syntax-ns#" version="1.1" id="svg2" xmlns:dc="http://purl.org/dc/elements/1.1/" xmlns:cc="http://creativecommons.org/ns#"><defs id="defs4"><linearGradient y1="2" x2="0" y2="30" id="0" gradientUnits="userSpaceOnUse"><stop id="stop7" stop-color="#a868d4"/><stop offset="1" id="stop9" stop-color="#cba4e5"/></linearGradient><linearGradient y1="3" x2="0" y2="29" id="1" gradientUnits="userSpaceOnUse"><stop id="stop12" stop-color="#fff"/><stop stop-opacity="0" offset="1" id="stop14" stop-color="#fff"/></linearGradient></defs><rect y="3" x="2" opacity="0.1" ry="2.667" height="28" rx="2.667" id="rect16" width="28"/><rect y="2" x="2" ry="2.667" height="28" rx="2.667" id="rect18" width="28" fill="url(#0)"/><path stroke="#000" stroke-width="4" opacity="0.3" stroke-linecap="round" id="path20" d="m 16 7.9995 v 14" fill="#fff"/><path stroke="url(#1)" opacity="0.5" id="path22" d="M 4.65625 3.5 C 3.976867 3.5 3.5 3.976867 3.5 4.65625 v 22.6875 C 3.5 28.02313 3.976868 28.5 4.65625 28.5 h 22.6875 C 28.02313 28.5 28.5 28.02313 28.5 27.34375 v -22.6875 C 28.5 3.976868 28.02313 3.5 27.34375 3.5 h -22.6875 z" fill="none"/><g stroke="#000" id="g24"><path stroke-width="4" opacity="0.3" stroke-linecap="round" id="path26" d="m 23,14.9995 -15,0" fill="#fff"/><path opacity="0.45" id="path28" d="M 4.65625,2.5 C 3.51151,2.5 2.5,3.51151 2.5,4.65625 l 0,22.6875 C 2.5,28.48849 3.511509,29.5 4.65625,29.5 l 22.6875,0 C 28.488491,29.5 29.5,28.488491 29.5,27.34375 l 0,-22.6875 C 29.5,3.511509 28.48849,2.5 27.34375,2.5 l -22.6875,0 z" fill="none"/><g stroke-width="4" stroke-linecap="round" id="g30" fill="#fff"><path opacity="0.3" id="path32" d="m 21,20.9995 -11,-12"/><path opacity="0.3" id="path34" d="m 10,20.9995 12,-12"/></g></g><g stroke="#fff" stroke-width="4" stroke-linecap="round" id="g36" fill="#fff"><path id="path38" d="m 16,9 0,14"/><path id="path40" d="M 23,16 8,16"/><path id="path42" d="M 21,22 10,10"/><path id="path44" d="M 10,22 22,10"/></g><path id="path46" d="m 18 16 a 2 2 0 1 1 -4 0 2 2 0 1 1 4 0 z" fill="#a868d4"/><metadata id="metadata9999"><rdf:RDF><cc:Work><dc:format>image/svg+xml</dc:format><dc:type rdf:resource="http://purl.org/dc/dcmitype/StillImage"/><dc:title>Ivy icon theme</dc:title><cc:license rdf:resource="http://creativecommons.org/licenses/by-sa/4.0/"/><dc:creator><cc:Agent><dc:title>Sixsixfive (sixsixfive.deviantart.com)</dc:title></cc:Agent></dc:creator><dc:publisher><cc:Agent><dc:title>Sixsixfive (sixsixfive.deviantart.com)</dc:title></cc:Agent></dc:publisher><dc:source>https://github.com/sixsixfive</dc:source><dc:subject><rdf:Bag><rdf:li>ivy</rdf:li></rdf:Bag></dc:subject><dc:contributor><cc:Agent><dc:title>ssf</dc:title></cc:Agent></dc:contributor><dc:rights><cc:Agent><dc:title>Sixsixfive (sixisixfive.deviantart.com)</dc:title></cc:Agent></dc:rights><dc:description>A simple icon theme published under CC-BY-SA_V4(http://creativecommons.org/licenses/by-sa/4.0)</dc:description><dc:identifier>SSF</dc:identifier></cc:Work></rdf:RDF></metadata><!--Part of the Ivy icon them published under the CC-BY-SA_V4: http://creativecommons.org/licenses/by-sa/4.0 -->
</svg>