<?xml version="1.0" encoding="UTF-8" standalone="no"?><svg xmlns:svg="http://www.w3.org/2000/svg" xmlns="http://www.w3.org/2000/svg" viewBox="0 0 32 32" xmlns:rdf="http://www.w3.org/1999/02/22-rdf-syntax-ns#" xmlns:xlink="http://www.w3.org/1999/xlink" version="1.1" id="svg2" xmlns:dc="http://purl.org/dc/elements/1.1/" xmlns:cc="http://creativecommons.org/ns#"><defs id="defs4"><linearGradient id="linearGradient4155"><stop stop-opacity="1" id="stop4157" stop-color="#fff"/><stop stop-opacity="0" offset="1" id="stop4159" stop-color="#fff"/></linearGradient><linearGradient id="linearGradient4213"><stop stop-opacity="1" id="stop4215" stop-color="#5288d1"/><stop stop-opacity="1" offset="1" id="stop4217" stop-color="#93b5e2"/></linearGradient><linearGradient x1="3" xlink:href="#linearGradient4213" y1="36" x2="45" y2="36" id="linearGradient4219" gradientTransform="matrix(0 0.66666667 0.66666667 0 -4.0000002 -0.01481684)" gradientUnits="userSpaceOnUse"/><linearGradient x1="3.9046345" xlink:href="#linearGradient4155" y1="17.051172" x2="27.904634" y2="17.051172" id="linearGradient4161" gradientUnits="userSpaceOnUse"/><linearGradient x1="3" xlink:href="#linearGradient4213" y1="36" x2="45" y2="36" id="linearGradient4259" gradientTransform="matrix(0 0.66666667 0.66666667 0 6.0999998 -0.20554743)" gradientUnits="userSpaceOnUse"/><linearGradient x1="3.9046345" xlink:href="#linearGradient4155" y1="17.051172" x2="27.904634" y2="17.051172" id="linearGradient4261" gradientUnits="userSpaceOnUse"/></defs><path opacity="0.1" fill-opacity="1" id="path4251" d="m 14.1,2.7944526 0,27.9999994 c 5.333333,-4.666667 9.80329,-8.987983 16,-14 z" fill="#000"/><path fill-opacity="1" id="path4253" d="m 14.1,1.7944526 0,27.9999994 16,-14 z" fill="url(#linearGradient4259)"/><path stroke="#000" opacity="0.4" fill-opacity="1" id="path4255" transform="matrix(0 1 1 0 6.0960938 -0.19813901)" d="M 3.109375,8.5039062 16,23.234375 28.890625,8.5039062 l -25.78125,0 z" fill="none"/><path stroke="url(#linearGradient4261)" opacity="0.4" fill-opacity="1" id="path4257" transform="matrix(0 1 1 0 6.0488278 -0.11018192)" d="M 5.1972656,9.4511719 16,21.796875 26.802734,9.4511719 l -21.6054684,0 z" fill="none"/><path opacity="0.1" fill-opacity="1" id="path4163" d="m 3.9999998,2.9851832 0,27.9999998 C 9.3333328,26.318516 13.80329,21.9972 20,16.985183 Z" fill="#000"/><metadata id="metadata9999"><rdf:RDF><cc:Work><dc:format>image/svg+xml</dc:format><dc:type rdf:resource="http://purl.org/dc/dcmitype/StillImage"/><dc:title/><cc:license rdf:resource="http://creativecommons.org/licenses/by-sa/4.0/"/><dc:creator><cc:Agent><dc:title>Sixsixfive (sixsixfive.deviantart.com)</dc:title></cc:Agent></dc:creator><dc:publisher><cc:Agent><dc:title>Sixsixfive (sixsixfive.deviantart.com)</dc:title></cc:Agent></dc:publisher><dc:source>https://github.com/sixsixfive</dc:source><dc:subject><rdf:Bag><rdf:li>ivy</rdf:li></rdf:Bag></dc:subject><dc:contributor><cc:Agent><dc:title>ssf</dc:title></cc:Agent></dc:contributor><dc:rights><cc:Agent><dc:title>Sixsixfive (sixisixfive.deviantart.com)</dc:title></cc:Agent></dc:rights><dc:description>A simple icon theme published under CC-BY-SA_V4(http://creativecommons.org/licenses/by-sa/4.0)</dc:description><dc:identifier>SSF</dc:identifier></cc:Work></rdf:RDF></metadata><!--Part of the Ivy icon them published under the CC-BY-SA_V4: http://creativecommons.org/licenses/by-sa/4.0 -->
<path fill-opacity="1" id="path23" d="m 3.9999998,1.9851832 0,27.9999998 16.0000002,-14 z" fill="url(#linearGradient4219)"/><path stroke="#000" opacity="0.4" fill-opacity="1" id="path3351" transform="matrix(0 1 1 0 -4.0039062 -0.00740842)" d="M 3.109375,8.5039062 16,23.234375 28.890625,8.5039062 l -25.78125,0 z" fill="none"/><path stroke="url(#linearGradient4161)" opacity="0.4" fill-opacity="1" id="path3353" transform="matrix(0 1 1 0 -4.0511722 0.08054867)" d="M 5.1972656,9.4511719 16,21.796875 26.802734,9.4511719 l -21.6054684,0 z" fill="none"/></svg>