<?xml version="1.0" encoding="UTF-8" standalone="no"?><svg viewBox="0 0 32 32" xmlns="http://www.w3.org/2000/svg" xmlns:svg="http://www.w3.org/2000/svg" xmlns:rdf="http://www.w3.org/1999/02/22-rdf-syntax-ns#" xmlns:xlink="http://www.w3.org/1999/xlink" version="1.1" id="svg2" xmlns:dc="http://purl.org/dc/elements/1.1/" xmlns:cc="http://creativecommons.org/ns#"><defs id="defs5"><linearGradient id="linearGradient4170"><stop id="stop4172" stop-color="#fff"/><stop stop-opacity="0" offset="1" id="stop4174" stop-color="#fff"/></linearGradient><linearGradient id="linearGradient4197"><stop id="stop4199" stop-color="#ebebeb"/><stop offset="1" id="stop4201" stop-color="#fff"/></linearGradient><linearGradient xlink:href="#linearGradient4197" y1="18" x2="0" y2="48" gradientTransform="matrix(0.6590909 0 0 0.66666667 -0.300604 -3.315754)" id="linearGradient4203" gradientUnits="userSpaceOnUse"/><linearGradient xlink:href="#linearGradient4170" y1="12" x2="0" y2="29" gradientTransform="matrix(1 0 0 1 0.017578 -3.982422)" id="linearGradient4176" gradientUnits="userSpaceOnUse"/><linearGradient y1="0.937" x2="0" y2="19.938" id="0" gradientUnits="userSpaceOnUse"><stop id="stop4225" stop-color="#66b03e"/><stop offset="1" id="stop4227" stop-color="#95ce76"/></linearGradient><linearGradient y1="1.938" x2="0" y2="18.938" id="1" gradientUnits="userSpaceOnUse"><stop id="stop4230" stop-color="#fff"/><stop stop-opacity="0" offset="1" id="stop4232" stop-color="#fff"/></linearGradient><linearGradient y1="6.994" x2="0" y2="13.994" id="0-5" gradientUnits="userSpaceOnUse"><stop id="stop7" stop-color="#d02604"/><stop offset="1" id="stop9" stop-color="#fd9f8c"/></linearGradient><linearGradient y1="7.994" x2="0" y2="12.994" id="1-4" gradientUnits="userSpaceOnUse"><stop id="stop12" stop-color="#fff"/><stop stop-opacity="0" offset="1" id="stop14" stop-color="#fff"/></linearGradient></defs><path stroke-linejoin="round" stroke-linecap="round" opacity="0.1" id="path4178" d="m 6.2903047,7.950911 c -0.7302727,0 -1.3181817,0.594666 -1.3181817,1.333333 l 3e-7,9.733334 -2.6363635,0 c -0.7302729,0 -1.3181819,0.594667 -1.3181819,1.333334 l 0,3.333333 0,2 0,1.333333 1.3181819,0 26.3636362,0 1.318182,0 0,-1.333333 0,-2 0,-3.333333 c 0,-0.738667 -0.587909,-1.333334 -1.318182,-1.333334 l -2.636363,0 0,-9.733334 c 0,-0.738667 -0.58791,-1.333333 -1.318183,-1.333333 z"/><path stroke-linejoin="round" stroke-linecap="round" id="rect4171" d="m 6.2903047,6.950911 c -0.7302727,0 -1.3181817,0.594666 -1.3181817,1.333333 l 3e-7,9.733334 -2.6363635,0 c -0.7302729,0 -1.3181819,0.594667 -1.3181819,1.333334 l 0,3.333333 0,2 0,1.333333 1.3181819,0 26.3636362,0 1.318182,0 0,-1.333333 0,-2 0,-3.333333 c 0,-0.738667 -0.587909,-1.333334 -1.318182,-1.333334 l -2.636363,0 0,-9.733334 c 0,-0.738667 -0.58791,-1.333333 -1.318183,-1.333333 z" fill="url(#linearGradient4203)"/><path stroke-linejoin="round" stroke="#000" stroke-linecap="round" opacity="0.4" id="path4166" d="m 6.2910154,7.476562 c -0.4447796,0 -0.7929687,0.348748 -0.7929687,0.808594 l 0,9.732422 A 0.52537217,0.52537217 0 0 1 4.972656,18.542969 l -2.6367187,0 c -0.4447799,0 -0.7929688,0.348747 -0.7929688,0.808593 l 0,3.332032 0,2 0,0.808593 0.7929688,0 26.3632817,0 0.792968,0 0,-0.808593 0,-2 0,-3.332032 c 0,-0.459846 -0.348188,-0.808593 -0.792968,-0.808593 l -2.636719,0 a 0.52537217,0.52537217 0 0 1 -0.525391,-0.525391 l 0,-9.732422 c 0,-0.459846 -0.348187,-0.808594 -0.792969,-0.808594 l -18.4531246,0 z" fill="none"/><path stroke-linejoin="round" stroke="url(#linearGradient4176)" stroke-linecap="round" opacity="0.5" id="path4168" d="m 6.4902341,8.46875 0,9.548828 A 1.5178119,1.5178119 0 0 1 4.972656,19.535156 l -2.4375,0 0,3.148438 0,1.816406 25.964844,0 0,-1.816406 0,-3.148438 -2.4375,0 a 1.5178119,1.5178119 0 0 1 -1.517578,-1.517578 l 0,-9.548828 -18.0546879,0 z" fill="none"/><g transform="matrix(1 0 0 1 11 6.006)" id="g4235"><path opacity="0.1" id="path16" d="m 2,8 0,7 c 9,-0.006 8.93369,0 19,0 L 21,8 C 2,7.994 12.06631,8 2,8 Z"/><path id="path18" d="m 2,6.994 0,7 c 19,0 8.933687,0 19,0 l 0,-7 c -19,0 -8.933687,0 -19,0 z" fill="url(#0-5)"/><g id="g20" fill="none"><path stroke="#000" opacity="0.4" id="path22" d="m 2.5312,7.5252 0,5.9375 17.9375,0 0,-5.9375 -17.9375,0 z"/><path stroke="url(#1-4)" opacity="0.4" id="path24" d="m 3.5312,8.5252 0,3.9375 15.9375,0 0,-3.9375 -15.9375,0 z"/></g></g><metadata id="metadata9999"><rdf:RDF><cc:Work><dc:format>image/svg+xml</dc:format><dc:type rdf:resource="http://purl.org/dc/dcmitype/StillImage"/><dc:title/><cc:license rdf:resource="http://creativecommons.org/licenses/by-sa/4.0/"/><dc:creator><cc:Agent><dc:title>Sixsixfive (sixsixfive.deviantart.com)</dc:title></cc:Agent></dc:creator><dc:publisher><cc:Agent><dc:title>Sixsixfive (sixsixfive.deviantart.com)</dc:title></cc:Agent></dc:publisher><dc:source>https://github.com/sixsixfive</dc:source><dc:subject><rdf:Bag><rdf:li>ivy</rdf:li></rdf:Bag></dc:subject><dc:contributor><cc:Agent><dc:title>ssf</dc:title></cc:Agent></dc:contributor><dc:rights><cc:Agent><dc:title>Sixsixfive (sixisixfive.deviantart.com)</dc:title></cc:Agent></dc:rights><dc:description>A simple icon theme published under CC-BY-SA_V4(http://creativecommons.org/licenses/by-sa/4.0)</dc:description><dc:identifier>SSF</dc:identifier></cc:Work></rdf:RDF></metadata><!--Part of the Ivy icon them published under the CC-BY-SA_V4: http://creativecommons.org/licenses/by-sa/4.0 -->
</svg>