<?xml version="1.0" encoding="UTF-8" standalone="no"?>
<svg
   xmlns:dc="http://purl.org/dc/elements/1.1/"
   xmlns:cc="http://creativecommons.org/ns#"
   xmlns:rdf="http://www.w3.org/1999/02/22-rdf-syntax-ns#"
   xmlns:svg="http://www.w3.org/2000/svg"
   xmlns="http://www.w3.org/2000/svg"
   xmlns:xlink="http://www.w3.org/1999/xlink"
   height="32"
   width="32"
   id="svg2"
   viewBox="0 0 32 32"
   version="1.1">
  <path
     id="path4173"
     d="M 19,6 2,6 2,28 19,28 30,17 Z"
     style="fill:#000000;fill-opacity:1;opacity:0.15" />
  <defs
     id="defs4">
    <linearGradient
       id="linearGradient4165">
      <stop
         id="stop4167"
         offset="0"
         style="stop-color:#ffffff;stop-opacity:1;" />
      <stop
         id="stop4169"
         offset="1"
         style="stop-color:#ffffff;stop-opacity:0;" />
    </linearGradient>
    <linearGradient
       id="linearGradient3810">
      <stop
         id="stop3812"
         stop-color="#464646" />
      <stop
         id="stop3814"
         stop-color="#6a6a6a"
         offset="1" />
    </linearGradient>
    <linearGradient
       gradientUnits="userSpaceOnUse"
       y2="27"
       x2="29"
       y1="5"
       x1="29"
       id="linearGradient4157"
       xlink:href="#linearGradient3810" />
    <linearGradient
       gradientUnits="userSpaceOnUse"
       y2="24"
       x2="20"
       y1="4"
       x1="20"
       id="linearGradient4171"
       xlink:href="#linearGradient4165" />
  </defs>
  <path
     style="fill:url(#linearGradient4157);fill-opacity:1"
     d="M 19,5 2,5 2,27 19,27 30,16 Z"
     id="rect3011" />
  <path
     id="path4175"
     d="M 17.13545,7 21,11 17.13545,15 21,19 l -3.86455,4 -4,-4 -4,4 L 5,19 8.84375,14.958333 5,11 9.13545,7 l 4,4 z"
     style="fill:#000000;opacity:0.6" />
  <path
     style="opacity:0.4;fill:none;fill-opacity:1;stroke:url(#linearGradient4171)"
     id="path4163"
     d="m 3.5253906,6.5253906 0,18.9492184 14.8417974,0 L 27.84375,16 18.367188,6.5253906 l -14.8417974,0 z" />
  <path
     style="fill:#ffffff"
     d="M 17.13545,8 21,12 17.13545,16 21,20 l -3.86455,4 -4,-4 -4,4 L 5,20 8.84375,15.958333 5,12 9.13545,8 l 4,4 z"
     id="path26" />
  <path
     d="m 2.4355469,5.4355469 0,21.1289061 16.3828121,0 L 29.382812,16 18.818359,5.4355469 l -16.3828121,0 z"
     id="path4161"
     style="opacity:0.4;fill:none;fill-opacity:1;stroke:#000000" />
  <metadata
     id="metadata9999">
    <rdf:RDF>
      <cc:Work>
        <dc:format>image/svg+xml</dc:format>
        <dc:type
           rdf:resource="http://purl.org/dc/dcmitype/StillImage" />
        <dc:title></dc:title>
        <cc:license
           rdf:resource="http://creativecommons.org/licenses/by-sa/4.0/" />
        <dc:creator>
          <cc:Agent>
            <dc:title>Sixsixfive (sixsixfive.deviantart.com)</dc:title>
          </cc:Agent>
        </dc:creator>
        <dc:publisher>
          <cc:Agent>
            <dc:title>Sixsixfive (sixsixfive.deviantart.com)</dc:title>
          </cc:Agent>
        </dc:publisher>
        <dc:source>https://github.com/sixsixfive</dc:source>
        <dc:subject>
          <rdf:Bag>
            <rdf:li>ivy</rdf:li>
          </rdf:Bag>
        </dc:subject>
        <dc:contributor>
          <cc:Agent>
            <dc:title>ssf</dc:title>
          </cc:Agent>
        </dc:contributor>
        <dc:rights>
          <cc:Agent>
            <dc:title>Sixsixfive (sixisixfive.deviantart.com)</dc:title>
          </cc:Agent>
        </dc:rights>
        <dc:description>A simple icon theme published under CC-BY-SA_V4(http://creativecommons.org/licenses/by-sa/4.0)</dc:description>
        <dc:identifier>SSF</dc:identifier>
      </cc:Work>
    </rdf:RDF>
  </metadata>
  <!--Part of the Ivy icon them published under the CC-BY-SA_V4: http://creativecommons.org/licenses/by-sa/4.0 -->
</svg>
