<?xml version="1.0" encoding="UTF-8" standalone="no"?><svg xmlns:xlink="http://www.w3.org/1999/xlink" xmlns:cc="http://creativecommons.org/ns#" viewBox="0 0 48 48" version="1.1" id="svg2" xmlns:svg="http://www.w3.org/2000/svg" xmlns:rdf="http://www.w3.org/1999/02/22-rdf-syntax-ns#" xmlns="http://www.w3.org/2000/svg" xmlns:dc="http://purl.org/dc/elements/1.1/"><defs id="defs4"><linearGradient x2="46.766" gradientUnits="userSpaceOnUse" x1="47.784" id="0" y2="-1.822" y1="7.459"><stop id="stop7" stop-color="#5288d1"/><stop offset="1" id="stop9" stop-color="#75a0da"/></linearGradient><linearGradient x2="70.5" gradientUnits="userSpaceOnUse" x1="48.736" xlink:href="#4" id="1" y2="7.909" y1="-6.612"/><linearGradient x2="0" gradientUnits="userSpaceOnUse" xlink:href="#4" id="2" y2="19" y1="13.09"/><linearGradient x2="0" gradientUnits="userSpaceOnUse" id="3" y2="34.03" y1="3.969"><stop id="stop14" stop-color="#959595"/><stop offset="1" id="stop16" stop-color="#e2e2e2"/></linearGradient><linearGradient id="4"><stop id="stop19" stop-color="#fff"/><stop offset="1" stop-opacity="0" id="stop21" stop-color="#fff"/></linearGradient><linearGradient x2="0" gradientUnits="userSpaceOnUse" xlink:href="#4" id="5" y2="34" y1="5"/></defs><rect height="8.966" width="26.26" rx="3.941" ry="3.941" fill="url(#0)" id="rect24" x="37.722" transform="matrix(0.76273 0.64672 -0.73009 0.68335 0 0)" y="-1.235"/><g fill="none" id="g26" transform="matrix(0.76273 0.64672 -0.73009 0.68335 0 0)"><path opacity="0.6" id="path28" stroke="#000" d="m 41.6562,-0.8125 c -1.9515,0 -3.5,1.5757 -3.5,3.53125 l 0,1.0625 c 0,1.95555 1.54445,3.5 3.5,3.5 l 18.375,0 c 1.95555,0 3.5,-1.54445 3.5,-3.5 l 0,-1.0625 c 0,-1.95555 -1.5485,-3.53125 -3.5,-3.53125 l -18.375,0 z"/><path opacity="0.66" id="path30" stroke="url(#1)" d="m 41.6562,0.1875 c -1.39129,0 -2.5,1.12611 -2.5,2.53125 l 0,1.0625 c 0,1.40514 1.09486,2.5 2.5,2.5 l 18.375,0 c 1.40514,0 2.5,-1.09486 2.5,-2.5 l 0,-1.0625 c 0,-1.40514 -1.10871,-2.53125 -2.5,-2.53125 l -18.375,0 z"/></g><path fill="url(#3)" id="path32" d="m 18 3.9994 c -8.28427 0 -15 6.71573 -15 15 0 8.28427 6.71573 15 15 15 8.28427 0 15 -6.71573 15 -15 0 -8.28427 -6.71573 -15 -15 -15 z m 0 5 c 5.52285 0 10 4.47715 10 10 0 5.52285 -4.47715 10 -10 10 -5.52285 0 -10 -4.47715 -10 -10 0 -5.52285 4.47715 -10 10 -10 z"/><path opacity="0.4" fill="#ebebeb" id="path34" stroke="#000" d="M 18 4.4688 C 9.97186 4.4688 3.4688 10.97191 3.4688 19 3.4688 27.02814 9.97191 33.5312 18 33.5312 26.02814 33.5312 32.5312 27.02809 32.5312 19 32.5312 10.97186 26.02809 4.4688 18 4.4688 z m 0 4.0625 c 5.77898 0 10.4688 4.68977 10.4688 10.4688 0 5.77898 -4.68977 10.4688 -10.4688 10.4688 -5.77898 0 -10.4688 -4.68977 -10.4688 -10.4688 C 7.5312 13.22112 12.22097 8.5313 18 8.5313 z"/><path fill="none" id="path36" stroke="url(#5)" d="M 18 5.4688 C 10.51245 5.4688 4.4688 11.5125 4.4688 19 4.4688 26.48755 10.5125 32.5312 18 32.5312 25.48755 32.5312 31.5312 26.4875 31.5312 19 31.5312 11.51245 25.4875 5.4688 18 5.4688 z m 0 2.0625 c 6.31957 0 11.4688 5.14917 11.4688 11.4688 0 6.31958 -5.14918 11.4688 -11.4688 11.4688 -6.31957 0 -11.4688 -5.14917 -11.4688 -11.4688 C 6.5312 12.68052 11.68038 7.5313 18 7.5313 z"/><path fill="#6a6a6a" id="path38" d="m 15 12 v 4 h -4 v 6 h 4 v 4 h 6 v -4 h 4 v -6 h -4 v -4 h -6 z"/><g fill="none" id="g40"><path opacity="0.4" id="path42" stroke="#000" d="m 15.625,12.625 0,3.375 A 0.619356,0.619356 0 0 1 15,16.625 l -3.375,0 0,4.75 3.375,0 A 0.619356,0.619356 0 0 1 15.625,22 l 0,3.375 4.75,0 0,-3.375 A 0.619356,0.619356 0 0 1 21,21.375 l 3.375,0 0,-4.75 -3.375,0 A 0.619356,0.619356 0 0 1 20.375,16 l 0,-3.375 -4.75,0 z"/><path opacity="0.4" id="path44" stroke="url(#2)" d="m 16.5938,13.5938 0,2.4062 a 1.59834,1.59834 0 0 1 -1.59375,1.59375 l -2.40625,0 0,2.8125 2.40625,0 A 1.59834,1.59834 0 0 1 16.5938,22 l 0,2.40625 2.8125,0 0,-2.40625 a 1.59834,1.59834 0 0 1 1.59375,-1.59375 l 2.40625,0 0,-2.8125 -2.40625,0 A 1.59834,1.59834 0 0 1 19.4063,16 l 0,-2.40625 -2.8125,0 z"/></g><metadata id="metadata9999"><rdf:RDF><cc:Work><dc:format>image/svg+xml</dc:format><dc:type rdf:resource="http://purl.org/dc/dcmitype/StillImage"/><dc:title>Ivy icon theme</dc:title><cc:license rdf:resource="http://creativecommons.org/licenses/by-sa/4.0/"/><dc:creator><cc:Agent><dc:title>Sixsixfive (sixsixfive.deviantart.com)</dc:title></cc:Agent></dc:creator><dc:publisher><cc:Agent><dc:title>Sixsixfive (sixsixfive.deviantart.com)</dc:title></cc:Agent></dc:publisher><dc:source>https://github.com/sixsixfive</dc:source><dc:subject><rdf:Bag><rdf:li>ivy</rdf:li></rdf:Bag></dc:subject><dc:contributor><cc:Agent><dc:title>ssf</dc:title></cc:Agent></dc:contributor><dc:rights><cc:Agent><dc:title>Sixsixfive (sixisixfive.deviantart.com)</dc:title></cc:Agent></dc:rights><dc:description>A simple icon theme published under CC-BY-SA_V4(http://creativecommons.org/licenses/by-sa/4.0)</dc:description><dc:identifier>SSF</dc:identifier></cc:Work></rdf:RDF></metadata><!--Part of the Ivy icon them published under the CC-BY-SA_V4: http://creativecommons.org/licenses/by-sa/4.0 -->
</svg>