<?xml version="1.0" encoding="UTF-8" standalone="no"?><svg xmlns:cc="http://creativecommons.org/ns#" viewBox="0 0 32 32" version="1.1" id="svg2" xmlns:svg="http://www.w3.org/2000/svg" xmlns="http://www.w3.org/2000/svg" xmlns:rdf="http://www.w3.org/1999/02/22-rdf-syntax-ns#" xmlns:dc="http://purl.org/dc/elements/1.1/"><defs id="defs4"><linearGradient x2="0" gradientUnits="userSpaceOnUse" y2="12.295" id="0" gradientTransform="matrix(0.65 0 0 0.66667 -39.43 -3.196)" y1="42.29"><stop stop-color="#d3d7cf" id="stop7"/><stop offset="1" stop-color="#eeeeec" id="stop9"/></linearGradient><linearGradient x2="0" gradientUnits="userSpaceOnUse" y2="36.34" id="1" gradientTransform="matrix(0.61708 0 0 0.66094 -36.618 -2.637)" y1="47.875"><stop stop-color="#eeeeec" id="stop12"/><stop offset="1" stop-color="#555753" id="stop14"/></linearGradient><linearGradient x2="0" gradientUnits="userSpaceOnUse" y2="23.969" id="2" y1="6.03"><stop stop-color="#fff" id="stop17"/><stop offset="1" stop-opacity="0" stop-color="#fff" id="stop19"/></linearGradient></defs><path opacity="0.2" fill="#6a6a6a" id="path21" d="M 4.34375 6 C 3.605083 6 3 6.605083 3 7.34375 v 17.3125 C 3 25.394917 3.605083 26 4.34375 26 H 12 v 1.53125 h -1.84375 C 9.515258 27.53125 9 28.06345 9 28.75 9 29.436554 9.515258 30 10.15625 30 h 11.6875 C 22.48474 30 23 29.436554 23 28.75 23 28.06345 22.48474 27.53125 21.84375 27.53125 H 20 V 26 H 27.65625 C 28.394917 26 29 25.394917 29 24.65625 V 7.34375 C 29 6.605083 28.394917 6 27.65625 6 H 4.34375 z"/><path fill="url(#1)" id="path23" d="m 11.989 21.3785 v 5.143 h -1.832 c -0.640992 0 -1.15703 0.552714 -1.15703 1.23927 0 0.686554 0.516033 1.23927 1.15703 1.23927 h 11.686 c 0.64099 0 1.15702 -0.552714 1.15702 -1.23927 0 -0.686555 -0.516035 -1.23927 -1.15703 -1.23927 h -1.83196 v -5.14296 h -8.02204 z"/><g fill="none" id="g25"><path opacity="0.4" stroke="#000" id="path27" d="m 12.4688,21.8438 0,4.6875 a 0.467194,0.467194 0 0 1 -0.46875,0.46875 l -1.84375,0 c -0.382421,0 -0.6875,0.297174 -0.6875,0.75 0,0.452825 0.320263,0.78125 0.6875,0.78125 l 11.6875,0 c 0.367234,0 0.6875,-0.328426 0.6875,-0.78125 0,-0.452825 -0.305082,-0.75 -0.6875,-0.75 l -1.84375,0 A 0.467194,0.467194 0 0 1 19.5313,26.5313 l 0,-4.6875 -7.0625,0 z"/><path opacity="0.4" stroke="#fff" id="path29" d="m 13.5312,22.9062 0,3.625 a 1.05119,1.05119 0 0 1 -0.59375,0.9375 l 6.125,0 a 1.05119,1.05119 0 0 1 0,-0.03125 1.05119,1.05119 0 0 1 -0.59375,-0.90625 l 0,-3.625 -4.9375,0 z"/></g><rect height="20" width="26" rx="1.333" ry="1.333" fill="url(#0)" id="rect31" x="3" y="5"/><path opacity="0.4" fill="none" stroke="#000" id="path33" d="m 4.3438 5.5938 c -0.419778 0 -0.75 0.330222 -0.75 0.75 v 17.3125 c 0 0.419778 0.330222 0.75 0.75 0.75 h 23.3125 c 0.419779 0 0.75 -0.330221 0.75 -0.75 V 6.3438 c 0 -0.419778 -0.330222 -0.75 -0.75 -0.75 H 4.3438 z"/><path fill="#d02604" id="path35" d="M 6,8 H26 V20 H6 z"/><path opacity="0.6" fill="#fff" id="path39" d="M 6,20 H26 V21 H6 z"/><g fill="none" id="g43"><path opacity="0.4" stroke="#000" id="path45" stroke-linecap="square" d="m 6.5312,8.5312 a 0.077833,0.077833 0 0 0 0,0.03125 0.077833,0.077833 0 0 0 0,0.03125 l 0,10.8125 a 0.077833,0.077833 0 0 0 0,0.03125 0.077833,0.077833 0 0 0 0,0.03125 0.077833,0.077833 0 0 0 0.03125,0 0.077833,0.077833 0 0 0 0.03125,0 l 18.8125,0 a 0.077833,0.077833 0 0 0 0.03125,0 0.077833,0.077833 0 0 0 0.03125,0 0.077833,0.077833 0 0 0 0,-0.03125 0.077833,0.077833 0 0 0 0,-0.03125 l 0,-10.8125 a 0.077833,0.077833 0 0 0 0,-0.03125 0.077833,0.077833 0 0 0 0,-0.03125 0.077833,0.077833 0 0 0 -0.03125,0 0.077833,0.077833 0 0 0 -0.03125,0 l -18.8125,0 a 0.077833,0.077833 0 0 0 -0.03125,0 0.077833,0.077833 0 0 0 -0.03125,0 z"/><path opacity="0.6" stroke="url(#2)" id="path47" d="m 4.5312,6.5312 0,16.9375 22.9375,0 0,-16.9375 -22.9375,0 z"/></g><path opacity="0.4" fill="#000" id="path4170" d="M 21,13.992571 18,14 18,18 14,18 14,14 11,13.9926 15.998686,10 Z"/><metadata id="metadata9999"><rdf:RDF><cc:Work><dc:format>image/svg+xml</dc:format><dc:type rdf:resource="http://purl.org/dc/dcmitype/StillImage"/><dc:title/><cc:license rdf:resource="http://creativecommons.org/licenses/by-sa/4.0/"/><dc:creator><cc:Agent><dc:title>Sixsixfive (sixsixfive.deviantart.com)</dc:title></cc:Agent></dc:creator><dc:publisher><cc:Agent><dc:title>Sixsixfive (sixsixfive.deviantart.com)</dc:title></cc:Agent></dc:publisher><dc:source>https://github.com/sixsixfive</dc:source><dc:subject><rdf:Bag><rdf:li>ivy</rdf:li></rdf:Bag></dc:subject><dc:contributor><cc:Agent><dc:title>ssf</dc:title></cc:Agent></dc:contributor><dc:rights><cc:Agent><dc:title>Sixsixfive (sixisixfive.deviantart.com)</dc:title></cc:Agent></dc:rights><dc:description>A simple icon theme published under CC-BY-SA_V4(http://creativecommons.org/licenses/by-sa/4.0)</dc:description><dc:identifier>SSF</dc:identifier></cc:Work></rdf:RDF></metadata><!--Part of the Ivy icon them published under the CC-BY-SA_V4: http://creativecommons.org/licenses/by-sa/4.0 -->
<path fill="#ebebeb" id="path47-7" d="M 21,14.992571 18,15 l 0,4 -4,0 0,-4 -3,-0.0074 L 15.998686,11 Z"/></svg>