<?xml version="1.0" encoding="UTF-8" standalone="no"?><svg xmlns:cc="http://creativecommons.org/ns#" xmlns:dc="http://purl.org/dc/elements/1.1/" xmlns:svg="http://www.w3.org/2000/svg" xmlns="http://www.w3.org/2000/svg" xmlns:rdf="http://www.w3.org/1999/02/22-rdf-syntax-ns#" id="svg2" version="1.1" viewBox="0 0 32 32"><defs id="defs4"><linearGradient gradientTransform="matrix(0.65 0 0 0.65789 0.4 0.711)" gradientUnits="userSpaceOnUse" y1="43" id="0" y2="5" x2="0"><stop id="stop7" stop-color="#ddd"/><stop id="stop9" stop-color="#fff" offset="1"/></linearGradient><linearGradient gradientUnits="userSpaceOnUse" y1="5.03" id="1" x1="27.969" y2="28" x2="28"><stop id="stop12" stop-color="#fff"/><stop stop-opacity="0" id="stop14" stop-color="#fff" offset="1"/></linearGradient></defs><path opacity="0.1" d="M 3,5 H29 V30 H3 z" id="path16"/><path d="M 3,4 H29 V29 H3 z" id="path18" fill="url(#0)"/><path d="m 14,9 -7,17 4,0 4,-11 1,0 5,11 4,0 -8,-17 z" id="path20" fill="#fff"/><path stroke="#000" opacity="0.4" d="m 3.5 4.5 v 24 h 25 v -24 h -25 z" id="path22" fill="none"/><path d="M 11,20 H21 V23 H11 z" id="path24" fill="#fff"/><path stroke="url(#1)" opacity="0.4" d="m 4.5312 5.5312 v 21.9375 h 22.9375 v -21.9375 h -22.9375 z" id="path26" fill="none"/><g id="g28" fill="#6a6a6a"><path d="m 14,8 -7,17 4,0 4,-11 1,0 5,11 4,0 -8,-17 z" id="path30"/><path d="m 11,19 10,0 0,3 -10,0 z" id="path32"/></g><metadata id="metadata9999"><rdf:RDF><cc:Work><dc:format>image/svg+xml</dc:format><dc:type rdf:resource="http://purl.org/dc/dcmitype/StillImage"/><dc:title>Ivy icon theme</dc:title><cc:license rdf:resource="http://creativecommons.org/licenses/by-sa/4.0/"/><dc:creator><cc:Agent><dc:title>Sixsixfive (sixsixfive.deviantart.com)</dc:title></cc:Agent></dc:creator><dc:publisher><cc:Agent><dc:title>Sixsixfive (sixsixfive.deviantart.com)</dc:title></cc:Agent></dc:publisher><dc:source>https://github.com/sixsixfive</dc:source><dc:subject><rdf:Bag><rdf:li>ivy</rdf:li></rdf:Bag></dc:subject><dc:contributor><cc:Agent><dc:title>ssf</dc:title></cc:Agent></dc:contributor><dc:rights><cc:Agent><dc:title>Sixsixfive (sixisixfive.deviantart.com)</dc:title></cc:Agent></dc:rights><dc:description>A simple icon theme published under CC-BY-SA_V4(http://creativecommons.org/licenses/by-sa/4.0)</dc:description><dc:identifier>SSF</dc:identifier></cc:Work></rdf:RDF></metadata><!--Part of the Ivy icon them published under the CC-BY-SA_V4: http://creativecommons.org/licenses/by-sa/4.0 -->
</svg>