<?xml version="1.0" encoding="UTF-8" standalone="no"?><svg xmlns:cc="http://creativecommons.org/ns#" viewBox="0 0 48 48" version="1.1" id="svg2" xmlns:svg="http://www.w3.org/2000/svg" xmlns:rdf="http://www.w3.org/1999/02/22-rdf-syntax-ns#" xmlns="http://www.w3.org/2000/svg" xmlns:dc="http://purl.org/dc/elements/1.1/"><defs id="defs4"><linearGradient x2="0" gradientUnits="userSpaceOnUse" y2="42.08" id="0" y1="5.957"><stop stop-color="#fff" id="stop7"/><stop offset="1" stop-opacity="0" stop-color="#fff" id="stop9"/></linearGradient><linearGradient x2="43.912" gradientUnits="userSpaceOnUse" x1="44" y2="-0.997" id="1" y1="43.02"><stop stop-color="#ddd" id="stop12"/><stop offset="1" stop-color="#fff" id="stop14"/></linearGradient></defs><path opacity="0.1" id="path16" d="m 4,6.02 h 40 v 38 H 4 z"/><path fill="url(#1)" id="path18" d="m 4,5.02 h 40 v 38 H 4 z"/><path fill="#5288d1" id="path20" d="M 4,5.02 H 44 V 15.139 H 4 z"/><g fill="none" id="g22"><g id="g24" stroke="#000"><path opacity="0.4" id="path26" d="m 4.4688,5.4881 0,37.0625 39.0625,0 0,-37.0625 -39.0625,0 z"/><path opacity="0.4" id="path28" d="m 4.9369,14.6279 38.1261,4e-4"/></g><path opacity="0.4" id="path30" stroke="url(#0)" d="m 5.4375,6.4568 0,35.125 37.125,0 0,-35.125 -37.125,0 z"/></g><g fill-rule="evenodd" fill="#fff" id="g32" color="#000"><path id="path34" d="m 7.03,9.111 1,0 0,1 -1,0 z"/><path id="path36" d="m 8.03,10.111 1,0 0,1 -1,0 z"/><path id="path38" d="m 9.03,11.11 1,0 0,1 -1,0 z"/><path id="path40" d="m 7.03,11.11 1,0 0,1 -1,0 z"/><path id="path42" d="m 9.03,9.111 1,0 0,1 -1,0 z"/><path id="path44" d="m 12.03,9.111 1,0 0,3 -1,0 z"/><path id="path46" transform="matrix(0 1 -1 0 0 0)" d="m 11.11,-15.03 1,0 0,3 -1,0 z"/><path id="path48" transform="matrix(-1 0 0 -1 0 0)" d="m -15.03,-12.11 1,0 0,3 -1,0 z"/><g id="g50" transform="matrix(0 -1 1 0 0 0)"><path id="path52" d="m -10.111,12.03 1,0 0,3 -1,0 z"/><path id="path54" d="m -12.11,17.03 1,0 0,3 -1,0 z"/></g></g><rect height="1" width="35.926811" fill="#fff" id="rect3047" x="6" y="15"/><rect height="27" width="1" opacity="0.4" id="rect3043" x="24" y="15"/><rect height="1" width="26" opacity="0.7" fill="#fff" id="rect4168" x="16" transform="matrix(0 1 -1 0 0 0)" y="-26"/><metadata id="metadata9999"><rdf:RDF><cc:Work><dc:format>image/svg+xml</dc:format><dc:type rdf:resource="http://purl.org/dc/dcmitype/StillImage"/><dc:title>Ivy icon theme</dc:title><cc:license rdf:resource="http://creativecommons.org/licenses/by-sa/4.0/"/><dc:creator><cc:Agent><dc:title>Sixsixfive (sixsixfive.deviantart.com)</dc:title></cc:Agent></dc:creator><dc:publisher><cc:Agent><dc:title>Sixsixfive (sixsixfive.deviantart.com)</dc:title></cc:Agent></dc:publisher><dc:source>https://github.com/sixsixfive</dc:source><dc:subject><rdf:Bag><rdf:li>ivy</rdf:li></rdf:Bag></dc:subject><dc:contributor><cc:Agent><dc:title>ssf</dc:title></cc:Agent></dc:contributor><dc:rights><cc:Agent><dc:title>Sixsixfive (sixisixfive.deviantart.com)</dc:title></cc:Agent></dc:rights><dc:description>A simple icon theme published under CC-BY-SA_V4(http://creativecommons.org/licenses/by-sa/4.0)</dc:description><dc:identifier>SSF</dc:identifier></cc:Work></rdf:RDF></metadata><!--Part of the Ivy icon them published under the CC-BY-SA_V4: http://creativecommons.org/licenses/by-sa/4.0 -->
</svg>