<?xml version="1.0" encoding="UTF-8" standalone="no"?>
<svg xmlns:dc="http://purl.org/dc/elements/1.1/" xmlns:cc="http://creativecommons.org/ns#" xmlns:rdf="http://www.w3.org/1999/02/22-rdf-syntax-ns#" xmlns:svg="http://www.w3.org/2000/svg" xmlns="http://www.w3.org/2000/svg" viewBox="0 0 32 32" id="svg2" version="1.1">
 <defs id="defs4">
  <linearGradient id="0" y1="43" y2="5" x2="0" gradientUnits="userSpaceOnUse" gradientTransform="matrix(0.65 0 0 0.65789 0.4 0.711)">
   <stop stop-color="#ddd" id="stop7"/>
   <stop offset="1" stop-color="#fff" id="stop9"/>
  </linearGradient>
  <linearGradient id="1" y1="5.03" x1="27.969" y2="28" x2="28" gradientUnits="userSpaceOnUse">
   <stop stop-color="#fff" id="stop12"/>
   <stop offset="1" stop-color="#fff" stop-opacity="0" id="stop14"/>
  </linearGradient>
 </defs>
 <path opacity="0.1" d="M 3,5 H29 V30 H3 z" id="path16"/>
 <path fill="url(#0)" d="M 3,4 H29 V29 H3 z" id="path18"/>
 <path fill="#5288d1" d="M 3,4 H29 V11 H3 z" id="path20"/>
 <path fill="#fff" fill-rule="evenodd" color="#000" d="M 6,6 H7 V7 H6 z" id="path22"/>
 <g id="g24" fill="none">
  <path d="m 3.5,4.5 0,24 25,0 0,-24 -25,0 z" id="path26" opacity="0.4" stroke="#000"/>
  <path d="m 4.5312,5.5312 0,21.9375 22.9375,0 0,-21.9375 -22.9375,0 z" id="path28" opacity="0.4" stroke="url(#1)"/>
 </g>
 <path opacity="0.4" d="M 4,10 H28 V11 H4 z" id="path30"/>
 <g id="g32" fill="#fff">
  <path d="m 4,11 24,0 0,1 -24,0 z" id="path34"/>
  <g id="g36" fill-rule="evenodd" color="#000">
   <path d="M 7,7 8,7 8,8 7,8 Z" id="path38"/>
   <path d="M 8,8 9,8 9,9 8,9 Z" id="path40"/>
   <g transform="scale(-1,1)" id="g42">
    <path d="m -9,6 1,0 0,1 -1,0 z" id="path44"/>
    <path d="m -8,7 1,0 0,1 -1,0 z" id="path46"/>
    <path d="m -7,8 1,0 0,1 -1,0 z" id="path48"/>
   </g>
  </g>
  <path d="m 10,6 1,0 0,3 -1,0 z" id="path50"/>
  <path d="m 10,8 3,0 0,1 -3,0 z" id="path52"/>
  <path d="m 12,6 1,0 0,2 -1,0 z" id="path54"/>
  <path d="m 10,6 3,0 0,1 -3,0 z" id="path56"/>
  <path d="m 14,8 3,0 0,1 -3,0 z" id="path58"/>
 </g>
 <metadata id="metadata9999">
  <rdf:RDF>
   <cc:Work>
    <dc:format>image/svg+xml</dc:format>
    <dc:type rdf:resource="http://purl.org/dc/dcmitype/StillImage"/>
    <dc:title>Ivy icon theme</dc:title>
    <cc:license rdf:resource="http://creativecommons.org/licenses/by-sa/4.0/"/>
    <dc:creator>
     <cc:Agent>
      <dc:title>Sixsixfive (sixsixfive.deviantart.com)</dc:title>
     </cc:Agent>
    </dc:creator>
    <dc:publisher>
     <cc:Agent>
      <dc:title>Sixsixfive (sixsixfive.deviantart.com)</dc:title>
     </cc:Agent>
    </dc:publisher>
    <dc:source>https://github.com/sixsixfive</dc:source>
    <dc:subject>
     <rdf:Bag>
      <rdf:li>ivy</rdf:li>
     </rdf:Bag>
    </dc:subject>
    <dc:contributor>
     <cc:Agent>
      <dc:title>ssf</dc:title>
     </cc:Agent>
    </dc:contributor>
    <dc:rights>
     <cc:Agent>
      <dc:title>Sixsixfive (sixisixfive.deviantart.com)</dc:title>
     </cc:Agent>
    </dc:rights>
    <dc:description>A simple icon theme published under CC-BY-SA_V4(http://creativecommons.org/licenses/by-sa/4.0)</dc:description>
    <dc:identifier>SSF</dc:identifier>
   </cc:Work>
  </rdf:RDF>
 </metadata>
 <!--Part of the Ivy icon them published under the CC-BY-SA_V4: http://creativecommons.org/licenses/by-sa/4.0 -->
</svg>
