<?xml version="1.0" encoding="UTF-8" standalone="no"?><svg viewBox="0 0 48.000001 48.000001" xmlns="http://www.w3.org/2000/svg" xmlns:svg="http://www.w3.org/2000/svg" xmlns:rdf="http://www.w3.org/1999/02/22-rdf-syntax-ns#" xmlns:xlink="http://www.w3.org/1999/xlink" version="1.1" id="svg2" xmlns:dc="http://purl.org/dc/elements/1.1/" xmlns:cc="http://creativecommons.org/ns#"><defs id="defs4"><linearGradient id="linearGradient4182"><stop id="stop4184" stop-color="#fff"/><stop stop-opacity="0" offset="1" id="stop4186" stop-color="#fff"/></linearGradient><linearGradient x1="27.865076" xlink:href="#linearGradient4182" y1="1023.0732" x2="28.423756" y2="1049.6615" id="linearGradient4168" gradientUnits="userSpaceOnUse"/><linearGradient x1="43.935791" xlink:href="#linearGradient4182" y1="1023.6481" x2="43.921875" y2="1047.6494" id="linearGradient4178" gradientUnits="userSpaceOnUse"/><linearGradient x1="36.11972" xlink:href="#linearGradient4182" y1="1007.3607" x2="36.16911" y2="1031.4338" id="linearGradient4188" gradientUnits="userSpaceOnUse"/></defs><g transform="matrix(1 0 0 1 0 -1004.3622)" id="layer1"><path stroke-linejoin="round" opacity="0.1" stroke-linecap="round" id="circle4195" d="m 24,1007.3622 a 13,13 0 0 0 -13,13 13,13 0 0 0 0.578125,3.7871 A 13,13 0 0 0 3,1036.3622 a 13,13 0 0 0 13,13 13,13 0 0 0 8.009766,-2.7656 13,13 0 0 0 7.990234,2.7656 13,13 0 0 0 13,-13 13,13 0 0 0 -8.568359,-12.2051 13,13 0 0 0 0.568359,-3.7949 13,13 0 0 0 -13,-13 z"/><path stroke-linejoin="round" stroke-linecap="round" id="circle3342" d="m 45,1035.3622 a 13,13 0 0 1 -13,13 13,13 0 0 1 -13,-13 13,13 0 0 1 13,-13 13,13 0 0 1 13,13 z" fill="#00dfff"/><path stroke-linejoin="round" stroke-linecap="round" id="circle3346" d="m 29,1035.3622 a 13,13 0 0 1 -13,13 13,13 0 0 1 -13,-13 13,13 0 0 1 13,-13 13,13 0 0 1 13,13 z" fill="#f34e73"/><path stroke-linejoin="round" stroke-linecap="round" id="circle3348" d="m 37,1019.3622 a 13,13 0 0 1 -13,13 13,13 0 0 1 -13,-13 13,13 0 0 1 13,-13 13,13 0 0 1 13,13 z" fill="#ffd506"/><path stroke-linejoin="round" stroke-linecap="round" transform="matrix(1 0 0 1 0 1004.3622)" id="circle3354" d="M 32,18 A 13,13 0 0 0 19.568359,27.205078 13,13 0 0 0 24,28 13,13 0 0 0 36.431641,18.794922 13,13 0 0 0 32,18 Z" fill="#5cd11d"/><path stroke-linejoin="round" stroke-linecap="round" transform="matrix(1 0 0 1 0 1004.3622)" id="circle4159" d="M 16,18 A 13,13 0 0 0 11.578125,18.787109 13,13 0 0 0 24,28 13,13 0 0 0 28.421875,27.212891 13,13 0 0 0 16,18 Z" fill="#d02604"/><path stroke-linejoin="round" stroke-linecap="round" transform="matrix(1 0 0 1 0 1004.3622)" id="circle4164" d="M 23.990234,20.765625 A 13,13 0 0 0 19,31 13,13 0 0 0 24.009766,41.234375 13,13 0 0 0 29,31 13,13 0 0 0 23.990234,20.765625 Z" fill="#5c9aeb"/><path stroke-linejoin="round" stroke-linecap="round" transform="matrix(1 0 0 1 0 1004.3622)" id="path4169" d="m 24,20.773438 a 13,13 0 0 0 -0.152344,0.117187 13,13 0 0 0 -0.574218,0.496094 13,13 0 0 0 -0.41211,0.384765 13,13 0 0 0 -0.470703,0.498047 13,13 0 0 0 -0.412109,0.466797 13,13 0 0 0 -0.414063,0.539063 13,13 0 0 0 -0.363281,0.509765 13,13 0 0 0 -0.34375,0.550782 13,13 0 0 0 -0.328125,0.570312 13,13 0 0 0 -0.287109,0.585938 13,13 0 0 0 -0.259766,0.578124 13,13 0 0 0 -0.300781,0.806641 13,13 0 0 0 -0.08984,0.261719 13,13 0 0 0 -0.01758,0.06641 13,13 0 0 0 0.07031,0.02344 13,13 0 0 0 1.097657,0.341796 13,13 0 0 0 0.294921,0.06836 13,13 0 0 0 0.933594,0.189453 13,13 0 0 0 0.46875,0.06055 13,13 0 0 0 0.832031,0.08398 A 13,13 0 0 0 24,28 a 13,13 0 0 0 4.169922,-0.701172 13,13 0 0 0 0.25,-0.0918 13,13 0 0 0 -1.466797,-3.162109 13,13 0 0 0 -0.220703,-0.357422 13,13 0 0 0 -0.296875,-0.392578 13,13 0 0 0 -0.501953,-0.658203 13,13 0 0 0 -0.0039,-0.0059 A 13,13 0 0 0 24,20.773438 Z" fill="#363636"/><path stroke-linejoin="round" stroke="#000" opacity="0.4" stroke-linecap="round" id="path4150" d="m 32,1022.916 c -3.258422,0 -6.496729,1.3405 -8.800781,3.6445 -2.304052,2.3041 -3.644532,5.5424 -3.644531,8.8008 0,3.2584 1.340479,6.4968 3.644531,8.8008 2.304052,2.3041 5.542359,3.6445 8.800781,3.6445 3.258422,0 6.496729,-1.3404 8.800781,-3.6445 2.304052,-2.304 3.644531,-5.5424 3.644531,-8.8008 0,-3.2584 -1.340479,-6.4967 -3.644531,-8.8008 -2.304052,-2.304 -5.542359,-3.6445 -8.800781,-3.6445 z" fill="none"/><path stroke-linejoin="round" stroke="#000" opacity="0.4" stroke-linecap="round" id="path4154" d="m 16,1022.8457 c -3.27665,0 -6.5326677,1.3491 -8.8496094,3.666 -2.3169416,2.317 -3.6660156,5.573 -3.6660156,8.8496 0,3.2767 1.349074,6.5327 3.6660156,8.8496 2.3169417,2.317 5.5729594,3.6661 8.8496094,3.6661 3.27665,0 6.532668,-1.3491 8.849609,-3.6661 2.316942,-2.3169 3.666016,-5.5729 3.666016,-8.8496 0,-3.2766 -1.349074,-6.5326 -3.666016,-8.8496 -2.316941,-2.3169 -5.572959,-3.666 -8.849609,-3.666 z" fill="none"/><path stroke-linejoin="round" stroke="#000" opacity="0.4" stroke-linecap="round" id="path4158" d="m 24,1006.8457 c -3.276544,0 -6.532743,1.3492 -8.849609,3.666 -2.316867,2.3169 -3.666016,5.5731 -3.666016,8.8496 0,3.2766 1.349149,6.5328 3.666016,8.8496 2.316866,2.3169 5.573065,3.6661 8.849609,3.6661 3.276544,0 6.532743,-1.3492 8.849609,-3.6661 2.316867,-2.3168 3.666016,-5.573 3.666016,-8.8496 0,-3.2765 -1.349149,-6.5327 -3.666016,-8.8496 -2.316866,-2.3168 -5.573065,-3.666 -8.849609,-3.666 z" fill="none"/><path stroke-linejoin="round" stroke="url(#linearGradient4168)" opacity="0.4" stroke-linecap="round" id="path4160" d="m 16,1023.7969 c -3.027664,0 -6.0368524,1.2458 -8.1777344,3.3867 -2.1408819,2.1409 -3.3867187,5.1501 -3.3867187,8.1777 0,3.0277 1.2458368,6.0369 3.3867187,8.1778 2.140882,2.1408 5.1500704,3.3867 8.1777344,3.3867 3.027664,0 6.036852,-1.2459 8.177734,-3.3867 2.140882,-2.1409 3.386719,-5.1501 3.386719,-8.1778 0,-3.0276 -1.245837,-6.0368 -3.386719,-8.1777 -2.140882,-2.1409 -5.15007,-3.3867 -8.177734,-3.3867 z" fill="none"/><path stroke-linejoin="round" stroke="url(#linearGradient4178)" opacity="0.4" stroke-linecap="round" id="path4170" d="m 32,1023.9395 c -2.990432,0 -5.961617,1.2311 -8.076172,3.3457 -2.114555,2.1145 -3.345703,5.0857 -3.345703,8.0761 0,2.9905 1.231148,5.9616 3.345703,8.0762 2.114555,2.1146 5.08574,3.3457 8.076172,3.3457 2.990432,0 5.961617,-1.2311 8.076172,-3.3457 2.114555,-2.1146 3.345703,-5.0857 3.345703,-8.0762 0,-2.9904 -1.231148,-5.9616 -3.345703,-8.0761 -2.114555,-2.1146 -5.08574,-3.3457 -8.076172,-3.3457 z" fill="none"/><path stroke-linejoin="round" stroke="url(#linearGradient4188)" opacity="0.4" stroke-linecap="round" id="path4180" d="m 24,1007.8359 c -3.017527,0 -6.016677,1.2413 -8.150391,3.375 -2.133713,2.1338 -3.375,5.1329 -3.375,8.1504 0,3.0176 1.241287,6.0167 3.375,8.1504 2.133714,2.1337 5.132864,3.375 8.150391,3.375 3.017527,0 6.016677,-1.2413 8.150391,-3.375 2.133713,-2.1337 3.375,-5.1328 3.375,-8.1504 0,-3.0175 -1.241287,-6.0166 -3.375,-8.1504 -2.133714,-2.1337 -5.132864,-3.375 -8.150391,-3.375 z" fill="none"/></g><metadata id="metadata9999"><rdf:RDF><cc:Work><dc:format>image/svg+xml</dc:format><dc:type rdf:resource="http://purl.org/dc/dcmitype/StillImage"/><dc:title>Ivy icon theme</dc:title><cc:license rdf:resource="http://creativecommons.org/licenses/by-sa/4.0/"/><dc:creator><cc:Agent><dc:title>Sixsixfive (sixsixfive.deviantart.com)</dc:title></cc:Agent></dc:creator><dc:publisher><cc:Agent><dc:title>Sixsixfive (sixsixfive.deviantart.com)</dc:title></cc:Agent></dc:publisher><dc:source>https://github.com/sixsixfive</dc:source><dc:subject><rdf:Bag><rdf:li>ivy</rdf:li></rdf:Bag></dc:subject><dc:contributor><cc:Agent><dc:title>ssf</dc:title></cc:Agent></dc:contributor><dc:rights><cc:Agent><dc:title>Sixsixfive (sixisixfive.deviantart.com)</dc:title></cc:Agent></dc:rights><dc:description>A simple icon theme published under CC-BY-SA_V4(http://creativecommons.org/licenses/by-sa/4.0)</dc:description><dc:identifier>SSF</dc:identifier></cc:Work></rdf:RDF></metadata><!--Part of the Ivy icon them published under the CC-BY-SA_V4: http://creativecommons.org/licenses/by-sa/4.0 -->
</svg>