<?xml version="1.0" encoding="UTF-8" standalone="no"?><svg viewBox="0 0 32 32" xmlns="http://www.w3.org/2000/svg" xmlns:svg="http://www.w3.org/2000/svg" xmlns:rdf="http://www.w3.org/1999/02/22-rdf-syntax-ns#" version="1.1" id="svg2" xmlns:dc="http://purl.org/dc/elements/1.1/" xmlns:cc="http://creativecommons.org/ns#"><defs id="defs4"><linearGradient y1="3" x2="0" y2="44" gradientTransform="matrix(0.65798 0 0 0.66676 1.063 0.661)" id="0" gradientUnits="userSpaceOnUse"><stop id="stop7" stop-color="#dedede"/><stop offset="1" id="stop9" stop-color="#f4f4f4"/></linearGradient><linearGradient y1="1.614" x2="0" y2="27.29" id="1" gradientUnits="userSpaceOnUse"><stop id="stop12" stop-color="#fff"/><stop stop-opacity="0" offset="1" id="stop14" stop-color="#fff"/></linearGradient><linearGradient x1="11.963" y1="43" x2="11.701" y2="21.845" gradientTransform="matrix(-0.6894 0 0 0.66 33.07 -0.418)" id="2" gradientUnits="userSpaceOnUse"><stop id="stop17" stop-color="#ffc092"/><stop offset="1" id="stop19" stop-color="#ff8b36"/></linearGradient></defs><rect y="1.995" x="5" ry="0.806" height="28" rx="0.806" id="rect21" width="22.997" fill="url(#0)"/><rect y="2.995" x="5" opacity="0.06" ry="0.806" height="28" rx="0.806" id="rect23" width="22.997"/><path stroke="url(#1)" stroke-width="0.994" opacity="0.7" transform="matrix(0.99956 0 0 1.01258 -0.983 1.366)" id="path25" d="m 7.5312 2.1562 v 24.625 h 19.9688 v -24.625 H 7.5312 z" fill="none"/><path id="path27" d="m 25,21.9364 -5,0 0,7 -7,0 0.048,-7 -5.048,0 8.5,-8 z" fill="url(#2)"/><g id="g29" fill="none"><g stroke-linejoin="round" id="g31"><path stroke="#000" opacity="0.4" stroke-linecap="round" id="path33" d="m 16.5078,14.5218 7.4044,6.9506 c -1.2419,0.0094 -2.48603,-0.01894 -3.72652,0.01431 -0.542162,0.0842 -0.709198,0.66957 -0.64598,1.14154 l 0,5.85665 -6.08437,0 c 0.0039,-2.12189 0.04864,-4.24602 0.02694,-6.36652 -0.0842,-0.542163 -0.66957,-0.709199 -1.14154,-0.64598 l -3.2579,0 z"/><path stroke="#fff" opacity="0.4" stroke-linecap="square" transform="matrix(1 0 0 -1 0 31.936)" id="path35" d="m 13.375,2.4375 a 0.991121,0.991121 0 0 0 -0.90625,1 c 0.0037,2.02199 0.01697,4.05583 0,6.0625 a 0.991121,0.991121 0 0 0 -0.125,-0.03125 l -3.25,0 a 0.991121,0.991121 0 0 0 -0.6875,1.71875 l 7.4062,6.9375 a 0.991121,0.991121 0 0 0 1.375,0 l 7.4062,-6.9375 A 0.991121,0.991121 0 0 0 23.90615,9.46875 C 22.74877,9.45999 21.6258,9.461804 20.4999,9.4375 a 0.991121,0.991121 0 0 0 0.03125,-0.125 l 0,-5.875 a 0.991121,0.991121 0 0 0 -1,-1 l -6.0625,0 a 0.991121,0.991121 0 0 0 -0.09375,0 z"/></g><path stroke="#000" stroke-width="0.994" opacity="0.4" transform="matrix(0.99956 0 0 1.01258 -0.983 1.366)" id="path37" d="m 6.7812,1.1562 c -0.142866,0 -0.25,0.112596 -0.25,0.28125 l 0,26.0938 c 0,0.168654 0.08985,0.25 0.25,0.25 l 21.4688,0 c 0.154628,0 0.25,-0.09537 0.25,-0.25 l 0,-26.0938 C 28.5,1.282823 28.387343,1.1562 28.25,1.1562 l -21.4688,0 z"/></g><metadata id="metadata9999"><rdf:RDF><cc:Work><dc:format>image/svg+xml</dc:format><dc:type rdf:resource="http://purl.org/dc/dcmitype/StillImage"/><dc:title>Ivy icon theme</dc:title><cc:license rdf:resource="http://creativecommons.org/licenses/by-sa/4.0/"/><dc:creator><cc:Agent><dc:title>Sixsixfive (sixsixfive.deviantart.com)</dc:title></cc:Agent></dc:creator><dc:publisher><cc:Agent><dc:title>Sixsixfive (sixsixfive.deviantart.com)</dc:title></cc:Agent></dc:publisher><dc:source>https://github.com/sixsixfive</dc:source><dc:subject><rdf:Bag><rdf:li>ivy</rdf:li></rdf:Bag></dc:subject><dc:contributor><cc:Agent><dc:title>ssf</dc:title></cc:Agent></dc:contributor><dc:rights><cc:Agent><dc:title>Sixsixfive (sixisixfive.deviantart.com)</dc:title></cc:Agent></dc:rights><dc:description>A simple icon theme published under CC-BY-SA_V4(http://creativecommons.org/licenses/by-sa/4.0)</dc:description><dc:identifier>SSF</dc:identifier></cc:Work></rdf:RDF></metadata><!--Part of the Ivy icon them published under the CC-BY-SA_V4: http://creativecommons.org/licenses/by-sa/4.0 -->
</svg>