<?xml version="1.0" encoding="UTF-8" standalone="no"?>
<svg xmlns:dc="http://purl.org/dc/elements/1.1/" xmlns:cc="http://creativecommons.org/ns#" xmlns:rdf="http://www.w3.org/1999/02/22-rdf-syntax-ns#" xmlns:svg="http://www.w3.org/2000/svg" xmlns="http://www.w3.org/2000/svg" xmlns:xlink="http://www.w3.org/1999/xlink" version="1.1" viewBox="0 0 32 32" id="svg2">
 <defs id="defs5">
  <linearGradient id="linearGradient4170">
   <stop stop-color="#fff" id="stop4172"/>
   <stop offset="1" stop-color="#fff" id="stop4174" stop-opacity="0"/>
  </linearGradient>
  <linearGradient id="linearGradient4197">
   <stop stop-color="#ebebeb" id="stop4199"/>
   <stop offset="1" stop-color="#fff" id="stop4201"/>
  </linearGradient>
  <linearGradient id="linearGradient4203" xlink:href="#linearGradient4197" y1="18" y2="48" gradientUnits="userSpaceOnUse" x2="0" gradientTransform="matrix(0.6590909 0 0 0.66666667 -0.300604 -3.315754)"/>
  <linearGradient xlink:href="#linearGradient4170" id="linearGradient4176" y1="12" y2="29" x2="0" gradientUnits="userSpaceOnUse" gradientTransform="matrix(1 0 0 1 0.017578 -3.982422)"/>
  <linearGradient id="0" y1="0.937" y2="19.938" x2="0" gradientUnits="userSpaceOnUse">
   <stop stop-color="#66b03e" id="stop4225"/>
   <stop offset="1" stop-color="#95ce76" id="stop4227"/>
  </linearGradient>
  <linearGradient id="1" y1="1.938" y2="18.938" x2="0" gradientUnits="userSpaceOnUse">
   <stop stop-color="#fff" id="stop4230"/>
   <stop offset="1" stop-color="#fff" id="stop4232" stop-opacity="0"/>
  </linearGradient>
 </defs>
 <path opacity="0.1" stroke-linejoin="round" id="path4178" stroke-linecap="round" d="m 6.2903047,7.950911 c -0.7302727,0 -1.3181817,0.594666 -1.3181817,1.333333 l 3e-7,9.733334 -2.6363635,0 c -0.7302729,0 -1.3181819,0.594667 -1.3181819,1.333334 l 0,3.333333 0,2 0,1.333333 1.3181819,0 26.3636362,0 1.318182,0 0,-1.333333 0,-2 0,-3.333333 c 0,-0.738667 -0.587909,-1.333334 -1.318182,-1.333334 l -2.636363,0 0,-9.733334 c 0,-0.738667 -0.58791,-1.333333 -1.318183,-1.333333 z"/>
 <path fill="url(#linearGradient4203)" stroke-linejoin="round" id="rect4171" stroke-linecap="round" d="m 6.2903047,6.950911 c -0.7302727,0 -1.3181817,0.594666 -1.3181817,1.333333 l 3e-7,9.733334 -2.6363635,0 c -0.7302729,0 -1.3181819,0.594667 -1.3181819,1.333334 l 0,3.333333 0,2 0,1.333333 1.3181819,0 26.3636362,0 1.318182,0 0,-1.333333 0,-2 0,-3.333333 c 0,-0.738667 -0.587909,-1.333334 -1.318182,-1.333334 l -2.636363,0 0,-9.733334 c 0,-0.738667 -0.58791,-1.333333 -1.318183,-1.333333 z"/>
 <path opacity="0.4" fill="none" stroke="#000" stroke-linejoin="round" id="path4166" stroke-linecap="round" d="m 6.2910154,7.476562 c -0.4447796,0 -0.7929687,0.348748 -0.7929687,0.808594 l 0,9.732422 A 0.52537217,0.52537217 0 0 1 4.972656,18.542969 l -2.6367187,0 c -0.4447799,0 -0.7929688,0.348747 -0.7929688,0.808593 l 0,3.332032 0,2 0,0.808593 0.7929688,0 26.3632817,0 0.792968,0 0,-0.808593 0,-2 0,-3.332032 c 0,-0.459846 -0.348188,-0.808593 -0.792968,-0.808593 l -2.636719,0 a 0.52537217,0.52537217 0 0 1 -0.525391,-0.525391 l 0,-9.732422 c 0,-0.459846 -0.348187,-0.808594 -0.792969,-0.808594 l -18.4531246,0 z"/>
 <path opacity="0.5" fill="none" stroke="url(#linearGradient4176)" stroke-linejoin="round" id="path4168" stroke-linecap="round" d="m 6.4902341,8.46875 0,9.548828 A 1.5178119,1.5178119 0 0 1 4.972656,19.535156 l -2.4375,0 0,3.148438 0,1.816406 25.964844,0 0,-1.816406 0,-3.148438 -2.4375,0 a 1.5178119,1.5178119 0 0 1 -1.517578,-1.517578 l 0,-9.548828 -18.0546879,0 z"/>
 <g id="g4254" transform="translate(12.09766,9.03125)">
  <path id="path4234" d="m 6.9375,1.9435 0,6 -6,0 0,7 6,0 0,6 7,0 0,-6 5.999999,0 0,-7 -5.999999,0 0,-6 z" opacity="0.1"/>
  <path id="path4236" d="m 6.9375,0.9375 0,6 -6,0 0,7 6,0 0,6 7,0 0,-6 5.999999,0 0,-7 -5.999999,0 0,-6 z" fill="url(#0)"/>
  <g id="g4238" fill="none">
   <path id="path4240" d="m 7.4687,1.4687 0,5.4688 A 0.521564,0.521564 0 0 1 6.93745,7.46875 l -5.46875,0 0,5.9375 5.46875,0 A 0.521564,0.521564 0 0 1 7.4687,13.9375 l 0,5.46875 5.9375,0 0,-5.46875 a 0.521564,0.521564 0 0 1 0.53125,-0.53125 l 5.46875,0 0,-5.9375 -5.46875,0 A 0.521564,0.521564 0 0 1 13.4062,6.9375 l 0,-5.46875 -5.9375,0 z" opacity="0.4" stroke="#000"/>
   <path id="path4242" d="m 8.5,2.5 0,4.4375 A 1.57443,1.57443 0 0 1 6.9375,8.5 l -4.4375,0 0,3.875 4.4375,0 A 1.57443,1.57443 0 0 1 8.5,13.9375 l 0,4.4375 3.875001,0 0,-4.4375 a 1.57443,1.57443 0 0 1 1.5625,-1.5625 l 4.437499,0 0,-3.875 -4.437499,0 a 1.57443,1.57443 0 0 1 -1.5625,-1.5625 l 0,-4.4375 L 8.5,2.5 Z" opacity="0.4" stroke="url(#1)"/>
  </g>
 </g>
 <metadata id="metadata9999">
  <rdf:RDF>
   <cc:Work>
    <dc:format>image/svg+xml</dc:format>
    <dc:type rdf:resource="http://purl.org/dc/dcmitype/StillImage"/>
    <dc:title>Ivy icon theme</dc:title>
    <cc:license rdf:resource="http://creativecommons.org/licenses/by-sa/4.0/"/>
    <dc:creator>
     <cc:Agent>
      <dc:title>Sixsixfive (sixsixfive.deviantart.com)</dc:title>
     </cc:Agent>
    </dc:creator>
    <dc:publisher>
     <cc:Agent>
      <dc:title>Sixsixfive (sixsixfive.deviantart.com)</dc:title>
     </cc:Agent>
    </dc:publisher>
    <dc:source>https://github.com/sixsixfive</dc:source>
    <dc:subject>
     <rdf:Bag>
      <rdf:li>ivy</rdf:li>
     </rdf:Bag>
    </dc:subject>
    <dc:contributor>
     <cc:Agent>
      <dc:title>ssf</dc:title>
     </cc:Agent>
    </dc:contributor>
    <dc:rights>
     <cc:Agent>
      <dc:title>Sixsixfive (sixisixfive.deviantart.com)</dc:title>
     </cc:Agent>
    </dc:rights>
    <dc:description>A simple icon theme published under CC-BY-SA_V4(http://creativecommons.org/licenses/by-sa/4.0)</dc:description>
    <dc:identifier>SSF</dc:identifier>
   </cc:Work>
  </rdf:RDF>
 </metadata>
 <!--Part of the Ivy icon them published under the CC-BY-SA_V4: http://creativecommons.org/licenses/by-sa/4.0 -->
</svg>
