<?xml version="1.0" encoding="UTF-8" standalone="no"?><svg xmlns:svg="http://www.w3.org/2000/svg" xmlns="http://www.w3.org/2000/svg" viewBox="0 0 32 32" xmlns:rdf="http://www.w3.org/1999/02/22-rdf-syntax-ns#" xmlns:xlink="http://www.w3.org/1999/xlink" version="1.1" id="svg2" xmlns:dc="http://purl.org/dc/elements/1.1/" xmlns:cc="http://creativecommons.org/ns#"><defs id="defs4"><linearGradient y1="43" x2="0" y2="5" id="0" gradientTransform="matrix(0.65 0 0 0.65789 0.4 0.711)" gradientUnits="userSpaceOnUse"><stop id="stop7" stop-color="#ddd"/><stop offset="1" id="stop9" stop-color="#fff"/></linearGradient><linearGradient x1="27.969" y1="5.03" x2="28" y2="28" id="1" gradientUnits="userSpaceOnUse"><stop id="stop12" stop-color="#fff"/><stop stop-opacity="0" offset="1" id="stop14" stop-color="#fff"/></linearGradient><linearGradient id="linearGradient4185"><stop stop-opacity="1" id="stop4187" stop-color="#fff"/><stop stop-opacity="0" offset="1" id="stop4189" stop-color="#fff"/></linearGradient><linearGradient id="linearGradient3797"><stop id="stop3799" stop-color="#ff8b36"/><stop offset="1" id="stop3801" stop-color="#ffd506"/></linearGradient><linearGradient x1="0.168861" xlink:href="#linearGradient3797" y1="-21.889835" x2="0" y2="42.838985" id="linearGradient4173" gradientTransform="matrix(0.50181473 0 0 0.52631575 -7.5004207 -7.6315781)" gradientUnits="userSpaceOnUse"/><linearGradient x1="13.860847" xlink:href="#linearGradient4185" y1="-3.813669" x2="14.00766" y2="13.984481" id="linearGradient4191" gradientUnits="userSpaceOnUse"/></defs><path opacity="0.1" id="path16" d="M 3,5 H29 V30 H3 z"/><path id="path18" d="M 3,4 H29 V29 H3 z" fill="url(#0)"/><path id="path20" d="M 3,4 H29 V11 H3 z" fill="#5288d1"/><path id="path22" color="#000" fill-rule="evenodd" d="M 6,6 H7 V7 H6 z" fill="#fff"/><g id="g24" fill="none"><path stroke="#000" opacity="0.4" id="path26" d="m 3.5,4.5 0,24 25,0 0,-24 -25,0 z"/><path stroke="url(#1)" opacity="0.4" id="path28" d="m 4.5312,5.5312 0,21.9375 22.9375,0 0,-21.9375 -22.9375,0 z"/></g><path opacity="0.4" id="path30" d="M 4,10 H28 V11 H4 z"/><g id="g32" fill="#fff"><path id="path34" d="m 4,11 24,0 0,1 -24,0 z"/><g id="g36" color="#000" fill-rule="evenodd"><path id="path38" d="M 7,7 8,7 8,8 7,8 Z"/><path id="path40" d="M 8,8 9,8 9,9 8,9 Z"/><g id="g42" transform="matrix(-1 0 0 1 0 0)"><path id="path44" d="m -9,6 1,0 0,1 -1,0 z"/><path id="path46" d="m -8,7 1,0 0,1 -1,0 z"/><path id="path48" d="m -7,8 1,0 0,1 -1,0 z"/></g></g><path id="path50" d="m 10,6 1,0 0,3 -1,0 z"/><path id="path52" d="m 10,8 3,0 0,1 -3,0 z"/><path id="path54" d="m 12,6 1,0 0,2 -1,0 z"/><path id="path56" d="m 10,6 3,0 0,1 -3,0 z"/><path id="path58" d="m 14,8 3,0 0,1 -3,0 z"/></g><metadata id="metadata9999"><rdf:RDF><cc:Work><dc:format>image/svg+xml</dc:format><dc:type rdf:resource="http://purl.org/dc/dcmitype/StillImage"/><dc:title/><cc:license rdf:resource="http://creativecommons.org/licenses/by-sa/4.0/"/><dc:creator><cc:Agent><dc:title>Sixsixfive (sixsixfive.deviantart.com)</dc:title></cc:Agent></dc:creator><dc:publisher><cc:Agent><dc:title>Sixsixfive (sixsixfive.deviantart.com)</dc:title></cc:Agent></dc:publisher><dc:source>https://github.com/sixsixfive</dc:source><dc:subject><rdf:Bag><rdf:li>ivy</rdf:li></rdf:Bag></dc:subject><dc:contributor><cc:Agent><dc:title>ssf</dc:title></cc:Agent></dc:contributor><dc:rights><cc:Agent><dc:title>Sixsixfive (sixisixfive.deviantart.com)</dc:title></cc:Agent></dc:rights><dc:description>A simple icon theme published under CC-BY-SA_V4(http://creativecommons.org/licenses/by-sa/4.0)</dc:description><dc:identifier>SSF</dc:identifier></cc:Work></rdf:RDF></metadata><!--Part of the Ivy icon them published under the CC-BY-SA_V4: http://creativecommons.org/licenses/by-sa/4.0 -->
<g id="g4300" transform="matrix(1 0 0 1 16.9627 16.0246)"><path stroke-linejoin="round" stroke-linecap="round" opacity="0.1" id="path4193" d="M 10.916467,15.917122 C 10.121656,16.52235 5.9798515,13.61428 4.9976524,13.613934 4.0154516,13.613585 -0.12788081,16.518547 -0.92230231,15.912757 -1.7167239,15.306966 -0.93656801,10.027564 -1.2397693,9.0477217 -1.5429705,8.0678782 -5.285471,4.5829332 -4.9816397,3.6033051 -4.6778083,2.6236764 0.50496535,2.7689246 1.2997765,2.1636959 c 0.7948111,-0.6052292 2.7213396,-6.164038 3.7035386,-6.1636906 0.9822009,3.473e-4 2.9054754,5.5605178 3.6998973,6.1663094 0.7944209,0.6057912 5.9769656,0.4642085 6.2801666,1.4440517 0.303201,0.9798432 -3.440614,4.4619641 -3.744445,5.4415916 -0.303832,0.97963 0.472343,6.259934 -0.322467,6.865164 z" fill="#000"/><path stroke-linejoin="round" stroke-linecap="round" id="path3363" d="M 10.916467,14.917122 C 10.121656,15.52235 5.9798515,12.61428 4.9976524,12.613934 4.0154516,12.613585 -0.12788081,15.518547 -0.92230231,14.912757 -1.7167239,14.306966 -0.93656801,9.0275591 -1.2397693,8.0477167 -1.5429705,7.0678732 -5.285471,3.5829282 -4.9816397,2.6033001 -4.6778083,1.6236714 0.50496535,1.7689196 1.2997765,1.1636909 c 0.7948111,-0.60522896 2.7213396,-6.164038 3.7035386,-6.1636906 0.9822009,3.473e-4 2.9054754,5.56051804 3.6998973,6.1663094 0.7944209,0.6057912 5.9769656,0.4642085 6.2801666,1.4440517 0.303201,0.9798432 -3.440614,4.4619641 -3.744445,5.4415916 -0.303832,0.9796301 0.472343,6.259939 -0.322467,6.865169 z" fill="url(#linearGradient4173)"/><path stroke-linejoin="round" stroke="#000" stroke-linecap="round" opacity="0.5" id="path4181" d="m 5.0039062,-4.5234375 c 0.1018392,3.6e-5 0.042053,-0.018283 -0.066406,0.09375 -0.1084596,0.1120331 -0.2564648,0.3112779 -0.4121094,0.5605469 -0.3112891,0.4985379 -0.6658322,1.2017274 -1.015625,1.9296875 C 3.1599729,-1.2114931 2.814558,-0.45733202 2.5,0.16210938 2.342721,0.47183007 2.1940202,0.74650054 2.0507812,0.9765625 1.9075423,1.2066245 1.790095,1.3889951 1.5878906,1.5429688 1.1834403,1.8509475 0.7127104,1.8890612 0.09179687,1.9785156 -0.52911665,2.06797 -1.2620042,2.1365779 -1.9726562,2.2167969 c -0.7106521,0.080219 -1.4006691,0.1739678 -1.8984376,0.296875 -0.2488842,0.061454 -0.44893,0.1323878 -0.5644531,0.1933593 -0.1155231,0.060972 -0.1110399,0.099154 -0.091797,0.037109 0.014817,-0.047774 -0.00364,0.021429 0.050781,0.1621094 0.054419,0.1406804 0.1609562,0.3391618 0.3066406,0.5625 0.2913689,0.4466764 0.7315703,0.9976832 1.1953125,1.5507812 0.4637423,0.5530981 0.9521321,1.1111187 1.3496094,1.6015626 0.3974773,0.4904438 0.70581826,0.8520313 0.83984375,1.2851562 0.12852399,0.4153453 0.10425504,0.9013369 0.0859375,1.5546875 -0.0183175,0.6533509 -0.0612733,1.4249029 -0.0898438,2.1777349 -0.0285704,0.752831 -0.040779,1.489289 0,2.048828 0.0203895,0.279769 0.055375,0.515743 0.0976563,0.671875 0.0422813,0.156132 0.10680819,0.210594 0.0585938,0.173828 -0.0530022,-0.04042 -0.0299226,-0.005 0.0996094,-0.01953 0.12953193,-0.01453 0.33305005,-0.06621 0.57031249,-0.152344 0.47452489,-0.172271 1.08760546,-0.47259 1.71093756,-0.794922 0.6233321,-0.322331 1.2606903,-0.66746 1.8144531,-0.9375 0.5537628,-0.27004 0.9551615,-0.492358 1.4355469,-0.492187 0.4805205,1.69e-4 0.8819961,0.223544 1.4355469,0.49414 0.5535507,0.270597 1.189431,0.616473 1.8125,0.939453 0.6230689,0.322981 1.2365664,0.622172 1.7109374,0.794922 0.2371861,0.08638 0.4408181,0.139644 0.5703131,0.154297 0.129495,0.01465 0.152684,-0.02088 0.09961,0.01953 -0.04827,0.03676 0.01622,-0.01773 0.05859,-0.173828 0.04237,-0.156101 0.07711,-0.39211 0.09766,-0.671875 0.04109,-0.559529 0.0301,-1.2979 0.002,-2.050781 -0.02815,-0.75288 -0.0719,-1.522394 -0.08984,-2.1757815 -0.018,-0.6533871 -0.04097,-1.1393825 0.08784,-1.5546871 C 10.917472,7.4791936 11.22736,7.1171764 11.625,6.6269531 12.02264,6.1367299 12.508752,5.5782444 12.972656,5.0253906 13.436561,4.4725369 13.8784,3.9230942 14.169922,3.4765625 c 0.145761,-0.2232659 0.252157,-0.4218321 0.30664,-0.5625 0.05448,-0.1406679 0.03601,-0.2098371 0.05078,-0.1621094 0.01918,0.061996 0.02368,0.022024 -0.0918,-0.039063 C 14.320068,2.651804 14.119893,2.5812217 13.871094,2.5195312 13.373494,2.3961503 12.683126,2.3016 11.972656,2.2207031 11.262186,2.1398063 10.528954,2.0704985 9.9082031,1.9804688 9.2874518,1.890439 8.8181851,1.8530884 8.4140625,1.5449219 8.2119472,1.3907976 8.094214,1.2086718 7.9511719,0.97851562 7.8081297,0.74835945 7.6608979,0.47191466 7.5039062,0.16210938 7.1899229,-0.45750119 6.8432294,-1.2093761 6.4941406,-1.9375 6.1450518,-2.6656239 5.7912608,-3.3704568 5.4804688,-3.8691406 5.3250727,-4.1184825 5.1786434,-4.3176105 5.0703125,-4.4296875 c -0.1083309,-0.112077 -0.1682178,-0.093786 -0.066406,-0.09375 z" fill="none"/><path stroke-linejoin="miter" stroke-opacity="1" stroke="url(#linearGradient4191)" stroke-linecap="round" opacity="0.46" id="path4183" d="M 5.0039062,-2.6777344 C 4.8033642,-2.30504 4.6110709,-1.9703343 4.3925781,-1.515625 4.04747,-0.79741409 3.7013455,-0.04298452 3.3730469,0.60351562 3.2088975,0.9267657 3.0498636,1.222696 2.8808594,1.4941406 2.7118551,1.7655853 2.5933187,2.0072957 2.1796875,2.3222656 c -0.8273895,0.6300363 -1.28826884,0.530059 -1.94726562,0.625 -0.65899679,0.094941 -1.39705398,0.1633235 -2.09570308,0.2421875 -0.4539717,0.051245 -0.7876607,0.1159583 -1.1523438,0.1777344 0.2384187,0.322062 0.4707645,0.6414791 0.7910156,1.0234375 0.4553748,0.5431182 0.9440183,1.1007761 1.35937502,1.6132812 0.41535677,0.5125052 0.76191054,0.7933621 1.015625,1.6132813 0.2369039,0.7655919 0.14786537,1.1948594 0.12890626,1.8710937 C 0.26033776,10.164516 0.21753825,10.935737 0.18945312,11.675781 0.16716603,12.263047 0.17309571,12.761142 0.1875,13.214844 0.5333685,13.062642 0.8728526,12.917542 1.2988281,12.697266 1.9106093,12.380907 2.5486395,12.03487 3.1328125,11.75 c 0.584173,-0.28487 0.9021165,-0.592139 1.8652344,-0.591797 0.9635315,3.4e-4 1.2832236,0.308286 1.8671875,0.59375 0.5839639,0.285464 1.2205026,0.63222 1.8320312,0.949219 0.4257997,0.220722 0.7655873,0.365019 1.1113282,0.517578 0.014594,-0.453489 0.019983,-0.952348 -0.00195,-1.539062 C 9.7789693,10.939593 9.7353715,10.170418 9.7167969,9.4941406 9.6982223,8.8178636 9.6102129,8.3866703 9.8476562,7.6210938 10.10179,6.8017027 10.447764,6.5220285 10.863281,6.0097656 11.278798,5.4975028 11.767127,4.9393578 12.222656,4.3964844 12.543104,4.0145935 12.777077,3.6950431 13.015625,3.3730469 12.650805,3.310841 12.317662,3.2450969 11.863281,3.1933594 11.164818,3.1138296 10.426392,3.0447689 9.7675781,2.9492188 9.1087642,2.8536686 8.6469012,2.9525866 7.8203125,2.3222656 7.4068534,2.0069799 7.2898808,1.7676738 7.1210938,1.4960938 6.9523067,1.2245137 6.7947142,0.92881776 6.6308594,0.60546875 6.3031497,-0.04122928 5.9557412,-0.79725368 5.6113281,-1.515625 5.393386,-1.9702052 5.2039948,-2.305076 5.0039062,-2.6777344 Z" fill="none"/><path stroke-linejoin="round" stroke="#000" stroke-linecap="round" opacity="0.2" id="path4170" d="m 5.0039062,-4.5234375 c 0.1018392,3.6e-5 0.042053,-0.018283 -0.066406,0.09375 -0.1084596,0.1120331 -0.2564648,0.3112779 -0.4121094,0.5605469 -0.3112891,0.4985379 -0.6658322,1.2017274 -1.015625,1.9296875 C 3.1599729,-1.2114931 2.814558,-0.45733202 2.5,0.16210938 2.342721,0.47183007 2.1940202,0.74650054 2.0507812,0.9765625 1.9075423,1.2066245 1.790095,1.3889951 1.5878906,1.5429688 1.1834403,1.8509475 0.7127104,1.8890612 0.09179687,1.9785156 -0.52911665,2.06797 -1.2620042,2.1365779 -1.9726562,2.2167969 c -0.7106521,0.080219 -1.4006691,0.1739678 -1.8984376,0.296875 -0.2488842,0.061454 -0.44893,0.1323878 -0.5644531,0.1933593 -0.1155231,0.060972 -0.1110399,0.099154 -0.091797,0.037109 0.014817,-0.047774 -0.00364,0.021429 0.050781,0.1621094 0.054419,0.1406804 0.1609562,0.3391618 0.3066406,0.5625 0.2913689,0.4466764 0.7315703,0.9976832 1.1953125,1.5507812 0.4637423,0.5530981 0.9521321,1.1111187 1.3496094,1.6015626 0.3974773,0.4904438 0.70581826,0.8520313 0.83984375,1.2851562 0.12852399,0.4153453 0.10425504,0.9013369 0.0859375,1.5546875 -0.0183175,0.6533509 -0.0612733,1.4249029 -0.0898438,2.1777349 -0.0285704,0.752831 -0.040779,1.489289 0,2.048828 0.0203895,0.279769 0.055375,0.515743 0.0976563,0.671875 0.0422813,0.156132 0.10680819,0.210594 0.0585938,0.173828 -0.0530022,-0.04042 -0.0299226,-0.005 0.0996094,-0.01953 0.12953193,-0.01453 0.33305005,-0.06621 0.57031249,-0.152344 0.47452489,-0.172271 1.08760546,-0.47259 1.71093756,-0.794922 0.6233321,-0.322331 1.2606903,-0.66746 1.8144531,-0.9375 0.5537628,-0.27004 0.9551615,-0.492358 1.4355469,-0.492187 0.4805205,1.69e-4 0.8819961,0.223544 1.4355469,0.49414 0.5535507,0.270597 1.189431,0.616473 1.8125,0.939453 0.6230689,0.322981 1.2365664,0.622172 1.7109374,0.794922 0.2371861,0.08638 0.4408181,0.139644 0.5703131,0.154297 0.129495,0.01465 0.152684,-0.02088 0.09961,0.01953 -0.04827,0.03676 0.01622,-0.01773 0.05859,-0.173828 0.04237,-0.156101 0.07711,-0.39211 0.09766,-0.671875 0.04109,-0.559529 0.0301,-1.2979 0.002,-2.050781 -0.02815,-0.75288 -0.0719,-1.522394 -0.08984,-2.1757815 -0.018,-0.6533871 -0.04097,-1.1393825 0.08784,-1.5546871 C 10.917472,7.4791936 11.22736,7.1171764 11.625,6.6269531 12.02264,6.1367299 12.508752,5.5782444 12.972656,5.0253906 13.436561,4.4725369 13.8784,3.9230942 14.169922,3.4765625 c 0.145761,-0.2232659 0.252157,-0.4218321 0.30664,-0.5625 0.05448,-0.1406679 0.03601,-0.2098371 0.05078,-0.1621094 0.01918,0.061996 0.02368,0.022024 -0.0918,-0.039063 C 14.320068,2.651804 14.119893,2.5812217 13.871094,2.5195312 13.373494,2.3961503 12.683126,2.3016 11.972656,2.2207031 11.262186,2.1398063 10.528954,2.0704985 9.9082031,1.9804688 9.2874518,1.890439 8.8181851,1.8530884 8.4140625,1.5449219 8.2119472,1.3907976 8.094214,1.2086718 7.9511719,0.97851562 7.8081297,0.74835945 7.6608979,0.47191466 7.5039062,0.16210938 7.1899229,-0.45750119 6.8432294,-1.2093761 6.4941406,-1.9375 6.1450518,-2.6656239 5.7912608,-3.3704568 5.4804688,-3.8691406 5.3250727,-4.1184825 5.1786434,-4.3176105 5.0703125,-4.4296875 c -0.1083309,-0.112077 -0.1682178,-0.093786 -0.066406,-0.09375 z" fill="none"/></g></svg>