<?xml version="1.0" encoding="UTF-8" standalone="no"?>
<svg xmlns:dc="http://purl.org/dc/elements/1.1/" xmlns:cc="http://creativecommons.org/ns#" xmlns:rdf="http://www.w3.org/1999/02/22-rdf-syntax-ns#" xmlns:svg="http://www.w3.org/2000/svg" xmlns="http://www.w3.org/2000/svg" viewBox="0 0 48 48" id="svg2" version="1.1">
 <defs id="defs4">
  <linearGradient id="0" y1="42.22" y2="4.22" x2="0" gradientUnits="userSpaceOnUse">
   <stop stop-color="#ddd" id="stop7"/>
   <stop offset="1" stop-color="#fff" id="stop9"/>
  </linearGradient>
  <linearGradient id="1" y1="5.158" x1="43.06" y2="57.35" x2="45.501" gradientUnits="userSpaceOnUse">
   <stop stop-color="#fff" id="stop12"/>
   <stop offset="1" stop-color="#fff" stop-opacity="0" id="stop14"/>
  </linearGradient>
 </defs>
 <path opacity="0.1" d="m 4 5.22 h 40 v 38 H 4 z" id="path16"/>
 <path fill="url(#0)" d="m 4 4.22 h 40 v 38 H 4 z" id="path18"/>
 <g id="g20" fill="none">
  <path d="m 4.4684,4.689 0,37.0625 39.0625,0 0,-37.0625 -39.0625,0 z" id="path22" opacity="0.4" stroke="#000"/>
  <path d="m 5.4372,5.6578 0,35.125 37.125,0 0,-35.125 -37.125,0 z" id="path24" stroke="url(#1)"/>
 </g>
 <path fill="#fff" d="m 9 10 v 4 h 30 v -4 H 9 z m 0 8 v 4 h 30 v -4 H 9 z m 0 8 v 4 h 30 v -4 H 9 z m 0 8 v 4 h 30 v -4 H 9 z" id="path26"/>
 <g transform="scale(-1,1)" id="g28" fill="#171717">
  <path d="m -39,9 30,0 0,4 -30,0 z" id="path30" opacity="0.7"/>
  <path d="m -39,17 30,0 0,4 -30,0 z" id="path32" opacity="0.7"/>
  <path d="m -39,25 30,0 0,4 -30,0 z" id="path34" opacity="0.7"/>
  <path d="m -39,33 30,0 0,4 -30,0 z" id="path36" opacity="0.7"/>
 </g>
 <metadata id="metadata9999">
  <rdf:RDF>
   <cc:Work>
    <dc:format>image/svg+xml</dc:format>
    <dc:type rdf:resource="http://purl.org/dc/dcmitype/StillImage"/>
    <dc:title>Ivy icon theme</dc:title>
    <cc:license rdf:resource="http://creativecommons.org/licenses/by-sa/4.0/"/>
    <dc:creator>
     <cc:Agent>
      <dc:title>Sixsixfive (sixsixfive.deviantart.com)</dc:title>
     </cc:Agent>
    </dc:creator>
    <dc:publisher>
     <cc:Agent>
      <dc:title>Sixsixfive (sixsixfive.deviantart.com)</dc:title>
     </cc:Agent>
    </dc:publisher>
    <dc:source>https://github.com/sixsixfive</dc:source>
    <dc:subject>
     <rdf:Bag>
      <rdf:li>ivy</rdf:li>
     </rdf:Bag>
    </dc:subject>
    <dc:contributor>
     <cc:Agent>
      <dc:title>ssf</dc:title>
     </cc:Agent>
    </dc:contributor>
    <dc:rights>
     <cc:Agent>
      <dc:title>Sixsixfive (sixisixfive.deviantart.com)</dc:title>
     </cc:Agent>
    </dc:rights>
    <dc:description>A simple icon theme published under CC-BY-SA_V4(http://creativecommons.org/licenses/by-sa/4.0)</dc:description>
    <dc:identifier>SSF</dc:identifier>
   </cc:Work>
  </rdf:RDF>
 </metadata>
 <!--Part of the Ivy icon them published under the CC-BY-SA_V4: http://creativecommons.org/licenses/by-sa/4.0 -->
</svg>
