<?xml version="1.0" encoding="UTF-8" standalone="no"?><svg xmlns:xlink="http://www.w3.org/1999/xlink" xmlns:cc="http://creativecommons.org/ns#" viewBox="0 0 48 48" version="1.1" id="svg2" xmlns:svg="http://www.w3.org/2000/svg" xmlns:rdf="http://www.w3.org/1999/02/22-rdf-syntax-ns#" xmlns="http://www.w3.org/2000/svg" xmlns:dc="http://purl.org/dc/elements/1.1/"><defs id="defs4"><path fill="url(#9)" id="1" d="M 15 13 A 5 5 0 1 1 5 13 5 5 0 1 1 15 13 z"/><path opacity="0.4" fill="none" id="2" stroke="#000" d="m 10 8.5312 c -2.47675 0 -4.46875 1.992 -4.46875 4.46875 0 2.47675 1.992 4.46875 4.46875 4.46875 2.47675 0 4.46875 -1.992 4.46875 -4.46875 0 -2.47675 -1.992 -4.46875 -4.46875 -4.46875 z"/><linearGradient x2="0" gradientUnits="userSpaceOnUse" xlink:href="#6" id="3" y2="17" y1="9"/><linearGradient x2="41.9" gradientUnits="userSpaceOnUse" x1="42" xlink:href="#6" id="4" y2="23.06" y1="43.06"/><linearGradient id="5"><stop stop-opacity="0.2" id="stop11"/><stop offset="1" stop-opacity="0" id="stop13"/></linearGradient><linearGradient id="6"><stop id="stop16" stop-color="#fff"/><stop offset="1" stop-opacity="0" id="stop18" stop-color="#fff"/></linearGradient><radialGradient r="8.655" gradientUnits="userSpaceOnUse" cx="12.547" xlink:href="#5" cy="45.25" id="7" gradientTransform="matrix(0.35271 0 0 0.11459 8.575 38.916)"/><radialGradient r="8.655" gradientUnits="userSpaceOnUse" cx="12.577" xlink:href="#5" cy="44.784" id="8" gradientTransform="matrix(0.23107 0 0 0.10872 26.09 39.13)"/><radialGradient r="5" gradientUnits="userSpaceOnUse" cx="9.683" cy="17.401" id="9" gradientTransform="matrix(1.01219 -0.36807 0.8 2.2 -13.722 -16.719)"><stop id="stop23" stop-color="#66b03e"/><stop offset="1" id="stop25" stop-color="#7bc454"/></radialGradient></defs><path opacity="0.652" fill="url(#8)" id="path27" d="m 31.0041 44.0505 a 1.92683 0.941057 0 0 1 -3.85366 0 1.92683 0.941057 0 1 1 3.85366 0 z"/><path fill="url(#7)" id="path29" d="m 16.0528 44.1016 a 3.05285 0.99187 0 0 1 -6.10569 0 3.05285 0.99187 0 1 1 6.10569 0 z"/><path fill="#5288d1" id="path31" d="m 28.9939,44.0625 14.3075,-40 -14.3014,0 -0.0061,40 z"/><use xlink:href="#1" id="use33" transform="matrix(1 0 0 1 3 11)"/><g stroke-miterlimit="43.799999" fill="none" id="g35"><path opacity="0.4" id="path37" stroke="#000" transform="matrix(1.0004 0 0 -0.98849 0.085 47.558)" d="m 29.4375,6.5 0,37.0625 13.25,0 L 29.4375,6.5 Z"/><path opacity="0.4" id="path39" stroke="url(#4)" transform="matrix(1 0 0 -1 0.101 48.06)" d="m 30.4375,12.375 0,30.1875 10.8125,0 L 30.4375,12.375 Z"/></g><g id="g41" transform="matrix(1 0 0 1 3 11)"><use height="48" width="48" xlink:href="#2" id="use43" x="0" y="0"/><use height="48" width="48" xlink:href="#0" id="use45" x="0" transform="matrix(1 0 0 1 -3 4)" y="0"/></g><use xlink:href="#1" id="use47" transform="matrix(1 0 0 1 3 -4)"/><use xlink:href="#2" id="use49" transform="matrix(1 0 0 1 3 -4)"/><path opacity="0.4" fill="none" id="0" stroke="url(#3)" transform="matrix(1 0 0 1 3 -4)" d="m 10 9.5312 c -1.94005 0 -3.46875 1.5287 -3.46875 3.46875 0 1.94005 1.5287 3.46875 3.46875 3.46875 1.94005 0 3.46875 -1.5287 3.46875 -3.46875 C 13.46875 11.0599 11.94005 9.5312 10 9.5312 z"/><use xlink:href="#1" id="use52" transform="matrix(1 0 0 1 3 26)"/><use xlink:href="#2" id="use54" transform="matrix(1 0 0 1 3 26)"/><use xlink:href="#0" id="use56" transform="matrix(1 0 0 1 0 30)"/><metadata id="metadata9999"><rdf:RDF><cc:Work><dc:format>image/svg+xml</dc:format><dc:type rdf:resource="http://purl.org/dc/dcmitype/StillImage"/><dc:title>Ivy icon theme</dc:title><cc:license rdf:resource="http://creativecommons.org/licenses/by-sa/4.0/"/><dc:creator><cc:Agent><dc:title>Sixsixfive (sixsixfive.deviantart.com)</dc:title></cc:Agent></dc:creator><dc:publisher><cc:Agent><dc:title>Sixsixfive (sixsixfive.deviantart.com)</dc:title></cc:Agent></dc:publisher><dc:source>https://github.com/sixsixfive</dc:source><dc:subject><rdf:Bag><rdf:li>ivy</rdf:li></rdf:Bag></dc:subject><dc:contributor><cc:Agent><dc:title>ssf</dc:title></cc:Agent></dc:contributor><dc:rights><cc:Agent><dc:title>Sixsixfive (sixisixfive.deviantart.com)</dc:title></cc:Agent></dc:rights><dc:description>A simple icon theme published under CC-BY-SA_V4(http://creativecommons.org/licenses/by-sa/4.0)</dc:description><dc:identifier>SSF</dc:identifier></cc:Work></rdf:RDF></metadata><!--Part of the Ivy icon them published under the CC-BY-SA_V4: http://creativecommons.org/licenses/by-sa/4.0 -->
</svg>