<?xml version="1.0" encoding="UTF-8" standalone="no"?><svg xmlns:cc="http://creativecommons.org/ns#" viewBox="0 0 32 32" version="1.1" id="svg2" xmlns:svg="http://www.w3.org/2000/svg" xmlns:rdf="http://www.w3.org/1999/02/22-rdf-syntax-ns#" xmlns="http://www.w3.org/2000/svg" xmlns:dc="http://purl.org/dc/elements/1.1/"><defs id="defs4"><linearGradient x2="45.33" gradientUnits="userSpaceOnUse" x1="45.29" id="0" y2="43.08" gradientTransform="matrix(0.66667 0 0 0.68572 -0.037 -0.428)" y1="5.246"><stop id="stop7" stop-color="#66b03e"/><stop offset="1" id="stop9" stop-color="#95ce76"/></linearGradient><linearGradient x2="26.781" gradientUnits="userSpaceOnUse" x1="27" id="1" y2="43.31" y1="22"><stop id="stop12" stop-color="#fff"/><stop offset="1" stop-opacity="0" id="stop14" stop-color="#fff"/></linearGradient></defs><path opacity="0.1" id="path16" d="m 2,16 c 8,0 0,0 8,0 l 0,-12 6,5 6,-5 0,12 8,0 -14,14 z"/><path fill="url(#0)" id="path18" d="m 2,15 c 8,0 0,0 8,0 l 0,-12 6,5 6,-5 0,12 8,0 -14,14 z"/><g fill="none" id="g20" transform="matrix(1 0 0 1 0 -16)"><path opacity="0.4" id="path22" stroke="#000" d="m 10.53125,20.125 0,10.875 A 0.545427,0.545427 0 0 1 10,31.53125 l -6.71875,0 L 16,44.25 28.71875,31.53125 22,31.53125 A 0.545427,0.545427 0 0 1 21.46875,31 l 0,-10.875 -5.125,4.28125 a 0.545427,0.545427 0 0 1 -0.6875,0 l -5.125,-4.28125 z"/><path opacity="0.4" id="path24" stroke="url(#1)" d="m 11.53125,22.3125 0,8.6875 A 1.545571,1.545571 0 0 1 10,32.53125 l -4.28125,0 L 16,42.8125 26.28125,32.53125 22,32.53125 A 1.545571,1.545571 0 0 1 20.46875,31 l 0,-8.6875 L 17,25.1875 a 1.545571,1.545571 0 0 1 -2,0 l -3.46875,-2.875 z"/></g><metadata id="metadata9999"><rdf:RDF><cc:Work><dc:format>image/svg+xml</dc:format><dc:type rdf:resource="http://purl.org/dc/dcmitype/StillImage"/><dc:title>Ivy icon theme</dc:title><cc:license rdf:resource="http://creativecommons.org/licenses/by-sa/4.0/"/><dc:creator><cc:Agent><dc:title>Sixsixfive (sixsixfive.deviantart.com)</dc:title></cc:Agent></dc:creator><dc:publisher><cc:Agent><dc:title>Sixsixfive (sixsixfive.deviantart.com)</dc:title></cc:Agent></dc:publisher><dc:source>https://github.com/sixsixfive</dc:source><dc:subject><rdf:Bag><rdf:li>ivy</rdf:li></rdf:Bag></dc:subject><dc:contributor><cc:Agent><dc:title>ssf</dc:title></cc:Agent></dc:contributor><dc:rights><cc:Agent><dc:title>Sixsixfive (sixisixfive.deviantart.com)</dc:title></cc:Agent></dc:rights><dc:description>A simple icon theme published under CC-BY-SA_V4(http://creativecommons.org/licenses/by-sa/4.0)</dc:description><dc:identifier>SSF</dc:identifier></cc:Work></rdf:RDF></metadata><!--Part of the Ivy icon them published under the CC-BY-SA_V4: http://creativecommons.org/licenses/by-sa/4.0 -->
</svg>