<?xml version="1.0" encoding="UTF-8" standalone="no"?><svg xmlns:cc="http://creativecommons.org/ns#" xmlns:svg="http://www.w3.org/2000/svg" xmlns:dc="http://purl.org/dc/elements/1.1/" xmlns="http://www.w3.org/2000/svg" xmlns:rdf="http://www.w3.org/1999/02/22-rdf-syntax-ns#" id="svg2" version="1.1" xmlns:xlink="http://www.w3.org/1999/xlink" viewBox="0 0 32 32"><defs id="defs4"><linearGradient id="linearGradient4166"><stop id="stop4168" stop-color="#fff"/><stop stop-opacity="0" id="stop4170" stop-color="#fff" offset="1"/></linearGradient><linearGradient gradientTransform="matrix(0.683517 0 0 0.67211962 -0.050346 -0.597298)" gradientUnits="userSpaceOnUse" y1="7" id="1" y2="41" x2="0"><stop id="stop12" stop-color="#6a6a6a"/><stop id="stop14" stop-color="#8e8e8e" offset="1"/></linearGradient><linearGradient gradientUnits="userSpaceOnUse" xlink:href="#linearGradient4166" y1="5" id="linearGradient4172" y2="23" x2="0"/></defs><path opacity="0.1" d="M 24,5 13,17 7,12 2,18 C 14,28 2,18 14,28 30,10 24.823613,15.936058 30,10 Z" id="path4174"/><path d="M 24,4 13,16 7,11 2,17 C 14,27 2,17 14,27 30,9 24.823613,14.936058 30,9 Z" id="path18" fill="url(#1)"/><path stroke="#000" opacity="0.4" d="M 24.044922,4.6523438 13.349609,16.320312 a 0.47317411,0.47317411 0 0 1 -0.652343,0.04297 L 7.0605469,11.666016 2.6660156,16.939453 13.951172,26.34375 C 28.563504,9.9088768 24.735093,14.311021 29.322266,9.0507812 L 24.044922,4.6523438 Z" id="path3362" fill="none"/><path stroke="url(#linearGradient4172)" opacity="0.4" d="M 24.136719,6.0410156 14.091797,17 a 1.4810794,1.4810794 0 0 1 -2.039063,0.136719 L 7.1894531,13.083984 4.0839844,16.810547 13.845703,24.945312 C 25.772362,11.53855 24.370569,13.18022 27.878906,9.1582031 L 24.136719,6.0410156 Z" id="path3364" fill="none"/><metadata id="metadata9999"><rdf:RDF><cc:Work><dc:format>image/svg+xml</dc:format><dc:type rdf:resource="http://purl.org/dc/dcmitype/StillImage"/><dc:title>Ivy icon theme</dc:title><cc:license rdf:resource="http://creativecommons.org/licenses/by-sa/4.0/"/><dc:creator><cc:Agent><dc:title>Sixsixfive (sixsixfive.deviantart.com)</dc:title></cc:Agent></dc:creator><dc:publisher><cc:Agent><dc:title>Sixsixfive (sixsixfive.deviantart.com)</dc:title></cc:Agent></dc:publisher><dc:source>https://github.com/sixsixfive</dc:source><dc:subject><rdf:Bag><rdf:li>ivy</rdf:li></rdf:Bag></dc:subject><dc:contributor><cc:Agent><dc:title>ssf</dc:title></cc:Agent></dc:contributor><dc:rights><cc:Agent><dc:title>Sixsixfive (sixisixfive.deviantart.com)</dc:title></cc:Agent></dc:rights><dc:description>A simple icon theme published under CC-BY-SA_V4(http://creativecommons.org/licenses/by-sa/4.0)</dc:description><dc:identifier>SSF</dc:identifier></cc:Work></rdf:RDF></metadata><!--Part of the Ivy icon them published under the CC-BY-SA_V4: http://creativecommons.org/licenses/by-sa/4.0 -->
</svg>