<?xml version="1.0" encoding="UTF-8" standalone="no"?><svg viewBox="0 0 32 32" xmlns="http://www.w3.org/2000/svg" xmlns:svg="http://www.w3.org/2000/svg" xmlns:rdf="http://www.w3.org/1999/02/22-rdf-syntax-ns#" version="1.1" id="svg2" xmlns:dc="http://purl.org/dc/elements/1.1/" xmlns:cc="http://creativecommons.org/ns#"><defs id="defs4"><linearGradient y1="43" x2="0" y2="5" gradientTransform="matrix(0.65 0 0 0.65789 0.4 0.711)" id="0" gradientUnits="userSpaceOnUse"><stop id="stop7" stop-color="#ddd"/><stop offset="1" id="stop9" stop-color="#fff"/></linearGradient><linearGradient x1="27.969" y1="5.03" x2="28" y2="28" id="1" gradientUnits="userSpaceOnUse"><stop id="stop12" stop-color="#fff"/><stop stop-opacity="0" offset="1" id="stop14" stop-color="#fff"/></linearGradient></defs><path opacity="0.1" id="path16" d="M 3,5 H29 V30 H3 z"/><path id="path18" d="M 3,4 H29 V29 H3 z" fill="url(#0)"/><path stroke="#000" opacity="0.4" id="path20" d="m 3.5 4.5 v 24 h 25 v -24 h -25 z" fill="none"/><path id="path22" d="m 20,9 -14,17 5,0 9,-11 1,0 0,11 5,0 0,-17 z" fill="#fff"/><path stroke="url(#1)" opacity="0.4" id="path24" d="m 4.5312 5.5312 v 21.9375 h 22.9375 v -21.9375 h -22.9375 z" fill="none"/><path id="path26" d="M 11,20 H21 V23 H11 z" fill="#fff"/><g id="g28" fill="#6a6a6a"><path id="path30" d="m 20,8 -14,17 5,0 9,-11 1,0 0,11 5,0 0,-17 z"/><path id="path32" d="m 11,19 10,0 0,3 -10,0 z"/></g><metadata id="metadata9999"><rdf:RDF><cc:Work><dc:format>image/svg+xml</dc:format><dc:type rdf:resource="http://purl.org/dc/dcmitype/StillImage"/><dc:title>Ivy icon theme</dc:title><cc:license rdf:resource="http://creativecommons.org/licenses/by-sa/4.0/"/><dc:creator><cc:Agent><dc:title>Sixsixfive (sixsixfive.deviantart.com)</dc:title></cc:Agent></dc:creator><dc:publisher><cc:Agent><dc:title>Sixsixfive (sixsixfive.deviantart.com)</dc:title></cc:Agent></dc:publisher><dc:source>https://github.com/sixsixfive</dc:source><dc:subject><rdf:Bag><rdf:li>ivy</rdf:li></rdf:Bag></dc:subject><dc:contributor><cc:Agent><dc:title>ssf</dc:title></cc:Agent></dc:contributor><dc:rights><cc:Agent><dc:title>Sixsixfive (sixisixfive.deviantart.com)</dc:title></cc:Agent></dc:rights><dc:description>A simple icon theme published under CC-BY-SA_V4(http://creativecommons.org/licenses/by-sa/4.0)</dc:description><dc:identifier>SSF</dc:identifier></cc:Work></rdf:RDF></metadata><!--Part of the Ivy icon them published under the CC-BY-SA_V4: http://creativecommons.org/licenses/by-sa/4.0 -->
</svg>