<?xml version="1.0" encoding="UTF-8" standalone="no"?><svg xmlns:sodipodi="http://sodipodi.sourceforge.net/DTD/sodipodi-0.dtd" xmlns:inkscape="http://www.inkscape.org/namespaces/inkscape" xmlns:cc="http://creativecommons.org/ns#" inkscape:version="0.91 r13725" sodipodi:docname="action-export.svg" xmlns:svg="http://www.w3.org/2000/svg" xmlns="http://www.w3.org/2000/svg" xmlns:dc="http://purl.org/dc/elements/1.1/" xmlns:rdf="http://www.w3.org/1999/02/22-rdf-syntax-ns#" id="svg2" version="1.1" viewBox="0 0 32 32"><defs id="defs4"><linearGradient gradientTransform="matrix(0.65798 0 0 0.66676 1.063 0.661)" gradientUnits="userSpaceOnUse" y1="3" id="0" y2="44" x2="0"><stop id="stop7" stop-color="#dedede"/><stop id="stop9" stop-color="#f4f4f4" offset="1"/></linearGradient><linearGradient gradientUnits="userSpaceOnUse" y1="1.614" id="1" y2="27.29" x2="0"><stop id="stop12" stop-color="#fff"/><stop stop-opacity="0" id="stop14" stop-color="#fff" offset="1"/></linearGradient><linearGradient gradientTransform="matrix(-0.6894 0 0 -0.66 33.07 32.354)" gradientUnits="userSpaceOnUse" y1="43" id="2" y2="19" x2="0"><stop id="stop17" stop-color="#a868d4"/><stop id="stop19" stop-color="#ddc5ee" offset="1"/></linearGradient></defs><sodipodi:namedview inkscape:cy="16" inkscape:cx="16" guidetolerance="10" showgrid="false" inkscape:window-height="480" id="namedview23" gridtolerance="10" inkscape:current-layer="svg2" bordercolor="#666666" pagecolor="#ffffff" inkscape:window-maximized="0" inkscape:window-y="25" inkscape:window-x="0" borderopacity="1" inkscape:pageopacity="0" inkscape:pageshadow="2" inkscape:zoom="7.375" inkscape:window-width="640" objecttolerance="10"/><rect ry="0.806" width="22.997" rx="0.806" height="28" opacity="0.06" id="rect23" y="2.995" x="5"/><rect ry="0.806" width="22.997" rx="0.806" height="28" id="rect21" y="1.995" x="5" fill="url(#0)"/><path transform="matrix(0.99956 0 0 1.01258 -0.983 1.366)" stroke="url(#1)" stroke-width="0.994" opacity="0.7" d="m 7.5312 2.1562 v 24.625 h 19.9688 v -24.625 H 7.5312 z" id="path25" fill="none"/><path d="m 25,10 -5,0 0,-7 -7,0 0.048,7 H 7.99998 l 8.5,8 z" id="path27" fill="url(#2)"/><g id="g29" fill="none"><g stroke-linejoin="round" id="g31"><path stroke="#000" opacity="0.4" d="M 16.5078,17.4146 23.9122,10.464 C 22.6703,10.4546 21.42617,10.48294 20.18568,10.44969 19.643518,10.36549 19.476482,9.78012 19.5397,9.30815 l 0,-5.85665 -6.08437,0 c 0.0039,2.12189 0.04864,4.24603 0.02694,6.36652 -0.0842,0.542163 -0.66957,0.709199 -1.14154,0.64598 l -3.2579,0 z" id="path33" stroke-linecap="round"/><path stroke="#fff" opacity="0.4" d="m 13.375,2.4375 a 0.991121,0.991121 0 0 0 -0.90625,1 c 0.0037,2.02199 0.01697,4.05583 0,6.0625 a 0.991121,0.991121 0 0 0 -0.125,-0.03125 l -3.25,0 a 0.991121,0.991121 0 0 0 -0.6875,1.71875 l 7.4062,6.9375 a 0.991121,0.991121 0 0 0 1.375,0 l 7.4062,-6.9375 A 0.991121,0.991121 0 0 0 23.90615,9.46875 C 22.74877,9.45999 21.6258,9.461804 20.4999,9.4375 a 0.991121,0.991121 0 0 0 0.03125,-0.125 l 0,-5.875 a 0.991121,0.991121 0 0 0 -1,-1 l -6.0625,0 a 0.991121,0.991121 0 0 0 -0.09375,0 z" id="path35" stroke-linecap="square"/></g><path transform="matrix(0.99956 0 0 1.01258 -0.983 1.366)" stroke="#000" stroke-width="0.994" opacity="0.4" d="m 6.7812,1.1562 c -0.142866,0 -0.25,0.112596 -0.25,0.28125 l 0,26.0938 c 0,0.168654 0.08985,0.25 0.25,0.25 l 21.4688,0 c 0.154628,0 0.25,-0.09537 0.25,-0.25 l 0,-26.0938 C 28.5,1.282823 28.387343,1.1562 28.25,1.1562 l -21.4688,0 z" id="path37"/></g><metadata id="metadata9999"><rdf:RDF><cc:Work><dc:format>image/svg+xml</dc:format><dc:type rdf:resource="http://purl.org/dc/dcmitype/StillImage"/><dc:title>Ivy icon theme</dc:title><cc:license rdf:resource="http://creativecommons.org/licenses/by-sa/4.0/"/><dc:creator><cc:Agent><dc:title>Sixsixfive (sixsixfive.deviantart.com)</dc:title></cc:Agent></dc:creator><dc:publisher><cc:Agent><dc:title>Sixsixfive (sixsixfive.deviantart.com)</dc:title></cc:Agent></dc:publisher><dc:source>https://github.com/sixsixfive</dc:source><dc:subject><rdf:Bag><rdf:li>ivy</rdf:li></rdf:Bag></dc:subject><dc:contributor><cc:Agent><dc:title>ssf</dc:title></cc:Agent></dc:contributor><dc:rights><cc:Agent><dc:title>Sixsixfive (sixisixfive.deviantart.com)</dc:title></cc:Agent></dc:rights><dc:description>A simple icon theme published under CC-BY-SA_V4(http://creativecommons.org/licenses/by-sa/4.0)</dc:description><dc:identifier>SSF</dc:identifier></cc:Work></rdf:RDF></metadata><!--Part of the Ivy icon them published under the CC-BY-SA_V4: http://creativecommons.org/licenses/by-sa/4.0 -->
</svg>