<?xml version="1.0" encoding="UTF-8" standalone="no"?>
<svg xmlns:dc="http://purl.org/dc/elements/1.1/" xmlns:cc="http://creativecommons.org/ns#" xmlns:rdf="http://www.w3.org/1999/02/22-rdf-syntax-ns#" xmlns:svg="http://www.w3.org/2000/svg" xmlns="http://www.w3.org/2000/svg" viewBox="0 0 48 48" id="svg2" version="1.1">
 <defs id="defs4">
  <linearGradient id="0" y1="10.765" y2="40.485" x2="0" gradientUnits="userSpaceOnUse" gradientTransform="matrix(1.18474 0 0 1.27706 -9.01 -8.727)">
   <stop stop-color="#fff" id="stop7"/>
   <stop offset="1" stop-color="#fff" stop-opacity="0" id="stop9"/>
  </linearGradient>
  <linearGradient id="1" y1="3" y2="43" x2="0" gradientUnits="userSpaceOnUse">
   <stop stop-color="#66b03e" id="stop12"/>
   <stop offset="1" stop-color="#95ce76" id="stop14"/>
  </linearGradient>
  <radialGradient cx="0" cy="59.1" r="37.612" id="2" gradientUnits="userSpaceOnUse" gradientTransform="matrix(0.21376 0 0 0.0274 24 42.33)">
   <stop stop-opacity="0.2" id="stop17"/>
   <stop offset="1" stop-opacity="0" id="stop19"/>
  </radialGradient>
 </defs>
 <path fill="url(#2)" d="m 32.0406 43.9499 a 8.03991 1.03052 0 0 1 -16.0798 0 8.03991 1.03052 0 1 1 16.0798 0 z" id="path21"/>
 <path fill="url(#1)" d="m 44.0066 24 a 20 20 0 1 1 -40 0 20 20 0 1 1 40 0 z" id="path23"/>
 <g id="g25" fill="none">
  <path d="m 24.0132,4.5222 c -10.7992,0 -19.5482,8.7394 -19.5482,19.4751 0,10.7357 8.74902,19.4751 19.5482,19.4751 10.7992,0 19.5112,-8.73812 19.5112,-19.4751 0,-10.737 -8.712,-19.4751 -19.5112,-19.4751 z" id="path27" opacity="0.4" stroke="#000"/>
  <path d="m 24.0132,5.5199 c -10.3443,0 -18.6226,8.31366 -18.6226,18.4774 0,10.1637 8.27831,18.4774 18.6226,18.4774 10.3443,0 18.5856,-8.31002 18.5856,-18.4774 0,-10.1674 -8.24128,-18.4774 -18.5856,-18.4774 z" id="path29" opacity="0.5" stroke="url(#0)"/>
 </g>
 <g id="g31" opacity="0.4">
  <path d="M 28.678,23.3898 12.0273,32.5963 12.3796,13.5731 28.678,23.3898 Z" transform="matrix(1.02817,-0.01774,0.01824,0.99984,4,0.635)" id="path33"/>
 </g>
 <path fill="#fff" d="M 28.678,23.3898 12.0273,32.5963 12.3796,13.5731 28.678,23.3898 z" transform="matrix(1.02817 -0.01774 0.01824 0.99984 4 1.636)" id="path35"/>
 <metadata id="metadata9999">
  <rdf:RDF>
   <cc:Work>
    <dc:format>image/svg+xml</dc:format>
    <dc:type rdf:resource="http://purl.org/dc/dcmitype/StillImage"/>
    <dc:title>Ivy icon theme</dc:title>
    <cc:license rdf:resource="http://creativecommons.org/licenses/by-sa/4.0/"/>
    <dc:creator>
     <cc:Agent>
      <dc:title>Sixsixfive (sixsixfive.deviantart.com)</dc:title>
     </cc:Agent>
    </dc:creator>
    <dc:publisher>
     <cc:Agent>
      <dc:title>Sixsixfive (sixsixfive.deviantart.com)</dc:title>
     </cc:Agent>
    </dc:publisher>
    <dc:source>https://github.com/sixsixfive</dc:source>
    <dc:subject>
     <rdf:Bag>
      <rdf:li>ivy</rdf:li>
     </rdf:Bag>
    </dc:subject>
    <dc:contributor>
     <cc:Agent>
      <dc:title>ssf</dc:title>
     </cc:Agent>
    </dc:contributor>
    <dc:rights>
     <cc:Agent>
      <dc:title>Sixsixfive (sixisixfive.deviantart.com)</dc:title>
     </cc:Agent>
    </dc:rights>
    <dc:description>A simple icon theme published under CC-BY-SA_V4(http://creativecommons.org/licenses/by-sa/4.0)</dc:description>
    <dc:identifier>SSF</dc:identifier>
   </cc:Work>
  </rdf:RDF>
 </metadata>
 <!--Part of the Ivy icon them published under the CC-BY-SA_V4: http://creativecommons.org/licenses/by-sa/4.0 -->
</svg>
