<?xml version="1.0" encoding="UTF-8" standalone="no"?>
<svg xmlns:dc="http://purl.org/dc/elements/1.1/" xmlns:cc="http://creativecommons.org/ns#" xmlns:rdf="http://www.w3.org/1999/02/22-rdf-syntax-ns#" xmlns:svg="http://www.w3.org/2000/svg" xmlns="http://www.w3.org/2000/svg" xmlns:xlink="http://www.w3.org/1999/xlink" viewBox="0 0 32 32" id="svg2" version="1.1">
 <defs id="defs4">
  <linearGradient id="0" y1="2" y2="30" x2="0" gradientUnits="userSpaceOnUse">
   <stop stop-color="#66b03e" id="stop7"/>
   <stop offset="1" stop-color="#93cf74" id="stop9"/>
  </linearGradient>
  <linearGradient id="1" y1="3" y2="29" x2="0" gradientUnits="userSpaceOnUse">
   <stop stop-color="#fff" id="stop12"/>
   <stop offset="1" stop-color="#fff" stop-opacity="0" id="stop14"/>
  </linearGradient>
 </defs>
 <rect width="28" x="2" opacity="0.1" y="3" rx="2.667" height="28" ry="2.667" id="rect16"/>
 <rect width="28" x="2" y="2" fill="url(#0)" rx="2.667" height="28" ry="2.667" id="rect18"/>
 <g transform="matrix(0.67064,0,0,0.65893,-0.064,-0.8)" id="g20" opacity="0.5" fill="none" stroke="#000" stroke-width="6.06">
  <path id="2" d="m 33.4257,14.8425 c 3.71557,3.7021 4.91961,9.54929 2.92022,14.3982 -1.99939,4.84891 -7.08198,8.25574 -12.327,8.26316 -5.24507,0.0074 -10.3373,-3.385 -12.3504,-8.22823 -2.01311,-4.84323 -0.82605,-10.6948 2.87902,-14.4074" stroke-linecap="round"/>
  <path id="3" d="m 24,10.497 0,10.4515" stroke-linecap="round"/>
 </g>
 <g id="g24" fill="none">
  <g transform="matrix(0.67064,0,0,0.65893,-0.064,0.2)" id="g26" stroke="#fff" stroke-width="6.06">
   <use xlink:href="#2" id="use28" x="0" y="0" width="32" height="32"/>
   <use xlink:href="#3" id="use30" x="0" y="0" width="32" height="32"/>
  </g>
  <path d="M 4.65625,3.5 C 3.976867,3.5 3.5,3.976867 3.5,4.65625 l 0,22.6875 C 3.5,28.02313 3.976868,28.5 4.65625,28.5 l 22.6875,0 C 28.02313,28.5 28.5,28.02313 28.5,27.34375 l 0,-22.6875 C 28.5,3.976868 28.02313,3.5 27.34375,3.5 l -22.6875,0 z" id="path32" opacity="0.6" stroke="url(#1)"/>
  <path d="M 4.65625,2.5 C 3.51151,2.5 2.5,3.51151 2.5,4.65625 l 0,22.6875 C 2.5,28.48849 3.511509,29.5 4.65625,29.5 l 22.6875,0 C 28.488491,29.5 29.5,28.488491 29.5,27.34375 l 0,-22.6875 C 29.5,3.511509 28.48849,2.5 27.34375,2.5 l -22.6875,0 z" id="path34" opacity="0.45" stroke="#000"/>
 </g>
 <metadata id="metadata9999">
  <rdf:RDF>
   <cc:Work>
    <dc:format>image/svg+xml</dc:format>
    <dc:type rdf:resource="http://purl.org/dc/dcmitype/StillImage"/>
    <dc:title>Ivy icon theme</dc:title>
    <cc:license rdf:resource="http://creativecommons.org/licenses/by-sa/4.0/"/>
    <dc:creator>
     <cc:Agent>
      <dc:title>Sixsixfive (sixsixfive.deviantart.com)</dc:title>
     </cc:Agent>
    </dc:creator>
    <dc:publisher>
     <cc:Agent>
      <dc:title>Sixsixfive (sixsixfive.deviantart.com)</dc:title>
     </cc:Agent>
    </dc:publisher>
    <dc:source>https://github.com/sixsixfive</dc:source>
    <dc:subject>
     <rdf:Bag>
      <rdf:li>ivy</rdf:li>
     </rdf:Bag>
    </dc:subject>
    <dc:contributor>
     <cc:Agent>
      <dc:title>ssf</dc:title>
     </cc:Agent>
    </dc:contributor>
    <dc:rights>
     <cc:Agent>
      <dc:title>Sixsixfive (sixisixfive.deviantart.com)</dc:title>
     </cc:Agent>
    </dc:rights>
    <dc:description>A simple icon theme published under CC-BY-SA_V4(http://creativecommons.org/licenses/by-sa/4.0)</dc:description>
    <dc:identifier>SSF</dc:identifier>
   </cc:Work>
  </rdf:RDF>
 </metadata>
 <!--Part of the Ivy icon them published under the CC-BY-SA_V4: http://creativecommons.org/licenses/by-sa/4.0 -->
</svg>
