<?xml version="1.0" encoding="UTF-8" standalone="no"?>
<svg xmlns:dc="http://purl.org/dc/elements/1.1/" xmlns:cc="http://creativecommons.org/ns#" xmlns:rdf="http://www.w3.org/1999/02/22-rdf-syntax-ns#" xmlns:svg="http://www.w3.org/2000/svg" xmlns="http://www.w3.org/2000/svg" viewBox="0 0 32 32" id="svg2" version="1.1">
 <defs id="defs4"/>
 <path opacity="0.1" d="M 3,5 H29 V12 H3 z" id="path6"/>
 <path fill="#5288d1" d="M 3,4 H29 V11 H3 z" id="path8"/>
 <g id="g10" fill="#fff">
  <g id="g12" fill-rule="evenodd" color="#000">
   <path d="M 6,6 7,6 7,7 6,7 Z" id="path14"/>
   <path d="M 7,7 8,7 8,8 7,8 Z" id="path16"/>
   <path d="M 8,8 9,8 9,9 8,9 Z" id="path18"/>
   <g transform="scale(-1,1)" id="g20">
    <path d="m -9,6 1,0 0,1 -1,0 z" id="path22"/>
    <path d="m -8,7 1,0 0,1 -1,0 z" id="path24"/>
    <path d="m -7,8 1,0 0,1 -1,0 z" id="path26"/>
   </g>
  </g>
  <path d="m 10,6 1,0 0,3 -1,0 z" id="path28"/>
  <path d="m 10,8 3,0 0,1 -3,0 z" id="path30"/>
  <path d="m 12,6 1,0 0,2 -1,0 z" id="path32"/>
  <path d="m 10,6 3,0 0,1 -3,0 z" id="path34"/>
  <path d="m 14,8 3,0 0,1 -3,0 z" id="path36"/>
 </g>
 <path opacity="0.4" fill="none" stroke="#000" d="m 3.5 4.5 v 6 h 25 v -6 h -25 z" id="path38"/>
 <path opacity="0.4" fill="#fff" d="M 4,5 H28 V6 H4 z" id="path40"/>
 <metadata id="metadata9999">
  <rdf:RDF>
   <cc:Work>
    <dc:format>image/svg+xml</dc:format>
    <dc:type rdf:resource="http://purl.org/dc/dcmitype/StillImage"/>
    <dc:title>Ivy icon theme</dc:title>
    <cc:license rdf:resource="http://creativecommons.org/licenses/by-sa/4.0/"/>
    <dc:creator>
     <cc:Agent>
      <dc:title>Sixsixfive (sixsixfive.deviantart.com)</dc:title>
     </cc:Agent>
    </dc:creator>
    <dc:publisher>
     <cc:Agent>
      <dc:title>Sixsixfive (sixsixfive.deviantart.com)</dc:title>
     </cc:Agent>
    </dc:publisher>
    <dc:source>https://github.com/sixsixfive</dc:source>
    <dc:subject>
     <rdf:Bag>
      <rdf:li>ivy</rdf:li>
     </rdf:Bag>
    </dc:subject>
    <dc:contributor>
     <cc:Agent>
      <dc:title>ssf</dc:title>
     </cc:Agent>
    </dc:contributor>
    <dc:rights>
     <cc:Agent>
      <dc:title>Sixsixfive (sixisixfive.deviantart.com)</dc:title>
     </cc:Agent>
    </dc:rights>
    <dc:description>A simple icon theme published under CC-BY-SA_V4(http://creativecommons.org/licenses/by-sa/4.0)</dc:description>
    <dc:identifier>SSF</dc:identifier>
   </cc:Work>
  </rdf:RDF>
 </metadata>
 <!--Part of the Ivy icon them published under the CC-BY-SA_V4: http://creativecommons.org/licenses/by-sa/4.0 -->
</svg>
