<?xml version="1.0" encoding="UTF-8" standalone="no"?><svg xmlns:xlink="http://www.w3.org/1999/xlink" xmlns:cc="http://creativecommons.org/ns#" viewBox="0 0 48 48" version="1.1" id="svg2" xmlns:svg="http://www.w3.org/2000/svg" xmlns:rdf="http://www.w3.org/1999/02/22-rdf-syntax-ns#" xmlns="http://www.w3.org/2000/svg" xmlns:dc="http://purl.org/dc/elements/1.1/"><defs id="defs4"><linearGradient id="linearGradient3814"><stop stop-color="#fff" id="stop3816"/><stop offset="1" stop-opacity="0" stop-color="#fff" id="stop3818"/></linearGradient><linearGradient x2="0" gradientUnits="userSpaceOnUse" xlink:href="#linearGradient3814" y2="13" id="linearGradient3820" y1="3"/></defs><rect height="12" width="19" opacity="0.1" id="rect3838" x="13" y="3"/><rect height="12" width="19" opacity="0.1" id="rect3840" x="13" y="19"/><rect height="12" width="19" opacity="0.1" id="rect3842" x="13" y="35"/><rect height="12" width="19" fill="#5288d1" id="rect3034" x="13" y="2"/><path opacity="0.4" fill="none" id="path3042" stroke="#000" d="m 13.5,2.5 0,11 18,0 0,-11 -18,0 z"/><path opacity="0.4" fill="none" id="path3044" stroke="url(#linearGradient3820)" d="m 14.5,3.5 0,9 16,0 0,-9 -16,0 z"/><rect height="12" width="19" fill="#5288d1" id="rect3822" x="13" y="18"/><path opacity="0.4" fill="none" id="path3824" stroke="#000" transform="matrix(1 0 0 1 0 16)" d="m 13.5,2.5 0,11 18,0 0,-11 -18,0 z"/><path opacity="0.4" fill="none" id="path3826" stroke="url(#linearGradient3820)" transform="matrix(1 0 0 1 0 16)" d="m 14.5,3.5 0,9 16,0 0,-9 -16,0 z"/><rect height="12" width="19" fill="#5288d1" id="rect3830" x="13" y="34"/><path opacity="0.4" fill="none" id="path3832" stroke="#000" transform="matrix(1 0 0 1 0 32)" d="m 13.5,2.5 0,11 18,0 0,-11 -18,0 z"/><path opacity="0.4" fill="none" id="path3834" stroke="url(#linearGradient3820)" transform="matrix(1 0 0 1 0 32)" d="m 14.5,3.5 0,9 16,0 0,-9 -16,0 z"/><metadata id="metadata9999"><rdf:RDF><cc:Work><dc:format>image/svg+xml</dc:format><dc:type rdf:resource="http://purl.org/dc/dcmitype/StillImage"/><dc:title>Ivy icon theme</dc:title><cc:license rdf:resource="http://creativecommons.org/licenses/by-sa/4.0/"/><dc:creator><cc:Agent><dc:title>Sixsixfive (sixsixfive.deviantart.com)</dc:title></cc:Agent></dc:creator><dc:publisher><cc:Agent><dc:title>Sixsixfive (sixsixfive.deviantart.com)</dc:title></cc:Agent></dc:publisher><dc:source>https://github.com/sixsixfive</dc:source><dc:subject><rdf:Bag><rdf:li>ivy</rdf:li></rdf:Bag></dc:subject><dc:contributor><cc:Agent><dc:title>ssf</dc:title></cc:Agent></dc:contributor><dc:rights><cc:Agent><dc:title>Sixsixfive (sixisixfive.deviantart.com)</dc:title></cc:Agent></dc:rights><dc:description>A simple icon theme published under CC-BY-SA_V4(http://creativecommons.org/licenses/by-sa/4.0)</dc:description><dc:identifier>SSF</dc:identifier></cc:Work></rdf:RDF></metadata><!--Part of the Ivy icon them published under the CC-BY-SA_V4: http://creativecommons.org/licenses/by-sa/4.0 -->
</svg>