<?xml version="1.0" encoding="UTF-8" standalone="no"?><svg xmlns:xlink="http://www.w3.org/1999/xlink" xmlns:cc="http://creativecommons.org/ns#" viewBox="0 0 32 32" version="1.1" id="svg2" xmlns:svg="http://www.w3.org/2000/svg" xmlns:rdf="http://www.w3.org/1999/02/22-rdf-syntax-ns#" xmlns="http://www.w3.org/2000/svg" xmlns:dc="http://purl.org/dc/elements/1.1/"><defs id="defs4"><linearGradient x2="0" gradientUnits="userSpaceOnUse" id="0" y2="30" y1="2"><stop id="stop7" stop-color="#ff8b36"/><stop offset="1" id="stop9" stop-color="#ff9f58"/></linearGradient><linearGradient x2="0" gradientUnits="userSpaceOnUse" id="1" y2="29" y1="3"><stop id="stop12" stop-color="#fff"/><stop offset="1" stop-opacity="0" id="stop14" stop-color="#fff"/></linearGradient><linearGradient id="linearGradient4311"><stop id="stop4313" stop-color="#fff"/><stop offset="1" stop-opacity="0" id="stop4315" stop-color="#fff"/></linearGradient><linearGradient id="linearGradient4296"><stop id="stop4298" stop-color="#66b03e"/><stop offset="1" id="stop4300" stop-color="#66b03e"/></linearGradient><linearGradient x2="0" gradientUnits="userSpaceOnUse" xlink:href="#linearGradient4296" id="linearGradient4302" y2="22" gradientTransform="matrix(1 0 0 1 10.050781 9.9609382)" y1="6"/><linearGradient x2="0" gradientUnits="userSpaceOnUse" xlink:href="#linearGradient4311" id="linearGradient4317" y2="21" gradientTransform="matrix(1 0 0 1 10.050781 9.9609382)" y1="7"/></defs><rect height="28" width="28" opacity="0.1" rx="2.667" ry="2.667" id="rect16" x="2" y="3"/><rect height="28" width="28" rx="2.667" ry="2.667" fill="url(#0)" id="rect18" x="2" y="2"/><path opacity="0.3" id="path20" d="m 7 7 v 3 c 7.767502 0.22269 13.805384 6.279956 14 14 h 3 C 23.820869 15.469607 17.474972 8.461634 9.25 7.1875 8.512693 7.07329 7.765797 7.01864 7 7 z m 0 6 v 3 c 4.508804 0.21049 7.806871 3.506162 8 7.96875 h 3 C 17.820141 18.444861 13.689861 13.919926 8.34375 13.09375 7.902955 13.02563 7.455799 13.01709 7 13 z m 2 7 c -1.099474 -0.0028 -2 0.862287 -2 1.96875 0 1.106462 0.89949 1.997135 2 2 C 10.09947 23.97165 11 23.10646 11 22 11 20.962422 10.219513 20.10269 9.21875 20 9.170321 19.995043 9.08628 20.00018 9 20 z"/><g fill="none" id="g22"><path opacity="0.6" id="path24" stroke="url(#1)" d="M 4.65625,3.5 C 3.976867,3.5 3.5,3.976867 3.5,4.65625 l 0,22.6875 C 3.5,28.02313 3.976868,28.5 4.65625,28.5 l 22.6875,0 C 28.02313,28.5 28.5,28.02313 28.5,27.34375 l 0,-22.6875 C 28.5,3.976868 28.02313,3.5 27.34375,3.5 l -22.6875,0 z"/><path opacity="0.45" id="path26" stroke="#000" d="M 4.65625,2.5 C 3.51151,2.5 2.5,3.51151 2.5,4.65625 l 0,22.6875 C 2.5,28.48849 3.511509,29.5 4.65625,29.5 l 22.6875,0 C 28.488491,29.5 29.5,28.488491 29.5,27.34375 l 0,-22.6875 C 29.5,3.511509 28.48849,2.5 27.34375,2.5 l -22.6875,0 z"/></g><g fill="#eeeeec" id="g28"><path id="path30" d="m 7,8 0,3 c 7.7675,0.22269 13.8054,6.27196 14,13.992 L 24,25 C 23.820869,16.46961 17.4864,9.4468 9.2614,8.1726 8.524093,8.05839 7.76577,8.01862 6.99997,7.999982 Z"/><path id="path32" d="m 7,14 0,3 c 4.5088,0.21049 7.80687,3.514 8,7.97659 l 2.9931,0.0075 C 17.813241,19.4602 13.69672,14.93099 8.35061,14.10479 7.909814,14.03667 7.455832,14.01706 7.00003,13.999975 Z"/><path id="path34" d="m 9,21.0022 c -1.09947,-0.0028 -2,0.868959 -2,1.97542 0,1.10646 0.89949,1.97977 2,1.98263 1.09947,0.0029 2,-0.868961 2,-1.97542 0,-1.03758 -0.793133,-1.87995 -1.7939,-1.98263 -0.048429,-0.005 -0.11983,1.83e-4 -0.206105,0 z"/></g><path fill="url(#linearGradient4302)" id="path4308" d="m 21.05664,15.94336 0,5 -5,0 0,6 5,0 0,5 6,0 0,-5 5,0 0,-6 -5,0 0,-5 -6,0 z"/><path opacity="0.4" fill="none" id="path4306" stroke="#000" d="m 21.597656,16.484375 0,4.458985 a 0.5419466,0.5419466 0 0 1 -0.541016,0.541016 l -4.458984,0 0,4.917968 4.458984,0 a 0.5419466,0.5419466 0 0 1 0.541016,0.541016 l 0,4.458984 4.917969,0 0,-4.458984 a 0.5419466,0.5419466 0 0 1 0.541015,-0.541016 l 4.458985,0 0,-4.917968 -4.458985,0 A 0.5419466,0.5419466 0 0 1 26.515625,20.94336 l 0,-4.458985 -4.917969,0 z"/><path opacity="0.4" fill="none" id="path4309" stroke="url(#linearGradient4317)" d="m 22.613281,17.5 0,3.44336 A 1.5572195,1.5572195 0 0 1 21.05664,22.5 l -3.443359,0 0,2.886719 3.443359,0 a 1.5572195,1.5572195 0 0 1 1.556641,1.556641 l 0,3.443359 2.886719,0 0,-3.443359 a 1.5572195,1.5572195 0 0 1 1.55664,-1.556641 l 3.44336,0 0,-2.886719 -3.44336,0 A 1.5572195,1.5572195 0 0 1 25.5,20.94336 l 0,-3.44336 -2.886719,0 z"/><metadata id="metadata9999"><rdf:RDF><cc:Work><dc:format>image/svg+xml</dc:format><dc:type rdf:resource="http://purl.org/dc/dcmitype/StillImage"/><dc:title/><cc:license rdf:resource="http://creativecommons.org/licenses/by-sa/4.0/"/><dc:creator><cc:Agent><dc:title>Sixsixfive (sixsixfive.deviantart.com)</dc:title></cc:Agent></dc:creator><dc:publisher><cc:Agent><dc:title>Sixsixfive (sixsixfive.deviantart.com)</dc:title></cc:Agent></dc:publisher><dc:source>https://github.com/sixsixfive</dc:source><dc:subject><rdf:Bag><rdf:li>ivy</rdf:li></rdf:Bag></dc:subject><dc:contributor><cc:Agent><dc:title>ssf</dc:title></cc:Agent></dc:contributor><dc:rights><cc:Agent><dc:title>Sixsixfive (sixisixfive.deviantart.com)</dc:title></cc:Agent></dc:rights><dc:description>A simple icon theme published under CC-BY-SA_V4(http://creativecommons.org/licenses/by-sa/4.0)</dc:description><dc:identifier>SSF</dc:identifier></cc:Work></rdf:RDF></metadata><!--Part of the Ivy icon them published under the CC-BY-SA_V4: http://creativecommons.org/licenses/by-sa/4.0 -->
</svg>