<?xml version="1.0" encoding="UTF-8" standalone="no"?><svg xmlns:cc="http://creativecommons.org/ns#" xmlns:rdf="http://www.w3.org/1999/02/22-rdf-syntax-ns#" xmlns:svg="http://www.w3.org/2000/svg" id="svg2" viewBox="0 0 48 48" version="1.1" xmlns:dc="http://purl.org/dc/elements/1.1/" xmlns="http://www.w3.org/2000/svg"><defs id="defs4"><linearGradient id="0" x2="0" y2="40.485" gradientTransform="matrix(1.18474 0 0 1.27706 -9.01 -8.727)" y1="10.765" gradientUnits="userSpaceOnUse"><stop id="stop7" stop-color="#fff"/><stop offset="1" id="stop9" stop-color="#fff" stop-opacity="0"/></linearGradient><linearGradient id="1" x2="0" y2="43" y1="3" gradientUnits="userSpaceOnUse"><stop id="stop12" stop-color="#66b03e"/><stop offset="1" id="stop14" stop-color="#95ce76"/></linearGradient><radialGradient r="37.612" cx="0" id="2" cy="59.1" gradientTransform="matrix(0.21376 0 0 0.0274 24 42.33)" gradientUnits="userSpaceOnUse"><stop id="stop17" stop-opacity="0.2"/><stop offset="1" id="stop19" stop-opacity="0"/></radialGradient></defs><path id="path21" d="m 32.0406 43.9499 a 8.03991 1.03052 0 0 1 -16.0798 0 8.03991 1.03052 0 1 1 16.0798 0 z" fill="url(#2)"/><path id="path23" d="m 44.0066 24 a 20 20 0 1 1 -40 0 20 20 0 1 1 40 0 z" fill="url(#1)"/><g id="g25" fill="none"><path id="path27" opacity="0.4" d="m 24.0132,4.5222 c -10.7992,0 -19.5482,8.7394 -19.5482,19.4751 0,10.7357 8.74902,19.4751 19.5482,19.4751 10.7992,0 19.5112,-8.73812 19.5112,-19.4751 0,-10.737 -8.712,-19.4751 -19.5112,-19.4751 z" stroke="#000"/><path id="path29" opacity="0.5" d="m 24.0132,5.5199 c -10.3443,0 -18.6226,8.31366 -18.6226,18.4774 0,10.1637 8.27831,18.4774 18.6226,18.4774 10.3443,0 18.5856,-8.31002 18.5856,-18.4774 0,-10.1674 -8.24128,-18.4774 -18.5856,-18.4774 z" stroke="url(#0)"/></g><g id="g31" opacity="0.4"><path id="path33" d="M 28.678,23.3898 12.0273,32.5963 12.3796,13.5731 28.678,23.3898 Z" transform="matrix(1.02817 -0.01774 0.01824 0.99984 4 0.635)"/></g><path id="path35" d="M 28.678,23.3898 12.0273,32.5963 12.3796,13.5731 28.678,23.3898 z" transform="matrix(1.02817 -0.01774 0.01824 0.99984 4 1.636)" fill="#fff"/><metadata id="metadata9999"><rdf:RDF><cc:Work><dc:format>image/svg+xml</dc:format><dc:type rdf:resource="http://purl.org/dc/dcmitype/StillImage"/><dc:title>Ivy icon theme</dc:title><cc:license rdf:resource="http://creativecommons.org/licenses/by-sa/4.0/"/><dc:creator><cc:Agent><dc:title>Sixsixfive (sixsixfive.deviantart.com)</dc:title></cc:Agent></dc:creator><dc:publisher><cc:Agent><dc:title>Sixsixfive (sixsixfive.deviantart.com)</dc:title></cc:Agent></dc:publisher><dc:source>https://github.com/sixsixfive</dc:source><dc:subject><rdf:Bag><rdf:li>ivy</rdf:li></rdf:Bag></dc:subject><dc:contributor><cc:Agent><dc:title>ssf</dc:title></cc:Agent></dc:contributor><dc:rights><cc:Agent><dc:title>Sixsixfive (sixisixfive.deviantart.com)</dc:title></cc:Agent></dc:rights><dc:description>A simple icon theme published under CC-BY-SA_V4(http://creativecommons.org/licenses/by-sa/4.0)</dc:description><dc:identifier>SSF</dc:identifier></cc:Work></rdf:RDF></metadata><!--Part of the Ivy icon them published under the CC-BY-SA_V4: http://creativecommons.org/licenses/by-sa/4.0 -->
</svg>