<?xml version="1.0" encoding="UTF-8" standalone="no"?><svg xmlns:xlink="http://www.w3.org/1999/xlink" xmlns:cc="http://creativecommons.org/ns#" viewBox="0 0 32 32" version="1.1" id="svg2" xmlns:svg="http://www.w3.org/2000/svg" xmlns:rdf="http://www.w3.org/1999/02/22-rdf-syntax-ns#" xmlns="http://www.w3.org/2000/svg" xmlns:dc="http://purl.org/dc/elements/1.1/"><defs id="defs4"><linearGradient x2="0" gradientUnits="userSpaceOnUse" id="0" y2="30" y1="2"><stop id="stop7" stop-color="#6a6a6a"/><stop offset="1" id="stop9" stop-color="#979797"/></linearGradient><linearGradient x2="0" gradientUnits="userSpaceOnUse" id="1" y2="29" y1="3"><stop id="stop12" stop-color="#fff"/><stop offset="1" stop-opacity="0" id="stop14" stop-color="#fff"/></linearGradient></defs><rect height="28" width="28" opacity="0.1" rx="2.667" ry="2.667" id="rect16" x="2" y="3"/><rect height="28" width="28" rx="2.667" ry="2.667" fill="url(#0)" id="rect18" x="2" y="2"/><path opacity="0.3" fill="none" id="path20" stroke="url(#1)" d="M 4.65625 3.5 C 3.976867 3.5 3.5 3.976867 3.5 4.65625 v 22.6875 C 3.5 28.02313 3.976868 28.5 4.65625 28.5 h 22.6875 C 28.02313 28.5 28.5 28.02313 28.5 27.34375 v -22.6875 C 28.5 3.976868 28.02313 3.5 27.34375 3.5 h -22.6875 z"/><g opacity="0.4" id="g22" transform="matrix(0.535 0 0 0.53296 39.11 0.519)"><path id="2" d="m -44.6476,8.4084 c -5.8724,0 -9.76219,4.72135 -9.76219,10.5938 l 0,11.75 c 0,5.8724 3.88979,10.5938 9.76219,10.5938 l 2.8125,0 c 5.8724,0 9.8554,-4.72135 9.8554,-10.5938 l 0,-11.75 c 0,-5.8724 -3.983,-10.5938 -9.8554,-10.5938 z m 0,5.6289 2.8125,0 c 2.52494,0 4.28125,2.4399 4.28125,4.96484 l 0,11.75 c 0,2.52494 -1.75631,4.28125 -4.28125,4.28125 l -2.8125,0 c -2.52494,0 -4.28125,-1.75631 -4.28125,-4.28125 l 0,-11.75 c -2.8125,-2.52494 -1.05619,-4.96484 1.46875,-4.96484 z"/><path id="3" d="m -57.208002,23.419001 27.936,0 c 0.571728,0 1.032,0.460272 1.032,1.032 l 0,18.575 c 0,0.571728 -0.460272,1.032 -1.032,1.032 l -27.936,0 c -0.571728,0 -1.032,-0.460272 -1.032,-1.032 l 0,-18.575 c 0,-0.571728 0.460272,-1.032 1.032,-1.032 z"/></g><path opacity="0.45" fill="none" id="path26" stroke="#000" d="M 4.65625 2.5 C 3.51151 2.5 2.5 3.51151 2.5 4.65625 v 22.6875 C 2.5 28.48849 3.511509 29.5 4.65625 29.5 h 22.6875 C 28.488491 29.5 29.5 28.488491 29.5 27.34375 v -22.6875 C 29.5 3.511509 28.48849 2.5 27.34375 2.5 h -22.6875 z"/><g fill="#fff" id="g28" transform="matrix(0.535 0 0 0.53296 39.11 1.519)"><use height="32" width="32" xlink:href="#2" id="use30" x="0" y="0"/><use height="32" width="32" xlink:href="#3" id="use32" x="0" y="0"/></g><metadata id="metadata9999"><rdf:RDF><cc:Work><dc:format>image/svg+xml</dc:format><dc:type rdf:resource="http://purl.org/dc/dcmitype/StillImage"/><dc:title>Ivy icon theme</dc:title><cc:license rdf:resource="http://creativecommons.org/licenses/by-sa/4.0/"/><dc:creator><cc:Agent><dc:title>Sixsixfive (sixsixfive.deviantart.com)</dc:title></cc:Agent></dc:creator><dc:publisher><cc:Agent><dc:title>Sixsixfive (sixsixfive.deviantart.com)</dc:title></cc:Agent></dc:publisher><dc:source>https://github.com/sixsixfive</dc:source><dc:subject><rdf:Bag><rdf:li>ivy</rdf:li></rdf:Bag></dc:subject><dc:contributor><cc:Agent><dc:title>ssf</dc:title></cc:Agent></dc:contributor><dc:rights><cc:Agent><dc:title>Sixsixfive (sixisixfive.deviantart.com)</dc:title></cc:Agent></dc:rights><dc:description>A simple icon theme published under CC-BY-SA_V4(http://creativecommons.org/licenses/by-sa/4.0)</dc:description><dc:identifier>SSF</dc:identifier></cc:Work></rdf:RDF></metadata><!--Part of the Ivy icon them published under the CC-BY-SA_V4: http://creativecommons.org/licenses/by-sa/4.0 -->
</svg>