<?xml version="1.0" encoding="UTF-8" standalone="no"?>
<svg xmlns:dc="http://purl.org/dc/elements/1.1/" xmlns:cc="http://creativecommons.org/ns#" xmlns:rdf="http://www.w3.org/1999/02/22-rdf-syntax-ns#" xmlns:svg="http://www.w3.org/2000/svg" xmlns="http://www.w3.org/2000/svg" xmlns:xlink="http://www.w3.org/1999/xlink" viewBox="0 0 48 48" id="svg2" version="1.1">
 <defs id="defs4">
  <path id="0" d="m 12 10.9151 v -5.8623 h -5.8706 v 5.8623 h 5.8706 z m 0 3.0993 h -5.8706 v 8.9616 H 3.00002 V 4.9327 h 3.0081 V 1.95351 h 6.11321 V 4.9327 h 3.00809 V 22.976 h -3.12938 v -8.96159 z"/>
  <path id="1" d="m 42.1406 7.9535 v 3.1006 h -6.0206 v 8.8212 h 6.0206 v 3.1006 h -6.1425 v -2.9805 h -2.9981 v -9.0616 h 2.9981 v -2.9805 h 6.1425 z"/>
  <path id="2" d="m 21.096 7.952 h 5.928 v 2.976 h 2.976 v 9.072 h -2.976 v 2.976 h -9.024 v -21 h 3.096 v 5.976 z m 0 3.096 v 8.832 h 5.808 v -8.832 h -5.808 z"/>
  <linearGradient id="3" y1="2" y2="23" x2="0" gradientUnits="userSpaceOnUse">
   <stop stop-color="#5288d1" id="stop10"/>
   <stop offset="1" stop-color="#a0bde7" id="stop12"/>
  </linearGradient>
  <linearGradient id="4" y1="7" y2="41" x2="0" gradientUnits="userSpaceOnUse">
   <stop stop-color="#66b03e" id="stop15"/>
   <stop offset="1" stop-color="#95ce76" id="stop17"/>
  </linearGradient>
  <linearGradient id="5" y1="12.273" x1="22.05" y2="32.649" x2="21.02" gradientUnits="userSpaceOnUse" gradientTransform="matrix(0.95856 -0.24755 0.24487 0.96904 -4.145 7.566)">
   <stop stop-color="#fff" id="stop20"/>
   <stop offset="1" stop-color="#fff" stop-opacity="0" id="stop22"/>
  </linearGradient>
 </defs>
 <g transform="translate(1,2)" id="g24" opacity="0.1">
  <use xlink:href="#0" id="use26" x="0" y="0" width="48" height="48"/>
  <use xlink:href="#2" id="use28" x="0" y="0" width="48" height="48"/>
  <use xlink:href="#1" id="use30" x="0" y="0" width="48" height="48"/>
 </g>
 <g transform="translate(-0.096,2.12)" id="g32" opacity="0.1">
  <use xlink:href="#0" id="use34" x="0" y="0" width="48" height="48"/>
  <use xlink:href="#2" id="use36" x="0" y="0" width="48" height="48"/>
  <use xlink:href="#1" id="use38" x="0" y="0" width="48" height="48"/>
 </g>
 <g transform="translate(1.904,2.12)" id="g40" opacity="0.1">
  <use xlink:href="#0" id="use42" x="0" y="0" width="48" height="48"/>
  <use id="6" xlink:href="#2" x="0" y="0" width="48" height="48"/>
  <use xlink:href="#1" id="use45" x="0" y="0" width="48" height="48"/>
 </g>
 <g transform="translate(1,0)" id="g47" fill="url(#3)">
  <use xlink:href="#0" id="use49" x="0" y="0" width="48" height="48"/>
  <use xlink:href="#6" id="use51" x="0" y="0" width="48" height="48"/>
  <use xlink:href="#1" id="use53" x="0" y="0" width="48" height="48"/>
 </g>
 <path fill="none" stroke="#25518b" d="M 6 1.5 A 0.454396 0.454396 0 0 0 5.53125 1.96875 v 2.5 H 3 A 0.454396 0.454396 0 0 0 2.53125 4.9375 V 22.9687 A 0.454396 0.454396 0 0 0 3 23.43745 H 6.125 A 0.454396 0.454396 0 0 0 6.59375 22.9687 v -8.5 h 4.9375 v 8.5 A 0.454396 0.454396 0 0 0 12 23.43745 h 3.125 A 0.454396 0.454396 0 0 0 15.59375 22.9687 V 4.9375 A 0.454396 0.454396 0 0 0 15.125 4.46875 h -2.53125 v -2.5 A 0.454396 0.454396 0 0 0 12.125 1.5 H 6 z m 12 0 a 0.454396 0.454396 0 0 0 -0.46875 0.46875 v 21 A 0.454396 0.454396 0 0 0 18 23.4375 h 9.03125 A 0.454396 0.454396 0 0 0 27.5 22.96875 v -2.5 H 30 A 0.454396 0.454396 0 0 0 30.46875 20 V 10.9375 A 0.454396 0.454396 0 0 0 30 10.46875 H 27.5 V 7.9375 A 0.454396 0.454396 0 0 0 27.03125 7.46875 H 21.5625 v -5.5 A 0.454396 0.454396 0 0 0 21.09375 1.5 H 18 z m -11.4062 4.0312 h 4.9375 v 4.9062 h -4.9375 v -4.9062 z M 36 7.5 a 0.454396 0.454396 0 0 0 -0.46875 0.46875 v 2.5 H 33 A 0.454396 0.454396 0 0 0 32.53125 10.9375 V 20 A 0.454396 0.454396 0 0 0 33 20.46875 h 2.53125 v 2.5 A 0.454396 0.454396 0 0 0 36 23.4375 h 6.125 a 0.454396 0.454396 0 0 0 0.46875 -0.46875 V 19.875 A 0.454396 0.454396 0 0 0 42.125 19.40625 h -5.53125 v -7.875 H 42.125 A 0.454396 0.454396 0 0 0 42.59375 11.0625 V 7.96875 A 0.454396 0.454396 0 0 0 42.125 7.5 H 36 z m -14.4375 4.0312 h 4.875 v 7.875 h -4.875 v -7.875 z" transform="matrix(1 0 0 1 1 0)" id="path55"/>
 <g transform="translate(1.01,4.696)" id="g57">
  <path d="m 35.016,7.84 -15.0161,17.2683 -9.2325,-8.0384 -7.7677,9.0384 9.3097,8.1766 8.7599,7.7752 8.0084,-8.9764 14.8866,-17.3608 z" id="path59" opacity="0.1"/>
  <path d="m 35.016,6.84 -15.0161,17.2683 -9.2325,-8.0384 -7.7677,9.0384 9.3097,8.1766 8.7599,7.7752 8.0084,-8.9764 14.8866,-17.3608 z" id="path61" fill="url(#4)"/>
  <g id="g63" fill="none" stroke-width="0.995">
   <path d="M 35.0722,7.5674 20.3766,24.4626 c -0.182536,0.20101 -0.530845,0.213707 -0.727229,0.02651 l -8.8258,-7.6918 -7.1043,8.2541 8.9406,7.8526 8.3532,7.4286 7.6878,-8.6033 14.5438,-16.9496 z" id="path65" opacity="0.4" stroke="#000"/>
   <path d="M 35.1546,9.0301 21.1524,25.1333 c -0.525095,0.609848 -1.54637,0.690453 -2.15873,0.17038 l -8.0877,-7.0437 -5.7399,6.7082 8.1572,7.1517 7.6074,6.7502 6.9945,-7.8113 13.8727,-16.1957 z" id="path67" opacity="0.55" stroke="url(#5)"/>
  </g>
 </g>
 <g id="g69" fill="#fff">
  <path d="m 7,2 6,0 0,1 -6,0 z" id="path71" opacity="0.2"/>
  <path d="m 7,11 6,0 0,1 -6,0 z" id="path73" opacity="0.2"/>
  <path d="m 22,8 6,0 0,1 -6,0 z" id="path75" opacity="0.2"/>
  <path d="m 22,20 6,0 0,1 -6,0 z" id="path77" opacity="0.2"/>
  <path d="m 37,8 6,0 0,1 -6,0 z" id="path79" opacity="0.2"/>
 </g>
 <metadata id="metadata9999">
  <rdf:RDF>
   <cc:Work>
    <dc:format>image/svg+xml</dc:format>
    <dc:type rdf:resource="http://purl.org/dc/dcmitype/StillImage"/>
    <dc:title>Ivy icon theme</dc:title>
    <cc:license rdf:resource="http://creativecommons.org/licenses/by-sa/4.0/"/>
    <dc:creator>
     <cc:Agent>
      <dc:title>Sixsixfive (sixsixfive.deviantart.com)</dc:title>
     </cc:Agent>
    </dc:creator>
    <dc:publisher>
     <cc:Agent>
      <dc:title>Sixsixfive (sixsixfive.deviantart.com)</dc:title>
     </cc:Agent>
    </dc:publisher>
    <dc:source>https://github.com/sixsixfive</dc:source>
    <dc:subject>
     <rdf:Bag>
      <rdf:li>ivy</rdf:li>
     </rdf:Bag>
    </dc:subject>
    <dc:contributor>
     <cc:Agent>
      <dc:title>ssf</dc:title>
     </cc:Agent>
    </dc:contributor>
    <dc:rights>
     <cc:Agent>
      <dc:title>Sixsixfive (sixisixfive.deviantart.com)</dc:title>
     </cc:Agent>
    </dc:rights>
    <dc:description>A simple icon theme published under CC-BY-SA_V4(http://creativecommons.org/licenses/by-sa/4.0)</dc:description>
    <dc:identifier>SSF</dc:identifier>
   </cc:Work>
  </rdf:RDF>
 </metadata>
 <!--Part of the Ivy icon them published under the CC-BY-SA_V4: http://creativecommons.org/licenses/by-sa/4.0 -->
</svg>
