<?xml version="1.0" encoding="UTF-8" standalone="no"?><svg viewBox="0 0 32 32" xmlns:svg="http://www.w3.org/2000/svg" xmlns="http://www.w3.org/2000/svg" xmlns:rdf="http://www.w3.org/1999/02/22-rdf-syntax-ns#" version="1.1" id="svg2" xmlns:dc="http://purl.org/dc/elements/1.1/" xmlns:cc="http://creativecommons.org/ns#"><defs id="0"><linearGradient y1="3" x2="0" y2="44" gradientTransform="matrix(0.65806 0 0 0.66667 0.060828 0.66667)" id="c" gradientUnits="userSpaceOnUse"><stop id="J" stop-color="#eed45a"/><stop offset="1" id="K" stop-color="#f3e291"/></linearGradient><linearGradient y1="3" x2="0" y2="13" gradientTransform="matrix(0.66546 0 0 0.7 -0.11754 0.6)" id="b" gradientUnits="userSpaceOnUse"><stop id="H" stop-color="#eed45a"/><stop offset="1" id="I" stop-color="#f8ecb7"/></linearGradient><linearGradient x1="26.969" y1="2.031" x2="27" y2="30" id="a" gradientUnits="userSpaceOnUse"><stop id="stop4170" stop-color="#fff"/><stop stop-opacity="0" offset="1" id="stop4172" stop-color="#fff"/></linearGradient></defs><rect y="3" x="4" opacity="0.1" ry="0.796" rx="0.796" height="28" id="rect4178" width="23"/><rect y="2" x="4" ry="0.796" rx="0.796" height="28" id="2" width="23" fill="url(#c)"/><g id="g16" fill-rule="evenodd"><path opacity="0.2" id="path3360" d="M 4.6655,2 C 4.43642,2 4.25027,2.1165 4.10402,2.3 l 5.7604,7.7 11.313,0 5.74,-7.675 C 26.77042,2.1272 26.55342,2 26.31442,2 l -21.648,0 z"/><path opacity="0.4" transform="matrix(0 1 -1 0 0 0)" id="4" d="m 8,-16 17,0 0,1 -17,0 z"/><path opacity="0.4" id="6" d="m 5,25 21,0 0,1 -21,0 z"/><path id="7" d="M 4.6655,2 C 4.43642,2 4.25027,2.10193 4.10402,2.2625 L 9.86442,9 l 11.313,0 5.74,-6.7156 C 26.77042,2.1113 26.55342,2 26.31442,2 l -21.648,0 z" fill="url(#b)"/></g><path opacity="0.4" id="8" color="#000" d="m4.5802 2.0219c-0.2472 0.0284-0.4529 0.1619-0.5802 0.3718l5.5945 6.4969 0.1036 0.1094h0.1451 11.272 0.145l0.104-0.1094 5.553-6.4531c-0.118-0.2144-0.318-0.3745-0.56-0.4156l-5.3873 6.2781h-10.982l-5.408-6.2781z"/><path stroke="#000" opacity="0.4" id="path3364" d="m4.7949 2.5312c-0.1557 0-0.2637 0.108-0.2637 0.2637v26.41c0 0.15574 0.10793 0.26367 0.26367 0.26367h21.41c0.15574 0 0.26367-0.10793 0.26367-0.26367v-26.41c0-0.15574-0.10793-0.26367-0.26367-0.26367h-21.41z" fill="none"/><path stroke="url(#a)" opacity="0.4" id="path4166" d="m5.5137 3.5137v24.973h19.973v-24.973h-19.973z" fill="none"/><rect y="26" x="5" opacity="0.4" height="1" id="rect4176" width="21" fill="#fff"/><metadata id="metadata9999"><rdf:RDF><cc:Work><dc:format>image/svg+xml</dc:format><dc:type rdf:resource="http://purl.org/dc/dcmitype/StillImage"/><dc:title>Ivy icon theme</dc:title><cc:license rdf:resource="http://creativecommons.org/licenses/by-sa/4.0/"/><dc:creator><cc:Agent><dc:title>Sixsixfive (sixsixfive.deviantart.com)</dc:title></cc:Agent></dc:creator><dc:publisher><cc:Agent><dc:title>Sixsixfive (sixsixfive.deviantart.com)</dc:title></cc:Agent></dc:publisher><dc:source>https://github.com/sixsixfive</dc:source><dc:subject><rdf:Bag><rdf:li>ivy</rdf:li></rdf:Bag></dc:subject><dc:contributor><cc:Agent><dc:title>ssf</dc:title></cc:Agent></dc:contributor><dc:rights><cc:Agent><dc:title>Sixsixfive (sixisixfive.deviantart.com)</dc:title></cc:Agent></dc:rights><dc:description>A simple icon theme published under CC-BY-SA_V4(http://creativecommons.org/licenses/by-sa/4.0)</dc:description><dc:identifier>SSF</dc:identifier></cc:Work></rdf:RDF></metadata><!--Part of the Ivy icon them published under the CC-BY-SA_V4: http://creativecommons.org/licenses/by-sa/4.0 -->
</svg>