<?xml version="1.0" encoding="UTF-8" standalone="no"?><svg xmlns:cc="http://creativecommons.org/ns#" xmlns:rdf="http://www.w3.org/1999/02/22-rdf-syntax-ns#" xmlns:svg="http://www.w3.org/2000/svg" id="svg2" viewBox="0 0 48 48" version="1.1" xmlns:xlink="http://www.w3.org/1999/xlink" xmlns:dc="http://purl.org/dc/elements/1.1/" xmlns="http://www.w3.org/2000/svg"><defs id="defs12"><linearGradient id="linearGradient4170"><stop id="stop4172" stop-color="#fff"/><stop offset="1" id="stop4174" stop-color="#fff" stop-opacity="0"/></linearGradient><linearGradient id="linearGradient4148"><stop id="stop4150" stop-color="#dadada" stop-opacity="1"/><stop offset="1" id="stop4152" stop-color="#ebebeb" stop-opacity="1"/></linearGradient><linearGradient id="linearGradient4154" x2="0" y2="43" xlink:href="#linearGradient4148" y1="5" gradientUnits="userSpaceOnUse"/><linearGradient id="linearGradient4176" x2="0" y2="42" xlink:href="#linearGradient4170" y1="6" gradientUnits="userSpaceOnUse"/></defs><circle r="19" id="circle4178" cx="24" cy="25" opacity="0.2" stroke-linejoin="round"/><circle r="19" id="path4146" cx="24" cy="24" stroke-linejoin="round" fill="url(#linearGradient4154)"/><path id="path4158" opacity="0.4" d="m 24,5.5058594 c -4.841603,0 -9.652642,1.9944384 -13.076172,5.4179686 C 7.5002978,14.347358 5.5058594,19.158397 5.5058594,24 c 0,4.841603 1.9944384,9.652642 5.4179686,13.076172 3.42353,3.42353 8.234569,5.417969 13.076172,5.417969 4.841603,0 9.652642,-1.994439 13.076172,-5.417969 3.42353,-3.42353 5.417969,-8.234569 5.417969,-13.076172 0,-4.841603 -1.994439,-9.652642 -5.417969,-13.076172 C 33.652642,7.5002978 28.841603,5.5058594 24,5.5058594 Z" stroke="#000" stroke-linejoin="round" fill="none"/><path id="path4160" opacity="0.4" d="m 24,6.4160156 c -4.603269,0 -9.178591,1.8953877 -12.433594,5.1503904 C 8.3114033,14.821409 6.4160156,19.396731 6.4160156,24 c 0,4.603269 1.8953877,9.178591 5.1503904,12.433594 3.255003,3.255003 7.830325,5.15039 12.433594,5.15039 4.603269,0 9.178591,-1.895387 12.433594,-5.15039 3.255003,-3.255003 5.15039,-7.830325 5.15039,-12.433594 0,-4.603269 -1.895387,-9.178591 -5.15039,-12.433594 C 33.178591,8.3114033 28.603269,6.4160156 24,6.4160156 Z" stroke="url(#linearGradient4176)" stroke-linejoin="round" fill="none"/><metadata id="metadata9999"><rdf:RDF><cc:Work><dc:format>image/svg+xml</dc:format><dc:type rdf:resource="http://purl.org/dc/dcmitype/StillImage"/><dc:title>Ivy icon theme</dc:title><cc:license rdf:resource="http://creativecommons.org/licenses/by-sa/4.0/"/><dc:creator><cc:Agent><dc:title>Sixsixfive (sixsixfive.deviantart.com)</dc:title></cc:Agent></dc:creator><dc:publisher><cc:Agent><dc:title>Sixsixfive (sixsixfive.deviantart.com)</dc:title></cc:Agent></dc:publisher><dc:source>https://github.com/sixsixfive</dc:source><dc:subject><rdf:Bag><rdf:li>ivy</rdf:li></rdf:Bag></dc:subject><dc:contributor><cc:Agent><dc:title>ssf</dc:title></cc:Agent></dc:contributor><dc:rights><cc:Agent><dc:title>Sixsixfive (sixisixfive.deviantart.com)</dc:title></cc:Agent></dc:rights><dc:description>A simple icon theme published under CC-BY-SA_V4(http://creativecommons.org/licenses/by-sa/4.0)</dc:description><dc:identifier>SSF</dc:identifier></cc:Work></rdf:RDF></metadata><!--Part of the Ivy icon them published under the CC-BY-SA_V4: http://creativecommons.org/licenses/by-sa/4.0 -->
</svg>