<?xml version="1.0" encoding="UTF-8" standalone="no"?><svg xmlns:cc="http://creativecommons.org/ns#" xmlns:rdf="http://www.w3.org/1999/02/22-rdf-syntax-ns#" xmlns:svg="http://www.w3.org/2000/svg" id="svg2" viewBox="0 0 32 32" version="1.1" xmlns="http://www.w3.org/2000/svg" xmlns:dc="http://purl.org/dc/elements/1.1/"><defs id="defs4"><linearGradient id="0" x2="0" y2="5" gradientTransform="matrix(0.65 0 0 0.65789 0.4 0.711)" y1="43" gradientUnits="userSpaceOnUse"><stop id="stop7" stop-color="#ddd"/><stop offset="1" id="stop9" stop-color="#fff"/></linearGradient><linearGradient id="1" x2="28" y2="28" x1="27.969" y1="5.03" gradientUnits="userSpaceOnUse"><stop id="stop12" stop-color="#fff"/><stop offset="1" id="stop14" stop-color="#fff" stop-opacity="0"/></linearGradient></defs><path id="path16" opacity="0.1" d="M 3,5 H29 V30 H3 z"/><path id="path18" d="M 3,4 H29 V29 H3 z" fill="url(#0)"/><path id="path20" d="M 3,4 H29 V11 H3 z" fill="#5288d1"/><path id="path22" d="M 6,6 H7 V7 H6 z" fill-rule="evenodd" fill="#fff" color="#000"/><g id="g24" fill="none"><path id="path26" opacity="0.4" d="m 3.5,4.5 0,24 25,0 0,-24 -25,0 z" stroke="#000"/><path id="path28" opacity="0.4" d="m 4.5312,5.5312 0,21.9375 22.9375,0 0,-21.9375 -22.9375,0 z" stroke="url(#1)"/></g><path id="path30" opacity="0.4" d="M 4,10 H28 V11 H4 z"/><g id="g32" fill="#fff"><path id="path34" d="m 4,11 24,0 0,1 -24,0 z"/><g id="g36" fill-rule="evenodd" color="#000"><path id="path38" d="M 7,7 8,7 8,8 7,8 Z"/><path id="path40" d="M 8,8 9,8 9,9 8,9 Z"/><g id="g42" transform="matrix(-1 0 0 1 0 0)"><path id="path44" d="m -9,6 1,0 0,1 -1,0 z"/><path id="path46" d="m -8,7 1,0 0,1 -1,0 z"/><path id="path48" d="m -7,8 1,0 0,1 -1,0 z"/></g></g><path id="path50" d="m 10,6 1,0 0,3 -1,0 z"/><path id="path52" d="m 10,8 3,0 0,1 -3,0 z"/><path id="path54" d="m 12,6 1,0 0,2 -1,0 z"/><path id="path56" d="m 10,6 3,0 0,1 -3,0 z"/><path id="path58" d="m 14,8 3,0 0,1 -3,0 z"/></g><metadata id="metadata9999"><rdf:RDF><cc:Work><dc:format>image/svg+xml</dc:format><dc:type rdf:resource="http://purl.org/dc/dcmitype/StillImage"/><dc:title>Ivy icon theme</dc:title><cc:license rdf:resource="http://creativecommons.org/licenses/by-sa/4.0/"/><dc:creator><cc:Agent><dc:title>Sixsixfive (sixsixfive.deviantart.com)</dc:title></cc:Agent></dc:creator><dc:publisher><cc:Agent><dc:title>Sixsixfive (sixsixfive.deviantart.com)</dc:title></cc:Agent></dc:publisher><dc:source>https://github.com/sixsixfive</dc:source><dc:subject><rdf:Bag><rdf:li>ivy</rdf:li></rdf:Bag></dc:subject><dc:contributor><cc:Agent><dc:title>ssf</dc:title></cc:Agent></dc:contributor><dc:rights><cc:Agent><dc:title>Sixsixfive (sixisixfive.deviantart.com)</dc:title></cc:Agent></dc:rights><dc:description>A simple icon theme published under CC-BY-SA_V4(http://creativecommons.org/licenses/by-sa/4.0)</dc:description><dc:identifier>SSF</dc:identifier></cc:Work></rdf:RDF></metadata><!--Part of the Ivy icon them published under the CC-BY-SA_V4: http://creativecommons.org/licenses/by-sa/4.0 -->
</svg>