<?xml version="1.0" encoding="UTF-8" standalone="no"?><svg xmlns:cc="http://creativecommons.org/ns#" xmlns:dc="http://purl.org/dc/elements/1.1/" xmlns="http://www.w3.org/2000/svg" xmlns:svg="http://www.w3.org/2000/svg" xmlns:rdf="http://www.w3.org/1999/02/22-rdf-syntax-ns#" id="svg2" version="1.1" viewBox="0 0 32 32" xmlns:xlink="http://www.w3.org/1999/xlink"><defs id="defs4"><linearGradient id="linearGradient4155"><stop stop-opacity="1" id="stop4157" stop-color="#fff"/><stop stop-opacity="0" id="stop4159" stop-color="#fff" offset="1"/></linearGradient><linearGradient id="linearGradient4213"><stop stop-opacity="1" id="stop4215" stop-color="#5288d1"/><stop stop-opacity="1" id="stop4217" stop-color="#93b5e2" offset="1"/></linearGradient><linearGradient gradientTransform="matrix(0 0.66666667 -0.66666667 0 36 0)" gradientUnits="userSpaceOnUse" y1="36" xlink:href="#linearGradient4213" id="linearGradient4219" x1="3" y2="36" x2="45"/><linearGradient gradientUnits="userSpaceOnUse" y1="17.051172" xlink:href="#linearGradient4155" x1="3.9046345" id="linearGradient4161" y2="17.051172" x2="27.904634"/><linearGradient gradientTransform="matrix(0 0.66666667 -0.66666667 0 25.9 -0.19073059)" gradientUnits="userSpaceOnUse" y1="36" xlink:href="#linearGradient4213" x1="3" id="linearGradient4259" y2="36" x2="45"/><linearGradient gradientUnits="userSpaceOnUse" y1="17.051172" xlink:href="#linearGradient4155" x1="3.9046345" id="linearGradient4261" y2="17.051172" x2="27.904634"/></defs><path opacity="0.1" d="m 17.9,2.8092694 0,27.9999996 c -5.333333,-4.666667 -9.8032901,-8.987983 -16.0000001,-14 z" id="path4251" fill="#000" fill-opacity="1"/><path d="m 17.9,1.8092694 0,27.9999996 -16.0000001,-14 z" id="path4253" fill="url(#linearGradient4259)" fill-opacity="1"/><path transform="matrix(0 1 -1 0 25.903906 -0.18332217)" stroke="#000" opacity="0.4" d="M 3.109375,8.5039062 16,23.234375 28.890625,8.5039062 l -25.78125,0 z" id="path4255" fill="none" fill-opacity="1"/><path transform="matrix(0 1 -1 0 25.951172 -0.09536508)" stroke="url(#linearGradient4261)" opacity="0.4" d="M 5.1972656,9.4511719 16,21.796875 26.802734,9.4511719 l -21.6054684,0 z" id="path4257" fill="none" fill-opacity="1"/><path opacity="0.1" d="m 28,3 0,28 C 22.666667,26.333333 18.19671,22.012017 12,17 Z" id="path4163" fill="#000" fill-opacity="1"/><metadata id="metadata9999"><rdf:RDF><cc:Work><dc:format>image/svg+xml</dc:format><dc:type rdf:resource="http://purl.org/dc/dcmitype/StillImage"/><dc:title/><cc:license rdf:resource="http://creativecommons.org/licenses/by-sa/4.0/"/><dc:creator><cc:Agent><dc:title>Sixsixfive (sixsixfive.deviantart.com)</dc:title></cc:Agent></dc:creator><dc:publisher><cc:Agent><dc:title>Sixsixfive (sixsixfive.deviantart.com)</dc:title></cc:Agent></dc:publisher><dc:source>https://github.com/sixsixfive</dc:source><dc:subject><rdf:Bag><rdf:li>ivy</rdf:li></rdf:Bag></dc:subject><dc:contributor><cc:Agent><dc:title>ssf</dc:title></cc:Agent></dc:contributor><dc:rights><cc:Agent><dc:title>Sixsixfive (sixisixfive.deviantart.com)</dc:title></cc:Agent></dc:rights><dc:description>A simple icon theme published under CC-BY-SA_V4(http://creativecommons.org/licenses/by-sa/4.0)</dc:description><dc:identifier>SSF</dc:identifier></cc:Work></rdf:RDF></metadata><!--Part of the Ivy icon them published under the CC-BY-SA_V4: http://creativecommons.org/licenses/by-sa/4.0 -->
<path d="M 28,2 28,30 12,16 Z" id="path23" fill="url(#linearGradient4219)" fill-opacity="1"/><path transform="matrix(0 1 -1 0 36.003906 0.00740842)" stroke="#000" opacity="0.4" d="M 3.109375,8.5039062 16,23.234375 28.890625,8.5039062 l -25.78125,0 z" id="path3351" fill="none" fill-opacity="1"/><path transform="matrix(0 1 -1 0 36.051172 0.09536551)" stroke="url(#linearGradient4161)" opacity="0.4" d="M 5.1972656,9.4511719 16,21.796875 26.802734,9.4511719 l -21.6054684,0 z" id="path3353" fill="none" fill-opacity="1"/></svg>