<?xml version="1.0" encoding="UTF-8" standalone="no"?>
<svg xmlns:dc="http://purl.org/dc/elements/1.1/" xmlns:cc="http://creativecommons.org/ns#" xmlns:rdf="http://www.w3.org/1999/02/22-rdf-syntax-ns#" xmlns:svg="http://www.w3.org/2000/svg" xmlns="http://www.w3.org/2000/svg" viewBox="0 0 32 32" id="svg2" version="1.1">
 <defs id="defs4">
  <linearGradient id="0" y1="43" y2="5" x2="0" gradientUnits="userSpaceOnUse" gradientTransform="matrix(0.65 0 0 0.65789 0.4 0.711)">
   <stop stop-color="#ddd" id="stop7"/>
   <stop offset="1" stop-color="#fff" id="stop9"/>
  </linearGradient>
  <linearGradient id="1" y1="5.03" x1="27.969" y2="28" x2="28" gradientUnits="userSpaceOnUse">
   <stop stop-color="#fff" id="stop12"/>
   <stop offset="1" stop-color="#fff" stop-opacity="0" id="stop14"/>
  </linearGradient>
 </defs>
 <path opacity="0.1" d="M 3,5 H29 V30 H3 z" id="path16"/>
 <path fill="url(#0)" d="M 3,4 H29 V29 H3 z" id="path18"/>
 <g id="g20" fill="#fff">
  <path d="m 6,17 20,0 0,1 -20,0 z" id="path22"/>
  <path d="m 14,9 -7,17 4,0 4,-11 1,0 5,11 4,0 -8,-17 z" id="path24"/>
 </g>
 <path opacity="0.4" fill="none" stroke="#000" d="m 3.5 4.5 v 24 h 25 v -24 h -25 z" id="path26"/>
 <path fill="#fff" d="M 11,20 H21 V23 H11 z" id="path28"/>
 <path opacity="0.4" fill="none" stroke="url(#1)" d="m 4.5312 5.5312 v 21.9375 h 22.9375 v -21.9375 h -22.9375 z" id="path30"/>
 <g id="g32" fill="#6a6a6a">
  <path d="m 14,8 -7,17 4,0 4,-11 1,0 5,11 4,0 -8,-17 z" id="path34"/>
  <path d="m 11,19 10,0 0,3 -10,0 z" id="path36"/>
  <path d="m 6,16 20,0 0,1 -20,0 z" id="path38"/>
 </g>
 <metadata id="metadata9999">
  <rdf:RDF>
   <cc:Work>
    <dc:format>image/svg+xml</dc:format>
    <dc:type rdf:resource="http://purl.org/dc/dcmitype/StillImage"/>
    <dc:title>Ivy icon theme</dc:title>
    <cc:license rdf:resource="http://creativecommons.org/licenses/by-sa/4.0/"/>
    <dc:creator>
     <cc:Agent>
      <dc:title>Sixsixfive (sixsixfive.deviantart.com)</dc:title>
     </cc:Agent>
    </dc:creator>
    <dc:publisher>
     <cc:Agent>
      <dc:title>Sixsixfive (sixsixfive.deviantart.com)</dc:title>
     </cc:Agent>
    </dc:publisher>
    <dc:source>https://github.com/sixsixfive</dc:source>
    <dc:subject>
     <rdf:Bag>
      <rdf:li>ivy</rdf:li>
     </rdf:Bag>
    </dc:subject>
    <dc:contributor>
     <cc:Agent>
      <dc:title>ssf</dc:title>
     </cc:Agent>
    </dc:contributor>
    <dc:rights>
     <cc:Agent>
      <dc:title>Sixsixfive (sixisixfive.deviantart.com)</dc:title>
     </cc:Agent>
    </dc:rights>
    <dc:description>A simple icon theme published under CC-BY-SA_V4(http://creativecommons.org/licenses/by-sa/4.0)</dc:description>
    <dc:identifier>SSF</dc:identifier>
   </cc:Work>
  </rdf:RDF>
 </metadata>
 <!--Part of the Ivy icon them published under the CC-BY-SA_V4: http://creativecommons.org/licenses/by-sa/4.0 -->
</svg>
