<?xml version="1.0" encoding="UTF-8" standalone="no"?>
<svg xmlns:dc="http://purl.org/dc/elements/1.1/" xmlns:cc="http://creativecommons.org/ns#" xmlns:rdf="http://www.w3.org/1999/02/22-rdf-syntax-ns#" xmlns:svg="http://www.w3.org/2000/svg" xmlns="http://www.w3.org/2000/svg" version="1.1" viewBox="0 0 48 48" id="svg2">
 <defs id="defs4">
  <linearGradient id="0" y1="5.957" y2="42.08" x2="0" gradientUnits="userSpaceOnUse">
   <stop stop-color="#fff" id="stop7"/>
   <stop offset="1" stop-color="#fff" id="stop9" stop-opacity="0"/>
  </linearGradient>
  <linearGradient id="1" y1="43.02" x1="44" y2="-0.997" x2="43.912" gradientUnits="userSpaceOnUse">
   <stop stop-color="#ddd" id="stop12"/>
   <stop offset="1" stop-color="#fff" id="stop14"/>
  </linearGradient>
 </defs>
 <path opacity="0.1" id="path16" d="m 4,6.02 h 40 v 38 H 4 z"/>
 <path fill="url(#1)" id="path18" d="m 4,5.02 h 40 v 38 H 4 z"/>
 <path fill="#5288d1" id="path20" d="M 4,5.02 H 44 V 15.139 H 4 z"/>
 <rect width="20" x="4" y="15" fill="#66b03e" height="28" id="rect3039"/>
 <g id="g22" fill="none">
  <g id="g24" stroke="#000">
   <path id="path26" d="m 4.4688,5.4881 0,37.0625 39.0625,0 0,-37.0625 -39.0625,0 z" opacity="0.4"/>
   <path id="path28" d="m 4.9369,14.6279 38.1261,4e-4" opacity="0.4"/>
  </g>
  <path id="path30" d="m 5.4375,6.4568 0,35.125 37.125,0 0,-35.125 -37.125,0 z" opacity="0.4" stroke="url(#0)"/>
 </g>
 <g id="g32" fill="#fff" fill-rule="evenodd" color="#000">
  <path id="path34" d="m 7.03,9.111 1,0 0,1 -1,0 z"/>
  <path id="path36" d="m 8.03,10.111 1,0 0,1 -1,0 z"/>
  <path id="path38" d="m 9.03,11.11 1,0 0,1 -1,0 z"/>
  <path id="path40" d="m 7.03,11.11 1,0 0,1 -1,0 z"/>
  <path id="path42" d="m 9.03,9.111 1,0 0,1 -1,0 z"/>
  <path id="path44" d="m 12.03,9.111 1,0 0,3 -1,0 z"/>
  <path id="path46" d="m 11.11,-15.03 1,0 0,3 -1,0 z" transform="matrix(0,1,-1,0,0,0)"/>
  <path id="path48" d="m -15.03,-12.11 1,0 0,3 -1,0 z" transform="scale(-1,-1)"/>
  <g id="g50" transform="matrix(0,-1,1,0,0,0)">
   <path id="path52" d="m -10.111,12.03 1,0 0,3 -1,0 z"/>
   <path id="path54" d="m -12.11,17.03 1,0 0,3 -1,0 z"/>
  </g>
 </g>
 <rect width="1" x="23" opacity="0.4" y="15" height="27" id="rect3043"/>
 <rect width="18" x="24" y="15" fill="#fff" height="1" id="rect3047"/>
 <rect width="17" x="6" opacity="0.4" y="15" fill="#fff" height="1" id="rect3049"/>
 <rect width="14" x="7" opacity="0.3" y="26" height="6" id="rect3072"/>
 <rect width="14" x="22" opacity="0.3" y="-17" height="6" id="rect3114" transform="matrix(0 1 -1 0 0 0)"/>
 <rect width="12" x="8" y="27" fill="#ebebeb" height="4" id="rect3051"/>
 <rect width="12" x="23" y="-16" fill="#ebebeb" height="4" id="rect3116" transform="matrix(0 1 -1 0 0 0)"/>
 <metadata id="metadata9999">
  <rdf:RDF>
   <cc:Work>
    <dc:format>image/svg+xml</dc:format>
    <dc:type rdf:resource="http://purl.org/dc/dcmitype/StillImage"/>
    <dc:title>Ivy icon theme</dc:title>
    <cc:license rdf:resource="http://creativecommons.org/licenses/by-sa/4.0/"/>
    <dc:creator>
     <cc:Agent>
      <dc:title>Sixsixfive (sixsixfive.deviantart.com)</dc:title>
     </cc:Agent>
    </dc:creator>
    <dc:publisher>
     <cc:Agent>
      <dc:title>Sixsixfive (sixsixfive.deviantart.com)</dc:title>
     </cc:Agent>
    </dc:publisher>
    <dc:source>https://github.com/sixsixfive</dc:source>
    <dc:subject>
     <rdf:Bag>
      <rdf:li>ivy</rdf:li>
     </rdf:Bag>
    </dc:subject>
    <dc:contributor>
     <cc:Agent>
      <dc:title>ssf</dc:title>
     </cc:Agent>
    </dc:contributor>
    <dc:rights>
     <cc:Agent>
      <dc:title>Sixsixfive (sixisixfive.deviantart.com)</dc:title>
     </cc:Agent>
    </dc:rights>
    <dc:description>A simple icon theme published under CC-BY-SA_V4(http://creativecommons.org/licenses/by-sa/4.0)</dc:description>
    <dc:identifier>SSF</dc:identifier>
   </cc:Work>
  </rdf:RDF>
 </metadata>
 <!--Part of the Ivy icon them published under the CC-BY-SA_V4: http://creativecommons.org/licenses/by-sa/4.0 -->
</svg>
