<?xml version="1.0" encoding="UTF-8" standalone="no"?><svg xmlns:svg="http://www.w3.org/2000/svg" xmlns="http://www.w3.org/2000/svg" viewBox="0 0 48 48" xmlns:rdf="http://www.w3.org/1999/02/22-rdf-syntax-ns#" version="1.1" id="svg2" xmlns:dc="http://purl.org/dc/elements/1.1/" xmlns:cc="http://creativecommons.org/ns#"><defs id="defs4"><linearGradient y1="10.765" x2="0" y2="40.485" id="0" gradientUnits="userSpaceOnUse"><stop id="stop7" stop-color="#fff"/><stop stop-opacity="0" offset="1" id="stop9" stop-color="#fff"/></linearGradient><linearGradient y1="9.966" x2="0" y2="41.29" id="1" gradientUnits="userSpaceOnUse"><stop id="stop12" stop-color="#bababa"/><stop offset="1" id="stop14" stop-color="#ebebeb"/></linearGradient><radialGradient cy="59.1" id="2" gradientTransform="matrix(0.23869 0 0 0.02747 24.06 42.34)" cx="0" r="37.612" gradientUnits="userSpaceOnUse"><stop stop-opacity="0.2" id="stop17"/><stop stop-opacity="0" offset="1" id="stop19"/></radialGradient></defs><path id="path21" d="m 33.0359 43.9585 a 8.9776 1.033052 0 0 1 -17.9552 0 8.9776 1.033052 0 1 1 17.9552 0 z" fill="url(#2)"/><path id="path23" transform="matrix(1.18474 0 0 1.27706 -9.01 -8.727)" d="m 44.7458 25.6271 a 16.8814 15.661 0 1 1 -33.7627 0 16.8814 15.661 0 1 1 33.7627 0 z" fill="url(#1)"/><path stroke="url(#0)" stroke-width="0.813" opacity="0.7" id="path25" transform="matrix(1.18474 0 0 1.27706 -9.01 -8.727)" d="m 27.875 11.1562 c -8.7313 0 -15.7188 6.51002 -15.7188 14.4688 0 7.95873 6.98745 14.4688 15.7188 14.4688 8.7313 0 15.6875 -6.50717 15.6875 -14.4688 0 -7.96158 -6.9562 -14.4688 -15.6875 -14.4688 z" fill="none"/><g id="g27" fill="#6a6a6a"><path id="path29" d="M 24,15.0625 16,27 32,27 Z"/><path id="path31" d="m 16,29 0,3 16,0 0,-3 z"/></g><path stroke="#000" stroke-width="0.813" opacity="0.4" id="path33" transform="matrix(1.18474 0 0 1.27706 -9.01 -8.727)" d="m 27.875 10.375 c -9.11523 0 -16.5 6.84339 -16.5 15.25 0 8.40661 7.38477 15.25 16.5 15.25 9.11523 0 16.4688 -6.84239 16.4688 -15.25 0 -8.40761 -7.35352 -15.25 -16.4688 -15.25 z" fill="none"/><g id="g35" fill="#fff"><path opacity="0.9" id="path37" d="m 16,32 16,0 0,1 -16,0 z"/><path opacity="0.9" id="path39" d="m 16,27 16,0 0,1 -16,0 z"/></g><metadata id="metadata9999"><rdf:RDF><cc:Work><dc:format>image/svg+xml</dc:format><dc:type rdf:resource="http://purl.org/dc/dcmitype/StillImage"/><dc:title>Ivy icon theme</dc:title><cc:license rdf:resource="http://creativecommons.org/licenses/by-sa/4.0/"/><dc:creator><cc:Agent><dc:title>Sixsixfive (sixsixfive.deviantart.com)</dc:title></cc:Agent></dc:creator><dc:publisher><cc:Agent><dc:title>Sixsixfive (sixsixfive.deviantart.com)</dc:title></cc:Agent></dc:publisher><dc:source>https://github.com/sixsixfive</dc:source><dc:subject><rdf:Bag><rdf:li>ivy</rdf:li></rdf:Bag></dc:subject><dc:contributor><cc:Agent><dc:title>ssf</dc:title></cc:Agent></dc:contributor><dc:rights><cc:Agent><dc:title>Sixsixfive (sixisixfive.deviantart.com)</dc:title></cc:Agent></dc:rights><dc:description>A simple icon theme published under CC-BY-SA_V4(http://creativecommons.org/licenses/by-sa/4.0)</dc:description><dc:identifier>SSF</dc:identifier></cc:Work></rdf:RDF></metadata><!--Part of the Ivy icon them published under the CC-BY-SA_V4: http://creativecommons.org/licenses/by-sa/4.0 -->
</svg>