<?xml version="1.0" encoding="UTF-8" standalone="no"?>
<svg
   xmlns:dc="http://purl.org/dc/elements/1.1/"
   xmlns:cc="http://creativecommons.org/ns#"
   xmlns:rdf="http://www.w3.org/1999/02/22-rdf-syntax-ns#"
   xmlns:svg="http://www.w3.org/2000/svg"
   xmlns="http://www.w3.org/2000/svg"
   xmlns:xlink="http://www.w3.org/1999/xlink"
   xmlns:sodipodi="http://sodipodi.sourceforge.net/DTD/sodipodi-0.dtd"
   xmlns:inkscape="http://www.inkscape.org/namespaces/inkscape"
   viewBox="0 0 48 48"
   id="svg2"
   version="1.1"
   inkscape:version="0.91 r13725"
   sodipodi:docname="utilities-compare.svg">
  <path
     style="opacity:0.2;fill:#000000;fill-opacity:1;fill-rule:evenodd;stroke:none;stroke-width:1.39999998;stroke-linecap:round;stroke-linejoin:round;stroke-miterlimit:4;stroke-dasharray:none;stroke-dashoffset:0;stroke-opacity:1"
     d="M 18.5,6 A 13.5,13 0 0 0 5,19 13.5,13 0 0 0 16.027344,31.771484 13.5,13 0 0 0 29.5,44 13.5,13 0 0 0 43,31 13.5,13 0 0 0 31.972656,18.228516 13.5,13 0 0 0 18.5,6 Z"
     id="ellipse4187"
     inkscape:connector-curvature="0" />
  <sodipodi:namedview
     pagecolor="#ffffff"
     bordercolor="#666666"
     borderopacity="1"
     objecttolerance="10"
     gridtolerance="10"
     guidetolerance="10"
     inkscape:pageopacity="0"
     inkscape:pageshadow="2"
     inkscape:window-width="640"
     inkscape:window-height="480"
     id="namedview18"
     showgrid="true"
     inkscape:snap-bbox="true"
     inkscape:bbox-paths="true"
     inkscape:bbox-nodes="true"
     inkscape:zoom="3.7370593"
     inkscape:cx="26.483207"
     inkscape:cy="27.53045"
     inkscape:current-layer="svg2">
    <inkscape:grid
       type="xygrid"
       id="grid3346" />
  </sodipodi:namedview>
  <defs
     id="defs4">
    <linearGradient
       inkscape:collect="always"
       id="linearGradient4208">
      <stop
         style="stop-color:#a868d4;stop-opacity:1;"
         offset="0"
         id="stop4210" />
      <stop
         style="stop-color:#c9a1e4;stop-opacity:1"
         offset="1"
         id="stop4212" />
    </linearGradient>
    <linearGradient
       inkscape:collect="always"
       id="linearGradient4200">
      <stop
         style="stop-color:#5288d1;stop-opacity:1;"
         offset="0"
         id="stop4202" />
      <stop
         style="stop-color:#85acdf;stop-opacity:1"
         offset="1"
         id="stop4204" />
    </linearGradient>
    <linearGradient
       inkscape:collect="always"
       id="linearGradient4192">
      <stop
         style="stop-color:#d02604;stop-opacity:1;"
         offset="0"
         id="stop4194" />
      <stop
         style="stop-color:#fc5d3e;stop-opacity:1"
         offset="1"
         id="stop4196" />
    </linearGradient>
    <linearGradient
       inkscape:collect="always"
       id="linearGradient4179">
      <stop
         style="stop-color:#ffffff;stop-opacity:1;"
         offset="0"
         id="stop4181" />
      <stop
         style="stop-color:#ffffff;stop-opacity:0;"
         offset="1"
         id="stop4183" />
    </linearGradient>
    <linearGradient
       inkscape:collect="always"
       id="linearGradient4165">
      <stop
         style="stop-color:#ffffff;stop-opacity:1;"
         offset="0"
         id="stop4167" />
      <stop
         style="stop-color:#ffffff;stop-opacity:0;"
         offset="1"
         id="stop4169" />
    </linearGradient>
    <linearGradient
       inkscape:collect="always"
       xlink:href="#linearGradient4165"
       id="linearGradient4171"
       x1="39"
       y1="18"
       x2="39"
       y2="42"
       gradientUnits="userSpaceOnUse" />
    <linearGradient
       inkscape:collect="always"
       xlink:href="#linearGradient4179"
       id="linearGradient4185"
       x1="26"
       y1="6"
       x2="26"
       y2="30"
       gradientUnits="userSpaceOnUse" />
    <linearGradient
       inkscape:collect="always"
       xlink:href="#linearGradient4192"
       id="linearGradient4198"
       x1="13"
       y1="5"
       x2="13"
       y2="30"
       gradientUnits="userSpaceOnUse" />
    <linearGradient
       inkscape:collect="always"
       xlink:href="#linearGradient4200"
       id="linearGradient4206"
       x1="39"
       y1="17"
       x2="39"
       y2="43"
       gradientUnits="userSpaceOnUse" />
    <linearGradient
       inkscape:collect="always"
       xlink:href="#linearGradient4208"
       id="linearGradient4214"
       x1="25"
       y1="17"
       x2="25"
       y2="31"
       gradientUnits="userSpaceOnUse" />
  </defs>
  <metadata
     id="metadata9999">
    <rdf:RDF>
      <cc:Work>
        <dc:format>image/svg+xml</dc:format>
        <dc:type
           rdf:resource="http://purl.org/dc/dcmitype/StillImage" />
        <dc:title></dc:title>
        <cc:license
           rdf:resource="http://creativecommons.org/licenses/by-sa/4.0/" />
        <dc:creator>
          <cc:Agent>
            <dc:title>Sixsixfive (sixsixfive.deviantart.com)</dc:title>
          </cc:Agent>
        </dc:creator>
        <dc:publisher>
          <cc:Agent>
            <dc:title>Sixsixfive (sixsixfive.deviantart.com)</dc:title>
          </cc:Agent>
        </dc:publisher>
        <dc:source>https://github.com/sixsixfive</dc:source>
        <dc:subject>
          <rdf:Bag>
            <rdf:li>ivy</rdf:li>
          </rdf:Bag>
        </dc:subject>
        <dc:contributor>
          <cc:Agent>
            <dc:title>ssf</dc:title>
          </cc:Agent>
        </dc:contributor>
        <dc:rights>
          <cc:Agent>
            <dc:title>Sixsixfive (sixisixfive.deviantart.com)</dc:title>
          </cc:Agent>
        </dc:rights>
        <dc:description>A simple icon theme published under CC-BY-SA_V4(http://creativecommons.org/licenses/by-sa/4.0)</dc:description>
        <dc:identifier>SSF</dc:identifier>
      </cc:Work>
    </rdf:RDF>
  </metadata>
  <!--Part of the Ivy icon them published under the CC-BY-SA_V4: http://creativecommons.org/licenses/by-sa/4.0 -->
  <ellipse
     style="opacity:1;fill:url(#linearGradient4198);fill-opacity:1;fill-rule:evenodd;stroke:none;stroke-width:1.39999998;stroke-linecap:round;stroke-linejoin:round;stroke-miterlimit:4;stroke-dasharray:none;stroke-dashoffset:0;stroke-opacity:1"
     id="path3348"
     cx="18.5"
     cy="18"
     rx="13.5"
     ry="13" />
  <ellipse
     ry="13"
     rx="13.5"
     cy="30"
     cx="29.5"
     id="ellipse3350"
     style="opacity:1;fill:url(#linearGradient4206);fill-opacity:1;fill-rule:evenodd;stroke:none;stroke-width:1.39999998;stroke-linecap:round;stroke-linejoin:round;stroke-miterlimit:4;stroke-dasharray:none;stroke-dashoffset:0;stroke-opacity:1" />
  <path
     style="opacity:1;fill:url(#linearGradient4214);fill-opacity:1;fill-rule:evenodd;stroke:none;stroke-width:1.39999998;stroke-linecap:round;stroke-linejoin:round;stroke-miterlimit:4;stroke-dasharray:none;stroke-dashoffset:0;stroke-opacity:1"
     d="M 29.5 17 A 13.5 13 0 0 0 16 30 A 13.5 13 0 0 0 16.027344 30.771484 A 13.5 13 0 0 0 18.5 31 A 13.5 13 0 0 0 32 18 A 13.5 13 0 0 0 31.972656 17.228516 A 13.5 13 0 0 0 29.5 17 z "
     id="ellipse3354" />
  <path
     sodipodi:type="inkscape:offset"
     inkscape:radius="-0.52474654"
     inkscape:original="M 29.5 17 A 13.5 13 0 0 0 16 30 A 13.5 13 0 0 0 29.5 43 A 13.5 13 0 0 0 43 30 A 13.5 13 0 0 0 29.5 17 z "
     style="opacity:0.5;fill:none;fill-opacity:1;fill-rule:evenodd;stroke:#000000;stroke-width:1;stroke-linecap:round;stroke-linejoin:round;stroke-miterlimit:4;stroke-dasharray:none;stroke-dashoffset:0;stroke-opacity:1"
     id="path4161"
     d="m 29.5,17.525391 c -3.402001,0 -6.781405,1.348818 -9.181641,3.660156 C 17.918124,23.496885 16.525391,26.73927 16.525391,30 c 0,3.26073 1.392733,6.503115 3.792968,8.814453 2.400236,2.311338 5.77964,3.660156 9.181641,3.660156 3.402001,0 6.781405,-1.348818 9.181641,-3.660156 C 41.081876,36.503115 42.474609,33.26073 42.474609,30 c 0,-3.26073 -1.392733,-6.503115 -3.792968,-8.814453 C 36.281405,18.874209 32.902001,17.525391 29.5,17.525391 Z" />
  <path
     d="m 29.5,18.574219 c -3.13741,0 -6.25067,1.246304 -8.453125,3.367187 -2.202455,2.120883 -3.472656,5.0832 -3.472656,8.058594 0,2.975394 1.270201,5.937711 3.472656,8.058594 2.202455,2.120883 5.315715,3.367187 8.453125,3.367187 3.13741,0 6.25067,-1.246304 8.453125,-3.367187 2.202455,-2.120883 3.472656,-5.0832 3.472656,-8.058594 0,-2.975394 -1.270201,-5.937711 -3.472656,-8.058594 C 35.75067,19.820523 32.63741,18.574219 29.5,18.574219 Z"
     id="path4163"
     style="opacity:0.4;fill:none;fill-opacity:1;fill-rule:evenodd;stroke:url(#linearGradient4171);stroke-width:1;stroke-linecap:round;stroke-linejoin:round;stroke-miterlimit:4;stroke-dasharray:none;stroke-dashoffset:0;stroke-opacity:1"
     inkscape:original="M 29.5 17 A 13.5 13 0 0 0 16 30 A 13.5 13 0 0 0 29.5 43 A 13.5 13 0 0 0 43 30 A 13.5 13 0 0 0 29.5 17 z "
     inkscape:radius="-1.5742842"
     sodipodi:type="inkscape:offset" />
  <path
     sodipodi:type="inkscape:offset"
     inkscape:radius="-0.52053016"
     inkscape:original="M 18.5 5 A 13.5 13 0 0 0 5 18 A 13.5 13 0 0 0 18.5 31 A 13.5 13 0 0 0 32 18 A 13.5 13 0 0 0 18.5 5 z "
     style="opacity:0.5;fill:none;fill-opacity:1;fill-rule:evenodd;stroke:#000000;stroke-width:1;stroke-linecap:round;stroke-linejoin:round;stroke-miterlimit:4;stroke-dasharray:none;stroke-dashoffset:0;stroke-opacity:1"
     id="path4175"
     d="m 18.5,5.5214844 c -3.403064,0 -6.784517,1.348053 -9.1855469,3.6601562 C 6.9134229,11.493744 5.5214844,14.738124 5.5214844,18 c 0,3.261876 1.3919385,6.506256 3.7929687,8.818359 2.4010299,2.312104 5.7824829,3.660157 9.1855469,3.660157 3.403064,0 6.784517,-1.348053 9.185547,-3.660157 2.40103,-2.312103 3.792969,-5.556483 3.792969,-8.818359 0,-3.261876 -1.391939,-6.506256 -3.792969,-8.8183594 C 25.284517,6.8695374 21.903064,5.5214844 18.5,5.5214844 Z" />
  <path
     d="m 18.5,6.484375 c -3.159837,0 -6.296406,1.2555519 -8.515625,3.3925781 -2.2192195,2.1370259 -3.5,5.1234679 -3.5,8.1230469 0,2.999579 1.2807805,5.986021 3.5,8.123047 2.219219,2.137026 5.355788,3.392578 8.515625,3.392578 3.159837,0 6.296406,-1.255552 8.515625,-3.392578 2.219219,-2.137026 3.5,-5.123468 3.5,-8.123047 0,-2.999579 -1.280781,-5.986021 -3.5,-8.1230469 C 24.796406,7.7399269 21.659837,6.484375 18.5,6.484375 Z"
     id="path4177"
     style="opacity:0.4;fill:none;fill-opacity:1;fill-rule:evenodd;stroke:url(#linearGradient4185);stroke-width:1;stroke-linecap:round;stroke-linejoin:round;stroke-miterlimit:4;stroke-dasharray:none;stroke-dashoffset:0;stroke-opacity:1"
     inkscape:original="M 18.5 5 A 13.5 13 0 0 0 5 18 A 13.5 13 0 0 0 18.5 31 A 13.5 13 0 0 0 32 18 A 13.5 13 0 0 0 18.5 5 z "
     inkscape:radius="-1.4853241"
     sodipodi:type="inkscape:offset" />
</svg>
