<?xml version="1.0" encoding="UTF-8" standalone="no"?>
<svg xmlns:dc="http://purl.org/dc/elements/1.1/" xmlns:cc="http://creativecommons.org/ns#" xmlns:rdf="http://www.w3.org/1999/02/22-rdf-syntax-ns#" xmlns:svg="http://www.w3.org/2000/svg" xmlns="http://www.w3.org/2000/svg" xmlns:xlink="http://www.w3.org/1999/xlink" viewBox="0 0 48 48" id="svg2" version="1.1">
 <defs id="defs4">
  <linearGradient id="1" y1="49.48" x1="-15.588" y2="17.678" x2="16.263" gradientUnits="userSpaceOnUse">
   <stop stop-color="#fb5938" id="stop7"/>
   <stop offset="1" stop-color="#d02604" id="stop9"/>
  </linearGradient>
  <linearGradient id="2" y1="18.385" x1="15.556" y2="49.32" x2="-15.38" gradientUnits="userSpaceOnUse">
   <stop stop-color="#fff" id="stop12"/>
   <stop offset="1" stop-color="#fff" stop-opacity="0" id="stop14"/>
  </linearGradient>
  <radialGradient cx="24" cy="47" r="3.5" id="3" gradientUnits="userSpaceOnUse" gradientTransform="matrix(1 0 0 0.28571 0 33.571)">
   <stop id="stop17"/>
   <stop offset="1" stop-opacity="0" id="stop19"/>
  </radialGradient>
 </defs>
 <rect width="7" x="20.5" opacity="0.15" y="46" fill="url(#3)" rx="1" height="2" ry="1" id="rect21"/>
 <rect width="34.19" x="-17.1" y="16.845" fill="url(#1)" rx="2.849" height="34.19" transform="matrix(0.70711 -0.70711 0.70711 0.70711 0 0)" ry="2.849" id="rect23"/>
 <g id="g25" fill="none">
  <path d="m -14.25,18.3438 c -0.77914,0 -1.34375,0.56461 -1.34375,1.34375 l 0,28.5 c 0,0.77914 0.56461,1.34375 1.34375,1.34375 l 28.5,0 c 0.77914,0 1.34375,-0.56461 1.34375,-1.34375 l 0,-28.5 c 0,-0.77914 -0.56461,-1.34375 -1.34375,-1.34375 l -28.5,0 z" transform="matrix(0.70711,-0.70711,0.70711,0.70711,0,0)" id="path27" opacity="0.5" stroke="url(#2)"/>
  <g id="g29" stroke="#fff" stroke-width="3">
   <path d="M 17,7 35,24" id="path31"/>
   <path d="m 21.5,11 0,18" id="path33"/>
  </g>
 </g>
 <path fill="#fff" id="0" d="m 39 24 a 3 3 0 1 1 -6 0 3 3 0 1 1 6 0 z" transform="matrix(1.16667 0 0 1.16667 -7.5 -4.5)"/>
 <use xlink:href="#0" transform="matrix(1 0 0 1 -13 5)" id="use36"/>
 <path opacity="0.5" fill="none" stroke="#000" d="m -14.25 17.4375 c -1.25547 0 -2.25 0.994532 -2.25 2.25 v 28.5 c 0 1.25547 0.994532 2.25 2.25 2.25 h 28.5 c 1.25547 0 2.25 -0.994532 2.25 -2.25 v -28.5 c 0 -1.25547 -0.994532 -2.25 -2.25 -2.25 h -28.5 z" transform="matrix(0.70711 -0.70711 0.70711 0.70711 0 0)" id="path38"/>
 <metadata id="metadata9999">
  <rdf:RDF>
   <cc:Work>
    <dc:format>image/svg+xml</dc:format>
    <dc:type rdf:resource="http://purl.org/dc/dcmitype/StillImage"/>
    <dc:title>Ivy icon theme</dc:title>
    <cc:license rdf:resource="http://creativecommons.org/licenses/by-sa/4.0/"/>
    <dc:creator>
     <cc:Agent>
      <dc:title>Sixsixfive (sixsixfive.deviantart.com)</dc:title>
     </cc:Agent>
    </dc:creator>
    <dc:publisher>
     <cc:Agent>
      <dc:title>Sixsixfive (sixsixfive.deviantart.com)</dc:title>
     </cc:Agent>
    </dc:publisher>
    <dc:source>https://github.com/sixsixfive</dc:source>
    <dc:subject>
     <rdf:Bag>
      <rdf:li>ivy</rdf:li>
     </rdf:Bag>
    </dc:subject>
    <dc:contributor>
     <cc:Agent>
      <dc:title>ssf</dc:title>
     </cc:Agent>
    </dc:contributor>
    <dc:rights>
     <cc:Agent>
      <dc:title>Sixsixfive (sixisixfive.deviantart.com)</dc:title>
     </cc:Agent>
    </dc:rights>
    <dc:description>A simple icon theme published under CC-BY-SA_V4(http://creativecommons.org/licenses/by-sa/4.0)</dc:description>
    <dc:identifier>SSF</dc:identifier>
   </cc:Work>
  </rdf:RDF>
 </metadata>
 <!--Part of the Ivy icon them published under the CC-BY-SA_V4: http://creativecommons.org/licenses/by-sa/4.0 -->
</svg>
