<?xml version="1.0" encoding="UTF-8" standalone="no"?><svg viewBox="0 0 48 48" xmlns="http://www.w3.org/2000/svg" xmlns:svg="http://www.w3.org/2000/svg" xmlns:rdf="http://www.w3.org/1999/02/22-rdf-syntax-ns#" xmlns:xlink="http://www.w3.org/1999/xlink" version="1.1" id="svg2" xmlns:dc="http://purl.org/dc/elements/1.1/" xmlns:cc="http://creativecommons.org/ns#"><defs id="defs4"><linearGradient x1="-15.588" y1="49.48" x2="16.263" y2="17.678" id="1" gradientUnits="userSpaceOnUse"><stop id="stop7" stop-color="#fb5938"/><stop offset="1" id="stop9" stop-color="#d02604"/></linearGradient><linearGradient x1="15.556" y1="18.385" x2="-15.38" y2="49.32" id="2" gradientUnits="userSpaceOnUse"><stop id="stop12" stop-color="#fff"/><stop stop-opacity="0" offset="1" id="stop14" stop-color="#fff"/></linearGradient><radialGradient gradientTransform="matrix(1 0 0 0.28571 0 33.571)" id="3" cy="47" cx="24" r="3.5" gradientUnits="userSpaceOnUse"><stop id="stop17"/><stop stop-opacity="0" offset="1" id="stop19"/></radialGradient></defs><rect y="46" x="20.5" opacity="0.15" ry="1" height="2" rx="1" id="rect21" width="7" fill="url(#3)"/><rect y="16.845" x="-17.1" ry="2.849" height="34.19" rx="2.849" transform="matrix(0.70711 -0.70711 0.70711 0.70711 0 0)" id="rect23" width="34.19" fill="url(#1)"/><g id="g25" fill="none"><path stroke="url(#2)" opacity="0.5" transform="matrix(0.70711 -0.70711 0.70711 0.70711 0 0)" id="path27" d="m -14.25,18.3438 c -0.77914,0 -1.34375,0.56461 -1.34375,1.34375 l 0,28.5 c 0,0.77914 0.56461,1.34375 1.34375,1.34375 l 28.5,0 c 0.77914,0 1.34375,-0.56461 1.34375,-1.34375 l 0,-28.5 c 0,-0.77914 -0.56461,-1.34375 -1.34375,-1.34375 l -28.5,0 z"/><g stroke="#fff" stroke-width="3" id="g29"><path id="path31" d="M 17,7 35,24"/><path id="path33" d="m 21.5,11 0,18"/></g></g><path transform="matrix(1.16667 0 0 1.16667 -7.5 -4.5)" id="0" d="m 39 24 a 3 3 0 1 1 -6 0 3 3 0 1 1 6 0 z" fill="#fff"/><use xlink:href="#0" transform="matrix(1 0 0 1 -13 5)" id="use36"/><path stroke="#000" opacity="0.5" transform="matrix(0.70711 -0.70711 0.70711 0.70711 0 0)" id="path38" d="m -14.25 17.4375 c -1.25547 0 -2.25 0.994532 -2.25 2.25 v 28.5 c 0 1.25547 0.994532 2.25 2.25 2.25 h 28.5 c 1.25547 0 2.25 -0.994532 2.25 -2.25 v -28.5 c 0 -1.25547 -0.994532 -2.25 -2.25 -2.25 h -28.5 z" fill="none"/><metadata id="metadata9999"><rdf:RDF><cc:Work><dc:format>image/svg+xml</dc:format><dc:type rdf:resource="http://purl.org/dc/dcmitype/StillImage"/><dc:title>Ivy icon theme</dc:title><cc:license rdf:resource="http://creativecommons.org/licenses/by-sa/4.0/"/><dc:creator><cc:Agent><dc:title>Sixsixfive (sixsixfive.deviantart.com)</dc:title></cc:Agent></dc:creator><dc:publisher><cc:Agent><dc:title>Sixsixfive (sixsixfive.deviantart.com)</dc:title></cc:Agent></dc:publisher><dc:source>https://github.com/sixsixfive</dc:source><dc:subject><rdf:Bag><rdf:li>ivy</rdf:li></rdf:Bag></dc:subject><dc:contributor><cc:Agent><dc:title>ssf</dc:title></cc:Agent></dc:contributor><dc:rights><cc:Agent><dc:title>Sixsixfive (sixisixfive.deviantart.com)</dc:title></cc:Agent></dc:rights><dc:description>A simple icon theme published under CC-BY-SA_V4(http://creativecommons.org/licenses/by-sa/4.0)</dc:description><dc:identifier>SSF</dc:identifier></cc:Work></rdf:RDF></metadata><!--Part of the Ivy icon them published under the CC-BY-SA_V4: http://creativecommons.org/licenses/by-sa/4.0 -->
</svg>