<?xml version="1.0" encoding="UTF-8" standalone="no"?>
<svg xmlns:dc="http://purl.org/dc/elements/1.1/" xmlns:cc="http://creativecommons.org/ns#" xmlns:rdf="http://www.w3.org/1999/02/22-rdf-syntax-ns#" xmlns:svg="http://www.w3.org/2000/svg" xmlns="http://www.w3.org/2000/svg" xmlns:xlink="http://www.w3.org/1999/xlink" version="1.1" viewBox="0 0 48 48" id="svg2">
 <defs id="defs4">
  <linearGradient id="linearGradient4222">
   <stop id="stop4224" stop-color="#3472c5"/>
   <stop id="stop4226" offset="1" stop-color="#6293d5"/>
  </linearGradient>
  <linearGradient id="linearGradient4195">
   <stop id="stop4197" stop-color="#e0e0e0"/>
   <stop id="stop4199" offset="1" stop-color="#fff"/>
  </linearGradient>
  <linearGradient gradientUnits="userSpaceOnUse" x2="45.898" y2="46.46" x1="44.597" y1="3.159" id="0">
   <stop id="stop7" stop-color="#fff"/>
   <stop id="stop9" stop-opacity="0" stop-color="#fff" offset="1"/>
  </linearGradient>
  <clipPath id="clipPath4191">
   <rect id="rect4193" height="32.19014" rx="1.839008" y="17.847082" x="-16.09007" width="32.19014" transform="matrix(0.70710678,-0.70710678,0.70710678,0.70710678,0,0)" fill="#fff" ry="1.839008"/>
  </clipPath>
  <linearGradient gradientUnits="userSpaceOnUse" y2="45" x2="0" y1="2" id="linearGradient4201" xlink:href="#linearGradient4195"/>
  <linearGradient gradientUnits="userSpaceOnUse" y2="50.37678" x2="-16.433628" y1="19.261538" x1="14.681615" id="linearGradient4228" xlink:href="#linearGradient4222"/>
 </defs>
 <rect transform="matrix(0.70710678,-0.70710678,0.70710678,0.70710678,0,0)" width="32.19014" x="-16.971079" y="18.724087" rx="1.839008" height="32.19014" id="rect18" opacity="0.1" ry="1.839008"/>
 <rect transform="matrix(0.70710678,-0.70710678,0.70710678,0.70710678,0,0)" width="32.19014" x="-16.09007" y="17.847082" rx="1.839008" height="32.19014" id="rect20" fill="url(#linearGradient4228)" ry="1.839008"/>
 <path id="rect4168" d="M 27 -2 L 27 17.541016 A 4 4 0 0 0 25.541016 19 L 20 19 L 18 19 L 16 21 L 16 23 L 16 52 L 20 52 L 20 24.003906 C 21.06449 23.000903 19.999963 24 21.064453 23 L 25.541016 23 A 4 4 0 0 0 27 24.458984 L 27 45 L 31 45 L 31 24.458984 A 4 4 0 0 0 33 21 A 4 4 0 0 0 31 17.541016 L 31 -2 L 27 -2 z " clip-path="url(#clipPath4191)" fill="url(#linearGradient4201)" fill-rule="evenodd"/>
 <path id="path24" d="m 2.9168 23.064 c -0.519002 0.519003 -0.519002 1.33715 0 1.85616 l 20.1525 20.1525 c 0.519002 0.519002 1.33715 0.519002 1.85616 0 l 20.1525 -20.1525 c 0.519002 -0.519003 0.519002 -1.33715 0 -1.85616 L 24.92546 2.9115 c -0.519002 -0.519002 -1.33715 -0.519002 -1.85616 0 L 2.9168 23.064 z" stroke="#000" fill="none" opacity="0.4"/>
 <path id="path32" d="m 3.5797 23.7269 c -0.170342 0.170342 -0.170342 0.359988 0 0.53033 l 20.1525 20.1525 c 0.170342 0.170342 0.359988 0.170342 0.53033 0 l 20.1525 -20.1525 c 0.170342 -0.170342 0.170342 -0.359988 0 -0.53033 L 24.26253 3.5744 c -0.170342 -0.170342 -0.359988 -0.170342 -0.53033 0 L 3.5797 23.7269 z" stroke="url(#0)" fill="none" opacity="0.4"/>
 <metadata id="metadata9999">
  <rdf:RDF>
   <cc:Work>
    <dc:format>image/svg+xml</dc:format>
    <dc:type rdf:resource="http://purl.org/dc/dcmitype/StillImage"/>
    <dc:title>Ivy icon theme</dc:title>
    <cc:license rdf:resource="http://creativecommons.org/licenses/by-sa/4.0/"/>
    <dc:creator>
     <cc:Agent>
      <dc:title>Sixsixfive (sixsixfive.deviantart.com)</dc:title>
     </cc:Agent>
    </dc:creator>
    <dc:publisher>
     <cc:Agent>
      <dc:title>Sixsixfive (sixsixfive.deviantart.com)</dc:title>
     </cc:Agent>
    </dc:publisher>
    <dc:source>https://github.com/sixsixfive</dc:source>
    <dc:subject>
     <rdf:Bag>
      <rdf:li>ivy</rdf:li>
     </rdf:Bag>
    </dc:subject>
    <dc:contributor>
     <cc:Agent>
      <dc:title>ssf</dc:title>
     </cc:Agent>
    </dc:contributor>
    <dc:rights>
     <cc:Agent>
      <dc:title>Sixsixfive (sixisixfive.deviantart.com)</dc:title>
     </cc:Agent>
    </dc:rights>
    <dc:description>A simple icon theme published under CC-BY-SA_V4(http://creativecommons.org/licenses/by-sa/4.0)</dc:description>
    <dc:identifier>SSF</dc:identifier>
   </cc:Work>
  </rdf:RDF>
 </metadata>
 <!--Part of the Ivy icon them published under the CC-BY-SA_V4: http://creativecommons.org/licenses/by-sa/4.0 -->
</svg>
