<?xml version="1.0" encoding="UTF-8" standalone="no"?><svg xmlns:xlink="http://www.w3.org/1999/xlink" xmlns:cc="http://creativecommons.org/ns#" viewBox="0 0 32 32" version="1.1" id="svg2" xmlns:svg="http://www.w3.org/2000/svg" xmlns:rdf="http://www.w3.org/1999/02/22-rdf-syntax-ns#" xmlns="http://www.w3.org/2000/svg" xmlns:dc="http://purl.org/dc/elements/1.1/"><defs id="defs4"><linearGradient id="linearGradient4305"><stop id="stop4307" stop-color="#fff"/><stop offset="1" id="stop4309"/></linearGradient><linearGradient x2="0" gradientUnits="userSpaceOnUse" id="1" y2="34" gradientTransform="matrix(0.7272727 0 0 0.75000002 -1.4545454 -1.500001)" y1="14"><stop id="stop7" stop-color="#ebebeb"/><stop offset="1" id="stop9" stop-color="#eee"/></linearGradient><linearGradient x2="0" gradientUnits="userSpaceOnUse" xlink:href="#linearGradient4305" id="linearGradient4339" y2="5" y1="10"/><mask maskUnits="userSpaceOnUse" id="mask4335"><rect height="14.455349" width="8.455349" fill-rule="evenodd" rx="0.634151" ry="0.634151" fill="url(#linearGradient4339)" id="rect4337" stroke-width="1.044651" x="10.522326" y="-0.477675"/></mask></defs><g mask="url(#mask4335)" id="g3491"><path id="path3489" d="m 12.027344,-0.0546875 a 0.96370218,0.96370218 0 0 0 -0.855469,1.4628906 c 1.280348,2.1139829 2.484278,4.4907943 2.884766,6.3378907 0.200243,0.9235481 0.190803,1.690025 0.0059,2.2109374 -0.184944,0.5209128 -0.482577,0.8667948 -1.222656,1.1386718 a 0.96370218,0.96370218 0 0 0 0.332031,1.867188 l 3.828125,0 a 0.96370218,0.96370218 0 0 0 0.935547,-0.728516 c 0.60536,-2.4216039 -0.252934,-5.2303242 -0.746135,-7.4355469 -0.2466,-1.1026113 -0.399325,-2.0660782 -0.359375,-2.5292969 0.01997,-0.2316093 0.07751,-0.2886963 0.04883,-0.2578124 -0.02868,0.030884 -0.100623,0.017062 0.08789,0.021484 a 0.96370218,0.96370218 0 0 0 0.05469,-1.92578122 l -4.99414,-0.16210938 z"/><path fill="#6a6a6a" id="path25" d="M 13.171417,12 C 17,10.593523 14.606103,5.2158108 11.996714,0.90744765 L 16.990433,1.0701538 C 14,1 18,8 17,12 Z"/></g><rect height="15" width="32" opacity="0.1" rx="0.727273" ry="0.727273" id="rect3420" y="10"/><rect height="15" width="32" rx="0.727273" ry="0.727273" fill="url(#1)" id="rect27" y="9"/><rect height="11" width="28" opacity="0.839" rx="0.7" ry="0.7" fill="#fff" id="rect29" x="2" y="12"/><rect height="11" width="28" opacity="0.839" rx="0.7" ry="0.7" fill="#171717" id="rect31" x="2" y="11"/><path id="path4343" d="m 26,19 a 2,2 0 0 1 -4,0 2,2 0 1 1 4,0 z"/><path id="path4341" transform="matrix(1 0 0 1 0 0.999547)" d="m 6.4003906,13.060547 c -0.7273316,0 -1.3398437,0.612513 -1.3398437,1.339844 l 0,0.660156 -0.6601563,0 c -0.7273316,0 -1.3398437,0.612513 -1.3398437,1.339844 l 0,0.199218 c 0,0.727331 0.6125121,1.339844 1.3398437,1.339844 l 0.6601563,0 0,0.660156 c 0,0.727331 0.6125121,1.339844 1.3398437,1.339844 l 0.1992188,0 c 0.7273316,0 1.3398437,-0.612513 1.3398437,-1.339844 l 0,-0.660156 0.6601563,0 c 0.7273316,0 1.3398437,-0.612513 1.3398437,-1.339844 l 0,-0.199218 c 0,-0.727331 -0.6125121,-1.339844 -1.3398437,-1.339844 l -0.6601563,0 0,-0.660156 c 0,-0.727331 -0.6125121,-1.339844 -1.3398437,-1.339844 l -0.1992188,0 z m 6.1992184,4 c -0.752921,0 -1.539062,0.557787 -1.539062,1.439453 0,0.881666 0.786141,1.439453 1.539062,1.439453 l 1.800782,0 c 0.752921,0 1.539062,-0.557787 1.539062,-1.439453 0,-0.881666 -0.786141,-1.439453 -1.539062,-1.439453 l -1.800782,0 z m 5,0 c -0.752921,0 -1.539062,0.557787 -1.539062,1.439453 0,0.881666 0.786141,1.439453 1.539062,1.439453 l 1.800782,0 c 0.752921,0 1.539062,-0.557787 1.539062,-1.439453 0,-0.881666 -0.786141,-1.439453 -1.539062,-1.439453 l -1.800782,0 z"/><path fill="#fff" id="path3481" d="m 6.4003906,13.060547 c -0.7273316,0 -1.3398437,0.612513 -1.3398437,1.339844 l 0,0.660156 -0.6601563,0 c -0.7273316,0 -1.3398437,0.612513 -1.3398437,1.339844 l 0,0.199218 c 0,0.727331 0.6125121,1.339844 1.3398437,1.339844 l 0.6601563,0 0,0.660156 c 0,0.727331 0.6125121,1.339844 1.3398437,1.339844 l 0.1992188,0 c 0.7273316,0 1.3398437,-0.612513 1.3398437,-1.339844 l 0,-0.660156 0.6601563,0 c 0.7273316,0 1.3398437,-0.612513 1.3398437,-1.339844 l 0,-0.199218 c 0,-0.727331 -0.6125121,-1.339844 -1.3398437,-1.339844 l -0.6601563,0 0,-0.660156 c 0,-0.727331 -0.6125121,-1.339844 -1.3398437,-1.339844 l -0.1992188,0 z m 6.1992184,4 c -0.752921,0 -1.539062,0.557787 -1.539062,1.439453 0,0.881666 0.786141,1.439453 1.539062,1.439453 l 1.800782,0 c 0.752921,0 1.539062,-0.557787 1.539062,-1.439453 0,-0.881666 -0.786141,-1.439453 -1.539062,-1.439453 l -1.800782,0 z m 5,0 c -0.752921,0 -1.539062,0.557787 -1.539062,1.439453 0,0.881666 0.786141,1.439453 1.539062,1.439453 l 1.800782,0 c 0.752921,0 1.539062,-0.557787 1.539062,-1.439453 0,-0.881666 -0.786141,-1.439453 -1.539062,-1.439453 l -1.800782,0 z"/><rect height="5" width="1" rx="0.4" ry="0.4" fill="#171717" id="rect39" x="16" transform="matrix(0 1 -1 0 0 0)" y="-9"/><rect height="5" width="1" rx="0.4" ry="0.4" fill="#171717" id="rect41" x="-7" transform="matrix(-1 0 0 -1 0 0)" y="-19"/><rect height="1" width="3" rx="0.6" ry="0.5" fill="#171717" id="rect45" x="12" y="18"/><rect height="1" width="3" rx="0.6" ry="0.5" fill="#171717" id="rect49" x="17" y="18"/><rect height="1" width="8" opacity="0.4" fill="#fff" id="rect53" x="12" y="15"/><rect height="1" width="8" opacity="0.4" fill="#fff" id="rect55" x="12" y="13"/><rect height="1" width="8" opacity="0.4" fill="#fff" id="rect57" x="12" y="11"/><path opacity="0.8" fill="#fff" id="path75" d="m 1,10 30,0 0,1 -30,0 z"/><path fill="#fff" id="path3485" d="m 26,18 a 2,2 0 0 1 -4,0 2,2 0 1 1 4,0 z"/><path id="path4345" d="m 30,19 a 2,2 0 0 1 -4,0 2,2 0 1 1 4,0 z"/><path fill="#d02604" id="0" d="m 25,18 a 1,1 0 0 1 -2,0 1,1 0 1 1 2,0 z"/><path opacity="0.4" fill="#fff" id="path80" d="m 12,21 8,0 0,1 -8,0 z"/><path opacity="0.6" fill="none" id="path3418" stroke="#000" d="m 0.7265625,9.4902344 c -0.14039558,0 -0.23632813,0.095932 -0.23632812,0.2363281 l 0,13.5468755 c 0,0.140395 0.0959322,0.236328 0.23632812,0.236328 l 30.5468755,0 c 0.140395,0 0.236328,-0.09593 0.236328,-0.236328 l 0,-13.5468755 c 0,-0.1403959 -0.09593,-0.2363281 -0.236328,-0.2363281 l -30.5468755,0 z"/><rect height="1" width="1" fill-rule="evenodd" fill="#d02604" id="rect3427" x="22" y="12"/><rect height="1" width="2" fill-rule="evenodd" fill="#d02604" id="rect3429" x="24" y="12"/><rect height="1" width="2" fill-rule="evenodd" fill="#d02604" id="rect3431" x="27" y="12"/><path fill="#fff" id="path3483" d="m 30,18 a 2,2 0 0 1 -4,0 2,2 0 1 1 4,0 z"/><path fill="#d02604" id="path3455" d="m 29,18 a 1,1 0 0 1 -2,0 1,1 0 1 1 2,0 z"/><metadata id="metadata9999"><rdf:RDF><cc:Work><dc:format>image/svg+xml</dc:format><dc:type rdf:resource="http://purl.org/dc/dcmitype/StillImage"/><dc:title>Ivy icon theme</dc:title><cc:license rdf:resource="http://creativecommons.org/licenses/by-sa/4.0/"/><dc:creator><cc:Agent><dc:title>Sixsixfive (sixsixfive.deviantart.com)</dc:title></cc:Agent></dc:creator><dc:publisher><cc:Agent><dc:title>Sixsixfive (sixsixfive.deviantart.com)</dc:title></cc:Agent></dc:publisher><dc:source>https://github.com/sixsixfive</dc:source><dc:subject><rdf:Bag><rdf:li>ivy</rdf:li></rdf:Bag></dc:subject><dc:contributor><cc:Agent><dc:title>ssf</dc:title></cc:Agent></dc:contributor><dc:rights><cc:Agent><dc:title>Sixsixfive (sixisixfive.deviantart.com)</dc:title></cc:Agent></dc:rights><dc:description>A simple icon theme published under CC-BY-SA_V4(http://creativecommons.org/licenses/by-sa/4.0)</dc:description><dc:identifier>SSF</dc:identifier></cc:Work></rdf:RDF></metadata><!--Part of the Ivy icon them published under the CC-BY-SA_V4: http://creativecommons.org/licenses/by-sa/4.0 -->
</svg>