<?xml version="1.0" encoding="UTF-8" standalone="no"?><svg xmlns:cc="http://creativecommons.org/ns#" xmlns:rdf="http://www.w3.org/1999/02/22-rdf-syntax-ns#" xmlns:svg="http://www.w3.org/2000/svg" id="svg2" viewBox="0 0 48 48" version="1.1" xmlns:xlink="http://www.w3.org/1999/xlink" xmlns:dc="http://purl.org/dc/elements/1.1/" xmlns="http://www.w3.org/2000/svg"><defs id="defs4"><linearGradient id="linearGradient4403"><stop id="stop4405" stop-color="#fff" stop-opacity="1"/><stop offset="1" id="stop4407" stop-color="#f5f5f5" stop-opacity="1"/></linearGradient><linearGradient id="linearGradient4182"><stop id="stop4184" stop-color="#fff" stop-opacity="1"/><stop offset="1" id="stop4186" stop-color="#fff" stop-opacity="0"/></linearGradient><linearGradient id="linearGradient4168"><stop id="stop4170" stop-color="#3c3c3c" stop-opacity="1"/><stop offset="1" id="stop4172" stop-color="#6a6a6a" stop-opacity="1"/></linearGradient><linearGradient id="linearGradient4174" x2="27" y2="45" x1="27" xlink:href="#linearGradient4168" y1="-3" gradientUnits="userSpaceOnUse"/><linearGradient id="linearGradient4188" x2="39" y2="44" x1="39" xlink:href="#linearGradient4182" y1="4" gradientUnits="userSpaceOnUse"/><linearGradient id="linearGradient4409" x2="32" y2="8" x1="32" xlink:href="#linearGradient4403" y1="36" gradientUnits="userSpaceOnUse"/></defs><rect rx="5.767314" ry="5.7594786" stroke-width="1" width="32" stroke="none" stroke-linejoin="round" fill-rule="evenodd" x="8" y="4" stroke-linecap="round" stroke-dasharray="none" fill-opacity="1" stroke-dashoffset="0" height="42" id="rect4212" stroke-miterlimit="4" opacity="0.2" stroke-opacity="1" fill="#000"/><metadata id="metadata9999"><rdf:RDF><cc:Work><dc:format>image/svg+xml</dc:format><dc:type rdf:resource="http://purl.org/dc/dcmitype/StillImage"/><dc:title/><cc:license rdf:resource="http://creativecommons.org/licenses/by-sa/4.0/"/><dc:creator><cc:Agent><dc:title>Sixsixfive (sixsixfive.deviantart.com)</dc:title></cc:Agent></dc:creator><dc:publisher><cc:Agent><dc:title>Sixsixfive (sixsixfive.deviantart.com)</dc:title></cc:Agent></dc:publisher><dc:source>https://github.com/sixsixfive</dc:source><dc:subject><rdf:Bag><rdf:li>ivy</rdf:li></rdf:Bag></dc:subject><dc:contributor><cc:Agent><dc:title>ssf</dc:title></cc:Agent></dc:contributor><dc:rights><cc:Agent><dc:title>Sixsixfive (sixisixfive.deviantart.com)</dc:title></cc:Agent></dc:rights><dc:description>A simple icon theme published under CC-BY-SA_V4(http://creativecommons.org/licenses/by-sa/4.0)</dc:description><dc:identifier>SSF</dc:identifier></cc:Work></rdf:RDF></metadata><!--Part of the Ivy icon them published under the CC-BY-SA_V4: http://creativecommons.org/licenses/by-sa/4.0 -->
<rect rx="5.767314" ry="5.7594786" stroke-width="1" width="32" stroke="none" stroke-linejoin="round" fill-rule="evenodd" x="8" y="3" stroke-linecap="round" stroke-dasharray="none" fill-opacity="1" stroke-dashoffset="0" height="42" id="rect3366" stroke-miterlimit="4" opacity="1" stroke-opacity="1" fill="url(#linearGradient4174)"/><rect rx="0.75" ry="0.75" stroke-width="1" width="6" stroke="none" stroke-linejoin="round" fill-rule="evenodd" x="21" y="40" stroke-linecap="round" stroke-dasharray="none" fill-opacity="1" stroke-dashoffset="0" height="3" id="rect4210" stroke-miterlimit="4" opacity="0.1" stroke-opacity="1" fill="#fff"/><path stroke-linecap="round" fill-opacity="1" stroke-miterlimit="4" stroke-dasharray="none" id="path4178" opacity="0.8" d="m 13.767578,3.5390625 c -2.906102,0 -5.2285155,2.3197263 -5.2285155,5.2207031 l 0,30.4804684 c 0,2.900978 2.3224135,5.220704 5.2285155,5.220704 l 20.464844,0 c 2.906102,0 5.228515,-2.319726 5.228516,-5.220704 l 0,-30.4804684 c 0,-2.9009768 -2.322414,-5.2207031 -5.228516,-5.2207031 l -20.464844,0 z" stroke-width="1" stroke="#000" stroke-linejoin="round" stroke-dashoffset="0" fill-rule="evenodd" stroke-opacity="1" fill="none"/><path stroke-linecap="round" fill-opacity="1" stroke-miterlimit="4" stroke-dasharray="none" id="path4192" opacity="0.2" d="m 13.767578,4.5410156 c -2.369441,0 -4.2265624,1.8558907 -4.2265624,4.21875 l 0,30.4804684 c 0,2.362861 1.8571214,4.21875 4.2265624,4.21875 l 20.464844,0 c 2.369441,0 4.226562,-1.855889 4.226562,-4.21875 l 0,-30.4804684 c 0,-2.3628593 -1.857121,-4.21875 -4.226562,-4.21875 l -20.464844,0 z" stroke-width="1" stroke="url(#linearGradient4188)" stroke-linejoin="round" stroke-dashoffset="0" fill-rule="evenodd" stroke-opacity="1" fill="none"/><path stroke-linecap="round" fill-opacity="1" stroke-miterlimit="4" stroke-dasharray="none" id="path4208" opacity="0.1" d="m 15,7.4863281 c -1.384125,0 -2.513672,1.129547 -2.513672,2.5136719 l 0,24 c 0,1.384125 1.129547,2.513672 2.513672,2.513672 l 18,0 c 1.384125,0 2.513672,-1.129547 2.513672,-2.513672 l 0,-24 C 35.513672,8.6158751 34.384125,7.4863281 33,7.4863281 l -18,0 z" stroke-width="1" stroke="#fff" transform="matrix(1 0 0 1 0 1.000328)" stroke-linejoin="round" stroke-dashoffset="0" fill-rule="evenodd" stroke-opacity="1" fill="none"/><rect rx="2" ry="2" stroke-width="1" width="22" stroke="none" stroke-linejoin="round" fill-rule="evenodd" x="13" y="8" stroke-linecap="round" stroke-dasharray="none" fill-opacity="1" stroke-dashoffset="0" height="28" id="rect4190" stroke-miterlimit="4" opacity="1" stroke-opacity="1" fill="url(#linearGradient4409)"/><path stroke-linecap="round" fill-opacity="1" stroke-miterlimit="4" stroke-dasharray="none" id="path4204" opacity="1" d="m 15,7.4863281 c -1.384125,0 -2.513672,1.129547 -2.513672,2.5136719 l 0,24 c 0,1.384125 1.129547,2.513672 2.513672,2.513672 l 18,0 c 1.384125,0 2.513672,-1.129547 2.513672,-2.513672 l 0,-24 C 35.513672,8.6158751 34.384125,7.4863281 33,7.4863281 l -18,0 z" stroke-width="1" stroke="#000" stroke-linejoin="round" stroke-dashoffset="0" fill-rule="evenodd" stroke-opacity="1" fill="none"/><rect rx="0.75" ry="0.75" stroke-width="1" width="6" stroke="none" stroke-linejoin="round" fill-rule="evenodd" x="21" y="39" stroke-linecap="round" stroke-dasharray="none" fill-opacity="1" stroke-dashoffset="0" height="3" id="rect4198" stroke-miterlimit="4" opacity="0.9" stroke-opacity="1" fill="#171717"/><rect rx="0.25" ry="0.25" stroke-width="1" width="4" stroke="none" stroke-linejoin="round" fill-rule="evenodd" x="22" y="40" stroke-linecap="round" stroke-dasharray="none" fill-opacity="1" stroke-dashoffset="0" height="1" id="rect4206" stroke-miterlimit="4" opacity="0.5" stroke-opacity="1" fill="#ebebeb"/><path stroke-linecap="round" stroke-miterlimit="4" stroke-dasharray="none" id="path4169" d="M 19.02012,18.995531 22,18" stroke-width="1.99374092" stroke="#fff" stroke-linejoin="round" fill-rule="evenodd" stroke-opacity="1" fill="none"/><path stroke-linecap="round" stroke-miterlimit="4" stroke-dasharray="none" id="path4159" d="M 19.02012,17.995531 22,17" stroke-width="1.99374092" stroke="#000" stroke-linejoin="round" fill-rule="evenodd" stroke-opacity="1" fill="none"/><path stroke-linecap="round" stroke-miterlimit="4" stroke-dasharray="none" id="path4171" d="m 19,24 c 4,4 6,4 10,0" stroke-width="2" stroke="#fff" stroke-linejoin="round" fill-rule="evenodd" stroke-opacity="1" fill="none"/><path stroke-linecap="round" stroke-miterlimit="4" stroke-dasharray="none" id="path4165" d="m 19,23 c 4,4 6,4 10,0" stroke-width="2" stroke="#000" stroke-linejoin="round" fill-rule="evenodd" stroke-opacity="1" fill="none"/><path stroke-linecap="round" stroke-miterlimit="4" stroke-dasharray="none" id="path4173" d="M 29.000222,18.995531 26.020342,18" stroke-width="1.99374092" stroke="#fff" stroke-linejoin="round" fill-rule="evenodd" stroke-opacity="1" fill="none"/><path stroke-linecap="round" stroke-miterlimit="4" stroke-dasharray="none" id="path4167" d="M 29.000222,17.995531 26.020342,17" stroke-width="1.99374092" stroke="#000" stroke-linejoin="round" fill-rule="evenodd" stroke-opacity="1" fill="none"/><rect stroke-linecap="round" fill-opacity="1" height="2" stroke-dasharray="none" stroke-miterlimit="4" id="rect4175" opacity="1" stroke-width="1" stroke="none" width="2" x="18" y="31" stroke-linejoin="round" stroke-dashoffset="0" fill-rule="evenodd" stroke-opacity="1" fill="#171717"/><rect stroke-linecap="round" fill-opacity="1" height="2" stroke-dasharray="none" stroke-miterlimit="4" id="rect4177" opacity="1" stroke-width="1" stroke="none" width="2" x="22" y="31" stroke-linejoin="round" stroke-dashoffset="0" fill-rule="evenodd" stroke-opacity="1" fill="#171717"/><rect stroke-linecap="round" fill-opacity="1" height="2" stroke-dasharray="none" stroke-miterlimit="4" id="rect4179" opacity="1" stroke-width="1" stroke="none" width="1" x="29" y="31" stroke-linejoin="round" stroke-dashoffset="0" fill-rule="evenodd" stroke-opacity="1" fill="#171717"/><rect stroke-linecap="round" fill-opacity="1" height="1" stroke-dasharray="none" stroke-miterlimit="4" id="rect4200" opacity="1" stroke-width="1" stroke="none" width="3" x="18" y="32" stroke-linejoin="round" stroke-dashoffset="0" fill-rule="evenodd" stroke-opacity="1" fill="#171717"/><rect stroke-linecap="round" fill-opacity="1" height="1" stroke-dasharray="none" stroke-miterlimit="4" id="rect4202" opacity="1" stroke-width="1" stroke="none" width="3" x="23" y="32" stroke-linejoin="round" stroke-dashoffset="0" fill-rule="evenodd" stroke-opacity="1" fill="#171717"/><rect stroke-linecap="round" fill-opacity="1" height="1" stroke-dasharray="none" stroke-miterlimit="4" id="rect4204" opacity="1" stroke-width="1" stroke="none" width="2" x="27" y="32" stroke-linejoin="round" stroke-dashoffset="0" fill-rule="evenodd" stroke-opacity="1" fill="#171717"/></svg>