<?xml version="1.0" encoding="UTF-8" standalone="no"?>
<svg xmlns:dc="http://purl.org/dc/elements/1.1/" xmlns:cc="http://creativecommons.org/ns#" xmlns:rdf="http://www.w3.org/1999/02/22-rdf-syntax-ns#" xmlns:svg="http://www.w3.org/2000/svg" xmlns="http://www.w3.org/2000/svg" xmlns:xlink="http://www.w3.org/1999/xlink" version="1.1" viewBox="0 0 32 32" id="svg2">
 <defs id="defs4">
  <linearGradient gradientTransform="matrix(0.85714281,0,0,0.85714289,-4.5714268,-6.5714294)" gradientUnits="userSpaceOnUse" x2="0" y2="24" y1="10" xlink:href="#5" id="2"/>
  <linearGradient id="5">
   <stop id="stop15" stop-color="#c9c9c9"/>
   <stop id="stop17" stop-color="#ebebeb" offset="1"/>
  </linearGradient>
  <linearGradient y2="24" x2="0" y1="10" gradientTransform="matrix(0.85714281,0,0,0.85714289,-12.571427,9.42857)" gradientUnits="userSpaceOnUse" id="linearGradient3465" xlink:href="#5"/>
  <linearGradient y2="24" x2="0" y1="10" gradientTransform="matrix(0.85714281,0,0,0.85714289,3.4285733,9.4285706)" gradientUnits="userSpaceOnUse" id="linearGradient3486" xlink:href="#5"/>
 </defs>
 <path id="path3490" d="M 10,3 10,15 22,15 22,3 10,3 Z M 2,19 2,31 14,31 14,19 2,19 Z m 16,0 0,12 12,0 0,-12 -12,0 z" opacity="0.1"/>
 <path id="path25" d="m 10,2 12,0 0,12 -12,0 z" fill="url(#2)"/>
 <g transform="translate(3e-7,-2)" id="g3444" opacity="0.7" fill="#171717">
  <g id="g3438">
   <path d="m 12,6 2,0 0,6 -2,0 z" id="rect3430" fill-rule="evenodd"/>
   <path d="m 18,6 2,0 0,6 -2,0 z" id="rect3432" fill-rule="evenodd"/>
   <path d="m 15,9 2,0 0,3 -2,0 z" id="rect3434" fill-rule="evenodd"/>
   <path d="m 12,12 8,0 0,2 -8,0 z" id="rect3436" fill-rule="evenodd"/>
  </g>
 </g>
 <path d="m 2,18 12,0 0,12 -12,0 z" id="path3451" fill="url(#linearGradient3465)"/>
 <g id="g3453" transform="matrix(-1,0,0,-1,24,34)" opacity="0.7" fill="#171717">
  <g id="g3455">
   <path d="m 12,6 2,0 0,6 -2,0 z" id="rect3457" fill-rule="evenodd"/>
   <path d="m 18,6 2,0 0,6 -2,0 z" id="rect3459" fill-rule="evenodd"/>
   <path transform="matrix(0,1,-1,0,0,0)" d="m 8,-18 2,0 0,4 -2,0 z" id="rect3461" fill-rule="evenodd"/>
   <path d="m 12,12 8,0 0,2 -8,0 z" id="rect3463" fill-rule="evenodd"/>
  </g>
 </g>
 <path id="path3472" d="m 18,18 12,0 0,12 -12,0 z" fill="url(#linearGradient3486)"/>
 <g transform="matrix(-1,0,0,-1,46,21)" id="g3474" opacity="0.7" fill="#171717">
  <g id="g3476">
   <path d="m 18,-7 2,0 0,4 -2,0 z" id="rect3478" fill-rule="evenodd"/>
   <path d="m 24,-3 2,0 0,2 -2,0 z" id="rect3480" fill-rule="evenodd"/>
   <path transform="matrix(0,1,-1,0,0,0)" d="m -4,-24 2,0 0,4 -2,0 z" id="rect3482" fill-rule="evenodd"/>
   <path d="m 18,-1 8,0 0,2 -8,0 z" id="rect3484" fill-rule="evenodd"/>
   <path d="m 18,-7 8,0 0,2 -8,0 z" id="rect3488" fill-rule="evenodd"/>
  </g>
 </g>
 <path d="m 10.521484,2.5214844 0,10.9570316 10.957032,0 0,-10.9570316 -10.957032,0 z m -7.9999996,15.9999996 0,10.957032 10.9570316,0 0,-10.957032 -10.9570316,0 z m 15.9999996,0 0,10.957032 10.957032,0 0,-10.957032 -10.957032,0 z" id="path3501" opacity="0.4" fill="none" stroke="#000"/>
 <rect y="19" x="3" height="1" width="10" id="rect3503" opacity="0.4" fill="#fff" fill-rule="evenodd"/>
 <rect id="rect3505" width="10" height="1" x="19" y="19" opacity="0.4" fill="#fff" fill-rule="evenodd"/>
 <rect y="3" x="11" height="1" width="10" id="rect3507" opacity="0.4" fill="#fff" fill-rule="evenodd"/>
 <metadata id="metadata9999">
  <rdf:RDF>
   <cc:Work>
    <dc:format>image/svg+xml</dc:format>
    <dc:type rdf:resource="http://purl.org/dc/dcmitype/StillImage"/>
    <dc:title>Ivy icon theme</dc:title>
    <cc:license rdf:resource="http://creativecommons.org/licenses/by-sa/4.0/"/>
    <dc:creator>
     <cc:Agent>
      <dc:title>Sixsixfive (sixsixfive.deviantart.com)</dc:title>
     </cc:Agent>
    </dc:creator>
    <dc:publisher>
     <cc:Agent>
      <dc:title>Sixsixfive (sixsixfive.deviantart.com)</dc:title>
     </cc:Agent>
    </dc:publisher>
    <dc:source>https://github.com/sixsixfive</dc:source>
    <dc:subject>
     <rdf:Bag>
      <rdf:li>ivy</rdf:li>
     </rdf:Bag>
    </dc:subject>
    <dc:contributor>
     <cc:Agent>
      <dc:title>ssf</dc:title>
     </cc:Agent>
    </dc:contributor>
    <dc:rights>
     <cc:Agent>
      <dc:title>Sixsixfive (sixisixfive.deviantart.com)</dc:title>
     </cc:Agent>
    </dc:rights>
    <dc:description>A simple icon theme published under CC-BY-SA_V4(http://creativecommons.org/licenses/by-sa/4.0)</dc:description>
    <dc:identifier>SSF</dc:identifier>
   </cc:Work>
  </rdf:RDF>
 </metadata>
 <!--Part of the Ivy icon them published under the CC-BY-SA_V4: http://creativecommons.org/licenses/by-sa/4.0 -->
</svg>
