<?xml version="1.0" encoding="UTF-8" standalone="no"?>
<svg xmlns:dc="http://purl.org/dc/elements/1.1/" xmlns:cc="http://creativecommons.org/ns#" xmlns:rdf="http://www.w3.org/1999/02/22-rdf-syntax-ns#" xmlns:svg="http://www.w3.org/2000/svg" xmlns="http://www.w3.org/2000/svg" xmlns:xlink="http://www.w3.org/1999/xlink" version="1.1" viewBox="0 0 32 32" id="svg2">
 <defs id="defs4">
  <linearGradient id="linearGradient4305">
   <stop id="stop4307" stop-color="#fff"/>
   <stop id="stop4309" offset="1"/>
  </linearGradient>
  <linearGradient gradientTransform="matrix(0.7272727,0,0,0.75000002,-1.4545454,-1.500001)" gradientUnits="userSpaceOnUse" x2="0" y2="34" y1="14" id="1">
   <stop id="stop7" stop-color="#ebebeb"/>
   <stop id="stop9" stop-color="#eee" offset="1"/>
  </linearGradient>
  <linearGradient y2="5" x2="0" y1="10" gradientUnits="userSpaceOnUse" id="linearGradient4339" xlink:href="#linearGradient4305"/>
  <mask id="mask4335" maskUnits="userSpaceOnUse">
   <rect rx="0.634151" y="-0.477675" x="10.522326" height="14.455349" width="8.455349" id="rect4337" fill="url(#linearGradient4339)" fill-rule="evenodd" stroke-width="1.044651" ry="0.634151"/>
  </mask>
 </defs>
 <g mask="url(#mask4335)" id="g3491">
  <path id="path3489" d="m 12.027344,-0.0546875 a 0.96370218,0.96370218 0 0 0 -0.855469,1.4628906 c 1.280348,2.1139829 2.484278,4.4907943 2.884766,6.3378907 0.200243,0.9235481 0.190803,1.690025 0.0059,2.2109374 -0.184944,0.5209128 -0.482577,0.8667948 -1.222656,1.1386718 a 0.96370218,0.96370218 0 0 0 0.332031,1.867188 l 3.828125,0 a 0.96370218,0.96370218 0 0 0 0.935547,-0.728516 c 0.60536,-2.4216039 -0.252934,-5.2303242 -0.746135,-7.4355469 -0.2466,-1.1026113 -0.399325,-2.0660782 -0.359375,-2.5292969 0.01997,-0.2316093 0.07751,-0.2886963 0.04883,-0.2578124 -0.02868,0.030884 -0.100623,0.017062 0.08789,0.021484 a 0.96370218,0.96370218 0 0 0 0.05469,-1.92578122 l -4.99414,-0.16210938 z"/>
  <path id="path25" d="M 13.171417,12 C 17,10.593523 14.606103,5.2158108 11.996714,0.90744765 L 16.990433,1.0701538 C 14,1 18,8 17,12 Z" fill="#6a6a6a"/>
 </g>
 <rect width="32" y="10" rx="0.727273" height="15" id="rect3420" opacity="0.1" ry="0.727273"/>
 <rect id="rect27" height="15" rx="0.727273" y="9" width="32" fill="url(#1)" ry="0.727273"/>
 <rect id="rect29" height="11" rx="0.7" y="12" x="2" width="28" opacity="0.839" fill="#fff" ry="0.7"/>
 <rect id="rect31" height="11" rx="0.7" y="11" x="2" width="28" opacity="0.839" fill="#171717" ry="0.7"/>
 <path d="m 26,19 a 2,2 0 0 1 -4,0 2,2 0 1 1 4,0 z" id="path4343"/>
 <path transform="translate(0,0.999547)" id="path4341" d="m 6.4003906,13.060547 c -0.7273316,0 -1.3398437,0.612513 -1.3398437,1.339844 l 0,0.660156 -0.6601563,0 c -0.7273316,0 -1.3398437,0.612513 -1.3398437,1.339844 l 0,0.199218 c 0,0.727331 0.6125121,1.339844 1.3398437,1.339844 l 0.6601563,0 0,0.660156 c 0,0.727331 0.6125121,1.339844 1.3398437,1.339844 l 0.1992188,0 c 0.7273316,0 1.3398437,-0.612513 1.3398437,-1.339844 l 0,-0.660156 0.6601563,0 c 0.7273316,0 1.3398437,-0.612513 1.3398437,-1.339844 l 0,-0.199218 c 0,-0.727331 -0.6125121,-1.339844 -1.3398437,-1.339844 l -0.6601563,0 0,-0.660156 c 0,-0.727331 -0.6125121,-1.339844 -1.3398437,-1.339844 l -0.1992188,0 z m 6.1992184,4 c -0.752921,0 -1.539062,0.557787 -1.539062,1.439453 0,0.881666 0.786141,1.439453 1.539062,1.439453 l 1.800782,0 c 0.752921,0 1.539062,-0.557787 1.539062,-1.439453 0,-0.881666 -0.786141,-1.439453 -1.539062,-1.439453 l -1.800782,0 z m 5,0 c -0.752921,0 -1.539062,0.557787 -1.539062,1.439453 0,0.881666 0.786141,1.439453 1.539062,1.439453 l 1.800782,0 c 0.752921,0 1.539062,-0.557787 1.539062,-1.439453 0,-0.881666 -0.786141,-1.439453 -1.539062,-1.439453 l -1.800782,0 z"/>
 <path d="m 6.4003906,13.060547 c -0.7273316,0 -1.3398437,0.612513 -1.3398437,1.339844 l 0,0.660156 -0.6601563,0 c -0.7273316,0 -1.3398437,0.612513 -1.3398437,1.339844 l 0,0.199218 c 0,0.727331 0.6125121,1.339844 1.3398437,1.339844 l 0.6601563,0 0,0.660156 c 0,0.727331 0.6125121,1.339844 1.3398437,1.339844 l 0.1992188,0 c 0.7273316,0 1.3398437,-0.612513 1.3398437,-1.339844 l 0,-0.660156 0.6601563,0 c 0.7273316,0 1.3398437,-0.612513 1.3398437,-1.339844 l 0,-0.199218 c 0,-0.727331 -0.6125121,-1.339844 -1.3398437,-1.339844 l -0.6601563,0 0,-0.660156 c 0,-0.727331 -0.6125121,-1.339844 -1.3398437,-1.339844 l -0.1992188,0 z m 6.1992184,4 c -0.752921,0 -1.539062,0.557787 -1.539062,1.439453 0,0.881666 0.786141,1.439453 1.539062,1.439453 l 1.800782,0 c 0.752921,0 1.539062,-0.557787 1.539062,-1.439453 0,-0.881666 -0.786141,-1.439453 -1.539062,-1.439453 l -1.800782,0 z m 5,0 c -0.752921,0 -1.539062,0.557787 -1.539062,1.439453 0,0.881666 0.786141,1.439453 1.539062,1.439453 l 1.800782,0 c 0.752921,0 1.539062,-0.557787 1.539062,-1.439453 0,-0.881666 -0.786141,-1.439453 -1.539062,-1.439453 l -1.800782,0 z" id="path3481" fill="#fff"/>
 <rect width="1" x="16" y="-9" rx="0.4" height="5" transform="matrix(0,1,-1,0,0,0)" id="rect39" fill="#171717" ry="0.4"/>
 <rect width="1" x="-7" y="-19" rx="0.4" height="5" transform="scale(-1,-1)" id="rect41" fill="#171717" ry="0.4"/>
 <rect id="rect45" height="1" rx="0.6" y="18" x="12" width="3" fill="#171717" ry="0.5"/>
 <rect id="rect49" height="1" rx="0.6" y="18" x="17" width="3" fill="#171717" ry="0.5"/>
 <rect width="8" x="12" y="15" height="1" id="rect53" opacity="0.4" fill="#fff"/>
 <rect width="8" x="12" y="13" height="1" id="rect55" opacity="0.4" fill="#fff"/>
 <rect width="8" x="12" y="11" height="1" id="rect57" opacity="0.4" fill="#fff"/>
 <path id="path75" d="m 1,10 30,0 0,1 -30,0 z" opacity="0.8" fill="#fff"/>
 <path id="path3485" d="m 26,18 a 2,2 0 0 1 -4,0 2,2 0 1 1 4,0 z" fill="#fff"/>
 <path id="path4345" d="m 30,19 a 2,2 0 0 1 -4,0 2,2 0 1 1 4,0 z"/>
 <path d="m 25,18 a 1,1 0 0 1 -2,0 1,1 0 1 1 2,0 z" id="0" fill="#d02604"/>
 <path id="path80" d="m 12,21 8,0 0,1 -8,0 z" opacity="0.4" fill="#fff"/>
 <path d="m 0.7265625,9.4902344 c -0.14039558,0 -0.23632813,0.095932 -0.23632812,0.2363281 l 0,13.5468755 c 0,0.140395 0.0959322,0.236328 0.23632812,0.236328 l 30.5468755,0 c 0.140395,0 0.236328,-0.09593 0.236328,-0.236328 l 0,-13.5468755 c 0,-0.1403959 -0.09593,-0.2363281 -0.236328,-0.2363281 l -30.5468755,0 z" id="path3418" opacity="0.6" fill="none" stroke="#000"/>
 <rect y="12" x="22" height="1" width="1" id="rect3427" fill="#d02604" fill-rule="evenodd"/>
 <rect id="rect3429" width="2" height="1" x="24" y="12" fill="#d02604" fill-rule="evenodd"/>
 <rect y="12" x="27" height="1" width="2" id="rect3431" fill="#d02604" fill-rule="evenodd"/>
 <path d="m 30,18 a 2,2 0 0 1 -4,0 2,2 0 1 1 4,0 z" id="path3483" fill="#fff"/>
 <path id="path3455" d="m 29,18 a 1,1 0 0 1 -2,0 1,1 0 1 1 2,0 z" fill="#d02604"/>
 <metadata id="metadata9999">
  <rdf:RDF>
   <cc:Work>
    <dc:format>image/svg+xml</dc:format>
    <dc:type rdf:resource="http://purl.org/dc/dcmitype/StillImage"/>
    <dc:title>Ivy icon theme</dc:title>
    <cc:license rdf:resource="http://creativecommons.org/licenses/by-sa/4.0/"/>
    <dc:creator>
     <cc:Agent>
      <dc:title>Sixsixfive (sixsixfive.deviantart.com)</dc:title>
     </cc:Agent>
    </dc:creator>
    <dc:publisher>
     <cc:Agent>
      <dc:title>Sixsixfive (sixsixfive.deviantart.com)</dc:title>
     </cc:Agent>
    </dc:publisher>
    <dc:source>https://github.com/sixsixfive</dc:source>
    <dc:subject>
     <rdf:Bag>
      <rdf:li>ivy</rdf:li>
     </rdf:Bag>
    </dc:subject>
    <dc:contributor>
     <cc:Agent>
      <dc:title>ssf</dc:title>
     </cc:Agent>
    </dc:contributor>
    <dc:rights>
     <cc:Agent>
      <dc:title>Sixsixfive (sixisixfive.deviantart.com)</dc:title>
     </cc:Agent>
    </dc:rights>
    <dc:description>A simple icon theme published under CC-BY-SA_V4(http://creativecommons.org/licenses/by-sa/4.0)</dc:description>
    <dc:identifier>SSF</dc:identifier>
   </cc:Work>
  </rdf:RDF>
 </metadata>
 <!--Part of the Ivy icon them published under the CC-BY-SA_V4: http://creativecommons.org/licenses/by-sa/4.0 -->
</svg>
