<?xml version="1.0" encoding="UTF-8" standalone="no"?>
<svg xmlns:dc="http://purl.org/dc/elements/1.1/" xmlns:cc="http://creativecommons.org/ns#" xmlns:rdf="http://www.w3.org/1999/02/22-rdf-syntax-ns#" xmlns:svg="http://www.w3.org/2000/svg" xmlns="http://www.w3.org/2000/svg" xmlns:xlink="http://www.w3.org/1999/xlink" viewBox="0 0 48 48" id="svg2" version="1.1">
 <defs id="defs4">
  <linearGradient id="0" xlink:href="#5" x1="1008.41" x2="1022.34" gradientUnits="userSpaceOnUse"/>
  <linearGradient id="1" xlink:href="#4" y1="-17" y2="-11" x2="0" gradientUnits="userSpaceOnUse"/>
  <linearGradient id="2" xlink:href="#4" y1="-35.03" y2="-29.03" x2="0" gradientUnits="userSpaceOnUse"/>
  <linearGradient id="3" xlink:href="#5" y1="13" x1="41" y2="42" x2="40" gradientUnits="userSpaceOnUse"/>
  <linearGradient id="4">
   <stop stop-color="#ebebeb" id="stop11"/>
   <stop offset="1" stop-color="#cbcbcb" id="stop13"/>
  </linearGradient>
  <linearGradient id="5">
   <stop stop-color="#fff" id="stop16"/>
   <stop offset="1" stop-color="#fff" stop-opacity="0" id="stop18"/>
  </linearGradient>
  <linearGradient id="6" y1="1026.36" y2="1040.36" x2="0" gradientUnits="userSpaceOnUse">
   <stop stop-color="#343434" id="stop21"/>
   <stop offset="1" stop-color="#6a6a6a" id="stop23"/>
  </linearGradient>
 </defs>
 <g transform="translate(0,-1004.36)" id="g25">
  <path d="m 5,1018.3622 0,9 6,14 0,7 24,0 0,-7 6,-14 0,-9 -36,0 z" id="path27" opacity="0.2"/>
  <path d="m 1006.32,-35.03 16,0 0,6 -16,0 z" transform="matrix(0,1,-1,0,0,0)" id="path29" fill="url(#2)"/>
  <path id="7" d="m 1008.9062,-14.4688 0,2.9375 12.9376,0 0,-2.9375 -12.9376,0 z" transform="matrix(0,1,-1,0,19.03,-1.044)" opacity="0.7" fill="none" stroke="url(#0)"/>
  <path id="8" d="m 1007.8438,-15.5312 0,5.0625 15.0624,0 0,-5.0625 -15.0624,0 z" transform="matrix(0,1,-1,0,19.03,-1.044)" opacity="0.4" fill="none" stroke="#000"/>
  <path d="m 1006.36,-17 16,0 0,6 -16,0 z" transform="matrix(0,1,-1,0,0,0)" id="path33" fill="url(#1)"/>
  <g transform="translate(-18.03,0.044)" id="g35">
   <use xlink:href="#7" id="use37" x="0" y="0" width="48" height="48"/>
   <use xlink:href="#8" id="use39" x="0" y="0" width="48" height="48"/>
  </g>
  <path d="m 5,1017.3622 0,9 6,14 24,0 6,-14 0,-9 z" id="path41" fill="url(#6)"/>
  <path d="m 6,1026.36 34,0 0,1 -34,0 z" id="path43" opacity="0.2" fill="#fff"/>
  <path d="m 11,1040.36 24,0 0,7 -24,0 z" id="path45" fill="#6a6a6a"/>
  <path d="m 5.5625,13.5625 0,8.3125 5.9375,13.9062 a 0.549519,0.549519 0 0 1 0.0625,0.21875 l 0,6.4375 22.875,0 0,-6.4375 A 0.549519,0.549519 0 0 1 34.5,35.7812 l 5.9375,-13.9062 0,-8.3125 -34.875,0 z" transform="translate(0,1004.36)" id="path47" opacity="0.521" fill="none" stroke="#000"/>
  <path d="m 5,1025.36 36,0 0,1 -36,0 z" id="path49" opacity="0.5"/>
  <path d="m 11,1040.36 23,0 0,1 -23,0 z" id="path51" opacity="0.5"/>
  <path d="m 6.4688,14.4688 0,7.2188 5.875,13.7188 a 0.917459,0.917459 0 0 1 0.0625,0.59375 l 0.0625,0 0,5.53125 21.0625,0 0,-5.53125 0.09375,0 A 0.917459,0.917459 0 0 1 33.6563,35.4064 l 5.875,-13.7188 0,-7.21875 -33.0625,0 z" transform="translate(0,1004.36)" id="path53" opacity="0.2" fill="none" stroke="url(#3)"/>
 </g>
 <metadata id="metadata9999">
  <rdf:RDF>
   <cc:Work>
    <dc:format>image/svg+xml</dc:format>
    <dc:type rdf:resource="http://purl.org/dc/dcmitype/StillImage"/>
    <dc:title>Ivy icon theme</dc:title>
    <cc:license rdf:resource="http://creativecommons.org/licenses/by-sa/4.0/"/>
    <dc:creator>
     <cc:Agent>
      <dc:title>Sixsixfive (sixsixfive.deviantart.com)</dc:title>
     </cc:Agent>
    </dc:creator>
    <dc:publisher>
     <cc:Agent>
      <dc:title>Sixsixfive (sixsixfive.deviantart.com)</dc:title>
     </cc:Agent>
    </dc:publisher>
    <dc:source>https://github.com/sixsixfive</dc:source>
    <dc:subject>
     <rdf:Bag>
      <rdf:li>ivy</rdf:li>
     </rdf:Bag>
    </dc:subject>
    <dc:contributor>
     <cc:Agent>
      <dc:title>ssf</dc:title>
     </cc:Agent>
    </dc:contributor>
    <dc:rights>
     <cc:Agent>
      <dc:title>Sixsixfive (sixisixfive.deviantart.com)</dc:title>
     </cc:Agent>
    </dc:rights>
    <dc:description>A simple icon theme published under CC-BY-SA_V4(http://creativecommons.org/licenses/by-sa/4.0)</dc:description>
    <dc:identifier>SSF</dc:identifier>
   </cc:Work>
  </rdf:RDF>
 </metadata>
 <!--Part of the Ivy icon them published under the CC-BY-SA_V4: http://creativecommons.org/licenses/by-sa/4.0 -->
</svg>
