<?xml version="1.0" encoding="UTF-8" standalone="no"?><svg viewBox="0 0 48 48" xmlns:svg="http://www.w3.org/2000/svg" xmlns="http://www.w3.org/2000/svg" xmlns:rdf="http://www.w3.org/1999/02/22-rdf-syntax-ns#" xmlns:xlink="http://www.w3.org/1999/xlink" version="1.1" id="svg2" xmlns:dc="http://purl.org/dc/elements/1.1/" xmlns:cc="http://creativecommons.org/ns#"><defs id="0"><linearGradient id="linearGradient5685"><stop stop-opacity="1" id="stop5687" stop-color="#fff"/><stop stop-opacity="0" offset="1" id="stop5689" stop-color="#fff"/></linearGradient><linearGradient x1="30" xlink:href="#linearGradient5685" y1="4" x2="30" y2="28" id="linearGradient5691" gradientUnits="userSpaceOnUse"/><linearGradient x1="30" xlink:href="#linearGradient5685" y1="4" x2="30" y2="28" id="linearGradient5712" gradientUnits="userSpaceOnUse"/></defs><path opacity="0.3" id="path5710" d="m 45.978516,19.021501 0,20.999999 -2.980469,0 0,4.980469 -5.691406,-4.980469 -21.328125,0 0,-20.999999 30,0 z" fill="#000"/><path fill-opacity="1" id="path5700" d="m 45.978516,18.021485 0,20.999999 -2.980469,0 0,4.980469 -5.691406,-4.980469 -21.328125,0 0,-20.999999 30,0 z" fill="#ebebeb"/><path stroke-linejoin="round" stroke="none" stroke-opacity="1" opacity="1" fill-opacity="1" id="rect5716" fill-rule="evenodd" d="M 36 18.021484 L 36 39.021484 L 37.306641 39.021484 L 42.998047 44.001953 L 42.998047 39.021484 L 45.978516 39.021484 L 45.978516 18.021484 L 36 18.021484 z " fill="#d02604"/><path stroke="url(#linearGradient5712)" opacity="0.3" transform="matrix(-1 0 0 1 46.998047 14.001953)" id="path5702" d="m 2.4980469,5.4980469 0,18.0429691 1.5019531,0 a 1.4782085,1.4782085 0 0 1 1.4785156,1.478515 l 0,1.722657 L 8.71875,23.90625 a 1.4782085,1.4782085 0 0 1 0.9726562,-0.365234 l 19.8496098,0 0,-18.0429691 -27.0429691,0 z" fill="none"/><rect stroke-linejoin="round" stroke="none" stroke-opacity="1" y="18.021484" x="16" opacity="1" fill-opacity="1" height="20.978516" id="rect5714" width="10" fill-rule="evenodd" fill="#66b03e"/><path opacity="0.3" id="path5696" d="m 3.0332031,3.0332191 0,20.9999999 2.9804688,0 0,4.980469 5.6914061,-4.980469 21.328125,0 0,-20.9999999 -29.9999999,0 z" fill="#000"/><path stroke="#000" opacity="0.6" transform="matrix(-1 0 0 1 46.998047 14.001953)" id="path5708" d="m 1.4863281,4.4863281 0,20.0664059 2.5136719,0 a 0.46678377,0.46678377 0 0 1 0.4667969,0.466797 l 0,3.951172 4.9179687,-4.302734 a 0.46678377,0.46678377 0 0 1 0.3066406,-0.115235 l 20.8613278,0 0,-20.0664059 -29.0664059,0 z" fill="none"/><path id="9" d="m 3.0332031,2.0332031 0,20.9999999 2.9804688,0 0,4.980469 5.6914061,-4.980469 21.328125,0 0,-20.9999999 -29.9999999,0 z" fill="#5288d1"/><path stroke="url(#linearGradient5691)" opacity="0.3" transform="matrix(1 0 0 1 2.0136719 -1.9863281)" id="path4883" d="m 2.4980469,5.4980469 0,18.0429691 1.5019531,0 a 1.4782085,1.4782085 0 0 1 1.4785156,1.478515 l 0,1.722657 L 8.71875,23.90625 a 1.4782085,1.4782085 0 0 1 0.9726562,-0.365234 l 19.8496098,0 0,-18.0429691 -27.0429691,0 z" fill="none"/><path id="path4167" d="m 10.033203,2.0332029 0,22.4628911 1.671875,-1.462891 3.328125,0 0,-21.0000001 -5,0 z" fill="#ffd506"/><path fill-opacity="1" id="A" d="m 3.0332025,10.033203 30.0000005,0 0,5 -30.0000005,0 z" fill="#ffd506"/><path stroke="#000" opacity="0.5" transform="matrix(1 0 0 1 2.0136719 -1.9863281)" id="path4881" d="m 1.4863281,4.4863281 0,20.0664059 2.5136719,0 a 0.46678377,0.46678377 0 0 1 0.4667969,0.466797 l 0,3.951172 4.9179687,-4.302734 a 0.46678377,0.46678377 0 0 1 0.3066406,-0.115235 l 20.8613278,0 0,-20.0664059 -29.0664059,0 z" fill="none"/><metadata id="metadata9999"><rdf:RDF><cc:Work><dc:format>image/svg+xml</dc:format><dc:type rdf:resource="http://purl.org/dc/dcmitype/StillImage"/><dc:title/><cc:license rdf:resource="http://creativecommons.org/licenses/by-sa/4.0/"/><dc:creator><cc:Agent><dc:title>Sixsixfive (sixsixfive.deviantart.com)</dc:title></cc:Agent></dc:creator><dc:publisher><cc:Agent><dc:title>Sixsixfive (sixsixfive.deviantart.com)</dc:title></cc:Agent></dc:publisher><dc:source>https://github.com/sixsixfive</dc:source><dc:subject><rdf:Bag><rdf:li>ivy</rdf:li></rdf:Bag></dc:subject><dc:contributor><cc:Agent><dc:title>ssf</dc:title></cc:Agent></dc:contributor><dc:rights><cc:Agent><dc:title>Sixsixfive (sixisixfive.deviantart.com)</dc:title></cc:Agent></dc:rights><dc:description>A simple icon theme published under CC-BY-SA_V4(http://creativecommons.org/licenses/by-sa/4.0)</dc:description><dc:identifier>SSF</dc:identifier></cc:Work></rdf:RDF></metadata><!--Part of the Ivy icon them published under the CC-BY-SA_V4: http://creativecommons.org/licenses/by-sa/4.0 -->
</svg>