<?xml version="1.0" encoding="UTF-8" standalone="no"?>
<svg xmlns:dc="http://purl.org/dc/elements/1.1/" xmlns:cc="http://creativecommons.org/ns#" xmlns:rdf="http://www.w3.org/1999/02/22-rdf-syntax-ns#" xmlns:svg="http://www.w3.org/2000/svg" xmlns="http://www.w3.org/2000/svg" xmlns:xlink="http://www.w3.org/1999/xlink" version="1.1" viewBox="0 0 32 32" id="svg2">
 <defs id="defs4">
  <linearGradient gradientUnits="userSpaceOnUse" x2="-0.035" y2="43.842" x1="21.19" y1="22.609" id="0">
   <stop id="stop7" stop-color="#ffb636"/>
   <stop id="stop9" stop-color="#ffe775" offset="1"/>
  </linearGradient>
  <linearGradient gradientUnits="userSpaceOnUse" x2="-9.924" y2="32.534" x1="9.89" y1="12.721" id="1">
   <stop id="stop12" stop-color="#fff"/>
   <stop id="stop14" stop-opacity="0" stop-color="#fff" offset="1"/>
  </linearGradient>
  <linearGradient gradientTransform="matrix(0.66666667,0,0,0.64705885,-0.33333316,0.64705854)" xlink:href="#linearGradient4174" id="linearGradient4180" x1="30.95437" y1="15.961003" x2="30.983452" y2="33.039" gradientUnits="userSpaceOnUse"/>
  <linearGradient id="linearGradient4174">
   <stop stop-color="#171717" id="stop4176"/>
   <stop stop-color="#6a6a6a" offset="1" id="stop4178"/>
  </linearGradient>
 </defs>
 <g id="g16" transform="matrix(0.70763,-0.70658,0.70763,0.70658,0,0)">
  <path d="m -10.466,12.338 19.4520002,0 c 0.69527,0 1.2549998,0.55973 1.2549998,1.255 l 0,19.452 c 0,0.69527 -0.5597298,1.255 -1.2549998,1.255 L -10.466,34.3 c -0.69527,0 -1.255,-0.55973 -1.255,-1.255 l 0,-19.452 c 0,-0.69527 0.55973,-1.255 1.255,-1.255 z" id="rect18" opacity="0.1"/>
  <path d="m -9.7550002,11.631 19.4519999,0 c 0.6952703,0 1.2550003,0.55973 1.2550003,1.255 l 0,19.451999 c 0,0.69527 -0.55973,1.255 -1.2550003,1.255 l -19.4519999,0 c -0.6952698,0 -1.2549998,-0.55973 -1.2549998,-1.255 l 0,-19.451999 c 0,-0.69527 0.55973,-1.255 1.2549998,-1.255 z" id="rect20" fill="url(#0)"/>
 </g>
 <path id="path3382" d="m 14,12 7,0 0,7 -3,-3 c -2.631624,-0.01348 -5,2 -6,7 -3,-5 1.377459,-8.999234 4,-9 z" opacity="0.5" fill="#fff" fill-rule="evenodd"/>
 <g id="g30" transform="matrix(0.70763,-0.70658,0.70763,0.70658,0,0)" fill="none">
  <path id="path32" d="m -9.75,12.09375 c -0.449456,0 -0.78125,0.331794 -0.78125,0.78125 l 0,19.46875 c 0,0.449456 0.331794,0.78125 0.78125,0.78125 l 19.4375,0 c 0.449456,0 0.78125,-0.331794 0.78125,-0.78125 l 0,-19.46875 c 0,-0.449456 -0.331794,-0.78125 -0.78125,-0.78125 l -19.4375,0 z" opacity="0.4" stroke="#000"/>
  <path id="path34" d="m -9.5625,13.0625 0,19.09375 19.0625,0 0,-19.09375 -19.0625,0 z" opacity="0.4" stroke="url(#1)"/>
 </g>
 <path d="m 14,11 7,0 0,7 -3,-3 c -2.631624,-0.01348 -5,2 -6,7 -3,-5 1.377459,-8.999234 4,-9 z" id="path3370" fill="url(#linearGradient4180)" fill-rule="evenodd"/>
 <metadata id="metadata9999">
  <rdf:RDF>
   <cc:Work>
    <dc:format>image/svg+xml</dc:format>
    <dc:type rdf:resource="http://purl.org/dc/dcmitype/StillImage"/>
    <dc:title>Ivy icon theme</dc:title>
    <cc:license rdf:resource="http://creativecommons.org/licenses/by-sa/4.0/"/>
    <dc:creator>
     <cc:Agent>
      <dc:title>Sixsixfive (sixsixfive.deviantart.com)</dc:title>
     </cc:Agent>
    </dc:creator>
    <dc:publisher>
     <cc:Agent>
      <dc:title>Sixsixfive (sixsixfive.deviantart.com)</dc:title>
     </cc:Agent>
    </dc:publisher>
    <dc:source>https://github.com/sixsixfive</dc:source>
    <dc:subject>
     <rdf:Bag>
      <rdf:li>ivy</rdf:li>
     </rdf:Bag>
    </dc:subject>
    <dc:contributor>
     <cc:Agent>
      <dc:title>ssf</dc:title>
     </cc:Agent>
    </dc:contributor>
    <dc:rights>
     <cc:Agent>
      <dc:title>Sixsixfive (sixisixfive.deviantart.com)</dc:title>
     </cc:Agent>
    </dc:rights>
    <dc:description>A simple icon theme published under CC-BY-SA_V4(http://creativecommons.org/licenses/by-sa/4.0)</dc:description>
    <dc:identifier>SSF</dc:identifier>
   </cc:Work>
  </rdf:RDF>
 </metadata>
 <!--Part of the Ivy icon them published under the CC-BY-SA_V4: http://creativecommons.org/licenses/by-sa/4.0 -->
</svg>
