<?xml version="1.0" encoding="UTF-8" standalone="no"?><svg xmlns:xlink="http://www.w3.org/1999/xlink" xmlns:cc="http://creativecommons.org/ns#" viewBox="0 0 32 32" version="1.1" id="svg2" xmlns:svg="http://www.w3.org/2000/svg" xmlns:rdf="http://www.w3.org/1999/02/22-rdf-syntax-ns#" xmlns="http://www.w3.org/2000/svg" xmlns:dc="http://purl.org/dc/elements/1.1/"><defs id="defs4"><linearGradient x2="-0.035" gradientUnits="userSpaceOnUse" x1="21.19" y2="43.842" id="0" y1="22.609"><stop stop-color="#ffb636" id="stop7"/><stop offset="1" stop-color="#ffe775" id="stop9"/></linearGradient><linearGradient x2="-9.924" gradientUnits="userSpaceOnUse" x1="9.89" y2="32.534" id="1" y1="12.721"><stop stop-color="#fff" id="stop12"/><stop offset="1" stop-opacity="0" stop-color="#fff" id="stop14"/></linearGradient><linearGradient x2="30.983452" gradientUnits="userSpaceOnUse" x1="30.95437" xlink:href="#linearGradient4174" y2="33.039" id="linearGradient4180" gradientTransform="matrix(0.66666667 0 0 0.64705885 -0.33333316 0.64705854)" y1="15.961003"/><linearGradient id="linearGradient4174"><stop stop-color="#171717" id="stop4176"/><stop offset="1" stop-color="#6a6a6a" id="stop4178"/></linearGradient></defs><g id="g16" transform="matrix(0.70763 -0.70658 0.70763 0.70658 0 0)"><path opacity="0.1" id="rect18" d="m -10.466,12.338 19.4520002,0 c 0.69527,0 1.2549998,0.55973 1.2549998,1.255 l 0,19.452 c 0,0.69527 -0.5597298,1.255 -1.2549998,1.255 L -10.466,34.3 c -0.69527,0 -1.255,-0.55973 -1.255,-1.255 l 0,-19.452 c 0,-0.69527 0.55973,-1.255 1.255,-1.255 z"/><path fill="url(#0)" id="rect20" d="m -9.7550002,11.631 19.4519999,0 c 0.6952703,0 1.2550003,0.55973 1.2550003,1.255 l 0,19.451999 c 0,0.69527 -0.55973,1.255 -1.2550003,1.255 l -19.4519999,0 c -0.6952698,0 -1.2549998,-0.55973 -1.2549998,-1.255 l 0,-19.451999 c 0,-0.69527 0.55973,-1.255 1.2549998,-1.255 z"/></g><path fill-rule="evenodd" opacity="0.5" fill="#fff" id="path3382" d="m 14,12 7,0 0,7 -3,-3 c -2.631624,-0.01348 -5,2 -6,7 -3,-5 1.377459,-8.999234 4,-9 z"/><g fill="none" id="g30" transform="matrix(0.70763 -0.70658 0.70763 0.70658 0 0)"><path opacity="0.4" id="path32" stroke="#000" d="m -9.75,12.09375 c -0.449456,0 -0.78125,0.331794 -0.78125,0.78125 l 0,19.46875 c 0,0.449456 0.331794,0.78125 0.78125,0.78125 l 19.4375,0 c 0.449456,0 0.78125,-0.331794 0.78125,-0.78125 l 0,-19.46875 c 0,-0.449456 -0.331794,-0.78125 -0.78125,-0.78125 l -19.4375,0 z"/><path opacity="0.4" id="path34" stroke="url(#1)" d="m -9.5625,13.0625 0,19.09375 19.0625,0 0,-19.09375 -19.0625,0 z"/></g><path fill-rule="evenodd" fill="url(#linearGradient4180)" id="path3370" d="m 14,11 7,0 0,7 -3,-3 c -2.631624,-0.01348 -5,2 -6,7 -3,-5 1.377459,-8.999234 4,-9 z"/><metadata id="metadata9999"><rdf:RDF><cc:Work><dc:format>image/svg+xml</dc:format><dc:type rdf:resource="http://purl.org/dc/dcmitype/StillImage"/><dc:title>Ivy icon theme</dc:title><cc:license rdf:resource="http://creativecommons.org/licenses/by-sa/4.0/"/><dc:creator><cc:Agent><dc:title>Sixsixfive (sixsixfive.deviantart.com)</dc:title></cc:Agent></dc:creator><dc:publisher><cc:Agent><dc:title>Sixsixfive (sixsixfive.deviantart.com)</dc:title></cc:Agent></dc:publisher><dc:source>https://github.com/sixsixfive</dc:source><dc:subject><rdf:Bag><rdf:li>ivy</rdf:li></rdf:Bag></dc:subject><dc:contributor><cc:Agent><dc:title>ssf</dc:title></cc:Agent></dc:contributor><dc:rights><cc:Agent><dc:title>Sixsixfive (sixisixfive.deviantart.com)</dc:title></cc:Agent></dc:rights><dc:description>A simple icon theme published under CC-BY-SA_V4(http://creativecommons.org/licenses/by-sa/4.0)</dc:description><dc:identifier>SSF</dc:identifier></cc:Work></rdf:RDF></metadata><!--Part of the Ivy icon them published under the CC-BY-SA_V4: http://creativecommons.org/licenses/by-sa/4.0 -->
</svg>