<?xml version="1.0" encoding="UTF-8" standalone="no"?>
<svg xmlns:dc="http://purl.org/dc/elements/1.1/" xmlns:cc="http://creativecommons.org/ns#" xmlns:rdf="http://www.w3.org/1999/02/22-rdf-syntax-ns#" xmlns:svg="http://www.w3.org/2000/svg" xmlns="http://www.w3.org/2000/svg" version="1.1" viewBox="0 0 32 32" id="svg2">
 <defs id="defs4">
  <linearGradient gradientUnits="userSpaceOnUse" x2="0" y2="29.969" y1="14.03" id="0">
   <stop id="stop7" stop-color="#fff"/>
   <stop id="stop9" stop-opacity="0" stop-color="#fff" offset="1"/>
  </linearGradient>
  <linearGradient gradientUnits="userSpaceOnUse" x2="0" y2="31" y1="13" id="1">
   <stop id="stop12" stop-color="#929292"/>
   <stop id="stop14" stop-color="#d6d6d6" offset="1"/>
  </linearGradient>
  <radialGradient gradientTransform="matrix(-1.58792 1.26574 -1.32231 -1.39394 70.12 -8.095)" gradientUnits="userSpaceOnUse" id="2" r="11" cy="12.786" cx="25.27">
   <stop id="stop17" stop-color="#ebebeb"/>
   <stop id="stop19" stop-color="#6a6a6a" offset="1"/>
  </radialGradient>
 </defs>
 <path id="path21" d="M 13.818182 5 C 10.594909 5 8 7.378667 8 10.333333 v 7.333334 C 8 20.621333 10.594909 23 13.818182 23 h 4.363637 C 21.405092 23 24 20.621333 24 17.666667 v -7.333334 C 24 7.378667 21.405092 5 18.18182 5 z m 0 3.067 h 4.363637 c 1.66749 0 2.909091 0.7378 2.909091 2.266333 v 7.333334 c 0 1.528533 -1.241601 2.666666 -2.909091 2.666666 h -4.363637 c -1.66749 0 -2.809182 -1.138133 -2.809182 -2.666666 v -7.333334 C 11.009 8.8048 12.150692 8.067 13.818182 8.067 z" opacity="0.15"/>
 <rect id="rect23" height="18" rx="2" y="14" opacity="0.15" x="6" width="20" ry="2"/>
 <path id="path25" d="M 13.818182 4 C 10.594909 4 8 6.378667 8 9.333333 v 7.333334 C 8 19.621333 10.594909 22 13.818182 22 h 4.363637 C 21.405092 22 24 19.621333 24 16.666667 V 9.333333 C 24 6.378667 21.405092 4 18.18182 4 z m 0 3.067 h 4.363637 c 1.66749 0 2.909091 0.7378 2.909091 2.266333 v 7.333334 c 0 1.528533 -1.241601 2.666666 -2.909091 2.666666 h -4.363637 c -1.66749 0 -2.809182 -1.138133 -2.809182 -2.666666 v -7.333334 C 11.009 7.8048 12.150692 7.067 13.818182 7.067 z" fill="url(#2)"/>
 <path id="path27" d="m 13.8125 4.53125 c -2.954138 0 -5.28125 2.176032 -5.28125 4.8125 v 7.3125 c 0 2.636468 2.327112 4.8125 5.28125 4.8125 h 4.375 c 2.954138 0 5.28125 -2.176032 5.28125 -4.8125 v -7.3125 c 0 -2.636468 -2.327112 -4.8125 -5.28125 -4.8125 h -4.375 z m 0 2 h 4.375 c 0.9157 0 1.761589 0.184386 2.40625 0.65625 0.644661 0.471864 1.03125 1.244848 1.03125 2.15625 v 7.3125 c 0 1.822805 -1.517636 3.21875 -3.4375 3.21875 h -4.375 c -1.919864 0 -3.34375 -1.418216 -3.34375 -3.21875 v -7.3125 c 0 -0.900267 0.345333 -1.678316 0.96875 -2.15625 0.623417 -0.477934 1.4593 -0.65625 2.375 -0.65625 z" stroke="#000" fill="none" opacity="0.4"/>
 <rect id="rect29" height="18" rx="2" fill="url(#1)" y="13" x="6" width="20" ry="2"/>
 <path id="path31" d="M 6,17 H26 V21 H6 z" fill="#ffd506"/>
 <path id="path33" d="m 9,17 -3,3 0,1 3,0 4,-4 -4,0 z m 14,0 -4,4 4,0 3,-3 0,-1 -3,0 z"/>
 <path id="path35" d="m 12,21 4,-3.999999 4,0 L 16,21 z"/>
 <g id="g37" fill="#fff">
  <path id="path39" d="m 8,16 16,0 0,1 -16,0 z" opacity="0.4"/>
  <path id="path41" d="m 8,21 16,0 0,1 -16,0 z" opacity="0.4"/>
 </g>
 <path id="path43" d="M 7.03,20 H24.968 V21 H7.03 z" opacity="0.4"/>
 <path id="path45" d="M 7.03,17 H24.968 V18 H7.03 z" opacity="0.4"/>
 <g id="g47" fill="none">
  <path id="path49" d="m 8,14.53125 c -0.284237,0 -0.46875,0.184513 -0.46875,0.46875 l 0,14 c 0,0.284237 0.184513,0.46875 0.46875,0.46875 l 16,0 c 0.284237,0 0.46875,-0.184513 0.46875,-0.46875 l 0,-14 c 0,-0.284237 -0.184513,-0.46875 -0.46875,-0.46875 l -16,0 z" opacity="0.4" stroke="url(#0)"/>
  <path id="path51" d="m 8,13.5 c -0.84491,0 -1.5,0.65509 -1.5,1.5 l 0,14 c 0,0.84491 0.65509,1.5 1.5,1.5 l 16,0 c 0.84491,0 1.5,-0.65509 1.5,-1.5 l 0,-14 c 0,-0.84491 -0.65509,-1.5 -1.5,-1.5 l -16,0 z" opacity="0.4" stroke="#000"/>
 </g>
 <metadata id="metadata9999">
  <rdf:RDF>
   <cc:Work>
    <dc:format>image/svg+xml</dc:format>
    <dc:type rdf:resource="http://purl.org/dc/dcmitype/StillImage"/>
    <dc:title>Ivy icon theme</dc:title>
    <cc:license rdf:resource="http://creativecommons.org/licenses/by-sa/4.0/"/>
    <dc:creator>
     <cc:Agent>
      <dc:title>Sixsixfive (sixsixfive.deviantart.com)</dc:title>
     </cc:Agent>
    </dc:creator>
    <dc:publisher>
     <cc:Agent>
      <dc:title>Sixsixfive (sixsixfive.deviantart.com)</dc:title>
     </cc:Agent>
    </dc:publisher>
    <dc:source>https://github.com/sixsixfive</dc:source>
    <dc:subject>
     <rdf:Bag>
      <rdf:li>ivy</rdf:li>
     </rdf:Bag>
    </dc:subject>
    <dc:contributor>
     <cc:Agent>
      <dc:title>ssf</dc:title>
     </cc:Agent>
    </dc:contributor>
    <dc:rights>
     <cc:Agent>
      <dc:title>Sixsixfive (sixisixfive.deviantart.com)</dc:title>
     </cc:Agent>
    </dc:rights>
    <dc:description>A simple icon theme published under CC-BY-SA_V4(http://creativecommons.org/licenses/by-sa/4.0)</dc:description>
    <dc:identifier>SSF</dc:identifier>
   </cc:Work>
  </rdf:RDF>
 </metadata>
 <!--Part of the Ivy icon them published under the CC-BY-SA_V4: http://creativecommons.org/licenses/by-sa/4.0 -->
</svg>
