<?xml version="1.0" encoding="UTF-8" standalone="no"?><svg viewBox="0 0 32 32" xmlns="http://www.w3.org/2000/svg" xmlns:svg="http://www.w3.org/2000/svg" xmlns:rdf="http://www.w3.org/1999/02/22-rdf-syntax-ns#" version="1.1" id="svg2" xmlns:dc="http://purl.org/dc/elements/1.1/" xmlns:cc="http://creativecommons.org/ns#"><defs id="0"><linearGradient x1="47.38" y1="4.271" x2="46.992" y2="43.525" gradientTransform="matrix(0.65822 0 0 0.65 0.203 -0.6)" id="9" gradientUnits="userSpaceOnUse"><stop id="F" stop-color="#ffb636"/><stop offset="1" id="G" stop-color="#ffe775"/></linearGradient><linearGradient y1="3" x2="0" y2="32" id="A" gradientUnits="userSpaceOnUse"><stop id="H" stop-color="#fff"/><stop stop-opacity="0" offset="1" id="I" stop-color="#fff"/></linearGradient><linearGradient y1="30.563" x2="0" y2="15.187" gradientTransform="matrix(0.65238 0 0 0.65128 0.595 -0.831)" id="B" gradientUnits="userSpaceOnUse"><stop id="J" stop-color="#6a6a6a"/><stop offset="1" id="K" stop-color="#171717"/></linearGradient><linearGradient y1="32.875" x2="0" y2="40.875" gradientTransform="matrix(0.65238 0 0 0.65128 0.595 -0.621)" id="C" gradientUnits="userSpaceOnUse"><stop id="L" stop-color="#171717"/><stop offset="1" id="M" stop-color="#6a6a6a"/></linearGradient></defs><path opacity="0.1" id="1" d="m 15.9312,3 c -0.435985,0.00489 -0.824053,0.237244 -1.04234,0.60997 l -13.7435,23.5601 c -0.215216,0.377399 -0.182349,0.845799 0.038601,1.21994 0.220954,0.374145 0.603745,0.609109 1.04234,0.609971 l 27.5255,-0.0381 c 0.357291,0.0022 0.728922,-0.154626 0.965129,-0.419359 0.236204,-0.264731 0.317291,-0.603316 0.270239,-0.953081 -0.0212,-0.148539 -0.04194,-0.326395 -0.115815,-0.457473 l -13.8593,-23.5602 C 16.785172,3.204086 16.367099,2.994982 15.931114,2.999921 z"/><path id="2" d="m 15.9312,2 c -0.435985,0.00489 -0.824053,0.237244 -1.04234,0.60997 l -13.7435,23.5601 c -0.215216,0.377399 -0.182349,0.845799 0.038601,1.21994 0.220954,0.374145 0.603745,0.609109 1.04234,0.609971 l 27.5255,-0.0381 c 0.357291,0.0022 0.728922,-0.154626 0.965129,-0.419359 0.236204,-0.264731 0.317291,-0.603316 0.270239,-0.953081 -0.0212,-0.148539 -0.04194,-0.326395 -0.115815,-0.457473 l -13.8593,-23.5602 C 16.785172,2.204086 16.367099,1.994982 15.931114,1.999921 z" fill="url(#9)"/><path opacity="0.6" id="3" d="m 16.2519,10.2702 c -1.32016,0.0041 -2.65006,0.590764 -3.0784,1.75032 -0.856687,2.31911 1.35912,8.26845 3.0784,8.26314 1.71928,-0.0053 3.941,-5.96969 3.0784,-8.28349 -0.431299,-1.1569 -1.75824,-1.73405 -3.0784,-1.72997 z m 0,11.5196 c -1.44119,0 -2.60951,1.16636 -2.60951,2.60513 0,1.43877 1.16832,2.60513 2.60951,2.60513 1.44119,0 2.60951,-1.16636 2.60951,-2.60513 0,-1.43877 -1.16832,-2.60513 -2.60951,-2.60513 z" fill="#fff"/><path id="4" d="m 16.2519,8.0702 c -1.32016,0.0041 -2.65006,0.590764 -3.0784,1.75032 -0.856687,2.31911 1.35912,8.26845 3.0784,8.26314 1.71928,-0.0053 3.941,-5.96969 3.0784,-8.28349 C 18.899001,8.64327 17.57206,8.06612 16.2519,8.0702 z"/><path id="5" d="m 16.2519,19.9897 c -1.44119,0 -2.60951,1.16636 -2.60951,2.60513 0,1.43877 1.16832,2.60513 2.60951,2.60513 1.44119,0 2.60951,-1.16635 2.60951,-2.60513 0,-1.43877 -1.16832,-2.60513 -2.60951,-2.60513 z"/><path id="6" d="m 16.2519,9.0606 c -1.32016,0.0041 -2.65006,0.590764 -3.0784,1.75032 -0.856687,2.31911 1.35912,8.26845 3.0784,8.26314 1.71928,-0.0053 3.941,-5.96969 3.0784,-8.28349 C 18.899001,9.63367 17.57206,9.05653 16.2519,9.0606 z" fill="url(#B)"/><path id="7" d="m 16.2519,20.7897 c -1.44119,0 -2.60951,1.16636 -2.60951,2.60513 0,1.43877 1.16832,2.60513 2.60951,2.60513 1.44119,0 2.60951,-1.16636 2.60951,-2.60513 0,-1.43877 -1.16832,-2.60513 -2.60951,-2.60513 z" fill="url(#C)"/><g id="8" fill="none"><path stroke="#000" opacity="0.46" id="D" d="m 15.9375,2.53125 c -0.235606,0.00264 -0.471142,0.165647 -0.59375,0.375 L 1.625,26.4375 c -0.111152,0.194913 -0.098899,0.435862 0.03125,0.65625 0.139701,0.236558 0.328423,0.37454 0.5625,0.375 L 29.75,27.4375 c 0.178743,0.0011 0.436712,-0.140271 0.5625,-0.28125 0.137392,-0.153986 0.185038,-0.286 0.15625,-0.5 -0.01808,-0.126651 -0.0579,-0.229575 -0.0625,-0.25 -5.44e-4,-0.0024 -4.83e-4,-0.03211 0,-0.03125 L 16.53125,2.84375 C 16.407244,2.642788 16.204898,2.528221 15.9375,2.53125 Z"/><path stroke="url(#A)" opacity="0.4" id="E" d="M 15.96875,3.71875 2.6875,26.5 l 26.65625,-0.03125 -13.375,-22.75 z"/></g><metadata id="metadata9999"><rdf:RDF><cc:Work><dc:format>image/svg+xml</dc:format><dc:type rdf:resource="http://purl.org/dc/dcmitype/StillImage"/><dc:title>Ivy icon theme</dc:title><cc:license rdf:resource="http://creativecommons.org/licenses/by-sa/4.0/"/><dc:creator><cc:Agent><dc:title>Sixsixfive (sixsixfive.deviantart.com)</dc:title></cc:Agent></dc:creator><dc:publisher><cc:Agent><dc:title>Sixsixfive (sixsixfive.deviantart.com)</dc:title></cc:Agent></dc:publisher><dc:source>https://github.com/sixsixfive</dc:source><dc:subject><rdf:Bag><rdf:li>ivy</rdf:li></rdf:Bag></dc:subject><dc:contributor><cc:Agent><dc:title>ssf</dc:title></cc:Agent></dc:contributor><dc:rights><cc:Agent><dc:title>Sixsixfive (sixisixfive.deviantart.com)</dc:title></cc:Agent></dc:rights><dc:description>A simple icon theme published under CC-BY-SA_V4(http://creativecommons.org/licenses/by-sa/4.0)</dc:description><dc:identifier>SSF</dc:identifier></cc:Work></rdf:RDF></metadata><!--Part of the Ivy icon them published under the CC-BY-SA_V4: http://creativecommons.org/licenses/by-sa/4.0 -->
</svg>