<?xml version="1.0" encoding="UTF-8" standalone="no"?>
<svg xmlns:dc="http://purl.org/dc/elements/1.1/" xmlns:cc="http://creativecommons.org/ns#" xmlns:rdf="http://www.w3.org/1999/02/22-rdf-syntax-ns#" xmlns:svg="http://www.w3.org/2000/svg" xmlns="http://www.w3.org/2000/svg" viewBox="0 0 32 32" id="svg2" version="1.1">
 <defs id="defs4">
  <linearGradient id="0" y1="8.998" y2="43.998" x2="0" gradientUnits="userSpaceOnUse" gradientTransform="matrix(0.69048 0 0 0.68571 -0.671 15.331)">
   <stop stop-color="#171717" id="stop7"/>
   <stop offset="1" stop-color="#6a6a6a" id="stop9"/>
  </linearGradient>
  <linearGradient id="1" y1="13.04" y2="56.805" x2="0" gradientUnits="userSpaceOnUse" gradientTransform="matrix(0.68786 0 0 0.6627 -6.492 7.856)">
   <stop stop-color="#171717" id="stop12"/>
   <stop offset="1" stop-color="#a1a1a1" id="stop14"/>
  </linearGradient>
  <linearGradient id="2" y1="13.04" y2="56.805" x2="0" gradientUnits="userSpaceOnUse" gradientTransform="matrix(0.68786 0 0 0.6627 -6.892 -7.645)">
   <stop stop-color="#ebebeb" id="stop17"/>
   <stop offset="1" stop-color="#fff" id="stop19"/>
  </linearGradient>
 </defs>
 <g transform="translate(-0.4,-15.501)" id="g21">
  <path d="m 30.875,8.59375 a 0.449134,0.449134 0 0 0 -0.3125,0.4375 l 0,13.5625 -13.5625,0 a 0.449134,0.449134 0 0 0 -0.4375,0.4375 l 0,13.5625 -13.5625,0 a 0.449134,0.449134 0 0 0 -0.4375,0.4375 l 0,7 A 0.449134,0.449134 0 0 0 3,44.46875 l 14,0 14,0 14,0 a 0.449134,0.449134 0 0 0 0.4375,-0.4375 l 0,-35 A 0.449134,0.449134 0 0 0 45,8.59375 l -14,0 a 0.449134,0.449134 0 0 0 -0.125,0 z" transform="matrix(0.67697,0,0,0.66899,-0.335,16.752)" id="path23" opacity="0.1"/>
  <path d="m 30.399999,31.00069 a 14.5,14.5 0 0 1 -29,0 14.5,14.5 0 1 1 29,0 z" id="path25" fill="url(#1)"/>
  <path d="m 20.399999,21.500693 0,10 -9,0 0,9 -10,0 0,5 9.666671,0 9.666662,0 9.666667,0 0,-24 z" id="path27" fill="url(#0)"/>
  <path d="m 20,6 0,10 -9,0 0,9 -6.4375,0 a 14.5,14.5 0 0 0 10.5,5 A 14.5,14.5 0 0 0 30,15.5 14.5,14.5 0 0 0 30,14.90625 14.5,14.5 0 0 0 26.4375,6 L 20,6 Z" transform="translate(0.4,15.501)" id="path29" fill="url(#2)"/>
  <path d="m 20.9375,22.03125 0,9.46875 a 0.539729,0.539729 0 0 1 -0.53125,0.53125 l -8.46875,0 0,8.46875 a 0.539729,0.539729 0 0 1 -0.53125,0.53125 l -9.46875,0 0,3.9375 9.125,0 9.65625,0 9.15625,0 0,-22.9375 -8.9375,0 z" id="path31" opacity="0.6" fill="none" stroke="#000"/>
  <path d="m 8.4,41.5007 4,0 0,1 -4,0 z" id="path33" opacity="0.9" fill="#fff"/>
  <path d="m 16.28125,17 c -9.175974,-0.613569 -16.805758,9.45266 -13.75,18.125 a 0.492057,0.492057 0 0 1 0,0.03125 c 2.37592,8.88799 14.371163,12.88607 21.59375,7.1875 a 0.492057,0.492057 0 0 1 0.03125,-0.03125 c 7.36614,-4.95923 7.650839,-17.017583 0.5,-22.28125 A 0.492057,0.492057 0 0 1 24.625,20 c -2.34453,-1.8707 -5.310799,-2.92255 -8.3125,-3 a 0.492057,0.492057 0 0 1 -0.03125,0 z" id="path35" opacity="0.7" fill="none" stroke="#000"/>
  <g id="g37" fill="#fff">
   <path d="m 12.4,32.501 9,0 0,1 -9,0 z" id="path39" opacity="0.9"/>
   <path d="m 21.4,22.5007 5,0 0,1 -5,0 z" id="path41" opacity="0.9"/>
  </g>
  <path d="m 10.4,31.5007 1,0 0,9 -1,0 z" id="path43" opacity="0.3"/>
  <path d="m 30.5007,-20.4 1,0 0,9 -1,0 z" transform="matrix(0,1,-1,0,0,0)" id="path45" opacity="0.3"/>
  <path d="m -20.4,-30.5007 1,0 0,9 -1,0 z" transform="scale(-1,-1)" id="path47" opacity="0.3"/>
  <path d="m -21.5007,20.4 1,0 0,4 -1,0 z" transform="matrix(0,-1,1,0,0,0)" id="path49" opacity="0.3"/>
  <path d="m 6.4,39.501 4,0 0,1 -4,0 z" id="path51" opacity="0.3"/>
  <path d="m 11.4,32.5007 1,0 0,9 -1,0 z" id="path53" opacity="0.7"/>
  <path d="m 31.5007,-21.4 1,0 0,9 -1,0 z" transform="matrix(0,1,-1,0,0,0)" id="path55" opacity="0.7"/>
  <path d="m -21.4,-31.5007 1,0 0,9 -1,0 z" transform="scale(-1,-1)" id="path57" opacity="0.7"/>
  <path d="m -22.5007,21.4 1,0 0,4 -1,0 z" transform="matrix(0,-1,1,0,0,0)" id="path59" opacity="0.7"/>
  <path d="m 7.4,40.5007 4,0 0,1 -4,0 z" id="path61" opacity="0.7"/>
 </g>
 <metadata id="metadata9999">
  <rdf:RDF>
   <cc:Work>
    <dc:format>image/svg+xml</dc:format>
    <dc:type rdf:resource="http://purl.org/dc/dcmitype/StillImage"/>
    <dc:title>Ivy icon theme</dc:title>
    <cc:license rdf:resource="http://creativecommons.org/licenses/by-sa/4.0/"/>
    <dc:creator>
     <cc:Agent>
      <dc:title>Sixsixfive (sixsixfive.deviantart.com)</dc:title>
     </cc:Agent>
    </dc:creator>
    <dc:publisher>
     <cc:Agent>
      <dc:title>Sixsixfive (sixsixfive.deviantart.com)</dc:title>
     </cc:Agent>
    </dc:publisher>
    <dc:source>https://github.com/sixsixfive</dc:source>
    <dc:subject>
     <rdf:Bag>
      <rdf:li>ivy</rdf:li>
     </rdf:Bag>
    </dc:subject>
    <dc:contributor>
     <cc:Agent>
      <dc:title>ssf</dc:title>
     </cc:Agent>
    </dc:contributor>
    <dc:rights>
     <cc:Agent>
      <dc:title>Sixsixfive (sixisixfive.deviantart.com)</dc:title>
     </cc:Agent>
    </dc:rights>
    <dc:description>A simple icon theme published under CC-BY-SA_V4(http://creativecommons.org/licenses/by-sa/4.0)</dc:description>
    <dc:identifier>SSF</dc:identifier>
   </cc:Work>
  </rdf:RDF>
 </metadata>
 <!--Part of the Ivy icon them published under the CC-BY-SA_V4: http://creativecommons.org/licenses/by-sa/4.0 -->
</svg>
