<?xml version="1.0" encoding="UTF-8" standalone="no"?><svg viewBox="0 0 48 48" xmlns:svg="http://www.w3.org/2000/svg" xmlns="http://www.w3.org/2000/svg" xmlns:rdf="http://www.w3.org/1999/02/22-rdf-syntax-ns#" xmlns:xlink="http://www.w3.org/1999/xlink" version="1.1" id="svg2" xmlns:dc="http://purl.org/dc/elements/1.1/" xmlns:cc="http://creativecommons.org/ns#"><defs id="0"><linearGradient id="linearGradient4159"><stop id="stop4161" stop-color="#fff"/><stop stop-opacity="0" offset="1" id="stop4163" stop-color="#fff"/></linearGradient><linearGradient x1="45.561" xlink:href="#linearGradient4159" y1="10.05" x2="45.49" y2="37.841" gradientTransform="matrix(1 0 0 1 -0.5117188 -0.011719)" id="linearGradient4165" gradientUnits="userSpaceOnUse"/></defs><path opacity="0.1" id="rect4167" d="m 1,10 45,0 0,30 -45,0 z"/><path id="9" d="M 1,9 46,9 46,39 1,39 Z" fill="#d02604"/><g id="g3370"><path stroke-linejoin="miter" stroke="none" stroke-opacity="1" stroke-width="1" stroke-linecap="butt" fill-opacity="1" id="path3364" fill-rule="evenodd" d="m 25,25 0,-13 -9,0 z" fill="#295897"/><path stroke-linejoin="miter" stroke="none" stroke-opacity="1" stroke-width="1" stroke-linecap="butt" fill-opacity="1" id="path3358" fill-rule="evenodd" d="m 25,25 21,11 0,-5 z" fill="#295897"/><path stroke-linejoin="miter" stroke="none" stroke-opacity="1" stroke-width="1" stroke-linecap="butt" fill-opacity="1" id="path3368" fill-rule="evenodd" d="M 25,25 4,30 4,25 Z" fill="#295897"/><path stroke-linejoin="miter" stroke="none" stroke-opacity="1" stroke-width="1" stroke-linecap="butt" fill-opacity="1" id="path3366" fill-rule="evenodd" d="M 25,25 4,19 4,12 Z" fill="#295897"/><path stroke-linejoin="miter" stroke="none" stroke-opacity="1" stroke-width="1" stroke-linecap="butt" fill-opacity="1" id="path3360" fill-rule="evenodd" d="m 25,25 21,-6 0,6 z" fill="#295897"/><path stroke-linejoin="miter" stroke="none" stroke-opacity="1" stroke-width="1" stroke-linecap="butt" fill-opacity="1" id="path3362" fill-rule="evenodd" d="M 25,25 46,12 35,12 Z" fill="#295897"/></g><path stroke-linejoin="miter" stroke="none" stroke-opacity="1" stroke-width="1" stroke-linecap="butt" fill-opacity="1" id="path3352" fill-rule="evenodd" d="M 4,36 46,36 25,25 Z" fill="#ebebeb"/><g transform="matrix(1 0 0 1 47.25 4)" id="g5056"><path fill-opacity="0" id="path3764" d="m -31.25,22.75 1,0 0,1 -1,0" fill="#000"/><path fill-opacity="0" id="path3766" d="m -30.25,22.75 1,0 0,1 -1,0" fill="#000"/><path fill-opacity="0" id="path3768" d="m -29.25,22.75 1,0 0,1 -1,0" fill="#000"/><path fill-opacity="0" id="path3770" d="m -28.25,22.75 1,0 0,1 -1,0" fill="#000"/><path fill-opacity="0" id="path3772" d="m -27.25,22.75 1,0 0,1 -1,0" fill="#000"/><path fill-opacity="0" id="path3774" d="m -26.25,22.75 1,0 -0.25,0.75 -0.75,0.25" fill="#000"/><path fill-opacity="0" id="path3776" d="m -25.25,22.75 1,0 0,1 L -25,24 -25.5,23.5" fill="#000"/><path fill-opacity="0.03137255" id="path3786" d="m -20.25,22.75 1,0 0,1 -1,0" fill="#ff0"/><path fill-opacity="0" id="path3788" d="m -19.25,22.75 1,0 0.25,0.75 -0.5,0.5 -0.75,-0.25" fill="#000"/><path fill-opacity="0" id="path3790" d="m -18.25,22.75 1,0 0,1 L -18,23.5" fill="#000"/><path fill-opacity="0" id="path3792" d="m -17.25,22.75 1,0 0,1 -1,0" fill="#000"/><path fill-opacity="0" id="path3794" d="m -16.25,22.75 1,0 0,1 -1,0" fill="#000"/><path fill-opacity="0" id="path3796" d="m -15.25,22.75 1,0 0,1 -1,0" fill="#000"/><path fill-opacity="0" id="path3828" d="m -31.25,23.75 1,0 0,1 -1,0" fill="#000"/><path fill-opacity="0" id="path3830" d="m -30.25,23.75 1,0 0,1 -1,0" fill="#000"/><path fill-opacity="0" id="path3832" d="m -29.25,23.75 1,0 0,1 -1,0" fill="#000"/><path fill-opacity="0" id="path3834" d="m -28.25,23.75 1,0 -0.25,0.75 -0.75,0.25" fill="#000"/><path fill-opacity="0" id="path3836" d="m -27.25,23.75 1,0 0,1 L -27,25 -27.5,24.5" fill="#000"/><path fill-opacity="0" id="path3838" d="m -26.25,23.75 0.75,-0.25 0.5,0.5 -0.25,0.75 -1,0" fill="#000"/><path fill-opacity="1" id="path3844" d="m -23.25,23.75 1,0 0,1 -1,0" fill="#e2a293"/><path fill-opacity="1" id="path3846" d="m -22.25,23.75 1,0 0,1 -1,0" fill="#e7ad98"/><path fill-opacity="0" id="path3854" d="m -18.5,24 0.5,-0.5 0.75,0.25 0,1 -1,0" fill="#000"/><path fill-opacity="0" id="path3856" d="m -17.25,23.75 1,0 0.25,0.75 -0.5,0.5 -0.75,-0.25" fill="#000"/><path fill-opacity="0" id="path3858" d="m -16.25,23.75 1,0 0,1 L -16,24.5" fill="#000"/><path fill-opacity="0" id="path3860" d="m -15.25,23.75 1,0 0,1 -1,0" fill="#000"/><path fill-opacity="0" id="path3892" d="m -31.25,24.75 1,0 0,1 -1,0" fill="#000"/><path fill-opacity="0" id="path3894" d="m -30.25,24.75 1,0 -0.25,0.75 -0.75,0.25" fill="#000"/><path fill-opacity="0" id="path3896" d="m -29.25,24.75 1,0 0,1 L -29,26 -29.5,25.5" fill="#000"/><path fill-opacity="0" id="path3898" d="m -28.25,24.75 0.75,-0.25 0.5,0.5 -0.25,0.75 -1,0" fill="#000"/><path fill-opacity="1" id="path3904" d="m -25.25,24.75 1,0 0,1 -1,0" fill="#fefbf8"/><path fill-opacity="1" id="path3906" d="m -24.25,24.75 1,0 0,1 -1,0" fill="#efc3c3"/><path fill-opacity="1" id="path3908" d="m -23.25,24.75 1,0 0,1 -1,0" fill="#cb4133"/><path fill-opacity="1" id="path3910" d="m -22.25,24.75 1,0 0,1 -1,0" fill="#cd443b"/><path fill-opacity="1" id="path3912" d="m -21.25,24.75 1,0 -0.25,0.75 -0.75,0.25" fill="#f4dbdd"/><path fill-opacity="1" id="path3914" d="m -20.25,24.75 1,0 0.25,0.75 -0.5,0.5 -0.5,0 -0.5,-0.5" fill="#faf5f6"/><path fill-opacity="0" id="path3922" d="m -16.5,25 0.5,-0.5 0.75,0.25 0,1 L -16,25.5" fill="#000"/><path fill-opacity="0" id="path3924" d="m -15.25,24.75 1,0 0.25,0.75 -0.5,0.5 -0.75,-0.25" fill="#000"/><path fill-opacity="0" id="path3956" d="m -31.25,25.75 1,0 -0.25,0.75 -0.75,0.25" fill="#000"/><path fill-opacity="0" id="path3958" d="M -30.25,25.75 -29.5,25.5 -29,26 -29.25,26.75 -30,27 -30.5,26.5" fill="#000"/><path fill-opacity="0.01176471" id="path3960" d="m -29,26 0.75,-0.25 0,1 -1,0" fill="#500"/><path fill-opacity="1" id="path3966" d="m -26.25,25.75 1,0 0,1 L -26,27 -26.5,26.5" fill="#d7e8de"/><path fill-opacity="1" id="path3968" d="m -25.25,25.75 1,0 0,1 -1,0" fill="#ced6cd"/><path fill-opacity="1" id="path3970" d="m -24.25,25.75 1,0 0,1 -1,0" fill="#fadfdc"/><path fill-opacity="1" id="path3972" d="m -23.25,25.75 1,0 0,1 -1,0" fill="#cb8953"/><path fill-opacity="1" id="path3974" d="m -22.25,25.75 1,0 0,1 -1,0" fill="#9d8093"/><path fill-opacity="1" id="path3976" d="m -21.25,25.75 0.75,-0.25 0.5,0.5 -0.25,0.75 -1,0" fill="#f4e3e3"/><path fill-opacity="1" id="path3978" d="m -20,26 0.5,0 0.25,0.75 -1,0" fill="#d5d9d1"/><path fill-opacity="1" id="path3980" d="m -19.5,26 0.5,-0.5 0.75,0.25 0.25,0.75 -0.5,0.5 -0.75,-0.25" fill="#e0ebdb"/><path fill-opacity="0" id="path4020" d="m -31.25,26.75 0.75,-0.25 0.5,0.5 -0.25,0.75 -1,0" fill="#000"/><path fill-opacity="1" id="path4026" d="m -28.25,26.75 1,0 0,1 -1,0" fill="#fff"/><path fill-opacity="1" id="path4028" d="m -27.25,26.75 0.75,-0.25 0.5,0.5 -0.5,0.5 -0.75,0.25" fill="#b1cab4"/><path fill-opacity="1" id="path4030" d="m -26,27 0.75,-0.25 0,1 L -26,28 -26.5,27.5" fill="#759d79"/><path fill-opacity="1" id="path4032" d="m -25.25,26.75 1,0 -0.25,0.75 -0.75,0.25" fill="#c0bbb9"/><path fill-opacity="1" id="path4034" d="m -24.25,26.75 1,0 0,1 L -24,28 -24.5,27.5" fill="#e2cbc4"/><path fill-opacity="1" id="path4036" d="m -23.25,26.75 1,0 0,1 -1,0" fill="#d97e51"/><path fill-opacity="1" id="path4038" d="m -22.25,26.75 1,0 -0.25,0.75 -0.75,0.25" fill="#d48665"/><path fill-opacity="1" id="path4040" d="m -21.25,26.75 1,0 -0.25,0.75 -0.5,0.5 -0.5,-0.5" fill="#e7dad4"/><path fill-opacity="1" id="path4042" d="m -20.25,26.75 1,0 0,1 L -20,28 -20.5,27.5" fill="#a9aba2"/><path fill-opacity="1" id="path4044" d="m -19.25,26.75 0.75,0.25 0.25,0.75 -1,0" fill="#75a77f"/><path fill-opacity="1" id="path4046" d="m -18.5,27 0.5,-0.5 0.75,0.25 0.25,0.75 -0.5,0.5 -0.75,-0.25" fill="#c9d9ca"/><path fill-opacity="1" id="path4048" d="m -17.25,26.75 1,0 0,1 L -17,27.5" fill="#fff"/><path fill-opacity="1" id="path4086" d="m -30.25,27.75 1,0 0,1 L -30,29 -30.5,28.5" fill="#f2f1ed"/><path fill-opacity="1" id="path4088" d="m -29.25,27.75 1,0 0.25,0.75 -0.5,0.5 -0.75,-0.25" fill="#cfe8d8"/><path fill-opacity="1" id="path4090" d="m -28.25,27.75 1,0 0,1 L -28,28.5" fill="#eaecea"/><path fill-opacity="1" id="path4092" d="m -27.25,27.75 0.75,-0.25 0.5,0.5 -0.5,0.5 -0.75,0.25" fill="#82ac8b"/><path fill-opacity="1" id="path4094" d="m -26,28 0.75,-0.25 0,1 L -26,29 -26.5,28.5" fill="#84ad8d"/><path fill-opacity="1" id="path4096" d="m -25.25,27.75 0.75,-0.25 0.5,0.5 -0.5,0.5 -0.75,0.25" fill="#bfaca2"/><path fill-opacity="1" id="path4098" d="m -24,28 0.75,-0.25 0,1 L -24,29 -24.5,28.5" fill="#a5b6a3"/><path fill-opacity="1" id="path4100" d="m -23.25,27.75 1,0 0,1 -1,0" fill="#ebeace"/><path fill-opacity="1" id="path4102" d="m -22.25,27.75 0.75,-0.25 0.5,0.5 -0.25,0.75 -1,0" fill="#dee1c9"/><path fill-opacity="1" id="path4104" d="m -21,28 0.5,-0.5 0.5,0.5 -0.25,0.75 -1,0" fill="#a8ae9a"/><path fill-opacity="1" id="path4106" d="m -20,28 0.75,-0.25 0,1 -1,0" fill="#c2bdb3"/><path fill-opacity="1" id="path4108" d="m -19.25,27.75 1,0 0,1 -1,0" fill="#689871"/><path fill-opacity="1" id="path4110" d="m -18.25,27.75 0.75,0.25 0.25,0.75 -1,0" fill="#9bbaa2"/><path fill-opacity="1" id="path4112" d="m -17.5,28 0.5,-0.5 0.75,0.25 -0.25,0.75 -0.75,0.25" fill="#f0f2f0"/><path fill-opacity="1" id="path4114" d="m -16.25,27.75 1,0 0,1 L -16,29 -16.5,28.5" fill="#d1e9d9"/><path fill-opacity="1" id="path4116" d="m -15.25,27.75 1,0 0.25,0.75 -0.5,0.5 -0.75,-0.25" fill="#fffbfa"/><path fill-opacity="1" id="path4148" d="m -31.25,28.75 0.75,-0.25 0.5,0.5 -0.25,0.75 -1,0" fill="#e4eee6"/><path fill-opacity="1" id="path4150" d="m -30,29 0.75,-0.25 0,1 -1,0" fill="#70a87d"/><path fill-opacity="1" id="path4152" d="m -29.25,28.75 0.75,0.25 0.25,0.75 -1,0" fill="#839187"/><path fill-opacity="1" id="path4154" d="m -28.5,29 0.5,-0.5 0.75,0.25 0.25,0.75 -0.5,0.5 -0.75,-0.25" fill="#ccd9cd"/><path fill-opacity="1" id="path4156" d="m -27.25,28.75 0.75,-0.25 0.5,0.5 0,0.5 -0.5,0.5 -0.5,-0.5" fill="#b1cdb5"/><path fill-opacity="1" id="path4158" d="m -26,29 0.75,-0.25 0,1 L -26,29.5" fill="#dae3de"/><path fill-opacity="1" id="path4160" d="m -25.25,28.75 0.75,-0.25 0.5,0.5 -0.5,0.5 -0.75,0.25" fill="#c1c3c1"/><path fill-opacity="1" id="path4162" d="m -24,29 0.75,-0.25 0,1 L -24,30 -24.5,29.5" fill="#b4d3bf"/><path fill-opacity="1" id="path4164" d="m -23.25,28.75 1,0 0,1 -1,0" fill="#f2ab63"/><path fill-opacity="1" id="path4166" d="m -22.25,28.75 1,0 0,1 -1,0" fill="#f0c99d"/><path fill-opacity="1" id="path4168" d="m -21.25,28.75 1,0 0.25,0.75 -0.5,0.5 -0.75,-0.25" fill="#a3c2a9"/><path fill-opacity="1" id="path4170" d="m -20.25,28.75 1,0 0,1 L -20,29.5" fill="#d3d4d3"/><path fill-opacity="1" id="path4172" d="m -19.25,28.75 1,0 -0.25,0.75 -0.75,0.25" fill="#d4ded7"/><path fill-opacity="1" id="path4174" d="m -18.25,28.75 1,0 -0.25,0.75 -0.5,0.5 -0.5,-0.5" fill="#bed4c1"/><path fill-opacity="1" id="path4176" d="M -17.25,28.75 -16.5,28.5 -16,29 -16.25,29.75 -17,30 -17.5,29.5" fill="#c1d0c2"/><path fill-opacity="1" id="path4178" d="m -16,29 0.75,-0.25 -0.25,0.75 -0.75,0.25" fill="#748d7a"/><path fill-opacity="1" id="path4180" d="M -15.25,28.75 -14.5,29 -14.25,29.75 -15,30 -15.5,29.5" fill="#88b892"/><path fill-opacity="1" id="path4212" d="m -31.25,29.75 1,0 0.25,0.75 -0.5,0.5 -0.75,-0.25" fill="#f5f7f5"/><path fill-opacity="1" id="path4214" d="m -30.25,29.75 1,0 0,1 L -30,30.5" fill="#a2c3a8"/><path fill-opacity="1" id="path4216" d="m -29.25,29.75 1,0 0,1 -1,0" fill="#94bb9a"/><path fill-opacity="1" id="path4218" d="m -28.25,29.75 0.75,0.25 0.5,0.5 -0.5,0.5 -0.75,-0.25" fill="#e5e7e4"/><path fill-opacity="1" id="path4220" d="m -27.5,30 0.5,-0.5 0.5,0.5 0.5,0.5 -0.5,0.5 -0.5,-0.5" fill="#e8ebe9"/><path fill-opacity="1" id="path4222" d="m -26.5,30 0.5,-0.5 0.75,0.25 0,1 L -26,30.5" fill="#a7c4a6"/><path fill-opacity="1" id="path4224" d="m -25.25,29.75 0.75,-0.25 0.5,0.5 -0.25,0.75 -1,0" fill="#9bbaa2"/><path fill-opacity="1" id="path4226" d="m -24,30 0.75,-0.25 0,1 -1,0" fill="#d5d1b3"/><path fill-opacity="1" id="path4228" d="m -23.25,29.75 1,0 0,1 -1,0" fill="#67363f"/><path fill-opacity="1" id="path4230" d="m -22.25,29.75 1,0 0,1 -1,0" fill="#c56a26"/><path fill-opacity="1" id="path4232" d="m -21.25,29.75 0.75,0.25 0.5,0.5 -0.5,0.5 -0.75,-0.25" fill="#cfd8c8"/><path fill-opacity="1" id="path4234" d="m -20.5,30 0.5,-0.5 0.75,0.25 0,1 L -20,30.5" fill="#92b496"/><path fill-opacity="1" id="path4236" d="m -19.25,29.75 0.75,-0.25 0.5,0.5 0,0.5 -0.5,0.5 -0.75,-0.25" fill="#afcaae"/><path fill-opacity="1" id="path4238" d="m -18,30 0.5,-0.5 0.5,0.5 -0.25,0.75 L -18,30.5" fill="#e5e6e6"/><path fill-opacity="1" id="path4240" d="m -17,30 0.75,-0.25 -0.25,0.75 -0.75,0.25" fill="#eaefe9"/><path fill-opacity="1" id="path4242" d="M -16.25,29.75 -15.5,29.5 -15,30 -15.5,30.5 -16,31 -16.5,30.5" fill="#94b99a"/><path fill-opacity="1" id="path4244" d="m -15,30 0.75,-0.25 -0.25,0.75 -0.5,0.5 -0.5,-0.5" fill="#bbd2bf"/><path fill-opacity="1" id="path4276" d="m -31.25,30.75 0.75,0.25 0.25,0.75 -1,0" fill="#fefeff"/><path fill-opacity="1" id="path4278" d="m -30.5,31 0.5,-0.5 0.75,0.25 0,1 -1,0" fill="#fff"/><path fill-opacity="1" id="path4280" d="m -29.25,30.75 1,0 0,1 -1,0" fill="#71a171"/><path fill-opacity="1" id="path4282" d="m -28.25,30.75 0.75,0.25 0.25,0.75 -1,0" fill="#acc2b1"/><path fill-opacity="1" id="path4284" d="m -27.5,31 0.5,-0.5 0.5,0.5 0.25,0.75 -1,0" fill="#bac6b6"/><path fill-opacity="1" id="path4286" d="m -26.5,31 0.5,-0.5 0.75,0.25 0,1 -1,0" fill="#ebedde"/><path fill-opacity="1" id="path4288" d="m -25.25,30.75 1,0 0,1 -1,0" fill="#eff5f2"/><path fill-opacity="1" id="path4290" d="m -24.25,30.75 1,0 0,1 -1,0" fill="#f9fcf9"/><path fill-opacity="1" id="path4292" d="m -23.25,30.75 1,0 0,1 -1,0" fill="#eee0d9"/><path fill-opacity="1" id="path4294" d="m -22.25,30.75 1,0 0,1 -1,0" fill="#f3e5de"/><path fill-opacity="1" id="path4296" d="m -21.25,30.75 0.75,0.25 0.25,0.75 -1,0" fill="#f6faf8"/><path fill-opacity="1" id="path4298" d="m -20.5,31 0.5,-0.5 0.75,0.25 0,1 -1,0" fill="#f0f5f1"/><path fill-opacity="1" id="path4300" d="m -19.25,30.75 0.75,0.25 0.5,0.5 -0.5,0.5 -0.75,-0.25" fill="#e8ead7"/><path fill-opacity="1" id="path4302" d="m -18.5,31 0.5,-0.5 0.75,0.25 0,1 L -18,31.5" fill="#b1c1ad"/><path fill-opacity="1" id="path4304" d="m -17.25,30.75 0.75,-0.25 0.5,0.5 -0.25,0.75 -1,0" fill="#aac1b0"/><path fill-opacity="1" id="path4306" d="m -16,31 0.5,-0.5 0.5,0.5 -0.25,0.75 -1,0" fill="#94b996"/><path fill-opacity="1" id="path4308" d="m -15,31 0.5,-0.5 0.5,0.5 -0.25,0.75 -1,0" fill="#fff"/></g><circle stroke-dasharray="none" stroke-linejoin="round" stroke="none" stroke-opacity="1" stroke-width="1" stroke-dashoffset="0" opacity="1" stroke-linecap="round" fill-opacity="1" cy="25" id="path3378" r="4" cx="25" stroke-miterlimit="4" fill-rule="evenodd" fill="#ffd506"/><rect fill-opacity="1" fill="#ffd506" stroke-opacity="1" opacity="1" stroke-dashoffset="0" stroke-width="1" transform="matrix(-1 0 0 -1 0 0)" stroke="none" width="41.96875" stroke-dasharray="none" stroke-linecap="round" stroke-miterlimit="4" stroke-linejoin="round" id="rect3350" y="-39" x="-45.96875" fill-rule="evenodd" height="3"/><rect fill-opacity="1" fill="#ffd506" stroke-opacity="1" opacity="1" stroke-dashoffset="0" stroke-width="1" transform="matrix(0 1 -1 0 0 0)" stroke="none" width="26.96875" stroke-dasharray="none" stroke-linecap="round" stroke-miterlimit="4" stroke-linejoin="round" id="rect3348" y="-4" x="12" fill-rule="evenodd" height="3"/><rect stroke="none" stroke-linejoin="round" stroke-dasharray="none" stroke-opacity="1" y="9" x="1" stroke-width="1" stroke-dashoffset="0" stroke-linecap="round" opacity="1" fill-opacity="1" height="3" id="rect3346" width="45" stroke-miterlimit="4" fill-rule="evenodd" fill="#ffd506"/><path stroke="#000" opacity="0.4" id="C" d="m 1.53125,9.53125 0,28.9375 43.9375,0 0,-28.9375 -43.9375,0 z" fill="none"/><path stroke="url(#linearGradient4165)" opacity="0.4" id="path4157" d="m 2.5,10.5 0,26.976562 41.976562,0 0,-26.976562 L 2.5,10.5 Z" fill="none"/><metadata id="metadata9999"><rdf:RDF><cc:Work><dc:format>image/svg+xml</dc:format><dc:type rdf:resource="http://purl.org/dc/dcmitype/StillImage"/><dc:title/><cc:license rdf:resource="http://creativecommons.org/licenses/by-sa/4.0/"/><dc:creator><cc:Agent><dc:title>Sixsixfive (sixsixfive.deviantart.com)</dc:title></cc:Agent></dc:creator><dc:publisher><cc:Agent><dc:title>Sixsixfive (sixsixfive.deviantart.com)</dc:title></cc:Agent></dc:publisher><dc:source>https://github.com/sixsixfive</dc:source><dc:subject><rdf:Bag><rdf:li>ivy</rdf:li></rdf:Bag></dc:subject><dc:contributor><cc:Agent><dc:title>ssf</dc:title></cc:Agent></dc:contributor><dc:rights><cc:Agent><dc:title>Sixsixfive (sixisixfive.deviantart.com)</dc:title></cc:Agent></dc:rights><dc:description>A simple icon theme published under CC-BY-SA_V4(http://creativecommons.org/licenses/by-sa/4.0)</dc:description><dc:identifier>SSF</dc:identifier></cc:Work></rdf:RDF></metadata><!--Part of the Ivy icon them published under the CC-BY-SA_V4: http://creativecommons.org/licenses/by-sa/4.0 -->
</svg>