<?xml version="1.0" encoding="UTF-8" standalone="no"?>
<svg
   xmlns:dc="http://purl.org/dc/elements/1.1/"
   xmlns:cc="http://creativecommons.org/ns#"
   xmlns:rdf="http://www.w3.org/1999/02/22-rdf-syntax-ns#"
   xmlns:svg="http://www.w3.org/2000/svg"
   xmlns="http://www.w3.org/2000/svg"
   xmlns:xlink="http://www.w3.org/1999/xlink"
   version="1.1"
   id="svg2"
   viewBox="0 0 48 48">
  <defs
     id="0">
    <linearGradient
       id="linearGradient4159">
      <stop
         id="stop4161"
         stop-color="#fff" />
      <stop
         stop-opacity="0"
         id="stop4163"
         stop-color="#fff"
         offset="1" />
    </linearGradient>
    <linearGradient
       gradientTransform="translate(-0.5117188,-0.011719)"
       x2="45.49"
       gradientUnits="userSpaceOnUse"
       x1="45.561"
       y2="37.841"
       y1="10.05"
       xlink:href="#linearGradient4159"
       id="linearGradient4165" />
  </defs>
  <path
     d="m 1,10 45,0 0,30 -45,0 z"
     id="rect4167"
     style="opacity:0.1" />
  <path
     d="M 1,9 46,9 46,39 1,39 Z"
     id="9"
     style="fill:#d02604" />
  <g
     id="g3370">
    <path
       id="path3364"
       d="m 25,25 0,-13 -9,0 z"
       style="fill:#295897;fill-rule:evenodd;stroke:none;stroke-width:1px;stroke-linecap:butt;stroke-linejoin:miter;stroke-opacity:1;fill-opacity:1" />
    <path
       style="fill:#295897;fill-rule:evenodd;stroke:none;stroke-width:1px;stroke-linecap:butt;stroke-linejoin:miter;stroke-opacity:1;fill-opacity:1"
       d="m 25,25 21,11 0,-5 z"
       id="path3358" />
    <path
       id="path3368"
       d="M 25,25 4,30 4,25 Z"
       style="fill:#295897;fill-rule:evenodd;stroke:none;stroke-width:1px;stroke-linecap:butt;stroke-linejoin:miter;stroke-opacity:1;fill-opacity:1" />
    <path
       style="fill:#295897;fill-rule:evenodd;stroke:none;stroke-width:1px;stroke-linecap:butt;stroke-linejoin:miter;stroke-opacity:1;fill-opacity:1"
       d="M 25,25 4,19 4,12 Z"
       id="path3366" />
    <path
       id="path3360"
       d="m 25,25 21,-6 0,6 z"
       style="fill:#295897;fill-rule:evenodd;stroke:none;stroke-width:1px;stroke-linecap:butt;stroke-linejoin:miter;stroke-opacity:1;fill-opacity:1" />
    <path
       style="fill:#295897;fill-rule:evenodd;stroke:none;stroke-width:1px;stroke-linecap:butt;stroke-linejoin:miter;stroke-opacity:1;fill-opacity:1"
       d="M 25,25 46,12 35,12 Z"
       id="path3362" />
  </g>
  <path
     id="path3352"
     d="M 4,36 46,36 25,25 Z"
     style="fill:#ebebeb;fill-rule:evenodd;stroke:none;stroke-width:1px;stroke-linecap:butt;stroke-linejoin:miter;stroke-opacity:1;fill-opacity:1" />
  <g
     transform="translate(47.25,4)"
     id="g5056">
    <path
       id="path3764"
       d="m -31.25,22.75 1,0 0,1 -1,0"
       style="fill:#000000;fill-opacity:0" />
    <path
       id="path3766"
       d="m -30.25,22.75 1,0 0,1 -1,0"
       style="fill:#000000;fill-opacity:0" />
    <path
       id="path3768"
       d="m -29.25,22.75 1,0 0,1 -1,0"
       style="fill:#000000;fill-opacity:0" />
    <path
       id="path3770"
       d="m -28.25,22.75 1,0 0,1 -1,0"
       style="fill:#000000;fill-opacity:0" />
    <path
       id="path3772"
       d="m -27.25,22.75 1,0 0,1 -1,0"
       style="fill:#000000;fill-opacity:0" />
    <path
       id="path3774"
       d="m -26.25,22.75 1,0 -0.25,0.75 -0.75,0.25"
       style="fill:#000000;fill-opacity:0" />
    <path
       id="path3776"
       d="m -25.25,22.75 1,0 0,1 L -25,24 -25.5,23.5"
       style="fill:#000000;fill-opacity:0" />
    <path
       id="path3786"
       d="m -20.25,22.75 1,0 0,1 -1,0"
       style="fill:#ffff00;fill-opacity:0.03137255" />
    <path
       id="path3788"
       d="m -19.25,22.75 1,0 0.25,0.75 -0.5,0.5 -0.75,-0.25"
       style="fill:#000000;fill-opacity:0" />
    <path
       id="path3790"
       d="m -18.25,22.75 1,0 0,1 L -18,23.5"
       style="fill:#000000;fill-opacity:0" />
    <path
       id="path3792"
       d="m -17.25,22.75 1,0 0,1 -1,0"
       style="fill:#000000;fill-opacity:0" />
    <path
       id="path3794"
       d="m -16.25,22.75 1,0 0,1 -1,0"
       style="fill:#000000;fill-opacity:0" />
    <path
       id="path3796"
       d="m -15.25,22.75 1,0 0,1 -1,0"
       style="fill:#000000;fill-opacity:0" />
    <path
       id="path3828"
       d="m -31.25,23.75 1,0 0,1 -1,0"
       style="fill:#000000;fill-opacity:0" />
    <path
       id="path3830"
       d="m -30.25,23.75 1,0 0,1 -1,0"
       style="fill:#000000;fill-opacity:0" />
    <path
       id="path3832"
       d="m -29.25,23.75 1,0 0,1 -1,0"
       style="fill:#000000;fill-opacity:0" />
    <path
       id="path3834"
       d="m -28.25,23.75 1,0 -0.25,0.75 -0.75,0.25"
       style="fill:#000000;fill-opacity:0" />
    <path
       id="path3836"
       d="m -27.25,23.75 1,0 0,1 L -27,25 -27.5,24.5"
       style="fill:#000000;fill-opacity:0" />
    <path
       id="path3838"
       d="m -26.25,23.75 0.75,-0.25 0.5,0.5 -0.25,0.75 -1,0"
       style="fill:#000000;fill-opacity:0" />
    <path
       id="path3844"
       d="m -23.25,23.75 1,0 0,1 -1,0"
       style="fill:#e2a293;fill-opacity:1" />
    <path
       id="path3846"
       d="m -22.25,23.75 1,0 0,1 -1,0"
       style="fill:#e7ad98;fill-opacity:1" />
    <path
       id="path3854"
       d="m -18.5,24 0.5,-0.5 0.75,0.25 0,1 -1,0"
       style="fill:#000000;fill-opacity:0" />
    <path
       id="path3856"
       d="m -17.25,23.75 1,0 0.25,0.75 -0.5,0.5 -0.75,-0.25"
       style="fill:#000000;fill-opacity:0" />
    <path
       id="path3858"
       d="m -16.25,23.75 1,0 0,1 L -16,24.5"
       style="fill:#000000;fill-opacity:0" />
    <path
       id="path3860"
       d="m -15.25,23.75 1,0 0,1 -1,0"
       style="fill:#000000;fill-opacity:0" />
    <path
       id="path3892"
       d="m -31.25,24.75 1,0 0,1 -1,0"
       style="fill:#000000;fill-opacity:0" />
    <path
       id="path3894"
       d="m -30.25,24.75 1,0 -0.25,0.75 -0.75,0.25"
       style="fill:#000000;fill-opacity:0" />
    <path
       id="path3896"
       d="m -29.25,24.75 1,0 0,1 L -29,26 -29.5,25.5"
       style="fill:#000000;fill-opacity:0" />
    <path
       id="path3898"
       d="m -28.25,24.75 0.75,-0.25 0.5,0.5 -0.25,0.75 -1,0"
       style="fill:#000000;fill-opacity:0" />
    <path
       id="path3904"
       d="m -25.25,24.75 1,0 0,1 -1,0"
       style="fill:#fefbf8;fill-opacity:1" />
    <path
       id="path3906"
       d="m -24.25,24.75 1,0 0,1 -1,0"
       style="fill:#efc3c3;fill-opacity:1" />
    <path
       id="path3908"
       d="m -23.25,24.75 1,0 0,1 -1,0"
       style="fill:#cb4133;fill-opacity:1" />
    <path
       id="path3910"
       d="m -22.25,24.75 1,0 0,1 -1,0"
       style="fill:#cd443b;fill-opacity:1" />
    <path
       id="path3912"
       d="m -21.25,24.75 1,0 -0.25,0.75 -0.75,0.25"
       style="fill:#f4dbdd;fill-opacity:1" />
    <path
       id="path3914"
       d="m -20.25,24.75 1,0 0.25,0.75 -0.5,0.5 -0.5,0 -0.5,-0.5"
       style="fill:#faf5f6;fill-opacity:1" />
    <path
       id="path3922"
       d="m -16.5,25 0.5,-0.5 0.75,0.25 0,1 L -16,25.5"
       style="fill:#000000;fill-opacity:0" />
    <path
       id="path3924"
       d="m -15.25,24.75 1,0 0.25,0.75 -0.5,0.5 -0.75,-0.25"
       style="fill:#000000;fill-opacity:0" />
    <path
       id="path3956"
       d="m -31.25,25.75 1,0 -0.25,0.75 -0.75,0.25"
       style="fill:#000000;fill-opacity:0" />
    <path
       id="path3958"
       d="M -30.25,25.75 -29.5,25.5 -29,26 -29.25,26.75 -30,27 -30.5,26.5"
       style="fill:#000000;fill-opacity:0" />
    <path
       id="path3960"
       d="m -29,26 0.75,-0.25 0,1 -1,0"
       style="fill:#550000;fill-opacity:0.01176471" />
    <path
       id="path3966"
       d="m -26.25,25.75 1,0 0,1 L -26,27 -26.5,26.5"
       style="fill:#d7e8de;fill-opacity:1" />
    <path
       id="path3968"
       d="m -25.25,25.75 1,0 0,1 -1,0"
       style="fill:#ced6cd;fill-opacity:1" />
    <path
       id="path3970"
       d="m -24.25,25.75 1,0 0,1 -1,0"
       style="fill:#fadfdc;fill-opacity:1" />
    <path
       id="path3972"
       d="m -23.25,25.75 1,0 0,1 -1,0"
       style="fill:#cb8953;fill-opacity:1" />
    <path
       id="path3974"
       d="m -22.25,25.75 1,0 0,1 -1,0"
       style="fill:#9d8093;fill-opacity:1" />
    <path
       id="path3976"
       d="m -21.25,25.75 0.75,-0.25 0.5,0.5 -0.25,0.75 -1,0"
       style="fill:#f4e3e3;fill-opacity:1" />
    <path
       id="path3978"
       d="m -20,26 0.5,0 0.25,0.75 -1,0"
       style="fill:#d5d9d1;fill-opacity:1" />
    <path
       id="path3980"
       d="m -19.5,26 0.5,-0.5 0.75,0.25 0.25,0.75 -0.5,0.5 -0.75,-0.25"
       style="fill:#e0ebdb;fill-opacity:1" />
    <path
       id="path4020"
       d="m -31.25,26.75 0.75,-0.25 0.5,0.5 -0.25,0.75 -1,0"
       style="fill:#000000;fill-opacity:0" />
    <path
       id="path4026"
       d="m -28.25,26.75 1,0 0,1 -1,0"
       style="fill:#ffffff;fill-opacity:1" />
    <path
       id="path4028"
       d="m -27.25,26.75 0.75,-0.25 0.5,0.5 -0.5,0.5 -0.75,0.25"
       style="fill:#b1cab4;fill-opacity:1" />
    <path
       id="path4030"
       d="m -26,27 0.75,-0.25 0,1 L -26,28 -26.5,27.5"
       style="fill:#759d79;fill-opacity:1" />
    <path
       id="path4032"
       d="m -25.25,26.75 1,0 -0.25,0.75 -0.75,0.25"
       style="fill:#c0bbb9;fill-opacity:1" />
    <path
       id="path4034"
       d="m -24.25,26.75 1,0 0,1 L -24,28 -24.5,27.5"
       style="fill:#e2cbc4;fill-opacity:1" />
    <path
       id="path4036"
       d="m -23.25,26.75 1,0 0,1 -1,0"
       style="fill:#d97e51;fill-opacity:1" />
    <path
       id="path4038"
       d="m -22.25,26.75 1,0 -0.25,0.75 -0.75,0.25"
       style="fill:#d48665;fill-opacity:1" />
    <path
       id="path4040"
       d="m -21.25,26.75 1,0 -0.25,0.75 -0.5,0.5 -0.5,-0.5"
       style="fill:#e7dad4;fill-opacity:1" />
    <path
       id="path4042"
       d="m -20.25,26.75 1,0 0,1 L -20,28 -20.5,27.5"
       style="fill:#a9aba2;fill-opacity:1" />
    <path
       id="path4044"
       d="m -19.25,26.75 0.75,0.25 0.25,0.75 -1,0"
       style="fill:#75a77f;fill-opacity:1" />
    <path
       id="path4046"
       d="m -18.5,27 0.5,-0.5 0.75,0.25 0.25,0.75 -0.5,0.5 -0.75,-0.25"
       style="fill:#c9d9ca;fill-opacity:1" />
    <path
       id="path4048"
       d="m -17.25,26.75 1,0 0,1 L -17,27.5"
       style="fill:#ffffff;fill-opacity:1" />
    <path
       id="path4086"
       d="m -30.25,27.75 1,0 0,1 L -30,29 -30.5,28.5"
       style="fill:#f2f1ed;fill-opacity:1" />
    <path
       id="path4088"
       d="m -29.25,27.75 1,0 0.25,0.75 -0.5,0.5 -0.75,-0.25"
       style="fill:#cfe8d8;fill-opacity:1" />
    <path
       id="path4090"
       d="m -28.25,27.75 1,0 0,1 L -28,28.5"
       style="fill:#eaecea;fill-opacity:1" />
    <path
       id="path4092"
       d="m -27.25,27.75 0.75,-0.25 0.5,0.5 -0.5,0.5 -0.75,0.25"
       style="fill:#82ac8b;fill-opacity:1" />
    <path
       id="path4094"
       d="m -26,28 0.75,-0.25 0,1 L -26,29 -26.5,28.5"
       style="fill:#84ad8d;fill-opacity:1" />
    <path
       id="path4096"
       d="m -25.25,27.75 0.75,-0.25 0.5,0.5 -0.5,0.5 -0.75,0.25"
       style="fill:#bfaca2;fill-opacity:1" />
    <path
       id="path4098"
       d="m -24,28 0.75,-0.25 0,1 L -24,29 -24.5,28.5"
       style="fill:#a5b6a3;fill-opacity:1" />
    <path
       id="path4100"
       d="m -23.25,27.75 1,0 0,1 -1,0"
       style="fill:#ebeace;fill-opacity:1" />
    <path
       id="path4102"
       d="m -22.25,27.75 0.75,-0.25 0.5,0.5 -0.25,0.75 -1,0"
       style="fill:#dee1c9;fill-opacity:1" />
    <path
       id="path4104"
       d="m -21,28 0.5,-0.5 0.5,0.5 -0.25,0.75 -1,0"
       style="fill:#a8ae9a;fill-opacity:1" />
    <path
       id="path4106"
       d="m -20,28 0.75,-0.25 0,1 -1,0"
       style="fill:#c2bdb3;fill-opacity:1" />
    <path
       id="path4108"
       d="m -19.25,27.75 1,0 0,1 -1,0"
       style="fill:#689871;fill-opacity:1" />
    <path
       id="path4110"
       d="m -18.25,27.75 0.75,0.25 0.25,0.75 -1,0"
       style="fill:#9bbaa2;fill-opacity:1" />
    <path
       id="path4112"
       d="m -17.5,28 0.5,-0.5 0.75,0.25 -0.25,0.75 -0.75,0.25"
       style="fill:#f0f2f0;fill-opacity:1" />
    <path
       id="path4114"
       d="m -16.25,27.75 1,0 0,1 L -16,29 -16.5,28.5"
       style="fill:#d1e9d9;fill-opacity:1" />
    <path
       id="path4116"
       d="m -15.25,27.75 1,0 0.25,0.75 -0.5,0.5 -0.75,-0.25"
       style="fill:#fffbfa;fill-opacity:1" />
    <path
       id="path4148"
       d="m -31.25,28.75 0.75,-0.25 0.5,0.5 -0.25,0.75 -1,0"
       style="fill:#e4eee6;fill-opacity:1" />
    <path
       id="path4150"
       d="m -30,29 0.75,-0.25 0,1 -1,0"
       style="fill:#70a87d;fill-opacity:1" />
    <path
       id="path4152"
       d="m -29.25,28.75 0.75,0.25 0.25,0.75 -1,0"
       style="fill:#839187;fill-opacity:1" />
    <path
       id="path4154"
       d="m -28.5,29 0.5,-0.5 0.75,0.25 0.25,0.75 -0.5,0.5 -0.75,-0.25"
       style="fill:#ccd9cd;fill-opacity:1" />
    <path
       id="path4156"
       d="m -27.25,28.75 0.75,-0.25 0.5,0.5 0,0.5 -0.5,0.5 -0.5,-0.5"
       style="fill:#b1cdb5;fill-opacity:1" />
    <path
       id="path4158"
       d="m -26,29 0.75,-0.25 0,1 L -26,29.5"
       style="fill:#dae3de;fill-opacity:1" />
    <path
       id="path4160"
       d="m -25.25,28.75 0.75,-0.25 0.5,0.5 -0.5,0.5 -0.75,0.25"
       style="fill:#c1c3c1;fill-opacity:1" />
    <path
       id="path4162"
       d="m -24,29 0.75,-0.25 0,1 L -24,30 -24.5,29.5"
       style="fill:#b4d3bf;fill-opacity:1" />
    <path
       id="path4164"
       d="m -23.25,28.75 1,0 0,1 -1,0"
       style="fill:#f2ab63;fill-opacity:1" />
    <path
       id="path4166"
       d="m -22.25,28.75 1,0 0,1 -1,0"
       style="fill:#f0c99d;fill-opacity:1" />
    <path
       id="path4168"
       d="m -21.25,28.75 1,0 0.25,0.75 -0.5,0.5 -0.75,-0.25"
       style="fill:#a3c2a9;fill-opacity:1" />
    <path
       id="path4170"
       d="m -20.25,28.75 1,0 0,1 L -20,29.5"
       style="fill:#d3d4d3;fill-opacity:1" />
    <path
       id="path4172"
       d="m -19.25,28.75 1,0 -0.25,0.75 -0.75,0.25"
       style="fill:#d4ded7;fill-opacity:1" />
    <path
       id="path4174"
       d="m -18.25,28.75 1,0 -0.25,0.75 -0.5,0.5 -0.5,-0.5"
       style="fill:#bed4c1;fill-opacity:1" />
    <path
       id="path4176"
       d="M -17.25,28.75 -16.5,28.5 -16,29 -16.25,29.75 -17,30 -17.5,29.5"
       style="fill:#c1d0c2;fill-opacity:1" />
    <path
       id="path4178"
       d="m -16,29 0.75,-0.25 -0.25,0.75 -0.75,0.25"
       style="fill:#748d7a;fill-opacity:1" />
    <path
       id="path4180"
       d="M -15.25,28.75 -14.5,29 -14.25,29.75 -15,30 -15.5,29.5"
       style="fill:#88b892;fill-opacity:1" />
    <path
       id="path4212"
       d="m -31.25,29.75 1,0 0.25,0.75 -0.5,0.5 -0.75,-0.25"
       style="fill:#f5f7f5;fill-opacity:1" />
    <path
       id="path4214"
       d="m -30.25,29.75 1,0 0,1 L -30,30.5"
       style="fill:#a2c3a8;fill-opacity:1" />
    <path
       id="path4216"
       d="m -29.25,29.75 1,0 0,1 -1,0"
       style="fill:#94bb9a;fill-opacity:1" />
    <path
       id="path4218"
       d="m -28.25,29.75 0.75,0.25 0.5,0.5 -0.5,0.5 -0.75,-0.25"
       style="fill:#e5e7e4;fill-opacity:1" />
    <path
       id="path4220"
       d="m -27.5,30 0.5,-0.5 0.5,0.5 0.5,0.5 -0.5,0.5 -0.5,-0.5"
       style="fill:#e8ebe9;fill-opacity:1" />
    <path
       id="path4222"
       d="m -26.5,30 0.5,-0.5 0.75,0.25 0,1 L -26,30.5"
       style="fill:#a7c4a6;fill-opacity:1" />
    <path
       id="path4224"
       d="m -25.25,29.75 0.75,-0.25 0.5,0.5 -0.25,0.75 -1,0"
       style="fill:#9bbaa2;fill-opacity:1" />
    <path
       id="path4226"
       d="m -24,30 0.75,-0.25 0,1 -1,0"
       style="fill:#d5d1b3;fill-opacity:1" />
    <path
       id="path4228"
       d="m -23.25,29.75 1,0 0,1 -1,0"
       style="fill:#67363f;fill-opacity:1" />
    <path
       id="path4230"
       d="m -22.25,29.75 1,0 0,1 -1,0"
       style="fill:#c56a26;fill-opacity:1" />
    <path
       id="path4232"
       d="m -21.25,29.75 0.75,0.25 0.5,0.5 -0.5,0.5 -0.75,-0.25"
       style="fill:#cfd8c8;fill-opacity:1" />
    <path
       id="path4234"
       d="m -20.5,30 0.5,-0.5 0.75,0.25 0,1 L -20,30.5"
       style="fill:#92b496;fill-opacity:1" />
    <path
       id="path4236"
       d="m -19.25,29.75 0.75,-0.25 0.5,0.5 0,0.5 -0.5,0.5 -0.75,-0.25"
       style="fill:#afcaae;fill-opacity:1" />
    <path
       id="path4238"
       d="m -18,30 0.5,-0.5 0.5,0.5 -0.25,0.75 L -18,30.5"
       style="fill:#e5e6e6;fill-opacity:1" />
    <path
       id="path4240"
       d="m -17,30 0.75,-0.25 -0.25,0.75 -0.75,0.25"
       style="fill:#eaefe9;fill-opacity:1" />
    <path
       id="path4242"
       d="M -16.25,29.75 -15.5,29.5 -15,30 -15.5,30.5 -16,31 -16.5,30.5"
       style="fill:#94b99a;fill-opacity:1" />
    <path
       id="path4244"
       d="m -15,30 0.75,-0.25 -0.25,0.75 -0.5,0.5 -0.5,-0.5"
       style="fill:#bbd2bf;fill-opacity:1" />
    <path
       id="path4276"
       d="m -31.25,30.75 0.75,0.25 0.25,0.75 -1,0"
       style="fill:#fefeff;fill-opacity:1" />
    <path
       id="path4278"
       d="m -30.5,31 0.5,-0.5 0.75,0.25 0,1 -1,0"
       style="fill:#ffffff;fill-opacity:1" />
    <path
       id="path4280"
       d="m -29.25,30.75 1,0 0,1 -1,0"
       style="fill:#71a171;fill-opacity:1" />
    <path
       id="path4282"
       d="m -28.25,30.75 0.75,0.25 0.25,0.75 -1,0"
       style="fill:#acc2b1;fill-opacity:1" />
    <path
       id="path4284"
       d="m -27.5,31 0.5,-0.5 0.5,0.5 0.25,0.75 -1,0"
       style="fill:#bac6b6;fill-opacity:1" />
    <path
       id="path4286"
       d="m -26.5,31 0.5,-0.5 0.75,0.25 0,1 -1,0"
       style="fill:#ebedde;fill-opacity:1" />
    <path
       id="path4288"
       d="m -25.25,30.75 1,0 0,1 -1,0"
       style="fill:#eff5f2;fill-opacity:1" />
    <path
       id="path4290"
       d="m -24.25,30.75 1,0 0,1 -1,0"
       style="fill:#f9fcf9;fill-opacity:1" />
    <path
       id="path4292"
       d="m -23.25,30.75 1,0 0,1 -1,0"
       style="fill:#eee0d9;fill-opacity:1" />
    <path
       id="path4294"
       d="m -22.25,30.75 1,0 0,1 -1,0"
       style="fill:#f3e5de;fill-opacity:1" />
    <path
       id="path4296"
       d="m -21.25,30.75 0.75,0.25 0.25,0.75 -1,0"
       style="fill:#f6faf8;fill-opacity:1" />
    <path
       id="path4298"
       d="m -20.5,31 0.5,-0.5 0.75,0.25 0,1 -1,0"
       style="fill:#f0f5f1;fill-opacity:1" />
    <path
       id="path4300"
       d="m -19.25,30.75 0.75,0.25 0.5,0.5 -0.5,0.5 -0.75,-0.25"
       style="fill:#e8ead7;fill-opacity:1" />
    <path
       id="path4302"
       d="m -18.5,31 0.5,-0.5 0.75,0.25 0,1 L -18,31.5"
       style="fill:#b1c1ad;fill-opacity:1" />
    <path
       id="path4304"
       d="m -17.25,30.75 0.75,-0.25 0.5,0.5 -0.25,0.75 -1,0"
       style="fill:#aac1b0;fill-opacity:1" />
    <path
       id="path4306"
       d="m -16,31 0.5,-0.5 0.5,0.5 -0.25,0.75 -1,0"
       style="fill:#94b996;fill-opacity:1" />
    <path
       id="path4308"
       d="m -15,31 0.5,-0.5 0.5,0.5 -0.25,0.75 -1,0"
       style="fill:#ffffff;fill-opacity:1" />
  </g>
  <circle
     r="4"
     cy="25"
     cx="25"
     id="path3378"
     style="opacity:1;fill:#ffd506;fill-opacity:1;fill-rule:evenodd;stroke:none;stroke-width:1;stroke-linecap:round;stroke-linejoin:round;stroke-miterlimit:4;stroke-dasharray:none;stroke-dashoffset:0;stroke-opacity:1" />
  <rect
     y="-39"
     x="-45.96875"
     height="3"
     width="41.96875"
     id="rect3350"
     style="opacity:1;fill:#ffd506;fill-opacity:1;fill-rule:evenodd;stroke:none;stroke-width:1;stroke-linecap:round;stroke-linejoin:round;stroke-miterlimit:4;stroke-dasharray:none;stroke-dashoffset:0;stroke-opacity:1"
     transform="scale(-1,-1)" />
  <rect
     transform="matrix(0,1,-1,0,0,0)"
     style="opacity:1;fill:#ffd506;fill-opacity:1;fill-rule:evenodd;stroke:none;stroke-width:1;stroke-linecap:round;stroke-linejoin:round;stroke-miterlimit:4;stroke-dasharray:none;stroke-dashoffset:0;stroke-opacity:1"
     id="rect3348"
     width="26.96875"
     height="3"
     x="12"
     y="-4" />
  <rect
     y="9"
     x="1"
     height="3"
     width="45"
     id="rect3346"
     style="opacity:1;fill:#ffd506;fill-opacity:1;fill-rule:evenodd;stroke:none;stroke-width:1;stroke-linecap:round;stroke-linejoin:round;stroke-miterlimit:4;stroke-dasharray:none;stroke-dashoffset:0;stroke-opacity:1" />
  <path
     id="C"
     d="m 1.53125,9.53125 0,28.9375 43.9375,0 0,-28.9375 -43.9375,0 z"
     style="opacity:0.4;fill:none;stroke:#000000" />
  <path
     id="path4157"
     d="m 2.5,10.5 0,26.976562 41.976562,0 0,-26.976562 L 2.5,10.5 Z"
     style="opacity:0.4;fill:none;stroke:url(#linearGradient4165)" />
  <metadata
     id="metadata9999">
    <rdf:RDF>
      <cc:Work>
        <dc:format>image/svg+xml</dc:format>
        <dc:type
           rdf:resource="http://purl.org/dc/dcmitype/StillImage" />
        <dc:title></dc:title>
        <cc:license
           rdf:resource="http://creativecommons.org/licenses/by-sa/4.0/" />
        <dc:creator>
          <cc:Agent>
            <dc:title>Sixsixfive (sixsixfive.deviantart.com)</dc:title>
          </cc:Agent>
        </dc:creator>
        <dc:publisher>
          <cc:Agent>
            <dc:title>Sixsixfive (sixsixfive.deviantart.com)</dc:title>
          </cc:Agent>
        </dc:publisher>
        <dc:source>https://github.com/sixsixfive</dc:source>
        <dc:subject>
          <rdf:Bag>
            <rdf:li>ivy</rdf:li>
          </rdf:Bag>
        </dc:subject>
        <dc:contributor>
          <cc:Agent>
            <dc:title>ssf</dc:title>
          </cc:Agent>
        </dc:contributor>
        <dc:rights>
          <cc:Agent>
            <dc:title>Sixsixfive (sixisixfive.deviantart.com)</dc:title>
          </cc:Agent>
        </dc:rights>
        <dc:description>A simple icon theme published under CC-BY-SA_V4(http://creativecommons.org/licenses/by-sa/4.0)</dc:description>
        <dc:identifier>SSF</dc:identifier>
      </cc:Work>
    </rdf:RDF>
  </metadata>
  <!--Part of the Ivy icon them published under the CC-BY-SA_V4: http://creativecommons.org/licenses/by-sa/4.0 -->
</svg>
