<?xml version="1.0" encoding="UTF-8" standalone="no"?>
<svg xmlns:dc="http://purl.org/dc/elements/1.1/" xmlns:cc="http://creativecommons.org/ns#" xmlns:rdf="http://www.w3.org/1999/02/22-rdf-syntax-ns#" xmlns:svg="http://www.w3.org/2000/svg" xmlns="http://www.w3.org/2000/svg" xmlns:xlink="http://www.w3.org/1999/xlink" viewBox="0 0 32 32" id="svg2" version="1.1">
 <defs id="defs4">
  <linearGradient id="0" xlink:href="#5" y1="3" y2="20.25" x2="0" gradientUnits="userSpaceOnUse"/>
  <linearGradient id="1" y1="3.973" x1="45.934" y2="44.24" x2="46.2" gradientUnits="userSpaceOnUse" gradientTransform="matrix(0.50026 0 0 0.48817 8.994 9.03)">
   <stop stop-color="#ed4c70" id="stop8"/>
   <stop offset="1" stop-color="#f2829c" id="stop10"/>
  </linearGradient>
  <linearGradient id="2" y1="20" x1="8.995" y2="18" x2="19" gradientUnits="userSpaceOnUse">
   <stop id="stop13"/>
   <stop offset="1" stop-opacity="0" id="stop15"/>
  </linearGradient>
  <linearGradient id="3" y1="7.121" x1="30.881" y2="32.477" x2="31.447" gradientUnits="userSpaceOnUse">
   <stop stop-color="#5288d1" id="stop18"/>
   <stop offset="1" stop-color="#96b7e3" id="stop20"/>
  </linearGradient>
  <linearGradient id="4" y1="3.993" x1="3.153" y2="22.971" x2="2.281" gradientUnits="userSpaceOnUse" gradientTransform="matrix(0.66 0 0 0.67035 0.68 -0.626)">
   <stop stop-color="#eeeeec" id="stop23"/>
   <stop offset="1" stop-color="#555753" id="stop25"/>
  </linearGradient>
  <linearGradient id="5">
   <stop stop-color="#fff" id="stop28"/>
   <stop offset="1" stop-color="#fff" stop-opacity="0" id="stop30"/>
  </linearGradient>
  <linearGradient id="6" xlink:href="#5" y1="-2.712" x1="30.14" y2="28" x2="30" gradientUnits="userSpaceOnUse"/>
 </defs>
 <g id="g33" color="#000">
  <g id="g35" fill-rule="evenodd">
   <path d="m 17.5719,8.0072 c -0.27423,0 -0.437851,0.175496 -0.556875,0.404122 -0.03967,0.07621 -0.06918,0.159325 -0.103125,0.242475 l -0.5156,1.2932 -0.5362,1.3931 c -0.03395,0.08315 -0.06345,0.166264 -0.103125,0.242473 -0.119024,0.228626 -0.28892,0.461265 -0.556875,0.404123 l -6.06375,0 -3.17625,0 -3.96,0 0,17.2977 c 0,0.358215 0.29436,0.646598 0.66,0.646598 l 27.72,0 c 0.36564,0 0.66,-0.288383 0.66,-0.646598 l 0,-20.6306 c 0,-0.358215 -0.317071,-0.522318 -0.66,-0.646597 l -3.56812,0 -5.67188,0 z" id="path37" opacity="0.2"/>
   <path d="m 4.8463,2.0554 c -0.36564,0 -0.524205,0.32554 -0.66,0.670353 l -0.7837,2.3111 -0.7425,0 c -0.36564,0 -0.66,0.298977 -0.66,0.670353 l 0,22.4291 c 0,0.371376 0.29436,0.670353 0.66,0.670353 l 27.72,0 c 0.36564,0 0.66,-0.298977 0.66,-0.670353 l 0,-22.4291 c 0,-0.371375 -0.29436,-0.670353 -0.66,-0.670353 l -14.85,0 -0.7837,-2.3111 C 14.610605,2.38094 14.45204,2.0554 14.0864,2.0554 Z" id="path39" fill="url(#4)"/>
  </g>
  <g id="g41" fill="none">
   <path d="M 5.2188,3.5938 C 4.929836,4.300017 4.709741,5.06096 4.31255,5.75005 l 0.03125,0 C 4.288476,5.863006 4.232934,5.928823 4.18755,6.00005 4.142166,6.071277 4.072991,6.150054 4.00005,6.18755 3.854167,6.262541 3.709231,6.242781 3.4063,6.25005 a 0.123953,0.123953 0 0 1 -0.03125,0 C 3.232089,6.206978 3.175275,6.234008 3.1563,6.25005 3.137325,6.266092 3.129514,6.310153 3.12505,6.4063 c -0.00893,0.192294 0.051929,0.481091 0,0.71875 l 0,20.5312 26.7812,0 0,-21.4062 -14.375,0 C 15.219462,6.264484 15.06133,6.272968 14.90625,6.18755 14.82871,6.144841 14.765392,6.080093 14.71875,6.00005 14.672108,5.920007 14.617303,5.844204 14.5625,5.7188 14.210939,5.04286 13.991307,4.2817 13.71875,3.5938 l -8.5,0 z" transform="matrix(0.97069,0,0,0.9897,0.505,0.037)" id="path43" opacity="0.67" stroke="#fff" stroke-linejoin="round" stroke-width="1.02"/>
   <path d="M 4.9824,2.5712 C 4.904271,2.5712 4.894577,2.587355 4.839709,2.654498 4.78484,2.721641 4.720004,2.845684 4.656249,3.00851 l -0.7746,2.1987 C 3.831019,5.34073 3.695659,5.435798 3.555498,5.436279 l -0.73384,0 c -0.172995,0 -0.305767,0.135637 -0.305767,0.312366 l 0,22.3949 c 0,0.176729 0.132772,0.312366 0.305767,0.312366 l 27.3967,0 c 0.172995,0 0.305767,-0.135637 0.305767,-0.312366 l 0,-22.3949 c 0,-0.176729 -0.132772,-0.312366 -0.305767,-0.312366 l -14.6768,0 C 15.401397,5.435801 15.266037,5.340733 15.215407,5.207213 l -0.7746,-2.1987 C 14.377049,2.845684 14.312215,2.72164 14.257346,2.654498 14.202476,2.587355 14.192786,2.5712 14.11466,2.5712 Z" id="path45" opacity="0.4" stroke="#000"/>
  </g>
  <path d="m 17.5719,7.0068 c -0.27423,0 -0.437851,0.175496 -0.556875,0.404122 -0.03967,0.07621 -0.06918,0.159325 -0.103125,0.242475 l -0.5156,1.2932 -0.5362,1.3931 c -0.03395,0.08315 -0.06345,0.166264 -0.103125,0.242473 -0.119024,0.228626 -0.28892,0.461265 -0.556875,0.404123 l -6.06375,0 -3.17625,0 -3.96,0 0,17.2977 c 0,0.358215 0.29436,0.646598 0.66,0.646598 l 27.72,0 c 0.36564,0 0.66,-0.288383 0.66,-0.646598 l 0,-20.6306 c 0,-0.358215 -0.317071,-0.522318 -0.66,-0.646597 l -3.56812,0 -5.6719,0 z" id="path47" fill="url(#3)" fill-rule="evenodd"/>
  <g id="g49" fill="none">
   <path d="m 17.5374,7.4814 c -0.05898,0 -0.06693,0.011853 -0.101773,0.039913 -0.03485,0.02806 -0.09678,0.091787 -0.142479,0.179611 -0.02424,0.04659 -0.044,0.107864 -0.08142,0.199567 l -0.5089,1.2772 -0.5292,1.2772 c -0.02959,0.07254 -0.06807,0.175457 -0.122127,0.279394 -0.07178,0.137984 -0.162407,0.483818 -0.305316,0.598873 -0.142908,0.115057 -0.342757,0.223749 -0.549567,0.179611 l -5.98419,0 -3.13458,0 -3.56202,0 0,16.6438 c 0,0.169306 0.132636,0.299351 0.305316,0.299351 l 27.3563,0 c 0.17268,0 0.305316,-0.130045 0.305316,-0.299351 l 0,-20.3759 c 0,-0.169307 -0.143362,-0.240612 -0.305316,-0.299352 l -3.52131,0 -5.5975,0 z" id="path51" opacity="0.4" stroke="#000"/>
   <path d="m 18.0938,8.5 -0.4375,1.0625 -0.5,1.2812 c -0.06451,0.158155 -0.140936,0.254219 -0.1875,0.34375 0.05082,-0.0977 -0.02435,0.08138 -0.09375,0.25 -0.0694,0.168623 -0.06346,0.392454 -0.46875,0.71875 -0.338692,0.272685 -0.823522,0.474787 -1.4375,0.34375 l 0.2188,0.0312 -5.96875,0 -3.15625,0 -2.5,0 0,14.9062 25.875,0 0,-18.9375 -2.78125,0 -5.59375,0 -2.96875,0 z" id="path53" opacity="0.4" stroke="url(#6)"/>
  </g>
 </g>
 <path opacity="0.2" d="M 15.757593 12.02726 C 12.568257 12.03564 9.986679 14.580565 9.995134 17.708045 10.01236 24.07051 16.561813 25.721646 21.03875 32 c 4.199613 -6.262341 10.982784 -8.189929 10.966076 -14.349266 -0.0085 -3.1275 -2.603775 -5.659012 -5.793126 -5.650714 -2.313418 0.0062 -4.300895 1.350708 -5.218224 3.280273 -0.927774 -1.924761 -2.922506 -3.25908 -5.235934 -3.253057 z" id="path55"/>
 <path opacity="0.2" d="M 15.757593 10.02726 C 12.568257 10.03564 9.986679 12.580565 9.995134 15.708045 10.01236 22.07051 16.561813 23.721646 21.03875 30 c 4.199613 -6.262341 10.982784 -8.189929 10.966076 -14.349266 -0.0085 -3.1275 -2.603775 -5.659012 -5.793126 -5.650714 -2.313418 0.0062 -4.300895 1.350708 -5.218224 3.280273 -0.927774 -1.924761 -2.922506 -3.25908 -5.235934 -3.253057 z" id="path57"/>
 <path opacity="0.2" fill="url(#2)" d="M 14.75748 10.02726 C 11.568144 10.03564 8.986566 12.580565 8.995021 15.708045 9.01224 22.07051 15.5617 23.721646 20.03864 30 24.23825 23.737659 31.02142 21.810071 31.00471 15.650734 c -0.0085 -3.1275 -2.603775 -5.659012 -5.793126 -5.650714 -2.313418 0.0062 -4.300895 1.350708 -5.218224 3.280273 -0.927774 -1.924761 -2.922506 -3.25908 -5.235934 -3.253057 z" id="path59"/>
 <path fill="url(#1)" d="M 15.757593 11.02726 C 12.568257 11.03564 9.986679 13.580565 9.995134 16.708045 10.01236 23.07051 16.561813 24.721646 21.03875 31 c 4.199613 -6.262341 10.982784 -8.189929 10.966076 -14.349266 -0.0085 -3.1275 -2.603775 -5.659012 -5.793126 -5.650714 -2.313418 0.0062 -4.300895 1.350708 -5.218224 3.280273 -0.927774 -1.924761 -2.922506 -3.25908 -5.235934 -3.253057 z" id="path61"/>
 <g transform="translate(9,8.981)" id="g63" fill="none">
  <path d="m 17.21875,2.5 c -2.124872,0.00568 -3.943569,1.237972 -4.78125,3 a 0.488254,0.488254 0 0 1 -0.875,0 C 10.716178,3.74422 8.875402,2.525716 6.75,2.53125 3.820367,2.53895 1.49227,4.859348 1.5,7.71875 c 0.00816,3.01415 1.491304,4.850472 3.65625,6.8125 2.04324,1.85173 4.661269,3.778157 6.875,6.6875 2.096446,-2.909181 4.684044,-4.88853 6.75,-6.78125 C 20.972945,12.429585 22.507867,10.556495 22.5,7.65625 22.492242,4.79688 20.14851,2.492377 17.21875,2.5 Z" id="path65" opacity="0.4" stroke="#000"/>
  <path d="m 17.21875,3.5 c -1.736348,0.00464 -3.201445,1.020703 -3.875,2.4375 a 1.494366,1.494366 0 0 1 -2.6875,0 C 9.977771,4.529928 8.48795,3.526725 6.75,3.53125 4.355517,3.537541 2.493764,5.411757 2.5,7.71875 2.50723,10.388594 3.742882,11.877294 5.84375,13.78125 7.601337,15.374101 9.883563,17.260009 12,19.75 14.03522,17.242667 16.310708,15.321029 18.09375,13.6875 20.228511,11.731745 21.506864,10.186768 21.5,7.65625 21.493741,5.349396 19.613602,3.493769 17.21875,3.5 Z" id="path67" opacity="0.4" stroke="url(#0)"/>
 </g>
 <metadata id="metadata9999">
  <rdf:RDF>
   <cc:Work>
    <dc:format>image/svg+xml</dc:format>
    <dc:type rdf:resource="http://purl.org/dc/dcmitype/StillImage"/>
    <dc:title>Ivy icon theme</dc:title>
    <cc:license rdf:resource="http://creativecommons.org/licenses/by-sa/4.0/"/>
    <dc:creator>
     <cc:Agent>
      <dc:title>Sixsixfive (sixsixfive.deviantart.com)</dc:title>
     </cc:Agent>
    </dc:creator>
    <dc:publisher>
     <cc:Agent>
      <dc:title>Sixsixfive (sixsixfive.deviantart.com)</dc:title>
     </cc:Agent>
    </dc:publisher>
    <dc:source>https://github.com/sixsixfive</dc:source>
    <dc:subject>
     <rdf:Bag>
      <rdf:li>ivy</rdf:li>
     </rdf:Bag>
    </dc:subject>
    <dc:contributor>
     <cc:Agent>
      <dc:title>ssf</dc:title>
     </cc:Agent>
    </dc:contributor>
    <dc:rights>
     <cc:Agent>
      <dc:title>Sixsixfive (sixisixfive.deviantart.com)</dc:title>
     </cc:Agent>
    </dc:rights>
    <dc:description>A simple icon theme published under CC-BY-SA_V4(http://creativecommons.org/licenses/by-sa/4.0)</dc:description>
    <dc:identifier>SSF</dc:identifier>
   </cc:Work>
  </rdf:RDF>
 </metadata>
 <!--Part of the Ivy icon them published under the CC-BY-SA_V4: http://creativecommons.org/licenses/by-sa/4.0 -->
</svg>
