<?xml version="1.0" encoding="UTF-8" standalone="no"?><svg xmlns:xlink="http://www.w3.org/1999/xlink" xmlns:cc="http://creativecommons.org/ns#" viewBox="0 0 32 32" version="1.1" id="svg2" xmlns:svg="http://www.w3.org/2000/svg" xmlns:rdf="http://www.w3.org/1999/02/22-rdf-syntax-ns#" xmlns="http://www.w3.org/2000/svg" xmlns:dc="http://purl.org/dc/elements/1.1/"><defs id="defs4"><linearGradient x2="63.03" gradientUnits="userSpaceOnUse" x1="66.872" id="e" y2="0.363" y1="77.14"><stop id="stop23" stop-color="#fff"/><stop offset="1" id="stop25" stop-color="#ebebeb"/></linearGradient><linearGradient x2="0" gradientUnits="userSpaceOnUse" id="d" y2="17" gradientTransform="matrix(0.71763 0 0 0.74763 -1.2047 -0.70974)" y1="8.766"><stop id="stop28" stop-color="#171717"/><stop offset="1" id="stop30" stop-color="#6a6a6a"/></linearGradient><linearGradient x2="0" gradientUnits="userSpaceOnUse" id="c" y2="46" gradientTransform="matrix(0.7 0 0 0.68293 -0.8 -0.41463)" y1="5"><stop id="stop39" stop-color="#5288d1"/><stop offset="1" id="stop41" stop-color="#8aafe0"/></linearGradient><linearGradient x2="63.03" gradientUnits="userSpaceOnUse" x1="66.872" xlink:href="#e" id="a" y2="0.363" y1="77.14"/><linearGradient x2="0" gradientUnits="userSpaceOnUse" id="b" y2="30.03" y1="3.973"><stop id="stop4312" stop-color="#fff"/><stop offset="1" stop-opacity="0" id="stop4314" stop-color="#fff"/></linearGradient></defs><rect height="28" width="28" opacity="0.1" rx="1.446" ry="1.446" id="rect4318" x="2" y="4"/><rect height="28" width="28" rx="1.446" ry="1.446" fill="url(#c)" id="rect63" x="2" y="3"/><g fill-rule="evenodd" stroke-linejoin="round" opacity="0.4" fill="url(#a)" id="g4290" stroke="#0b192b" stroke-width="8.49" stroke-linecap="round" transform="matrix(0.175 0 0 0.17839 9 14.729)"><path id="path4292" d="M 54.962,37.281 72.1,27.019 79.778,41.854 c 1.8547,8.1052 -8.3091,11.08 -16.47,10.596 L 54.962,37.281 Z"/><path id="path4294" d="m 51.068,47.877 -9.014,15.95 9.014,16.173 0.2226,-6.4693 8.2349,0 c 3.0046,0.26025 6.8995,-1.7103 8.3462,-4.5731 l 10.572,-19.408 c -3.4868,3.4577 -7.9704,4.35 -13.131,4.35 l -13.91,0 -0.3338,-6.0231 z"/><path id="path4296" d="M 30.928,28.212 13.659,18.175 22.872,4.245 c 6.1698,-5.5594 13.698,1.9035 17.237,9.2895 l -9.1809,14.677 z"/><path id="path4298" d="M 42.062,26.482 60.35,26.639 70.082,10.89 64.331,13.835 60.334,6.6183 C 59.103,3.859 55.493,1.4023 52.294,1.5241 l -22.061,0.156 c 4.7086,1.3772 7.6632,4.8732 10.168,9.3957 l 6.7518,12.19 -5.0918,3.2161 z"/><path id="path4300" d="m 0.444,27.381 5.3508,4.1012 -5.0361,9.4644 c -2.518,4.3641 1.8078,8.6156 4.5639,10.095 2.7133,1.4568 6.9246,1.63 10.859,1.5774 l 7.0819,-11.357 5.3508,2.8393 -9.2852,-16.878 -18.885,0.1577 z"/><path id="path4302" d="m 1.2309,49.307 11.488,20.822 c 2.3082,2.8919 6.6623,3.5754 11.174,3.4703 l 12.118,0 0,-19.718 -22.977,-0.1577 c -3.5671,0.211 -8.2359,-0.525 -11.803,-4.416 z"/></g><g fill-rule="evenodd" fill="url(#a)" id="g69" transform="matrix(0.175 0 0 0.17839 9 14.729)"><path id="path71" d="M 54.962,37.281 72.1,27.019 79.778,41.854 c 1.8547,8.1052 -8.3091,11.08 -16.47,10.596 L 54.962,37.281 Z"/><path id="path73" d="m 51.068,47.877 -9.014,15.95 9.014,16.173 0.2226,-6.4693 8.2349,0 c 3.0046,0.26025 6.8995,-1.7103 8.3462,-4.5731 l 10.572,-19.408 c -3.4868,3.4577 -7.9704,4.35 -13.131,4.35 l -13.91,0 -0.3338,-6.0231 z"/><path id="path75" d="M 30.928,28.212 13.659,18.175 22.872,4.245 c 6.1698,-5.5594 13.698,1.9035 17.237,9.2895 l -9.1809,14.677 z"/><path id="path77" d="M 42.062,26.482 60.35,26.639 70.082,10.89 64.331,13.835 60.334,6.6183 C 59.103,3.859 55.493,1.4023 52.294,1.5241 l -22.061,0.156 c 4.7086,1.3772 7.6632,4.8732 10.168,9.3957 l 6.7518,12.19 -5.0918,3.2161 z"/><path id="path79" d="m 0.444,27.381 5.3508,4.1012 -5.0361,9.4644 c -2.518,4.3641 1.8078,8.6156 4.5639,10.095 2.7133,1.4568 6.9246,1.63 10.859,1.5774 l 7.0819,-11.357 5.3508,2.8393 -9.2852,-16.878 -18.885,0.1577 z"/><path id="path81" d="m 1.2309,49.307 11.488,20.822 c 2.3082,2.8919 6.6623,3.5754 11.174,3.4703 l 12.118,0 0,-19.718 -22.977,-0.1577 c -3.5671,0.211 -8.2359,-0.525 -11.803,-4.416 z"/></g><rect height="6.156" width="21.529" rx="1.158" ry="1.158" fill="url(#d)" id="rect83" x="5.254" y="5.844"/><rect height="1" width="20" opacity="0.21" rx="0.357" ry="0.357" fill="#fff" id="rect91" x="6" y="12"/><path opacity="0.4" fill="none" id="path4306" stroke="#000" d="m3.4453 3.457c-0.55554 0-0.98828 0.43274-0.98828 0.98828v25.109c0 0.55554 0.43274 0.98828 0.98828 0.98828h25.109c0.55554 0 0.98828-0.43274 0.98828-0.98828v-25.109c0-0.55554-0.43274-0.98828-0.98828-0.98828h-25.109z"/><path opacity="0.4" fill="none" id="path4308" stroke="url(#b)" d="m3.4727 4.4727v25.055h25.055v-25.055h-25.055z"/><metadata id="metadata9999"><rdf:RDF><cc:Work><dc:format>image/svg+xml</dc:format><dc:type rdf:resource="http://purl.org/dc/dcmitype/StillImage"/><dc:title>Ivy icon theme</dc:title><cc:license rdf:resource="http://creativecommons.org/licenses/by-sa/4.0/"/><dc:creator><cc:Agent><dc:title>Sixsixfive (sixsixfive.deviantart.com)</dc:title></cc:Agent></dc:creator><dc:publisher><cc:Agent><dc:title>Sixsixfive (sixsixfive.deviantart.com)</dc:title></cc:Agent></dc:publisher><dc:source>https://github.com/sixsixfive</dc:source><dc:subject><rdf:Bag><rdf:li>ivy</rdf:li></rdf:Bag></dc:subject><dc:contributor><cc:Agent><dc:title>ssf</dc:title></cc:Agent></dc:contributor><dc:rights><cc:Agent><dc:title>Sixsixfive (sixisixfive.deviantart.com)</dc:title></cc:Agent></dc:rights><dc:description>A simple icon theme published under CC-BY-SA_V4(http://creativecommons.org/licenses/by-sa/4.0)</dc:description><dc:identifier>SSF</dc:identifier></cc:Work></rdf:RDF></metadata><!--Part of the Ivy icon them published under the CC-BY-SA_V4: http://creativecommons.org/licenses/by-sa/4.0 -->
</svg>