<?xml version="1.0" encoding="UTF-8" standalone="no"?><svg xmlns:cc="http://creativecommons.org/ns#" xmlns:dc="http://purl.org/dc/elements/1.1/" xmlns="http://www.w3.org/2000/svg" xmlns:svg="http://www.w3.org/2000/svg" xmlns:rdf="http://www.w3.org/1999/02/22-rdf-syntax-ns#" id="svg2" version="1.1" viewBox="0 0 32 32"><defs id="defs4"><linearGradient gradientTransform="matrix(0.66 0 0 0.67035 0.68 -0.626)" gradientUnits="userSpaceOnUse" y1="3.993" id="0" x1="3.153" y2="22.971" x2="2.281"><stop id="stop7" stop-color="#eeeeec"/><stop id="stop9" stop-color="#555753" offset="1"/></linearGradient><linearGradient gradientTransform="matrix(1 0 0 0.81786 0 5.269)" gradientUnits="userSpaceOnUse" y1="7.121" id="1" x1="30.881" y2="30.15" x2="31.04"><stop id="stop12" stop-color="#6a6a6a"/><stop id="stop14" stop-color="#999" offset="1"/></linearGradient><linearGradient gradientUnits="userSpaceOnUse" y1="12" id="2" x1="31" y2="28.807" x2="31.04"><stop id="stop17" stop-color="#fff"/><stop stop-opacity="0" id="stop19" stop-color="#fff" offset="1"/></linearGradient></defs><g color="#000" id="g21"><g id="g23" fill-rule="evenodd"><path opacity="0.2" d="m 17.5719,8.0072 c -0.27423,0 -0.437851,0.175496 -0.556875,0.404122 -0.03967,0.07621 -0.06918,0.159325 -0.103125,0.242475 l -0.5156,1.2932 -0.5362,1.3931 c -0.03395,0.08315 -0.06345,0.166264 -0.103125,0.242473 -0.119024,0.228626 -0.28892,0.461265 -0.556875,0.404123 l -6.06375,0 -3.17625,0 -3.96,0 0,17.2977 c 0,0.358215 0.29436,0.646598 0.66,0.646598 l 27.72,0 c 0.36564,0 0.66,-0.288383 0.66,-0.646598 l 0,-20.6306 c 0,-0.358215 -0.317071,-0.522318 -0.66,-0.646597 l -3.56812,0 -5.67188,0 z" id="path25"/><path d="m 4.8463,2.0554 c -0.36564,0 -0.524205,0.32554 -0.66,0.670353 l -0.7837,2.3111 -0.7425,0 c -0.36564,0 -0.66,0.298977 -0.66,0.670353 l 0,22.4291 c 0,0.371376 0.29436,0.670353 0.66,0.670353 l 27.72,0 c 0.36564,0 0.66,-0.298977 0.66,-0.670353 l 0,-22.4291 c 0,-0.371375 -0.29436,-0.670353 -0.66,-0.670353 l -14.85,0 -0.7837,-2.3111 C 14.610605,2.38094 14.45204,2.0554 14.0864,2.0554 Z" id="path27" fill="url(#0)"/></g><g id="g29" fill="none"><path transform="matrix(0.97069 0 0 0.9897 0.505 0.037)" stroke="#fff" stroke-width="1.02" opacity="0.67" d="M 5.2188,3.5938 C 4.929836,4.300017 4.709741,5.06096 4.31255,5.75005 l 0.03125,0 C 4.288476,5.863006 4.232934,5.928823 4.18755,6.00005 4.142166,6.071277 4.072991,6.150054 4.00005,6.18755 3.854167,6.262541 3.709231,6.242781 3.4063,6.25005 a 0.123953,0.123953 0 0 1 -0.03125,0 C 3.232089,6.206978 3.175275,6.234008 3.1563,6.25005 3.137325,6.266092 3.129514,6.310153 3.12505,6.4063 c -0.00893,0.192294 0.051929,0.481091 0,0.71875 l 0,20.5312 26.7812,0 0,-21.4062 -14.375,0 C 15.219462,6.264484 15.06133,6.272968 14.90625,6.18755 14.82871,6.144841 14.765392,6.080093 14.71875,6.00005 14.672108,5.920007 14.617303,5.844204 14.5625,5.7188 14.210939,5.04286 13.991307,4.2817 13.71875,3.5938 l -8.5,0 z" stroke-linejoin="round" id="path31"/><path stroke="#000" opacity="0.4" d="M 4.9824,2.5712 C 4.904271,2.5712 4.894577,2.587355 4.839709,2.654498 4.78484,2.721641 4.720004,2.845684 4.656249,3.00851 l -0.7746,2.1987 C 3.831019,5.34073 3.695659,5.435798 3.555498,5.436279 l -0.73384,0 c -0.172995,0 -0.305767,0.135637 -0.305767,0.312366 l 0,22.3949 c 0,0.176729 0.132772,0.312366 0.305767,0.312366 l 27.3967,0 c 0.172995,0 0.305767,-0.135637 0.305767,-0.312366 l 0,-22.3949 c 0,-0.176729 -0.132772,-0.312366 -0.305767,-0.312366 l -14.6768,0 C 15.401397,5.435801 15.266037,5.340733 15.215407,5.207213 l -0.7746,-2.1987 C 14.377049,2.845684 14.312215,2.72164 14.257346,2.654498 14.202476,2.587355 14.192786,2.5712 14.11466,2.5712 Z" id="path33"/></g><path d="m 17.5719,11 c -0.27423,0 -0.437851,0.143531 -0.556875,0.330515 -0.03967,0.06233 -0.06918,0.130306 -0.103125,0.198311 l -0.5156,1.057656 -0.5362,0.939102 c -0.03395,0.06801 -0.06345,0.13598 -0.103125,0.198309 -0.119024,0.186984 -0.28892,0.37725 -0.556875,0.330516 l -6.06375,0 -3.17625,0 -4.9601,0 1.0001,14.347353 c 0.020372,0.29226 0.29436,0.528826 0.66,0.528826 l 27.72,0 c 0.36564,0 0.642669,-0.23637 0.66,-0.528826 L 32.04,11.528825 C 32.05733,11.236369 31.722929,11.10164 31.38,11 l -4.56802,0 -5.6719,0 z" id="path35" fill-rule="evenodd" fill="url(#1)"/><g id="g37" fill="none"><path stroke="#000" opacity="0.4" d="m 17.5625,11.5625 c -0.283311,0.466785 -0.546321,0.96349 -0.838384,1.5335 -0.325293,0.711988 -0.731275,1.591365 -1.701755,1.416 l -13.428611,0 0.96875,13.863 27.8125,0 c 0.234359,-0.186971 0.07853,-0.842609 0.166076,-1.211452 L 31.46875,11.625 c -1.163375,-0.139322 -2.357901,-0.0256 -3.533884,-0.0625 z" id="path39"/><path stroke="url(#2)" opacity="0.4" d="m 18.15625,12.5625 c -0.561994,1.119628 -0.875139,2.214605 -2.093549,2.800887 -0.876294,0.296835 -1.82103,0.08952 -2.7329,0.149225 l -10.642301,0 L 3.5,27.375 l 26.03125,0 0.875,-14.8125 z" id="path41"/></g></g><metadata id="metadata9999"><rdf:RDF><cc:Work><dc:format>image/svg+xml</dc:format><dc:type rdf:resource="http://purl.org/dc/dcmitype/StillImage"/><dc:title>Ivy icon theme</dc:title><cc:license rdf:resource="http://creativecommons.org/licenses/by-sa/4.0/"/><dc:creator><cc:Agent><dc:title>Sixsixfive (sixsixfive.deviantart.com)</dc:title></cc:Agent></dc:creator><dc:publisher><cc:Agent><dc:title>Sixsixfive (sixsixfive.deviantart.com)</dc:title></cc:Agent></dc:publisher><dc:source>https://github.com/sixsixfive</dc:source><dc:subject><rdf:Bag><rdf:li>ivy</rdf:li></rdf:Bag></dc:subject><dc:contributor><cc:Agent><dc:title>ssf</dc:title></cc:Agent></dc:contributor><dc:rights><cc:Agent><dc:title>Sixsixfive (sixisixfive.deviantart.com)</dc:title></cc:Agent></dc:rights><dc:description>A simple icon theme published under CC-BY-SA_V4(http://creativecommons.org/licenses/by-sa/4.0)</dc:description><dc:identifier>SSF</dc:identifier></cc:Work></rdf:RDF></metadata><!--Part of the Ivy icon them published under the CC-BY-SA_V4: http://creativecommons.org/licenses/by-sa/4.0 -->
</svg>