<?xml version="1.0" encoding="UTF-8" standalone="no"?><svg xmlns:xlink="http://www.w3.org/1999/xlink" xmlns:cc="http://creativecommons.org/ns#" viewBox="0 0 48 48" version="1.1" id="svg2" xmlns:svg="http://www.w3.org/2000/svg" xmlns:rdf="http://www.w3.org/1999/02/22-rdf-syntax-ns#" xmlns="http://www.w3.org/2000/svg" xmlns:dc="http://purl.org/dc/elements/1.1/"><defs id="defs4"><linearGradient x2="46" gradientUnits="userSpaceOnUse" x1="45.932" y2="43.631" id="1" y1="9.868"><stop stop-color="#5288d1" id="stop8"/><stop offset="1" stop-color="#96b7e3" id="stop10"/></linearGradient><linearGradient x2="2.281" gradientUnits="userSpaceOnUse" x1="3.153" y2="22.971" id="3" y1="3.993"><stop stop-color="#eeeeec" id="stop18"/><stop offset="1" stop-color="#555753" id="stop20"/></linearGradient><linearGradient id="4"><stop stop-color="#fff" id="stop23"/><stop offset="1" stop-opacity="0" stop-color="#fff" id="stop25"/></linearGradient><linearGradient x2="0" gradientUnits="userSpaceOnUse" xlink:href="#4" y2="47.556" id="5" y1="-6.975"/><linearGradient x2="0" gradientUnits="userSpaceOnUse" xlink:href="#4" y2="12" id="linearGradient3872" y1="1.5"/><linearGradient x2="0" gradientUnits="userSpaceOnUse" xlink:href="#A" y2="41.29" id="linearGradient3069" y1="9.966" gradientTransform="matrix(0.39985071 0 0 0.43100678 27.10864 28.705269)"/><linearGradient x2="0" gradientUnits="userSpaceOnUse" xlink:href="#B" y2="41.29" id="linearGradient3065" y1="9.966" gradientTransform="matrix(0.39985071 0 0 0.43100678 12.10864 12.204107)"/><linearGradient x2="0" gradientUnits="userSpaceOnUse" xlink:href="#D" y2="41.29" id="linearGradient3047" y1="9.966" gradientTransform="matrix(0.39985071 0 0 0.43100678 -2.891357 -4.295893)"/><linearGradient x2="0" gradientUnits="userSpaceOnUse" y2="41.29" id="D" y1="9.966" gradientTransform="matrix(0.41466 0 0 0.44697 -3.554 -3.455)"><stop stop-color="#d02604" id="V"/><stop offset="1" stop-color="#fc8068" id="W"/></linearGradient><linearGradient x2="0" gradientUnits="userSpaceOnUse" y2="41.29" id="B" y1="9.966" gradientTransform="matrix(0.41466 0 0 0.44697 -3.554 -3.455)"><stop stop-color="#5288d1" id="R"/><stop offset="1" stop-color="#9fbde5" id="S"/></linearGradient><linearGradient x2="0" gradientUnits="userSpaceOnUse" y2="41.29" id="A" y1="9.966" gradientTransform="matrix(0.41466 0 0 0.44697 -3.554 -3.455)"><stop stop-color="#66b03e" id="P"/><stop offset="1" stop-color="#abd992" id="Q"/></linearGradient></defs><g id="g28" color="#000"><g fill-rule="evenodd" id="g30"><path opacity="0.2" id="path32" d="m 25.5938,10.9996 c -0.4155,0 -0.66341,0.271416 -0.84375,0.625 -0.06011,0.117861 -0.104813,0.246406 -0.15625,0.375 l -0.7812,2 -0.8125,2 c -0.05144,0.128594 -0.09614,0.257139 -0.15625,0.375 -0.18034,0.353584 -0.437757,0.713374 -0.84375,0.625 l -9.1875,0 -4.8125,0 -6,0 0,26.9064 c 0,0.554 0.446,1 1,1 l 42,0 c 0.554,0 1,-0.446 1,-1 l 0,-31.9064 c 0,-0.554 -0.480411,-0.807794 -1,-1 l -5.40625,0 -8.59375,0 z"/><path fill="url(#3)" id="path34" d="m 6.3125,4 c -0.554,0 -0.79425,0.485624 -1,1 L 4.125,8 3,8 C 2.446,8 2,8.446 2,9 l 0,33.90625 c 0,0.554 0.446,1 1,1 l 42,0 c 0.554,0 1,-0.446 1,-1 L 46,9 C 46,8.446 45.554,8 45,8 L 22.5,8 21.3125,5 c -0.20575,-0.514376 -0.446,-1 -1,-1 l -14,0 z"/></g><g fill="none" id="g36"><path stroke-linejoin="round" opacity="0.4" id="path38" stroke="#fff" d="M 6.75,5.5312 C 6.282542,6.64501 5.947558,7.85158 5.34493,8.89708 5.0092,9.582545 5.04894,9.509033 4.125,9.531202 c -0.98392,-0.29644 -0.47047,0.90449 -0.59375,1.46869 0,10.4584 0,20.9167 0,31.3751 13.6458,0 27.2917,0 40.9375,0 0,-10.9479 0,-21.8958 0,-32.8438 -7.32292,0 -14.6458,0 -21.9688,0 -0.945545,0.04378 -0.945118,0.04927 -1.27707,-0.710328 -0.5437,-1.04535 -0.904326,-2.19797 -1.34793,-3.28967 -4.375,0 -8.75,0 -13.125,0 z"/><path opacity="0.4" id="path40" stroke="#000" d="m 6.3125,4.5312 c -0.119775,0 -0.134635,0.024243 -0.21875,0.125 C 6.00963,4.756957 5.910239,4.943101 5.8125,5.18745 l -1.1875,3 a 0.538141,0.538141 0 0 1 -0.5,0.34375 l -1.125,0 c -0.265207,0 -0.46875,0.203543 -0.46875,0.46875 l 0,33.9062 c 0,0.265207 0.203543,0.46875 0.46875,0.46875 l 42,0 c 0.265207,0 0.46875,-0.203543 0.46875,-0.46875 l 0,-33.9062 C 45.46875,8.734743 45.26521,8.5312 45,8.5312 l -22.5,0 A 0.538141,0.538141 0 0 1 22,8.18745 l -1.1875,-3 C 20.71476,4.943101 20.615365,4.756957 20.53125,4.6562 20.44713,4.555443 20.43228,4.5312 20.3125,4.5312 l -14,0 z"/></g><path fill-rule="evenodd" fill="url(#1)" id="path42" d="m 25.5938,9.9999 c -0.4155,0 -0.66341,0.271416 -0.84375,0.625 -0.06011,0.117861 -0.104813,0.246406 -0.15625,0.375 l -0.7812,2 -0.8125,2 c -0.05144,0.128594 -0.09614,0.257139 -0.15625,0.375 -0.18034,0.353584 -0.437757,0.713374 -0.84375,0.625 l -9.1875,0 -4.8125,0 -6,0 0,26.9064 c 0,0.554 0.446,1 1,1 l 42,0 c 0.554,0 1,-0.446 1,-1 l 0,-31.9064 c 0,-0.554 -0.480411,-0.807794 -1,-1 l -5.40625,0 -8.59375,0 z"/></g><path opacity="0.5" fill="none" id="path46" stroke="#000" color="#000" d="m 25.5938 10.5311 c -0.09055 0 -0.102741 0.01856 -0.15625 0.0625 -0.05351 0.04394 -0.14861 0.14373 -0.21875 0.28125 -0.03721 0.07296 -0.06756 0.168903 -0.125 0.3125 l -0.7812 2 l -0.8125 2 c -0.04544 0.113584 -0.104492 0.274743 -0.1875 0.4375 -0.1102 0.216064 -0.249344 0.444835 -0.46875 0.625 -0.219406 0.180165 -0.526233 0.350365 -0.84375 0.28125 h -9.1875 h -4.8125 h -5.46875 v 26.3751 c 0 0.265114 0.203636 0.46875 0.46875 0.46875 h 42 c 0.265114 0 0.46875 -0.203636 0.46875 -0.46875 v -31.9064 c 0 -0.265114 -0.220103 -0.376771 -0.46875 -0.46875 h -5.40625 h -8.59375 z"/><path stroke-linejoin="round" opacity="0.5" fill="none" id="path50" stroke="url(#5)" color="#000" d="m 26 11.4999 c -0.0077 0.01923 -0.02203 0.0082 -0.03125 0.03125 v 0.03125 l -0.7812 1.9688 c 0.000109 0.01042 0.000109 0.02083 0 0.03125 l -0.8125 2 c -0.03479 0.08698 -0.0639 0.257655 -0.1875 0.5 -0.145707 0.285681 -0.352303 0.605342 -0.71875 0.90625 -0.366447 0.300908 -0.948224 0.644555 -1.46875 0.53125 h -9.1875 h -4.8125 h -4.5 v 24.9064 h 41 v -30.9064 h -4.90625 h -8.59375 z"/><g id="g3020" transform="matrix(0.66666667 0 0 0.66666667 17.992 16.02081)"><path opacity="0.1" id="path3874" d="m 15,8.2502583 a 6.75,6.75 0 0 1 -13.5,0 6.75,6.75 0 1 1 13.5,0 z"/><path opacity="0.1" id="path3876" d="m 30,24.750261 a 6.7500001,6.7500001 0 0 1 -13.5,0 6.7500001,6.7500001 0 1 1 13.5,0 z"/><path opacity="0.1" id="path3878" d="m 45,41.251423 a 6.7500001,6.7500001 0 0 1 -13.5,0 6.7500001,6.7500001 0 1 1 13.5,0 z"/><path fill="url(#linearGradient3047)" id="4-3" d="m 15,6.75 a 6.75,6.75 0 0 1 -13.5,0 6.75,6.75 0 1 1 13.5,0 z"/><path fill="url(#linearGradient3065)" id="path3063" d="m 30,23.25 a 6.7500001,6.7500001 0 0 1 -13.5,0 6.7500001,6.7500001 0 1 1 13.5,0 z"/><path fill="url(#linearGradient3069)" id="path3067" d="m 45,39.751162 a 6.7500001,6.7500001 0 0 1 -13.5,0 6.7500001,6.7500001 0 1 1 13.5,0 z"/><path opacity="0.5" fill="none" id="path3844" stroke="#000" stroke-width="1.5" d="M 8.3828125,0.81835938 C 4.5598505,0.56367483 1.3123855,4.863964 2.5859375,8.4785156 a 0.81963855,0.81963855 0 0 1 0.017578,0.060547 c 0.9905976,3.7056914 6.0971656,5.4121804 9.1074225,3.0371094 a 0.81963855,0.81963855 0 0 1 0.05078,-0.03711 c 3.06866,-2.0659592 3.169459,-7.2166391 0.189453,-9.4101557 A 0.81963855,0.81963855 0 0 1 11.925781,2.109375 C 10.932547,1.3168796 9.678778,0.85063708 8.4160156,0.81835938 a 0.81963855,0.81963855 0 0 1 -0.033203,0 z"/><path opacity="0.4" fill="none" id="path3846" stroke="url(#linearGradient3872)" stroke-width="1.5" d="M 8.2890625,2.2421875 C 5.5481531,2.059589 3.0174343,5.4092372 3.9316406,8.0039062 a 2.2465868,2.2465868 0 0 1 0.050781,0.1660157 c 0.7114509,2.6614411 4.6859659,3.9891741 6.8457034,2.2851561 a 2.2465868,2.2465868 0 0 1 0.136719,-0.09961 c 2.198358,-1.4800339 2.277118,-5.5054996 0.140625,-7.0781252 a 2.2465868,2.2465868 0 0 1 -0.06836,-0.052734 C 10.286321,2.6255603 9.3208756,2.2701217 8.3808594,2.2460938 a 2.2465868,2.2465868 0 0 1 -0.091797,-0.00391 z"/><path opacity="0.5" fill="none" id="path3862" stroke="#000" stroke-width="1.5" transform="matrix(1 0 0 1 15 16.500036)" d="M 8.3828125,0.81835938 C 4.5598505,0.56367483 1.3123855,4.863964 2.5859375,8.4785156 a 0.81963855,0.81963855 0 0 1 0.017578,0.060547 c 0.9905976,3.7056914 6.0971656,5.4121804 9.1074225,3.0371094 a 0.81963855,0.81963855 0 0 1 0.05078,-0.03711 c 3.06866,-2.0659592 3.169459,-7.2166391 0.189453,-9.4101557 A 0.81963855,0.81963855 0 0 1 11.925781,2.109375 C 10.932547,1.3168796 9.678778,0.85063708 8.4160156,0.81835938 a 0.81963855,0.81963855 0 0 1 -0.033203,0 z"/><path opacity="0.4" fill="none" id="path3864" stroke="url(#linearGradient3872)" stroke-width="1.5" transform="matrix(1 0 0 1 15 16.500036)" d="M 8.2890625,2.2421875 C 5.5481531,2.059589 3.0174343,5.4092372 3.9316406,8.0039062 a 2.2465868,2.2465868 0 0 1 0.050781,0.1660157 c 0.7114509,2.6614411 4.6859659,3.9891741 6.8457034,2.2851561 a 2.2465868,2.2465868 0 0 1 0.136719,-0.09961 c 2.198358,-1.4800339 2.277118,-5.5054996 0.140625,-7.0781252 a 2.2465868,2.2465868 0 0 1 -0.06836,-0.052734 C 10.286321,2.6255603 9.3208756,2.2701217 8.3808594,2.2460938 a 2.2465868,2.2465868 0 0 1 -0.091797,-0.00391 z"/><path opacity="0.5" fill="none" id="path3868" stroke="#000" stroke-width="1.5" transform="matrix(1 0 0 1 30 33.00004)" d="M 8.3828125,0.81835938 C 4.5598505,0.56367483 1.3123855,4.863964 2.5859375,8.4785156 a 0.81963855,0.81963855 0 0 1 0.017578,0.060547 c 0.9905976,3.7056914 6.0971656,5.4121804 9.1074225,3.0371094 a 0.81963855,0.81963855 0 0 1 0.05078,-0.03711 c 3.06866,-2.0659592 3.169459,-7.2166391 0.189453,-9.4101557 A 0.81963855,0.81963855 0 0 1 11.925781,2.109375 C 10.932547,1.3168796 9.678778,0.85063708 8.4160156,0.81835938 a 0.81963855,0.81963855 0 0 1 -0.033203,0 z"/><path opacity="0.4" fill="none" id="path3870" stroke="url(#linearGradient3872)" stroke-width="1.5" transform="matrix(1 0 0 1 30 33.00004)" d="M 8.2890625,2.2421875 C 5.5481531,2.059589 3.0174343,5.4092372 3.9316406,8.0039062 a 2.2465868,2.2465868 0 0 1 0.050781,0.1660157 c 0.7114509,2.6614411 4.6859659,3.9891741 6.8457034,2.2851561 a 2.2465868,2.2465868 0 0 1 0.136719,-0.09961 c 2.198358,-1.4800339 2.277118,-5.5054996 0.140625,-7.0781252 a 2.2465868,2.2465868 0 0 1 -0.06836,-0.052734 C 10.286321,2.6255603 9.3208756,2.2701217 8.3808594,2.2460938 a 2.2465868,2.2465868 0 0 1 -0.091797,-0.00391 z"/></g><metadata id="metadata9999"><rdf:RDF><cc:Work><dc:format>image/svg+xml</dc:format><dc:type rdf:resource="http://purl.org/dc/dcmitype/StillImage"/><dc:title>Ivy icon theme</dc:title><cc:license rdf:resource="http://creativecommons.org/licenses/by-sa/4.0/"/><dc:creator><cc:Agent><dc:title>Sixsixfive (sixsixfive.deviantart.com)</dc:title></cc:Agent></dc:creator><dc:publisher><cc:Agent><dc:title>Sixsixfive (sixsixfive.deviantart.com)</dc:title></cc:Agent></dc:publisher><dc:source>https://github.com/sixsixfive</dc:source><dc:subject><rdf:Bag><rdf:li>ivy</rdf:li></rdf:Bag></dc:subject><dc:contributor><cc:Agent><dc:title>ssf</dc:title></cc:Agent></dc:contributor><dc:rights><cc:Agent><dc:title>Sixsixfive (sixisixfive.deviantart.com)</dc:title></cc:Agent></dc:rights><dc:description>A simple icon theme published under CC-BY-SA_V4(http://creativecommons.org/licenses/by-sa/4.0)</dc:description><dc:identifier>SSF</dc:identifier></cc:Work></rdf:RDF></metadata><!--Part of the Ivy icon them published under the CC-BY-SA_V4: http://creativecommons.org/licenses/by-sa/4.0 -->
</svg>