<?xml version="1.0" encoding="UTF-8" standalone="no"?>
<svg xmlns:dc="http://purl.org/dc/elements/1.1/" xmlns:cc="http://creativecommons.org/ns#" xmlns:rdf="http://www.w3.org/1999/02/22-rdf-syntax-ns#" xmlns:svg="http://www.w3.org/2000/svg" xmlns="http://www.w3.org/2000/svg" xmlns:xlink="http://www.w3.org/1999/xlink" viewBox="0 0 32 32" id="svg2" version="1.1">
 <defs id="0">
  <linearGradient id="4" y1="7.121" x1="30.881" y2="32.477" x2="31.447" gradientUnits="userSpaceOnUse">
   <stop stop-color="#5288d1" id="R"/>
   <stop offset="1" stop-color="#96b7e3" id="S"/>
  </linearGradient>
  <linearGradient id="5" y1="2" y2="44" x2="0" gradientUnits="userSpaceOnUse" gradientTransform="matrix(0.515 0 0 0.5 -1.083 -1)">
   <stop stop-color="#dedede" id="T"/>
   <stop offset="1" stop-color="#f4f4f4" id="U"/>
  </linearGradient>
  <linearGradient id="6" xlink:href="#7" y1="-2.712" x1="30.14" y2="28" x2="30" gradientUnits="userSpaceOnUse"/>
  <linearGradient id="7">
   <stop stop-color="#fff" id="V"/>
   <stop offset="1" stop-color="#fff" id="W" stop-opacity="0"/>
  </linearGradient>
  <linearGradient id="8" y1="3.993" x1="3.153" y2="22.971" x2="2.281" gradientUnits="userSpaceOnUse" gradientTransform="matrix(0.66 0 0 0.67035 0.68 -0.626)">
   <stop stop-color="#eeeeec" id="X"/>
   <stop offset="1" stop-color="#555753" id="Y"/>
  </linearGradient>
  <linearGradient id="9" y1="1" y2="20" x2="0" gradientUnits="userSpaceOnUse">
   <stop stop-color="#fff" id="Z"/>
   <stop offset="1" stop-color="#fff" id="a" stop-opacity="0"/>
  </linearGradient>
 </defs>
 <g id="1" color="#000">
  <g id="A" fill-rule="evenodd">
   <path id="b" d="m 17.5719,8.0072 c -0.27423,0 -0.437851,0.175496 -0.556875,0.404122 -0.03967,0.07621 -0.06918,0.159325 -0.103125,0.242475 l -0.5156,1.2932 -0.5362,1.3931 c -0.03395,0.08315 -0.06345,0.166264 -0.103125,0.242473 -0.119024,0.228626 -0.28892,0.461265 -0.556875,0.404123 l -6.06375,0 -3.17625,0 -3.96,0 0,17.2977 c 0,0.358215 0.29436,0.646598 0.66,0.646598 l 27.72,0 c 0.36564,0 0.66,-0.288383 0.66,-0.646598 l 0,-20.6306 c 0,-0.358215 -0.317071,-0.522318 -0.66,-0.646597 l -3.56812,0 -5.67188,0 z" opacity="0.2"/>
   <path id="c" d="m 4.8463,2.0554 c -0.36564,0 -0.524205,0.32554 -0.66,0.670353 l -0.7837,2.3111 -0.7425,0 c -0.36564,0 -0.66,0.298977 -0.66,0.670353 l 0,22.4291 c 0,0.371376 0.29436,0.670353 0.66,0.670353 l 27.72,0 c 0.36564,0 0.66,-0.298977 0.66,-0.670353 l 0,-22.4291 c 0,-0.371375 -0.29436,-0.670353 -0.66,-0.670353 l -14.85,0 -0.7837,-2.3111 C 14.610605,2.38094 14.45204,2.0554 14.0864,2.0554 Z" fill="url(#8)"/>
  </g>
  <g id="B" fill="none">
   <path id="d" d="M 5.2188,3.5938 C 4.929836,4.300017 4.709741,5.06096 4.31255,5.75005 l 0.03125,0 C 4.288476,5.863006 4.232934,5.928823 4.18755,6.00005 4.142166,6.071277 4.072991,6.150054 4.00005,6.18755 3.854167,6.262541 3.709231,6.242781 3.4063,6.25005 a 0.123953,0.123953 0 0 1 -0.03125,0 C 3.232089,6.206978 3.175275,6.234008 3.1563,6.25005 3.137325,6.266092 3.129514,6.310153 3.12505,6.4063 c -0.00893,0.192294 0.051929,0.481091 0,0.71875 l 0,20.5312 26.7812,0 0,-21.4062 -14.375,0 C 15.219462,6.264484 15.06133,6.272968 14.90625,6.18755 14.82871,6.144841 14.765392,6.080093 14.71875,6.00005 14.672108,5.920007 14.617303,5.844204 14.5625,5.7188 14.210939,5.04286 13.991307,4.2817 13.71875,3.5938 l -8.5,0 z" transform="matrix(0.97069,0,0,0.9897,0.505,0.037)" opacity="0.67" stroke="#fff" stroke-linejoin="round" stroke-width="1.02"/>
   <path id="e" d="M 4.9824,2.5712 C 4.904271,2.5712 4.894577,2.587355 4.839709,2.654498 4.78484,2.721641 4.720004,2.845684 4.656249,3.00851 l -0.7746,2.1987 C 3.831019,5.34073 3.695659,5.435798 3.555498,5.436279 l -0.73384,0 c -0.172995,0 -0.305767,0.135637 -0.305767,0.312366 l 0,22.3949 c 0,0.176729 0.132772,0.312366 0.305767,0.312366 l 27.3967,0 c 0.172995,0 0.305767,-0.135637 0.305767,-0.312366 l 0,-22.3949 c 0,-0.176729 -0.132772,-0.312366 -0.305767,-0.312366 l -14.6768,0 C 15.401397,5.435801 15.266037,5.340733 15.215407,5.207213 l -0.7746,-2.1987 C 14.377049,2.845684 14.312215,2.72164 14.257346,2.654498 14.202476,2.587355 14.192786,2.5712 14.11466,2.5712 Z" opacity="0.4" stroke="#000"/>
  </g>
  <path id="C" d="m 17.5719,7.0068 c -0.27423,0 -0.437851,0.175496 -0.556875,0.404122 -0.03967,0.07621 -0.06918,0.159325 -0.103125,0.242475 l -0.5156,1.2932 -0.5362,1.3931 c -0.03395,0.08315 -0.06345,0.166264 -0.103125,0.242473 -0.119024,0.228626 -0.28892,0.461265 -0.556875,0.404123 l -6.06375,0 -3.17625,0 -3.96,0 0,17.2977 c 0,0.358215 0.29436,0.646598 0.66,0.646598 l 27.72,0 c 0.36564,0 0.66,-0.288383 0.66,-0.646598 l 0,-20.6306 c 0,-0.358215 -0.317071,-0.522318 -0.66,-0.646597 l -3.56812,0 -5.6719,0 z" fill="url(#4)" fill-rule="evenodd"/>
  <g id="D" fill="none">
   <path id="f" d="m 17.5374,7.4814 c -0.05898,0 -0.06693,0.011853 -0.101773,0.039913 -0.03485,0.02806 -0.09678,0.091787 -0.142479,0.179611 -0.02424,0.04659 -0.044,0.107864 -0.08142,0.199567 l -0.5089,1.2772 -0.5292,1.2772 c -0.02959,0.07254 -0.06807,0.175457 -0.122127,0.279394 -0.07178,0.137984 -0.162407,0.483818 -0.305316,0.598873 -0.142908,0.115057 -0.342757,0.223749 -0.549567,0.179611 l -5.98419,0 -3.13458,0 -3.56202,0 0,16.6438 c 0,0.169306 0.132636,0.299351 0.305316,0.299351 l 27.3563,0 c 0.17268,0 0.305316,-0.130045 0.305316,-0.299351 l 0,-20.3759 c 0,-0.169307 -0.143362,-0.240612 -0.305316,-0.299352 l -3.52131,0 -5.5975,0 z" opacity="0.4" stroke="#000"/>
   <path id="g" d="m 18.0938,8.5 -0.4375,1.0625 -0.5,1.2812 c -0.06451,0.158155 -0.140936,0.254219 -0.1875,0.34375 0.05082,-0.0977 -0.02435,0.08138 -0.09375,0.25 -0.0694,0.168623 -0.06346,0.392454 -0.46875,0.71875 -0.338692,0.272685 -0.823522,0.474787 -1.4375,0.34375 l 0.2188,0.0312 -5.96875,0 -3.15625,0 -2.5,0 0,14.9062 25.875,0 0,-18.9375 -2.78125,0 -5.59375,0 -2.96875,0 z" opacity="0.4" stroke="url(#6)"/>
  </g>
  <path id="E" d="m 13,9 19,0 0,20.942 -19,0 z" opacity="0.1"/>
 </g>
 <g id="2" transform="translate(11.99997,10)">
  <path d="M 2.604,1 19.396,1 C 19.730616,1 20,1.269384 20,1.604 l 0,19.792 C 20,21.730616 19.730616,22 19.396,22 L 2.604,22 C 2.269384,22 2,21.730616 2,21.396 L 2,1.604 C 2,1.269384 2.269384,1 2.604,1 Z" id="F" opacity="0.1"/>
  <path d="M 2.604,0 19.396,0 C 19.730616,0 20,0.26938399 20,0.60399997 L 20,20.396 C 20,20.730616 19.730616,21 19.396,21 L 2.604,21 C 2.269384,21 2,20.730616 2,20.396 L 2,0.60399997 C 2,0.26938399 2.269384,0 2.604,0 Z" id="G" fill="url(#5)"/>
  <path id="H" d="m 8,0 6,0 0,10 -6,0 z" opacity="0.66" fill="#6a6a6a"/>
  <g id="I" transform="matrix(0.66667,0,0,1,3,-1)" opacity="0.34">
   <path id="h" d="m 12,10 3,0 0,1 -3,0 z"/>
   <g id="i" fill="#fff">
    <path id="w" d="m 9,10 3,0 0,1 -3,0 z"/>
    <path id="x" d="m 12,9 3,0 0,1 -3,0 z"/>
    <path id="y" d="m 9,8 3,0 0,1 -3,0 z"/>
    <path id="z" d="m 12,7 3,0 0,1 -3,0 z"/>
    <path id="10" d="m 9,6 3,0 0,1 -3,0 z"/>
    <path id="11" d="m 12,5 3,0 0,1 -3,0 z"/>
    <path id="12" d="m 9,4 3,0 0,1 -3,0 z"/>
    <path id="13" d="m 12,3 3,0 0,1 -3,0 z"/>
    <path id="14" d="m 9,2 3,0 0,1 -3,0 z"/>
    <path id="15" d="m 12,1 3,0 0,1 -3,0 z"/>
   </g>
   <path id="j" d="m 9,9 3,0 0,1 -3,0 z"/>
   <path id="k" d="m 12,8 3,0 0,1 -3,0 z"/>
   <path id="l" d="m 9,7 3,0 0,1 -3,0 z"/>
   <path id="m" d="m 12,6 3,0 0,1 -3,0 z"/>
   <path id="n" d="m 9,5 3,0 0,1 -3,0 z"/>
   <path id="o" d="m 12,4 3,0 0,1 -3,0 z"/>
   <path id="p" d="m 9,3 3,0 0,1 -3,0 z"/>
   <path id="q" d="m 12,2 3,0 0,1 -3,0 z"/>
   <path id="r" d="m 9,1 3,0 0,1 -3,0 z"/>
  </g>
  <g id="J" fill="none">
   <path id="s" d="m 2.5938,0.5312 c -0.058216,0 -0.0625,0.00428 -0.0625,0.0625 l 0,19.8125 c 0,0.05822 0.00428,0.0625 0.0625,0.0625 l 16.8125,0 c 0.05822,0 0.0625,-0.0043 0.0625,-0.0625 l 0,-19.8125 c 0,-0.058217 -0.0043,-0.0625 -0.0625,-0.0625 l -16.8125,0 z" opacity="0.4" stroke="#000"/>
   <path id="t" d="m 3.5312,1.5312 0,17.9375 14.9375,0 0,-17.9375 -14.9375,0 z" opacity="0.8" stroke="url(#9)"/>
  </g>
  <path id="K" d="M 7.9375,9 C 7.4112,9 7,9.4112 7,9.9375 l 0,1.125 C 7,11.5888 7.4112,12 7.9375,12 L 8,12 8,14.8125 C 8,15.4773 8.5227,16 9.1875,16 l 3.625,0 C 13.4773,16 14,15.4773 14,14.8125 L 14,12 14.0625,12 C 14.5888,12 15,11.5888 15,11.0625 l 0,-1.125 C 15,9.4112 14.5888,9 14.0625,9 l -6.125,0 z" opacity="0.1"/>
  <path id="L" d="m 10,0 2,0 0,10 -2,0 z" opacity="0.66" fill="#6a6a6a"/>
  <path id="M" d="M 7.9375,8 C 7.4112,8 7,8.4112 7,8.9375 l 0,1.125 C 7,10.5888 7.4112,11 7.9375,11 L 8,11 8,13.8125 C 8,14.4773 8.5227,15 9.1875,15 l 3.625,0 C 13.4773,15 14,14.4773 14,13.8125 L 14,11 14.0625,11 C 14.5888,11 15,10.5888 15,10.0625 l 0,-1.125 C 15,8.4112 14.5888,8 14.0625,8 l -6.125,0 z" fill="#afafaf"/>
  <path id="N" d="M 7.9375,8.5 C 7.673431,8.5 7.5,8.673431 7.5,8.9375 l 0,1.125 C 7.5,10.326569 7.673431,10.5 7.9375,10.5 L 8,10.5 A 0.503499,0.503499 0 0 1 8.5,11 l 0,2.8125 C 8.5,14.213408 8.786592,14.5 9.1875,14.5 l 3.625,0 C 13.213408,14.5 13.5,14.213408 13.5,13.8125 L 13.5,11 A 0.503499,0.503499 0 0 1 14,10.5 l 0.0625,0 c 0.264069,0 0.4375,-0.173431 0.4375,-0.4375 l 0,-1.125 C 14.5,8.673431 14.326569,8.5 14.0625,8.5 l -6.125,0 z" opacity="0.3" fill="none" stroke="#000"/>
  <g id="O" fill="#fff">
   <path d="m 8.5,9 5,0 C 13.777,9 14,9.223 14,9.5 14,9.777 13.777,10 13.5,10 l -5,0 C 8.223,10 8,9.777 8,9.5 8,9.223 8.223,9 8.5,9 Z" id="u" opacity="0.17"/>
   <path d="m 10.5,12 1,0 c 0.277,0 0.5,0.223 0.5,0.5 0,0.277 -0.223,0.5 -0.5,0.5 l -1,0 C 10.223,13 10,12.777 10,12.5 10,12.223 10.223,12 10.5,12 Z" id="v"/>
  </g>
  <path d="m 10.5,11 1,0 c 0.277,0 0.5,0.223 0.5,0.5 0,0.277 -0.223,0.5 -0.5,0.5 l -1,0 C 10.223,12 10,11.777 10,11.5 10,11.223 10.223,11 10.5,11 Z" id="P" opacity="0.17"/>
  <path d="m 10.5,13 1,0 c 0.277,0 0.5,0.223 0.5,0.5 0,0.277 -0.223,0.5 -0.5,0.5 l -1,0 C 10.223,14 10,13.777 10,13.5 10,13.223 10.223,13 10.5,13 Z" id="Q" opacity="0.2" fill="#fff"/>
 </g>
 <metadata id="metadata9999">
  <rdf:RDF>
   <cc:Work>
    <dc:format>image/svg+xml</dc:format>
    <dc:type rdf:resource="http://purl.org/dc/dcmitype/StillImage"/>
    <dc:title>Ivy icon theme</dc:title>
    <cc:license rdf:resource="http://creativecommons.org/licenses/by-sa/4.0/"/>
    <dc:creator>
     <cc:Agent>
      <dc:title>Sixsixfive (sixsixfive.deviantart.com)</dc:title>
     </cc:Agent>
    </dc:creator>
    <dc:publisher>
     <cc:Agent>
      <dc:title>Sixsixfive (sixsixfive.deviantart.com)</dc:title>
     </cc:Agent>
    </dc:publisher>
    <dc:source>https://github.com/sixsixfive</dc:source>
    <dc:subject>
     <rdf:Bag>
      <rdf:li>ivy</rdf:li>
     </rdf:Bag>
    </dc:subject>
    <dc:contributor>
     <cc:Agent>
      <dc:title>ssf</dc:title>
     </cc:Agent>
    </dc:contributor>
    <dc:rights>
     <cc:Agent>
      <dc:title>Sixsixfive (sixisixfive.deviantart.com)</dc:title>
     </cc:Agent>
    </dc:rights>
    <dc:description>A simple icon theme published under CC-BY-SA_V4(http://creativecommons.org/licenses/by-sa/4.0)</dc:description>
    <dc:identifier>SSF</dc:identifier>
   </cc:Work>
  </rdf:RDF>
 </metadata>
 <!--Part of the Ivy icon them published under the CC-BY-SA_V4: http://creativecommons.org/licenses/by-sa/4.0 -->
</svg>
