<?xml version="1.0" encoding="UTF-8" standalone="no"?><svg xmlns:cc="http://creativecommons.org/ns#" viewBox="0 0 48 48" version="1.1" id="svg2" xmlns:svg="http://www.w3.org/2000/svg" xmlns:rdf="http://www.w3.org/1999/02/22-rdf-syntax-ns#" xmlns="http://www.w3.org/2000/svg" xmlns:dc="http://purl.org/dc/elements/1.1/"><defs id="defs4"><linearGradient x2="0" gradientUnits="userSpaceOnUse" y2="44.02" id="0" y1="4.02"><stop stop-color="#fff" id="stop7"/><stop offset="1" stop-opacity="0" stop-color="#fff" id="stop9"/></linearGradient><linearGradient x2="0" gradientUnits="userSpaceOnUse" y2="41" id="1" y1="8"><stop stop-color="#ebebeb" id="stop12"/><stop offset="1" stop-color="#fff" id="stop14"/></linearGradient><linearGradient x2="0" gradientUnits="userSpaceOnUse" y2="45" id="2" y1="3"><stop stop-color="#5288d1" id="stop17"/><stop offset="1" stop-color="#7aa4dc" id="stop19"/></linearGradient><radialGradient gradientUnits="userSpaceOnUse" r="45.1" cx="43.685" cy="46.582" id="3" gradientTransform="matrix(0.53212 0 0 0.02359 0.754 43.978)"><stop stop-opacity="0.2" id="stop22"/><stop offset="1" stop-opacity="0" id="stop24"/></radialGradient></defs><path fill="url(#3)" id="path26" d="m 48 45.077 a 24 1.0641 0 0 1 -48 0 24 1.0641 0 1 1 48 0 z"/><rect height="42" width="42" rx="4" fill="url(#2)" ry="4" id="rect28" x="3" y="3"/><g fill="none" id="g30"><path opacity="0.45" id="path32" stroke="#000" d="m 7,3.5128 c -1.94587,0 -3.5,1.5541 -3.5,3.5 l 0,34 c 0,1.9459 1.55413,3.5 3.5,3.5 l 34,0 c 1.94587,0 3.5,-1.5541 3.5,-3.5 l 0,-34 c 0,-1.9459 -1.55413,-3.5 -3.5,-3.5 l -34,0 z"/><path opacity="0.6" id="path34" stroke="url(#0)" d="m 7,4.5128 c -1.40738,0 -2.5,1.0926 -2.5,2.5 l 0,34 c 0,1.4074 1.09262,2.5 2.5,2.5 l 34,0 c 1.40738,0 2.5,-1.0926 2.5,-2.5 l 0,-34 c 0,-1.4074 -1.09262,-2.5 -2.5,-2.5 l -34,0 z"/></g><path opacity="0.4" id="path36" d="m 12.643262 15.04703 c -0.101937 -3.0422 2.346097 -5.770398 5.296497 -6.287703 2.991099 -0.819485 6.199603 -0.667164 9.160997 0.204725 2.471291 -0.902711 5.02607 -2.349526 7.738453 -1.842093 1.596049 0.909896 -0.639882 2.472546 -1.333577 3.29842 -1.147596 1.10874 -0.282891 2.736387 0.557679 3.744428 2.320608 3.09352 2.442678 7.384849 0.930087 10.854889 -0.884182 2.427261 -3.0069 4.199563 -3.692651 6.706395 -0.510237 1.986906 0.240522 3.95451 0.343534 5.933761 0.261585 1.07945 -0.931753 3.560899 -1.486664 1.354604 -0.264977 -2.286368 -1.47664 -4.407015 -3.191566 -5.929268 -1.840697 -0.314819 -3.104448 -2.124833 -5.03422 -2.124535 -0.104094 -1.965759 2.311686 -2.038449 3.717773 -1.97545 1.391408 0.120644 3.212083 0.01145 3.447753 -1.720294 0.692516 -1.845303 1.068793 -3.829241 1.153349 -5.788655 -0.111834 -1.745149 -1.379284 -3.073247 -2.767675 -3.988728 -1.074668 -0.839203 -3.222482 -2.243513 -4.284215 -1.0878 0.07088 0.946047 1.703179 3.280555 -0.362236 2.834095 -1.668261 -0.669096 -1.847539 -3.193032 -3.778567 -3.397762 -2.849178 0.08088 -5.47459 1.320035 -8.129509 2.190084 -2.201022 -0.169768 0.348647 -2.666169 1.439941 -2.877804 l 0.274819 -0.101309 z"/><path fill="url(#1)" id="path38" d="m 12.643262 16.04703 c -0.101937 -3.0422 2.346097 -5.770398 5.296497 -6.287703 2.991099 -0.819484 6.199603 -0.667163 9.160997 0.204725 2.471291 -0.902711 5.02607 -2.349526 7.738453 -1.842093 1.596049 0.909896 -0.639882 2.472546 -1.333577 3.29842 -1.147596 1.10874 -0.282891 2.736387 0.557679 3.744428 2.320608 3.09352 2.442678 7.384849 0.930087 10.854889 -0.884182 2.427261 -3.0069 4.199563 -3.692651 6.706395 -0.510237 1.986906 0.240522 3.95451 0.343534 5.933761 0.261585 1.07945 -0.931753 3.560899 -1.486664 1.354604 -0.264977 -2.286368 -1.47664 -4.407015 -3.191566 -5.929268 -1.840697 -0.314819 -3.104448 -2.124833 -5.03422 -2.124535 -0.104094 -1.965759 2.311686 -2.038449 3.717773 -1.97545 1.391408 0.120644 3.212083 0.01145 3.447753 -1.720294 0.692516 -1.845303 1.068793 -3.829241 1.153349 -5.788655 -0.111834 -1.745149 -1.379284 -3.073247 -2.767675 -3.988728 -1.074668 -0.839203 -3.222482 -2.243513 -4.284215 -1.0878 0.07088 0.946047 1.703179 3.280555 -0.362236 2.834095 -1.668261 -0.669096 -1.847539 -3.193032 -3.778567 -3.397762 -2.849178 0.08088 -5.47459 1.320035 -8.129509 2.190084 -2.201022 -0.169768 0.348647 -2.666169 1.439941 -2.877804 l 0.274819 -0.101309 z"/><metadata id="metadata9999"><rdf:RDF><cc:Work><dc:format>image/svg+xml</dc:format><dc:type rdf:resource="http://purl.org/dc/dcmitype/StillImage"/><dc:title>Ivy icon theme</dc:title><cc:license rdf:resource="http://creativecommons.org/licenses/by-sa/4.0/"/><dc:creator><cc:Agent><dc:title>Sixsixfive (sixsixfive.deviantart.com)</dc:title></cc:Agent></dc:creator><dc:publisher><cc:Agent><dc:title>Sixsixfive (sixsixfive.deviantart.com)</dc:title></cc:Agent></dc:publisher><dc:source>https://github.com/sixsixfive</dc:source><dc:subject><rdf:Bag><rdf:li>ivy</rdf:li></rdf:Bag></dc:subject><dc:contributor><cc:Agent><dc:title>ssf</dc:title></cc:Agent></dc:contributor><dc:rights><cc:Agent><dc:title>Sixsixfive (sixisixfive.deviantart.com)</dc:title></cc:Agent></dc:rights><dc:description>A simple icon theme published under CC-BY-SA_V4(http://creativecommons.org/licenses/by-sa/4.0)</dc:description><dc:identifier>SSF</dc:identifier></cc:Work></rdf:RDF></metadata><!--Part of the Ivy icon them published under the CC-BY-SA_V4: http://creativecommons.org/licenses/by-sa/4.0 -->
</svg>