<?xml version="1.0" encoding="UTF-8" standalone="no"?><svg viewBox="0 0 48 48" xmlns="http://www.w3.org/2000/svg" xmlns:svg="http://www.w3.org/2000/svg" xmlns:rdf="http://www.w3.org/1999/02/22-rdf-syntax-ns#" version="1.1" id="svg2" xmlns:dc="http://purl.org/dc/elements/1.1/" xmlns:cc="http://creativecommons.org/ns#"><defs id="defs4"><linearGradient y1="2" x2="0" y2="46" id="0" gradientUnits="userSpaceOnUse"><stop id="stop7" stop-color="#5288d1"/><stop offset="1" id="stop9" stop-color="#aac4e9"/></linearGradient><linearGradient y1="3" x2="0" y2="45" id="1" gradientUnits="userSpaceOnUse"><stop id="stop12" stop-color="#fff"/><stop stop-opacity="0" offset="1" id="stop14" stop-color="#fff"/></linearGradient></defs><path opacity="0.2" id="path16" d="m 16,3 0,11 8,8 8,-8 L 32,3 16,3 z M 2,17 2,33 13,33 21,25 13,17 2,17 z m 33,0 -8,8 8,8 11,0 0,-16 -11,0 z m -11,11 -8,8 0,11 16,0 0,-11 -8,-8 z"/><g id="g18" fill="url(#0)"><path id="path20" d="m 16,2 16,0 0,11 -8,8 -8,-8 z"/><path id="path22" d="m 16,46 16,0 0,-11 -8,-8 -8,8 z"/><path id="path24" d="m 2,16 0,16 11,0 8,-8 -8,-8 z"/><path id="path26" d="m 46,16 0,16 -11,0 -8,-8 8,-8 z"/></g><g id="g28" fill="none"><path stroke="#000" opacity="0.4" id="path30" d="m 16.5,2.5 0,10.28125 7.5,7.53125 7.5,-7.53125 0,-10.28125 -15,0 z m -14,14 0,15 10.28125,0 L 20.3125,24 12.78125,16.5 2.5,16.5 Z m 32.6875,0 -7.5,7.5 7.53125,7.5 10.28125,0 0,-15 -10.3125,0 z M 24,27.6875 l -7.5,7.53125 0,10.28125 15,0 0,-10.28125 L 24,27.6875 Z"/><path stroke="url(#1)" opacity="0.4" id="path32" d="m 17.5,3.5 0,8.875 6.5,6.5 6.5,-6.5 0,-8.875 -13,0 z m -14,14 0,13 8.875,0 6.5,-6.5 -6.5,-6.5 -8.875,0 z m 32.125,0 -6.5,6.5 6.5,6.5 8.875,0 0,-13 -8.875,0 z M 24,29.125 l -6.5,6.5 0,8.875 13,0 0,-8.875 -6.5,-6.5 z"/></g><metadata id="metadata9999"><rdf:RDF><cc:Work><dc:format>image/svg+xml</dc:format><dc:type rdf:resource="http://purl.org/dc/dcmitype/StillImage"/><dc:title>Ivy icon theme</dc:title><cc:license rdf:resource="http://creativecommons.org/licenses/by-sa/4.0/"/><dc:creator><cc:Agent><dc:title>Sixsixfive (sixsixfive.deviantart.com)</dc:title></cc:Agent></dc:creator><dc:publisher><cc:Agent><dc:title>Sixsixfive (sixsixfive.deviantart.com)</dc:title></cc:Agent></dc:publisher><dc:source>https://github.com/sixsixfive</dc:source><dc:subject><rdf:Bag><rdf:li>ivy</rdf:li></rdf:Bag></dc:subject><dc:contributor><cc:Agent><dc:title>ssf</dc:title></cc:Agent></dc:contributor><dc:rights><cc:Agent><dc:title>Sixsixfive (sixisixfive.deviantart.com)</dc:title></cc:Agent></dc:rights><dc:description>A simple icon theme published under CC-BY-SA_V4(http://creativecommons.org/licenses/by-sa/4.0)</dc:description><dc:identifier>SSF</dc:identifier></cc:Work></rdf:RDF></metadata><!--Part of the Ivy icon them published under the CC-BY-SA_V4: http://creativecommons.org/licenses/by-sa/4.0 -->
</svg>