<?xml version="1.0" encoding="UTF-8" standalone="no"?><svg xmlns:rdf="http://www.w3.org/1999/02/22-rdf-syntax-ns#" xmlns:cc="http://creativecommons.org/ns#" xmlns:svg="http://www.w3.org/2000/svg" id="svg2" viewBox="0 0 48 48.000001" version="1.1" xmlns:xlink="http://www.w3.org/1999/xlink" xmlns:dc="http://purl.org/dc/elements/1.1/" xmlns="http://www.w3.org/2000/svg"><defs id="defs4"><linearGradient id="linearGradient4960"><stop id="stop4962" stop-color="#66b03e" stop-opacity="1"/><stop offset="1" id="stop4964" stop-color="#8fcc6e" stop-opacity="1"/></linearGradient><linearGradient id="linearGradient4370"><stop id="stop4372" stop-color="#fff" stop-opacity="1"/><stop offset="1" id="stop4374" stop-color="#fff" stop-opacity="0"/></linearGradient><linearGradient id="linearGradient4376" x2="44" y2="1049.3622" xlink:href="#linearGradient4370" x1="44" y1="1007.3622" gradientUnits="userSpaceOnUse"/><linearGradient id="linearGradient4165"><stop id="stop4167" stop-color="#eed45a"/><stop offset="1" id="stop4169" stop-color="#e9c82a"/></linearGradient><linearGradient id="linearGradient4407" x2="0" y2="23" gradientTransform="matrix(1 0 0 1 -0.45898441 1003.9032)" xlink:href="#linearGradient4370" y1="42" gradientUnits="userSpaceOnUse"/><linearGradient id="linearGradient4423" x2="0" y2="12" gradientTransform="matrix(1 0 0 1 -0.45898441 1003.9032)" xlink:href="#linearGradient4165" y1="46" gradientUnits="userSpaceOnUse"/><linearGradient id="linearGradient4966" x2="41" y2="1050.3622" xlink:href="#linearGradient4960" x1="41" y1="1006.3622" gradientUnits="userSpaceOnUse"/></defs><g id="layer1" transform="matrix(1 0 0 1 0 -1004.3622)"><path stroke-linecap="round" fill-opacity="1" stroke-dasharray="3 1" id="rect4914" stroke-miterlimit="4" opacity="0.1" d="m 2,1007.3622 44,0 0,44 -44,0 z" stroke-width="1" stroke="none" stroke-linejoin="round" stroke-dashoffset="0" fill="#000" stroke-opacity="1"/><path stroke-linecap="round" fill-opacity="1" stroke-dasharray="3 1" id="rect4138" stroke-miterlimit="4" opacity="1" d="m 2,1006.3622 44,0 0,44 -44,0 z" stroke-width="1" stroke="none" stroke-linejoin="round" stroke-dashoffset="0" fill="url(#linearGradient4966)" stroke-opacity="1"/><path stroke-linecap="round" fill-opacity="1" stroke-dasharray="none" id="rect4953" stroke-miterlimit="4" opacity="1" d="m 9,1026.3622 30,0 0,4 -30,0 z" stroke-width="1" stroke="none" stroke-linejoin="round" stroke-dashoffset="0" fill="#6a6a6a" stroke-opacity="1"/><path stroke-linecap="round" fill-opacity="1" stroke-dasharray="none" id="path4366" stroke-miterlimit="4" opacity="0.4" d="m 2.5058594,1006.8672 0,42.9883 42.9882816,0 0,-42.9883 -42.9882816,0 z" stroke-width="1" stroke="#000" stroke-linejoin="round" stroke-dashoffset="0" fill="none" stroke-opacity="1"/><path stroke-linecap="round" fill-opacity="1" stroke-dasharray="none" id="path4957" stroke-miterlimit="4" opacity="1" d="M 24,6 A 18,18.5 0 0 0 6,24.5 18,18.5 0 0 0 24,43 18,18.5 0 0 0 42,24.5 18,18.5 0 0 0 24,6 Z m 0,4 A 14,14.500004 0 0 1 38,24.5 14,14.500004 0 0 1 24,39 14,14.500004 0 0 1 10,24.5 14,14.500004 0 0 1 24,10 Z" stroke-width="1" stroke="none" transform="matrix(1 0 0 1 0 1004.3622)" stroke-linejoin="round" stroke-dashoffset="0" fill="#f6f6f6" stroke-opacity="1"/><path stroke-linecap="round" fill-opacity="1" stroke-dasharray="none" id="path4368" stroke-miterlimit="4" opacity="0.4" d="m 3.5019531,1007.8633 0,40.9961 40.9960939,0 0,-40.9961 -40.9960939,0 z" stroke-width="1" stroke="url(#linearGradient4376)" stroke-linejoin="round" stroke-dashoffset="0" fill="none" stroke-opacity="1"/><g id="g4896" transform="matrix(1 0 0 1 1.45898 1.459)"><path id="path3395" opacity="0.1" d="m 46.54102,1016.9032 -40.0000044,34 40.0000044,0 0,-34 z m -6,13 0,15 -18.000004,0 18.000004,-15 z" fill-rule="evenodd" fill="#000"/><path id="rect3390" d="m 46.54102,1015.9032 -40.0000044,34 40.0000044,0 0,-34 z m -6,13 0,15 -18.000004,0 18.000004,-15 z" fill-rule="evenodd" fill="url(#linearGradient4423)"/><path id="path3399" opacity="0.4" d="m 46.00195,1017.0692 -37.9941372,32.295 37.9941372,0 0,-32.295 z" stroke="#000" fill-rule="evenodd" fill="none"/><path id="path3401" opacity="0.4" d="m 45,1019.2352 -34.267578,29.127 34.267578,0 0,-29.127 z" stroke="#fff" fill-rule="evenodd" fill="none"/><path stroke-linecap="round" stroke-dasharray="39 19.5 9.75 19.5" id="rect4425" opacity="0.4" d="m -1048.9031,-41.541019 2,0 0,1 -2,0 z" stroke-width="19.5" transform="matrix(0 -1 -1 0 0 0)" stroke-linejoin="round"/><path stroke-linecap="round" stroke-dasharray="39 19.5 9.75 19.5" id="rect4427" opacity="0.2" d="m -1048.9031,-40.541019 2,0 0,1 -2,0 z" stroke-width="19.5" transform="matrix(0 -1 -1 0 0 0)" stroke-linejoin="round" fill="#fff"/><path stroke-linecap="round" stroke-dasharray="39 19.5 9.75 19.5" id="rect4429" opacity="0.4" d="m -1048.9031,-35.541019 2,0 0,1 -2,0 z" stroke-width="19.5" transform="matrix(0 -1 -1 0 0 0)" stroke-linejoin="round"/><path stroke-linecap="round" stroke-dasharray="39 19.5 9.75 19.5" id="rect4431" opacity="0.2" d="m -1048.9031,-34.541019 2,0 0,1 -2,0 z" stroke-width="19.5" transform="matrix(0 -1 -1 0 0 0)" stroke-linejoin="round" fill="#fff"/><path stroke-linecap="square" id="path4397" stroke-miterlimit="26.1" opacity="0.4" d="m 40.52734,1028.4462 a 0.45750227,0.45750227 0 0 0 -0.27929,0.1055 l -18.000003,15 a 0.45750227,0.45750227 0 0 0 0.292969,0.8085 l 18.000004,0 a 0.45750227,0.45750227 0 0 0 0.45703,-0.457 l 0,-15 a 0.45750227,0.45750227 0 0 0 -0.47071,-0.457 z" stroke="#000" fill-rule="evenodd" fill="none"/><path stroke-linecap="square" id="path4399" stroke-miterlimit="26.1" opacity="0.4" d="m 40.49805,1027.4364 a 1.4680261,1.4680261 0 0 0 -0.89649,0.3399 l -17.999997,15 a 1.4680261,1.4680261 0 0 0 0.939453,2.5957 l 18.000004,0 a 1.4680261,1.4680261 0 0 0 1.46875,-1.4688 l 0,-15 a 1.4680261,1.4680261 0 0 0 -1.51172,-1.4668 z" stroke="url(#linearGradient4407)" fill-rule="evenodd" fill="none"/><path stroke-linecap="round" stroke-dasharray="39 19.5 9.75 19.5" id="rect4474" opacity="0.4" d="m -1048.9031,-29.541019 2,0 0,1 -2,0 z" stroke-width="19.5" transform="matrix(0 -1 -1 0 0 0)" stroke-linejoin="round"/><path stroke-linecap="round" stroke-dasharray="39 19.5 9.75 19.5" id="rect4476" opacity="0.2" d="m -1048.9031,-28.541018 2,0 0,1 -2,0 z" stroke-width="19.5" transform="matrix(0 -1 -1 0 0 0)" stroke-linejoin="round" fill="#fff"/><path stroke-linecap="round" stroke-dasharray="39 19.5 9.75 19.5" id="rect4478" opacity="0.4" d="m -1048.9031,-23.541018 2,0 0,1 -2,0 z" stroke-width="19.5" transform="matrix(0 -1 -1 0 0 0)" stroke-linejoin="round"/><path stroke-linecap="round" stroke-dasharray="39 19.5 9.75 19.5" id="rect4480" opacity="0.2" d="m -1048.9031,-22.541018 2,0 0,1 -2,0 z" stroke-width="19.5" transform="matrix(0 -1 -1 0 0 0)" stroke-linejoin="round" fill="#fff"/><path stroke-linecap="round" stroke-dasharray="39 19.5 9.75 19.5" id="rect4482" opacity="0.4" d="m -1048.9031,-17.541018 2,0 0,1 -2,0 z" stroke-width="19.5" transform="matrix(0 -1 -1 0 0 0)" stroke-linejoin="round"/><path stroke-linecap="round" stroke-dasharray="39 19.5 9.75 19.5" id="rect4484" opacity="0.2" d="m -1048.9031,-16.541018 2,0 0,1 -2,0 z" stroke-width="19.5" transform="matrix(0 -1 -1 0 0 0)" stroke-linejoin="round" fill="#fff"/></g><path stroke-linecap="round" fill-opacity="1" stroke-dasharray="none" id="rect4951" stroke-miterlimit="4" opacity="1" d="m 5,1023.3622 8,0 0,9.9999 -8,0 z" stroke-width="1" stroke="none" stroke-linejoin="round" stroke-dashoffset="0" fill="#6a6a6a" stroke-opacity="1"/></g><metadata id="metadata9999"><rdf:RDF><cc:Work><dc:format>image/svg+xml</dc:format><dc:type rdf:resource="http://purl.org/dc/dcmitype/StillImage"/><dc:title>Ivy icon theme</dc:title><cc:license rdf:resource="http://creativecommons.org/licenses/by-sa/4.0/"/><dc:creator><cc:Agent><dc:title>Sixsixfive (sixsixfive.deviantart.com)</dc:title></cc:Agent></dc:creator><dc:publisher><cc:Agent><dc:title>Sixsixfive (sixsixfive.deviantart.com)</dc:title></cc:Agent></dc:publisher><dc:source>https://github.com/sixsixfive</dc:source><dc:subject><rdf:Bag><rdf:li>ivy</rdf:li></rdf:Bag></dc:subject><dc:contributor><cc:Agent><dc:title>ssf</dc:title></cc:Agent></dc:contributor><dc:rights><cc:Agent><dc:title>Sixsixfive (sixisixfive.deviantart.com)</dc:title></cc:Agent></dc:rights><dc:description>A simple icon theme published under CC-BY-SA_V4(http://creativecommons.org/licenses/by-sa/4.0)</dc:description><dc:identifier>SSF</dc:identifier></cc:Work></rdf:RDF></metadata><!--Part of the Ivy icon them published under the CC-BY-SA_V4: http://creativecommons.org/licenses/by-sa/4.0 -->
</svg>