<?xml version="1.0" encoding="UTF-8" standalone="no"?><svg xmlns:rdf="http://www.w3.org/1999/02/22-rdf-syntax-ns#" xmlns:cc="http://creativecommons.org/ns#" xmlns:svg="http://www.w3.org/2000/svg" id="svg2" viewBox="0 0 32 32" version="1.1" xmlns:xlink="http://www.w3.org/1999/xlink" xmlns:dc="http://purl.org/dc/elements/1.1/" xmlns="http://www.w3.org/2000/svg"><defs id="defs4"><linearGradient id="0" x2="0" y2="20" xlink:href="#4" y1="1" gradientUnits="userSpaceOnUse"/><linearGradient id="1" x2="-4.127" y2="21.765" x1="-4.186" y1="18.234" gradientUnits="userSpaceOnUse"><stop id="stop8" stop-color="#ebebeb"/><stop offset="1" id="stop10" stop-color="#b7b7b7"/></linearGradient><linearGradient id="2" x2="31.447" y2="32.477" x1="30.881" y1="7.121" gradientUnits="userSpaceOnUse"><stop id="stop13" stop-color="#5288d1"/><stop offset="1" id="stop15" stop-color="#96b7e3"/></linearGradient><linearGradient id="3" x2="0" y2="44" gradientTransform="matrix(0.515 0 0 0.5 -1.083 -1)" y1="2" gradientUnits="userSpaceOnUse"><stop id="stop18" stop-color="#dedede"/><stop offset="1" id="stop20" stop-color="#f4f4f4"/></linearGradient><linearGradient id="4"><stop id="stop23" stop-color="#fff"/><stop offset="1" id="stop25" stop-color="#fff" stop-opacity="0"/></linearGradient><linearGradient id="5" x2="2.281" y2="22.971" gradientTransform="matrix(0.66 0 0 0.67035 0.68 -0.626)" x1="3.153" y1="3.993" gradientUnits="userSpaceOnUse"><stop id="stop28" stop-color="#eeeeec"/><stop offset="1" id="stop30" stop-color="#555753"/></linearGradient><linearGradient id="6" x2="30" y2="28" xlink:href="#4" x1="30.14" y1="-2.712" gradientUnits="userSpaceOnUse"/><radialGradient r="14.5" cx="0.704" id="7" cy="16.184" gradientTransform="matrix(-0.26977 -0.23214 0.12854 -0.15625 -2.471 22.427)" gradientUnits="userSpaceOnUse"><stop id="stop34" stop-color="#f28099"/><stop offset="1" id="stop36" stop-color="#ed4c70"/></radialGradient><radialGradient r="5.533" cx="-36.514" id="8" cy="26.712" gradientTransform="matrix(0.40292 -0.44879 0.49702 0.36438 21.702 -6.591)" gradientUnits="userSpaceOnUse"><stop id="stop39" stop-color="#f1d6a5"/><stop offset="1" id="stop41" stop-color="#d49320"/></radialGradient></defs><g id="g43" color="#000"><g id="g45" fill-rule="evenodd"><path id="path47" opacity="0.2" d="m 17.5719,8.0072 c -0.27423,0 -0.437851,0.175496 -0.556875,0.404122 -0.03967,0.07621 -0.06918,0.159325 -0.103125,0.242475 l -0.5156,1.2932 -0.5362,1.3931 c -0.03395,0.08315 -0.06345,0.166264 -0.103125,0.242473 -0.119024,0.228626 -0.28892,0.461265 -0.556875,0.404123 l -6.06375,0 -3.17625,0 -3.96,0 0,17.2977 c 0,0.358215 0.29436,0.646598 0.66,0.646598 l 27.72,0 c 0.36564,0 0.66,-0.288383 0.66,-0.646598 l 0,-20.6306 c 0,-0.358215 -0.317071,-0.522318 -0.66,-0.646597 l -3.56812,0 -5.67188,0 z"/><path id="path49" d="m 4.8463,2.0554 c -0.36564,0 -0.524205,0.32554 -0.66,0.670353 l -0.7837,2.3111 -0.7425,0 c -0.36564,0 -0.66,0.298977 -0.66,0.670353 l 0,22.4291 c 0,0.371376 0.29436,0.670353 0.66,0.670353 l 27.72,0 c 0.36564,0 0.66,-0.298977 0.66,-0.670353 l 0,-22.4291 c 0,-0.371375 -0.29436,-0.670353 -0.66,-0.670353 l -14.85,0 -0.7837,-2.3111 C 14.610605,2.38094 14.45204,2.0554 14.0864,2.0554 Z" fill="url(#5)"/></g><g id="g51" fill="none"><path id="path53" opacity="0.67" d="M 5.2188,3.5938 C 4.929836,4.300017 4.709741,5.06096 4.31255,5.75005 l 0.03125,0 C 4.288476,5.863006 4.232934,5.928823 4.18755,6.00005 4.142166,6.071277 4.072991,6.150054 4.00005,6.18755 3.854167,6.262541 3.709231,6.242781 3.4063,6.25005 a 0.123953,0.123953 0 0 1 -0.03125,0 C 3.232089,6.206978 3.175275,6.234008 3.1563,6.25005 3.137325,6.266092 3.129514,6.310153 3.12505,6.4063 c -0.00893,0.192294 0.051929,0.481091 0,0.71875 l 0,20.5312 26.7812,0 0,-21.4062 -14.375,0 C 15.219462,6.264484 15.06133,6.272968 14.90625,6.18755 14.82871,6.144841 14.765392,6.080093 14.71875,6.00005 14.672108,5.920007 14.617303,5.844204 14.5625,5.7188 14.210939,5.04286 13.991307,4.2817 13.71875,3.5938 l -8.5,0 z" stroke-width="1.02" stroke="#fff" transform="matrix(0.97069 0 0 0.9897 0.505 0.037)" stroke-linejoin="round"/><path id="path55" opacity="0.4" d="M 4.9824,2.5712 C 4.904271,2.5712 4.894577,2.587355 4.839709,2.654498 4.78484,2.721641 4.720004,2.845684 4.656249,3.00851 l -0.7746,2.1987 C 3.831019,5.34073 3.695659,5.435798 3.555498,5.436279 l -0.73384,0 c -0.172995,0 -0.305767,0.135637 -0.305767,0.312366 l 0,22.3949 c 0,0.176729 0.132772,0.312366 0.305767,0.312366 l 27.3967,0 c 0.172995,0 0.305767,-0.135637 0.305767,-0.312366 l 0,-22.3949 c 0,-0.176729 -0.132772,-0.312366 -0.305767,-0.312366 l -14.6768,0 C 15.401397,5.435801 15.266037,5.340733 15.215407,5.207213 l -0.7746,-2.1987 C 14.377049,2.845684 14.312215,2.72164 14.257346,2.654498 14.202476,2.587355 14.192786,2.5712 14.11466,2.5712 Z" stroke="#000"/></g><path id="path57" d="m 17.5719,7.0068 c -0.27423,0 -0.437851,0.175496 -0.556875,0.404122 -0.03967,0.07621 -0.06918,0.159325 -0.103125,0.242475 l -0.5156,1.2932 -0.5362,1.3931 c -0.03395,0.08315 -0.06345,0.166264 -0.103125,0.242473 -0.119024,0.228626 -0.28892,0.461265 -0.556875,0.404123 l -6.06375,0 -3.17625,0 -3.96,0 0,17.2977 c 0,0.358215 0.29436,0.646598 0.66,0.646598 l 27.72,0 c 0.36564,0 0.66,-0.288383 0.66,-0.646598 l 0,-20.6306 c 0,-0.358215 -0.317071,-0.522318 -0.66,-0.646597 l -3.56812,0 -5.6719,0 z" fill-rule="evenodd" fill="url(#2)"/><g id="g59" fill="none"><path id="path61" opacity="0.4" d="m 17.5374,7.4814 c -0.05898,0 -0.06693,0.011853 -0.101773,0.039913 -0.03485,0.02806 -0.09678,0.091787 -0.142479,0.179611 -0.02424,0.04659 -0.044,0.107864 -0.08142,0.199567 l -0.5089,1.2772 -0.5292,1.2772 c -0.02959,0.07254 -0.06807,0.175457 -0.122127,0.279394 -0.07178,0.137984 -0.162407,0.483818 -0.305316,0.598873 -0.142908,0.115057 -0.342757,0.223749 -0.549567,0.179611 l -5.98419,0 -3.13458,0 -3.56202,0 0,16.6438 c 0,0.169306 0.132636,0.299351 0.305316,0.299351 l 27.3563,0 c 0.17268,0 0.305316,-0.130045 0.305316,-0.299351 l 0,-20.3759 c 0,-0.169307 -0.143362,-0.240612 -0.305316,-0.299352 l -3.52131,0 -5.5975,0 z" stroke="#000"/><path id="path63" opacity="0.4" d="m 18.0938,8.5 -0.4375,1.0625 -0.5,1.2812 c -0.06451,0.158155 -0.140936,0.254219 -0.1875,0.34375 0.05082,-0.0977 -0.02435,0.08138 -0.09375,0.25 -0.0694,0.168623 -0.06346,0.392454 -0.46875,0.71875 -0.338692,0.272685 -0.823522,0.474787 -1.4375,0.34375 l 0.2188,0.0312 -5.96875,0 -3.15625,0 -2.5,0 0,14.9062 25.875,0 0,-18.9375 -2.78125,0 -5.59375,0 -2.96875,0 z" stroke="url(#6)"/></g></g><path id="path69" opacity="0.3" d="M 11,9 H31 V29 H11 z"/><g id="g71" transform="matrix(1 0 0 1 10 10)"><path id="rect73" opacity="0.1" d="M 2.604,1 19.396,1 C 19.730616,1 20,1.269384 20,1.604 l 0,19.792 C 20,21.730616 19.730616,22 19.396,22 L 2.604,22 C 2.269384,22 2,21.730616 2,21.396 L 2,1.604 C 2,1.269384 2.269384,1 2.604,1 Z"/><path id="rect75" d="M 2.604,0 19.396,0 C 19.730616,0 20,0.26938399 20,0.60399997 L 20,20.396 C 20,20.730616 19.730616,21 19.396,21 L 2.604,21 C 2.269384,21 2,20.730616 2,20.396 L 2,0.60399997 C 2,0.26938399 2.269384,0 2.604,0 Z" fill="url(#3)"/><path id="path77" opacity="0.8" d="m 17,1 2,0 0,16 -2,0 z" fill="#fff" color="#000"/><g id="g79" fill="none"><path id="path81" opacity="0.4" d="m 2.5938,0.5312 c -0.058216,0 -0.0625,0.00428 -0.0625,0.0625 l 0,19.8125 c 0,0.05822 0.00428,0.0625 0.0625,0.0625 l 16.8125,0 c 0.05822,0 0.0625,-0.0043 0.0625,-0.0625 l 0,-19.8125 c 0,-0.058217 -0.0043,-0.0625 -0.0625,-0.0625 l -16.8125,0 z" stroke="#000"/><path id="path83" opacity="0.8" d="m 3.5312,1.5312 0,17.9375 14.9375,0 0,-17.9375 -14.9375,0 z" stroke="url(#0)"/></g><path id="path85" opacity="0.3" d="M 5,3 17,3 17,4 5,4 Z"/><path id="path87" opacity="0.3" d="m 5,5 7,0 0,1 -7,0 z"/><path id="path89" opacity="0.3" d="m 5,7 9,0 0,1 -9,0 z"/><path id="path91" opacity="0.3" d="m 5,9 10,0 0,1 -10,0 z"/><path id="path93" opacity="0.3" d="m 5,11 7,0 0,1 -7,0 z"/><path id="path95" opacity="0.3" d="m 5,13 9,0 0,1 -9,0 z"/><path id="path97" opacity="0.3" d="m 5,15 11,0 0,1 -11,0 z"/><path id="path99" opacity="0.3" d="m 5,17 7,0 0,1 -7,0 z"/><g id="g101" fill="#fff"><path id="path103" opacity="0.3" d="M 5,4 17,4 17,5 5,5 Z"/><path id="path105" opacity="0.3" d="m 5,6 7,0 0,1 -7,0 z"/><path id="path107" opacity="0.3" d="m 5,8 9,0 0,1 -9,0 z"/><path id="path109" opacity="0.3" d="m 5,10 10,0 0,1 -10,0 z"/><path id="path111" opacity="0.3" d="m 5,12 7,0 0,1 -7,0 z"/><path id="path113" opacity="0.3" d="m 5,14 9,0 0,1 -9,0 z"/><path id="path115" opacity="0.3" d="m 5,16 11,0 0,1 -11,0 z"/><path id="path117" opacity="0.3" d="m 5,18 7,0 0,1 -7,0 z"/></g><g id="g119" transform="matrix(0 -1 1 0 0 0)"><path id="path121" opacity="0.67" d="m -16.622,18 14.178,0 0,4 -14.178,0 z" fill="#eed45a"/><path id="rect123" d="m -12.837,18 11.496,0 C -0.59808598,18 0,18.611466 0,19.371 l 0,1.258 C 0,21.388534 -0.59808598,22 -1.341,22 l -11.496,0 c -0.742914,0 -1.341,-0.611466 -1.341,-1.371 l 0,-1.258 c 0,-0.759534 0.598086,-1.371 1.341,-1.371 z" fill="url(#7)"/></g><path id="path125" d="m 18.00002,17 4,0 -1.9611,4.999951 c -2.038885,-4.999951 0,0 -2.038885,-4.999951 z" fill="url(#8)"/><g id="g127" transform="matrix(0 -1 1 0 0 0)"><path id="path129" d="m -17,21 14,0 0,1 -14,0 z" fill="#a07018"/><path id="path131" d="m -17,19.5 14,0 0,1.5 -14,0 z" fill="#e4ae4e"/><path id="path133" d="m -17,18 14,0 0,1.969 -14,0 z" fill="#eecd92"/><path id="path135" d="m -5,18 2,0 0,4 -2,0 z" fill="url(#1)"/></g><path id="path137" d="m 19.109374,20 0.9219,2 0.8906,-2 -1.8125,0 z" fill="#6a6a6a"/><path id="path139" opacity="0.06" d="m 18.438,17 3.062,0 0,1 -3.062,0 z"/><path id="path141" opacity="0.557" d="M 19.375,0.5 C 18.880546,0.5 18.5,0.878697 18.5,1.34375 l 0,11.5 0,4.03125 1.53125,3.75 1.46875,-3.71875 0,-4.0625 0,-11.5 C 21.5,0.878697 21.11945,0.5 20.625,0.5 l -1.25,0 z" stroke="#000" fill="none"/></g><metadata id="metadata9999"><rdf:RDF><cc:Work><dc:format>image/svg+xml</dc:format><dc:type rdf:resource="http://purl.org/dc/dcmitype/StillImage"/><dc:title>Ivy icon theme</dc:title><cc:license rdf:resource="http://creativecommons.org/licenses/by-sa/4.0/"/><dc:creator><cc:Agent><dc:title>Sixsixfive (sixsixfive.deviantart.com)</dc:title></cc:Agent></dc:creator><dc:publisher><cc:Agent><dc:title>Sixsixfive (sixsixfive.deviantart.com)</dc:title></cc:Agent></dc:publisher><dc:source>https://github.com/sixsixfive</dc:source><dc:subject><rdf:Bag><rdf:li>ivy</rdf:li></rdf:Bag></dc:subject><dc:contributor><cc:Agent><dc:title>ssf</dc:title></cc:Agent></dc:contributor><dc:rights><cc:Agent><dc:title>Sixsixfive (sixisixfive.deviantart.com)</dc:title></cc:Agent></dc:rights><dc:description>A simple icon theme published under CC-BY-SA_V4(http://creativecommons.org/licenses/by-sa/4.0)</dc:description><dc:identifier>SSF</dc:identifier></cc:Work></rdf:RDF></metadata><!--Part of the Ivy icon them published under the CC-BY-SA_V4: http://creativecommons.org/licenses/by-sa/4.0 -->
</svg>