<?xml version="1.0" encoding="UTF-8" standalone="no"?>
<svg xmlns:dc="http://purl.org/dc/elements/1.1/" xmlns:cc="http://creativecommons.org/ns#" xmlns:rdf="http://www.w3.org/1999/02/22-rdf-syntax-ns#" xmlns:svg="http://www.w3.org/2000/svg" xmlns="http://www.w3.org/2000/svg" version="1.1" id="svg2" viewBox="0 0 32 32">
 <path d="m 5.7952163,2.536745 c -0.1428032,0 -0.24989,0.1140125 -0.24989,0.2847881 l 0,26.4220599 c 0,0.170776 0.08981,0.253145 0.24989,0.253145 l 21.4593537,0 c 0.15456,0 0.24989,-0.09657 0.24989,-0.253145 l 0,-26.4220599 c 0,-0.1565722 -0.112607,-0.2847881 -0.24989,-0.2847881 l -21.4593537,0 z" id="path22" opacity="0.4" fill="none" stroke="#000" stroke-width="1.00001"/>
 <path d="m 6.5448863,3.549325 0,24.934782 19.9600137,0 0,-24.934782 -19.9600137,0 z" id="path24" opacity="0.7" fill="none" stroke="url(#1)" stroke-width="1.00001"/>
 <defs id="defs4">
  <linearGradient gradientUnits="userSpaceOnUse" x2="0" y2="27.29" y1="1.614" id="1" gradientTransform="matrix(0.99956,0,0,1.01258,-0.983,1.366)">
   <stop id="stop12" stop-color="#fff"/>
   <stop id="stop14" stop-opacity="0" stop-color="#fff" offset="1"/>
  </linearGradient>
  <linearGradient id="0-1" y1="14.03" y2="29.969" x2="0" gradientUnits="userSpaceOnUse" gradientTransform="translate(5,-2)">
   <stop stop-color="#fff" id="stop7-0"/>
   <stop offset="1" stop-color="#fff" stop-opacity="0" id="stop9-6"/>
  </linearGradient>
  <linearGradient id="1-8" y1="13" y2="31" x2="0" gradientUnits="userSpaceOnUse" gradientTransform="translate(5,-2)">
   <stop stop-color="#929292" id="stop12-8"/>
   <stop offset="1" stop-color="#d6d6d6" id="stop14-4"/>
  </linearGradient>
  <radialGradient cx="25.27" cy="12.786" r="11" id="2" gradientUnits="userSpaceOnUse" gradientTransform="matrix(-1.58792,1.26574,-1.32231,-1.39394,75.12,-8.095)">
   <stop stop-color="#ebebeb" id="stop17"/>
   <stop offset="1" stop-color="#6a6a6a" id="stop19"/>
  </radialGradient>
  <mask maskUnits="userSpaceOnUse" id="mask4356">
   <rect width="22.997" x="5" y="0.995" rx="0.806" height="28" ry="0.806" id="rect4358" opacity="1" fill="#fff"/>
  </mask>
 </defs>
 <metadata id="metadata9999">
  <rdf:RDF>
   <cc:Work>
    <dc:format>image/svg+xml</dc:format>
    <dc:type rdf:resource="http://purl.org/dc/dcmitype/StillImage"/>
    <dc:title/>
    <cc:license rdf:resource="http://creativecommons.org/licenses/by-sa/4.0/"/>
    <dc:creator>
     <cc:Agent>
      <dc:title>Sixsixfive (sixsixfive.deviantart.com)</dc:title>
     </cc:Agent>
    </dc:creator>
    <dc:publisher>
     <cc:Agent>
      <dc:title>Sixsixfive (sixsixfive.deviantart.com)</dc:title>
     </cc:Agent>
    </dc:publisher>
    <dc:source>https://github.com/sixsixfive</dc:source>
    <dc:subject>
     <rdf:Bag>
      <rdf:li>ivy</rdf:li>
     </rdf:Bag>
    </dc:subject>
    <dc:contributor>
     <cc:Agent>
      <dc:title>ssf</dc:title>
     </cc:Agent>
    </dc:contributor>
    <dc:rights>
     <cc:Agent>
      <dc:title>Sixsixfive (sixisixfive.deviantart.com)</dc:title>
     </cc:Agent>
    </dc:rights>
    <dc:description>A simple icon theme published under CC-BY-SA_V4(http://creativecommons.org/licenses/by-sa/4.0)</dc:description>
    <dc:identifier>SSF</dc:identifier>
   </cc:Work>
  </rdf:RDF>
 </metadata>
 <!--Part of the Ivy icon them published under the CC-BY-SA_V4: http://creativecommons.org/licenses/by-sa/4.0 -->
 <g id="g4336" transform="translate(0,1)" mask="url(#mask4356)">
  <path d="M 18.818182,4 C 15.594909,4 13,6.378667 13,9.333333 l 0,7.333334 C 13,19.621333 15.594909,22 18.818182,22 l 4.363637,0 C 26.405092,22 29,19.621333 29,16.666667 L 29,9.333333 C 29,6.378667 26.405092,4 23.18182,4 Z m 0,3.067 4.363637,0 c 1.66749,0 2.909091,0.7378 2.909091,2.266333 l 0,7.333334 c 0,1.528533 -1.241601,2.666666 -2.909091,2.666666 l -4.363637,0 c -1.66749,0 -2.809182,-1.138133 -2.809182,-2.666666 l 0,-7.333334 C 16.009,7.8048 17.150692,7.067 18.818182,7.067 Z" id="path21" opacity="0.15"/>
  <path id="rect23" d="m 13,12 16,0 c 1.108,0 2,0.892 2,2 l 0,14 c 0,1.108 -0.892,2 -2,2 l -16,0 c -1.108,0 -2,-0.892 -2,-2 l 0,-14 c 0,-1.108 0.892,-2 2,-2 z" opacity="0.15"/>
  <path d="M 18.818182,4 C 15.594909,4 13,6.378667 13,9.333333 l 0,7.333334 C 13,19.621333 15.594909,22 18.818182,22 l 4.363637,0 C 26.405092,22 29,19.621333 29,16.666667 L 29,9.333333 C 29,6.378667 26.405092,4 23.18182,4 Z m 0,3.067 4.363637,0 c 1.66749,0 2.909091,0.7378 2.909091,2.266333 l 0,7.333334 c 0,1.528533 -1.241601,2.666666 -2.909091,2.666666 l -4.363637,0 c -1.66749,0 -2.809182,-1.138133 -2.809182,-2.666666 l 0,-7.333334 C 16.009,7.8048 17.150692,7.067 18.818182,7.067 Z" id="path25" fill="url(#2)"/>
  <path d="m 18.8125,4.5315 c -2.954138,0 -5.28125,2.176032 -5.28125,4.8125 l 0,7.3125 c 0,2.636468 2.327112,4.8125 5.28125,4.8125 l 4.375,0 c 2.954138,0 5.28125,-2.176032 5.28125,-4.8125 l 0,-7.3125 c 0,-2.636468 -2.327112,-4.8125 -5.28125,-4.8125 l -4.375,0 z m 0,2 4.375,0 c 0.9157,0 1.761589,0.184386 2.40625,0.65625 C 26.238411,7.659614 26.625,8.432598 26.625,9.344 l 0,7.3125 c 0,1.822805 -1.517636,3.21875 -3.4375,3.21875 l -4.375,0 c -1.919864,0 -3.34375,-1.418216 -3.34375,-3.21875 l 0,-7.3125 c 0,-0.900267 0.345333,-1.678316 0.96875,-2.15625 0.623417,-0.477934 1.4593,-0.65625 2.375,-0.65625 z" id="path27" opacity="0.4" fill="none" stroke="#000"/>
  <path id="rect29" d="m 13,11 16,0 c 1.108,0 2,0.892 2,2 l 0,14 c 0,1.108 -0.892,2 -2,2 l -16,0 c -1.108,0 -2,-0.892 -2,-2 l 0,-14 c 0,-1.108 0.892,-2 2,-2 z" fill="url(#1-8)"/>
  <path id="path39" d="m 13,14 16,0 0,1 -16,0 z" opacity="0.4" fill="#fff"/>
  <path id="path41" d="m 13,19 16,0 0,1 -16,0 z" opacity="0.4" fill="#fff"/>
  <path d="m 11,15 20,0 0,4 -20,0 z" id="path31" fill="#ffd506"/>
  <path id="path49" d="m 13,12.53125 c -0.284237,0 -0.46875,0.184513 -0.46875,0.46875 l 0,14 c 0,0.284237 0.184513,0.46875 0.46875,0.46875 l 16,0 c 0.284237,0 0.46875,-0.184513 0.46875,-0.46875 l 0,-14 c 0,-0.284237 -0.184513,-0.46875 -0.46875,-0.46875 l -16,0 z" opacity="0.4" fill="none" stroke="url(#0-1)"/>
  <path id="path51" d="m 13,11.5 c -0.84491,0 -1.5,0.65509 -1.5,1.5 l 0,14 c 0,0.84491 0.65509,1.5 1.5,1.5 l 16,0 c 0.84491,0 1.5,-0.65509 1.5,-1.5 l 0,-14 c 0,-0.84491 -0.65509,-1.5 -1.5,-1.5 l -16,0 z" opacity="0.4" fill="none" stroke="#000"/>
  <path d="m 14,15 -3,3 0,1 3,0 4,-4 -4,0 z m 14,0 -4,4 4,0 3,-3 0,-1 -3,0 z" id="path33"/>
  <path d="m 12.03,18 17.938,0 0,1 -17.938,0 z" id="path43" opacity="0.4"/>
  <path d="m 12.03,15 17.938,0 0,1 -17.938,0 z" id="path45" opacity="0.4"/>
  <path d="m 17,19 4,-3.999999 4,0 L 21,19 Z" id="path35"/>
 </g>
 <rect id="rect16" ry="0.806" height="28" rx="0.806" y="2.995" opacity="0.06" x="5" width="22.997"/>
</svg>
