<?xml version="1.0" encoding="UTF-8" standalone="no"?><svg xmlns:xlink="http://www.w3.org/1999/xlink" xmlns:cc="http://creativecommons.org/ns#" viewBox="0 0 32 32" version="1.1" id="svg2" xmlns:svg="http://www.w3.org/2000/svg" xmlns:rdf="http://www.w3.org/1999/02/22-rdf-syntax-ns#" xmlns="http://www.w3.org/2000/svg" xmlns:dc="http://purl.org/dc/elements/1.1/"><defs id="0"><linearGradient x2="0" gradientUnits="userSpaceOnUse" id="O" y2="44" gradientTransform="matrix(0.65798 0 0 0.66676 1.063 0.661)" y1="3"><stop id="W" stop-color="#dedede"/><stop offset="1" id="X" stop-color="#f4f4f4"/></linearGradient><linearGradient x2="0" gradientUnits="userSpaceOnUse" id="P" y2="27.29" y1="1.614"><stop id="Y" stop-color="#fff"/><stop offset="1" stop-opacity="0" id="Z" stop-color="#fff"/></linearGradient><linearGradient x2="0" gradientUnits="userSpaceOnUse" id="Q" y2="2" gradientTransform="matrix(0.66666667 0 0 0.66666667 -30.10169 0.135593)" y1="44"><stop id="a" stop-color="#9ebce5"/><stop offset="1" id="b" stop-color="#5288d1"/></linearGradient><linearGradient x2="0" gradientUnits="userSpaceOnUse" xlink:href="#Q" id="R" y2="2" y1="30"/><linearGradient x2="0" gradientUnits="userSpaceOnUse" xlink:href="#P" id="S" y2="27.29" gradientTransform="matrix(0.99956 0 0 1.01258 -0.983 1.366)" y1="1.614"/></defs><rect height="28" width="22.997" opacity="0.06" rx="0.806" ry="0.806" id="1" x="5" y="2.995"/><rect height="28" width="22.997" rx="0.806" ry="0.806" fill="url(#O)" id="2" x="5" y="1.995"/><path fill-rule="evenodd" fill="url(#R)" id="3" d="M 5.8125,2 C 5.365976,2 5,2.365976 5,2.8125 l 0,26.375 C 5,29.634024 5.365976,30 5.8125,30 L 10,30 10,2 5.8125,2 z"/><path opacity="0.4" fill="none" id="4" stroke="#000" d="m 5.7952163,2.536745 c -0.1428032,0 -0.24989,0.1140125 -0.24989,0.2847881 V 29.243593 c 0,0.170776 0.08981,0.253145 0.24989,0.253145 H 27.25457 c 0.15456,0 0.24989,-0.09657 0.24989,-0.253145 V 2.8215331 c 0,-0.1565722 -0.112607,-0.2847881 -0.24989,-0.2847881 H 5.7952163 z"/><path opacity="0.7" fill="none" id="5" stroke="url(#S)" d="M 6.5448863,3.549325 V 28.484107 H 26.5049 V 3.549325 H 6.5448863 z"/><rect height="26" width="1" fill-rule="evenodd" opacity="0.4" id="6" x="9" y="3"/><g id="7" transform="matrix(1 0 0 1 0 -0.005)"><path fill-rule="evenodd" fill="#fff" id="U" d="m 9,11 a 1,1 0 1 1 -2,0 1,1 0 1 1 2,0 z"/><path fill-rule="evenodd" fill="#fff" id="V" transform="matrix(1 0 0 1 0 10)" d="m 9,11 a 1,1 0 1 1 -2,0 1,1 0 1 1 2,0 z"/></g><path opacity="0.3" id="8" d="m 11,5.0000002 h 12 v 1 H 11 z"/><path opacity="0.3" id="9" d="m 11,8.0000002 h 5.25 v 1 H 11 z"/><path opacity="0.3" id="A" d="m 11,11 h 7 v 1 h -7 z"/><path opacity="0.3" id="B" d="M 11.06125,14 H 25 v 1 H 11.06125 z"/><path opacity="0.3" id="C" d="m 11,17 h 10.5 v 1 H 11 z"/><path opacity="0.3" id="D" d="m 11,20 h 13.125 v 1 H 11 z"/><path opacity="0.3" id="E" d="m 11,23 h 11.375 v 1 H 11 z"/><path opacity="0.3" id="F" d="m 11,26 h 9.625 v 1 H 11 z"/><path opacity="0.3" fill="#fff" id="G" d="m 11,6.0000002 h 12 v 1 H 11 z"/><path opacity="0.3" fill="#fff" id="H" d="m 11,9.0000002 h 5.25 V 10 H 11 z"/><path opacity="0.3" fill="#fff" id="I" d="m 11,12 h 7 v 1 h -7 z"/><path opacity="0.3" fill="#fff" id="J" d="M 11.06125,15 H 25 v 1 H 11.06125 z"/><path opacity="0.3" fill="#fff" id="K" d="m 11,18 h 10.5 v 1 H 11 z"/><path opacity="0.3" fill="#fff" id="L" d="m 11,21 h 13.125 v 1 H 11 z"/><path opacity="0.3" fill="#fff" id="M" d="m 11,24 h 11.375 v 1 H 11 z"/><path opacity="0.3" fill="#fff" id="N" d="m 11,27 h 9.625 v 1 H 11 z"/><metadata id="metadata9999"><rdf:RDF><cc:Work><dc:format>image/svg+xml</dc:format><dc:type rdf:resource="http://purl.org/dc/dcmitype/StillImage"/><dc:title>Ivy icon theme</dc:title><cc:license rdf:resource="http://creativecommons.org/licenses/by-sa/4.0/"/><dc:creator><cc:Agent><dc:title>Sixsixfive (sixsixfive.deviantart.com)</dc:title></cc:Agent></dc:creator><dc:publisher><cc:Agent><dc:title>Sixsixfive (sixsixfive.deviantart.com)</dc:title></cc:Agent></dc:publisher><dc:source>https://github.com/sixsixfive</dc:source><dc:subject><rdf:Bag><rdf:li>ivy</rdf:li></rdf:Bag></dc:subject><dc:contributor><cc:Agent><dc:title>ssf</dc:title></cc:Agent></dc:contributor><dc:rights><cc:Agent><dc:title>Sixsixfive (sixisixfive.deviantart.com)</dc:title></cc:Agent></dc:rights><dc:description>A simple icon theme published under CC-BY-SA_V4(http://creativecommons.org/licenses/by-sa/4.0)</dc:description><dc:identifier>SSF</dc:identifier></cc:Work></rdf:RDF></metadata><!--Part of the Ivy icon them published under the CC-BY-SA_V4: http://creativecommons.org/licenses/by-sa/4.0 -->
</svg>