<?xml version="1.0" encoding="UTF-8" standalone="no"?><svg xmlns:cc="http://creativecommons.org/ns#" viewBox="0 0 48 48" version="1.1" id="svg2" xmlns:svg="http://www.w3.org/2000/svg" xmlns:rdf="http://www.w3.org/1999/02/22-rdf-syntax-ns#" xmlns="http://www.w3.org/2000/svg" xmlns:dc="http://purl.org/dc/elements/1.1/"><defs id="defs4"><linearGradient x2="44.06" gradientUnits="userSpaceOnUse" x1="9.103" id="0" y2="-45.07" y1="-45.12"><stop stop-opacity="1" id="stop7" stop-color="#dcdcdc"/><stop offset="1" stop-opacity="1" id="stop9" stop-color="#f1f1f1"/></linearGradient><linearGradient x2="43.977" gradientUnits="userSpaceOnUse" x1="43.804" id="1" y2="43.17" y1="10.03"><stop id="stop12" stop-color="#fff"/><stop offset="1" stop-opacity="0" id="stop14" stop-color="#fff"/></linearGradient></defs><g id="g16" transform="matrix(0 1 -1 0 0 0)"><path opacity="0.1" id="rect18" d="m 11.259,-45 32.533,0 c 0.669786,0 1.209,0.539214 1.209,1.209 l 0,39.582 C 45.001,-3.539214 44.461786,-3 43.792,-3 L 11.259,-3 C 10.589214,-3 10.05,-3.539214 10.05,-4.209 l 0,-39.582 c 0,-0.669786 0.539214,-1.209 1.209,-1.209 z"/><path fill="url(#0)" id="rect20" d="m 10.259,-45 32.533,0 c 0.669786,0 1.209,0.539214 1.209,1.209 l 0,39.582 C 44.001,-3.539214 43.461786,-3 42.792,-3 L 10.259,-3 C 9.5892142,-3 9.0500002,-3.539214 9.0500002,-4.209 l 0,-39.582 c 0,-0.669786 0.539214,-1.209 1.2089998,-1.209 z"/></g><g fill="none" id="g26"><path opacity="0.4" id="path28" stroke="#000" d="m 44.5069,10.2431 c 0,-0.403779 -0.299839,-0.6875 -0.71875,-0.6875 l -39.5625,0 c -0.418911,0 -0.71875,0.283721 -0.71875,0.6875 l 0,32.5312 c 0,0.40378 0.31497,0.71875 0.71875,0.71875 l 39.5625,0 c 0.403779,0 0.71875,-0.31497 0.71875,-0.71875 l 0,-32.5312 z"/><path opacity="0.348" id="path30" stroke="url(#1)" d="m 43.4756,10.5869 -38.9375,0 0,31.875 38.9375,0 0,-31.875 z"/></g><g opacity="0.4228" fill="#fff" id="g4178" transform="matrix(1 0 0 1 0 0.89960853)"><g fill="#fff" id="g4180" transform="matrix(0.70710678 -0.70710678 0.70710678 0.70710678 -12.0804 24.886117)"><path stroke-dasharray="none" fill-opacity="1" stroke-linejoin="round" stroke-miterlimit="4" opacity="1" fill="#fff" id="path4182" stroke="none" stroke-width="1" stroke-linecap="round" stroke-dashoffset="0" stroke-opacity="1" d="m 24,18.025391 a 9,9 0 0 0 -9,9 9,9 0 0 0 9,9 9,9 0 0 0 9,-9 9,9 0 0 0 -9,-9 z M 24,20 a 7,7.0000005 0 0 1 7,7 7,7.0000005 0 0 1 -7,7 7,7.0000005 0 0 1 -7,-7 7,7.0000005 0 0 1 7,-7 z"/><path fill-rule="evenodd" stroke-linejoin="miter" fill="#fff" id="path4184" stroke="none" stroke-width="1" stroke-linecap="butt" stroke-opacity="1" d="m 23,35 2,0 0,-16 -2,0 c 0,5.333333 0,10.666667 0,16 z"/><path fill-rule="evenodd" stroke-linejoin="miter" fill="#fff" id="path4186" stroke="none" stroke-width="1" stroke-linecap="butt" stroke-opacity="1" d="m 16,26 0,2 16,0 0,-2 c -5.333333,0 -10.666667,0 -16,0 z"/></g><path stroke-dasharray="none" fill-opacity="1" stroke-linejoin="round" stroke-miterlimit="4" opacity="1" fill="#fff" id="rect4188" stroke="none" stroke-width="1" stroke-linecap="round" stroke-dashoffset="0" stroke-opacity="1" d="m 10,26 6,0 0,2 -6,0 z"/><path stroke-dasharray="none" fill-opacity="1" stroke-linejoin="round" stroke-miterlimit="4" opacity="1" fill="#fff" id="rect4190" stroke="none" stroke-width="1" stroke-linecap="round" stroke-dashoffset="0" stroke-opacity="1" d="m 32,26 6,0 0,2 -6,0 z"/></g><g fill-opacity="1" fill="#909090" id="g4170"><g fill-opacity="1" fill="#909090" id="g4161" transform="matrix(0.70710678 -0.70710678 0.70710678 0.70710678 -12.0804 24.886117)"><path stroke-dasharray="none" fill-opacity="1" stroke-linejoin="round" stroke-miterlimit="4" opacity="1" fill="#909090" id="path4152" stroke="none" stroke-width="1" stroke-linecap="round" stroke-dashoffset="0" stroke-opacity="1" d="m 24,18.025391 a 9,9 0 0 0 -9,9 9,9 0 0 0 9,9 9,9 0 0 0 9,-9 9,9 0 0 0 -9,-9 z M 24,20 a 7,7.0000005 0 0 1 7,7 7,7.0000005 0 0 1 -7,7 7,7.0000005 0 0 1 -7,-7 7,7.0000005 0 0 1 7,-7 z"/><path fill-opacity="1" fill-rule="evenodd" stroke-linejoin="miter" fill="#909090" id="path4157" stroke="none" stroke-width="1" stroke-linecap="butt" stroke-opacity="1" d="m 23,35 2,0 0,-16 -2,0 c 0,5.333333 0,10.666667 0,16 z"/><path fill-opacity="1" fill-rule="evenodd" stroke-linejoin="miter" fill="#909090" id="path4159" stroke="none" stroke-width="1" stroke-linecap="butt" stroke-opacity="1" d="m 16,26 0,2 16,0 0,-2 c -5.333333,0 -10.666667,0 -16,0 z"/></g><path stroke-dasharray="none" fill-opacity="1" stroke-linejoin="round" stroke-miterlimit="4" opacity="1" fill="#909090" id="rect4166" stroke="none" stroke-width="1" stroke-linecap="round" stroke-dashoffset="0" stroke-opacity="1" d="m 10,26 6,0 0,2 -6,0 z"/><path stroke-dasharray="none" fill-opacity="1" stroke-linejoin="round" stroke-miterlimit="4" opacity="1" fill="#909090" id="rect4168" stroke="none" stroke-width="1" stroke-linecap="round" stroke-dashoffset="0" stroke-opacity="1" d="m 32,26 6,0 0,2 -6,0 z"/></g><metadata id="metadata9999"><rdf:RDF><cc:Work><dc:format>image/svg+xml</dc:format><dc:type rdf:resource="http://purl.org/dc/dcmitype/StillImage"/><dc:title>Ivy icon theme</dc:title><cc:license rdf:resource="http://creativecommons.org/licenses/by-sa/4.0/"/><dc:creator><cc:Agent><dc:title>Sixsixfive (sixsixfive.deviantart.com)</dc:title></cc:Agent></dc:creator><dc:publisher><cc:Agent><dc:title>Sixsixfive (sixsixfive.deviantart.com)</dc:title></cc:Agent></dc:publisher><dc:source>https://github.com/sixsixfive</dc:source><dc:subject><rdf:Bag><rdf:li>ivy</rdf:li></rdf:Bag></dc:subject><dc:contributor><cc:Agent><dc:title>ssf</dc:title></cc:Agent></dc:contributor><dc:rights><cc:Agent><dc:title>Sixsixfive (sixisixfive.deviantart.com)</dc:title></cc:Agent></dc:rights><dc:description>A simple icon theme published under CC-BY-SA_V4(http://creativecommons.org/licenses/by-sa/4.0)</dc:description><dc:identifier>SSF</dc:identifier></cc:Work></rdf:RDF></metadata><!--Part of the Ivy icon them published under the CC-BY-SA_V4: http://creativecommons.org/licenses/by-sa/4.0 -->
</svg>