<?xml version="1.0" encoding="UTF-8" standalone="no"?><svg xmlns:cc="http://creativecommons.org/ns#" viewBox="0 0 32 32" version="1.1" id="svg2" xmlns:svg="http://www.w3.org/2000/svg" xmlns="http://www.w3.org/2000/svg" xmlns:rdf="http://www.w3.org/1999/02/22-rdf-syntax-ns#" xmlns:dc="http://purl.org/dc/elements/1.1/"><defs id="0"><linearGradient x2="5.985" gradientUnits="userSpaceOnUse" x1="40.941" id="9" gradientTransform="matrix(0.65798 0 0 0.66676 -33.938 0.666)"><stop stop-color="#171717" id="J"/><stop offset="1" stop-color="#646464" id="K"/></linearGradient><linearGradient x2="7.03" gradientUnits="userSpaceOnUse" x1="28.04" id="A" gradientTransform="matrix(0 -0.99956 1.01258 0 1.375 36.03)"><stop stop-color="#fff" id="L"/><stop offset="1" stop-opacity="0" stop-color="#fff" id="M"/></linearGradient></defs><g id="1" transform="matrix(0 -1 1 0 0 0)"><path opacity="0.1" id="F" d="m -30.193001,2 21.3850002,0 c 0.446524,0 0.806,0.359476 0.806,0.806 l 0,26.388 c 0,0.446524 -0.359476,0.806 -0.806,0.806 l -21.3850002,0 c -0.446524,0 -0.806,-0.359476 -0.806,-0.806 l 0,-26.388 c 0,-0.446524 0.359476,-0.806 0.806,-0.806 z"/><path fill="url(#9)" id="G" d="m -29.193001,2 21.3850002,0 c 0.446524,0 0.806,0.359476 0.806,0.806 l 0,26.388 c 0,0.446524 -0.359476,0.806 -0.806,0.806 l -21.3850002,0 c -0.446524,0 -0.806,-0.359476 -0.806,-0.806 l 0,-26.388 c 0,-0.446524 0.359476,-0.806 0.806,-0.806 z"/></g><rect height="1" width="22" fill-rule="evenodd" opacity="0.2" fill="#fff" id="2" x="5" y="27"/><g fill="none" id="3"><g stroke="#000" id="H"><path id="R" d="m 2.5462,29.2501 c 0,0.142803 0.114013,0.24989 0.284789,0.24989 l 26.4221,0 c 0.170776,0 0.253146,-0.08981 0.253146,-0.24989 l 0,-21.4592 c 0,-0.15456 -0.09657,-0.249889 -0.253146,-0.249889 l -26.4221,0 C 2.674417,7.541011 2.5462,7.653618 2.5462,7.7909 l 0,21.4592 z"/></g><path opacity="0.3" stroke="url(#A)" id="I" d="m 3.5587,28.5004 24.9349,0 0,-19.9599 -24.9349,0 0,19.9599 z"/></g><path id="4" d="m 20.00003,15.999991 -8,4.000012 -6e-5,-8.000006 z"/><rect height="4" width="22" fill-rule="evenodd" opacity="0.3" fill="#171717" id="5" x="5" y="23"/><rect height="2" width="20" fill-rule="evenodd" opacity="0.6" fill="#ebebeb" id="6" x="6" y="24"/><rect height="2" width="8" fill-rule="evenodd" opacity="0.7" fill="#d02604" id="7" x="6" y="24"/><path fill="#ebebeb" id="8" d="m 20.00003,16.999988 -8,4.000012 -6e-5,-8.000006 z"/><metadata id="metadata9999"><rdf:RDF><cc:Work><dc:format>image/svg+xml</dc:format><dc:type rdf:resource="http://purl.org/dc/dcmitype/StillImage"/><dc:title>Ivy icon theme</dc:title><cc:license rdf:resource="http://creativecommons.org/licenses/by-sa/4.0/"/><dc:creator><cc:Agent><dc:title>Sixsixfive (sixsixfive.deviantart.com)</dc:title></cc:Agent></dc:creator><dc:publisher><cc:Agent><dc:title>Sixsixfive (sixsixfive.deviantart.com)</dc:title></cc:Agent></dc:publisher><dc:source>https://github.com/sixsixfive</dc:source><dc:subject><rdf:Bag><rdf:li>ivy</rdf:li></rdf:Bag></dc:subject><dc:contributor><cc:Agent><dc:title>ssf</dc:title></cc:Agent></dc:contributor><dc:rights><cc:Agent><dc:title>Sixsixfive (sixisixfive.deviantart.com)</dc:title></cc:Agent></dc:rights><dc:description>A simple icon theme published under CC-BY-SA_V4(http://creativecommons.org/licenses/by-sa/4.0)</dc:description><dc:identifier>SSF</dc:identifier></cc:Work></rdf:RDF></metadata><!--Part of the Ivy icon them published under the CC-BY-SA_V4: http://creativecommons.org/licenses/by-sa/4.0 -->
</svg>