<?xml version="1.0" encoding="UTF-8" standalone="no"?>
<svg xmlns:dc="http://purl.org/dc/elements/1.1/" xmlns:cc="http://creativecommons.org/ns#" xmlns:rdf="http://www.w3.org/1999/02/22-rdf-syntax-ns#" xmlns:svg="http://www.w3.org/2000/svg" xmlns="http://www.w3.org/2000/svg" viewBox="0 0 32 32" id="svg2" version="1.1">
 <defs id="defs4">
  <linearGradient id="0" y1="3" y2="44" gradientUnits="userSpaceOnUse" x2="0" gradientTransform="matrix(0.65798 0 0 0.66676 1.063 0.661)">
   <stop stop-color="#dedede" id="stop7"/>
   <stop offset="1" stop-color="#f4f4f4" id="stop9"/>
  </linearGradient>
  <linearGradient id="1" y1="1.614" y2="27.29" gradientUnits="userSpaceOnUse" x2="0">
   <stop stop-color="#fff" id="stop12"/>
   <stop offset="1" stop-color="#fff" stop-opacity="0" id="stop14"/>
  </linearGradient>
 </defs>
 <rect width="22.997" opacity="0.06" x="5" y="2.995" rx="0.806" height="28" ry="0.806" id="rect16"/>
 <rect width="22.997" x="5" y="1.995" fill="url(#0)" rx="0.806" height="28" ry="0.806" id="rect18"/>
 <g transform="matrix(0.99956,0,0,1.01258,-0.983,1.366)" id="g20" fill="none" stroke-width="0.994">
  <path d="m 6.7812,1.1562 c -0.142866,0 -0.25,0.112596 -0.25,0.28125 l 0,26.0938 c 0,0.168654 0.08985,0.25 0.25,0.25 l 21.4688,0 c 0.154628,0 0.25,-0.09537 0.25,-0.25 l 0,-26.0938 C 28.5,1.282823 28.387343,1.1562 28.25,1.1562 l -21.4688,0 z" id="path22" opacity="0.4" stroke="#000"/>
  <path d="m 7.5312,2.1562 0,24.625 19.9688,0 0,-24.625 -19.9688,0 z" id="path24" opacity="0.7" stroke="url(#1)"/>
 </g>
 <path opacity="0.6" d="m 10 12 v 2.666016 v 2.667968 V 20 h 2.599619 h 2.599618 h 5.201145 H 23 V 17.333984 V 14.666016 V 12 H 20.400382 H 12.599619 H 10" id="path26"/>
 <path opacity="0.6" d="m 12 9 h 3 v 3 h -3 z" id="path28"/>
 <path opacity="0.6" d="m 9 6 h 3 v 3 h -3 z" id="path30"/>
 <path opacity="0.1" fill="#fff" d="m 9.780298 20.711363 h -2.666667 v 2.666667 h 2.666667 z" id="path32"/>
 <path opacity="0.6" d="m 10 20 h -3 v 3 h 3 z" id="path34"/>
 <path opacity="0.6" d="m 23 20 h 3 v 3 h -3 z" id="path36"/>
 <path opacity="0.6" d="m 18 23 h 5 v 3 h -5 z" id="path38"/>
 <path opacity="0.6" d="m 10 23 h 5 v 3 h -5 z" id="path40"/>
 <path opacity="0.6" d="m 21 9 h -3 v 3 h 3 z" id="path42"/>
 <path opacity="0.6" d="m 24 6 h -3 v 3 h 3 z" id="path44"/>
 <g id="g46" fill="#fff">
  <path d="m 12,14 3,0 0,3 -3,0 z" id="path48"/>
  <path d="m 21,14 -3,0 0,3 3,0 z" id="path50"/>
 </g>
 <metadata id="metadata9999">
  <rdf:RDF>
   <cc:Work>
    <dc:format>image/svg+xml</dc:format>
    <dc:type rdf:resource="http://purl.org/dc/dcmitype/StillImage"/>
    <dc:title>Ivy icon theme</dc:title>
    <cc:license rdf:resource="http://creativecommons.org/licenses/by-sa/4.0/"/>
    <dc:creator>
     <cc:Agent>
      <dc:title>Sixsixfive (sixsixfive.deviantart.com)</dc:title>
     </cc:Agent>
    </dc:creator>
    <dc:publisher>
     <cc:Agent>
      <dc:title>Sixsixfive (sixsixfive.deviantart.com)</dc:title>
     </cc:Agent>
    </dc:publisher>
    <dc:source>https://github.com/sixsixfive</dc:source>
    <dc:subject>
     <rdf:Bag>
      <rdf:li>ivy</rdf:li>
     </rdf:Bag>
    </dc:subject>
    <dc:contributor>
     <cc:Agent>
      <dc:title>ssf</dc:title>
     </cc:Agent>
    </dc:contributor>
    <dc:rights>
     <cc:Agent>
      <dc:title>Sixsixfive (sixisixfive.deviantart.com)</dc:title>
     </cc:Agent>
    </dc:rights>
    <dc:description>A simple icon theme published under CC-BY-SA_V4(http://creativecommons.org/licenses/by-sa/4.0)</dc:description>
    <dc:identifier>SSF</dc:identifier>
   </cc:Work>
  </rdf:RDF>
 </metadata>
 <!--Part of the Ivy icon them published under the CC-BY-SA_V4: http://creativecommons.org/licenses/by-sa/4.0 -->
</svg>
