<?xml version="1.0" encoding="UTF-8" standalone="no"?>
<svg xmlns:dc="http://purl.org/dc/elements/1.1/" xmlns:cc="http://creativecommons.org/ns#" xmlns:rdf="http://www.w3.org/1999/02/22-rdf-syntax-ns#" xmlns:svg="http://www.w3.org/2000/svg" xmlns="http://www.w3.org/2000/svg" xmlns:xlink="http://www.w3.org/1999/xlink" viewBox="0 0 32 32" id="svg2" version="1.1">
 <defs id="defs4">
  <linearGradient id="0" xlink:href="#4" y1="3" y2="29" x2="0" gradientUnits="userSpaceOnUse"/>
  <linearGradient id="1" y1="3" y2="44" x2="0" gradientUnits="userSpaceOnUse" gradientTransform="matrix(0.65798 0 0 0.66676 1.063 0.661)">
   <stop stop-color="#dedede" id="stop8"/>
   <stop offset="1" stop-color="#f4f4f4" id="stop10"/>
  </linearGradient>
  <linearGradient id="2" xlink:href="#4" y1="1.614" y2="27.29" x2="0" gradientUnits="userSpaceOnUse"/>
  <linearGradient id="3" y1="3" y2="45" x2="0" gradientUnits="userSpaceOnUse" gradientTransform="matrix(0.65482 0 0 0.6671 0.089 -0.017)">
   <stop stop-color="#5288d1" id="stop14"/>
   <stop offset="1" stop-color="#90b2e1" id="stop16"/>
  </linearGradient>
  <linearGradient id="4">
   <stop stop-color="#fff" id="stop19"/>
   <stop offset="1" stop-color="#fff" stop-opacity="0" id="stop21"/>
  </linearGradient>
  <mask id="5">
   <rect width="22.997" x="0.006" y="-3.037" fill="#fff" rx="0.806" height="28" ry="0.806" id="rect24"/>
  </mask>
  <radialGradient cx="7.89" cy="20.1" r="10.55" id="6" xlink:href="#4" gradientUnits="userSpaceOnUse" gradientTransform="matrix(0.47392 0 0 0.37913 5.261 13.381)"/>
 </defs>
 <rect width="22.997" x="5" opacity="0.06" y="2.995" rx="0.806" height="28" ry="0.806" id="rect27"/>
 <rect width="22.997" x="5" y="1.995" fill="url(#1)" rx="0.806" height="28" ry="0.806" id="rect29"/>
 <g mask="url(#5)" transform="translate(4.995,5.03)" id="g31">
  <g id="g33" fill-rule="evenodd">
   <path d="m 15.0785,2.9856 c -0.590358,0.037388 -1.03691,0.136658 -1.03895,0.471206 l 0,18.1629 c -0.992718,-0.370073 -1.63123,-0.578225 -2.82862,-0.578225 -3.96652,0 -7.16661,1.98661 -7.16661,4.81902 0,2.83242 3.20009,5.14043 7.16661,5.14043 3.78838,0 6.49555,-2.09909 6.76666,-4.75489 l 0.02124,0 4e-4,-12.2439 c 0.06025,-0.03617 0.107374,-0.06671 0.169626,-0.107096 2.86592,0.676505 5.56489,1.44183 5.82705,9.05252 8.00413,-5.94797 -1.7403,-13.1696 -8.91739,-19.962 z" id="path35" opacity="0.15"/>
   <path d="m 15.0785,1.9859 c -0.590358,0.037388 -1.03691,0.136658 -1.03895,0.471206 l 0,18.1629 c -0.992718,-0.370073 -1.63123,-0.578225 -2.82862,-0.578225 -3.96652,0 -7.16661,1.98661 -7.16661,4.81902 0,2.83242 3.20009,5.14043 7.16661,5.14043 3.78838,0 6.49555,-2.09909 6.76666,-4.75489 l 0.02124,0 4e-4,-12.2439 c 0.06025,-0.03617 0.107374,-0.06671 0.169626,-0.107096 2.86592,0.676505 5.56489,1.44183 5.82705,9.05252 8.00413,-5.94797 -1.7403,-13.1696 -8.91739,-19.962 z" id="path37" fill="url(#3)"/>
  </g>
  <g id="g39" fill="none">
   <path d="m 14.9375,2.5312 c -0.158459,0.018385 -0.331784,0.038066 -0.40625,0.0625 l 0,18.0312 A 0.48706,0.48706 0 0 1 13.875,21.09365 c -0.990474,-0.369236 -1.51951,-0.5625 -2.65625,-0.5625 -1.90094,0 -3.61037,0.48952 -4.8125,1.28125 -1.20213,0.79173 -1.875,1.8309 -1.875,3.0625 0,1.2316 0.669279,2.35949 1.875,3.21875 1.20572,0.859255 2.92307,1.40625 4.8125,1.40625 3.6089,0 6.00932,-1.95481 6.25,-4.3125 A 0.48706,0.48706 0 0 1 17.5,25.15615 a 0.48706,0.48706 0 0 1 0,-0.0625 l 0,-12.0938 a 0.48706,0.48706 0 0 1 0.25,-0.40625 c 0.07066,-0.04242 0.108471,-0.06275 0.15625,-0.09375 a 0.48706,0.48706 0 0 1 0.375,-0.0625 c 1.43834,0.339522 2.94763,0.717881 4.125,2.0625 1.06732,1.21894 1.77551,3.20933 2,6.4375 1.38662,-1.22791 2.0155,-2.43371 2.09375,-3.6875 0.09104,-1.45867 -0.524882,-3.04051 -1.65625,-4.6875 C 22.62054,9.3259 18.5005,5.88716 14.9375,2.53115 Z" id="path41" opacity="0.4" stroke="#000"/>
   <path d="m 15.4688,4.3125 0,16.3125 a 1.43529,1.43529 0 0 1 -1.9375,1.34375 c -0.986104,-0.367607 -1.29383,-0.5 -2.3125,-0.5 -1.74068,0 -3.27172,0.460117 -4.28125,1.125 C 5.92802,23.258633 5.4688,24.0028 5.4688,24.875 c 0,0.872202 0.479888,1.74177 1.5,2.46875 1.02011,0.726981 2.54323,1.21875 4.25,1.21875 3.25948,0 5.13106,-1.69143 5.3125,-3.46875 a 1.43529,1.43529 0 0 1 0.03125,-0.125 l 0,-11.9688 a 1.43529,1.43529 0 0 1 0.6875,-1.21875 c 0.09094,-0.05459 0.105398,-0.08103 0.125,-0.09375 a 1.43529,1.43529 0 0 1 1.125,-0.1875 c 1.44881,0.341995 3.23846,0.791493 4.625,2.375 0.959632,1.09595 1.50957,2.85464 1.875,5 0.360291,-0.582393 0.527205,-1.12201 0.5625,-1.6875 0.07177,-1.14986 -0.434053,-2.54199 -1.5,-4.09375 -1.86776,-2.719 -5.32274,-5.75588 -8.59375,-8.78125 z" id="path43" opacity="0.5" stroke="url(#0)"/>
   <path d="m 15.4688,4.3125 0,16.3125 a 1.43529,1.43529 0 0 1 -1.9375,1.34375 c -0.986104,-0.367607 -1.29383,-0.5 -2.3125,-0.5 -1.74068,0 -3.27172,0.460117 -4.28125,1.125 C 5.92802,23.258633 5.4688,24.0028 5.4688,24.875 c 0,0.872202 0.479888,1.74177 1.5,2.46875 1.02011,0.726981 2.54323,1.21875 4.25,1.21875 3.25948,0 5.13106,-1.69143 5.3125,-3.46875 a 1.43529,1.43529 0 0 1 0.03125,-0.125 l 0,-11.9688 a 1.43529,1.43529 0 0 1 0.6875,-1.21875 c 0.09094,-0.05459 0.105398,-0.08103 0.125,-0.09375 a 1.43529,1.43529 0 0 1 1.125,-0.1875 c 1.44881,0.341995 3.23846,0.791493 4.625,2.375 0.959632,1.09595 1.50957,2.85464 1.875,5 0.360291,-0.582393 0.527205,-1.12201 0.5625,-1.6875 0.07177,-1.14986 -0.434053,-2.54199 -1.5,-4.09375 -1.86776,-2.719 -5.32274,-5.75588 -8.59375,-8.78125 z" id="path45" opacity="0.5" stroke="url(#6)"/>
  </g>
 </g>
 <g transform="matrix(0.99956,0,0,1.01258,-0.983,1.366)" id="g47" fill="none" stroke-width="0.994">
  <path d="m 6.7812,1.1562 c -0.142866,0 -0.25,0.112596 -0.25,0.28125 l 0,26.0938 c 0,0.168654 0.08985,0.25 0.25,0.25 l 21.4688,0 c 0.154628,0 0.25,-0.09537 0.25,-0.25 l 0,-26.0938 C 28.5,1.282823 28.387343,1.1562 28.25,1.1562 l -21.4688,0 z" id="path49" opacity="0.4" stroke="#000"/>
  <path d="m 7.5312,2.1562 0,24.625 19.9688,0 0,-24.625 -19.9688,0 z" id="path51" opacity="0.7" stroke="url(#2)"/>
 </g>
 <metadata id="metadata9999">
  <rdf:RDF>
   <cc:Work>
    <dc:format>image/svg+xml</dc:format>
    <dc:type rdf:resource="http://purl.org/dc/dcmitype/StillImage"/>
    <dc:title>Ivy icon theme</dc:title>
    <cc:license rdf:resource="http://creativecommons.org/licenses/by-sa/4.0/"/>
    <dc:creator>
     <cc:Agent>
      <dc:title>Sixsixfive (sixsixfive.deviantart.com)</dc:title>
     </cc:Agent>
    </dc:creator>
    <dc:publisher>
     <cc:Agent>
      <dc:title>Sixsixfive (sixsixfive.deviantart.com)</dc:title>
     </cc:Agent>
    </dc:publisher>
    <dc:source>https://github.com/sixsixfive</dc:source>
    <dc:subject>
     <rdf:Bag>
      <rdf:li>ivy</rdf:li>
     </rdf:Bag>
    </dc:subject>
    <dc:contributor>
     <cc:Agent>
      <dc:title>ssf</dc:title>
     </cc:Agent>
    </dc:contributor>
    <dc:rights>
     <cc:Agent>
      <dc:title>Sixsixfive (sixisixfive.deviantart.com)</dc:title>
     </cc:Agent>
    </dc:rights>
    <dc:description>A simple icon theme published under CC-BY-SA_V4(http://creativecommons.org/licenses/by-sa/4.0)</dc:description>
    <dc:identifier>SSF</dc:identifier>
   </cc:Work>
  </rdf:RDF>
 </metadata>
 <!--Part of the Ivy icon them published under the CC-BY-SA_V4: http://creativecommons.org/licenses/by-sa/4.0 -->
</svg>
