<?xml version="1.0" encoding="UTF-8" standalone="no"?>
<svg xmlns:dc="http://purl.org/dc/elements/1.1/" xmlns:cc="http://creativecommons.org/ns#" xmlns:rdf="http://www.w3.org/1999/02/22-rdf-syntax-ns#" xmlns:svg="http://www.w3.org/2000/svg" xmlns="http://www.w3.org/2000/svg" xmlns:xlink="http://www.w3.org/1999/xlink" viewBox="0 0 32 32" id="svg2" version="1.1">
 <defs id="defs4">
  <linearGradient id="0" y1="1.614" y2="27.29" x2="0" gradientUnits="userSpaceOnUse">
   <stop stop-color="#fff" id="stop7"/>
   <stop offset="1" stop-color="#fff" stop-opacity="0" id="stop9"/>
  </linearGradient>
  <linearGradient id="1" y1="3" y2="44" x2="0" gradientUnits="userSpaceOnUse" gradientTransform="matrix(0.65798 0 0 0.66676 1.063 0.661)">
   <stop stop-color="#dedede" id="stop12"/>
   <stop offset="1" stop-color="#f4f4f4" id="stop14"/>
  </linearGradient>
  <linearGradient id="2" xlink:href="#0" y1="12.721" x1="9.89" y2="32.534" x2="-9.924" gradientUnits="userSpaceOnUse"/>
  <linearGradient id="3" y1="22.609" x1="21.19" y2="43.842" x2="-0.035" gradientUnits="userSpaceOnUse">
   <stop stop-color="#ffb636" id="stop18"/>
   <stop offset="1" stop-color="#ffe775" id="stop20"/>
  </linearGradient>
  <mask id="4">
   <rect width="22.997" x="-2.08" y="-5.01" fill="#fff" rx="0.806" height="28" ry="0.806" id="rect23"/>
  </mask>
 </defs>
 <rect width="22.997" x="5" opacity="0.06" y="2.995" rx="0.806" height="28" ry="0.806" id="rect25"/>
 <rect width="22.997" x="5" y="1.995" fill="url(#1)" rx="0.806" height="28" ry="0.806" id="rect27"/>
 <g mask="url(#4)" transform="translate(7.08,7)" id="g29">
  <g transform="matrix(0.70763,-0.70658,0.70763,0.70658,0,0)" id="g31">
   <path d="m -10.466,12.338 19.4520002,0 c 0.69527,0 1.2549998,0.55973 1.2549998,1.255 l 0,19.452 c 0,0.69527 -0.5597298,1.255 -1.2549998,1.255 L -10.466,34.3 c -0.69527,0 -1.255,-0.55973 -1.255,-1.255 l 0,-19.452 c 0,-0.69527 0.55973,-1.255 1.255,-1.255 z" id="rect33" opacity="0.1"/>
   <path d="m -9.7550002,11.631 19.4519999,0 c 0.6952703,0 1.2550003,0.55973 1.2550003,1.255 l 0,19.451999 c 0,0.69527 -0.55973,1.255 -1.2550003,1.255 l -19.4519999,0 c -0.6952698,0 -1.2549998,-0.55973 -1.2549998,-1.255 l 0,-19.451999 c 0,-0.69527 0.55973,-1.255 1.2549998,-1.255 z" id="rect35" fill="url(#3)"/>
  </g>
  <path d="m 16.46875,9 c -0.122172,3.4e-4 -0.226464,0.00972 -0.34375,0.03125 -0.552544,0.215262 -0.97907,0.751782 -1.09375,1.34375 -0.166808,1.022491 0.947146,1.958654 1.875,1.625 0.510845,-0.13992 1.010379,-0.585809 1.0625,-1.15625 0.14596,-0.527389 -0.114264,-1.113569 -0.5,-1.46875 -0.258028,-0.274462 -0.633483,-0.37601 -1,-0.375 z M 10.875,11.65625 c -0.314785,0.178447 -0.40742,0.546283 -0.5,0.875 C 10.245382,13.09476 10.120358,13.664627 10,14.21875 9.824091,14.10605 9.657391,13.962771 9.5,13.8125 9.324091,13.87824 9.188667,14.05277 9.28125,14.25 c 0.231461,0.122095 0.443308,0.287229 0.65625,0.4375 -0.00925,0.234798 0.1528,0.42487 0.375,0.5 -0.20368,0.300541 -0.65625,0.452364 -0.65625,0.875 -0.046273,1.05189 0.037033,2.10436 0,3.15625 C 9.443309,20.10159 9.212942,20.992161 9,21.875 c -0.018519,0.31933 -0.083299,0.727804 0.25,0.90625 0.370337,0.30993 0.979176,0.05395 1.0625,-0.40625 0.277748,-1.098853 0.575258,-2.19179 0.84375,-3.28125 0.03703,-0.695001 -0.0092,-1.398749 0,-2.09375 0.57402,0.666825 1.141255,1.376891 1.6875,2.0625 -0.212942,0.44142 -0.452568,0.892939 -0.65625,1.34375 -0.259239,0.65743 -0.658586,1.220641 -0.84375,1.90625 0.06481,0.216014 0.158585,0.452872 0.34375,0.59375 0.29627,0.14088 0.665536,3.39e-4 0.90625,-0.1875 0.222202,-0.375676 0.43984,-0.76179 0.625,-1.15625 0.305526,-0.629258 0.669007,-1.226958 0.9375,-1.875 0.08333,-0.206622 0.26852,-0.421452 0.25,-0.65625 0.01852,-0.366284 -0.26854,-0.652668 -0.5,-0.90625 -0.03703,-0.09391 0.14121,-0.184596 0.1875,-0.0625 1.03693,0.864055 2.08806,1.729694 3.125,2.59375 -0.34256,0.19723 -0.636591,0.48686 -0.8125,0.84375 -0.3333,-0.06574 -0.530111,0.193311 -0.6875,0.4375 0.07406,0.20662 -0.09261,0.27493 -0.25,0.3125 -0.30553,0 -0.575258,0.127904 -0.84375,0.25 -0.101844,0.159661 -0.223392,0.296622 -0.34375,0.4375 C 14.855269,23.02202 15.43524,22.9436 16,23 c 2.305335,-0.03757 4.600915,-0.01246 6.90625,-0.03125 -0.203683,-0.44142 -0.606528,-0.85007 -1.125,-0.8125 -0.111098,-0.187837 -0.265063,-0.31233 -0.46875,-0.40625 -0.0093,-0.385068 -0.1667,-0.783986 -0.5,-1 -0.194426,-0.112707 -0.461823,-0.09392 -0.65625,0 -0.12962,-0.262974 -0.305573,-0.502736 -0.5,-0.71875 -0.148131,-0.169055 -0.390068,-0.174865 -0.59375,-0.25 -0.555505,-0.131486 -0.99193,0.27118 -1.34375,0.65625 -1.212844,-0.892232 -2.318402,-1.910877 -3.53125,-2.8125 0.527726,-1.014326 1.088014,-1.995066 1.625,-3 0.185168,-0.366286 -0.01507,-0.752568 -0.21875,-1.0625 -0.39811,-0.610474 -0.870409,-1.192634 -1.25,-1.8125 -0.185168,-0.03758 -0.368074,-0.07189 -0.5625,-0.0625 -0.96287,0 -1.934121,-0.02186 -2.90625,-0.03125 z" id="path37" opacity="0.4" fill="#fff"/>
  <g id="g39" fill="#171717" stroke="#010102">
   <path d="m 16.11234,8.03372 c 0.46914,-0.086105 1.01126,-0.02153 1.355296,0.344417 0.385736,0.355182 0.635944,0.936387 0.489989,1.463776 -0.05212,0.57044 -0.53169,1.011726 -1.042535,1.151646 -0.927854,0.333654 -2.053797,-0.591967 -1.88699,-1.614458 0.11468,-0.591968 0.531693,-1.13012 1.08424,-1.345381 z" id="path41" stroke-width="0.01"/>
   <path d="m 10.365552,11.534505 c 0.09258,-0.328717 0.203682,-0.685609 0.518467,-0.864056 0.972129,0.0094 1.934999,0.0094 2.897869,0.0094 0.194426,-0.0094 0.379596,0.03756 0.564764,0.07513 0.379591,0.619866 0.842512,1.183381 1.240622,1.793855 0.203683,0.309932 0.39811,0.704392 0.212942,1.070678 -0.536986,1.004934 -1.092492,2.000476 -1.620218,3.014802 1.212848,0.901623 2.333113,1.915949 3.545957,2.808181 0.351815,-0.385074 0.79622,-0.807704 1.351725,-0.676218 0.203682,0.07513 0.444402,0.103311 0.592533,0.272364 0.194427,0.216016 0.361077,0.460205 0.490697,0.723179 0.194424,-0.09392 0.4444,-0.131487 0.638826,-0.01878 0.333304,0.216014 0.499954,0.629258 0.509209,1.014326 0.203687,0.09392 0.370337,0.225407 0.481435,0.413245 0.518472,-0.03757 0.916582,0.3475 1.120265,0.78892 -2.305335,0.01879 -4.601412,-0.0094 -6.906745,0.02817 -0.564762,-0.05635 -1.138781,0.04696 -1.7128,-0.03756 0.120358,-0.140878 0.222201,-0.300542 0.324045,-0.460203 0.268492,-0.122096 0.546245,-0.253582 0.851767,-0.253582 0.157394,-0.03757 0.314785,-0.09392 0.24072,-0.300542 0.157389,-0.244189 0.361078,-0.516555 0.694376,-0.450811 0.175909,-0.356895 0.46292,-0.63865 0.80548,-0.83588 -1.036938,-0.864056 -2.083138,-1.709327 -3.120068,-2.573385 -0.04629,-0.122093 -0.203689,-0.03756 -0.166656,0.05635 0.231456,0.253581 0.499952,0.535339 0.481434,0.90162 0.01852,0.234801 -0.14813,0.432031 -0.231455,0.638653 -0.268493,0.648042 -0.657349,1.249124 -0.962875,1.878382 -0.185168,0.39446 -0.38885,0.78892 -0.611052,1.164596 -0.240714,0.187839 -0.601792,0.319329 -0.898062,0.178446 -0.185165,-0.140878 -0.296268,-0.356892 -0.361074,-0.572906 0.185164,-0.685609 0.583274,-1.267911 0.842513,-1.925341 0.203682,-0.450811 0.435142,-0.892232 0.648084,-1.33365 -0.546245,-0.685611 -1.083231,-1.380612 -1.657251,-2.04744 -0.0092,0.695004 0.0278,1.399397 -0.0092,2.0944 -0.268492,1.08946 -0.564764,2.178921 -0.842512,3.277774 -0.08332,0.460204 -0.712895,0.713786 -1.083232,0.403853 C 8.90275,21.612031 8.976815,21.1894 8.995334,20.870069 9.208276,19.98723 9.430476,19.11378 9.643418,18.230943 9.680451,17.17905 9.624898,16.12715 9.671171,15.07526 c 0,-0.422634 0.425889,-0.582297 0.62957,-0.882838 C 10.07854,14.11729 9.92115,13.929449 9.930404,13.694651 9.717462,13.54438 9.52304,13.365934 9.291579,13.243839 9.198996,13.04661 9.328612,12.886947 9.504521,12.821203 c 0.157391,0.150271 0.333304,0.281757 0.509209,0.394461 0.120362,-0.554123 0.222204,-1.117634 0.351822,-1.681152 z" id="path43" stroke-width="0.009"/>
  </g>
  <g transform="matrix(0.70763,-0.70658,0.70763,0.70658,0,0)" id="g45" fill="none">
   <path d="m -9.75,12.09375 c -0.449456,0 -0.78125,0.331794 -0.78125,0.78125 l 0,19.46875 c 0,0.449456 0.331794,0.78125 0.78125,0.78125 l 19.4375,0 c 0.449456,0 0.78125,-0.331794 0.78125,-0.78125 l 0,-19.46875 c 0,-0.449456 -0.331794,-0.78125 -0.78125,-0.78125 l -19.4375,0 z" id="path47" opacity="0.4" stroke="#000"/>
   <path d="m -9.5625,13.0625 0,19.09375 19.0625,0 0,-19.09375 -19.0625,0 z" id="path49" opacity="0.4" stroke="url(#2)"/>
  </g>
 </g>
 <g transform="matrix(0.99956,0,0,1.01258,-0.983,1.366)" id="g51" fill="none" stroke-width="0.994">
  <path d="m 6.7812,1.1562 c -0.142866,0 -0.25,0.112596 -0.25,0.28125 l 0,26.0938 c 0,0.168654 0.08985,0.25 0.25,0.25 l 21.4688,0 c 0.154628,0 0.25,-0.09537 0.25,-0.25 l 0,-26.0938 C 28.5,1.282823 28.387343,1.1562 28.25,1.1562 l -21.4688,0 z" id="path53" opacity="0.4" stroke="#000"/>
  <path d="m 7.5312,2.1562 0,24.625 19.9688,0 0,-24.625 -19.9688,0 z" id="path55" opacity="0.7" stroke="url(#0)"/>
 </g>
 <metadata id="metadata9999">
  <rdf:RDF>
   <cc:Work>
    <dc:format>image/svg+xml</dc:format>
    <dc:type rdf:resource="http://purl.org/dc/dcmitype/StillImage"/>
    <dc:title>Ivy icon theme</dc:title>
    <cc:license rdf:resource="http://creativecommons.org/licenses/by-sa/4.0/"/>
    <dc:creator>
     <cc:Agent>
      <dc:title>Sixsixfive (sixsixfive.deviantart.com)</dc:title>
     </cc:Agent>
    </dc:creator>
    <dc:publisher>
     <cc:Agent>
      <dc:title>Sixsixfive (sixsixfive.deviantart.com)</dc:title>
     </cc:Agent>
    </dc:publisher>
    <dc:source>https://github.com/sixsixfive</dc:source>
    <dc:subject>
     <rdf:Bag>
      <rdf:li>ivy</rdf:li>
     </rdf:Bag>
    </dc:subject>
    <dc:contributor>
     <cc:Agent>
      <dc:title>ssf</dc:title>
     </cc:Agent>
    </dc:contributor>
    <dc:rights>
     <cc:Agent>
      <dc:title>Sixsixfive (sixisixfive.deviantart.com)</dc:title>
     </cc:Agent>
    </dc:rights>
    <dc:description>A simple icon theme published under CC-BY-SA_V4(http://creativecommons.org/licenses/by-sa/4.0)</dc:description>
    <dc:identifier>SSF</dc:identifier>
   </cc:Work>
  </rdf:RDF>
 </metadata>
 <!--Part of the Ivy icon them published under the CC-BY-SA_V4: http://creativecommons.org/licenses/by-sa/4.0 -->
</svg>
