<?xml version="1.0" encoding="UTF-8" standalone="no"?><svg xmlns:svg="http://www.w3.org/2000/svg" xmlns="http://www.w3.org/2000/svg" viewBox="0 0 32 32" xmlns:rdf="http://www.w3.org/1999/02/22-rdf-syntax-ns#" version="1.1" id="svg2" xmlns:dc="http://purl.org/dc/elements/1.1/" xmlns:cc="http://creativecommons.org/ns#"><defs id="defs4"><linearGradient y1="3" x2="0" y2="44" id="0" gradientTransform="matrix(0.65798 0 0 0.66676 1.063 0.661)" gradientUnits="userSpaceOnUse"><stop id="stop7" stop-color="#dedede"/><stop offset="1" id="stop9" stop-color="#f4f4f4"/></linearGradient><linearGradient y1="1.614" x2="0" y2="27.29" id="1" gradientUnits="userSpaceOnUse"><stop id="stop12" stop-color="#fff"/><stop stop-opacity="0" offset="1" id="stop14" stop-color="#fff"/></linearGradient></defs><g opacity="0.5" id="g16"><path opacity="0.06" id="rect18" d="m 5.806,2.9949999 21.385,0 c 0.446524,0 0.806,0.359476 0.806,0.806 l 0,26.3880001 c 0,0.446524 -0.359476,0.806 -0.806,0.806 l -21.385,0 C 5.359476,30.995 5,30.635524 5,30.189 L 5,3.8009999 c 0,-0.446524 0.359476,-0.806 0.806,-0.806 z"/><path id="rect20" d="m 5.806,1.995 21.385,0 c 0.446524,0 0.806,0.359476 0.806,0.806 l 0,26.388 c 0,0.446524 -0.359476,0.806 -0.806,0.806 l -21.385,0 C 5.359476,29.995 5,29.635524 5,29.189 L 5,2.801 C 5,2.354476 5.359476,1.995 5.806,1.995 Z" fill="url(#0)"/><g stroke-width="0.994" id="g22" transform="matrix(0.99956 0 0 1.01258 -0.983 1.366)" fill="none"><path stroke="#000" opacity="0.4" id="path24" d="m 6.7812,1.1562 c -0.142866,0 -0.25,0.112596 -0.25,0.28125 l 0,26.0938 c 0,0.168654 0.08985,0.25 0.25,0.25 l 21.4688,0 c 0.154628,0 0.25,-0.09537 0.25,-0.25 l 0,-26.0938 C 28.5,1.282823 28.387343,1.1562 28.25,1.1562 l -21.4688,0 z"/><path stroke="url(#1)" opacity="0.7" id="path26" d="m 7.5312,2.1562 0,24.625 19.9688,0 0,-24.625 -19.9688,0 z"/></g><g opacity="0.8" id="g28" transform="matrix(0.1625 0 0 0.16565 10 12.748)" fill-rule="evenodd" fill="#6a6a6a"><path id="path30" d="M 54.9623,37.2806 72.0997,27.019 79.7782,39.4401 c 1.8547,8.10516 -8.30907,11.0795 -16.4698,10.5962 z"/><path id="path32" d="M 51.0675,47.8768 42.0536,63.8269 51.0675,80 l 0.2226,-5.8679 8.2349,0 c 3.00462,0.260249 6.89949,-2.31162 8.34616,-5.17445 l 10.5718,-16.9949 c -3.48684,3.4577 -7.97546,4.57377 -13.1313,4.35001 l -13.9103,0 z"/><path id="path34" d="M 30.9284,28.2118 13.6591,18.1748 22.8722,4.2455 c 6.16978,-5.55944 13.6976,1.90353 17.2371,9.28949 l -9.1809,14.6768 z"/><path id="path36" d="M 42.0618,25.2751 60.35,25.4322 70.0824,10.8897 64.3313,13.8348 60.3342,6.6184 C 59.10281,3.85908 55.49344,1.4024 52.29404,1.52423 l -22.0606,0.156 c 4.70857,1.37725 7.66319,4.87318 10.1682,9.39574 l 6.7518,12.1898 -5.0918,2.0094 z"/><path id="path38" d="m 0.444,27.3809 5.3508,4.1012 -5.0361,10.6737 c -2.51803,4.36413 1.80775,4.9926 4.56391,6.47239 2.71328,1.45678 6.92459,1.62997 10.859,1.5774 l 7.0819,-8.9436 5.3508,2.8393 -9.2852,-16.8782 z"/><path id="path40" d="m 1.2309,51.7237 11.4885,18.4046 c 2.30819,2.8919 6.66229,3.57544 11.1737,3.47028 l 12.118,0 0,-17.3004 -22.977,-0.1577 C 9.46689,56.350794 4.79806,55.614676 1.2308,51.72376 Z"/></g></g><metadata id="metadata9999"><rdf:RDF><cc:Work><dc:format>image/svg+xml</dc:format><dc:type rdf:resource="http://purl.org/dc/dcmitype/StillImage"/><dc:title>Ivy icon theme</dc:title><cc:license rdf:resource="http://creativecommons.org/licenses/by-sa/4.0/"/><dc:creator><cc:Agent><dc:title>Sixsixfive (sixsixfive.deviantart.com)</dc:title></cc:Agent></dc:creator><dc:publisher><cc:Agent><dc:title>Sixsixfive (sixsixfive.deviantart.com)</dc:title></cc:Agent></dc:publisher><dc:source>https://github.com/sixsixfive</dc:source><dc:subject><rdf:Bag><rdf:li>ivy</rdf:li></rdf:Bag></dc:subject><dc:contributor><cc:Agent><dc:title>ssf</dc:title></cc:Agent></dc:contributor><dc:rights><cc:Agent><dc:title>Sixsixfive (sixisixfive.deviantart.com)</dc:title></cc:Agent></dc:rights><dc:description>A simple icon theme published under CC-BY-SA_V4(http://creativecommons.org/licenses/by-sa/4.0)</dc:description><dc:identifier>SSF</dc:identifier></cc:Work></rdf:RDF></metadata><!--Part of the Ivy icon them published under the CC-BY-SA_V4: http://creativecommons.org/licenses/by-sa/4.0 -->
</svg>