<?xml version="1.0" encoding="UTF-8" standalone="no"?><svg viewBox="0 0 32 32" xmlns="http://www.w3.org/2000/svg" xmlns:svg="http://www.w3.org/2000/svg" xmlns:rdf="http://www.w3.org/1999/02/22-rdf-syntax-ns#" xmlns:xlink="http://www.w3.org/1999/xlink" version="1.1" id="svg2" xmlns:dc="http://purl.org/dc/elements/1.1/" xmlns:cc="http://creativecommons.org/ns#"><defs id="0"><linearGradient x1="40.941" x2="5.985" gradientTransform="matrix(0.65798 0 0 0.66676 -33.938 0.666)" id="9" gradientUnits="userSpaceOnUse"><stop id="J" stop-color="#dedede"/><stop offset="1" id="K" stop-color="#f4f4f4"/></linearGradient><linearGradient x1="28.04" x2="7.03" gradientTransform="matrix(0 -0.99956 1.01258 0 1.375 36.03)" id="A" gradientUnits="userSpaceOnUse"><stop id="L" stop-color="#fff"/><stop stop-opacity="0" offset="1" id="M" stop-color="#fff"/></linearGradient><linearGradient x1="15.901" x2="8" id="1-7" gradientUnits="userSpaceOnUse"><stop id="stop12" stop-color="#aeaeae"/><stop offset="1" id="stop14" stop-color="#838383"/></linearGradient><linearGradient xlink:href="#1-7" y1="12" x2="0" y2="8" gradientTransform="matrix(1 0 0 1.2500001 0 -3)" id="linearGradient4251" gradientUnits="userSpaceOnUse"/></defs><rect y="2" x="-30.999" opacity="0.1" ry="0.806" height="28" rx="0.806" transform="matrix(0 -1 1 0 0 0)" id="F" width="22.997"/><rect y="2" x="-29.999" ry="0.806" height="28" rx="0.806" transform="matrix(0 -1 1 0 0 0)" id="G" width="22.997" fill="url(#9)"/><path opacity="0.3" id="path4242" fill-rule="evenodd" d="m 10.429667,16.001564 c -2.436451,0.07426 -3.059751,1.894818 -2.929666,3.422741 0.228377,0.06081 0.50592,0.356848 0.500001,0.570716 -0.114732,1.293121 0.210059,2.513295 0.999999,3.424293 0,0.570716 0,0 0,0.570716 -1.158595,0.192958 -1.88654,0.447356 -2.7349657,0.684567 -1.2327906,0.322108 -1.3260656,2.304738 -1.2423906,3.310441 10.9823553,-0.03521 -0.02122,0.04708 10.9773553,0 -0.03764,-1.099472 -0.175172,-3.080145 -1.42904,-3.382905 -0.828646,-0.252559 -1.588556,-0.6228 -2.570962,-0.612103 0,-0.570716 0,0 0,-0.570716 0.740066,-0.496923 0.972645,-2.656604 1.000001,-2.853579 0.138076,-0.210276 0.218449,-0.769921 0.255664,-1.052798 0.193629,-1.471855 -0.540165,-3.46801 -2.581021,-3.511373 -0.08276,-0.0018 -0.166379,-0.0024 -0.244976,0 z" fill="#fff"/><rect stroke-linejoin="round" y="7" x="3" stroke-width="1.5" opacity="0.8" stroke-linecap="round" height="5" id="rect4243" width="26" fill="url(#linearGradient4251)"/><g opacity="0.5" id="3" fill="none"><g stroke="#000" id="H"><path id="R" d="m 2.5462,29.2501 c 0,0.142803 0.114013,0.24989 0.284789,0.24989 l 26.4221,0 c 0.170776,0 0.253146,-0.08981 0.253146,-0.24989 l 0,-21.4592 c 0,-0.15456 -0.09657,-0.249889 -0.253146,-0.249889 l -26.4221,0 C 2.674417,7.541011 2.5462,7.653618 2.5462,7.7909 l 0,21.4592 z"/></g><path stroke="url(#A)" opacity="0.8" id="I" d="m 3.5587,28.5004 24.9349,0 0,-19.9599 -24.9349,0 0,19.9599 z"/></g><path opacity="0.3" id="path4244" d="m 18,16 9,0 0,2 -9,0 z" fill="#fff"/><rect y="12" x="3" opacity="0.4" height="1" id="rect4253" width="26"/><circle id="path4257" cy="10" cx="11" r="1" fill="#fff"/><circle id="circle4259" cy="10" cx="21" r="1" fill="#fff"/><path opacity="0.3" id="3-5" fill-rule="evenodd" d="m 10.429667,15.001564 c -2.436451,0.07426 -3.059751,1.894818 -2.929666,3.422741 0.228377,0.06081 0.50592,0.356848 0.500001,0.570716 -0.114732,1.293121 0.210059,2.513295 0.999999,3.424293 0,0.570716 0,0 0,0.570716 -1.158595,0.192958 -1.88654,0.447356 -2.7349657,0.684567 -1.2327906,0.322108 -1.3260656,2.304738 -1.2423906,3.310441 10.9823553,-0.03521 -0.02122,0.04708 10.9773553,0 -0.03764,-1.099472 -0.175172,-3.080145 -1.42904,-3.382905 -0.828646,-0.252559 -1.588556,-0.6228 -2.570962,-0.612103 0,-0.570716 0,0 0,-0.570716 0.740066,-0.496923 0.972645,-2.656604 1.000001,-2.853579 0.138076,-0.210276 0.218449,-0.769921 0.255664,-1.052798 0.193629,-1.471855 -0.540165,-3.46801 -2.581021,-3.511373 -0.08276,-0.0018 -0.166379,-0.0024 -0.244976,0 z" fill="#171717"/><path opacity="0.3" id="path4246" d="m 18,19 3,0 0,2.017478 -3,0 z" fill="#fff"/><path opacity="0.3" id="4" d="m 18,15 9,0 0,2 -9,0 z" fill="#171717"/><path opacity="0.3" id="path4248" d="m 18,22 6,0 0,2 -6,0 z" fill="#fff"/><path opacity="0.3" id="5" d="m 18,18 3,0 0,2.017478 -3,0 z" fill="#171717"/><path opacity="0.3" id="path4250" d="m 18,25 4,0 0,2 -4,0 z" fill="#fff"/><path opacity="0.3" id="6" d="m 18,21 6,0 0,2 -6,0 z" fill="#171717"/><path opacity="0.3" id="7" d="m 18,24 4,0 0,2 -4,0 z" fill="#171717"/><metadata id="metadata9999"><rdf:RDF><cc:Work><dc:format>image/svg+xml</dc:format><dc:type rdf:resource="http://purl.org/dc/dcmitype/StillImage"/><dc:title>Ivy icon theme</dc:title><cc:license rdf:resource="http://creativecommons.org/licenses/by-sa/4.0/"/><dc:creator><cc:Agent><dc:title>Sixsixfive (sixsixfive.deviantart.com)</dc:title></cc:Agent></dc:creator><dc:publisher><cc:Agent><dc:title>Sixsixfive (sixsixfive.deviantart.com)</dc:title></cc:Agent></dc:publisher><dc:source>https://github.com/sixsixfive</dc:source><dc:subject><rdf:Bag><rdf:li>ivy</rdf:li></rdf:Bag></dc:subject><dc:contributor><cc:Agent><dc:title>ssf</dc:title></cc:Agent></dc:contributor><dc:rights><cc:Agent><dc:title>Sixsixfive (sixisixfive.deviantart.com)</dc:title></cc:Agent></dc:rights><dc:description>A simple icon theme published under CC-BY-SA_V4(http://creativecommons.org/licenses/by-sa/4.0)</dc:description><dc:identifier>SSF</dc:identifier></cc:Work></rdf:RDF></metadata><!--Part of the Ivy icon them published under the CC-BY-SA_V4: http://creativecommons.org/licenses/by-sa/4.0 -->
</svg>