<?xml version="1.0" encoding="UTF-8" standalone="no"?>
<svg xmlns:dc="http://purl.org/dc/elements/1.1/" xmlns:cc="http://creativecommons.org/ns#" xmlns:rdf="http://www.w3.org/1999/02/22-rdf-syntax-ns#" xmlns:svg="http://www.w3.org/2000/svg" xmlns="http://www.w3.org/2000/svg" viewBox="0 0 32 32" id="svg2" version="1.1">
 <defs id="defs4">
  <linearGradient id="0" y1="3" y2="44" x2="0" gradientUnits="userSpaceOnUse" gradientTransform="matrix(0.65798 0 0 0.66676 1.063 0.661)">
   <stop stop-color="#dedede" id="stop7"/>
   <stop offset="1" stop-color="#f4f4f4" id="stop9"/>
  </linearGradient>
  <linearGradient id="1" y1="1.614" y2="27.29" x2="0" gradientUnits="userSpaceOnUse">
   <stop stop-color="#fff" id="stop12"/>
   <stop offset="1" stop-color="#fff" stop-opacity="0" id="stop14"/>
  </linearGradient>
 </defs>
 <rect width="22.997" x="5" opacity="0.06" y="2.995" rx="0.806" height="28" ry="0.806" id="rect16"/>
 <rect width="22.997" x="5" y="1.995" fill="url(#0)" rx="0.806" height="28" ry="0.806" id="rect18"/>
 <g id="g20" fill="#fff">
  <path d="m 15,18 1,0 0,4 -1,0 z" id="path22" opacity="0.3"/>
  <path d="m 15,23 1,0 0,4 -1,0 z" id="path24" opacity="0.3"/>
  <path d="m 14,22 1,0 0,1 -1,0 z" id="path26" opacity="0.3"/>
  <g transform="matrix(0,1,-1,0,0,0)" id="g28">
   <path d="m 17,-18 1,0 0,2 -1,0 z" id="path30" opacity="0.3"/>
   <path d="m 27,-18 1,0 0,2 -1,0 z" id="path32" opacity="0.3"/>
  </g>
  <g transform="scale(-1,1)" id="g34">
   <path d="m -24,18 1,0 0,4 -1,0 z" id="path36" opacity="0.3"/>
   <path d="m -24,23 1,0 0,4 -1,0 z" id="path38" opacity="0.3"/>
   <path d="m -25,22 1,0 0,1 -1,0 z" id="path40" opacity="0.3"/>
  </g>
  <g transform="matrix(0,1,1,0,0,0)" id="g42">
   <path d="m 17,21 1,0 0,2 -1,0 z" id="path44" opacity="0.3"/>
   <path d="m 27,21 1,0 0,2 -1,0 z" id="path46" opacity="0.3"/>
  </g>
 </g>
 <g transform="matrix(0.99956,0,0,1.01258,-0.983,1.366)" id="g48" fill="none" stroke-width="0.994">
  <path d="m 6.7812,1.1562 c -0.142866,0 -0.25,0.112596 -0.25,0.28125 l 0,26.0938 c 0,0.168654 0.08985,0.25 0.25,0.25 l 21.4688,0 c 0.154628,0 0.25,-0.09537 0.25,-0.25 l 0,-26.0938 C 28.5,1.282823 28.387343,1.1562 28.25,1.1562 l -21.4688,0 z" id="path50" opacity="0.4" stroke="#000"/>
  <path d="m 7.5312,2.1562 0,24.625 19.9688,0 0,-24.625 -19.9688,0 z" id="path52" opacity="0.7" stroke="url(#1)"/>
 </g>
 <path opacity="0.3" d="M 15,17 H16 V21 H15 z" id="path54"/>
 <path opacity="0.3" d="M 15,22 H16 V26 H15 z" id="path56"/>
 <path opacity="0.3" d="M 14,21 H15 V22 H14 z" id="path58"/>
 <g transform="matrix(0,1,-1,0,0,0)" id="g60">
  <path d="m 16,-18 1,0 0,2 -1,0 z" id="path62" opacity="0.3"/>
  <path d="m 26,-18 1,0 0,2 -1,0 z" id="path64" opacity="0.3"/>
 </g>
 <g transform="scale(-1,1)" id="g66">
  <path d="m -24,17 1,0 0,4 -1,0 z" id="path68" opacity="0.3"/>
  <path d="m -24,22 1,0 0,4 -1,0 z" id="path70" opacity="0.3"/>
  <path d="m -25,21 1,0 0,1 -1,0 z" id="path72" opacity="0.3"/>
 </g>
 <g transform="matrix(0,1,1,0,0,0)" id="g74">
  <path d="m 16,21 1,0 0,2 -1,0 z" id="path76" opacity="0.3"/>
  <path d="m 26,21 1,0 0,2 -1,0 z" id="path78" opacity="0.3"/>
 </g>
 <metadata id="metadata9999">
  <rdf:RDF>
   <cc:Work>
    <dc:format>image/svg+xml</dc:format>
    <dc:type rdf:resource="http://purl.org/dc/dcmitype/StillImage"/>
    <dc:title>Ivy icon theme</dc:title>
    <cc:license rdf:resource="http://creativecommons.org/licenses/by-sa/4.0/"/>
    <dc:creator>
     <cc:Agent>
      <dc:title>Sixsixfive (sixsixfive.deviantart.com)</dc:title>
     </cc:Agent>
    </dc:creator>
    <dc:publisher>
     <cc:Agent>
      <dc:title>Sixsixfive (sixsixfive.deviantart.com)</dc:title>
     </cc:Agent>
    </dc:publisher>
    <dc:source>https://github.com/sixsixfive</dc:source>
    <dc:subject>
     <rdf:Bag>
      <rdf:li>ivy</rdf:li>
     </rdf:Bag>
    </dc:subject>
    <dc:contributor>
     <cc:Agent>
      <dc:title>ssf</dc:title>
     </cc:Agent>
    </dc:contributor>
    <dc:rights>
     <cc:Agent>
      <dc:title>Sixsixfive (sixisixfive.deviantart.com)</dc:title>
     </cc:Agent>
    </dc:rights>
    <dc:description>A simple icon theme published under CC-BY-SA_V4(http://creativecommons.org/licenses/by-sa/4.0)</dc:description>
    <dc:identifier>SSF</dc:identifier>
   </cc:Work>
  </rdf:RDF>
 </metadata>
 <!--Part of the Ivy icon them published under the CC-BY-SA_V4: http://creativecommons.org/licenses/by-sa/4.0 -->
</svg>
