<?xml version="1.0" encoding="UTF-8" standalone="no"?><svg viewBox="0 0 32 32" xmlns:svg="http://www.w3.org/2000/svg" xmlns="http://www.w3.org/2000/svg" xmlns:rdf="http://www.w3.org/1999/02/22-rdf-syntax-ns#" xmlns:xlink="http://www.w3.org/1999/xlink" version="1.1" id="svg2" xmlns:dc="http://purl.org/dc/elements/1.1/" xmlns:cc="http://creativecommons.org/ns#"><defs id="0"><linearGradient y1="3" x2="0" y2="44" gradientTransform="matrix(0.65798 0 0 0.66676 1.063 0.661)" id="A" gradientUnits="userSpaceOnUse"><stop id="J" stop-color="#dedede"/><stop offset="1" id="K" stop-color="#f4f4f4"/></linearGradient><linearGradient y1="1.614" x2="0" y2="27.29" id="B" gradientUnits="userSpaceOnUse"><stop id="L" stop-color="#fff"/><stop stop-opacity="0" offset="1" id="M" stop-color="#fff"/></linearGradient><linearGradient xlink:href="#F" y1="30" x2="0" y2="2" id="C" gradientUnits="userSpaceOnUse"/><linearGradient xlink:href="#B" y1="1.614" x2="0" y2="27.29" gradientTransform="matrix(0.99956 0 0 1.01258 -0.983 1.366)" id="D" gradientUnits="userSpaceOnUse"/><linearGradient y1="44" x2="0" y2="2" gradientTransform="matrix(0.66666667 0 0 0.66666667 -32 -0.333333)" id="F" gradientUnits="userSpaceOnUse"><stop id="P" stop-color="#b1db99"/><stop offset="1" id="Q" stop-color="#66b03e"/></linearGradient></defs><rect y="2.995" x="5" opacity="0.06" ry="0.806" rx="0.806" height="28" id="1" width="22.997"/><rect y="1.995" x="5" ry="0.806" rx="0.806" height="28" id="2" width="22.997" fill="url(#A)"/><path opacity="0.3" id="3" fill-rule="evenodd" d="m 12,7 0,1 0,20 1,0 11,0 1,0 0,-21 -1,0 -12,0 z m 1,1 5,0 0,4 -5,0 0,-4 z m 6,0 5,0 0,4 -5,0 0,-4 z m -6,5 5,0 0,4 -5,0 0,-4 z m 6,0 5,0 0,4 -5,0 0,-4 z m -6,5 5,0 0,4 -5,0 0,-4 z m 6,0 5,0 0,4 -5,0 0,-4 z m -6,5 5,0 0,4 -5,0 0,-4 z m 6,0 5,0 0,4 -5,0 0,-4 z" fill="#fff"/><path id="4" fill-rule="evenodd" d="M 5.8125,2 C 5.365976,2 5,2.365976 5,2.8125 l 0,26.375 C 5,29.634024 5.365976,30 5.8125,30 L 10,30 10,2 5.8125,2 z" fill="url(#C)"/><path stroke="#000" opacity="0.4" id="5" d="m 5.7952163,2.536745 c -0.1428032,0 -0.24989,0.1140125 -0.24989,0.2847881 V 29.243593 c 0,0.170776 0.08981,0.253145 0.24989,0.253145 H 27.25457 c 0.15456,0 0.24989,-0.09657 0.24989,-0.253145 V 2.8215331 c 0,-0.1565722 -0.112607,-0.2847881 -0.24989,-0.2847881 H 5.7952163 z" fill="none"/><path stroke="url(#D)" opacity="0.7" id="6" d="M 6.5448863,3.549325 V 28.484107 H 26.5049 V 3.549325 H 6.5448863 z" fill="none"/><rect y="3" x="9" opacity="0.4" height="26" id="7" width="1" fill-rule="evenodd"/><g transform="matrix(1 0 0 1 0 -0.005)" id="8"><path id="H" fill-rule="evenodd" d="m 9,11 a 1,1 0 1 1 -2,0 1,1 0 1 1 2,0 z" fill="#fff"/><path transform="matrix(1 0 0 1 0 10)" id="I" fill-rule="evenodd" d="m 9,11 a 1,1 0 1 1 -2,0 1,1 0 1 1 2,0 z" fill="#fff"/></g><path opacity="0.3" id="9" fill-rule="evenodd" d="m 12,6 0,1 0,20 1,0 11,0 1,0 0,-21 -1,0 -12,0 z m 1,1 5,0 0,4 -5,0 0,-4 z m 6,0 5,0 0,4 -5,0 0,-4 z m -6,5 5,0 0,4 -5,0 0,-4 z m 6,0 5,0 0,4 -5,0 0,-4 z m -6,5 5,0 0,4 -5,0 0,-4 z m 6,0 5,0 0,4 -5,0 0,-4 z m -6,5 5,0 0,4 -5,0 0,-4 z m 6,0 5,0 0,4 -5,0 0,-4 z" fill="#6a6a6a"/><metadata id="metadata9999"><rdf:RDF><cc:Work><dc:format>image/svg+xml</dc:format><dc:type rdf:resource="http://purl.org/dc/dcmitype/StillImage"/><dc:title>Ivy icon theme</dc:title><cc:license rdf:resource="http://creativecommons.org/licenses/by-sa/4.0/"/><dc:creator><cc:Agent><dc:title>Sixsixfive (sixsixfive.deviantart.com)</dc:title></cc:Agent></dc:creator><dc:publisher><cc:Agent><dc:title>Sixsixfive (sixsixfive.deviantart.com)</dc:title></cc:Agent></dc:publisher><dc:source>https://github.com/sixsixfive</dc:source><dc:subject><rdf:Bag><rdf:li>ivy</rdf:li></rdf:Bag></dc:subject><dc:contributor><cc:Agent><dc:title>ssf</dc:title></cc:Agent></dc:contributor><dc:rights><cc:Agent><dc:title>Sixsixfive (sixisixfive.deviantart.com)</dc:title></cc:Agent></dc:rights><dc:description>A simple icon theme published under CC-BY-SA_V4(http://creativecommons.org/licenses/by-sa/4.0)</dc:description><dc:identifier>SSF</dc:identifier></cc:Work></rdf:RDF></metadata><!--Part of the Ivy icon them published under the CC-BY-SA_V4: http://creativecommons.org/licenses/by-sa/4.0 -->
</svg>