<?xml version="1.0" encoding="UTF-8" standalone="no"?><svg xmlns:cc="http://creativecommons.org/ns#" xmlns:dc="http://purl.org/dc/elements/1.1/" xmlns:svg="http://www.w3.org/2000/svg" xmlns="http://www.w3.org/2000/svg" xmlns:rdf="http://www.w3.org/1999/02/22-rdf-syntax-ns#" id="svg2" version="1.1" xmlns:xlink="http://www.w3.org/1999/xlink" viewBox="0 0 48 48"><defs id="defs4"><linearGradient gradientUnits="userSpaceOnUse" y1="3" id="0" y2="44" x2="0"><stop id="stop7" stop-color="#dedede"/><stop id="stop9" stop-color="#f4f4f4" offset="1"/></linearGradient><linearGradient gradientUnits="userSpaceOnUse" y1="3" id="1" x1="40" y2="42.969" x2="39.906"><stop id="stop12" stop-color="#fff"/><stop stop-opacity="0" id="stop14" stop-color="#fff" offset="1"/></linearGradient><linearGradient gradientUnits="userSpaceOnUse" y1="20" id="0-7" y2="32.08" x2="0"><stop id="stop7-2" stop-color="#66b03e"/><stop id="stop9-8" stop-color="#a2d586" offset="1"/></linearGradient><linearGradient gradientUnits="userSpaceOnUse" y1="31.92" id="1-7" y2="44" x2="0"><stop id="stop12-0" stop-color="#a868d4"/><stop id="stop14-8" stop-color="#dabfed" offset="1"/></linearGradient><linearGradient gradientUnits="userSpaceOnUse" xlink:href="#7" id="2" x1="9" x2="43"/><linearGradient gradientUnits="userSpaceOnUse" y1="32" id="3" y2="44.08" x2="0"><stop id="stop18" stop-color="#ed4c70"/><stop id="stop20" stop-color="#f59fb2" offset="1"/></linearGradient><linearGradient gradientUnits="userSpaceOnUse" y1="32" id="4" y2="44" x2="0"><stop id="stop23" stop-color="#e4ae4e"/><stop id="stop25" stop-color="#eabf74" offset="1"/></linearGradient><linearGradient gradientUnits="userSpaceOnUse" y1="20" id="5" y2="32.08" x2="0"><stop id="stop28" stop-color="#5288d1"/><stop id="stop30" stop-color="#8cb0e1" offset="1"/></linearGradient><linearGradient gradientUnits="userSpaceOnUse" y1="20" id="6" y2="32" x2="0"><stop id="stop33" stop-color="#eed45a"/><stop id="stop35" stop-color="#f3e28e" offset="1"/></linearGradient><linearGradient id="7"><stop id="stop38" stop-color="#fff"/><stop stop-opacity="0" id="stop40" stop-color="#fff" offset="1"/></linearGradient><linearGradient gradientUnits="userSpaceOnUse" y1="8" id="8" y2="20" x2="0"><stop id="stop43" stop-color="#d02604"/><stop id="stop45" stop-color="#fc775d" offset="1"/></linearGradient><linearGradient gradientUnits="userSpaceOnUse" y1="8" id="9" y2="20" x2="0"><stop id="stop48" stop-color="#ffd506"/><stop id="stop50" stop-color="#ffe773" offset="1"/></linearGradient><linearGradient gradientUnits="userSpaceOnUse" y1="7.919" id="A" y2="20" x2="0"><stop id="stop53" stop-color="#ff8b36"/><stop id="stop55" stop-color="#ffb178" offset="1"/></linearGradient><linearGradient gradientUnits="userSpaceOnUse" xlink:href="#7" y1="4.906" id="B" y2="39" x2="0"/><linearGradient gradientUnits="userSpaceOnUse" xlink:href="#7" id="linearGradient3854" x1="9" x2="43"/><clipPath id="clipPath3860" clipPathUnits="userSpaceOnUse"><rect width="34.951" ry="1.209" height="42" rx="1.209" id="rect3862" y="-2.0810001" x="1.9860001" fill="#fff"/></clipPath><linearGradient id="linearGradient4208"><stop stop-opacity="1" id="stop4210" stop-color="#a868d4"/><stop stop-opacity="1" id="stop4212" stop-color="#c9a1e4" offset="1"/></linearGradient><linearGradient id="linearGradient4200"><stop stop-opacity="1" id="stop4202" stop-color="#5288d1"/><stop stop-opacity="1" id="stop4204" stop-color="#85acdf" offset="1"/></linearGradient><linearGradient id="linearGradient4192"><stop stop-opacity="1" id="stop4194" stop-color="#d02604"/><stop stop-opacity="1" id="stop4196" stop-color="#fc5d3e" offset="1"/></linearGradient><linearGradient gradientUnits="userSpaceOnUse" xlink:href="#7" y1="18" id="linearGradient4171" x1="39" y2="42" x2="39"/><linearGradient gradientUnits="userSpaceOnUse" xlink:href="#7" y1="6" id="linearGradient4185" x1="26" y2="30" x2="26"/><linearGradient gradientUnits="userSpaceOnUse" xlink:href="#linearGradient4192" y1="5" id="linearGradient4198" x1="13" y2="30" x2="13"/><linearGradient gradientUnits="userSpaceOnUse" xlink:href="#linearGradient4200" y1="17" id="linearGradient4206" x1="39" y2="43" x2="39"/><linearGradient gradientUnits="userSpaceOnUse" xlink:href="#linearGradient4208" y1="17" id="linearGradient4214" x1="25" y2="31" x2="25"/><clipPath id="clipPath4806" clipPathUnits="userSpaceOnUse"><rect width="34.951" ry="1.209" height="42" rx="1.209" id="rect4808" y="-5" x="-0.01399994" fill="#fff"/></clipPath></defs><rect width="34.951" ry="1.209" height="42" rx="1.209" opacity="0.1" id="rect16" y="3" x="6"/><g transform="matrix(1 0 0 1 4 4.081)" id="g3829" clip-path="url(#clipPath3860)"><path opacity="0.144" d="m 6,32.92 36,0 L 42,45 6,45 Z" id="path58"/><path d="m 6,7.919 12,0 0,12.08 -12,0 z" id="path60" fill="url(#8)"/><path d="m 6,19.92 12,0 L 18,32 6,32 Z" id="path62" fill="url(#6)"/><path d="m 6,31.92 12,0 L 18,44 6,44 Z" id="path64" fill="url(#1-7)"/><path d="m 18,32 12,0 0,12.08 -12,0 z" id="path66" fill="url(#3)"/><path d="m 30,32 12,0 0,12.08 -12,0 z" id="path68" fill="url(#4)"/><path d="m 30,20 12,0 0,12.08 -12,0 z" id="path70" fill="url(#5)"/><path d="m 18,20 12,0 0,12.08 -12,0 z" id="path72" fill="url(#0-7)"/><path d="m 18,8 12,0 0,12.08 -12,0 z" id="path74" fill="url(#A)"/><path d="m 30,7.919 12,0 0,12.08 -12,0 z" id="path76" fill="url(#9)"/><g transform="matrix(1 0 0 1 2 4)" id="g78" fill="none"><path stroke="#000" opacity="0.5" d="m 4.5312,4.4375 0,35.0312 34.9375,0 0,-35.0312 -34.9375,0 z" id="path80"/><path stroke="url(#B)" opacity="0.7" d="m 5.5,5.4062 0,33.0938 33,0 0,-33.0938 -33,0 z" id="path82"/></g><path opacity="0.4" d="m 7,19 34,0 0,1 -34,0 z" id="path84"/><path opacity="0.4" d="m 7,31 34,0 0,1 -34,0 z" id="path86"/><g id="g88" fill="#fff"><path opacity="0.4" d="m 7,32 34,0 0,1 -34,0 z" id="path90"/><path opacity="0.4" d="m 7,20 34,0 0,1 -34,0 z" id="path92"/></g><g transform="matrix(0 1 -1 0 0 0)" id="g94"><path opacity="0.12000002" d="m 8,-19 35,0 0,1 -35,0 z" id="path96"/><path opacity="0.4" d="m 9,-18 34,0 0,1 -34,0 z" id="path98" fill="url(#linearGradient3854)"/><path opacity="0.12000002" d="m 8,-31 35,0 0,1 -35,0 z" id="path100"/><path opacity="0.4" d="m 9,-30 34,0 0,1 -34,0 z" id="path102" fill="url(#2)"/></g></g><rect width="34.951" ry="1.209" height="42" rx="1.209" id="rect18" y="2" x="5.986" fill="url(#0)"/><g transform="matrix(1 0 0 1 6 7)" id="g4794" clip-path="url(#clipPath4806)"><path stroke="none" stroke-width="1.39999998" opacity="0.2" stroke-dashoffset="0" stroke-dasharray="none" d="M 18.5,6 A 13.5,13 0 0 0 5,19 13.5,13 0 0 0 16.027344,31.771484 13.5,13 0 0 0 29.5,44 13.5,13 0 0 0 43,31 13.5,13 0 0 0 31.972656,18.228516 13.5,13 0 0 0 18.5,6 Z" id="ellipse4187" stroke-linejoin="round" fill-rule="evenodd" stroke-miterlimit="4" fill="#000" stroke-linecap="round" stroke-opacity="1" fill-opacity="1"/><ellipse cy="18" stroke="none" cx="18.5" ry="13" rx="13.5" opacity="1" stroke-width="1.39999998" stroke-dashoffset="0" stroke-dasharray="none" id="path3348" stroke-linejoin="round" fill-rule="evenodd" stroke-miterlimit="4" fill="url(#linearGradient4198)" stroke-linecap="round" stroke-opacity="1" fill-opacity="1"/><ellipse cy="30" stroke="none" cx="29.5" ry="13" rx="13.5" opacity="1" stroke-width="1.39999998" stroke-dashoffset="0" stroke-dasharray="none" id="ellipse3350" stroke-linejoin="round" fill-rule="evenodd" stroke-miterlimit="4" fill="url(#linearGradient4206)" stroke-linecap="round" stroke-opacity="1" fill-opacity="1"/><path stroke="none" stroke-width="1.39999998" opacity="1" stroke-dashoffset="0" stroke-dasharray="none" d="M 29.5,17 A 13.5,13 0 0 0 16,30 13.5,13 0 0 0 16.027344,30.771484 13.5,13 0 0 0 18.5,31 13.5,13 0 0 0 32,18 13.5,13 0 0 0 31.972656,17.228516 13.5,13 0 0 0 29.5,17 Z" id="ellipse3354" stroke-linejoin="round" fill-rule="evenodd" stroke-miterlimit="4" fill="url(#linearGradient4214)" stroke-linecap="round" stroke-opacity="1" fill-opacity="1"/><path stroke="#000" stroke-width="1" opacity="0.5" stroke-dashoffset="0" stroke-dasharray="none" d="m 29.5,17.525391 c -3.402001,0 -6.781405,1.348818 -9.181641,3.660156 C 17.918124,23.496885 16.525391,26.73927 16.525391,30 c 0,3.26073 1.392733,6.503115 3.792968,8.814453 2.400236,2.311338 5.77964,3.660156 9.181641,3.660156 3.402001,0 6.781405,-1.348818 9.181641,-3.660156 C 41.081876,36.503115 42.474609,33.26073 42.474609,30 c 0,-3.26073 -1.392733,-6.503115 -3.792968,-8.814453 C 36.281405,18.874209 32.902001,17.525391 29.5,17.525391 Z" id="path4161" stroke-linejoin="round" fill-rule="evenodd" stroke-miterlimit="4" fill="none" stroke-linecap="round" stroke-opacity="1" fill-opacity="1"/><path stroke="url(#linearGradient4171)" stroke-width="1" opacity="0.4" stroke-dashoffset="0" stroke-dasharray="none" d="m 29.5,18.574219 c -3.13741,0 -6.25067,1.246304 -8.453125,3.367187 -2.202455,2.120883 -3.472656,5.0832 -3.472656,8.058594 0,2.975394 1.270201,5.937711 3.472656,8.058594 2.202455,2.120883 5.315715,3.367187 8.453125,3.367187 3.13741,0 6.25067,-1.246304 8.453125,-3.367187 2.202455,-2.120883 3.472656,-5.0832 3.472656,-8.058594 0,-2.975394 -1.270201,-5.937711 -3.472656,-8.058594 C 35.75067,19.820523 32.63741,18.574219 29.5,18.574219 Z" id="path4163" stroke-linejoin="round" fill-rule="evenodd" stroke-miterlimit="4" fill="none" stroke-linecap="round" stroke-opacity="1" fill-opacity="1"/><path stroke="#000" stroke-width="1" opacity="0.5" stroke-dashoffset="0" stroke-dasharray="none" d="m 18.5,5.5214844 c -3.403064,0 -6.784517,1.348053 -9.1855469,3.6601562 C 6.9134229,11.493744 5.5214844,14.738124 5.5214844,18 c 0,3.261876 1.3919385,6.506256 3.7929687,8.818359 2.4010299,2.312104 5.7824829,3.660157 9.1855469,3.660157 3.403064,0 6.784517,-1.348053 9.185547,-3.660157 2.40103,-2.312103 3.792969,-5.556483 3.792969,-8.818359 0,-3.261876 -1.391939,-6.506256 -3.792969,-8.8183594 C 25.284517,6.8695374 21.903064,5.5214844 18.5,5.5214844 Z" id="path4175" stroke-linejoin="round" fill-rule="evenodd" stroke-miterlimit="4" fill="none" stroke-linecap="round" stroke-opacity="1" fill-opacity="1"/><path stroke="url(#linearGradient4185)" stroke-width="1" opacity="0.4" stroke-dashoffset="0" stroke-dasharray="none" d="m 18.5,6.484375 c -3.159837,0 -6.296406,1.2555519 -8.515625,3.3925781 -2.2192195,2.1370259 -3.5,5.1234679 -3.5,8.1230469 0,2.999579 1.2807805,5.986021 3.5,8.123047 2.219219,2.137026 5.355788,3.392578 8.515625,3.392578 3.159837,0 6.296406,-1.255552 8.515625,-3.392578 2.219219,-2.137026 3.5,-5.123468 3.5,-8.123047 0,-2.999579 -1.280781,-5.986021 -3.5,-8.1230469 C 24.796406,7.7399269 21.659837,6.484375 18.5,6.484375 Z" id="path4177" stroke-linejoin="round" fill-rule="evenodd" stroke-miterlimit="4" fill="none" stroke-linecap="round" stroke-opacity="1" fill-opacity="1"/></g><g id="g20" fill="none"><path stroke="#000" opacity="0.4" d="M 7.1875,2.5 C 6.783721,2.5 6.5,2.799839 6.5,3.21875 l 0,39.5625 C 6.5,43.20016 6.783721,43.5 7.1875,43.5 l 32.53125,0 c 0.40378,0 0.71875,-0.31497 0.71875,-0.71875 l 0,-39.5625 C 40.4375,2.814971 40.12253,2.5 39.71875,2.5 L 7.1875,2.5 Z" id="path22"/><path stroke="url(#1)" opacity="0.78" d="m 7.5312,3.5312 0,38.9375 31.875,0 0,-38.9375 -31.875,0 z" id="path24"/></g><metadata id="metadata9999"><rdf:RDF><cc:Work><dc:format>image/svg+xml</dc:format><dc:type rdf:resource="http://purl.org/dc/dcmitype/StillImage"/><dc:title/><cc:license rdf:resource="http://creativecommons.org/licenses/by-sa/4.0/"/><dc:creator><cc:Agent><dc:title>Sixsixfive (sixsixfive.deviantart.com)</dc:title></cc:Agent></dc:creator><dc:publisher><cc:Agent><dc:title>Sixsixfive (sixsixfive.deviantart.com)</dc:title></cc:Agent></dc:publisher><dc:source>https://github.com/sixsixfive</dc:source><dc:subject><rdf:Bag><rdf:li>ivy</rdf:li></rdf:Bag></dc:subject><dc:contributor><cc:Agent><dc:title>ssf</dc:title></cc:Agent></dc:contributor><dc:rights><cc:Agent><dc:title>Sixsixfive (sixisixfive.deviantart.com)</dc:title></cc:Agent></dc:rights><dc:description>A simple icon theme published under CC-BY-SA_V4(http://creativecommons.org/licenses/by-sa/4.0)</dc:description><dc:identifier>SSF</dc:identifier></cc:Work></rdf:RDF></metadata><!--Part of the Ivy icon them published under the CC-BY-SA_V4: http://creativecommons.org/licenses/by-sa/4.0 -->
</svg>