<?xml version="1.0" encoding="UTF-8" standalone="no"?><svg xmlns:cc="http://creativecommons.org/ns#" xmlns:svg="http://www.w3.org/2000/svg" xmlns="http://www.w3.org/2000/svg" xmlns:dc="http://purl.org/dc/elements/1.1/" xmlns:rdf="http://www.w3.org/1999/02/22-rdf-syntax-ns#" id="svg2" version="1.1" viewBox="0 0 32 32" xmlns:xlink="http://www.w3.org/1999/xlink"><defs id="defs4"><linearGradient gradientTransform="matrix(0.65798 0 0 0.66676 1.063 0.661)" gradientUnits="userSpaceOnUse" y1="3" id="0" y2="44" x2="0"><stop id="stop7" stop-color="#dedede"/><stop id="stop9" stop-color="#f4f4f4" offset="1"/></linearGradient><linearGradient gradientUnits="userSpaceOnUse" y1="1.614" id="1" y2="27.29" x2="0"><stop id="stop12" stop-color="#fff"/><stop stop-opacity="0" id="stop14" stop-color="#fff" offset="1"/></linearGradient><linearGradient gradientUnits="userSpaceOnUse" y1="15" id="2" y2="21" x2="0"><stop id="stop17" stop-color="#a2a2a2"/><stop id="stop19" stop-color="#bbb" offset="1"/></linearGradient></defs><rect ry="0.806" width="22.997" rx="0.806" height="28" opacity="0.06" id="rect21" y="2.995" x="5"/><rect ry="0.806" width="22.997" rx="0.806" height="28" id="rect23" y="1.995" x="5" fill="url(#0)"/><path opacity="0.1" d="m 12 16 v 2 h 1 v 4 h 6 v -4 h 1 v -2 h -4 h -2 h -2 z" id="path25"/><path opacity="0.66" d="M 13,2 H19 V16 H13 z" id="path27" fill="#6a6a6a"/><g id="g29" fill="#171717"><path opacity="0.66" d="m 16,2 2,0 0,1 -2,0 z" id="3"/><path opacity="0.66" d="m 14,3 2,0 0,1 -2,0 z" id="4"/><path opacity="0.66" d="m 16,4 2,0 0,1 -2,0 z" id="5"/><path opacity="0.66" d="m 14,5 2,0 0,1 -2,0 z" id="6"/><path opacity="0.66" d="m 16,6 2,0 0,1 -2,0 z" id="7"/><path opacity="0.66" d="m 14,7 2,0 0,1 -2,0 z" id="8"/><path opacity="0.66" d="m 16,8 2,0 0,1 -2,0 z" id="9"/><path opacity="0.66" d="m 14,9 2,0 0,1 -2,0 z" id="A"/><path opacity="0.66" d="m 16,10 2,0 0,1 -2,0 z" id="path39"/><path opacity="0.66" d="m 14,11 2,0 0,1 -2,0 z" id="B"/><path opacity="0.66" d="m 16,12 2,0 0,1 -2,0 z" id="C"/><path opacity="0.66" d="m 14,13 2,0 0,1 -2,0 z" id="D"/><path opacity="0.66" d="m 16,14 2,0 0,1 -2,0 z" id="E"/></g><path d="m 12 15 v 2 h 1 v 4 h 6 v -4 h 1 v -2 h -4 h -2 h -2 z" id="path45" fill="url(#2)"/><g transform="matrix(-1 0 0 1 32 0)" opacity="0.689" id="g47" fill="#fff"><path opacity="0.66" d="m 15,2 2,0 0,14 -2,0 z" id="path49"/><use width="32" height="32" xlink:href="#3" id="use51" y="0" x="0"/><use width="32" height="32" xlink:href="#4" id="use53" y="0" x="0"/><use width="32" height="32" xlink:href="#5" id="use55" y="0" x="0"/><use width="32" height="32" xlink:href="#6" id="use57" y="0" x="0"/><use width="32" height="32" xlink:href="#7" id="use59" y="0" x="0"/><use width="32" height="32" xlink:href="#8" id="use61" y="0" x="0"/><use width="32" height="32" xlink:href="#9" id="use63" y="0" x="0"/><use width="32" height="32" xlink:href="#A" id="use65" y="0" x="0"/><use width="32" height="32" xlink:href="#B" id="use67" y="0" x="0"/><use width="32" height="32" xlink:href="#C" id="use69" y="0" x="0"/><use width="32" height="32" xlink:href="#D" id="use71" y="0" x="0"/><use width="32" height="32" xlink:href="#E" id="use73" y="0" x="0"/><path opacity="0.66" d="m 14,15 2,0 0,1 -2,0 z" id="path75"/></g><path opacity="0.66" d="M 15,2 H17 V16 H15 z" id="path77" fill="#171717"/><g id="g79" fill="none"><g transform="matrix(0.99956 0 0 1.01258 -0.983 1.366)" stroke-width="0.994" id="g81"><path stroke="#000" opacity="0.4" d="m 6.7812,1.1562 c -0.142866,0 -0.25,0.112596 -0.25,0.28125 l 0,26.0938 c 0,0.168654 0.08985,0.25 0.25,0.25 l 21.4688,0 c 0.154628,0 0.25,-0.09537 0.25,-0.25 l 0,-26.0938 C 28.5,1.282823 28.387343,1.1562 28.25,1.1562 l -21.4688,0 z" id="path83"/><path stroke="url(#1)" opacity="0.7" d="m 7.5312,2.1562 0,24.625 19.9688,0 0,-24.625 -19.9688,0 z" id="path85"/></g><path stroke="#000" opacity="0.4" d="m 12.5312,15.5312 0,0.9375 0.4688,0 a 0.54206,0.54206 0 0 1 0.53125,0.53125 l 0,3.46875 4.9375,0 0,-3.46875 A 0.54206,0.54206 0 0 1 19,16.4687 l 0.46875,0 0,-0.9375 -3.46875,0 -2,0 -1.46875,0 z" id="path87"/></g><g id="g89" fill="#fff"><path opacity="0.884" d="m 15,18 2,0 0,1 -2,0 z" id="path91"/><path opacity="0.47" d="m 14.5,16 3,0 c 0.277,0 0.5,0.223 0.5,0.5 0,0.277 -0.223,0.5 -0.5,0.5 l -3,0 C 14.223,17 14,16.777 14,16.5 14,16.223 14.223,16 14.5,16 Z" id="rect93"/><path opacity="0.47" d="m 13.56,13.995 4.828,0 c 0.277,0 0.5,0.223 0.5,0.5 0,0.277 -0.223,0.5 -0.5,0.5 l -4.828,0 c -0.277,0 -0.5,-0.223 -0.5,-0.5 0,-0.277 0.223,-0.5 0.5,-0.5 z" id="rect95"/></g><metadata id="metadata9999"><rdf:RDF><cc:Work><dc:format>image/svg+xml</dc:format><dc:type rdf:resource="http://purl.org/dc/dcmitype/StillImage"/><dc:title>Ivy icon theme</dc:title><cc:license rdf:resource="http://creativecommons.org/licenses/by-sa/4.0/"/><dc:creator><cc:Agent><dc:title>Sixsixfive (sixsixfive.deviantart.com)</dc:title></cc:Agent></dc:creator><dc:publisher><cc:Agent><dc:title>Sixsixfive (sixsixfive.deviantart.com)</dc:title></cc:Agent></dc:publisher><dc:source>https://github.com/sixsixfive</dc:source><dc:subject><rdf:Bag><rdf:li>ivy</rdf:li></rdf:Bag></dc:subject><dc:contributor><cc:Agent><dc:title>ssf</dc:title></cc:Agent></dc:contributor><dc:rights><cc:Agent><dc:title>Sixsixfive (sixisixfive.deviantart.com)</dc:title></cc:Agent></dc:rights><dc:description>A simple icon theme published under CC-BY-SA_V4(http://creativecommons.org/licenses/by-sa/4.0)</dc:description><dc:identifier>SSF</dc:identifier></cc:Work></rdf:RDF></metadata><!--Part of the Ivy icon them published under the CC-BY-SA_V4: http://creativecommons.org/licenses/by-sa/4.0 -->
</svg>