<?xml version="1.0" encoding="UTF-8" standalone="no"?>
<svg xmlns:dc="http://purl.org/dc/elements/1.1/" xmlns:cc="http://creativecommons.org/ns#" xmlns:rdf="http://www.w3.org/1999/02/22-rdf-syntax-ns#" xmlns:svg="http://www.w3.org/2000/svg" xmlns="http://www.w3.org/2000/svg" xmlns:xlink="http://www.w3.org/1999/xlink" viewBox="0 0 32 32" id="svg2" version="1.1">
 <defs id="0">
  <linearGradient id="9" x1="40.941" x2="5.985" gradientUnits="userSpaceOnUse" gradientTransform="matrix(0.65798 0 0 0.66676 -33.938 0.666)">
   <stop stop-color="#dedede" id="J"/>
   <stop offset="1" stop-color="#f2f2f2" id="K"/>
  </linearGradient>
  <linearGradient id="A" x1="28.04" x2="7.03" gradientUnits="userSpaceOnUse" gradientTransform="matrix(0 -0.99956 1.01258 0 1.375 36.03)">
   <stop stop-color="#fff" id="L"/>
   <stop offset="1" stop-color="#fff" id="M" stop-opacity="0"/>
  </linearGradient>
  <linearGradient xlink:href="#1" id="linearGradient4251" y1="12" y2="8.363" x2="0" gradientUnits="userSpaceOnUse" gradientTransform="matrix(1.0710908 0 0 1.4938812 -1.137454 -4.95105)"/>
  <linearGradient id="1" x1="15.901" gradientUnits="userSpaceOnUse" x2="8">
   <stop stop-color="#ff9850" id="stop12-7"/>
   <stop offset="1" stop-color="#fb6b00" id="stop14-6"/>
  </linearGradient>
 </defs>
 <rect width="22.997" opacity="0.1" x="-30.999" y="2" rx="0.806" height="28" id="F" transform="matrix(0 -1 1 0 0 0)" ry="0.806"/>
 <rect width="22.997" x="-29.999" y="2" fill="url(#9)" rx="0.806" height="28" id="G" transform="matrix(0 -1 1 0 0 0)" ry="0.806"/>
 <path opacity="0.6" fill="#fff" id="path4243" d="M 11.164062,15.001953 C 9.5674622,14.954443 7.962263,15.580399 6.8164062,16.695312 5.670536,17.810223 4.9993014,19.399695 5,21 5.00249,22.568609 5.6479082,24.126054 6.7558594,25.234375 7.8638314,26.342677 9.4343134,27.000007 11,27 l 0,-6 6,0 c 6.8e-4,-1.540944 -0.64574,-3.07378 -1.716797,-4.179688 -1.07106,-1.105892 -2.581773,-1.772621 -4.119141,-1.818359 z M 20,16 l 0,1 6,0 0,-1 -6,0 z m 0,3 0,1 4,0 0,-1 -4,0 z m -8,3 0,6 a 5.9999994,6.0094023 0 0 0 6,-6 l -6,0 z m 8,0 0,1 7,0 0,-1 -7,0 z m 0,3 0,1 5,0 0,-1 -5,0 z"/>
 <rect width="27.848" opacity="0.8" x="2.076" y="7" fill="url(#linearGradient4251)" rx="0.956" height="5.976" stroke-linejoin="round" stroke-linecap="round" id="rect4243" stroke-width="1.5" ry="0.956"/>
 <path opacity="0.4" fill="none" stroke="#000" id="R" d="m 2.5462,29.2501 c 0,0.142803 0.114013,0.24989 0.284789,0.24989 l 26.4221,0 c 0.170776,0 0.253146,-0.08981 0.253146,-0.24989 l 0,-21.4592 c 0,-0.15456 -0.09657,-0.249889 -0.253146,-0.249889 l -26.4221,0 C 2.674417,7.541011 2.5462,7.653618 2.5462,7.7909 l 0,21.4592 z"/>
 <path opacity="0.4" fill="none" stroke="url(#A)" id="I" d="m 3.5587,28.5004 24.9349,0 0,-19.9599 -24.9349,0 0,19.9599 z"/>
 <rect width="26" opacity="0.4" x="3" y="12" height="1" stroke-linejoin="round" stroke-linecap="round" id="rect4253" stroke-width="1.5"/>
 <circle fill="#fff" cx="11" cy="10" stroke-linejoin="round" stroke-linecap="round" id="path4257" r="1" stroke-width="1.5"/>
 <circle fill="#fff" cx="21" cy="10" stroke-linejoin="round" stroke-linecap="round" r="1" id="circle4259" stroke-width="1.5"/>
 <path opacity="0.3" fill="#6a6a6a" id="path4233" d="m 11.164116,14.002524 c -1.5966003,-0.04751 -3.2025176,0.577535 -4.3483744,1.692448 -1.1458703,1.11491 -1.8164397,2.704883 -1.8157411,4.305188 0.00249,1.568609 0.6487165,3.126593 1.7566677,4.234914 C 7.8646402,25.343376 9.4343134,26.000007 11,26 l 0,-6 6,0 c 6.8e-4,-1.540944 -0.646233,-3.073177 -1.71729,-4.179084 -1.07106,-1.105892 -2.581226,-1.772654 -4.118594,-1.818392 z"/>
 <path opacity="0.5" fill="#6a6a6a" id="path4237" d="m 12,21 0,6 a 5.9999994,6.0094023 0 0 0 6,-6 l -6,0 z"/>
 <path opacity="0.3" fill="#6a6a6a" id="path4251" d="m 20,15 6,0 0,1 -6,0 z"/>
 <path opacity="0.3" fill="#6a6a6a" id="path4253" d="m 20,18 4,0 0,1 -4,0 z"/>
 <path opacity="0.3" fill="#6a6a6a" id="path4255" d="m 20,21 7,0 0,1 -7,0 z"/>
 <path opacity="0.3" fill="#6a6a6a" id="path4257-5" d="m 20,24 5,0 0,1 -5,0 z"/>
 <metadata id="metadata9999">
  <rdf:RDF>
   <cc:Work>
    <dc:format>image/svg+xml</dc:format>
    <dc:type rdf:resource="http://purl.org/dc/dcmitype/StillImage"/>
    <dc:title>Ivy icon theme</dc:title>
    <cc:license rdf:resource="http://creativecommons.org/licenses/by-sa/4.0/"/>
    <dc:creator>
     <cc:Agent>
      <dc:title>Sixsixfive (sixsixfive.deviantart.com)</dc:title>
     </cc:Agent>
    </dc:creator>
    <dc:publisher>
     <cc:Agent>
      <dc:title>Sixsixfive (sixsixfive.deviantart.com)</dc:title>
     </cc:Agent>
    </dc:publisher>
    <dc:source>https://github.com/sixsixfive</dc:source>
    <dc:subject>
     <rdf:Bag>
      <rdf:li>ivy</rdf:li>
     </rdf:Bag>
    </dc:subject>
    <dc:contributor>
     <cc:Agent>
      <dc:title>ssf</dc:title>
     </cc:Agent>
    </dc:contributor>
    <dc:rights>
     <cc:Agent>
      <dc:title>Sixsixfive (sixisixfive.deviantart.com)</dc:title>
     </cc:Agent>
    </dc:rights>
    <dc:description>A simple icon theme published under CC-BY-SA_V4(http://creativecommons.org/licenses/by-sa/4.0)</dc:description>
    <dc:identifier>SSF</dc:identifier>
   </cc:Work>
  </rdf:RDF>
 </metadata>
 <!--Part of the Ivy icon them published under the CC-BY-SA_V4: http://creativecommons.org/licenses/by-sa/4.0 -->
</svg>
