<?xml version="1.0" encoding="UTF-8" standalone="no"?><svg xmlns:cc="http://creativecommons.org/ns#" xmlns:dc="http://purl.org/dc/elements/1.1/" xmlns:svg="http://www.w3.org/2000/svg" xmlns="http://www.w3.org/2000/svg" xmlns:rdf="http://www.w3.org/1999/02/22-rdf-syntax-ns#" id="svg2" version="1.1" xmlns:xlink="http://www.w3.org/1999/xlink" viewBox="0 0 32 32"><defs id="0"><linearGradient gradientTransform="matrix(0.65798 0 0 0.66676 1.063 0.661)" gradientUnits="userSpaceOnUse" y1="3" id="O" y2="44" x2="0"><stop id="W" stop-color="#dedede"/><stop id="X" stop-color="#f4f4f4" offset="1"/></linearGradient><linearGradient gradientUnits="userSpaceOnUse" y1="1.614" id="P" y2="27.29" x2="0"><stop id="Y" stop-color="#fff"/><stop stop-opacity="0" id="Z" stop-color="#fff" offset="1"/></linearGradient><linearGradient gradientUnits="userSpaceOnUse" xlink:href="#3-0" y1="30" id="R" y2="2" x2="0"/><linearGradient gradientTransform="matrix(0.99956 0 0 1.01258 -0.983 1.366)" gradientUnits="userSpaceOnUse" xlink:href="#P" y1="1.614" id="S" y2="27.29" x2="0"/><linearGradient gradientTransform="matrix(0.66261661 0 0 0.66261661 36.720568 1.173778)" gradientUnits="userSpaceOnUse" y1="44" id="3-0" y2="2" x2="0"><stop id="stop17" stop-color="#fd9e8a"/><stop id="stop19" stop-color="#d02604" offset="1"/></linearGradient></defs><rect width="22.997" ry="0.806" height="28" rx="0.806" opacity="0.06" id="1" y="2.995" x="5"/><rect width="22.997" ry="0.806" height="28" rx="0.806" id="2" y="1.995" x="5" fill="url(#O)"/><path d="M 5.8125,2 C 5.365976,2 5,2.365976 5,2.8125 l 0,26.375 C 5,29.634024 5.365976,30 5.8125,30 L 10,30 10,2 5.8125,2 z" id="3" fill-rule="evenodd" fill="url(#R)"/><path stroke="#000" opacity="0.4" d="m 5.7952163,2.536745 c -0.1428032,0 -0.24989,0.1140125 -0.24989,0.2847881 V 29.243593 c 0,0.170776 0.08981,0.253145 0.24989,0.253145 H 27.25457 c 0.15456,0 0.24989,-0.09657 0.24989,-0.253145 V 2.8215331 c 0,-0.1565722 -0.112607,-0.2847881 -0.24989,-0.2847881 H 5.7952163 z" id="4" fill="none"/><path stroke="url(#S)" opacity="0.7" d="M 6.5448863,3.549325 V 28.484107 H 26.5049 V 3.549325 H 6.5448863 z" id="5" fill="none"/><rect width="1" height="26" opacity="0.4" id="6" fill-rule="evenodd" y="3" x="9"/><g transform="matrix(1 0 0 1 0 -0.005)" id="7"><path d="m 9,11 a 1,1 0 1 1 -2,0 1,1 0 1 1 2,0 z" id="U" fill-rule="evenodd" fill="#fff"/><path transform="matrix(1 0 0 1 0 10)" d="m 9,11 a 1,1 0 1 1 -2,0 1,1 0 1 1 2,0 z" id="V" fill-rule="evenodd" fill="#fff"/></g><path d="M 18.294857,16 C 14.818303,16 12,17.279186 12,18.857143 c 0,4.285714 0,0 0,4.285714 C 12,24.720815 14.818303,26 18.294857,26 c 3.476554,0 6.294858,-1.279185 6.294858,-2.857143 0,-4.285714 0,0 0,-4.285714 C 24.589715,17.279186 21.771411,16 18.294857,16 Z" id="path38" fill="#8c8c8c"/><path opacity="0.4" d="M 18.294857,16 C 14.818303,16 12,17.407105 12,19.142857 c 0,4.714286 0,0 0,4.714286 C 12,25.592897 14.818303,27 18.294857,27 c 3.476554,0 6.294858,-1.407103 6.294858,-3.142857 0,-4.714286 0,0 0,-4.714286 C 24.589715,17.407105 21.771411,16 18.294857,16 Z" id="path4220" fill="#fff"/><path d="M 18.294857,11 C 14.818303,11 12,12.279187 12,13.857142 c 0,4.285716 0,0 0,4.285716 C 12,19.720813 14.818303,21 18.294857,21 c 3.476554,0 6.294858,-1.279187 6.294858,-2.857142 0,-4.285716 0,0 0,-4.285716 C 24.589715,12.279187 21.771411,11 18.294857,11 Z" id="path40" fill="#a0a0a0"/><path d="M 18.294857,7 C 14.818303,7 12,8.1512679 12,9.5714288 c 0,3.8571432 0,0 0,3.8571432 C 12,14.848732 14.818303,16 18.294857,16 c 3.476554,0 6.294858,-1.151268 6.294858,-2.571428 0,-3.8571432 0,0 0,-3.8571432 C 24.589715,8.1512679 21.771411,7 18.294857,7 Z" id="path42" fill="#8d8d8d"/><metadata id="metadata9999"><rdf:RDF><cc:Work><dc:format>image/svg+xml</dc:format><dc:type rdf:resource="http://purl.org/dc/dcmitype/StillImage"/><dc:title>Ivy icon theme</dc:title><cc:license rdf:resource="http://creativecommons.org/licenses/by-sa/4.0/"/><dc:creator><cc:Agent><dc:title>Sixsixfive (sixsixfive.deviantart.com)</dc:title></cc:Agent></dc:creator><dc:publisher><cc:Agent><dc:title>Sixsixfive (sixsixfive.deviantart.com)</dc:title></cc:Agent></dc:publisher><dc:source>https://github.com/sixsixfive</dc:source><dc:subject><rdf:Bag><rdf:li>ivy</rdf:li></rdf:Bag></dc:subject><dc:contributor><cc:Agent><dc:title>ssf</dc:title></cc:Agent></dc:contributor><dc:rights><cc:Agent><dc:title>Sixsixfive (sixisixfive.deviantart.com)</dc:title></cc:Agent></dc:rights><dc:description>A simple icon theme published under CC-BY-SA_V4(http://creativecommons.org/licenses/by-sa/4.0)</dc:description><dc:identifier>SSF</dc:identifier></cc:Work></rdf:RDF></metadata><!--Part of the Ivy icon them published under the CC-BY-SA_V4: http://creativecommons.org/licenses/by-sa/4.0 -->
</svg>