<?xml version="1.0" encoding="UTF-8" standalone="no"?><svg xmlns:svg="http://www.w3.org/2000/svg" viewBox="0 0 32 32" xmlns="http://www.w3.org/2000/svg" xmlns:rdf="http://www.w3.org/1999/02/22-rdf-syntax-ns#" xmlns:xlink="http://www.w3.org/1999/xlink" version="1.1" id="svg2" xmlns:dc="http://purl.org/dc/elements/1.1/" xmlns:cc="http://creativecommons.org/ns#"><defs id="defs4"><linearGradient y1="3" x2="0" y2="44" id="1" gradientTransform="matrix(0.65798 0 0 0.66676 1.063 0.661)" gradientUnits="userSpaceOnUse"><stop id="stop8" stop-color="#dedede"/><stop offset="1" id="stop10" stop-color="#f4f4f4"/></linearGradient><linearGradient xlink:href="#4" y1="1.614" x2="0" y2="27.29" id="2" gradientUnits="userSpaceOnUse"/><linearGradient id="4"><stop id="stop19" stop-color="#fff"/><stop stop-opacity="0" offset="1" id="stop21" stop-color="#fff"/></linearGradient><linearGradient y1="43" x2="0" y2="5" id="0" gradientTransform="matrix(0.65 0 0 0.65789 9.4 2.711)" gradientUnits="userSpaceOnUse"><stop id="stop7" stop-color="#ddd"/><stop offset="1" id="stop9" stop-color="#fff"/></linearGradient><linearGradient x1="27.969" y1="5.03" x2="28" y2="28" id="1-1" gradientUnits="userSpaceOnUse"><stop id="stop12" stop-color="#fff"/><stop stop-opacity="0" offset="1" id="stop14" stop-color="#fff"/></linearGradient><mask id="mask4048" maskUnits="userSpaceOnUse"><rect y="1.995" x="5" ry="0.806" height="28" rx="0.806" id="rect4050" width="22.997" fill="#fff"/></mask></defs><rect y="2.995" x="5" opacity="0.06" ry="0.806" height="28" rx="0.806" id="rect27" width="22.997"/><rect y="1.995" x="5" ry="0.806" height="28" rx="0.806" id="rect29" width="22.997" fill="url(#1)"/><g id="g4006" mask="url(#mask4048)"><path opacity="0.1" id="path16" d="m 12,7 26,0 0,25.000001 -26,0 z"/><path id="path18" d="m 12,6 26,0 0,25.000001 -26,0 z" fill="url(#0)"/><path id="path20" d="m 12,6 26,0 0,7 -26,0 z" fill="#5288d1"/><path id="path22" color="#000" fill-rule="evenodd" d="m 15,8 1,0 0,1 -1,0 z" fill="#fff"/><g id="g24" transform="matrix(1 0 0 1 9 2)" fill="none"><path stroke="#000" opacity="0.4" id="path26" d="m 3.5,4.5 0,24 25,0 0,-24 -25,0 z"/><path stroke="url(#1-1)" opacity="0.4" id="path28" d="m 4.5312,5.5312 0,21.9375 22.9375,0 0,-21.9375 -22.9375,0 z"/></g><path opacity="0.4" id="path30" d="m 13,12 24,0 0,1 -24,0 z"/><g id="g32" transform="matrix(1 0 0 1 9 2)" fill="#fff"><path id="path34" d="m 4,11 24,0 0,1 -24,0 z"/><g id="g36" color="#000" fill-rule="evenodd"><path id="path38" d="M 7,7 8,7 8,8 7,8 Z"/><path id="path40" d="M 8,8 9,8 9,9 8,9 Z"/><g id="g42" transform="matrix(-1 0 0 1 0 0)"><path id="path44" d="m -9,6 1,0 0,1 -1,0 z"/><path id="path46" d="m -8,7 1,0 0,1 -1,0 z"/><path id="path48" d="m -7,8 1,0 0,1 -1,0 z"/></g></g><path id="path50" d="m 10,6 1,0 0,3 -1,0 z"/><path id="path52" d="m 10,8 3,0 0,1 -3,0 z"/><path id="path54" d="m 12,6 1,0 0,2 -1,0 z"/><path id="path56" d="m 10,6 3,0 0,1 -3,0 z"/><path id="path58" d="m 14,8 3,0 0,1 -3,0 z"/></g><g id="g4949" transform="matrix(1 0 0 1 10 4)"><path opacity="0.1" id="rect4951" fill-rule="evenodd" d="m 5.6,22 4.8,0 c 0.3324,0 0.6,0.2676 0.6,0.6 l 0,2.8 C 11,25.7324 10.7324,26 10.4,26 L 5.6,26 C 5.2676,26 5,25.7324 5,25.4 L 5,22.6 C 5,22.2676 5.2676,22 5.6,22 Z"/><path id="rect4953" fill-rule="evenodd" d="m 5.9,19 4.2,0 c 0.4986,0 0.9,0.4014 0.9,0.9 l 0,4.2 C 11,24.5986 10.5986,25 10.1,25 L 5.9,25 C 5.4014,25 5,24.5986 5,24.1 L 5,19.9 C 5,19.4014 5.4014,19 5.9,19 Z" fill="#fff"/><path opacity="0.4712" id="rect4955" fill-rule="evenodd" d="m 6,22 1,0 0,1 -1,0 z"/><path opacity="0.4712" id="rect4957" fill-rule="evenodd" d="m 7,23 1,0 0,1 -1,0 z"/><path opacity="0.4712" id="rect4959" fill-rule="evenodd" d="m 8,22 1,0 0,1 -1,0 z"/><path opacity="0.4712" id="rect4961" fill-rule="evenodd" d="m 9,21 1,0 0,1 -1,0 z"/><path stroke="#000" opacity="0.4" id="path4963" fill-rule="evenodd" d="m 5.9003906,19.568359 c -0.1929723,0 -0.3320312,0.139059 -0.3320312,0.332032 l 0,4.199218 c 0,0.192973 0.1390589,0.332032 0.3320312,0.332032 l 4.1992184,0 c 0.192973,0 0.332032,-0.139059 0.332032,-0.332032 l 0,-4.199218 c 0,-0.192973 -0.139059,-0.332032 -0.332032,-0.332032 l -4.1992184,0 z" fill="none"/></g><g id="g4940" transform="matrix(1 0 0 1 10 -4)"><path opacity="0.1" id="rect4920" fill-rule="evenodd" d="m 5.6,22 4.8,0 c 0.3324,0 0.6,0.2676 0.6,0.6 l 0,2.8 C 11,25.7324 10.7324,26 10.4,26 L 5.6,26 C 5.2676,26 5,25.7324 5,25.4 L 5,22.6 C 5,22.2676 5.2676,22 5.6,22 Z"/><path id="rect4914" fill-rule="evenodd" d="m 5.9,19 4.2,0 c 0.4986,0 0.9,0.4014 0.9,0.9 l 0,4.2 C 11,24.5986 10.5986,25 10.1,25 L 5.9,25 C 5.4014,25 5,24.5986 5,24.1 L 5,19.9 C 5,19.4014 5.4014,19 5.9,19 Z" fill="#fff"/><path opacity="0.4712" id="rect4928" fill-rule="evenodd" d="m 6,22 1,0 0,1 -1,0 z"/><path opacity="0.4712" id="rect4930" fill-rule="evenodd" d="m 7,23 1,0 0,1 -1,0 z"/><path opacity="0.4712" id="rect4932" fill-rule="evenodd" d="m 8,22 1,0 0,1 -1,0 z"/><path opacity="0.4712" id="rect4934" fill-rule="evenodd" d="m 9,21 1,0 0,1 -1,0 z"/><path stroke="#000" opacity="0.4" id="path4938" fill-rule="evenodd" d="m 5.9003906,19.568359 c -0.1929723,0 -0.3320312,0.139059 -0.3320312,0.332032 l 0,4.199218 c 0,0.192973 0.1390589,0.332032 0.3320312,0.332032 l 4.1992184,0 c 0.192973,0 0.332032,-0.139059 0.332032,-0.332032 l 0,-4.199218 c 0,-0.192973 -0.139059,-0.332032 -0.332032,-0.332032 l -4.1992184,0 z" fill="none"/></g></g><g stroke-width="0.994" id="g47" transform="matrix(0.99956 0 0 1.01258 -0.983 1.366)" fill="none"><path stroke="#000" opacity="0.4" id="path49" d="m 6.7812,1.1562 c -0.142866,0 -0.25,0.112596 -0.25,0.28125 l 0,26.0938 c 0,0.168654 0.08985,0.25 0.25,0.25 l 21.4688,0 c 0.154628,0 0.25,-0.09537 0.25,-0.25 l 0,-26.0938 C 28.5,1.282823 28.387343,1.1562 28.25,1.1562 l -21.4688,0 z"/><path stroke="url(#2)" opacity="0.7" id="path51" d="m 7.5312,2.1562 0,24.625 19.9688,0 0,-24.625 -19.9688,0 z"/></g><metadata id="metadata9999"><rdf:RDF><cc:Work><dc:format>image/svg+xml</dc:format><dc:type rdf:resource="http://purl.org/dc/dcmitype/StillImage"/><dc:title>Ivy icon theme</dc:title><cc:license rdf:resource="http://creativecommons.org/licenses/by-sa/4.0/"/><dc:creator><cc:Agent><dc:title>Sixsixfive (sixsixfive.deviantart.com)</dc:title></cc:Agent></dc:creator><dc:publisher><cc:Agent><dc:title>Sixsixfive (sixsixfive.deviantart.com)</dc:title></cc:Agent></dc:publisher><dc:source>https://github.com/sixsixfive</dc:source><dc:subject><rdf:Bag><rdf:li>ivy</rdf:li></rdf:Bag></dc:subject><dc:contributor><cc:Agent><dc:title>ssf</dc:title></cc:Agent></dc:contributor><dc:rights><cc:Agent><dc:title>Sixsixfive (sixisixfive.deviantart.com)</dc:title></cc:Agent></dc:rights><dc:description>A simple icon theme published under CC-BY-SA_V4(http://creativecommons.org/licenses/by-sa/4.0)</dc:description><dc:identifier>SSF</dc:identifier></cc:Work></rdf:RDF></metadata><!--Part of the Ivy icon them published under the CC-BY-SA_V4: http://creativecommons.org/licenses/by-sa/4.0 -->
</svg>