<?xml version="1.0" encoding="UTF-8" standalone="no"?>
<svg xmlns:dc="http://purl.org/dc/elements/1.1/" xmlns:cc="http://creativecommons.org/ns#" xmlns:rdf="http://www.w3.org/1999/02/22-rdf-syntax-ns#" xmlns:svg="http://www.w3.org/2000/svg" xmlns="http://www.w3.org/2000/svg" xmlns:xlink="http://www.w3.org/1999/xlink" viewBox="0 0 32 32" version="1.1" id="svg2">
 <defs id="defs4">
  <linearGradient id="linearGradient4173">
   <stop id="stop4175" stop-color="#fff"/>
   <stop id="stop4177" offset="1" stop-color="#fff" stop-opacity="0"/>
  </linearGradient>
  <linearGradient id="linearGradient4182">
   <stop id="stop4184" stop-color="#ebebeb"/>
   <stop offset="1" id="stop4186" stop-color="#fff"/>
  </linearGradient>
  <linearGradient gradientTransform="matrix(0.64285717,0,0,0.65714287,0.99999904,0.0571428)" xlink:href="#linearGradient4182" id="linearGradient4188" y1="41" x2="0" y2="6" gradientUnits="userSpaceOnUse"/>
  <linearGradient gradientUnits="userSpaceOnUse" y2="28" x2="29" y1="2.9375" x1="29.0625" id="linearGradient4179" xlink:href="#linearGradient4173"/>
 </defs>
 <path id="rect3360" d="m 2,3 0,27 8,0 0,-10 7,0 0,10 13,0 0,-27 -13,0 0,9 -7,0 0,-9 -8,0 z" opacity="0.15" fill-rule="evenodd"/>
 <rect y="1.999989" x="2" height="27.00001" width="8" id="rect3338" fill="#a868d4" fill-rule="evenodd"/>
 <rect id="rect3340" width="13" height="27" x="17" y="2" fill="#a868d4" fill-rule="evenodd"/>
 <rect y="11" x="5" height="8" width="12" id="rect3342" fill="#a868d4" fill-rule="evenodd"/>
 <path id="rect3344" d="m 19,4 0,5 4,0 0,4 -4,0 0,5 0,4.400001 0,1.971428 L 19,27 l 9,0 0,-5 -4,0 0,-4 4,0 0,-4.8 L 28,5.3142854 28,4 Z" fill="url(#linearGradient4188)" fill-rule="evenodd"/>
 <path d="m 2.4375,2.4375 0,26.125 7.125,0 0,-9.5625 A 0.43768723,0.43768723 0 0 1 10,18.5625 l 7,0 A 0.43768723,0.43768723 0 0 1 17.4375,19 l 0,9.5625 12.125,0 0,-26.125 -12.125,0 0,8.5625 A 0.43768723,0.43768723 0 0 1 17,11.4375 l -7,0 A 0.43768723,0.43768723 0 0 1 9.5625,11 l 0,-8.5625 -7.125,0 z" id="path3369" opacity="0.4" fill="none" fill-rule="evenodd" stroke="#000"/>
 <path id="path3371" d="m 3.4375,3.4375 0,24.125 5.125,0 0,-8.5625 A 1.4379717,1.4379717 0 0 1 10,17.5625 l 7,0 A 1.4379717,1.4379717 0 0 1 18.4375,19 l 0,8.5625 10.125,0 0,-24.125 -10.125,0 0,7.5625 A 1.4379717,1.4379717 0 0 1 17,12.4375 l -7,0 A 1.4379717,1.4379717 0 0 1 8.5625,11 l 0,-7.5625 -5.125,0 z" opacity="0.4" fill="none" fill-rule="evenodd" stroke="url(#linearGradient4179)"/>
 <metadata id="metadata9999">
  <rdf:RDF>
   <cc:Work>
    <dc:format>image/svg+xml</dc:format>
    <dc:type rdf:resource="http://purl.org/dc/dcmitype/StillImage"/>
    <dc:title>Ivy icon theme</dc:title>
    <cc:license rdf:resource="http://creativecommons.org/licenses/by-sa/4.0/"/>
    <dc:creator>
     <cc:Agent>
      <dc:title>Sixsixfive (sixsixfive.deviantart.com)</dc:title>
     </cc:Agent>
    </dc:creator>
    <dc:publisher>
     <cc:Agent>
      <dc:title>Sixsixfive (sixsixfive.deviantart.com)</dc:title>
     </cc:Agent>
    </dc:publisher>
    <dc:source>https://github.com/sixsixfive</dc:source>
    <dc:subject>
     <rdf:Bag>
      <rdf:li>ivy</rdf:li>
     </rdf:Bag>
    </dc:subject>
    <dc:contributor>
     <cc:Agent>
      <dc:title>ssf</dc:title>
     </cc:Agent>
    </dc:contributor>
    <dc:rights>
     <cc:Agent>
      <dc:title>Sixsixfive (sixisixfive.deviantart.com)</dc:title>
     </cc:Agent>
    </dc:rights>
    <dc:description>A simple icon theme published under CC-BY-SA_V4(http://creativecommons.org/licenses/by-sa/4.0)</dc:description>
    <dc:identifier>SSF</dc:identifier>
   </cc:Work>
  </rdf:RDF>
 </metadata>
 <!--Part of the Ivy icon them published under the CC-BY-SA_V4: http://creativecommons.org/licenses/by-sa/4.0 -->
</svg>
