<?xml version="1.0" encoding="UTF-8" standalone="no"?><svg xmlns:svg="http://www.w3.org/2000/svg" xmlns="http://www.w3.org/2000/svg" viewBox="0 0 32 32" xmlns:rdf="http://www.w3.org/1999/02/22-rdf-syntax-ns#" xmlns:xlink="http://www.w3.org/1999/xlink" version="1.1" id="svg2" xmlns:dc="http://purl.org/dc/elements/1.1/" xmlns:cc="http://creativecommons.org/ns#"><defs id="defs4"><linearGradient id="linearGradient4236"><stop stop-opacity="1" id="stop4238" stop-color="#fff"/><stop stop-opacity="0" offset="1" id="stop4240" stop-color="#fff"/></linearGradient><linearGradient y1="42" x2="0" y2="30" id="1" gradientTransform="matrix(0.75000001 0 0 0.73649758 -2 -1.0949279)" gradientUnits="userSpaceOnUse"><stop id="stop12" stop-color="#ebebeb"/><stop offset="1" id="stop14" stop-color="#bfbfbf"/></linearGradient><linearGradient x1="29.994228" xlink:href="#linearGradient4236" y1="2.216474" x2="29.988281" y2="29.21905" id="linearGradient4242" gradientUnits="userSpaceOnUse"/></defs><path opacity="0.1" id="path4222" d="M 1,2 31,2 31,31 1,31 Z" fill="#171717"/><metadata id="metadata9999"><rdf:RDF><cc:Work><dc:format>image/svg+xml</dc:format><dc:type rdf:resource="http://purl.org/dc/dcmitype/StillImage"/><dc:title/><cc:license rdf:resource="http://creativecommons.org/licenses/by-sa/4.0/"/><dc:creator><cc:Agent><dc:title>Sixsixfive (sixsixfive.deviantart.com)</dc:title></cc:Agent></dc:creator><dc:publisher><cc:Agent><dc:title>Sixsixfive (sixsixfive.deviantart.com)</dc:title></cc:Agent></dc:publisher><dc:source>https://github.com/sixsixfive</dc:source><dc:subject><rdf:Bag><rdf:li>ivy</rdf:li></rdf:Bag></dc:subject><dc:contributor><cc:Agent><dc:title>ssf</dc:title></cc:Agent></dc:contributor><dc:rights><cc:Agent><dc:title>Sixsixfive (sixisixfive.deviantart.com)</dc:title></cc:Agent></dc:rights><dc:description>A simple icon theme published under CC-BY-SA_V4(http://creativecommons.org/licenses/by-sa/4.0)</dc:description><dc:identifier>SSF</dc:identifier></cc:Work></rdf:RDF></metadata><!--Part of the Ivy icon them published under the CC-BY-SA_V4: http://creativecommons.org/licenses/by-sa/4.0 -->
<path id="path23" d="M 1,1 31,1 31,30 1,30 Z" fill="#171717"/><path id="path25" d="m 1,21 30,0 0,9 -30,0 z" fill="url(#1)"/><path id="path33" d="m 2,20 28,0 0,1 -28,0 z"/><g id="g35" transform="matrix(0.75000001 0 0 0.76315789 -2 -2.2205263)" fill="#fff"><path id="path37" transform="matrix(0.66718 -0.01119 0.01184 0.6306 10.59 3.579)" d="M 27.697849,22.287325 11.530873,32.390109 11.899513,11.617316 Z"/></g><path id="path39" d="M 4.0000001,23 29,23 29,27 4.0000001,27 Z" fill="#6a6a6a"/><path opacity="0.57" id="path43" d="m 2,21 28,0 0,1 -27.9999999,0 z" fill="#fff"/><path opacity="0.768" id="path45" d="m 4,27 25,0 0,1 -25,0 z" fill="#fff"/><path id="path47" d="m 4,23 10,0 0,4 -10,0 z" fill="#d02604"/><path opacity="0.2" id="path4216" d="M 4.0000001,23 29,23 29,24 4.0000001,24 Z" fill="#000"/><path stroke="#000" opacity="0.6" id="path4220" d="m 1.4960938,1.4960938 0,28.0078122 29.0078122,0 0,-28.0078122 -29.0078122,0 z" fill="none"/><path stroke="url(#linearGradient4242)" opacity="0.2" fill-opacity="1" id="path4226" d="m 2.5117188,2.5117188 0,25.9765622 26.9765622,0 0,-25.9765622 -26.9765622,0 z" fill="none"/></svg>