<?xml version="1.0" encoding="UTF-8" standalone="no"?><svg xmlns:cc="http://creativecommons.org/ns#" xmlns:rdf="http://www.w3.org/1999/02/22-rdf-syntax-ns#" xmlns:svg="http://www.w3.org/2000/svg" id="svg2" viewBox="0 0 32 32" version="1.1" xmlns:xlink="http://www.w3.org/1999/xlink" xmlns:dc="http://purl.org/dc/elements/1.1/" xmlns="http://www.w3.org/2000/svg"><defs id="defs4"><linearGradient id="linearGradient4170"><stop id="stop4172" stop-color="#fff"/><stop offset="1" id="stop4174" stop-color="#fff" stop-opacity="0"/></linearGradient><linearGradient id="1" x2="0" y2="45.12" gradientTransform="matrix(0.66666667 0 0 0.66666667 0 0)" y1="3" gradientUnits="userSpaceOnUse"><stop id="stop12" stop-color="#66b03e"/><stop offset="1" id="stop14" stop-color="#a3d588"/></linearGradient><linearGradient id="linearGradient4176" x2="26" y2="14" x1="25.761" xlink:href="#linearGradient4170" y1="3.904" gradientUnits="userSpaceOnUse"/></defs><path id="path4178" opacity="0.1" d="m 4.0134771,21.965338 0,8.997662 L 27.884867,16.972153 4.0642719,3.0371898 4.0134771,16.977029 l 6.0559749,-5.042737 9.060348,5.119994 -9.060348,4.99037 -0.0508,-5.108994 z"/><path id="path18" d="m 4.0134771,20.96521 0,8.997662 L 27.884867,15.972025 4.0642719,2.0370618 4.0134771,15.976901 l 6.0559749,-5.042737 9.060348,5.119994 -9.060348,4.99037 -0.0508,-5.108994 z" fill="url(#1)"/><path id="path3366" opacity="0.4" d="M 4.5917969,2.9609375 4.5488281,14.839844 9.7304688,10.525391 a 0.53184314,0.53184314 0 0 1 0.6015622,-0.05469 l 9.058594,5.121094 a 0.53184314,0.53184314 0 0 1 -0.0059,0.927734 l -9.058594,4.990235 A 0.53184314,0.53184314 0 0 1 9.5390625,21.050781 L 9.5,17.064453 l -4.9550781,4.148438 0,7.822265 L 26.832031,15.972656 4.5917969,2.9609375 Z" stroke="#000" fill="none"/><path id="path3368" opacity="0.4" d="M 5.6269531,4.7734375 5.5976562,12.611328 9.0644531,9.7246094 A 1.5724757,1.5724757 0 0 1 10.84375,9.5644531 l 9.058594,5.1210939 a 1.5724757,1.5724757 0 0 1 -0.01563,2.746094 l -9.058594,4.990234 A 1.5724757,1.5724757 0 0 1 8.4980469,21.060547 l -0.017578,-1.785156 -2.8945313,2.423828 0,5.519531 L 24.771484,15.974609 5.6269531,4.7734375 Z" stroke="url(#linearGradient4176)" fill="none"/><metadata id="metadata9999"><rdf:RDF><cc:Work><dc:format>image/svg+xml</dc:format><dc:type rdf:resource="http://purl.org/dc/dcmitype/StillImage"/><dc:title>Ivy icon theme</dc:title><cc:license rdf:resource="http://creativecommons.org/licenses/by-sa/4.0/"/><dc:creator><cc:Agent><dc:title>Sixsixfive (sixsixfive.deviantart.com)</dc:title></cc:Agent></dc:creator><dc:publisher><cc:Agent><dc:title>Sixsixfive (sixsixfive.deviantart.com)</dc:title></cc:Agent></dc:publisher><dc:source>https://github.com/sixsixfive</dc:source><dc:subject><rdf:Bag><rdf:li>ivy</rdf:li></rdf:Bag></dc:subject><dc:contributor><cc:Agent><dc:title>ssf</dc:title></cc:Agent></dc:contributor><dc:rights><cc:Agent><dc:title>Sixsixfive (sixisixfive.deviantart.com)</dc:title></cc:Agent></dc:rights><dc:description>A simple icon theme published under CC-BY-SA_V4(http://creativecommons.org/licenses/by-sa/4.0)</dc:description><dc:identifier>SSF</dc:identifier></cc:Work></rdf:RDF></metadata><!--Part of the Ivy icon them published under the CC-BY-SA_V4: http://creativecommons.org/licenses/by-sa/4.0 -->
</svg>