<?xml version="1.0" encoding="UTF-8" standalone="no"?><svg xmlns:cc="http://creativecommons.org/ns#" sodipodi:docname="network-wireshark.svg" viewBox="0 0 32 32" inkscape:version="0.91 r13725" xmlns:sodipodi="http://sodipodi.sourceforge.net/DTD/sodipodi-0.dtd" version="1.1" id="svg2" xmlns:svg="http://www.w3.org/2000/svg" xmlns:inkscape="http://www.inkscape.org/namespaces/inkscape" xmlns:rdf="http://www.w3.org/1999/02/22-rdf-syntax-ns#" xmlns="http://www.w3.org/2000/svg" xmlns:dc="http://purl.org/dc/elements/1.1/"><defs id="defs4"><linearGradient x2="0" gradientUnits="userSpaceOnUse" y2="30" id="0" y1="2"><stop stop-opacity="1" stop-color="#5288d1" id="stop7"/><stop offset="1" stop-opacity="1" stop-color="#7ca4dd" id="stop9"/></linearGradient><linearGradient x2="0" gradientUnits="userSpaceOnUse" y2="29" id="1" y1="3"><stop stop-color="#fff" id="stop12"/><stop offset="1" stop-opacity="0" stop-color="#fff" id="stop14"/></linearGradient><mask maskUnits="userSpaceOnUse" id="mask4173"><rect height="44" width="44" fill-rule="evenodd" rx="6" fill="#fff" ry="6" id="rect4175" x="2" y="2"/></mask><clipPath clipPathUnits="userSpaceOnUse" id="clipPath4169"><rect height="28" width="28" rx="2.6670001" fill="#fff" ry="2.6670001" id="rect4171" x="2" y="2"/></clipPath></defs><sodipodi:namedview inkscape:pageshadow="2" inkscape:window-height="480" inkscape:bbox-paths="true" objecttolerance="10" showgrid="true" inkscape:zoom="12.849326" inkscape:snap-bbox="true" inkscape:current-layer="svg2" inkscape:window-width="640" gridtolerance="10" inkscape:cx="15.6887" inkscape:cy="10.187537" id="namedview21" inkscape:bbox-nodes="true" bordercolor="#666666" guidetolerance="10" borderopacity="1" inkscape:pageopacity="0" pagecolor="#ffffff"><inkscape:grid id="grid3361" type="xygrid"/></sodipodi:namedview><rect height="28" width="28" opacity="0.1" rx="2.667" ry="2.667" id="rect16" x="2" y="3"/><rect height="28" width="28" rx="2.667" fill="url(#0)" ry="2.667" id="rect18" x="2" y="2"/><g clip-path="url(#clipPath4169)" id="g4165"><path stroke-dasharray="none" inkscape:connector-curvature="0" fill-opacity="1" fill-rule="evenodd" stroke-linejoin="miter" stroke-miterlimit="4" fill="#2f65af" id="path4158" stroke="none" stroke-width="2" stroke-linecap="butt" stroke-opacity="1" d="m 21.817257,10.007132 c 0.327852,0.121392 -2.959059,1.86815 -2.143345,10.266927 0.362135,3.728628 5.861529,2.656105 10.326088,3.005208 l 0,4.729167 c 0,2.216 -1.772253,4 -3.973662,4 l -21.1928631,0 c -2.2014089,0 -3.9736622,-1.784 -3.9736622,-4 l 0,-4.473959 C 4.4141729,23.336297 7.7129909,23.093482 9.1641449,20.466767 13.429141,12.746757 19.499147,10.345642 21.433085,10.039684 c 0.216874,-0.03431 0.337337,-0.04989 0.384172,-0.03255 z"/><path stroke-dasharray="none" inkscape:connector-curvature="0" mask="url(#mask4173)" fill-rule="evenodd" stroke-linejoin="miter" stroke-miterlimit="4" opacity="1" fill="none" id="path3356" stroke="#ebebeb" stroke-width="3.0099258" stroke-linecap="butt" transform="matrix(-0.66227698 0 0 0.66666667 31.594506 1.3620723)" stroke-opacity="1" d="M -3,34 C 3.600205,30.945011 16.895829,35.522355 17.592364,28.397902 19,14 12.316667,12.63605 14.93641,13.047779 17.856544,13.506717 27.021394,17.107518 33.461292,28.687533 37.181716,35.37748 48.90468,31.774969 57,35"/></g><g fill="none" id="g22"><path opacity="0.3" id="path24" stroke="url(#1)" d="M 4.65625,3.5 C 3.976867,3.5 3.5,3.976867 3.5,4.65625 l 0,22.6875 C 3.5,28.02313 3.976868,28.5 4.65625,28.5 l 22.6875,0 C 28.02313,28.5 28.5,28.02313 28.5,27.34375 l 0,-22.6875 C 28.5,3.976868 28.02313,3.5 27.34375,3.5 l -22.6875,0 z"/><path opacity="0.45" id="path26" stroke="#000" d="M 4.65625,2.5 C 3.51151,2.5 2.5,3.51151 2.5,4.65625 l 0,22.6875 C 2.5,28.48849 3.511509,29.5 4.65625,29.5 l 22.6875,0 C 28.488491,29.5 29.5,28.488491 29.5,27.34375 l 0,-22.6875 C 29.5,3.511509 28.48849,2.5 27.34375,2.5 l -22.6875,0 z"/></g><metadata id="metadata9999"><rdf:RDF><cc:Work><dc:format>image/svg+xml</dc:format><dc:type rdf:resource="http://purl.org/dc/dcmitype/StillImage"/><dc:title/><cc:license rdf:resource="http://creativecommons.org/licenses/by-sa/4.0/"/><dc:creator><cc:Agent><dc:title>Sixsixfive (sixsixfive.deviantart.com)</dc:title></cc:Agent></dc:creator><dc:publisher><cc:Agent><dc:title>Sixsixfive (sixsixfive.deviantart.com)</dc:title></cc:Agent></dc:publisher><dc:source>https://github.com/sixsixfive</dc:source><dc:subject><rdf:Bag><rdf:li>ivy</rdf:li></rdf:Bag></dc:subject><dc:contributor><cc:Agent><dc:title>ssf</dc:title></cc:Agent></dc:contributor><dc:rights><cc:Agent><dc:title>Sixsixfive (sixisixfive.deviantart.com)</dc:title></cc:Agent></dc:rights><dc:description>A simple icon theme published under CC-BY-SA_V4(http://creativecommons.org/licenses/by-sa/4.0)</dc:description><dc:identifier>SSF</dc:identifier></cc:Work></rdf:RDF></metadata><!--Part of the Ivy icon them published under the CC-BY-SA_V4: http://creativecommons.org/licenses/by-sa/4.0 -->
</svg>