<?xml version="1.0" encoding="UTF-8" standalone="no"?>
<svg xmlns:dc="http://purl.org/dc/elements/1.1/" xmlns:cc="http://creativecommons.org/ns#" xmlns:rdf="http://www.w3.org/1999/02/22-rdf-syntax-ns#" xmlns:svg="http://www.w3.org/2000/svg" xmlns="http://www.w3.org/2000/svg" xmlns:xlink="http://www.w3.org/1999/xlink" version="1.1" viewBox="0 0 48 48" id="svg2">
 <defs id="defs4">
  <linearGradient id="linearGradient4198">
   <stop id="stop4200" stop-color="#a868d4"/>
   <stop offset="1" id="stop4202" stop-color="#d5b6ea"/>
  </linearGradient>
  <linearGradient id="linearGradient4173">
   <stop id="stop4175" stop-color="#fff"/>
   <stop offset="1" id="stop4177" stop-color="#fff" stop-opacity="0"/>
  </linearGradient>
  <linearGradient xlink:href="#linearGradient4173" id="linearGradient4179" y1="6" x2="0" y2="43" gradientUnits="userSpaceOnUse"/>
  <linearGradient xlink:href="#linearGradient4198" id="linearGradient4204" y1="5" x2="0" y2="46" gradientUnits="userSpaceOnUse"/>
 </defs>
 <path id="path4181" d="M 6,6 C 3.784,6 2,7.784 2,10 L 2,31 2,47 13.199219,35 42,35 c 2.216,0 4,-1.784 4,-4 L 46,10 C 46,7.784 44.216,6 42,6 L 6,6 Z" opacity="0.15" fill-rule="evenodd"/>
 <path d="M 6 5 C 3.784 5 2 6.784 2 9 L 2 30 L 2 46 L 13.199219 34 L 42 34 C 44.216 34 46 32.216 46 30 L 46 9 C 46 6.784 44.216 5 42 5 L 6 5 z " id="rect3362" fill="url(#linearGradient4204)" fill-rule="evenodd"/>
 <path id="path3369" d="M 6,5.5371094 C 4.0727556,5.5371094 2.5371094,7.0727556 2.5371094,9 l 0,21 0,14.636719 10.2695316,-11.003907 a 0.53807161,0.53807161 0 0 1 0.392578,-0.169921 l 28.800781,0 c 1.927244,0 3.462891,-1.535647 3.462891,-3.462891 l 0,-21 C 45.462891,7.0727556 43.927244,5.5371094 42,5.5371094 l -36,0 z" opacity="0.5" fill="none" fill-rule="evenodd" stroke="#000"/>
 <path d="M 6,6.578125 C 4.6308046,6.578125 3.578125,7.6308046 3.578125,9 l 0,21 0,11.996094 8.466797,-9.072266 a 1.5779484,1.5779484 0 0 1 1.154297,-0.501953 l 28.800781,0 c 1.369195,0 2.421875,-1.05268 2.421875,-2.421875 l 0,-21 C 44.421875,7.6308046 43.369195,6.578125 42,6.578125 l -36,0 z" id="path3371" opacity="0.4" fill="none" fill-rule="evenodd" stroke="url(#linearGradient4179)"/>
 <path d="m 21.986328,8.5117188 a 0.48799182,0.48799182 0 0 0 -0.06055,0.00586 C 21.091224,8.6470563 20.653731,8.7759348 20.169922,9.0234375 19.178336,9.5053296 18.311621,10.337854 17.810547,11.25 c -0.996928,1.826726 -1.298828,3.964701 -1.298828,8.75 0,3.119767 0.138854,5.259201 0.544922,6.865234 0.406067,1.606034 1.116509,2.685513 2.164062,3.527344 a 0.48799182,0.48799182 0 0 0 0.0039,0.0039 c 0.79042,0.620509 1.476461,0.876308 2.69336,1.083985 A 0.48799182,0.48799182 0 0 0 22.488281,31 l 0,-2 a 0.48799182,0.48799182 0 0 0 -0.322265,-0.458984 c -0.467588,-0.16933 -0.757201,-0.341701 -0.962891,-0.574219 -0.20569,-0.232518 -0.355309,-0.555033 -0.462891,-1.103516 -0.215163,-1.096966 -0.207031,-3.022474 -0.207031,-6.28125 l 0,-1.164062 c 0,-3.258776 -0.0081,-5.184284 0.207031,-6.28125 0.107582,-0.548483 0.257201,-0.870998 0.462891,-1.103516 0.20569,-0.232518 0.495303,-0.404889 0.962891,-0.574219 A 0.48799182,0.48799182 0 0 0 22.488281,11 l 0,-2 A 0.48799182,0.48799182 0 0 0 21.986328,8.5117188 Z M 26,13.511719 A 0.48799182,0.48799182 0 0 0 25.511719,14 l 0,4 A 0.48799182,0.48799182 0 0 0 26,18.488281 l 8,0 A 0.48799182,0.48799182 0 0 0 34.488281,18 l 0,-4 A 0.48799182,0.48799182 0 0 0 34,13.511719 l -8,0 z m 0,8 A 0.48799182,0.48799182 0 0 0 25.511719,22 l 0,4 A 0.48799182,0.48799182 0 0 0 26,26.488281 l 8,0 A 0.48799182,0.48799182 0 0 0 34.488281,26 l 0,-4 A 0.48799182,0.48799182 0 0 0 34,21.511719 l -8,0 z" id="path3376" opacity="0.31" fill="none" stroke="#000"/>
 <g transform="translate(-1,1)" id="g3358">
  <path d="M 23,8 C 22.183168,8.1267281 21.836634,8.2281106 21.391089,8.4562212 20.5,8.8870972 19.683168,9.672811 19.237624,10.483871 18.29703,12.207373 18,14.235023 18,19 c 0,6.209677 0.569307,8.440092 2.524752,10.011521 C 21.267327,29.59447 21.811881,29.797235 23,30 l 0,-2 c -2.029703,-0.735023 -1.955446,-1.903226 -1.955446,-8.417051 l 0,-1.165898 C 21.044554,11.903226 20.970297,10.735023 23,10 Z" id="path4188" fill="#fff"/>
  <path id="path4196" d="m 35,13 -8,0 0,4 8,0 0,-4 z" fill="#fff"/>
  <path d="m 35,21 -8,0 0,4 8,0 0,-4 z" id="path3356" fill="#fff"/>
 </g>
 <metadata id="metadata9999">
  <rdf:RDF>
   <cc:Work>
    <dc:format>image/svg+xml</dc:format>
    <dc:type rdf:resource="http://purl.org/dc/dcmitype/StillImage"/>
    <dc:title>Ivy icon theme</dc:title>
    <cc:license rdf:resource="http://creativecommons.org/licenses/by-sa/4.0/"/>
    <dc:creator>
     <cc:Agent>
      <dc:title>Sixsixfive (sixsixfive.deviantart.com)</dc:title>
     </cc:Agent>
    </dc:creator>
    <dc:publisher>
     <cc:Agent>
      <dc:title>Sixsixfive (sixsixfive.deviantart.com)</dc:title>
     </cc:Agent>
    </dc:publisher>
    <dc:source>https://github.com/sixsixfive</dc:source>
    <dc:subject>
     <rdf:Bag>
      <rdf:li>ivy</rdf:li>
     </rdf:Bag>
    </dc:subject>
    <dc:contributor>
     <cc:Agent>
      <dc:title>ssf</dc:title>
     </cc:Agent>
    </dc:contributor>
    <dc:rights>
     <cc:Agent>
      <dc:title>Sixsixfive (sixisixfive.deviantart.com)</dc:title>
     </cc:Agent>
    </dc:rights>
    <dc:description>A simple icon theme published under CC-BY-SA_V4(http://creativecommons.org/licenses/by-sa/4.0)</dc:description>
    <dc:identifier>SSF</dc:identifier>
   </cc:Work>
  </rdf:RDF>
 </metadata>
 <!--Part of the Ivy icon them published under the CC-BY-SA_V4: http://creativecommons.org/licenses/by-sa/4.0 -->
</svg>
