<?xml version="1.0" encoding="UTF-8" standalone="no"?><svg xmlns:cc="http://creativecommons.org/ns#" xmlns:svg="http://www.w3.org/2000/svg" xmlns:dc="http://purl.org/dc/elements/1.1/" xmlns="http://www.w3.org/2000/svg" xmlns:rdf="http://www.w3.org/1999/02/22-rdf-syntax-ns#" id="svg2" version="1.1" viewBox="0 0 32 32"><defs id="defs4"><linearGradient gradientUnits="userSpaceOnUse" y1="2" id="0" y2="30" x2="0"><stop id="stop7" stop-color="#ff8b36"/><stop id="stop9" stop-color="#ff9f58" offset="1"/></linearGradient><linearGradient gradientUnits="userSpaceOnUse" y1="3" id="1" y2="29" x2="0"><stop id="stop12" stop-color="#fff"/><stop stop-opacity="0" id="stop14" stop-color="#fff" offset="1"/></linearGradient></defs><rect ry="2.667" width="28" rx="2.667" height="28" opacity="0.1" id="rect16" y="3" x="2"/><rect ry="2.667" width="28" rx="2.667" height="28" id="rect18" y="2" x="2" fill="url(#0)"/><path opacity="0.3" d="m 7 7 v 3 c 7.767502 0.22269 13.805384 6.279956 14 14 h 3 C 23.820869 15.469607 17.474972 8.461634 9.25 7.1875 8.512693 7.07329 7.765797 7.01864 7 7 z m 0 6 v 3 c 4.508804 0.21049 7.806871 3.506162 8 7.96875 h 3 C 17.820141 18.444861 13.689861 13.919926 8.34375 13.09375 7.902955 13.02563 7.455799 13.01709 7 13 z m 2 7 c -1.099474 -0.0028 -2 0.862287 -2 1.96875 0 1.106462 0.89949 1.997135 2 2 C 10.09947 23.97165 11 23.10646 11 22 11 20.962422 10.219513 20.10269 9.21875 20 9.170321 19.995043 9.08628 20.00018 9 20 z" id="path20"/><g id="g22" fill="none"><path stroke="url(#1)" opacity="0.6" d="M 4.65625,3.5 C 3.976867,3.5 3.5,3.976867 3.5,4.65625 l 0,22.6875 C 3.5,28.02313 3.976868,28.5 4.65625,28.5 l 22.6875,0 C 28.02313,28.5 28.5,28.02313 28.5,27.34375 l 0,-22.6875 C 28.5,3.976868 28.02313,3.5 27.34375,3.5 l -22.6875,0 z" id="path24"/><path stroke="#000" opacity="0.45" d="M 4.65625,2.5 C 3.51151,2.5 2.5,3.51151 2.5,4.65625 l 0,22.6875 C 2.5,28.48849 3.511509,29.5 4.65625,29.5 l 22.6875,0 C 28.488491,29.5 29.5,28.488491 29.5,27.34375 l 0,-22.6875 C 29.5,3.511509 28.48849,2.5 27.34375,2.5 l -22.6875,0 z" id="path26"/></g><g id="g28" fill="#eeeeec"><path d="m 7,8 0,3 c 7.7675,0.22269 13.8054,6.27196 14,13.992 L 24,25 C 23.820869,16.46961 17.4864,9.4468 9.2614,8.1726 8.524093,8.05839 7.76577,8.01862 6.99997,7.999982 Z" id="path30"/><path d="m 7,14 0,3 c 4.5088,0.21049 7.80687,3.514 8,7.97659 l 2.9931,0.0075 C 17.813241,19.4602 13.69672,14.93099 8.35061,14.10479 7.909814,14.03667 7.455832,14.01706 7.00003,13.999975 Z" id="path32"/><path d="m 9,21.0022 c -1.09947,-0.0028 -2,0.868959 -2,1.97542 0,1.10646 0.89949,1.97977 2,1.98263 1.09947,0.0029 2,-0.868961 2,-1.97542 0,-1.03758 -0.793133,-1.87995 -1.7939,-1.98263 -0.048429,-0.005 -0.11983,1.83e-4 -0.206105,0 z" id="path34"/></g><metadata id="metadata9999"><rdf:RDF><cc:Work><dc:format>image/svg+xml</dc:format><dc:type rdf:resource="http://purl.org/dc/dcmitype/StillImage"/><dc:title>Ivy icon theme</dc:title><cc:license rdf:resource="http://creativecommons.org/licenses/by-sa/4.0/"/><dc:creator><cc:Agent><dc:title>Sixsixfive (sixsixfive.deviantart.com)</dc:title></cc:Agent></dc:creator><dc:publisher><cc:Agent><dc:title>Sixsixfive (sixsixfive.deviantart.com)</dc:title></cc:Agent></dc:publisher><dc:source>https://github.com/sixsixfive</dc:source><dc:subject><rdf:Bag><rdf:li>ivy</rdf:li></rdf:Bag></dc:subject><dc:contributor><cc:Agent><dc:title>ssf</dc:title></cc:Agent></dc:contributor><dc:rights><cc:Agent><dc:title>Sixsixfive (sixisixfive.deviantart.com)</dc:title></cc:Agent></dc:rights><dc:description>A simple icon theme published under CC-BY-SA_V4(http://creativecommons.org/licenses/by-sa/4.0)</dc:description><dc:identifier>SSF</dc:identifier></cc:Work></rdf:RDF></metadata><!--Part of the Ivy icon them published under the CC-BY-SA_V4: http://creativecommons.org/licenses/by-sa/4.0 -->
</svg>