<?xml version="1.0" encoding="UTF-8" standalone="no"?><svg xmlns:cc="http://creativecommons.org/ns#" xmlns:rdf="http://www.w3.org/1999/02/22-rdf-syntax-ns#" xmlns:svg="http://www.w3.org/2000/svg" id="svg2" viewBox="0 0 48 48" version="1.1" xmlns:dc="http://purl.org/dc/elements/1.1/" xmlns="http://www.w3.org/2000/svg"><defs id="defs4"><linearGradient id="0" x2="0" y2="46" y1="4" gradientUnits="userSpaceOnUse"><stop id="stop7" stop-color="#ebebeb"/><stop offset="1" id="stop9" stop-color="#f7f7f7"/></linearGradient><linearGradient id="1" x2="0" y2="45.01" y1="5" gradientUnits="userSpaceOnUse"><stop id="stop12" stop-color="#fff"/><stop offset="1" id="stop14" stop-color="#fff" stop-opacity="0"/></linearGradient><mask id="2"><rect rx="4" height="42" ry="4" id="rect17" width="42" x="3" y="1008.22" fill="#fff"/></mask></defs><rect rx="4" height="42" ry="4" id="rect19" opacity="0.1" width="42" x="3" y="4.987"/><rect rx="4" height="42" ry="4" id="rect21" width="42" x="3" y="3.987" fill="url(#0)"/><g mask="url(#2)" id="g23" transform="matrix(1 0 0 1 0 -1004.23)" fill-rule="evenodd"><path id="path25" d="m 38.88505,1020.8587 c -0.07951,-0.047 -0.161797,-0.091 -0.240796,-0.135 -1.293623,-0.6877 -2.717899,-1.1411 -4.231302,-1.2997 -2.673081,-0.279 -5.229688,0.3993 -7.38851,1.7815 -1.477702,-0.9269 -3.15417,-1.5313 -4.956227,-1.7199 -2.484698,-0.2602 -4.865327,0.31 -6.924893,1.5009 -0.01975,0.015 -0.04027,0.024 -0.06027,0.038 -0.04912,0.04 -0.08305,0.108 -0.08305,0.1843 0,0.1305 0.09444,0.2361 0.212692,0.2361 0.01241,0 0.02405,0 0.03493,0 0.0052,0 0.01017,0 0.01444,0 1.106503,-0.2268 2.261876,-0.2916 3.438012,-0.1683 3.301533,0.3455 6.177938,1.4689 8.197499,4.0001 0.104822,0.12 0.198258,0.1155 0.304604,-0.015 2.540402,-3.2526 6.433422,-4.5365 10.617882,-4.1004 0.232442,0.025 0.463871,0.056 0.691755,0.097 0.07951,0.015 0.202311,0.035 0.273966,0.042 0.138503,0.019 0.214212,-0.1035 0.214212,-0.2345 -2.56e-4,-0.091 -0.0357,-0.1654 -0.114957,-0.2088 z" fill="#254f8a"/><path id="path27" d="m 38.88505,1022.8584 c -0.07951,-0.047 -0.161797,-0.091 -0.240796,-0.135 -1.293623,-0.6877 -2.717899,-1.1411 -4.231302,-1.2997 -2.673081,-0.279 -5.229688,0.3993 -7.38851,1.7815 -1.477702,-0.9269 -3.15417,-1.5313 -4.956227,-1.7199 -2.484698,-0.2602 -4.865327,0.31 -6.924893,1.5009 -0.01975,0.015 -0.04027,0.024 -0.06027,0.038 -0.04912,0.04 -0.08305,0.108 -0.08305,0.1843 0,0.1305 0.09444,0.2361 0.212692,0.2361 0.01241,0 0.02405,0 0.03493,0 0.0052,0 0.01017,0 0.01444,0 1.106503,-0.2268 2.261876,-0.2916 3.438012,-0.1683 3.301533,0.3455 6.177938,1.4689 8.197499,4.0001 0.104822,0.12 0.198258,0.1155 0.304604,-0.015 2.540402,-3.2526 6.433422,-4.5365 10.617882,-4.1004 0.232442,0.025 0.463871,0.056 0.691755,0.097 0.07951,0.015 0.202311,0.035 0.273966,0.042 0.138503,0.019 0.214212,-0.1035 0.214212,-0.2345 -2.56e-4,-0.091 -0.0357,-0.1654 -0.114957,-0.2088 z" fill="#fff"/><path id="path29" d="m 38.88505,1021.8587 c -0.07951,-0.047 -0.161797,-0.091 -0.240796,-0.135 -1.293623,-0.6877 -2.717899,-1.1411 -4.231302,-1.2997 -2.673081,-0.279 -5.229688,0.3993 -7.38851,1.7815 -1.477702,-0.9269 -3.15417,-1.5313 -4.956227,-1.7199 -2.484698,-0.2602 -4.865327,0.31 -6.924893,1.5009 -0.01975,0.015 -0.04027,0.024 -0.06027,0.038 -0.04912,0.04 -0.08305,0.108 -0.08305,0.1843 0,0.1305 0.09444,0.2361 0.212692,0.2361 0.01241,0 0.02405,0 0.03493,0 0.0052,0 0.01017,0 0.01444,0 1.106503,-0.2268 2.261876,-0.2916 3.438012,-0.1683 3.301533,0.3455 6.177938,1.4689 8.197499,4.0001 0.104822,0.12 0.198258,0.1155 0.304604,-0.015 2.540402,-3.2526 6.433422,-4.5365 10.617882,-4.1004 0.232442,0.025 0.463871,0.056 0.691755,0.097 0.07951,0.015 0.202311,0.035 0.273966,0.042 0.138503,0.019 0.214212,-0.1035 0.214212,-0.2345 -2.56e-4,-0.091 -0.0357,-0.1654 -0.114957,-0.2088 z" fill="#5288d1"/><path id="path31" d="m 17.040966,1045.2614 c 0.05558,0.063 0.128311,0.1005 0.210265,0.1005 0.09988,0 0.190031,-0.058 0.247912,-0.1463 0.0015,0 0.12575,-0.2132 0.189008,-0.3179 3.964807,-6.6106 10.502219,-9.8693 17.77799,-9.8693 0.518619,0 1.037493,0.024 1.547661,0.067 0.147518,0.014 0.456128,0.041 0.462787,0.041 0.17902,0 0.32372,-0.1765 0.32372,-0.393 0,-0.1565 -0.07453,-0.2888 -0.180556,-0.3525 -0.01358,0 -0.02612,-0.014 -0.03944,-0.02 -2.562105,-1.2946 -5.373145,-2.0099 -8.320437,-2.0099 -4.707776,0 -9.067501,1.8213 -12.629707,4.9177 -2.719866,-1.4893 -5.734001,-1.9168 -8.9082028,-1.9168 -1.9804835,0 -3.8987322,-0.077 -5.7219642,0.5274 0.1872145,1.0948 0.4356394,2.1622 0.7350292,3.2003 5.5621528,0.1192 10.5170738,1.8268 14.2787878,6.1404 0.0076,0.014 0.01716,0.023 0.02715,0.03 z" fill="#fff"/><path id="path33" d="m 17.040966,1043.2617 c 0.05558,0.063 0.128311,0.1005 0.210265,0.1005 0.09988,0 0.190031,-0.058 0.247912,-0.1463 0.0015,0 0.12575,-0.2132 0.189008,-0.3179 3.964807,-6.6106 10.502219,-9.8693 17.77799,-9.8693 0.518619,0 1.037493,0.024 1.547661,0.067 0.147518,0.014 0.456128,0.041 0.462787,0.041 0.17902,0 0.32372,-0.1765 0.32372,-0.393 0,-0.1565 -0.07453,-0.2888 -0.180556,-0.3525 -0.01358,0 -0.02612,-0.014 -0.03944,-0.02 -2.562105,-1.2946 -5.373145,-2.0099 -8.320437,-2.0099 -4.707776,0 -9.067501,1.8213 -12.629707,4.9177 -2.719866,-1.4893 -5.734001,-1.9168 -8.9082028,-1.9168 -1.9804835,0 -3.8987322,-0.077 -5.7219642,0.5274 0.1872145,1.0948 0.4356394,2.1622 0.7350292,3.2003 5.5621528,0.1192 10.5170738,1.8268 14.2787878,6.1404 0.0076,0.014 0.01716,0.023 0.02715,0.03 z" fill="#254f8a"/><path id="path35" d="m 17.040966,1044.2617 c 0.05558,0.063 0.128311,0.1005 0.210265,0.1005 0.09988,0 0.190031,-0.058 0.247912,-0.1463 0.0015,0 0.12575,-0.2132 0.189008,-0.3179 3.964807,-6.6106 10.502219,-9.8693 17.77799,-9.8693 0.518619,0 1.037493,0.024 1.547661,0.067 0.147518,0.014 0.456128,0.041 0.462787,0.041 0.17902,0 0.32372,-0.1765 0.32372,-0.393 0,-0.1565 -0.07453,-0.2888 -0.180556,-0.3525 -0.01358,0 -0.02612,-0.014 -0.03944,-0.02 -2.562105,-1.2946 -5.373145,-2.0099 -8.320437,-2.0099 -4.707776,0 -9.067501,1.8213 -12.629707,4.9177 -2.719866,-1.4893 -5.734001,-1.9168 -8.9082028,-1.9168 -1.9804835,0 -3.8987322,-0.077 -5.7219642,0.5274 0.1872145,1.0948 0.4356394,2.1622 0.7350292,3.2003 5.5621528,0.1192 10.5170738,1.8268 14.2787878,6.1404 0.0076,0.014 0.01716,0.023 0.02715,0.03 z" fill="#5288d1"/></g><g id="g37" fill="none"><path id="path39" opacity="0.4" d="M 7,4.5 C 5.05413,4.5 3.5,6.0541 3.5,8 l 0,34 c 0,1.9459 1.55413,3.5 3.5,3.5 l 34,0 c 1.94587,0 3.5,-1.5541 3.5,-3.5 l 0,-34 C 44.5,6.0541 42.94587,4.5 41,4.5 l -34,0 z" stroke="#000"/><path id="path41" opacity="0.8" d="M 7,5.5 C 5.59262,5.5 4.5,6.5926 4.5,8 l 0,34 c 0,1.4074 1.09262,2.5 2.5,2.5 l 34,0 c 1.40738,0 2.5,-1.0926 2.5,-2.5 l 0,-34 C 43.5,6.5926 42.40738,5.5 41,5.5 l -34,0 z" stroke="url(#1)"/></g><metadata id="metadata9999"><rdf:RDF><cc:Work><dc:format>image/svg+xml</dc:format><dc:type rdf:resource="http://purl.org/dc/dcmitype/StillImage"/><dc:title>Ivy icon theme</dc:title><cc:license rdf:resource="http://creativecommons.org/licenses/by-sa/4.0/"/><dc:creator><cc:Agent><dc:title>Sixsixfive (sixsixfive.deviantart.com)</dc:title></cc:Agent></dc:creator><dc:publisher><cc:Agent><dc:title>Sixsixfive (sixsixfive.deviantart.com)</dc:title></cc:Agent></dc:publisher><dc:source>https://github.com/sixsixfive</dc:source><dc:subject><rdf:Bag><rdf:li>ivy</rdf:li></rdf:Bag></dc:subject><dc:contributor><cc:Agent><dc:title>ssf</dc:title></cc:Agent></dc:contributor><dc:rights><cc:Agent><dc:title>Sixsixfive (sixisixfive.deviantart.com)</dc:title></cc:Agent></dc:rights><dc:description>A simple icon theme published under CC-BY-SA_V4(http://creativecommons.org/licenses/by-sa/4.0)</dc:description><dc:identifier>SSF</dc:identifier></cc:Work></rdf:RDF></metadata><!--Part of the Ivy icon them published under the CC-BY-SA_V4: http://creativecommons.org/licenses/by-sa/4.0 -->
</svg>