<?xml version="1.0" encoding="UTF-8" standalone="no"?>
<svg xmlns:dc="http://purl.org/dc/elements/1.1/" xmlns:cc="http://creativecommons.org/ns#" xmlns:rdf="http://www.w3.org/1999/02/22-rdf-syntax-ns#" xmlns:svg="http://www.w3.org/2000/svg" xmlns="http://www.w3.org/2000/svg" viewBox="0 0 48 48" id="svg2" version="1.1">
 <defs id="defs4">
  <linearGradient id="0" y1="0.00031" y2="1.00031" x2="0">
   <stop stop-color="#5288d1" id="stop7"/>
   <stop offset="1" stop-color="#9cbbe5" id="stop9"/>
  </linearGradient>
  <linearGradient id="1" y1="-0.012821" y2="1.013077" x2="0">
   <stop stop-color="#fff" id="stop12"/>
   <stop offset="1" stop-color="#fff" id="stop14" stop-opacity="0"/>
  </linearGradient>
 </defs>
 <g id="g12">
  <path d="m 7,4.987 34,0 c 2.216,0 4,1.784 4,4 l 0,34 c 0,2.216 -1.784,4 -4,4 l -34,0 c -2.216,0 -4,-1.784 -4,-4 l 0,-34 c 0,-2.216 1.784,-4 4,-4 z" id="rect19" opacity="0.1"/>
  <path d="m 7,3.987 34,0 c 2.216,0 4,1.784 4,4 l 0,34 c 0,2.216 -1.784,4 -4,4 l -34,0 c -2.216,0 -4,-1.784 -4,-4 l 0,-34 c 0,-2.216 1.784,-4 4,-4 z" id="rect21" fill="url(#0)"/>
  <g id="g33" fill="none">
   <path id="path35" d="M 7,4.5 C 5.05413,4.5 3.5,6.0541 3.5,8 l 0,34 c 0,1.9459 1.55413,3.5 3.5,3.5 l 34,0 c 1.945869,0 3.5,-1.5541 3.5,-3.5 l 0,-34 C 44.5,6.0541 42.945869,4.5 41,4.5 l -34,0 z" opacity="0.45" stroke="#000"/>
   <path id="path37" d="M 7,5.5 C 5.59262,5.5 4.5,6.5926 4.5,8 l 0,34 c 0,1.407398 1.09262,2.5 2.5,2.5 l 34,0 c 1.407379,0 2.5,-1.092602 2.5,-2.5 l 0,-34 C 43.5,6.5926 42.407379,5.5 41,5.5 l -34,0 z" opacity="0.6" stroke="url(#1)"/>
  </g>
  <path d="m 11,10 27,0 0,4 -27,0 z" id="rect4170" opacity="0.2" stroke-linejoin="round"/>
  <path d="m 11,11 27,0 0,4 -27,0 z" id="rect4162" fill="#ebebeb" stroke-linejoin="round"/>
  <path d="m 11,18 27,0 0,4 -27,0 z" id="rect4172" opacity="0.2" stroke-linejoin="round"/>
  <path d="m 11,19 27,0 0,4 -27,0 z" id="rect4164" fill="#ebebeb" stroke-linejoin="round"/>
  <path d="m 11,26 27,0 0,4 -27,0 z" id="rect4174" opacity="0.2" stroke-linejoin="round"/>
  <path d="m 11,27 27,0 0,4 -27,0 z" id="rect4166" fill="#ebebeb" stroke-linejoin="round"/>
  <path d="m 11,34 27,0 0,4 -27,0 z" id="rect4176" opacity="0.2" stroke-linejoin="round"/>
  <path d="m 11,35 27,0 0,4 -27,0 z" id="rect4168" fill="#ebebeb" stroke-linejoin="round"/>
 </g>
 <metadata id="metadata9999">
  <rdf:RDF>
   <cc:Work>
    <dc:format>image/svg+xml</dc:format>
    <dc:type rdf:resource="http://purl.org/dc/dcmitype/StillImage"/>
    <dc:title>Ivy icon theme</dc:title>
    <cc:license rdf:resource="http://creativecommons.org/licenses/by-sa/4.0/"/>
    <dc:creator>
     <cc:Agent>
      <dc:title>Sixsixfive (sixsixfive.deviantart.com)</dc:title>
     </cc:Agent>
    </dc:creator>
    <dc:publisher>
     <cc:Agent>
      <dc:title>Sixsixfive (sixsixfive.deviantart.com)</dc:title>
     </cc:Agent>
    </dc:publisher>
    <dc:source>https://github.com/sixsixfive</dc:source>
    <dc:subject>
     <rdf:Bag>
      <rdf:li>ivy</rdf:li>
     </rdf:Bag>
    </dc:subject>
    <dc:contributor>
     <cc:Agent>
      <dc:title>ssf</dc:title>
     </cc:Agent>
    </dc:contributor>
    <dc:rights>
     <cc:Agent>
      <dc:title>Sixsixfive (sixisixfive.deviantart.com)</dc:title>
     </cc:Agent>
    </dc:rights>
    <dc:description>A simple icon theme published under CC-BY-SA_V4(http://creativecommons.org/licenses/by-sa/4.0)</dc:description>
    <dc:identifier>SSF</dc:identifier>
   </cc:Work>
  </rdf:RDF>
 </metadata>
 <!--Part of the Ivy icon them published under the CC-BY-SA_V4: http://creativecommons.org/licenses/by-sa/4.0 -->
</svg>
