<?xml version="1.0" encoding="UTF-8" standalone="no"?>
<svg xmlns:dc="http://purl.org/dc/elements/1.1/" xmlns:cc="http://creativecommons.org/ns#" xmlns:rdf="http://www.w3.org/1999/02/22-rdf-syntax-ns#" xmlns:svg="http://www.w3.org/2000/svg" xmlns="http://www.w3.org/2000/svg" xmlns:xlink="http://www.w3.org/1999/xlink" version="1.1" viewBox="0 0 32 32" id="svg2">
 <defs id="defs4">
  <linearGradient gradientTransform="matrix(0.65 0 0 0.66667 -39.43 -3.196)" gradientUnits="userSpaceOnUse" x2="0" y2="12.295" y1="42.29" id="0">
   <stop id="stop7" stop-color="#d3d7cf"/>
   <stop id="stop9" stop-color="#eeeeec" offset="1"/>
  </linearGradient>
  <linearGradient gradientTransform="matrix(0.61708 0 0 0.66094 -36.618 -2.637)" gradientUnits="userSpaceOnUse" x2="0" y2="36.34" y1="47.875" id="1">
   <stop id="stop12" stop-color="#eeeeec"/>
   <stop id="stop14" stop-color="#555753" offset="1"/>
  </linearGradient>
  <linearGradient gradientUnits="userSpaceOnUse" x2="0" y2="23.969" y1="6.03" id="2">
   <stop id="stop17" stop-color="#fff"/>
   <stop id="stop19" stop-opacity="0" stop-color="#fff" offset="1"/>
  </linearGradient>
  <radialGradient gradientTransform="matrix(0.92797 -0.83361 1.0035 1.313 -39.995 -6)" gradientUnits="userSpaceOnUse" id="3" r="17" cy="37.764" cx="19.501">
   <stop id="stop22"/>
   <stop id="stop24" stop-color="#171717" offset="1"/>
  </radialGradient>
  <linearGradient gradientTransform="matrix(0.66666667,0,0,0.66666667,0.66731996,-0.64062435)" xlink:href="#linearGradient4165" id="linearGradient4423" y1="46" x2="0" y2="12" gradientUnits="userSpaceOnUse"/>
  <linearGradient id="linearGradient4165">
   <stop id="stop4167" stop-color="#eed45a"/>
   <stop id="stop4169" stop-color="#e9c82a" offset="1"/>
  </linearGradient>
 </defs>
 <path id="path26" d="M 4.34375 6 C 3.605083 6 3 6.605083 3 7.34375 v 17.3125 C 3 25.394917 3.605083 26 4.34375 26 H 12 v 1.53125 h -1.84375 C 9.515258 27.53125 9 28.06345 9 28.75 9 29.436554 9.515258 30 10.15625 30 h 11.6875 C 22.48474 30 23 29.436554 23 28.75 23 28.06345 22.48474 27.53125 21.84375 27.53125 H 20 V 26 H 27.65625 C 28.394917 26 29 25.394917 29 24.65625 V 7.34375 C 29 6.605083 28.394917 6 27.65625 6 H 4.34375 z" fill="#6a6a6a" opacity="0.2"/>
 <path id="path28" d="m 11.989 21.3785 v 5.143 h -1.832 c -0.640992 0 -1.15703 0.552714 -1.15703 1.23927 0 0.686554 0.516033 1.23927 1.15703 1.23927 h 11.686 c 0.64099 0 1.15702 -0.552714 1.15702 -1.23927 0 -0.686555 -0.516035 -1.23927 -1.15703 -1.23927 h -1.83196 v -5.14296 h -8.02204 z" fill="url(#1)"/>
 <g id="g30" fill="none">
  <path id="path32" d="m 12.4688,21.8438 0,4.6875 a 0.467194,0.467194 0 0 1 -0.46875,0.46875 l -1.84375,0 c -0.382421,0 -0.6875,0.297174 -0.6875,0.75 0,0.452825 0.320263,0.78125 0.6875,0.78125 l 11.6875,0 c 0.367234,0 0.6875,-0.328426 0.6875,-0.78125 0,-0.452825 -0.305082,-0.75 -0.6875,-0.75 l -1.84375,0 A 0.467194,0.467194 0 0 1 19.5313,26.5313 l 0,-4.6875 -7.0625,0 z" opacity="0.4" stroke="#000"/>
  <path id="path34" d="m 13.5312,22.9062 0,3.625 a 1.05119,1.05119 0 0 1 -0.59375,0.9375 l 6.125,0 a 1.05119,1.05119 0 0 1 0,-0.03125 1.05119,1.05119 0 0 1 -0.59375,-0.90625 l 0,-3.625 -4.9375,0 z" opacity="0.4" stroke="#fff"/>
 </g>
 <rect id="rect36" height="20" rx="1.333" fill="url(#0)" y="5" x="3" width="26" ry="1.333"/>
 <path id="path38" d="m 4.3438 5.5938 c -0.419778 0 -0.75 0.330222 -0.75 0.75 v 17.3125 c 0 0.419778 0.330222 0.75 0.75 0.75 h 23.3125 c 0.419779 0 0.75 -0.330221 0.75 -0.75 V 6.3438 c 0 -0.419778 -0.330222 -0.75 -0.75 -0.75 H 4.3438 z" stroke="#000" fill="none" opacity="0.4"/>
 <path id="path40" d="M 6,8 H26 V20 H6 z" fill="url(#3)"/>
 <path id="path42" d="M 6,20 H26 V21 H6 z" fill="#fff" opacity="0.6"/>
 <g id="g44" fill="none">
  <path id="path46" d="m 6.5938,8.5938 0,10.8125 18.8125,0 0,-10.8125 -18.8125,0 z" stroke="#000"/>
  <path id="path48" d="m 4.5312,6.5312 0,16.9375 22.9375,0 0,-16.9375 -22.9375,0 z" opacity="0.6" stroke="url(#2)"/>
 </g>
 <path id="path3521" d="m 31.974612,7.9746097 -27,23.0000003 0.388672,0 L 5.333984,31 32,31 32,8.3339837 l -0.02539,0.02148 0,-0.380859 z m -3.974609,9.0253913 0,10 -12,0 12,-10 z" opacity="0.15" fill="#000" fill-rule="evenodd"/>
 <path d="m 31.974612,7.0000007 -27,23.0000003 0.388672,0 -0.0293,0.02539 26.666016,0 0,-22.6660163 -0.02539,0.02149 0,-0.380859 z m -3.974609,9.0253913 0,10 -12,0 12,-10 z" id="rect3390" fill="url(#linearGradient4423)" fill-rule="evenodd"/>
 <rect width="1" x="-29" y="-28.974611" height="0.97396" id="rect4425" transform="matrix(0,-1,-1,0,0,0)" opacity="0.4" stroke-dasharray="39 19.5 9.75 19.5" stroke-linejoin="round" stroke-linecap="round" stroke-width="19.5"/>
 <rect transform="matrix(0,-1,-1,0,0,0)" id="rect4429" height="0.973957" y="-24.974611" x="-29" width="1" opacity="0.4" stroke-dasharray="39 19.5 9.75 19.5" stroke-linejoin="round" stroke-linecap="round" stroke-width="19.5"/>
 <rect transform="matrix(0,-1,-1,0,0,0)" id="rect4474" height="0.97396" y="-20.974611" x="-29" width="1" opacity="0.4" stroke-dasharray="39 19.5 9.75 19.5" stroke-linejoin="round" stroke-linecap="round" stroke-width="19.5"/>
 <rect width="1" x="-29" y="-16.974611" height="1" id="rect4478" transform="matrix(0,-1,-1,0,0,0)" opacity="0.4" stroke-dasharray="39 19.5 9.75 19.5" stroke-linejoin="round" stroke-linecap="round" stroke-width="19.5"/>
 <rect transform="matrix(0,-1,-1,0,0,0)" id="rect4482" height="1" y="-12.974611" x="-29" width="1" opacity="0.4" stroke-dasharray="39 19.5 9.75 19.5" stroke-linejoin="round" stroke-linecap="round" stroke-width="19.5"/>
 <rect transform="matrix(0,-1,-1,0,0,0)" id="rect3523" height="0.97396" y="-27.974611" x="-29" width="1" opacity="0.2" stroke-dasharray="39 19.5 9.75 19.5" fill="#fff" stroke-linejoin="round" stroke-linecap="round" stroke-width="19.5"/>
 <rect width="1" x="-29" y="-23.974611" height="0.973957" id="rect3525" transform="matrix(0,-1,-1,0,0,0)" opacity="0.2" stroke-dasharray="39 19.5 9.75 19.5" fill="#fff" stroke-linejoin="round" stroke-linecap="round" stroke-width="19.5"/>
 <rect width="1" x="-29" y="-19.974611" height="0.97396" id="rect3527" transform="matrix(0,-1,-1,0,0,0)" opacity="0.2" stroke-dasharray="39 19.5 9.75 19.5" fill="#fff" stroke-linejoin="round" stroke-linecap="round" stroke-width="19.5"/>
 <rect transform="matrix(0,-1,-1,0,0,0)" id="rect3529" height="1" y="-15.974611" x="-29" width="1" opacity="0.2" stroke-dasharray="39 19.5 9.75 19.5" fill="#fff" stroke-linejoin="round" stroke-linecap="round" stroke-width="19.5"/>
 <rect width="1" x="-29" y="-11.974611" height="1" id="rect3531" transform="matrix(0,-1,-1,0,0,0)" opacity="0.2" stroke-dasharray="39 19.5 9.75 19.5" fill="#fff" stroke-linejoin="round" stroke-linecap="round" stroke-width="19.5"/>
 <path d="M 8.166183,29.191572 31.357754,9.5268207" id="path4343" opacity="0.3" fill="none" fill-rule="evenodd" stroke="#fff"/>
 <path id="path3535" d="m 31.496096,8.0703137 -25.18164,21.4511713 25.18164,0 0,-21.4511713 z m -3.49414,7.4511713 a 0.50436825,0.50436825 0 0 1 0.501953,0.503907 l 0,10 a 0.50436825,0.50436825 0 0 1 -0.503906,0.503906 l -12,0 a 0.50436825,0.50436825 0 0 1 -0.322266,-0.890625 l 12,-10 a 0.50436825,0.50436825 0 0 1 0.324219,-0.117188 z" opacity="0.4" fill="none" fill-rule="evenodd" stroke="#000"/>
 <rect id="rect4341" width="14" height="1" x="14.974611" y="27" opacity="0.2052" fill="#fff" fill-rule="evenodd"/>
 <metadata id="metadata9999">
  <rdf:RDF>
   <cc:Work>
    <dc:format>image/svg+xml</dc:format>
    <dc:type rdf:resource="http://purl.org/dc/dcmitype/StillImage"/>
    <dc:title>Ivy icon theme</dc:title>
    <cc:license rdf:resource="http://creativecommons.org/licenses/by-sa/4.0/"/>
    <dc:creator>
     <cc:Agent>
      <dc:title>Sixsixfive (sixsixfive.deviantart.com)</dc:title>
     </cc:Agent>
    </dc:creator>
    <dc:publisher>
     <cc:Agent>
      <dc:title>Sixsixfive (sixsixfive.deviantart.com)</dc:title>
     </cc:Agent>
    </dc:publisher>
    <dc:source>https://github.com/sixsixfive</dc:source>
    <dc:subject>
     <rdf:Bag>
      <rdf:li>ivy</rdf:li>
     </rdf:Bag>
    </dc:subject>
    <dc:contributor>
     <cc:Agent>
      <dc:title>ssf</dc:title>
     </cc:Agent>
    </dc:contributor>
    <dc:rights>
     <cc:Agent>
      <dc:title>Sixsixfive (sixisixfive.deviantart.com)</dc:title>
     </cc:Agent>
    </dc:rights>
    <dc:description>A simple icon theme published under CC-BY-SA_V4(http://creativecommons.org/licenses/by-sa/4.0)</dc:description>
    <dc:identifier>SSF</dc:identifier>
   </cc:Work>
  </rdf:RDF>
 </metadata>
 <!--Part of the Ivy icon them published under the CC-BY-SA_V4: http://creativecommons.org/licenses/by-sa/4.0 -->
</svg>
