<?xml version="1.0" encoding="UTF-8" standalone="no"?><svg xmlns:cc="http://creativecommons.org/ns#" viewBox="0 0 48 48" version="1.1" id="svg2" xmlns:svg="http://www.w3.org/2000/svg" xmlns:rdf="http://www.w3.org/1999/02/22-rdf-syntax-ns#" xmlns="http://www.w3.org/2000/svg" xmlns:dc="http://purl.org/dc/elements/1.1/"><defs id="defs4"><linearGradient x2="0" gradientUnits="userSpaceOnUse" y2="44.908" id="0" y1="6.908" gradientTransform="matrix(0.85 0 0 1.1052632 1.92635 -4.635158)"><stop stop-color="#ddd" id="stop7"/><stop offset="1" stop-color="#fff" id="stop9"/></linearGradient></defs><path opacity="0.1" id="path11" d="M 7 4 H 41 V 46 H 7 z"/><path fill="url(#0)" id="path13" d="M 7 3 H 41 V 45 H 7 z"/><path opacity="0.651" fill="none" id="path15" stroke="#fff" d="m 8.53125 4.53125 v 38.9375 h 30.9375 v -38.9375 h -30.9375 z"/><path fill-rule="evenodd" fill="#5288d1" id="path17" d="M 7,32 H41 V45 H7 z"/><path opacity="0.4" fill="none" id="path19" stroke="#000" d="m 7.5 3.5 v 41 h 33 v -41 h -33 z"/><g fill-rule="evenodd" id="g21"><path opacity="0.2" id="path23" d="m 11,16 26,0 0,2 -26,0 z"/><path opacity="0.4" id="path25" d="m 8,32 32,0 0,1 -32,0 z"/><g fill="#fff" id="g27"><path opacity="0.4" id="path29" d="m 8,33 32,0 0,1 -32,0 z"/><path opacity="0.3" id="path31" d="m 11,18 26,0 0,1 -26,0 z"/></g><path fill="#ebebeb" id="path33" d="m 12,36 5,0 0,5 -5,0 z"/><g fill="#6a6a6a" id="g35"><path opacity="0.8" id="path37" d="m 12,23 8,0 0,5 -8,0 z"/><path opacity="0.8" id="path39" d="m 12,7 12,0 0,5 -12,0 z"/><path opacity="0.8" id="path41" d="m 27,7 9,0 0,5 -9,0 z"/><path opacity="0.8" id="path43" d="m 23,23 11,0 0,5 -11,0 z"/></g><g fill="#ebebeb" id="g45"><path id="path47" d="m 20,36 3,0 0,5 -3,0 z"/><path id="path49" d="m 26,36 10,0 0,5 -10,0 z"/></g></g><metadata id="metadata9999"><rdf:RDF><cc:Work><dc:format>image/svg+xml</dc:format><dc:type rdf:resource="http://purl.org/dc/dcmitype/StillImage"/><dc:title>Ivy icon theme</dc:title><cc:license rdf:resource="http://creativecommons.org/licenses/by-sa/4.0/"/><dc:creator><cc:Agent><dc:title>Sixsixfive (sixsixfive.deviantart.com)</dc:title></cc:Agent></dc:creator><dc:publisher><cc:Agent><dc:title>Sixsixfive (sixsixfive.deviantart.com)</dc:title></cc:Agent></dc:publisher><dc:source>https://github.com/sixsixfive</dc:source><dc:subject><rdf:Bag><rdf:li>ivy</rdf:li></rdf:Bag></dc:subject><dc:contributor><cc:Agent><dc:title>ssf</dc:title></cc:Agent></dc:contributor><dc:rights><cc:Agent><dc:title>Sixsixfive (sixisixfive.deviantart.com)</dc:title></cc:Agent></dc:rights><dc:description>A simple icon theme published under CC-BY-SA_V4(http://creativecommons.org/licenses/by-sa/4.0)</dc:description><dc:identifier>SSF</dc:identifier></cc:Work></rdf:RDF></metadata><!--Part of the Ivy icon them published under the CC-BY-SA_V4: http://creativecommons.org/licenses/by-sa/4.0 -->
</svg>