<?xml version="1.0" encoding="UTF-8" standalone="no"?>
<svg xmlns:dc="http://purl.org/dc/elements/1.1/" xmlns:cc="http://creativecommons.org/ns#" xmlns:rdf="http://www.w3.org/1999/02/22-rdf-syntax-ns#" xmlns:svg="http://www.w3.org/2000/svg" xmlns="http://www.w3.org/2000/svg" viewBox="0 0 32 32" id="svg2" version="1.1">
 <defs id="defs4">
  <linearGradient id="0" y1="1033.36" y2="1042.36" x2="0" gradientUnits="userSpaceOnUse" gradientTransform="matrix(0.58333 0 0 0.55556 2.917 -553.09)">
   <stop stop-color="#5288d1" id="stop7"/>
   <stop offset="1" stop-color="#a4c0e6" id="stop9"/>
  </linearGradient>
  <linearGradient id="1" y1="1033.36" y2="1042.36" x2="0" gradientUnits="userSpaceOnUse" gradientTransform="matrix(0.58333 0 0 0.55556 1.083 -553.09)">
   <stop stop-color="#d02604" id="stop12"/>
   <stop offset="1" stop-color="#fc694b" id="stop14"/>
  </linearGradient>
  <linearGradient id="2" y1="12" y2="42" x2="0" gradientUnits="userSpaceOnUse" gradientTransform="matrix(0.65217 0 0 0.66667 0.348 1)">
   <stop stop-color="#aaa" id="stop17"/>
   <stop offset="1" stop-color="#f9f9f9" id="stop19"/>
  </linearGradient>
 </defs>
 <path opacity="0.15" d="M 1.570652 10 C 1.251855 10 1 10.257468 1 10.583335 1.023521 16.654827 1 22.605612 1 28.666668 1 29.405336 1.581739 30 2.304348 30 h 10.434784 c 0.652172 0 1.304346 -0.666665 1.304346 -1.333332 v -4.966335 c 0 -0.369334 0.29087 -0.666666 0.652174 -0.666666 h 2.608696 c 0.361303 0 0.652173 0.297333 0.652173 0.666666 v 4.966335 C 17.956521 29.333335 18.608694 30 19.260868 30 h 10.434783 C 30.41826 30 31 29.405336 31 28.666668 30.976724 22.597188 31 16.646966 31 10.583335 31 10.257468 30.748143 10 30.429346 10 h -2.038043 h -0.08153 c -0.261413 0 -0.479677 0.173468 -0.550271 0.416667 L 24 13 v 2 l 4 0.000167 v 4.00017 L 4 19 V 14.999833 L 8 15 V 13 L 4.240554 10.416667 C 4.169959 10.173468 3.951697 10 3.690283 10 h -2.119565 z" id="path21"/>
 <path fill="url(#2)" d="M 1.570652 9 C 1.251855 9 1 9.257468 1 9.583335 1.023521 15.654827 1 21.605612 1 27.666668 1 28.405336 1.581739 29 2.304348 29 h 10.434784 c 0.652172 0 1.304346 -0.666665 1.304346 -1.333332 v -4.966335 c 0 -0.369334 0.29087 -0.666666 0.652174 -0.666666 h 2.608696 c 0.361303 0 0.652173 0.297333 0.652173 0.666666 v 4.966335 C 17.956521 28.333335 18.608694 29 19.260868 29 h 10.434783 C 30.41826 29 31 28.405336 31 27.666668 30.976724 21.597188 31 15.646966 31 9.583335 31 9.257468 30.748143 9 30.429346 9 h -2.038043 h -0.08153 C 28.04836 9 27.830096 9.173468 27.759502 9.416667 L 24 12 v 2 l 4 0.000167 v 4.00017 L 4 18 V 13.999833 L 8 14 V 12 L 4.240554 9.416667 C 4.169959 9.173468 3.951697 9 3.690283 9 H 1.570717 z" id="path23"/>
 <rect width="7" x="4" y="21" fill="url(#1)" rx="0.515" height="5" ry="0.49" id="rect25"/>
 <rect width="7" x="21" y="21" fill="url(#0)" rx="0.515" height="5" ry="0.49" id="rect27"/>
 <g id="g29" fill="none" stroke="#000">
  <path d="m 4.5,21.5 0,4 6,0 0,-4 -6,0 z" id="path31" opacity="0.4"/>
  <path d="m 21.5,21.5 0,4 6,0 0,-4 -6,0 z" id="path33" opacity="0.4"/>
 </g>
 <g id="g35" fill="#fff" color="#000">
  <path d="m 3.515,19 24.97,0 C 28.77031,19 29,19.21854 29,19.49 l 0,0.02 C 29,19.78146 28.77031,20 28.485,20 L 3.515,20 C 3.22969,20 3,19.78146 3,19.51 L 3,19.49 C 3,19.21854 3.22969,19 3.515,19 Z" id="rect37" opacity="0.4"/>
  <path d="m 4.515,26 5.97,0 C 10.77031,26 11,26.21854 11,26.49 l 0,0.02 C 11,26.78146 10.77031,27 10.485,27 l -5.97,0 C 4.22969,27 4,26.78146 4,26.51 L 4,26.49 C 4,26.21854 4.22969,26 4.515,26 Z" id="rect39" opacity="0.7"/>
  <path d="m 21.515,26 5.97,0 C 27.77031,26 28,26.21854 28,26.49 l 0,0.02 C 28,26.78146 27.77031,27 27.485,27 l -5.97,0 C 21.22969,27 21,26.78146 21,26.51 l 0,-0.02 C 21,26.21854 21.22969,26 21.515,26 Z" id="rect41" opacity="0.7"/>
 </g>
 <path opacity="0.4" fill="none" stroke="#000" d="m 1.5625 9.53125 c -0.018331 0 -0.03125 0.00405 -0.03125 0.0625 0.023532 6.074231 0 12.00283 0 18.0625 0 0.453115 0.358057 0.8125 0.78125 0.8125 h 10.4375 c 0.140471 0 0.343526 -0.08447 0.5 -0.25 0.156474 -0.165526 0.25 -0.397872 0.25 -0.5625 v -4.96875 C 13.5 22.03261 14.04224 21.5 14.6875 21.5 h 2.625 c 0.645257 0 1.1875 0.532612 1.1875 1.1875 v 4.96875 c 0 0.164629 0.09353 0.396974 0.25 0.5625 0.156474 0.165526 0.359528 0.25 0.5 0.25 h 10.4375 c 0.423193 0 0.78125 -0.359385 0.78125 -0.8125 -0.02329 -6.072191 0 -12.00024 0 -18.0625 0 -0.058452 -0.01292 -0.0625 -0.03125 -0.0625 h -2.03125 h -0.09375 c -0.03838 0 -0.06114 0.026581 -0.0625 0.03125 a 0.536412 0.536412 0 0 1 -0.1875 0.28125 l -3.53125 2.4375 v 1.1875 h 3.46875 A 0.536412 0.536412 0 0 1 28.53125 14 v 4 A 0.536412 0.536412 0 0 1 28 18.53125 h -24 A 0.536412 0.536412 0 0 1 3.46875 18 v -4 A 0.536412 0.536412 0 0 1 4 13.46875 h 3.46875 v -1.1875 L 3.9375 9.84375 A 0.536412 0.536412 0 0 1 3.75 9.5625 C 3.748644 9.557827 3.725886 9.53125 3.6875 9.53125 h -2.125 z" id="path43"/>
 <g id="g45" fill="#fff" color="#000">
  <path d="m 2,10 2,0 0,1 -2,0 z" id="path47" opacity="0.4"/>
  <path d="m 28,10 2,0 0,1 -2,0 z" id="path49" opacity="0.4"/>
 </g>
 <metadata id="metadata9999">
  <rdf:RDF>
   <cc:Work>
    <dc:format>image/svg+xml</dc:format>
    <dc:type rdf:resource="http://purl.org/dc/dcmitype/StillImage"/>
    <dc:title>Ivy icon theme</dc:title>
    <cc:license rdf:resource="http://creativecommons.org/licenses/by-sa/4.0/"/>
    <dc:creator>
     <cc:Agent>
      <dc:title>Sixsixfive (sixsixfive.deviantart.com)</dc:title>
     </cc:Agent>
    </dc:creator>
    <dc:publisher>
     <cc:Agent>
      <dc:title>Sixsixfive (sixsixfive.deviantart.com)</dc:title>
     </cc:Agent>
    </dc:publisher>
    <dc:source>https://github.com/sixsixfive</dc:source>
    <dc:subject>
     <rdf:Bag>
      <rdf:li>ivy</rdf:li>
     </rdf:Bag>
    </dc:subject>
    <dc:contributor>
     <cc:Agent>
      <dc:title>ssf</dc:title>
     </cc:Agent>
    </dc:contributor>
    <dc:rights>
     <cc:Agent>
      <dc:title>Sixsixfive (sixisixfive.deviantart.com)</dc:title>
     </cc:Agent>
    </dc:rights>
    <dc:description>A simple icon theme published under CC-BY-SA_V4(http://creativecommons.org/licenses/by-sa/4.0)</dc:description>
    <dc:identifier>SSF</dc:identifier>
   </cc:Work>
  </rdf:RDF>
 </metadata>
 <!--Part of the Ivy icon them published under the CC-BY-SA_V4: http://creativecommons.org/licenses/by-sa/4.0 -->
</svg>
