<?xml version="1.0" encoding="UTF-8" standalone="no"?><svg xmlns:cc="http://creativecommons.org/ns#" xmlns:rdf="http://www.w3.org/1999/02/22-rdf-syntax-ns#" xmlns:svg="http://www.w3.org/2000/svg" id="svg2" viewBox="0 0 48 48" version="1.1" xmlns:dc="http://purl.org/dc/elements/1.1/" xmlns="http://www.w3.org/2000/svg"><defs id="defs4"><linearGradient id="0" x2="0" y2="47" y1="5" gradientUnits="userSpaceOnUse"><stop id="stop7" stop-color="#fff"/><stop offset="1" id="stop9" stop-color="#fff" stop-opacity="0"/></linearGradient><linearGradient id="1" x2="40.04" y2="5.216" x1="40.28" y1="44.883" gradientUnits="userSpaceOnUse"><stop id="stop12" stop-color="#93b5e2"/><stop offset="1" id="stop14" stop-color="#5288d1"/></linearGradient></defs><path id="path16" opacity="0.15" d="m 17.7503 6.8039 c -0.500056 0.406807 -0.8125 1.01384 -0.8125 1.65625 l 0.1247 21.6751 l -2.6875 -6.8125 C 14.33158 23.218 14.267486 23.12187 14.1875 23.0415 13.54039 22.375219 12.80231 22.01094 12.0625 21.9165 11.322695 21.82206 10.64231 21.96203 9.90625 22.104 9.099675 22.259527 8.50177 22.856537 8.25 23.5415 7.998227 24.22646 8.04166 24.99737 8.40625 25.69775 l 3.3125 11.25 c 0.0279 0.08932 0.07028 0.174092 0.125 0.25 l 6.4062 8.4375 c 0.167001 0.219489 0.443062 0.351518 0.71875 0.34375 3.55571 -0.0037 7.33498 0.04896 15.0938 0 0.32598 -0.0028 0.642134 -0.205182 0.78125 -0.5 l 4.9375 -10.3125 c 0.02784 -0.05987 0.04885 -0.122903 0.0625 -0.1875 0.09484 -0.467806 0.107273 -1.06817 0.125 -1.8125 0.01221 -2.38383 0.06887 -4.59374 0.06887 -6.90625 -0.0011 -0.07385 -0.01163 -0.147549 -0.03125 -0.21875 -0.180575 -0.630733 -0.594413 -1.21572 -1.10012 -1.625 -0.490327 -0.396824 -1.16616 -0.588051 -1.84375 -0.53125 -1.2237 0.01357 -1.99859 0.81465 -2.3125 1.75 V 24.104 c 0 -0.738122 -0.450573 -1.34778 -1 -1.71875 -0.549427 -0.370974 -1.23119 -0.5625 -1.96875 -0.5625 -0.737559 0 -1.42703 0.205464 -2 0.5625 -0.433705 0.270254 -0.76904 0.695752 -0.9375 1.21875 v -1.53125 c 0 -0.849756 -0.613156 -1.40923 -1.21875 -1.75 -0.605594 -0.340773 -1.32523 -0.53125 -2.0625 -0.53125 -0.737311 0 -1.41924 0.191871 -1.96875 0.5625 -0.189318 0.12769 -0.317917 0.319471 -0.46875 0.5 V 8.2603 c 0 -0.463976 -0.215546 -0.846185 -0.46875 -1.125 -0.253199 -0.278815 -0.552267 -0.493447 -0.874995 -0.65625 -1.46755 -0.690995 -2.78125 -0.5 -4.031 0.324875 z"/><path id="path18" d="m 17.7503 5.8249 c -0.500056 0.406807 -0.8125 1.01384 -0.8125 1.65625 l 0.1247 21.6751 l -2.6875 -6.8125 C 14.33158 22.239 14.267486 22.14287 14.1875 22.0625 13.54039 21.396219 12.80231 21.03194 12.0625 20.9375 11.322695 20.84306 10.64231 20.98303 9.90625 21.125 9.099675 21.280527 8.50177 21.877537 8.25 22.5625 7.998227 23.24746 8.04166 24.01837 8.40625 24.71875 l 3.3125 11.25 c 0.0279 0.08932 0.07028 0.174092 0.125 0.25 l 6.4062 8.4375 c 0.167001 0.219489 0.443062 0.351518 0.71875 0.34375 3.55571 -0.0037 7.33498 0.04896 15.0938 0 0.32598 -0.0028 0.642134 -0.205182 0.78125 -0.5 l 4.9375 -10.3125 c 0.02784 -0.05987 0.04885 -0.122903 0.0625 -0.1875 0.09484 -0.467806 0.107273 -1.06817 0.125 -1.8125 0.01221 -2.38383 0.06887 -4.59374 0.06887 -6.90625 -0.0011 -0.07385 -0.01163 -0.147549 -0.03125 -0.21875 -0.180575 -0.630733 -0.594413 -1.21572 -1.10012 -1.625 -0.490327 -0.396824 -1.16616 -0.588051 -1.84375 -0.53125 -1.2237 0.01357 -1.99859 0.81465 -2.3125 1.75 V 23.125 c 0 -0.738122 -0.450573 -1.34778 -1 -1.71875 -0.549427 -0.370974 -1.23119 -0.5625 -1.96875 -0.5625 -0.737559 0 -1.42703 0.205464 -2 0.5625 -0.433705 0.270254 -0.76904 0.695752 -0.9375 1.21875 v -1.53125 c 0 -0.849756 -0.613156 -1.40923 -1.21875 -1.75 -0.605594 -0.340773 -1.32523 -0.53125 -2.0625 -0.53125 -0.737311 0 -1.41924 0.191871 -1.96875 0.5625 -0.189318 0.12769 -0.317917 0.319471 -0.46875 0.5 V 7.2812 c 0 -0.463976 -0.215546 -0.846185 -0.46875 -1.125 -0.253199 -0.278815 -0.552267 -0.493447 -0.874995 -0.65625 -1.46755 -0.690995 -2.78125 -0.5 -4.031 0.324875 z" fill="url(#1)"/><g id="g20" fill="none"><path id="path22" opacity="0.4" d="m 19.7188,5.5312 c -0.575325,0.05553 -1.12667,0.261777 -1.6875,0.625 -0.40047,0.325791 -0.625,0.817138 -0.625,1.3125 l 0.125,21.6875 a 0.459811,0.459811 0 0 1 -0.90625,0.15625 l -2.6562,-6.7812 -0.0312,-0.0312 c -0.01948,-0.03681 -0.03353,-0.09589 -0.0625,-0.125 -0.58459,-0.601908 -1.24292,-0.919309 -1.875,-1 -0.649326,-0.08289 -1.26054,0.04488 -2,0.1875 -0.635624,0.122564 -1.1115,0.60942 -1.3125,1.15625 -0.20793,0.565685 -0.183464,1.18869 0.125,1.78125 A 0.453563,0.453563 0 0 1 8.8439,24.5938 l 3.3125,11.25 c 0.01328,0.04251 0.03649,0.08892 0.0625,0.125 l 6.4062,8.4062 c 0.07423,0.09757 0.221205,0.159703 0.34375,0.15625 3.56052,-0.0037 7.33796,0.04894 15.0938,0 0.140811,-0.0012 0.314866,-0.09131 0.375,-0.21875 L 39.37515,34 c 0.01331,-0.02862 0.02472,-0.06287 0.03125,-0.09375 0.08136,-0.401319 0.07601,-0.973659 0.09375,-1.71875 0.01223,-2.38877 0.0625,-4.60032 0.0625,-6.90625 -5.25e-4,-0.03525 0.0094,-0.05975 0,-0.09375 -0.151311,-0.528517 -0.503459,-1.05498 -0.9375,-1.40625 -0.387301,-0.313445 -0.963107,-0.485126 -1.53125,-0.4375 A 0.453563,0.453563 0 0 1 37.06265,23.375 c -1.02793,0.0114 -1.60786,0.641526 -1.875,1.4375 A 0.459811,0.459811 0 0 1 34.2814,24.65625 l 0,-1.53125 c 0,-0.553561 -0.327499,-1.03738 -0.78125,-1.34375 -0.465224,-0.31412 -1.0597,-0.46875 -1.71875,-0.46875 -0.653334,0 -1.24934,0.156774 -1.75,0.46875 -0.341421,0.212749 -0.61338,0.544602 -0.75,0.96875 a 0.45741504,0.45741504 0 0 1 -0.90625,-0.125 l 0,-1.53125 c 0,-0.631594 -0.434021,-1.04285 -0.96875,-1.34375 -0.534721,-0.300892 -1.18459,-0.46875 -1.84375,-0.46875 -0.658632,0 -1.25329,0.154809 -1.71875,0.46875 -0.09372,0.06321 -0.204162,0.201777 -0.375,0.40625 A 0.453563,0.453563 0 0 1 22.6564,19.875 l 0,-12.5938 c 0,-0.323518 -0.143106,-0.591561 -0.34375,-0.8125 C 22.10671,6.241923 21.865154,6.0459 21.5939,5.9062 l -0.03125,0 C 20.901912,5.600234 20.29278,5.475809 19.7189,5.5312 Z" stroke="#000"/><path id="path24" opacity="0.49" d="m 19.8125,6.5 c -0.387809,0.037431 -0.763726,0.205906 -1.1875,0.46875 -0.151413,0.148991 -0.28125,0.336606 -0.28125,0.5 l 0.125,21.6875 c -0.01088,0.642324 -0.513887,1.2427 -1.14438,1.3659 -0.630492,0.1232 -1.3225,-0.243667 -1.57437,-0.834649 l -2.5938,-6.625 c -0.0084,-0.0086 -0.02288,0.0084 -0.03125,0 -0.442831,-0.446683 -0.854021,-0.6682 -1.25,-0.71875 -0.457302,-0.05838 -0.940833,0.01223 -1.6875,0.15625 -0.272812,0.0526 -0.500509,0.308832 -0.59375,0.5625 -0.114881,0.31254 -0.126846,0.636266 0.0625,1 0.039025,0.08013 0.07046,0.163964 0.09375,0.25 l 3.25,11.0938 0.0312,0.0625 0.0312,0.0625 6.1562,8.0625 c 3.43008,-0.0018 7.22767,0.04213 14.4688,0 l 4.7812,-9.9688 c 0.04573,-0.271874 0.07705,-0.757287 0.09375,-1.4375 l 0,-0.03125 c 0.01229,-2.33245 0.06034,-4.49256 0.0625,-6.71875 -0.0892,-0.311581 -0.343066,-0.678079 -0.625,-0.90625 -0.168648,-0.136488 -0.476644,-0.246904 -0.8125,-0.21875 -0.03124,10e-4 -0.06251,10e-4 -0.09375,0 -0.612448,0.0068 -0.832138,0.281077 -1,0.78125 -0.219356,0.616857 -0.910249,1.02696 -1.55682,0.924094 -0.646567,-0.102863 -1.17609,-0.707119 -1.19318,-1.36159 l 0,-1.53125 c 0,-0.161864 -0.124304,-0.36198 -0.375,-0.53125 -0.286517,-0.193457 -0.695079,-0.34375 -1.1875,-0.34375 -0.474581,0 -0.90281,0.127406 -1.25,0.34375 -0.145563,0.0907 -0.274704,0.254392 -0.34375,0.46875 -0.219356,0.616857 -0.910249,1.02696 -1.55682,0.924094 -0.646567,-0.102863 -1.17609,-0.707119 -1.19318,-1.36159 l 0,-1.53125 c 0,-0.168584 -0.115669,-0.314984 -0.5,-0.53125 -0.384306,-0.216252 -0.881617,-0.34375 -1.375,-0.34375 -1.5625,0.05997 -1.5625,1.43675 -2.91022,0.982398 -0.541133,-0.196161 -0.931398,-0.750561 -0.933529,-1.32615 l 0,-12.5938 c 0,-0.02542 -0.0359,-0.089393 -0.125,-0.1875 -0.113543,-0.12503 -0.236816,-0.221778 -0.40625,-0.3125 -0.542717,-0.255538 -0.974489,-0.319907 -1.375,-0.28125 z" stroke="url(#0)"/></g><metadata id="metadata9999"><rdf:RDF><cc:Work><dc:format>image/svg+xml</dc:format><dc:type rdf:resource="http://purl.org/dc/dcmitype/StillImage"/><dc:title>Ivy icon theme</dc:title><cc:license rdf:resource="http://creativecommons.org/licenses/by-sa/4.0/"/><dc:creator><cc:Agent><dc:title>Sixsixfive (sixsixfive.deviantart.com)</dc:title></cc:Agent></dc:creator><dc:publisher><cc:Agent><dc:title>Sixsixfive (sixsixfive.deviantart.com)</dc:title></cc:Agent></dc:publisher><dc:source>https://github.com/sixsixfive</dc:source><dc:subject><rdf:Bag><rdf:li>ivy</rdf:li></rdf:Bag></dc:subject><dc:contributor><cc:Agent><dc:title>ssf</dc:title></cc:Agent></dc:contributor><dc:rights><cc:Agent><dc:title>Sixsixfive (sixisixfive.deviantart.com)</dc:title></cc:Agent></dc:rights><dc:description>A simple icon theme published under CC-BY-SA_V4(http://creativecommons.org/licenses/by-sa/4.0)</dc:description><dc:identifier>SSF</dc:identifier></cc:Work></rdf:RDF></metadata><!--Part of the Ivy icon them published under the CC-BY-SA_V4: http://creativecommons.org/licenses/by-sa/4.0 -->
</svg>