<?xml version="1.0" encoding="UTF-8" standalone="no"?><svg xmlns:rdf="http://www.w3.org/1999/02/22-rdf-syntax-ns#" xmlns:cc="http://creativecommons.org/ns#" xmlns:svg="http://www.w3.org/2000/svg" id="svg2" viewBox="0 0 32 32" version="1.1" xmlns:xlink="http://www.w3.org/1999/xlink" xmlns:dc="http://purl.org/dc/elements/1.1/" xmlns="http://www.w3.org/2000/svg"><defs id="defs4"><path stroke-linecap="square" id="2" opacity="0.3" d="m 2.5312 3.5312 v 4.9375 h 4.9375 v -4.9375 h -4.9375 z" stroke="#000" fill="none"/><path id="3" opacity="0.3" d="m 3.5625 4.5625 v 2.875 h 2.875 v -2.875 h -2.875 z"/><linearGradient id="4" x2="0" y2="18.937" xlink:href="#7" y1="12.937" gradientUnits="userSpaceOnUse"/><linearGradient id="5" x2="0" y2="30.06" xlink:href="#7" y1="24.06" gradientUnits="userSpaceOnUse"/><linearGradient id="6" x2="0" y2="8" y1="4" gradientUnits="userSpaceOnUse"><stop id="stop11" stop-color="#fff"/><stop offset="1" id="stop13" stop-color="#fff" stop-opacity="0"/></linearGradient><linearGradient id="7"><stop id="stop16" stop-color="#5288d1"/><stop offset="1" id="stop18" stop-color="#b1c9eb"/></linearGradient><linearGradient id="8" x2="0" y2="8" xlink:href="#7" y1="2" gradientUnits="userSpaceOnUse"/></defs><path id="path21" opacity="0.1" d="M 2,3 H8 V9 H2 z"/><path id="path23" opacity="0.1" d="M 11,3 H30 V9 H11 z"/><g id="g25" fill="url(#8)"><path id="path27" d="M 11,2 30,2 30,8 11,8 Z"/><path id="path29" d="M 2,2 8,2 8,8 2,8 Z"/></g><g id="g31" transform="matrix(1 0 0 1 0 -1)"><use height="32" id="use33" width="32" x="0" xlink:href="#2" y="0"/><g stroke-linecap="square" id="g35" fill="none"><path id="path37" opacity="0.3" d="m 11.4688,3.4688 0,5.0625 18.0625,0 0,-5.0625 -18.0625,0 z" stroke="#000"/><g id="g39" stroke="url(#6)"><use height="32" id="use41" width="32" x="0" xlink:href="#3" y="0"/><path id="path43" opacity="0.3" d="m 12.5,4.5 0,3 16,0 0,-3 -16,0 z"/></g></g></g><path id="path45" opacity="0.1" d="M 1.938,13.937 H7.938 V19.937 H1.938 z"/><path id="path47" opacity="0.1" d="M 10.938,13.937 H29.938 V19.937 H10.938 z"/><g id="g49" fill="url(#4)"><path id="path51" d="m 10.938,12.937 19,0 0,6 -19,0 z"/><path id="path53" d="m 1.938,12.937 6,0 0,6 -6,0 z"/></g><use id="use55" transform="matrix(1 0 0 1 -0.063 9.937)" xlink:href="#2"/><path stroke-linecap="square" id="0" opacity="0.3" d="m 11.4688 3.4688 v 5.0625 h 18.0625 v -5.0625 h -18.0625 z" stroke="#000" transform="matrix(1 0 0 1 -0.063 9.937)" fill="none"/><use stroke-linecap="square" id="use58" stroke="url(#6)" transform="matrix(1 0 0 1 -0.063 9.937)" xlink:href="#3" fill="none"/><path stroke-linecap="square" id="1" opacity="0.3" d="m 12.5 4.5 v 3 h 16 v -3 h -16 z" stroke="url(#6)" transform="matrix(1 0 0 1 -0.063 9.937)" fill="none"/><path id="path61" opacity="0.1" d="M 1.938,25.06 H7.938 V31.06 H1.938 z"/><path id="path63" opacity="0.1" d="M 10.938,25.06 H29.938 V31.06 H10.938 z"/><g id="g65" fill="url(#5)"><path id="path67" d="m 10.938,24.06 19,0 0,6 -19,0 z"/><path id="path69" d="m 1.938,24.06 6,0 0,6 -6,0 z"/></g><use id="use71" transform="matrix(1 0 0 1 -0.063 21.06)" xlink:href="#2"/><use id="use73" transform="matrix(1 0 0 1 0 11.125)" xlink:href="#0"/><use stroke-linecap="square" id="use75" stroke="url(#6)" transform="matrix(1 0 0 1 -0.063 21.06)" xlink:href="#3" fill="none"/><use id="use77" transform="matrix(1 0 0 1 0 11.125)" xlink:href="#1"/><metadata id="metadata9999"><rdf:RDF><cc:Work><dc:format>image/svg+xml</dc:format><dc:type rdf:resource="http://purl.org/dc/dcmitype/StillImage"/><dc:title>Ivy icon theme</dc:title><cc:license rdf:resource="http://creativecommons.org/licenses/by-sa/4.0/"/><dc:creator><cc:Agent><dc:title>Sixsixfive (sixsixfive.deviantart.com)</dc:title></cc:Agent></dc:creator><dc:publisher><cc:Agent><dc:title>Sixsixfive (sixsixfive.deviantart.com)</dc:title></cc:Agent></dc:publisher><dc:source>https://github.com/sixsixfive</dc:source><dc:subject><rdf:Bag><rdf:li>ivy</rdf:li></rdf:Bag></dc:subject><dc:contributor><cc:Agent><dc:title>ssf</dc:title></cc:Agent></dc:contributor><dc:rights><cc:Agent><dc:title>Sixsixfive (sixisixfive.deviantart.com)</dc:title></cc:Agent></dc:rights><dc:description>A simple icon theme published under CC-BY-SA_V4(http://creativecommons.org/licenses/by-sa/4.0)</dc:description><dc:identifier>SSF</dc:identifier></cc:Work></rdf:RDF></metadata><!--Part of the Ivy icon them published under the CC-BY-SA_V4: http://creativecommons.org/licenses/by-sa/4.0 -->
</svg>