<?xml version="1.0" encoding="UTF-8" standalone="no"?>
<svg xmlns:dc="http://purl.org/dc/elements/1.1/" xmlns:cc="http://creativecommons.org/ns#" xmlns:rdf="http://www.w3.org/1999/02/22-rdf-syntax-ns#" xmlns:svg="http://www.w3.org/2000/svg" xmlns="http://www.w3.org/2000/svg" viewBox="0 0 32 32" id="svg2" version="1.1">
 <defs id="defs4">
  <linearGradient id="0" y1="6" y2="40" x2="0" gradientUnits="userSpaceOnUse" gradientTransform="matrix(0.65 0 0 0.67647 0.382 -0.074)">
   <stop stop-color="#5288d1" id="stop7"/>
   <stop offset="1" stop-color="#98b8e3" id="stop9"/>
  </linearGradient>
  <linearGradient id="1" y1="5" y2="25" x2="0" gradientUnits="userSpaceOnUse">
   <stop stop-color="#fff" id="stop12"/>
   <stop offset="1" stop-color="#fff" stop-opacity="0" id="stop14"/>
  </linearGradient>
 </defs>
 <path opacity="0.15" d="m 3 5 v 16 h 7 l 5.999999 7 L 22 21 H 29 V 5 z" id="path16"/>
 <path fill="url(#0)" d="m 3 4 v 16 h 7 l 5.999999 7 L 22 20 H 29 V 4 z" id="path18"/>
 <path opacity="0.5" d="M 17.589445 7.00023 C 16.807591 7.00023 16 7.443285 16 7.994238 16 8.545191 16.807591 9.00023 17.589445 9.00023 18.371297 9.00023 19 8.545191 19 7.994238 19 7.443285 18.371298 7.00023 17.589445 7.00023 z" id="path20"/>
 <path fill="#fff" d="M 17.589445 8 C 16.807591 8 16 8.443059 16 8.994012 16 9.544965 16.807591 10 17.589445 10 18.371297 10 19 9.544965 19 8.994012 19 8.443059 18.371298 8 17.589445 8 z" id="path22"/>
 <path opacity="0.5" d="m 16.925941,9.980602 c -0.141605,0.0183 -0.269702,0.07398 -0.444427,0.135544 -0.232048,0.08176 -0.506886,0.182355 -0.833305,0.331329 -0.652656,0.297867 -1.505471,0.73271 -2.481392,1.265076 -0.0013,7.76e-4 0.0013,0.01425 0,0.01506 -0.0013,8.43e-4 -0.01726,-8.41e-4 -0.01853,0 -0.0012,8.43e-4 -0.01734,0.01416 -0.01852,0.01506 -0.0011,9.71e-4 0.0011,0.01409 0,0.01506 -0.0011,9.71e-4 -0.01746,-9.72e-4 -0.01851,0 -9.69e-4,0.0011 9.69e-4,0.01401 0,0.01506 -9.69e-4,0.0011 -0.01761,-0.0011 -0.01851,0 -9.09e-4,0.0011 9.08e-4,0.01395 0,0.01506 -7.79e-4,0.0012 -0.01776,-0.0012 -0.01851,0 -7.78e-4,0.0012 7.79e-4,0.01389 0,0.01506 -6.48e-4,0.0013 6.49e-4,0.01386 0,0.01506 -5.45e-4,0.0013 5.44e-4,0.01381 0,0.01506 -5.45e-4,0.0013 -0.018,-0.0013 -0.01852,0 -4.54e-4,0.0013 4.33e-4,0.01379 0,0.01506 -3.67e-4,0.0013 3.45e-4,0.01378 0,0.01506 -2.58e-4,0.0013 2.36e-4,0.01376 0,0.01506 -1.47e-4,0.0013 1.23e-4,0.01374 0,0.01506 l -0.05557,0.527115 c -5.5e-5,0.0016 2.4e-5,0.01352 0,0.01506 6.9e-5,0.0016 -9.9e-5,0.01352 0,0.01506 1.94e-4,0.0016 -2.26e-4,0.01353 0,0.01506 3.16e-4,0.0016 -3.47e-4,0.01355 0,0.01506 4.38e-4,0.0015 -4.53e-4,0.01357 0,0.01506 5.45e-4,0.0015 -5.9e-4,0.01359 0,0.01506 5.9e-4,0.0015 0.01787,-0.0015 0.01852,0 6.5e-4,0.0015 -7.12e-4,0.01363 0,0.01506 8.45e-4,0.0015 -8.42e-4,0.01367 0,0.01506 9.1e-4,0.0014 0.01763,-0.0014 0.01851,0 9.7e-4,0.0014 -9.69e-4,0.01372 0,0.01506 0.0011,0.0013 -0.0011,0.01379 0,0.01506 0.0011,0.0013 0.0174,-0.0013 0.01852,0 0.0012,0.0013 -0.0012,0.01387 0,0.01506 0.0013,0.0012 0.01727,-0.0012 0.01852,0 0.0013,0.0011 -0.0013,0.01395 0,0.01506 0.0013,0.0011 0.01713,-0.0011 0.01851,0 0.0015,9.71e-4 -0.0015,0.01407 0,0.01506 0.0015,9.71e-4 0.01703,-9.71e-4 0.01852,0 0.0016,9.07e-4 -0.0016,0.01418 0,0.01506 0.0016,8.43e-4 0.01694,-8.41e-4 0.01852,0 0.0017,7.78e-4 0.01685,-7.11e-4 0.01851,0 0.0017,7.13e-4 -0.0017,0.01436 0,0.01506 0.0017,6.47e-4 0.0168,-6.48e-4 0.0185,0 0.0017,5.88e-4 0.01674,-5.44e-4 0.01852,0 0.0017,4.97e-4 -0.0017,0.0146 0,0.01506 0.0017,4.52e-4 0.01669,-4.45e-4 0.01852,0 0.0017,3.7e-4 0.01666,-3.47e-4 0.01851,0 0.0018,2.71e-4 0.01663,-2.47e-4 0.01852,0 0.0018,1.71e-4 0.01663,-1.47e-4 0.01851,0 0.0018,7e-5 0.01661,-4.6e-5 0.01852,0 0.0018,-3.1e-5 0.01661,5.5e-5 0.01852,0 0.0018,-1.32e-4 0.01662,1.55e-4 0.01851,0 0.0018,-2.33e-4 0.01664,2.55e-4 0.01852,0 0.0017,-3.31e-4 0.01667,3.55e-4 0.01851,0 0.0017,-4.3e-4 0.0167,4.52e-4 0.01852,0 0.0017,-4.54e-4 -0.0017,-0.01459 0,-0.01506 0.0017,-5.44e-4 0.01674,5.43e-4 0.01852,0 0.0017,-6.35e-4 0.01679,6.34e-4 0.01852,0 0.698461,-0.308098 1.085088,-0.479073 1.296251,-0.557236 0.09068,-0.03357 0.15095,-0.03759 0.185176,-0.04519 0.03423,-0.0076 0.04703,-0.01526 0.07407,-0.01506 0.0061,-0.0016 0.01254,-0.0016 0.0185,0 0.0018,0.0048 0.0018,0.0102 0,0.01506 0.0061,-0.0016 0.01254,-0.0016 0.01851,0 0,0 -0.0055,0.01667 0,0.03012 0.0055,0.01346 0.01852,0.02866 0.01852,0.06024 0,0.215887 -0.07088,0.648062 -0.425913,1.745293 -0.55701,1.686742 -0.821872,2.651037 -0.962928,3.141813 -0.140927,0.490329 -0.148144,0.663482 -0.148144,0.903625 0,0.262623 0.03463,0.490709 0.166661,0.67772 0.130987,0.185516 0.388496,0.331329 0.666645,0.331329 0.550245,0 1.195661,-0.272596 2.462875,-0.933746 0.444821,-0.228487 0.876785,-0.464117 1.314768,-0.70784 0.01448,-0.0066 0.02782,-0.01082 0.03704,-0.01506 0.216773,-0.100011 0.431959,-0.210785 0.648125,-0.316269 0.0015,-7.11e-4 -0.0015,-0.01432 0,-0.01506 0.0015,-7.78e-4 0.01714,7.76e-4 0.01852,0 0.0013,-8.43e-4 0.0172,8.41e-4 0.0185,0 0.0013,-8.43e-4 -0.0013,-0.0142 0,-0.01506 0.0013,-9.07e-4 0.01729,9.06e-4 0.01852,0 0.0012,-9.72e-4 -0.0012,-0.0141 0,-0.01506 0.0011,-9.71e-4 0.01741,9.71e-4 0.01852,0 0.0011,-9.71e-4 -0.0011,-0.01401 0,-0.01506 9.7e-4,-0.0011 -9.69e-4,-0.01395 0,-0.01506 9.7e-4,-0.0011 0.01756,0.0011 0.01852,0 9.09e-4,-0.0012 -8.45e-4,-0.01389 0,-0.01506 8.44e-4,-0.0013 0.01773,0.0013 0.01852,0 7.8e-4,-0.0013 -7.79e-4,-0.01384 0,-0.01506 6.49e-4,-0.0013 -6.49e-4,-0.0138 0,-0.01506 5.44e-4,-0.0013 0.01795,0.0013 0.01852,0 5.43e-4,-0.0013 -5.44e-4,-0.01377 0,-0.01506 4.54e-4,-0.0013 -4.35e-4,-0.01374 0,-0.01506 3.42e-4,-0.0014 -3.18e-4,-0.01372 0,-0.01506 2.22e-4,-0.0014 -1.98e-4,-0.0137 0,-0.01506 l 0.09259,-0.527114 c 1.75e-4,-0.0016 -1.41e-4,-0.01348 0,-0.01506 4.3e-5,-0.0016 -10e-6,-0.01347 0,-0.01506 -5.6e-5,-0.0016 9e-5,-0.01347 0,-0.01506 -1.88e-4,-0.0016 2.21e-4,-0.01348 0,-0.01506 -3.19e-4,-0.0016 3.51e-4,-0.0135 0,-0.01506 -4.49e-4,-0.0016 5e-4,-0.01351 0,-0.01506 -5.45e-4,-0.0016 5.89e-4,-0.01355 0,-0.01506 -6.48e-4,-0.0015 -0.01786,0.0015 -0.01852,0 -7.14e-4,-0.0015 7.14e-4,-0.01358 0,-0.01506 -8.44e-4,-0.0015 8.43e-4,-0.01362 0,-0.01506 -9.71e-4,-0.0015 -0.01754,0.0015 -0.01852,0 -9.7e-4,-0.0015 9.71e-4,-0.01368 0,-0.01506 -0.0011,-0.0014 0.0011,-0.01374 0,-0.01506 -0.0011,-0.0013 -0.01735,0.0013 -0.01852,0 -0.0013,-0.0013 0.0013,-0.01382 0,-0.01506 -0.0013,-0.0013 -0.01721,0.0012 -0.01852,0 -0.0013,-0.0012 0.0013,-0.01392 0,-0.01506 -0.0015,-0.0011 -0.01708,0.0011 -0.01851,0 -0.0015,-0.0011 0.0015,-0.01403 0,-0.01506 -0.0016,-9.71e-4 -0.01697,9.7e-4 -0.01852,0 -0.0016,-9.06e-4 0.0016,-0.01417 0,-0.01506 -0.0016,-9.06e-4 -0.01688,8.42e-4 -0.01852,0 -0.0017,-7.77e-4 -0.01678,7.77e-4 -0.0185,0 -0.0017,-7.77e-4 0.0017,-0.01433 0,-0.01506 -0.0017,-6.48e-4 -0.01674,6.47e-4 -0.01851,0 -0.0017,-5.89e-4 -0.01669,5.88e-4 -0.01852,0 -0.0017,-5.44e-4 0.0017,-0.01458 0,-0.01506 -0.0017,-4.97e-4 -0.01665,4.53e-4 -0.01852,0 -0.0018,-3.83e-4 -0.01661,3.58e-4 -0.01852,0 -0.0019,-2.78e-4 -0.01659,2.52e-4 -0.01852,0 -0.0019,-1.71e-4 -0.01657,1.45e-4 -0.01852,0 -0.0019,-6.3e-5 -0.01656,3.8e-5 -0.01852,0 -0.0019,4.4e-5 -0.01657,-7e-5 -0.0185,0 -0.0019,1.24e-4 -0.01657,-1.5e-4 -0.01852,0 -0.0019,2.31e-4 -0.01659,-2.58e-4 -0.01851,0 -0.0018,3.36e-4 -0.01661,-3.63e-4 -0.01852,0 -0.0018,4.41e-4 -0.01662,-4.52e-4 -0.01852,0 -0.0017,4.98e-4 0.0017,0.01454 0,0.01506 -0.0017,5.43e-4 -0.01669,-5.89e-4 -0.01852,0 -0.0017,6.33e-4 -0.01674,-6.48e-4 -0.0185,0 -1.125845,0.491554 -1.706341,0.754036 -2.018447,0.873504 -0.155302,0.05945 -0.224144,0.07778 -0.277767,0.09036 -0.05362,0.01259 -0.09306,0.01506 -0.166661,0.01506 -0.0039,0 -0.01265,-1.91e-4 -0.01852,0 -3.76e-4,-1.21e-4 -0.01817,-0.01482 -0.01852,-0.01506 -0.0054,-0.0058 -0.01576,-0.01088 -0.01852,-0.01506 -0.0028,-0.0042 0.0068,-0.0064 0,-0.01506 -0.03339,-0.04274 -0.09259,-0.137715 -0.09259,-0.271087 0,-0.154352 0.06693,-0.495786 0.203697,-0.903625 2.4e-5,-0.0015 0,-0.01368 0,-0.01506 0.604377,-2.02397 0.956177,-3.550901 1.166625,-4.269629 0.105286,-0.359599 0.180369,-0.59278 0.222215,-0.753021 0.04199,-0.160814 0.05556,-0.241327 0.05556,-0.331329 0,-0.11792 -0.0582,-0.239472 -0.16666,-0.316269 -0.109381,-0.07745 -0.249838,-0.105423 -0.388875,-0.105423 -0.04943,2e-6 -0.100942,-0.0061 -0.148145,2e-6 z" id="path24"/>
 <path fill="#fff" d="m 16.925941,10.980376 c -0.141605,0.0183 -0.269702,0.07398 -0.444427,0.135544 -0.232048,0.08176 -0.506886,0.182355 -0.833305,0.331329 -0.652656,0.297867 -1.505471,0.73271 -2.481392,1.265076 -0.0013,7.76e-4 0.0013,0.01425 0,0.01506 -0.0013,8.43e-4 -0.01726,-8.41e-4 -0.01853,0 -0.0012,8.43e-4 -0.01734,0.01416 -0.01852,0.01506 -0.0011,9.71e-4 0.0011,0.01409 0,0.01506 -0.0011,9.71e-4 -0.01746,-9.72e-4 -0.01851,0 -9.69e-4,0.0011 9.69e-4,0.01401 0,0.01506 -9.69e-4,0.0011 -0.01761,-0.0011 -0.01851,0 -9.09e-4,0.0011 9.08e-4,0.01395 0,0.01506 -7.79e-4,0.0012 -0.01776,-0.0012 -0.01851,0 -7.78e-4,0.0012 7.79e-4,0.01389 0,0.01506 -6.48e-4,0.0013 6.49e-4,0.01386 0,0.01506 -5.45e-4,0.0013 5.44e-4,0.01381 0,0.01506 -5.45e-4,0.0013 -0.018,-0.0013 -0.01852,0 -4.54e-4,0.0013 4.33e-4,0.01379 0,0.01506 -3.67e-4,0.0013 3.45e-4,0.01378 0,0.01506 -2.58e-4,0.0013 2.36e-4,0.01376 0,0.01506 -1.47e-4,0.0013 1.23e-4,0.01374 0,0.01506 l -0.05557,0.527115 c -5.5e-5,0.0016 2.4e-5,0.01352 0,0.01506 6.9e-5,0.0016 -9.9e-5,0.01352 0,0.01506 1.94e-4,0.0016 -2.26e-4,0.01353 0,0.01506 3.16e-4,0.0016 -3.47e-4,0.01355 0,0.01506 4.38e-4,0.0015 -4.53e-4,0.01357 0,0.01506 5.45e-4,0.0015 -5.9e-4,0.01359 0,0.01506 5.9e-4,0.0015 0.01787,-0.0015 0.01852,0 6.5e-4,0.0015 -7.12e-4,0.01363 0,0.01506 8.45e-4,0.0015 -8.42e-4,0.01367 0,0.01506 9.1e-4,0.0014 0.01763,-0.0014 0.01851,0 9.7e-4,0.0014 -9.69e-4,0.01372 0,0.01506 0.0011,0.0013 -0.0011,0.01379 0,0.01506 0.0011,0.0013 0.0174,-0.0013 0.01852,0 0.0012,0.0013 -0.0012,0.01387 0,0.01506 0.0013,0.0012 0.01727,-0.0012 0.01852,0 0.0013,0.0011 -0.0013,0.01395 0,0.01506 0.0013,0.0011 0.01713,-0.0011 0.01851,0 0.0015,9.71e-4 -0.0015,0.01407 0,0.01506 0.0015,9.71e-4 0.01703,-9.71e-4 0.01852,0 0.0016,9.07e-4 -0.0016,0.01418 0,0.01506 0.0016,8.43e-4 0.01694,-8.41e-4 0.01852,0 0.0017,7.78e-4 0.01685,-7.11e-4 0.01851,0 0.0017,7.13e-4 -0.0017,0.01436 0,0.01506 0.0017,6.47e-4 0.0168,-6.48e-4 0.0185,0 0.0017,5.88e-4 0.01674,-5.44e-4 0.01852,0 0.0017,4.97e-4 -0.0017,0.0146 0,0.01506 0.0017,4.52e-4 0.01669,-4.45e-4 0.01852,0 0.0017,3.7e-4 0.01666,-3.47e-4 0.01851,0 0.0018,2.71e-4 0.01663,-2.47e-4 0.01852,0 0.0018,1.71e-4 0.01663,-1.47e-4 0.01851,0 0.0018,7e-5 0.01661,-4.6e-5 0.01852,0 0.0018,-3.1e-5 0.01661,5.5e-5 0.01852,0 0.0018,-1.32e-4 0.01662,1.55e-4 0.01851,0 0.0018,-2.33e-4 0.01664,2.55e-4 0.01852,0 0.0017,-3.31e-4 0.01667,3.55e-4 0.01851,0 0.0017,-4.3e-4 0.0167,4.52e-4 0.01852,0 0.0017,-4.54e-4 -0.0017,-0.01459 0,-0.01506 0.0017,-5.44e-4 0.01674,5.43e-4 0.01852,0 0.0017,-6.35e-4 0.01679,6.34e-4 0.01852,0 0.698461,-0.308098 1.085088,-0.479073 1.296251,-0.557236 0.09068,-0.03357 0.15095,-0.03759 0.185176,-0.04519 0.03423,-0.0076 0.04703,-0.01526 0.07407,-0.01506 0.0061,-0.0016 0.01254,-0.0016 0.0185,0 0.0018,0.0048 0.0018,0.0102 0,0.01506 0.0061,-0.0016 0.01254,-0.0016 0.01851,0 0,0 -0.0055,0.01667 0,0.03012 0.0055,0.01346 0.01852,0.02866 0.01852,0.06024 0,0.215887 -0.07088,0.648062 -0.425913,1.745293 -0.55701,1.686742 -0.821872,2.651037 -0.962928,3.141813 -0.140927,0.490329 -0.148144,0.663482 -0.148144,0.903625 0,0.262623 0.03463,0.490709 0.166661,0.67772 0.130987,0.185516 0.388496,0.331329 0.666645,0.331329 0.550245,0 1.195661,-0.272596 2.462875,-0.933746 0.444821,-0.228487 0.876785,-0.464117 1.314768,-0.70784 0.01448,-0.0066 0.02782,-0.01082 0.03704,-0.01506 0.216773,-0.100011 0.431959,-0.210785 0.648125,-0.316269 0.0015,-7.11e-4 -0.0015,-0.01432 0,-0.01506 0.0015,-7.78e-4 0.01714,7.76e-4 0.01852,0 0.0013,-8.43e-4 0.0172,8.41e-4 0.0185,0 0.0013,-8.43e-4 -0.0013,-0.0142 0,-0.01506 0.0013,-9.07e-4 0.01729,9.06e-4 0.01852,0 0.0012,-9.72e-4 -0.0012,-0.0141 0,-0.01506 0.0011,-9.71e-4 0.01741,9.71e-4 0.01852,0 0.0011,-9.71e-4 -0.0011,-0.01401 0,-0.01506 9.7e-4,-0.0011 -9.69e-4,-0.01395 0,-0.01506 9.7e-4,-0.0011 0.01756,0.0011 0.01852,0 9.09e-4,-0.0012 -8.45e-4,-0.01389 0,-0.01506 8.44e-4,-0.0013 0.01773,0.0013 0.01852,0 7.8e-4,-0.0013 -7.79e-4,-0.01384 0,-0.01506 6.49e-4,-0.0013 -6.49e-4,-0.0138 0,-0.01506 5.44e-4,-0.0013 0.01795,0.0013 0.01852,0 5.43e-4,-0.0013 -5.44e-4,-0.01377 0,-0.01506 4.54e-4,-0.0013 -4.35e-4,-0.01374 0,-0.01506 3.42e-4,-0.0014 -3.18e-4,-0.01372 0,-0.01506 2.22e-4,-0.0014 -1.98e-4,-0.0137 0,-0.01506 l 0.09259,-0.527114 c 1.75e-4,-0.0016 -1.41e-4,-0.01348 0,-0.01506 4.3e-5,-0.0016 -10e-6,-0.01347 0,-0.01506 -5.6e-5,-0.0016 9e-5,-0.01347 0,-0.01506 -1.88e-4,-0.0016 2.21e-4,-0.01348 0,-0.01506 -3.19e-4,-0.0016 3.51e-4,-0.0135 0,-0.01506 -4.49e-4,-0.0016 5e-4,-0.01351 0,-0.01506 -5.45e-4,-0.0016 5.89e-4,-0.01355 0,-0.01506 -6.48e-4,-0.0015 -0.01786,0.0015 -0.01852,0 -7.14e-4,-0.0015 7.14e-4,-0.01358 0,-0.01506 -8.44e-4,-0.0015 8.43e-4,-0.01362 0,-0.01506 -9.71e-4,-0.0015 -0.01754,0.0015 -0.01852,0 -9.7e-4,-0.0015 9.71e-4,-0.01368 0,-0.01506 -0.0011,-0.0014 0.0011,-0.01374 0,-0.01506 -0.0011,-0.0013 -0.01735,0.0013 -0.01852,0 -0.0013,-0.0013 0.0013,-0.01382 0,-0.01506 -0.0013,-0.0013 -0.01721,0.0012 -0.01852,0 -0.0013,-0.0012 0.0013,-0.01392 0,-0.01506 -0.0015,-0.0011 -0.01708,0.0011 -0.01851,0 -0.0015,-0.0011 0.0015,-0.01403 0,-0.01506 -0.0016,-9.71e-4 -0.01697,9.7e-4 -0.01852,0 -0.0016,-9.06e-4 0.0016,-0.01417 0,-0.01506 -0.0016,-9.06e-4 -0.01688,8.42e-4 -0.01852,0 -0.0017,-7.77e-4 -0.01678,7.77e-4 -0.0185,0 -0.0017,-7.77e-4 0.0017,-0.01433 0,-0.01506 -0.0017,-6.48e-4 -0.01674,6.47e-4 -0.01851,0 -0.0017,-5.89e-4 -0.01669,5.88e-4 -0.01852,0 -0.0017,-5.44e-4 0.0017,-0.01458 0,-0.01506 -0.0017,-4.97e-4 -0.01665,4.53e-4 -0.01852,0 -0.0018,-3.83e-4 -0.01661,3.58e-4 -0.01852,0 -0.0019,-2.78e-4 -0.01659,2.52e-4 -0.01852,0 -0.0019,-1.71e-4 -0.01657,1.45e-4 -0.01852,0 -0.0019,-6.3e-5 -0.01656,3.8e-5 -0.01852,0 -0.0019,4.4e-5 -0.01657,-7e-5 -0.0185,0 -0.0019,1.24e-4 -0.01657,-1.5e-4 -0.01852,0 -0.0019,2.31e-4 -0.01659,-2.58e-4 -0.01851,0 -0.0018,3.36e-4 -0.01661,-3.63e-4 -0.01852,0 -0.0018,4.41e-4 -0.01662,-4.52e-4 -0.01852,0 -0.0017,4.98e-4 0.0017,0.01454 0,0.01506 -0.0017,5.43e-4 -0.01669,-5.89e-4 -0.01852,0 -0.0017,6.33e-4 -0.01674,-6.48e-4 -0.0185,0 -1.125845,0.491554 -1.706341,0.754036 -2.018447,0.873504 -0.155302,0.05945 -0.224144,0.07778 -0.277767,0.09036 -0.05362,0.01259 -0.09306,0.01506 -0.166661,0.01506 -0.0039,0 -0.01265,-1.91e-4 -0.01852,0 -3.76e-4,-1.21e-4 -0.01817,-0.01482 -0.01852,-0.01506 -0.0054,-0.0058 -0.01576,-0.01088 -0.01852,-0.01506 -0.0028,-0.0042 0.0068,-0.0064 0,-0.01506 -0.03339,-0.04274 -0.09259,-0.137715 -0.09259,-0.271087 0,-0.154352 0.06693,-0.495786 0.203697,-0.903625 2.4e-5,-0.0015 0,-0.01368 0,-0.01506 0.604377,-2.02397 0.956177,-3.550901 1.166625,-4.269629 0.105286,-0.359599 0.180369,-0.59278 0.222215,-0.753021 0.04199,-0.160814 0.05556,-0.241327 0.05556,-0.331329 0,-0.11792 -0.0582,-0.239472 -0.16666,-0.316269 -0.109381,-0.07745 -0.249838,-0.105423 -0.388875,-0.105423 -0.04943,2e-6 -0.100942,-0.0061 -0.148145,2e-6 z" id="path26"/>
 <g id="g28" fill="none">
  <path d="m 3.5,4.5 0,15 6.5,0 a 0.495099,0.495099 0 0 1 0.375,0.1875 L 16,26.25 21.625,19.6875 A 0.495099,0.495099 0 0 1 22,19.5 l 6.5,0 0,-15 -25,0 z" id="path30" opacity="0.4" stroke="#000"/>
  <path d="m 4.5625,5.5625 0,12.875 5.4375,0 a 1.572765,1.572765 0 0 1 1.1875,0.53125 l 4.8125,5.625 4.8125,-5.625 A 1.572765,1.572765 0 0 1 22,18.4375 l 5.4375,0 0,-12.875 -22.875,0 z" id="path32" opacity="0.4" stroke="url(#1)"/>
 </g>
 <metadata id="metadata9999">
  <rdf:RDF>
   <cc:Work>
    <dc:format>image/svg+xml</dc:format>
    <dc:type rdf:resource="http://purl.org/dc/dcmitype/StillImage"/>
    <dc:title>Ivy icon theme</dc:title>
    <cc:license rdf:resource="http://creativecommons.org/licenses/by-sa/4.0/"/>
    <dc:creator>
     <cc:Agent>
      <dc:title>Sixsixfive (sixsixfive.deviantart.com)</dc:title>
     </cc:Agent>
    </dc:creator>
    <dc:publisher>
     <cc:Agent>
      <dc:title>Sixsixfive (sixsixfive.deviantart.com)</dc:title>
     </cc:Agent>
    </dc:publisher>
    <dc:source>https://github.com/sixsixfive</dc:source>
    <dc:subject>
     <rdf:Bag>
      <rdf:li>ivy</rdf:li>
     </rdf:Bag>
    </dc:subject>
    <dc:contributor>
     <cc:Agent>
      <dc:title>ssf</dc:title>
     </cc:Agent>
    </dc:contributor>
    <dc:rights>
     <cc:Agent>
      <dc:title>Sixsixfive (sixisixfive.deviantart.com)</dc:title>
     </cc:Agent>
    </dc:rights>
    <dc:description>A simple icon theme published under CC-BY-SA_V4(http://creativecommons.org/licenses/by-sa/4.0)</dc:description>
    <dc:identifier>SSF</dc:identifier>
   </cc:Work>
  </rdf:RDF>
 </metadata>
 <!--Part of the Ivy icon them published under the CC-BY-SA_V4: http://creativecommons.org/licenses/by-sa/4.0 -->
</svg>
