<?xml version="1.0" encoding="UTF-8" standalone="no"?><svg xmlns:cc="http://creativecommons.org/ns#" xmlns:dc="http://purl.org/dc/elements/1.1/" xmlns:svg="http://www.w3.org/2000/svg" xmlns="http://www.w3.org/2000/svg" xmlns:rdf="http://www.w3.org/1999/02/22-rdf-syntax-ns#" id="svg2" version="1.1" xmlns:xlink="http://www.w3.org/1999/xlink" viewBox="0 0 48 48"><defs id="defs4"><linearGradient gradientUnits="userSpaceOnUse" y1="19" id="2" y2="43" x2="0"><stop id="stop17" stop-color="#d4d4d4"/><stop id="stop19" stop-color="#f5f5f5" offset="1"/></linearGradient><linearGradient gradientUnits="userSpaceOnUse" y1="5" id="4" x1="45" y2="29.03" x2="45.03"><stop id="stop27" stop-color="#d02604"/><stop id="stop29" stop-color="#fb7257" offset="1"/></linearGradient><linearGradient id="5"><stop id="stop32" stop-color="#fff"/><stop stop-opacity="0" id="stop34" stop-color="#fff" offset="1"/></linearGradient><linearGradient gradientUnits="userSpaceOnUse" xlink:href="#5" y1="5.969" id="6" y2="28.03" x2="0"/><linearGradient gradientUnits="userSpaceOnUse" xlink:href="#5" y1="20" id="7" y2="42" x2="0"/><linearGradient gradientTransform="matrix(0.79259613 0 0 0.79259613 47.978088 17.892411)" gradientUnits="userSpaceOnUse" xlink:href="#5" y1="10.05" id="linearGradient4165-7" x1="45.561" y2="37.841" x2="45.49"/></defs><path opacity="0.1" d="m 9,6 0,14 -7,0 0,24 36,0 0,-14 7,0 L 45,6 9,6 Z" id="path45" fill-rule="evenodd"/><path d="M 9,5 45,5 45,29 9,29 Z" id="path47" fill-rule="evenodd" fill="url(#4)"/><path stroke="#000" opacity="0.4" d="m 9.46875,5.46875 0,23.0625 35.0625,0 0,-23.0625 -35.0625,0 z" id="path55" fill="none"/><path stroke="url(#6)" opacity="0.1" d="m 10.46875,6.46875 0,21.0625 33.0625,0 0,-21.0625 -33.0625,0 z" id="path57" fill="none"/><path opacity="0.2" d="m 26.990234,9.8457031 a 1.0399145,1.0399145 0 0 0 -0.964843,0.6621089 l -1.736329,4.453126 -4.289062,0 a 1.0399145,1.0399145 0 0 0 -0.535156,1.93164 l 4.21289,2.527344 -1.574218,3.560547 a 1.0399145,1.0399145 0 0 0 1.298828,1.40039 l 3.599609,-1.279297 3.621094,1.267579 a 1.0399145,1.0399145 0 0 0 1.292969,-1.40625 l -1.589844,-3.546875 4.208984,-2.523438 A 1.0399145,1.0399145 0 0 0 34,14.960938 l -4.291016,0 -1.746093,-4.455079 A 1.0399145,1.0399145 0 0 0 26.990234,9.8457031 Z" id="path4481" stroke-linejoin="round" stroke-linecap="round"/><path d="M 23.055381,23.400196 25,19 20,16 25,16 26.993246,10.883961 29,16 l 5,0 -5,3 1.966475,4.388406 L 27,22 Z" id="path3365" stroke-linejoin="round" fill="#ffd506" stroke-linecap="round"/><path d="m 2,19 36,0 0,24 -36,0 z" id="path61" fill-rule="evenodd" fill="url(#2)"/><g id="g67" fill="none"><path stroke="#000" opacity="0.4" d="m 2.46875,19.46875 0,23.0625 35.0625,0 0,-23.0625 -35.0625,0 z" id="path69"/><path stroke="url(#7)" opacity="0.4" d="m 3.40625,20.40625 0,21.1875 33.1875,0 0,-21.1875 -33.1875,0 z" id="path71"/></g><g id="g73" fill-rule="evenodd"><path opacity="0.564" d="m 9,19 29,0 0,1 -29,0 z" id="path75"/><path transform="matrix(0 1 -1 0 0 0)" opacity="0.564" d="m 19.5,-38 9.5,0 0,1 -9.5,0 z" id="path77"/></g><rect width="35.666824" height="23.777884" opacity="0.1" id="rect4167" y="25.818373" x="49.16698"/><rect width="35.666824" height="23.777884" id="9" y="25.02578" x="49.16698" fill="#ebebeb"/><path stroke="#000" stroke-width="0.792596" opacity="0.4" d="m 49.588049,25.446843 0,22.93575 34.824692,0 0,-22.93575 -34.824692,0 z" id="C" fill="none"/><path stroke="url(#linearGradient4165-7)" stroke-width="0.792596" opacity="0.4" d="m 50.365165,26.223959 0,21.381518 33.27046,0 0,-21.381518 -33.27046,0 z" id="path4157" fill="none"/><path opacity="0.4" d="m 20,23.001953 c -2.093697,0 -4.173829,0.863283 -5.654297,2.34375 -1.480467,1.480468 -2.34375,3.5606 -2.34375,5.654297 0,2.093697 0.863283,4.173829 2.34375,5.654297 1.480468,1.480467 3.5606,2.34375 5.654297,2.34375 2.093697,0 4.173829,-0.863283 5.654297,-2.34375 1.480467,-1.480468 2.34375,-3.5606 2.34375,-5.654297 0,-2.093697 -0.863283,-4.173829 -2.34375,-5.654297 C 24.173829,23.865236 22.093697,23.001953 20,23.001953 Z" id="path4487" stroke-linejoin="round" fill="#fff" stroke-linecap="round"/><circle cy="31" cx="20" r="7" id="path4483" stroke-linejoin="round" fill="#d02604" stroke-linecap="round"/><path stroke="#000" opacity="0.4" d="m 20,24.472656 c -1.708758,0 -3.40696,0.703835 -4.615234,1.91211 -1.208275,1.208274 -1.91211,2.906476 -1.91211,4.615234 0,1.708758 0.703835,3.40696 1.91211,4.615234 1.208274,1.208275 2.906476,1.91211 4.615234,1.91211 1.708758,0 3.40696,-0.703835 4.615234,-1.91211 1.208275,-1.208274 1.91211,-2.906476 1.91211,-4.615234 0,-1.708758 -0.703835,-3.40696 -1.91211,-4.615234 C 23.40696,25.176491 21.708758,24.472656 20,24.472656 Z" id="path4491" stroke-linejoin="round" fill="none" stroke-linecap="round"/><metadata id="metadata9999"><rdf:RDF><cc:Work><dc:format>image/svg+xml</dc:format><dc:type rdf:resource="http://purl.org/dc/dcmitype/StillImage"/><dc:title>Ivy icon theme</dc:title><cc:license rdf:resource="http://creativecommons.org/licenses/by-sa/4.0/"/><dc:creator><cc:Agent><dc:title>Sixsixfive (sixsixfive.deviantart.com)</dc:title></cc:Agent></dc:creator><dc:publisher><cc:Agent><dc:title>Sixsixfive (sixsixfive.deviantart.com)</dc:title></cc:Agent></dc:publisher><dc:source>https://github.com/sixsixfive</dc:source><dc:subject><rdf:Bag><rdf:li>ivy</rdf:li></rdf:Bag></dc:subject><dc:contributor><cc:Agent><dc:title>ssf</dc:title></cc:Agent></dc:contributor><dc:rights><cc:Agent><dc:title>Sixsixfive (sixisixfive.deviantart.com)</dc:title></cc:Agent></dc:rights><dc:description>A simple icon theme published under CC-BY-SA_V4(http://creativecommons.org/licenses/by-sa/4.0)</dc:description><dc:identifier>SSF</dc:identifier></cc:Work></rdf:RDF></metadata><!--Part of the Ivy icon them published under the CC-BY-SA_V4: http://creativecommons.org/licenses/by-sa/4.0 -->
</svg>