<?xml version="1.0" encoding="UTF-8" standalone="no"?>
<svg xmlns:dc="http://purl.org/dc/elements/1.1/" xmlns:cc="http://creativecommons.org/ns#" xmlns:rdf="http://www.w3.org/1999/02/22-rdf-syntax-ns#" xmlns:svg="http://www.w3.org/2000/svg" xmlns="http://www.w3.org/2000/svg" viewBox="0 0 48 48" id="svg2" version="1.1">
 <defs id="defs4"/>
 <path opacity="0.1" id="0" d="m 4,5.22 h 40 v 38 H 4 z"/>
 <path fill="#d02604" id="1" d="m 4,4.22 h 40 v 38 H 4 z"/>
 <path opacity="0.4" fill="none" stroke="#000" id="2" d="m 4.468728,4.688542 v 37.0625 h 39.0625 v -37.0625 h -39.0625 z"/>
 <rect width="38" x="5" opacity="0.3" y="35" height="1" fill-rule="evenodd" id="3"/>
 <rect width="38" x="5" opacity="0.3" y="29" height="1" fill-rule="evenodd" id="4"/>
 <rect width="38" x="5" opacity="0.3" y="23" height="1" fill-rule="evenodd" id="5"/>
 <rect width="38" x="5" opacity="0.3" y="17" height="1" fill-rule="evenodd" id="6"/>
 <rect width="38" x="5" opacity="0.3" y="11" height="1" fill-rule="evenodd" id="7"/>
 <rect width="38" x="5" opacity="0.1" y="36" fill="#fff" height="1" fill-rule="evenodd" id="8"/>
 <rect width="38" x="5" opacity="0.1" y="30" fill="#fff" height="1" fill-rule="evenodd" id="9"/>
 <rect width="38" x="5" opacity="0.1" y="24" fill="#fff" height="1" fill-rule="evenodd" id="A"/>
 <rect width="38" x="5" opacity="0.1" y="18" fill="#fff" height="1" fill-rule="evenodd" id="B"/>
 <rect width="38" x="5" opacity="0.1" y="12" fill="#fff" height="1" fill-rule="evenodd" id="C"/>
 <rect width="1" x="15" opacity="0.3" y="5" height="6" fill-rule="evenodd" id="D"/>
 <rect width="1" x="15" opacity="0.3" y="18" height="5" fill-rule="evenodd" id="E"/>
 <rect width="38" x="5" opacity="0.1" y="5" fill="#fff" height="1" fill-rule="evenodd" id="F"/>
 <rect width="1" x="15" opacity="0.3" y="30" height="5" fill-rule="evenodd" id="G"/>
 <rect width="1" x="32" opacity="0.3" y="5" height="6" fill-rule="evenodd" id="H"/>
 <rect width="1" x="32" opacity="0.3" y="18" height="5" fill-rule="evenodd" id="I"/>
 <rect width="1" x="32" opacity="0.3" y="30" height="5" fill-rule="evenodd" id="J"/>
 <rect width="1" x="24" opacity="0.3" y="12" height="5" fill-rule="evenodd" id="K"/>
 <rect width="1" x="24" opacity="0.3" y="24" height="5" fill-rule="evenodd" id="L"/>
 <rect width="1" x="24" opacity="0.3" y="36" height="5" fill-rule="evenodd" id="M"/>
 <metadata id="metadata9999">
  <rdf:RDF>
   <cc:Work>
    <dc:format>image/svg+xml</dc:format>
    <dc:type rdf:resource="http://purl.org/dc/dcmitype/StillImage"/>
    <dc:title>Ivy icon theme</dc:title>
    <cc:license rdf:resource="http://creativecommons.org/licenses/by-sa/4.0/"/>
    <dc:creator>
     <cc:Agent>
      <dc:title>Sixsixfive (sixsixfive.deviantart.com)</dc:title>
     </cc:Agent>
    </dc:creator>
    <dc:publisher>
     <cc:Agent>
      <dc:title>Sixsixfive (sixsixfive.deviantart.com)</dc:title>
     </cc:Agent>
    </dc:publisher>
    <dc:source>https://github.com/sixsixfive</dc:source>
    <dc:subject>
     <rdf:Bag>
      <rdf:li>ivy</rdf:li>
     </rdf:Bag>
    </dc:subject>
    <dc:contributor>
     <cc:Agent>
      <dc:title>ssf</dc:title>
     </cc:Agent>
    </dc:contributor>
    <dc:rights>
     <cc:Agent>
      <dc:title>Sixsixfive (sixisixfive.deviantart.com)</dc:title>
     </cc:Agent>
    </dc:rights>
    <dc:description>A simple icon theme published under CC-BY-SA_V4(http://creativecommons.org/licenses/by-sa/4.0)</dc:description>
    <dc:identifier>SSF</dc:identifier>
   </cc:Work>
  </rdf:RDF>
 </metadata>
 <!--Part of the Ivy icon them published under the CC-BY-SA_V4: http://creativecommons.org/licenses/by-sa/4.0 -->
</svg>
