<?xml version="1.0" encoding="UTF-8" standalone="no"?>
<svg
   xmlns:dc="http://purl.org/dc/elements/1.1/"
   xmlns:cc="http://creativecommons.org/ns#"
   xmlns:rdf="http://www.w3.org/1999/02/22-rdf-syntax-ns#"
   xmlns:svg="http://www.w3.org/2000/svg"
   xmlns="http://www.w3.org/2000/svg"
   xmlns:xlink="http://www.w3.org/1999/xlink"
   version="1.1"
   id="svg2"
   viewBox="0 0 48 48">
  <defs
     id="defs4">
    <linearGradient
       id="linearGradient4382">
      <stop
         id="stop4384"
         offset="0"
         style="stop-color:#171717;stop-opacity:1;" />
      <stop
         id="stop4386"
         offset="1"
         style="stop-color:#333333;stop-opacity:1" />
    </linearGradient>
    <linearGradient
       gradientUnits="userSpaceOnUse"
       x2="0"
       y2="44.02"
       y1="4.02"
       id="0">
      <stop
         id="stop7"
         stop-color="#fff" />
      <stop
         id="stop9"
         stop-opacity="0"
         stop-color="#fff"
         offset="1" />
    </linearGradient>
    <linearGradient
       gradientUnits="userSpaceOnUse"
       x2="0"
       y2="45"
       y1="3"
       id="1">
      <stop
         style="stop-color:#d1d1d1;stop-opacity:1"
         id="stop12"
         stop-color="#ffb636" />
      <stop
         style="stop-color:#ebebeb;stop-opacity:1"
         id="stop14"
         stop-color="#ffe775"
         offset="1" />
    </linearGradient>
    <linearGradient
       gradientUnits="userSpaceOnUse"
       y2="39"
       x2="41"
       y1="2"
       x1="41"
       id="linearGradient4388"
       xlink:href="#linearGradient4382" />
  </defs>
  <rect
     id="rect21"
     ry="4"
     height="42"
     rx="4"
     y="4"
     opacity="0.1"
     x="3"
     width="42" />
  <rect
     id="rect23"
     ry="4"
     height="42"
     rx="4"
     fill="url(#1)"
     y="3"
     x="3"
     width="42" />
  <path
     id="6"
     d="M 27.857422 3 L 15 15 L 25 15 L 13 27 L 21 27 L 8 39 L 34 25 L 28 25 L 41 12 L 37 12 L 44.283203 4.7167969 C 43.561996 3.6791006 42.364917 3 41 3 L 27.857422 3 z "
     style="display:block;fill:url(#linearGradient4388);fill-opacity:1;fill-rule:evenodd" />
  <g
     fill="none"
     id="g25">
    <path
       style="opacity:0.6"
       stroke="#000"
       opacity="0.4"
       id="path27"
       d="m 7,3.5128 c -1.94587,0 -3.5,1.5541 -3.5,3.5 l 0,34 c 0,1.9459 1.55413,3.5 3.5,3.5 l 34,0 c 1.94587,0 3.5,-1.5541 3.5,-3.5 l 0,-34 c 0,-1.9459 -1.55413,-3.5 -3.5,-3.5 l -34,0 z" />
    <path
       style="opacity:0.6"
       stroke="url(#0)"
       opacity="0.4"
       id="path29"
       d="m 7,4.5128 c -1.40738,0 -2.5,1.0926 -2.5,2.5 l 0,34 c 0,1.4074 1.09262,2.5 2.5,2.5 l 34,0 c 1.40738,0 2.5,-1.0926 2.5,-2.5 l 0,-34 c 0,-1.4074 -1.09262,-2.5 -2.5,-2.5 l -34,0 z" />
  </g>
  <path
     id="path4393"
     d="m 26.23653,4.5128 c 14.82644,0.053773 10.53235,0 14.82644,0.053773 1.293206,0.016194 1.956038,0.7610507 2.136135,1.2343228"
     style="opacity:0.62;fill:none;fill-rule:evenodd;stroke:#000000;stroke-width:1px;stroke-linecap:butt;stroke-linejoin:miter;stroke-opacity:1" />
  <metadata
     id="metadata9999">
    <rdf:RDF>
      <cc:Work>
        <dc:format>image/svg+xml</dc:format>
        <dc:type
           rdf:resource="http://purl.org/dc/dcmitype/StillImage" />
        <dc:title></dc:title>
        <cc:license
           rdf:resource="http://creativecommons.org/licenses/by-sa/4.0/" />
        <dc:creator>
          <cc:Agent>
            <dc:title>Sixsixfive (sixsixfive.deviantart.com)</dc:title>
          </cc:Agent>
        </dc:creator>
        <dc:publisher>
          <cc:Agent>
            <dc:title>Sixsixfive (sixsixfive.deviantart.com)</dc:title>
          </cc:Agent>
        </dc:publisher>
        <dc:source>https://github.com/sixsixfive</dc:source>
        <dc:subject>
          <rdf:Bag>
            <rdf:li>ivy</rdf:li>
          </rdf:Bag>
        </dc:subject>
        <dc:contributor>
          <cc:Agent>
            <dc:title>ssf</dc:title>
          </cc:Agent>
        </dc:contributor>
        <dc:rights>
          <cc:Agent>
            <dc:title>Sixsixfive (sixisixfive.deviantart.com)</dc:title>
          </cc:Agent>
        </dc:rights>
        <dc:description>A simple icon theme published under CC-BY-SA_V4(http://creativecommons.org/licenses/by-sa/4.0)</dc:description>
        <dc:identifier>SSF</dc:identifier>
      </cc:Work>
    </rdf:RDF>
  </metadata>
  <!--Part of the Ivy icon them published under the CC-BY-SA_V4: http://creativecommons.org/licenses/by-sa/4.0 -->
</svg>
