<?xml version="1.0" encoding="UTF-8" standalone="no"?>
<svg xmlns:dc="http://purl.org/dc/elements/1.1/" xmlns:cc="http://creativecommons.org/ns#" xmlns:rdf="http://www.w3.org/1999/02/22-rdf-syntax-ns#" xmlns:svg="http://www.w3.org/2000/svg" xmlns="http://www.w3.org/2000/svg" xmlns:xlink="http://www.w3.org/1999/xlink" viewBox="0 0 32 32" id="svg2" version="1.1">
 <defs id="defs4">
  <path id="0" d="m 16.9937,21.5099 -1.0239,-0.9511 -1.3752,-0.2484 0.9511,-1.0239 0.2484,-1.3752 1.0239,0.9511 1.3752,0.2484 -0.9511,1.0239 -0.2484,1.3752 z"/>
  <filter color-interpolation-filters="sRGB" id="1">
   <feGaussianBlur stdDeviation="0.40021" id="feGaussianBlur8"/>
  </filter>
  <linearGradient id="2" y1="42.29" y2="12.295" x2="0" gradientUnits="userSpaceOnUse" gradientTransform="matrix(0.65 0 0 0.66667 -39.43 -3.196)">
   <stop stop-color="#d3d7cf" id="stop11"/>
   <stop offset="1" stop-color="#eeeeec" id="stop13"/>
  </linearGradient>
  <linearGradient id="3" y1="6.03" y2="23.969" x2="0" gradientUnits="userSpaceOnUse">
   <stop stop-color="#fff" id="stop16"/>
   <stop offset="1" stop-color="#fff" stop-opacity="0" id="stop18"/>
  </linearGradient>
  <linearGradient id="4" y1="47.875" y2="36.34" x2="0" gradientUnits="userSpaceOnUse" gradientTransform="matrix(0.61708 0 0 0.66094 -36.618 -2.637)">
   <stop stop-color="#eeeeec" id="stop21"/>
   <stop offset="1" stop-color="#555753" id="stop23"/>
  </linearGradient>
 </defs>
 <path opacity="0.2" fill="#6a6a6a" d="M 4.34375 6 C 3.605083 6 3 6.605083 3 7.34375 v 17.3125 C 3 25.394917 3.605083 26 4.34375 26 H 12 v 1.53125 h -1.84375 C 9.515258 27.53125 9 28.06345 9 28.75 9 29.436554 9.515258 30 10.15625 30 h 11.6875 C 22.48474 30 23 29.436554 23 28.75 23 28.06345 22.48474 27.53125 21.84375 27.53125 H 20 V 26 H 27.65625 C 28.394917 26 29 25.394917 29 24.65625 V 7.34375 C 29 6.605083 28.394917 6 27.65625 6 H 4.34375 z" id="path25"/>
 <path fill="url(#4)" d="m 11.989 21.3785 v 5.143 h -1.832 c -0.640992 0 -1.15703 0.552714 -1.15703 1.23927 0 0.686554 0.516033 1.23927 1.15703 1.23927 h 11.686 c 0.64099 0 1.15702 -0.552714 1.15702 -1.23927 0 -0.686555 -0.516035 -1.23927 -1.15703 -1.23927 h -1.83196 v -5.14296 h -8.02204 z" id="path27"/>
 <g id="g29" fill="none">
  <path d="m 12.4688,21.8438 0,4.6875 a 0.467194,0.467194 0 0 1 -0.46875,0.46875 l -1.84375,0 c -0.382421,0 -0.6875,0.297174 -0.6875,0.75 0,0.452825 0.320263,0.78125 0.6875,0.78125 l 11.6875,0 c 0.367234,0 0.6875,-0.328426 0.6875,-0.78125 0,-0.452825 -0.305082,-0.75 -0.6875,-0.75 l -1.84375,0 A 0.467194,0.467194 0 0 1 19.5313,26.5313 l 0,-4.6875 -7.0625,0 z" id="path31" opacity="0.4" stroke="#000"/>
  <path d="m 13.5312,22.9062 0,3.625 a 1.05119,1.05119 0 0 1 -0.59375,0.9375 l 6.125,0 a 1.05119,1.05119 0 0 1 0,-0.03125 1.05119,1.05119 0 0 1 -0.59375,-0.90625 l 0,-3.625 -4.9375,0 z" id="path33" opacity="0.4" stroke="#fff"/>
 </g>
 <rect width="26" x="3" y="5" fill="url(#2)" rx="1.333" height="20" ry="1.333" id="rect35"/>
 <path opacity="0.4" fill="none" stroke="#000" d="m 4.3438 5.5938 c -0.419778 0 -0.75 0.330222 -0.75 0.75 v 17.3125 c 0 0.419778 0.330222 0.75 0.75 0.75 h 23.3125 c 0.419779 0 0.75 -0.330221 0.75 -0.75 V 6.3438 c 0 -0.419778 -0.330222 -0.75 -0.75 -0.75 H 4.3438 z" id="path37"/>
 <path fill="#171717" d="M 6,8 H26 V20 H6 z" id="path39"/>
 <path opacity="0.6" fill="#fff" d="M 6,20 H26 V21 H6 z" id="path41"/>
 <path opacity="0.6" fill="none" stroke="url(#3)" d="m 4.5312 6.5312 v 16.9375 h 22.9375 v -16.9375 H 4.5312 z" id="path43"/>
 <g transform="matrix(0.65099,0,0,0.59402,0.164,0.241)" id="g45">
  <g id="g47" fill="#fff">
   <path id="5" d="m 30.0464,17.284 c 0.412046,0.695577 0.654776,1.51686 0.654776,2.38339 -1e-6,2.5759 -2.0861,4.66201 -4.66201,4.66201 -0.377939,0 -0.748049,-0.04602 -1.10002,-0.130955 0.812832,1.37215 2.29785,2.27862 4.00723,2.27862 2.5759,0 4.66201,-2.0861 4.66201,-4.66201 0,-2.19796 -1.51502,-4.03708 -3.56198,-4.53105 z"/>
   <use xlink:href="#0" transform="matrix(0.85564,0,0,0.85564,0.256,0.331)" id="use50" x="0" y="0" width="32" height="32"/>
   <use xlink:href="#0" transform="matrix(0.91769,0.67659,-0.67659,0.91769,14.228,-1.851)" id="use52" x="0" y="0" width="32" height="32"/>
   <use xlink:href="#0" transform="matrix(0.6458,0,0,0.6458,13.864,16.825)" id="use54" x="0" y="0" width="32" height="32"/>
   <use xlink:href="#0" transform="matrix(0.63123,0.57764,-0.57764,0.63123,24.819,-3.351)" id="use56" x="0" y="0" width="32" height="32"/>
   <use xlink:href="#0" transform="matrix(0.47937,0.17664,-0.17664,0.47937,14.694,9.621)" id="use58" x="0" y="0" width="32" height="32"/>
   <use xlink:href="#0" transform="matrix(0.20733,0.18973,-0.18973,0.20733,13.23,15.204)" id="use60" x="0" y="0" width="32" height="32"/>
   <use xlink:href="#0" transform="matrix(0.20733,0.18973,-0.18973,0.20733,32.683,22.712)" id="use62" x="0" y="0" width="32" height="32"/>
   <use xlink:href="#0" transform="matrix(0.34349,-0.11778,0.11778,0.34349,27.863,11.477)" id="use64" x="0" y="0" width="32" height="32"/>
  </g>
  <g id="g66" opacity="0.5" fill="none" filter="url(#1)" stroke="#fff" stroke-linecap="round" stroke-width="0.866">
   <use xlink:href="#5" id="use68" x="0" y="0" width="32" height="32"/>
   <use xlink:href="#0" transform="matrix(0.85564,0,0,0.85564,0.256,0.331)" id="use70" x="0" y="0" width="32" height="32" stroke-width="1.012"/>
   <use xlink:href="#0" transform="matrix(0.91769,0.67659,-0.67659,0.91769,14.228,-1.851)" id="use72" x="0" y="0" width="32" height="32" stroke-width="0.759"/>
   <use xlink:href="#0" transform="matrix(0.6458,0,0,0.6458,13.864,16.825)" id="use74" x="0" y="0" width="32" height="32" stroke-width="1.341"/>
   <use xlink:href="#0" transform="matrix(0.63123,0.57764,-0.57764,0.63123,24.819,-3.351)" id="use76" x="0" y="0" width="32" height="32" stroke-width="1.012"/>
   <use xlink:href="#0" transform="matrix(0.47937,0.17664,-0.17664,0.47937,14.694,9.621)" id="use78" x="0" y="0" width="32" height="32" stroke-width="1.695"/>
   <g id="g80" stroke-width="3.08">
    <use xlink:href="#0" transform="matrix(0.20733,0.18973,-0.18973,0.20733,13.23,15.204)" id="use82" x="0" y="0" width="32" height="32"/>
    <use xlink:href="#0" transform="matrix(0.20733,0.18973,-0.18973,0.20733,32.683,22.712)" id="use84" x="0" y="0" width="32" height="32"/>
   </g>
   <use xlink:href="#0" transform="matrix(0.34349,-0.11778,0.11778,0.34349,27.863,11.477)" id="use86" x="0" y="0" width="32" height="32" stroke-width="2.384"/>
  </g>
 </g>
 <path opacity="0.4" fill="none" stroke="#000" stroke-linecap="square" d="m 6.5312 8.5312 a 0.077833 0.077833 0 0 0 0 0.03125 0.077833 0.077833 0 0 0 0 0.03125 v 10.8125 a 0.077833 0.077833 0 0 0 0 0.03125 0.077833 0.077833 0 0 0 0 0.03125 0.077833 0.077833 0 0 0 0.03125 0 0.077833 0.077833 0 0 0 0.03125 0 h 18.8125 a 0.077833 0.077833 0 0 0 0.03125 0 0.077833 0.077833 0 0 0 0.03125 0 0.077833 0.077833 0 0 0 0 -0.03125 0.077833 0.077833 0 0 0 0 -0.03125 V 8.5937 a 0.077833 0.077833 0 0 0 0 -0.03125 0.077833 0.077833 0 0 0 0 -0.03125 0.077833 0.077833 0 0 0 -0.03125 0 0.077833 0.077833 0 0 0 -0.03125 0 H 6.5937 a 0.077833 0.077833 0 0 0 -0.03125 0 0.077833 0.077833 0 0 0 -0.03125 0 z" id="path88"/>
 <metadata id="metadata9999">
  <rdf:RDF>
   <cc:Work>
    <dc:format>image/svg+xml</dc:format>
    <dc:type rdf:resource="http://purl.org/dc/dcmitype/StillImage"/>
    <dc:title>Ivy icon theme</dc:title>
    <cc:license rdf:resource="http://creativecommons.org/licenses/by-sa/4.0/"/>
    <dc:creator>
     <cc:Agent>
      <dc:title>Sixsixfive (sixsixfive.deviantart.com)</dc:title>
     </cc:Agent>
    </dc:creator>
    <dc:publisher>
     <cc:Agent>
      <dc:title>Sixsixfive (sixsixfive.deviantart.com)</dc:title>
     </cc:Agent>
    </dc:publisher>
    <dc:source>https://github.com/sixsixfive</dc:source>
    <dc:subject>
     <rdf:Bag>
      <rdf:li>ivy</rdf:li>
     </rdf:Bag>
    </dc:subject>
    <dc:contributor>
     <cc:Agent>
      <dc:title>ssf</dc:title>
     </cc:Agent>
    </dc:contributor>
    <dc:rights>
     <cc:Agent>
      <dc:title>Sixsixfive (sixisixfive.deviantart.com)</dc:title>
     </cc:Agent>
    </dc:rights>
    <dc:description>A simple icon theme published under CC-BY-SA_V4(http://creativecommons.org/licenses/by-sa/4.0)</dc:description>
    <dc:identifier>SSF</dc:identifier>
   </cc:Work>
  </rdf:RDF>
 </metadata>
 <!--Part of the Ivy icon them published under the CC-BY-SA_V4: http://creativecommons.org/licenses/by-sa/4.0 -->
</svg>
