<?xml version="1.0" encoding="UTF-8" standalone="no"?>
<svg xmlns:dc="http://purl.org/dc/elements/1.1/" xmlns:cc="http://creativecommons.org/ns#" xmlns:rdf="http://www.w3.org/1999/02/22-rdf-syntax-ns#" xmlns:svg="http://www.w3.org/2000/svg" xmlns="http://www.w3.org/2000/svg" viewBox="0 0 32 32" id="svg2" version="1.1">
 <path opacity="0.15" d="M 14 1 C 9.568 1 6 4.568 6 9 6 18 6 9 6 18 6 25.202 10.683 31 16.5 31 22.317 31 27 25.202 27 18 27 9 27 18 27 9 27 4.568 23.432 1 19 1 z" id="path21"/>
 <path fill="url(#2)" d="M 14 0 C 9.568 0 6 3.568 6 8 6 17 6 8 6 17 6 24.202 10.683 30 16.5 30 22.317 30 27 24.202 27 17 27 8 27 17 27 8 27 3.568 23.432 0 19 0 z" id="path23"/>
 <path opacity="0.6" fill="url(#1)" d="M 14 0 C 9.568 0 6 3.568 6 8 v 4 h 10 h 11 v -4 C 27 3.568 23.432 0 19 0 h -3 h -2 z" id="path25"/>
 <path id="path4159" d="M 14 0 C 9.568 0 6 3.568 6 8 L 6 12 L 16 12 L 16 0.546875 C 16 0.24387633 16.246117 0 16.552734 0 L 16 0 L 14 0 z " opacity="0.6492" fill="#ff8b36"/>
 <defs id="defs4">
  <linearGradient id="0" y1="1" x1="26" y2="28.948" x2="26.27" gradientUnits="userSpaceOnUse">
   <stop stop-color="#fff" id="stop7"/>
   <stop offset="1" stop-color="#fff" stop-opacity="0" id="stop9"/>
  </linearGradient>
  <linearGradient id="1" y1="0" y2="12" x2="0" gradientUnits="userSpaceOnUse">
   <stop stop-color="#fff" id="stop12"/>
   <stop offset="1" stop-color="#fff" stop-opacity="0.635" id="stop14"/>
  </linearGradient>
  <radialGradient cx="16.5" cy="15" r="10.5" id="2" gradientUnits="userSpaceOnUse" gradientTransform="matrix(1.66667 0 0 1.42857 -11 -6.429)">
   <stop stop-color="#ebebeb" id="stop17"/>
   <stop offset="1" stop-color="#b8b8b8" id="stop19"/>
  </radialGradient>
 </defs>
 <path fill="#cecece" d="M 15,7 H18 V12 H15 z" id="path27"/>
 <path opacity="0.4" d="M 7,12 H26 V13 H7 z" id="path29"/>
 <path opacity="0.4" d="M 16,1 H17 V7 H16 z" id="path31"/>
 <path opacity="0.4" fill="none" stroke="#000" d="M 14 0.46875 C 9.822378 0.46875 6.46875 3.822378 6.46875 8 v 9 c 0 6.996541 4.529194 12.53125 10.03125 12.53125 5.502056 0 10.03125 -5.534709 10.03125 -12.53125 v -9 C 26.53125 3.822378 23.17762 0.46875 19 0.46875 h -5 z" id="path33"/>
 <path opacity="0.4" d="M 14,7 H15 V12 H14 z" id="path35"/>
 <path opacity="0.4" d="M 18,7 H19 V12 H18 z" id="path37"/>
 <path opacity="0.4" d="M 6,-18 H7 V-15 H6 z" transform="matrix(0 1 -1 0 0 0)" id="path39"/>
 <path opacity="0.4" fill="#fff" d="M 7,13 H26 V14 H7 z" id="path41"/>
 <path opacity="0.8" fill="none" stroke="url(#0)" d="M 14 1.5 C 10.365921 1.5 7.5 4.365921 7.5 8 v 9 c 0 6.558227 4.179054 11.5 9 11.5 4.820946 0 9 -4.941773 9 -11.5 v -9 C 25.5 4.365921 22.634079 1.5 19 1.5 h -5 z" id="path43"/>
 <path opacity="0.4" fill="#fff" d="M 15,7 H18 V8 H15 z" id="path45"/>
 <metadata id="metadata9999">
  <rdf:RDF>
   <cc:Work>
    <dc:format>image/svg+xml</dc:format>
    <dc:type rdf:resource="http://purl.org/dc/dcmitype/StillImage"/>
    <dc:title/>
    <cc:license rdf:resource="http://creativecommons.org/licenses/by-sa/4.0/"/>
    <dc:creator>
     <cc:Agent>
      <dc:title>Sixsixfive (sixsixfive.deviantart.com)</dc:title>
     </cc:Agent>
    </dc:creator>
    <dc:publisher>
     <cc:Agent>
      <dc:title>Sixsixfive (sixsixfive.deviantart.com)</dc:title>
     </cc:Agent>
    </dc:publisher>
    <dc:source>https://github.com/sixsixfive</dc:source>
    <dc:subject>
     <rdf:Bag>
      <rdf:li>ivy</rdf:li>
     </rdf:Bag>
    </dc:subject>
    <dc:contributor>
     <cc:Agent>
      <dc:title>ssf</dc:title>
     </cc:Agent>
    </dc:contributor>
    <dc:rights>
     <cc:Agent>
      <dc:title>Sixsixfive (sixisixfive.deviantart.com)</dc:title>
     </cc:Agent>
    </dc:rights>
    <dc:description>A simple icon theme published under CC-BY-SA_V4(http://creativecommons.org/licenses/by-sa/4.0)</dc:description>
    <dc:identifier>SSF</dc:identifier>
   </cc:Work>
  </rdf:RDF>
 </metadata>
 <!--Part of the Ivy icon them published under the CC-BY-SA_V4: http://creativecommons.org/licenses/by-sa/4.0 -->
</svg>
