<?xml version="1.0" encoding="UTF-8" standalone="no"?>
<svg xmlns:dc="http://purl.org/dc/elements/1.1/" xmlns:cc="http://creativecommons.org/ns#" xmlns:rdf="http://www.w3.org/1999/02/22-rdf-syntax-ns#" xmlns:svg="http://www.w3.org/2000/svg" xmlns="http://www.w3.org/2000/svg" xmlns:xlink="http://www.w3.org/1999/xlink" viewBox="0 0 32 32" id="svg2" version="1.1">
 <defs id="defs4">
  <path opacity="0.3" fill="none" stroke="#000" id="2" stroke-linecap="square" d="m 2.5312 3.5312 v 4.9375 h 4.9375 v -4.9375 h -4.9375 z"/>
  <path opacity="0.3" id="3" d="m 3.5625 4.5625 v 2.875 h 2.875 v -2.875 h -2.875 z"/>
  <linearGradient id="4" xlink:href="#7" y1="12.937" y2="18.937" x2="0" gradientUnits="userSpaceOnUse"/>
  <linearGradient id="5" xlink:href="#7" y1="24.06" y2="30.06" x2="0" gradientUnits="userSpaceOnUse"/>
  <linearGradient id="6" y1="4" y2="8" x2="0" gradientUnits="userSpaceOnUse">
   <stop stop-color="#fff" id="stop11"/>
   <stop offset="1" stop-color="#fff" stop-opacity="0" id="stop13"/>
  </linearGradient>
  <linearGradient id="7">
   <stop stop-color="#5288d1" id="stop16"/>
   <stop offset="1" stop-color="#b1c9eb" id="stop18"/>
  </linearGradient>
  <linearGradient id="8" xlink:href="#7" y1="2" y2="8" x2="0" gradientUnits="userSpaceOnUse"/>
 </defs>
 <path opacity="0.1" d="M 2,3 H8 V9 H2 z" id="path21"/>
 <path opacity="0.1" d="M 11,3 H30 V9 H11 z" id="path23"/>
 <g id="g25" fill="url(#8)">
  <path d="M 11,2 30,2 30,8 11,8 Z" id="path27"/>
  <path d="M 2,2 8,2 8,8 2,8 Z" id="path29"/>
 </g>
 <g transform="translate(0,-1)" id="g31">
  <use xlink:href="#2" id="use33" x="0" y="0" width="32" height="32"/>
  <g id="g35" fill="none" stroke-linecap="square">
   <path d="m 11.4688,3.4688 0,5.0625 18.0625,0 0,-5.0625 -18.0625,0 z" id="path37" opacity="0.3" stroke="#000"/>
   <g id="g39" stroke="url(#6)">
    <use xlink:href="#3" id="use41" x="0" y="0" width="32" height="32"/>
    <path d="m 12.5,4.5 0,3 16,0 0,-3 -16,0 z" id="path43" opacity="0.3"/>
   </g>
  </g>
 </g>
 <path opacity="0.1" d="M 1.938,13.937 H7.938 V19.937 H1.938 z" id="path45"/>
 <path opacity="0.1" d="M 10.938,13.937 H29.938 V19.937 H10.938 z" id="path47"/>
 <g id="g49" fill="url(#4)">
  <path d="m 10.938,12.937 19,0 0,6 -19,0 z" id="path51"/>
  <path d="m 1.938,12.937 6,0 0,6 -6,0 z" id="path53"/>
 </g>
 <use xlink:href="#2" transform="matrix(1 0 0 1 -0.063 9.937)" id="use55"/>
 <path opacity="0.3" fill="none" stroke="#000" stroke-linecap="square" id="0" d="m 11.4688 3.4688 v 5.0625 h 18.0625 v -5.0625 h -18.0625 z" transform="matrix(1 0 0 1 -0.063 9.937)"/>
 <use fill="none" stroke="url(#6)" stroke-linecap="square" xlink:href="#3" transform="matrix(1 0 0 1 -0.063 9.937)" id="use58"/>
 <path opacity="0.3" fill="none" stroke="url(#6)" stroke-linecap="square" id="1" d="m 12.5 4.5 v 3 h 16 v -3 h -16 z" transform="matrix(1 0 0 1 -0.063 9.937)"/>
 <path opacity="0.1" d="M 1.938,25.06 H7.938 V31.06 H1.938 z" id="path61"/>
 <path opacity="0.1" d="M 10.938,25.06 H29.938 V31.06 H10.938 z" id="path63"/>
 <g id="g65" fill="url(#5)">
  <path d="m 10.938,24.06 19,0 0,6 -19,0 z" id="path67"/>
  <path d="m 1.938,24.06 6,0 0,6 -6,0 z" id="path69"/>
 </g>
 <use xlink:href="#2" transform="matrix(1 0 0 1 -0.063 21.06)" id="use71"/>
 <use xlink:href="#0" transform="matrix(1 0 0 1 0 11.125)" id="use73"/>
 <use fill="none" stroke="url(#6)" stroke-linecap="square" xlink:href="#3" transform="matrix(1 0 0 1 -0.063 21.06)" id="use75"/>
 <use xlink:href="#1" transform="matrix(1 0 0 1 0 11.125)" id="use77"/>
 <metadata id="metadata9999">
  <rdf:RDF>
   <cc:Work>
    <dc:format>image/svg+xml</dc:format>
    <dc:type rdf:resource="http://purl.org/dc/dcmitype/StillImage"/>
    <dc:title>Ivy icon theme</dc:title>
    <cc:license rdf:resource="http://creativecommons.org/licenses/by-sa/4.0/"/>
    <dc:creator>
     <cc:Agent>
      <dc:title>Sixsixfive (sixsixfive.deviantart.com)</dc:title>
     </cc:Agent>
    </dc:creator>
    <dc:publisher>
     <cc:Agent>
      <dc:title>Sixsixfive (sixsixfive.deviantart.com)</dc:title>
     </cc:Agent>
    </dc:publisher>
    <dc:source>https://github.com/sixsixfive</dc:source>
    <dc:subject>
     <rdf:Bag>
      <rdf:li>ivy</rdf:li>
     </rdf:Bag>
    </dc:subject>
    <dc:contributor>
     <cc:Agent>
      <dc:title>ssf</dc:title>
     </cc:Agent>
    </dc:contributor>
    <dc:rights>
     <cc:Agent>
      <dc:title>Sixsixfive (sixisixfive.deviantart.com)</dc:title>
     </cc:Agent>
    </dc:rights>
    <dc:description>A simple icon theme published under CC-BY-SA_V4(http://creativecommons.org/licenses/by-sa/4.0)</dc:description>
    <dc:identifier>SSF</dc:identifier>
   </cc:Work>
  </rdf:RDF>
 </metadata>
 <!--Part of the Ivy icon them published under the CC-BY-SA_V4: http://creativecommons.org/licenses/by-sa/4.0 -->
</svg>
