<?xml version="1.0" encoding="UTF-8" standalone="no"?><svg xmlns:svg="http://www.w3.org/2000/svg" viewBox="0 0 32 32" xmlns="http://www.w3.org/2000/svg" xmlns:rdf="http://www.w3.org/1999/02/22-rdf-syntax-ns#" xmlns:xlink="http://www.w3.org/1999/xlink" version="1.1" id="svg2" xmlns:dc="http://purl.org/dc/elements/1.1/" xmlns:cc="http://creativecommons.org/ns#"><defs id="defs4"><linearGradient xlink:href="#5" y1="28" x2="0" y2="34" id="0" gradientTransform="matrix(1 0 0 0.66667 -8 0.333)" gradientUnits="userSpaceOnUse"/><linearGradient xlink:href="#5" y1="28" x2="0" y2="34" id="1" gradientTransform="matrix(0.8 0 0 0.66667 -2.6 0.333)" gradientUnits="userSpaceOnUse"/><linearGradient xlink:href="#5" y1="28" x2="0" y2="34" id="2" gradientTransform="matrix(1 0 0 0.66667 -6 0.333)" gradientUnits="userSpaceOnUse"/><linearGradient xlink:href="#5" y1="28" x2="0" y2="34" id="3" gradientTransform="matrix(1 0 0 0.66667 -7.8 0.333)" gradientUnits="userSpaceOnUse"/><linearGradient y1="27" x2="0" y2="5" id="4" gradientUnits="userSpaceOnUse"><stop id="stop11" stop-color="#ebebeb"/><stop offset="1" id="stop13" stop-color="#ebebeb"/></linearGradient><linearGradient id="5"><stop stop-opacity="0" id="stop16" stop-color="#ffd506"/><stop offset="1" id="stop18" stop-color="#ffd506"/></linearGradient><linearGradient x1="2" y1="2" x2="2.031" y2="29.969" id="6" gradientUnits="userSpaceOnUse"><stop id="stop21" stop-color="#fff"/><stop stop-opacity="0" offset="1" id="stop23" stop-color="#fff"/></linearGradient></defs><rect y="2" x="1" opacity="0.1" ry="1.429" height="30" rx="1.429" id="rect25" width="30"/><rect y="1" x="1" ry="1.429" height="30" rx="1.429" id="rect27" width="30" fill="#f1f1f1"/><rect y="6" x="5" opacity="0.5" ry="2.588" height="22" rx="2.588" id="rect29" width="22" fill="#fff"/><rect y="5" x="5" ry="2.588" height="22" rx="2.588" id="rect31" width="22" fill="url(#4)"/><g id="g33" color="#000" fill-rule="evenodd"><path id="path35" d="m 14.6,9 0,2 -2.8,0 0,2 -2.8,0 0,10 14,0 0,-10 -2.800001,0 0,-2 -2.799999,0 0,-2 z" fill="#171717"/><g id="g37" fill="url(#2)"><path id="path39" d="m 10,19 1,0 0,4 -1,0 z"/><path id="path41" d="m 12,19 1,0 0,4 -1,0 z"/></g><g id="g43" fill="url(#0)"><path id="path45" d="m 14,19 1,0 0,4 -1,0 z"/><path id="path47" d="m 16,19 1,0 0,4 -1,0 z"/></g><path id="path49" d="m 18.2,19 0.8,0 0,4 -0.8,0 z" fill="url(#1)"/><path id="path51" d="m 20.2,19 1,0 0,4 -1,0 z" fill="url(#3)"/></g><g id="g53" fill="none"><path stroke="#000" opacity="0.4" id="path55" d="M 2.4375,1.5 C 1.912916,1.5 1.5,1.912916 1.5,2.4375 l 0,27.125 C 1.5,30.08708 1.912915,30.5 2.4375,30.5 l 27.125,0 c 0.524585,0 0.9375,-0.412915 0.9375,-0.9375 l 0,-27.125 C 30.5,1.912915 30.08708,1.5 29.5625,1.5 l -27.125,0 z"/><path stroke="url(#6)" opacity="0.8" id="path57" d="m 2.53125,2.53125 0,26.9375 26.9375,0 0,-26.9375 -26.9375,0 z"/><path stroke="#000" opacity="0.3" id="path59" d="m 7.59375,5.53125 c -1.14009,0 -2.0625,0.922411 -2.0625,2.0625 l 0,16.8125 c 0,1.140089 0.922411,2.0625 2.0625,2.0625 l 16.8125,0 c 1.14009,0 2.0625,-0.922411 2.0625,-2.0625 l 0,-16.8125 c 0,-1.140089 -0.92241,-2.0625 -2.0625,-2.0625 l -16.8125,0 z"/><path stroke="#fff" opacity="0.49" id="path61" d="m 7.59375,6.46875 c -0.647949,0 -1.125,0.477051 -1.125,1.125 l 0,16.8125 c 0,0.647948 0.477051,1.125 1.125,1.125 l 16.8125,0 c 0.647949,0 1.125,-0.477051 1.125,-1.125 l 0,-16.8125 c 0,-0.647949 -0.47705,-1.125 -1.125,-1.125 l -16.8125,0 z"/></g><path opacity="0.53" id="path63" d="M 9,23 H23 V24 H9 z" fill="#fff"/><metadata id="metadata9999"><rdf:RDF><cc:Work><dc:format>image/svg+xml</dc:format><dc:type rdf:resource="http://purl.org/dc/dcmitype/StillImage"/><dc:title>Ivy icon theme</dc:title><cc:license rdf:resource="http://creativecommons.org/licenses/by-sa/4.0/"/><dc:creator><cc:Agent><dc:title>Sixsixfive (sixsixfive.deviantart.com)</dc:title></cc:Agent></dc:creator><dc:publisher><cc:Agent><dc:title>Sixsixfive (sixsixfive.deviantart.com)</dc:title></cc:Agent></dc:publisher><dc:source>https://github.com/sixsixfive</dc:source><dc:subject><rdf:Bag><rdf:li>ivy</rdf:li></rdf:Bag></dc:subject><dc:contributor><cc:Agent><dc:title>ssf</dc:title></cc:Agent></dc:contributor><dc:rights><cc:Agent><dc:title>Sixsixfive (sixisixfive.deviantart.com)</dc:title></cc:Agent></dc:rights><dc:description>A simple icon theme published under CC-BY-SA_V4(http://creativecommons.org/licenses/by-sa/4.0)</dc:description><dc:identifier>SSF</dc:identifier></cc:Work></rdf:RDF></metadata><!--Part of the Ivy icon them published under the CC-BY-SA_V4: http://creativecommons.org/licenses/by-sa/4.0 -->
</svg>