<?xml version="1.0" encoding="UTF-8" standalone="no"?>
<svg
   xmlns:dc="http://purl.org/dc/elements/1.1/"
   xmlns:cc="http://creativecommons.org/ns#"
   xmlns:rdf="http://www.w3.org/1999/02/22-rdf-syntax-ns#"
   xmlns:svg="http://www.w3.org/2000/svg"
   xmlns="http://www.w3.org/2000/svg"
   xmlns:xlink="http://www.w3.org/1999/xlink"
   height="32"
   width="32"
   version="1.1"
   viewBox="0 0 32 32"
   id="svg2">
  <defs
     id="defs4">
    <linearGradient
       id="linearGradient4165">
      <stop
         id="stop4167"
         offset="0"
         style="stop-color:#ffffff;stop-opacity:1;" />
      <stop
         id="stop4169"
         offset="1"
         style="stop-color:#ffffff;stop-opacity:0;" />
    </linearGradient>
    <linearGradient
       gradientTransform="matrix(0.71428571,0,0,0.71428571,-1.1428572,-1.1428571)"
       gradientUnits="userSpaceOnUse"
       y1="3"
       y2="45"
       x2="0"
       id="1">
      <stop
         stop-color="#5288d1"
         id="stop12" />
      <stop
         stop-color="#90b3e1"
         id="stop14"
         offset="1" />
    </linearGradient>
    <linearGradient
       gradientUnits="userSpaceOnUse"
       y2="30"
       x2="19.775089"
       y1="2"
       x1="20"
       id="linearGradient4171"
       xlink:href="#linearGradient4165" />
  </defs>
  <rect
     rx="2.5"
     style="fill:url(#1)"
     y="1"
     x="1"
     width="30"
     id="rect18"
     height="30" />
  <path
     style="opacity:0.2;fill:#000000"
     d="M 23.5,3 C 22.123758,3 21,4.1266589 21,5.5097656 21,6.8928732 22.123758,8 23.5,8 24.876243,8 26,6.8928732 26,5.5097656 26,4.1266589 24.876243,3 23.5,3 Z M 12.044922,5.984375 c -0.268158,0.0255 -0.714844,0.3359375 -0.714844,0.3359375 L 8.4375,9.4707031 c -0.4900651,0.403625 -0.5230587,1.2355929 -0.066406,1.6738279 0.4566493,0.438234 1.2981645,0.401941 1.71875,-0.06836 L 12.447266,8.3300781 16.375,9.9160156 11.041016,16.166016 c -0.09739,0.113919 -0.191332,0.252096 -0.269532,0.378906 -0.8470565,0.242548 -1.6313918,0.616701 -2.2988278,1.138672 l 2.3437498,2.03125 c 0.565954,-0.351898 1.218781,-0.558594 1.94336,-0.558594 1.998828,0 3.636718,1.564208 3.636718,3.482422 0,0.570944 -0.14606,1.108841 -0.40039,1.583984 l 2.232422,1.94336 c 0.697896,-1.008108 1.091796,-2.226323 1.091796,-3.527344 C 19.320312,21.59745 19.000547,20 18.185547,19 l 5.855469,0 0,7.177734 c -0.009,0.611653 0.362579,0.822266 1,0.822266 0.637421,0 1.009014,-0.210614 1,-0.822266 l 0,-7.445312 C 26.000873,17.000169 26.000156,17 24.035156,17 l -5.77539,0 3.068359,-3.535156 c 0.588151,-0.672302 0.840344,-1.62023 0.648437,-2.478516 C 21.784655,10.128042 21.171442,9.38155 20.347656,9 20.328966,8.9936 20.298296,8.984036 20.279296,8.978516 L 20.123046,8.910157 C 20.085596,8.897477 20.049656,8.876485 20.011718,8.865235 L 12.625,6.0957031 C 12.448053,6.0216441 12.237331,5.9928165 12.044922,6.0078125 l 0,-0.023437 z M 7.2460938,18.978516 C 6.487058,20.012731 6.0410156,21.2756 6.0410156,22.638672 6.0410156,26.155393 9.005393,29 12.669922,29 14.325743,29 15.83755,28.421536 17,27.458984 l -2.232422,-1.941406 c -0.573218,0.365733 -1.267862,0.580078 -2.007812,0.580078 -1.998829,0 -3.6171879,-1.54077 -3.6171879,-3.458984 0,-0.585184 0.1574902,-1.145142 0.4238281,-1.628906 l -2.3203124,-2.03125 z"
     id="path4155" />
  <path
     d="m 3.5,2.5253906 c -0.5765614,0 -0.9746094,0.398048 -0.9746094,0.9746094 l 0,25 c 0,0.576562 0.398048,0.974609 0.9746094,0.974609 l 25,0 c 0.576562,0 0.974609,-0.398047 0.974609,-0.974609 l 0,-25 c 0,-0.5765614 -0.398047,-0.9746094 -0.974609,-0.9746094 l -25,0 z"
     id="path4163"
     style="opacity:0.4;fill:none;stroke:url(#linearGradient4171)" />
  <path
     id="path4152"
     d="M 23.5,4 C 22.123758,4 21,5.1266589 21,6.5097656 21,7.8928732 22.123758,9 23.5,9 24.876243,9 26,7.8928732 26,6.5097656 26,5.1266589 24.876243,4 23.5,4 Z M 12.044922,6.984375 c -0.268158,0.0255 -0.714844,0.3359375 -0.714844,0.3359375 L 8.4375,10.470703 c -0.4900651,0.403625 -0.5230587,1.235593 -0.066406,1.673828 0.4566493,0.438234 1.2981645,0.401941 1.71875,-0.06836 l 2.357422,-2.7460939 3.927734,1.5859379 -5.333984,6.25 c -0.09739,0.113919 -0.191332,0.252096 -0.269532,0.378906 -0.8470563,0.242548 -1.6313916,0.616701 -2.2988276,1.138672 l 2.3437496,2.03125 c 0.565954,-0.351898 1.218781,-0.558594 1.94336,-0.558594 1.998828,0 3.636718,1.564208 3.636718,3.482422 0,0.570944 -0.14606,1.108841 -0.40039,1.583984 l 2.232422,1.94336 c 0.697896,-1.008108 1.091796,-2.226323 1.091796,-3.527344 C 19.320312,22.59745 19.000547,21 18.185547,20 l 5.855469,0 0,7.177734 c -0.009,0.611653 0.362579,0.822266 1,0.822266 0.637421,0 1.009014,-0.210614 1,-0.822266 l 0,-7.445312 C 26.000873,18.000169 26.000156,18 24.035156,18 l -5.77539,0 3.068359,-3.535156 c 0.588151,-0.672302 0.840344,-1.62023 0.648437,-2.478516 C 21.784655,11.128042 21.171442,10.38155 20.347656,10 20.328966,9.9936 20.298296,9.984036 20.279296,9.978516 L 20.123046,9.910157 C 20.085596,9.897477 20.049656,9.876485 20.011718,9.865235 L 12.625,7.0957031 C 12.448053,7.0216441 12.237331,6.9928165 12.044922,7.0078125 l 0,-0.023437 z M 7.2460938,19.978516 C 6.487058,21.012731 6.0410156,22.2756 6.0410156,23.638672 6.0410156,27.155393 9.005393,30 12.669922,30 14.325743,30 15.83755,29.421536 17,28.458984 l -2.232422,-1.941406 c -0.573218,0.365733 -1.267862,0.580078 -2.007812,0.580078 -1.998829,0 -3.6171879,-1.54077 -3.6171879,-3.458984 0,-0.585184 0.1574902,-1.145142 0.4238281,-1.628906 l -2.3203124,-2.03125 z"
     style="fill:#ffffff" />
  <path
     d="m 3.5,1.4902344 c -1.1220606,0 -2.0097656,0.887705 -2.0097656,2.0097656 l 0,25 c 0,1.122061 0.887705,2.009766 2.0097656,2.009766 l 25,0 c 1.122061,0 2.009766,-0.887705 2.009766,-2.009766 l 0,-25 c 0,-1.1220606 -0.887705,-2.0097656 -2.009766,-2.0097656 l -25,0 z"
     id="path4159"
     style="fill:none;stroke:#000000;opacity:0.4" />
  <metadata
     id="metadata9999">
    <rdf:RDF>
      <cc:Work>
        <dc:format>image/svg+xml</dc:format>
        <dc:type
           rdf:resource="http://purl.org/dc/dcmitype/StillImage" />
        <dc:title></dc:title>
        <cc:license
           rdf:resource="http://creativecommons.org/licenses/by-sa/4.0/" />
        <dc:creator>
          <cc:Agent>
            <dc:title>Sixsixfive (sixsixfive.deviantart.com)</dc:title>
          </cc:Agent>
        </dc:creator>
        <dc:publisher>
          <cc:Agent>
            <dc:title>Sixsixfive (sixsixfive.deviantart.com)</dc:title>
          </cc:Agent>
        </dc:publisher>
        <dc:source>https://github.com/sixsixfive</dc:source>
        <dc:subject>
          <rdf:Bag>
            <rdf:li>ivy</rdf:li>
          </rdf:Bag>
        </dc:subject>
        <dc:contributor>
          <cc:Agent>
            <dc:title>ssf</dc:title>
          </cc:Agent>
        </dc:contributor>
        <dc:rights>
          <cc:Agent>
            <dc:title>Sixsixfive (sixisixfive.deviantart.com)</dc:title>
          </cc:Agent>
        </dc:rights>
        <dc:description>A simple icon theme published under CC-BY-SA_V4(http://creativecommons.org/licenses/by-sa/4.0)</dc:description>
        <dc:identifier>SSF</dc:identifier>
      </cc:Work>
    </rdf:RDF>
  </metadata>
  <!--Part of the Ivy icon them published under the CC-BY-SA_V4: http://creativecommons.org/licenses/by-sa/4.0 -->
  <rect
     height="30"
     id="rect4173"
     width="30"
     x="1"
     y="2"
     style="fill:#000000;opacity:0.15"
     rx="2.5" />
</svg>
