<?xml version="1.0" encoding="UTF-8" standalone="no"?>
<svg xmlns:dc="http://purl.org/dc/elements/1.1/" xmlns:cc="http://creativecommons.org/ns#" xmlns:rdf="http://www.w3.org/1999/02/22-rdf-syntax-ns#" xmlns:svg="http://www.w3.org/2000/svg" xmlns="http://www.w3.org/2000/svg" viewBox="0 0 32 32" id="svg2" version="1.1">
 <defs id="defs4">
  <linearGradient id="0" y1="4" y2="43" x2="0" gradientUnits="userSpaceOnUse" gradientTransform="matrix(0.68145 0 0 0.69282 -0.338 -0.746)">
   <stop stop-color="#ebebeb" id="stop7"/>
   <stop offset="1" stop-color="#fff" id="stop9"/>
  </linearGradient>
 </defs>
 <path opacity="0.15" d="m 25.545429 3.00001 c -3.01246 0 -5.454541 2.417661 -5.454541 5.39999 0 0.185579 0.02416 0.367677 0.04261 0.548437 L 10.588062 12.998451 C 9.587858 11.852895 8.104063 11.10002 6.45454 11.10002 3.442079 11.10002 1 13.517677 1 16.500006 c 0 2.982337 2.442079 5.399992 5.45454 5.399992 1.64953 0 3.133324 -0.710687 4.133519 -1.85625 l 9.54544 4.050012 c -0.01702 0.173739 -0.0426 0.328085 -0.0426 0.50625 0 2.982336 2.442079 5.39999 5.45454 5.39999 3.01246 0 5.454541 -2.417661 5.454541 -5.39999 0 -2.982337 -2.44208 -5.399998 -5.454541 -5.399998 -1.645993 0 -3.090807 0.757133 -4.090906 1.898435 l -9.630691 -4.050012 c 0.01877 -0.182304 0.08523 -0.361224 0.08523 -0.548437 0 -0.163464 -0.02824 -0.304296 -0.04261 -0.464061 l 9.588101 -4.092206 c 1.0001 1.141302 2.444913 1.856249 4.090906 1.856249 3.01246 0 5.454541 -2.417661 5.454541 -5.39999 C 31.00001 5.417654 28.55793 3 25.545469 3 z" id="path11"/>
 <path fill="url(#0)" d="m 25.545429 2.00001 c -3.01246 0 -5.454541 2.417661 -5.454541 5.39999 0 0.185579 0.02416 0.367677 0.04261 0.548437 L 10.588062 11.998451 C 9.587858 10.852895 8.104063 10.10002 6.45454 10.10002 3.442079 10.10002 1 12.517677 1 15.500006 c 0 2.982337 2.442079 5.399992 5.45454 5.399992 1.64953 0 3.133324 -0.710687 4.133519 -1.85625 l 9.54544 4.050012 c -0.01702 0.173739 -0.0426 0.328085 -0.0426 0.50625 0 2.982336 2.442079 5.39999 5.45454 5.39999 3.01246 0 5.454541 -2.417661 5.454541 -5.39999 0 -2.982337 -2.44208 -5.399998 -5.454541 -5.399998 -1.645993 0 -3.090807 0.757133 -4.090906 1.898435 l -9.630691 -4.050012 c 0.01877 -0.182304 0.08523 -0.361224 0.08523 -0.548437 0 -0.163464 -0.02824 -0.304296 -0.04261 -0.464061 l 9.588101 -4.092206 c 1.0001 1.141302 2.444913 1.856249 4.090906 1.856249 3.01246 0 5.454541 -2.417661 5.454541 -5.39999 C 31.00001 4.417654 28.55793 2 25.545469 2 z" id="path13"/>
 <g id="g15" fill="none">
  <path d="m 25.53125,2.53125 c -2.734184,0 -4.90625,2.17389 -4.90625,4.875 0,0.161725 0.01357,0.295585 0.03125,0.46875 a 0.51882,0.51882 0 0 1 -0.3125,0.53125 l -9.53125,4.0625 a 0.51882,0.51882 0 0 1 -0.625,-0.125 C 9.278682,11.30286 7.958783,10.625 6.46875,10.625 c -2.734183,0 -4.9375,2.177514 -4.9375,4.875 0,2.697495 2.203316,4.875 4.9375,4.875 1.496594,0 2.813017,-0.650128 3.71875,-1.6875 a 0.51882,0.51882 0 0 1 0.625,-0.125 l 9.53125,4.0625 a 0.51882,0.51882 0 0 1 0.3125,0.53125 c -0.01697,0.173194 -0.03125,0.286958 -0.03125,0.4375 0,2.701117 2.172066,4.875 4.90625,4.875 2.734183,0 4.9375,-2.177514 4.9375,-4.875 0,-2.697495 -2.203316,-4.875 -4.9375,-4.875 -1.485267,0 -2.771685,0.673632 -3.6875,1.71875 a 0.51882,0.51882 0 0 1 -0.5625,0.125 L 11.625,16.53125 A 0.51882,0.51882 0 0 1 11.28125,16 c 0.02937,-0.285212 0.09375,-0.4513 0.09375,-0.5 0,-0.127751 -0.01615,-0.269627 -0.03125,-0.4375 a 0.51882,0.51882 0 0 1 0.3125,-0.5 L 21.25,10.46875 a 0.51882,0.51882 0 0 1 0.59375,0.125 c 0.912721,1.041587 2.195667,1.6875 3.6875,1.6875 2.734183,0 4.9375,-2.177514 4.9375,-4.875 1e-6,-2.697494 -2.203316,-4.875 -4.9375,-4.875 z" id="path17" opacity="0.4" stroke="#000"/>
  <path d="m 25.53125,3.5625 c -2.176269,0 -3.875,1.706452 -3.875,3.84375 0,0.1139 0.01513,0.217064 0.03125,0.375 A 1.558994,1.558994 0 0 1 20.75,9.375 l -9.53125,4.0625 a 1.558994,1.558994 0 0 1 -1.8125,-0.40625 c -0.7256,-0.831046 -1.767226,-1.375 -2.9375,-1.375 -2.176268,0 -3.90625,1.717342 -3.90625,3.84375 0,2.126418 1.72998,3.84375 3.90625,3.84375 1.189975,0 2.221153,-0.523289 2.9375,-1.34375 a 1.558994,1.558994 0 0 1 1.8125,-0.40625 L 20.75,21.65625 A 1.558994,1.558994 0 0 1 21.6875,23.25 c -0.01686,0.1721 -0.03125,0.248588 -0.03125,0.34375 0,2.137306 1.69873,3.84375 3.875,3.84375 2.176267,0 3.90625,-1.717342 3.90625,-3.84375 0,-2.126418 -1.72998,-3.84375 -3.90625,-3.84375 -1.16303,0 -2.128166,0.522721 -2.875,1.375 A 1.558994,1.558994 0 0 1 20.875,21.53125 L 11.21875,17.5 A 1.558994,1.558994 0 0 1 10.25,15.90625 c 0.05061,-0.491532 0.09375,-0.635254 0.09375,-0.40625 0,-0.05615 -0.01469,-0.159621 -0.03125,-0.34375 A 1.558994,1.558994 0 0 1 11.25,13.59375 L 20.84375,9.5 a 1.558994,1.558994 0 0 1 1.8125,0.40625 c 0.737539,0.841671 1.69224,1.34375 2.875,1.34375 2.176267,0 3.90625,-1.717342 3.90625,-3.84375 1e-6,-2.126417 -1.72998,-3.84375 -3.90625,-3.84375 z" id="path19" opacity="0.8" stroke="#fff"/>
 </g>
 <metadata id="metadata9999">
  <rdf:RDF>
   <cc:Work>
    <dc:format>image/svg+xml</dc:format>
    <dc:type rdf:resource="http://purl.org/dc/dcmitype/StillImage"/>
    <dc:title>Ivy icon theme</dc:title>
    <cc:license rdf:resource="http://creativecommons.org/licenses/by-sa/4.0/"/>
    <dc:creator>
     <cc:Agent>
      <dc:title>Sixsixfive (sixsixfive.deviantart.com)</dc:title>
     </cc:Agent>
    </dc:creator>
    <dc:publisher>
     <cc:Agent>
      <dc:title>Sixsixfive (sixsixfive.deviantart.com)</dc:title>
     </cc:Agent>
    </dc:publisher>
    <dc:source>https://github.com/sixsixfive</dc:source>
    <dc:subject>
     <rdf:Bag>
      <rdf:li>ivy</rdf:li>
     </rdf:Bag>
    </dc:subject>
    <dc:contributor>
     <cc:Agent>
      <dc:title>ssf</dc:title>
     </cc:Agent>
    </dc:contributor>
    <dc:rights>
     <cc:Agent>
      <dc:title>Sixsixfive (sixisixfive.deviantart.com)</dc:title>
     </cc:Agent>
    </dc:rights>
    <dc:description>A simple icon theme published under CC-BY-SA_V4(http://creativecommons.org/licenses/by-sa/4.0)</dc:description>
    <dc:identifier>SSF</dc:identifier>
   </cc:Work>
  </rdf:RDF>
 </metadata>
 <!--Part of the Ivy icon them published under the CC-BY-SA_V4: http://creativecommons.org/licenses/by-sa/4.0 -->
</svg>
