<?xml version="1.0" encoding="UTF-8" standalone="no"?><svg xmlns:rdf="http://www.w3.org/1999/02/22-rdf-syntax-ns#" xmlns:cc="http://creativecommons.org/ns#" xmlns:svg="http://www.w3.org/2000/svg" id="svg2" viewBox="0 0 48 48" version="1.1" xmlns:dc="http://purl.org/dc/elements/1.1/" xmlns="http://www.w3.org/2000/svg"><defs id="defs4"><linearGradient id="0" x2="0" y2="44.02" y1="4.02" gradientUnits="userSpaceOnUse"><stop id="stop7" stop-color="#fff"/><stop offset="1" id="stop9" stop-color="#fff" stop-opacity="0"/></linearGradient><linearGradient id="1" x2="0" y2="45" y1="3" gradientUnits="userSpaceOnUse"><stop id="stop12" stop-color="#5288d1"/><stop offset="1" id="stop14" stop-color="#90b3e1"/></linearGradient></defs><rect rx="4" ry="4" height="42" id="rect16" opacity="0.1" width="42" x="3" y="4"/><rect rx="4" ry="4" height="42" id="rect18" width="42" x="3" y="3" fill="url(#1)"/><g id="g20" fill="none"><path id="path22" opacity="0.45" d="m 7,3.5128 c -1.94587,0 -3.5,1.5541 -3.5,3.5 l 0,34 c 0,1.9459 1.55413,3.5 3.5,3.5 l 34,0 c 1.94587,0 3.5,-1.5541 3.5,-3.5 l 0,-34 c 0,-1.9459 -1.55413,-3.5 -3.5,-3.5 l -34,0 z" stroke="#000"/><path id="path24" opacity="0.6" d="m 7,4.5128 c -1.40738,0 -2.5,1.0926 -2.5,2.5 l 0,34 c 0,1.4074 1.09262,2.5 2.5,2.5 l 34,0 c 1.40738,0 2.5,-1.0926 2.5,-2.5 l 0,-34 c 0,-1.4074 -1.09262,-2.5 -2.5,-2.5 l -34,0 z" stroke="url(#0)"/></g><path id="path26" opacity="0.302" d="m 34,6 c -2.09877,0 -3.8125,1.6421 -3.8125,3.65625 0,2.01415 1.71373,3.625 3.8125,3.625 2.09877,0 3.8125,-1.61085 3.8125,-3.625 C 37.8125,7.6421 36.09877,6 34,6 z M 18.4062,8.2188 c -0.37542,0.0357 -0.733393,0.212597 -1,0.46875 l -4.75,5.25 c -0.686091,0.565075 -0.733063,1.73022 -0.09375,2.34375 0.639309,0.613526 1.81743,0.564675 2.40625,-0.09375 l 4,-4.125 5.5,2.2188 -7.4688,8.75 c -0.136348,0.159486 -0.26552,0.353715 -0.375,0.53125 -1.18588,0.339567 -2.28434,0.86299 -3.21875,1.59375 l 3.2812,2.8438 c 0.792336,-0.492657 1.70434,-0.78125 2.71875,-0.78125 2.79836,0 5.09375,2.1895 5.09375,4.875 0,0.799321 -0.206438,1.55355 -0.5625,2.21875 l 3.125,2.7188 c 0.977055,-1.41135 1.53125,-3.11607 1.53125,-4.9375 0,-1.45771 -0.384816,-2.66009 -1.03125,-3.875 h 7.46875 v 9.53125 c -0.01262,0.856314 0.388861,1.65625 1.28125,1.65625 0.89239,0 1.70012,-0.799936 1.6875,-1.65625 v -11.125 c -8.8e-5,-0.84865 -0.803185,-1.62492 -1.6875,-1.625 H 26.4061 l 4.7188,-5.75 c 0.823411,-0.941222 1.17492,-2.26715 0.90625,-3.46875 -0.26867,-1.2016 -1.12795,-2.24708 -2.28125,-2.78125 -0.02616,-0.009 -0.06715,-0.02352 -0.09375,-0.03125 l -0.2188,-0.0938 C 29.38492,12.8574 29.334218,12.8284 29.2811,12.81265 L 19.2186,8.37515 c -0.247726,-0.10368 -0.543128,-0.146 -0.8125,-0.125 V 8.2189 z m -6.7188,18.75 c -1.06265,1.4479 -1.6875,3.2167 -1.6875,5.125 0,4.92341 4.15091,8.90625 9.28125,8.90625 2.31815,0 4.43507,-0.808677 6.0625,-2.15625 l -3.125,-2.7188 c -0.802505,0.512026 -1.77657,0.8125 -2.8125,0.8125 -2.79836,0 -5.0625,-2.15825 -5.0625,-4.84375 0,-0.819258 0.220876,-1.60398 0.59375,-2.28125 l -3.25,-2.8438 z"/><path id="path28" d="m 34,7 c -2.09877,0 -3.8125,1.6421 -3.8125,3.65625 0,2.01415 1.71373,3.625 3.8125,3.625 2.09877,0 3.8125,-1.61085 3.8125,-3.625 C 37.8125,8.6421 36.09877,7 34,7 z M 18.4062,9.2188 c -0.37542,0.0357 -0.733393,0.212597 -1,0.46875 l -4.75,5.25 c -0.686091,0.565075 -0.733063,1.73022 -0.09375,2.34375 0.639309,0.613526 1.81743,0.564675 2.40625,-0.09375 l 4,-4.125 5.5,2.2188 -7.4688,8.75 c -0.136348,0.159486 -0.26552,0.353715 -0.375,0.53125 -1.18588,0.339567 -2.28434,0.86299 -3.21875,1.59375 l 3.2812,2.8438 c 0.792336,-0.492657 1.70434,-0.78125 2.71875,-0.78125 2.79836,0 5.09375,2.1895 5.09375,4.875 0,0.799321 -0.206438,1.55355 -0.5625,2.21875 l 3.125,2.7188 c 0.977055,-1.41135 1.53125,-3.11607 1.53125,-4.9375 0,-1.45771 -0.384816,-2.66009 -1.03125,-3.875 h 7.46875 v 9.53125 c -0.01262,0.856314 0.388861,1.65625 1.28125,1.65625 0.89239,0 1.70012,-0.799936 1.6875,-1.65625 v -11.125 c -8.8e-5,-0.84865 -0.803185,-1.62492 -1.6875,-1.625 H 26.4061 l 4.7188,-5.75 c 0.823411,-0.941222 1.17492,-2.26715 0.90625,-3.46875 -0.26867,-1.2016 -1.12795,-2.24708 -2.28125,-2.78125 -0.02616,-0.009 -0.06715,-0.02352 -0.09375,-0.03125 l -0.2188,-0.0938 C 29.38492,13.8574 29.334218,13.8284 29.2811,13.81265 L 19.2186,9.37515 c -0.247726,-0.10368 -0.543128,-0.146 -0.8125,-0.125 V 9.2189 z m -6.7188,18.75 c -1.06265,1.4479 -1.6875,3.2167 -1.6875,5.125 0,4.92341 4.15091,8.90625 9.28125,8.90625 2.31815,0 4.43507,-0.808677 6.0625,-2.15625 l -3.125,-2.7188 c -0.802505,0.512026 -1.77657,0.8125 -2.8125,0.8125 -2.79836,0 -5.0625,-2.15825 -5.0625,-4.84375 0,-0.819258 0.220876,-1.60398 0.59375,-2.28125 l -3.25,-2.8438 z" fill="#fff"/><metadata id="metadata9999"><rdf:RDF><cc:Work><dc:format>image/svg+xml</dc:format><dc:type rdf:resource="http://purl.org/dc/dcmitype/StillImage"/><dc:title>Ivy icon theme</dc:title><cc:license rdf:resource="http://creativecommons.org/licenses/by-sa/4.0/"/><dc:creator><cc:Agent><dc:title>Sixsixfive (sixsixfive.deviantart.com)</dc:title></cc:Agent></dc:creator><dc:publisher><cc:Agent><dc:title>Sixsixfive (sixsixfive.deviantart.com)</dc:title></cc:Agent></dc:publisher><dc:source>https://github.com/sixsixfive</dc:source><dc:subject><rdf:Bag><rdf:li>ivy</rdf:li></rdf:Bag></dc:subject><dc:contributor><cc:Agent><dc:title>ssf</dc:title></cc:Agent></dc:contributor><dc:rights><cc:Agent><dc:title>Sixsixfive (sixisixfive.deviantart.com)</dc:title></cc:Agent></dc:rights><dc:description>A simple icon theme published under CC-BY-SA_V4(http://creativecommons.org/licenses/by-sa/4.0)</dc:description><dc:identifier>SSF</dc:identifier></cc:Work></rdf:RDF></metadata><!--Part of the Ivy icon them published under the CC-BY-SA_V4: http://creativecommons.org/licenses/by-sa/4.0 -->
</svg>