<?xml version="1.0" encoding="UTF-8" standalone="no"?>
<svg xmlns:dc="http://purl.org/dc/elements/1.1/" xmlns:cc="http://creativecommons.org/ns#" xmlns:rdf="http://www.w3.org/1999/02/22-rdf-syntax-ns#" xmlns:svg="http://www.w3.org/2000/svg" xmlns="http://www.w3.org/2000/svg" viewBox="0 0 32 32" id="svg2" version="1.1">
 <defs id="defs4">
  <linearGradient id="0" y1="1.641" y2="28.991" x2="0" gradientUnits="userSpaceOnUse">
   <stop stop-color="#dedede" id="stop7"/>
   <stop offset="1" stop-color="#ebebeb" id="stop9"/>
  </linearGradient>
 </defs>
 <path opacity="0.1" d="M 16 2 C 7.712541 2 1 8.712547 1 17 1 25.287456 7.712541 32 16 32 24.287461 32 31 25.287456 31 17 31 8.712547 24.287461 2 16 2 z m 0 8 c 3.865993 0 7 3.134007 7 7 0 3.865993 -3.134007 7 -7 7 -3.865993 0 -7 -3.134007 -7 -7 0 -3.865993 3.134007 -7 7 -7 z" id="path11"/>
 <path fill="url(#0)" d="M 16 1 C 7.712541 1 1 7.712547 1 16 1 24.287456 7.712541 31 16 31 24.287461 31 31 24.287456 31 16 31 7.712547 24.287461 1 16 1 z m 0 8 c 3.865993 0 7 3.134007 7 7 0 3.865993 -3.134007 7 -7 7 -3.865993 0 -7 -3.134007 -7 -7 0 -3.865993 3.134007 -7 7 -7 z" id="path13"/>
 <g transform="matrix(0,-1,1,0,0,32)" id="g15">
  <path d="m 16.34375,3.03125 a 0.450045,0.450045 0 0 0 -0.3125,0.4375 l 0,3.125 a 0.450045,0.450045 0 0 0 0.40625,0.4375 c 4.574936,0.229948 8.301302,3.956314 8.53125,8.53125 a 0.450045,0.450045 0 0 0 0.4375,0.40625 l 3.125,0 A 0.450045,0.450045 0 0 0 28.96875,15.5 C 28.716281,8.676274 23.323733,3.28372 16.5,3.03125 a 0.450045,0.450045 0 0 0 -0.15625,0 z" id="path17" fill="#5288d1"/>
  <g id="g19" fill="none" stroke="#000">
   <path d="M 16,1.5 C 7.974891,1.5 1.5,7.974897 1.5,16 1.5,24.02511 7.974891,30.5 16,30.5 24.02511,30.5 30.5,24.02511 30.5,16 30.5,7.974897 24.02511,1.5 16,1.5 Z m 0,7 c 4.128568,0 7.5,3.371432 7.5,7.5 0,4.128568 -3.371432,7.5 -7.5,7.5 -4.128568,0 -7.5,-3.371432 -7.5,-7.5 0,-4.128568 3.371432,-7.5 7.5,-7.5 z" id="path21" opacity="0.5"/>
   <path d="m 16.5625,3.5625 0,2.9375 0,0.03125 c 4.767034,0.290252 8.615998,4.139216 8.90625,8.90625 l 0.03125,0 2.9375,0 C 28.15065,8.957071 23.04294,3.849349 16.5625,3.5625 Z" id="path23" opacity="0.5" stroke-linejoin="round"/>
  </g>
 </g>
 <metadata id="metadata9999">
  <rdf:RDF>
   <cc:Work>
    <dc:format>image/svg+xml</dc:format>
    <dc:type rdf:resource="http://purl.org/dc/dcmitype/StillImage"/>
    <dc:title>Ivy icon theme</dc:title>
    <cc:license rdf:resource="http://creativecommons.org/licenses/by-sa/4.0/"/>
    <dc:creator>
     <cc:Agent>
      <dc:title>Sixsixfive (sixsixfive.deviantart.com)</dc:title>
     </cc:Agent>
    </dc:creator>
    <dc:publisher>
     <cc:Agent>
      <dc:title>Sixsixfive (sixsixfive.deviantart.com)</dc:title>
     </cc:Agent>
    </dc:publisher>
    <dc:source>https://github.com/sixsixfive</dc:source>
    <dc:subject>
     <rdf:Bag>
      <rdf:li>ivy</rdf:li>
     </rdf:Bag>
    </dc:subject>
    <dc:contributor>
     <cc:Agent>
      <dc:title>ssf</dc:title>
     </cc:Agent>
    </dc:contributor>
    <dc:rights>
     <cc:Agent>
      <dc:title>Sixsixfive (sixisixfive.deviantart.com)</dc:title>
     </cc:Agent>
    </dc:rights>
    <dc:description>A simple icon theme published under CC-BY-SA_V4(http://creativecommons.org/licenses/by-sa/4.0)</dc:description>
    <dc:identifier>SSF</dc:identifier>
   </cc:Work>
  </rdf:RDF>
 </metadata>
 <!--Part of the Ivy icon them published under the CC-BY-SA_V4: http://creativecommons.org/licenses/by-sa/4.0 -->
</svg>
