<?xml version="1.0" encoding="UTF-8" standalone="no"?>
<svg
   xmlns:dc="http://purl.org/dc/elements/1.1/"
   xmlns:cc="http://creativecommons.org/ns#"
   xmlns:rdf="http://www.w3.org/1999/02/22-rdf-syntax-ns#"
   xmlns:svg="http://www.w3.org/2000/svg"
   xmlns="http://www.w3.org/2000/svg"
   xmlns:xlink="http://www.w3.org/1999/xlink"
   id="svg2"
   version="1.1"
   viewBox="0 0 48 48">
  <rect
     x="5"
     y="6"
     id="rect4172"
     height="36"
     rx="2"
     width="42"
     ry="2"
     style="opacity:0.15;fill:#000000" />
  <defs
     id="defs4">
    <linearGradient
       id="linearGradient4226">
      <stop
         id="stop4228"
         stop-color="#6a6a6a"
         style="stop-color:#3c3c3c;stop-opacity:1" />
      <stop
         id="stop4230"
         stop-color="#333"
         offset="1"
         style="stop-color:#232323;stop-opacity:1" />
    </linearGradient>
    <linearGradient
       gradientUnits="userSpaceOnUse"
       y1="7.06"
       id="0"
       x1="43.917"
       y2="41.3"
       x2="43.928">
      <stop
         id="stop7"
         stop-color="#fff" />
      <stop
         stop-opacity="0"
         id="stop9"
         stop-color="#fff"
         offset="1" />
    </linearGradient>
    <linearGradient
       gradientTransform="translate(2,-1)"
       gradientUnits="userSpaceOnUse"
       xlink:href="#linearGradient4226"
       y1="42"
       id="linearGradient4234"
       y2="6"
       x2="0" />
    <linearGradient
       id="linearGradient4181">
      <stop
         id="stop4183"
         stop-color="#fff"
         stop-opacity="1" />
      <stop
         offset="1"
         id="stop4185"
         stop-color="#fff"
         stop-opacity="0" />
    </linearGradient>
    <linearGradient
       x2="0"
       y2="43"
       id="1-3"
       y1="3"
       gradientUnits="userSpaceOnUse"
       gradientTransform="matrix(0.69999997,0,0,0.7,50.316707,18.204427)">
      <stop
         stop-color="#66b03e"
         id="stop12-8" />
      <stop
         offset="1"
         stop-color="#95ce76"
         id="stop14-5" />
    </linearGradient>
    <linearGradient
       gradientTransform="translate(51.104666,2.9998442)"
       x2="22"
       y2="45"
       x1="22"
       id="linearGradient4187-1"
       y1="19"
       xlink:href="#linearGradient4181"
       gradientUnits="userSpaceOnUse" />
  </defs>
  <metadata
     id="metadata9999">
    <rdf:RDF>
      <cc:Work>
        <dc:format>image/svg+xml</dc:format>
        <dc:type
           rdf:resource="http://purl.org/dc/dcmitype/StillImage" />
        <dc:title></dc:title>
        <cc:license
           rdf:resource="http://creativecommons.org/licenses/by-sa/4.0/" />
        <dc:creator>
          <cc:Agent>
            <dc:title>Sixsixfive (sixsixfive.deviantart.com)</dc:title>
          </cc:Agent>
        </dc:creator>
        <dc:publisher>
          <cc:Agent>
            <dc:title>Sixsixfive (sixsixfive.deviantart.com)</dc:title>
          </cc:Agent>
        </dc:publisher>
        <dc:source>https://github.com/sixsixfive</dc:source>
        <dc:subject>
          <rdf:Bag>
            <rdf:li>ivy</rdf:li>
          </rdf:Bag>
        </dc:subject>
        <dc:contributor>
          <cc:Agent>
            <dc:title>ssf</dc:title>
          </cc:Agent>
        </dc:contributor>
        <dc:rights>
          <cc:Agent>
            <dc:title>Sixsixfive (sixisixfive.deviantart.com)</dc:title>
          </cc:Agent>
        </dc:rights>
        <dc:description>A simple icon theme published under CC-BY-SA_V4(http://creativecommons.org/licenses/by-sa/4.0)</dc:description>
        <dc:identifier>SSF</dc:identifier>
      </cc:Work>
    </rdf:RDF>
  </metadata>
  <!--Part of the Ivy icon them published under the CC-BY-SA_V4: http://creativecommons.org/licenses/by-sa/4.0 -->
  <rect
     ry="2"
     width="42"
     rx="2"
     height="36"
     id="rect18"
     y="5"
     x="5"
     style="fill:url(#linearGradient4234)" />
  <path
     d="M 9,9 9,37 43,37 43,9 9,9 Z"
     id="path20"
     style="fill:#447ece;fill-opacity:1" />
  <g
     transform="translate(2,-1)"
     id="g26"
     style="fill:none">
    <path
       d="M 5,6.5 C 4.161723,6.5 3.5,7.161723 3.5,8 l 0,32 c 0,0.838277 0.661723,1.5 1.5,1.5 l 38,0 c 0.838277,0 1.5,-0.661723 1.5,-1.5 l 0,-32 C 44.5,7.161723 43.838277,6.5 43,6.5 l -38,0 z"
       id="path28"
       style="opacity:0.7;stroke:#000000" />
    <path
       d="M 5,7.5 C 4.699797,7.5 4.5,7.699797 4.5,8 l 0,32 c 0,0.300203 0.199797,0.5 0.5,0.5 l 38,0 c 0.300203,0 0.5,-0.199797 0.5,-0.5 l 0,-32 C 43.5,7.699797 43.3002,7.5 43,7.5 l -38,0 z"
       id="path30"
       style="opacity:0.2;stroke:url(#0)" />
  </g>
  <path
     d="m 38,9 0,28 3,0 0,-28 -3,0 z"
     id="path4170"
     style="fill:#ffd506" />
  <rect
     ry="1"
     y="13"
     x="13"
     height="4"
     width="26"
     id="rect4176"
     style="opacity:0.4020001;fill:#000000;fill-opacity:1;stroke:none;stroke-opacity:1" />
  <path
     d="m 9,37 34,0 0,1 -34,0 z"
     id="path32"
     style="opacity:0.15;fill:#ffffff" />
  <path
     style="fill:#ffd506"
     id="path4168"
     d="m 33,9 0,28 3,0 0,-28 -3,0 z" />
  <path
     style="opacity:0.3;fill:#000000;fill-opacity:1;stroke:none;stroke-opacity:1"
     id="path4201"
     d="m 21,32.052734 c -1.062904,0 -1.947266,0.884362 -1.947266,1.947266 0,1.062904 0.884362,1.947266 1.947266,1.947266 1.062904,0 1.947266,-0.884362 1.947266,-1.947266 0,-1.062904 -0.884362,-1.947266 -1.947266,-1.947266 z m 5,0 c -1.062904,0 -1.947266,0.884362 -1.947266,1.947266 0,1.062904 0.884362,1.947266 1.947266,1.947266 1.062904,0 1.947266,-0.884362 1.947266,-1.947266 0,-1.062904 -0.884362,-1.947266 -1.947266,-1.947266 z m 5,0 c -1.062904,0 -1.947266,0.884362 -1.947266,1.947266 0,1.062904 0.884362,1.947266 1.947266,1.947266 1.062904,0 1.947266,-0.884362 1.947266,-1.947266 0,-1.062904 -0.884362,-1.947266 -1.947266,-1.947266 z" />
  <path
     d="m 9.5,9.5 0,27 33,0 0,-27 z"
     id="path36"
     style="opacity:1;fill:none;stroke:#000000" />
  <g
     id="g4184"
     transform="translate(3,-1)">
    <rect
       style="opacity:1;fill:#ffffff;fill-opacity:1;stroke:none;stroke-opacity:1"
       id="rect4180"
       width="2"
       height="2"
       x="22"
       y="34"
       ry="1" />
    <rect
       style="opacity:1;fill:#ffffff;fill-opacity:1;stroke:none;stroke-opacity:1"
       id="rect4182"
       width="2"
       height="2"
       x="17"
       y="34"
       ry="1" />
    <rect
       ry="1"
       y="34"
       x="27"
       height="2"
       width="2"
       id="rect4178"
       style="opacity:1;fill:#ffffff;fill-opacity:1;stroke:none;stroke-opacity:1" />
  </g>
  <rect
     style="opacity:1;fill:#ffffff;fill-opacity:1;stroke:none;stroke-opacity:1"
     id="rect4174"
     width="26"
     height="4"
     x="13"
     y="12"
     ry="1" />
  <g
     transform="translate(-52.105,-2.9378925)"
     id="g4738">
    <path
       d="m 53.104666,36.004427 a 14,14 0 0 0 27.999999,0 14,14 0 1 0 -27.999999,0 z"
       id="path4189-3"
       style="opacity:0.1;fill:#000000" />
    <path
       style="opacity:0.5;fill:#000000"
       id="path4172"
       d="m 54.105001,35.004427 a 14,14 0 0 0 27.999998,0 14,14 0 1 0 -27.999998,0 z" />
    <path
       d="m 53.104666,35.004427 a 14,14 0 0 0 27.999999,0 14,14 0 1 0 -27.999999,0 z"
       id="path18"
       style="fill:url(#1-3)" />
    <path
       d="m 66.682791,22.480313 c -5.161908,-0.06676 -9.912134,3.926235 -11.511719,8.791015 a 1.0338241,1.0338241 0 0 1 -0.0078,0.01953 c -0.896356,2.553917 -0.816741,5.422197 0.138672,7.970703 a 1.0338241,1.0338241 0 0 1 0.01563,0.04492 c 1.67397,5.183842 7.418556,8.51595 12.802734,8.185547 a 1.0338241,1.0338241 0 0 1 0.02148,-0.002 c 2.522945,-0.101114 4.96676,-1.160496 6.94336,-2.798828 a 1.0338241,1.0338241 0 0 1 0.02734,-0.02148 c 5.357977,-4.158253 5.906819,-13.184805 1.3125,-18.117188 l -0.0039,-0.0039 c -2.490584,-2.6232 -6.084809,-4.206358 -9.685547,-4.068359 a 1.0338241,1.0338241 0 0 1 -0.05273,0 z"
       id="path4179"
       style="opacity:0.4;fill:none;stroke:url(#linearGradient4187-1);stroke-linejoin:round" />
    <path
       d="m 71.104666,33.999844 a 4,4 0 0 1 -8,0 4,4 0 1 1 8,0 z"
       id="path26"
       style="opacity:0.4" />
    <path
       d="m 71.104666,34.999844 a 4,4 0 0 1 -8,0 4,4 0 1 1 8,0 z"
       id="path28-8"
       style="fill:#ffffff" />
    <path
       d="m 66.696463,21.44711 c -5.69048,-0.0736 -10.773099,4.226711 -12.507776,9.502342 -0.982038,2.798046 -0.894218,5.906402 0.1437,8.674987 1.842539,5.705855 8.004579,9.256683 13.849453,8.898008 2.783347,-0.111551 5.434003,-1.270365 7.563564,-3.03548 5.8913,-4.572158 6.476001,-14.23629 1.429528,-19.645484 C 74.486961,23.00797 70.624561,21.296565 66.696463,21.44711 Z"
       id="path3374"
       style="opacity:0.6;fill:none;stroke:#000000;stroke-linejoin:round" />
  </g>
</svg>
