<?xml version="1.0" encoding="UTF-8" standalone="no"?><svg xmlns:cc="http://creativecommons.org/ns#" xmlns:svg="http://www.w3.org/2000/svg" xmlns="http://www.w3.org/2000/svg" xmlns:dc="http://purl.org/dc/elements/1.1/" xmlns:rdf="http://www.w3.org/1999/02/22-rdf-syntax-ns#" id="svg2" version="1.1" viewBox="0 0 48 48" xmlns:xlink="http://www.w3.org/1999/xlink"><defs id="0"><linearGradient id="D"><stop id="U" stop-color="#66b03e"/><stop id="V" stop-color="#92ce75" offset="1"/></linearGradient><linearGradient gradientUnits="userSpaceOnUse" y1="1" xlink:href="#D" id="K" y2="46" x2="0"/><linearGradient gradientUnits="userSpaceOnUse" y1="11" xlink:href="#D" id="L" y2="46" x2="0"/><linearGradient gradientUnits="userSpaceOnUse" y1="21" xlink:href="#D" id="M" y2="46" x2="0"/><linearGradient gradientUnits="userSpaceOnUse" y1="31" xlink:href="#D" id="N" y2="46" x2="0"/><linearGradient gradientUnits="userSpaceOnUse" y1="41" xlink:href="#D" id="O" y2="46" x2="0"/></defs><g id="1"><path opacity="0.1" d="m 32,12 5,0 0,35 -5,0 z" id="P" fill-rule="evenodd"/><path opacity="0.1" d="m 22,22 5,0 0,25 -5,0 z" id="Q" fill-rule="evenodd"/><path opacity="0.1" d="m 12,32 5,0 0,15 -5,0 z" id="R" fill-rule="evenodd"/><path opacity="0.1" d="m 2,42 5,0 0,5 -5,0 z" id="S" fill-rule="evenodd"/><path opacity="0.1" d="m 42,2 5,0 0,45 -5,0 z" id="T" fill-rule="evenodd"/></g><rect width="5" height="35" id="2" y="11" fill-rule="evenodd" x="32" fill="url(#L)"/><rect width="5" height="25" id="3" y="21" fill-rule="evenodd" x="22" fill="url(#M)"/><rect width="5" height="15" id="4" y="31" fill-rule="evenodd" x="12" fill="url(#N)"/><rect width="5" height="5" id="5" y="41" fill-rule="evenodd" x="2" fill="url(#O)"/><rect width="5" height="45" id="6" y="1" fill-rule="evenodd" x="42" fill="url(#K)"/><path stroke="#000" opacity="0.4" d="m 42.5,1.5 0,44 4,0 0,-44 -4,0 z m -10,10 0,34 4,0 0,-34 -4,0 z m -10,10 0,24 4,0 0,-24 -4,0 z m -10,10 0,14 4,0 0,-14 -4,0 z m -10,10 0,4 4,0 0,-4 -4,0 z" id="7" fill="none"/><rect width="3" height="1" opacity="0.4" id="8" y="42" x="3" fill="#fff"/><rect width="3" height="1" opacity="0.4" id="9" y="32" x="13" fill="#fff"/><rect width="3" height="1" opacity="0.4" id="A" y="22" x="23" fill="#fff"/><rect width="3" height="1" opacity="0.4" id="B" y="12" x="33" fill="#fff"/><rect width="3" height="1" opacity="0.4" id="C" y="2" x="43" fill="#fff"/><metadata id="metadata9999"><rdf:RDF><cc:Work><dc:format>image/svg+xml</dc:format><dc:type rdf:resource="http://purl.org/dc/dcmitype/StillImage"/><dc:title>Ivy icon theme</dc:title><cc:license rdf:resource="http://creativecommons.org/licenses/by-sa/4.0/"/><dc:creator><cc:Agent><dc:title>Sixsixfive (sixsixfive.deviantart.com)</dc:title></cc:Agent></dc:creator><dc:publisher><cc:Agent><dc:title>Sixsixfive (sixsixfive.deviantart.com)</dc:title></cc:Agent></dc:publisher><dc:source>https://github.com/sixsixfive</dc:source><dc:subject><rdf:Bag><rdf:li>ivy</rdf:li></rdf:Bag></dc:subject><dc:contributor><cc:Agent><dc:title>ssf</dc:title></cc:Agent></dc:contributor><dc:rights><cc:Agent><dc:title>Sixsixfive (sixisixfive.deviantart.com)</dc:title></cc:Agent></dc:rights><dc:description>A simple icon theme published under CC-BY-SA_V4(http://creativecommons.org/licenses/by-sa/4.0)</dc:description><dc:identifier>SSF</dc:identifier></cc:Work></rdf:RDF></metadata><!--Part of the Ivy icon them published under the CC-BY-SA_V4: http://creativecommons.org/licenses/by-sa/4.0 -->
</svg>