<?xml version="1.0" encoding="UTF-8" standalone="no"?>
<svg
   xmlns:dc="http://purl.org/dc/elements/1.1/"
   xmlns:cc="http://creativecommons.org/ns#"
   xmlns:rdf="http://www.w3.org/1999/02/22-rdf-syntax-ns#"
   xmlns:svg="http://www.w3.org/2000/svg"
   xmlns="http://www.w3.org/2000/svg"
   xmlns:xlink="http://www.w3.org/1999/xlink"
   version="1.1"
   id="svg2"
   viewBox="0 0 32 32">
  <defs
     id="0">
    <linearGradient
       id="F">
      <stop
         id="K"
         stop-color="#fff" />
      <stop
         stop-opacity="0"
         id="L"
         stop-color="#fff"
         offset="1" />
    </linearGradient>
    <linearGradient
       gradientTransform="matrix(0.66666667 0 0 0.60869333 0 -0.434667)"
       x2="0"
       gradientUnits="userSpaceOnUse"
       y2="4"
       y1="27"
       id="G">
      <stop
         id="M"
         stop-color="#eee" />
      <stop
         id="N"
         stop-color="#dedede"
         offset="1" />
    </linearGradient>
    <linearGradient
       gradientTransform="matrix(0.66579838 0 0 0.62745099 0.031226 1.411796)"
       x2="0"
       gradientUnits="userSpaceOnUse"
       y2="44"
       y1="28"
       id="H">
      <stop
         id="O"
         stop-color="#999" />
      <stop
         id="P"
         stop-color="#ebebeb"
         offset="1" />
    </linearGradient>
    <radialGradient
       gradientTransform="matrix(0.66666667 0 0 0.64285903 0 0.382555)"
       gradientUnits="userSpaceOnUse"
       r="21"
       id="I"
       cy="44.548"
       cx="23">
      <stop
         id="Q"
         stop-color="#90b3e1" />
      <stop
         id="R"
         stop-color="#5288d1"
         offset="1" />
    </radialGradient>
    <linearGradient
       x2="0"
       gradientUnits="userSpaceOnUse"
       y2="28"
       y1="2"
       id="J"
       xlink:href="#F" />
    <filter
       id="filter4176"
       style="color-interpolation-filters:sRGB;">
      <feColorMatrix
         id="feColorMatrix4178"
         values="0.21 0.72 0.072 0 0 0.21 0.72 0.072 0 0 0.21 0.72 0.072 0 0 0 0 0 1 0 " />
    </filter>
  </defs>
  <g
     style="filter:url(#filter4176);opacity:0.5"
     id="g4160">
    <path
       style=""
       opacity="0.1"
       id="1"
       d="M 3.0416667,3 C 2.47197,3 2,3.4672833 2,4.0313223 L 2,28 c 2,2 0,0 2,2 l 24.958333,0 C 29.528033,30 30,29.53272 30,28.968676 L 30,4.0313223 C 30,3.4672833 29.528033,3 28.958333,3 z" />
    <path
       style=""
       fill="url(#I)"
       id="2"
       d="M 3.0416667,2 C 2.47197,2 2,2.4672833 2,3.0313223 L 2,27 c 2,2 0,0 2,2 l 24.958333,0 C 29.528033,29 30,28.53272 30,27.968676 L 30,3.0313223 C 30,2.4672833 29.528033,2 28.958333,2 z" />
    <path
       style=""
       fill="url(#H)"
       id="4"
       d="M 9.4356277,19 C 8.6400719,19 8,19.627878 8,20.392157 v 8.27451 A 0.36065699,0.33988455 0 0 0 8.3537053,29 H 23.646296 A 0.36065699,0.33988455 0 0 0 24,28.666667 v -8.27451 C 24,19.635469 23.380735,19 22.585179,19 H 9.435661 z" />
    <path
       style=""
       opacity="0.4"
       fill="none"
       stroke="#000"
       id="3"
       d="m 3.03125,2.46875 c -0.3109478,0 -0.5625,0.2566406 -0.5625,0.5625 l 0,23.75 1.75,1.75 24.75,0 c 0.310955,0 0.5625,-0.256631 0.5625,-0.5625 l 0,-24.9375 c 0,-0.3058612 -0.251547,-0.5625 -0.5625,-0.5625 l -25.9375,0 z" />
    <path
       style=""
       opacity="0.47"
       fill="none"
       stroke="#000"
       id="6"
       d="m 9.4375,19.46875 c -0.5409584,0 -0.96875,0.438226 -0.96875,0.9375 l 0,8.125 15.0625,0 0,-8.125 c 0,-0.502054 -0.399552,-0.9375 -0.9375,-0.9375 l -13.15625,0 z" />
    <rect
       style=""
       width="3"
       x="11"
       y="22"
       fill="#5288d1"
       rx="0.448"
       ry="0.373"
       height="5"
       id="5" />
    <path
       style=""
       opacity="0.4"
       fill="none"
       stroke="#000"
       id="7"
       d="m 11.4375,21.53125 c -0.456989,0 -0.90625,0.35522 -0.90625,0.84375 l 0,4.25 c 0,0.48853 0.449261,0.84375 0.90625,0.84375 l 2.125,0 c 0.456989,0 0.90625,-0.35522 0.90625,-0.84375 l 0,-4.25 c 0,-0.48853 -0.449261,-0.84375 -0.90625,-0.84375 l -2.125,0 z" />
    <rect
       style=""
       width="14"
       opacity="0.4"
       x="9"
       y="20"
       fill="#fff"
       rx="0.448"
       ry="0.373"
       height="1"
       id="8" />
    <path
       style=""
       fill="url(#G)"
       id="9"
       d="M 6,2 H 26 V 16 H 6 z" />
    <rect
       style=""
       width="20"
       x="6"
       y="2"
       fill="#d02604"
       rx="0.084"
       ry="0.095"
       height="3"
       id="A" />
    <path
       style=""
       fill="#fff"
       id="B"
       d="M 6,5 H 26 V 6 H 6 z" />
    <path
       style=""
       opacity="0.4"
       fill="none"
       stroke="#000"
       id="C"
       d="m 6.46875,2.46875 0,13.0625 19.0625,0 0,-13.0625 -19.0625,0 z" />
    <path
       style=""
       opacity="0.4"
       fill="none"
       stroke="url(#J)"
       id="D"
       d="m 3.5,3.5 0,22.875 1.125,1.125 23.875,0 0,-24 -25,0 z" />
    <rect
       style=""
       width="20"
       opacity="0.4"
       x="6"
       y="16"
       fill="#fff"
       rx="0.084"
       ry="0.095"
       height="1"
       id="E" />
  </g>
  <metadata
     id="metadata9999">
    <rdf:RDF>
      <cc:Work>
        <dc:format>image/svg+xml</dc:format>
        <dc:type
           rdf:resource="http://purl.org/dc/dcmitype/StillImage" />
        <dc:title></dc:title>
        <cc:license
           rdf:resource="http://creativecommons.org/licenses/by-sa/4.0/" />
        <dc:creator>
          <cc:Agent>
            <dc:title>Sixsixfive (sixsixfive.deviantart.com)</dc:title>
          </cc:Agent>
        </dc:creator>
        <dc:publisher>
          <cc:Agent>
            <dc:title>Sixsixfive (sixsixfive.deviantart.com)</dc:title>
          </cc:Agent>
        </dc:publisher>
        <dc:source>https://github.com/sixsixfive</dc:source>
        <dc:subject>
          <rdf:Bag>
            <rdf:li>ivy</rdf:li>
          </rdf:Bag>
        </dc:subject>
        <dc:contributor>
          <cc:Agent>
            <dc:title>ssf</dc:title>
          </cc:Agent>
        </dc:contributor>
        <dc:rights>
          <cc:Agent>
            <dc:title>Sixsixfive (sixisixfive.deviantart.com)</dc:title>
          </cc:Agent>
        </dc:rights>
        <dc:description>A simple icon theme published under CC-BY-SA_V4(http://creativecommons.org/licenses/by-sa/4.0)</dc:description>
        <dc:identifier>SSF</dc:identifier>
      </cc:Work>
    </rdf:RDF>
  </metadata>
  <!--Part of the Ivy icon them published under the CC-BY-SA_V4: http://creativecommons.org/licenses/by-sa/4.0 -->
</svg>
