<?xml version="1.0" encoding="UTF-8" standalone="no"?>
<svg xmlns:dc="http://purl.org/dc/elements/1.1/" xmlns:cc="http://creativecommons.org/ns#" xmlns:rdf="http://www.w3.org/1999/02/22-rdf-syntax-ns#" xmlns:svg="http://www.w3.org/2000/svg" xmlns="http://www.w3.org/2000/svg" xmlns:xlink="http://www.w3.org/1999/xlink" viewBox="0 0 32 32" id="svg2" version="1.1">
 <defs id="defs4">
  <linearGradient id="0" xlink:href="#3" y1="4" y2="29" x2="0" gradientUnits="userSpaceOnUse"/>
  <linearGradient id="1" xlink:href="#3" y1="18.05" x1="29.938" y2="31" x2="30" gradientUnits="userSpaceOnUse"/>
  <linearGradient id="2" y1="17" y2="31" x2="0" gradientUnits="userSpaceOnUse">
   <stop stop-color="#ff8b36" id="stop9"/>
   <stop offset="1" stop-color="#ffb782" id="stop11"/>
  </linearGradient>
  <linearGradient id="3">
   <stop stop-color="#fff" id="stop14"/>
   <stop offset="1" stop-color="#fff" stop-opacity="0" id="stop16"/>
  </linearGradient>
  <linearGradient id="4" y1="3.508" x1="30.922" y2="56.29" x2="31.33" gradientUnits="userSpaceOnUse" gradientTransform="matrix(0.68904 0 0 0.66667 -0.537 0)">
   <stop stop-color="#171717" id="stop19"/>
   <stop offset="1" stop-color="#555" id="stop21"/>
  </linearGradient>
 </defs>
 <g id="g23" fill-rule="evenodd">
  <path d="m 15.8125,2.996788 c -6.644872,0.173481 -7.88597,4.93037 -7.53125,8.5 0.423525,0.304477 0.430602,0.344351 0.875,0.46875 -0.312902,3.02106 0.876866,5.902931 3.03125,8.03125 -0.123341,0.702572 -0.402132,1.208175 -0.8125,1.9375 l -6.9375,1.34375 c -3.362159,0.75252 -3.603204,5.369192 -3.375,7.71875 19.312662,-0.05303 17.666951,-0.03367 19.28125,-0.03125 a 7,7 0 0 0 7.375,-0.03125 c 2.00211,-0.0069 4.39e-4,0.01203 3.28125,0 -0.04014,-1.00448 -0.117007,-2.32863 -0.40625,-3.59375 A 7,7 0 0 0 31,24.996788 a 7,7 0 0 0 -9.625,-6.5 c 1.151316,-1.926892 1.693033,-4.96114 1.75,-5.3125 0.37657,-0.491265 0.273502,-1.307885 0.375,-1.96875 0.52808,-3.438617 -1.465302,-8.117417 -7.03125,-8.21875 -0.2257,-0.004 -0.441889,-0.0056 -0.65625,0 z" id="path25" opacity="0.1"/>
  <path d="m 15.808195,2.00364 c -6.644872,0.173486 -7.89499,4.918567 -7.54027,8.488197 0.423525,0.304477 0.45439,0.34502 0.898788,0.469419 -0.312902,3.02106 0.875987,5.905845 3.03037,8.03416 -0.123341,0.702572 -0.400919,1.202476 -0.811287,1.931801 L 4.450094,22.266006 C 1.087935,23.01853 0.833554,27.650442 1.061758,30 31.01357,29.91776 1.00389,30.04843 31,29.93843 30.897356,27.369792 30.522257,22.804036 27.10262,22.0967 l -6.56989,-1.107915 c -4.9e-4,-0.02047 0.0013,-0.04108 0,-0.06157 L 20.12709,18.86458 c 2.01835,-1.160926 2.923983,-6.204184 2.998592,-6.664358 0.37657,-0.491265 0.288247,-1.332272 0.389745,-1.993137 0.52808,-3.438617 -1.473181,-8.102127 -7.03913,-8.20346 -0.2257,-0.004 -0.453755,-0.0056 -0.668116,0 z" id="path27" fill="url(#4)"/>
 </g>
 <path fill="none" stroke="#000" d="m 15.8125 2.5625 c -3.18778 0.083225 -4.91121 1.215032 -5.90625 2.71875 -0.942427 1.424208 -1.18187 3.245396 -1.0625 4.875 0.11938 0.09216 0.186881 0.171097 0.46875 0.25 a 0.56881 0.56881 0 0 1 0.40625 0.625 c -0.293863 2.837236 0.828747 5.541004 2.875 7.5625 a 0.56881 0.56881 0 0 1 0.15625 0.5 c -0.140544 0.800563 -0.463529 1.393715 -0.875 2.125 A 0.56881 0.56881 0 0 1 11.46875 21.5 l -6.90625 1.34375 h -0.03125 c -1.422262 0.33144 -2.177004 1.422104 -2.59375 2.84375 -0.367241 1.25277 -0.377749 2.656353 -0.3125 3.75 6.861566 -0.0186 10.743293 -0.03018 12.53125 -0.03125 0.934107 -0.000561 1.389827 -0.0017 1.625 0 0.117586 0.00084 0.175209 -0.0016 0.21875 0 0.02177 0.000816 0.04553 -0.01404 0.125 0 0.03007 0.000403 0.04845 -0.000258 0.125 0 0.229646 0.000775 0.688975 0.0023 1.625 0 1.782905 -0.0044 5.69424 -0.0064 12.5 -0.03125 C 30.30829 28.1816 30.18189 26.74944 29.75 25.5 29.25246 24.06063 28.456816 22.970255 27 22.65625 h -0.03125 l -6.53125 -1.09375 a 0.56881 0.56881 0 0 1 -0.46875 -0.5 0.56881 0.56881 0 0 1 0 -0.0625 c -0.0015 -0.06314 -0.0024 -0.06882 0 -0.03125 L 19.5625 19 a 0.56881 0.56881 0 0 1 0.28125 -0.625 c 0.731127 -0.420533 1.496047 -1.859173 1.96875 -3.28125 0.472703 -1.422077 0.718196 -2.803837 0.75 -3 a 0.56881 0.56881 0 0 1 0.125 -0.25 c 0.08047 -0.104984 0.12608 -0.315967 0.15625 -0.625 0.03017 -0.309033 0.03328 -0.700023 0.09375 -1.09375 0.241867 -1.574928 -0.09229 -3.461609 -1.125 -4.9375 -1.032706 -1.475891 -2.718828 -2.577211 -5.34375 -2.625 -0.221953 -0.00393 -0.454696 -0.00527 -0.65625 0 z" id="path29"/>
 <path opacity="0.3" fill="url(#0)" color="#000" d="m 15.84375 3.0625 c -3.055732 0.079777 -4.641045 1.15471 -5.53125 2.5 -0.771512 1.165919 -0.957387 2.627677 -0.9375 4 v 0.3125 L 9.65625 10 c 0.362982 0.18704 0.605186 0.6564 0.5625 1.0625 -0.276705 2.671579 0.769655 5.230737 2.71875 7.15625 v 0.03125 c 0.246135 0.233167 0.369508 0.603286 0.3125 0.9375 -0.154387 0.879414 -0.523177 1.544896 -0.9375 2.28125 -0.15004 0.256141 -0.427153 0.444398 -0.71875 0.5 l -6.8125 1.34375 h -0.09375 h -0.0625 c -0.589471 0.138614 -1.08219 0.471005 -1.4375 0.90625 -0.35531 0.435245 -0.560534 0.947423 -0.75 1.59375 -0.264042 0.900727 -0.208008 1.810101 -0.21875 2.625 v 0.5 h 0.5 c 5.739428 -0.01513 9.806603 -0.03027 11.4375 -0.03125 0.935329 -0.000561 1.420642 -0.0017 1.65625 0 0.131823 0.000942 0.174443 -0.0017 0.21875 0 0.02675 0.004 0.06052 -0.000058 0.0625 0 0.006 -0.000341 -0.0137 0.0029 0.03125 0 v -0.40625 c 0.02529 0.122931 0.0625 0.40625 0.0625 0.40625 0.02037 0.000039 0.03468 -0.000094 0.0625 0 0.224257 0.000756 0.688616 0.0023 1.625 0 1.611885 -0.004 5.710669 -0.011 11.3125 -0.03125 h 0.5625 l -0.0625 -0.5625 c -0.08857 -0.851193 -0.102987 -1.747664 -0.40625 -2.625 -0.225093 -0.651191 -0.469358 -1.190278 -0.84375 -1.625 -0.374392 -0.434722 -0.873123 -0.766408 -1.46875 -0.90625 h -0.03125 L 20.375 22.0625 C 19.959047 21.989 19.563459 21.605103 19.5 21.1875 v -0.0625 l -0.03125 -0.03125 v -0.0625 v -0.0625 v -0.03125 l -0.375 -1.84375 c -0.08835 -0.416136 0.131911 -0.942977 0.5 -1.15625 0.230619 -0.132648 0.302247 -0.260885 0.4375 -0.4375 0.135253 -0.176615 0.280716 -0.395038 0.4375 -0.65625 0.313567 -0.522423 0.637168 -1.190757 0.875 -1.90625 0.461623 -1.388742 0.697236 -2.773557 0.71875 -2.90625 0.026 -0.162851 0.09098 -0.33426 0.1875 -0.46875 0.0018 -0.003 0.01659 -0.01212 0.03125 -0.03125 L 21.90625 11.25 C 22.02293 11.18279 22.25 11.0625 22.25 11.0625 l 0.03125 0.09375 c -0.000006 -0.000039 0.03125 0.187562 0.03125 0.1875 0.009 -0.04559 0.02479 -0.09009 0.03125 -0.15625 0.02977 -0.304888 0.02301 -0.695641 0.09375 -1.15625 C 22.661297 8.573991 22.328345 6.831223 21.375 5.46875 20.439539 4.131837 18.909201 3.107499 16.4375 3.0625 c -0.21948 -0.00389 -0.403507 -0.00497 -0.59375 0 z m 0 1 c 0.167655 -0.00438 0.382552 -0.00374 0.59375 0 2.220207 0.040421 3.331725 0.835041 4.125 1.96875 0.775391 1.10815 1.056665 2.69208 0.875 3.875 -0.08451 0.550279 -0.07666 0.981234 -0.09375 1.15625 -0.004 0.04101 0.0028 0.08089 0 0.09375 -0.0028 0.01286 -0.0156 -0.02825 -0.03125 0.03125 -0.002 0.0074 0.000051 0.06216 0 0.0625 -0.000013 0.000085 0.000004 0.03119 0 0.03125 -0.09316 0.18729 -0.216787 0.354466 -0.25 0.5625 -0.02268 0.139877 -0.227805 1.492318 -0.65625 2.78125 -0.207202 0.623344 -0.531791 1.25107 -0.8125 1.71875 -0.140355 0.23384 -0.270146 0.425581 -0.375 0.5625 -0.104854 0.136919 -0.235439 0.219772 -0.125 0.15625 -0.770371 0.446358 -1.184911 1.347822 -1 2.21875 l 0.375 1.8125 v 0.03125 c 0 0.01373 -0.000273 0.01752 0 0.03125 v 0.09375 l 0.03125 0.0625 c 0.0051 0.03326 0.02461 0.061 0.03125 0.09375 0.167676 0.826824 0.819749 1.508435 1.65625 1.65625 l 6.53125 1.09375 h 0.03125 c 0.399655 0.09907 0.662797 0.248567 0.90625 0.53125 0.249755 0.29 0.484554 0.725382 0.6875 1.3125 0.177393 0.513195 0.190821 1.204886 0.25 1.875 -5.154882 0.0179 -9.190291 0.0275 -10.71875 0.03125 -0.934476 0.0023 -1.400839 0.000756 -1.625 0 -0.04235 -0.000143 -0.06778 0.000024 -0.09375 0 l 0.0625 0.03125 c 0 0 -0.100264 0.314093 -0.125 0.40625 v -0.4375 c -0.01086 -0.000407 -0.02126 0.000232 -0.03125 0 -0.01998 -0.000465 -0.04447 -0.000025 -0.0625 0 -0.0541 0.000075 -0.114094 0.000524 -0.1875 0 -0.248256 -0.0018 -0.721549 -0.000561 -1.65625 0 C 12.596163 27.907186 8.572401 27.9231 3.25 27.9375 3.25154 27.28488 3.219674 26.654865 3.375 26.125 3.544691 25.546133 3.741975 25.12154 3.96875 24.84375 4.189705 24.573086 4.451596 24.409865 4.84375 24.3125 h 0.03125 l 6.90625 -1.34375 c 0.586432 -0.111822 1.104504 -0.484873 1.40625 -1 C 13.600013 21.235614 14.06257 20.44263 14.25 19.375 14.364274 18.705055 14.11045 18.00521 13.625 17.53125 11.863301 15.790865 10.974939 13.541485 11.21875 11.1875 11.29304 10.480775 10.91692 9.841737 10.375 9.40625 10.374 8.188562 10.557625 6.982425 11.125 6.125 11.866561 5.00434 12.99927 4.136762 15.84375 4.0625 z" id="path31"/>
 <path fill="url(#2)" d="m 31 24.00118 a 7 7 0 0 1 -14 0 7 7 0 1 1 14 0 z" id="path33"/>
 <g id="g35" fill="none">
  <path d="m 23.875,17.5625 c -0.126382,0.0024 -0.186396,0.02255 -0.3125,0.03125 -0.126104,0.0087 -0.186989,0.01625 -0.3125,0.03125 -0.125511,0.015 -0.219148,0.01 -0.34375,0.03125 -0.124602,0.02127 -0.189119,0.03502 -0.3125,0.0625 -0.123381,0.02748 -0.190649,0.06013 -0.3125,0.09375 -0.121851,0.03362 -0.192485,0.05407 -0.3125,0.09375 -0.120015,0.03968 -0.163371,0.04811 -0.28125,0.09375 -0.117879,0.04564 -0.197054,0.07352 -0.3125,0.125 -0.115446,0.05148 -0.168525,0.0678 -0.28125,0.125 -0.112725,0.0572 -0.17153,0.09348 -0.28125,0.15625 -0.10972,0.06277 -0.174809,0.11932 -0.28125,0.1875 -0.106441,0.06818 -0.147106,0.08283 -0.25,0.15625 -0.102894,0.07342 -0.18216,0.140269 -0.28125,0.21875 -0.09909,0.07848 -0.154963,0.104157 -0.25,0.1875 -0.09504,0.08334 -0.128004,0.130754 -0.21875,0.21875 -0.09075,0.088 -0.132523,0.157572 -0.21875,0.25 -0.08623,0.09243 -0.137258,0.122121 -0.21875,0.21875 -0.08149,0.09663 -0.142197,0.149413 -0.21875,0.25 -0.07655,0.100587 -0.116078,0.176957 -0.1875,0.28125 -0.07142,0.104293 -0.09014,0.142263 -0.15625,0.25 -0.06611,0.107737 -0.09561,0.170338 -0.15625,0.28125 -0.06064,0.110912 -0.101243,0.167442 -0.15625,0.28125 -0.05501,0.113808 -0.07576,0.196081 -0.125,0.3125 -0.04924,0.116419 -0.08165,0.162512 -0.125,0.28125 -0.04335,0.118738 -0.08765,0.191741 -0.125,0.3125 -0.03735,0.120759 -0.03124,0.190022 -0.0625,0.3125 -0.03126,0.122478 -0.06866,0.188611 -0.09375,0.3125 -0.02509,0.123889 -0.01239,0.18751 -0.03125,0.3125 -0.01886,0.12499 -0.04992,0.186723 -0.0625,0.3125 -0.01258,0.125777 0.0063,0.217501 0,0.34375 -0.0063,0.126249 -0.03131,0.186096 -0.03125,0.3125 2.1e-5,0.123887 0.02515,0.188763 0.03125,0.3125 0.0061,0.123737 -0.01216,0.189211 0,0.3125 0.01216,0.123289 0.0443,0.189956 0.0625,0.3125 0.0182,0.122544 0.0071,0.190997 0.03125,0.3125 0.02419,0.121503 0.03238,0.19233 0.0625,0.3125 0.03012,0.12017 0.05777,0.193952 0.09375,0.3125 0.03598,0.118548 0.052,0.16461 0.09375,0.28125 0.04175,0.11664 0.07758,0.198049 0.125,0.3125 0.04742,0.114451 0.07202,0.169264 0.125,0.28125 0.05298,0.111986 0.09784,0.171998 0.15625,0.28125 0.05841,0.109252 0.09255,0.174995 0.15625,0.28125 0.0637,0.106255 0.08741,0.146999 0.15625,0.25 0.06884,0.103001 0.11369,0.18175 0.1875,0.28125 0.07381,0.0995 0.108898,0.122991 0.1875,0.21875 0.0786,0.09576 0.135544,0.158213 0.21875,0.25 0.08321,0.09179 0.131141,0.131156 0.21875,0.21875 0.08761,0.08759 0.126949,0.13556 0.21875,0.21875 0.0918,0.08319 0.154228,0.140164 0.25,0.21875 0.09577,0.07859 0.119238,0.113707 0.21875,0.1875 0.09951,0.07379 0.178237,0.118678 0.28125,0.1875 0.103013,0.06882 0.143735,0.09257 0.25,0.15625 0.106265,0.06368 0.171988,0.09786 0.28125,0.15625 0.109262,0.05839 0.169255,0.103287 0.28125,0.15625 0.111995,0.05296 0.166791,0.07759 0.28125,0.125 0.114459,0.04741 0.195853,0.08327 0.3125,0.125 0.116647,0.04173 0.162696,0.05779 0.28125,0.09375 0.118554,0.03596 0.192325,0.0324 0.3125,0.0625 0.120175,0.0301 0.190993,0.06958 0.3125,0.09375 0.121507,0.02417 0.189953,0.01307 0.3125,0.03125 0.122547,0.01818 0.189209,0.05036 0.3125,0.0625 0.123291,0.01214 0.188762,-0.0061 0.3125,0 0.123738,0.0061 0.188613,0.03125 0.3125,0.03125 0.123887,0 0.188762,-0.02517 0.3125,-0.03125 0.123738,-0.0061 0.189209,0.01214 0.3125,0 0.123291,-0.01214 0.189953,-0.04432 0.3125,-0.0625 0.122547,-0.01818 0.190993,-0.0071 0.3125,-0.03125 0.121507,-0.02417 0.192325,-0.06365 0.3125,-0.09375 0.120175,-0.0301 0.193946,-0.02654 0.3125,-0.0625 0.118554,-0.03596 0.164603,-0.05202 0.28125,-0.09375 0.116647,-0.04173 0.198041,-0.07759 0.3125,-0.125 0.114459,-0.04741 0.169255,-0.07204 0.28125,-0.125 0.111995,-0.05296 0.171988,-0.09786 0.28125,-0.15625 0.109262,-0.05839 0.174985,-0.09257 0.28125,-0.15625 0.106265,-0.06368 0.146987,-0.08743 0.25,-0.15625 0.103013,-0.06882 0.181738,-0.113707 0.28125,-0.1875 0.09951,-0.07379 0.122978,-0.108914 0.21875,-0.1875 0.09577,-0.07859 0.158199,-0.13556 0.25,-0.21875 0.0918,-0.08319 0.131141,-0.131156 0.21875,-0.21875 0.08761,-0.08759 0.135544,-0.126963 0.21875,-0.21875 0.08321,-0.09179 0.140148,-0.154241 0.21875,-0.25 0.0786,-0.09576 0.11369,-0.11925 0.1875,-0.21875 0.07381,-0.0995 0.118661,-0.178249 0.1875,-0.28125 0.06884,-0.103001 0.09255,-0.143745 0.15625,-0.25 0.0637,-0.106255 0.09784,-0.171998 0.15625,-0.28125 0.05841,-0.109252 0.103268,-0.169264 0.15625,-0.28125 0.05298,-0.111986 0.07758,-0.166799 0.125,-0.28125 0.04742,-0.114451 0.08325,-0.19586 0.125,-0.3125 0.04175,-0.11664 0.05777,-0.162702 0.09375,-0.28125 0.03598,-0.118548 0.06363,-0.19233 0.09375,-0.3125 0.03012,-0.12017 0.03831,-0.190997 0.0625,-0.3125 0.02419,-0.121503 0.01305,-0.189956 0.03125,-0.3125 0.0182,-0.122544 0.05034,-0.189211 0.0625,-0.3125 0.01216,-0.123289 -0.0061,-0.188763 0,-0.3125 0.0061,-0.123737 0.03123,-0.188613 0.03125,-0.3125 5.9e-5,-0.121474 -0.02547,-0.191164 -0.03125,-0.3125 -0.0058,-0.121336 0.01161,-0.191583 0,-0.3125 C 30.39464,23.254083 30.39242,23.182718 30.375,23.0625 30.35758,22.942282 30.33568,22.900491 30.3125,22.78125 30.28932,22.662009 30.27889,22.586738 30.25,22.46875 30.22111,22.350762 30.19078,22.272711 30.15625,22.15625 30.12172,22.039789 30.1026,21.989665 30.0625,21.875 30.0224,21.760335 30.01432,21.706354 29.96875,21.59375 29.92318,21.481146 29.89468,21.422781 29.84375,21.3125 29.79282,21.202219 29.743677,21.138953 29.6875,21.03125 29.63132,20.923547 29.62379,20.854876 29.5625,20.75 29.50121,20.645124 29.441268,20.601806 29.375,20.5 29.30873,20.398194 29.28984,20.3485 29.21875,20.25 29.14766,20.1515 29.106995,20.094966 29.03125,20 28.9555,19.90503 28.892726,19.841212 28.8125,19.75 28.73227,19.65879 28.709521,19.618497 28.625,19.53125 28.54048,19.444 28.49487,19.39558 28.40625,19.3125 c -0.08862,-0.08308 -0.157486,-0.140029 -0.25,-0.21875 -0.09251,-0.07872 -0.122556,-0.113321 -0.21875,-0.1875 -0.09619,-0.07418 -0.150349,-0.118035 -0.25,-0.1875 -0.09965,-0.06947 -0.178372,-0.09166 -0.28125,-0.15625 -0.102878,-0.06459 -0.144134,-0.09668 -0.25,-0.15625 C 27.050384,18.34668 26.983609,18.304405 26.875,18.25 26.766391,18.1956 26.704851,18.17412 26.59375,18.125 26.482649,18.07588 26.425835,18.04372 26.3125,18 26.199165,17.95628 26.146557,17.94446 26.03125,17.90625 25.915943,17.86804 25.835762,17.84512 25.71875,17.8125 25.601738,17.77988 25.555945,17.74571 25.4375,17.71875 25.319055,17.69179 25.244605,17.67748 25.125,17.65625 25.005395,17.63502 24.932988,17.64045 24.8125,17.625 24.692012,17.60955 24.621091,17.60338 24.5,17.59375 24.378909,17.58415 24.308914,17.5663 24.1875,17.5625 c -0.126343,-0.0039 -0.186118,-0.0024 -0.3125,0 z" id="path37" opacity="0.397" stroke="#000"/>
  <path d="m 23.625,18.5625 c -0.285388,0.01969 -0.249261,0.04562 -0.53125,0.09375 -0.281989,0.04813 -0.255487,0.01766 -0.53125,0.09375 -0.275763,0.07609 -0.264478,0.08422 -0.53125,0.1875 -0.266772,0.103281 -0.244892,0.08931 -0.5,0.21875 -0.255108,0.129438 -0.227863,0.126952 -0.46875,0.28125 -0.240887,0.154298 -0.213249,0.134889 -0.4375,0.3125 -0.224251,0.177611 -0.200882,0.144606 -0.40625,0.34375 -0.205368,0.199144 -0.190574,0.187569 -0.375,0.40625 -0.184426,0.218681 -0.150865,0.201474 -0.3125,0.4375 -0.161635,0.236026 -0.175275,0.217744 -0.3125,0.46875 C 19.08152,21.657256 19.11144,21.611531 19,21.875 c -0.111438,0.263469 -0.102965,0.257959 -0.1875,0.53125 -0.08453,0.273291 -0.06821,0.219625 -0.125,0.5 -0.05679,0.280375 -0.06528,0.277853 -0.09375,0.5625 -0.02847,0.284647 -0.03139,0.245183 -0.03125,0.53125 4.7e-5,0.28037 0.0037,0.252234 0.03125,0.53125 0.02753,0.279016 0.03901,0.256275 0.09375,0.53125 0.05474,0.274975 0.04358,0.231713 0.125,0.5 0.08142,0.268287 0.04892,0.240985 0.15625,0.5 0.107326,0.259015 0.117806,0.252751 0.25,0.5 0.132194,0.247249 0.09421,0.235647 0.25,0.46875 0.15579,0.233103 0.165864,0.189538 0.34375,0.40625 0.177886,0.216712 0.145481,0.208015 0.34375,0.40625 0.198269,0.198235 0.189508,0.165901 0.40625,0.34375 0.216742,0.177849 0.173121,0.156749 0.40625,0.3125 0.233129,0.155751 0.221478,0.149097 0.46875,0.28125 0.247272,0.132153 0.209717,0.142718 0.46875,0.25 0.259033,0.107282 0.26295,0.07487 0.53125,0.15625 0.2683,0.08138 0.225016,0.07031 0.5,0.125 0.274984,0.05469 0.252229,0.06627 0.53125,0.09375 0.279021,0.02748 0.25088,0.03125 0.53125,0.03125 0.28037,0 0.252229,-0.0038 0.53125,-0.03125 0.279021,-0.02748 0.256266,-0.03906 0.53125,-0.09375 0.274984,-0.05469 0.2317,-0.04362 0.5,-0.125 0.2683,-0.08138 0.272217,-0.04897 0.53125,-0.15625 0.259033,-0.107282 0.221478,-0.117847 0.46875,-0.25 0.247272,-0.132153 0.235621,-0.125499 0.46875,-0.28125 0.233129,-0.155751 0.189508,-0.134651 0.40625,-0.3125 0.216742,-0.177849 0.207981,-0.145515 0.40625,-0.34375 0.198269,-0.198235 0.165864,-0.189538 0.34375,-0.40625 0.177886,-0.216712 0.18796,-0.173147 0.34375,-0.40625 0.15579,-0.233103 0.117806,-0.221501 0.25,-0.46875 0.132194,-0.247249 0.142674,-0.240985 0.25,-0.5 0.107326,-0.259015 0.07483,-0.231713 0.15625,-0.5 0.08142,-0.268287 0.07026,-0.225025 0.125,-0.5 0.05474,-0.274975 0.06622,-0.252234 0.09375,-0.53125 0.02753,-0.279016 0.0312,-0.25088 0.03125,-0.53125 1.34e-4,-0.274908 -0.005,-0.257601 -0.03125,-0.53125 -0.02629,-0.273649 -0.01004,-0.230144 -0.0625,-0.5 C 29.29129,22.698894 29.2969,22.701065 29.21875,22.4375 29.1406,22.173935 29.13437,22.223584 29.03125,21.96875 28.928128,21.713916 28.939635,21.743745 28.8125,21.5 28.685365,21.256255 28.712471,21.261648 28.5625,21.03125 28.412529,20.800852 28.421419,20.839919 28.25,20.625 28.07858,20.410081 28.09753,20.4162 27.90625,20.21875 27.71497,20.0213 27.74062,20.05315 27.53125,19.875 27.32188,19.696846 27.319272,19.688458 27.09375,19.53125 26.868228,19.374042 26.895837,19.384807 26.65625,19.25 26.416663,19.11519 26.438933,19.14241 26.1875,19.03125 c -0.251433,-0.111158 -0.207798,-0.10102 -0.46875,-0.1875 -0.260952,-0.08648 -0.231945,-0.09525 -0.5,-0.15625 -0.268055,-0.061 -0.258573,-0.05879 -0.53125,-0.09375 -0.272677,-0.03496 -0.256476,-0.02266 -0.53125,-0.03125 -0.285927,-0.0089 -0.245862,-0.01969 -0.53125,0 z" id="path39" opacity="0.397" stroke="url(#1)"/>
 </g>
 <metadata id="metadata9999">
  <rdf:RDF>
   <cc:Work>
    <dc:format>image/svg+xml</dc:format>
    <dc:type rdf:resource="http://purl.org/dc/dcmitype/StillImage"/>
    <dc:title>Ivy icon theme</dc:title>
    <cc:license rdf:resource="http://creativecommons.org/licenses/by-sa/4.0/"/>
    <dc:creator>
     <cc:Agent>
      <dc:title>Sixsixfive (sixsixfive.deviantart.com)</dc:title>
     </cc:Agent>
    </dc:creator>
    <dc:publisher>
     <cc:Agent>
      <dc:title>Sixsixfive (sixsixfive.deviantart.com)</dc:title>
     </cc:Agent>
    </dc:publisher>
    <dc:source>https://github.com/sixsixfive</dc:source>
    <dc:subject>
     <rdf:Bag>
      <rdf:li>ivy</rdf:li>
     </rdf:Bag>
    </dc:subject>
    <dc:contributor>
     <cc:Agent>
      <dc:title>ssf</dc:title>
     </cc:Agent>
    </dc:contributor>
    <dc:rights>
     <cc:Agent>
      <dc:title>Sixsixfive (sixisixfive.deviantart.com)</dc:title>
     </cc:Agent>
    </dc:rights>
    <dc:description>A simple icon theme published under CC-BY-SA_V4(http://creativecommons.org/licenses/by-sa/4.0)</dc:description>
    <dc:identifier>SSF</dc:identifier>
   </cc:Work>
  </rdf:RDF>
 </metadata>
 <!--Part of the Ivy icon them published under the CC-BY-SA_V4: http://creativecommons.org/licenses/by-sa/4.0 -->
</svg>
