<?xml version="1.0" encoding="UTF-8" standalone="no"?><svg xmlns:cc="http://creativecommons.org/ns#" xmlns:rdf="http://www.w3.org/1999/02/22-rdf-syntax-ns#" xmlns:svg="http://www.w3.org/2000/svg" id="svg2" viewBox="0 0 48 48" version="1.1" xmlns:xlink="http://www.w3.org/1999/xlink" xmlns:dc="http://purl.org/dc/elements/1.1/" xmlns="http://www.w3.org/2000/svg"><defs id="defs4"><linearGradient id="linearGradient4168"><stop id="stop4170" stop-color="#6a6a6a" stop-opacity="1"/><stop offset="1" id="stop4172" stop-color="#9c9c9c" stop-opacity="1"/></linearGradient><linearGradient id="linearGradient4174" x2="27" y2="45" gradientTransform="matrix(0.875 0 0 1.047619 3 -1.1428571)" xlink:href="#linearGradient4168" x1="27" y1="2.2835436" gradientUnits="userSpaceOnUse"/><linearGradient id="linearGradient4181"><stop id="stop4183" stop-color="#fff" stop-opacity="1"/><stop offset="1" id="stop4185" stop-color="#fff" stop-opacity="0"/></linearGradient><linearGradient id="1" x2="0" y2="43" gradientTransform="matrix(0.69999997 0 0 0.7 -0.7879593 -0.795417)" y1="3" gradientUnits="userSpaceOnUse"><stop id="stop12" stop-color="#66b03e"/><stop offset="1" id="stop14" stop-color="#95ce76"/></linearGradient><linearGradient id="linearGradient4187" x2="22" y2="45" xlink:href="#linearGradient4181" x1="22" y1="19" gradientUnits="userSpaceOnUse"/></defs><metadata id="metadata9999"><rdf:RDF><cc:Work><dc:format>image/svg+xml</dc:format><dc:type rdf:resource="http://purl.org/dc/dcmitype/StillImage"/><dc:title/><cc:license rdf:resource="http://creativecommons.org/licenses/by-sa/4.0/"/><dc:creator><cc:Agent><dc:title>Sixsixfive (sixsixfive.deviantart.com)</dc:title></cc:Agent></dc:creator><dc:publisher><cc:Agent><dc:title>Sixsixfive (sixsixfive.deviantart.com)</dc:title></cc:Agent></dc:publisher><dc:source>https://github.com/sixsixfive</dc:source><dc:subject><rdf:Bag><rdf:li>ivy</rdf:li></rdf:Bag></dc:subject><dc:contributor><cc:Agent><dc:title>ssf</dc:title></cc:Agent></dc:contributor><dc:rights><cc:Agent><dc:title>Sixsixfive (sixisixfive.deviantart.com)</dc:title></cc:Agent></dc:rights><dc:description>A simple icon theme published under CC-BY-SA_V4(http://creativecommons.org/licenses/by-sa/4.0)</dc:description><dc:identifier>SSF</dc:identifier></cc:Work></rdf:RDF></metadata><rect rx="2" ry="2" stroke-width="1" width="28" stroke="none" stroke-linejoin="round" fill-rule="evenodd" x="10" y="3" stroke-linecap="round" stroke-dasharray="none" fill-opacity="1" stroke-dashoffset="0" height="44" id="rect4205" stroke-miterlimit="4" opacity="0.1" stroke-opacity="1" fill="#000"/><!--Part of the Ivy icon them published under the CC-BY-SA_V4: http://creativecommons.org/licenses/by-sa/4.0 -->
<rect rx="2" ry="2" stroke-width="1" width="28" stroke="none" stroke-linejoin="round" fill-rule="evenodd" x="10" y="2" stroke-linecap="round" stroke-dasharray="none" fill-opacity="1" stroke-dashoffset="0" height="44" id="rect3366" stroke-miterlimit="4" opacity="1" stroke-opacity="1" fill="url(#linearGradient4174)"/><rect rx="2.1666665" ry="0.5" stroke-width="1" width="26" stroke="none" stroke-linejoin="round" fill-rule="evenodd" x="11" y="3" stroke-linecap="round" stroke-dasharray="none" fill-opacity="1" stroke-dashoffset="0" height="1" id="rect4209" stroke-miterlimit="4" opacity="0.3" stroke-opacity="1" fill="#fff"/><rect stroke-linecap="round" fill-opacity="1" height="1" stroke-miterlimit="4" id="rect4199" stroke-dasharray="none" opacity="0.2" stroke-width="1" stroke="none" width="14" x="17" y="6" fill-rule="evenodd" stroke-linejoin="round" stroke-dashoffset="0" stroke-opacity="1" fill="#fff"/><rect rx="2" ry="2" stroke-width="1" width="24" stroke="none" stroke-linejoin="round" fill-rule="evenodd" x="12" y="9" stroke-linecap="round" stroke-dasharray="none" fill-opacity="1" stroke-dashoffset="0" height="32" id="rect4191" stroke-miterlimit="4" opacity="0.2" stroke-opacity="1" fill="#fff"/><rect stroke-linecap="round" fill-opacity="1" height="1" stroke-miterlimit="4" id="rect4201" stroke-dasharray="none" opacity="0.2" stroke-width="1" stroke="none" width="14" x="17" y="43" fill-rule="evenodd" stroke-linejoin="round" stroke-dashoffset="0" stroke-opacity="1" fill="#fff"/><rect rx="2" ry="2" stroke-width="1" width="24" stroke="none" stroke-linejoin="round" fill-rule="evenodd" x="12" y="8" stroke-linecap="round" stroke-dasharray="none" fill-opacity="1" stroke-dashoffset="0" height="32" id="rect4190" stroke-miterlimit="4" opacity="1" stroke-opacity="1" fill="#171717"/><circle stroke-linecap="round" r="1.5" fill-opacity="1" id="circle4203" stroke-miterlimit="4" stroke-dasharray="none" cx="13.5" cy="6.5" opacity="0.2" stroke-width="1" stroke="none" stroke-linejoin="round" stroke-dashoffset="0" fill-rule="evenodd" fill="#fff" stroke-opacity="1"/><path stroke-linecap="round" fill-opacity="1" id="path4185" stroke-miterlimit="4" stroke-dasharray="none" opacity="0.7" stroke-width="1" d="m 12,2.578125 c -0.797846,0 -1.421875,0.6240289 -1.421875,1.421875 l 0,40 c 0,0.797846 0.624029,1.421875 1.421875,1.421875 l 24,0 c 0.797846,0 1.421875,-0.624029 1.421875,-1.421875 l 0,-40 C 37.421875,3.2021539 36.797846,2.578125 36,2.578125 l -24,0 z" stroke="#000" stroke-linejoin="round" stroke-dashoffset="0" fill-rule="evenodd" fill="none" stroke-opacity="1"/><path stroke-linecap="round" fill-opacity="1" id="path4189" stroke-miterlimit="4" stroke-dasharray="none" opacity="1" stroke-width="1" d="m 14,8.4960938 c -0.842154,0 -1.503906,0.6617524 -1.503906,1.5039062 l 0,28 c 0,0.842154 0.661752,1.503906 1.503906,1.503906 l 20,0 c 0.842154,0 1.503906,-0.661752 1.503906,-1.503906 l 0,-28 C 35.503906,9.1578462 34.842154,8.4960938 34,8.4960938 l -20,0 z" stroke="#000" stroke-linejoin="round" stroke-dashoffset="0" fill-rule="evenodd" fill="none" stroke-opacity="1"/><rect stroke-linecap="round" fill-opacity="1" height="1" stroke-miterlimit="4" id="rect4193" stroke-dasharray="none" opacity="0.8" stroke-width="1" stroke="none" width="14" x="17" y="5" fill-rule="evenodd" stroke-linejoin="round" stroke-dashoffset="0" stroke-opacity="1" fill="#000"/><rect stroke-linecap="round" fill-opacity="1" height="1" stroke-miterlimit="4" id="rect4195" stroke-dasharray="none" opacity="0.8" stroke-width="1" stroke="none" width="14" x="17" y="42" fill-rule="evenodd" stroke-linejoin="round" stroke-dashoffset="0" stroke-opacity="1" fill="#000"/><circle stroke-linecap="round" r="1.5" fill-opacity="1" id="path4197" stroke-miterlimit="4" stroke-dasharray="none" cx="13.5" cy="5.5" opacity="0.8" stroke-width="1" stroke="none" stroke-linejoin="round" stroke-dashoffset="0" fill-rule="evenodd" fill="#000" stroke-opacity="1"/><g id="g3441" transform="matrix(1 0 0 1 15.993594 16)"><path id="path4189-3" opacity="0.1" d="m 2.0000005,17.004583 a 14,14 0 0 0 27.9999985,0 14,14 0 1 0 -27.9999985,0 z" fill="#000"/><path id="path18" d="m 2.0000005,16.004583 a 14,14 0 0 0 27.9999985,0 14,14 0 1 0 -27.9999985,0 z" fill="url(#1)"/><path id="path4179" opacity="0.4" d="m 15.578125,19.480469 c -5.161908,-0.06676 -9.9121334,3.926235 -11.5117188,8.791015 a 1.0338241,1.0338241 0 0 1 -0.00781,0.01953 c -0.8963556,2.553917 -0.8167408,5.422197 0.1386718,7.970703 a 1.0338241,1.0338241 0 0 1 0.015625,0.04492 c 1.6739702,5.183842 7.418556,8.51595 12.802734,8.185547 a 1.0338241,1.0338241 0 0 1 0.02148,-0.002 c 2.522945,-0.101114 4.96676,-1.160496 6.94336,-2.798828 a 1.0338241,1.0338241 0 0 1 0.02734,-0.02148 c 5.357977,-4.158253 5.906819,-13.184805 1.3125,-18.117188 l -0.0039,-0.0039 c -2.490584,-2.6232 -6.084809,-4.206358 -9.685547,-4.068359 a 1.0338241,1.0338241 0 0 1 -0.05273,0 z" stroke="url(#linearGradient4187)" transform="matrix(1 0 0 1 0 -16)" stroke-linejoin="round" fill="none"/><path id="path26" opacity="0.4" d="m 20,15 a 4,4 0 0 1 -8,0 4,4 0 1 1 8,0 z"/><path id="path28" d="m 20,16 a 4,4 0 0 1 -8,0 4,4 0 1 1 8,0 z" fill="#fff"/><path id="path3374" opacity="0.4" d="M 15.591797,2.447266 C 9.901317,2.373666 4.818698,6.673977 3.0840211,11.949608 2.101983,14.747654 2.189803,17.85601 3.2277213,20.624595 c 1.842539,5.705855 8.0045787,9.256683 13.8494527,8.898008 2.783347,-0.111551 5.434003,-1.270365 7.563564,-3.03548 5.8913,-4.572158 6.476001,-14.23629 1.429528,-19.645484 C 23.382295,4.008126 19.519895,2.296721 15.591797,2.447266 Z" stroke="#000" stroke-linejoin="round" fill="none"/></g></svg>