<?xml version="1.0" encoding="UTF-8" standalone="no"?><svg xmlns:svg="http://www.w3.org/2000/svg" xmlns="http://www.w3.org/2000/svg" viewBox="0 0 48 48" xmlns:rdf="http://www.w3.org/1999/02/22-rdf-syntax-ns#" xmlns:xlink="http://www.w3.org/1999/xlink" version="1.1" id="svg2" xmlns:dc="http://purl.org/dc/elements/1.1/" xmlns:cc="http://creativecommons.org/ns#"><defs id="0"><path opacity="0.4" id="2" d="m 17.6183,21.2899 a 1.88431,1.64877 0 1 1 -3.76862,0 1.88431,1.64877 0 1 1 3.76862,0 z"/><filter color-interpolation-filters="sRGB" id="3"><feGaussianBlur stdDeviation="0.61266" id="P"/></filter><linearGradient xlink:href="#7" y1="8.538" x2="0" y2="34.2" id="6" gradientUnits="userSpaceOnUse"/><linearGradient id="7"><stop id="U" stop-color="#fff"/><stop stop-opacity="0" offset="1" id="V" stop-color="#fff"/></linearGradient><linearGradient xlink:href="#7" y1="17.211" x2="0" y2="42.871" id="8" gradientUnits="userSpaceOnUse"/><linearGradient x1="37.774" y1="7.397" x2="37.847" y2="37.11" id="9" gradientUnits="userSpaceOnUse"><stop id="W" stop-color="#9e9e9e"/><stop offset="1" id="X" stop-color="#c2c2c2"/></linearGradient><linearGradient x1="47.27" y1="45.941" x2="47.2" y2="16.231" id="A" gradientUnits="userSpaceOnUse"><stop id="Y" stop-color="#bfbfbf"/><stop offset="1" id="Z" stop-color="#919191"/></linearGradient></defs><g opacity="0.5" id="1"><path opacity="0.1" id="B" d="m 21.3438,8.4685 c -9.07971,0 -16.4688,6.0233 -16.4688,13.4687 0,3.1426 1.33277,6.02 3.53125,8.3125 -0.653574,2.5986 -1.02057,5.2137 -1.5,7.8125 1.9486,-2.1054 4.62979,-3.076 7.75,-3.8125 0.05208,0.019 0.103867,0.044 0.15625,0.062 1.93188,5.6791 8.26837,9.8438 15.8125,9.8438 2.37088,0 4.65149,-0.4156 6.6875,-1.1563 3.12021,0.7365 5.8014,1.6759 7.75,3.7813 -0.47943,-2.5988 -0.846426,-5.1827 -1.5,-7.7813 2.19848,-2.2925 3.53125,-5.1699 3.53125,-8.3125 0,-5.5455 -4.09774,-10.3374 -9.9375,-12.4062 -1.94335,-5.6641 -8.28094,-9.812 -15.8125,-9.812 z"/><path id="C" d="m 21.3297,7.456 c 9.07971,0 16.4289,6.0315 16.4289,13.4769 0,7.4453 -7.34917,13.4767 -16.4289,13.4767 -2.37088,0 -4.63822,-0.4144 -6.67423,-1.1551 C 11.53526,33.991 8.85169,34.9483 6.90309,37.0537 7.38252,34.4549 7.738383,31.8486 8.39196,29.25 6.19348,26.9575 4.87515,24.0755 4.87515,20.9329 c 0,-7.4454 7.37484,-13.4769 16.4545,-13.4769 z" fill="url(#9)"/><g opacity="0.2" id="D" transform="matrix(1 0 0 1 -0.837 -1003.53)" fill="#fff"><use y="0" x="0" xlink:href="#2" height="48" id="a" transform="matrix(1.0614 0 0 1.21303 -1.546 999.57)" width="48"/><use y="0" x="0" xlink:href="#2" height="48" id="b" transform="matrix(1.0614 0 0 1.21303 5.454 999.57)" width="48"/><use y="0" x="0" xlink:href="#2" height="48" id="c" transform="matrix(1.0614 0 0 1.21303 12.454 999.57)" width="48"/></g><g id="E" fill="none"><path stroke="#000" opacity="0.4" id="d" d="m 21.3068,8.007 c -8.87564,0 -15.9688,5.8585 -15.9688,13 0,3.015 1.24705,5.781 3.375,8 a 0.461464,0.461464 0 0 1 0.09375,0.4374 C 8.272518,31.5686 7.963378,33.7237 7.588,35.882 c 1.90693,-1.5444 4.29553,-2.3764 6.9375,-3 a 0.461464,0.461464 0 0 1 0.25,0 c 1.98406,0.7218 4.21428,1.1249 6.53125,1.125 8.87564,0 15.9688,-5.8587 15.9688,-13 0,-7.1415 -7.09311,-13 -15.9688,-13 z"/><path stroke="url(#6)" opacity="0.48" id="e" d="m 21.3065,9.0378 c -8.41994,0 -14.9375,5.5062 -14.9375,11.9688 0,2.7305 1.09206,5.2265 3.0625,7.2812 a 1.49195,1.49195 0 0 1 0.375,1.4062 c -0.325302,1.2935 -0.512447,2.6649 -0.75,4 1.60731,-0.831 3.37699,-1.3777 5.21875,-1.8124 a 1.49195,1.49195 0 0 1 0.84375,0.031 c 1.86807,0.6797 3.99091,1.0625 6.1875,1.0625 8.41994,0 14.9375,-5.5063 14.9375,-11.9687 0,-6.4626 -6.51756,-11.9688 -14.9375,-11.9688 z"/></g><use y="0" x="0" xlink:href="#2" height="48" id="F" transform="matrix(1.0614 0 0 1.21303 -2.383 -4.96)" width="48"/><use y="0" x="0" xlink:href="#2" height="48" id="G" transform="matrix(1.0614 0 0 1.21303 4.617 -4.96)" width="48"/><use y="0" x="0" xlink:href="#2" height="48" id="H" transform="matrix(1.0614 0 0 1.21303 11.617 -4.96)" width="48"/><path id="I" d="m 30.625,16.1875 c -9.09566,0 -16.4688,6.0274 -16.4688,13.5 0,1.25338 0.236776,2.44329 0.625,3.59375 0.400323,0.142486 0.801848,0.289565 1.21875,0.40625 -0.530056,-1.26281 -0.84375,-2.60359 -0.84375,-4 0,-6.8105 6.81313,-12.5 15.4688,-12.5 2.47893,0 4.81509,0.486488 6.875,1.3125 -0.09301,-0.418008 -0.236178,-0.815186 -0.375,-1.21875 -1.98803,-0.696459 -4.20046,-1.09375 -6.5,-1.09375 z" filter="url(#3)"/><path id="J" d="m 30.6375,16.1974 c -9.07971,0 -16.4289,6.0315 -16.4289,13.4769 0,7.4453 7.34917,13.4767 16.4289,13.4767 2.37088,0 4.63822,-0.4144 6.67423,-1.1551 3.12021,0.7365 5.80378,1.6938 7.75238,3.7992 -0.47943,-2.5988 -0.835293,-5.2051 -1.48887,-7.8037 2.19848,-2.2925 3.51681,-5.1745 3.51681,-8.3171 -10e-7,-7.4454 -7.37484,-13.4769 -16.4546,-13.4769 z" fill="url(#A)"/><g opacity="0.2" id="K" transform="matrix(-1 0 0 1 53.25 -995.26)" fill="#fff"><use y="0" x="0" xlink:href="#2" height="48" id="f" transform="matrix(1.0614 0 0 1.21303 -1.546 999.57)" width="48"/><use y="0" x="0" xlink:href="#2" height="48" id="g" transform="matrix(1.0614 0 0 1.21303 5.454 999.57)" width="48"/><use y="0" x="0" xlink:href="#2" height="48" id="h" transform="matrix(1.0614 0 0 1.21303 12.454 999.57)" width="48"/></g><g id="L" fill="none"><path stroke="#000" opacity="0.4" id="i" d="m 30.6394,16.6802 c 8.87564,0 15.9688,5.8585 15.9688,13 0,3.015 -1.24705,5.781 -3.375,8 a 0.461464,0.461464 0 0 0 -0.09375,0.4374 c 0.534232,2.1242 0.843372,4.2793 1.21875,6.4376 -1.90693,-1.5444 -4.29553,-2.3764 -6.9375,-3 a 0.461464,0.461464 0 0 0 -0.25,0 c -1.98406,0.7218 -4.21428,1.1249 -6.53125,1.125 -8.87564,0 -15.9688,-5.8587 -15.9688,-13 0,-7.1415 7.09311,-13 15.9688,-13 z"/><path stroke="url(#8)" opacity="0.51" id="j" d="m 30.6394,17.7114 c 8.41994,0 14.9375,5.5062 14.9375,11.9688 0,2.7305 -1.09206,5.2265 -3.0625,7.2812 a 1.49195,1.49195 0 0 0 -0.375,1.4062 c 0.325302,1.2935 0.512447,2.6649 0.75,4 -1.60731,-0.831 -3.37699,-1.3777 -5.21875,-1.8124 a 1.49195,1.49195 0 0 0 -0.84375,0.031 c -1.86807,0.6797 -3.99091,1.0625 -6.1875,1.0625 -8.41994,0 -14.9375,-5.5063 -14.9375,-11.9687 0,-6.4626 6.51756,-11.9688 14.9375,-11.9688 z"/></g><use y="0" x="0" xlink:href="#2" height="48" id="M" transform="matrix(-1.0614 0 0 1.21303 54.704 3.339)" width="48"/><use y="0" x="0" xlink:href="#2" height="48" id="N" transform="matrix(-1.0614 0 0 1.21303 47.704 3.339)" width="48"/><use y="0" x="0" xlink:href="#2" height="48" id="O" transform="matrix(-1.0614 0 0 1.21303 40.704 3.339)" width="48"/></g><metadata id="metadata9999"><rdf:RDF><cc:Work><dc:format>image/svg+xml</dc:format><dc:type rdf:resource="http://purl.org/dc/dcmitype/StillImage"/><dc:title>Ivy icon theme</dc:title><cc:license rdf:resource="http://creativecommons.org/licenses/by-sa/4.0/"/><dc:creator><cc:Agent><dc:title>Sixsixfive (sixsixfive.deviantart.com)</dc:title></cc:Agent></dc:creator><dc:publisher><cc:Agent><dc:title>Sixsixfive (sixsixfive.deviantart.com)</dc:title></cc:Agent></dc:publisher><dc:source>https://github.com/sixsixfive</dc:source><dc:subject><rdf:Bag><rdf:li>ivy</rdf:li></rdf:Bag></dc:subject><dc:contributor><cc:Agent><dc:title>ssf</dc:title></cc:Agent></dc:contributor><dc:rights><cc:Agent><dc:title>Sixsixfive (sixisixfive.deviantart.com)</dc:title></cc:Agent></dc:rights><dc:description>A simple icon theme published under CC-BY-SA_V4(http://creativecommons.org/licenses/by-sa/4.0)</dc:description><dc:identifier>SSF</dc:identifier></cc:Work></rdf:RDF></metadata><!--Part of the Ivy icon them published under the CC-BY-SA_V4: http://creativecommons.org/licenses/by-sa/4.0 -->
</svg>