<?xml version="1.0" encoding="UTF-8" standalone="no"?>
<svg xmlns:dc="http://purl.org/dc/elements/1.1/" xmlns:cc="http://creativecommons.org/ns#" xmlns:rdf="http://www.w3.org/1999/02/22-rdf-syntax-ns#" xmlns:svg="http://www.w3.org/2000/svg" xmlns="http://www.w3.org/2000/svg" viewBox="0 0 32 32" id="svg2" version="1.1">
 <defs id="defs4">
  <linearGradient id="0" y1="4" y2="44" x2="0" gradientUnits="userSpaceOnUse" gradientTransform="matrix(0.65981 0 0 0.65961 0.149 0.157)">
   <stop stop-color="#d02604" id="stop7"/>
   <stop offset="1" stop-color="#fb5736" id="stop9"/>
  </linearGradient>
  <linearGradient id="1" y1="4" y2="28" x2="0" gradientUnits="userSpaceOnUse">
   <stop stop-color="#fff" id="stop12"/>
   <stop offset="1" stop-color="#fff" stop-opacity="0" id="stop14"/>
  </linearGradient>
 </defs>
 <g id="g16" fill-rule="evenodd">
  <path d="m 11,4 -8,8 0,10 8,8 10,0 8,-8 0,-10 -8,-8 z" id="path18" opacity="0.15"/>
  <path d="m 11,3 -8,8 0,10 8,8 10,0 8,-8 0,-10 -8,-8 z" id="path20" fill="url(#0)"/>
 </g>
 <path opacity="0.711" d="M 24 17.6172 V 13 H 8 v 4.6172 h 16 z" id="path22"/>
 <path fill="#fff" d="m 24 19 v -5 h -16 v 5 h 16 z" id="path24"/>
 <g id="g26" fill="none">
  <path d="m 11.25,3.5625 -7.6875,7.6562 0,9.5625 7.6562,7.6562 9.5625,0 7.6562,-7.6562 0,-9.5625 -7.6562,-7.6562 -9.53125,0 z" id="path28" opacity="0.4" stroke="#000"/>
  <path d="m 11.625,4.5 -7.125,7.125 0,8.75 7.125,7.125 8.75,0 7.125,-7.125 0,-8.75 -7.125,-7.125 -8.75,0 z" id="path30" opacity="0.4" stroke="url(#1)"/>
 </g>
 <metadata id="metadata9999">
  <rdf:RDF>
   <cc:Work>
    <dc:format>image/svg+xml</dc:format>
    <dc:type rdf:resource="http://purl.org/dc/dcmitype/StillImage"/>
    <dc:title>Ivy icon theme</dc:title>
    <cc:license rdf:resource="http://creativecommons.org/licenses/by-sa/4.0/"/>
    <dc:creator>
     <cc:Agent>
      <dc:title>Sixsixfive (sixsixfive.deviantart.com)</dc:title>
     </cc:Agent>
    </dc:creator>
    <dc:publisher>
     <cc:Agent>
      <dc:title>Sixsixfive (sixsixfive.deviantart.com)</dc:title>
     </cc:Agent>
    </dc:publisher>
    <dc:source>https://github.com/sixsixfive</dc:source>
    <dc:subject>
     <rdf:Bag>
      <rdf:li>ivy</rdf:li>
     </rdf:Bag>
    </dc:subject>
    <dc:contributor>
     <cc:Agent>
      <dc:title>ssf</dc:title>
     </cc:Agent>
    </dc:contributor>
    <dc:rights>
     <cc:Agent>
      <dc:title>Sixsixfive (sixisixfive.deviantart.com)</dc:title>
     </cc:Agent>
    </dc:rights>
    <dc:description>A simple icon theme published under CC-BY-SA_V4(http://creativecommons.org/licenses/by-sa/4.0)</dc:description>
    <dc:identifier>SSF</dc:identifier>
   </cc:Work>
  </rdf:RDF>
 </metadata>
 <!--Part of the Ivy icon them published under the CC-BY-SA_V4: http://creativecommons.org/licenses/by-sa/4.0 -->
</svg>
