<?xml version="1.0" encoding="UTF-8" standalone="no"?><svg xmlns:xlink="http://www.w3.org/1999/xlink" xmlns:cc="http://creativecommons.org/ns#" viewBox="0 0 48 48" version="1.1" id="svg2" xmlns:svg="http://www.w3.org/2000/svg" xmlns:rdf="http://www.w3.org/1999/02/22-rdf-syntax-ns#" xmlns="http://www.w3.org/2000/svg" xmlns:dc="http://purl.org/dc/elements/1.1/"><defs id="0"><linearGradient id="B"><stop id="H" stop-color="#ffb006"/><stop offset="1" id="I" stop-color="#eed45a"/></linearGradient><linearGradient x2="0" gradientUnits="userSpaceOnUse" xlink:href="#B" id="E" y2="46" y1="31"/><linearGradient x2="0" gradientUnits="userSpaceOnUse" xlink:href="#B" id="F" y2="46" y1="41"/><linearGradient x2="0" gradientUnits="userSpaceOnUse" xlink:href="#B" id="G" y2="46" y1="21"/></defs><rect height="25" width="5" fill-rule="evenodd" opacity="0.1" id="1" x="22" y="22"/><rect height="15" width="5" fill-rule="evenodd" opacity="0.1" id="2" x="12" y="32"/><rect height="5" width="5" fill-rule="evenodd" opacity="0.1" id="3" x="2" y="42"/><rect height="25" width="5" fill-rule="evenodd" fill="url(#G)" id="4" x="22" y="21"/><rect height="15" width="5" fill-rule="evenodd" fill="url(#E)" id="5" x="12" y="31"/><rect height="5" width="5" fill-rule="evenodd" fill="url(#F)" id="6" x="2" y="41"/><path opacity="0.4" fill="none" id="7" stroke="#000" d="m 22.5,21.5 0,24 4,0 0,-24 -4,0 z m -10,10 0,14 4,0 0,-14 -4,0 z m -10,10 0,4 4,0 0,-4 -4,0 z"/><rect height="1" width="3" opacity="0.4" fill="#fff" id="8" x="3" y="42"/><rect height="1" width="3" opacity="0.4" fill="#fff" id="9" x="13" y="32"/><rect height="1" width="3" opacity="0.4" fill="#fff" id="A" x="23" y="22"/><metadata id="metadata9999"><rdf:RDF><cc:Work><dc:format>image/svg+xml</dc:format><dc:type rdf:resource="http://purl.org/dc/dcmitype/StillImage"/><dc:title>Ivy icon theme</dc:title><cc:license rdf:resource="http://creativecommons.org/licenses/by-sa/4.0/"/><dc:creator><cc:Agent><dc:title>Sixsixfive (sixsixfive.deviantart.com)</dc:title></cc:Agent></dc:creator><dc:publisher><cc:Agent><dc:title>Sixsixfive (sixsixfive.deviantart.com)</dc:title></cc:Agent></dc:publisher><dc:source>https://github.com/sixsixfive</dc:source><dc:subject><rdf:Bag><rdf:li>ivy</rdf:li></rdf:Bag></dc:subject><dc:contributor><cc:Agent><dc:title>ssf</dc:title></cc:Agent></dc:contributor><dc:rights><cc:Agent><dc:title>Sixsixfive (sixisixfive.deviantart.com)</dc:title></cc:Agent></dc:rights><dc:description>A simple icon theme published under CC-BY-SA_V4(http://creativecommons.org/licenses/by-sa/4.0)</dc:description><dc:identifier>SSF</dc:identifier></cc:Work></rdf:RDF></metadata><!--Part of the Ivy icon them published under the CC-BY-SA_V4: http://creativecommons.org/licenses/by-sa/4.0 -->
</svg>