<?xml version="1.0" encoding="UTF-8" standalone="no"?>
<svg
   xmlns:dc="http://purl.org/dc/elements/1.1/"
   xmlns:cc="http://creativecommons.org/ns#"
   xmlns:rdf="http://www.w3.org/1999/02/22-rdf-syntax-ns#"
   xmlns:svg="http://www.w3.org/2000/svg"
   xmlns="http://www.w3.org/2000/svg"
   xmlns:xlink="http://www.w3.org/1999/xlink"
   id="svg2"
   viewBox="0 0 48 48"
   version="1.1">
  <defs
     id="defs12">
    <linearGradient
       id="linearGradient4227">
      <stop
         style="stop-color:#5288d1;stop-opacity:1;"
         offset="0"
         id="stop4229" />
      <stop
         style="stop-color:#7aa4dc;stop-opacity:1"
         offset="1"
         id="stop4231" />
    </linearGradient>
    <linearGradient
       id="linearGradient4217">
      <stop
         style="stop-color:#ffffff;stop-opacity:1;"
         offset="0"
         id="stop4219" />
      <stop
         style="stop-color:#ffffff;stop-opacity:0;"
         offset="1"
         id="stop4221" />
    </linearGradient>
    <linearGradient
       id="linearGradient4159">
      <stop
         style="stop-color:#ffffff;stop-opacity:1;"
         offset="0"
         id="stop4161" />
      <stop
         style="stop-color:#ffffff;stop-opacity:0;"
         offset="1"
         id="stop4163" />
    </linearGradient>
    <linearGradient
       gradientTransform="matrix(-1,0,0,1,43.009766,0)"
       xlink:href="#linearGradient4159"
       id="linearGradient4166"
       x1="24"
       y1="8"
       x2="24"
       y2="12"
       gradientUnits="userSpaceOnUse" />
    <linearGradient
       gradientTransform="matrix(-1,0,0,1,43.009766,0)"
       xlink:href="#linearGradient4159"
       id="linearGradient4170"
       gradientUnits="userSpaceOnUse"
       x1="3"
       y1="27"
       x2="8"
       y2="27" />
    <linearGradient
       gradientTransform="matrix(-1,0,0,1,43.009766,0)"
       xlink:href="#linearGradient4159"
       id="linearGradient4174"
       gradientUnits="userSpaceOnUse"
       x1="46"
       y1="27"
       x2="38"
       y2="27" />
    <linearGradient
       gradientTransform="matrix(-1,0,0,1,43.009766,0)"
       xlink:href="#linearGradient4217"
       id="linearGradient4223"
       x1="22.934116"
       y1="1.0988929"
       x2="23.010286"
       y2="23.043295"
       gradientUnits="userSpaceOnUse" />
    <linearGradient
       gradientTransform="translate(-43.009766,0)"
       xlink:href="#linearGradient4227"
       id="linearGradient4233"
       x1="14.977173"
       y1="0.008785137"
       x2="15.042133"
       y2="24.844351"
       gradientUnits="userSpaceOnUse" />
  </defs>
  <path
     id="path4188"
     d="m 33.009766,9 c 2.77,0 5,2.23 5,5 l 0,22 c 0,2.77 -2.23,5 -5,5 l -5,0 0,-6 1.5,0 c 1.385,0 2.5,-1.115 2.5,-2.5 l 0,-15 c 0,-1.385 -1.115,-2.5 -2.5,-2.5 l -21,0 c -1.385,0 -2.5,1.115 -2.5,2.5 l 0,15 c 0,1.385 1.115,2.5 2.5,2.5 l 5.5,0 0,-5 7,8.051497 -7,7.948503 0,-5 -9,0 c -2.77,0 -5,-2.23 -5,-5 l 0,-22 c 0,-2.77 2.23,-5 5,-5 z"
     style="opacity:0.15;fill:#000000;stroke-width:3;stroke-linejoin:round" />
  <path
     style="fill:#66b03e;stroke-width:3;stroke-linejoin:round"
     d="m 33.009766,8 c 2.77,0 5,2.23 5,5 l 0,22 c 0,2.77 -2.23,5 -5,5 l -5,0 0,-6 1.5,0 c 1.385,0 2.5,-1.115 2.5,-2.5 l 0,-15 c 0,-1.385 -1.115,-2.5 -2.5,-2.5 l -21,0 c -1.385,0 -2.5,1.115 -2.5,2.5 l 0,15 c 0,1.385 1.115,2.5 2.5,2.5 l 5.5,0 0,-5 7,8.051497 -7,7.948503 0,-5 -9,0 c -2.77,0 -5,-2.23 -5,-5 l 0,-22 c 0,-2.77 2.23,-5 5,-5 z"
     id="rect3349" />
  <path
     style="opacity:0.2;fill:none;fill-rule:evenodd;stroke:#ffffff;stroke-width:1px;stroke-linecap:round;stroke-linejoin:miter;stroke-opacity:1"
     d="m 19.26718,37.453802 -3.886121,-4.556083 0,2.473574 -7.495057,0.08251 C 5.705824,34.83944 5.814028,33.939943 5.587333,33"
     id="path4186" />
  <path
     style="opacity:0.4;fill:none;stroke:#000000;stroke-width:1;stroke-linejoin:miter;stroke-miterlimit:4.0999999;stroke-dasharray:none"
     id="path4155"
     d="m 33.009766,8.4902344 c 2.506923,0 4.509766,2.0028426 4.509766,4.5097656 l 0,22 c 0,2.506923 -2.002843,4.509766 -4.509766,4.509766 l -4.509766,0 0,-5.019532 1.009766,0 C 31.157843,34.490234 32.5,33.148077 32.5,31.5 l 0,-15 c 0,-1.648077 -1.342157,-2.990234 -2.990234,-2.990234 l -21,0 c -1.648077,0 -2.990234,1.342157 -2.990234,2.990234 l 0,15 c 0,1.648077 1.342157,2.990234 2.990234,2.990234 l 5.5,0 A 0.49022158,0.49022158 0 0 0 14.5,34 l 0,-3.689453 5.859375,6.738281 L 14.5,43.703125 14.5,40 a 0.49022158,0.49022158 0 0 0 -0.490234,-0.490234 l -9,0 C 2.502843,39.509766 0.5,37.506923 0.5,35 l 0,-22 c 0,-2.506923 2.002843,-4.5097656 4.509766,-4.5097656 l 28,0 z" />
  <path
     d="m 33.009766,9.4960938 c 1.966872,0 3.503906,1.5370342 3.503906,3.5039062 l 0,22 c 0,1.966872 -1.537034,3.503906 -3.503906,3.503906 l -3.503906,0 0,-3.007812 0.0039,0 c 2.188128,0 3.996094,-1.807966 3.996094,-3.996094 l 0,-15 c 0,-2.188128 -1.807966,-3.996094 -3.996094,-3.996094 l -21,0 c -2.188128,0 -3.996094,1.807966 -3.996094,3.996094 l 0,15 c 0,2.188128 1.807966,3.996094 3.996094,3.996094 l 5.5,0 A 1.4965601,1.4965601 0 0 0 15.50586,34 l 0,-0.998047 3.515625,4.042969 -3.515625,3.992187 0,-1.037109 a 1.4965601,1.4965601 0 0 0 -1.496094,-1.496094 l -9,0 C 3.042894,38.503906 1.50586,36.966872 1.50586,35 l 0,-22 c 0,-1.966872 1.537034,-3.5039062 3.503906,-3.5039062 l 28,0 z"
     id="path4157"
     style="opacity:0.4;fill:none;stroke:url(#linearGradient4166);stroke-width:1;stroke-linejoin:miter;stroke-miterlimit:4.0999999;stroke-dasharray:none" />
  <path
     style="opacity:0.4;fill:none;stroke:url(#linearGradient4170);stroke-width:1;stroke-linejoin:miter;stroke-miterlimit:4.0999999;stroke-dasharray:none"
     id="path4168"
     d="m 33.009766,9.4960938 c 1.966872,0 3.503906,1.5370342 3.503906,3.5039062 l 0,22 c 0,1.966872 -1.537034,3.503906 -3.503906,3.503906 l -3.503906,0 0,-3.007812 0.0039,0 c 2.188128,0 3.996094,-1.807966 3.996094,-3.996094 l 0,-15 c 0,-2.188128 -1.807966,-3.996094 -3.996094,-3.996094 l -21,0 c -2.188128,0 -3.996094,1.807966 -3.996094,3.996094 l 0,15 c 0,2.188128 1.807966,3.996094 3.996094,3.996094 l 5.5,0 A 1.4965601,1.4965601 0 0 0 15.50586,34 l 0,-0.998047 3.515625,4.042969 -3.515625,3.992187 0,-1.037109 a 1.4965601,1.4965601 0 0 0 -1.496094,-1.496094 l -9,0 C 3.042894,38.503906 1.50586,36.966872 1.50586,35 l 0,-22 c 0,-1.966872 1.537034,-3.5039062 3.503906,-3.5039062 l 28,0 z" />
  <path
     style="opacity:0.1;fill:none;fill-rule:evenodd;stroke:#ffffff;stroke-width:1px;stroke-linecap:butt;stroke-linejoin:miter;stroke-opacity:1"
     d="m 29.50586,35.496094 c 2.187774,-0.310333 2.523485,-1.017536 3.256377,-1.639629"
     id="path4184" />
  <path
     d="m 33.009766,9.4960938 c 1.966872,0 3.503906,1.5370342 3.503906,3.5039062 l 0,22 c 0,1.966872 -1.537034,3.503906 -3.503906,3.503906 l -3.503906,0 0,-3.007812 0.0039,0 c 2.188128,0 3.996094,-1.807966 3.996094,-3.996094 l 0,-15 c 0,-2.188128 -1.807966,-3.996094 -3.996094,-3.996094 l -21,0 c -2.188128,0 -3.996094,1.807966 -3.996094,3.996094 l 0,15 c 0,2.188128 1.807966,3.996094 3.996094,3.996094 l 5.5,0 A 1.4965601,1.4965601 0 0 0 15.50586,34 l 0,-0.998047 3.515625,4.042969 -3.515625,3.992187 0,-1.037109 a 1.4965601,1.4965601 0 0 0 -1.496094,-1.496094 l -9,0 C 3.042894,38.503906 1.50586,36.966872 1.50586,35 l 0,-22 c 0,-1.966872 1.537034,-3.5039062 3.503906,-3.5039062 l 28,0 z"
     id="path4172"
     style="opacity:0.4;fill:none;stroke:url(#linearGradient4174);stroke-width:1;stroke-linecap:round;stroke-linejoin:round;stroke-miterlimit:4.0999999;stroke-dasharray:none" />
  <ellipse
     transform="scale(-1,1)"
     ry="12.000003"
     rx="12"
     cy="12.999997"
     cx="-31.009766"
     id="ellipse4225"
     style="opacity:0.2;fill:#000000;fill-opacity:1;fill-rule:evenodd;stroke:none;stroke-width:1.31437242;stroke-linecap:round;stroke-linejoin:round;stroke-miterlimit:4.0999999;stroke-dasharray:none;stroke-dashoffset:0;stroke-opacity:1" />
  <ellipse
     transform="scale(-1,1)"
     style="opacity:1;fill:url(#linearGradient4233);fill-opacity:1;fill-rule:evenodd;stroke:none;stroke-width:1.31437242;stroke-linecap:round;stroke-linejoin:round;stroke-miterlimit:4.0999999;stroke-dasharray:none;stroke-dashoffset:0;stroke-opacity:1"
     id="path4209"
     cx="-31.009766"
     cy="12.000003"
     rx="12"
     ry="12.000003" />
  <path
     style="opacity:0.4;fill:none;fill-opacity:1;fill-rule:evenodd;stroke:#000000;stroke-width:1;stroke-linecap:round;stroke-linejoin:round;stroke-miterlimit:4.0999999;stroke-dasharray:none;stroke-dashoffset:0;stroke-opacity:1"
     id="path4213"
     d="m 31.009766,0.5078125 c 3.008409,0 5.997733,1.2399209 8.125,3.3671875 2.127267,2.1272666 3.367187,5.1165903 3.367187,8.125 0,3.00841 -1.23992,5.997733 -3.367187,8.125 -2.127267,2.127267 -5.116591,3.367188 -8.125,3.367188 -3.008409,0 -5.997733,-1.239921 -8.125,-3.367188 -2.127267,-2.127267 -3.367187,-5.11659 -3.367188,-8.125 1e-6,-3.0084097 1.239921,-5.9977334 3.367188,-8.125 2.127267,-2.1272666 5.116591,-3.3671875 8.125,-3.3671875 z" />
  <path
     style="opacity:0.4;fill:#000000;fill-opacity:1;fill-rule:evenodd;stroke:none;stroke-width:1;stroke-linecap:round;stroke-linejoin:round;stroke-miterlimit:4.0999999;stroke-dasharray:none;stroke-dashoffset:0;stroke-opacity:1"
     id="path4255"
     d="M 35.009766,4.0234375 A 0.97604337,0.97604337 0 0 1 35.986328,5 l 0,3 a 0.97604337,0.97604337 0 0 1 -0.976562,0.9765625 l -1.023438,0 0,6.0468755 1.023438,0 A 0.97604337,0.97604337 0 0 1 35.986328,16 l 0,3 a 0.97604337,0.97604337 0 0 1 -0.976562,0.976562 l -8,0 A 0.97604337,0.97604337 0 0 1 26.033204,19 l 0,-3 a 0.97604337,0.97604337 0 0 1 0.976562,-0.976562 l 1.023438,0 0,-6.0468755 -1.023438,0 A 0.97604337,0.97604337 0 0 1 26.033204,8 l 0,-3 a 0.97604337,0.97604337 0 0 1 0.976562,-0.9765625 l 8,0 z" />
  <path
     d="m 31.009766,1.5371094 c 2.739317,0 5.461448,1.1274634 7.398437,3.0644531 1.93699,1.9369897 3.064453,4.6591199 3.064454,7.3984375 -10e-7,2.739318 -1.127464,5.461448 -3.064454,7.398438 -1.936989,1.936989 -4.65912,3.064453 -7.398437,3.064453 -2.739317,0 -5.461448,-1.127464 -7.398438,-3.064453 C 21.674339,17.461448 20.546876,14.739318 20.546875,12 c 1e-6,-2.7393176 1.127464,-5.4614478 3.064453,-7.3984375 1.93699,-1.9369897 4.659121,-3.0644531 7.398438,-3.0644531 z"
     id="path4215"
     style="opacity:0.4;fill:none;fill-opacity:1;fill-rule:evenodd;stroke:url(#linearGradient4223);stroke-width:1;stroke-linecap:round;stroke-linejoin:round;stroke-miterlimit:4.0999999;stroke-dasharray:none;stroke-dashoffset:0;stroke-opacity:1" />
  <path
     style="opacity:1;fill:#ebebeb;fill-opacity:1;fill-rule:evenodd;stroke:none;stroke-width:1;stroke-linecap:round;stroke-linejoin:round;stroke-miterlimit:4.0999999;stroke-dasharray:none;stroke-dashoffset:0;stroke-opacity:1"
     d="m 35.009766,5 0,3 -2,0 0,8 2,0 0,3 -8,0 0,-3 2,0 0,-8 -2,0 0,-3 8,0 z"
     id="rect4246" />
  <metadata
     id="metadata9999">
    <rdf:RDF>
      <cc:Work>
        <dc:format>image/svg+xml</dc:format>
        <dc:type
           rdf:resource="http://purl.org/dc/dcmitype/StillImage" />
        <dc:title></dc:title>
        <cc:license
           rdf:resource="http://creativecommons.org/licenses/by-sa/4.0/" />
        <dc:creator>
          <cc:Agent>
            <dc:title>Sixsixfive (sixsixfive.deviantart.com)</dc:title>
          </cc:Agent>
        </dc:creator>
        <dc:publisher>
          <cc:Agent>
            <dc:title>Sixsixfive (sixsixfive.deviantart.com)</dc:title>
          </cc:Agent>
        </dc:publisher>
        <dc:source>https://github.com/sixsixfive</dc:source>
        <dc:subject>
          <rdf:Bag>
            <rdf:li>ivy</rdf:li>
          </rdf:Bag>
        </dc:subject>
        <dc:contributor>
          <cc:Agent>
            <dc:title>ssf</dc:title>
          </cc:Agent>
        </dc:contributor>
        <dc:rights>
          <cc:Agent>
            <dc:title>Sixsixfive (sixisixfive.deviantart.com)</dc:title>
          </cc:Agent>
        </dc:rights>
        <dc:description>A simple icon theme published under CC-BY-SA_V4(http://creativecommons.org/licenses/by-sa/4.0)</dc:description>
        <dc:identifier>SSF</dc:identifier>
      </cc:Work>
    </rdf:RDF>
  </metadata>
  <!--Part of the Ivy icon them published under the CC-BY-SA_V4: http://creativecommons.org/licenses/by-sa/4.0 -->
</svg>
