<?xml version="1.0" encoding="UTF-8" standalone="no"?><svg xmlns:cc="http://creativecommons.org/ns#" xmlns:rdf="http://www.w3.org/1999/02/22-rdf-syntax-ns#" xmlns:svg="http://www.w3.org/2000/svg" id="svg2" viewBox="0 0 48 48" version="1.1" xmlns:xlink="http://www.w3.org/1999/xlink" xmlns:dc="http://purl.org/dc/elements/1.1/" xmlns="http://www.w3.org/2000/svg"><defs id="defs12"><linearGradient id="linearGradient4227"><stop id="stop4229" stop-color="#5288d1" stop-opacity="1"/><stop offset="1" id="stop4231" stop-color="#7aa4dc" stop-opacity="1"/></linearGradient><linearGradient id="linearGradient4217"><stop id="stop4219" stop-color="#fff" stop-opacity="1"/><stop offset="1" id="stop4221" stop-color="#fff" stop-opacity="0"/></linearGradient><linearGradient id="linearGradient4159"><stop id="stop4161" stop-color="#fff" stop-opacity="1"/><stop offset="1" id="stop4163" stop-color="#fff" stop-opacity="0"/></linearGradient><linearGradient id="linearGradient4166" x2="24" y2="12" xlink:href="#linearGradient4159" x1="24" y1="8" gradientUnits="userSpaceOnUse"/><linearGradient id="linearGradient4170" x2="8" y2="27" xlink:href="#linearGradient4159" x1="3" y1="27" gradientUnits="userSpaceOnUse"/><linearGradient id="linearGradient4174" x2="38" y2="27" xlink:href="#linearGradient4159" x1="46" y1="27" gradientUnits="userSpaceOnUse"/><linearGradient id="linearGradient4223" x2="23.010286" y2="23.043295" xlink:href="#linearGradient4217" x1="22.934116" y1="1.0988929" gradientUnits="userSpaceOnUse"/><linearGradient id="linearGradient4233" x2="15.042133" y2="24.844351" xlink:href="#linearGradient4227" x1="14.977173" y1="0.00878514" gradientUnits="userSpaceOnUse"/></defs><path id="path4188" opacity="0.15" stroke-width="3" d="M 10,9 C 7.23,9 5,11.23 5,14 l 0,22 c 0,2.77 2.23,5 5,5 l 5,0 0,-6 -1.5,0 C 12.115,35 11,33.885 11,32.5 l 0,-15 C 11,16.115 12.115,15 13.5,15 l 21,0 c 1.385,0 2.5,1.115 2.5,2.5 l 0,15 C 37,33.885 35.885,35 34.5,35 L 29,35 29,30 22,38.051497 29,46 l 0,-5 9,0 c 2.77,0 5,-2.23 5,-5 L 43,14 C 43,11.23 40.77,9 38,9 Z" stroke-linejoin="round" fill="#000"/><path id="rect3349" stroke-width="3" d="M 10,8 C 7.23,8 5,10.23 5,13 l 0,22 c 0,2.77 2.23,5 5,5 l 5,0 0,-6 -1.5,0 C 12.115,34 11,32.885 11,31.5 l 0,-15 C 11,15.115 12.115,14 13.5,14 l 21,0 c 1.385,0 2.5,1.115 2.5,2.5 l 0,15 C 37,32.885 35.885,34 34.5,34 L 29,34 29,29 22,37.051497 29,45 l 0,-5 9,0 c 2.77,0 5,-2.23 5,-5 L 43,13 C 43,10.23 40.77,8 38,8 Z" stroke-linejoin="round" fill="#66b03e"/><path stroke-linecap="round" id="path4186" opacity="0.2" stroke-width="1" d="m 23.742586,37.453802 3.886121,-4.556083 0,2.473574 7.495057,0.08251 C 37.303942,34.83944 37.195738,33.939943 37.422433,33" stroke="#fff" stroke-linejoin="miter" fill-rule="evenodd" fill="none" stroke-opacity="1"/><path id="path4155" stroke-miterlimit="4.1" stroke-dasharray="none" opacity="0.4" stroke-width="1" d="M 10,8.4902344 C 7.493077,8.4902344 5.4902344,10.493077 5.4902344,13 l 0,22 c 0,2.506923 2.0028426,4.509766 4.5097656,4.509766 l 4.509766,0 0,-5.019532 -1.009766,0 c -1.648077,0 -2.990234,-1.342157 -2.990234,-2.990234 l 0,-15 c 0,-1.648077 1.342157,-2.990234 2.990234,-2.990234 l 21,0 c 1.648077,0 2.990234,1.342157 2.990234,2.990234 l 0,15 c 0,1.648077 -1.342157,2.990234 -2.990234,2.990234 l -5.5,0 A 0.49022158,0.49022158 0 0 1 28.509766,34 l 0,-3.689453 -5.859375,6.738281 5.859375,6.654297 0,-3.703125 A 0.49022158,0.49022158 0 0 1 29,39.509766 l 9,0 c 2.506923,0 4.509766,-2.002843 4.509766,-4.509766 l 0,-22 C 42.509766,10.493077 40.506923,8.4902344 38,8.4902344 l -28,0 z" stroke="#000" stroke-linejoin="miter" fill="none"/><path id="path4157" stroke-miterlimit="4.0999999" stroke-dasharray="none" opacity="0.4" stroke-width="1" d="M 10,9.4960938 C 8.0331277,9.4960938 6.4960938,11.033128 6.4960938,13 l 0,22 c 0,1.966872 1.5370339,3.503906 3.5039062,3.503906 l 3.503906,0 0,-3.007812 -0.0039,0 c -2.188128,0 -3.9960938,-1.807966 -3.9960938,-3.996094 l 0,-15 c 0,-2.188128 1.8079658,-3.996094 3.9960938,-3.996094 l 21,0 c 2.188128,0 3.996094,1.807966 3.996094,3.996094 l 0,15 c 0,2.188128 -1.807966,3.996094 -3.996094,3.996094 l -5.5,0 A 1.4965601,1.4965601 0 0 1 27.503906,34 l 0,-0.998047 -3.515625,4.042969 3.515625,3.992187 0,-1.037109 A 1.4965601,1.4965601 0 0 1 29,38.503906 l 9,0 c 1.966872,0 3.503906,-1.537034 3.503906,-3.503906 l 0,-22 C 41.503906,11.033128 39.966872,9.4960938 38,9.4960938 l -28,0 z" stroke="url(#linearGradient4166)" stroke-linejoin="miter" fill="none"/><path id="path4168" stroke-miterlimit="4.0999999" stroke-dasharray="none" opacity="0.4" stroke-width="1" d="M 10,9.4960938 C 8.0331277,9.4960938 6.4960938,11.033128 6.4960938,13 l 0,22 c 0,1.966872 1.5370339,3.503906 3.5039062,3.503906 l 3.503906,0 0,-3.007812 -0.0039,0 c -2.188128,0 -3.9960938,-1.807966 -3.9960938,-3.996094 l 0,-15 c 0,-2.188128 1.8079658,-3.996094 3.9960938,-3.996094 l 21,0 c 2.188128,0 3.996094,1.807966 3.996094,3.996094 l 0,15 c 0,2.188128 -1.807966,3.996094 -3.996094,3.996094 l -5.5,0 A 1.4965601,1.4965601 0 0 1 27.503906,34 l 0,-0.998047 -3.515625,4.042969 3.515625,3.992187 0,-1.037109 A 1.4965601,1.4965601 0 0 1 29,38.503906 l 9,0 c 1.966872,0 3.503906,-1.537034 3.503906,-3.503906 l 0,-22 C 41.503906,11.033128 39.966872,9.4960938 38,9.4960938 l -28,0 z" stroke="url(#linearGradient4170)" stroke-linejoin="miter" fill="none"/><path stroke-linecap="butt" id="path4184" opacity="0.1" stroke-width="1" d="M 13.503906,35.496094 C 11.316132,35.185761 10.980421,34.478558 10.247529,33.856465" stroke="#fff" stroke-linejoin="miter" fill-rule="evenodd" fill="none" stroke-opacity="1"/><path stroke-linecap="round" id="path4172" stroke-miterlimit="4.0999999" stroke-dasharray="none" opacity="0.4" stroke-width="1" d="M 10,9.4960938 C 8.0331277,9.4960938 6.4960938,11.033128 6.4960938,13 l 0,22 c 0,1.966872 1.5370339,3.503906 3.5039062,3.503906 l 3.503906,0 0,-3.007812 -0.0039,0 c -2.188128,0 -3.9960938,-1.807966 -3.9960938,-3.996094 l 0,-15 c 0,-2.188128 1.8079658,-3.996094 3.9960938,-3.996094 l 21,0 c 2.188128,0 3.996094,1.807966 3.996094,3.996094 l 0,15 c 0,2.188128 -1.807966,3.996094 -3.996094,3.996094 l -5.5,0 A 1.4965601,1.4965601 0 0 1 27.503906,34 l 0,-0.998047 -3.515625,4.042969 3.515625,3.992187 0,-1.037109 A 1.4965601,1.4965601 0 0 1 29,38.503906 l 9,0 c 1.966872,0 3.503906,-1.537034 3.503906,-3.503906 l 0,-22 C 41.503906,11.033128 39.966872,9.4960938 38,9.4960938 l -28,0 z" stroke="url(#linearGradient4174)" stroke-linejoin="round" fill="none"/><ellipse stroke-linecap="round" fill-opacity="1" rx="12" ry="12.000003" stroke-miterlimit="4.0999999" id="ellipse4225" stroke-dasharray="none" cx="12" opacity="0.2" cy="12.999997" stroke-width="1.31437242" stroke="none" fill-rule="evenodd" stroke-linejoin="round" stroke-dashoffset="0" stroke-opacity="1" fill="#000"/><ellipse stroke-linecap="round" fill-opacity="1" rx="12" ry="12.000003" stroke-miterlimit="4.0999999" id="path4209" stroke-dasharray="none" cx="12" opacity="1" cy="12.000003" stroke-width="1.31437242" stroke="none" fill-rule="evenodd" stroke-linejoin="round" stroke-dashoffset="0" stroke-opacity="1" fill="url(#linearGradient4233)"/><path stroke-linecap="round" fill-opacity="1" id="path4213" stroke-miterlimit="4.0999999" stroke-dasharray="none" opacity="0.4" stroke-width="1" d="M 12,0.5078125 C 8.9915912,0.5078125 6.0022666,1.7477334 3.875,3.875 1.7477334,6.0022666 0.50781325,8.9915903 0.5078125,12 c 7.5e-7,3.00841 1.2399209,5.997733 3.3671875,8.125 2.1272666,2.127267 5.1165912,3.367188 8.125,3.367188 3.008409,0 5.997733,-1.239921 8.125,-3.367188 C 22.252267,17.997733 23.492187,15.00841 23.492188,12 23.492187,8.9915903 22.252267,6.0022666 20.125,3.875 17.997733,1.7477334 15.008409,0.5078125 12,0.5078125 Z" stroke="#000" stroke-linejoin="round" stroke-dashoffset="0" fill-rule="evenodd" fill="none" stroke-opacity="1"/><path stroke-linecap="round" fill-opacity="1" id="path4255" stroke-miterlimit="4.0999999" stroke-dasharray="none" opacity="0.4" stroke-width="1" d="M 8,4.0234375 A 0.97604337,0.97604337 0 0 0 7.0234375,5 l 0,3 A 0.97604337,0.97604337 0 0 0 8,8.9765625 l 1.0234375,0 0,6.0468755 -1.0234375,0 A 0.97604337,0.97604337 0 0 0 7.0234375,16 l 0,3 A 0.97604337,0.97604337 0 0 0 8,19.976562 l 8,0 A 0.97604337,0.97604337 0 0 0 16.976562,19 l 0,-3 A 0.97604337,0.97604337 0 0 0 16,15.023438 l -1.023438,0 0,-6.0468755 1.023438,0 A 0.97604337,0.97604337 0 0 0 16.976562,8 l 0,-3 A 0.97604337,0.97604337 0 0 0 16,4.0234375 l -8,0 z" stroke="none" stroke-linejoin="round" stroke-dashoffset="0" fill-rule="evenodd" fill="#000" stroke-opacity="1"/><path stroke-linecap="round" fill-opacity="1" id="path4215" stroke-miterlimit="4.0999999" stroke-dasharray="none" opacity="0.4" stroke-width="1" d="m 12,1.5371094 c -2.7393166,0 -5.4614478,1.1274634 -7.3984375,3.0644531 C 2.6645728,6.5385522 1.5371101,9.2606824 1.5371094,12 c 7e-7,2.739318 1.1274634,5.461448 3.0644531,7.398438 1.9369897,1.936989 4.6591209,3.064453 7.3984375,3.064453 2.739317,0 5.461448,-1.127464 7.398438,-3.064453 C 21.335427,17.461448 22.46289,14.739318 22.462891,12 22.46289,9.2606824 21.335427,6.5385522 19.398438,4.6015625 17.461448,2.6645728 14.739317,1.5371094 12,1.5371094 Z" stroke="url(#linearGradient4223)" stroke-linejoin="round" stroke-dashoffset="0" fill-rule="evenodd" fill="none" stroke-opacity="1"/><path stroke-linecap="round" fill-opacity="1" id="rect4246" stroke-miterlimit="4.0999999" stroke-dasharray="none" opacity="1" stroke-width="1" d="M 8 5 L 8 8 L 10 8 L 10 16 L 8 16 L 8 19 L 16 19 L 16 16 L 14 16 L 14 8 L 16 8 L 16 5 L 8 5 z " stroke="none" stroke-linejoin="round" stroke-dashoffset="0" fill-rule="evenodd" fill="#ebebeb" stroke-opacity="1"/><metadata id="metadata9999"><rdf:RDF><cc:Work><dc:format>image/svg+xml</dc:format><dc:type rdf:resource="http://purl.org/dc/dcmitype/StillImage"/><dc:title/><cc:license rdf:resource="http://creativecommons.org/licenses/by-sa/4.0/"/><dc:creator><cc:Agent><dc:title>Sixsixfive (sixsixfive.deviantart.com)</dc:title></cc:Agent></dc:creator><dc:publisher><cc:Agent><dc:title>Sixsixfive (sixsixfive.deviantart.com)</dc:title></cc:Agent></dc:publisher><dc:source>https://github.com/sixsixfive</dc:source><dc:subject><rdf:Bag><rdf:li>ivy</rdf:li></rdf:Bag></dc:subject><dc:contributor><cc:Agent><dc:title>ssf</dc:title></cc:Agent></dc:contributor><dc:rights><cc:Agent><dc:title>Sixsixfive (sixisixfive.deviantart.com)</dc:title></cc:Agent></dc:rights><dc:description>A simple icon theme published under CC-BY-SA_V4(http://creativecommons.org/licenses/by-sa/4.0)</dc:description><dc:identifier>SSF</dc:identifier></cc:Work></rdf:RDF></metadata><!--Part of the Ivy icon them published under the CC-BY-SA_V4: http://creativecommons.org/licenses/by-sa/4.0 -->
</svg>