<?xml version="1.0" encoding="UTF-8" standalone="no"?>
<svg xmlns:dc="http://purl.org/dc/elements/1.1/" xmlns:cc="http://creativecommons.org/ns#" xmlns:rdf="http://www.w3.org/1999/02/22-rdf-syntax-ns#" xmlns:svg="http://www.w3.org/2000/svg" xmlns="http://www.w3.org/2000/svg" viewBox="0 0 32 32" id="svg2" version="1.1">
 <defs id="defs4">
  <linearGradient id="0" y1="21" x1="35" y2="49.575" x2="21.996" gradientUnits="userSpaceOnUse" gradientTransform="matrix(0.65957 0 0 0.64994 0.17 1020.73)">
   <stop stop-color="#ebebeb" id="stop7"/>
   <stop offset="1" stop-color="#f9f9f9" id="stop9"/>
  </linearGradient>
  <linearGradient id="1" y1="1025.36" y2="1046.36" x2="0" gradientUnits="userSpaceOnUse">
   <stop stop-color="#fff" id="stop12"/>
   <stop offset="1" stop-color="#fff" stop-opacity="0" id="stop14"/>
  </linearGradient>
  <linearGradient id="2" y1="1010.36" y2="1026.36" x2="0" gradientUnits="userSpaceOnUse" gradientTransform="matrix(0.65957 0 0 0.65412 0.17 363.59)">
   <stop stop-color="#171717" id="stop17"/>
   <stop offset="1" stop-color="#393939" id="stop19"/>
  </linearGradient>
  <radialGradient cx="19" cy="28.889" r="8" id="3" gradientUnits="userSpaceOnUse">
   <stop stop-color="#171717" id="stop22"/>
   <stop offset="1" stop-color="#6a6a6a" id="stop24"/>
  </radialGradient>
  <radialGradient cx="10.742" cy="22.289" r="8" id="4" gradientUnits="userSpaceOnUse" gradientTransform="matrix(-0.25 1.30435 -1.42489 -0.13216 49.45 11.717)">
   <stop stop-color="#6a6a6a" id="stop27"/>
   <stop offset="1" stop-color="#171717" id="stop29"/>
  </radialGradient>
 </defs>
 <g transform="translate(0,-1020.36)" id="g31">
  <path d="m 15.15492,1025.4069 c -1.543237,0.069 -2.560042,1.4459 -3.475167,2.5146 -2.756599,3.6834 -4.770761,7.8721 -6.328821,12.1776 -0.653722,2.0476 -1.415717,4.1888 -1.163831,6.3669 0.094949,1.1204 1.14664,2.0968 2.310904,1.8352 4.178203,-0.094 8.192609,0.092 12.212896,0.061 1.838839,-0.01 3.690912,0.1256 5.520757,-0.09 1.503984,-0.318 2.068575,-2.002 1.953007,-3.3615 -0.231847,-3.4822 -1.636535,-6.7552 -3.09478,-9.8882 -1.495438,-2.995 -3.133713,-6.0069 -5.535374,-8.3905 -0.661958,-0.6077 -1.448521,-1.2323 -2.399591,-1.224 z" id="path33" opacity="0.2"/>
  <path d="M 23,28 A 8,8 0 1 1 7,28 8,8 0 1 1 23,28 Z" transform="matrix(0.66755,0,0,0.74202,12.646,1019.54)" id="path35" fill="url(#3)"/>
  <path d="M 23,28 A 8,8 0 1 1 7,28 8,8 0 1 1 23,28 Z" transform="matrix(0.66888,0,0,0.93085,-2.682,1012.75)" id="path37" fill="url(#4)"/>
  <g transform="matrix(0.66888,0,0,0.93085,-2.682,1012.75)" id="g39" fill="none" stroke-width="1.267">
   <path d="m 15,20.6875 c -4.054411,0 -7.3125,3.258089 -7.3125,7.3125 0,4.054411 3.258089,7.3125 7.3125,7.3125 4.054411,0 7.3125,-3.258089 7.3125,-7.3125 0,-4.054411 -3.258089,-7.3125 -7.3125,-7.3125 z" id="path41" opacity="0.4" stroke="#000"/>
   <path d="m 15,21.84375 c -3.420448,0 -6.15625,2.735802 -6.15625,6.15625 0,3.420448 2.735802,6.15625 6.15625,6.15625 3.420448,0 6.15625,-2.735802 6.15625,-6.15625 0,-3.420448 -2.735802,-6.15625 -6.15625,-6.15625 z" id="path43" opacity="0.2" stroke="#fff"/>
  </g>
  <path d="m 15.15492,1024.4074 c -1.543237,0.069 -2.560042,1.4459 -3.475167,2.5146 -2.756599,3.6834 -4.770761,7.8721 -6.328821,12.1776 -0.653722,2.0476 -1.415717,4.1888 -1.163831,6.3669 0.094949,1.1204 1.14664,2.0968 2.310904,1.8352 4.178203,-0.094 8.192609,0.092 12.212896,0.061 1.838839,-0.01 3.690912,0.1256 5.520757,-0.09 1.503984,-0.318 2.068575,-2.002 1.953007,-3.3615 -0.231847,-3.4822 -1.636535,-6.7552 -3.09478,-9.8882 -1.495438,-2.995 -3.133713,-6.0069 -5.535374,-8.3905 -0.661958,-0.6077 -1.448521,-1.2323 -2.399591,-1.224 z" id="path45" fill="url(#2)"/>
  <path d="m 15,20.71875 c -4.02147,0 -7.28125,3.259778 -7.28125,7.28125 0,4.02147 3.259778,7.28125 7.28125,7.28125 4.02147,0 7.28125,-3.259778 7.28125,-7.28125 0,-4.02147 -3.259778,-7.28125 -7.28125,-7.28125 z" transform="matrix(0.66755,0,0,0.74202,12.646,1019.54)" id="path47" opacity="0.4" fill="none" stroke="#000" stroke-width="1.421"/>
  <path d="m 7.301862,1034.3835 c -0.730795,1.5564 -1.371768,3.163 -1.958112,4.773 -0.653722,2.0345 -1.406141,4.1524 -1.154255,6.3167 0.094949,1.1131 1.144246,2.0879 2.308511,1.8279 4.178203,-0.094 8.202453,0.093 12.22274,0.061 1.838839,-0.01 3.67348,0.1333 5.503324,-0.081 1.503984,-0.316 2.07368,-2.0004 1.958112,-3.3512 -0.224953,-3.3571 -1.557257,-6.5177 -2.968085,-9.5461 l -15.912234,0 z" id="path49" fill="url(#0)"/>
  <path d="m 7.38,1033.36 15.62,0 0,1.05 -15.62,0 z" id="path51" opacity="0.34"/>
  <path d="m 15,22.0625 c -3.297882,0 -5.9375,2.639618 -5.9375,5.9375 0,3.297882 2.639618,5.9375 5.9375,5.9375 3.297882,0 5.9375,-2.639618 5.9375,-5.9375 0,-3.297882 -2.639618,-5.9375 -5.9375,-5.9375 z" transform="matrix(0.66755,0,0,0.74202,12.646,1019.54)" id="path53" opacity="0.2" fill="none" stroke="#fff" stroke-width="1.421"/>
  <path d="m 32,22 a 7,5 0 1 1 -14,0 7,5 0 1 1 14,0 z" transform="matrix(0.64286,0,0,0.7,0.429,1020.46)" id="path55" opacity="0.4"/>
  <path d="m 7.194,1034.42 14.917,0 0,0.56 -14.917,0 z" id="path57" opacity="0.48" fill="#fff"/>
  <path d="m 32,22 a 7,5 0 1 1 -14,0 7,5 0 1 1 14,0 z" transform="matrix(0.64286,0,0,0.7,0.429,1019.46)" id="path59" fill="#d02604"/>
  <g id="g61" fill="none">
   <path d="m 15.15625,1024.9062 c -1.236191,0.074 -2.164611,1.2587 -3.09375,2.3438 l 0.03125,0 c -2.71854,3.6325 -4.735386,7.7282 -6.28125,12 -0.656804,2.0573 -1.359402,4.1292 -1.125,6.1562 a 0.502486,0.502486 0 0 1 0,0.031 c 0.07064,0.8336 0.849649,1.5633 1.6875,1.375 a 0.502486,0.502486 0 0 1 0.125,0 c 4.200468,-0.094 8.216666,0.093 12.21875,0.062 1.853861,-0.01 3.648505,0.1095 5.40625,-0.094 0.0104,0 0.02097,0 0.03125,0 0.570538,-0.1306 0.955585,-0.5075 1.21875,-1.0312 0.267904,-0.5331 0.362778,-1.221 0.3125,-1.8125 -0.224297,-3.3687 -1.608469,-6.5636 -3.0625,-9.6875 l 0.03125,0 c -1.486999,-2.978 -3.1149,-5.9384 -5.4375,-8.25 -0.631268,-0.5795 -1.311606,-1.0864 -2.03125,-1.0938 -0.0099,-10e-5 -0.02136,0 -0.03125,0 z" id="path63" opacity="0.646" stroke="#000"/>
   <path d="m 15.1875,1025.9062 c -0.671713,0.057 -1.414832,0.8231 -2.34375,1.9063 -0.02197,0.026 -0.0403,0.037 -0.0625,0.062 -2.620363,3.5195 -4.549692,7.5383 -6.0625,11.7188 l -0.03125,0 c -0.654676,2.0499 -1.261505,3.9978 -1.0625,5.7187 a 1.456241,1.456241 0 0 1 0,0.031 c 0.0245,0.2891 0.344207,0.6115 0.5625,0.5624 a 1.456241,1.456241 0 0 1 0.28125,-0.062 c 4.24273,-0.096 8.282467,0.093 12.25,0.062 1.857774,-0.01 3.579449,0.1087 5.1875,-0.062 0.276015,-0.058 0.422137,-0.1586 0.59375,-0.5 0.171613,-0.3415 0.286032,-0.8887 0.25,-1.3126 a 1.456241,1.456241 0 0 1 0,-0.031 c -0.209367,-3.1445 -1.527667,-6.2147 -2.96875,-9.3125 -0.0041,-0.01 0.0041,-0.022 0,-0.031 -1.470754,-2.9439 -3.042377,-5.7966 -5.21875,-7.9687 -0.01572,-0.014 -0.01567,-0.017 -0.03125,-0.031 -0.561668,-0.5072 -1.038853,-0.738 -1.34375,-0.75 z" id="path65" opacity="0.5" stroke="url(#1)"/>
   <g transform="matrix(0.64286,0,0,0.7,0.429,1019.46)" id="g67" stroke-width="1.491">
    <path d="m 25,17.6875 c -1.800958,0 -3.42967,0.534586 -4.5625,1.34375 -1.13283,0.809164 -1.75,1.846834 -1.75,2.96875 0,1.121916 0.61717,2.159586 1.75,2.96875 1.13283,0.809164 2.761542,1.34375 4.5625,1.34375 1.800958,0 3.42967,-0.534586 4.5625,-1.34375 1.13283,-0.809164 1.75,-1.846834 1.75,-2.96875 0,-1.121916 -0.61717,-2.159586 -1.75,-2.96875 C 28.42967,18.222086 26.800958,17.6875 25,17.6875 Z" id="path69" opacity="0.4" stroke="#000"/>
    <path d="m 25,19.09375 c -1.527258,0 -2.863521,0.482872 -3.71875,1.09375 -0.855229,0.610878 -1.1875,1.227035 -1.1875,1.8125 0,0.585465 0.332271,1.201622 1.1875,1.8125 0.855229,0.610878 2.191492,1.09375 3.71875,1.09375 1.527258,0 2.863521,-0.482872 3.71875,-1.09375 0.855229,-0.610878 1.1875,-1.227035 1.1875,-1.8125 0,-0.585465 -0.332271,-1.201622 -1.1875,-1.8125 C 27.863521,19.576622 26.527258,19.09375 25,19.09375 Z" id="path71" opacity="0.2" stroke="#fff"/>
   </g>
  </g>
 </g>
 <metadata id="metadata9999">
  <rdf:RDF>
   <cc:Work>
    <dc:format>image/svg+xml</dc:format>
    <dc:type rdf:resource="http://purl.org/dc/dcmitype/StillImage"/>
    <dc:title>Ivy icon theme</dc:title>
    <cc:license rdf:resource="http://creativecommons.org/licenses/by-sa/4.0/"/>
    <dc:creator>
     <cc:Agent>
      <dc:title>Sixsixfive (sixsixfive.deviantart.com)</dc:title>
     </cc:Agent>
    </dc:creator>
    <dc:publisher>
     <cc:Agent>
      <dc:title>Sixsixfive (sixsixfive.deviantart.com)</dc:title>
     </cc:Agent>
    </dc:publisher>
    <dc:source>https://github.com/sixsixfive</dc:source>
    <dc:subject>
     <rdf:Bag>
      <rdf:li>ivy</rdf:li>
     </rdf:Bag>
    </dc:subject>
    <dc:contributor>
     <cc:Agent>
      <dc:title>ssf</dc:title>
     </cc:Agent>
    </dc:contributor>
    <dc:rights>
     <cc:Agent>
      <dc:title>Sixsixfive (sixisixfive.deviantart.com)</dc:title>
     </cc:Agent>
    </dc:rights>
    <dc:description>A simple icon theme published under CC-BY-SA_V4(http://creativecommons.org/licenses/by-sa/4.0)</dc:description>
    <dc:identifier>SSF</dc:identifier>
   </cc:Work>
  </rdf:RDF>
 </metadata>
 <!--Part of the Ivy icon them published under the CC-BY-SA_V4: http://creativecommons.org/licenses/by-sa/4.0 -->
</svg>
