<?xml version="1.0" encoding="UTF-8" standalone="no"?><svg xmlns:cc="http://creativecommons.org/ns#" xmlns:dc="http://purl.org/dc/elements/1.1/" xmlns:svg="http://www.w3.org/2000/svg" xmlns="http://www.w3.org/2000/svg" xmlns:rdf="http://www.w3.org/1999/02/22-rdf-syntax-ns#" id="svg2" version="1.1" xmlns:xlink="http://www.w3.org/1999/xlink" viewBox="0 0 48 48"><defs id="defs4"><linearGradient gradientTransform="matrix(1 0 0 0.8 0 203.28)" gradientUnits="userSpaceOnUse" y1="1011.36" id="0" y2="1018.36" x2="0"><stop id="stop7" stop-color="#eed45a"/><stop stop-opacity="0" id="stop9" stop-color="#eed45a" offset="1"/></linearGradient><linearGradient gradientTransform="matrix(1 0 0 0.79999 0 203.28)" gradientUnits="userSpaceOnUse" y1="1011.36" id="1" y2="1016.36" x2="0"><stop id="stop12"/><stop stop-opacity="0" id="stop14" offset="1"/></linearGradient><linearGradient gradientUnits="userSpaceOnUse" y1="17" id="2" x1="37" y2="38" x2="8"><stop id="stop17" stop-color="#c5c5c5"/><stop id="stop19" stop-color="#9d9d9d" offset="1"/></linearGradient><linearGradient gradientTransform="matrix(1 0 0 0.625 0 381.14)" gradientUnits="userSpaceOnUse" y1="1008.36" id="3" y2="1016.36" x2="0"><stop id="stop22" stop-color="#6a6a6a"/><stop id="stop24" stop-color="#494949" offset="1"/></linearGradient><linearGradient gradientUnits="userSpaceOnUse" y1="8" id="4" y2="44" x2="0"><stop stop-opacity="0.443" id="stop27" stop-color="#fff"/><stop stop-opacity="0" id="stop29" stop-color="#fff" offset="0.111"/><stop id="stop31" stop-color="#fff" offset="0.111"/><stop stop-opacity="0.549" id="stop33" stop-color="#fff" offset="1"/></linearGradient><linearGradient gradientUnits="userSpaceOnUse" y1="1016.36" id="5" y2="1049.36" x2="0"><stop id="stop36" stop-color="#b6b6b6"/><stop id="stop38" stop-color="#cfcfcf" offset="1"/></linearGradient><linearGradient id="linearGradient4151"><stop stop-opacity="1" id="stop4153" stop-color="#fff"/><stop stop-opacity="0" id="stop4155" stop-color="#fff" offset="1"/></linearGradient><linearGradient gradientUnits="userSpaceOnUse" xlink:href="#1-9" y1="-1" id="linearGradient4165" x1="3" y2="-1" x2="29"/><linearGradient gradientUnits="userSpaceOnUse" xlink:href="#linearGradient4151" y1="0" id="linearGradient4157" x1="-3" y2="0" x2="21"/><linearGradient gradientTransform="matrix(-1 0 0 1 48.00001 0)" gradientUnits="userSpaceOnUse" y1="3" id="1-9" y2="45" x2="0"><stop stop-opacity="1" id="stop12-9-1" stop-color="#66b03e"/><stop stop-opacity="1" id="stop14-4" stop-color="#7dc456" offset="1"/></linearGradient></defs><g transform="matrix(1 0 0 1 -3.9997002 -1006.36)" id="g40"><path opacity="0.2" d="m 12,1015.36 26,0 c 1.108,0 2,0.892 2,2 l 0,31 c 0,1.108 -0.892,2 -2,2 l -26,0 c -1.108,0 -2,-0.892 -2,-2 l 0,-31 c 0,-1.108 0.892,-2 2,-2 z" id="rect42"/><path d="m 12,1014.36 26,0 c 1.108,0 2,0.892 2,2 l 0,31 c 0,1.108 -0.892,2 -2,2 l -26,0 c -1.108,0 -2,-0.892 -2,-2 l 0,-31 c 0,-1.108 0.892,-2 2,-2 z" id="rect44" fill="url(#5)"/><g id="g46" fill="#fff"><path opacity="0.5" d="m 17.8125,1020.3617 c -0.41551,1.1583 -1.51118,2 -2.8125,2 l 0,9.0313 c 0.162744,-0.027 0.327411,-0.031 0.5,-0.031 1.38071,0 2.5,0.8954 2.5,2 0,1.1046 -1.11929,2 -2.5,2 -0.172589,0 -0.337256,0 -0.5,-0.031 l 0,1.5312 0,0.5 0.03125,0 c 0.338131,3.9126 4.66651,7 9.96875,7 5.30224,0 9.63062,-3.0874 9.96875,-7 l 0.03125,0 0,-0.5 0,-1.5312 c -0.162744,0.027 -0.327411,0.031 -0.5,0.031 -1.38071,0 -2.5,-0.8954 -2.5,-2 0,-1.1046 1.11929,-2 2.5,-2 0.172589,0 0.337256,0 0.5,0.031 l 0,-9.2188 c -0.841876,-0.302 -1.51051,-0.9706 -1.8125,-1.8125 l -15.375,0 z" id="path48"/><path transform="matrix(1 0 0 2 0 974.36)" opacity="0.75099996" d="m 36,30.5 a 1,0.5 0 1 1 -2,0 1,0.5 0 1 1 2,0 z" id="6"/><path opacity="0.75099996" d="m 16,1035.3622 a 1,1 0 0 1 -2,0 1,1 0 1 1 2,0 z" id="path51"/></g><path opacity="0.38000039" d="m 18,1025.36 14,0 c 0.554,0 1,0.446 1,1 l 0,4 c 0,0.554 -0.446,1 -1,1 l -14,0 c -0.554,0 -1,-0.446 -1,-1 l 0,-4 c 0,-0.554 0.446,-1 1,-1 z" id="rect53" fill="#6a6a6a"/><path d="m 11.4576,1011.3622 27.0849,0 c 0.253258,0 0.421746,0.129 0.457144,0.2858 l 1.0004,4.4285 c 0.0354,0.1567 -0.203886,0.2857 -0.457144,0.2857 l -29.0857,0 c -0.253258,0 -0.492542,-0.129 -0.457144,-0.2857 l 1.0004,-4.4285 c 0.0354,-0.1568 0.203886,-0.2858 0.457144,-0.2858 z" id="path55" fill="url(#3)"/><path opacity="0.68000034" d="m 14,1012.3622 12,0 0,4 -12,0 z" id="path57" fill="url(#0)"/><path transform="matrix(1 0 0 1 0 1004.36)" stroke="#000" opacity="0.27000002" d="m 11.669,7.5004 c 0.02547,0 0.009,-0.032279 0,0.03125 l -1.2003,3.9996 c 3.35e-4,0.01041 3.35e-4,0.02084 0,0.03125 0.01041,-3.35e-4 0.02084,-3.35e-4 0.03125,0 0.0039,0.01751 -0.002,0.01678 0,0.03125 3.35e-4,0.01041 3.35e-4,0.02084 0,0.03125 9.38e-4,0.02323 0.0023,0.04958 0,0.0625 0.003,0.03115 0.003,0.0626 0,0.09375 -0.01549,0.110261 0,0.184109 0,0.21875 l 0,31 c 0,0.847376 0.652624,1.5 1.5,1.5 l 26,0 c 0.847376,0 1.5,-0.652624 1.5,-1.5 l 0,-31 c 0,-0.03465 0.01549,-0.108494 0,-0.21875 -0.0054,-0.04143 -0.0054,-0.08357 0,-0.125 -0.0013,-0.0208 -0.0013,-0.0417 0,-0.0625 0.002,-0.01445 -0.0039,-0.01379 0,-0.03125 -4.83e-4,-0.0018 0.03203,-0.0075 0.03125,0 -0.01088,-0.0099 -0.02132,-0.02037 -0.03125,-0.03125 0.01041,-3.35e-4 0.02084,-3.35e-4 0.03125,0 L 38.331,7.53165 c -0.009,-0.063523 -0.02547,-0.03125 0,-0.03125 z" id="path59" stroke-linejoin="round" fill="none"/><path opacity="0.54799996" d="m 16,1012.36 3,0 0,4 -3,0 z" id="path61"/><path d="m 32,1012.36 4,0 0,4 -4,0 z" id="path63" fill="url(#1)"/><path opacity="0.54799996" d="m 21,1012.36 3,0 0,4 -3,0 z" id="path65"/><path opacity="0.281" d="m 17.8125,1022.3617 c -0.41551,1.1583 -1.51118,2 -2.8125,2 l 0,9.0313 c 0.162744,-0.027 0.327411,-0.031 0.5,-0.031 1.38071,0 2.5,0.8954 2.5,2 0,1.1046 -1.11929,2 -2.5,2 -0.172589,0 -0.337256,0 -0.5,-0.031 l 0,1.5312 0,0.5 0.03125,0 c 0.338131,3.9126 4.66651,7 9.96875,7 5.30224,0 9.63062,-3.0874 9.96875,-7 l 0.03125,0 0,-0.5 0,-1.5312 c -0.162744,0.027 -0.327411,0.031 -0.5,0.031 -1.38071,0 -2.5,-0.8954 -2.5,-2 0,-1.1046 1.11929,-2 2.5,-2 0.172589,0 0.337256,0 0.5,0.031 l 0,-9.2188 c -0.841876,-0.302 -1.51051,-0.9706 -1.8125,-1.8125 l -15.375,0 z" id="path67"/><path transform="matrix(1 0 0 1 0 1004.36)" stroke="url(#4)" opacity="0.87000002" d="m 12.4062,8.562 -0.8438,2.8755 c 1.04e-4,0.01042 1.04e-4,0.02083 0,0.03125 0.02052,0.144869 0.02052,0.292631 0,0.4375 1.04e-4,0.01042 1.04e-4,0.02083 0,0.03125 -0.02103,0.149666 0,0.163851 0,0.0625 l 0,31 c 0,0.271015 0.166485,0.4375 0.4375,0.4375 l 26,0 c 0.271015,0 0.4375,-0.166485 0.4375,-0.4375 l 0,-31 c 0,0.101324 0.02103,0.08715 0,-0.0625 -0.02052,-0.144869 -0.02052,-0.292631 0,-0.4375 l 0,-0.03125 -0.8438,-2.9068 z" id="path69" stroke-linejoin="round" fill="none"/><path opacity="0.75099996" d="m 11,1016.36 28,0 0,1 -28,0 z" id="path71"/><path opacity="0.2" d="m 12,1017.36 26,0 0,1 -26,0 z" id="path73" fill="#fff"/><path transform="matrix(1 0 0 1 0 1004.36)" d="M 17.8125,17 C 17.39699,18.15834 16.30132,19 15,19 l 0,9.03125 C 15.16274,28.00461 15.327411,28 15.5,28 c 1.38071,0 2.5,0.895431 2.5,2 0,1.10457 -1.11929,2 -2.5,2 -0.172589,0 -0.337256,-0.0046 -0.5,-0.03125 l 0,1.53125 0,0.5 0.03125,0 c 0.338131,3.91259 4.66651,7 9.96875,7 5.30224,0 9.63062,-3.08741 9.96875,-7 L 35,34 35,33.5 35,31.96875 C 34.837256,31.995392 34.672589,32 34.5,32 33.11929,32 32,31.10457 32,30 c 0,-1.10457 1.11929,-2 2.5,-2 0.172589,0 0.337256,0.0046 0.5,0.03125 L 35,18.8125 C 34.15812,18.510513 33.48949,17.841871 33.1875,17 l -15.375,0 z" id="path75" fill="url(#2)"/><g id="g77" fill="#494949"><path opacity="0.75099996" d="m 16,1034.3622 a 1,1 0 0 1 -2,0 1,1 0 1 1 2,0 z" id="path79"/><use transform="matrix(1 0 0 1 0 -1)" width="48" height="48" xlink:href="#6" id="use81" y="0" x="0"/></g><path opacity="0.93599997" d="m 18,1024.36 14,0 c 0.554,0 1,0.446 1,1 l 0,4 c 0,0.554 -0.446,1 -1,1 l -14,0 c -0.554,0 -1,-0.446 -1,-1 l 0,-4 c 0,-0.554 0.446,-1 1,-1 z" id="rect83" fill="#fff"/><path opacity="0.38000039" d="m 19.25,1026.36 10.5,0 c 0.1385,0 0.25,0.1115 0.25,0.25 l 0,0.5 c 0,0.1385 -0.1115,0.25 -0.25,0.25 l -10.5,0 c -0.1385,0 -0.25,-0.1115 -0.25,-0.25 l 0,-0.5 c 0,-0.1385 0.1115,-0.25 0.25,-0.25 z" id="rect85"/><path opacity="0.38000039" d="m 19.25,1028.36 4.5,0 c 0.1385,0 0.25,0.1115 0.25,0.25 l 0,0.5 c 0,0.1385 -0.1115,0.25 -0.25,0.25 l -4.5,0 c -0.1385,0 -0.25,-0.1115 -0.25,-0.25 l 0,-0.5 c 0,-0.1385 0.1115,-0.25 0.25,-0.25 z" id="rect87"/><g id="g89" fill="#fff"><path opacity="0.75099996" d="m 36,1021.3622 a 1,1 0 0 1 -2,0 1,1 0 1 1 2,0 z" id="path91"/><path opacity="0.75099996" d="m 16,1021.3622 a 1,1 0 0 1 -2,0 1,1 0 1 1 2,0 z" id="path93"/></g><g id="g95" fill="#494949"><path opacity="0.75099996" d="m 16,1020.3622 a 1,1 0 0 1 -2,0 1,1 0 1 1 2,0 z" id="path97"/><path opacity="0.75099996" d="m 36,1020.3622 a 1,1 0 0 1 -2,0 1,1 0 1 1 2,0 z" id="path99"/></g></g><g transform="matrix(0 -1 -1 0 48 49)" id="g3657"><g transform="matrix(0.72727273 0 0 0.72727273 0.54545455 -3.454545)" id="g20" fill="none"/><g transform="matrix(-1 0 0 1 32 0)" id="g4268"><path stroke="none" opacity="0.2" d="m 17,1 0,4 C 9.8202983,5 4,10.820298 4,18 c 0,7.179702 5.8202983,13 13,13 7.179702,0 13,-5.820298 13,-13 -2,0 -4,0 -6,0 0,3.865993 -3.134007,7 -7,7 -3.865993,0 -7,-3.134007 -7,-7 0,-3.865993 3.134007,-7 7,-7 l 0,5 13,-8 z" id="path3668" fill-rule="evenodd" fill="#000" fill-opacity="1"/><path stroke="none" opacity="1" d="m 16,1 0,4 C 8.8202983,5 3,10.820298 3,18 c 0,7.179702 5.8202983,13 13,13 7.179702,0 13,-5.820298 13,-13 -2,0 -4,0 -6,0 0,3.865993 -3.134007,7 -7,7 -3.865993,0 -7,-3.134007 -7,-7 0,-3.865993 3.134007,-7 7,-7 l 0,5 13,-8 z" id="path3348" fill-rule="evenodd" fill="url(#linearGradient4165)" fill-opacity="1"/><path stroke="none" opacity="1" d="m 16,1 0,4 A 13,13 0 0 0 3,18 13,13 0 0 0 16,31 13,13 0 0 0 29,18 13,13 0 0 0 28.992188,17.84375 C 28.706759,17.936822 28.409083,18 28.091797,18 L 23,18 a 7,7 0 0 1 -7,7 7,7 0 0 1 -7,-7 7,7 0 0 1 7,-7 L 16,16 29,8 16,1 Z" id="path4167" fill-rule="evenodd" fill="none" fill-opacity="1"/><path stroke="#000" opacity="0.5" d="m 16.513672,1.859375 0,3.140625 A 0.51339836,0.51339836 0 0 1 16,5.5136719 C 9.0977316,5.5136719 3.5136719,11.097731 3.5136719,18 c 0,6.902269 5.5840597,12.486328 12.4863281,12.486328 6.7262,0 12.158664,-5.314682 12.433594,-11.972656 l -4.972656,0 c -0.269673,3.899989 -3.493533,7 -7.460938,7 -4.143426,0 -7.5136719,-3.370246 -7.5136719,-7.513672 0,-4.143426 3.3702459,-7.513672 7.5136719,-7.513672 A 0.51339836,0.51339836 0 0 1 16.513672,11 l 0,4.080078 L 27.972656,8.0292969 16.513672,1.859375 Z" id="path3345" fill-rule="evenodd" fill="none" fill-opacity="1"/><path stroke="url(#linearGradient4157)" opacity="0.6" d="M 17.533203,3.5664062 17.533203,5 A 1.5337245,1.5337245 0 0 1 16,6.5332031 C 9.6491016,6.5332031 4.5332031,11.649101 4.5332031,18 c 0,6.350899 5.1158985,11.466797 11.4667969,11.466797 5.806364,0 10.382272,-4.346989 11.158203,-9.933594 l -2.935547,0 c -0.749897,3.941519 -4.070773,7 -8.222656,7 C 11.305204,26.533203 7.4667969,22.694796 7.4667969,18 7.4667969,13.305204 11.305204,9.4667969 16,9.4667969 A 1.5337245,1.5337245 0 0 1 17.533203,11 l 0,2.253906 8.396485,-5.1660154 -8.396485,-4.5214844 z" id="path3349" fill-rule="evenodd" fill="none" fill-opacity="1"/></g></g><metadata id="metadata9999"><rdf:RDF><cc:Work><dc:format>image/svg+xml</dc:format><dc:type rdf:resource="http://purl.org/dc/dcmitype/StillImage"/><dc:title/><cc:license rdf:resource="http://creativecommons.org/licenses/by-sa/4.0/"/><dc:creator><cc:Agent><dc:title>Sixsixfive (sixsixfive.deviantart.com)</dc:title></cc:Agent></dc:creator><dc:publisher><cc:Agent><dc:title>Sixsixfive (sixsixfive.deviantart.com)</dc:title></cc:Agent></dc:publisher><dc:source>https://github.com/sixsixfive</dc:source><dc:subject><rdf:Bag><rdf:li>ivy</rdf:li></rdf:Bag></dc:subject><dc:contributor><cc:Agent><dc:title>ssf</dc:title></cc:Agent></dc:contributor><dc:rights><cc:Agent><dc:title>Sixsixfive (sixisixfive.deviantart.com)</dc:title></cc:Agent></dc:rights><dc:description>A simple icon theme published under CC-BY-SA_V4(http://creativecommons.org/licenses/by-sa/4.0)</dc:description><dc:identifier>SSF</dc:identifier></cc:Work></rdf:RDF></metadata><!--Part of the Ivy icon them published under the CC-BY-SA_V4: http://creativecommons.org/licenses/by-sa/4.0 -->
</svg>