<?xml version="1.0" encoding="UTF-8" standalone="no"?><svg viewBox="0 0 32 32" xmlns="http://www.w3.org/2000/svg" xmlns:svg="http://www.w3.org/2000/svg" xmlns:rdf="http://www.w3.org/1999/02/22-rdf-syntax-ns#" xmlns:xlink="http://www.w3.org/1999/xlink" version="1.1" id="svg2" xmlns:dc="http://purl.org/dc/elements/1.1/" xmlns:cc="http://creativecommons.org/ns#"><defs id="defs4"><linearGradient id="linearGradient4188"><stop id="stop4190" stop-color="#fff"/><stop stop-opacity="0" offset="1" id="stop4192" stop-color="#fff"/></linearGradient><linearGradient x1="29" xlink:href="#linearGradient4188" y1="5" x2="28.977" y2="26.977" id="linearGradient4194" gradientUnits="userSpaceOnUse"/><clipPath clipPathUnits="userSpaceOnUse" id="clipPath4284"><path id="path4286" d="M 5,7 5,23 27,23 27,7 5,7 Z" fill="#fff"/></clipPath></defs><rect y="5" x="2" opacity="0.05" ry="1.333" height="24" rx="1.333" id="rect4198" width="28"/><rect y="4" x="2" ry="1.333" height="24" rx="1.333" id="rect13" width="28" fill="#ddd"/><path id="path15" d="M 5,7 5,23 27,23 27,7 5,7 Z" fill="#5288d1"/><g opacity="0.9" id="g4278" clip-path="url(#clipPath4284)"><path display="inline" font-stretch="normal" visibility="visible" line-height="normal" stroke-dasharray="none" overflow="visible" text-anchor="start" color-rendering="auto" font-style="normal" color-interpolation-filters="linearRGB" opacity="0.3" font-family="sans-serif" text-decoration="none" stroke-width="2" fill="#000" letter-spacing="0" stroke-linejoin="miter" writing-mode="lr-tb" d="M 16.488281,9.03125 A 0.96882941,0.96882941 0 0 0 15.632812,9.5664062 L 11.921875,16.988281 9.8300781,13.501953 A 0.96882941,0.96882941 0 0 0 9,13.03125 l -6,0 A 0.96882941,0.96882941 0 0 0 2.03125,14 l 0,1 A 0.96882941,0.96882941 0 0 0 3,15.96875 l 4.9433594,0 3.2207026,5.519531 a 0.96882941,0.96882941 0 0 0 1.703126,-0.05469 l 2.615234,-5.232422 0.458984,3.175781 a 0.96882941,0.96882941 0 0 0 1.884766,0.150391 l 1.333984,-4.283203 0.955078,2.148437 a 0.96882941,0.96882941 0 0 0 0.875,0.576172 l 10.152344,0.103516 a 0.96882941,0.96882941 0 0 0 0.96875,-1.101563 L 31.958984,15.867188 A 0.96882941,0.96882941 0 0 0 31,15.03125 l -8.853516,0 -2.251953,-5.4042969 a 0.96882941,0.96882941 0 0 0 -1.814453,0.066406 L 17.572266,11.214844 17.464844,9.9199219 A 0.96882941,0.96882941 0 0 0 16.488281,9.03125 Z" stroke-linecap="butt" image-rendering="auto" stroke-miterlimit="7.5" font-weight="normal" text-rendering="auto" direction="ltr" fill-rule="evenodd" color-interpolation="sRGB" enable-background="accumulate" id="path4276" clip-rule="nonzero" baseline-shift="0" word-spacing="0" fill-opacity="1" font-size="0" color="#000" text-align="start" stroke="none" stroke-opacity="1" block-progression="tb" shape-rendering="auto" font-variant="normal" stroke-dashoffset="0"/><path display="inline" font-stretch="normal" visibility="visible" line-height="normal" stroke-dasharray="none" overflow="visible" text-anchor="start" color-rendering="auto" font-style="normal" color-interpolation-filters="linearRGB" opacity="1" font-family="sans-serif" text-decoration="none" stroke-width="2" fill="#f4f4f4" letter-spacing="0" stroke-linejoin="miter" writing-mode="lr-tb" d="m 19,10 -2,6 -0.5,-6 -4.5,9 -3,-5 -6,0 0,1 5.5,0 3.5,6 4,-8 0.9,6.238557 L 19,12.5 21,17 31.152543,17.102721 31,16 21.5,16 Z" stroke-linecap="butt" image-rendering="auto" stroke-miterlimit="7.5" font-weight="normal" text-rendering="auto" direction="ltr" fill-rule="evenodd" color-interpolation="sRGB" enable-background="accumulate" id="path4160" clip-rule="nonzero" baseline-shift="0" word-spacing="0" fill-opacity="1" font-size="0" color="#000" text-align="start" stroke="none" stroke-opacity="1" block-progression="tb" shape-rendering="auto" font-variant="normal" stroke-dashoffset="0"/></g><path stroke="#000" opacity="0.5" id="path3380" d="m 5.5078125,7.5078125 0,14.9843755 20.9843755,0 0,-14.9843755 -20.9843755,0 z" fill="none"/><path stroke="#000" opacity="0.4" id="path3384" d="m 3.3339844,4.5078125 c -0.4655682,0 -0.8261719,0.3606037 -0.8261719,0.8261719 l 0,21.3320316 c 0,0.465567 0.3606038,0.826171 0.8261719,0.826172 l 25.3320316,0 c 0.465567,0 0.826172,-0.360605 0.826172,-0.826172 l 0,-21.3320316 c 0,-0.4655681 -0.360605,-0.8261719 -0.826172,-0.8261719 l -25.3320316,0 z" fill="none"/><path stroke="url(#linearGradient4194)" opacity="0.76" id="path3386" d="m 3.5234375,5.5234375 0,20.9531245 24.9531245,0 0,-20.9531245 -24.9531245,0 z" fill="none"/><rect stroke-linejoin="round" y="23" x="5" stroke-linecap="round" opacity="0.8" height="1" id="rect4196" width="22" fill="#fff"/><metadata id="metadata9999"><rdf:RDF><cc:Work><dc:format>image/svg+xml</dc:format><dc:type rdf:resource="http://purl.org/dc/dcmitype/StillImage"/><dc:title/><cc:license rdf:resource="http://creativecommons.org/licenses/by-sa/4.0/"/><dc:creator><cc:Agent><dc:title>Sixsixfive (sixsixfive.deviantart.com)</dc:title></cc:Agent></dc:creator><dc:publisher><cc:Agent><dc:title>Sixsixfive (sixsixfive.deviantart.com)</dc:title></cc:Agent></dc:publisher><dc:source>https://github.com/sixsixfive</dc:source><dc:subject><rdf:Bag><rdf:li>ivy</rdf:li></rdf:Bag></dc:subject><dc:contributor><cc:Agent><dc:title>ssf</dc:title></cc:Agent></dc:contributor><dc:rights><cc:Agent><dc:title>Sixsixfive (sixisixfive.deviantart.com)</dc:title></cc:Agent></dc:rights><dc:description>A simple icon theme published under CC-BY-SA_V4(http://creativecommons.org/licenses/by-sa/4.0)</dc:description><dc:identifier>SSF</dc:identifier></cc:Work></rdf:RDF></metadata><!--Part of the Ivy icon them published under the CC-BY-SA_V4: http://creativecommons.org/licenses/by-sa/4.0 -->
</svg>