<?xml version="1.0" encoding="UTF-8" standalone="no"?><svg xmlns:cc="http://creativecommons.org/ns#" xmlns:rdf="http://www.w3.org/1999/02/22-rdf-syntax-ns#" xmlns:svg="http://www.w3.org/2000/svg" id="svg2" viewBox="0 0 48 48" version="1.1" xmlns="http://www.w3.org/2000/svg" xmlns:dc="http://purl.org/dc/elements/1.1/"><defs id="defs4"><linearGradient id="0" x2="0" y2="44.03" y1="4.972" gradientUnits="userSpaceOnUse"><stop id="stop7" stop-color="#fff"/><stop offset="1" id="stop9" stop-color="#fff" stop-opacity="0"/></linearGradient><linearGradient id="1" x2="44.21" y2="45.04" x1="44.15" y1="4.101" gradientUnits="userSpaceOnUse"><stop id="stop12" stop-color="#5288d1"/><stop offset="1" id="stop14" stop-color="#a4c1e7"/></linearGradient><radialGradient r="14" cx="41.09" id="2" cy="-2.1" gradientTransform="matrix(-1.42377 0.86859 -0.91413 -1.49843 80.59 -24.535)" gradientUnits="userSpaceOnUse"><stop id="stop17" stop-color="#dadada"/><stop offset="1" id="stop19" stop-color="#fff"/></radialGradient></defs><path id="path21" opacity="0.2" d="m 44.0691 25.4996 a 20.5 20.4985 0 1 1 -41 0 20.5 20.4985 0 1 1 41 0 z"/><path id="path23" d="m 44.0691 24.4998 a 20.5 20.4985 0 1 1 -41 0 20.5 20.4985 0 1 1 41 0 z" fill="url(#1)"/><path id="path25" d="m 39 24.505 a 15.5 15.5 0 0 1 -31 0 15.5 15.5 0 1 1 31 0 z" fill="url(#2)"/><g id="g27" fill="none"><path id="path29" opacity="0.4" d="m 24.1628,4.4998 a 20,19.9986 0 0 0 -20.5937,20 20,19.9986 0 0 0 40,0 20,19.9986 0 0 0 -19.4062,-20 z" stroke="#000"/><path id="path31" opacity="0.4" d="m 24.1338,5.4803 a 19.0244,19.023 0 0 0 -19.5892,19.0244 19.0244,19.023 0 0 0 38.0488,0 A 19.0244,19.023 0 0 0 24.1338,5.4803 Z" stroke="url(#0)"/></g><g id="g33" fill="#171717"><path id="path35" opacity="0.8" d="m 15.5024,24 a 0.966667,0.966667 0 1 1 -1.93333,0 0.966667,0.966667 0 1 1 1.93333,0 z"/><path id="path37" opacity="0.8" d="m 33.5691,24 a 0.966667,0.966667 0 1 1 -1.93333,0 0.966667,0.966667 0 1 1 1.93333,0 z"/><path id="path39" opacity="0.8" d="m 23.5691,16 a 0.966667,0.966667 0 1 1 0,-1.93333 0.966667,0.966667 0 1 1 0,1.93333 z"/><path id="path41" opacity="0.8" d="m 23.5691,34.9333 a 0.966667,0.966667 0 1 1 0,-1.93333 0.966667,0.966667 0 1 1 0,1.93333 z"/></g><path id="path43" opacity="0.379" d="M 23.9375 10 A 15.5 15.5 0 0 0 8 25.5 15.5 15.5 0 0 0 39 25.5 15.5 15.5 0 0 0 23.9375 10 z m -0.03125 1 A 14.5 14.5 0 0 1 38 25.5 14.5 14.5 0 0 1 9 25.5 14.5 14.5 0 0 1 23.90625 11 z" fill="#fff"/><path id="path45" opacity="0.8" d="m 19.6197,17.457 -0.25,1.7188 2.25,4.5625 a 2.41667,2.41667 0 0 0 -0.40625,1.3125 2.41667,2.41667 0 0 0 0.875,1.875 l -1.4375,2.75 0.2188,1.6875 1.5,-0.8125 1.625,-3.125 a 2.41667,2.41667 0 0 0 2.0625,-2.375 2.41667,2.41667 0 0 0 -2.78125,-2.375 l -2.1562,-4.375 -1.5,-0.8438 z" fill="#171717"/><path id="path47" opacity="0.6" d="M 23.9375 9 A 15.5 15.5 0 0 0 8 24.5 15.5 15.5 0 0 0 39 24.5 15.5 15.5 0 0 0 23.9375 9 z m -0.03125 1 A 14.5 14.5 0 0 1 38 24.5 14.5 14.5 0 0 1 9 24.5 14.5 14.5 0 0 1 23.90625 10 z"/><metadata id="metadata9999"><rdf:RDF><cc:Work><dc:format>image/svg+xml</dc:format><dc:type rdf:resource="http://purl.org/dc/dcmitype/StillImage"/><dc:title>Ivy icon theme</dc:title><cc:license rdf:resource="http://creativecommons.org/licenses/by-sa/4.0/"/><dc:creator><cc:Agent><dc:title>Sixsixfive (sixsixfive.deviantart.com)</dc:title></cc:Agent></dc:creator><dc:publisher><cc:Agent><dc:title>Sixsixfive (sixsixfive.deviantart.com)</dc:title></cc:Agent></dc:publisher><dc:source>https://github.com/sixsixfive</dc:source><dc:subject><rdf:Bag><rdf:li>ivy</rdf:li></rdf:Bag></dc:subject><dc:contributor><cc:Agent><dc:title>ssf</dc:title></cc:Agent></dc:contributor><dc:rights><cc:Agent><dc:title>Sixsixfive (sixisixfive.deviantart.com)</dc:title></cc:Agent></dc:rights><dc:description>A simple icon theme published under CC-BY-SA_V4(http://creativecommons.org/licenses/by-sa/4.0)</dc:description><dc:identifier>SSF</dc:identifier></cc:Work></rdf:RDF></metadata><!--Part of the Ivy icon them published under the CC-BY-SA_V4: http://creativecommons.org/licenses/by-sa/4.0 -->
</svg>