<?xml version="1.0" encoding="UTF-8" standalone="no"?>
<svg xmlns:dc="http://purl.org/dc/elements/1.1/" xmlns:cc="http://creativecommons.org/ns#" xmlns:rdf="http://www.w3.org/1999/02/22-rdf-syntax-ns#" xmlns:svg="http://www.w3.org/2000/svg" xmlns="http://www.w3.org/2000/svg" viewBox="0 0 48 48" id="svg2" version="1.1">
 <defs id="defs4">
  <linearGradient id="0" y1="3" y2="44" x2="0" gradientUnits="userSpaceOnUse">
   <stop stop-color="#dedede" id="stop7"/>
   <stop offset="1" stop-color="#f4f4f4" id="stop9"/>
  </linearGradient>
  <linearGradient id="1" y1="3" x1="40" y2="42.969" x2="39.906" gradientUnits="userSpaceOnUse">
   <stop stop-color="#fff" id="stop12"/>
   <stop offset="1" stop-color="#fff" stop-opacity="0" id="stop14"/>
  </linearGradient>
  <linearGradient id="2" y1="1" y2="7" x2="0" gradientUnits="userSpaceOnUse">
   <stop stop-color="#ebebeb" id="stop17"/>
   <stop offset="1" stop-color="#9a9a9a" id="stop19"/>
  </linearGradient>
 </defs>
 <rect width="39" x="4" opacity="0.15" y="2" rx="0.5" height="45" ry="1" id="rect21"/>
 <rect width="39" x="4" y="1" fill="#e4ae4e" rx="0.5" height="45" ry="1" id="rect23"/>
 <rect width="34.951" x="6" opacity="0.1" y="4" rx="1.209" height="42" ry="1.209" id="rect25"/>
 <rect width="34.951" x="5.986" y="3" fill="url(#0)" rx="1.209" height="42" ry="1.209" id="rect27"/>
 <path opacity="0.3" fill="#fff" d="M 10,8 H35 V10 H10 z" id="path29"/>
 <path opacity="0.4" fill="none" stroke="#000" d="M 7.1875 3.5 C 6.783721 3.5 6.5 3.799839 6.5 4.21875 v 39.5625 C 6.5 44.20016 6.783721 44.5 7.1875 44.5 h 32.5312 c 0.40378 0 0.71875 -0.31497 0.71875 -0.71875 V 4.21875 C 40.43745 3.814971 40.12248 3.5 39.7187 3.5 H 7.1875 z" id="path31"/>
 <path opacity="0.3" fill="#fff" d="M 10,12 H25 V14 H10 z" id="path33"/>
 <path opacity="0.78" fill="none" stroke="url(#1)" d="m 7.5312 4.5313 v 38.9375 h 31.875 v -38.9375 h -31.875 z" id="path35"/>
 <path opacity="0.3" fill="#fff" d="M 10,16 H29 V18 H10 z" id="path37"/>
 <path opacity="0.3" d="M 10,7 H35 V9 H10 z" id="path39"/>
 <path opacity="0.3" fill="#fff" d="M 10,20 H31 V22 H10 z" id="path41"/>
 <path opacity="0.3" d="M 10,11 H25 V13 H10 z" id="path43"/>
 <path opacity="0.3" fill="#fff" d="M 10,24 H29 V26 H10 z" id="path45"/>
 <path opacity="0.3" d="M 10,15 H29 V17 H10 z" id="path47"/>
 <path opacity="0.3" fill="#fff" d="M 10,28 H24 V30 H10 z" id="path49"/>
 <path opacity="0.3" d="M 10,19 H31 V21 H10 z" id="path51"/>
 <path opacity="0.3" fill="#fff" d="M 10,32 H29 V34 H10 z" id="path53"/>
 <path opacity="0.3" d="M 10,23 H29 V25 H10 z" id="path55"/>
 <path opacity="0.3" fill="#fff" d="M 10,36 H32 V38 H10 z" id="path57"/>
 <path opacity="0.3" d="M 10,27 H24 V29 H10 z" id="path59"/>
 <path opacity="0.3" fill="#fff" d="M 10,40 H27 V42 H10 z" id="path61"/>
 <path opacity="0.3" d="M 10,31 H29 V33 H10 z" id="path63"/>
 <path opacity="0.3" d="M 10,35 H32 V37 H10 z" id="path65"/>
 <path opacity="0.3" d="M 10,39 H27 V41 H10 z" id="path67"/>
 <path opacity="0.291" d="m 16.5,0.03125 c -0.530471,0 -0.96875,0.43827951 -0.96875,0.96875 l 0,1 c 0,0.5304705 0.438279,0.96875 0.96875,0.96875 l 1,0 0,-0.40625 0,-0.40625 c -0.0016,2.79e-5 0.03282,2.81e-5 0.03125,0 -0.0016,-2.81e-5 0.03282,8.41e-5 0.03125,0 -0.0016,-8.41e-5 0.03282,1.399e-4 0.03125,0 -0.0016,-1.399e-4 0.03281,1.956e-4 0.03125,0 -0.0016,-1.956e-4 0.0328,2.51e-4 0.03125,0 -0.0016,-2.51e-4 0.03279,3.061e-4 0.03125,0 -0.0015,-3.061e-4 0.03278,0.031611 0.03125,0.03125 -0.0015,-4.151e-4 0.03275,4.689e-4 0.03125,0 -0.0015,-4.689e-4 0.03273,5.22e-4 0.03125,0 -0.0015,-5.22e-4 0.03271,0.031824 0.03125,0.03125 -0.0015,-5.745e-4 0.03269,6.263e-4 0.03125,0 -0.0014,-6.263e-4 0.03267,6.773e-4 0.03125,0 -0.0014,-6.773e-4 0.03265,0.031977 0.03125,0.03125 -0.0014,-7.274e-4 0.03262,7.766e-4 0.03125,0 -0.0014,-7.766e-4 0.03259,0.032075 0.03125,0.03125 -0.0013,-8.72e-4 0.03253,0.032168 0.03125,0.03125 -0.0013,-9.18e-4 0.0325,0.032213 0.03125,0.03125 -0.0012,-9.629e-4 0.03246,0.00101 0.03125,0 -0.0012,-0.00101 0.0012,0.032299 0,0.03125 -0.0012,-0.00105 0.03239,0.00109 0.03125,0 -0.0011,-0.00109 0.03235,0.03238 0.03125,0.03125 -0.0011,-0.00113 0.03231,0.032418 0.03125,0.03125 -0.0011,-0.00117 0.001,0.032455 0,0.03125 -0.001,-0.0012 0.03222,0.00124 0.03125,0 -9.69e-4,-0.00124 9.24e-4,0.032524 0,0.03125 -9.24e-4,-0.00127 0.03213,0.032556 0.03125,0.03125 -8.78e-4,-0.00131 8.31e-4,0.032586 0,0.03125 -8.31e-4,-0.00134 0.03203,0.032615 0.03125,0.03125 -7.34e-4,-0.00139 0.03193,0.032667 0.03125,0.03125 l -0.375,0.1875 -0.375,0.1875 1.5,3 c 0.121787,0.2435743 0.205899,0.4439311 0.375,0.65625 C 19.461,6.724987 19.50337,6.8032386 19.625,6.875 19.746629,6.946761 19.895893,6.96875 20,6.96875 l 8,0 c 0.104107,0 0.253371,-0.021989 0.375,-0.09375 C 28.496629,6.803239 28.539004,6.7249873 28.59375,6.65625 28.762851,6.4439311 28.846963,6.2435743 28.96875,6 l 1.5,-3 -0.375,-0.1875 -0.375,-0.1875 c -6.84e-4,0.00142 0.03198,-0.032642 0.03125,-0.03125 -7.83e-4,0.00136 0.03208,-0.032586 0.03125,-0.03125 -8.31e-4,0.00134 8.78e-4,-0.032556 0,-0.03125 -8.78e-4,0.00131 0.03217,-0.032524 0.03125,-0.03125 -9.24e-4,0.00127 9.69e-4,-0.03249 0,-0.03125 -9.69e-4,0.00124 0.03226,-0.0012 0.03125,0 -0.001,0.0012 0.0011,-0.032418 0,-0.03125 -0.0011,0.00117 0.03235,-0.03238 0.03125,-0.03125 -0.0011,0.00113 0.03239,-0.03234 0.03125,-0.03125 -0.0011,0.00109 0.03242,-0.00105 0.03125,0 -0.0012,0.00105 0.0012,-0.032257 0,-0.03125 -0.0012,0.00101 0.0325,-9.629e-4 0.03125,0 C 29.96755,2.3447129 30.00128,2.311582 30,2.3125 29.9987,2.313418 30.03256,2.280378 30.03125,2.28125 30.02995,2.2820748 30.06387,2.249223 30.0625,2.25 c -0.0014,7.766e-4 0.03265,-7.274e-4 0.03125,0 -0.0014,7.274e-4 0.03267,-0.031927 0.03125,-0.03125 -0.0014,6.773e-4 0.03269,-6.263e-4 0.03125,0 -0.0014,6.263e-4 0.03271,-5.745e-4 0.03125,0 -0.0015,5.745e-4 0.03273,-0.031772 0.03125,-0.03125 -0.0015,5.22e-4 0.03275,-4.689e-4 0.03125,0 -0.0015,4.689e-4 0.03277,-4.151e-4 0.03125,0 -0.0015,3.609e-4 0.03279,-0.031556 0.03125,-0.03125 -0.0015,3.061e-4 0.0328,-2.51e-4 0.03125,0 -0.0016,2.51e-4 0.03281,-1.956e-4 0.03125,0 -0.0016,1.956e-4 0.03282,-1.399e-4 0.03125,0 -0.0016,1.399e-4 0.03282,-8.41e-5 0.03125,0 -0.0016,8.41e-5 0.03282,-2.81e-5 0.03125,0 -0.0016,2.81e-5 0.03282,2.79e-5 0.03125,0 l 0,0.40625 0,0.40625 1,0 c 0.530471,0 0.96875,-0.4382795 0.96875,-0.96875 l 0,-1 c 0,-0.53047049 -0.438279,-0.96875 -0.96875,-0.96875 l -15,0 z" transform="matrix(1 0 0 1 0 1.9)" id="path69"/>
 <rect width="17" x="15.5" fill="#c5c5c5" rx="1" height="3" ry="1" id="rect71"/>
 <path fill="url(#2)" d="m 18 1 h 12 c 0.554 0 1.24776 0.504487 1 1 L 29 6 C 28.752244 6.495513 28.554 7 28 7 H 20 C 19.446 7 19.247756 6.495513 19 6 L 17 2 C 16.752244 1.504487 17.446 1 18 1 z" id="path73"/>
 <g id="g75" fill="none" stroke="#000">
  <path d="M 4.625,1.53125 C 4.583132,1.614986 4.53125,1.794224 4.53125,2 l 0,43 c 0,0.205776 0.051882,0.385014 0.09375,0.46875 l 37.75,0 C 42.41687,45.38501 42.46875,45.20578 42.46875,45 l 0,-43 c 0,-0.205776 -0.05188,-0.385014 -0.09375,-0.46875 l -37.75,0 z" id="path77" opacity="0.4"/>
  <path d="m 16.5,0.4375 c -0.316588,0 -0.5625,0.245912 -0.5625,0.5625 l 0,1 c 0,0.316588 0.245912,0.5625 0.5625,0.5625 l 1,0 a 0.442397,0.442397 0 0 1 0.40625,0.25 l 1.5,3 c 0.129627,0.259254 0.21509,0.471445 0.3125,0.59375 C 19.81616,6.528555 19.857273,6.5625 20,6.5625 l 8,0 c 0.142727,0 0.18384,-0.033945 0.28125,-0.15625 0.09741,-0.122305 0.182873,-0.334496 0.3125,-0.59375 l 1.5,-3 A 0.442397,0.442397 0 0 1 30.5,2.5625 l 1,0 c 0.316588,0 0.5625,-0.245912 0.5625,-0.5625 l 0,-1 c 0,-0.316588 -0.245912,-0.5625 -0.5625,-0.5625 l -15,0 z" id="path79" opacity="0.4"/>
 </g>
 <rect width="14" x="17" opacity="0.601" y="1" fill="#fff" rx="1" height="1" ry="0.5" id="rect81"/>
 <metadata id="metadata9999">
  <rdf:RDF>
   <cc:Work>
    <dc:format>image/svg+xml</dc:format>
    <dc:type rdf:resource="http://purl.org/dc/dcmitype/StillImage"/>
    <dc:title>Ivy icon theme</dc:title>
    <cc:license rdf:resource="http://creativecommons.org/licenses/by-sa/4.0/"/>
    <dc:creator>
     <cc:Agent>
      <dc:title>Sixsixfive (sixsixfive.deviantart.com)</dc:title>
     </cc:Agent>
    </dc:creator>
    <dc:publisher>
     <cc:Agent>
      <dc:title>Sixsixfive (sixsixfive.deviantart.com)</dc:title>
     </cc:Agent>
    </dc:publisher>
    <dc:source>https://github.com/sixsixfive</dc:source>
    <dc:subject>
     <rdf:Bag>
      <rdf:li>ivy</rdf:li>
     </rdf:Bag>
    </dc:subject>
    <dc:contributor>
     <cc:Agent>
      <dc:title>ssf</dc:title>
     </cc:Agent>
    </dc:contributor>
    <dc:rights>
     <cc:Agent>
      <dc:title>Sixsixfive (sixisixfive.deviantart.com)</dc:title>
     </cc:Agent>
    </dc:rights>
    <dc:description>A simple icon theme published under CC-BY-SA_V4(http://creativecommons.org/licenses/by-sa/4.0)</dc:description>
    <dc:identifier>SSF</dc:identifier>
   </cc:Work>
  </rdf:RDF>
 </metadata>
 <!--Part of the Ivy icon them published under the CC-BY-SA_V4: http://creativecommons.org/licenses/by-sa/4.0 -->
</svg>
