<?xml version="1.0" encoding="UTF-8" standalone="no"?><svg xmlns:rdf="http://www.w3.org/1999/02/22-rdf-syntax-ns#" xmlns:cc="http://creativecommons.org/ns#" xmlns:svg="http://www.w3.org/2000/svg" id="svg2" viewBox="0 0 48 48" version="1.1" xmlns:xlink="http://www.w3.org/1999/xlink" xmlns:dc="http://purl.org/dc/elements/1.1/" xmlns="http://www.w3.org/2000/svg"><defs id="defs4"><linearGradient id="0" x2="0" y2="44.908" gradientTransform="matrix(0.85 0 0 1.1052632 1.92635 -4.635158)" y1="6.908" gradientUnits="userSpaceOnUse"><stop id="stop7" stop-color="#ddd"/><stop offset="1" id="stop9" stop-color="#fff"/></linearGradient><linearGradient id="0-6" x2="-8.185" y2="44.5" x1="-8.303" y1="37.438" gradientUnits="userSpaceOnUse"><stop id="stop4609" stop-color="#ebebeb"/><stop offset="1" id="stop4611" stop-color="#b7b7b7"/></linearGradient><linearGradient id="3" x2="0" y2="43.3" xlink:href="#4" y1="1.837" gradientUnits="userSpaceOnUse"/><linearGradient id="4"><stop id="stop4621" stop-color="#fff"/><stop offset="1" id="stop4623" stop-color="#fff" stop-opacity="0"/></linearGradient><radialGradient r="5.533" cx="-36.514" id="5" cy="26.712" gradientTransform="matrix(0.80584 -0.99328 0.99403 0.80645 -37.461983 -18.841178)" gradientUnits="userSpaceOnUse"><stop id="stop4626" stop-color="#f1d6a5"/><stop offset="1" id="stop4628" stop-color="#d49320"/></radialGradient><radialGradient r="14.5" cx="0.704" id="6" cy="16.184" gradientTransform="matrix(-0.55181 -0.46428 0.26293 -0.3125 -5.985 45.822)" gradientUnits="userSpaceOnUse"><stop id="stop4631" stop-color="#f28099"/><stop offset="1" id="stop4633" stop-color="#ed4c70"/></radialGradient></defs><path id="path11" opacity="0.1" d="M 7 4 H 41 V 46 H 7 z"/><path id="path13" d="M 7 3 H 41 V 45 H 7 z" fill="url(#0)"/><path id="path15" opacity="0.651" d="m 8.53125 4.53125 v 38.9375 h 30.9375 v -38.9375 h -30.9375 z" stroke="#fff" fill="none"/><path id="path17" d="M 7,32 H41 V45 H7 z" fill-rule="evenodd" fill="#5288d1"/><path id="path19" opacity="0.4" d="m 7.5 3.5 v 41 h 33 v -41 h -33 z" stroke="#000" fill="none"/><g id="g21" fill-rule="evenodd"><path id="path23" opacity="0.2" d="m 11,16 26,0 0,2 -26,0 z"/><path id="path25" opacity="0.4" d="m 8,32 32,0 0,1 -32,0 z"/><g id="g27" fill="#fff"><path id="path29" opacity="0.4" d="m 8,33 32,0 0,1 -32,0 z"/><path id="path31" opacity="0.3" d="m 11,18 26,0 0,1 -26,0 z"/></g><path id="path33" d="m 12,36 5,0 0,5 -5,0 z" fill="#ebebeb"/><g id="g35" fill="#6a6a6a"><path id="path37" opacity="0.8" d="m 12,23 8,0 0,5 -8,0 z"/><path id="path39" opacity="0.8" d="m 12,7 12,0 0,5 -12,0 z"/><path id="path41" opacity="0.8" d="m 27,7 9,0 0,5 -9,0 z"/><path id="path43" opacity="0.8" d="m 23,23 11,0 0,5 -11,0 z"/></g><g id="g45" fill="#ebebeb"><path id="path47" d="m 20,36 3,0 0,5 -3,0 z"/><path id="path49" d="m 26,36 10,0 0,5 -10,0 z"/></g></g><g id="g4806" transform="matrix(1 0 0 1 83.831983 0.593528)"><path id="path4823" opacity="0.1598" d="m -44.800983,34.538681 a 0.0525022,0.05270769 0 0 1 0.03125,0 l 2.1875,6.023484 1.7812,4.831336 1.7188,-4.831336 2.125,-6.023484 a 0.0525022,0.05270769 0 0 1 0.03125,0 l 0,-0.03137 0,-29.0507616 0,-2.2588065 c 0,-1.4970366 -1.1963,-2.6980189 -2.6875,-2.6980189 l -2.5,0 c -1.4912,0 -2.6875,1.2009823 -2.6875,2.6980189 l 0,2.2588065 0,29.0507616 0,0.03137 z"/><path id="path4679" opacity="0.39" d="m -45.800983,33.406322 a 0.0525022,0.0525022 0 0 1 0.03125,0 l 2.1875,6 1.7812,4.8125 1.7188,-4.8125 2.125,-6 a 0.0525022,0.0525022 0 0 1 0.03125,0 l 0,-0.03125 0,-28.9375 0,-2.25 c 0,-1.4912 -1.1963,-2.6875 -2.6875,-2.6875 l -2.5,0 c -1.4912,0 -2.6875,1.1963 -2.6875,2.6875 l 0,2.25 0,28.9375 0,0.03125 z" fill="#fff"/><g id="g4681" transform="matrix(0 -1 1 0 -81.831983 -1.493178)"><path id="path4683" opacity="0.67" d="m -34.931,36.969 29,0 0,8 -29,0 z" fill="#eed45a"/><path id="rect4685" d="m -27.188,36.969002 23.5140002,0 c 1.519622,0 2.74300004,1.223378 2.74300004,2.743 l 0,2.514 c 0,1.519622 -1.22337804,2.743 -2.74300004,2.743 l -23.5140002,0 c -1.519622,0 -2.743,-1.223378 -2.743,-2.743 l 0,-2.514 c 0,-1.519622 1.223378,-2.743 2.743,-2.743 z" fill="url(#6)"/></g><path id="path4687" d="m -44.863183,33.371622 8,0 -3.9222,11.066 c -4.07777,-11.066 0,0 -4.07777,-11.066 z" fill="url(#5)"/><g id="g4689" transform="matrix(0 -1 1 0 -81.831983 -1.493178)"><path id="path4691" d="m -34.931,42.969 29,0 0,2 -29,0 z" fill="#a07018"/><path id="path4693" d="m -34.931,39.969 29,0 0,3 -29,0 z" fill="#e4ae4e"/><path id="path4695" d="m -34.931,36.969 29,0 0,3 -29,0 z" fill="#eecd92"/><path id="path4697" d="m -9.931,36.969 4,0 0,8 -4,0 z" fill="url(#0-6)"/></g><path id="path4699" d="m -42.644483,39.437722 1.8438,5 1.7812,-5 -3.625,0 z" fill="#6a6a6a"/><g id="g4701" transform="matrix(1 0 0 1 -81.831983 -1.493178)" fill="none"><path id="path4703" opacity="0.48" d="m 37.4375,34.7746 2.1875,6 1.4062,3.7812 1.3438,-3.7812 2.125,-6 0,-0.0312 0,-28.8125 0,-2.25 c 0,-1.26728 -1.01397,-2.28125 -2.28125,-2.28125 l -2.5,0 c -1.26728,0 -2.28125,1.01397 -2.28125,2.28125 l 0,2.25 0,28.8438 z" stroke="#000"/><path id="path4705" opacity="0.4" d="m 38.4375,34.5871 2.125,5.8438 0.4375,1.1875 0.4375,-1.1875 2.0625,-5.8438 0,-28.6563 0,-2.25 c 0,-0.729114 -0.552135,-1.28125 -1.28125,-1.28125 l -2.5,0 c -0.729115,0 -1.28125,0.552136 -1.28125,1.28125 l 0,2.25 0,28.6563 z" stroke="url(#3)"/></g><path id="path4707" opacity="0.06" d="m -43.831983,33.506822 6,0 0,1 -6,0 z"/></g><metadata id="metadata9999"><rdf:RDF><cc:Work><dc:format>image/svg+xml</dc:format><dc:type rdf:resource="http://purl.org/dc/dcmitype/StillImage"/><dc:title>Ivy icon theme</dc:title><cc:license rdf:resource="http://creativecommons.org/licenses/by-sa/4.0/"/><dc:creator><cc:Agent><dc:title>Sixsixfive (sixsixfive.deviantart.com)</dc:title></cc:Agent></dc:creator><dc:publisher><cc:Agent><dc:title>Sixsixfive (sixsixfive.deviantart.com)</dc:title></cc:Agent></dc:publisher><dc:source>https://github.com/sixsixfive</dc:source><dc:subject><rdf:Bag><rdf:li>ivy</rdf:li></rdf:Bag></dc:subject><dc:contributor><cc:Agent><dc:title>ssf</dc:title></cc:Agent></dc:contributor><dc:rights><cc:Agent><dc:title>Sixsixfive (sixisixfive.deviantart.com)</dc:title></cc:Agent></dc:rights><dc:description>A simple icon theme published under CC-BY-SA_V4(http://creativecommons.org/licenses/by-sa/4.0)</dc:description><dc:identifier>SSF</dc:identifier></cc:Work></rdf:RDF></metadata><!--Part of the Ivy icon them published under the CC-BY-SA_V4: http://creativecommons.org/licenses/by-sa/4.0 -->
</svg>