<?xml version="1.0" encoding="UTF-8" standalone="no"?><svg xmlns:cc="http://creativecommons.org/ns#" xmlns:svg="http://www.w3.org/2000/svg" xmlns="http://www.w3.org/2000/svg" xmlns:dc="http://purl.org/dc/elements/1.1/" xmlns:rdf="http://www.w3.org/1999/02/22-rdf-syntax-ns#" id="svg2" version="1.1" viewBox="0 0 48 48" xmlns:xlink="http://www.w3.org/1999/xlink"><defs id="0"><linearGradient id="linearGradient4165"><stop id="stop4167" stop-color="#eed45a"/><stop id="stop4169" stop-color="#e9c82a" offset="1"/></linearGradient><linearGradient id="D"><stop id="F" stop-color="#fff"/><stop stop-opacity="0" id="G" stop-color="#fff" offset="1"/></linearGradient><linearGradient gradientUnits="userSpaceOnUse" xlink:href="#D" id="E" x1="44" x2="4"/><linearGradient gradientUnits="userSpaceOnUse" xlink:href="#linearGradient4165" id="linearGradient4171" x1="3" x2="45"/></defs><g transform="matrix(0 -1 1 0 -2 48)" id="g4144"><path opacity="0.2" d="m 2,14 0,24 42,0 0,-24 -42,0 0,0 z" id="path4163"/><path d="m 3,14 0,24 42,0 0,-24 -42,0 0,0 z" id="2" fill="url(#linearGradient4171)"/><path stroke="#000" opacity="0.4" d="m 3.53125,14.53125 0,22.9375 40.9375,0 0,-22.9375 -40.9375,0 z" id="B" fill="none"/><path stroke="url(#E)" opacity="0.65" d="m 4.53125,15.53125 0,20.9375 38.9375,0 0,-20.9375 -38.9375,0 z" id="C" fill="none"/></g><g id="g4185" fill="#fff"><path stroke-width="19.5" opacity="0.4" stroke-dasharray="39 19.5 9.75 19.5" d="m 13,9 7,0 0,2 -7,0 z" stroke-linejoin="round" id="rect4173" stroke-linecap="round"/><path stroke-width="19.5" opacity="0.4" stroke-dasharray="39 19.5 9.75 19.5" d="m 13,15 10,0 0,2 -10,0 z" stroke-linejoin="round" id="rect4175" stroke-linecap="round"/><path stroke-width="19.5" opacity="0.4" stroke-dasharray="39 19.5 9.75 19.5" d="m 13,21 7,0 0,2 -7,0 z" stroke-linejoin="round" id="rect4177" stroke-linecap="round"/><path stroke-width="19.5" opacity="0.4" stroke-dasharray="39 19.5 9.75 19.5" d="m 13,27 10,0 0,2 -10,0 z" stroke-linejoin="round" id="rect4179" stroke-linecap="round"/><path stroke-width="19.5" opacity="0.4" stroke-dasharray="39 19.5 9.75 19.5" d="m 13,33 7,0 0,2 -7,0 z" stroke-linejoin="round" id="rect4181" stroke-linecap="round"/><path stroke-width="19.5" opacity="0.4" stroke-dasharray="39 19.5 9.75 19.5" d="m 13,39 10,0 0,2 -10,0 z" stroke-linejoin="round" id="rect4183" stroke-linecap="round"/></g><rect width="7" height="2" stroke-width="19.5" opacity="0.4" stroke-dasharray="39 19.5 9.75 19.5" stroke-linejoin="round" id="rect4151" y="8" x="13" stroke-linecap="round"/><rect width="10" height="2" stroke-width="19.5" opacity="0.4" stroke-dasharray="39 19.5 9.75 19.5" stroke-linejoin="round" id="rect4153" y="14" x="13" stroke-linecap="round"/><rect width="7" height="2" stroke-width="19.5" opacity="0.4" stroke-dasharray="39 19.5 9.75 19.5" stroke-linejoin="round" id="rect4155" y="20" x="13" stroke-linecap="round"/><rect width="10" height="2" stroke-width="19.5" opacity="0.4" stroke-dasharray="39 19.5 9.75 19.5" stroke-linejoin="round" id="rect4157" y="26" x="13" stroke-linecap="round"/><rect width="7" height="2" stroke-width="19.5" opacity="0.4" stroke-dasharray="39 19.5 9.75 19.5" stroke-linejoin="round" id="rect4159" y="32" x="13" stroke-linecap="round"/><rect width="10" height="2" stroke-width="19.5" opacity="0.4" stroke-dasharray="39 19.5 9.75 19.5" stroke-linejoin="round" id="rect4161" y="38" x="13" stroke-linecap="round"/><metadata id="metadata9999"><rdf:RDF><cc:Work><dc:format>image/svg+xml</dc:format><dc:type rdf:resource="http://purl.org/dc/dcmitype/StillImage"/><dc:title>Ivy icon theme</dc:title><cc:license rdf:resource="http://creativecommons.org/licenses/by-sa/4.0/"/><dc:creator><cc:Agent><dc:title>Sixsixfive (sixsixfive.deviantart.com)</dc:title></cc:Agent></dc:creator><dc:publisher><cc:Agent><dc:title>Sixsixfive (sixsixfive.deviantart.com)</dc:title></cc:Agent></dc:publisher><dc:source>https://github.com/sixsixfive</dc:source><dc:subject><rdf:Bag><rdf:li>ivy</rdf:li></rdf:Bag></dc:subject><dc:contributor><cc:Agent><dc:title>ssf</dc:title></cc:Agent></dc:contributor><dc:rights><cc:Agent><dc:title>Sixsixfive (sixisixfive.deviantart.com)</dc:title></cc:Agent></dc:rights><dc:description>A simple icon theme published under CC-BY-SA_V4(http://creativecommons.org/licenses/by-sa/4.0)</dc:description><dc:identifier>SSF</dc:identifier></cc:Work></rdf:RDF></metadata><!--Part of the Ivy icon them published under the CC-BY-SA_V4: http://creativecommons.org/licenses/by-sa/4.0 -->
</svg>