<?xml version="1.0" encoding="UTF-8" standalone="no"?><svg xmlns:cc="http://creativecommons.org/ns#" xmlns:dc="http://purl.org/dc/elements/1.1/" xmlns:svg="http://www.w3.org/2000/svg" xmlns="http://www.w3.org/2000/svg" xmlns:rdf="http://www.w3.org/1999/02/22-rdf-syntax-ns#" id="svg2" version="1.1" xmlns:xlink="http://www.w3.org/1999/xlink" viewBox="0 0 32 32"><defs id="defs4"><linearGradient gradientTransform="matrix(0.7 0 0 0.68421 -0.8 -0.421)" gradientUnits="userSpaceOnUse" y1="5" id="1" y2="43" x2="0"><stop id="stop7" stop-color="#ebebeb"/><stop id="stop9" stop-color="#f3f3f3" offset="1"/></linearGradient><linearGradient gradientTransform="matrix(0.7 0 0 0.69176 -0.8 -0.459)" gradientUnits="userSpaceOnUse" y1="5" id="2" y2="15" x2="0"><stop id="stop12" stop-color="#5288d1"/><stop id="stop14" stop-color="#89aee0" offset="1"/></linearGradient><linearGradient gradientUnits="userSpaceOnUse" y1="4" id="3" x1="29" y2="27.969" x2="28.969"><stop id="stop17" stop-color="#fff"/><stop stop-opacity="0" id="stop19" stop-color="#fff" offset="1"/></linearGradient></defs><path opacity="0.1" d="M 2,4 H30 V30 H2 z" id="path21"/><path d="M 2,3 H30 V29 H2 z" id="path23" fill="url(#1)"/><path d="m 18 13 v 2 v 2 h 2 v -2 h 1 v 8.999998 l -3 -0.05263 V 26 H 22.846154 C 24.23077 26 24.615385 26 26 26 v -2.052632 c -1.333629 -0.01255 -1.666771 0.0258 -3 0.05263 v -9 v -2 h -1.538462 z" id="path25" fill="#fff"/><path d="M 2,3 H30 V10 H2 z" id="path27" fill="url(#2)"/><path d="m 18 12 v 2 v 2 h 2 v -2 h 1 v 8.999998 l -3 -0.05263 V 25 H 22.846154 C 24.23077 25 24.615385 25 26 25 v -2.052632 c -1.333629 -0.01255 -1.666771 0.0258 -3 0.05263 v -9 v -2 h -1.538462 z" id="path29" fill="#6a6a6a"/><path d="M 6 13 V 15.05263 V 17 h 2 v -1.947368 h 4 V 18 h -3 v 2 h 3 v 3.947368 h -4 V 22 H 6 V 23.947368 V 26 H 14 V 23.947368 V 15.05263 V 13 H 12 H 8 z" id="path31" fill="#fff"/><path d="M 6 12 V 14.05263 V 16 h 2 v -1.947368 h 4 V 17 h -3 v 2 h 3 v 3.947368 h -4 V 21 H 6 V 22.947368 V 25 H 14 V 22.947368 V 14.05263 V 12 H 12 H 8 z" id="path33" fill="#6a6a6a"/><path opacity="0.5" d="M 3,9 H29 V10 H3 z" id="path35" fill="#171717"/><path stroke="#000" opacity="0.4" d="m 2.53125 3.53125 v 24.9375 h 26.9375 v -24.9375 h -26.9375 z" id="path37" fill="none"/><rect width="6" ry="2.175" height="7.01" rx="3" opacity="0.2" id="rect39" y="1.985" x="7" fill="#fff"/><path stroke="url(#3)" opacity="0.4" d="m 3.53125 4.53125 v 22.9375 h 24.9375 v -22.9375 h -24.9375 z" id="path41" fill="none"/><rect width="4" ry="2.175" height="7.01" rx="2" id="rect43" y="0.985" x="8" fill="#ddd"/><path opacity="0.8" d="M 4,10 H28 V11 H4 z" id="path45" fill="#fff"/><path stroke="#000" opacity="0.4" d="M 10 1.5 C 9.186539 1.5 8.5 2.205334 8.5 3.15625 v 2.65625 C 8.5 6.763416 9.196213 7.5 10 7.5 c 0.803787 0 1.5 -0.736584 1.5 -1.6875 v -2.65625 C 11.5 2.205334 10.813461 1.5 10 1.5 z" id="0" fill="none"/><g id="g48" fill="#fff"><path opacity="0.852" d="m 10,2 c 0.554,0 1,0.223 1,0.5 C 11,2.777 10.554,3 10,3 9.446,3 9,2.777 9,2.5 9,2.223 9.446,2 10,2 Z" id="rect50"/><path opacity="0.2" d="m 22,1.985 c 1.662,0 3,0.97005 3,2.175 l 0,2.6600003 c 0,1.20495 -1.338,2.1749999 -3,2.1749999 -1.662,0 -3,-0.9700499 -3,-2.1749999 L 19,4.16 c 0,-1.20495 1.338,-2.175 3,-2.175 z" id="rect52"/></g><rect width="4" ry="2.175" height="7.01" rx="2" id="rect54" y="0.985" x="20" fill="#ddd"/><use transform="matrix(1 0 0 1 12 0)" xlink:href="#0" id="use56"/><rect width="2" ry="0.5" height="1" rx="1" opacity="0.852" id="rect58" y="2" x="21" fill="#fff"/><metadata id="metadata9999"><rdf:RDF><cc:Work><dc:format>image/svg+xml</dc:format><dc:type rdf:resource="http://purl.org/dc/dcmitype/StillImage"/><dc:title>Ivy icon theme</dc:title><cc:license rdf:resource="http://creativecommons.org/licenses/by-sa/4.0/"/><dc:creator><cc:Agent><dc:title>Sixsixfive (sixsixfive.deviantart.com)</dc:title></cc:Agent></dc:creator><dc:publisher><cc:Agent><dc:title>Sixsixfive (sixsixfive.deviantart.com)</dc:title></cc:Agent></dc:publisher><dc:source>https://github.com/sixsixfive</dc:source><dc:subject><rdf:Bag><rdf:li>ivy</rdf:li></rdf:Bag></dc:subject><dc:contributor><cc:Agent><dc:title>ssf</dc:title></cc:Agent></dc:contributor><dc:rights><cc:Agent><dc:title>Sixsixfive (sixisixfive.deviantart.com)</dc:title></cc:Agent></dc:rights><dc:description>A simple icon theme published under CC-BY-SA_V4(http://creativecommons.org/licenses/by-sa/4.0)</dc:description><dc:identifier>SSF</dc:identifier></cc:Work></rdf:RDF></metadata><!--Part of the Ivy icon them published under the CC-BY-SA_V4: http://creativecommons.org/licenses/by-sa/4.0 -->
</svg>