<?xml version="1.0" encoding="UTF-8" standalone="no"?><svg viewBox="0 0 48 48" xmlns="http://www.w3.org/2000/svg" xmlns:svg="http://www.w3.org/2000/svg" xmlns:rdf="http://www.w3.org/1999/02/22-rdf-syntax-ns#" xmlns:xlink="http://www.w3.org/1999/xlink" version="1.1" id="svg2" xmlns:dc="http://purl.org/dc/elements/1.1/" xmlns:cc="http://creativecommons.org/ns#"><defs id="defs4"><linearGradient x1="36.824" y1="35.892" x2="41.41" y2="40.454" id="0" gradientUnits="userSpaceOnUse"><stop id="stop7" stop-color="#f7ecb7"/><stop offset="1" id="stop9" stop-color="#eed45a"/></linearGradient><linearGradient x1="37.66" xlink:href="#5" y1="36.763" x2="40.776" y2="39.721" id="1" gradientUnits="userSpaceOnUse"/><linearGradient x1="45.03" y1="45.36" x2="45" y2="3.104" id="2" gradientUnits="userSpaceOnUse"><stop id="stop13" stop-color="#f6e8a7"/><stop offset="1" id="stop15" stop-color="#eed45a"/></linearGradient><linearGradient x1="45.985" y1="44.864" x2="46.03" y2="8.297" id="3" gradientUnits="userSpaceOnUse"><stop id="stop18" stop-color="#e6e6e6"/><stop offset="1" id="stop20" stop-color="#fff"/></linearGradient><linearGradient xlink:href="#5" y1="3.969" x2="0" y2="44.03" id="4" gradientUnits="userSpaceOnUse"/><linearGradient id="5"><stop id="stop24" stop-color="#fff"/><stop stop-opacity="0" offset="1" id="stop26" stop-color="#fff"/></linearGradient><radialGradient gradientTransform="matrix(1 0 0 0.06845 0 42.628)" id="6" cy="45.761" cx="22.515" r="20.337" gradientUnits="userSpaceOnUse"><stop stop-opacity="0.2" id="stop29"/><stop stop-opacity="0" offset="1" id="stop31"/></radialGradient></defs><path transform="matrix(0.90025 0 0 1.07752 -0.97 -4.255)" id="path33" d="m 42.8521 45.7606 a 20.3366 1.39209 0 1 1 -40.6731 0 20.3366 1.39209 0 1 1 40.6731 0 z" fill="url(#6)"/><path id="path35" d="m 2.9998,45 0,-42 42,0 0,32 -9.5455,10 -32.4545,0 z" fill="url(#2)"/><g id="g37" fill="none"><path stroke="#000" opacity="0.4" id="path39" d="m 3.5,3.5 0,41 31.78125,0 L 44.5,34.8125 44.5,3.5 l -41,0 z"/><path stroke="url(#4)" opacity="0.75" id="path41" d="m 4.4688,4.4688 0,39.0625 30.3438,0 8.7188,-9.125 0,-29.9375 -39.0625,0 z"/></g><g transform="matrix(1.05184 0 0 1.10037 -3.384 -4.545)" id="g43"><path id="path45" d="M 36.8357,35.8357 36.8359,45 46,35.8357 l -9.16434,0 z" fill="url(#3)"/><path id="path47" d="m 36.8357,45 0,-9.1643 9.1643,0 L 36.8357,45 Z" fill="url(#0)"/><g stroke-width="0.916" id="g49" fill="none"><path stroke="#000" opacity="0.4" id="path51" d="m 37.2939,43.9117 0,-7.6179 7.6179,0 -7.6179,7.6179 z"/><path stroke="url(#1)" opacity="0.4" id="path53" d="m 38.2103,41.6779 0,-4.4676 4.4676,0 -2.1777,2.1777 -0.2726,0.2726 z"/></g></g><metadata id="metadata9999"><rdf:RDF><cc:Work><dc:format>image/svg+xml</dc:format><dc:type rdf:resource="http://purl.org/dc/dcmitype/StillImage"/><dc:title>Ivy icon theme</dc:title><cc:license rdf:resource="http://creativecommons.org/licenses/by-sa/4.0/"/><dc:creator><cc:Agent><dc:title>Sixsixfive (sixsixfive.deviantart.com)</dc:title></cc:Agent></dc:creator><dc:publisher><cc:Agent><dc:title>Sixsixfive (sixsixfive.deviantart.com)</dc:title></cc:Agent></dc:publisher><dc:source>https://github.com/sixsixfive</dc:source><dc:subject><rdf:Bag><rdf:li>ivy</rdf:li></rdf:Bag></dc:subject><dc:contributor><cc:Agent><dc:title>ssf</dc:title></cc:Agent></dc:contributor><dc:rights><cc:Agent><dc:title>Sixsixfive (sixisixfive.deviantart.com)</dc:title></cc:Agent></dc:rights><dc:description>A simple icon theme published under CC-BY-SA_V4(http://creativecommons.org/licenses/by-sa/4.0)</dc:description><dc:identifier>SSF</dc:identifier></cc:Work></rdf:RDF></metadata><!--Part of the Ivy icon them published under the CC-BY-SA_V4: http://creativecommons.org/licenses/by-sa/4.0 -->
</svg>