<?xml version="1.0" encoding="UTF-8" standalone="no"?>
<svg xmlns:dc="http://purl.org/dc/elements/1.1/" xmlns:cc="http://creativecommons.org/ns#" xmlns:rdf="http://www.w3.org/1999/02/22-rdf-syntax-ns#" xmlns:svg="http://www.w3.org/2000/svg" xmlns="http://www.w3.org/2000/svg" xmlns:xlink="http://www.w3.org/1999/xlink" viewBox="0 0 32 32" id="svg2" version="1.1">
 <defs id="defs4">
  <path fill="url(#linearGradient4205)" id="0" d="m 17.857143,22.07834 a 2.64977,2.534562 0 1 1 -5.299539,0 2.64977,2.534562 0 1 1 5.299539,0 z"/>
  <linearGradient id="2" y1="15.246" y2="42.621" x2="0" gradientUnits="userSpaceOnUse" gradientTransform="matrix(1.0000003 0 0 0.70227926 -7.953065 0.293104)">
   <stop stop-color="#7c0000" id="stop9"/>
   <stop offset="1" stop-color="#2e3436" id="stop11"/>
  </linearGradient>
  <linearGradient id="3" y1="9.668" y2="42.621" x2="0" gradientUnits="userSpaceOnUse" gradientTransform="matrix(0.68750002 0 0 0.69795647 -0.467727 0.252451)">
   <stop stop-color="#d02604" id="stop14"/>
   <stop offset="1" stop-color="#fc694b" id="stop16"/>
  </linearGradient>
  <linearGradient id="5" y1="18.661" y2="36.3" gradientUnits="userSpaceOnUse" x2="0">
   <stop stop-color="#eeeeec" id="stop20"/>
   <stop offset="1" stop-color="#888a85" id="stop22"/>
  </linearGradient>
  <linearGradient id="linearGradient4205" xlink:href="#5" y1="18.661" y2="36.3" x2="0" gradientUnits="userSpaceOnUse"/>
 </defs>
 <path opacity="0.096" isolation="auto" color-rendering="auto" white-space="normal" solid-opacity="1" shape-rendering="auto" mix-blend-mode="normal" color-interpolation-filters="linearRGB" image-rendering="auto" fill-rule="evenodd" id="path4261" color-interpolation="sRGB" color="#000" d="M 10.707031,3.0998184 10,3.8068496 11.365234,5.172084 C 9.8668091,5.8901605 8.516993,6.9295646 7.4394531,8.1896622 6.7362636,8.4590148 6.2560582,9.7070328 5.7773438,10.441614 5.6288451,10.724039 5.4990002,11.015466 5.3691406,11.306845 L 2.7851562,9.2716934 2.1660156,10.058803 4.9804688,12.273642 C 4.4162104,13.81712 4.0982463,15.450827 4.0253906,17.099814 l -3.0253906,0 0,1 3.0097656,0 c 0.038814,2.453806 0.6124219,4.894428 1.7265625,7.060547 L 3,27.314658 3.6191406,28.099814 6.2304688,26.043173 c 0.6746407,1.114021 1.4975473,2.141967 2.4765624,3.035157 2.8059218,2.636413 7.0712308,3.668418 10.7187498,2.328125 2.261771,-0.797009 4.139194,-2.309787 5.554688,-4.195313 l 2.40039,1.888672 L 28,28.314658 25.554688,26.388876 c 1.177005,-1.823865 1.954522,-3.924645 2.257812,-6.046874 0.113662,-0.740795 0.158441,-1.490692 0.169922,-2.242188 l 3.017578,0 0,-1 -3.013672,0 C 27.911634,15.441433 27.582627,13.79331 27.011719,12.238486 L 30,9.8849746 29.380859,9.0998184 26.609375,11.281455 C 26.104479,10.149658 25.477142,9.0736345 24.695312,8.1017715 23.994814,7.8409591 23.337799,6.7545713 22.533203,6.3088028 21.997579,5.9089866 21.423881,5.5632432 20.826172,5.2638809 L 22,3.6994278 21.199219,3.0998184 19.888672,4.8478653 C 18.651802,4.363977 17.333062,4.094123 16,4.0998184 14.750082,4.0898096 13.519787,4.3237447 12.357422,4.750209 L 10.707031,3.0998184 Z" solid-color="#000000"/>
 <path fill="none" fill-rule="evenodd" stroke="#000" id="path4251" d="m 10.353553,2.3535534 4,4"/>
 <path fill="none" fill-rule="evenodd" stroke="#000" id="path4253" d="m 18.6,6.3 3,-4"/>
 <path opacity="0.958" stroke-linejoin="bevel" id="rect4238" stroke-linecap="round" d="M 29.380859 8 L 19.21875 16 L 12.726562 16 L 2.7851562 8.171875 L 2.1660156 8.9589844 L 11.111328 16 L 1 16 L 1 17 L 31 17 L 31 16 L 20.835938 16 L 30 8.7851562 L 29.380859 8 z M 13.214844 18.171875 L 3 26.214844 L 3.6191406 27 L 13.833984 18.958984 L 13.214844 18.171875 z M 17.785156 19.171875 L 17.166016 19.958984 L 27.380859 28 L 28 27.214844 L 17.785156 19.171875 z "/>
 <path fill="#111" id="path4222" d="M 16,3 C 12.712433,2.9736745 9.5538223,4.616625 7.4389206,7.0898349 6.7357311,7.3591875 6.2565995,8.6075728 5.7778851,9.3421553 2.6467473,15.29721 3.6617381,23.375086 8.7066972,27.97778 11.512619,30.614193 15.778396,31.646275 19.425915,30.305982 24.085703,28.663954 27.132114,24.00359 27.812463,19.24295 28.467816,14.971664 27.423242,10.392824 24.695313,7.0018365 23.994814,6.7410241 23.338459,5.6548475 22.533863,5.209079 20.65931,3.8098214 18.346925,2.9899729 16,3 Z"/>
 <path fill="url(#3)" id="path44" d="m 8.0292969,7.7308269 c 0.828465,-0.9698929 0.8153998,-0.9787992 0,0 z m 0,0 C 6.1584031,10.099218 5,13.284611 5,16.804261 5,24.095772 9.9280004,30 16.000001,30 22.072,30 26.999999,24.095772 27,16.804261 27,13.284613 25.841597,10.099218 23.970703,7.7308269 21.770228,9.2901702 18.60307,10.937065 16.000001,10.937065 c -2.603071,0 -5.770229,-1.6468948 -7.9707041,-3.2062381 z m 15.9414061,0 c -0.826163,-0.9695495 -0.817511,-0.97931 0,0 z"/>
 <path fill="#555753" id="path46" d="M 16.000001,4 C 12.858985,4 10.034256,5.52946 8.0292969,7.9465871 10.229772,9.4316044 13.39693,11 16.000001,11 18.60307,11 21.770228,9.4316044 23.970703,7.9465871 21.965745,5.529459 19.141015,4 16.000001,4 Z"/>
 <path opacity="0.39" fill="none" fill-rule="evenodd" stroke="#fff" id="path4259" d="M 24.616145,8.3080725 C 19,13 12.871224,13.874422 7.5378913,8.4621087"/>
 <path fill="url(#2)" id="path50" d="m 15,11 0,19.181003 c 0.334547,0.01733 0.660215,0.04389 1.000001,0.04389 0.339786,0 0.665452,-0.02657 0.999999,-0.04389 L 17,11 c -0.336307,0.0234 -0.674412,0.04389 -0.999999,0.04389 C 15.674412,11.043896 15.336307,11.023407 15,11 Z"/>
 <use width="32" height="32" xlink:href="#0" id="use60" transform="matrix(0.98974 0 0 0.98974 -4.868 -6.406667)"/>
 <use width="32" height="32" xlink:href="#0" id="use62" transform="matrix(0.47454 0 0 0.47454 4.717333 13.018)"/>
 <use width="32" height="32" xlink:href="#0" id="use64" transform="matrix(0.43478 0 0 0.43478 13.668667 5.305333)"/>
 <use width="32" height="32" xlink:href="#0" id="use66" transform="matrix(0.64247334 0 0 0.64247334 10.058 8.444)"/>
 <use width="32" height="32" xlink:href="#0" id="use68" transform="matrix(0.43478 0 0 0.43478 16.04733 8.838667)"/>
 <path opacity="0.466" fill="none" fill-rule="evenodd" stroke="#000" id="path4255" d="m 8,8 c 6.292827,5.037343 11.339409,3.5319 16,0"/>
 <metadata id="metadata9999">
  <rdf:RDF>
   <cc:Work>
    <dc:format>image/svg+xml</dc:format>
    <dc:type rdf:resource="http://purl.org/dc/dcmitype/StillImage"/>
    <dc:title>Ivy icon theme</dc:title>
    <cc:license rdf:resource="http://creativecommons.org/licenses/by-sa/4.0/"/>
    <dc:creator>
     <cc:Agent>
      <dc:title>Sixsixfive (sixsixfive.deviantart.com)</dc:title>
     </cc:Agent>
    </dc:creator>
    <dc:publisher>
     <cc:Agent>
      <dc:title>Sixsixfive (sixsixfive.deviantart.com)</dc:title>
     </cc:Agent>
    </dc:publisher>
    <dc:source>https://github.com/sixsixfive</dc:source>
    <dc:subject>
     <rdf:Bag>
      <rdf:li>ivy</rdf:li>
     </rdf:Bag>
    </dc:subject>
    <dc:contributor>
     <cc:Agent>
      <dc:title>ssf</dc:title>
     </cc:Agent>
    </dc:contributor>
    <dc:rights>
     <cc:Agent>
      <dc:title>Sixsixfive (sixisixfive.deviantart.com)</dc:title>
     </cc:Agent>
    </dc:rights>
    <dc:description>A simple icon theme published under CC-BY-SA_V4(http://creativecommons.org/licenses/by-sa/4.0)</dc:description>
    <dc:identifier>SSF</dc:identifier>
   </cc:Work>
  </rdf:RDF>
 </metadata>
 <!--Part of the Ivy icon them published under the CC-BY-SA_V4: http://creativecommons.org/licenses/by-sa/4.0 -->
</svg>
