<svg xmlns="http://www.w3.org/2000/svg" xmlns:xlink="http://www.w3.org/1999/xlink" viewBox="0 0 32 32">
 <defs>
  <linearGradient xlink:href="#0" id="5" gradientUnits="userSpaceOnUse" y1="28" x2="0" y2="34" gradientTransform="matrix(1 0 0 0.66667 -8 0.333)"/>
  <linearGradient xlink:href="#0" id="4" gradientUnits="userSpaceOnUse" y1="28" x2="0" y2="34" gradientTransform="matrix(0.8 0 0 0.66667 -2.6 0.333)"/>
  <linearGradient xlink:href="#0" id="6" gradientUnits="userSpaceOnUse" y1="28" x2="0" y2="34" gradientTransform="matrix(1 0 0 0.66667 -6 0.333)"/>
  <linearGradient xlink:href="#0" id="3" gradientUnits="userSpaceOnUse" y1="28" x2="0" y2="34" gradientTransform="matrix(1 0 0 0.66667 -7.8 0.333)"/>
  <linearGradient y1="27" x2="0" y2="5" id="1" gradientUnits="userSpaceOnUse">
   <stop stop-color="#ebebeb"/>
   <stop offset="1" stop-color="#ebebeb"/>
  </linearGradient>
  <linearGradient id="0">
   <stop stop-color="#ffd506" stop-opacity="0"/>
   <stop offset="1" stop-color="#ffd506"/>
  </linearGradient>
  <linearGradient id="2" x1="2" y1="2" x2="2.031" y2="29.969" gradientUnits="userSpaceOnUse">
   <stop stop-color="#fff"/>
   <stop offset="1" stop-color="#fff" stop-opacity="0"/>
  </linearGradient>
 </defs>
 <rect y="2" x="1" rx="1.429" height="30" width="30" opacity="0.1" ry="1.429"/>
 <rect width="30" height="30" rx="1.429" x="1" y="1" fill="#f1f1f1" ry="1.429"/>
 <rect y="6" x="5" rx="2.588" height="22" width="22" opacity="0.5" fill="#fff" ry="2.588"/>
 <rect width="22" height="22" rx="2.588" x="5" y="5" fill="url(#1)" ry="2.588"/>
 <g fill-rule="evenodd" color="#000">
  <path d="m 14.6,9 0,2 -2.8,0 0,2 -2.8,0 0,10 14,0 0,-10 -2.800001,0 0,-2 -2.799999,0 0,-2 z" fill="#171717"/>
  <g fill="url(#6)">
   <path d="M 10,19 H11 V23 H10 z"/>
   <path d="M 12,19 H13 V23 H12 z"/>
  </g>
  <g fill="url(#5)">
   <path d="M 14,19 H15 V23 H14 z"/>
   <path d="M 16,19 H17 V23 H16 z"/>
  </g>
  <path fill="url(#4)" d="M 18.2,19 H19 V23 H18.2 z"/>
  <path fill="url(#3)" d="M 20.2,19 H21.2 V23 H20.2 z"/>
 </g>
 <g fill="none">
  <path d="M 2.4375,1.5 C 1.9129155,1.5 1.5,1.9129155 1.5,2.4375 l 0,27.125 C 1.5,30.087085 1.9129154,30.5 2.4375,30.5 l 27.125,0 c 0.524585,0 0.9375,-0.412915 0.9375,-0.9375 l 0,-27.125 C 30.5,1.9129154 30.087085,1.5 29.5625,1.5 l -27.125,0 z" opacity="0.4" stroke="#000"/>
  <path d="m 2.53125,2.53125 0,26.9375 26.9375,0 0,-26.9375 -26.9375,0 z" opacity="0.8" stroke="url(#2)"/>
  <path d="m 7.59375,5.53125 c -1.1400895,0 -2.0625,0.9224107 -2.0625,2.0625 l 0,16.8125 c 0,1.140089 0.9224106,2.0625 2.0625,2.0625 l 16.8125,0 c 1.14009,0 2.0625,-0.922411 2.0625,-2.0625 l 0,-16.8125 c 0,-1.1400894 -0.92241,-2.0625 -2.0625,-2.0625 l -16.8125,0 z" opacity="0.3" stroke="#000"/>
  <path d="m 7.59375,6.46875 c -0.6479489,0 -1.125,0.4770513 -1.125,1.125 l 0,16.8125 c 0,0.647948 0.4770513,1.125 1.125,1.125 l 16.8125,0 c 0.647949,0 1.125,-0.477051 1.125,-1.125 l 0,-16.8125 c 0,-0.647949 -0.47705,-1.125 -1.125,-1.125 l -16.8125,0 z" opacity="0.49" stroke="#fff"/>
 </g>
 <path opacity="0.53" fill="#fff" d="M 9,23 H23 V24 H9 z"/>
</svg>
