<svg xmlns="http://www.w3.org/2000/svg" viewBox="0 0 48 48">
 <defs>
  <linearGradient x1="38.702" y1="7.975" x2="38.813" y2="39.24" id="0" gradientUnits="userSpaceOnUse">
   <stop stop-color="#fff"/>
   <stop offset="1" stop-color="#fff" stop-opacity="0"/>
  </linearGradient>
  <linearGradient x1="39.692" y1="7.13" x2="39.805" y2="40.26" id="1" gradientUnits="userSpaceOnUse">
   <stop stop-color="#d02604"/>
   <stop offset="1" stop-color="#fb4624"/>
  </linearGradient>
 </defs>
 <g transform="scale(1.0049 0.99512)" fill="#d02604">
  <path d="m 39.8046,32.1571 -23.8828,0 0,-15.0736 23.8828,0 -1e-4,-9.0442 -28.8584,0 -3.9805,4.0196 0,25.1227 3.9805,4.0196 28.8584,0 0,-9.0442" opacity="0.1" fill="#000"/>
  <path d="m 39.8046,31.1521 -23.8828,0 0,-15.0736 23.8828,0 -1e-4,-9.0442 -28.8584,0 -3.9805,4.0196 0,25.1227 3.9805,4.0196 28.8584,0 0,-9.0442" fill="url(#1)"/>
  <g fill="none">
   <path d="M 11.125,7.5312 7.4688,11.25 V 36 l 3.6562,3.6875 H 39.3125 V 31.65625 H 15.9063 a 0.48905,0.48905 0 0 1 -0.5,-0.5 v -15.0625 a 0.48905,0.48905 0 0 1 0.5,-0.5 H 39.3125 V 7.53125 H 11.125 z" opacity="0.4" stroke="#000"/>
   <path d="m 11.5625,8.5312 -3.0938,3.1562 0,23.875 3.0938,3.125 26.75,0 0,-6.0312 -22.4062,0 a 1.5063,1.5063 0 0 1 -1.5,-1.5 V 16.0937 a 1.5063,1.5063 0 0 1 1.5,-1.5 H 38.3125 V 8.5312 h -26.75 z" opacity="0.4" stroke="url(#0)"/>
  </g>
 </g>
</svg>
