<svg xmlns="http://www.w3.org/2000/svg" xmlns:xlink="http://www.w3.org/1999/xlink" viewBox="0 0 48 48">
 <defs>
  <path id="0" d="m 15,31.5 a 3,1.5 0 1 1 -6,0 3,1.5 0 1 1 6,0 z" fill-rule="evenodd"/>
  <linearGradient y1="1" x2="0" y2="31" id="7" gradientUnits="userSpaceOnUse">
   <stop/>
   <stop offset="1" stop-opacity="0"/>
  </linearGradient>
  <linearGradient y1="48" x2="0" y2="38" id="6" xlink:href="#3" gradientUnits="userSpaceOnUse"/>
  <linearGradient x1="35" x2="41" id="4" gradientUnits="userSpaceOnUse">
   <stop stop-color="#fff" stop-opacity="0"/>
   <stop offset="0.5" stop-color="#fff" stop-opacity="0.43"/>
   <stop offset="1" stop-color="#fff" stop-opacity="0"/>
  </linearGradient>
  <linearGradient y1="25" x2="0" y2="34" id="5" xlink:href="#3" gradientUnits="userSpaceOnUse"/>
  <linearGradient y1="2" x2="0" y2="29" id="2" xlink:href="#3" gradientUnits="userSpaceOnUse"/>
  <linearGradient y1="34" x2="0" y2="45" id="1" gradientUnits="userSpaceOnUse">
   <stop stop-color="#ebebeb"/>
   <stop offset="1" stop-color="#b7b7b7"/>
  </linearGradient>
  <linearGradient id="3">
   <stop stop-color="#fff"/>
   <stop offset="1" stop-color="#fff" stop-opacity="0"/>
  </linearGradient>
  <radialGradient cx="24" cy="1016.64" r="21.05" id="8" xlink:href="#9" gradientUnits="userSpaceOnUse" gradientTransform="matrix(-1.28276 0 0 -0.85517 54.787 894.4)"/>
  <radialGradient cx="24" cy="1016.64" r="21.05" id="9" gradientUnits="userSpaceOnUse" gradientTransform="matrix(-1.28276 0 0 -0.85517 54.787 1898.76)">
   <stop stop-opacity="0.17"/>
   <stop offset="1" stop-color="#ed4c70" stop-opacity="0"/>
  </radialGradient>
 </defs>
 <rect width="41.998" height="11" rx="0.846" x="3" y="35" opacity="0.1" ry="0.846"/>
 <path d="M 9,24 C 8.5312322,24 8.3832522,24.43365 8.15625,24.84375 L 3,34.15625 C 2.914871,34.310038 2.964792,34.457036 3.0625,34.59375 3.0340806,34.678598 3,34.749095 3,34.84375 l 0,9.3125 C 3,44.625018 3.3749822,45 3.84375,45 l 40.3125,0 C 44.625018,45 45,44.625018 45,44.15625 l 0,-9.3125 c 0,-0.09466 -0.03408,-0.165152 -0.0625,-0.25 0.09771,-0.136714 0.14766,-0.283712 0.0625,-0.4375 l -5.15625,-9.3125 C 39.616705,24.43375 39.468765,24 39,24 L 9,24 z" fill="#fff"/>
 <rect width="41.998" height="11" rx="0.846" x="3" y="34" opacity="0.639" fill="url(#1)" ry="0.846"/>
 <path d="m 32,29 a 6,3 0 1 1 -12,0 6,3 0 1 1 12,0 z" transform="matrix(1.16667 0 0 1.33333 -6.333 -9.667)" opacity="0.4" fill="#6a6a6a" fill-rule="evenodd"/>
 <path d="m 9,24.0022 30,0 c 0.468765,0 0.619106,0.4361 0.846151,0.8461 l 5.1538,9.3077 c 0.227094,0.4101 -0.377383,0.8461 -0.846151,0.8461 H 3.8479 c -0.468768,0 -1.07316,-0.436 -0.846151,-0.8461 l 5.152,-9.3077 C 8.380751,24.4382 8.531132,24.0022 8.9999,24.0022 z" fill="url(#8)"/>
 <path d="m 6.8934,38.0022 c -0.496342,0 -0.893382,0.375 -0.893382,0.8438 v 6.1562 h 36 V 38.846 c 0,-0.4688 -0.39704,-0.8438 -0.893382,-0.8438 l -34.2132,0 z" opacity="0.36"/>
 <g fill="none" stroke-linejoin="round" stroke-linecap="round">
  <path d="m 9,24.4688 c -0.085097,0 -0.055186,0.0038 -0.125,0.09375 -0.069814,0.08992 -0.15432,0.30194 -0.28125,0.53125 l -5.125,9.2188 a 0.484177,0.484177 0 0 1 0,0.03125 0.484177,0.484177 0 0 1 0.0625,0.40625 c -0.03979,0.118797 -0.0625,0.115302 -0.0625,0.09375 v 9.3125 c 0,0.210588 0.164412,0.375 0.375,0.375 h 40.3125 c 0.210589,0 0.375,-0.164411 0.375,-0.375 v -9.3125 c 0,0.02154 -0.02271,0.02505 -0.0625,-0.09375 a 0.484177,0.484177 0 0 1 0.0625,-0.40625 V 34.3126 l -5.125,-9.2188 C 39.279265,24.864489 39.194828,24.652502 39.125,24.56255 39.055172,24.472598 39.085061,24.4688 39,24.4688 H 9 z" opacity="0.26" stroke="#000"/>
  <path d="m 9.5,25.4688 c -0.029163,0.05233 -0.025029,0.02605 -0.0625,0.09375 l -4.9062,8.8438 a 1.46477,1.46477 0 0 1 0,0.03125 1.46477,1.46477 0 0 1 -0.0625,0.5625 v 8.53125 H 43.5313 V 35.0001 a 1.46477,1.46477 0 0 1 -0.0625,-0.5625 l -4.9062,-8.875 c -0.0375,-0.06772 -0.03332,-0.0414 -0.0625,-0.09375 h -29 z" stroke="url(#5)"/>
 </g>
 <rect width="8" height="21" rx="0.5" x="20" y="9" fill="#6a6a6a" fill-rule="evenodd" ry="0.5"/>
 <rect width="40" height="1" rx="0.5" x="4" y="34" opacity="0.2" ry="0.5"/>
 <rect width="40" height="1" rx="0.5" x="4" y="35" fill="#fff" ry="0.5"/>
 <path d="m 7.8438,39.0022 c -0.468768,0 -0.84375,0.3214 -0.84375,0.7233 v 5.2767 h 34 v -5.2767 c 0,-0.4019 -0.374982,-0.7233 -0.84375,-0.7233 l -32.3125,0 z" opacity="0.549" fill="url(#6)"/>
 <rect width="34" height="1" rx="0.5" x="7" y="39" opacity="0.3" fill="#fff" ry="0.5"/>
 <path d="m 21,15.900421 c 1.710529,0.688808 3.529057,1.055373 6,0" opacity="0.4" fill="none" stroke="#000" stroke-linejoin="miter" stroke-linecap="butt"/>
 <g fill-rule="evenodd">
  <path d="m 31,10 a 7.5,6 0 1 1 -15,0 7.5,6 0 1 1 15,0 z" transform="matrix(1 0 0 1.25 0.5 -4)" fill="#d02604"/>
  <path d="m 32,29 a 6,3 0 1 1 -12,0 6,3 0 1 1 12,0 z" transform="translate(-2)" fill="#6a6a6a"/>
 </g>
 <use transform="matrix(1.33333 0 0 2 22 -32)" opacity="0.638" fill="#6a6a6a" xlink:href="#0"/>
 <use transform="matrix(1 0 0 1.33333 26 -11)" fill="#d02604" xlink:href="#0"/>
 <path d="m 38,28 c -1.656854,0 -3,0.895431 -3,2 0,0.17489 0.06174,0.33832 0.125,0.5 C 35.061742,30.66168 35,30.82511 35,31 c 0,1.104569 1.343146,2 3,2 1.656854,0 3,-0.895431 3,-2 0,-0.17489 -0.06174,-0.33832 -0.125,-0.5 C 40.938258,30.33832 41,30.17489 41,30 41,28.895431 39.656854,28 38,28 z" fill="url(#4)" fill-rule="evenodd"/>
 <use transform="matrix(1 0 0 1.33333 26 -12)" fill="#d02604" xlink:href="#0"/>
 <g fill="none">
  <path d="m 38,28.5 c -0.73706,0 -1.399926,0.204117 -1.84375,0.5 C 35.712426,29.295883 35.5,29.653291 35.5,30 c 0,0.05553 0.03195,0.154544 0.09375,0.3125 a 0.5072298,0.5072298 0 0 1 0,0.375 C 35.531946,30.845463 35.5,30.944477 35.5,31 c 0,0.346709 0.212426,0.704117 0.65625,1 0.443824,0.295883 1.10669,0.5 1.84375,0.5 0.73706,0 1.399926,-0.204117 1.84375,-0.5 C 40.287574,31.704117 40.5,31.346709 40.5,31 c 0,-0.05553 -0.03195,-0.154544 -0.09375,-0.3125 a 0.5072298,0.5072298 0 0 1 0,-0.375 C 40.468054,30.154537 40.5,30.055523 40.5,30 40.5,29.653291 40.287574,29.295883 39.84375,29 39.399926,28.704117 38.73706,28.5 38,28.5 z" opacity="0.3" stroke="#000"/>
  <path d="m 24,1.53125 c -3.855245,0 -6.96875,3.1135049 -6.96875,6.96875 0,2.483071 1.298805,4.670862 3.25,5.90625 a 0.5308992,0.5308992 0 0 1 0.25,0.4375 l 0,14.625 6.9375,0 0,-14.625 a 0.5308992,0.5308992 0 0 1 0.25,-0.4375 c 1.951195,-1.235388 3.25,-3.423179 3.25,-5.90625 0,-3.8552451 -3.113505,-6.96875 -6.96875,-6.96875 z" opacity="0.57" stroke="url(#7)"/>
  <path d="m 24,2.46875 c -3.348557,0 -6.03125,2.6826934 -6.03125,6.03125 0,2.155076 1.123262,4.024218 2.8125,5.09375 a 1.4685409,1.4685409 0 0 1 0.6875,1.25 l 0,13.6875 5.0625,0 0,-13.6875 a 1.4685409,1.4685409 0 0 1 0.6875,-1.25 C 28.907988,12.524218 30.03125,10.655076 30.03125,8.5 30.03125,5.1514434 27.348557,2.46875 24,2.46875 z" opacity="0.4" stroke="url(#2)"/>
 </g>
</svg>
