<?xml version="1.0" encoding="UTF-8" standalone="no"?>
<svg xmlns="http://www.w3.org/2000/svg" xmlns:xlink="http://www.w3.org/1999/xlink" viewBox="0 0 48 48" version="1.1">
 <defs id="defs4">
  <linearGradient id="linearGradient4293">
   <stop id="stop4295" stop-color="#fff"/>
   <stop id="stop4297" offset="1" stop-color="#fff" stop-opacity="0"/>
  </linearGradient>
  <linearGradient id="linearGradient4176">
   <stop id="stop4178"/>
   <stop id="stop4180" offset="1" stop-opacity="0"/>
  </linearGradient>
  <linearGradient gradientUnits="userSpaceOnUse" x2="2" x1="17" id="linearGradient4166" xlink:href="#linearGradient4176"/>
  <linearGradient gradientUnits="userSpaceOnUse" x2="31" x1="46" id="linearGradient4182" xlink:href="#linearGradient4176"/>
  <linearGradient gradientUnits="userSpaceOnUse" x2="46" x1="2" id="linearGradient4301" xlink:href="#linearGradient4293"/>
 </defs>
 <path d="M 2,10 17,3 17,40 2,47 Z" id="path3353" opacity="0.1" fill-rule="evenodd"/>
 <path id="path3355" d="M 31,10 46,3 46,40 31,47 Z" opacity="0.1" fill-rule="evenodd"/>
 <path id="path3357" d="m 17,3 14,7 0,37 -14,-7 z" opacity="0.1" fill-rule="evenodd"/>
 <path id="path3359" d="M 17,2 2,9 2,46 17,39 31,46 46,39 46,2 31,9 17,2 Z" fill="#fff" fill-rule="evenodd"/>
 <path id="path4216" d="M 17,2 2,9 2,14.666016 17,8 l 6,3 0,-6 z" fill="#b3b3b3" fill-rule="evenodd"/>
 <path id="path4214" d="M 46,2 43,3.4003906 43,12 46,10.714844 46,2 Z" opacity="0.8" fill="#66b03e" fill-rule="evenodd"/>
 <path id="path4212" d="M 39,5.2675781 31,9 28,7.5 C 27.91188,13.513022 28,9 28,27 l 11,-5 z" fill="#c8c8c8" fill-rule="evenodd"/>
 <path d="M 31,9 46,2 46,39 31,46 Z" id="path3354" opacity="0.04" fill="url(#linearGradient4182)" fill-rule="evenodd"/>
 <path id="path4210" d="M 17,12 2,18.666016 2,46 l 15,-7 6,3 0,-27 z" fill="#8ecb6d" fill-rule="evenodd"/>
 <path id="path4208" d="M 46,14.714844 43,16 43,40.400391 46,39 46,14.714844 Z" fill="#c8c8c8" fill-rule="evenodd"/>
 <path id="path4193" d="m 39,27 -11,5 0,12.5 3,1.5 8,-3.732422 z" fill="#ebebeb" fill-rule="evenodd"/>
 <path id="path3343" d="m 16.5,3 0,35" opacity="0.2" fill="none" fill-rule="evenodd" stroke="#000"/>
 <path id="path4276" d="M 17,2 2,9 2,46 17,39 31,46 46,39 46,2 31,9 17,2 Z" opacity="0.2" fill="url(#linearGradient4301)" fill-rule="evenodd"/>
 <path id="path3345" d="m 30.5,45 0,-35" opacity="0.2" fill="none" fill-rule="evenodd" stroke="#000"/>
 <path d="m 31.5,45 0,-35" id="path4258" opacity="0.2" fill="#fff" fill-rule="evenodd" stroke="#fff"/>
 <path d="m 17.5,3 0,35" id="path4260" opacity="0.2" fill="none" fill-rule="evenodd" stroke="#fff"/>
 <path d="M 39,12 35.03619,13.981905 35,20 l -2,1 0,-2 -4,2 0,-2 4,-2.007432 L 33,13 39,10 Z" id="path4272" opacity="0.25" fill-rule="evenodd"/>
 <path id="path4274" d="m 2,30 9,-4 0,16 2,-1 0,-18 -11,5 z" opacity="0.2" fill-rule="evenodd"/>
 <path id="path3358" d="M 2,9 17,2 17,39 2,46 Z" opacity="0.1" fill="url(#linearGradient4166)" fill-rule="evenodd"/>
 <path d="m 16.992188,2.5507812 -14.4960942,6.765625 0,35.9062498 14.2949222,-6.671875 a 0.49545334,0.49545334 0 0 1 0.429687,0.0059 l 13.787109,6.892578 14.496094,-6.765625 0,-35.9062502 -14.294922,6.671875 a 0.49545334,0.49545334 0 0 1 -0.429687,-0.00586 L 16.992188,2.5507812 Z" id="path3368" opacity="0.4" fill="none" fill-rule="evenodd" stroke="#000"/>
 <path id="path3370" d="m 16.978516,3.6230469 -13.5175785,6.3085937 0,33.7734374 12.9218745,-6.029297 a 1.4618705,1.4618705 0 0 1 1.271485,0.01758 l 13.367187,6.683594 13.517578,-6.308594 0,-33.7734371 -12.921874,6.0292971 a 1.4618705,1.4618705 0 0 1 -1.271485,-0.01758 L 16.978516,3.6230469 Z" opacity="0.4" fill="none" fill-rule="evenodd" stroke="#fff"/>
</svg>
