<svg xmlns="http://www.w3.org/2000/svg" viewBox="0 0 48 48">
 <defs/>
 <path d="M 35.806363,9.8389931 C 35.715553,9.8901901 35.638806,9.9861556 35.588505,10.111402 35.518255,10.231594 35.479783,10.386724 35.480445,10.547116 L 35.480445,14.631881 28.944716,14.849737 C 28.293643,14.849457 27.668228,15.103563 27.201851,15.557867 L 20.775048,22.20246 15.709766,16.919357 C 15.248387,16.411668 14.598404,16.11624 13.912527,16.102476 L 6.5053618,16.102476 3.9999976,16.102476 3.9999976,21.167547 6.5053618,21.167547 12.877614,21.167547 17.343701,25.79715 12.877614,30.426591 6.5053618,30.426591 3.9999976,30.426591 3.9999976,35.437319 6.5053618,35.437319 13.912527,35.437319 C 14.590279,35.43768 15.239044,35.162435 15.709766,34.674818 L 20.829425,29.391854 27.201851,35.981965 C 27.659387,36.456216 28.285887,36.730313 28.944716,36.744467 L 35.480445,36.962322 35.480445,41.04719 C 35.479767,41.207585 35.518255,41.362722 35.588505,41.48291 35.617785,41.54682 35.654375,41.602312 35.696564,41.64674 35.728774,41.69079 35.765214,41.72721 35.804623,41.7548 35.822613,41.7564 35.840663,41.7564 35.858663,41.7548 35.936393,41.7492 36.011678,41.71183 36.076517,41.64674 L 39.889026,38.324321 C 39.907896,38.308381 39.925966,38.290321 39.943066,38.270291 L 43.755582,34.893546 C 43.795002,34.865956 43.831422,34.829536 43.863642,34.785486 43.909402,34.725186 43.946222,34.650944 43.971693,34.567631 44.034073,34.320363 43.991363,34.040613 43.863642,33.859678 43.814622,33.806748 43.75881,33.769938 43.699811,33.751626 L 39.887278,30.429204 36.07477,27.10694 C 36.05768,27.0869 36.03962,27.06885 36.02074,27.05291 35.94931,27.02471 35.8743,27.02471 35.802874,27.05291 35.743874,27.07123 35.688068,27.10804 35.639047,27.160969 35.529293,27.291662 35.468239,27.494656 35.475217,27.705615 L 35.475217,31.953857 30.083152,31.845798 24.255543,25.800112 30.083152,19.754603 35.475217,19.59078 35.475217,23.893379 C 35.468617,24.200473 35.604804,24.472803 35.802008,24.54699 35.894218,24.57432 35.989816,24.55539 36.074241,24.49296 L 39.88675,21.170688 43.699258,17.848307 C 43.922482,17.734168 44.043723,17.3702 43.971494,17.03108 43.927844,16.885431 43.850309,16.769128 43.753636,16.70429 L 39.941128,13.327514 C 39.924058,13.307474 39.905978,13.289414 39.887098,13.273484 L 36.074586,9.9512271 C 36.057496,9.9311951 36.039436,9.9131341 36.020546,9.8971991 35.968806,9.8631511 35.913145,9.8447951 35.85672,9.8431721 35.83873,9.8414521 35.82068,9.8414521 35.80268,9.8431721 L 35.80638,9.8389921 35.806384,9.8389941 z" opacity="0.5" fill="#fff"/>
 <g font-size="28">
  <text x="-828.23" y="-458.93"><tspan x="-828.23" y="-458.93"/>
  </text>
  <text x="-828.23" y="-458.93"><tspan x="-828.23" y="-458.93"/>
  </text>
  <text x="1632.44" y="-609.18"><tspan x="1632.44" y="-609.18"/>
  </text>
  <text x="1632.44" y="-609.18"><tspan x="1632.44" y="-609.18"/>
  </text>
 </g>
 <g font-size="11.171">
  <text x="-331.97" y="-183.83"><tspan x="-331.97" y="-183.83"/>
  </text>
  <text x="-331.97" y="-183.83"><tspan x="-331.97" y="-183.83"/>
  </text>
  <text x="649.75" y="-243.77"><tspan x="649.75" y="-243.77"/>
  </text>
  <text x="649.75" y="-243.77"><tspan x="649.75" y="-243.77"/>
  </text>
 </g>
 <path d="M 35.806363,8.8394261 C 35.715553,8.8906231 35.638806,8.9865886 35.588505,9.1118353 35.518255,9.2320274 35.479783,9.3871568 35.480445,9.547549 L 35.480445,13.632314 28.944716,13.85017 C 28.293643,13.84989 27.668228,14.103996 27.201851,14.5583 L 20.775048,21.202893 15.709766,15.91979 C 15.248387,15.412101 14.598404,15.116673 13.912527,15.102909 L 6.5053618,15.102909 3.9999976,15.102909 3.9999976,20.16798 6.5053618,20.16798 12.877614,20.16798 17.343701,24.797583 12.877614,29.427024 6.5053618,29.427024 3.9999976,29.427024 3.9999976,34.437752 6.5053618,34.437752 13.912527,34.437752 C 14.590279,34.438113 15.239044,34.162868 15.709766,33.675251 L 20.829425,28.392287 27.201851,34.982398 C 27.659387,35.456649 28.285887,35.730746 28.944716,35.7449 L 35.480445,35.962755 35.480445,40.047623 C 35.479767,40.208018 35.518255,40.363155 35.588505,40.483343 35.617785,40.547253 35.654375,40.602745 35.696564,40.647173 35.728774,40.691223 35.765214,40.727643 35.804623,40.755233 35.822613,40.756833 35.840663,40.756833 35.858663,40.755233 35.936393,40.749633 36.011678,40.712263 36.076517,40.647173 L 39.889026,37.324754 C 39.907896,37.308814 39.925966,37.290754 39.943066,37.270724 L 43.755582,33.893979 C 43.795002,33.866389 43.831422,33.829969 43.863642,33.785919 43.909402,33.725619 43.946222,33.651377 43.971693,33.568064 44.034073,33.320796 43.991363,33.041046 43.863642,32.860111 43.814622,32.807181 43.75881,32.770371 43.699811,32.752059 L 39.887278,29.429637 36.07477,26.107373 C 36.05768,26.087333 36.03962,26.069283 36.02074,26.053343 35.94931,26.025143 35.8743,26.025143 35.802874,26.053343 35.743874,26.071663 35.688068,26.108473 35.639047,26.161402 35.529293,26.292095 35.468239,26.495089 35.475217,26.706048 L 35.475217,30.95429 30.083152,30.846231 24.255543,24.800545 30.083152,18.755036 35.475217,18.591213 35.475217,22.893812 C 35.468617,23.200906 35.604804,23.473236 35.802008,23.547423 35.894218,23.574753 35.989816,23.555823 36.074241,23.493393 L 39.88675,20.171121 43.699258,16.84874 C 43.922482,16.734601 44.043723,16.370633 43.971494,16.031513 43.927844,15.885864 43.850309,15.769561 43.753636,15.704723 L 39.941128,12.327947 C 39.924058,12.307907 39.905978,12.289847 39.887098,12.273917 L 36.074586,8.9516601 C 36.057496,8.9316281 36.039436,8.9135671 36.020546,8.8976321 35.968806,8.8635841 35.913145,8.8452281 35.85672,8.8436051 35.83873,8.8418851 35.82068,8.8418851 35.80268,8.8436051 L 35.80638,8.8394251 35.806384,8.8394271 z" opacity="0.5" fill="#171717"/>
 <g fill="#7c0000" font-size="11.171">
  <text x="-331.97" y="-183.83"><tspan x="-331.97" y="-183.83"/>
  </text>
  <text x="-331.97" y="-183.83"><tspan x="-331.97" y="-183.83"/>
  </text>
  <text x="649.75" y="-243.77"><tspan x="649.75" y="-243.77"/>
  </text>
  <text x="649.75" y="-243.77"><tspan x="649.75" y="-243.77"/>
  </text>
 </g>
</svg>
