<svg xmlns="http://www.w3.org/2000/svg" viewBox="0 0 48 48">
 <defs/>
 <g font-size="28">
  <text x="-828.23" y="-458.93"><tspan x="-828.23" y="-458.93"/>
  </text>
  <text x="-828.23" y="-458.93"><tspan x="-828.23" y="-458.93"/>
  </text>
  <text x="1632.44" y="-609.18"><tspan x="1632.44" y="-609.18"/>
  </text>
  <text x="1632.44" y="-609.18"><tspan x="1632.44" y="-609.18"/>
  </text>
 </g>
 <path d="M 24.699317,4.0189124 C 24.442335,4.1248634 24.271227,4.4916254 24.291429,4.8931934 L 24.291429,10.196565 15.841105,10.255245 C 7.8377913,10.354814 0.2557056,20.278789 5.5838975,31.643539 L 6.8079303,34.265993 12.052908,31.818323 10.829056,29.195834 C 6.9135456,20.844035 12.912611,16.107468 15.841105,16.024965 L 15.899835,16.024965 24.291839,16.024965 24.291839,22.085846 C 24.276739,22.514496 24.477775,22.891424 24.758046,22.959932 24.797056,22.966232 24.836396,22.966232 24.875407,22.959932 24.957927,22.947602 25.037571,22.907502 25.108506,22.842578 L 30.003916,18.588226 34.957646,14.27569 C 34.999826,14.2448 35.039256,14.20597 35.074997,14.160114 35.24185,13.94604 35.310067,13.603836 35.249245,13.286011 35.210955,13.093424 35.128248,12.92799 35.016146,12.819762 L 30.062416,8.4486774 C 30.043706,8.4272624 30.024126,8.4076644 30.003786,8.3899964 L 25.108348,4.0773924 C 24.999101,4.0011234 24.876431,3.9805324 24.75878,4.0187154 24.73925,4.0171454 24.71968,4.0171454 24.70015,4.0187154 L 24.69931,4.0189124 24.699325,4.0189124 z M 41.192255,15.733022 35.947268,18.180707 37.17113,20.803317 C 41.086641,29.154938 35.087386,33.891529 32.159071,33.974209 L 32.100441,33.974209 23.708263,33.974209 23.708263,27.913306 C 23.714763,27.677363 23.655353,27.448155 23.544495,27.281809 23.433631,27.115465 23.281584,27.027343 23.125587,27.039024 23.043067,27.051354 22.963416,27.091454 22.892478,27.156377 L 17.997077,31.410788 13.043352,35.723342 C 12.799394,35.901929 12.676249,36.320575 12.751924,36.714088 12.790214,36.906661 12.872925,37.072081 12.985023,37.1803 L 17.938748,41.551193 C 17.957458,41.572603 17.977038,41.592203 17.997378,41.609873 L 22.892788,45.922603 C 23.002038,45.998883 23.124711,46.019473 23.242365,45.981283 23.522689,45.912763 23.723746,45.535726 23.708573,45.107 L 23.708573,39.803682 32.159071,39.745002 C 40.162214,39.645432 47.744291,29.721435 42.416099,18.356737 L 41.192255,15.734265 41.192255,15.732965 41.192255,15.732976 z" opacity="0.5" fill="#fff"/>
 <path d="M 24.699317,3.0189084 C 24.442335,3.1248594 24.271227,3.4916214 24.291429,3.8931894 L 24.291429,9.1965614 15.841105,9.2552414 C 7.8377913,9.3548104 0.2557056,19.278788 5.5838975,30.643538 L 6.8079303,33.265992 12.052908,30.818322 10.829056,28.195833 C 6.9135456,19.844034 12.912611,15.107467 15.841105,15.024964 L 15.899835,15.024964 24.291839,15.024964 24.291839,21.085845 C 24.276739,21.514495 24.477775,21.891423 24.758046,21.959931 24.797056,21.966231 24.836396,21.966231 24.875407,21.959931 24.957927,21.947601 25.037571,21.907501 25.108506,21.842577 L 30.003916,17.588225 34.957646,13.275689 C 34.999826,13.244799 35.039256,13.205969 35.074997,13.160113 35.24185,12.946039 35.310067,12.603835 35.249245,12.28601 35.210955,12.093423 35.128248,11.927989 35.016146,11.819761 L 30.062416,7.4486734 C 30.043706,7.4272584 30.024126,7.4076604 30.003786,7.3899924 L 25.108348,3.0773884 C 24.999101,3.0011194 24.876431,2.9805284 24.75878,3.0187114 24.73925,3.0171414 24.71968,3.0171414 24.70015,3.0187114 L 24.69931,3.0189084 24.699325,3.0189084 z M 41.192255,14.733021 35.947268,17.180706 37.17113,19.803316 C 41.086641,28.154937 35.087386,32.891528 32.159071,32.974208 L 32.100441,32.974208 23.708263,32.974208 23.708263,26.913305 C 23.714763,26.677362 23.655353,26.448154 23.544495,26.281808 23.433631,26.115464 23.281584,26.027342 23.125587,26.039023 23.043067,26.051353 22.963416,26.091453 22.892478,26.156376 L 17.997077,30.410787 13.043352,34.723341 C 12.799394,34.901928 12.676249,35.320574 12.751924,35.714087 12.790214,35.90666 12.872925,36.07208 12.985023,36.180299 L 17.938748,40.551192 C 17.957458,40.572602 17.977038,40.592202 17.997378,40.609872 L 22.892788,44.922602 C 23.002038,44.998882 23.124711,45.019472 23.242365,44.981282 23.522689,44.912762 23.723746,44.535725 23.708573,44.106999 L 23.708573,38.803681 32.159071,38.745001 C 40.162214,38.645431 47.744291,28.721434 42.416099,17.356736 L 41.192255,14.734264 41.192255,14.732964 41.192255,14.732975 z" opacity="0.5" fill="#171717"/>
</svg>
