<svg xmlns="http://www.w3.org/2000/svg" viewBox="0 0 48 48">
 <defs id="defs4">
  <linearGradient id="0" y1="3" x2="0" y2="44" gradientUnits="userSpaceOnUse">
   <stop stop-color="#dedede" id="stop7"/>
   <stop stop-color="#f4f4f4" offset="1" id="stop9"/>
  </linearGradient>
  <linearGradient id="1" y2="42.969" gradientUnits="userSpaceOnUse" x2="39.906" y1="3" x1="40">
   <stop stop-color="#fff" id="stop12"/>
   <stop stop-color="#fff" stop-opacity="0" offset="1" id="stop14"/>
  </linearGradient>
  <linearGradient x1="47.38" y1="4.271" x2="46.992" y2="43.525" id="9" gradientUnits="userSpaceOnUse" gradientTransform="matrix(0.65822,0,0,0.65,0.203,-0.6)">
   <stop id="F" stop-color="#ffb636"/>
   <stop id="G" offset="1" stop-color="#ffe775"/>
  </linearGradient>
  <linearGradient y1="3" x2="0" y2="32" id="A" gradientUnits="userSpaceOnUse">
   <stop id="H" stop-color="#fff"/>
   <stop id="I" offset="1" stop-color="#fff" stop-opacity="0"/>
  </linearGradient>
  <linearGradient y1="30.563" x2="0" y2="15.187" id="B" gradientUnits="userSpaceOnUse" gradientTransform="matrix(0.65238,0,0,0.65128,0.595,-0.831)">
   <stop id="J" stop-color="#6a6a6a"/>
   <stop id="K" offset="1" stop-color="#171717"/>
  </linearGradient>
  <linearGradient y1="32.875" x2="0" y2="40.875" id="C" gradientUnits="userSpaceOnUse" gradientTransform="matrix(0.65238,0,0,0.65128,0.595,-0.621)">
   <stop id="L" stop-color="#171717"/>
   <stop id="M" offset="1" stop-color="#6a6a6a"/>
  </linearGradient>
  <mask id="mask4319" maskUnits="userSpaceOnUse">
   <rect id="rect4321" x="-9.01" y="-14" width="34.951" height="42" rx="1.209" fill="#fff" ry="1.209"/>
  </mask>
 </defs>
 <rect opacity="0.1" rx="1.209" height="42" width="34.951" y="3" x="6.05" id="rect16" ry="1.209"/>
 <rect rx="1.209" height="42" width="34.951" y="2" x="5.986" fill="url(#0)" id="rect18" ry="1.209"/>
 <g mask="url(#mask4319)" transform="translate(15.000035,16.000019)" id="g4305">
  <path d="m 15.9312,3 c -0.435985,0.00489 -0.824053,0.237244 -1.04234,0.60997 l -13.7435,23.5601 c -0.215216,0.377399 -0.182349,0.845799 0.038601,1.21994 0.220954,0.374145 0.603745,0.609109 1.04234,0.609971 l 27.5255,-0.0381 c 0.357291,0.0022 0.728922,-0.154626 0.965129,-0.419359 0.236204,-0.264731 0.317291,-0.603316 0.270239,-0.953081 -0.0212,-0.148539 -0.04194,-0.326395 -0.115815,-0.457473 l -13.8593,-23.5602 C 16.785172,3.204086 16.367099,2.994982 15.931114,2.999921 Z" id="1-8" opacity="0.1"/>
  <path d="m 15.9312,2 c -0.435985,0.00489 -0.824053,0.237244 -1.04234,0.60997 l -13.7435,23.5601 c -0.215216,0.377399 -0.182349,0.845799 0.038601,1.21994 0.220954,0.374145 0.603745,0.609109 1.04234,0.609971 l 27.5255,-0.0381 c 0.357291,0.0022 0.728922,-0.154626 0.965129,-0.419359 0.236204,-0.264731 0.317291,-0.603316 0.270239,-0.953081 -0.0212,-0.148539 -0.04194,-0.326395 -0.115815,-0.457473 l -13.8593,-23.5602 C 16.785172,2.204086 16.367099,1.994982 15.931114,1.999921 Z" id="2-1" fill="url(#9)"/>
  <path d="m 16.2519,10.2702 c -1.32016,0.0041 -2.65006,0.590764 -3.0784,1.75032 -0.856687,2.31911 1.35912,8.26845 3.0784,8.26314 1.71928,-0.0053 3.941,-5.96969 3.0784,-8.28349 -0.431299,-1.1569 -1.75824,-1.73405 -3.0784,-1.72997 z m 0,11.5196 c -1.44119,0 -2.60951,1.16636 -2.60951,2.60513 0,1.43877 1.16832,2.60513 2.60951,2.60513 1.44119,0 2.60951,-1.16636 2.60951,-2.60513 0,-1.43877 -1.16832,-2.60513 -2.60951,-2.60513 z" id="3-6" opacity="0.6" fill="#fff"/>
  <path d="m 16.2519,8.0702 c -1.32016,0.0041 -2.65006,0.590764 -3.0784,1.75032 -0.856687,2.31911 1.35912,8.26845 3.0784,8.26314 1.71928,-0.0053 3.941,-5.96969 3.0784,-8.28349 C 18.899001,8.64327 17.57206,8.06612 16.2519,8.0702 Z" id="4"/>
  <path d="m 16.2519,19.9897 c -1.44119,0 -2.60951,1.16636 -2.60951,2.60513 0,1.43877 1.16832,2.60513 2.60951,2.60513 1.44119,0 2.60951,-1.16635 2.60951,-2.60513 0,-1.43877 -1.16832,-2.60513 -2.60951,-2.60513 z" id="5"/>
  <path d="m 16.2519,9.0606 c -1.32016,0.0041 -2.65006,0.590764 -3.0784,1.75032 -0.856687,2.31911 1.35912,8.26845 3.0784,8.26314 1.71928,-0.0053 3.941,-5.96969 3.0784,-8.28349 C 18.899001,9.63367 17.57206,9.05653 16.2519,9.0606 Z" id="6" fill="url(#B)"/>
  <path d="m 16.2519,20.7897 c -1.44119,0 -2.60951,1.16636 -2.60951,2.60513 0,1.43877 1.16832,2.60513 2.60951,2.60513 1.44119,0 2.60951,-1.16636 2.60951,-2.60513 0,-1.43877 -1.16832,-2.60513 -2.60951,-2.60513 z" id="7" fill="url(#C)"/>
  <g id="8" fill="none">
   <path d="m 15.9375,2.53125 c -0.235606,0.00264 -0.471142,0.165647 -0.59375,0.375 L 1.625,26.4375 c -0.111152,0.194913 -0.098899,0.435862 0.03125,0.65625 0.139701,0.236558 0.328423,0.37454 0.5625,0.375 L 29.75,27.4375 c 0.178743,0.0011 0.436712,-0.140271 0.5625,-0.28125 0.137392,-0.153986 0.185038,-0.286 0.15625,-0.5 -0.01808,-0.126651 -0.0579,-0.229575 -0.0625,-0.25 -5.44e-4,-0.0024 -4.83e-4,-0.03211 0,-0.03125 L 16.53125,2.84375 C 16.407244,2.642788 16.204898,2.528221 15.9375,2.53125 Z" id="D" opacity="0.46" stroke="#000"/>
   <path d="M 15.96875,3.71875 2.6875,26.5 l 26.65625,-0.03125 -13.375,-22.75 z" id="E" opacity="0.4" stroke="url(#A)"/>
  </g>
 </g>
 <g fill="none" id="g20">
  <path d="M7.1875,2.5c-0.4038,0-0.6875,0.2998-0.6875,0.7188v39.562c0,0.419,0.2837,0.719,0.6875,0.719h32.531c0.40378,0,0.71875-0.31497,0.71875-0.71875v-39.562c0.001-0.404-0.314-0.719-0.718-0.719h-32.532z" id="path22" stroke="#000" opacity="0.4"/>
  <path d="m7.5312,3.5312,0,38.938,31.875,0,0-38.938h-31.875z" id="path24" stroke="url(#1)" opacity="0.78"/>
 </g>
</svg>
