<svg xmlns="http://www.w3.org/2000/svg" xmlns:xlink="http://www.w3.org/1999/xlink" xmlns:inkscape="http://www.inkscape.org/namespaces/inkscape" viewBox="0 0 60 60">
 <defs id="defs6">
  <linearGradient id="linearGradient4183">
   <stop id="stop4185"/>
   <stop id="stop4187" offset="1" stop-opacity="0"/>
  </linearGradient>
  <linearGradient id="linearGradient4244">
   <stop id="stop4246" stop-color="#d02604"/>
   <stop offset="1" id="stop4248" stop-color="#fc6e50"/>
  </linearGradient>
  <linearGradient id="linearGradient4236">
   <stop id="stop4238" stop-color="#adadad"/>
   <stop offset="1" id="stop4240" stop-color="#ebebeb"/>
  </linearGradient>
  <linearGradient id="linearGradient4228">
   <stop id="stop4230" stop-color="#f4e292"/>
   <stop offset="1" id="stop4232" stop-color="#e8bb6c"/>
  </linearGradient>
  <linearGradient id="linearGradient4162">
   <stop id="stop4164" stop-color="#fff"/>
   <stop offset="1" id="stop4166" stop-color="#fff" stop-opacity="0"/>
  </linearGradient>
  <linearGradient xlink:href="#linearGradient4162" id="linearGradient4168" y1="2" x2="0" y2="56" gradientUnits="userSpaceOnUse"/>
  <linearGradient xlink:href="#linearGradient4228" id="linearGradient4234" x1="40.16" y1="37.932" x2="40.502" y2="57.07" gradientUnits="userSpaceOnUse"/>
  <linearGradient xlink:href="#linearGradient4236" id="linearGradient4242" y1="34" x2="0" y2="38" gradientUnits="userSpaceOnUse" gradientTransform="matrix(1,0,0,2.25,0,-47.5)"/>
  <linearGradient xlink:href="#linearGradient4244" id="linearGradient4250" y1="1" x2="0" y2="34" gradientUnits="userSpaceOnUse"/>
  <linearGradient gradientTransform="matrix(1,0,0,1.3333334,0,-12.666666)" gradientUnits="userSpaceOnUse" y2="41" x2="0" y1="38" id="linearGradient4189" xlink:href="#linearGradient4183"/>
 </defs>
 <path id="path4180" d="m 30.5,5.4199219 c -0.544688,0 -1.085551,0.2242226 -1.470703,0.609375 C 28.644145,6.4144492 28.419922,6.9553123 28.419922,7.5 c 0,0.5446877 0.224223,1.0855508 0.609375,1.4707031 0.385152,0.3851524 0.926015,0.609375 1.470703,0.609375 0.544688,0 1.085551,-0.2242226 1.470703,-0.609375 C 32.355855,8.5855508 32.580078,8.0446877 32.580078,7.5 c 0,-0.5446877 -0.224223,-1.0855508 -0.609375,-1.4707031 C 31.585551,5.6441445 31.044688,5.4199219 30.5,5.4199219 Z" fill="none" stroke="#d02604" stroke-linejoin="round" stroke-linecap="round"/>
 <path d="M 28 1 C 25.784 1 24 2.784 24 5 L 24 22 L 13 22 C 10.784 22 9 23.784 9 26 L 9 53 C 9 55.216 10.784 57 13 57 L 47 57 C 49.216 57 51 55.216 51 53 L 51 26 C 51 23.784 49.216 22 47 22 L 37.136719 22 L 37.136719 5 C 37.136719 2.784 35.352719 1 33.136719 1 L 28 1 z M 30.5 5 A 2.5 2.5 0 0 1 33 7.5 A 2.5 2.5 0 0 1 30.5 10 A 2.5 2.5 0 0 1 28 7.5 A 2.5 2.5 0 0 1 30.5 5 z " id="rect3340" fill="url(#linearGradient4250)" stroke-linejoin="round" stroke-linecap="round"/>
 <path d="M 9 38 L 9 53 C 9 55.216 10.784 57 13 57 L 47 57 C 49.216 57 51 55.216 51 53 L 51 38 L 9 38 z " id="rect3346" fill="url(#linearGradient4234)" stroke-linejoin="round" stroke-linecap="round"/>
 <rect id="rect3351" width="42" height="9" x="9" y="29" fill="url(#linearGradient4242)" stroke-linejoin="round" stroke-linecap="round"/>
 <path d="m 28,2.5117188 c -1.404676,0 -2.488281,1.0836055 -2.488281,2.4882812 l 0,17 A 1.5118338,1.5118338 0 0 1 24,23.511719 l -11,0 c -1.404676,0 -2.488281,1.083605 -2.488281,2.488281 l 0,27 c 0,1.404676 1.083605,2.488281 2.488281,2.488281 l 34,0 c 1.404676,0 2.488281,-1.083605 2.488281,-2.488281 l 0,-27 c 0,-1.404676 -1.083605,-2.488281 -2.488281,-2.488281 l -9.863281,0 A 1.5118338,1.5118338 0 0 1 35.625,22 l 0,-17 c 0,-1.4046757 -1.083606,-2.4882813 -2.488281,-2.4882812 l -5.136719,0 z m 2.5,4 c -0.787692,0 0.965916,0.1732023 0.193359,0.019531 -0.772556,-0.1536711 0.91328,0.3561242 0.185547,0.054687 -0.727732,-0.3014367 0.824864,0.5294151 0.169922,0.091797 -0.654942,-0.4376183 0.707373,0.6800292 0.150391,0.1230468 -0.556983,-0.5569823 0.560665,0.8053327 0.123047,0.1503907 -0.437619,-0.654942 0.393233,0.8976544 0.0918,0.1699219 -0.301436,-0.7277326 0.208359,0.9581036 0.05469,0.1855468 -0.153671,-0.7725567 0.01953,0.9810514 0.01953,0.1933594 0,-0.787692 -0.173202,0.9659161 -0.01953,0.1933594 0.153671,-0.7725568 -0.356124,0.9132794 -0.05469,0.1855468 0.301437,-0.7277325 -0.529415,0.8248639 -0.0918,0.1699219 0.437618,-0.654942 -0.68003,0.707373 -0.123047,0.1503907 0.556982,-0.5569824 -0.805333,0.5606651 -0.150391,0.1230468 0.654942,-0.4376182 -0.897654,0.3932336 -0.169922,0.091797 0.727733,-0.3014367 -0.958103,0.2083586 -0.185547,0.054687 0.772557,-0.1536711 -0.981051,0.019531 -0.193359,0.019531 0.787692,0 -0.965916,-0.1732023 -0.193359,-0.019531 0.772556,0.1536711 -0.91328,-0.3561242 -0.185547,-0.054687 C 30.848826,8.7154992 29.29623,7.8846474 29.951172,8.3222656 30.606114,8.7598839 29.243799,7.6422364 29.800781,8.1992188 30.357764,8.7562011 29.240116,7.3938861 29.677734,8.0488281 30.115353,8.7037701 29.284501,7.1511737 29.585938,7.8789062 29.887374,8.6066388 29.377579,6.9208026 29.53125,7.6933594 29.684921,8.4659161 29.511719,6.712308 29.511719,7.5 c 0,0.787692 0.173202,-0.9659161 0.01953,-0.1933594 -0.153671,0.7725568 0.356124,-0.9132794 0.05469,-0.1855468 -0.301437,0.7277325 0.529415,-0.8248639 0.0918,-0.1699219 -0.437618,0.654942 0.68003,-0.707373 0.123047,-0.1503907 C 29.243799,7.3577636 30.606114,6.2401161 29.951172,6.6777344 29.29623,7.1153526 30.848826,6.2845008 30.121094,6.5859375 29.393361,6.8873742 31.079197,6.3775789 30.306641,6.53125 29.534084,6.6849211 31.287692,6.5117188 30.5,6.5117188 Z" id="path3360" opacity="0.4" fill="none" stroke="url(#linearGradient4168)" stroke-linejoin="round" stroke-linecap="round"/>
 <rect id="rect4170" width="40" height="1" x="10" y="29" opacity="0.4" stroke-linejoin="round" stroke-linecap="round"/>
 <rect y="37" x="10" height="1" width="40" id="rect4172" opacity="0.4" stroke-linejoin="round" stroke-linecap="round"/>
 <rect id="rect4174" width="40" height="4" x="10" y="38" opacity="0.1" fill="url(#linearGradient4189)" stroke-linejoin="round" stroke-linecap="round"/>
 <rect y="30" x="10" height="1" width="40" id="rect4176" opacity="0.6" fill="#fff" stroke-linejoin="round" stroke-linecap="round"/>
 <path d="M 28.052734 7.9960938 A 2.5 2.5 0 0 0 28 8.5 A 2.5 2.5 0 0 0 30.5 11 A 2.5 2.5 0 0 0 33 8.5 A 2.5 2.5 0 0 0 32.947266 8.0039062 A 2.5 2.5 0 0 1 30.5 10 A 2.5 2.5 0 0 1 28.052734 7.9960938 z " id="circle4184" opacity="0.3" fill="#fff" stroke-linejoin="round" stroke-linecap="round"/>
 <rect id="rect4188" width="1" height="18" x="10" y="38" opacity="0.19" stroke-linejoin="round" stroke-linecap="round"/>
 <rect y="38" x="12" height="18" width="1" id="rect4190" opacity="0.19" stroke-linejoin="round" stroke-linecap="round"/>
 <rect id="rect4192" width="1" height="18" x="14" y="38" opacity="0.19" stroke-linejoin="round" stroke-linecap="round"/>
 <rect y="38" x="16" height="18" width="1" id="rect4194" opacity="0.19" stroke-linejoin="round" stroke-linecap="round"/>
 <rect id="rect4196" width="1" height="18" x="18" y="38" opacity="0.19" stroke-linejoin="round" stroke-linecap="round"/>
 <rect y="38" x="20" height="18" width="1" id="rect4198" opacity="0.19" stroke-linejoin="round" stroke-linecap="round"/>
 <rect id="rect4200" width="1" height="18" x="22" y="38" opacity="0.19" stroke-linejoin="round" stroke-linecap="round"/>
 <rect y="38" x="24" height="18" width="1" id="rect4202" opacity="0.19" stroke-linejoin="round" stroke-linecap="round"/>
 <rect id="rect4204" width="1" height="18" x="26" y="38" opacity="0.19" stroke-linejoin="round" stroke-linecap="round"/>
 <rect y="38" x="28" height="18" width="1" id="rect4206" opacity="0.19" stroke-linejoin="round" stroke-linecap="round"/>
 <rect id="rect4208" width="1" height="18" x="30" y="38" opacity="0.19" stroke-linejoin="round" stroke-linecap="round"/>
 <rect y="38" x="32" height="18" width="1" id="rect4210" opacity="0.19" stroke-linejoin="round" stroke-linecap="round"/>
 <rect id="rect4212" width="1" height="18" x="34" y="38" opacity="0.19" stroke-linejoin="round" stroke-linecap="round"/>
 <rect y="38" x="36" height="18" width="1" id="rect4214" opacity="0.19" stroke-linejoin="round" stroke-linecap="round"/>
 <rect id="rect4216" width="1" height="18" x="38" y="38" opacity="0.19" stroke-linejoin="round" stroke-linecap="round"/>
 <rect y="38" x="40" height="18" width="1" id="rect4218" opacity="0.19" stroke-linejoin="round" stroke-linecap="round"/>
 <rect id="rect4220" width="1" height="18" x="42" y="38" opacity="0.19" stroke-linejoin="round" stroke-linecap="round"/>
 <rect y="38" x="44" height="18" width="1" id="rect4222" opacity="0.19" stroke-linejoin="round" stroke-linecap="round"/>
 <rect id="rect4224" width="1" height="18" x="46" y="38" opacity="0.19" stroke-linejoin="round" stroke-linecap="round"/>
 <rect y="38" x="48" height="18" width="1" id="rect4226" opacity="0.19" stroke-linejoin="round" stroke-linecap="round"/>
 <path id="path3358" d="m 28,1.5039062 c -1.945562,0 -3.496094,1.550532 -3.496094,3.4960938 l 0,17 A 0.50393858,0.50393858 0 0 1 24,22.503906 l -11,0 c -1.945562,0 -3.4960938,1.550532 -3.4960938,3.496094 l 0,27 c 0,1.945562 1.5505318,3.496094 3.4960938,3.496094 l 34,0 c 1.945562,0 3.496094,-1.550532 3.496094,-3.496094 l 0,-27 c 0,-1.945562 -1.550532,-3.496094 -3.496094,-3.496094 l -9.863281,0 A 0.50393858,0.50393858 0 0 1 36.632812,22 l 0,-17 c 0,-1.9455618 -1.550531,-3.4960938 -3.496093,-3.4960938 l -5.136719,0 z m 2.5,4 c -0.294906,0 0.488798,0.038671 0.195312,0.00977 -0.293485,-0.028906 0.482599,0.08683 0.19336,0.029297 -0.28924,-0.057533 0.473614,0.1324817 0.191406,0.046875 -0.282207,-0.085607 0.456052,0.1792619 0.183594,0.066406 -0.272458,-0.1128557 0.437818,0.2230021 0.177734,0.083984 -0.260084,-0.1390178 0.413174,0.2634504 0.167969,0.099609 -0.245205,-0.1638411 0.384215,0.3042739 0.15625,0.1171874 -0.227965,-0.1870864 0.355014,0.3393895 0.146484,0.1308594 -0.20853,-0.20853 0.317946,0.3744498 0.13086,0.1464844 -0.187087,-0.2279654 0.281028,0.4014554 0.117187,0.15625 -0.163841,-0.2452054 0.238627,0.4280527 0.09961,0.1679688 -0.139018,-0.260084 0.19684,0.450192 0.08398,0.1777343 -0.112856,-0.2724576 0.152013,0.4658013 0.06641,0.1835938 -0.08561,-0.2822075 0.104409,0.4806457 0.04687,0.1914062 -0.05753,-0.2892395 0.0582,0.4868454 0.0293,0.1933594 -0.02891,-0.293486 0.0098,0.4902185 0.0098,0.1953125 0,-0.294906 -0.03867,0.4887985 -0.0098,0.1953125 0.02891,-0.293486 -0.08683,0.4825989 -0.0293,0.1933594 0.05753,-0.2892395 -0.132481,0.4736137 -0.04687,0.1914062 0.08561,-0.2822075 -0.179262,0.4560514 -0.06641,0.1835938 0.112856,-0.2724577 -0.223002,0.4378183 -0.08398,0.1777343 0.139017,-0.2600839 -0.263451,0.4131742 -0.09961,0.1679688 0.163841,-0.2452054 -0.304274,0.3842154 -0.117187,0.15625 0.187086,-0.2279654 -0.33939,0.3550144 -0.13086,0.1464844 0.20853,-0.2085301 -0.374449,0.3179458 -0.146484,0.1308594 0.227965,-0.1870865 -0.401455,0.2810285 -0.15625,0.1171874 0.245205,-0.163841 -0.428053,0.2386272 -0.167969,0.099609 0.260084,-0.1390177 -0.450192,0.1968401 -0.177734,0.083984 0.272458,-0.1128557 -0.465801,0.152013 -0.183594,0.066406 0.282208,-0.085607 -0.480646,0.1044084 -0.191406,0.046875 0.289239,-0.057533 -0.486845,0.058203 -0.19336,0.029297 0.293486,-0.028906 -0.490218,0.00977 -0.195312,0.00977 0.294906,0 -0.488798,-0.038672 -0.195312,-0.00977 0.293485,0.028906 -0.482599,-0.08683 -0.19336,-0.029297 0.28924,0.057533 -0.473614,-0.1324817 -0.191406,-0.046875 C 30.202129,9.495763 29.46387,9.2308943 29.736328,9.34375 30.008786,9.4566057 29.29851,9.1207479 29.558594,9.2597656 29.818678,9.3987834 29.14542,8.9963152 29.390625,9.1601562 29.63583,9.3239973 29.00641,8.8558823 29.234375,9.0429688 29.46234,9.2300552 28.879361,8.7035793 29.087891,8.9121094 c 0.20853,0.20853 -0.317946,-0.3744498 -0.13086,-0.1464844 0.187087,0.2279654 -0.281028,-0.4014554 -0.117187,-0.15625 0.163841,0.2452054 -0.238627,-0.4280527 -0.09961,-0.1679688 0.139018,0.260084 -0.19684,-0.450192 -0.08398,-0.1777343 0.112856,0.2724576 -0.152013,-0.4658013 -0.06641,-0.1835938 0.08561,0.2822075 -0.104409,-0.4806457 -0.04687,-0.1914062 0.05753,0.2892395 -0.0582,-0.4868454 -0.0293,-0.1933594 0.02891,0.293486 -0.0098,-0.4902185 -0.0098,-0.1953125 0,0.294906 0.03867,-0.4887985 0.0098,-0.1953125 -0.02891,0.293486 0.08683,-0.4825989 0.0293,-0.1933594 -0.05753,0.2892395 0.132481,-0.4736137 0.04687,-0.1914062 -0.08561,0.2822075 0.179262,-0.4560514 0.06641,-0.1835938 -0.112856,0.2724577 0.223002,-0.4378183 0.08398,-0.1777343 -0.139017,0.2600839 0.263451,-0.4131742 0.09961,-0.1679688 -0.163841,0.2452054 0.304274,-0.3842154 0.117187,-0.15625 -0.187086,0.2279654 0.33939,-0.3550144 0.13086,-0.1464844 -0.20853,0.2085301 0.374449,-0.3179458 0.146484,-0.1308594 -0.227965,0.1870865 0.401455,-0.2810285 0.15625,-0.1171874 -0.245205,0.163841 0.428053,-0.2386272 0.167969,-0.099609 -0.260084,0.1390177 0.450192,-0.1968401 0.177734,-0.083984 -0.272458,0.1128557 0.465801,-0.152013 0.183594,-0.066406 -0.282208,0.085607 0.480646,-0.1044084 0.191406,-0.046875 -0.289239,0.057533 0.486845,-0.058203 0.19336,-0.029297 -0.293486,0.028906 0.490218,-0.00977 0.195312,-0.00977 z" opacity="0.4" fill="none" stroke="#000" stroke-linejoin="round" stroke-linecap="round"/>
</svg>
