<?xml version="1.0" encoding="UTF-8" standalone="no"?>
<svg xmlns="http://www.w3.org/2000/svg" xmlns:xlink="http://www.w3.org/1999/xlink" viewBox="0 0 48.000001 48.000001" version="1.1">
 <defs id="defs4">
  <linearGradient id="linearGradient4185">
   <stop id="stop4187" stop-color="#fff"/>
   <stop id="stop4189" offset="1" stop-color="#fff" stop-opacity="0"/>
  </linearGradient>
  <linearGradient gradientUnits="userSpaceOnUse" y2="1048.3622" x2="0" y1="1007.3622" id="linearGradient4177" xlink:href="#linearGradient4185"/>
  <linearGradient gradientUnits="userSpaceOnUse" y2="1039.3622" x2="0" y1="1031.3622" id="linearGradient4191" xlink:href="#linearGradient4185"/>
 </defs>
 <g id="layer1" transform="translate(0,-1004.3622)">
  <path id="path4193" d="m 23.5,1007.3622 a 21.5,21.50001 0 0 0 -21.5,21.5 21.5,21.50001 0 0 0 21.5,21.5 21.5,21.50001 0 0 0 21.5,-21.5 21.5,21.50001 0 0 0 -21.5,-21.5 z m 0,8 a 13.5,13.500012 0 0 1 13.5,13.5 13.5,13.500012 0 0 1 -4.978516,10.4609 5,4.9999871 0 0 0 0.978516,-2.9609 5,4.9999871 0 0 0 -5,-5 5,4.9999871 0 0 0 -5,5 5,4.9999871 0 0 0 5,5 5,4.9999871 0 0 0 0.695312,-0.053 13.5,13.500012 0 0 1 -5.195312,1.0527 13.5,13.500012 0 0 1 -13.5,-13.5 13.5,13.500012 0 0 1 13.5,-13.5 z" opacity="0.2" stroke-linecap="round" stroke-miterlimit="0"/>
  <ellipse ry="4.999987" rx="5" cy="1035.3622" cx="28" id="path3343" fill="#5288d1" stroke-linecap="round" stroke-miterlimit="0"/>
  <path d="m 28,1030.8945 c -1.169613,0 -2.331163,0.4816 -3.158203,1.3086 -0.82704,0.8271 -1.308597,1.9886 -1.308594,3.1582 -3e-6,1.1696 0.481554,2.3312 1.308594,3.1582 0.82704,0.8271 1.98859,1.3086 3.158203,1.3086 1.169613,0 2.331163,-0.4815 3.158203,-1.3086 0.82704,-0.827 1.308597,-1.9886 1.308594,-3.1582 3e-6,-1.1696 -0.481554,-2.3311 -1.308594,-3.1582 -0.82704,-0.827 -1.98859,-1.3086 -3.158203,-1.3086 z" id="path4181" opacity="0.4" fill="none" stroke="#000" stroke-linecap="round" stroke-miterlimit="0"/>
  <path id="path4183" d="m 28,1031.8281 c -1.849953,0 -3.533208,1.6833 -3.533203,3.5332 -5e-6,1.85 1.68325,3.5332 3.533203,3.5332 1.849953,0 3.533208,-1.6832 3.533203,-3.5332 5e-6,-1.8499 -1.68325,-3.5332 -3.533203,-3.5332 z" opacity="0.4" fill="none" stroke="url(#linearGradient4191)" stroke-linecap="round" stroke-miterlimit="0"/>
  <path id="path3338" transform="translate(0,1004.3622)" d="M 23.5 2 A 21.5 21.50001 0 0 0 2 23.5 A 21.5 21.50001 0 0 0 23.5 45 A 21.5 21.50001 0 0 0 45 23.5 A 21.5 21.50001 0 0 0 23.5 2 z M 23.5 10 A 13.5 13.500012 0 0 1 37 23.5 A 13.5 13.500012 0 0 1 23.5 37 A 13.5 13.500012 0 0 1 10 23.5 A 13.5 13.500012 0 0 1 23.5 10 z " fill="#5288d1" stroke-linecap="round" stroke-miterlimit="0"/>
  <path id="path3356" d="m 23.5,1006.7626 c -2.761989,0 -5.522474,0.5485 -8.074219,1.6055 -2.551745,1.0569 -4.892681,2.6212 -6.8457029,4.5742 -1.9530214,1.953 -3.5172505,4.2939 -4.5742187,6.8457 -1.0569683,2.5517 -1.6054675,5.3122 -1.6054688,8.0742 1.3e-6,2.762 0.5485005,5.5225 1.6054688,8.0742 1.0569682,2.5518 2.6211973,4.8927 4.5742187,6.8457 1.9530219,1.953 4.2939579,3.5173 6.8457029,4.5742 2.551745,1.057 5.31223,1.6055 8.074219,1.6055 2.761989,0 5.522474,-0.5485 8.074219,-1.6055 2.551745,-1.0569 4.892681,-2.6212 6.845703,-4.5742 1.953021,-1.953 3.51725,-4.2939 4.574219,-6.8457 1.056968,-2.5517 1.605467,-5.3122 1.605468,-8.0742 -10e-7,-2.762 -0.5485,-5.5225 -1.605468,-8.0742 -1.056969,-2.5518 -2.621198,-4.8927 -4.574219,-6.8457 -1.953022,-1.953 -4.293958,-3.5173 -6.845703,-4.5742 -2.551745,-1.057 -5.31223,-1.6055 -8.074219,-1.6055 z" opacity="0.4" fill="none" stroke="#000" stroke-linecap="round" stroke-miterlimit="0"/>
  <path id="path3360" d="m 23.5,1013.8095 c -0.635524,0 1.324212,0.047 0.689453,0.016 -0.634758,-0.031 1.319964,0.1131 0.6875,0.051 -0.632464,-0.062 1.314193,0.1792 0.685547,0.086 -0.628646,-0.093 1.303,0.2412 0.679688,0.1172 -0.623313,-0.124 1.288353,0.3048 0.671874,0.1504 -0.616478,-0.1544 1.274175,0.37 0.666016,0.1855 -0.608159,-0.1844 1.252671,0.429 0.654297,0.2149 -0.598374,-0.2141 1.229726,0.4912 0.642578,0.248 -0.587148,-0.2432 1.205367,0.553 0.630859,0.2813 -0.574507,-0.2717 1.17767,0.6082 0.617188,0.3086 -0.560482,-0.2996 1.144717,0.6665 0.599609,0.3398 -0.545107,-0.3267 1.110451,0.7222 0.582032,0.3692 -0.528419,-0.3531 1.074911,0.777 0.564453,0.3984 -0.510458,-0.3786 1.036189,0.827 0.544922,0.4238 -0.491267,-0.4032 0.992377,0.878 0.521484,0.4512 -0.470893,-0.4268 0.949384,0.924 0.5,0.4746 -0.449384,-0.4494 0.901402,0.9709 0.474609,0.5 -0.426792,-0.4709 0.854345,1.0128 0.451172,0.5215 -0.403172,-0.4913 0.80241,1.0554 0.423828,0.5449 -0.378581,-0.5105 0.751516,1.0929 0.398438,0.5645 -0.353079,-0.5285 0.695866,1.1271 0.369141,0.582 -0.326726,-0.5451 0.639428,1.1601 0.339843,0.5996 -0.299584,-0.5605 0.580316,1.1917 0.308594,0.6172 -0.271722,-0.5745 0.524455,1.216 0.28125,0.6289 -0.243205,-0.5872 0.462149,1.2429 0.248047,0.6445 -0.214102,-0.5983 0.399327,1.2625 0.214844,0.6543 -0.184484,-0.6081 0.339967,1.2825 0.185546,0.666 -0.15442,-0.6164 0.274376,1.2952 0.150391,0.6719 -0.123985,-0.6233 0.210439,1.3083 0.117188,0.6797 -0.09325,-0.6286 0.14823,1.318 0.08594,0.6855 -0.06229,-0.6324 0.08197,1.3223 0.05078,0.6875 -0.03118,-0.6347 0.01563,1.325 0.01563,0.6895 1e-6,-0.6355 -0.04681,1.3242 -0.01563,0.6895 0.03119,-0.6348 -0.113074,1.3199 -0.05078,0.6875 0.06229,-0.6325 -0.179189,1.3141 -0.08594,0.6855 0.09325,-0.6286 -0.241173,1.303 -0.117188,0.6797 0.123985,-0.6233 -0.304811,1.2883 -0.150391,0.6719 0.154421,-0.6165 -0.37003,1.2741 -0.185546,0.666 0.184483,-0.6082 -0.428946,1.2526 -0.214844,0.6543 0.214102,-0.5984 -0.491252,1.2317 -0.248047,0.6445 0.243205,-0.5871 -0.552972,1.2034 -0.28125,0.6289 0.271722,-0.5745 -0.608178,1.1777 -0.308594,0.6172 0.299585,-0.5605 -0.666569,1.1447 -0.339843,0.5996 0.326725,-0.5451 -0.72222,1.1105 -0.369141,0.582 0.353078,-0.5284 -0.777019,1.075 -0.398438,0.5645 0.378582,-0.5105 -0.827,1.0362 -0.423828,0.5449 0.403173,-0.4913 -0.877964,0.9924 -0.451172,0.5215 0.426793,-0.4709 -0.923993,0.9494 -0.474609,0.5 0.449384,-0.4494 -0.970893,0.9014 -0.5,0.4746 0.470893,-0.4268 -1.012751,0.8544 -0.521484,0.4512 0.491267,-0.4032 -1.05538,0.8024 -0.544922,0.4238 0.510458,-0.3786 -1.092872,0.7515 -0.564453,0.3984 0.528419,-0.353 -1.127139,0.6959 -0.582032,0.3692 0.545108,-0.3267 -1.160091,0.6394 -0.599609,0.3398 0.560482,-0.2996 -1.191695,0.5803 -0.617188,0.3086 0.574508,-0.2717 -1.218007,0.5245 -0.630859,0.2813 0.587148,-0.2432 -1.240952,0.4621 -0.642578,0.248 0.598374,-0.2141 -1.262456,0.3993 -0.654297,0.2149 0.608159,-0.1845 -1.282494,0.3399 -0.666016,0.1855 0.616479,-0.1544 -1.295187,0.2744 -0.671874,0.1504 0.623312,-0.124 -1.308334,0.2104 -0.679688,0.1172 0.628646,-0.093 -1.318011,0.1482 -0.685547,0.086 0.632464,-0.062 -1.322258,0.082 -0.6875,0.051 0.634759,-0.031 -1.324977,0.016 -0.689453,0.016 0.635524,0 -1.324212,-0.047 -0.689453,-0.016 0.634758,0.031 -1.319964,-0.1131 -0.6875,-0.051 0.632464,0.062 -1.314193,-0.1792 -0.685547,-0.086 0.628646,0.093 -1.303,-0.2412 -0.679688,-0.1172 0.623313,0.124 -1.288353,-0.3048 -0.671874,-0.1504 0.616478,0.1544 -1.274175,-0.37 -0.666016,-0.1855 0.608159,0.1844 -1.252671,-0.429 -0.654297,-0.2149 0.598374,0.2141 -1.229726,-0.4912 -0.642578,-0.248 0.587148,0.2432 -1.205367,-0.553 -0.630859,-0.2813 0.574507,0.2717 -1.17767,-0.6082 -0.617188,-0.3086 0.560482,0.2996 -1.144717,-0.6665 -0.599609,-0.3398 0.545107,0.3267 -1.110451,-0.7222 -0.582032,-0.3692 0.528419,0.3531 -1.074911,-0.777 -0.564453,-0.3984 0.510458,0.3786 -1.036189,-0.827 -0.544922,-0.4238 0.491267,0.4032 -0.992377,-0.878 -0.521484,-0.4512 0.470893,0.4268 -0.949384,-0.924 -0.5,-0.4746 0.449384,0.4494 -0.901402,-0.9709 -0.474609,-0.5 0.426792,0.4709 -0.854345,-1.0128 -0.451172,-0.5215 0.403172,0.4913 -0.80241,-1.0554 -0.423828,-0.5449 0.378581,0.5105 -0.751516,-1.0929 -0.398438,-0.5645 0.353079,0.5285 -0.695866,-1.1271 -0.369141,-0.582 0.326726,0.5451 -0.639428,-1.1601 -0.339843,-0.5996 0.299584,0.5605 -0.580316,-1.1917 -0.308594,-0.6172 0.271722,0.5745 -0.524455,-1.216 -0.28125,-0.6289 0.243205,0.5872 -0.462149,-1.2429 -0.248047,-0.6445 0.214102,0.5983 -0.399327,-1.2625 -0.214844,-0.6543 0.184484,0.6081 -0.3399667,-1.2825 -0.1855465,-0.666 0.1544205,0.6164 -0.2743757,-1.2952 -0.1503906,-0.6719 0.1239851,0.6233 -0.2104388,-1.3083 -0.1171875,-0.6797 0.093251,0.6286 -0.1482303,-1.318 -0.085937,-0.6855 0.062293,0.6324 -0.081966,-1.3223 -0.050781,-0.6875 0.031184,0.6347 -0.015626,-1.325 -0.015625,-0.6895 -5e-7,0.6355 0.046809,-1.3242 0.015625,-0.6895 -0.031184,0.6348 0.1130741,-1.3199 0.050781,-0.6875 -0.062293,0.6325 0.1791887,-1.3141 0.085937,-0.6855 -0.093251,0.6286 0.2411726,-1.303 0.1171875,-0.6797 -0.1239851,0.6233 0.3048111,-1.2883 0.1503906,-0.6719 -0.1544202,0.6165 0.3700305,-1.2741 0.1855465,-0.666 -0.184483,0.6082 0.428946,-1.2526 0.214844,-0.6543 -0.214102,0.5984 0.491252,-1.2317 0.248047,-0.6445 -0.243205,0.5871 0.552972,-1.2034 0.28125,-0.6289 -0.271722,0.5745 0.608178,-1.1777 0.308594,-0.6172 -0.299585,0.5605 0.666569,-1.1447 0.339843,-0.5996 -0.326725,0.5451 0.72222,-1.1105 0.369141,-0.582 -0.353078,0.5284 0.777019,-1.075 0.398438,-0.5645 -0.378582,0.5105 0.827,-1.0362 0.423828,-0.5449 -0.403173,0.4913 0.877964,-0.9924 0.451172,-0.5215 -0.426793,0.4709 0.923993,-0.9494 0.474609,-0.5 -0.449384,0.4494 0.970893,-0.9014 0.5,-0.4746 -0.470893,0.4268 1.012751,-0.8544 0.521484,-0.4512 -0.491267,0.4032 1.05538,-0.8024 0.544922,-0.4238 -0.510458,0.3786 1.092872,-0.7515 0.564453,-0.3984 -0.528419,0.353 1.127139,-0.6959 0.582032,-0.3692 -0.545108,0.3267 1.160091,-0.6394 0.599609,-0.3398 -0.560482,0.2996 1.191695,-0.5803 0.617188,-0.3086 -0.574508,0.2717 1.218007,-0.5245 0.630859,-0.2813 -0.587148,0.2432 1.240952,-0.4621 0.642578,-0.248 -0.598374,0.2141 1.262456,-0.3993 0.654297,-0.2149 -0.608159,0.1845 1.282494,-0.3399 0.666016,-0.1855 -0.616479,0.1544 1.295187,-0.2744 0.671874,-0.1504 -0.623312,0.124 1.308334,-0.2104 0.679688,-0.1172 -0.628646,0.093 1.318011,-0.1482 0.685547,-0.086 -0.632464,0.062 1.322258,-0.082 0.6875,-0.051 -0.634759,0.031 1.324977,-0.016 0.689453,-0.016 z" opacity="0.4" fill="none" stroke="#000" stroke-linecap="round" stroke-miterlimit="0"/>
  <path d="m 23.5,1007.7793 c -5.257411,0 -10.481667,2.1653 -14.1992188,5.8828 -3.7175512,3.7176 -5.8828125,8.9418 -5.8828124,14.1992 0,5.2574 2.1652612,10.4817 5.8828124,14.1992 3.7175518,3.7176 8.9418078,5.8829 14.1992188,5.8829 5.257411,0 10.481667,-2.1653 14.199219,-5.8829 3.717551,-3.7175 5.882812,-8.9418 5.882812,-14.1992 0,-5.2574 -2.165261,-10.4816 -5.882812,-14.1992 -3.717552,-3.7175 -8.941808,-5.8828 -14.199219,-5.8828 z" id="path3369" opacity="0.4" fill="none" stroke="url(#linearGradient4177)" stroke-linecap="round" stroke-miterlimit="0"/>
 </g>
</svg>
