<?xml version="1.0" encoding="UTF-8" standalone="no"?>
<svg xmlns="http://www.w3.org/2000/svg" xmlns:xlink="http://www.w3.org/1999/xlink" viewBox="0 0 48 48" version="1.1">
 <defs id="defs12">
  <linearGradient id="linearGradient4225">
   <stop id="stop4227" stop-color="#00d0f9"/>
   <stop id="stop4229" offset="1" stop-color="#fff"/>
  </linearGradient>
  <linearGradient id="linearGradient3359">
   <stop stop-color="#949494" id="stop3361"/>
   <stop offset="1" stop-color="#6a6a6a" id="stop3363"/>
  </linearGradient>
  <linearGradient id="linearGradient4170">
   <stop id="stop4172" stop-color="#fff"/>
   <stop stop-opacity="0" id="stop4174" stop-color="#fff" offset="1"/>
  </linearGradient>
  <linearGradient x2="0" gradientUnits="userSpaceOnUse" y2="43" y1="5" xlink:href="#linearGradient3359" id="linearGradient4154"/>
  <linearGradient x2="0" gradientUnits="userSpaceOnUse" y2="42" y1="6" xlink:href="#linearGradient4170" id="linearGradient4176"/>
  <mask id="mask4187" maskUnits="userSpaceOnUse">
   <circle cx="24" cy="24" r="19" id="circle4189" fill="#fff" stroke-linejoin="round"/>
  </mask>
  <filter height="1.17612" y="-0.08806" width="1.121789" x="-0.060894" id="filter4221" color-interpolation-filters="sRGB">
   <feGaussianBlur id="feGaussianBlur4223" stdDeviation="1.2343468"/>
  </filter>
  <linearGradient gradientUnits="userSpaceOnUse" y2="40" x2="0" y1="8" id="linearGradient4231" xlink:href="#linearGradient4225"/>
 </defs>
 <circle r="19" id="circle4178" stroke-linejoin="round" cy="25" cx="24" opacity="0.2"/>
 <circle id="path4146" r="19" stroke-linejoin="round" cy="24" cx="24" fill="url(#linearGradient4154)"/>
 <g id="g4169">
  <g mask="url(#mask4187)" id="g4183">
   <path id="path4233" d="M 4.03125,7.1757812 A 0.82504535,0.82504535 0 0 0 3.1972656,7.8105469 l -3.3769531,14.3496091 0.24023437,0.0059 a 0.82504535,0.82504535 0 0 0 -0.82226562,1.013672 l 0.171875,0.728515 -0.21289063,0.902344 a 0.82504535,0.82504535 0 0 0 0.80078125,1.013672 l -0.13671875,0.0039 3.37695308,14.351563 A 0.82504535,0.82504535 0 0 0 4.859375,40.099609 L 6.2304688,29.810547 8.234375,39.162109 a 0.82504535,0.82504535 0 0 0 1.6289062,-0.109375 l 0.7285158,-9.464843 0.683594,1.708984 A 0.82504535,0.82504535 0 0 0 12.855469,31.125 l 0.435547,-2.615234 0.935546,5.615234 a 0.82504535,0.82504535 0 0 0 1.638672,-0.134766 l 0,-4.193359 a 0.82504535,0.82504535 0 0 0 0.705078,-0.173828 l 0.648438,8.429687 a 0.82504535,0.82504535 0 0 0 1.644531,0 l 0.177735,-2.308593 0.177734,2.308593 a 0.82504535,0.82504535 0 0 0 1.644531,0 l 0.648438,-8.43164 a 0.82504535,0.82504535 0 0 0 1.330078,-0.431641 l 0.199219,-0.796875 0.199218,0.796875 a 0.82504535,0.82504535 0 0 0 1.539063,0.169922 l 1.261719,-2.525391 0.261718,0.525391 1,2 a 0.82504535,0.82504535 0 0 0 1.476563,0 l 0.724609,-1.451172 0.716797,7.164063 a 0.82504535,0.82504535 0 0 0 1.628906,0.08008 l 1.390625,-6.955078 1.017578,3.054687 a 0.82504535,0.82504535 0 0 0 1.59961,-0.144531 l 0.505859,-3.541016 0.894531,2.685547 a 0.82504535,0.82504535 0 0 0 1.490235,0.162109 l 1.902344,-3.169921 0.582031,2.908203 a 0.82504535,0.82504535 0 0 0 1.591797,0.09961 l 1.144531,-3.4375 2.990234,0 0.04102,0 a 0.82504535,0.82504535 0 0 0 0.824219,-0.824219 l 0,-3.990234 A 0.82504535,0.82504535 0 0 0 47,21.175781 l -0.04102,0 -3.03125,0 -1.144531,-3.4375 a 0.82504535,0.82504535 0 0 0 -1.591797,0.09961 l -0.582031,2.908203 -1.902344,-3.169922 a 0.82504535,0.82504535 0 0 0 -1.490234,0.162109 l -0.894531,2.685547 -0.50586,-3.541016 a 0.82504535,0.82504535 0 0 0 -1.599609,-0.144531 l -1.017578,3.054688 -1.390625,-6.955078 a 0.82504535,0.82504535 0 0 0 -1.628906,0.08008 l -0.716797,7.164062 -0.72461,-1.451172 a 0.82504535,0.82504535 0 0 0 -1.476562,0 l -1,2 L 26,21.15625 24.738281,18.630859 a 0.82504535,0.82504535 0 0 0 -1.539062,0.169922 L 23,19.597656 22.800781,18.800781 A 0.82504535,0.82504535 0 0 0 21.470703,18.367188 L 20.822266,9.9375 a 0.82504535,0.82504535 0 0 0 -1.644532,0 L 19,12.246094 18.822266,9.9375 a 0.82504535,0.82504535 0 0 0 -1.644532,0 l -0.648437,8.431641 a 0.82504535,0.82504535 0 0 0 -0.705078,-0.173829 l 0,-4.195312 A 0.82504535,0.82504535 0 0 0 14.185547,13.865234 L 13.25,19.480469 12.814453,16.865234 A 0.82504535,0.82504535 0 0 0 11.234375,16.693359 L 10.550781,18.402344 9.8222656,8.9375 A 0.82504535,0.82504535 0 0 0 8.1933594,8.828125 L 6.1894531,18.179688 4.8183594,7.890625 A 0.82504535,0.82504535 0 0 0 4.03125,7.1757812 Z" opacity="0.17" fill-rule="evenodd" stroke="#000"/>
   <path d="M 4.03125,7.1757812 A 0.82504535,0.82504535 0 0 0 3.1972656,7.8105469 l -3.3769531,14.3496091 0.24023437,0.0059 a 0.82504535,0.82504535 0 0 0 -0.82226562,1.013672 l 0.171875,0.728515 -0.21289063,0.902344 a 0.82504535,0.82504535 0 0 0 0.80078125,1.013672 l -0.13671875,0.0039 3.37695308,14.351563 A 0.82504535,0.82504535 0 0 0 4.859375,40.099609 L 6.2304688,29.810547 8.234375,39.162109 a 0.82504535,0.82504535 0 0 0 1.6289062,-0.109375 l 0.7285158,-9.464843 0.683594,1.708984 A 0.82504535,0.82504535 0 0 0 12.855469,31.125 l 0.435547,-2.615234 0.935546,5.615234 a 0.82504535,0.82504535 0 0 0 1.638672,-0.134766 l 0,-4.193359 a 0.82504535,0.82504535 0 0 0 0.705078,-0.173828 l 0.648438,8.429687 a 0.82504535,0.82504535 0 0 0 1.644531,0 l 0.177735,-2.308593 0.177734,2.308593 a 0.82504535,0.82504535 0 0 0 1.644531,0 l 0.648438,-8.43164 a 0.82504535,0.82504535 0 0 0 1.330078,-0.431641 l 0.199219,-0.796875 0.199218,0.796875 a 0.82504535,0.82504535 0 0 0 1.539063,0.169922 l 1.261719,-2.525391 0.261718,0.525391 1,2 a 0.82504535,0.82504535 0 0 0 1.476563,0 l 0.724609,-1.451172 0.716797,7.164063 a 0.82504535,0.82504535 0 0 0 1.628906,0.08008 l 1.390625,-6.955078 1.017578,3.054687 a 0.82504535,0.82504535 0 0 0 1.59961,-0.144531 l 0.505859,-3.541016 0.894531,2.685547 a 0.82504535,0.82504535 0 0 0 1.490235,0.162109 l 1.902344,-3.169921 0.582031,2.908203 a 0.82504535,0.82504535 0 0 0 1.591797,0.09961 l 1.144531,-3.4375 2.990234,0 0.04102,0 a 0.82504535,0.82504535 0 0 0 0.824219,-0.824219 l 0,-3.990234 A 0.82504535,0.82504535 0 0 0 47,21.175781 l -0.04102,0 -3.03125,0 -1.144531,-3.4375 a 0.82504535,0.82504535 0 0 0 -1.591797,0.09961 l -0.582031,2.908203 -1.902344,-3.169922 a 0.82504535,0.82504535 0 0 0 -1.490234,0.162109 l -0.894531,2.685547 -0.50586,-3.541016 a 0.82504535,0.82504535 0 0 0 -1.599609,-0.144531 l -1.017578,3.054688 -1.390625,-6.955078 a 0.82504535,0.82504535 0 0 0 -1.628906,0.08008 l -0.716797,7.164062 -0.72461,-1.451172 a 0.82504535,0.82504535 0 0 0 -1.476562,0 l -1,2 L 26,21.15625 24.738281,18.630859 a 0.82504535,0.82504535 0 0 0 -1.539062,0.169922 L 23,19.597656 22.800781,18.800781 A 0.82504535,0.82504535 0 0 0 21.470703,18.367188 L 20.822266,9.9375 a 0.82504535,0.82504535 0 0 0 -1.644532,0 L 19,12.246094 18.822266,9.9375 a 0.82504535,0.82504535 0 0 0 -1.644532,0 l -0.648437,8.431641 a 0.82504535,0.82504535 0 0 0 -0.705078,-0.173829 l 0,-4.195312 A 0.82504535,0.82504535 0 0 0 14.185547,13.865234 L 13.25,19.480469 12.814453,16.865234 A 0.82504535,0.82504535 0 0 0 11.234375,16.693359 L 10.550781,18.402344 9.8222656,8.9375 A 0.82504535,0.82504535 0 0 0 8.1933594,8.828125 L 6.1894531,18.179688 4.8183594,7.890625 A 0.82504535,0.82504535 0 0 0 4.03125,7.1757812 Z" id="path4167" opacity="0.55" filter="url(#filter4221)" fill-rule="evenodd"/>
   <path d="M 4,8 0.47070312,23 0.04101562,22.990234 0.2578125,23.908203 0,25 0.51171875,24.98828 4.0410156,39.990233 l 1.8671875,-14 0.3476563,0 2.7851562,13 1.0000004,-13 2,5 0.833984,-5 0.5,0 0.666016,2 1,6 0,-8 0.25,0 0.75,3 0.75,-3 0.326172,0 0.923828,12 0.923828,-12 0.152344,0 0.923828,12 0.923828,-12 0.326172,0 0.75,3 0.75,-3 0.5,0 0.75,3 1.5,-3 1,0 0.5,1 1,2 1.5,-3 0.599609,0 0.900391,9 1.800781,-9 0.533203,0 1.666016,5 0.714843,-5 0.951172,0 1.333985,4 2.40039,-4 0.798828,0 0.800782,4 1.333984,-4 3.583984,0 0.04102,0 L 47,22 46.95898,22 43.33398,22 42,18 41.199219,22 40.400391,22 38,18 36.666016,22 35.714844,22 35,17 33.333984,22 32.800781,22 31,13 30.099609,22 29.5,22 28,19 l -1,2 -0.5,1 -1,0 -1.5,-3 -0.75,3 -0.5,0 L 22,19 21.25,22 20.923828,22 20,10 19.076172,22 18.923828,22 18,10 17.076172,22 16.75,22 16,19 15.25,22 15,22 l 0,-8 -1,6 -0.666016,2 -0.5,0 L 12,17 10,22 9,9 6.2148438,22 5.8671875,22 4,8 Z" id="path4165" fill="url(#linearGradient4231)" fill-rule="evenodd"/>
  </g>
 </g>
 <path d="m 24,5.5058594 c -4.841603,0 -9.652642,1.9944384 -13.076172,5.4179686 C 7.5002978,14.347358 5.5058594,19.158397 5.5058594,24 c 0,4.841603 1.9944384,9.652642 5.4179686,13.076172 3.42353,3.42353 8.234569,5.417969 13.076172,5.417969 4.841603,0 9.652642,-1.994439 13.076172,-5.417969 3.42353,-3.42353 5.417969,-8.234569 5.417969,-13.076172 0,-4.841603 -1.994439,-9.652642 -5.417969,-13.076172 C 33.652642,7.5002978 28.841603,5.5058594 24,5.5058594 Z" id="path4158" stroke-linejoin="round" stroke="#000" fill="none" opacity="0.4"/>
 <path d="m 24,6.4160156 c -4.603269,0 -9.178591,1.8953877 -12.433594,5.1503904 C 8.3114033,14.821409 6.4160156,19.396731 6.4160156,24 c 0,4.603269 1.8953877,9.178591 5.1503904,12.433594 3.255003,3.255003 7.830325,5.15039 12.433594,5.15039 4.603269,0 9.178591,-1.895387 12.433594,-5.15039 3.255003,-3.255003 5.15039,-7.830325 5.15039,-12.433594 0,-4.603269 -1.895387,-9.178591 -5.15039,-12.433594 C 33.178591,8.3114033 28.603269,6.4160156 24,6.4160156 Z" id="path4160" stroke-linejoin="round" stroke="url(#linearGradient4176)" fill="none" opacity="0.4"/>
</svg>
