<?xml version="1.0" encoding="UTF-8" standalone="no"?>
<svg xmlns="http://www.w3.org/2000/svg" xmlns:xlink="http://www.w3.org/1999/xlink" version="1.1" viewBox="0 0 48 48">
 <defs id="defs4">
  <linearGradient id="linearGradient4591">
   <stop id="stop4593"/>
   <stop id="stop4595" offset="1" stop-opacity="0"/>
  </linearGradient>
  <linearGradient id="linearGradient4583">
   <stop id="stop4585" stop-color="#fff"/>
   <stop id="stop4587" offset="1" stop-color="#fff" stop-opacity="0"/>
  </linearGradient>
  <linearGradient id="linearGradient4541">
   <stop id="stop4543" stop-color="#66b03e"/>
   <stop id="stop4545" offset="1" stop-color="#5c9e37"/>
  </linearGradient>
  <linearGradient id="linearGradient4517">
   <stop id="stop4519" stop-color="#66b03e"/>
   <stop id="stop4521" offset="1" stop-color="#a5d68a"/>
  </linearGradient>
  <linearGradient id="linearGradient4140">
   <stop id="stop4142" stop-color="#a868d4"/>
   <stop id="stop4144" offset="1" stop-color="#9546ca"/>
  </linearGradient>
  <radialGradient gradientUnits="userSpaceOnUse" gradientTransform="matrix(1,0,0,1.0000034,0,-0.00358038)" r="2.5" cy="1042.8622" cx="21.5" id="radialGradient4146" xlink:href="#linearGradient4140"/>
  <linearGradient gradientUnits="userSpaceOnUse" y2="1042.8613" x2="22.998047" y1="1041.3622" x1="23" id="linearGradient4160" xlink:href="#linearGradient4583"/>
  <radialGradient gradientUnits="userSpaceOnUse" gradientTransform="matrix(1,0,0,0.75862069,0,246.5357)" r="14.5" cy="1022.6804" cx="27" id="radialGradient4523" xlink:href="#linearGradient4517"/>
  <linearGradient gradientUnits="userSpaceOnUse" y2="1012.3622" x2="38" y1="1030.3622" x1="40" id="linearGradient4537" xlink:href="#linearGradient4583"/>
  <linearGradient gradientUnits="userSpaceOnUse" y2="1022.3622" x2="0" y1="1009.3622" id="linearGradient4547" xlink:href="#linearGradient4541"/>
  <filter height="1.12" y="-0.06" width="1.12" x="-0.06" id="filter4575" color-interpolation-filters="sRGB">
   <feGaussianBlur id="feGaussianBlur4577" stdDeviation="0.225"/>
  </filter>
  <radialGradient gradientUnits="userSpaceOnUse" gradientTransform="matrix(0.57142857,-3.7681368e-5,1.2246445e-4,1.8571429,11.875626,-870.73797)" r="3.5" cy="1015.593" cx="28" id="radialGradient4589" xlink:href="#linearGradient4583"/>
  <linearGradient gradientUnits="userSpaceOnUse" y2="1022.3622" x2="0" y1="1018.3622" id="linearGradient4597" xlink:href="#linearGradient4591"/>
 </defs>
 <g transform="translate(0,-1004.3622)" id="layer1">
  <path id="ellipse5151" d="m 32,1010.3617 -6,2 c 0.35302,1.6752 0.188866,3.5566 -0.109375,5.4922 -3.046578,-2.9975 -6.980948,-4.7276 -10.890625,-6.4922 1.582343,4.2926 2.552862,9.0948 7,11 -3.223875,0.4429 -4.002427,3.331 -6,5 1.340837,-0.3088 2.775625,-0.8068 4.123047,-1.1289 a 2.5000002,2.5000088 0 0 0 -0.0918,0.6602 2.5000002,2.5000088 0 0 0 0.07031,0.5703 2.5000002,2.5000088 0 0 0 -0.570312,-0.07 2.5000002,2.5000088 0 0 0 -2.498047,2.4687 2.5000002,2.5000088 0 0 0 -0.0332,0 2.5000002,2.5000088 0 0 0 -2.5,2.5 2.5000002,2.5000088 0 0 0 0.28125,1.1523 2.5000002,2.5000088 0 0 0 -1.75,2.3809 2.5000002,2.5000088 0 0 0 1.146484,2.1016 2.5000002,2.5000088 0 0 0 -0.146484,0.8359 2.5000002,2.5000088 0 0 0 1.675781,2.3574 2.5000002,2.5000088 0 0 0 -0.675781,1.7051 2.5000002,2.5000088 0 0 0 1.166016,2.1133 2.5000002,2.5000088 0 0 0 -0.166016,0.8867 2.5000002,2.5000088 0 0 0 2.5,2.5 2.5000002,2.5000088 0 0 0 2.462891,-2.084 2.5000002,2.5000088 0 0 0 0.505859,0.053 2.5000002,2.5000088 0 0 0 0.830078,-0.1445 2.5000002,2.5000088 0 0 0 1.669924,0.6401 2.5000002,2.5000088 0 0 0 2.455078,-2.041 2.5000002,2.5000088 0 0 0 2.044922,-2.459 2.5000002,2.5000088 0 0 0 -0.632812,-1.6563 2.5000002,2.5000088 0 0 0 0.671874,-0.373 2.5000002,2.5000088 0 0 0 2.492188,-2.5 2.5000002,2.5000088 0 0 0 -0.002,-0.047 2.5000002,2.5000088 0 0 0 0.939453,-1.9531 2.5000002,2.5000088 0 0 0 -0.972656,-1.9766 2.5000002,2.5000088 0 0 0 1.035156,-2.0234 2.5000002,2.5000088 0 0 0 -0.533203,-1.543 2.5000002,2.5000088 0 0 0 0.355469,-0.707 c 1.172566,0.7638 2.479474,1.2041 4.146484,0.7812 -0.516338,-3.0457 -1.741116,-5.4475 -5,-6 4.905221,-0.046 8.783081,-4.201 13,-7 -4.82639,0.3632 -9.685505,0.4302 -14.347656,2.2715 0.515874,-3.5859 0.862548,-7.0438 2.347656,-9.2715 z" opacity="0.2" stroke-linejoin="round" stroke-linecap="round"/>
  <g transform="translate(-2.96875,2.0321)" id="g4191">
   <ellipse ry="2.500009" rx="2.5" cy="1042.8622" cx="21.5" id="ellipse4193" fill="url(#radialGradient4146)" stroke-linejoin="round" stroke-linecap="round"/>
   <path d="m 21.5,1040.8301 c -0.531574,0 -1.059666,0.2198 -1.435547,0.5957 -0.37588,0.3759 -0.595701,0.904 -0.595703,1.4355 2e-6,0.5316 0.219823,1.0597 0.595703,1.4356 0.375881,0.3759 0.903973,0.5957 1.435547,0.5957 0.531574,0 1.059666,-0.2198 1.435547,-0.5957 0.37588,-0.3759 0.595701,-0.904 0.595703,-1.4356 -2e-6,-0.5315 -0.219823,-1.0596 -0.595703,-1.4355 -0.375881,-0.3759 -0.903973,-0.5957 -1.435547,-0.5957 z" id="path4195" opacity="0.3" fill="none" stroke="#000" stroke-linejoin="round" stroke-linecap="round"/>
   <path id="path4197" d="m 21.5,1041.8633 c -0.522919,0 -0.998045,0.4751 -0.998047,0.998 2e-6,0.523 0.475128,0.9981 0.998047,0.9981 0.522919,0 0.998045,-0.4751 0.998047,-0.9981 -2e-6,-0.5229 -0.475128,-0.998 -0.998047,-0.998 z" opacity="0.3" fill="none" stroke="url(#linearGradient4160)" stroke-linejoin="round" stroke-linecap="round"/>
  </g>
  <g id="g4162">
   <ellipse id="path3338" cx="21.5" cy="1042.8622" rx="2.5" ry="2.500009" fill="url(#radialGradient4146)" stroke-linejoin="round" stroke-linecap="round"/>
   <path id="path4150" d="m 21.5,1040.8301 c -0.531574,0 -1.059666,0.2198 -1.435547,0.5957 -0.37588,0.3759 -0.595701,0.904 -0.595703,1.4355 2e-6,0.5316 0.219823,1.0597 0.595703,1.4356 0.375881,0.3759 0.903973,0.5957 1.435547,0.5957 0.531574,0 1.059666,-0.2198 1.435547,-0.5957 0.37588,-0.3759 0.595701,-0.904 0.595703,-1.4356 -2e-6,-0.5315 -0.219823,-1.0596 -0.595703,-1.4355 -0.375881,-0.3759 -0.903973,-0.5957 -1.435547,-0.5957 z" opacity="0.3" fill="none" stroke="#000" stroke-linejoin="round" stroke-linecap="round"/>
   <path d="m 21.5,1041.8633 c -0.522919,0 -0.998045,0.4751 -0.998047,0.998 2e-6,0.523 0.475128,0.9981 0.998047,0.9981 0.522919,0 0.998045,-0.4751 0.998047,-0.9981 -2e-6,-0.5229 -0.475128,-0.998 -0.998047,-0.998 z" id="path4152" opacity="0.3" fill="none" stroke="url(#linearGradient4160)" stroke-linejoin="round" stroke-linecap="round"/>
  </g>
  <g transform="translate(-3.96875,-0.9679)" id="g4167">
   <ellipse ry="2.500009" rx="2.5" cy="1042.8622" cx="21.5" id="ellipse4169" fill="url(#radialGradient4146)" stroke-linejoin="round" stroke-linecap="round"/>
   <path d="m 21.5,1040.8301 c -0.531574,0 -1.059666,0.2198 -1.435547,0.5957 -0.37588,0.3759 -0.595701,0.904 -0.595703,1.4355 2e-6,0.5316 0.219823,1.0597 0.595703,1.4356 0.375881,0.3759 0.903973,0.5957 1.435547,0.5957 0.531574,0 1.059666,-0.2198 1.435547,-0.5957 0.37588,-0.3759 0.595701,-0.904 0.595703,-1.4356 -2e-6,-0.5315 -0.219823,-1.0596 -0.595703,-1.4355 -0.375881,-0.3759 -0.903973,-0.5957 -1.435547,-0.5957 z" id="path4171" opacity="0.3" fill="none" stroke="#000" stroke-linejoin="round" stroke-linecap="round"/>
   <path id="path4173" d="m 21.5,1041.8633 c -0.522919,0 -0.998045,0.4751 -0.998047,0.998 2e-6,0.523 0.475128,0.9981 0.998047,0.9981 0.522919,0 0.998045,-0.4751 0.998047,-0.9981 -2e-6,-0.5229 -0.475128,-0.998 -0.998047,-0.998 z" opacity="0.3" fill="none" stroke="url(#linearGradient4160)" stroke-linejoin="round" stroke-linecap="round"/>
  </g>
  <g id="g4179" transform="translate(-1.03125,-2.9679)">
   <ellipse id="ellipse4181" cx="21.5" cy="1042.8622" rx="2.5" ry="2.500009" fill="url(#radialGradient4146)" stroke-linejoin="round" stroke-linecap="round"/>
   <path id="path4183" d="m 21.5,1040.8301 c -0.531574,0 -1.059666,0.2198 -1.435547,0.5957 -0.37588,0.3759 -0.595701,0.904 -0.595703,1.4355 2e-6,0.5316 0.219823,1.0597 0.595703,1.4356 0.375881,0.3759 0.903973,0.5957 1.435547,0.5957 0.531574,0 1.059666,-0.2198 1.435547,-0.5957 0.37588,-0.3759 0.595701,-0.904 0.595703,-1.4356 -2e-6,-0.5315 -0.219823,-1.0596 -0.595703,-1.4355 -0.375881,-0.3759 -0.903973,-0.5957 -1.435547,-0.5957 z" opacity="0.3" fill="none" stroke="#000" stroke-linejoin="round" stroke-linecap="round"/>
   <path d="m 21.5,1041.8633 c -0.522919,0 -0.998045,0.4751 -0.998047,0.998 2e-6,0.523 0.475128,0.9981 0.998047,0.9981 0.522919,0 0.998045,-0.4751 0.998047,-0.9981 -2e-6,-0.5229 -0.475128,-0.998 -0.998047,-0.998 z" id="path4185" opacity="0.3" fill="none" stroke="url(#linearGradient4160)" stroke-linejoin="round" stroke-linecap="round"/>
  </g>
  <g id="g4203" transform="translate(-4.96875,-5.0304)">
   <ellipse id="ellipse4205" cx="21.5" cy="1042.8622" rx="2.5" ry="2.500009" fill="url(#radialGradient4146)" stroke-linejoin="round" stroke-linecap="round"/>
   <path id="path4207" d="m 21.5,1040.8301 c -0.531574,0 -1.059666,0.2198 -1.435547,0.5957 -0.37588,0.3759 -0.595701,0.904 -0.595703,1.4355 2e-6,0.5316 0.219823,1.0597 0.595703,1.4356 0.375881,0.3759 0.903973,0.5957 1.435547,0.5957 0.531574,0 1.059666,-0.2198 1.435547,-0.5957 0.37588,-0.3759 0.595701,-0.904 0.595703,-1.4356 -2e-6,-0.5315 -0.219823,-1.0596 -0.595703,-1.4355 -0.375881,-0.3759 -0.903973,-0.5957 -1.435547,-0.5957 z" opacity="0.3" fill="none" stroke="#000" stroke-linejoin="round" stroke-linecap="round"/>
   <path d="m 21.5,1041.8633 c -0.522919,0 -0.998045,0.4751 -0.998047,0.998 2e-6,0.523 0.475128,0.9981 0.998047,0.9981 0.522919,0 0.998045,-0.4751 0.998047,-0.9981 -2e-6,-0.5229 -0.475128,-0.998 -0.998047,-0.998 z" id="path4209" opacity="0.3" fill="none" stroke="url(#linearGradient4160)" stroke-linejoin="round" stroke-linecap="round"/>
  </g>
  <g transform="translate(-2.03125,-6.9679)" id="g4215">
   <ellipse ry="2.500009" rx="2.5" cy="1042.8622" cx="21.5" id="ellipse4217" fill="url(#radialGradient4146)" stroke-linejoin="round" stroke-linecap="round"/>
   <path d="m 21.5,1040.8301 c -0.531574,0 -1.059666,0.2198 -1.435547,0.5957 -0.37588,0.3759 -0.595701,0.904 -0.595703,1.4355 2e-6,0.5316 0.219823,1.0597 0.595703,1.4356 0.375881,0.3759 0.903973,0.5957 1.435547,0.5957 0.531574,0 1.059666,-0.2198 1.435547,-0.5957 0.37588,-0.3759 0.595701,-0.904 0.595703,-1.4356 -2e-6,-0.5315 -0.219823,-1.0596 -0.595703,-1.4355 -0.375881,-0.3759 -0.903973,-0.5957 -1.435547,-0.5957 z" id="path4219" opacity="0.3" fill="none" stroke="#000" stroke-linejoin="round" stroke-linecap="round"/>
   <path id="path4221" d="m 21.5,1041.8633 c -0.522919,0 -0.998045,0.4751 -0.998047,0.998 2e-6,0.523 0.475128,0.9981 0.998047,0.9981 0.522919,0 0.998045,-0.4751 0.998047,-0.9981 -2e-6,-0.5229 -0.475128,-0.998 -0.998047,-0.998 z" opacity="0.3" fill="none" stroke="url(#linearGradient4160)" stroke-linejoin="round" stroke-linecap="round"/>
  </g>
  <g id="g4227" transform="translate(0.96875,-6.0304)">
   <ellipse id="ellipse4229" cx="21.5" cy="1042.8622" rx="2.5" ry="2.500009" fill="url(#radialGradient4146)" stroke-linejoin="round" stroke-linecap="round"/>
   <path id="path4231" d="m 21.5,1040.8301 c -0.531574,0 -1.059666,0.2198 -1.435547,0.5957 -0.37588,0.3759 -0.595701,0.904 -0.595703,1.4355 2e-6,0.5316 0.219823,1.0597 0.595703,1.4356 0.375881,0.3759 0.903973,0.5957 1.435547,0.5957 0.531574,0 1.059666,-0.2198 1.435547,-0.5957 0.37588,-0.3759 0.595701,-0.904 0.595703,-1.4356 -2e-6,-0.5315 -0.219823,-1.0596 -0.595703,-1.4355 -0.375881,-0.3759 -0.903973,-0.5957 -1.435547,-0.5957 z" opacity="0.3" fill="none" stroke="#000" stroke-linejoin="round" stroke-linecap="round"/>
   <path d="m 21.5,1041.8633 c -0.522919,0 -0.998045,0.4751 -0.998047,0.998 2e-6,0.523 0.475128,0.9981 0.998047,0.9981 0.522919,0 0.998045,-0.4751 0.998047,-0.9981 -2e-6,-0.5229 -0.475128,-0.998 -0.998047,-0.998 z" id="path4233" opacity="0.3" fill="none" stroke="url(#linearGradient4160)" stroke-linejoin="round" stroke-linecap="round"/>
  </g>
  <g transform="translate(2.03125,-3.9679)" id="g4239">
   <ellipse ry="2.500009" rx="2.5" cy="1042.8622" cx="21.5" id="ellipse4241" fill="url(#radialGradient4146)" stroke-linejoin="round" stroke-linecap="round"/>
   <path d="m 21.5,1040.8301 c -0.531574,0 -1.059666,0.2198 -1.435547,0.5957 -0.37588,0.3759 -0.595701,0.904 -0.595703,1.4355 2e-6,0.5316 0.219823,1.0597 0.595703,1.4356 0.375881,0.3759 0.903973,0.5957 1.435547,0.5957 0.531574,0 1.059666,-0.2198 1.435547,-0.5957 0.37588,-0.3759 0.595701,-0.904 0.595703,-1.4356 -2e-6,-0.5315 -0.219823,-1.0596 -0.595703,-1.4355 -0.375881,-0.3759 -0.903973,-0.5957 -1.435547,-0.5957 z" id="path4243" opacity="0.3" fill="none" stroke="#000" stroke-linejoin="round" stroke-linecap="round"/>
   <path id="path4245" d="m 21.5,1041.8633 c -0.522919,0 -0.998045,0.4751 -0.998047,0.998 2e-6,0.523 0.475128,0.9981 0.998047,0.9981 0.522919,0 0.998045,-0.4751 0.998047,-0.9981 -2e-6,-0.5229 -0.475128,-0.998 -0.998047,-0.998 z" opacity="0.3" fill="none" stroke="url(#linearGradient4160)" stroke-linejoin="round" stroke-linecap="round"/>
  </g>
  <g id="g4251" transform="translate(-0.03125,-10.9679)">
   <ellipse id="ellipse4253" cx="21.5" cy="1042.8622" rx="2.5" ry="2.500009" fill="url(#radialGradient4146)" stroke-linejoin="round" stroke-linecap="round"/>
   <path id="path4255" d="m 21.5,1040.8301 c -0.531574,0 -1.059666,0.2198 -1.435547,0.5957 -0.37588,0.3759 -0.595701,0.904 -0.595703,1.4355 2e-6,0.5316 0.219823,1.0597 0.595703,1.4356 0.375881,0.3759 0.903973,0.5957 1.435547,0.5957 0.531574,0 1.059666,-0.2198 1.435547,-0.5957 0.37588,-0.3759 0.595701,-0.904 0.595703,-1.4356 -2e-6,-0.5315 -0.219823,-1.0596 -0.595703,-1.4355 -0.375881,-0.3759 -0.903973,-0.5957 -1.435547,-0.5957 z" opacity="0.3" fill="none" stroke="#000" stroke-linejoin="round" stroke-linecap="round"/>
   <path d="m 21.5,1041.8633 c -0.522919,0 -0.998045,0.4751 -0.998047,0.998 2e-6,0.523 0.475128,0.9981 0.998047,0.9981 0.522919,0 0.998045,-0.4751 0.998047,-0.9981 -2e-6,-0.5229 -0.475128,-0.998 -0.998047,-0.998 z" id="path4257" opacity="0.3" fill="none" stroke="url(#linearGradient4160)" stroke-linejoin="round" stroke-linecap="round"/>
  </g>
  <g transform="translate(2.96875,-9.9679)" id="g4263">
   <ellipse ry="2.500009" rx="2.5" cy="1042.8622" cx="21.5" id="ellipse4265" fill="url(#radialGradient4146)" stroke-linejoin="round" stroke-linecap="round"/>
   <path d="m 21.5,1040.8301 c -0.531574,0 -1.059666,0.2198 -1.435547,0.5957 -0.37588,0.3759 -0.595701,0.904 -0.595703,1.4355 2e-6,0.5316 0.219823,1.0597 0.595703,1.4356 0.375881,0.3759 0.903973,0.5957 1.435547,0.5957 0.531574,0 1.059666,-0.2198 1.435547,-0.5957 0.37588,-0.3759 0.595701,-0.904 0.595703,-1.4356 -2e-6,-0.5315 -0.219823,-1.0596 -0.595703,-1.4355 -0.375881,-0.3759 -0.903973,-0.5957 -1.435547,-0.5957 z" id="path4267" opacity="0.3" fill="none" stroke="#000" stroke-linejoin="round" stroke-linecap="round"/>
   <path id="path4269" d="m 21.5,1041.8633 c -0.522919,0 -0.998045,0.4751 -0.998047,0.998 2e-6,0.523 0.475128,0.9981 0.998047,0.9981 0.522919,0 0.998045,-0.4751 0.998047,-0.9981 -2e-6,-0.5229 -0.475128,-0.998 -0.998047,-0.998 z" opacity="0.3" fill="none" stroke="url(#linearGradient4160)" stroke-linejoin="round" stroke-linecap="round"/>
  </g>
  <g id="g4275" transform="translate(5.03125,-6.0304)">
   <ellipse id="ellipse4277" cx="21.5" cy="1042.8622" rx="2.5" ry="2.500009" fill="url(#radialGradient4146)" stroke-linejoin="round" stroke-linecap="round"/>
   <path id="path4279" d="m 21.5,1040.8301 c -0.531574,0 -1.059666,0.2198 -1.435547,0.5957 -0.37588,0.3759 -0.595701,0.904 -0.595703,1.4355 2e-6,0.5316 0.219823,1.0597 0.595703,1.4356 0.375881,0.3759 0.903973,0.5957 1.435547,0.5957 0.531574,0 1.059666,-0.2198 1.435547,-0.5957 0.37588,-0.3759 0.595701,-0.904 0.595703,-1.4356 -2e-6,-0.5315 -0.219823,-1.0596 -0.595703,-1.4355 -0.375881,-0.3759 -0.903973,-0.5957 -1.435547,-0.5957 z" opacity="0.3" fill="none" stroke="#000" stroke-linejoin="round" stroke-linecap="round"/>
   <path d="m 21.5,1041.8633 c -0.522919,0 -0.998045,0.4751 -0.998047,0.998 2e-6,0.523 0.475128,0.9981 0.998047,0.9981 0.522919,0 0.998045,-0.4751 0.998047,-0.9981 -2e-6,-0.5229 -0.475128,-0.998 -0.998047,-0.998 z" id="path4281" opacity="0.3" fill="none" stroke="url(#linearGradient4160)" stroke-linejoin="round" stroke-linecap="round"/>
  </g>
  <g transform="translate(-4.5,-11.5011)" id="g4667">
   <ellipse ry="2.500009" rx="2.5" cy="1042.8622" cx="21.5" id="ellipse4669" fill="url(#radialGradient4146)" stroke-linejoin="round" stroke-linecap="round"/>
   <path d="m 21.5,1040.8301 c -0.531574,0 -1.059666,0.2198 -1.435547,0.5957 -0.37588,0.3759 -0.595701,0.904 -0.595703,1.4355 2e-6,0.5316 0.219823,1.0597 0.595703,1.4356 0.375881,0.3759 0.903973,0.5957 1.435547,0.5957 0.531574,0 1.059666,-0.2198 1.435547,-0.5957 0.37588,-0.3759 0.595701,-0.904 0.595703,-1.4356 -2e-6,-0.5315 -0.219823,-1.0596 -0.595703,-1.4355 -0.375881,-0.3759 -0.903973,-0.5957 -1.435547,-0.5957 z" id="path4671" opacity="0.3" fill="none" stroke="#000" stroke-linejoin="round" stroke-linecap="round"/>
   <path id="path4673" d="m 21.5,1041.8633 c -0.522919,0 -0.998045,0.4751 -0.998047,0.998 2e-6,0.523 0.475128,0.9981 0.998047,0.9981 0.522919,0 0.998045,-0.4751 0.998047,-0.9981 -2e-6,-0.5229 -0.475128,-0.998 -0.998047,-0.998 z" opacity="0.3" fill="none" stroke="url(#linearGradient4160)" stroke-linejoin="round" stroke-linecap="round"/>
  </g>
  <g transform="translate(0.03125,-7.9679)" id="g4287">
   <ellipse ry="2.500009" rx="2.5" cy="1042.8622" cx="21.5" id="ellipse4289" fill="url(#radialGradient4146)" stroke-linejoin="round" stroke-linecap="round"/>
   <path d="m 21.5,1040.8301 c -0.531574,0 -1.059666,0.2198 -1.435547,0.5957 -0.37588,0.3759 -0.595701,0.904 -0.595703,1.4355 2e-6,0.5316 0.219823,1.0597 0.595703,1.4356 0.375881,0.3759 0.903973,0.5957 1.435547,0.5957 0.531574,0 1.059666,-0.2198 1.435547,-0.5957 0.37588,-0.3759 0.595701,-0.904 0.595703,-1.4356 -2e-6,-0.5315 -0.219823,-1.0596 -0.595703,-1.4355 -0.375881,-0.3759 -0.903973,-0.5957 -1.435547,-0.5957 z" id="path4291" opacity="0.3" fill="none" stroke="#000" stroke-linejoin="round" stroke-linecap="round"/>
   <path id="path4293" d="m 21.5,1041.8633 c -0.522919,0 -0.998045,0.4751 -0.998047,0.998 2e-6,0.523 0.475128,0.9981 0.998047,0.9981 0.522919,0 0.998045,-0.4751 0.998047,-0.9981 -2e-6,-0.5229 -0.475128,-0.998 -0.998047,-0.998 z" opacity="0.3" fill="none" stroke="url(#linearGradient4160)" stroke-linejoin="round" stroke-linecap="round"/>
  </g>
  <g id="g4299" transform="translate(-4.03125,-10.0304)">
   <ellipse id="ellipse4301" cx="21.5" cy="1042.8622" rx="2.5" ry="2.500009" fill="url(#radialGradient4146)" stroke-linejoin="round" stroke-linecap="round"/>
   <path id="path4303" d="m 21.5,1040.8301 c -0.531574,0 -1.059666,0.2198 -1.435547,0.5957 -0.37588,0.3759 -0.595701,0.904 -0.595703,1.4355 2e-6,0.5316 0.219823,1.0597 0.595703,1.4356 0.375881,0.3759 0.903973,0.5957 1.435547,0.5957 0.531574,0 1.059666,-0.2198 1.435547,-0.5957 0.37588,-0.3759 0.595701,-0.904 0.595703,-1.4356 -2e-6,-0.5315 -0.219823,-1.0596 -0.595703,-1.4355 -0.375881,-0.3759 -0.903973,-0.5957 -1.435547,-0.5957 z" opacity="0.3" fill="none" stroke="#000" stroke-linejoin="round" stroke-linecap="round"/>
   <path d="m 21.5,1041.8633 c -0.522919,0 -0.998045,0.4751 -0.998047,0.998 2e-6,0.523 0.475128,0.9981 0.998047,0.9981 0.522919,0 0.998045,-0.4751 0.998047,-0.9981 -2e-6,-0.5229 -0.475128,-0.998 -0.998047,-0.998 z" id="path4305" opacity="0.3" fill="none" stroke="url(#linearGradient4160)" stroke-linejoin="round" stroke-linecap="round"/>
  </g>
  <g transform="translate(-1.96875,-13.9679)" id="g4311">
   <ellipse ry="2.500009" rx="2.5" cy="1042.8622" cx="21.5" id="ellipse4313" fill="url(#radialGradient4146)" stroke-linejoin="round" stroke-linecap="round"/>
   <path d="m 21.5,1040.8301 c -0.531574,0 -1.059666,0.2198 -1.435547,0.5957 -0.37588,0.3759 -0.595701,0.904 -0.595703,1.4355 2e-6,0.5316 0.219823,1.0597 0.595703,1.4356 0.375881,0.3759 0.903973,0.5957 1.435547,0.5957 0.531574,0 1.059666,-0.2198 1.435547,-0.5957 0.37588,-0.3759 0.595701,-0.904 0.595703,-1.4356 -2e-6,-0.5315 -0.219823,-1.0596 -0.595703,-1.4355 -0.375881,-0.3759 -0.903973,-0.5957 -1.435547,-0.5957 z" id="path4315" opacity="0.3" fill="none" stroke="#000" stroke-linejoin="round" stroke-linecap="round"/>
   <path id="path4317" d="m 21.5,1041.8633 c -0.522919,0 -0.998045,0.4751 -0.998047,0.998 2e-6,0.523 0.475128,0.9981 0.998047,0.9981 0.522919,0 0.998045,-0.4751 0.998047,-0.9981 -2e-6,-0.5229 -0.475128,-0.998 -0.998047,-0.998 z" opacity="0.3" fill="none" stroke="url(#linearGradient4160)" stroke-linejoin="round" stroke-linecap="round"/>
  </g>
  <g id="g4323" transform="translate(-5.96875,-7.9679)">
   <ellipse id="ellipse4325" cx="21.5" cy="1042.8622" rx="2.5" ry="2.500009" fill="url(#radialGradient4146)" stroke-linejoin="round" stroke-linecap="round"/>
   <path id="path4327" d="m 21.5,1040.8301 c -0.531574,0 -1.059666,0.2198 -1.435547,0.5957 -0.37588,0.3759 -0.595701,0.904 -0.595703,1.4355 2e-6,0.5316 0.219823,1.0597 0.595703,1.4356 0.375881,0.3759 0.903973,0.5957 1.435547,0.5957 0.531574,0 1.059666,-0.2198 1.435547,-0.5957 0.37588,-0.3759 0.595701,-0.904 0.595703,-1.4356 -2e-6,-0.5315 -0.219823,-1.0596 -0.595703,-1.4355 -0.375881,-0.3759 -0.903973,-0.5957 -1.435547,-0.5957 z" opacity="0.3" fill="none" stroke="#000" stroke-linejoin="round" stroke-linecap="round"/>
   <path d="m 21.5,1041.8633 c -0.522919,0 -0.998045,0.4751 -0.998047,0.998 2e-6,0.523 0.475128,0.9981 0.998047,0.9981 0.522919,0 0.998045,-0.4751 0.998047,-0.9981 -2e-6,-0.5229 -0.475128,-0.998 -0.998047,-0.998 z" id="path4329" opacity="0.3" fill="none" stroke="url(#linearGradient4160)" stroke-linejoin="round" stroke-linecap="round"/>
  </g>
  <g transform="translate(1.96875,-12.9679)" id="g4335">
   <ellipse ry="2.500009" rx="2.5" cy="1042.8622" cx="21.5" id="ellipse4337" fill="url(#radialGradient4146)" stroke-linejoin="round" stroke-linecap="round"/>
   <path d="m 21.5,1040.8301 c -0.531574,0 -1.059666,0.2198 -1.435547,0.5957 -0.37588,0.3759 -0.595701,0.904 -0.595703,1.4355 2e-6,0.5316 0.219823,1.0597 0.595703,1.4356 0.375881,0.3759 0.903973,0.5957 1.435547,0.5957 0.531574,0 1.059666,-0.2198 1.435547,-0.5957 0.37588,-0.3759 0.595701,-0.904 0.595703,-1.4356 -2e-6,-0.5315 -0.219823,-1.0596 -0.595703,-1.4355 -0.375881,-0.3759 -0.903973,-0.5957 -1.435547,-0.5957 z" id="path4339" opacity="0.3" fill="none" stroke="#000" stroke-linejoin="round" stroke-linecap="round"/>
   <path id="path4341" d="m 21.5,1041.8633 c -0.522919,0 -0.998045,0.4751 -0.998047,0.998 2e-6,0.523 0.475128,0.9981 0.998047,0.9981 0.522919,0 0.998045,-0.4751 0.998047,-0.9981 -2e-6,-0.5229 -0.475128,-0.998 -0.998047,-0.998 z" opacity="0.3" fill="none" stroke="url(#linearGradient4160)" stroke-linejoin="round" stroke-linecap="round"/>
  </g>
  <g id="g4347" transform="translate(4.96875,-9.9679)">
   <ellipse id="ellipse4349" cx="21.5" cy="1042.8622" rx="2.5" ry="2.500009" fill="url(#radialGradient4146)" stroke-linejoin="round" stroke-linecap="round"/>
   <path id="path4351" d="m 21.5,1040.8301 c -0.531574,0 -1.059666,0.2198 -1.435547,0.5957 -0.37588,0.3759 -0.595701,0.904 -0.595703,1.4355 2e-6,0.5316 0.219823,1.0597 0.595703,1.4356 0.375881,0.3759 0.903973,0.5957 1.435547,0.5957 0.531574,0 1.059666,-0.2198 1.435547,-0.5957 0.37588,-0.3759 0.595701,-0.904 0.595703,-1.4356 -2e-6,-0.5315 -0.219823,-1.0596 -0.595703,-1.4355 -0.375881,-0.3759 -0.903973,-0.5957 -1.435547,-0.5957 z" opacity="0.3" fill="none" stroke="#000" stroke-linejoin="round" stroke-linecap="round"/>
   <path d="m 21.5,1041.8633 c -0.522919,0 -0.998045,0.4751 -0.998047,0.998 2e-6,0.523 0.475128,0.9981 0.998047,0.9981 0.522919,0 0.998045,-0.4751 0.998047,-0.9981 -2e-6,-0.5229 -0.475128,-0.998 -0.998047,-0.998 z" id="path4353" opacity="0.3" fill="none" stroke="url(#linearGradient4160)" stroke-linejoin="round" stroke-linecap="round"/>
  </g>
  <g transform="translate(5.03125,-13.9679)" id="g4359">
   <ellipse ry="2.500009" rx="2.5" cy="1042.8622" cx="21.5" id="ellipse4361" fill="url(#radialGradient4146)" stroke-linejoin="round" stroke-linecap="round"/>
   <path d="m 21.5,1040.8301 c -0.531574,0 -1.059666,0.2198 -1.435547,0.5957 -0.37588,0.3759 -0.595701,0.904 -0.595703,1.4355 2e-6,0.5316 0.219823,1.0597 0.595703,1.4356 0.375881,0.3759 0.903973,0.5957 1.435547,0.5957 0.531574,0 1.059666,-0.2198 1.435547,-0.5957 0.37588,-0.3759 0.595701,-0.904 0.595703,-1.4356 -2e-6,-0.5315 -0.219823,-1.0596 -0.595703,-1.4355 -0.375881,-0.3759 -0.903973,-0.5957 -1.435547,-0.5957 z" id="path4363" opacity="0.3" fill="none" stroke="#000" stroke-linejoin="round" stroke-linecap="round"/>
   <path id="path4365" d="m 21.5,1041.8633 c -0.522919,0 -0.998045,0.4751 -0.998047,0.998 2e-6,0.523 0.475128,0.9981 0.998047,0.9981 0.522919,0 0.998045,-0.4751 0.998047,-0.9981 -2e-6,-0.5229 -0.475128,-0.998 -0.998047,-0.998 z" opacity="0.3" fill="none" stroke="url(#linearGradient4160)" stroke-linejoin="round" stroke-linecap="round"/>
  </g>
  <g id="g4371" transform="translate(1.03125,-16.9679)">
   <ellipse id="ellipse4373" cx="21.5" cy="1042.8622" rx="2.5" ry="2.500009" fill="url(#radialGradient4146)" stroke-linejoin="round" stroke-linecap="round"/>
   <path id="path4375" d="m 21.5,1040.8301 c -0.531574,0 -1.059666,0.2198 -1.435547,0.5957 -0.37588,0.3759 -0.595701,0.904 -0.595703,1.4355 2e-6,0.5316 0.219823,1.0597 0.595703,1.4356 0.375881,0.3759 0.903973,0.5957 1.435547,0.5957 0.531574,0 1.059666,-0.2198 1.435547,-0.5957 0.37588,-0.3759 0.595701,-0.904 0.595703,-1.4356 -2e-6,-0.5315 -0.219823,-1.0596 -0.595703,-1.4355 -0.375881,-0.3759 -0.903973,-0.5957 -1.435547,-0.5957 z" opacity="0.3" fill="none" stroke="#000" stroke-linejoin="round" stroke-linecap="round"/>
   <path d="m 21.5,1041.8633 c -0.522919,0 -0.998045,0.4751 -0.998047,0.998 2e-6,0.523 0.475128,0.9981 0.998047,0.9981 0.522919,0 0.998045,-0.4751 0.998047,-0.9981 -2e-6,-0.5229 -0.475128,-0.998 -0.998047,-0.998 z" id="path4377" opacity="0.3" fill="none" stroke="url(#linearGradient4160)" stroke-linejoin="round" stroke-linecap="round"/>
  </g>
  <g transform="translate(4.96875,-16.9679)" id="g4383">
   <ellipse ry="2.500009" rx="2.5" cy="1042.8622" cx="21.5" id="ellipse4385" fill="url(#radialGradient4146)" stroke-linejoin="round" stroke-linecap="round"/>
   <path d="m 21.5,1040.8301 c -0.531574,0 -1.059666,0.2198 -1.435547,0.5957 -0.37588,0.3759 -0.595701,0.904 -0.595703,1.4355 2e-6,0.5316 0.219823,1.0597 0.595703,1.4356 0.375881,0.3759 0.903973,0.5957 1.435547,0.5957 0.531574,0 1.059666,-0.2198 1.435547,-0.5957 0.37588,-0.3759 0.595701,-0.904 0.595703,-1.4356 -2e-6,-0.5315 -0.219823,-1.0596 -0.595703,-1.4355 -0.375881,-0.3759 -0.903973,-0.5957 -1.435547,-0.5957 z" id="path4387" opacity="0.3" fill="none" stroke="#000" stroke-linejoin="round" stroke-linecap="round"/>
   <path id="path4389" d="m 21.5,1041.8633 c -0.522919,0 -0.998045,0.4751 -0.998047,0.998 2e-6,0.523 0.475128,0.9981 0.998047,0.9981 0.522919,0 0.998045,-0.4751 0.998047,-0.9981 -2e-6,-0.5229 -0.475128,-0.998 -0.998047,-0.998 z" opacity="0.3" fill="none" stroke="url(#linearGradient4160)" stroke-linejoin="round" stroke-linecap="round"/>
  </g>
  <g id="g4395" transform="translate(7.96875,-15.0304)">
   <ellipse id="ellipse4397" cx="21.5" cy="1042.8622" rx="2.5" ry="2.500009" fill="url(#radialGradient4146)" stroke-linejoin="round" stroke-linecap="round"/>
   <path id="path4399" d="m 21.5,1040.8301 c -0.531574,0 -1.059666,0.2198 -1.435547,0.5957 -0.37588,0.3759 -0.595701,0.904 -0.595703,1.4355 2e-6,0.5316 0.219823,1.0597 0.595703,1.4356 0.375881,0.3759 0.903973,0.5957 1.435547,0.5957 0.531574,0 1.059666,-0.2198 1.435547,-0.5957 0.37588,-0.3759 0.595701,-0.904 0.595703,-1.4356 -2e-6,-0.5315 -0.219823,-1.0596 -0.595703,-1.4355 -0.375881,-0.3759 -0.903973,-0.5957 -1.435547,-0.5957 z" opacity="0.3" fill="none" stroke="#000" stroke-linejoin="round" stroke-linecap="round"/>
   <path d="m 21.5,1041.8633 c -0.522919,0 -0.998045,0.4751 -0.998047,0.998 2e-6,0.523 0.475128,0.9981 0.998047,0.9981 0.522919,0 0.998045,-0.4751 0.998047,-0.9981 -2e-6,-0.5229 -0.475128,-0.998 -0.998047,-0.998 z" id="path4401" opacity="0.3" fill="none" stroke="url(#linearGradient4160)" stroke-linejoin="round" stroke-linecap="round"/>
  </g>
  <g transform="translate(8.03125,-12.0304)" id="g4407">
   <ellipse ry="2.500009" rx="2.5" cy="1042.8622" cx="21.5" id="ellipse4409" fill="url(#radialGradient4146)" stroke-linejoin="round" stroke-linecap="round"/>
   <path d="m 21.5,1040.8301 c -0.531574,0 -1.059666,0.2198 -1.435547,0.5957 -0.37588,0.3759 -0.595701,0.904 -0.595703,1.4355 2e-6,0.5316 0.219823,1.0597 0.595703,1.4356 0.375881,0.3759 0.903973,0.5957 1.435547,0.5957 0.531574,0 1.059666,-0.2198 1.435547,-0.5957 0.37588,-0.3759 0.595701,-0.904 0.595703,-1.4356 -2e-6,-0.5315 -0.219823,-1.0596 -0.595703,-1.4355 -0.375881,-0.3759 -0.903973,-0.5957 -1.435547,-0.5957 z" id="path4411" opacity="0.3" fill="none" stroke="#000" stroke-linejoin="round" stroke-linecap="round"/>
   <path id="path4413" d="m 21.5,1041.8633 c -0.522919,0 -0.998045,0.4751 -0.998047,0.998 2e-6,0.523 0.475128,0.9981 0.998047,0.9981 0.522919,0 0.998045,-0.4751 0.998047,-0.9981 -2e-6,-0.5229 -0.475128,-0.998 -0.998047,-0.998 z" opacity="0.3" fill="none" stroke="url(#linearGradient4160)" stroke-linejoin="round" stroke-linecap="round"/>
  </g>
  <g id="g4419" transform="translate(7.96875,-8.0304)">
   <ellipse id="ellipse4421" cx="21.5" cy="1042.8622" rx="2.5" ry="2.500009" fill="url(#radialGradient4146)" stroke-linejoin="round" stroke-linecap="round"/>
   <path id="path4423" d="m 21.5,1040.8301 c -0.531574,0 -1.059666,0.2198 -1.435547,0.5957 -0.37588,0.3759 -0.595701,0.904 -0.595703,1.4355 2e-6,0.5316 0.219823,1.0597 0.595703,1.4356 0.375881,0.3759 0.903973,0.5957 1.435547,0.5957 0.531574,0 1.059666,-0.2198 1.435547,-0.5957 0.37588,-0.3759 0.595701,-0.904 0.595703,-1.4356 -2e-6,-0.5315 -0.219823,-1.0596 -0.595703,-1.4355 -0.375881,-0.3759 -0.903973,-0.5957 -1.435547,-0.5957 z" opacity="0.3" fill="none" stroke="#000" stroke-linejoin="round" stroke-linecap="round"/>
   <path d="m 21.5,1041.8633 c -0.522919,0 -0.998045,0.4751 -0.998047,0.998 2e-6,0.523 0.475128,0.9981 0.998047,0.9981 0.522919,0 0.998045,-0.4751 0.998047,-0.9981 -2e-6,-0.5229 -0.475128,-0.998 -0.998047,-0.998 z" id="path4425" opacity="0.3" fill="none" stroke="url(#linearGradient4160)" stroke-linejoin="round" stroke-linecap="round"/>
  </g>
  <g transform="translate(7.03125,-6.0304)" id="g4431">
   <ellipse ry="2.500009" rx="2.5" cy="1042.8622" cx="21.5" id="ellipse4433" fill="url(#radialGradient4146)" stroke-linejoin="round" stroke-linecap="round"/>
   <path d="m 21.5,1040.8301 c -0.531574,0 -1.059666,0.2198 -1.435547,0.5957 -0.37588,0.3759 -0.595701,0.904 -0.595703,1.4355 2e-6,0.5316 0.219823,1.0597 0.595703,1.4356 0.375881,0.3759 0.903973,0.5957 1.435547,0.5957 0.531574,0 1.059666,-0.2198 1.435547,-0.5957 0.37588,-0.3759 0.595701,-0.904 0.595703,-1.4356 -2e-6,-0.5315 -0.219823,-1.0596 -0.595703,-1.4355 -0.375881,-0.3759 -0.903973,-0.5957 -1.435547,-0.5957 z" id="path4435" opacity="0.3" fill="none" stroke="#000" stroke-linejoin="round" stroke-linecap="round"/>
   <path id="path4437" d="m 21.5,1041.8633 c -0.522919,0 -0.998045,0.4751 -0.998047,0.998 2e-6,0.523 0.475128,0.9981 0.998047,0.9981 0.522919,0 0.998045,-0.4751 0.998047,-0.9981 -2e-6,-0.5229 -0.475128,-0.998 -0.998047,-0.998 z" opacity="0.3" fill="none" stroke="url(#linearGradient4160)" stroke-linejoin="round" stroke-linecap="round"/>
  </g>
  <g transform="translate(4.96875,-9.9679)" id="g4479">
   <ellipse ry="2.500009" rx="2.5" cy="1042.8622" cx="21.5" id="ellipse4481" fill="url(#radialGradient4146)" stroke-linejoin="round" stroke-linecap="round"/>
   <path d="m 21.5,1040.8301 c -0.531574,0 -1.059666,0.2198 -1.435547,0.5957 -0.37588,0.3759 -0.595701,0.904 -0.595703,1.4355 2e-6,0.5316 0.219823,1.0597 0.595703,1.4356 0.375881,0.3759 0.903973,0.5957 1.435547,0.5957 0.531574,0 1.059666,-0.2198 1.435547,-0.5957 0.37588,-0.3759 0.595701,-0.904 0.595703,-1.4356 -2e-6,-0.5315 -0.219823,-1.0596 -0.595703,-1.4355 -0.375881,-0.3759 -0.903973,-0.5957 -1.435547,-0.5957 z" id="path4483" opacity="0.3" fill="none" stroke="#000" stroke-linejoin="round" stroke-linecap="round"/>
   <path id="path4485" d="m 21.5,1041.8633 c -0.522919,0 -0.998045,0.4751 -0.998047,0.998 2e-6,0.523 0.475128,0.9981 0.998047,0.9981 0.522919,0 0.998045,-0.4751 0.998047,-0.9981 -2e-6,-0.5229 -0.475128,-0.998 -0.998047,-0.998 z" opacity="0.3" fill="none" stroke="url(#linearGradient4160)" stroke-linejoin="round" stroke-linecap="round"/>
  </g>
  <g id="g4443" transform="translate(4.03125,-6.9679)">
   <ellipse id="ellipse4445" cx="21.5" cy="1042.8622" rx="2.5" ry="2.500009" fill="url(#radialGradient4146)" stroke-linejoin="round" stroke-linecap="round"/>
   <path id="path4447" d="m 21.5,1040.8301 c -0.531574,0 -1.059666,0.2198 -1.435547,0.5957 -0.37588,0.3759 -0.595701,0.904 -0.595703,1.4355 2e-6,0.5316 0.219823,1.0597 0.595703,1.4356 0.375881,0.3759 0.903973,0.5957 1.435547,0.5957 0.531574,0 1.059666,-0.2198 1.435547,-0.5957 0.37588,-0.3759 0.595701,-0.904 0.595703,-1.4356 -2e-6,-0.5315 -0.219823,-1.0596 -0.595703,-1.4355 -0.375881,-0.3759 -0.903973,-0.5957 -1.435547,-0.5957 z" opacity="0.3" fill="none" stroke="#000" stroke-linejoin="round" stroke-linecap="round"/>
   <path d="m 21.5,1041.8633 c -0.522919,0 -0.998045,0.4751 -0.998047,0.998 2e-6,0.523 0.475128,0.9981 0.998047,0.9981 0.522919,0 0.998045,-0.4751 0.998047,-0.9981 -2e-6,-0.5229 -0.475128,-0.998 -0.998047,-0.998 z" id="path4449" opacity="0.3" fill="none" stroke="url(#linearGradient4160)" stroke-linejoin="round" stroke-linecap="round"/>
  </g>
  <g transform="translate(1.03125,-7.9679)" id="g4455">
   <ellipse ry="2.500009" rx="2.5" cy="1042.8622" cx="21.5" id="ellipse4457" fill="url(#radialGradient4146)" stroke-linejoin="round" stroke-linecap="round"/>
   <path d="m 21.5,1040.8301 c -0.531574,0 -1.059666,0.2198 -1.435547,0.5957 -0.37588,0.3759 -0.595701,0.904 -0.595703,1.4355 2e-6,0.5316 0.219823,1.0597 0.595703,1.4356 0.375881,0.3759 0.903973,0.5957 1.435547,0.5957 0.531574,0 1.059666,-0.2198 1.435547,-0.5957 0.37588,-0.3759 0.595701,-0.904 0.595703,-1.4356 -2e-6,-0.5315 -0.219823,-1.0596 -0.595703,-1.4355 -0.375881,-0.3759 -0.903973,-0.5957 -1.435547,-0.5957 z" id="path4459" opacity="0.3" fill="none" stroke="#000" stroke-linejoin="round" stroke-linecap="round"/>
   <path id="path4461" d="m 21.5,1041.8633 c -0.522919,0 -0.998045,0.4751 -0.998047,0.998 2e-6,0.523 0.475128,0.9981 0.998047,0.9981 0.522919,0 0.998045,-0.4751 0.998047,-0.9981 -2e-6,-0.5229 -0.475128,-0.998 -0.998047,-0.998 z" opacity="0.3" fill="none" stroke="url(#linearGradient4160)" stroke-linejoin="round" stroke-linecap="round"/>
  </g>
  <g id="g4467" transform="translate(0.96875,-10.9679)">
   <ellipse id="ellipse4469" cx="21.5" cy="1042.8622" rx="2.5" ry="2.500009" fill="url(#radialGradient4146)" stroke-linejoin="round" stroke-linecap="round"/>
   <path id="path4471" d="m 21.5,1040.8301 c -0.531574,0 -1.059666,0.2198 -1.435547,0.5957 -0.37588,0.3759 -0.595701,0.904 -0.595703,1.4355 2e-6,0.5316 0.219823,1.0597 0.595703,1.4356 0.375881,0.3759 0.903973,0.5957 1.435547,0.5957 0.531574,0 1.059666,-0.2198 1.435547,-0.5957 0.37588,-0.3759 0.595701,-0.904 0.595703,-1.4356 -2e-6,-0.5315 -0.219823,-1.0596 -0.595703,-1.4355 -0.375881,-0.3759 -0.903973,-0.5957 -1.435547,-0.5957 z" opacity="0.3" fill="none" stroke="#000" stroke-linejoin="round" stroke-linecap="round"/>
   <path d="m 21.5,1041.8633 c -0.522919,0 -0.998045,0.4751 -0.998047,0.998 2e-6,0.523 0.475128,0.9981 0.998047,0.9981 0.522919,0 0.998045,-0.4751 0.998047,-0.9981 -2e-6,-0.5229 -0.475128,-0.998 -0.998047,-0.998 z" id="path4473" opacity="0.3" fill="none" stroke="url(#linearGradient4160)" stroke-linejoin="round" stroke-linecap="round"/>
  </g>
  <g id="g4491" transform="translate(-1.96875,-7.9679)">
   <ellipse id="ellipse4493" cx="21.5" cy="1042.8622" rx="2.5" ry="2.500009" fill="url(#radialGradient4146)" stroke-linejoin="round" stroke-linecap="round"/>
   <path id="path4495" d="m 21.5,1040.8301 c -0.531574,0 -1.059666,0.2198 -1.435547,0.5957 -0.37588,0.3759 -0.595701,0.904 -0.595703,1.4355 2e-6,0.5316 0.219823,1.0597 0.595703,1.4356 0.375881,0.3759 0.903973,0.5957 1.435547,0.5957 0.531574,0 1.059666,-0.2198 1.435547,-0.5957 0.37588,-0.3759 0.595701,-0.904 0.595703,-1.4356 -2e-6,-0.5315 -0.219823,-1.0596 -0.595703,-1.4355 -0.375881,-0.3759 -0.903973,-0.5957 -1.435547,-0.5957 z" opacity="0.3" fill="none" stroke="#000" stroke-linejoin="round" stroke-linecap="round"/>
   <path d="m 21.5,1041.8633 c -0.522919,0 -0.998045,0.4751 -0.998047,0.998 2e-6,0.523 0.475128,0.9981 0.998047,0.9981 0.522919,0 0.998045,-0.4751 0.998047,-0.9981 -2e-6,-0.5229 -0.475128,-0.998 -0.998047,-0.998 z" id="path4497" opacity="0.3" fill="none" stroke="url(#linearGradient4160)" stroke-linejoin="round" stroke-linecap="round"/>
  </g>
  <g transform="translate(4.03125,-13.9679)" id="g4503">
   <ellipse ry="2.500009" rx="2.5" cy="1042.8622" cx="21.5" id="ellipse4505" fill="url(#radialGradient4146)" stroke-linejoin="round" stroke-linecap="round"/>
   <path d="m 21.5,1040.8301 c -0.531574,0 -1.059666,0.2198 -1.435547,0.5957 -0.37588,0.3759 -0.595701,0.904 -0.595703,1.4355 2e-6,0.5316 0.219823,1.0597 0.595703,1.4356 0.375881,0.3759 0.903973,0.5957 1.435547,0.5957 0.531574,0 1.059666,-0.2198 1.435547,-0.5957 0.37588,-0.3759 0.595701,-0.904 0.595703,-1.4356 -2e-6,-0.5315 -0.219823,-1.0596 -0.595703,-1.4355 -0.375881,-0.3759 -0.903973,-0.5957 -1.435547,-0.5957 z" id="path4507" opacity="0.3" fill="none" stroke="#000" stroke-linejoin="round" stroke-linecap="round"/>
   <path id="path4509" d="m 21.5,1041.8633 c -0.522919,0 -0.998045,0.4751 -0.998047,0.998 2e-6,0.523 0.475128,0.9981 0.998047,0.9981 0.522919,0 0.998045,-0.4751 0.998047,-0.9981 -2e-6,-0.5229 -0.475128,-0.998 -0.998047,-0.998 z" opacity="0.3" fill="none" stroke="url(#linearGradient4160)" stroke-linejoin="round" stroke-linecap="round"/>
  </g>
  <path id="path4515" d="m 28,1019.3622 c -3.180099,-4.6475 -8.111211,-6.7935 -13,-9 1.582343,4.2925 2.552862,9.0948 7,11 -3.223875,0.4428 -4.002427,3.3309 -6,5 2.82542,-0.6508 6.093744,-2.1875 8,-1 -1.487038,2.8711 1.156316,4.84 3,7 l 1,-7 c 2.444453,1.8666 4.396952,4.914 8,4 -0.516338,-3.0458 -1.741116,-5.4475 -5,-6 4.905221,-0.046 8.783081,-4.201 13,-7 -5.399298,0.4063 -10.840622,0.4344 -16,3 z" fill="url(#radialGradient4523)" fill-rule="evenodd"/>
  <path id="path4553" d="m 17,1012.3622 c 3,3.9655 6,6.5074 9,9" opacity="0.393" fill="#fff" filter="url(#filter4575)" fill-rule="evenodd" stroke="#fff"/>
  <path d="m 15.837891,1011.2871 c 0.632405,1.822 1.218865,3.6549 2.023437,5.25 0.966243,1.9157 2.231113,3.4758 4.330078,4.375 a 0.48800773,0.48800773 0 0 1 -0.125,0.9317 c -1.475499,0.2026 -2.344183,0.93 -3.15625,1.875 -0.458671,0.5337 -0.901716,1.1305 -1.378906,1.7187 0.90558,-0.2653 1.802756,-0.5386 2.707031,-0.7422 1.452271,-0.3269 2.879996,-0.4579 4.019531,0.252 a 0.48800773,0.48800773 0 0 1 0.175782,0.6386 c -0.668266,1.2903 -0.42267,2.2433 0.230468,3.2813 0.495655,0.7877 1.249534,1.5816 2,2.3984 l 0.853516,-5.9726 a 0.48800773,0.48800773 0 0 1 0.779297,-0.3203 c 1.274221,0.973 2.370697,2.1975 3.550781,3.0332 1.057343,0.7487 2.146501,1.1633 3.548828,0.9472 -0.258428,-1.2625 -0.634382,-2.3922 -1.259765,-3.2363 -0.709796,-0.958 -1.694258,-1.6165 -3.21875,-1.875 a 0.48800773,0.48800773 0 0 1 0.07813,-0.9688 c 4.096804,-0.038 7.582311,-3.1771 11.292968,-5.875 -4.818808,0.3218 -9.580808,0.5674 -14.072265,2.8008 a 0.48800773,0.48800773 0 0 1 -0.619141,-0.1621 c -2.865956,-4.1884 -7.234904,-6.3004 -11.759765,-8.3496 z" id="path4527" opacity="0.4" fill="none" fill-rule="evenodd" stroke="#000"/>
  <path id="path4529" d="m 17.525391,1013.1621 c 0.358023,1.0045 0.690896,2.1159 1.125,2.9766 0.911804,1.8077 2.015275,3.1603 3.888671,3.9629 a 1.371449,1.371449 0 0 1 -0.351562,2.6191 c -0.956413,0.1314 -1.540348,0.5482 -2.109375,1.1094 1.522126,-0.3402 3.180474,-0.5461 4.646484,0.3672 a 1.371449,1.371449 0 0 1 0.492188,1.7949 c -0.532033,1.0272 -0.363181,1.5186 0.195312,2.4062 0.139821,0.2223 0.462989,0.5309 0.658203,0.7696 l 0.572266,-4 a 1.371449,1.371449 0 0 1 2.189453,-0.8965 c 1.368347,1.0449 2.461128,2.26 3.525391,3.0137 0.59419,0.4207 1.14452,0.6671 1.736328,0.7832 -0.212123,-0.6289 -0.348164,-1.3946 -0.667969,-1.8262 -0.586149,-0.7911 -1.319795,-1.3031 -2.654297,-1.5293 a 1.371449,1.371449 0 0 1 0.214844,-2.7227 c 2.77938,-0.026 5.429784,-1.8186 8.164063,-3.8359 -3.652084,0.3096 -7.214254,0.7822 -10.539063,2.4355 a 1.371449,1.371449 0 0 1 -1.742187,-0.455 c -2.270262,-3.3179 -5.684372,-5.2173 -9.34375,-6.9727 z" opacity="0.4" fill="none" fill-rule="evenodd" stroke="url(#linearGradient4537)"/>
  <path d="m 38,1018.3622 c -4,2 -6,2 -10,3" id="path4579" opacity="0.393" fill="#fff" filter="url(#filter4575)" fill-rule="evenodd" stroke="#fff"/>
  <path id="path4539" d="m 25,1022.3622 c 0.42655,-3.704 1.686715,-7.7414 1,-11 l 6,-2 c -2,3 -1.936192,8.2261 -3,13 l -4,0" fill="url(#linearGradient4547)" fill-rule="evenodd"/>
  <path d="m 25,1022.3622 c 0.42655,-3.704 1.686715,-7.7414 1,-11 l 6,-2 c -2,3 -1.936192,8.2261 -3,13 l -4,0" id="path4581" opacity="0.5006" fill="url(#radialGradient4589)" fill-rule="evenodd"/>
  <path d="m 31.041016,1010.168 -4.556641,1.5175 c 0.523536,3.1964 -0.491865,6.8501 -0.943359,10.2149 l 3.066406,0 c 0.863866,-4.1221 0.940404,-8.5929 2.433594,-11.7324 z" id="path4551" opacity="0.27" fill="none" fill-rule="evenodd" stroke="url(#linearGradient4597)"/>
  <g transform="translate(4.5,-1.5011)" id="g4599">
   <ellipse ry="2.500009" rx="2.5" cy="1042.8622" cx="21.5" id="ellipse4601" fill="url(#radialGradient4146)" stroke-linejoin="round" stroke-linecap="round"/>
   <path d="m 21.5,1040.8301 c -0.531574,0 -1.059666,0.2198 -1.435547,0.5957 -0.37588,0.3759 -0.595701,0.904 -0.595703,1.4355 2e-6,0.5316 0.219823,1.0597 0.595703,1.4356 0.375881,0.3759 0.903973,0.5957 1.435547,0.5957 0.531574,0 1.059666,-0.2198 1.435547,-0.5957 0.37588,-0.3759 0.595701,-0.904 0.595703,-1.4356 -2e-6,-0.5315 -0.219823,-1.0596 -0.595703,-1.4355 -0.375881,-0.3759 -0.903973,-0.5957 -1.435547,-0.5957 z" id="path4603" opacity="0.3" fill="none" stroke="#000" stroke-linejoin="round" stroke-linecap="round"/>
   <path id="path4605" d="m 21.5,1041.8633 c -0.522919,0 -0.998045,0.4751 -0.998047,0.998 2e-6,0.523 0.475128,0.9981 0.998047,0.9981 0.522919,0 0.998045,-0.4751 0.998047,-0.9981 -2e-6,-0.5229 -0.475128,-0.998 -0.998047,-0.998 z" opacity="0.3" fill="none" stroke="url(#linearGradient4160)" stroke-linejoin="round" stroke-linecap="round"/>
  </g>
  <g id="g4611" transform="translate(2.5,0.4989)">
   <ellipse id="ellipse4613" cx="21.5" cy="1042.8622" rx="2.5" ry="2.500009" fill="url(#radialGradient4146)" stroke-linejoin="round" stroke-linecap="round"/>
   <path id="path4615" d="m 21.5,1040.8301 c -0.531574,0 -1.059666,0.2198 -1.435547,0.5957 -0.37588,0.3759 -0.595701,0.904 -0.595703,1.4355 2e-6,0.5316 0.219823,1.0597 0.595703,1.4356 0.375881,0.3759 0.903973,0.5957 1.435547,0.5957 0.531574,0 1.059666,-0.2198 1.435547,-0.5957 0.37588,-0.3759 0.595701,-0.904 0.595703,-1.4356 -2e-6,-0.5315 -0.219823,-1.0596 -0.595703,-1.4355 -0.375881,-0.3759 -0.903973,-0.5957 -1.435547,-0.5957 z" opacity="0.3" fill="none" stroke="#000" stroke-linejoin="round" stroke-linecap="round"/>
   <path d="m 21.5,1041.8633 c -0.522919,0 -0.998045,0.4751 -0.998047,0.998 2e-6,0.523 0.475128,0.9981 0.998047,0.9981 0.522919,0 0.998045,-0.4751 0.998047,-0.9981 -2e-6,-0.5229 -0.475128,-0.998 -0.998047,-0.998 z" id="path4617" opacity="0.3" fill="none" stroke="url(#linearGradient4160)" stroke-linejoin="round" stroke-linecap="round"/>
  </g>
  <g transform="translate(1.5,-3.5011)" id="g4623">
   <ellipse ry="2.500009" rx="2.5" cy="1042.8622" cx="21.5" id="ellipse4625" fill="url(#radialGradient4146)" stroke-linejoin="round" stroke-linecap="round"/>
   <path d="m 21.5,1040.8301 c -0.531574,0 -1.059666,0.2198 -1.435547,0.5957 -0.37588,0.3759 -0.595701,0.904 -0.595703,1.4355 2e-6,0.5316 0.219823,1.0597 0.595703,1.4356 0.375881,0.3759 0.903973,0.5957 1.435547,0.5957 0.531574,0 1.059666,-0.2198 1.435547,-0.5957 0.37588,-0.3759 0.595701,-0.904 0.595703,-1.4356 -2e-6,-0.5315 -0.219823,-1.0596 -0.595703,-1.4355 -0.375881,-0.3759 -0.903973,-0.5957 -1.435547,-0.5957 z" id="path4627" opacity="0.3" fill="none" stroke="#000" stroke-linejoin="round" stroke-linecap="round"/>
   <path id="path4629" d="m 21.5,1041.8633 c -0.522919,0 -0.998045,0.4751 -0.998047,0.998 2e-6,0.523 0.475128,0.9981 0.998047,0.9981 0.522919,0 0.998045,-0.4751 0.998047,-0.9981 -2e-6,-0.5229 -0.475128,-0.998 -0.998047,-0.998 z" opacity="0.3" fill="none" stroke="url(#linearGradient4160)" stroke-linejoin="round" stroke-linecap="round"/>
  </g>
  <g id="g4635" transform="translate(1.5,-3.5011)">
   <ellipse id="ellipse4637" cx="21.5" cy="1042.8622" rx="2.5" ry="2.500009" fill="url(#radialGradient4146)" stroke-linejoin="round" stroke-linecap="round"/>
   <path id="path4639" d="m 21.5,1040.8301 c -0.531574,0 -1.059666,0.2198 -1.435547,0.5957 -0.37588,0.3759 -0.595701,0.904 -0.595703,1.4355 2e-6,0.5316 0.219823,1.0597 0.595703,1.4356 0.375881,0.3759 0.903973,0.5957 1.435547,0.5957 0.531574,0 1.059666,-0.2198 1.435547,-0.5957 0.37588,-0.3759 0.595701,-0.904 0.595703,-1.4356 -2e-6,-0.5315 -0.219823,-1.0596 -0.595703,-1.4355 -0.375881,-0.3759 -0.903973,-0.5957 -1.435547,-0.5957 z" opacity="0.3" fill="none" stroke="#000" stroke-linejoin="round" stroke-linecap="round"/>
   <path d="m 21.5,1041.8633 c -0.522919,0 -0.998045,0.4751 -0.998047,0.998 2e-6,0.523 0.475128,0.9981 0.998047,0.9981 0.522919,0 0.998045,-0.4751 0.998047,-0.9981 -2e-6,-0.5229 -0.475128,-0.998 -0.998047,-0.998 z" id="path4641" opacity="0.3" fill="none" stroke="url(#linearGradient4160)" stroke-linejoin="round" stroke-linecap="round"/>
  </g>
  <g transform="translate(5.5,-5.5011)" id="g4643">
   <ellipse ry="2.500009" rx="2.5" cy="1042.8622" cx="21.5" id="ellipse4645" fill="url(#radialGradient4146)" stroke-linejoin="round" stroke-linecap="round"/>
   <path d="m 21.5,1040.8301 c -0.531574,0 -1.059666,0.2198 -1.435547,0.5957 -0.37588,0.3759 -0.595701,0.904 -0.595703,1.4355 2e-6,0.5316 0.219823,1.0597 0.595703,1.4356 0.375881,0.3759 0.903973,0.5957 1.435547,0.5957 0.531574,0 1.059666,-0.2198 1.435547,-0.5957 0.37588,-0.3759 0.595701,-0.904 0.595703,-1.4356 -2e-6,-0.5315 -0.219823,-1.0596 -0.595703,-1.4355 -0.375881,-0.3759 -0.903973,-0.5957 -1.435547,-0.5957 z" id="path4647" opacity="0.3" fill="none" stroke="#000" stroke-linejoin="round" stroke-linecap="round"/>
   <path id="path4649" d="m 21.5,1041.8633 c -0.522919,0 -0.998045,0.4751 -0.998047,0.998 2e-6,0.523 0.475128,0.9981 0.998047,0.9981 0.522919,0 0.998045,-0.4751 0.998047,-0.9981 -2e-6,-0.5229 -0.475128,-0.998 -0.998047,-0.998 z" opacity="0.3" fill="none" stroke="url(#linearGradient4160)" stroke-linejoin="round" stroke-linecap="round"/>
  </g>
  <g id="g4655" transform="translate(2.5,-7.5011)">
   <ellipse id="ellipse4657" cx="21.5" cy="1042.8622" rx="2.5" ry="2.500009" fill="url(#radialGradient4146)" stroke-linejoin="round" stroke-linecap="round"/>
   <path id="path4659" d="m 21.5,1040.8301 c -0.531574,0 -1.059666,0.2198 -1.435547,0.5957 -0.37588,0.3759 -0.595701,0.904 -0.595703,1.4355 2e-6,0.5316 0.219823,1.0597 0.595703,1.4356 0.375881,0.3759 0.903973,0.5957 1.435547,0.5957 0.531574,0 1.059666,-0.2198 1.435547,-0.5957 0.37588,-0.3759 0.595701,-0.904 0.595703,-1.4356 -2e-6,-0.5315 -0.219823,-1.0596 -0.595703,-1.4355 -0.375881,-0.3759 -0.903973,-0.5957 -1.435547,-0.5957 z" opacity="0.3" fill="none" stroke="#000" stroke-linejoin="round" stroke-linecap="round"/>
   <path d="m 21.5,1041.8633 c -0.522919,0 -0.998045,0.4751 -0.998047,0.998 2e-6,0.523 0.475128,0.9981 0.998047,0.9981 0.522919,0 0.998045,-0.4751 0.998047,-0.9981 -2e-6,-0.5229 -0.475128,-0.998 -0.998047,-0.998 z" id="path4661" opacity="0.3" fill="none" stroke="url(#linearGradient4160)" stroke-linejoin="round" stroke-linecap="round"/>
  </g>
 </g>
</svg>
