<svg xmlns="http://www.w3.org/2000/svg" viewBox="0 0 48 48">
 <defs id="0">
  <linearGradient gradientTransform="matrix(1.18474,0,0,1.27706,-9.01,995.63)" gradientUnits="userSpaceOnUse" id="2" y2="40.485" x2="0" y1="10.765">
   <stop stop-color="#fff" id="A"/>
   <stop stop-opacity="0" stop-color="#fff" offset="1" id="B"/>
  </linearGradient>
  <mask id="3">
   <path fill="#fff" id="C" d="m 44.006,24 a 20,20 0 1 1 -40,0 20,20 0 1 1 40,0 z"/>
  </mask>
  <mask id="4">
   <path fill="#fff" id="D" d="m 44.006,24 a 20,20 0 1 1 -40,0 20,20 0 1 1 40,0 z"/>
  </mask>
 </defs>
 <g id="1" transform="translate(0,-1004.36)">
  <path opacity="0.1" id="5" d="m 44.006,1029.3622 a 20,20 0 1 1 -40,0 20,20 0 1 1 40,0 z"/>
  <path fill="#6a6a6a" id="6" d="m 44.006,1028.3622 a 20,20 0 1 1 -40,0 20,20 0 1 1 40,0 z"/>
  <path fill-rule="evenodd" fill="#ebebeb" id="7" mask="url(#3)" transform="translate(0,1004.36)" d="m 21.2812,-1.9375 c -1.65577,0.063118 -4.2097,1.97826 -6.3125,4.90625 -0.323508,0.450459 -0.635964,0.894017 -0.90625,1.34375 -1.65577,0.063118 -4.2097,1.97826 -6.3125,4.90625 -2.18044,3.0361 -3.19385,6.18354 -2.59375,7.71875 -0.434311,0.365454 -0.893791,1.11623 -1.1875,2.03125 -0.303009,0.943991 -0.345983,1.82848 -0.1875,2.375 -0.313044,0.404418 -0.598485,0.958262 -0.8125,1.625 -0.297767,0.927659 -0.335735,1.79507 -0.1875,2.34375 -0.283193,0.482399 -0.238183,1.52872 0.1875,2.65625 0.171792,0.455035 0.370395,0.850109 0.59375,1.1875 -0.657404,1.00483 -0.530982,3.33001 0.40625,5.8125 1.13807,3.01446 3.04422,5.08023 4.25,4.625 0.413451,-0.156093 0.671374,-0.595207 0.8125,-1.21875 0.03156,0.09845 0.05602,0.181323 0.09375,0.28125 0.483101,1.27961 1.2694,2.16199 1.78125,1.96875 0.511846,-0.193241 0.545601,-1.37664 0.0625,-2.65625 C 10.485599,36.68914 9.66805,35.80676 9.1562,36 9.12031,36.01355 9.09353,36.03942 9.06245,36.0625 8.941368,35.20894 8.708364,34.2784 8.3437,33.3125 7.561278,31.24006 6.40448,29.63609 5.37495,28.96875 5.36666,28.459357 5.245443,27.869 4.99995,27.21875 4.728061,26.498584 4.367068,25.88845 3.99995,25.5 4.385822,25.10245 4.770887,24.43598 5.0312,23.625 5.335957,22.675565 5.380655,21.79567 5.2187,21.25 c 0.313044,-0.404418 0.598485,-0.958262 0.8125,-1.625 0.208186,-0.648579 0.29392,-1.24609 0.28125,-1.75 0.388529,0.05192 0.848687,-0.03484 1.34375,-0.21875 -0.42089,0.873148 -0.516644,1.61617 -0.15625,1.875 0.364464,0.261748 1.08066,-0.05641 1.78125,-0.75 -0.03624,0.351466 0.03159,0.615589 0.21875,0.75 0.485952,0.348998 1.59625,-0.347619 2.46875,-1.5625 0.02336,-0.03252 0.03995,-0.06117 0.0625,-0.09375 0.354343,-0.05835 0.777005,-0.232966 1.21875,-0.46875 -0.224462,0.65124 -0.257156,1.19912 0.03125,1.40625 0.485952,0.348998 1.565,-0.378869 2.4375,-1.59375 0.872495,-1.21488 1.2047,-2.4635 0.71875,-2.8125 C 16.23092,14.257926 15.89521,14.30997 15.5312,14.5 15.182202,14.01405 13.93358,14.346255 12.7187,15.21875 12.69604,15.19286 12.68408,15.14502 12.6562,15.125 c -0.364464,-0.261748 -1.04941,0.08766 -1.75,0.78125 0.01737,-0.167428 -0.03086,-0.312655 -0.0625,-0.4375 0.726328,-0.706652 1.44681,-1.55567 2.125,-2.5 0.323508,-0.450459 0.635964,-0.894017 0.90625,-1.34375 1.65577,-0.06312 4.2097,-1.97826 6.3125,-4.90625 2.58806,-3.60368 3.50397,-7.37102 2.0625,-8.40625 -0.270276,-0.194105 -0.58665,-0.264566 -0.96875,-0.25 z m 18.8125,4.0312 c -1.49321,0.056921 -3.71131,1.58924 -5.6875,4 -0.201206,-0.156166 -0.381991,-0.31667 -0.59375,-0.46875 -3.69568,-2.65414 -7.56334,-3.60327 -8.625,-2.125 -1.06166,1.47827 1.08557,4.81461 4.78125,7.46875 0.41089,0.29509 0.807944,0.560465 1.21875,0.8125 -0.581964,1.84643 -0.521193,3.37001 0.3125,3.96875 0.246379,0.176943 0.536524,0.243089 0.875,0.25 -0.51782,0.540211 -1.00778,1.15481 -1.5,1.8125 -0.249579,-0.284952 -0.534573,-0.576822 -0.90625,-0.84375 -1.12147,-0.805407 -2.30284,-1.10484 -2.625,-0.65625 -0.322163,0.448586 0.347284,1.47584 1.46875,2.28125 0.380441,0.273222 0.737088,0.44798 1.09375,0.59375 -0.370458,0.590801 -0.691629,1.17756 -0.96875,1.75 -0.923754,-0.709537 -2.75755,0.03588 -4.125,1.6875 -0.940721,1.13621 -1.4199,2.40773 -1.34375,3.34375 -0.828427,0 -1.5,0.671573 -1.5,1.5 0,0.828427 0.671573,1.5 1.5,1.5 0.828427,0 1.5,-0.671573 1.5,-1.5 0,-0.05229 -0.02603,-0.10534 -0.03125,-0.15625 0.871686,-0.03717 1.96994,-0.644895 2.90625,-1.65625 0.09675,0.477469 0.328725,0.858531 0.65625,1.09375 1.21804,0.874763 3.67679,-0.449359 6,-3 -0.539545,1.78742 -0.470722,3.25882 0.34375,3.84375 0.06014,0.04319 0.121335,0.06103 0.1875,0.09375 -0.122111,0.599419 0.62067,1.64406 1.8125,2.5 0.455954,0.327454 0.916561,0.575912 1.34375,0.75 0.01319,0.188026 0.07169,0.354325 0.1875,0.4375 0.193747,0.139144 0.493658,0.05141 0.84375,-0.15625 0.340018,0.0184 0.614496,-0.06132 0.75,-0.25 0.09616,-0.133901 0.13311,-0.295866 0.09375,-0.5 0.128685,-0.143582 0.284851,-0.268461 0.40625,-0.4375 0.739331,-1.02946 1.00553,-2.11052 0.59375,-2.40625 -0.401794,-0.288558 -1.30109,0.297605 -2.03125,1.28125 -0.234538,-0.227447 -0.484897,-0.443417 -0.78125,-0.65625 -0.41172,-0.295686 -0.82714,-0.516039 -1.21875,-0.6875 1.09453,-0.446958 2.38017,-1.4009 3.625,-2.71875 0.359088,0.385496 0.811147,0.764941 1.3125,1.125 1.72001,1.23527 3.50589,1.68801 4,1 0.494107,-0.688005 -0.498737,-2.26473 -2.21875,-3.5 -0.452865,-0.325236 -0.905611,-0.571975 -1.34375,-0.78125 2.12436,-3.00598 3.11927,-6.10102 2.59375,-7.6875 1.23664,-2.55449 1.50825,-4.80843 0.5625,-5.6875 1.35983,-2.73339 1.6532,-5.163 0.53125,-5.96875 -0.923921,-0.663535 -2.5844,-0.059533 -4.34375,1.375 0.124687,-1.09894 -0.07609,-1.95835 -0.65625,-2.375 -0.277176,-0.19906 -0.608144,-0.264937 -1,-0.25 z m -18.2188,9.4688 c -0.464584,-0.07019 -1.25934,0.505473 -1.90625,1.40625 -0.473634,0.659498 -0.750019,1.33269 -0.78125,1.8125 -0.39268,0.234335 -0.829032,0.644848 -1.21875,1.1875 -0.739331,1.02946 -1.00553,2.11052 -0.59375,2.40625 0.411784,0.295732 1.35442,-0.31429 2.09375,-1.34375 0.473634,-0.659498 0.750019,-1.33269 0.78125,-1.8125 0.301185,-0.183771 0.625661,-0.503502 0.9375,-0.875 -0.508071,0.874188 -0.66375,1.71649 -0.3125,1.96875 0.411784,0.295732 1.35442,-0.31429 2.09375,-1.34375 0.739331,-1.02946 1.00553,-2.11052 0.59375,-2.40625 -0.364149,-0.261522 -1.1275,0.215203 -1.8125,1.03125 0.508071,-0.874188 0.66375,-1.71649 0.3125,-1.96875 -0.05147,-0.03697 -0.121131,-0.05247 -0.1875,-0.0625 z m 5.5504,4.8093 c 0,-0.552285 -2.45667,0.21625 -2.45667,1.59696 0,1.38071 0.447715,2.5 1,2.5 0.552285,0 -0.380079,-2.54182 1,-2.5 1.03125,0.03125 0.456669,-0.954784 0.456669,-1.59696 z m 5.5433,12.597 c -0.720732,0 -1.33551,0.289889 -1.6875,0.71875 -0.896886,-0.132935 -1.8231,-0.21875 -2.8125,-0.21875 -5.2467,0 -9.5,2.01472 -9.5,4.5 0,0.573971 0.24269,1.12025 0.65625,1.625 -0.410872,0.245828 -0.65625,0.549546 -0.65625,0.875 0,0.828427 1.567,1.5 3.5,1.5 0.460698,0 0.909641,-0.05567 1.3125,-0.125 1.25901,0.341733 2.6827,0.557442 4.21875,0.59375 -0.0064,0.17975 -0.03125,0.348543 -0.03125,0.53125 0,4.55635 2.01472,8.25 4.5,8.25 2.32102,0 4.19508,-3.23784 4.4375,-7.375 1.04274,0.04048 2.32678,-1.12368 3.0625,-2.875 0.84082,-2.00151 0.622985,-4.01012 -0.46875,-4.46875 -0.530302,-0.222776 -1.16446,-0.0053 -1.78125,0.46875 -0.428865,-0.890967 -1.41945,-1.67848 -2.78125,-2.28125 0.01336,-0.07002 0.03125,-0.145955 0.03125,-0.21875 0,-0.828427 -0.895431,-1.5 -2,-1.5 z"/>
  <path color="#000" opacity="0.3" id="8" mask="url(#4)" transform="translate(0,1004.36)" d="m 21.2188,-2.9062 c -1.17363,0.044739 -2.34042,0.677582 -3.53125,1.59375 -1.19524,0.91956 -2.39838,2.18483 -3.5,3.71875 -0.271777,0.378427 -0.562502,0.760191 -0.8125,1.15625 -0.952158,0.188793 -1.91769,0.614448 -2.90625,1.375 -1.19524,0.91956 -2.39838,2.18483 -3.5,3.71875 -1.14119,1.58902 -1.98008,3.21544 -2.46875,4.6875 -0.418265,1.25998 -0.53778,2.3739 -0.3125,3.375 -0.45146,0.524332 -0.862324,1.15041 -1.125,1.96875 -0.284784,0.887214 -0.321377,1.68519 -0.21875,2.40625 -0.309031,0.463638 -0.580873,0.969499 -0.78125,1.59375 -0.293029,0.912897 -0.304028,1.73843 -0.1875,2.46875 0.00293,0.01838 -0.00317,0.04428 0,0.0625 -0.135674,0.358943 -0.248992,0.768424 -0.21875,1.25 0.035696,0.568431 0.161797,1.19626 0.40625,1.84375 0.155368,0.411532 0.353356,0.708038 0.53125,1 -0.259505,0.660729 -0.432148,1.37695 -0.375,2.25 0.073837,1.12802 0.343979,2.42623 0.84375,3.75 0.604837,1.60206 1.39597,2.97534 2.28125,3.9375 0.443729,0.482265 0.923438,0.845528 1.4375,1.09375 0.526688,0.254319 1.17334,0.385758 1.78125,0.15625 0.152127,-0.05743 0.219221,-0.192117 0.34375,-0.28125 0.109769,0.214173 0.196813,0.427134 0.375,0.625 0.215386,0.239174 0.472223,0.441412 0.78125,0.59375 0.319141,0.157324 0.756768,0.256367 1.1875,0.09375 0.425436,-0.160618 0.698664,-0.504378 0.84375,-0.84375 0.130917,-0.30623 0.179209,-0.638037 0.1875,-0.96875 C 12.29754,39.07082 12.152143,38.359 11.87505,37.62505 11.595155,36.883677 11.218047,36.25476 10.7813,35.7813 10.568524,35.550638 10.317852,35.34127 10.00005,35.18755 9.895985,35.13721 9.916952,35.16907 9.8438,35.1563 9.706179,34.454416 9.54015,33.7372 9.25005,32.9688 8.493654,30.9653 7.42521,29.42408 6.25005,28.50005 6.205001,28.00342 6.128197,27.4628 5.9063,26.87505 5.687996,26.296817 5.386149,25.89371 5.0938,25.50005 5.41444,25.04173 5.729993,24.552922 5.93755,23.9063 6.223033,23.01691 6.261643,22.22276 6.1563,21.50005 6.41667,21.10942 6.629973,20.661281 6.81255,20.1563 c 0.050291,0.05032 0.063185,0.111856 0.125,0.15625 0.561671,0.403377 1.21197,0.297134 1.6875,0.09375 0.146547,-0.06268 0.16056,-0.116014 0.25,-0.1875 0.035367,0.03467 0.017558,0.06147 0.0625,0.09375 0.39681,0.284979 0.84304,0.321104 1.21875,0.25 0.364374,-0.06896 0.686625,-0.228172 0.96875,-0.40625 0.458044,-0.28912 0.869269,-0.786427 1.28125,-1.28125 0.08089,0.256229 0.04677,0.527911 0.3125,0.71875 0.3944,0.283247 0.832539,0.330439 1.21875,0.25 0.388921,-0.081 0.684741,-0.301879 0.9375,-0.46875 0.472171,-0.311725 0.936032,-0.800013 1.375,-1.34375 0.0037,0.03935 -0.0052,0.08672 0,0.125 0.04121,0.306223 0.184096,0.72824 0.5625,1 0.398133,0.285927 0.82539,0.285177 1.15625,0.21875 0.30586,-0.06141 0.589457,-0.211374 0.84375,-0.375 0.507633,-0.326639 1.00382,-0.802384 1.4375,-1.40625 0.121399,-0.169038 0.192832,-0.304944 0.28125,-0.46875 0.332472,0.14884 0.668706,0.241466 0.9375,0.1875 0.30586,-0.06141 0.589457,-0.211374 0.84375,-0.375 0.507633,-0.326639 1.00382,-0.802384 1.4375,-1.40625 0.42991,-0.598617 0.758753,-1.21437 0.90625,-1.8125 0.08141,-0.330151 0.06992,-0.650106 0.03125,-0.9375 -0.04121,-0.306223 -0.184096,-0.72824 -0.5625,-1 -0.335493,-0.240942 -0.692231,-0.302493 -1.03125,-0.25 -0.01246,0.0019 -0.01914,-0.0022 -0.03125,0 -0.08275,-0.239704 -0.183143,-0.504828 -0.4375,-0.6875 -0.290408,-0.208596 -0.637912,-0.220701 -0.625,-0.21875 -0.62942,-0.09509 -1.13606,0.187094 -1.5625,0.5 -0.432936,0.317676 -0.872196,0.755188 -1.25,1.28125 -0.440746,0.613704 -0.682,1.23921 -0.8125,1.84375 -0.276483,0.20027 -0.547941,0.487339 -0.8125,0.78125 0.0011,-0.114434 0.04558,-0.231118 0.03125,-0.34375 -0.04338,-0.340849 -0.198615,-0.778725 -0.59375,-1.0625 -0.354413,-0.25453 -0.749633,-0.286727 -1.0625,-0.25 -0.174513,0.02049 -0.260728,0.07774 -0.375,0.125 -0.07083,-0.05945 -0.07807,-0.126415 -0.3125,-0.15625 -0.337895,-0.043 -0.684968,0.0041 -1.03125,0.09375 -0.215767,0.05584 -0.436602,0.216686 -0.65625,0.3125 0.06397,-0.08083 0.124591,-0.131154 0.1875,-0.21875 0.271777,-0.378427 0.562502,-0.760192 0.8125,-1.15625 0.952157,-0.188793 1.91769,-0.614448 2.90625,-1.375 1.19524,-0.91956 2.39838,-2.18483 3.5,-3.71875 1.3549,-1.88659 2.30652,-3.81511 2.71875,-5.5 0.207639,-0.848681 0.254284,-1.63151 0.15625,-2.34375 -0.0989,-0.718499 -0.396589,-1.45045 -1.03125,-1.90625 -0.48142,-0.345742 -1.0594,-0.457869 -1.59375,-0.4375 z m 0.0625,1 c 0.361447,-0.013778 0.719836,0.071237 0.96875,0.25 0.337213,0.242178 0.517184,0.66248 0.59375,1.21875 0.07743,0.562529 0.02754,1.21755 -0.15625,1.96875 -0.370632,1.51488 -1.23973,3.38916 -2.53125,5.1875 -1.04848,1.45993 -2.20469,2.61645 -3.3125,3.46875 -1.00102,0.770132 -1.92217,1.21054 -2.71875,1.3125 l -0.375,0.25 c -0.253015,0.408571 -0.521698,0.813832 -0.8125,1.21875 -0.339935,0.473333 -0.7411,0.861866 -1.15625,1.34375 l 0.4688,0.8125 c 0.08907,-0.01507 0.175789,-0.0092 0.28125,0.03125 l 0.4688,-0.0625 c 0.518765,-0.338003 1.06077,-0.613172 1.46875,-0.71875 0.238742,-0.06178 0.456157,-0.05672 0.65625,-0.03125 -0.115288,-0.01467 -0.05983,0.0014 0.1875,0.125 l 0.4062,0.0312 c 0.167277,-0.06926 0.300537,-0.119927 0.34375,-0.125 0.151705,-0.01781 0.290653,0.0019 0.375,0.0625 0.09821,0.07053 0.13116,0.177861 0.15625,0.375 0.02547,0.200093 0.03053,0.417508 -0.03125,0.65625 -0.131639,0.508679 -0.4438,1.14959 -0.875,1.75 -0.427486,0.595241 -0.922773,1.04519 -1.375,1.34375 -0.252853,0.166933 -0.419427,0.251451 -0.5625,0.28125 -0.145783,0.03036 -0.367182,0.01044 -0.46875,-0.0625 -0.124074,-0.08911 -0.156437,-0.246801 -0.15625,-0.5 -6.5e-5,0.08947 0.01682,0.01643 0.03125,-0.15625 l -0.6562,-0.5 c -0.190114,0.06829 -0.288033,0.135189 -0.25,0.125 l -0.2812,0.1875 c -0.01162,0.01307 -0.0203,0.016 -0.03125,0.03125 -0.43343,0.603517 -0.92499,1.02845 -1.375,1.3125 -0.233347,0.14729 -0.423252,0.248983 -0.59375,0.28125 C 9.809787,19.592622 9.597874,19.570147 9.5002,19.5 9.50975,19.5069 9.489124,19.48259 9.40645,19.3125 L 8.68765,19.125 C 8.422534,19.310996 8.247477,19.469893 8.25015,19.46875 7.947078,19.598374 7.676675,19.626775 7.50015,19.5 7.340042,19.385015 7.311624,19.17906 7.3439,18.84375 c -1.92e-4,0.002 0.074732,-0.22095 0.15625,-0.5 l -0.5625,-0.625 c -0.168256,0.02853 -0.24925,0.06245 -0.25,0.0625 l -0.4688,0.4688 c -0.025647,0.452085 -0.061362,0.853427 -0.21875,1.34375 -0.194359,0.605502 -0.441982,1.11231 -0.71875,1.5 l -0.0938,0.375 c 0.111982,0.562628 0.083952,1.27932 -0.1875,2.125 -0.216313,0.673898 -0.512789,1.21314 -0.84375,1.625 l -0.0312,0.625 c 0.323952,0.413729 0.632221,0.845962 0.84375,1.40625 0.204452,0.541543 0.277526,1.01272 0.3125,1.5 l 0.2188,0.375 c 0.998036,0.714774 2.06604,2.24156 2.8125,4.21875 0.310129,0.821456 0.492427,1.58677 0.625,2.34375 l 0.4375,0.4062 c 0.269336,0.04183 0.3166,0.0312 0.1875,-0.03125 0.143512,0.06942 0.298342,0.221518 0.46875,0.40625 0.329621,0.357328 0.667311,0.898359 0.90625,1.53125 0.241455,0.639555 0.355641,1.24441 0.34375,1.71875 -0.0058,0.230451 -0.0553,0.430712 -0.125,0.59375 -0.05553,0.129896 -0.164854,0.237306 -0.28125,0.28125 -0.113198,0.04274 -0.236347,0.0371 -0.375,-0.03125 C 10.351383,40.48916 10.190584,40.33301 10.0314,40.15625 9.898379,40.00854 9.70561,39.641283 9.50015,39.25 L 8.65635,39.1875 C 8.523472,39.38012 8.375518,39.491554 8.1876,39.5625 7.90384,39.66963 7.574026,39.640251 7.21885,39.46875 6.851048,39.29115 6.474192,38.975873 6.09385,38.5625 5.330985,37.733386 4.5686,36.44331 4.0001,34.9375 3.534068,33.7031 3.285491,32.51809 3.21885,31.5 3.161102,30.61778 3.27024,29.93305 3.53135,29.40625 V 28.9375 C 3.330659,28.604999 3.129606,28.28053 3.0001,27.9375 2.789569,27.379855 2.685663,26.87305 2.65635,26.40625 2.635074,26.06744 2.699222,25.818825 2.8126,25.53125 l 0.0312,-0.3125 C 2.710613,24.65407 2.71593,23.88515 3.00005,23 3.194409,22.394498 3.442032,21.88769 3.7188,21.5 L 3.8126,21.125 C 3.702984,20.561204 3.730281,19.84059 4.0001,19 4.255526,18.204248 4.632528,17.56523 5.03135,17.15625 l 0.125,-0.4688 C 4.937476,15.913445 5.02796,14.8902 5.4376,13.6562 5.88712,12.30207 6.69384,10.73297 7.78135,9.2187 8.82983,7.75877 9.98604,6.60225 11.09385,5.74995 12.09487,4.979818 13.01602,4.53941 13.8126,4.43745 l 0.375,-0.25 c 0.253015,-0.408571 0.521698,-0.813831 0.8125,-1.21875 1.04848,-1.45993 2.20469,-2.61645 3.3125,-3.46875 1.11222,-0.855688 2.15213,-1.37512 2.96875,-1.40625 z m 18.75,3.0312 C 38.16195,1.196259 36.2223,2.73894 34.3438,4.84375 32.41865,3.46488 30.46659,2.4849 28.75005,2.0625 27.88954,1.85075 27.08331,1.774479 26.3438,1.875 c -0.741546,0.100798 -1.47826,0.423046 -1.9375,1.0625 -0.461794,0.643011 -0.517633,1.4257 -0.375,2.15625 0.141254,0.723489 0.488871,1.47037 0.96875,2.21875 0.954076,1.4879 2.47395,3.04978 4.40625,4.4375 0.259453,0.186332 0.479658,0.320556 0.71875,0.46875 -0.177253,0.720891 -0.325278,1.41467 -0.28125,2.0625 0.05397,0.794147 0.359646,1.56574 0.96875,2.09375 -0.0094,0.01136 -0.02183,0.01984 -0.03125,0.03125 -0.08463,-0.07442 -0.143172,-0.142029 -0.25,-0.21875 -0.644186,-0.462638 -1.30367,-0.809612 -1.9375,-0.96875 -0.316367,-0.07943 -0.638662,-0.105147 -0.96875,-0.0625 -0.269794,0.03486 -0.285493,0.129908 -0.34375,0.1875 -0.195665,-0.0196 -0.39742,-0.0424 -0.5,-0.03125 -0.354022,0.03849 -0.733421,0.147443 -1.125,0.34375 -0.757233,0.379617 -1.65625,1.13528 -1.65625,2.3125 0,0.799759 0.1368,1.5295 0.375,2.125 0.117221,0.293054 0.258398,0.588278 0.5,0.84375 0.08435,0.08919 0.260929,0.111001 0.375,0.1875 -0.386419,0.317184 -0.813017,0.491689 -1.15625,0.90625 -0.868422,1.04889 -1.35528,2.1589 -1.46875,3.25 -0.910872,0.350898 -1.625,1.14359 -1.625,2.1875 0,0.991618 0.67804,1.70293 1.53125,2.09375 -0.381253,0.137564 -0.844048,0.212312 -1.1875,0.375 -0.943976,0.447147 -1.77356,0.984393 -2.375,1.65625 -0.601443,0.671857 -0.96875,1.4832 -0.96875,2.375 0,0.586332 0.271227,1.05809 0.53125,1.5 -0.250596,0.273387 -0.53125,0.53953 -0.53125,1 0,0.513226 0.256642,0.940088 0.5625,1.25 0.308217,0.312302 0.68062,0.523837 1.0625,0.6875 0.784251,0.336107 1.76035,0.53125 2.84375,0.53125 0.521424,0 0.976195,-0.09667 1.34375,-0.15625 0.987737,0.252345 2.07485,0.444941 3.21875,0.53125 0.04937,2.27752 0.539702,4.38008 1.40625,5.96875 0.913853,1.6754 2.31735,2.90625 4.03125,2.90625 1.6078,0 2.9501,-1.12233 3.84375,-2.625 0.803354,-1.35083 1.24832,-3.10955 1.4375,-5.03125 0.513178,-0.157199 1.03301,-0.345076 1.46875,-0.75 0.657414,-0.610921 1.23963,-1.44577 1.65625,-2.4375 0.478977,-1.14017 0.637516,-2.30997 0.53125,-3.3125 -0.09492,-0.895465 -0.516216,-1.73883 -1.28125,-2.21875 0.220168,-0.09163 0.46087,-0.05271 0.625,-0.28125 0.188749,-0.262831 0.131904,-0.400997 0.125,-0.53125 0.08123,-0.07533 0.211864,-0.179096 0.375,-0.40625 0.42991,-0.598617 0.758753,-1.21437 0.90625,-1.8125 0.08141,-0.330151 0.06992,-0.650106 0.03125,-0.9375 -0.04023,-0.298954 -0.204595,-0.696819 -0.5625,-0.96875 0.871785,0.591148 1.75593,1.04748 2.5625,1.25 0.442752,0.111168 0.882076,0.150869 1.3125,0.09375 0.421063,-0.05588 0.926007,-0.236366 1.25,-0.6875 0.317132,-0.44158 0.367114,-0.95733 0.28125,-1.40625 -0.08641,-0.45175 -0.297732,-0.849616 -0.53125,-1.21875 -0.483305,-0.763983 -1.23652,-1.53579 -2.1875,-2.21875 -0.225512,-0.161958 -0.420203,-0.237797 -0.625,-0.34375 0.808831,-1.2653 1.51198,-2.53412 1.90625,-3.71875 0.428555,-1.28764 0.559958,-2.46388 0.34375,-3.5 0.573156,-1.24149 1.01271,-2.4309 1.125,-3.5 0.09088,-0.865253 -0.138204,-1.6013 -0.5,-2.25 0.606177,-1.29486 1.047,-2.54359 1.15625,-3.65625 C 47.838523,4.49943 47.615975,3.25171 46.6563,2.5625 45.859104,1.989975 44.85607,2.041006 43.93755,2.34375 43.46033,2.501042 43.0019,2.831226 42.5313,3.125 42.41484,2.526415 42.19355,1.94833 41.6563,1.5625 41.15676,1.203746 40.5631,1.104728 40.0313,1.125 z m 0.0625,1 c 0.37397,-0.014256 0.742342,0.064956 1,0.25 0.381647,0.274087 0.517698,0.794879 0.5625,1.53125 l 0.7812,0.375 c 0.647388,-0.456999 1.27549,-0.823 1.8125,-1 0.741351,-0.24435 1.39888,-0.225741 1.84375,0.09375 0.547309,0.393063 0.727565,1.17417 0.625,2.21875 -0.09639,0.981658 -0.476658,2.21423 -1.09375,3.5 l 0.0312,0.5 c 0.338113,0.47312 0.491655,1.09313 0.40625,1.90625 -0.09975,0.949676 -0.449774,2.11556 -1.03125,3.34375 L 45,15.18755 c 0.201391,0.784423 0.07392,1.87007 -0.34375,3.125 -0.404868,1.21647 -1.10771,2.56348 -2.03125,3.9375 l 0.1875,0.7188 c 0.345695,0.183032 0.653609,0.327366 0.9375,0.53125 0.851196,0.611305 1.46962,1.32794 1.875,1.96875 0.210826,0.333262 0.36063,0.605236 0.40625,0.84375 0.04616,0.241344 0.01765,0.501128 -0.09375,0.65625 -0.103331,0.14388 -0.290015,0.21384 -0.5625,0.25 -0.263124,0.03492 -0.579236,-0.0038 -0.9375,-0.09375 C 43.713185,26.943237 42.82259,26.550805 41.96875,25.9376 41.610803,25.680531 41.31441,25.391128 41,25.09385 l -0.6875,0.0312 c -0.882169,0.884566 -1.76909,1.54294 -2.59375,2 v 0.875 c 0.232699,0.133884 0.401437,0.188022 0.53125,0.28125 0.139548,0.10022 0.25516,0.216955 0.4375,0.375 l 0.6875,-0.0312 c 0.288323,-0.327697 0.611616,-0.664578 0.84375,-0.8125 0.185414,-0.118151 0.311961,-0.156864 0.46875,-0.1875 0.146318,-0.02859 0.307112,-0.0175 0.375,0.03125 0.08024,0.05762 0.101267,0.136131 0.125,0.3125 0.02627,0.195198 0.014,0.378991 -0.03125,0.5625 -0.105835,0.429187 -0.351096,0.988071 -0.71875,1.5 -0.116024,0.161554 -0.230548,0.223815 -0.375,0.375 l -0.125,0.2812 c -0.03874,0.272135 -0.06719,0.374808 0,0.28125 -0.104844,0.145988 -0.276179,0.182028 -0.59375,0.1875 l -0.25,0.0625 C 38.91814,31.31652 38.847556,31.354238 38.75,31.37505 38.635225,31.39954 38.435,31.38689 38.375,31.3438 38.3056,31.29396 38.28661,31.26301 38.25,31.12505 L 38,30.78125 c -0.380353,-0.171509 -0.780157,-0.3549 -1.15625,-0.625 -0.58776,-0.422114 -1.05363,-0.897959 -1.375,-1.34375 -0.221645,-0.307462 -0.309669,-0.575052 -0.34375,-0.875 l -0.25,-0.375 c -0.01541,-0.009 -0.01585,0.0072 -0.03125,0 -0.387251,-0.278114 -0.573338,-0.77195 -0.625,-1.4375 -0.02299,-0.296206 -0.0115,-0.620561 0.03125,-0.96875 l -0.8438,-0.4375 c -0.819983,0.760058 -1.62308,1.41284 -2.34375,1.78125 -0.526163,0.268975 -1.03592,0.429007 -1.46875,0.46875 -0.43283,0.03974 -0.794568,-0.03514 -1.09375,-0.25 -0.150774,-0.108281 -0.269946,-0.273096 -0.40625,-0.53125 l -0.7812,-0.1562 c -0.675206,0.605656 -1.35426,0.966785 -2,1.09375 l -0.4062,0.4688 c -0.06372,0.747336 -0.683305,1.34375 -1.4375,1.34375 -0.799356,0 -1.46875,-0.669394 -1.46875,-1.46875 0,-0.682362 0.525117,-1.22605 1.1875,-1.375 l 0.375,-0.4688 c 0.03656,-0.900072 0.448818,-1.96333 1.28125,-2.96875 0.682836,-0.824738 1.48423,-1.41886 2.21875,-1.71875 0.535826,-0.218772 1.04459,-0.222586 1.5,-0.0625 l 0.5938,-0.25 c 0.167427,-0.3289 0.367582,-0.669368 0.5625,-1 l -0.2188,-0.6875 c -0.267081,-0.1314 -0.478865,-0.225164 -0.6875,-0.375 -0.263802,-0.189455 -0.399515,-0.437004 -0.6875,-0.75 l -0.7188,-0.0312 c -0.125069,0.110195 -0.253705,0.16182 -0.4375,0.15625 -0.09163,-0.0028 -0.110295,-0.04737 -0.34375,0.03125 -0.116727,0.03931 -0.23457,0.150375 -0.28125,0.21875 -0.04668,0.06837 -0.0499,0.09959 -0.0625,0.125 -0.08427,0.169879 -0.105793,0.290797 -0.125,0.4375 -0.01921,0.146703 -0.02908,0.306729 -0.03125,0.46875 -0.0042,0.31544 0.01229,0.596631 0,0.84375 -0.0062,0.123955 -0.01769,0.177746 -0.0625,0.28125 0.01135,-0.02621 -0.02139,0.02966 -0.0625,0.0625 -0.04111,0.03284 -0.07201,0.03125 -0.03125,0.03125 -0.114336,0 -0.232098,-0.06944 -0.34375,-0.1875 C 25.512856,20.13152 25.406077,19.952794 25.3125,19.71885 25.1291,19.260355 25,18.64881 25,17.96885 c 0,-0.658341 0.529645,-1.1547 1.09375,-1.4375 0.269091,-0.134901 0.558022,-0.191083 0.8125,-0.21875 0.151082,-0.01643 0.20967,-0.03663 0.25,-0.03125 0.02658,0.01166 -0.0039,0.02009 0.03125,0.03125 l 0.375,-0.0312 c 0.244066,-0.121279 0.325638,-0.142847 0.1875,-0.125 0.181976,-0.02351 0.357231,0.0031 0.59375,0.0625 0.471943,0.118492 1.06762,0.380958 1.625,0.78125 0.2078,0.149236 0.340434,0.278444 0.53125,0.46875 l 0.75,-0.0312 c 0.23721,-0.306754 0.466924,-0.616508 0.71875,-0.90625 l -0.1875,-0.7812 C 31.634583,15.69099 31.552683,15.69186 31.5,15.68775 c -0.01081,-0.0035 -0.05403,-0.0027 -0.03125,0 -0.379875,-0.291297 -0.580095,-0.808023 -0.625,-1.46875 -0.04049,-0.595733 0.05497,-1.32157 0.28125,-2.125 L 30.9375,11.5628 C 30.604224,11.350239 30.26782,11.152583 29.96875,10.9378 28.12593,9.61433 26.67709,8.09864 25.8125,6.7503 25.383047,6.08056 25.14152,5.47134 25.03125,4.90655 c -0.108891,-0.557725 -0.0621,-1.0587 0.1875,-1.40625 0.252395,-0.351441 0.687548,-0.548546 1.25,-0.625 0.564489,-0.076731 1.25221,-0.0042 2.03125,0.1875 1.55573,0.382827 3.46826,1.26927 5.3125,2.59375 0.09779,0.070227 0.153986,0.109747 0.25,0.1875 L 34.75,5.78155 C 36.6447,3.57124 38.67885,2.17924 40.09375,2.1253 z m -18.2188,9.5 c 0.189878,0.0287 0.155432,0.0082 0.1875,0.03125 0.07315,0.05254 0.09968,0.129233 0.125,0.25 0.005,0.02389 0.01063,0.119397 0,0.28125 l 0.7188,0.4688 c 0.162152,-0.08102 0.278233,-0.119694 0.3125,-0.125 0.09218,-0.01427 0.266911,0.0073 0.34375,0.0625 0.08024,0.05762 0.101267,0.136131 0.125,0.3125 0.02627,0.195198 0.014,0.378991 -0.03125,0.5625 -0.105835,0.429187 -0.351096,0.988071 -0.71875,1.5 -0.363239,0.50578 -0.802743,0.908677 -1.1875,1.15625 -0.191903,0.12348 -0.296124,0.152842 -0.46875,0.1875 -0.147626,0.02964 -0.342807,0.01431 -0.40625,-0.03125 0.02837,0.02037 0.02225,0.02087 -0.0625,-0.15625 H 19.9063 c -0.142087,0.311346 -0.269643,0.629009 -0.46875,0.90625 -0.363239,0.50578 -0.802743,0.908677 -1.1875,1.15625 -0.191903,0.12348 -0.296124,0.152842 -0.46875,0.1875 -0.147626,0.02964 -0.342807,0.01431 -0.40625,-0.03125 -0.08024,-0.05762 -0.101267,-0.136131 -0.125,-0.3125 -0.02627,-0.195198 -0.014,-0.378991 0.03125,-0.5625 0.105835,-0.429187 0.351096,-0.988071 0.71875,-1.5 0.334356,-0.465565 0.688614,-0.776148 1.0625,-1.03125 l 0.2188,-0.3438 c 0.07417,-0.47854 0.302303,-1.04513 0.71875,-1.625 0.318854,-0.443978 0.658492,-0.780662 1,-1.03125 0.348008,-0.255358 0.597806,-0.354379 0.875,-0.3125 z m 5.7188,7.0938 c 0.170774,0.207989 0.335173,0.425662 0.65625,0.65625 0.133104,0.09559 0.223853,0.123939 0.34375,0.1875 -0.06821,0.124022 -0.123537,0.252883 -0.1875,0.375 -0.417022,-0.07723 -0.839027,-0.04733 -1.28125,0.0625 0.0065,-0.274278 -0.0031,-0.553115 0,-0.78125 0.0017,-0.128017 0.01867,-0.247665 0.03125,-0.34375 0.162389,-0.01619 0.29194,-0.09586 0.4375,-0.15625 z m 13.0312,7.375 c 0.243757,0.221631 0.48311,0.442134 0.78125,0.65625 0.05532,0.03973 0.100766,0.05551 0.15625,0.09375 -0.36774,-0.233254 -0.757876,-0.278273 -1.0625,-0.21875 -0.311383,0.06084 -0.59642,0.217395 -0.84375,0.375 -0.263662,0.168012 -0.465998,0.394668 -0.6875,0.625 -0.04787,-0.04114 -0.06711,-0.08168 -0.125,-0.125 0.596548,-0.390834 1.1807,-0.840266 1.78125,-1.40625 z m -7.4062,0.0312 c 0.0013,0.02018 -0.0016,0.0424 0,0.0625 0.062,0.798797 0.341957,1.60918 1,2.125 0.0068,0.03155 0.02329,0.06232 0.03125,0.09375 C 33.838933,28.23274 33.446482,28 32.9688,28 32.19255,28 31.54395,28.30166 31.0313,28.71875 30.22683,28.605397 29.39592,28.5 28.4688,28.5 c -1.10795,0 -2.12393,0.151037 -3.125,0.3125 0.172868,-0.248228 0.331909,-0.511821 0.40625,-0.8125 0.616406,-0.163485 1.20972,-0.533439 1.78125,-0.96875 0.121539,0.172353 0.210769,0.359611 0.40625,0.5 0.517368,0.371559 1.13828,0.493669 1.75,0.4375 0.611724,-0.05617 1.20843,-0.284949 1.8125,-0.59375 0.567534,-0.290124 1.15052,-0.78396 1.71875,-1.25 z M 32.9688,29 c 0.545529,0 1.01834,0.170008 1.375,0.4375 0.348418,0.261314 0.59375,0.641852 0.59375,1.03125 l 0.2812,0.4375 c 1.00489,0.48909 1.73798,1.10335 2.1875,1.78125 l 0.6562,0.1562 c 0.540093,-0.331612 1.0326,-0.482593 1.4375,-0.3125 0.530377,0.222807 0.8209,0.819793 0.90625,1.625 0.08598,0.811138 -0.05359,1.82424 -0.46875,2.8125 -0.364729,0.868213 -0.862316,1.55703 -1.40625,2.0625 -0.408983,0.38006 -0.870562,0.606091 -1.3125,0.6875 l -0.4062,0.4688 c -0.157603,1.92647 -0.639339,3.63799 -1.375,4.875 -0.782861,1.31638 -1.82958,2.125 -2.96875,2.125 -1.22517,0 -2.34763,-0.923785 -3.15625,-2.40625 C 28.502091,43.2955 28,41.24142 28,38.96875 c 0,-0.0483 -5.47e-4,-0.04714 0,-0.0625 l -0.4688,-0.5312 c -1.31655,-0.06526 -2.58003,-0.266239 -3.6875,-0.5625 l -0.2188,-0.0312 c -0.412045,0.06679 -0.771804,0.15625 -1.15625,0.15625 -0.955678,0 -1.83119,-0.195511 -2.46875,-0.46875 -0.329024,-0.141011 -0.586803,-0.27214 -0.75,-0.4375 -0.165556,-0.16775 -0.25,-0.372738 -0.25,-0.5625 0,-0.191493 0.137999,-0.359327 0.40625,-0.59375 l 0.0625,-0.6562 c -0.290896,-0.44572 -0.46875,-0.840192 -0.46875,-1.25 0,-0.612112 0.239096,-1.18294 0.71875,-1.71875 0.479654,-0.535809 1.20586,-1.03173 2.0625,-1.4375 1.71508,-0.812406 4.07041,-1.3125 6.6875,-1.3125 0.904801,0 1.76367,0.128891 2.625,0.25 l 0.4062,-0.125 c 0.383094,-0.364711 0.870269,-0.625 1.46875,-0.625 z"/>
  <g fill="none" id="9">
   <path stroke="url(#2)" opacity="0.7" id="E" d="m 24.0126,1009.882 c -10.3443,0 -18.6226,8.3137 -18.6226,18.4774 0,10.1638 8.27831,18.4775 18.6226,18.4775 10.3443,0 18.5856,-8.3101 18.5856,-18.4775 0,-10.1673 -8.24128,-18.4774 -18.5856,-18.4774 z"/>
   <path stroke="#000" opacity="0.7" id="F" d="m 24.0126,1008.8843 c -10.7992,0 -19.5482,8.7394 -19.5482,19.4751 0,10.7358 8.74902,19.4752 19.5482,19.4752 10.7992,0 19.5112,-8.7382 19.5112,-19.4752 0,-10.7369 -8.712,-19.4751 -19.5112,-19.4751 z"/>
  </g>
 </g>
</svg>
