<svg xmlns="http://www.w3.org/2000/svg" xmlns:xlink="http://www.w3.org/1999/xlink" viewBox="0 0 48 48">
 <defs>
  <linearGradient xlink:href="#0" id="5" gradientUnits="userSpaceOnUse" y1="-70.3" x2="0" y2="49.68" gradientTransform="matrix(0.29899 0 0 0.31523 -31 25.783)"/>
  <linearGradient y1="20.927" x2="0" y2="31.675" id="3" gradientUnits="userSpaceOnUse">
   <stop stop-color="#babdb6"/>
   <stop offset="1" stop-color="#eeeeec"/>
  </linearGradient>
  <linearGradient y1="16.873" x2="0" y2="31.851" id="4" gradientUnits="userSpaceOnUse">
   <stop stop-color="#c17d11"/>
   <stop offset="1" stop-color="#8f5902"/>
  </linearGradient>
  <linearGradient y1="17.844" x2="0" y2="30.594" id="2" xlink:href="#0" gradientUnits="userSpaceOnUse"/>
  <linearGradient id="0">
   <stop stop-color="#fff" stop-opacity="0.8"/>
   <stop offset="1" stop-color="#fff" stop-opacity="0"/>
  </linearGradient>
  <linearGradient y1="17.875" x2="0" y2="30.531" id="1" xlink:href="#0" gradientUnits="userSpaceOnUse"/>
  <radialGradient cx="24.18" cy="31.851" r="1.517" id="6" gradientUnits="userSpaceOnUse" gradientTransform="matrix(1 0 0 0.52941 0 14.989)">
   <stop stop-color="#8f5902"/>
   <stop offset="1" stop-color="#683f00"/>
  </radialGradient>
  <radialGradient id="7" gradientUnits="userSpaceOnUse" gradientTransform="matrix(0.40967 -0.44055 0.4549 0.42302 -49.53 138.32)" cx="201.49" cy="-20.2" r="61.56">
   <stop stop-color="#e4ae4e"/>
   <stop offset="1" stop-color="#a77419"/>
  </radialGradient>
 </defs>
 <path d="M 23.880122,3.7027166 C 13.234906,3.7027166 4.5487826,12.578159 4.5487826,23.532358 4.5487826,34.486557 13.234906,43.361999 23.880122,43.362 34.525341,43.362 43.202118,34.485952 43.202118,23.532358 43.202118,12.578764 34.525341,3.7027159 23.880122,3.7027166 z" opacity="0.1"/>
 <path d="M 23.880122,2.7025036 C 13.234906,2.7025036 4.5487826,11.577946 4.5487826,22.532145 4.5487826,33.486344 13.234906,42.361786 23.880122,42.361787 34.525341,42.361787 43.202118,33.485739 43.202118,22.532145 43.202118,11.578551 34.525341,2.7025029 23.880122,2.7025036 z" fill="#683f00"/>
 <path d="M 42.28269,22.531495 A 18.407062,18.864382 0 1 1 5.4685664,22.531495 18.407062,18.864382 0 1 1 42.28269,22.531495 z" fill="url(#7)"/>
 <g stroke-linecap="round">
  <g fill="none">
   <path d="M 23.880122,4.1210174 C 13.947716,4.1210174 5.8942214,12.374008 5.8942214,22.532145 5.8942214,32.690282 13.947716,40.943272 23.880122,40.943273 33.812528,40.943273 41.856679,32.69057 41.856679,22.532145 41.856679,12.37372 33.812528,4.1210168 23.880122,4.1210174 z" opacity="0.4" stroke="url(#5)"/>
   <path d="M 20.000386,35.531277 C 20.000386,35.531277 20.79897,36.930357 21.245304,37.131777 21.691641,37.333197 22.168316,37.327074 22.631387,37.131777 23.094457,36.93648 24.000386,35.531277 24.000386,35.531277 24.000386,35.531277 24.819494,36.868132 25.400386,37.131777 25.815888,37.320357 26.518506,37.34604 26.921367,37.131777 27.432629,36.859859 28.000386,35.531277 28.000386,35.531277" stroke="#683f00" stroke-linejoin="round" stroke-width="1.099"/>
  </g>
  <g transform="translate(0 -7.469)">
   <path d="M 11.069686,17.373386 C 6.925276,17.373386 3.567,20.542811 3.567,24.455626 3.567,27.807055 6.028827,30.613495 9.341172,31.351 10.16896,27.012025 13.845155,23.631263 18.432232,23.063471 17.746895,19.816008 14.709839,17.373386 11.069686,17.373386 z" fill="url(#4)" stroke="#683f00" stroke-linejoin="round"/>
   <path d="M 11.0625,18.375 C 7.434522,18.375 4.5625,21.132968 4.5625,24.46875 4.5625001,27.035059 6.3087824,29.146583 8.75,30.03125 9.9302308,26.223616 13.090447,23.347821 17.09375,22.40625 16.187665,20.102315 13.892863,18.375 11.0625,18.375 z" opacity="0.4" fill="none" stroke="url(#1)"/>
  </g>
  <g transform="translate(0 -7.468)">
   <path d="M 36.929537,17.373075 C 41.073948,17.373075 44.432227,20.5425 44.432227,24.455315 44.432227,27.806744 41.9704,30.613184 38.658052,31.350689 37.830266,27.011714 34.15407,23.630952 29.567,23.06316 30.252329,19.815697 33.289385,17.373075 36.929537,17.373075 z" fill="url(#4)" stroke="#683f00" stroke-linejoin="round"/>
   <path d="M 36.9375,18.34375 C 34.062488,18.34375 31.74002,20.082717 30.84375,22.4375 34.883322,23.362788 38.053685,26.251982 39.21875,30.09375 41.699478,29.211268 43.468749,27.071427 43.46875,24.46875 43.46875,21.103421 40.591921,18.34375 36.9375,18.34375 z" opacity="0.4" fill="none" stroke="url(#2)"/>
  </g>
 </g>
 <g transform="translate(0 -1.469)" fill="url(#3)">
  <path d="M 17.924357,20.927197 C 15.876686,20.927197 14.197483,23.328257 14.197483,26.301327 14.197483,29.274398 15.876687,31.675458 17.924357,31.675458 19.972028,31.675458 21.619913,29.274399 21.619913,26.301327 21.619913,23.328257 19.972029,20.927198 17.924357,20.927197 z"/>
  <path d="M 30.013209,20.927197 C 27.965538,20.927197 26.317654,23.328257 26.317653,26.301327 26.317653,29.274398 27.965537,31.675458 30.013209,31.675458 32.060879,31.675458 33.708762,29.274399 33.708764,26.301327 33.708764,23.328257 32.060879,20.927198 30.013209,20.927197 z"/>
 </g>
 <g fill="none" stroke="#8f5902" stroke-linecap="round">
  <path d="M 17.924745,19.458693 C 15.877074,19.458693 14.197869,21.859754 14.197869,24.832824 14.197869,27.805895 15.877074,30.206955 17.924745,30.206955 19.972415,30.206955 21.620301,27.805895 21.620301,24.832824 21.620301,21.859754 19.972417,19.458694 17.924745,19.458693 z"/>
  <path d="M 30.013597,19.458693 C 27.965925,19.458693 26.318041,21.859754 26.318041,24.832824 26.318041,27.805895 27.965924,30.206955 30.013597,30.206955 32.061267,30.206955 33.709151,27.805895 33.709153,24.832824 33.709153,21.859754 32.061267,19.458694 30.013597,19.458693 z"/>
 </g>
 <path d="m 25.695167,31.851301 a 1.5167286,0.80297399 0 1 1 -3.033457,0 1.5167286,0.80297399 0 1 1 3.033457,0 z" transform="matrix(2.0129 0 0 2.91322 -24.592 -61.25)" fill="url(#6)"/>
</svg>
