<?xml version="1.0" encoding="UTF-8" standalone="no"?>
<svg
   xmlns:dc="http://purl.org/dc/elements/1.1/"
   xmlns:cc="http://creativecommons.org/ns#"
   xmlns:rdf="http://www.w3.org/1999/02/22-rdf-syntax-ns#"
   xmlns:svg="http://www.w3.org/2000/svg"
   xmlns="http://www.w3.org/2000/svg"
   xmlns:xlink="http://www.w3.org/1999/xlink"
   version="1.1"
   id="svg2"
   viewBox="0 0 48 48">
  <metadata
     id="metadata41">
    <rdf:RDF>
      <cc:Work
         rdf:about="">
        <dc:format>image/svg+xml</dc:format>
        <dc:type
           rdf:resource="http://purl.org/dc/dcmitype/StillImage" />
        <dc:title></dc:title>
      </cc:Work>
    </rdf:RDF>
  </metadata>
  <defs
     id="0">
    <linearGradient
       id="linearGradient4323">
      <stop
         id="stop4325"
         offset="0"
         style="stop-color:#ffffff;stop-opacity:1;" />
      <stop
         id="stop4327"
         offset="1"
         style="stop-color:#ffffff;stop-opacity:0;" />
    </linearGradient>
    <linearGradient
       id="linearGradient4288">
      <stop
         id="stop4290"
         offset="0"
         style="stop-color:#8aaee0;stop-opacity:1" />
      <stop
         id="stop4292"
         offset="1"
         style="stop-color:#3776ca;stop-opacity:1" />
    </linearGradient>
    <radialGradient
       gradientTransform="matrix(1.8181818,-1.9999998,1.651134,1.501031,-77.237902,32.027232)"
       gradientUnits="userSpaceOnUse"
       r="14.738366"
       fy="34.55407"
       fx="24.669949"
       cy="34.55407"
       cx="24.669949"
       id="radialGradient4294"
       xlink:href="#linearGradient4288" />
    <linearGradient
       gradientUnits="userSpaceOnUse"
       y2="47"
       x2="44"
       y1="2"
       x1="44"
       id="linearGradient4329"
       xlink:href="#linearGradient4323" />
  </defs>
  <g
     transform="matrix(1.4927028,0,0,1.4927028,-11.824901,-9.5789581)"
     id="g4210">
    <path
       style="fill:#000000;fill-opacity:1;stroke:none;opacity:0.15"
       id="path4286"
       d="m 36.892578,0.95703125 c -0.147102,-0.005092 -0.357477,-0.005321 -0.591797,0.0546875 -0.441784,0.1132004 -0.727213,0.3276964 -0.990234,0.5332031 -0.65321,0.5100978 -1.147477,1.1066664 -1.308594,1.8632812 -0.07327,0.3440826 -0.02515,0.7013286 0.07422,1.0410157 C 33.666813,4.0348437 33.326278,3.5303764 32.800781,3.2929688 32.332717,3.0814469 31.793404,2.9440301 31.222656,2.953125 c -0.196047,0.00312 -0.387533,0.01934 -0.595703,0.041016 a 1.0465833,1.0465833 0 0 0 -0.002,0 C 28.921649,3.1715585 27.085103,3.7099693 25.443359,4.5078125 24.171045,5.1261164 23.472428,5.6814791 21.910156,7.1679688 20.715829,8.3044919 20.007345,8.9796138 19.53125,9.7636719 19.055155,10.54773 18.953125,11.382104 18.953125,12.3125 c 0,1.174253 0.141322,1.875685 0.521484,2.701172 0.676982,1.470382 1.912693,2.740764 3.316407,3.46289 0.41525,0.213571 0.710354,0.376346 1.103515,0.482422 0.393162,0.106077 0.798469,0.09872 1.201172,0.05273 1.449806,-0.165456 3.024081,-0.908952 4.539063,-1.888672 1.514981,-0.97972 2.932355,-2.197196 3.867187,-3.490235 0.582355,-0.805257 1.181169,-1.869631 1.660156,-2.865234 0.239494,-0.497801 0.446212,-0.9744835 0.601563,-1.4003905 0.155351,-0.425907 0.284281,-0.7355386 0.283203,-1.2304687 -0.0019,-0.8326562 -0.328132,-1.5986138 -0.748047,-2.3203126 0.29776,0.1741782 0.568962,0.4143408 0.914063,0.4394532 0.572195,0.041638 1.132565,-0.1758193 1.542968,-0.515625 0.820807,-0.6796115 1.207203,-1.7523538 1.289063,-3.0292969 a 1.0465833,1.0465833 0 0 0 0.002,-0.066406 l 0,-0.5488281 A 1.0465833,1.0465833 0 0 0 38.097656,1.0527344 l -0.757812,-0.0703125 a 1.0465833,1.0465833 0 0 0 -0.03516,-0.001953 c -0.143667,-0.008576 -0.265008,-0.0183487 -0.41211,-0.0234375 z M 18.503906,4.9550781 c -0.957475,-0.040007 -1.559129,0.395559 -2.191406,0.8652344 -0.316138,0.2348377 -0.606632,0.4955741 -0.853516,0.8027344 -0.246883,0.3071603 -0.505859,0.6575249 -0.505859,1.25 0,0.6059825 0.164336,0.9583923 0.564453,1.4199219 0.235786,0.2717742 0.57425,0.3346507 0.884766,0.4628906 -0.31732,-0.1798051 -0.646685,-0.3449469 -1,-0.4550782 C 14.531557,9.02935 13.558063,8.9268489 12.574219,8.9589844 11.395416,8.997455 10.158745,9.2224716 9.0878906,9.796875 c -2.7750377,1.488417 -4.2441543,4.453816 -4.1289062,7.957031 0.023319,0.7062 0.036951,1.157122 0.125,1.609375 0.088049,0.452253 0.2724721,0.852819 0.4980468,1.240235 0.4307385,0.73857 1.0328669,1.230423 1.8886719,1.732422 0.7475272,0.43868 1.4641817,0.755965 2.2753907,0.705078 0.8112092,-0.05089 1.4873002,-0.418591 2.3144532,-0.935547 1.608603,-1.005353 3.649879,-3.026677 4.556641,-4.666016 0.645352,-1.166688 1.085752,-2.370074 1.283203,-3.494141 0.19745,-1.124066 0.196672,-2.19111 -0.328125,-3.105468 -0.230551,-0.401911 -0.547812,-0.703951 -0.90625,-0.9472659 0.634594,0.1651659 1.297932,0.1353069 1.845703,-0.3164062 0.457425,-0.3770263 0.721902,-0.8106932 0.992187,-1.2871094 0.135143,-0.2382081 0.255376,-0.4797107 0.351563,-0.7207031 0.09619,-0.2409924 0.191192,-0.4448958 0.191406,-0.8339844 0,-0.2537032 -0.04089,-0.4705346 -0.117187,-0.6972656 C 19.853387,5.8103783 19.765575,5.5717575 19.46875,5.3046875 18.966838,4.8532328 18.697333,4.9631371 18.505859,4.9550781 a 1.0465833,1.0465833 0 0 0 -0.002,0 z m 26.804688,4 c -1.266616,-0.042342 -2.49694,0.4929752 -3.400391,1.4335939 -0.414665,0.431632 -0.834194,0.965449 -0.816406,1.697266 0.0063,0.257313 0.215573,0.398048 0.300781,0.607421 -0.398499,-0.169977 -0.786753,-0.371269 -1.222656,-0.421875 -0.105813,-0.01226 -0.265365,-0.0365 -0.466797,-0.04297 -0.201633,-0.0064 -0.429702,0.0075 -0.671875,0.05273 -1.409465,0.263211 -3.094552,1.040828 -4.746094,2.021484 -1.651542,0.980656 -3.220612,2.147707 -4.24414,3.34375 -1.491454,1.742497 -2.257145,3.921023 -1.646485,5.8125 0.478274,1.480479 1.772107,2.588692 3.41211,3.142578 1.175097,0.396587 2.421952,0.139699 4.078125,-0.496093 2.090442,-0.802665 3.25485,-1.559042 5.24414,-3.533203 1.16009,-1.151254 1.876719,-1.921523 2.326172,-2.810547 0.449454,-0.889025 0.527344,-1.793021 0.527344,-2.878907 0,-0.681298 6.76e-4,-1.09401 -0.08789,-1.527343 -0.03613,-0.176781 -0.134467,-0.295083 -0.201172,-0.449219 0.713084,0 1.215755,-0.348837 1.634766,-0.722656 0.419011,-0.37382 0.767516,-0.827137 1.052734,-1.314453 0.285219,-0.487317 0.507152,-1.001347 0.611329,-1.544922 C 47.096364,10.780643 47.12149,10.095298 46.599609,9.5195312 46.282155,9.1694681 45.789191,8.9712486 45.308594,8.9550781 Z M 11.123047,22.957031 c -0.780316,-0.02431 -1.6875209,0.04458 -2.7675782,0.304688 -2.9601552,0.71273 -5.1649679,2.265384 -6.3007813,4.605469 -0.5451514,1.123022 -0.888602,2.428043 -1.03125,3.642578 -0.14264804,1.214535 -0.19347296,2.290774 0.3847656,3.251953 0.3082456,0.512677 0.8403377,0.962368 1.4550781,1.197265 0.6147405,0.234898 1.3065716,0.345426 2.2851563,0.46875 0.8392936,0.105791 1.9251379,0.408096 2.0644531,0.46875 0.6014043,0.261724 1.441485,1.071228 2.2148438,2.384766 0.6428926,1.092112 1.1944556,1.534175 2.0976566,1.982422 1.107573,0.549582 1.793174,1.26413 2.589843,2.720703 0.859503,1.57161 1.742297,2.552637 2.902344,2.898437 1.181116,0.351896 2.468222,0.12645 3.736328,-0.363281 C 22.022012,46.0298 23.274562,45.24 24.287109,44.21875 a 1.0465833,1.0465833 0 0 0 0.002,0 c 1.070103,-1.079477 1.657465,-2.331238 2.34961,-5.298828 0.282379,-1.210217 0.667409,-2.475342 1.185547,-3.66211 0.243019,-0.556803 0.486761,-1.166906 0.685547,-1.714843 0.198785,-0.547937 0.350758,-0.983261 0.423828,-1.404297 0.28688,-1.650066 0.05009,-3.435259 -0.648438,-4.832031 -0.361112,-0.720898 -0.875029,-1.373725 -1.632812,-1.833985 -0.757784,-0.460259 -1.690846,-0.771853 -3.097656,-1.171875 a 1.0465833,1.0465833 0 0 0 -0.02734,-0.0078 l -2.144532,-0.548828 a 1.0465833,1.0465833 0 0 0 -0.537109,0.0039 l -1.236328,0.341797 c -0.0028,7.43e-4 -0.0011,-7.39e-4 -0.0039,0 -1.201005,0.317637 -0.798471,0.298815 -1.675781,0.06836 -0.738624,-0.193973 -1.68091,-0.239763 -2.410157,-0.240234 -0.866483,-4.86e-4 -0.973926,-0.07851 -1.964843,-0.47461 l 0,0.002 c -0.855395,-0.342107 -1.657038,-0.46415 -2.431641,-0.488281 z m 32.371094,0.78125 c -0.212499,2.74e-4 -0.518115,0.01408 -0.900391,0.08789 -1.365019,0.263394 -2.455488,0.773521 -3.132812,1.632812 -0.338826,0.429854 -0.570297,1.005708 -0.496094,1.613282 0.006,0.04885 0.06448,0.07328 0.07422,0.121093 -0.172665,-0.03301 -0.324997,-0.135675 -0.503906,-0.136718 -0.307381,-0.0017 -0.672955,0.01554 -1.099609,0.07617 -2.571348,0.364788 -4.71346,1.31517 -6.269531,2.81836 -1.813577,1.751339 -2.751704,3.783529 -3.089844,6.80664 -0.09429,0.842976 0.007,1.533427 0.375,2.271485 0.474721,0.951595 1.093962,1.533555 2,2.017578 0.593008,0.316767 1.263346,0.376613 1.945312,0.3125 1.593509,-0.149904 3.09839,-0.736256 4.607422,-1.726563 2.09117,-1.372367 3.641223,-3.316587 4.447266,-5.332031 0.708031,-1.770374 0.696166,-3.622166 -0.0957,-5.167969 0.0151,7.34e-4 0.02586,0.01522 0.04102,0.01563 0.555187,0.0148 1.051868,-0.172106 1.507813,-0.421876 a 1.0465833,1.0465833 0 0 0 0.002,0 c 0.821128,-0.450062 1.422919,-1.206991 1.878906,-2.398437 0.186145,-0.486367 0.380055,-0.880776 0.212891,-1.533203 -0.08358,-0.326214 -0.358954,-0.696108 -0.669922,-0.865234 -0.310968,-0.169127 -0.591106,-0.19173 -0.833984,-0.191407 z"
       transform="matrix(0.66992572,0,0,0.66992572,7.9218053,7.0510337)" />
    <path
       transform="matrix(0.66992572,0,0,0.66992572,7.9218053,6.4171904)"
       d="m 36.892578,0.95703125 c -0.147102,-0.005092 -0.357477,-0.005321 -0.591797,0.0546875 -0.441784,0.1132004 -0.727213,0.3276964 -0.990234,0.5332031 -0.65321,0.5100978 -1.147477,1.1066664 -1.308594,1.8632812 -0.07327,0.3440826 -0.02515,0.7013286 0.07422,1.0410157 C 33.666813,4.0348437 33.326278,3.5303764 32.800781,3.2929688 32.332717,3.0814469 31.793404,2.9440301 31.222656,2.953125 c -0.196047,0.00312 -0.387533,0.01934 -0.595703,0.041016 a 1.0465833,1.0465833 0 0 0 -0.002,0 C 28.921649,3.1715585 27.085103,3.7099693 25.443359,4.5078125 24.171045,5.1261164 23.472428,5.6814791 21.910156,7.1679688 20.715829,8.3044919 20.007345,8.9796138 19.53125,9.7636719 19.055155,10.54773 18.953125,11.382104 18.953125,12.3125 c 0,1.174253 0.141322,1.875685 0.521484,2.701172 0.676982,1.470382 1.912693,2.740764 3.316407,3.46289 0.41525,0.213571 0.710354,0.376346 1.103515,0.482422 0.393162,0.106077 0.798469,0.09872 1.201172,0.05273 1.449806,-0.165456 3.024081,-0.908952 4.539063,-1.888672 1.514981,-0.97972 2.932355,-2.197196 3.867187,-3.490235 0.582355,-0.805257 1.181169,-1.869631 1.660156,-2.865234 0.239494,-0.497801 0.446212,-0.9744835 0.601563,-1.4003905 0.155351,-0.425907 0.284281,-0.7355386 0.283203,-1.2304687 -0.0019,-0.8326562 -0.328132,-1.5986138 -0.748047,-2.3203126 0.29776,0.1741782 0.568962,0.4143408 0.914063,0.4394532 0.572195,0.041638 1.132565,-0.1758193 1.542968,-0.515625 0.820807,-0.6796115 1.207203,-1.7523538 1.289063,-3.0292969 a 1.0465833,1.0465833 0 0 0 0.002,-0.066406 l 0,-0.5488281 A 1.0465833,1.0465833 0 0 0 38.097656,1.0527344 l -0.757812,-0.0703125 a 1.0465833,1.0465833 0 0 0 -0.03516,-0.001953 c -0.143667,-0.008576 -0.265008,-0.0183487 -0.41211,-0.0234375 z M 18.503906,4.9550781 c -0.957475,-0.040007 -1.559129,0.395559 -2.191406,0.8652344 -0.316138,0.2348377 -0.606632,0.4955741 -0.853516,0.8027344 -0.246883,0.3071603 -0.505859,0.6575249 -0.505859,1.25 0,0.6059825 0.164336,0.9583923 0.564453,1.4199219 0.235786,0.2717742 0.57425,0.3346507 0.884766,0.4628906 -0.31732,-0.1798051 -0.646685,-0.3449469 -1,-0.4550782 C 14.531557,9.02935 13.558063,8.9268489 12.574219,8.9589844 11.395416,8.997455 10.158745,9.2224716 9.0878906,9.796875 c -2.7750377,1.488417 -4.2441543,4.453816 -4.1289062,7.957031 0.023319,0.7062 0.036951,1.157122 0.125,1.609375 0.088049,0.452253 0.2724721,0.852819 0.4980468,1.240235 0.4307385,0.73857 1.0328669,1.230423 1.8886719,1.732422 0.7475272,0.43868 1.4641817,0.755965 2.2753907,0.705078 0.8112092,-0.05089 1.4873002,-0.418591 2.3144532,-0.935547 1.608603,-1.005353 3.649879,-3.026677 4.556641,-4.666016 0.645352,-1.166688 1.085752,-2.370074 1.283203,-3.494141 0.19745,-1.124066 0.196672,-2.19111 -0.328125,-3.105468 -0.230551,-0.401911 -0.547812,-0.703951 -0.90625,-0.9472659 0.634594,0.1651659 1.297932,0.1353069 1.845703,-0.3164062 0.457425,-0.3770263 0.721902,-0.8106932 0.992187,-1.2871094 0.135143,-0.2382081 0.255376,-0.4797107 0.351563,-0.7207031 0.09619,-0.2409924 0.191192,-0.4448958 0.191406,-0.8339844 0,-0.2537032 -0.04089,-0.4705346 -0.117187,-0.6972656 C 19.853387,5.8103783 19.765575,5.5717575 19.46875,5.3046875 18.966838,4.8532328 18.697333,4.9631371 18.505859,4.9550781 a 1.0465833,1.0465833 0 0 0 -0.002,0 z m 26.804688,4 c -1.266616,-0.042342 -2.49694,0.4929752 -3.400391,1.4335939 -0.414665,0.431632 -0.834194,0.965449 -0.816406,1.697266 0.0063,0.257313 0.215573,0.398048 0.300781,0.607421 -0.398499,-0.169977 -0.786753,-0.371269 -1.222656,-0.421875 -0.105813,-0.01226 -0.265365,-0.0365 -0.466797,-0.04297 -0.201633,-0.0064 -0.429702,0.0075 -0.671875,0.05273 -1.409465,0.263211 -3.094552,1.040828 -4.746094,2.021484 -1.651542,0.980656 -3.220612,2.147707 -4.24414,3.34375 -1.491454,1.742497 -2.257145,3.921023 -1.646485,5.8125 0.478274,1.480479 1.772107,2.588692 3.41211,3.142578 1.175097,0.396587 2.421952,0.139699 4.078125,-0.496093 2.090442,-0.802665 3.25485,-1.559042 5.24414,-3.533203 1.16009,-1.151254 1.876719,-1.921523 2.326172,-2.810547 0.449454,-0.889025 0.527344,-1.793021 0.527344,-2.878907 0,-0.681298 6.76e-4,-1.09401 -0.08789,-1.527343 -0.03613,-0.176781 -0.134467,-0.295083 -0.201172,-0.449219 0.713084,0 1.215755,-0.348837 1.634766,-0.722656 0.419011,-0.37382 0.767516,-0.827137 1.052734,-1.314453 0.285219,-0.487317 0.507152,-1.001347 0.611329,-1.544922 C 47.096364,10.780643 47.12149,10.095298 46.599609,9.5195312 46.282155,9.1694681 45.789191,8.9712486 45.308594,8.9550781 Z M 11.123047,22.957031 c -0.780316,-0.02431 -1.6875209,0.04458 -2.7675782,0.304688 -2.9601552,0.71273 -5.1649679,2.265384 -6.3007813,4.605469 -0.5451514,1.123022 -0.888602,2.428043 -1.03125,3.642578 -0.14264804,1.214535 -0.19347296,2.290774 0.3847656,3.251953 0.3082456,0.512677 0.8403377,0.962368 1.4550781,1.197265 0.6147405,0.234898 1.3065716,0.345426 2.2851563,0.46875 0.8392936,0.105791 1.9251379,0.408096 2.0644531,0.46875 0.6014043,0.261724 1.441485,1.071228 2.2148438,2.384766 0.6428926,1.092112 1.1944556,1.534175 2.0976566,1.982422 1.107573,0.549582 1.793174,1.26413 2.589843,2.720703 0.859503,1.57161 1.742297,2.552637 2.902344,2.898437 1.181116,0.351896 2.468222,0.12645 3.736328,-0.363281 C 22.022012,46.0298 23.274562,45.24 24.287109,44.21875 a 1.0465833,1.0465833 0 0 0 0.002,0 c 1.070103,-1.079477 1.657465,-2.331238 2.34961,-5.298828 0.282379,-1.210217 0.667409,-2.475342 1.185547,-3.66211 0.243019,-0.556803 0.486761,-1.166906 0.685547,-1.714843 0.198785,-0.547937 0.350758,-0.983261 0.423828,-1.404297 0.28688,-1.650066 0.05009,-3.435259 -0.648438,-4.832031 -0.361112,-0.720898 -0.875029,-1.373725 -1.632812,-1.833985 -0.757784,-0.460259 -1.690846,-0.771853 -3.097656,-1.171875 a 1.0465833,1.0465833 0 0 0 -0.02734,-0.0078 l -2.144532,-0.548828 a 1.0465833,1.0465833 0 0 0 -0.537109,0.0039 l -1.236328,0.341797 c -0.0028,7.43e-4 -0.0011,-7.39e-4 -0.0039,0 -1.201005,0.317637 -0.798471,0.298815 -1.675781,0.06836 -0.738624,-0.193973 -1.68091,-0.239763 -2.410157,-0.240234 -0.866483,-4.86e-4 -0.973926,-0.07851 -1.964843,-0.47461 l 0,0.002 c -0.855395,-0.342107 -1.657038,-0.46415 -2.431641,-0.488281 z m 32.371094,0.78125 c -0.212499,2.74e-4 -0.518115,0.01408 -0.900391,0.08789 -1.365019,0.263394 -2.455488,0.773521 -3.132812,1.632812 -0.338826,0.429854 -0.570297,1.005708 -0.496094,1.613282 0.006,0.04885 0.06448,0.07328 0.07422,0.121093 -0.172665,-0.03301 -0.324997,-0.135675 -0.503906,-0.136718 -0.307381,-0.0017 -0.672955,0.01554 -1.099609,0.07617 -2.571348,0.364788 -4.71346,1.31517 -6.269531,2.81836 -1.813577,1.751339 -2.751704,3.783529 -3.089844,6.80664 -0.09429,0.842976 0.007,1.533427 0.375,2.271485 0.474721,0.951595 1.093962,1.533555 2,2.017578 0.593008,0.316767 1.263346,0.376613 1.945312,0.3125 1.593509,-0.149904 3.09839,-0.736256 4.607422,-1.726563 2.09117,-1.372367 3.641223,-3.316587 4.447266,-5.332031 0.708031,-1.770374 0.696166,-3.622166 -0.0957,-5.167969 0.0151,7.34e-4 0.02586,0.01522 0.04102,0.01563 0.555187,0.0148 1.051868,-0.172106 1.507813,-0.421876 a 1.0465833,1.0465833 0 0 0 0.002,0 c 0.821128,-0.450062 1.422919,-1.206991 1.878906,-2.398437 0.186145,-0.486367 0.380055,-0.880776 0.212891,-1.533203 -0.08358,-0.326214 -0.358954,-0.696108 -0.669922,-0.865234 -0.310968,-0.169127 -0.591106,-0.19173 -0.833984,-0.191407 z"
       id="path4284"
       style="fill:#1f4375;stroke:none;fill-opacity:1" />
    <g
       style="fill:url(#radialGradient4294);fill-opacity:1"
       id="g4223">
      <path
         d="m 32.415134,7.7746978 c -0.126816,0.032495 -0.261469,0.1173094 -0.405946,0.2301936 -0.712671,0.5565317 -0.828816,1.1523267 -0.355019,1.6112302 0.762907,0.7390214 1.632068,0.019663 1.724814,-1.4270947 l 0,-0.3682912 -0.507131,-0.046036 c -0.210543,-0.012568 -0.329835,-0.032495 -0.456718,0 l 0,-2e-6 z"
         id="Q"
         style="fill:url(#radialGradient4294);fill-opacity:1" />
      <path
         d="m 28.511703,9.119948 c -1.044758,0.10882 -2.214269,0.4501591 -3.238569,0.947941 -0.805294,0.391347 -1.152764,0.671209 -2.190793,1.658886 -1.590949,1.513948 -1.762021,1.760048 -1.762021,2.938618 0,0.754856 0.05177,1.008864 0.285639,1.516695 0.374947,0.814374 1.129204,1.591593 1.904965,1.990675 0.553274,0.284558 0.669308,0.338466 1.142975,0.284376 1.544229,-0.176232 4.048748,-1.803382 5.143621,-3.317785 0.698943,-0.966472 1.572754,-2.779354 1.571685,-3.27039 -0.0021,-0.907216 -0.907263,-2.2206009 -1.762168,-2.6068277 -0.35118,-0.1587012 -0.579808,-0.195872 -1.095334,-0.1421925 l 0,4.2e-6 z"
         id="R"
         style="fill:url(#radialGradient4294);fill-opacity:1" />
      <path
         d="m 20.289527,10.437181 c -0.523405,-0.02187 -1.64891,0.784076 -1.64891,1.25502 0,0.116776 0.07167,0.335966 0.20615,0.491087 0.266614,0.307307 0.740942,0.348009 1.030618,0.109131 0.306777,-0.252857 0.77285,-1.07526 0.773009,-1.364153 0,-0.15003 -0.06123,-0.35245 -0.15467,-0.436523 -0.04377,-0.03948 -0.13131,-0.05142 -0.206151,-0.05457 l -4.6e-5,2e-6 z"
         id="S"
         style="fill:url(#radialGradient4294);fill-opacity:1" />
      <path
         d="m 16.367481,13.119735 c -0.710871,0.0232 -1.448479,0.168291 -2.026796,0.478499 -1.618939,0.868333 -2.465992,2.53825 -2.395225,4.689367 0.03102,0.939413 0.05088,1.112872 0.322332,1.579079 0.233849,0.400972 0.468164,0.589223 1.013581,0.909154 0.921022,0.540495 1.297154,0.5139 2.349108,-0.143553 0.906852,-0.566769 2.327215,-1.998727 2.80971,-2.871033 0.795928,-1.438904 1.076907,-2.979283 0.644685,-3.732346 -0.370071,-0.645132 -1.532989,-0.947854 -2.717395,-0.909167 l 0,0 z"
         id="T"
         style="fill:url(#radialGradient4294);fill-opacity:1" />
      <path
         d="m 38.25198,13.11708 c -0.517219,-0.01729 -1.343555,0.322214 -1.750256,0.745647 -0.4724,0.491728 -0.479231,0.75142 0.04581,1.342156 0.237862,0.267431 0.523727,0.497087 0.644969,0.497087 0.80053,0 1.912324,-1.901214 1.427802,-2.435764 -0.07622,-0.08405 -0.196022,-0.14333 -0.368429,-0.149131 l 1.01e-4,5e-6 z"
         id="U"
         style="fill:url(#radialGradient4294);fill-opacity:1" />
      <path
         d="m 34.198551,15.333689 c -1.564694,0.292199 -4.4279,1.968376 -5.619299,3.360584 -0.877317,1.024989 -1.262754,2.307832 -0.967463,3.222476 0.23622,0.731211 0.906305,1.341102 1.842429,1.657264 0.560641,0.189212 1.197886,0.08437 2.257077,-0.322245 1.355677,-0.520538 1.964745,-0.914016 3.270353,-2.209695 1.529543,-1.517893 1.704281,-1.917868 1.704281,-3.314548 0,-0.899802 -0.02554,-0.993644 -0.27652,-1.381057 -0.341407,-0.52761 -1.018405,-0.9385 -1.658225,-1.012779 -0.160953,-0.01865 -0.329143,-0.04176 -0.552633,0 l 0,0 z"
         id="V"
         style="fill:url(#radialGradient4294);fill-opacity:1" />
      <path
         d="m 15.351578,22.498265 c -0.46733,-0.01456 -1.003219,0.02355 -1.668577,0.183781 -1.843309,0.443822 -3.091555,1.345093 -3.754404,2.710742 -0.6405127,1.319469 -0.8712197,3.273419 -0.4634538,3.951229 0.2864357,0.476403 0.7139678,0.619861 1.9931158,0.781064 0.626112,0.07892 1.312133,0.25281 1.575682,0.367553 0.626295,0.272556 1.246613,0.930609 1.807776,1.883736 0.414579,0.704265 0.510329,0.757942 1.11237,1.056727 0.872159,0.432769 1.465082,1.063507 2.03934,2.113438 0.53695,0.981819 1.015927,1.454977 1.52952,1.608075 1.104476,0.329062 2.972713,-0.398746 4.171736,-1.608075 0.634618,-0.640177 0.934619,-1.2621 1.390362,-3.216112 0.196641,-0.842759 0.465412,-1.727807 0.834379,-2.572907 0.312608,-0.716245 0.637004,-1.59397 0.695263,-1.929665 0.1638,-0.942134 0.0102,-2.040899 -0.370743,-2.802628 -0.419943,-0.838343 -0.88507,-1.128093 -2.734601,-1.654002 l -1.437034,-0.367551 -0.834236,0.229719 c -0.829913,0.219214 -0.895617,0.20031 -1.483277,0.04594 -0.338024,-0.08877 -0.999363,-0.137547 -1.436707,-0.13783 -0.653037,-3.66e-4 -0.911241,-0.101784 -1.57615,-0.367566 -0.490829,-0.196303 -0.923114,-0.261106 -1.390361,-0.275662 l 0,-6e-6 z"
         id="W"
         style="fill:url(#radialGradient4294);fill-opacity:1" />
      <path
         d="m 37.06127,23.021595 c -0.12566,1.62e-4 -0.259297,0.0051 -0.471511,0.04604 -1.601594,0.308704 -2.376879,1.285015 -1.519258,1.933475 0.420372,0.31799 0.766177,0.315187 1.257494,0.04604 0.45265,-0.248099 0.65864,-0.500494 0.942793,-1.242955 0.215119,-0.562072 0.167161,-0.783093 -0.209588,-0.782592 l 7e-5,0 z"
         id="X"
         style="fill:url(#radialGradient4294);fill-opacity:1" />
      <path
         d="m 33.73336,25.244682 c -0.179901,-0.001 -0.386457,0.0082 -0.635003,0.04352 -1.60958,0.228345 -2.892943,0.810586 -3.810934,1.69738 -1.119656,1.081232 -1.644522,2.203541 -1.860302,4.134624 -0.0603,0.539082 -0.04572,0.675885 0.181497,1.131577 0.28838,0.578067 0.472633,0.739591 1.043463,1.044539 0.319667,0.170757 0.466623,0.172003 0.907369,0.130568 0.942151,-0.08863 1.826658,-0.427008 2.767651,-1.044538 2.554646,-1.676533 3.816784,-4.817794 2.586074,-6.484824 -0.3485,-0.471973 -0.639215,-0.649688 -1.179755,-0.65284 l -6e-5,-8e-6 z"
         id="Y"
         style="fill:url(#radialGradient4294);fill-opacity:1" />
      <path
         transform="matrix(0.66992572,0,0,0.66992572,7.9218053,6.4171904)"
         d="m 36.835938,2.5683594 c -0.08601,-0.00298 -0.115707,9.783e-4 -0.134766,0.00586 -0.05251,0.013456 -0.206481,0.093732 -0.396484,0.2421874 -0.466185,0.3640483 -0.676602,0.7022846 -0.72461,0.9277344 -0.04801,0.2254498 -0.0086,0.382007 0.240234,0.6230469 a 0.56698967,0.56698967 0 0 1 0,0.00195 c 0.213037,0.2063669 0.382054,0.2680504 0.509766,0.2773438 0.127712,0.00929 0.245794,-0.025622 0.396484,-0.1503906 C 37.0272,4.247172 37.368037,3.5823526 37.431641,2.6132812 l -0.222657,-0.021484 -0.01953,-0.00195 c -0.151614,-0.0093 -0.272021,-0.018665 -0.353515,-0.021484 z M 31.25,4.5664062 c -0.122587,0.00195 -0.273202,0.014062 -0.457031,0.033203 -1.481589,0.1543195 -3.176649,0.6460238 -4.644531,1.359375 -1.164008,0.56567 -1.58442,0.9092443 -3.126954,2.3769531 -1.183657,1.1263696 -1.812892,1.7741445 -2.111328,2.2656245 -0.298436,0.491481 -0.34375,0.858815 -0.34375,1.710938 0,1.101055 0.04273,1.305842 0.375,2.027344 0.49614,1.077599 1.563038,2.1759 2.587891,2.703125 0.411684,0.211736 0.63562,0.319029 0.785156,0.359375 0.149536,0.04035 0.270779,0.04514 0.597656,0.0078 0.991492,-0.113152 2.468306,-0.748616 3.847657,-1.640625 1.37935,-0.892008 2.682136,-2.039931 3.435546,-3.082031 0.488774,-0.675858 1.0698,-1.69848 1.513672,-2.621094 C 33.93092,9.6050992 34.118944,9.1664443 34.248047,8.8125 34.377149,8.4585557 34.433625,8.1550101 34.433594,8.140625 34.432461,7.6515027 34.146434,6.8847939 33.693359,6.21875 33.240284,5.5527061 32.621381,4.9835137 32.134766,4.7636719 31.782191,4.6043407 31.627184,4.5603958 31.25,4.5664062 Z m -12.84375,2.015625 c -0.109294,0.00806 -0.687805,0.2040883 -1.130859,0.5332032 -0.227717,0.1691548 -0.430748,0.360471 -0.558594,0.5195312 -0.127847,0.1590602 -0.150391,0.2883013 -0.150391,0.2382813 0,-0.059547 0.0772,0.256324 0.169922,0.3632812 0.196281,0.2262394 0.573654,0.2395142 0.748047,0.095703 0.105194,-0.086705 0.407002,-0.4693631 0.617187,-0.8398437 0.105093,-0.1852403 0.196268,-0.3721801 0.25586,-0.5214844 0.05959,-0.1493042 0.0762,-0.280905 0.07617,-0.2363281 0,-0.0295 -0.01231,-0.095983 -0.02734,-0.1523438 z m 26.847656,3.9843748 c -0.504126,-0.01685 -1.737067,0.474557 -2.183594,0.939453 -0.318938,0.331989 -0.366802,0.476493 -0.365234,0.541016 0.0016,0.06452 0.0856,0.284246 0.449219,0.693359 0.156136,0.175546 0.333995,0.342899 0.472656,0.451172 0.04863,0.03797 0.07882,0.05563 0.111328,0.07617 0.0909,-0.01293 0.281619,-0.07834 0.515625,-0.287109 0.254467,-0.227022 0.523689,-0.565809 0.734375,-0.925781 0.210686,-0.359973 0.364567,-0.744373 0.419922,-1.033204 0.05535,-0.288831 -0.0079,-0.422341 -0.0039,-0.417968 -0.0034,-0.0038 -0.01398,-0.03252 -0.150391,-0.03711 z M 12.625,10.572266 c -0.997364,0.03255 -2.024602,0.243763 -2.7753906,0.646484 -2.2224071,1.192009 -3.3777695,3.427811 -3.2773438,6.480469 0.023061,0.698386 0.045225,1.096195 0.095703,1.355469 0.050478,0.259273 0.1184429,0.409751 0.3085937,0.736328 0.3048214,0.522665 0.5189705,0.689973 1.3105469,1.154296 0.6548352,0.384286 1.0131751,0.507923 1.3574218,0.486329 0.3442468,-0.02159 0.7981878,-0.216898 1.5605468,-0.69336 1.215545,-0.759698 3.380836,-2.958736 4,-4.078125 0.566245,-1.023675 0.947885,-2.085911 1.107422,-2.99414 0.159537,-0.90823 0.07242,-1.652253 -0.140625,-2.023438 C 16.004261,11.350382 15.568481,11.04274 14.923828,10.841797 14.279175,10.640854 13.454883,10.545159 12.625,10.572266 Z m 27.027344,3.269531 c -0.09813,-0.0031 -0.200202,0.0019 -0.326172,0.02539 -1.036895,0.193635 -2.671815,0.904882 -4.216797,1.822265 -1.544982,0.917383 -3.025367,2.05182 -3.841797,3.005859 -1.211041,1.414886 -1.686641,3.187349 -1.33789,4.267579 0.284525,0.880738 1.126678,1.681836 2.392578,2.109375 0.653634,0.220596 1.44401,0.118677 2.984375,-0.472657 1.987421,-0.763108 2.760504,-1.259534 4.6875,-3.171875 1.131547,-1.122928 1.722873,-1.807739 2.019531,-2.394531 0.296657,-0.586792 0.355469,-1.131527 0.355469,-2.150391 0,-0.666295 -0.01603,-1.013966 -0.05469,-1.203124 -0.03866,-0.189159 -0.08685,-0.269855 -0.267578,-0.548829 -0.396954,-0.613451 -1.299836,-1.169272 -2.0625,-1.257812 -0.127882,-0.01482 -0.233797,-0.0281 -0.332031,-0.03125 z M 11.072266,24.570312 c -0.652765,-0.02033 -1.3937276,0.03192 -2.3398441,0.259766 -2.6384797,0.635279 -4.3164261,1.867059 -5.2265625,3.742188 -0.441694,0.909898 -0.7566467,2.086009 -0.8789063,3.126953 -0.1222595,1.040943 0.00811,1.971241 0.1640625,2.230469 0.1626056,0.270447 0.285322,0.384688 0.6484375,0.523437 0.3631156,0.138749 0.9684053,0.254364 1.9101563,0.373047 0.9862311,0.124312 1.9767606,0.36059 2.5078125,0.591797 1.1155296,0.485465 2.0884585,1.563029 2.9609371,3.044922 0.605815,1.029125 0.527616,0.91069 1.423829,1.355468 1.407138,0.698228 2.399076,1.765392 3.289062,3.392579 0.770087,1.408113 1.393754,1.961956 1.947266,2.126953 0.631036,0.188007 1.644257,0.08169 2.695312,-0.324219 1.051055,-0.405908 2.137597,-1.091391 2.96875,-1.929688 0.880765,-0.88848 1.249962,-1.642029 1.923828,-4.53125 0.299565,-1.283869 0.710867,-2.637493 1.279297,-3.939453 0.228059,-0.522526 0.463077,-1.110161 0.648438,-1.621093 0.18536,-0.510933 0.322156,-0.972677 0.349609,-1.13086 0.221546,-1.274279 -0.0037,-2.83571 -0.501953,-3.832031 -0.28759,-0.574124 -0.517369,-0.867988 -1.027344,-1.177735 -0.507464,-0.308221 -1.333418,-0.61042 -2.6875,-0.996093 l -0.0098,-0.002 -1.988282,-0.509766 -1.101562,0.304688 a 0.56698967,0.56698967 0 0 1 -0.0059,0.002 c -1.253709,0.331156 -1.625914,0.298481 -2.501953,0.06836 -0.377769,-0.09921 -1.388576,-0.187105 -2,-0.1875 -1.033465,-5.8e-4 -1.571078,-0.190812 -2.564453,-0.587891 -0.666171,-0.266429 -1.227144,-0.35262 -1.882812,-0.373047 z m 32.314453,0.791016 c -0.137001,0.0025 -0.256644,0.0045 -0.486328,0.04883 -1.102932,0.212588 -1.879004,0.675323 -2.171875,1.046875 -0.146436,0.185777 -0.174633,0.317382 -0.16211,0.419922 0.01252,0.10254 0.06812,0.23424 0.300782,0.410156 a 0.56698967,0.56698967 0 0 1 0,0.002 c 0.253411,0.191694 0.411857,0.24377 0.572265,0.248047 0.159999,0.0043 0.372462,-0.05322 0.689453,-0.226562 0.596871,-0.327147 0.74348,-0.497332 1.150391,-1.560547 0.102739,-0.268441 0.09483,-0.317156 0.107422,-0.388672 z m -4.861328,3.308594 c -0.247496,-0.0014 -0.522423,0.01016 -0.863282,0.05859 -2.311217,0.327883 -4.105361,1.156321 -5.375,2.382812 -1.59401,1.539308 -2.29586,3.020438 -2.609375,5.826172 -0.08769,0.783947 -0.106742,0.722218 0.216797,1.371094 0.406489,0.814821 0.49356,0.874872 1.316407,1.314453 0.414411,0.221366 0.390289,0.191485 1.035156,0.130859 1.304959,-0.12276 2.524986,-0.586034 3.873047,-1.470703 1.806706,-1.185683 3.163216,-2.904833 3.833984,-4.582031 0.670768,-1.677199 0.64331,-3.254349 -0.119141,-4.28711 -0.470982,-0.63785 -0.62485,-0.740153 -1.308593,-0.74414 z"
         id="path4321"
         style="fill:none;fill-opacity:1;stroke:url(#linearGradient4329);opacity:0.4" />
    </g>
  </g>
</svg>
