<?xml version="1.0" encoding="UTF-8" standalone="no"?>
<svg xmlns:dc="http://purl.org/dc/elements/1.1/" xmlns:cc="http://creativecommons.org/ns#" xmlns:rdf="http://www.w3.org/1999/02/22-rdf-syntax-ns#" xmlns:svg="http://www.w3.org/2000/svg" xmlns="http://www.w3.org/2000/svg" xmlns:xlink="http://www.w3.org/1999/xlink" version="1.1" viewBox="0 0 22 22" id="svg2">
 <defs id="defs4">
  <linearGradient gradientTransform="matrix(0.515 0 0 0.5 -1.083 -1)" gradientUnits="userSpaceOnUse" x2="0" y2="44" y1="2" id="0">
   <stop id="stop7" stop-color="#dedede"/>
   <stop id="stop9" stop-color="#f4f4f4" offset="1"/>
  </linearGradient>
  <linearGradient gradientUnits="userSpaceOnUse" x2="0" y2="20" y1="1" id="1">
   <stop id="stop12" stop-color="#fff"/>
   <stop id="stop14" stop-opacity="0" stop-color="#fff" offset="1"/>
  </linearGradient>
  <linearGradient gradientUnits="userSpaceOnUse" y2="16" x2="0" y1="12" id="linearGradient4222" xlink:href="#linearGradient4216"/>
  <linearGradient id="linearGradient4216">
   <stop id="stop4218" stop-color="#fff"/>
   <stop id="stop4220" offset="1" stop-color="#fff" stop-opacity="0"/>
  </linearGradient>
  <linearGradient gradientUnits="userSpaceOnUse" y2="17" x2="0" y1="11" id="linearGradient4206" xlink:href="#linearGradient4200"/>
  <linearGradient id="linearGradient4200">
   <stop id="stop4202" stop-color="#d02604"/>
   <stop id="stop4204" offset="1" stop-color="#fc7a60"/>
  </linearGradient>
 </defs>
 <rect id="rect16" height="21" rx="0.604" y="1" opacity="0.1" x="2" width="18" ry="0.604"/>
 <rect id="rect18" height="21" rx="0.604" fill="url(#0)" x="2" width="18" ry="0.604"/>
 <g id="g20" fill="none">
  <path id="path22" d="m 2.5938,0.5312 c -0.058216,0 -0.0625,0.00428 -0.0625,0.0625 l 0,19.8125 c 0,0.05822 0.00428,0.0625 0.0625,0.0625 l 16.8125,0 c 0.05822,0 0.0625,-0.0043 0.0625,-0.0625 l 0,-19.8125 c 0,-0.058217 -0.0043,-0.0625 -0.0625,-0.0625 l -16.8125,0 z" opacity="0.4" stroke="#000"/>
  <path id="path24" d="m 3.5312,1.5312 0,17.9375 14.9375,0 0,-17.9375 -14.9375,0 z" opacity="0.8" stroke="url(#1)"/>
 </g>
 <path d="m 6.1694914,11.983 0,6 c 15.9999986,0 7.6553776,0 15.9999986,0 l 0,-6 c -15.9999986,0 -7.655377,0 -15.9999986,0 z" id="path4224" opacity="0.1" fill="#000"/>
 <path id="path16" d="m 6.1694914,10.983051 0,6 c 15.9999986,0 7.6553776,0 15.9999986,0 l 0,-6 c -15.9999986,0 -7.655377,0 -15.9999986,0 z" fill="url(#linearGradient4206)"/>
 <path d="m 6.6640625,11.476562 0,5.011719 15.0117185,0 0,-5.011719 -15.0117185,0 z" id="path4212" opacity="0.5" fill="none" stroke="#000"/>
 <path id="path4214" d="m 7.6523438,12.464844 0,3.035156 13.0351562,0 0,-3.035156 -13.0351562,0 z" opacity="0.3" fill="none" stroke="url(#linearGradient4222)"/>
 <path id="path4306" d="m 6.1694914,11.983 0,6 c 15.9999986,0 7.6553776,0 15.9999986,0 l 0,-6 c -15.9999986,0 -7.655377,0 -15.9999986,0 z" opacity="0.1" fill="#000"/>
 <path d="m 6.1694914,10.983051 0,6 c 15.9999986,0 7.6553776,0 15.9999986,0 l 0,-6 c -15.9999986,0 -7.655377,0 -15.9999986,0 z" id="path4308" fill="url(#linearGradient4206)"/>
 <path id="path4310" d="m 6.6640625,11.476562 0,5.011719 15.0117185,0 0,-5.011719 -15.0117185,0 z" opacity="0.4" fill="none" stroke="#000"/>
 <path d="m 7.6523438,12.464844 0,3.035156 13.0351562,0 0,-3.035156 -13.0351562,0 z" id="path4312" opacity="0.3" fill="none" stroke="url(#linearGradient4222)"/>
 <metadata id="metadata9999">
  <rdf:RDF>
   <cc:Work>
    <dc:format>image/svg+xml</dc:format>
    <dc:type rdf:resource="http://purl.org/dc/dcmitype/StillImage"/>
    <dc:title>Ivy icon theme</dc:title>
    <cc:license rdf:resource="http://creativecommons.org/licenses/by-sa/4.0/"/>
    <dc:creator>
     <cc:Agent>
      <dc:title>Sixsixfive (sixsixfive.deviantart.com)</dc:title>
     </cc:Agent>
    </dc:creator>
    <dc:publisher>
     <cc:Agent>
      <dc:title>Sixsixfive (sixsixfive.deviantart.com)</dc:title>
     </cc:Agent>
    </dc:publisher>
    <dc:source>https://github.com/sixsixfive</dc:source>
    <dc:subject>
     <rdf:Bag>
      <rdf:li>ivy</rdf:li>
     </rdf:Bag>
    </dc:subject>
    <dc:contributor>
     <cc:Agent>
      <dc:title>ssf</dc:title>
     </cc:Agent>
    </dc:contributor>
    <dc:rights>
     <cc:Agent>
      <dc:title>Sixsixfive (sixisixfive.deviantart.com)</dc:title>
     </cc:Agent>
    </dc:rights>
    <dc:description>A simple icon theme published under CC-BY-SA_V4(http://creativecommons.org/licenses/by-sa/4.0)</dc:description>
    <dc:identifier>SSF</dc:identifier>
   </cc:Work>
  </rdf:RDF>
 </metadata>
 <!--Part of the Ivy icon them published under the CC-BY-SA_V4: http://creativecommons.org/licenses/by-sa/4.0 -->
</svg>
