<?xml version="1.0" encoding="UTF-8" standalone="no"?><svg xmlns:rdf="http://www.w3.org/1999/02/22-rdf-syntax-ns#" xmlns:cc="http://creativecommons.org/ns#" xmlns:svg="http://www.w3.org/2000/svg" id="svg2" viewBox="0 0 22 22" version="1.1" xmlns:dc="http://purl.org/dc/elements/1.1/" xmlns="http://www.w3.org/2000/svg"><defs id="defs4"><linearGradient id="0" x2="0" y2="0.076" y1="21.08" gradientUnits="userSpaceOnUse"><stop id="stop7" stop-color="#ffeb8b"/><stop offset="1" id="stop9" stop-color="#ffd506"/></linearGradient><linearGradient id="1" x2="0" y2="20" y1="3" gradientUnits="userSpaceOnUse"><stop id="stop12" stop-color="#fff"/><stop offset="1" id="stop14" stop-color="#fff" stop-opacity="0"/></linearGradient></defs><path id="path16" opacity="0.1" d="M 9 1 L 1 8.4844 L 9 16 v -4.07596 h 5 v 7.04471 v 3.03125 h 6 v -10.5 v -2.96875 c 0 -1.67967 -1.338 -3.61502 -3 -3.61502 -0.07797 0 -0.157935 0.00978 -0.234375 0.015625 -0.0837 -0.00845 -0.164262 -0.022285 -0.25 -0.015625 h -7.51562 z"/><path id="path18" d="M 9 0.076 L 1 7.5604 L 9 15.076 V 11 h 5 v 7.04471 v 3.03125 h 6 v -10.5 v -2.96875 c 0 -1.67967 -1.338 -3.61502 -3 -3.61502 -0.07797 0 -0.157935 0.00978 -0.234375 0.015625 -0.0837 -0.00845 -0.164262 -0.022285 -0.25 -0.015625 h -7.51562 z" fill="url(#0)"/><g id="g20" fill="none"><path id="path22" opacity="0.4" d="m 8.48028,1.25 0,2.75 a 0.516361,0.516361 0 0 0 0.53125,0.53125 l 7.5,0 A 0.516361,0.516361 0 0 0 16.54278,4.5 c 0.06796,-0.00528 0.112751,-0.00439 0.15625,0 a 0.516361,0.516361 0 0 0 0.09375,0 c 0.01772,-0.00136 0.114977,0.03125 0.21875,0.03125 0.632794,0 1.24773,0.370713 1.71875,0.96875 0.471018,0.598037 0.75,1.39101 0.75,2.09375 l 0,2.96875 0,9.96875 -4.9375,0 0,-2.5 0,-7.03125 a 0.516361,0.516361 0 0 0 -0.53125,-0.53125 l -5,0 A 0.516361,0.516361 0 0 0 8.48028,11 l 0,2.875 L 1.76148,7.5625 8.48028,1.25 Z" stroke="#000"/><path id="path24" opacity="0.4" d="m 7.48028,3.625 0,0.375 a 1.53842,1.53842 0 0 0 1.53125,1.53125 l 7.5,0 a 1.53842,1.53842 0 0 0 0.09375,0 1.53842,1.53842 0 0 0 0.28125,0 c -0.0985,0.00753 -0.02985,0 0.125,0 0.240476,0 0.576226,0.174728 0.90625,0.59375 0.330024,0.419022 0.5625,1.03737 0.5625,1.46875 l 0,2.96875 0,8.96875 -2.9375,0 0,-1.5 0,-7.03125 A 1.53842,1.53842 0 0 0 14.01153,9.46875 l -5,0 A 1.53842,1.53842 0 0 0 7.48028,11 l 0,0.5 -4.2188,-3.9375 4.2188,-3.9375 z" stroke="url(#1)"/></g><metadata id="metadata9999"><rdf:RDF><cc:Work><dc:format>image/svg+xml</dc:format><dc:type rdf:resource="http://purl.org/dc/dcmitype/StillImage"/><dc:title>Ivy icon theme</dc:title><cc:license rdf:resource="http://creativecommons.org/licenses/by-sa/4.0/"/><dc:creator><cc:Agent><dc:title>Sixsixfive (sixsixfive.deviantart.com)</dc:title></cc:Agent></dc:creator><dc:publisher><cc:Agent><dc:title>Sixsixfive (sixsixfive.deviantart.com)</dc:title></cc:Agent></dc:publisher><dc:source>https://github.com/sixsixfive</dc:source><dc:subject><rdf:Bag><rdf:li>ivy</rdf:li></rdf:Bag></dc:subject><dc:contributor><cc:Agent><dc:title>ssf</dc:title></cc:Agent></dc:contributor><dc:rights><cc:Agent><dc:title>Sixsixfive (sixisixfive.deviantart.com)</dc:title></cc:Agent></dc:rights><dc:description>A simple icon theme published under CC-BY-SA_V4(http://creativecommons.org/licenses/by-sa/4.0)</dc:description><dc:identifier>SSF</dc:identifier></cc:Work></rdf:RDF></metadata><!--Part of the Ivy icon them published under the CC-BY-SA_V4: http://creativecommons.org/licenses/by-sa/4.0 -->
</svg>