<?xml version="1.0" encoding="UTF-8" standalone="no"?><svg xmlns:cc="http://creativecommons.org/ns#" xmlns:dc="http://purl.org/dc/elements/1.1/" xmlns:svg="http://www.w3.org/2000/svg" xmlns="http://www.w3.org/2000/svg" xmlns:rdf="http://www.w3.org/1999/02/22-rdf-syntax-ns#" id="svg2" version="1.1" viewBox="0 0 22 22"><defs id="defs4"><linearGradient gradientTransform="matrix(0.515 0 0 0.5 -1.083 -1)" gradientUnits="userSpaceOnUse" y1="2" id="0" y2="44" x2="0"><stop id="stop7" stop-color="#dedede"/><stop id="stop9" stop-color="#f4f4f4" offset="1"/></linearGradient><linearGradient gradientUnits="userSpaceOnUse" y1="1" id="1" y2="20" x2="0"><stop id="stop12" stop-color="#fff"/><stop stop-opacity="0" id="stop14" stop-color="#fff" offset="1"/></linearGradient><linearGradient gradientTransform="matrix(-0.49845 0 0 -0.5 22.963 22.5)" gradientUnits="userSpaceOnUse" y1="43" id="2" y2="19" x2="0"><stop id="stop17" stop-color="#a868d4"/><stop id="stop19" stop-color="#ddc5ee" offset="1"/></linearGradient></defs><rect width="18" ry="0.604" height="21" rx="0.604" opacity="0.1" id="rect21" y="1" x="2"/><rect width="18" ry="0.604" height="21" rx="0.604" id="rect23" x="2" fill="url(#0)"/><g id="g25" fill="none"><path stroke="#fff" opacity="0.69" d="M 7.8438,0.5312 A 0.476961,0.476961 0 0 0 7.5313,0.99995 l 0,4.53125 -2.53125,0 a 0.476961,0.476961 0 0 0 -0.375,0.78125 l 6,7 a 0.476961,0.476961 0 0 0 0.75,0 l 6,-7 a 0.476961,0.476961 0 0 0 -0.375,-0.78125 l -2.53125,0 0,-4.53125 A 0.476961,0.476961 0 0 0 14.00005,0.5312 l -6,0 a 0.476961,0.476961 0 0 0 -0.15625,0 z" id="path27"/><path stroke="#000" opacity="0.4" d="m 2.5938,0.5312 c -0.058216,0 -0.0625,0.00428 -0.0625,0.0625 l 0,19.8125 c 0,0.05822 0.00428,0.0625 0.0625,0.0625 l 16.8125,0 c 0.05822,0 0.0625,-0.0043 0.0625,-0.0625 l 0,-19.8125 c 0,-0.058217 -0.0043,-0.0625 -0.0625,-0.0625 l -16.8125,0 z" id="path29"/></g><path d="M 17,6 14,6 14,1 8,1 8,6 5,6 11,13 z" id="path31" fill="url(#2)"/><g id="g33" fill="none"><path stroke="#000" opacity="0.4" d="M 8.5,1.5 8.5,6 A 0.501024,0.501024 0 0 1 8,6.5 L 6.0625,6.5 11,12.25 15.9375,6.5 14,6.5 A 0.501024,0.501024 0 0 1 13.5,6 l 0,-4.5 -5,0 z" id="path35"/><path stroke="url(#1)" opacity="0.8" d="m 3.5312,1.5312 0,17.9375 14.9375,0 0,-17.9375 -14.9375,0 z" id="path37"/></g><metadata id="metadata9999"><rdf:RDF><cc:Work><dc:format>image/svg+xml</dc:format><dc:type rdf:resource="http://purl.org/dc/dcmitype/StillImage"/><dc:title>Ivy icon theme</dc:title><cc:license rdf:resource="http://creativecommons.org/licenses/by-sa/4.0/"/><dc:creator><cc:Agent><dc:title>Sixsixfive (sixsixfive.deviantart.com)</dc:title></cc:Agent></dc:creator><dc:publisher><cc:Agent><dc:title>Sixsixfive (sixsixfive.deviantart.com)</dc:title></cc:Agent></dc:publisher><dc:source>https://github.com/sixsixfive</dc:source><dc:subject><rdf:Bag><rdf:li>ivy</rdf:li></rdf:Bag></dc:subject><dc:contributor><cc:Agent><dc:title>ssf</dc:title></cc:Agent></dc:contributor><dc:rights><cc:Agent><dc:title>Sixsixfive (sixisixfive.deviantart.com)</dc:title></cc:Agent></dc:rights><dc:description>A simple icon theme published under CC-BY-SA_V4(http://creativecommons.org/licenses/by-sa/4.0)</dc:description><dc:identifier>SSF</dc:identifier></cc:Work></rdf:RDF></metadata><!--Part of the Ivy icon them published under the CC-BY-SA_V4: http://creativecommons.org/licenses/by-sa/4.0 -->
</svg>