<?xml version="1.0" encoding="UTF-8" standalone="no"?><svg xmlns:cc="http://creativecommons.org/ns#" viewBox="0 0 22 22" version="1.1" id="svg2" xmlns:svg="http://www.w3.org/2000/svg" xmlns="http://www.w3.org/2000/svg" xmlns:rdf="http://www.w3.org/1999/02/22-rdf-syntax-ns#" xmlns:dc="http://purl.org/dc/elements/1.1/"><defs id="defs4"><linearGradient x2="0" gradientUnits="userSpaceOnUse" y2="44" id="0" gradientTransform="matrix(0.515 0 0 0.5 -1.083 -1)" y1="2"><stop stop-color="#dedede" id="stop7"/><stop offset="1" stop-color="#f4f4f4" id="stop9"/></linearGradient><linearGradient x2="0" gradientUnits="userSpaceOnUse" y2="20" id="1" y1="1"><stop stop-color="#fff" id="stop12"/><stop offset="1" stop-opacity="0" stop-color="#fff" id="stop14"/></linearGradient><linearGradient x2="-4.127" gradientUnits="userSpaceOnUse" x1="-4.186" y2="21.765" id="2" y1="18.234"><stop stop-color="#ebebeb" id="stop17"/><stop offset="1" stop-color="#b7b7b7" id="stop19"/></linearGradient><radialGradient r="5.533" gradientUnits="userSpaceOnUse" cx="-36.514" cy="26.712" id="3" gradientTransform="matrix(0.40292 -0.44879 0.49702 0.36438 21.702 -6.591)"><stop stop-color="#f1d6a5" id="stop22"/><stop offset="1" stop-color="#d49320" id="stop24"/></radialGradient><radialGradient r="14.5" gradientUnits="userSpaceOnUse" cx="0.704" cy="16.184" id="4" gradientTransform="matrix(-0.26977 -0.23214 0.12854 -0.15625 -2.471 22.427)"><stop stop-color="#f28099" id="stop27"/><stop offset="1" stop-color="#ed4c70" id="stop29"/></radialGradient></defs><rect height="21" width="18" opacity="0.1" rx="0.604" ry="0.604" id="rect31" x="2" y="1"/><rect height="21" width="18" rx="0.604" ry="0.604" fill="url(#0)" id="rect33" x="2"/><path opacity="0.8" fill="#fff" id="path35" d="M 17,1 H19 V17 H17 z" color="#000"/><g fill="none" id="g37"><path opacity="0.4" stroke="#000" id="path39" d="m 2.5938,0.5312 c -0.058216,0 -0.0625,0.00428 -0.0625,0.0625 l 0,19.8125 c 0,0.05822 0.00428,0.0625 0.0625,0.0625 l 16.8125,0 c 0.05822,0 0.0625,-0.0043 0.0625,-0.0625 l 0,-19.8125 c 0,-0.058217 -0.0043,-0.0625 -0.0625,-0.0625 l -16.8125,0 z"/><path opacity="0.8" stroke="url(#1)" id="path41" d="m 3.5312,1.5312 0,17.9375 14.9375,0 0,-17.9375 -14.9375,0 z"/></g><path opacity="0.3" id="path43" d="M 5,3 H17 V4 H5 z"/><path opacity="0.3" id="path45" d="M 5,5 H12 V6 H5 z"/><path opacity="0.3" id="path47" d="M 5,7 H14 V8 H5 z"/><path opacity="0.3" id="path49" d="M 5,9 H15 V10 H5 z"/><path opacity="0.3" id="path51" d="M 5,11 H12 V12 H5 z"/><path opacity="0.3" id="path53" d="M 5,13 H14 V14 H5 z"/><path opacity="0.3" id="path55" d="M 5,15 H16 V16 H5 z"/><path opacity="0.3" id="path57" d="M 5,17 H12 V18 H5 z"/><g fill="#fff" id="g59"><path opacity="0.3" id="path61" d="M 5,4 17,4 17,5 5,5 Z"/><path opacity="0.3" id="path63" d="m 5,6 7,0 0,1 -7,0 z"/><path opacity="0.3" id="path65" d="m 5,8 9,0 0,1 -9,0 z"/><path opacity="0.3" id="path67" d="m 5,10 10,0 0,1 -10,0 z"/><path opacity="0.3" id="path69" d="m 5,12 7,0 0,1 -7,0 z"/><path opacity="0.3" id="path71" d="m 5,14 9,0 0,1 -9,0 z"/><path opacity="0.3" id="path73" d="m 5,16 11,0 0,1 -11,0 z"/><path opacity="0.3" id="path75" d="m 5,18 7,0 0,1 -7,0 z"/></g><g id="g77" transform="matrix(0 -1 1 0 0 0)"><path opacity="0.67" fill="#eed45a" id="path79" d="m -16.622,18 14.178,0 0,4 -14.178,0 z"/><path fill="url(#4)" id="rect81" d="m -12.837,18 11.496,0 C -0.59808598,18 0,18.611466 0,19.371 l 0,1.258 C 0,21.388534 -0.59808598,22 -1.341,22 l -11.496,0 c -0.742914,0 -1.341,-0.611466 -1.341,-1.371 l 0,-1.258 c 0,-0.759534 0.598086,-1.371 1.341,-1.371 z"/></g><path fill="url(#3)" id="path83" d="m 18.00002 17 h 4 l -1.9611 4.999951 c -2.038885 -4.999951 0 0 -2.038885 -4.999951 z"/><g id="g85" transform="matrix(0 -1 1 0 0 0)"><path fill="#a07018" id="path87" d="m -17,21 14,0 0,1 -14,0 z"/><path fill="#e4ae4e" id="path89" d="m -17,19.5 14,0 0,1.5 -14,0 z"/><path fill="#eecd92" id="path91" d="m -17,18 14,0 0,1.969 -14,0 z"/><path fill="url(#2)" id="path93" d="m -5,18 2,0 0,4 -2,0 z"/></g><path fill="#6a6a6a" id="path95" d="m 19.109374,20 0.9219,2 0.8906,-2 -1.8125,0 z"/><path opacity="0.06" id="path97" d="M 18.438,17 H21.5 V18 H18.438 z"/><path opacity="0.557" fill="none" stroke="#000" id="path99" d="M 19.375 0.5 C 18.880546 0.5 18.5 0.878697 18.5 1.34375 v 11.5 v 4.03125 l 1.53125 3.75 l 1.46875 -3.71875 v -4.0625 v -11.5 C 21.5 0.878697 21.11945 0.5 20.625 0.5 h -1.25 z"/><metadata id="metadata9999"><rdf:RDF><cc:Work><dc:format>image/svg+xml</dc:format><dc:type rdf:resource="http://purl.org/dc/dcmitype/StillImage"/><dc:title>Ivy icon theme</dc:title><cc:license rdf:resource="http://creativecommons.org/licenses/by-sa/4.0/"/><dc:creator><cc:Agent><dc:title>Sixsixfive (sixsixfive.deviantart.com)</dc:title></cc:Agent></dc:creator><dc:publisher><cc:Agent><dc:title>Sixsixfive (sixsixfive.deviantart.com)</dc:title></cc:Agent></dc:publisher><dc:source>https://github.com/sixsixfive</dc:source><dc:subject><rdf:Bag><rdf:li>ivy</rdf:li></rdf:Bag></dc:subject><dc:contributor><cc:Agent><dc:title>ssf</dc:title></cc:Agent></dc:contributor><dc:rights><cc:Agent><dc:title>Sixsixfive (sixisixfive.deviantart.com)</dc:title></cc:Agent></dc:rights><dc:description>A simple icon theme published under CC-BY-SA_V4(http://creativecommons.org/licenses/by-sa/4.0)</dc:description><dc:identifier>SSF</dc:identifier></cc:Work></rdf:RDF></metadata><!--Part of the Ivy icon them published under the CC-BY-SA_V4: http://creativecommons.org/licenses/by-sa/4.0 -->
</svg>