<?xml version="1.0" encoding="UTF-8" standalone="no"?><svg xmlns:xlink="http://www.w3.org/1999/xlink" xmlns:cc="http://creativecommons.org/ns#" viewBox="0 0 22 22" version="1.1" id="svg2" xmlns:svg="http://www.w3.org/2000/svg" xmlns:rdf="http://www.w3.org/1999/02/22-rdf-syntax-ns#" xmlns="http://www.w3.org/2000/svg" xmlns:dc="http://purl.org/dc/elements/1.1/"><defs id="defs4"><linearGradient id="linearGradient3780"><stop id="stop3782" stop-color="#fff"/><stop offset="1" stop-opacity="0" id="stop3784" stop-color="#fff"/></linearGradient><linearGradient id="linearGradient3810"><stop id="stop3812" stop-color="#464646"/><stop offset="1" id="stop3814" stop-color="#6a6a6a"/></linearGradient><linearGradient x2="0" gradientUnits="userSpaceOnUse" xlink:href="#linearGradient3810" id="linearGradient3816" y2="41" gradientTransform="matrix(0.45833333 0 0 0.45833333 -0.014323 0)" y1="7"/><linearGradient x2="0" gradientUnits="userSpaceOnUse" xlink:href="#linearGradient3780" id="linearGradient3786" y2="18" y1="4"/></defs><path opacity="0.1" id="path3788" d="M 9,4 21,4 21,20 9,20 1,12 z"/><path fill="url(#linearGradient3816)" id="rect3011" d="M 9,3 21,3 21,19 9,19 1,11 z"/><path opacity="0.4" fill="none" id="path3008" stroke="#000" transform="matrix(-1 0 0 1 22 0)" d="m 1.5,3.5 0,15 11.3125,0 7.5,-7.5 -7.5,-7.5 L 1.5,3.5 z"/><path opacity="0.4" fill="none" id="path3010" stroke="url(#linearGradient3786)" transform="matrix(-1 0 0 1 22 0)" d="m 2.5,4.5 0,13 9.875,0 6.5,-6.5 -6.5,-6.5 -9.875,0 z"/><path opacity="0.28" id="path10079" d="M 15.695579,5 18,7.3044212 15.304421,9.999999 18,12.695578 15.695579,15 13,12.304421 10.304422,15 8,12.695578 10.695579,9.999999 8,7.3044212 10.304422,5 13,7.6955779 15.695579,5 z"/><path fill="#fff" id="path10081" d="M 15.695579,6 18,8.304421 15.304421,10.999999 18,13.695578 15.695579,16 13,13.304421 10.304422,16 8,13.695578 10.695579,10.999999 8,8.304421 10.304422,6 13,8.695578 15.695579,6 z"/><metadata id="metadata9999"><rdf:RDF><cc:Work><dc:format>image/svg+xml</dc:format><dc:type rdf:resource="http://purl.org/dc/dcmitype/StillImage"/><dc:title>Ivy icon theme</dc:title><cc:license rdf:resource="http://creativecommons.org/licenses/by-sa/4.0/"/><dc:creator><cc:Agent><dc:title>Sixsixfive (sixsixfive.deviantart.com)</dc:title></cc:Agent></dc:creator><dc:publisher><cc:Agent><dc:title>Sixsixfive (sixsixfive.deviantart.com)</dc:title></cc:Agent></dc:publisher><dc:source>https://github.com/sixsixfive</dc:source><dc:subject><rdf:Bag><rdf:li>ivy</rdf:li></rdf:Bag></dc:subject><dc:contributor><cc:Agent><dc:title>ssf</dc:title></cc:Agent></dc:contributor><dc:rights><cc:Agent><dc:title>Sixsixfive (sixisixfive.deviantart.com)</dc:title></cc:Agent></dc:rights><dc:description>A simple icon theme published under CC-BY-SA_V4(http://creativecommons.org/licenses/by-sa/4.0)</dc:description><dc:identifier>SSF</dc:identifier></cc:Work></rdf:RDF></metadata><!--Part of the Ivy icon them published under the CC-BY-SA_V4: http://creativecommons.org/licenses/by-sa/4.0 -->
</svg>