<?xml version="1.0" encoding="UTF-8" standalone="no"?>
<svg xmlns:dc="http://purl.org/dc/elements/1.1/" xmlns:cc="http://creativecommons.org/ns#" xmlns:rdf="http://www.w3.org/1999/02/22-rdf-syntax-ns#" xmlns:svg="http://www.w3.org/2000/svg" xmlns="http://www.w3.org/2000/svg" viewBox="0 0 22 22" id="svg2" version="1.1">
 <defs id="defs4">
  <linearGradient id="0" y1="0" y2="21" x2="0" gradientUnits="userSpaceOnUse">
   <stop stop-color="#66b03e" id="stop7"/>
   <stop offset="1" stop-color="#94ce77" id="stop9"/>
  </linearGradient>
  <linearGradient id="1" y1="1" y2="20" x2="0" gradientUnits="userSpaceOnUse">
   <stop stop-color="#fff" id="stop12"/>
   <stop offset="1" stop-color="#fff" stop-opacity="0" id="stop14"/>
  </linearGradient>
 </defs>
 <rect width="21" x="1" opacity="0.1" y="1" rx="2" height="21" ry="2" id="rect16"/>
 <rect width="21" x="1" fill="url(#0)" rx="2" height="21" ry="2" id="rect18"/>
 <g id="g20" fill="none">
  <path d="M 3,0.5 C 2.156104,0.5 1.5,1.156104 1.5,2 l 0,17 c 0,0.843896 0.656104,1.5 1.5,1.5 l 17,0 c 0.843896,0 1.5,-0.656104 1.5,-1.5 l 0,-17 C 21.5,1.156104 20.843896,0.5 20,0.5 l -17,0 z" id="path22" opacity="0.4" stroke="#000"/>
  <path d="M 3,1.5 C 2.692658,1.5 2.5,1.692658 2.5,2 l 0,17 c 0,0.307342 0.192658,0.5 0.5,0.5 l 17,0 c 0.307342,0 0.5,-0.192658 0.5,-0.5 l 0,-17 C 20.5,1.692658 20.307342,1.5 20,1.5 l -17,0 z" id="path24" opacity="0.4" stroke="url(#1)"/>
  <g transform="translate(19.901,-3.352)" id="g26" stroke-linecap="round">
   <g id="g28" stroke-width="3.06">
    <path d="m -3.9973,8.848 c 1.64954,1.87826 1.94576,4.8958 1.05812,7.35589 -0.88764,2.46009 -3.14408,3.58059 -5.47266,3.58436 -2.32857,0.0037 -4.58929,-1.10943 -5.48302,-3.56664 -0.89373,-2.45721 -0.593181,-5.49002 1.05171,-7.37361" id="path30" opacity="0.4" stroke="#000"/>
    <path d="m -3.9973,9.848 c 1.64954,1.87826 1.94576,4.8958 1.05812,7.35589 -0.88764,2.46009 -3.14408,3.58059 -5.47266,3.58436 -2.32857,0.0037 -4.58929,-1.10943 -5.48302,-3.56664 -0.89373,-2.45721 -0.593181,-5.49002 1.05171,-7.37361" id="path32" stroke="#fff"/>
   </g>
   <g id="g34" stroke-width="2.964">
    <path d="m -8.4187,7.7826 0,5.0879" id="path36" opacity="0.4" stroke="#000"/>
    <path d="m -8.4187,8.7826 0,5.0879" id="path38" stroke="#fff"/>
   </g>
  </g>
 </g>
 <metadata id="metadata9999">
  <rdf:RDF>
   <cc:Work>
    <dc:format>image/svg+xml</dc:format>
    <dc:type rdf:resource="http://purl.org/dc/dcmitype/StillImage"/>
    <dc:title>Ivy icon theme</dc:title>
    <cc:license rdf:resource="http://creativecommons.org/licenses/by-sa/4.0/"/>
    <dc:creator>
     <cc:Agent>
      <dc:title>Sixsixfive (sixsixfive.deviantart.com)</dc:title>
     </cc:Agent>
    </dc:creator>
    <dc:publisher>
     <cc:Agent>
      <dc:title>Sixsixfive (sixsixfive.deviantart.com)</dc:title>
     </cc:Agent>
    </dc:publisher>
    <dc:source>https://github.com/sixsixfive</dc:source>
    <dc:subject>
     <rdf:Bag>
      <rdf:li>ivy</rdf:li>
     </rdf:Bag>
    </dc:subject>
    <dc:contributor>
     <cc:Agent>
      <dc:title>ssf</dc:title>
     </cc:Agent>
    </dc:contributor>
    <dc:rights>
     <cc:Agent>
      <dc:title>Sixsixfive (sixisixfive.deviantart.com)</dc:title>
     </cc:Agent>
    </dc:rights>
    <dc:description>A simple icon theme published under CC-BY-SA_V4(http://creativecommons.org/licenses/by-sa/4.0)</dc:description>
    <dc:identifier>SSF</dc:identifier>
   </cc:Work>
  </rdf:RDF>
 </metadata>
 <!--Part of the Ivy icon them published under the CC-BY-SA_V4: http://creativecommons.org/licenses/by-sa/4.0 -->
</svg>
