<?xml version="1.0" encoding="UTF-8" standalone="no"?>
<svg xmlns:dc="http://purl.org/dc/elements/1.1/" xmlns:cc="http://creativecommons.org/ns#" xmlns:rdf="http://www.w3.org/1999/02/22-rdf-syntax-ns#" xmlns:svg="http://www.w3.org/2000/svg" xmlns="http://www.w3.org/2000/svg" xmlns:xlink="http://www.w3.org/1999/xlink" version="1.1" viewBox="0 0 22 22" id="svg2">
 <defs id="defs4">
  <linearGradient id="linearGradient3780">
   <stop stop-color="#fff" id="stop3782"/>
   <stop offset="1" stop-color="#fff" id="stop3784" stop-opacity="0"/>
  </linearGradient>
  <linearGradient id="linearGradient3810">
   <stop stop-color="#464646" id="stop3812"/>
   <stop offset="1" stop-color="#6a6a6a" id="stop3814"/>
  </linearGradient>
  <linearGradient id="linearGradient3816" xlink:href="#linearGradient3810" y1="7" y2="41" x2="0" gradientUnits="userSpaceOnUse" gradientTransform="matrix(-0.45833333 0 0 0.45833333 22.01432 0)"/>
  <linearGradient id="linearGradient3786" xlink:href="#linearGradient3780" y1="4" y2="18" x2="0" gradientUnits="userSpaceOnUse"/>
 </defs>
 <path opacity="0.1" id="path3788" d="M 13,4 1,4 1,20 13,20 21,12 z"/>
 <path fill="url(#linearGradient3816)" id="rect3011" d="M 13,3 1,3 1,19 13,19 21,11 z"/>
 <path opacity="0.4" fill="none" stroke="#000" id="path3008" d="m 1.5,3.5 0,15 11.3125,0 7.5,-7.5 -7.5,-7.5 L 1.5,3.5 z"/>
 <path opacity="0.4" fill="none" stroke="url(#linearGradient3786)" id="path3010" d="m 2.5,4.5 0,13 9.875,0 6.5,-6.5 -6.5,-6.5 -9.875,0 z"/>
 <path opacity="0.28" id="path10079" d="M 6.3044212,5 4,7.3044212 6.6955788,9.999999 4,12.695578 6.3044212,15 9,12.304421 11.695578,15 14,12.695578 11.304421,9.999999 14,7.3044212 11.695578,5 9,7.6955779 6.3044212,5 z"/>
 <path fill="#fff" id="path10081" d="M 6.304421,6 4,8.304421 6.695579,10.999999 4,13.695578 6.304421,16 9,13.304421 11.695578,16 14,13.695578 11.304421,10.999999 14,8.304421 11.695578,6 9,8.695578 6.304421,6 z"/>
 <metadata id="metadata9999">
  <rdf:RDF>
   <cc:Work>
    <dc:format>image/svg+xml</dc:format>
    <dc:type rdf:resource="http://purl.org/dc/dcmitype/StillImage"/>
    <dc:title>Ivy icon theme</dc:title>
    <cc:license rdf:resource="http://creativecommons.org/licenses/by-sa/4.0/"/>
    <dc:creator>
     <cc:Agent>
      <dc:title>Sixsixfive (sixsixfive.deviantart.com)</dc:title>
     </cc:Agent>
    </dc:creator>
    <dc:publisher>
     <cc:Agent>
      <dc:title>Sixsixfive (sixsixfive.deviantart.com)</dc:title>
     </cc:Agent>
    </dc:publisher>
    <dc:source>https://github.com/sixsixfive</dc:source>
    <dc:subject>
     <rdf:Bag>
      <rdf:li>ivy</rdf:li>
     </rdf:Bag>
    </dc:subject>
    <dc:contributor>
     <cc:Agent>
      <dc:title>ssf</dc:title>
     </cc:Agent>
    </dc:contributor>
    <dc:rights>
     <cc:Agent>
      <dc:title>Sixsixfive (sixisixfive.deviantart.com)</dc:title>
     </cc:Agent>
    </dc:rights>
    <dc:description>A simple icon theme published under CC-BY-SA_V4(http://creativecommons.org/licenses/by-sa/4.0)</dc:description>
    <dc:identifier>SSF</dc:identifier>
   </cc:Work>
  </rdf:RDF>
 </metadata>
 <!--Part of the Ivy icon them published under the CC-BY-SA_V4: http://creativecommons.org/licenses/by-sa/4.0 -->
</svg>
