<?xml version="1.0" encoding="UTF-8" standalone="no"?><svg viewBox="0 0 22 22" xmlns="http://www.w3.org/2000/svg" xmlns:svg="http://www.w3.org/2000/svg" xmlns:rdf="http://www.w3.org/1999/02/22-rdf-syntax-ns#" version="1.1" id="svg2" xmlns:dc="http://purl.org/dc/elements/1.1/" xmlns:cc="http://creativecommons.org/ns#"><defs id="defs4"><linearGradient y1="43" x2="0" y2="5" gradientTransform="matrix(0.5 0 0 0.47368 -1 -0.368)" id="0" gradientUnits="userSpaceOnUse"><stop id="stop7" stop-color="#ddd"/><stop offset="1" id="stop9" stop-color="#fff"/></linearGradient><linearGradient y1="3.045" x2="0" y2="18.955" id="1" gradientUnits="userSpaceOnUse"><stop id="stop12" stop-color="#fff"/><stop stop-opacity="0" offset="1" id="stop14" stop-color="#fff"/></linearGradient></defs><path opacity="0.1" id="path16" d="M 1,3 H21 V21 H1 z"/><path id="path18" d="M 1,2 H21 V20 H1 z" fill="url(#0)"/><path stroke="#000" opacity="0.4" id="path20" d="m 1.53125 2.53125 v 16.9375 h 18.9375 v -16.9375 h -18.9375 z" fill="none"/><g id="g22" fill="#fff"><path opacity="0.7" id="path24" color="#000" d="m 3,11 16,0 0,1 -16,0 z"/><path opacity="0.6" id="path26" d="m 9,6 -5,11 3,0 3,-8 2,0 3,8 3,0 -5,-11 z"/></g><path stroke="url(#1)" opacity="0.4" id="path28" d="m 2.53125 3.53125 v 14.9375 h 16.9375 v -14.9375 h -16.9375 z" fill="none"/><path opacity="0.6" id="path30" d="M 7.06,13.04 H14.498 V15 H7.06 z" fill="#fff"/><g id="g32" fill="#6a6a6a"><path id="path34" d="m 9,5 -5,11 3,0 3,-8 2,0 3,8 3,0 -5,-11 z"/><path id="path36" d="m 7.06,12.04 7.438,0 0,1.96 -7.438,0 z"/><path id="path38" color="#000" d="m 3,10 16,0 0,1 -16,0 z"/></g><metadata id="metadata9999"><rdf:RDF><cc:Work><dc:format>image/svg+xml</dc:format><dc:type rdf:resource="http://purl.org/dc/dcmitype/StillImage"/><dc:title>Ivy icon theme</dc:title><cc:license rdf:resource="http://creativecommons.org/licenses/by-sa/4.0/"/><dc:creator><cc:Agent><dc:title>Sixsixfive (sixsixfive.deviantart.com)</dc:title></cc:Agent></dc:creator><dc:publisher><cc:Agent><dc:title>Sixsixfive (sixsixfive.deviantart.com)</dc:title></cc:Agent></dc:publisher><dc:source>https://github.com/sixsixfive</dc:source><dc:subject><rdf:Bag><rdf:li>ivy</rdf:li></rdf:Bag></dc:subject><dc:contributor><cc:Agent><dc:title>ssf</dc:title></cc:Agent></dc:contributor><dc:rights><cc:Agent><dc:title>Sixsixfive (sixisixfive.deviantart.com)</dc:title></cc:Agent></dc:rights><dc:description>A simple icon theme published under CC-BY-SA_V4(http://creativecommons.org/licenses/by-sa/4.0)</dc:description><dc:identifier>SSF</dc:identifier></cc:Work></rdf:RDF></metadata><!--Part of the Ivy icon them published under the CC-BY-SA_V4: http://creativecommons.org/licenses/by-sa/4.0 -->
</svg>