<?xml version="1.0" encoding="UTF-8" standalone="no"?>
<svg xmlns:dc="http://purl.org/dc/elements/1.1/" xmlns:cc="http://creativecommons.org/ns#" xmlns:rdf="http://www.w3.org/1999/02/22-rdf-syntax-ns#" xmlns:svg="http://www.w3.org/2000/svg" xmlns="http://www.w3.org/2000/svg" viewBox="0 0 22 22" id="svg2" version="1.1">
 <defs id="defs4">
  <linearGradient id="0" y1="2" y2="44" x2="0" gradientUnits="userSpaceOnUse" gradientTransform="matrix(0.515 0 0 0.5 -1.083 -1)">
   <stop stop-color="#dedede" id="stop7"/>
   <stop offset="1" stop-color="#f4f4f4" id="stop9"/>
  </linearGradient>
  <linearGradient id="1" y1="1" y2="20" x2="0" gradientUnits="userSpaceOnUse">
   <stop stop-color="#fff" id="stop12"/>
   <stop offset="1" stop-color="#fff" stop-opacity="0" id="stop14"/>
  </linearGradient>
  <linearGradient id="2" y1="43" y2="19" x2="0" gradientUnits="userSpaceOnUse" gradientTransform="matrix(-0.49845 0 0 0.5 22.963 -1.472)">
   <stop stop-color="#ffb580" id="stop17"/>
   <stop offset="1" stop-color="#ff8b36" id="stop19"/>
  </linearGradient>
 </defs>
 <rect width="18" x="2" opacity="0.1" y="1" rx="0.604" height="21" ry="0.604" id="rect21"/>
 <rect width="18" x="2" fill="url(#0)" rx="0.604" height="21" ry="0.604" id="rect23"/>
 <g id="g25" fill="none">
  <path d="m 7.8438,20.496578 a 0.476961,0.476961 0 0 1 -0.3125,-0.46875 l 0,-4.53125 -2.53125,0 a 0.476961,0.476961 0 0 1 -0.375,-0.78125 l 6,-7 a 0.476961,0.476961 0 0 1 0.75,0 l 6,7 a 0.476961,0.476961 0 0 1 -0.375,0.78125 l -2.53125,0 0,4.53125 a 0.476961,0.476961 0 0 1 -0.46875,0.46875 l -6,0 a 0.476961,0.476961 0 0 1 -0.15625,0 z" id="path27" opacity="0.69" stroke="#fff"/>
  <path d="m 2.5938,0.5312 c -0.058216,0 -0.0625,0.00428 -0.0625,0.0625 l 0,19.8125 c 0,0.05822 0.00428,0.0625 0.0625,0.0625 l 16.8125,0 c 0.05822,0 0.0625,-0.0043 0.0625,-0.0625 l 0,-19.8125 c 0,-0.058217 -0.0043,-0.0625 -0.0625,-0.0625 l -16.8125,0 z" id="path29" opacity="0.4" stroke="#000"/>
 </g>
 <path fill="url(#2)" d="m 17,15.0278 -3,0 0,5 -6,0 0,-5 -3,0 6,-7 z" id="path31"/>
 <g id="g33" fill="none">
  <path d="m 8.5,19.527778 0,-4.5 a 0.501024,0.501024 0 0 0 -0.5,-0.5 l -1.9375,0 4.9375,-5.75 4.9375,5.75 -1.9375,0 a 0.501024,0.501024 0 0 0 -0.5,0.5 l 0,4.5 -5,0 z" id="path35" opacity="0.4" stroke="#000"/>
  <path d="m 3.5312,1.5312 0,17.9375 14.9375,0 0,-17.9375 -14.9375,0 z" id="path37" opacity="0.8" stroke="url(#1)"/>
 </g>
 <metadata id="metadata9999">
  <rdf:RDF>
   <cc:Work>
    <dc:format>image/svg+xml</dc:format>
    <dc:type rdf:resource="http://purl.org/dc/dcmitype/StillImage"/>
    <dc:title>Ivy icon theme</dc:title>
    <cc:license rdf:resource="http://creativecommons.org/licenses/by-sa/4.0/"/>
    <dc:creator>
     <cc:Agent>
      <dc:title>Sixsixfive (sixsixfive.deviantart.com)</dc:title>
     </cc:Agent>
    </dc:creator>
    <dc:publisher>
     <cc:Agent>
      <dc:title>Sixsixfive (sixsixfive.deviantart.com)</dc:title>
     </cc:Agent>
    </dc:publisher>
    <dc:source>https://github.com/sixsixfive</dc:source>
    <dc:subject>
     <rdf:Bag>
      <rdf:li>ivy</rdf:li>
     </rdf:Bag>
    </dc:subject>
    <dc:contributor>
     <cc:Agent>
      <dc:title>ssf</dc:title>
     </cc:Agent>
    </dc:contributor>
    <dc:rights>
     <cc:Agent>
      <dc:title>Sixsixfive (sixisixfive.deviantart.com)</dc:title>
     </cc:Agent>
    </dc:rights>
    <dc:description>A simple icon theme published under CC-BY-SA_V4(http://creativecommons.org/licenses/by-sa/4.0)</dc:description>
    <dc:identifier>SSF</dc:identifier>
   </cc:Work>
  </rdf:RDF>
 </metadata>
 <!--Part of the Ivy icon them published under the CC-BY-SA_V4: http://creativecommons.org/licenses/by-sa/4.0 -->
</svg>
