<?xml version="1.0" encoding="UTF-8" standalone="no"?>
<svg xmlns:dc="http://purl.org/dc/elements/1.1/" xmlns:cc="http://creativecommons.org/ns#" xmlns:rdf="http://www.w3.org/1999/02/22-rdf-syntax-ns#" xmlns:svg="http://www.w3.org/2000/svg" xmlns="http://www.w3.org/2000/svg" xmlns:xlink="http://www.w3.org/1999/xlink" viewBox="0 0 22 22" version="1.1" id="svg2">
 <defs id="defs4">
  <linearGradient id="linearGradient3803">
   <stop id="stop3805" stop-color="#fff"/>
   <stop stop-opacity="0" id="stop3807" stop-color="#fff" offset="1"/>
  </linearGradient>
  <linearGradient x1="7" gradientTransform="matrix(0,1,-1,0,8,0)" gradientUnits="userSpaceOnUse" x2="15" xlink:href="#linearGradient3803" id="linearGradient3809"/>
  <linearGradient x1="7.03125" gradientTransform="matrix(0,1,-1,0,22,0)" y2="6" x2="15" y1="5.96875" gradientUnits="userSpaceOnUse" id="linearGradient3379" xlink:href="#linearGradient3803"/>
  <linearGradient x1="7.03125" gradientTransform="matrix(0,1,-1,0,15,0)" x2="14.96875" gradientUnits="userSpaceOnUse" id="linearGradient3381" xlink:href="#linearGradient3803"/>
 </defs>
 <rect transform="matrix(0,1,-1,0,0,0)" id="rect3852" height="6" y="-21" x="7" width="10" opacity="0.1"/>
 <rect transform="matrix(0,1,-1,0,0,0)" id="rect3854" height="6" y="-7" x="7" width="10" opacity="0.1"/>
 <rect width="10" x="7" y="-14" height="6" id="rect3394" transform="matrix(0,1,-1,0,0,0)" opacity="0.1"/>
 <rect transform="matrix(0,1,-1,0,0,0)" id="rect3034" height="6" y="-21" x="6" width="10" fill="#5288d1"/>
 <path d="m 20.46875,6.53125 -4.9375,0 0,8.9375 4.9375,0 0,-8.9375 z" id="path3031" opacity="0.4" fill="none" stroke="#000"/>
 <path d="m 19.46875,7.53125 -2.9375,0 0,6.9375 2.9375,0 0,-6.9375 z" id="path3033" opacity="0.4" fill="none" stroke="url(#linearGradient3379)"/>
 <rect transform="matrix(0,1,-1,0,0,0)" id="rect3836" height="6" y="-14" x="6" width="10" fill="#5288d1"/>
 <path d="m 13.46875,6.53125 -4.9375,0 0,8.9375 4.9375,0 0,-8.9375 z" id="path3838" opacity="0.4" fill="none" stroke="#000"/>
 <path d="m 12.46875,7.53125 -2.9375,0 0,6.9375 2.9375,0 0,-6.9375 z" id="path3840" opacity="0.4" fill="none" stroke="url(#linearGradient3381)"/>
 <rect transform="matrix(0,1,-1,0,0,0)" id="rect3844" height="6" y="-7" x="6" width="10" fill="#5288d1"/>
 <path d="m 6.46875,6.53125 -4.9375,0 0,8.9375 4.9375,0 0,-8.9375 z" id="path3846" opacity="0.4" fill="none" stroke="#000"/>
 <path d="m 5.46875,7.53125 -2.9375,0 0,6.9375 2.9375,0 0,-6.9375 z" id="path3848" opacity="0.4" fill="none" stroke="url(#linearGradient3809)"/>
 <metadata id="metadata9999">
  <rdf:RDF>
   <cc:Work>
    <dc:format>image/svg+xml</dc:format>
    <dc:type rdf:resource="http://purl.org/dc/dcmitype/StillImage"/>
    <dc:title>Ivy icon theme</dc:title>
    <cc:license rdf:resource="http://creativecommons.org/licenses/by-sa/4.0/"/>
    <dc:creator>
     <cc:Agent>
      <dc:title>Sixsixfive (sixsixfive.deviantart.com)</dc:title>
     </cc:Agent>
    </dc:creator>
    <dc:publisher>
     <cc:Agent>
      <dc:title>Sixsixfive (sixsixfive.deviantart.com)</dc:title>
     </cc:Agent>
    </dc:publisher>
    <dc:source>https://github.com/sixsixfive</dc:source>
    <dc:subject>
     <rdf:Bag>
      <rdf:li>ivy</rdf:li>
     </rdf:Bag>
    </dc:subject>
    <dc:contributor>
     <cc:Agent>
      <dc:title>ssf</dc:title>
     </cc:Agent>
    </dc:contributor>
    <dc:rights>
     <cc:Agent>
      <dc:title>Sixsixfive (sixisixfive.deviantart.com)</dc:title>
     </cc:Agent>
    </dc:rights>
    <dc:description>A simple icon theme published under CC-BY-SA_V4(http://creativecommons.org/licenses/by-sa/4.0)</dc:description>
    <dc:identifier>SSF</dc:identifier>
   </cc:Work>
  </rdf:RDF>
 </metadata>
 <!--Part of the Ivy icon them published under the CC-BY-SA_V4: http://creativecommons.org/licenses/by-sa/4.0 -->
</svg>
