<?xml version="1.0" encoding="UTF-8" standalone="no"?><svg xmlns:xlink="http://www.w3.org/1999/xlink" xmlns:cc="http://creativecommons.org/ns#" viewBox="0 0 22 22" version="1.1" id="svg2" xmlns:svg="http://www.w3.org/2000/svg" xmlns:rdf="http://www.w3.org/1999/02/22-rdf-syntax-ns#" xmlns="http://www.w3.org/2000/svg" xmlns:dc="http://purl.org/dc/elements/1.1/"><defs id="0"><linearGradient id="linearGradient4172"><stop stop-color="#fff" id="stop4174"/><stop offset="1" stop-opacity="0" stop-color="#fff" id="stop4176"/></linearGradient><linearGradient id="linearGradient4165"><stop stop-color="#eed45a" id="stop4167"/><stop offset="1" stop-color="#e9c82a" id="stop4169"/></linearGradient><linearGradient x2="45" gradientUnits="userSpaceOnUse" x1="3" xlink:href="#linearGradient4165" id="linearGradient4171" gradientTransform="matrix(0 -0.47619048 -0.45833333 0 22.416667 22.428572)"/><linearGradient x2="3.0762713" gradientUnits="userSpaceOnUse" x1="15.847458" xlink:href="#linearGradient4172" id="linearGradient4178" y2="19.813559" gradientTransform="matrix(-1 0 0 1 21 0)" y1="19.59322"/></defs><g id="g4157" transform="matrix(0 1 -1 0 22 1)"><path opacity="0.1" id="path4192" d="M 17,21 6,21 6,1 l 11,0 0,20 0,0 z"/><path fill="url(#linearGradient4171)" id="2" d="M 16,21 5,21 5,1 l 11,0 0,20 0,0 z"/><rect stroke-dasharray="39 19.5 9.75 19.5" height="1" width="3" stroke-linejoin="round" opacity="0.4" id="rect4151" stroke-width="19.5" stroke-linecap="round" x="-15" transform="matrix(-1 0 0 1 0 0)" y="3"/><rect stroke-dasharray="39 19.5 9.75 19.5" height="1" width="5" stroke-linejoin="round" opacity="0.4" id="rect4153" stroke-width="19.5" stroke-linecap="round" x="-15" transform="matrix(-1 0 0 1 0 0)" y="6"/><rect stroke-dasharray="39 19.5 9.75 19.5" height="1" width="3" stroke-linejoin="round" opacity="0.4" id="rect4155" stroke-width="19.5" stroke-linecap="round" x="-15" transform="matrix(-1 0 0 1 0 0)" y="9"/><rect stroke-dasharray="39 19.5 9.75 19.5" height="1" width="5" stroke-linejoin="round" opacity="0.4" id="rect4157" stroke-width="19.5" stroke-linecap="round" x="-15" transform="matrix(-1 0 0 1 0 0)" y="12"/><rect stroke-dasharray="39 19.5 9.75 19.5" height="1" width="3" stroke-linejoin="round" opacity="0.4" id="rect4159" stroke-width="19.5" stroke-linecap="round" x="-15" transform="matrix(-1 0 0 1 0 0)" y="15"/><rect stroke-dasharray="39 19.5 9.75 19.5" height="1" width="5" stroke-linejoin="round" opacity="0.4" id="rect4161" stroke-width="19.5" stroke-linecap="round" x="-15" transform="matrix(-1 0 0 1 0 0)" y="18"/><path opacity="0.4" fill="none" id="path4168" stroke="#000" d="m 15.496094,1.5039062 0,18.9921878 -9.992188,0 0,-18.9921878 9.992188,0 z"/><path opacity="0.4" fill="none" id="path4170" stroke="url(#linearGradient4178)" d="m 14.488281,2.5117188 0,16.9765622 -7.976562,0 0,-16.9765622 7.976562,0 z"/><rect stroke-dasharray="39 19.5 9.75 19.5" height="1" width="3" stroke-linejoin="round" opacity="0.2" fill="#fff" id="rect4180" stroke-width="19.5" stroke-linecap="round" x="-15" transform="matrix(-1 0 0 1 0 0)" y="2"/><rect stroke-dasharray="39 19.5 9.75 19.5" height="1" width="5" stroke-linejoin="round" opacity="0.2" fill="#fff" id="rect4182" stroke-width="19.5" stroke-linecap="round" x="-15" transform="matrix(-1 0 0 1 0 0)" y="5"/><rect stroke-dasharray="39 19.5 9.75 19.5" height="1" width="3" stroke-linejoin="round" opacity="0.2" fill="#fff" id="rect4184" stroke-width="19.5" stroke-linecap="round" x="-15" transform="matrix(-1 0 0 1 0 0)" y="8"/><rect stroke-dasharray="39 19.5 9.75 19.5" height="1" width="5" stroke-linejoin="round" opacity="0.2" fill="#fff" id="rect4186" stroke-width="19.5" stroke-linecap="round" x="-15" transform="matrix(-1 0 0 1 0 0)" y="11"/><rect stroke-dasharray="39 19.5 9.75 19.5" height="1" width="3" stroke-linejoin="round" opacity="0.2" fill="#fff" id="rect4188" stroke-width="19.5" stroke-linecap="round" x="-15" transform="matrix(-1 0 0 1 0 0)" y="14"/><rect stroke-dasharray="39 19.5 9.75 19.5" height="1" width="5" stroke-linejoin="round" opacity="0.2" fill="#fff" id="rect4190" stroke-width="19.5" stroke-linecap="round" x="-15" transform="matrix(-1 0 0 1 0 0)" y="17"/></g><metadata id="metadata9999"><rdf:RDF><cc:Work><dc:format>image/svg+xml</dc:format><dc:type rdf:resource="http://purl.org/dc/dcmitype/StillImage"/><dc:title/><cc:license rdf:resource="http://creativecommons.org/licenses/by-sa/4.0/"/><dc:creator><cc:Agent><dc:title>Sixsixfive (sixsixfive.deviantart.com)</dc:title></cc:Agent></dc:creator><dc:publisher><cc:Agent><dc:title>Sixsixfive (sixsixfive.deviantart.com)</dc:title></cc:Agent></dc:publisher><dc:source>https://github.com/sixsixfive</dc:source><dc:subject><rdf:Bag><rdf:li>ivy</rdf:li></rdf:Bag></dc:subject><dc:contributor><cc:Agent><dc:title>ssf</dc:title></cc:Agent></dc:contributor><dc:rights><cc:Agent><dc:title>Sixsixfive (sixisixfive.deviantart.com)</dc:title></cc:Agent></dc:rights><dc:description>A simple icon theme published under CC-BY-SA_V4(http://creativecommons.org/licenses/by-sa/4.0)</dc:description><dc:identifier>SSF</dc:identifier></cc:Work></rdf:RDF></metadata><!--Part of the Ivy icon them published under the CC-BY-SA_V4: http://creativecommons.org/licenses/by-sa/4.0 -->
</svg>