<?xml version="1.0" encoding="UTF-8" standalone="no"?>
<svg xmlns:dc="http://purl.org/dc/elements/1.1/" xmlns:cc="http://creativecommons.org/ns#" xmlns:rdf="http://www.w3.org/1999/02/22-rdf-syntax-ns#" xmlns:svg="http://www.w3.org/2000/svg" xmlns="http://www.w3.org/2000/svg" xmlns:xlink="http://www.w3.org/1999/xlink" viewBox="0 0 48 48" id="svg2" version="1.1">
 <defs id="defs4">
  <linearGradient id="0">
   <stop stop-color="#fff" id="stop7"/>
   <stop offset="1" stop-color="#fff" stop-opacity="0" id="stop9"/>
  </linearGradient>
  <linearGradient id="1" xlink:href="#0" y1="37.08" x1="3.864" y2="37" x2="24" gradientUnits="userSpaceOnUse"/>
  <linearGradient id="2" xlink:href="#0" y1="3.797" x1="25.288" y2="4.356" x2="43.797" gradientUnits="userSpaceOnUse"/>
 </defs>
 <g transform="matrix(0,1,-1,0,48.01,0.099)" id="g13">
  <path d="m 45.9011,3.0005 -20,4 -22,0 0,31 22,0 20,7 0,-42 z" id="path15" opacity="0.1"/>
  <path d="M 3,7 25,7 25,38 3,38 Z" id="path17" fill="#ff8b36"/>
  <path d="M 25,7 45,3 45,45 25,38 Z" id="path19" fill="#ebebeb"/>
  <path d="m 44.5,3.5938 -19.4062,3.875 a 0.490954,0.490954 0 0 1 -0.09375,0.03125 l -21.5,0 0,30 21.5,0 a 0.490954,0.490954 0 0 1 0.15625,0.03125 l 19.3438,6.7812 0,-40.7188 z" id="path21" opacity="0.5" fill="none" stroke="#000"/>
  <path d="m 24,8 1,0 0,29 -1,0 z" id="path23" opacity="0.4" fill="#171717"/>
  <g id="g25" fill="none">
   <path d="m 4.4375,8.4375 0,28.125 19.125,0 0,-28.125 -19.125,0 z" id="path27" opacity="0.55" stroke="url(#1)"/>
   <path d="M 43.4688,4.875 C 37.82297,6 31.1769,7.125 25.531,8.25 c 0,9.5625 0,19.125 0,28.6875 5.64583,1.96875 12.2919,3.9375 17.9378,5.90625 0,-12.6562 0,-25.3125 0,-37.9688 z" id="path29" stroke="url(#2)"/>
  </g>
  <path d="m 20,13 -8,10 8,10 0,-7 9,0 0,7 8,-10 -8,-10 0,7 -9,0 0,-7 z" id="path31" opacity="0.711" fill="#171717"/>
  <path d="m 19.8438,12.5625 a 0.447032,0.447032 0 0 0 -0.1875,0.15625 l -8,10 a 0.447032,0.447032 0 0 0 0,0.5625 l 8,10 A 0.447032,0.447032 0 0 0 20.43755,33 l 0,-6.5625 8.125,0 0,6.5625 a 0.447032,0.447032 0 0 0 0.78125,0.28125 l 8,-10 a 0.447032,0.447032 0 0 0 0,-0.5625 l -8,-10 A 0.447032,0.447032 0 0 0 28.56255,13 l 0,6.5625 -8.125,0 0,-6.5625 A 0.447032,0.447032 0 0 0 19.8438,12.5625 Z" id="path33" opacity="0.3" fill="none" stroke="#fff"/>
 </g>
 <metadata id="metadata9999">
  <rdf:RDF>
   <cc:Work>
    <dc:format>image/svg+xml</dc:format>
    <dc:type rdf:resource="http://purl.org/dc/dcmitype/StillImage"/>
    <dc:title>Ivy icon theme</dc:title>
    <cc:license rdf:resource="http://creativecommons.org/licenses/by-sa/4.0/"/>
    <dc:creator>
     <cc:Agent>
      <dc:title>Sixsixfive (sixsixfive.deviantart.com)</dc:title>
     </cc:Agent>
    </dc:creator>
    <dc:publisher>
     <cc:Agent>
      <dc:title>Sixsixfive (sixsixfive.deviantart.com)</dc:title>
     </cc:Agent>
    </dc:publisher>
    <dc:source>https://github.com/sixsixfive</dc:source>
    <dc:subject>
     <rdf:Bag>
      <rdf:li>ivy</rdf:li>
     </rdf:Bag>
    </dc:subject>
    <dc:contributor>
     <cc:Agent>
      <dc:title>ssf</dc:title>
     </cc:Agent>
    </dc:contributor>
    <dc:rights>
     <cc:Agent>
      <dc:title>Sixsixfive (sixisixfive.deviantart.com)</dc:title>
     </cc:Agent>
    </dc:rights>
    <dc:description>A simple icon theme published under CC-BY-SA_V4(http://creativecommons.org/licenses/by-sa/4.0)</dc:description>
    <dc:identifier>SSF</dc:identifier>
   </cc:Work>
  </rdf:RDF>
 </metadata>
 <!--Part of the Ivy icon them published under the CC-BY-SA_V4: http://creativecommons.org/licenses/by-sa/4.0 -->
</svg>
