<?xml version="1.0" encoding="UTF-8" standalone="no"?>
<svg xmlns:dc="http://purl.org/dc/elements/1.1/" xmlns:cc="http://creativecommons.org/ns#" xmlns:rdf="http://www.w3.org/1999/02/22-rdf-syntax-ns#" xmlns:svg="http://www.w3.org/2000/svg" xmlns="http://www.w3.org/2000/svg" viewBox="0 0 22 22" id="svg2" version="1.1">
 <defs id="defs4">
  <linearGradient id="0" y1="43" y2="5" x2="0" gradientUnits="userSpaceOnUse" gradientTransform="matrix(0.5 0 0 0.47368 -23 -0.368)">
   <stop stop-color="#ddd" id="stop7"/>
   <stop offset="1" stop-color="#fff" id="stop9"/>
  </linearGradient>
  <linearGradient id="1" y1="3.045" y2="18.955" x2="0" gradientUnits="userSpaceOnUse">
   <stop stop-color="#fff" id="stop12"/>
   <stop offset="1" stop-color="#fff" stop-opacity="0" id="stop14"/>
  </linearGradient>
 </defs>
 <g transform="scale(-1,1)" id="g16">
  <path d="m -21,3 20,0 0,18 -20,0 z" id="path18" opacity="0.1"/>
  <path d="m -21,2 20,0 0,18 -20,0 z" id="path20" fill="url(#0)"/>
 </g>
 <path opacity="0.65" fill="#fff" d="M 4,6 H16 V8 H4 z" id="path22"/>
 <path opacity="0.7" fill="#171717" d="M 4,5 H16 V7 H4 z" id="path24"/>
 <path opacity="0.65" fill="#fff" d="M 4,9 H9 V11 H4 z" id="path26"/>
 <path opacity="0.7" fill="#171717" d="M 4,8 H9 V10 H4 z" id="path28"/>
 <path opacity="0.65" fill="#fff" d="M 4,12 H14 V14 H4 z" id="path30"/>
 <path opacity="0.7" fill="#171717" d="M 4,11 H14 V13 H4 z" id="path32"/>
 <path opacity="0.65" fill="#fff" d="M 4,15 H18 V17 H4 z" id="path34"/>
 <path opacity="0.7" fill="#171717" d="M 4,14 H18 V16 H4 z" id="path36"/>
 <g id="g38" fill="none">
  <path d="m 1.53125,2.53125 0,16.9375 18.9375,0 0,-16.9375 -18.9375,0 z" id="path40" opacity="0.4" stroke="#000"/>
  <path d="m 2.53125,3.53125 0,14.9375 16.9375,0 0,-14.9375 -16.9375,0 z" id="path42" opacity="0.4" stroke="url(#1)"/>
 </g>
 <metadata id="metadata9999">
  <rdf:RDF>
   <cc:Work>
    <dc:format>image/svg+xml</dc:format>
    <dc:type rdf:resource="http://purl.org/dc/dcmitype/StillImage"/>
    <dc:title>Ivy icon theme</dc:title>
    <cc:license rdf:resource="http://creativecommons.org/licenses/by-sa/4.0/"/>
    <dc:creator>
     <cc:Agent>
      <dc:title>Sixsixfive (sixsixfive.deviantart.com)</dc:title>
     </cc:Agent>
    </dc:creator>
    <dc:publisher>
     <cc:Agent>
      <dc:title>Sixsixfive (sixsixfive.deviantart.com)</dc:title>
     </cc:Agent>
    </dc:publisher>
    <dc:source>https://github.com/sixsixfive</dc:source>
    <dc:subject>
     <rdf:Bag>
      <rdf:li>ivy</rdf:li>
     </rdf:Bag>
    </dc:subject>
    <dc:contributor>
     <cc:Agent>
      <dc:title>ssf</dc:title>
     </cc:Agent>
    </dc:contributor>
    <dc:rights>
     <cc:Agent>
      <dc:title>Sixsixfive (sixisixfive.deviantart.com)</dc:title>
     </cc:Agent>
    </dc:rights>
    <dc:description>A simple icon theme published under CC-BY-SA_V4(http://creativecommons.org/licenses/by-sa/4.0)</dc:description>
    <dc:identifier>SSF</dc:identifier>
   </cc:Work>
  </rdf:RDF>
 </metadata>
 <!--Part of the Ivy icon them published under the CC-BY-SA_V4: http://creativecommons.org/licenses/by-sa/4.0 -->
</svg>
