<?xml version="1.0" encoding="UTF-8" standalone="no"?><svg viewBox="0 0 22 22" xmlns:svg="http://www.w3.org/2000/svg" xmlns="http://www.w3.org/2000/svg" xmlns:rdf="http://www.w3.org/1999/02/22-rdf-syntax-ns#" version="1.1" id="svg2" xmlns:dc="http://purl.org/dc/elements/1.1/" xmlns:cc="http://creativecommons.org/ns#"><defs id="defs4"><linearGradient y1="0" x2="0" y2="21" id="0" gradientUnits="userSpaceOnUse"><stop id="stop7" stop-color="#ffe906"/><stop offset="1" id="stop9" stop-color="#ffdd2f"/></linearGradient><linearGradient y1="1.969" x2="0" y2="19.969" id="1" gradientUnits="userSpaceOnUse"><stop id="stop12" stop-color="#fff"/><stop stop-opacity="0" offset="1" id="stop14" stop-color="#fff"/></linearGradient></defs><path opacity="0.1" id="path16" d="m 11.04251,0.99996 -0.0135,2.9939 C 6.03855,4.01536 2,7.9351 2,12.9306 2,17.9395 6.06055,22 11.0695,22 c 5.00895,0 9.0695,-4.0605 9.0695,-9.0694 l -5.0602,0.0884 c 0,2.38515 -1.66828,3.96499 -4.05349,3.96499 -2.38521,0 -4.05349,-1.66828 -4.05349,-4.05343 0,-2.3717 1.73486,-3.94329 4.10144,-3.96499 l -0.0135,3.092 9.0793,-5.5018 z"/><path id="path18" d="m 11.04251,-4.4e-4 -0.0135,2.9939 C 6.0386,3.01496 2.00009,6.9347 2.00009,11.9302 c 0,5.0089 4.06051,9.0694 9.06941,9.0694 5.0089,0 9.06941,-4.0605 9.06941,-9.0694 l -5.0602,0.0884 c 0,2.38515 -1.66826,3.96499 -4.05345,3.96499 -2.38519,0 -4.05345,-1.66828 -4.05345,-4.05343 0,-2.3717 1.73484,-3.94329 4.1014,-3.96499 l -0.0135,3.092 9.0792,-5.5018 z" fill="url(#0)"/><g id="g20" fill="none"><path stroke="#000" opacity="0.4" id="path22" d="m 11.54031,0.90646 0,2.0938 a 0.496271,0.496271 0 0 1 -0.5,0.5 c -4.73168,0.020385 -8.53125,3.7096 -8.53125,8.4375 0,4.74118 3.82133,8.5625 8.5625,8.5625 4.56921,0 8.26753,-3.56102 8.53125,-8.0625 l -4.125,0.0938 c -0.107828,1.08152 -0.488125,2.04247 -1.1875,2.71875 -0.811224,0.784438 -1.94975,1.21875 -3.25,1.21875 -2.6135,0 -4.5625,-1.91346 -4.5625,-4.53125 0,-2.61262 2.00922,-4.44505 4.59375,-4.46875 a 0.496271,0.496271 0 0 1 0.5,0.5 l 0,2.1875 7.5938,-4.5938 -7.625,-4.6562 z"/><path stroke="url(#1)" opacity="0.4" id="path24" d="m 12.60281,2.78146 0,0.2188 a 1.56779,1.56779 0 0 1 -1.5625,1.5625 c -4.17305,0.017979 -7.46875,3.22487 -7.46875,7.375 0,4.16313 3.33687,7.5 7.5,7.5 3.59911,0 6.44672,-2.54156 7.1875,-5.90625 l -1.9062,0.0312 c -0.248689,0.940378 -0.637628,1.81616 -1.3125,2.46875 -1.0305,0.996478 -2.46732,1.5 -4,1.5 -3.10644,0 -5.625,-2.47366 -5.625,-5.59375 0,-3.13279 2.60109,-5.50324 5.65625,-5.53125 a 1.56779,1.56779 0 0 1 1.5625,1.5625 l 0,0.3125 4.4688,-2.7188 -4.5,-2.7812 z"/></g><metadata id="metadata9999"><rdf:RDF><cc:Work><dc:format>image/svg+xml</dc:format><dc:type rdf:resource="http://purl.org/dc/dcmitype/StillImage"/><dc:title/><cc:license rdf:resource="http://creativecommons.org/licenses/by-sa/4.0/"/><dc:creator><cc:Agent><dc:title>Sixsixfive (sixsixfive.deviantart.com)</dc:title></cc:Agent></dc:creator><dc:publisher><cc:Agent><dc:title>Sixsixfive (sixsixfive.deviantart.com)</dc:title></cc:Agent></dc:publisher><dc:source>https://github.com/sixsixfive</dc:source><dc:subject><rdf:Bag><rdf:li>ivy</rdf:li></rdf:Bag></dc:subject><dc:contributor><cc:Agent><dc:title>ssf</dc:title></cc:Agent></dc:contributor><dc:rights><cc:Agent><dc:title>Sixsixfive (sixisixfive.deviantart.com)</dc:title></cc:Agent></dc:rights><dc:description>A simple icon theme published under CC-BY-SA_V4(http://creativecommons.org/licenses/by-sa/4.0)</dc:description><dc:identifier>SSF</dc:identifier></cc:Work></rdf:RDF></metadata><!--Part of the Ivy icon them published under the CC-BY-SA_V4: http://creativecommons.org/licenses/by-sa/4.0 -->
</svg>