<?xml version="1.0" encoding="UTF-8" standalone="no"?><svg xmlns:cc="http://creativecommons.org/ns#" viewBox="0 0 22 22" version="1.1" id="svg2" xmlns:svg="http://www.w3.org/2000/svg" xmlns:rdf="http://www.w3.org/1999/02/22-rdf-syntax-ns#" xmlns="http://www.w3.org/2000/svg" xmlns:dc="http://purl.org/dc/elements/1.1/"><defs id="defs4"><linearGradient x2="0" gradientUnits="userSpaceOnUse" y2="41.986" id="0" y1="4.827" gradientTransform="matrix(0.51264 0 0 0.49678 -1.538 -1.398)"><stop stop-color="#66b03e" id="stop7"/><stop offset="1" stop-color="#95ce76" id="stop9"/></linearGradient><linearGradient x2="0" gradientUnits="userSpaceOnUse" y2="18.04" id="1" y1="2.52"><stop stop-color="#fff" id="stop12"/><stop offset="1" stop-opacity="0" stop-color="#fff" id="stop14"/></linearGradient></defs><path opacity="0.1" id="path16" d="M 17,2 9,11 4.5,6.5 0,12 c 9.5000005,8.5 0.47380699,0.452607 9.5000005,8.5 C 22,7 9.5000005,20.5 22,7 z"/><path fill="url(#0)" id="path18" d="M 17,1 9,10 4.5,5.5 0,11 c 9.5000005,8.5 0.47380699,0.452607 9.5000005,8.5 C 22,6 9.5000005,19.5 22,6 z"/><g fill="none" id="g20"><path opacity="0.4" id="path22" stroke="#000" d="m 17.03125,1.78125 -7.625,8.5625 A 0.536248,0.536248 0 0 1 8.625,10.375 L 4.53125,6.28125 0.71875,10.9375 c 7.420425,6.641303 1.754674,1.60356 8.718751,7.8125 L 21.25,6 17.03125,1.78125 Z"/><path opacity="0.4" id="path24" stroke="url(#1)" d="m 17.0625,3.25 -6.90625,7.78125 a 1.5358488,1.5358488 0 0 1 -2.25,0.0625 L 4.59375,7.78125 2.125,10.8125 c 4.3998038,3.940843 3.2357223,2.924097 7.28125,6.53125 L 19.875,6.0625 17.0625,3.25 Z"/></g><metadata id="metadata9999"><rdf:RDF><cc:Work><dc:format>image/svg+xml</dc:format><dc:type rdf:resource="http://purl.org/dc/dcmitype/StillImage"/><dc:title>Ivy icon theme</dc:title><cc:license rdf:resource="http://creativecommons.org/licenses/by-sa/4.0/"/><dc:creator><cc:Agent><dc:title>Sixsixfive (sixsixfive.deviantart.com)</dc:title></cc:Agent></dc:creator><dc:publisher><cc:Agent><dc:title>Sixsixfive (sixsixfive.deviantart.com)</dc:title></cc:Agent></dc:publisher><dc:source>https://github.com/sixsixfive</dc:source><dc:subject><rdf:Bag><rdf:li>ivy</rdf:li></rdf:Bag></dc:subject><dc:contributor><cc:Agent><dc:title>ssf</dc:title></cc:Agent></dc:contributor><dc:rights><cc:Agent><dc:title>Sixsixfive (sixisixfive.deviantart.com)</dc:title></cc:Agent></dc:rights><dc:description>A simple icon theme published under CC-BY-SA_V4(http://creativecommons.org/licenses/by-sa/4.0)</dc:description><dc:identifier>SSF</dc:identifier></cc:Work></rdf:RDF></metadata><!--Part of the Ivy icon them published under the CC-BY-SA_V4: http://creativecommons.org/licenses/by-sa/4.0 -->
</svg>