<?xml version="1.0" encoding="UTF-8" standalone="no"?>
<svg xmlns:dc="http://purl.org/dc/elements/1.1/" xmlns:cc="http://creativecommons.org/ns#" xmlns:rdf="http://www.w3.org/1999/02/22-rdf-syntax-ns#" xmlns:svg="http://www.w3.org/2000/svg" xmlns="http://www.w3.org/2000/svg" viewBox="0 0 22 22" id="svg2" version="1.1">
 <defs id="defs4">
  <linearGradient id="0" y1="26" y2="45" x2="0" gradientUnits="userSpaceOnUse">
   <stop stop-color="#fff" id="stop7"/>
   <stop offset="1" stop-color="#fff" stop-opacity="0" id="stop9"/>
  </linearGradient>
  <linearGradient id="1" y1="28" y2="44" x2="0" gradientUnits="userSpaceOnUse" gradientTransform="matrix(0.54096 0 0 0.5 -0.475 24.02)">
   <stop stop-color="#999" id="stop12"/>
   <stop offset="1" stop-color="#ebebeb" id="stop14"/>
  </linearGradient>
  <linearGradient id="2" y1="27" y2="4" x2="0" gradientUnits="userSpaceOnUse" gradientTransform="matrix(0.5 0 0 0.47894 0.5 23.08)">
   <stop stop-color="#eee" id="stop17"/>
   <stop offset="1" stop-color="#dedede" id="stop19"/>
  </linearGradient>
  <radialGradient cx="12" cy="46.02" r="10.5" id="3" gradientUnits="userSpaceOnUse">
   <stop stop-color="#90b3e1" id="stop22"/>
   <stop offset="1" stop-color="#5288d1" id="stop24"/>
  </radialGradient>
 </defs>
 <g transform="translate(-1,-25)" id="g26">
  <path d="M 2.78125,26 C 2.353978,26 2,26.363442 2,26.802139 l 0,18.368979 a 0.247767,0.254392 0 0 0 0.078125,0.176471 l 1.53125,1.572192 A 0.247767,0.254392 0 0 0 3.78125,47 l 18.4375,0 C 22.646022,46.999995 23,46.636552 23,46.19786 L 23,26.802139 C 23,26.363442 22.646022,26 22.21875,26 l -19.4375,0 z" id="path28" opacity="0.1"/>
  <path d="M 2.78125,25 C 2.353978,25 2,25.363442 2,25.802139 l 0,18.368979 a 0.247767,0.254392 0 0 0 0.078125,0.176471 l 1.53125,1.572192 A 0.247767,0.254392 0 0 0 3.78125,46 l 18.4375,0 C 22.646022,45.999995 23,45.636552 23,45.19786 L 23,25.802139 C 23,25.363442 22.646022,25 22.21875,25 l -19.4375,0 z" id="path30" fill="url(#3)"/>
  <path d="m 5,25 15,0 0,11.02 -15,0 z" id="path32" fill="url(#2)"/>
  <path d="m 5.063,25 14.874,0 C 19.9719,25 20,25.04237 20,25.095 l 0,2.83 c 0,0.05263 -0.0281,0.095 -0.063,0.095 l -14.874,0 C 5.028098,28.02 5,27.97763 5,27.925 l 0,-2.83 C 5,25.04237 5.028098,25 5.063,25 Z" id="rect34" fill="#d02604"/>
  <path d="m 7.1665,38.0312 c -0.646391,0 -1.16645,0.500341 -1.16645,1.10938 l 0,6.59375 a 0.293034,0.270845 0 0 0 0.287386,0.265625 l 12.4252,0 a 0.293034,0.270845 0 0 0 0.287386,-0.265625 l 0,-6.59375 c 0,-0.602985 -0.503154,-1.10938 -1.14954,-1.10938 l -10.684,0 z" id="path36" fill="url(#1)"/>
  <path d="m 8.597,40 2.806,0 C 11.733738,40 12,40.166358 12,40.373 l 0,4.254 C 12,44.833642 11.733738,45 11.403,45 L 8.597,45 C 8.266262,45 8,44.833642 8,44.627 L 8,40.373 C 8,40.166358 8.266262,40 8.597,40 Z" id="rect38" opacity="0.51"/>
  <path d="m 9.299,41 1.402,0 C 10.866646,41 11,41.0999 11,41.224 l 0,2.552 C 11,43.900096 10.866646,44 10.701,44 L 9.299,44 C 9.133354,44 9,43.900096 9,43.776 L 9,41.224 C 9,41.099904 9.133354,41 9.299,41 Z" id="rect40" fill="#5288d1"/>
  <g id="g42" fill="#fff">
   <path d="m 5,28.02 15,0 0,0.984 -15,0 z" id="path44"/>
   <path d="m 7,39 11,0 0,1 -11,0 z" id="path46" opacity="0.4"/>
   <path d="m 5,36.02 15,0 0,0.984 -15,0 z" id="path48" opacity="0.3"/>
  </g>
  <path d="m 5,26 1,0 0,10 -1,0 z" id="path50" opacity="0.62"/>
  <path d="m 35,-19 1,0 0,13 -1,0 z" transform="matrix(0,1,-1,0,0,0)" id="path52" opacity="0.62"/>
  <path d="m -20,-36 1,0 0,10 -1,0 z" transform="scale(-1,-1)" id="path54" opacity="0.62"/>
  <g id="g56" fill="none">
   <g id="g58" stroke="#000">
    <path d="m 7.1562,38.5625 c -0.376788,0 -0.625,0.254448 -0.625,0.5625 l 0,6.34375 11.9375,0 0,-6.34375 c 0,-0.298984 -0.251576,-0.5625 -0.625,-0.5625 l -10.6875,0 z" id="path60" opacity="0.56"/>
    <path d="m 2.7812,25.5 c -0.135204,0 -0.28125,0.143179 -0.28125,0.3125 l 0,18.25 c -0.00576,-0.01483 0.00481,0.0464 0,0.03125 a 0.50082,0.50082 0 0 1 0,0.03125 l 1.375,1.375 0.03125,0 18.3125,0 c 0.135209,-2e-6 0.28125,-0.143181 0.28125,-0.3125 l 0,-19.375 c 0,-0.169321 -0.146047,-0.3125 -0.28125,-0.3125 l -19.4375,0 z" id="path62" opacity="0.4"/>
   </g>
   <path d="m 3.5,26.5 0,17.1562 0.8438,0.8438 17.1562,0 0,-18 -18,0 z" id="path64" opacity="0.4" stroke="url(#0)"/>
  </g>
 </g>
 <metadata id="metadata9999">
  <rdf:RDF>
   <cc:Work>
    <dc:format>image/svg+xml</dc:format>
    <dc:type rdf:resource="http://purl.org/dc/dcmitype/StillImage"/>
    <dc:title>Ivy icon theme</dc:title>
    <cc:license rdf:resource="http://creativecommons.org/licenses/by-sa/4.0/"/>
    <dc:creator>
     <cc:Agent>
      <dc:title>Sixsixfive (sixsixfive.deviantart.com)</dc:title>
     </cc:Agent>
    </dc:creator>
    <dc:publisher>
     <cc:Agent>
      <dc:title>Sixsixfive (sixsixfive.deviantart.com)</dc:title>
     </cc:Agent>
    </dc:publisher>
    <dc:source>https://github.com/sixsixfive</dc:source>
    <dc:subject>
     <rdf:Bag>
      <rdf:li>ivy</rdf:li>
     </rdf:Bag>
    </dc:subject>
    <dc:contributor>
     <cc:Agent>
      <dc:title>ssf</dc:title>
     </cc:Agent>
    </dc:contributor>
    <dc:rights>
     <cc:Agent>
      <dc:title>Sixsixfive (sixisixfive.deviantart.com)</dc:title>
     </cc:Agent>
    </dc:rights>
    <dc:description>A simple icon theme published under CC-BY-SA_V4(http://creativecommons.org/licenses/by-sa/4.0)</dc:description>
    <dc:identifier>SSF</dc:identifier>
   </cc:Work>
  </rdf:RDF>
 </metadata>
 <!--Part of the Ivy icon them published under the CC-BY-SA_V4: http://creativecommons.org/licenses/by-sa/4.0 -->
</svg>
