<?xml version="1.0" encoding="UTF-8" standalone="no"?>
<svg xmlns:dc="http://purl.org/dc/elements/1.1/" xmlns:cc="http://creativecommons.org/ns#" xmlns:rdf="http://www.w3.org/1999/02/22-rdf-syntax-ns#" xmlns:svg="http://www.w3.org/2000/svg" xmlns="http://www.w3.org/2000/svg" xmlns:xlink="http://www.w3.org/1999/xlink" viewBox="0 0 22 22" version="1.1" id="svg2">
 <defs id="defs5">
  <linearGradient id="linearGradient4170">
   <stop id="stop4172" stop-color="#fff"/>
   <stop stop-opacity="0" id="stop4174" stop-color="#fff" offset="1"/>
  </linearGradient>
  <linearGradient id="linearGradient4197">
   <stop id="stop4199" stop-color="#ebebeb"/>
   <stop id="stop4201" stop-color="#fff" offset="1"/>
  </linearGradient>
  <linearGradient gradientTransform="translate(-1,2)" gradientUnits="userSpaceOnUse" y2="18" x2="0" y1="5" id="linearGradient4177" xlink:href="#linearGradient4197"/>
  <linearGradient gradientUnits="userSpaceOnUse" y2="16" x2="0" y1="12" id="linearGradient4222" xlink:href="#linearGradient4170"/>
  <linearGradient gradientTransform="translate(-0.1640625,0)" gradientUnits="userSpaceOnUse" y2="17" x2="0" y1="11" id="linearGradient4206" xlink:href="#linearGradient4200"/>
  <linearGradient id="linearGradient4200">
   <stop id="stop4202" stop-color="#d02604"/>
   <stop id="stop4204" offset="1" stop-color="#fc7a60"/>
  </linearGradient>
 </defs>
 <path d="M 2.4882812,8 C 2.2179274,8 2,8.2179274 2,8.4882812 L 2,15 0.5,15 C 0.223,15 0,15.223 0,15.5 l 0,5 C 0,20.777 0.223,21 0.5,21 l 19,0 c 0.277,0 0.5,-0.223 0.5,-0.5 l 0,-5 C 20,15.223 19.777,15 19.5,15 L 18,15 18,8.4882812 C 18,8.2179274 17.782073,8 17.511719,8 L 2.4882812,8 Z" id="path4185" opacity="0.1" fill-rule="evenodd"/>
 <path id="rect3364" d="M 2.4882812,7 C 2.2179274,7 2,7.2179274 2,7.4882812 L 2,14 0.5,14 C 0.223,14 0,14.223 0,14.5 l 0,5 C 0,19.777 0.223,20 0.5,20 l 19,0 c 0.277,0 0.5,-0.223 0.5,-0.5 l 0,-5 C 20,14.223 19.777,14 19.5,14 L 18,14 18,7.4882812 C 18,7.2179274 17.782073,7 17.511719,7 L 2.4882812,7 Z" fill="url(#linearGradient4177)" fill-rule="evenodd"/>
 <path transform="translate(-1,2)" d="m 3.5410156,5.5410156 0,6.4589844 A 0.54194654,0.54194654 0 0 1 3,12.541016 l -1.4589844,0 0,4.917968 18.9179684,0 0,-4.917968 -1.458984,0 A 0.54194654,0.54194654 0 0 1 18.458984,12 l 0,-6.4589844 -14.9179684,0 z" id="path4181" opacity="0.5" fill="none" fill-rule="evenodd" stroke="#000" stroke-linejoin="round"/>
 <path transform="translate(-1,2)" id="path4183" d="m 4.5234375,6.5234375 0,5.4765625 A 1.5233478,1.5233478 0 0 1 3,13.523438 l -0.4765625,0 0,2.953124 16.9531245,0 0,-2.953124 -0.476562,0 A 1.5233478,1.5233478 0 0 1 17.476562,12 l 0,-5.4765625 -12.9531245,0 z" opacity="0.4" fill="none" fill-rule="evenodd" stroke="#fff" stroke-linejoin="round"/>
 <path d="m 6.0054289,11.983 0,6 c 15.9999971,0 7.6553781,0 15.9999971,0 l 0,-6 c -15.9999971,0 -7.655376,0 -15.9999971,0 z" id="path4224" opacity="0.1"/>
 <path id="path16" d="m 6.0054289,10.983051 0,6 c 15.9999971,0 7.6553781,0 15.9999971,0 l 0,-6 c -15.9999971,0 -7.655376,0 -15.9999971,0 z" fill="url(#linearGradient4206)"/>
 <path transform="translate(-0.1640625,0)" d="m 6.6640625,11.476562 0,5.011719 15.0117185,0 0,-5.011719 -15.0117185,0 z" id="path4212" opacity="0.5" fill="none" stroke="#000"/>
 <path transform="translate(-0.1640625,0)" id="path4214" d="m 7.6523438,12.464844 0,3.035156 13.0351562,0 0,-3.035156 -13.0351562,0 z" opacity="0.3" fill="none" stroke="url(#linearGradient4222)"/>
 <path id="path4306" d="m 6.0054289,11.983 0,6 c 15.9999971,0 7.6553781,0 15.9999971,0 l 0,-6 c -15.9999971,0 -7.655376,0 -15.9999971,0 z" opacity="0.1"/>
 <path d="m 6.0054289,10.983051 0,6 c 15.9999971,0 7.6553781,0 15.9999971,0 l 0,-6 c -15.9999971,0 -7.655376,0 -15.9999971,0 z" id="path4308" fill="url(#linearGradient4206)"/>
 <path transform="translate(-0.1640625,0)" id="path4310" d="m 6.6640625,11.476562 0,5.011719 15.0117185,0 0,-5.011719 -15.0117185,0 z" opacity="0.5" fill="none" stroke="#000"/>
 <path transform="translate(-0.1640625,0)" d="m 7.6523438,12.464844 0,3.035156 13.0351562,0 0,-3.035156 -13.0351562,0 z" id="path4312" opacity="0.3" fill="none" stroke="url(#linearGradient4222)"/>
 <metadata id="metadata9999">
  <rdf:RDF>
   <cc:Work>
    <dc:format>image/svg+xml</dc:format>
    <dc:type rdf:resource="http://purl.org/dc/dcmitype/StillImage"/>
    <dc:title>Ivy icon theme</dc:title>
    <cc:license rdf:resource="http://creativecommons.org/licenses/by-sa/4.0/"/>
    <dc:creator>
     <cc:Agent>
      <dc:title>Sixsixfive (sixsixfive.deviantart.com)</dc:title>
     </cc:Agent>
    </dc:creator>
    <dc:publisher>
     <cc:Agent>
      <dc:title>Sixsixfive (sixsixfive.deviantart.com)</dc:title>
     </cc:Agent>
    </dc:publisher>
    <dc:source>https://github.com/sixsixfive</dc:source>
    <dc:subject>
     <rdf:Bag>
      <rdf:li>ivy</rdf:li>
     </rdf:Bag>
    </dc:subject>
    <dc:contributor>
     <cc:Agent>
      <dc:title>ssf</dc:title>
     </cc:Agent>
    </dc:contributor>
    <dc:rights>
     <cc:Agent>
      <dc:title>Sixsixfive (sixisixfive.deviantart.com)</dc:title>
     </cc:Agent>
    </dc:rights>
    <dc:description>A simple icon theme published under CC-BY-SA_V4(http://creativecommons.org/licenses/by-sa/4.0)</dc:description>
    <dc:identifier>SSF</dc:identifier>
   </cc:Work>
  </rdf:RDF>
 </metadata>
 <!--Part of the Ivy icon them published under the CC-BY-SA_V4: http://creativecommons.org/licenses/by-sa/4.0 -->
</svg>
