<?xml version="1.0" encoding="UTF-8" standalone="no"?><svg xmlns:cc="http://creativecommons.org/ns#" viewBox="0 0 22 22" version="1.1" id="svg2" xmlns:svg="http://www.w3.org/2000/svg" xmlns:rdf="http://www.w3.org/1999/02/22-rdf-syntax-ns#" xmlns="http://www.w3.org/2000/svg" xmlns:dc="http://purl.org/dc/elements/1.1/"><defs id="defs4"><linearGradient x2="0" gradientUnits="userSpaceOnUse" y2="16.01" id="0" y1="1.986"><stop stop-color="#959595" id="stop7"/><stop offset="1" stop-color="#e2e2e2" id="stop9"/></linearGradient><linearGradient x2="21.641" gradientUnits="userSpaceOnUse" x1="22.11" y2="-0.622" id="1" y1="3.631"><stop stop-color="#5288d1" id="stop12"/><stop offset="1" stop-color="#75a0da" id="stop14"/></linearGradient></defs><path opacity="0.1" id="path16" d="m 7 7 v 6 c 1.285714 0 1.084013 0 2 0 V 7 C 7.857143 7 7.915987 7 7 7 z"/><path opacity="0.1" id="path18" d="m 8 3.03178 c -3.865993 0 -7 3.134008 -7 7 0 3.865993 3.134007 7 7 7 1.408481 0 2.714494 -0.409183 3.8125 -1.125 0.05214 0.05756 0.09442 0.135079 0.15625 0.1875 l 6.4375 5.4375 c 0.762943 0.646903 1.957204 0.621044 2.6875 -0.0625 l 0.375 -0.34375 c 0.730296 -0.683544 0.700443 -1.759347 -0.0625 -2.40625 l -6.4375 -5.4375 C 14.7852 13.12615 14.596706 12.984427 14.375 12.906782 14.771408 12.02894 15 11.05756 15 10.03178 15 6.16579 11.865993 3.03178 8 3.03178 z m 0 3 c 2.209139 0 4 1.790861 4 4 0 2.209139 -1.790861 4 -4 4 -2.209139 0 -4 -1.790861 -4 -4 C 4 7.822643 5.790861 6.03178 8 6.03178 z m -3 3 v 2 h 6 v -2 h -6 z"/><rect height="4.108" width="12.03" rx="1.806" fill="url(#1)" ry="1.806" id="rect20" x="17.497" transform="matrix(0.76273 0.64672 -0.73009 0.68335 0 0)" y="-0.353"/><path opacity="0.6" fill="none" id="path22" stroke="#000" d="m 13.625 12.3125 c -0.364986 0.01083 -0.706664 0.129691 -0.96875 0.375 l -0.375 0.34375 c -0.528459 0.494629 -0.492153 1.154707 0.0625 1.625 l 6.4375 5.4375 c 0.554045 0.469779 1.406035 0.434938 1.9375 -0.0625 l 0.375 -0.3125 c 0.524058 -0.490509 0.486019 -1.191161 -0.0625 -1.65625 L 14.625 12.625 c -0.270801 -0.229615 -0.638081 -0.323239 -1 -0.3125 z"/><path fill="url(#0)" id="path24" d="M 8 2 C 4.134007 2 1 5.134008 1 9 c 0 3.865993 3.134007 7 7 7 3.865993 0 7 -3.134007 7 -7 C 15 5.134008 11.865993 2 8 2 z m 0 3 c 2.209139 0 4 1.790861 4 4 0 2.209139 -1.790861 4 -4 4 C 5.790861 13 4 11.209139 4 9 4 6.790861 5.790861 5 8 5 z"/><path fill="#171717" id="path26" d="m 5 8 v 2 c 3.857143 0 3.252038 0 6 0 V 8 C 7.571428 8 7.747961 8 5 8 z"/><path opacity="0.4" fill="none" id="path28" stroke="#000" d="M 8 2.5625 C 4.432886 2.5625 1.5625 5.432886 1.5625 9 c 0 3.567114 2.870386 6.4375 6.4375 6.4375 3.567114 0 6.4375 -2.870386 6.4375 -6.4375 C 14.4375 5.432886 11.567114 2.5625 8 2.5625 z m 0 1.875 c 2.508018 0 4.5625 2.054482 4.5625 4.5625 0 2.508018 -2.054482 4.5625 -4.5625 4.5625 C 5.491982 13.5625 3.4375 11.508018 3.4375 9 3.4375 6.491982 5.491982 4.4375 8 4.4375 z"/><path fill="#171717" id="path30" d="m 7 6 v 6 c 1.285714 0 1.084013 0 2 0 V 6 C 7.857143 6 7.915987 6 7 6 z"/><metadata id="metadata9999"><rdf:RDF><cc:Work><dc:format>image/svg+xml</dc:format><dc:type rdf:resource="http://purl.org/dc/dcmitype/StillImage"/><dc:title>Ivy icon theme</dc:title><cc:license rdf:resource="http://creativecommons.org/licenses/by-sa/4.0/"/><dc:creator><cc:Agent><dc:title>Sixsixfive (sixsixfive.deviantart.com)</dc:title></cc:Agent></dc:creator><dc:publisher><cc:Agent><dc:title>Sixsixfive (sixsixfive.deviantart.com)</dc:title></cc:Agent></dc:publisher><dc:source>https://github.com/sixsixfive</dc:source><dc:subject><rdf:Bag><rdf:li>ivy</rdf:li></rdf:Bag></dc:subject><dc:contributor><cc:Agent><dc:title>ssf</dc:title></cc:Agent></dc:contributor><dc:rights><cc:Agent><dc:title>Sixsixfive (sixisixfive.deviantart.com)</dc:title></cc:Agent></dc:rights><dc:description>A simple icon theme published under CC-BY-SA_V4(http://creativecommons.org/licenses/by-sa/4.0)</dc:description><dc:identifier>SSF</dc:identifier></cc:Work></rdf:RDF></metadata><!--Part of the Ivy icon them published under the CC-BY-SA_V4: http://creativecommons.org/licenses/by-sa/4.0 -->
</svg>