<?xml version="1.0" encoding="UTF-8" standalone="no"?><svg xmlns:rdf="http://www.w3.org/1999/02/22-rdf-syntax-ns#" xmlns:cc="http://creativecommons.org/ns#" xmlns:svg="http://www.w3.org/2000/svg" id="svg2" viewBox="0 0 22 22" version="1.1" xmlns:xlink="http://www.w3.org/1999/xlink" xmlns:dc="http://purl.org/dc/elements/1.1/" xmlns="http://www.w3.org/2000/svg"><defs id="0"><linearGradient id="linearGradient4172"><stop id="stop4174" stop-color="#fff"/><stop offset="1" id="stop4176" stop-color="#fff" stop-opacity="0"/></linearGradient><linearGradient id="linearGradient4165"><stop id="stop4167" stop-color="#eed45a"/><stop offset="1" id="stop4169" stop-color="#e9c82a"/></linearGradient><linearGradient id="linearGradient4171" x2="45" gradientTransform="matrix(0 -0.47619048 -0.45833333 0 22.416667 22.428572)" xlink:href="#linearGradient4165" x1="3" gradientUnits="userSpaceOnUse"/><linearGradient id="linearGradient4178" x2="0" y2="20" gradientTransform="matrix(-1 0 0 1 21 0)" xlink:href="#linearGradient4172" y1="3" gradientUnits="userSpaceOnUse"/></defs><path id="path4192" opacity="0.1" d="M 16,22 5,22 5,2 l 11,0 0,20 0,0 z"/><path id="2" d="M 16,21 5,21 5,1 l 11,0 0,20 0,0 z" fill="url(#linearGradient4171)"/><rect stroke-linecap="round" height="1" stroke-dasharray="39 19.5 9.75 19.5" id="rect4151" opacity="0.4" stroke-width="19.5" width="3" transform="matrix(-1 0 0 1 0 0)" x="-15" y="3" stroke-linejoin="round"/><rect stroke-linecap="round" height="1" stroke-dasharray="39 19.5 9.75 19.5" id="rect4153" opacity="0.4" stroke-width="19.5" width="5" transform="matrix(-1 0 0 1 0 0)" x="-15" y="6" stroke-linejoin="round"/><rect stroke-linecap="round" height="1" stroke-dasharray="39 19.5 9.75 19.5" id="rect4155" opacity="0.4" stroke-width="19.5" width="3" transform="matrix(-1 0 0 1 0 0)" x="-15" y="9" stroke-linejoin="round"/><rect stroke-linecap="round" height="1" stroke-dasharray="39 19.5 9.75 19.5" id="rect4157" opacity="0.4" stroke-width="19.5" width="5" transform="matrix(-1 0 0 1 0 0)" x="-15" y="12" stroke-linejoin="round"/><rect stroke-linecap="round" height="1" stroke-dasharray="39 19.5 9.75 19.5" id="rect4159" opacity="0.4" stroke-width="19.5" width="3" transform="matrix(-1 0 0 1 0 0)" x="-15" y="15" stroke-linejoin="round"/><rect stroke-linecap="round" height="1" stroke-dasharray="39 19.5 9.75 19.5" id="rect4161" opacity="0.4" stroke-width="19.5" width="5" transform="matrix(-1 0 0 1 0 0)" x="-15" y="18" stroke-linejoin="round"/><path id="path4168" opacity="0.4" d="m 15.496094,1.5039062 0,18.9921878 -9.992188,0 0,-18.9921878 9.992188,0 z" stroke="#000" fill="none"/><path id="path4170" opacity="0.4" d="m 14.488281,2.5117188 0,16.9765622 -7.976562,0 0,-16.9765622 7.976562,0 z" stroke="url(#linearGradient4178)" fill="none"/><rect stroke-linecap="round" height="1" stroke-dasharray="39 19.5 9.75 19.5" id="rect4180" opacity="0.2" stroke-width="19.5" width="3" transform="matrix(-1 0 0 1 0 0)" x="-15" y="4" stroke-linejoin="round" fill="#fff"/><rect stroke-linecap="round" height="1" stroke-dasharray="39 19.5 9.75 19.5" id="rect4182" opacity="0.2" stroke-width="19.5" width="5" transform="matrix(-1 0 0 1 0 0)" x="-15" y="7" stroke-linejoin="round" fill="#fff"/><rect stroke-linecap="round" height="1" stroke-dasharray="39 19.5 9.75 19.5" id="rect4184" opacity="0.2" stroke-width="19.5" width="3" transform="matrix(-1 0 0 1 0 0)" x="-15" y="10" stroke-linejoin="round" fill="#fff"/><rect stroke-linecap="round" height="1" stroke-dasharray="39 19.5 9.75 19.5" id="rect4186" opacity="0.2" stroke-width="19.5" width="5" transform="matrix(-1 0 0 1 0 0)" x="-15" y="13" stroke-linejoin="round" fill="#fff"/><rect stroke-linecap="round" height="1" stroke-dasharray="39 19.5 9.75 19.5" id="rect4188" opacity="0.2" stroke-width="19.5" width="3" transform="matrix(-1 0 0 1 0 0)" x="-15" y="16" stroke-linejoin="round" fill="#fff"/><rect stroke-linecap="round" height="1" stroke-dasharray="39 19.5 9.75 19.5" id="rect4190" opacity="0.2" stroke-width="19.5" width="5" transform="matrix(-1 0 0 1 0 0)" x="-15" y="19" stroke-linejoin="round" fill="#fff"/><metadata id="metadata9999"><rdf:RDF><cc:Work><dc:format>image/svg+xml</dc:format><dc:type rdf:resource="http://purl.org/dc/dcmitype/StillImage"/><dc:title/><cc:license rdf:resource="http://creativecommons.org/licenses/by-sa/4.0/"/><dc:creator><cc:Agent><dc:title>Sixsixfive (sixsixfive.deviantart.com)</dc:title></cc:Agent></dc:creator><dc:publisher><cc:Agent><dc:title>Sixsixfive (sixsixfive.deviantart.com)</dc:title></cc:Agent></dc:publisher><dc:source>https://github.com/sixsixfive</dc:source><dc:subject><rdf:Bag><rdf:li>ivy</rdf:li></rdf:Bag></dc:subject><dc:contributor><cc:Agent><dc:title>ssf</dc:title></cc:Agent></dc:contributor><dc:rights><cc:Agent><dc:title>Sixsixfive (sixisixfive.deviantart.com)</dc:title></cc:Agent></dc:rights><dc:description>A simple icon theme published under CC-BY-SA_V4(http://creativecommons.org/licenses/by-sa/4.0)</dc:description><dc:identifier>SSF</dc:identifier></cc:Work></rdf:RDF></metadata><!--Part of the Ivy icon them published under the CC-BY-SA_V4: http://creativecommons.org/licenses/by-sa/4.0 -->
</svg>