<?xml version="1.0" encoding="UTF-8" standalone="no"?>
<svg
   xmlns:dc="http://purl.org/dc/elements/1.1/"
   xmlns:cc="http://creativecommons.org/ns#"
   xmlns:rdf="http://www.w3.org/1999/02/22-rdf-syntax-ns#"
   xmlns:svg="http://www.w3.org/2000/svg"
   xmlns="http://www.w3.org/2000/svg"
   xmlns:xlink="http://www.w3.org/1999/xlink"
   version="1.1"
   id="svg2"
   viewBox="0 0 22 22">
  <defs
     id="defs4">
    <linearGradient
       gradientTransform="translate(-1,0)"
       gradientUnits="userSpaceOnUse"
       x2="0"
       y2="21"
       y1="2"
       id="0">
      <stop
         id="stop7"
         stop-color="#ebebeb" />
      <stop
         id="stop9"
         stop-color="#f3f3f3"
         offset="1" />
    </linearGradient>
    <linearGradient
       gradientTransform="matrix(0.5,0,0,0.49411,-2,-0.471)"
       gradientUnits="userSpaceOnUse"
       x2="0"
       y2="15"
       y1="5"
       id="1">
      <stop
         id="stop12"
         stop-color="#5288d1" />
      <stop
         id="stop14"
         stop-color="#89aee0"
         offset="1" />
    </linearGradient>
    <linearGradient
       gradientTransform="translate(-1,0)"
       gradientUnits="userSpaceOnUse"
       x2="0"
       y2="20"
       y1="3"
       id="2">
      <stop
         id="stop17"
         stop-color="#fff" />
      <stop
         id="stop19"
         stop-opacity="0"
         stop-color="#fff"
         offset="1" />
    </linearGradient>
    <linearGradient
       id="0-4"
       y1="2"
       y2="44"
       x2="0"
       gradientUnits="userSpaceOnUse"
       gradientTransform="matrix(0.515,0,0,0.5,-36.574525,-1.8389831)">
      <stop
         stop-color="#dedede"
         id="stop7-4" />
      <stop
         offset="1"
         stop-color="#f4f4f4"
         id="stop9-2" />
    </linearGradient>
    <linearGradient
       id="1-1"
       y1="1"
       y2="20"
       x2="0"
       gradientUnits="userSpaceOnUse">
      <stop
         stop-color="#fff"
         id="stop12-2" />
      <stop
         offset="1"
         stop-color="#fff"
         stop-opacity="0"
         id="stop14-87" />
    </linearGradient>
    <linearGradient
       id="3">
      <stop
         id="stop14-8"
         stop-color="#fff" />
      <stop
         id="stop16"
         stop-opacity="0"
         stop-color="#fff"
         offset="1" />
    </linearGradient>
    <linearGradient
       id="linearGradient3797">
      <stop
         stop-color="#ff8b36"
         id="stop3799" />
      <stop
         offset="1"
         stop-color="#ffd506"
         id="stop3801" />
    </linearGradient>
    <linearGradient
       gradientTransform="matrix(0.40149352,0,0,0.4210526,-2.0020418,-2.1052626)"
       xlink:href="#linearGradient3797"
       id="linearGradient4173"
       y1="-21.889835"
       x2="0"
       y2="42.838985"
       gradientUnits="userSpaceOnUse"
       x1="0.168861" />
    <linearGradient
       gradientUnits="userSpaceOnUse"
       y2="14.503875"
       x2="14.246049"
       y1="1.665935"
       x1="14.292651"
       id="linearGradient4159"
       xlink:href="#3" />
  </defs>
  <path
     style="opacity:0.1"
     id="path21"
     d="M 0,3 20,3 20,22 0,22 Z" />
  <path
     style="fill:url(#0)"
     id="path23"
     d="M 0,2 20,2 20,21 0,21 Z" />
  <path
     style="fill:#ffffff"
     id="path25"
     d="m 11,10 0,1.4211 0,1.5789 1,0 0,-2 2,0 0,7 -3,0 0,1 3.23077,0 0.845692,0 1.92354,0 0,-1 c -0.769231,0 -1.23077,0 -2,0 l 0,-6.54544 0,-1.45456 -0.692308,0 z" />
  <path
     style="fill:url(#1)"
     id="path27"
     d="M 0,2 20,2 20,7 0,7 Z" />
  <path
     style="opacity:0.4;fill:none;stroke:#000000"
     id="path29"
     d="m 0.5,2.5 0,18 19,0 0,-18 -19,0 z" />
  <path
     style="fill:#6a6a6a"
     id="path31"
     d="m 11,9 0,1.4211 0,1.5789 1,0 0,-2 2,0 0,7 -3,0 0,1 3.23077,0 1.84569,0 0.923078,0 0,-1 c -0.769231,0 -1.23031,0 -1.99954,0 l 0,-6.54544 0,-1.45456 -0.692308,0 z" />
  <path
     style="fill:#ffffff"
     id="path33"
     d="M 3,10 3,11.4211 3,13 l 1,0 0,-2 4,0 0,3 -2.96649,0 -0.0335,1 2.96649,0 0.0335,3 -3.96649,0 -0.0335,-2 -1,0 0,1.57895 0,1.42105 6,0 0,-1.42105 0,-6.15789 0,-1.42105 -1.61602,0 -2.92265,0 z" />
  <path
     style="fill:#6a6a6a"
     id="path35"
     d="M 3,9 3,10.4211 3,12 l 1,0 0,-2 4,0 0,3 -2.96649,0 -0.0335,1 2.96649,0 0.0335,3 -3.96649,0 -0.0335,-2 -1,0 0,1.57895 0,1.42105 6,0 0,-1.42105 0,-6.15789 0,-1.42105 -1.61602,0 -2.92265,0 z" />
  <path
     style="opacity:0.4"
     id="path37"
     d="M 1,6 19,6 19,7 1,7 Z" />
  <path
     style="opacity:0.7;fill:#ffffff"
     id="path39"
     d="M 2,7 18,7 18,8 2,8 Z" />
  <path
     style="opacity:0.4;fill:none;stroke:url(#2)"
     id="path41"
     d="m 1.5,3.5 0,16 17,0 0,-16 -17,0 z" />
  <g
     transform="translate(5.9991687,6.0000001)"
     id="g4300">
    <path
       id="path3363"
       d="M 12.733,15.933698 C 12.097085,16.41788 8.7832969,14.091424 7.9974559,14.091147 7.2116139,14.090868 3.8966033,16.414838 3.261,15.930205 2.6253967,15.445573 3.2495863,11.222047 3.007,10.438173 2.7644138,9.6542983 -0.22989782,6.8663423 0.01319248,6.0826397 0.25628288,5.2989369 4.4029329,5.4151355 5.0388479,4.9309525 5.6747629,4.4467693 7.2161459,-2.7791198e-4 8.0019869,1.4314111e-8 8.7878289,2.7783798e-4 10.326609,4.4484144 10.962212,4.9330475 c 0.635603,0.4846329 4.78207,0.3713668 5.024656,1.1552414 0.242586,0.7838745 -2.752778,3.5695712 -2.995868,4.3532731 -0.243091,0.783704 0.377914,5.007952 -0.258,5.492136 z"
       style="fill:url(#linearGradient4173);stroke-linecap:round;stroke-linejoin:round" />
    <path
       d="M 8.0019531,0.63476562 C 7.9301461,0.7187799 7.8479652,0.822319 7.7480469,0.98242188 7.5054161,1.3711982 7.222323,1.932746 6.9433594,2.5136719 6.6643957,3.0945978 6.3864502,3.6975239 6.1328125,4.1972656 6.0059937,4.4471365 5.8860867,4.6709206 5.7675781,4.8613281 5.6490695,5.0517356 5.555496,5.205677 5.3613281,5.3535156 4.9729774,5.6492042 4.5983068,5.6581793 4.0957031,5.7304688 3.5930994,5.8027582 3.0042305,5.8580517 2.4375,5.921875 1.8707695,5.9856983 1.3240934,6.0594277 0.93945312,6.1542969 0.76596061,6.1970877 0.64299617,6.2451488 0.5625,6.2832031 0.60122149,6.3802486 0.67895739,6.5245556 0.7890625,6.6933594 1.0154252,7.0403994 1.3646119,7.4769192 1.734375,7.9179688 2.1041381,8.3590183 2.4956535,8.807326 2.8164062,9.203125 3.137159,9.598924 3.3900828,9.8755825 3.515625,10.28125 c 0.1194395,0.385947 0.091003,0.764826 0.076172,1.291016 -0.014831,0.526189 -0.051334,1.143831 -0.074219,1.74414 -0.022884,0.60031 -0.031733,1.186722 0,1.623047 0.015867,0.218163 0.042555,0.398055 0.072266,0.507813 0.00285,0.01052 -0.00306,-0.0029 0,0.0059 0.087567,-0.01291 0.2197968,-0.04421 0.3886718,-0.105469 0.36677,-0.133044 0.8546269,-0.370147 1.3515625,-0.626953 0.4969357,-0.256806 1.0054331,-0.531817 1.453125,-0.75 0.447692,-0.218183 0.7568311,-0.410319 1.2148438,-0.410156 0.4580752,1.61e-4 0.7673588,0.191598 1.2148437,0.410156 0.4474849,0.218558 0.9564492,0.494727 1.4531252,0.751953 0.496675,0.257226 0.983001,0.495561 1.349609,0.628906 0.168801,0.0614 0.301145,0.09249 0.388672,0.105469 0.0031,-0.0088 -0.0029,0.0047 0,-0.0059 0.02979,-0.109746 0.0582,-0.289651 0.07422,-0.507813 0.03205,-0.436323 0.02245,-1.022699 0,-1.623047 -0.02245,-0.600347 -0.05781,-1.217927 -0.07227,-1.74414 -0.01446,-0.526213 -0.04156,-0.905174 0.07813,-1.291016 0.125779,-0.4055014 0.378295,-0.6825392 0.699219,-1.0781248 0.320923,-0.3955855 0.710138,-0.8423969 1.080078,-1.2832031 0.36994,-0.4408061 0.720754,-0.8777192 0.947266,-1.2246093 0.109566,-0.1677958 0.185601,-0.313103 0.224609,-0.4101563 -0.08062,-0.038039 -0.202393,-0.086181 -0.375,-0.1289063 C 14.676085,6.0649899 14.129036,5.9900485 13.5625,5.9257812 12.995964,5.861514 12.408693,5.8051018 11.90625,5.7324219 11.403807,5.659742 11.028675,5.6513481 10.640625,5.3554688 10.446601,5.2075295 10.35279,5.0537536 10.234375,4.8632812 10.11596,4.6728089 9.9958549,4.4491671 9.8691406,4.1992188 9.6157121,3.699322 9.3392879,3.0967305 9.0605469,2.515625 8.7818059,1.9345195 8.4983535,1.3733246 8.2558594,0.984375 8.1559327,0.82409718 8.0737589,0.71883676 8.0019531,0.63476562 Z"
       id="path3349"
       style="opacity:0.6;fill:none;stroke:#000000;stroke-linecap:round;stroke-linejoin:round" />
    <path
       id="path3351"
       d="M 8.0019531,2.640625 C 7.9441901,2.7575457 7.9000987,2.8239022 7.8417969,2.9453125 7.5676053,3.5163009 7.2910872,4.1210879 7.0234375,4.6484375 6.8896127,4.9121123 6.7600189,5.1560469 6.6152344,5.3886719 6.4704499,5.6212969 6.3746423,5.8364185 5.9648438,6.1484375 5.1452032,6.7725083 4.7797251,6.6408742 4.2382812,6.71875 3.6968374,6.796626 3.1052794,6.8516167 2.5507812,6.9140625 2.4309056,6.9275625 2.3688842,6.9444335 2.2539062,6.9589845 2.3483597,7.0758294 2.3982321,7.1559561 2.5,7.2773438 2.861234,7.7082199 3.252825,8.1559379 3.5917969,8.5742188 3.9307688,8.9924996 4.2211841,9.1863625 4.46875,9.9863281 c 0.2299881,0.7431649 0.1346301,1.0657029 0.1191406,1.6152339 -0.015489,0.549532 -0.049878,1.164679 -0.072266,1.751954 -0.00956,0.250823 4.263e-4,0.418129 -0.00195,0.646484 0.1334773,-0.0657 0.2168827,-0.09339 0.3574219,-0.166016 0.4851555,-0.250718 0.9959274,-0.528432 1.4746093,-0.761718 0.478682,-0.233287 0.7025328,-0.510103 1.6523438,-0.509766 0.9499917,3.35e-4 1.173868,0.278024 1.6523437,0.511719 0.4784757,0.233694 0.9897067,0.512543 1.4746097,0.763672 0.139835,0.07242 0.222609,0.100457 0.355469,0.166015 -0.0022,-0.228614 0.0094,-0.395321 0,-0.646484 -0.02196,-0.587312 -0.05717,-1.204357 -0.07227,-1.753906 -0.0151,-0.54955 -0.1074,-0.872294 0.123047,-1.6152348 C 11.779262,9.188712 12.069054,8.9961759 12.408203,8.578125 12.747352,8.1600741 13.138597,7.7118842 13.5,7.28125 13.601816,7.1599305 13.651594,7.0796719 13.746094,6.9628906 13.631032,6.9482317 13.569193,6.9315784 13.449219,6.9179688 12.894919,6.8550895 12.30495,6.7990006 11.763672,6.7207031 11.222394,6.6424056 10.85603,6.7728461 10.037109,6.1484375 9.6276506,5.8362343 9.5313735,5.6213518 9.3867188,5.3886719 9.242064,5.155992 9.1122252,4.9141375 8.9785156,4.6503906 8.7110965,4.1228969 8.4341289,3.5164772 8.1601562,2.9453125 8.1020217,2.8241165 8.0595549,2.7573543 8.0019531,2.640625 Z"
       style="opacity:0.4;fill:none;stroke:url(#linearGradient4159);stroke-linecap:round;stroke-linejoin:round" />
  </g>
  <g
     style="fill:#ffffff"
     transform="translate(-1,0)"
     id="g43">
    <path
       style="opacity:0.2"
       id="rect45"
       d="m 14.55,1 0.9,0 C 16.3087,1 17,1.6913 17,2.55 l 0,1.9 C 17,5.3087 16.3087,6 15.45,6 l -0.9,0 C 13.6913,6 13,5.3087 13,4.45 l 0,-1.9 C 13,1.6913 13.6913,1 14.55,1 Z" />
    <path
       style="opacity:0.2"
       id="rect47"
       d="m 6.55,1 0.9,0 C 8.3087,1 9,1.6913 9,2.55 l 0,1.9 C 9,5.3087 8.3087,6 7.45,6 L 6.55,6 C 5.6913,6 5,5.3087 5,4.45 L 5,2.55 C 5,1.6913 5.6913,1 6.55,1 Z" />
  </g>
  <rect
     style="fill:#dddddd"
     y="0"
     id="rect49"
     ry="1.55"
     height="5"
     rx="1.55"
     x="4.000001"
     width="4" />
  <path
     style="opacity:0.4;fill:none;stroke:#000000"
     id="path51"
     d="M 5.5625,0.5 C 4.976974,0.5 4.5,0.976974 4.5,1.5625 l 0,1.875 C 4.5,4.023026 4.976974,4.5 5.5625,4.5 l 0.875,0 C 7.023026,4.5 7.5,4.023026 7.5,3.4375 l 0,-1.875 C 7.5,0.976974 7.023026,0.5 6.4375,0.5 l -0.875,0 z" />
  <rect
     style="fill:#dddddd"
     y="0"
     id="rect53"
     ry="1.55"
     height="5"
     rx="1.55"
     x="11.999996"
     width="4" />
  <path
     style="opacity:0.4;fill:none;stroke:#000000"
     id="path55"
     d="M 13.5625,0.5 C 12.976974,0.5 12.5,0.976974 12.5,1.5625 l 0,1.875 C 12.5,4.023026 12.976974,4.5 13.5625,4.5 l 0.875,0 C 15.023026,4.5 15.5,4.023026 15.5,3.4375 l 0,-1.875 C 15.5,0.976974 15.023026,0.5 14.4375,0.5 l -0.875,0 z" />
  <g
     style="fill:#ffffff"
     transform="translate(-1,0)"
     id="g57">
    <path
       id="rect59"
       d="m 6.5,1 1,0 C 7.777,1 8,1.223 8,1.5 8,1.777 7.777,2 7.5,2 l -1,0 C 6.223,2 6,1.777 6,1.5 6,1.223 6.223,1 6.5,1 Z" />
    <path
       id="rect61"
       d="m 14.5,1 1,0 C 15.777,1 16,1.223 16,1.5 16,1.777 15.777,2 15.5,2 l -1,0 C 14.223,2 14,1.777 14,1.5 14,1.223 14.223,1 14.5,1 Z" />
  </g>
  <metadata
     id="metadata9999">
    <rdf:RDF>
      <cc:Work>
        <dc:format>image/svg+xml</dc:format>
        <dc:type
           rdf:resource="http://purl.org/dc/dcmitype/StillImage" />
        <dc:title></dc:title>
        <cc:license
           rdf:resource="http://creativecommons.org/licenses/by-sa/4.0/" />
        <dc:creator>
          <cc:Agent>
            <dc:title>Sixsixfive (sixsixfive.deviantart.com)</dc:title>
          </cc:Agent>
        </dc:creator>
        <dc:publisher>
          <cc:Agent>
            <dc:title>Sixsixfive (sixsixfive.deviantart.com)</dc:title>
          </cc:Agent>
        </dc:publisher>
        <dc:source>https://github.com/sixsixfive</dc:source>
        <dc:subject>
          <rdf:Bag>
            <rdf:li>ivy</rdf:li>
          </rdf:Bag>
        </dc:subject>
        <dc:contributor>
          <cc:Agent>
            <dc:title>ssf</dc:title>
          </cc:Agent>
        </dc:contributor>
        <dc:rights>
          <cc:Agent>
            <dc:title>Sixsixfive (sixisixfive.deviantart.com)</dc:title>
          </cc:Agent>
        </dc:rights>
        <dc:description>A simple icon theme published under CC-BY-SA_V4(http://creativecommons.org/licenses/by-sa/4.0)</dc:description>
        <dc:identifier>SSF</dc:identifier>
      </cc:Work>
    </rdf:RDF>
  </metadata>
  <!--Part of the Ivy icon them published under the CC-BY-SA_V4: http://creativecommons.org/licenses/by-sa/4.0 -->
</svg>
