<?xml version="1.0" encoding="UTF-8" standalone="no"?><svg xmlns:cc="http://creativecommons.org/ns#" xmlns:svg="http://www.w3.org/2000/svg" xmlns:dc="http://purl.org/dc/elements/1.1/" xmlns="http://www.w3.org/2000/svg" xmlns:rdf="http://www.w3.org/1999/02/22-rdf-syntax-ns#" id="svg2" version="1.1" viewBox="0 0 22 22"><defs id="defs4"><linearGradient gradientUnits="userSpaceOnUse" y1="20" id="0" x1="21" y2="-2.01" x2="20.956"><stop id="stop7" stop-color="#ddd"/><stop id="stop9" stop-color="#fff" offset="1"/></linearGradient><linearGradient gradientUnits="userSpaceOnUse" y1="2" id="1" y2="19" x2="0"><stop id="stop12" stop-color="#fff"/><stop stop-opacity="0" id="stop14" stop-color="#fff" offset="1"/></linearGradient></defs><path opacity="0.1" d="M 1,2 H 21 V 21 H 1 z" id="path16"/><path d="M 1,1 H 21 V 20 H 1 z" id="path18" fill="url(#0)"/><path d="M 1,1 H 21 V 7 H 1 z" id="path20" fill="#5288d1"/><g id="g22" fill="none"><path stroke="#000" opacity="0.4" d="m 1.5,1.5 0,18 19,0 0,-18 -19,0 z" id="path24"/><path stroke="url(#1)" opacity="0.4" d="m 2.5,2.5 0,16 17,0 0,-16 -17,0 z" id="path26"/></g><path opacity="0.4" d="M 2,6 H 20 V 7 H 2 z" id="path28"/><g id="g30" fill="#fff"><path opacity="0.4" d="M 3,7 19,7 19,8 3,8 Z" id="path32"/><g color="#000" id="g34" fill-rule="evenodd"><path d="M 3,3 4,3 4,4 3,4 Z" id="path36"/><path d="M 6,3 8,3 8,5 6,5 Z" id="path38"/><path d="m 9,4 2,0 0,1 -2,0 z" id="path40"/><path d="M 4,4 5,4 5,5 4,5 Z" id="path42"/></g></g><g color="#000" id="g44" fill-rule="evenodd" fill="#c1c1c1"><path d="M 3,4 4,4 4,5 3,5 Z" id="path46"/><path d="M 4,3 5,3 5,4 4,4 Z" id="path48"/></g><rect transform="matrix(0 1 -1 0 0 0)" width="1" height="18" opacity="0.4" id="rect3033" y="-20" x="12"/><rect ry="0.5" width="16" rx="0.604" height="1" opacity="0.2" id="rect3362" fill-rule="evenodd" y="13" x="3" fill="#fff"/><metadata id="metadata9999"><rdf:RDF><cc:Work><dc:format>image/svg+xml</dc:format><dc:type rdf:resource="http://purl.org/dc/dcmitype/StillImage"/><dc:title>Ivy icon theme</dc:title><cc:license rdf:resource="http://creativecommons.org/licenses/by-sa/4.0/"/><dc:creator><cc:Agent><dc:title>Sixsixfive (sixsixfive.deviantart.com)</dc:title></cc:Agent></dc:creator><dc:publisher><cc:Agent><dc:title>Sixsixfive (sixsixfive.deviantart.com)</dc:title></cc:Agent></dc:publisher><dc:source>https://github.com/sixsixfive</dc:source><dc:subject><rdf:Bag><rdf:li>ivy</rdf:li></rdf:Bag></dc:subject><dc:contributor><cc:Agent><dc:title>ssf</dc:title></cc:Agent></dc:contributor><dc:rights><cc:Agent><dc:title>Sixsixfive (sixisixfive.deviantart.com)</dc:title></cc:Agent></dc:rights><dc:description>A simple icon theme published under CC-BY-SA_V4(http://creativecommons.org/licenses/by-sa/4.0)</dc:description><dc:identifier>SSF</dc:identifier></cc:Work></rdf:RDF></metadata><!--Part of the Ivy icon them published under the CC-BY-SA_V4: http://creativecommons.org/licenses/by-sa/4.0 -->
</svg>