<?xml version="1.0" encoding="UTF-8" standalone="no"?><svg xmlns:cc="http://creativecommons.org/ns#" xmlns:dc="http://purl.org/dc/elements/1.1/" xmlns="http://www.w3.org/2000/svg" xmlns:svg="http://www.w3.org/2000/svg" xmlns:rdf="http://www.w3.org/1999/02/22-rdf-syntax-ns#" id="svg2" version="1.1" viewBox="0 0 22 22"><defs id="defs4"><linearGradient gradientTransform="matrix(0.515 0 0 0.5 -0.083 -1)" gradientUnits="userSpaceOnUse" y1="2" id="0" y2="44" x2="0"><stop id="stop7" stop-color="#dedede"/><stop id="stop9" stop-color="#f4f4f4" offset="1"/></linearGradient><linearGradient gradientUnits="userSpaceOnUse" y1="1" id="1" y2="20" x2="0"><stop id="stop12" stop-color="#fff"/><stop stop-opacity="0" id="stop14" stop-color="#fff" offset="1"/></linearGradient></defs><rect width="18" ry="0.604" height="21" rx="0.604" opacity="0.1" id="rect16" y="1" x="3"/><rect width="18" ry="0.604" height="21" rx="0.604" id="rect18" x="3" fill="url(#0)"/><g id="g20" fill="none"><path stroke="#000" opacity="0.4" d="m 3.5938,0.5312 c -0.058216,0 -0.0625,0.00428 -0.0625,0.0625 l 0,19.8125 c 0,0.05822 0.00428,0.0625 0.0625,0.0625 l 16.8125,0 c 0.05822,0 0.0625,-0.0043 0.0625,-0.0625 l 0,-19.8125 c 0,-0.058217 -0.0043,-0.0625 -0.0625,-0.0625 l -16.8125,0 z" id="path22"/><path stroke="url(#1)" opacity="0.8" d="m 4.5312,1.5312 0,17.9375 14.9375,0 0,-17.9375 -14.9375,0 z" id="path24"/></g><g id="g26" fill-rule="evenodd"><path d="m 11.9233,7.0016 c -2.65795,0.074349 -3.15801,2.10795 -3.01609,3.63778 0.16941,0.130489 0.181756,0.147865 0.359515,0.20118 -0.12516,1.29473 0.350396,2.44531 1.21215,3.35745 -0.04933,0.301102 -0.160367,0.558129 -0.324514,0.870694 l -2.7743,0.6167 c -1.34486,0.322508 -1.44662,2.30761 -1.35533,3.31457 11.9807,-0.03525 -0.023149,0.02075 11.9753,-0.02638 -0.04106,-1.10084 -0.191099,-3.0576 -1.55895,-3.36074 l -2.6279,-0.5178 c -1.96e-4,-0.0087 5.41e-4,-0.01761 0,-0.02638 l -0.1623,-0.9268 c 0.807342,-0.49754 1.16959,-2.57317 1.19944,-2.77039 0.150628,-0.210541 0.115299,-0.570974 0.155898,-0.854199 0.211232,-1.47369 -0.589273,-3.47234 -2.81566,-3.51575 -0.09028,-0.00177 -0.181502,-0.00245 -0.267245,0 z" id="path28" fill="#fff"/><path d="M 11.9233,6.0016 C 9.26535,6.075949 8.76529,8.10955 8.90721,9.63938 c 0.16941,0.130489 0.181756,0.147865 0.359515,0.20118 -0.12516,1.29473 0.350396,2.44531 1.21215,3.35745 -0.04933,0.301102 -0.160367,0.558129 -0.324514,0.870694 l -2.7743,0.6167 c -1.34486,0.322508 -1.44662,2.30761 -1.35533,3.31457 11.9807,-0.03525 -0.023149,0.02075 11.9753,-0.02638 -0.04106,-1.10084 -0.191099,-3.0576 -1.55895,-3.36074 l -2.6279,-0.5178 c -1.96e-4,-0.0087 5.41e-4,-0.01761 0,-0.02638 l -0.1623,-0.9268 c 0.807342,-0.49754 1.16959,-2.57317 1.19944,-2.77039 0.150628,-0.210541 0.115299,-0.570974 0.155898,-0.854199 0.211232,-1.47369 -0.589273,-3.47234 -2.81566,-3.51575 -0.09028,-0.00177 -0.181502,-0.00245 -0.267245,0 z" id="path30" fill="#6a6a6a"/></g><metadata id="metadata9999"><rdf:RDF><cc:Work><dc:format>image/svg+xml</dc:format><dc:type rdf:resource="http://purl.org/dc/dcmitype/StillImage"/><dc:title>Ivy icon theme</dc:title><cc:license rdf:resource="http://creativecommons.org/licenses/by-sa/4.0/"/><dc:creator><cc:Agent><dc:title>Sixsixfive (sixsixfive.deviantart.com)</dc:title></cc:Agent></dc:creator><dc:publisher><cc:Agent><dc:title>Sixsixfive (sixsixfive.deviantart.com)</dc:title></cc:Agent></dc:publisher><dc:source>https://github.com/sixsixfive</dc:source><dc:subject><rdf:Bag><rdf:li>ivy</rdf:li></rdf:Bag></dc:subject><dc:contributor><cc:Agent><dc:title>ssf</dc:title></cc:Agent></dc:contributor><dc:rights><cc:Agent><dc:title>Sixsixfive (sixisixfive.deviantart.com)</dc:title></cc:Agent></dc:rights><dc:description>A simple icon theme published under CC-BY-SA_V4(http://creativecommons.org/licenses/by-sa/4.0)</dc:description><dc:identifier>SSF</dc:identifier></cc:Work></rdf:RDF></metadata><!--Part of the Ivy icon them published under the CC-BY-SA_V4: http://creativecommons.org/licenses/by-sa/4.0 -->
</svg>