<?xml version="1.0" encoding="UTF-8" standalone="no"?>
<svg xmlns:dc="http://purl.org/dc/elements/1.1/" xmlns:cc="http://creativecommons.org/ns#" xmlns:rdf="http://www.w3.org/1999/02/22-rdf-syntax-ns#" xmlns:svg="http://www.w3.org/2000/svg" xmlns="http://www.w3.org/2000/svg" xmlns:xlink="http://www.w3.org/1999/xlink" viewBox="0 0 22 22" version="1.1" id="svg2">
 <defs id="defs5">
  <linearGradient id="linearGradient4311">
   <stop id="stop4313" stop-color="#fff"/>
   <stop id="stop4315" offset="1" stop-color="#fff" stop-opacity="0"/>
  </linearGradient>
  <linearGradient id="linearGradient4296">
   <stop id="stop4298" stop-color="#66b03e"/>
   <stop id="stop4300" offset="1" stop-color="#66b03e"/>
  </linearGradient>
  <linearGradient id="linearGradient4197">
   <stop id="stop4199" stop-color="#ebebeb"/>
   <stop id="stop4201" stop-color="#fff" offset="1"/>
  </linearGradient>
  <linearGradient gradientTransform="translate(-1,2)" gradientUnits="userSpaceOnUse" y2="18" x2="0" y1="5" id="linearGradient4177" xlink:href="#linearGradient4197"/>
  <linearGradient gradientUnits="userSpaceOnUse" y2="22" x2="0" y1="6" id="linearGradient4302" xlink:href="#linearGradient4296"/>
  <linearGradient gradientUnits="userSpaceOnUse" y2="21" x2="0" y1="7" id="linearGradient4317" xlink:href="#linearGradient4311"/>
 </defs>
 <path d="M 2.4882812,8 C 2.2179274,8 2,8.2179274 2,8.4882812 L 2,15 0.5,15 C 0.223,15 0,15.223 0,15.5 l 0,5 C 0,20.777 0.223,21 0.5,21 l 19,0 c 0.277,0 0.5,-0.223 0.5,-0.5 l 0,-5 C 20,15.223 19.777,15 19.5,15 L 18,15 18,8.4882812 C 18,8.2179274 17.782073,8 17.511719,8 L 2.4882812,8 Z" id="path4185" opacity="0.1" fill-rule="evenodd"/>
 <path id="rect3364" d="M 2.4882812,7 C 2.2179274,7 2,7.2179274 2,7.4882812 L 2,14 0.5,14 C 0.223,14 0,14.223 0,14.5 l 0,5 C 0,19.777 0.223,20 0.5,20 l 19,0 c 0.277,0 0.5,-0.223 0.5,-0.5 l 0,-5 C 20,14.223 19.777,14 19.5,14 L 18,14 18,7.4882812 C 18,7.2179274 17.782073,7 17.511719,7 L 2.4882812,7 Z" fill="url(#linearGradient4177)" fill-rule="evenodd"/>
 <path transform="translate(-1,2)" d="m 3.5410156,5.5410156 0,6.4589844 A 0.54194654,0.54194654 0 0 1 3,12.541016 l -1.4589844,0 0,4.917968 18.9179684,0 0,-4.917968 -1.458984,0 A 0.54194654,0.54194654 0 0 1 18.458984,12 l 0,-6.4589844 -14.9179684,0 z" id="path4181" opacity="0.5" fill="none" fill-rule="evenodd" stroke="#000" stroke-linejoin="round"/>
 <path transform="translate(-1,2)" id="path4183" d="m 4.5234375,6.5234375 0,5.4765625 A 1.5233478,1.5233478 0 0 1 3,13.523438 l -0.4765625,0 0,2.953124 16.9531245,0 0,-2.953124 -0.476562,0 A 1.5233478,1.5233478 0 0 1 17.476562,12 l 0,-5.4765625 -12.9531245,0 z" opacity="0.4" fill="none" fill-rule="evenodd" stroke="#fff" stroke-linejoin="round"/>
 <path id="path4308" d="M 11.005859 5.9824219 L 11.005859 10.982422 L 6.0058594 10.982422 L 6.0058594 16.982422 L 11.005859 16.982422 L 11.005859 21.982422 L 17.005859 21.982422 L 17.005859 16.982422 L 22.005859 16.982422 L 22.005859 10.982422 L 17.005859 10.982422 L 17.005859 5.9824219 L 11.005859 5.9824219 z " fill="url(#linearGradient4302)"/>
 <path d="m 11.546875,6.5234375 0,4.4589845 a 0.5419466,0.5419466 0 0 1 -0.541016,0.541016 l -4.458984,0 0,4.917968 4.458984,0 a 0.5419466,0.5419466 0 0 1 0.541016,0.541016 l 0,4.458984 4.917969,0 0,-4.458984 a 0.5419466,0.5419466 0 0 1 0.541015,-0.541016 l 4.458985,0 0,-4.917968 -4.458985,0 a 0.5419466,0.5419466 0 0 1 -0.541015,-0.541016 l 0,-4.4589845 -4.917969,0 z" id="path4306" opacity="0.4" fill="none" stroke="#000"/>
 <path id="path4309" d="m 12.5625,7.5390625 0,3.4433595 a 1.5572195,1.5572195 0 0 1 -1.556641,1.55664 l -3.443359,0 0,2.886719 3.443359,0 a 1.5572195,1.5572195 0 0 1 1.556641,1.556641 l 0,3.443359 2.886719,0 0,-3.443359 a 1.5572195,1.5572195 0 0 1 1.55664,-1.556641 l 3.44336,0 0,-2.886719 -3.44336,0 a 1.5572195,1.5572195 0 0 1 -1.55664,-1.55664 l 0,-3.4433595 -2.886719,0 z" opacity="0.4" fill="none" stroke="url(#linearGradient4317)"/>
 <metadata id="metadata9999">
  <rdf:RDF>
   <cc:Work>
    <dc:format>image/svg+xml</dc:format>
    <dc:type rdf:resource="http://purl.org/dc/dcmitype/StillImage"/>
    <dc:title>Ivy icon theme</dc:title>
    <cc:license rdf:resource="http://creativecommons.org/licenses/by-sa/4.0/"/>
    <dc:creator>
     <cc:Agent>
      <dc:title>Sixsixfive (sixsixfive.deviantart.com)</dc:title>
     </cc:Agent>
    </dc:creator>
    <dc:publisher>
     <cc:Agent>
      <dc:title>Sixsixfive (sixsixfive.deviantart.com)</dc:title>
     </cc:Agent>
    </dc:publisher>
    <dc:source>https://github.com/sixsixfive</dc:source>
    <dc:subject>
     <rdf:Bag>
      <rdf:li>ivy</rdf:li>
     </rdf:Bag>
    </dc:subject>
    <dc:contributor>
     <cc:Agent>
      <dc:title>ssf</dc:title>
     </cc:Agent>
    </dc:contributor>
    <dc:rights>
     <cc:Agent>
      <dc:title>Sixsixfive (sixisixfive.deviantart.com)</dc:title>
     </cc:Agent>
    </dc:rights>
    <dc:description>A simple icon theme published under CC-BY-SA_V4(http://creativecommons.org/licenses/by-sa/4.0)</dc:description>
    <dc:identifier>SSF</dc:identifier>
   </cc:Work>
  </rdf:RDF>
 </metadata>
 <!--Part of the Ivy icon them published under the CC-BY-SA_V4: http://creativecommons.org/licenses/by-sa/4.0 -->
</svg>
