<?xml version="1.0" encoding="UTF-8" standalone="no"?>
<svg xmlns:dc="http://purl.org/dc/elements/1.1/" xmlns:cc="http://creativecommons.org/ns#" xmlns:rdf="http://www.w3.org/1999/02/22-rdf-syntax-ns#" xmlns:svg="http://www.w3.org/2000/svg" xmlns="http://www.w3.org/2000/svg" version="1.1" viewBox="0 0 22 22" id="svg2">
 <defs id="defs4">
  <linearGradient id="0" y1="20" y2="-2.01" x1="21" gradientUnits="userSpaceOnUse" x2="20.956">
   <stop stop-color="#ddd" id="stop7"/>
   <stop offset="1" stop-color="#fff" id="stop9"/>
  </linearGradient>
  <linearGradient id="1" y1="2" y2="19" gradientUnits="userSpaceOnUse" x2="0">
   <stop stop-color="#fff" id="stop12"/>
   <stop offset="1" stop-color="#fff" id="stop14" stop-opacity="0"/>
  </linearGradient>
  <linearGradient id="0-5" y1="1" y2="15" x2="0" gradientUnits="userSpaceOnUse">
   <stop stop-color="#66b03e" id="stop7-0"/>
   <stop offset="1" stop-color="#95ce76" id="stop9-5"/>
  </linearGradient>
  <linearGradient id="1-3" y1="1.195" y2="15" x2="0" gradientUnits="userSpaceOnUse">
   <stop stop-color="#fff" id="stop12-1"/>
   <stop offset="1" stop-color="#fff" id="stop14-2" stop-opacity="0"/>
  </linearGradient>
 </defs>
 <path opacity="0.1" id="path16" d="M 1 2 H 21 V 21 H 1 z"/>
 <path fill="url(#0)" id="path18" d="M 1 1 H 21 V 20 H 1 z"/>
 <path fill="#5288d1" id="path20" d="M 1 1 H 21 V 7 H 1 z"/>
 <g id="g22" fill="none">
  <path id="path24" d="m 1.5,1.5 0,18 19,0 0,-18 -19,0 z" opacity="0.4" stroke="#000"/>
  <path id="path26" d="m 2.5,2.5 0,16 17,0 0,-16 -17,0 z" opacity="0.4" stroke="url(#1)"/>
 </g>
 <path opacity="0.4" id="path28" d="M 2 6 H 20 V 7 H 2 z"/>
 <g id="g30" fill="#fff">
  <path id="path32" d="M 3,7 19,7 19,8 3,8 Z" opacity="0.4"/>
  <g id="g34" fill-rule="evenodd" color="#000">
   <path id="path36" d="M 3,3 4,3 4,4 3,4 Z"/>
   <path id="path38" d="M 6,3 8,3 8,5 6,5 Z"/>
   <path id="path40" d="m 9,4 2,0 0,1 -2,0 z"/>
   <path id="path42" d="M 4,4 5,4 5,5 4,5 Z"/>
  </g>
 </g>
 <g id="g44" fill="#c1c1c1" fill-rule="evenodd" color="#000">
  <path id="path46" d="M 3,4 4,4 4,5 3,5 Z"/>
  <path id="path48" d="M 4,3 5,3 5,4 4,4 Z"/>
 </g>
 <g id="g3458" transform="translate(6,6)">
  <path id="path16-6" d="m 5,0 0,5 -5,0 0,6 5,0 0,5 6,0 0,-5 5,0 0,-6 -5,0 0,-5 z" fill="url(#0-5)"/>
  <g id="g18" fill="none">
   <path id="path20-0" d="M 5.5,0.5 5.5,5 A 0.498012,0.498012 0 0 1 5,5.5 l -4.5,0 0,5 4.5,0 A 0.498012,0.498012 0 0 1 5.5,11 l 0,4.5 5,0 0,-4.5 A 0.498012,0.498012 0 0 1 11,10.5 l 4.5,0 0,-5 -4.5,0 A 0.498012,0.498012 0 0 1 10.5,5 l 0,-4.5 -5,0 z" opacity="0.38" stroke="#000"/>
   <path id="path22" d="M 6.5,1.5 6.5,5 A 1.49607,1.49607 0 0 1 5,6.5 l -3.5,0 0,3 3.5,0 A 1.49607,1.49607 0 0 1 6.5,11 l 0,3.5 3,0 0,-3.5 A 1.49607,1.49607 0 0 1 11,9.5 l 3.5,0 0,-3 -3.5,0 A 1.49607,1.49607 0 0 1 9.5,5 l 0,-3.5 -3,0 z" opacity="0.38" stroke="url(#1-3)"/>
  </g>
 </g>
 <rect width="5" x="17" opacity="0.1" y="17" height="1" stroke-linejoin="bevel" id="rect3468" stroke-linecap="square"/>
 <rect width="5" x="6" opacity="0.1" y="17" height="1" stroke-linejoin="bevel" id="rect3470" stroke-linecap="square"/>
 <metadata id="metadata9999">
  <rdf:RDF>
   <cc:Work>
    <dc:format>image/svg+xml</dc:format>
    <dc:type rdf:resource="http://purl.org/dc/dcmitype/StillImage"/>
    <dc:title>Ivy icon theme</dc:title>
    <cc:license rdf:resource="http://creativecommons.org/licenses/by-sa/4.0/"/>
    <dc:creator>
     <cc:Agent>
      <dc:title>Sixsixfive (sixsixfive.deviantart.com)</dc:title>
     </cc:Agent>
    </dc:creator>
    <dc:publisher>
     <cc:Agent>
      <dc:title>Sixsixfive (sixsixfive.deviantart.com)</dc:title>
     </cc:Agent>
    </dc:publisher>
    <dc:source>https://github.com/sixsixfive</dc:source>
    <dc:subject>
     <rdf:Bag>
      <rdf:li>ivy</rdf:li>
     </rdf:Bag>
    </dc:subject>
    <dc:contributor>
     <cc:Agent>
      <dc:title>ssf</dc:title>
     </cc:Agent>
    </dc:contributor>
    <dc:rights>
     <cc:Agent>
      <dc:title>Sixsixfive (sixisixfive.deviantart.com)</dc:title>
     </cc:Agent>
    </dc:rights>
    <dc:description>A simple icon theme published under CC-BY-SA_V4(http://creativecommons.org/licenses/by-sa/4.0)</dc:description>
    <dc:identifier>SSF</dc:identifier>
   </cc:Work>
  </rdf:RDF>
 </metadata>
 <!--Part of the Ivy icon them published under the CC-BY-SA_V4: http://creativecommons.org/licenses/by-sa/4.0 -->
</svg>
