<?xml version="1.0" encoding="UTF-8" standalone="no"?><svg xmlns:rdf="http://www.w3.org/1999/02/22-rdf-syntax-ns#" xmlns:cc="http://creativecommons.org/ns#" xmlns:svg="http://www.w3.org/2000/svg" id="svg2" viewBox="0 0 22 22" version="1.1" xmlns:xlink="http://www.w3.org/1999/xlink" xmlns:dc="http://purl.org/dc/elements/1.1/" xmlns="http://www.w3.org/2000/svg"><defs id="defs5"><linearGradient id="linearGradient4170"><stop id="stop4172" stop-color="#fff"/><stop offset="1" id="stop4174" stop-color="#fff" stop-opacity="0"/></linearGradient><linearGradient id="linearGradient4197"><stop id="stop4199" stop-color="#ebebeb"/><stop offset="1" id="stop4201" stop-color="#fff"/></linearGradient><linearGradient id="linearGradient4177" x2="0" y2="18" gradientTransform="matrix(1 0 0 1 -1 2)" xlink:href="#linearGradient4197" y1="5" gradientUnits="userSpaceOnUse"/><linearGradient id="linearGradient4222" x2="0" y2="16" xlink:href="#linearGradient4170" y1="12" gradientUnits="userSpaceOnUse"/><linearGradient id="linearGradient4206" x2="0" y2="17" gradientTransform="matrix(1 0 0 1 -0.1640625 0)" xlink:href="#linearGradient4200" y1="11" gradientUnits="userSpaceOnUse"/><linearGradient id="linearGradient4200"><stop id="stop4202" stop-color="#d02604"/><stop offset="1" id="stop4204" stop-color="#fc7a60"/></linearGradient></defs><path id="path4185" opacity="0.1" d="M 2.4882812,8 C 2.2179274,8 2,8.2179274 2,8.4882812 L 2,15 0.5,15 C 0.223,15 0,15.223 0,15.5 l 0,5 C 0,20.777 0.223,21 0.5,21 l 19,0 c 0.277,0 0.5,-0.223 0.5,-0.5 l 0,-5 C 20,15.223 19.777,15 19.5,15 L 18,15 18,8.4882812 C 18,8.2179274 17.782073,8 17.511719,8 L 2.4882812,8 Z" fill-rule="evenodd"/><path id="rect3364" d="M 2.4882812,7 C 2.2179274,7 2,7.2179274 2,7.4882812 L 2,14 0.5,14 C 0.223,14 0,14.223 0,14.5 l 0,5 C 0,19.777 0.223,20 0.5,20 l 19,0 c 0.277,0 0.5,-0.223 0.5,-0.5 l 0,-5 C 20,14.223 19.777,14 19.5,14 L 18,14 18,7.4882812 C 18,7.2179274 17.782073,7 17.511719,7 L 2.4882812,7 Z" fill-rule="evenodd" fill="url(#linearGradient4177)"/><path id="path4181" opacity="0.5" d="m 3.5410156,5.5410156 0,6.4589844 A 0.54194654,0.54194654 0 0 1 3,12.541016 l -1.4589844,0 0,4.917968 18.9179684,0 0,-4.917968 -1.458984,0 A 0.54194654,0.54194654 0 0 1 18.458984,12 l 0,-6.4589844 -14.9179684,0 z" stroke="#000" transform="matrix(1 0 0 1 -1 2)" stroke-linejoin="round" fill-rule="evenodd" fill="none"/><path id="path4183" opacity="0.4" d="m 4.5234375,6.5234375 0,5.4765625 A 1.5233478,1.5233478 0 0 1 3,13.523438 l -0.4765625,0 0,2.953124 16.9531245,0 0,-2.953124 -0.476562,0 A 1.5233478,1.5233478 0 0 1 17.476562,12 l 0,-5.4765625 -12.9531245,0 z" stroke="#fff" transform="matrix(1 0 0 1 -1 2)" stroke-linejoin="round" fill-rule="evenodd" fill="none"/><path id="path4224" opacity="0.1" d="m 6.0054289,11.983 0,6 c 15.9999971,0 7.6553781,0 15.9999971,0 l 0,-6 c -15.9999971,0 -7.655376,0 -15.9999971,0 z"/><path id="path16" d="m 6.0054289,10.983051 0,6 c 15.9999971,0 7.6553781,0 15.9999971,0 l 0,-6 c -15.9999971,0 -7.655376,0 -15.9999971,0 z" fill="url(#linearGradient4206)"/><path id="path4212" opacity="0.5" d="m 6.6640625,11.476562 0,5.011719 15.0117185,0 0,-5.011719 -15.0117185,0 z" stroke="#000" transform="matrix(1 0 0 1 -0.1640625 0)" fill="none"/><path id="path4214" opacity="0.3" d="m 7.6523438,12.464844 0,3.035156 13.0351562,0 0,-3.035156 -13.0351562,0 z" stroke="url(#linearGradient4222)" transform="matrix(1 0 0 1 -0.1640625 0)" fill="none"/><path id="path4306" opacity="0.1" d="m 6.0054289,11.983 0,6 c 15.9999971,0 7.6553781,0 15.9999971,0 l 0,-6 c -15.9999971,0 -7.655376,0 -15.9999971,0 z"/><path id="path4308" d="m 6.0054289,10.983051 0,6 c 15.9999971,0 7.6553781,0 15.9999971,0 l 0,-6 c -15.9999971,0 -7.655376,0 -15.9999971,0 z" fill="url(#linearGradient4206)"/><path id="path4310" opacity="0.5" d="m 6.6640625,11.476562 0,5.011719 15.0117185,0 0,-5.011719 -15.0117185,0 z" stroke="#000" transform="matrix(1 0 0 1 -0.1640625 0)" fill="none"/><path id="path4312" opacity="0.3" d="m 7.6523438,12.464844 0,3.035156 13.0351562,0 0,-3.035156 -13.0351562,0 z" stroke="url(#linearGradient4222)" transform="matrix(1 0 0 1 -0.1640625 0)" fill="none"/><metadata id="metadata9999"><rdf:RDF><cc:Work><dc:format>image/svg+xml</dc:format><dc:type rdf:resource="http://purl.org/dc/dcmitype/StillImage"/><dc:title>Ivy icon theme</dc:title><cc:license rdf:resource="http://creativecommons.org/licenses/by-sa/4.0/"/><dc:creator><cc:Agent><dc:title>Sixsixfive (sixsixfive.deviantart.com)</dc:title></cc:Agent></dc:creator><dc:publisher><cc:Agent><dc:title>Sixsixfive (sixsixfive.deviantart.com)</dc:title></cc:Agent></dc:publisher><dc:source>https://github.com/sixsixfive</dc:source><dc:subject><rdf:Bag><rdf:li>ivy</rdf:li></rdf:Bag></dc:subject><dc:contributor><cc:Agent><dc:title>ssf</dc:title></cc:Agent></dc:contributor><dc:rights><cc:Agent><dc:title>Sixsixfive (sixisixfive.deviantart.com)</dc:title></cc:Agent></dc:rights><dc:description>A simple icon theme published under CC-BY-SA_V4(http://creativecommons.org/licenses/by-sa/4.0)</dc:description><dc:identifier>SSF</dc:identifier></cc:Work></rdf:RDF></metadata><!--Part of the Ivy icon them published under the CC-BY-SA_V4: http://creativecommons.org/licenses/by-sa/4.0 -->
</svg>