<?xml version="1.0" encoding="UTF-8" standalone="no"?><svg xmlns:cc="http://creativecommons.org/ns#" viewBox="0 0 22 22" version="1.1" id="svg2" xmlns:svg="http://www.w3.org/2000/svg" xmlns:rdf="http://www.w3.org/1999/02/22-rdf-syntax-ns#" xmlns="http://www.w3.org/2000/svg" xmlns:dc="http://purl.org/dc/elements/1.1/"><defs id="defs4"><linearGradient x2="0" gradientUnits="userSpaceOnUse" id="0" y2="21" y1="0"><stop id="stop7" stop-color="#ff8b36"/><stop offset="1" id="stop9" stop-color="#ff9f58"/></linearGradient><linearGradient x2="0" gradientUnits="userSpaceOnUse" id="1" y2="20" y1="1"><stop id="stop12" stop-color="#fff"/><stop offset="1" stop-opacity="0" id="stop14" stop-color="#fff"/></linearGradient><linearGradient x2="0" gradientUnits="userSpaceOnUse" id="0-9" y2="15" y1="1"><stop stop-color="#66b03e" id="stop7-2"/><stop offset="1" stop-color="#95ce76" id="stop9-7"/></linearGradient><linearGradient x2="0" gradientUnits="userSpaceOnUse" id="1-5" y2="15" y1="1.195"><stop stop-color="#fff" id="stop12-1"/><stop offset="1" stop-opacity="0" stop-color="#fff" id="stop14-7"/></linearGradient></defs><rect height="21" width="21" opacity="0.1" rx="2" ry="2" id="rect16" x="1" y="1"/><rect height="21" width="21" rx="2" ry="2" fill="url(#0)" id="rect18" x="1"/><path opacity="0.2" id="path20" d="m 5 4 v 2 c 5.93985 0.170292 10.8512 5.09643 11 11 h 2 C 17.863017 10.47677 13.01901 5.1063 6.7293 4.132 6.165477 4.044666 5.58558 4.01425 4.99997 3.999998 z"/><path fill="#eeeeec" id="path22" d="m 5 5 v 2 c 5.93985 0.170292 10.8512 5.09643 11 11 h 2 C 17.863017 11.47677 13.01901 6.1063 6.7293 5.132 6.165477 5.04467 5.58558 5.01425 4.99997 4.999998 z"/><path opacity="0.1" id="path24" d="m 5 9 v 2 c 3.44791 0.161353 5.85231 2.57919 6 6 h 2 C 13 12 10 9 5 9 z"/><path fill="#eeeeec" id="path26" d="m 5 10 v 2 c 3.44791 0.161353 5.85231 2.57919 6 6 h 2 c 0 -5 -3 -8 -8 -8 z"/><path opacity="0.1" id="path28" d="m 6.4827,14.0016 c -0.815081,-0.0022 -1.48268,0.651965 -1.48268,1.48212 0,0.830159 0.666826,1.48539 1.48268,1.48753 0.815082,0.0022 1.48268,-0.651965 1.48268,-1.48212 0,-0.778477 -0.587979,-1.41049 -1.32988,-1.48753 -0.035903,-0.0038 -0.088835,1.38e-4 -0.152794,0 z"/><path fill="#eeeeec" id="path30" d="m 6.4827,15.0016 c -0.815081,-0.0022 -1.48268,0.651965 -1.48268,1.48212 0,0.830159 0.666826,1.48539 1.48268,1.48753 0.815082,0.0022 1.48268,-0.651965 1.48268,-1.48212 0,-0.778477 -0.587979,-1.41049 -1.32988,-1.48753 -0.035903,-0.0038 -0.088835,1.38e-4 -0.152794,0 z"/><g fill="none" id="g32"><path opacity="0.4" id="path34" stroke="#000" d="M 3,0.5 C 2.156104,0.5 1.5,1.156104 1.5,2 l 0,17 c 0,0.843896 0.656104,1.5 1.5,1.5 l 17,0 c 0.843896,0 1.5,-0.656104 1.5,-1.5 l 0,-17 C 21.5,1.156104 20.843896,0.5 20,0.5 l -17,0 z"/><path opacity="0.4" id="path36" stroke="url(#1)" d="M 3,1.5 C 2.692658,1.5 2.5,1.692658 2.5,2 l 0,17 c 0,0.307342 0.192658,0.5 0.5,0.5 l 17,0 c 0.307342,0 0.5,-0.192658 0.5,-0.5 l 0,-17 C 20.5,1.692658 20.307342,1.5 20,1.5 l -17,0 z"/></g><metadata id="metadata9999"><rdf:RDF><cc:Work><dc:format>image/svg+xml</dc:format><dc:type rdf:resource="http://purl.org/dc/dcmitype/StillImage"/><dc:title/><cc:license rdf:resource="http://creativecommons.org/licenses/by-sa/4.0/"/><dc:creator><cc:Agent><dc:title>Sixsixfive (sixsixfive.deviantart.com)</dc:title></cc:Agent></dc:creator><dc:publisher><cc:Agent><dc:title>Sixsixfive (sixsixfive.deviantart.com)</dc:title></cc:Agent></dc:publisher><dc:source>https://github.com/sixsixfive</dc:source><dc:subject><rdf:Bag><rdf:li>ivy</rdf:li></rdf:Bag></dc:subject><dc:contributor><cc:Agent><dc:title>ssf</dc:title></cc:Agent></dc:contributor><dc:rights><cc:Agent><dc:title>Sixsixfive (sixisixfive.deviantart.com)</dc:title></cc:Agent></dc:rights><dc:description>A simple icon theme published under CC-BY-SA_V4(http://creativecommons.org/licenses/by-sa/4.0)</dc:description><dc:identifier>SSF</dc:identifier></cc:Work></rdf:RDF></metadata><!--Part of the Ivy icon them published under the CC-BY-SA_V4: http://creativecommons.org/licenses/by-sa/4.0 -->
<g id="g3431" transform="matrix(1 0 0 1 6 6)"><path fill="url(#0-9)" id="path16-9" d="m 5,0 0,5 -5,0 0,6 5,0 0,5 6,0 0,-5 5,0 0,-6 -5,0 0,-5 z"/><g fill="none" id="g18"><path opacity="0.6" id="path20-2" stroke="#000" d="M 5.5,0.5 5.5,5 A 0.498012,0.498012 0 0 1 5,5.5 l -4.5,0 0,5 4.5,0 A 0.498012,0.498012 0 0 1 5.5,11 l 0,4.5 5,0 0,-4.5 A 0.498012,0.498012 0 0 1 11,10.5 l 4.5,0 0,-5 -4.5,0 A 0.498012,0.498012 0 0 1 10.5,5 l 0,-4.5 -5,0 z"/><path opacity="0.38" id="path22-9" stroke="url(#1-5)" d="M 6.5,1.5 6.5,5 A 1.49607,1.49607 0 0 1 5,6.5 l -3.5,0 0,3 3.5,0 A 1.49607,1.49607 0 0 1 6.5,11 l 0,3.5 3,0 0,-3.5 A 1.49607,1.49607 0 0 1 11,9.5 l 3.5,0 0,-3 -3.5,0 A 1.49607,1.49607 0 0 1 9.5,5 l 0,-3.5 -3,0 z"/></g></g></svg>