<?xml version="1.0" encoding="UTF-8" standalone="no"?>
<svg xmlns:dc="http://purl.org/dc/elements/1.1/" xmlns:cc="http://creativecommons.org/ns#" xmlns:rdf="http://www.w3.org/1999/02/22-rdf-syntax-ns#" xmlns:svg="http://www.w3.org/2000/svg" xmlns="http://www.w3.org/2000/svg" viewBox="0 0 22 22" id="svg2" version="1.1">
 <defs id="defs4">
  <linearGradient id="0" y1="9.966" y2="41.29" x2="0" gradientUnits="userSpaceOnUse" gradientTransform="matrix(0.59237 0 0 0.63853 -5.506 -6.364)">
   <stop stop-color="#bababa" id="stop7"/>
   <stop offset="1" stop-color="#ebebeb" id="stop9"/>
  </linearGradient>
  <linearGradient id="1" y1="1" y2="19" x2="0" gradientUnits="userSpaceOnUse">
   <stop stop-color="#fff" id="stop12"/>
   <stop offset="1" stop-color="#fff" stop-opacity="0" id="stop14"/>
  </linearGradient>
 </defs>
 <path opacity="0.1" d="m 21 11.003 a 10 10 0 0 1 -20 0 A 10 10 0 1 1 21 11.003 z" id="path16"/>
 <path fill="url(#0)" d="m 21 9.9998 a 10 10 0 0 1 -20 0 A 10 10 0 1 1 21 9.9998 z" id="path18"/>
 <g id="g20" fill="none">
  <path d="M 10.78125,0.4998 C 10.606261,0.50362 10.487079,0.518489 10.3125,0.53105 10.137921,0.543611 10.01748,0.54103 9.84375,0.5623 9.670016,0.583567 9.547454,0.62613 9.375,0.65605 9.202546,0.68597 9.07699,0.711302 8.90625,0.7498 8.735506,0.788298 8.606108,0.79657 8.4375,0.84355 8.268893,0.89053 8.16605,0.944455 8,0.9998 7.83395,1.055145 7.725578,1.092479 7.5625,1.15605 7.399422,1.219621 7.284698,1.271911 7.125,1.34355 6.965302,1.415189 6.84342,1.451522 6.6875,1.53105 6.53158,1.610578 6.433002,1.662582 6.28125,1.7498 6.129498,1.837018 6.022206,1.90511 5.875,1.9998 5.727794,2.09449 5.611041,2.179124 5.46875,2.28105 5.326459,2.382976 5.230772,2.453393 5.09375,2.5623 4.956728,2.671207 4.85016,2.759183 4.71875,2.8748 4.58734,2.990417 4.50047,3.065263 4.375,3.1873 4.24953,3.309337 4.181716,3.402897 4.0625,3.53105 3.943284,3.659203 3.862665,3.740851 3.75,3.8748 3.637335,4.008749 3.543332,4.11039 3.4375,4.2498 3.331667,4.38921 3.254986,4.480277 3.15625,4.6248 3.057514,4.769323 2.997642,4.881775 2.90625,5.03105 2.814858,5.180325 2.740071,5.283645 2.65625,5.4373 2.572429,5.590955 2.51354,5.71715 2.4375,5.8748 2.36146,6.03245 2.318069,6.151048 2.25,6.3123 2.181931,6.473552 2.153678,6.585348 2.09375,6.7498 2.033822,6.914252 1.989138,7.02006 1.9375,7.1873 1.885862,7.35454 1.855718,7.486439 1.8125,7.65605 1.769282,7.825661 1.722191,7.953242 1.6875,8.1248 1.652809,8.296358 1.651077,8.420473 1.625,8.59355 1.598923,8.766627 1.579898,8.888136 1.5625,9.0623 1.545102,9.236464 1.539925,9.356235 1.53125,9.53105 1.52258,9.705865 1.499931,9.824769 1.5,9.9998 c 7.7e-5,0.17186 0.022743,0.297101 0.03125,0.46875 0.00851,0.171649 0.014333,0.297725 0.03125,0.46875 0.016917,0.171025 0.037214,0.29876 0.0625,0.46875 0.025286,0.16999 0.028906,0.268955 0.0625,0.4375 0.033594,0.168545 0.051928,0.302056 0.09375,0.46875 0.041822,0.166694 0.075052,0.273058 0.125,0.4375 0.049948,0.164442 0.098296,0.275707 0.15625,0.4375 0.057954,0.161793 0.090429,0.278744 0.15625,0.4375 0.065821,0.158756 0.113971,0.282164 0.1875,0.4375 0.073529,0.155336 0.137689,0.254708 0.21875,0.40625 0.081061,0.151542 0.130353,0.258867 0.21875,0.40625 0.088397,0.147383 0.15448,0.26338 0.25,0.40625 0.09552,0.14287 0.178837,0.236988 0.28125,0.375 0.102413,0.138012 0.17219,0.242178 0.28125,0.375 0.10906,0.132822 0.197056,0.216438 0.3125,0.34375 0.115444,0.127312 0.19095,0.222254 0.3125,0.34375 0.12155,0.121496 0.216386,0.197113 0.34375,0.3125 0.127364,0.115387 0.210879,0.203499 0.34375,0.3125 0.132871,0.109001 0.236942,0.178898 0.375,0.28125 0.138058,0.102352 0.232088,0.154544 0.375,0.25 0.142912,0.09546 0.258827,0.161669 0.40625,0.25 0.147423,0.08833 0.254672,0.169007 0.40625,0.25 0.151578,0.08099 0.250881,0.14529 0.40625,0.21875 0.155369,0.07346 0.278715,0.12175 0.4375,0.1875 0.158785,0.06575 0.275681,0.09837 0.4375,0.15625 0.161819,0.05788 0.273036,0.106375 0.4375,0.15625 0.164464,0.04988 0.270788,0.08325 0.4375,0.125 0.166712,0.04175 0.30019,0.06023 0.46875,0.09375 0.16856,0.03352 0.267499,0.03729 0.4375,0.0625 0.170001,0.02521 0.297717,0.04566 0.46875,0.0625 0.171033,0.01684 0.297097,0.02282 0.46875,0.03125 0.171653,0.0084 0.29689,0.03125 0.46875,0.03125 0.17186,0 0.297097,-0.02282 0.46875,-0.03125 0.171653,-0.0084 0.297717,-0.01441 0.46875,-0.03125 0.171033,-0.01684 0.298749,-0.03729 0.46875,-0.0625 0.170001,-0.02521 0.26894,-0.02898 0.4375,-0.0625 0.16856,-0.03352 0.302038,-0.052 0.46875,-0.09375 0.166712,-0.04175 0.273036,-0.07512 0.4375,-0.125 0.164464,-0.04988 0.275681,-0.09837 0.4375,-0.15625 0.161819,-0.05788 0.278715,-0.0905 0.4375,-0.15625 0.158785,-0.06575 0.282131,-0.11404 0.4375,-0.1875 0.155369,-0.07346 0.254672,-0.137757 0.40625,-0.21875 0.151578,-0.08099 0.258827,-0.161669 0.40625,-0.25 0.147423,-0.08833 0.263338,-0.154544 0.40625,-0.25 0.142912,-0.09546 0.236942,-0.147648 0.375,-0.25 0.138058,-0.102352 0.242129,-0.172249 0.375,-0.28125 0.132871,-0.109001 0.216386,-0.197113 0.34375,-0.3125 0.127364,-0.115387 0.2222,-0.191004 0.34375,-0.3125 0.12155,-0.121496 0.197056,-0.216438 0.3125,-0.34375 0.115444,-0.127312 0.20344,-0.210928 0.3125,-0.34375 0.10906,-0.132822 0.178837,-0.236988 0.28125,-0.375 0.102413,-0.138012 0.18573,-0.23213 0.28125,-0.375 0.09552,-0.14287 0.161603,-0.258867 0.25,-0.40625 0.0884,-0.147383 0.137689,-0.254708 0.21875,-0.40625 0.08106,-0.151542 0.14522,-0.250914 0.21875,-0.40625 0.07353,-0.155336 0.121679,-0.278744 0.1875,-0.4375 0.06582,-0.158756 0.0983,-0.275707 0.15625,-0.4375 0.05795,-0.161793 0.106302,-0.273058 0.15625,-0.4375 0.04995,-0.164442 0.08318,-0.270806 0.125,-0.4375 0.04182,-0.166694 0.06016,-0.300205 0.09375,-0.46875 0.03359,-0.168545 0.03721,-0.26751 0.0625,-0.4375 0.02529,-0.16999 0.04558,-0.297725 0.0625,-0.46875 0.01692,-0.171025 0.02274,-0.297101 0.03125,-0.46875 C 20.47725,10.296901 20.49992,10.17166 20.5,9.9998 20.500067,9.830926 20.47682,9.699731 20.46875,9.53105 20.46065,9.362369 20.45369,9.261645 20.4375,9.09355 20.42131,8.925455 20.4305,8.791919 20.40625,8.6248 20.38197,8.457681 20.34481,8.353055 20.3125,8.1873 20.28019,8.02154 20.25901,7.882555 20.21875,7.71855 20.17849,7.554545 20.14187,7.442924 20.09375,7.28105 20.04563,7.119176 20.02461,7.00292 19.96875,6.84355 19.912887,6.684184 19.87598,6.593788 19.8125,6.4373 19.74902,6.280812 19.695949,6.153047 19.625,5.9998 19.554051,5.846553 19.484504,5.743199 19.40625,5.59355 19.327996,5.443901 19.272876,5.333003 19.1875,5.1873 19.10212,5.0416 19.0298,4.953718 18.9375,4.8123 18.8452,4.670882 18.786509,4.574105 18.6875,4.4373 18.588491,4.300495 18.511738,4.194173 18.40625,4.0623 18.300762,3.930427 18.236722,3.845185 18.125,3.71855 18.01328,3.591915 17.930197,3.495903 17.8125,3.3748 17.694803,3.253697 17.592147,3.177589 17.46875,3.0623 17.345353,2.947011 17.253811,2.859007 17.125,2.7498 16.996189,2.640593 16.915175,2.571421 16.78125,2.46855 16.647325,2.365679 16.544978,2.283596 16.40625,2.1873 16.267522,2.091004 16.17446,2.026797 16.03125,1.9373 15.888042,1.847803 15.772356,1.80104 15.625,1.71855 15.477644,1.63606 15.369911,1.575091 15.21875,1.4998 15.06759,1.424509 14.967114,1.380217 14.8125,1.3123 14.657886,1.244383 14.563958,1.185186 14.40625,1.1248 14.248542,1.064414 14.12919,1.021264 13.96875,0.96855 13.808314,0.915836 13.69404,0.888469 13.53125,0.84355 13.36846,0.798631 13.258516,0.75557 13.09375,0.71855 12.928984,0.68153 12.791359,0.685085 12.625,0.65605 12.458641,0.627015 12.355065,0.583282 12.1875,0.5623 12.01994,0.541318 11.887132,0.543931 11.71875,0.53105 11.550368,0.518169 11.450057,0.50455 11.28125,0.4998 c -0.174961,-0.00492 -0.325011,-0.00382 -0.5,0 z" id="path22" opacity="0.4" stroke="#000"/>
  <path d="M 10.4062,1.5623 C 10.022069,1.589939 9.941905,1.621466 9.56245,1.6873 9.182995,1.753134 9.089692,1.771428 8.7187,1.8748 8.347708,1.978172 8.296274,1.984923 7.93745,2.1248 7.578626,2.264677 7.499275,2.293563 7.1562,2.46855 6.813125,2.643537 6.76135,2.697701 6.43745,2.90605 6.11355,3.114399 6.051442,3.135169 5.74995,3.3748 5.448458,3.614431 5.401024,3.668778 5.12495,3.9373 4.848876,4.205822 4.7791,4.267569 4.5312,4.5623 4.2833,4.857031 4.248451,4.900552 4.0312,5.21855 3.813949,5.536548 3.778133,5.63046 3.5937,5.96855 3.409267,6.30664 3.368474,6.363743 3.2187,6.71855 3.068926,7.073357 3.05107,7.131818 2.93745,7.4998 2.823831,7.867782 2.795031,7.934816 2.7187,8.3123 2.642369,8.689784 2.63198,8.772833 2.5937,9.15605 2.55542,9.539267 2.562298,9.614676 2.56245,9.9998 c 1.69e-4,0.378147 -0.00597,0.436189 0.03125,0.8125 0.037223,0.376311 0.051082,0.472897 0.125,0.84375 0.073918,0.370853 0.108848,0.419425 0.21875,0.78125 0.109902,0.361825 0.105172,0.431936 0.25,0.78125 0.144828,0.349314 0.19664,0.416558 0.375,0.75 0.17836,0.333442 0.196075,0.404391 0.40625,0.71875 0.210175,0.314359 0.260032,0.363998 0.5,0.65625 0.239968,0.292252 0.29505,0.357669 0.5625,0.625 0.26745,0.267331 0.332641,0.322663 0.625,0.5625 0.292359,0.239837 0.341797,0.258715 0.65625,0.46875 0.314453,0.210035 0.385229,0.259289 0.71875,0.4375 0.333521,0.178211 0.400621,0.199078 0.75,0.34375 0.349379,0.144672 0.419376,0.17151 0.78125,0.28125 0.361874,0.10974 0.410364,0.144998 0.78125,0.21875 0.370886,0.07375 0.467422,0.08795 0.84375,0.125 0.376328,0.03705 0.434352,0.03125 0.8125,0.03125 0.378148,0 0.436172,0.0058 0.8125,-0.03125 0.376328,-0.03705 0.472864,-0.05125 0.84375,-0.125 0.370886,-0.07375 0.419376,-0.10901 0.78125,-0.21875 0.361874,-0.10974 0.431871,-0.136578 0.78125,-0.28125 0.349379,-0.144672 0.416479,-0.165539 0.75,-0.34375 0.333521,-0.178211 0.404297,-0.227465 0.71875,-0.4375 0.314453,-0.210035 0.363891,-0.228913 0.65625,-0.46875 0.292359,-0.239837 0.35755,-0.295169 0.625,-0.5625 0.26745,-0.267331 0.322532,-0.332748 0.5625,-0.625 0.239968,-0.292252 0.289825,-0.341891 0.5,-0.65625 0.210175,-0.314359 0.22789,-0.385308 0.40625,-0.71875 0.17836,-0.333442 0.230172,-0.400686 0.375,-0.75 0.144828,-0.349314 0.140098,-0.419425 0.25,-0.78125 0.109902,-0.361825 0.144832,-0.410397 0.21875,-0.78125 0.07392,-0.370853 0.08778,-0.467439 0.125,-0.84375 0.03722,-0.376311 0.03108,-0.434353 0.03125,-0.8125 C 19.437597,9.628223 19.44185,9.557164 19.4062,9.1873 19.37057,8.817436 19.35228,8.739514 19.2812,8.3748 19.21012,8.01009 19.19957,7.949725 19.0937,7.59355 18.987828,7.237375 18.952127,7.156625 18.81245,6.8123 18.672773,6.467975 18.640883,6.422825 18.4687,6.09355 18.296517,5.764275 18.26554,5.685966 18.06245,5.3748 17.85936,5.063634 17.825809,5.00871 17.5937,4.71855 17.361591,4.428386 17.321421,4.391265 17.06245,4.1248 16.803479,3.858335 16.752126,3.80259 16.4687,3.5623 16.185274,3.32201 16.1177,3.274182 15.81245,3.0623 15.507203,2.850418 15.449181,2.806304 15.12495,2.6248 14.800719,2.443296 14.746402,2.43049 14.4062,2.28105 14.066,2.13161 13.977961,2.084537 13.62495,1.96855 13.271939,1.852563 13.206239,1.831256 12.8437,1.7498 12.481161,1.668344 12.431148,1.670968 12.06245,1.6248 11.693752,1.578632 11.62138,1.572751 11.24995,1.5623 c -0.384972,-0.010832 -0.459619,-0.027639 -0.84375,0 z" id="path24" opacity="0.4" stroke="url(#1)"/>
 </g>
 <path opacity="0.6" fill="#fff" d="m 7 13.9998 v 1 h 5 v -1 h -5 z" id="path26"/>
 <path fill="#6a6a6a" d="m 7 11.9998 v 2 h 8 v -2 h -8 z" id="path28"/>
 <g id="g30" fill="#fff">
  <path d="m 12,13.9998 0,1 3,0 0,-1 -3,0 z" id="path32" opacity="0.6"/>
  <path d="m 11,6.9998 -4,5 8,0 z" id="path34" opacity="0.5"/>
 </g>
 <path fill="#6a6a6a" d="m 11 5.9998 l -4 5 h 8 z" id="path36"/>
 <metadata id="metadata9999">
  <rdf:RDF>
   <cc:Work>
    <dc:format>image/svg+xml</dc:format>
    <dc:type rdf:resource="http://purl.org/dc/dcmitype/StillImage"/>
    <dc:title>Ivy icon theme</dc:title>
    <cc:license rdf:resource="http://creativecommons.org/licenses/by-sa/4.0/"/>
    <dc:creator>
     <cc:Agent>
      <dc:title>Sixsixfive (sixsixfive.deviantart.com)</dc:title>
     </cc:Agent>
    </dc:creator>
    <dc:publisher>
     <cc:Agent>
      <dc:title>Sixsixfive (sixsixfive.deviantart.com)</dc:title>
     </cc:Agent>
    </dc:publisher>
    <dc:source>https://github.com/sixsixfive</dc:source>
    <dc:subject>
     <rdf:Bag>
      <rdf:li>ivy</rdf:li>
     </rdf:Bag>
    </dc:subject>
    <dc:contributor>
     <cc:Agent>
      <dc:title>ssf</dc:title>
     </cc:Agent>
    </dc:contributor>
    <dc:rights>
     <cc:Agent>
      <dc:title>Sixsixfive (sixisixfive.deviantart.com)</dc:title>
     </cc:Agent>
    </dc:rights>
    <dc:description>A simple icon theme published under CC-BY-SA_V4(http://creativecommons.org/licenses/by-sa/4.0)</dc:description>
    <dc:identifier>SSF</dc:identifier>
   </cc:Work>
  </rdf:RDF>
 </metadata>
 <!--Part of the Ivy icon them published under the CC-BY-SA_V4: http://creativecommons.org/licenses/by-sa/4.0 -->
</svg>
