<?xml version="1.0" encoding="UTF-8" standalone="no"?><svg xmlns:cc="http://creativecommons.org/ns#" viewBox="0 0 22 22" version="1.1" id="svg2" xmlns:svg="http://www.w3.org/2000/svg" xmlns:rdf="http://www.w3.org/1999/02/22-rdf-syntax-ns#" xmlns="http://www.w3.org/2000/svg" xmlns:dc="http://purl.org/dc/elements/1.1/"><defs id="defs4"><linearGradient x2="0" gradientUnits="userSpaceOnUse" id="0" y2="20" y1="10"><stop id="stop7" stop-color="#c1c1c1"/><stop offset="1" id="stop9" stop-color="#ebebeb"/></linearGradient><linearGradient x2="0" gradientUnits="userSpaceOnUse" id="1" y2="29" gradientTransform="matrix(0.5 0 0 0.40046 -1 2.387)" y1="21"><stop id="stop12" stop-color="#a1bfe5"/><stop offset="1" id="stop14" stop-color="#5288d1"/></linearGradient><linearGradient x2="0" gradientUnits="userSpaceOnUse" id="2" y2="21" gradientTransform="matrix(0.5 0 0 0.47059 -1 0.118)" y1="6"><stop id="stop17" stop-color="#ebebeb"/><stop offset="1" id="stop19" stop-color="#fff"/></linearGradient></defs><rect height="5.667" width="18" rx="0.5" ry="0.472" fill="#6a6a6a" id="rect21" x="2" y="7"/><rect height="10" width="20" rx="0.952" ry="0.952" fill="url(#0)" id="rect23" x="1" y="10"/><rect height="7.208" width="16" rx="0.5" ry="0.4" fill="url(#1)" id="rect25" x="3" y="6.792"/><path opacity="0.419" fill="#6a6a6a" id="path27" d="m 1 16 v 3.111111 C 1 19.603556 1.424762 20 1.952381 20 h 18.09524 C 20.575238 20 21 19.603556 21 19.11111 V 16 H 1 z"/><path opacity="0.7" id="path29" d="M 1,15 H21 V16 H1 z"/><path fill="#171717" id="path31" d="M 3,17 H19 V18 H3 z"/><g fill="#fff" id="g33"><path opacity="0.52" id="path35" d="m 3,18 16,0 0,1 -16,0 z"/><path opacity="0.5" id="path37" d="m 3,14 16,0 0,1 -16,0 z"/></g><path stroke-linejoin="round" opacity="0.4" fill="none" id="path39" stroke="#000" stroke-linecap="round" transform="matrix(1 0 0 1 0 1.01)" d="m 3.5 6.3125 v 6.1875 h 15 v -6.1875 h -15 z"/><path fill="url(#2)" id="path41" d="M 3.5 2 C 3.223 2 3 2.209883 3 2.470589 V 10 H 19 V 2.470589 C 19 2.209883 18.777 2 18.5 2 z"/><path opacity="0.4" id="path43" color="#000" d="m 3.507813 2.00781 a 0.50005 0.50005 0 0 0 -0.5 0.5 V 7 C 3.00788 6.963269 2.963269 7.00788 3 7.00781 h -0.492188 a 0.50005 0.50005 0 0 0 -0.5 0.5 v 2.492188 h 1 v -1.996094 C 3.571407 7.998064 4.00685 7.565065 4.00781 7 v -3.992188 h 13.984375 v 3.992188 c 0.000962 0.565065 0.436406 0.998063 1 1.00391 v 1.996094 h 1 v -2.492188 a 0.50005 0.50005 0 0 0 -0.5 -0.5 h -0.492188 C 19.03673 7.00788 18.992087 6.963266 18.992188 7 v -4.492188 a 0.50005 0.50005 0 0 0 -0.5 -0.5 h -14.984376 z"/><path opacity="0.4" fill="none" id="path45" stroke="#000" d="M 1.9375 10.5 C 1.683342 10.5 1.5 10.683342 1.5 10.9375 v 8.125 C 1.5 19.316658 1.683342 19.5 1.9375 19.5 h 18.125 c 0.254158 0 0.4375 -0.183342 0.4375 -0.4375 v -8.125 C 20.5 10.683342 20.316658 10.5 20.0625 10.5 h -18.125 z"/><g fill-opacity="0.847" id="g47"><path opacity="0.671" id="rect49" d="m 3.5,10 15,0 c 0.277,0 0.5,0.223 0.5,0.5 0,0.277 -0.223,0.5 -0.5,0.5 l -15,0 C 3.223,11 3,10.777 3,10.5 3,10.223 3.223,10 3.5,10 Z"/><path opacity="0.52" id="path51" d="m 3,8 1,0 0,2 -1,0 z"/><path opacity="0.52" id="path53" d="m 18,8 1,0 0,2 -1,0 z"/></g><metadata id="metadata9999"><rdf:RDF><cc:Work><dc:format>image/svg+xml</dc:format><dc:type rdf:resource="http://purl.org/dc/dcmitype/StillImage"/><dc:title>Ivy icon theme</dc:title><cc:license rdf:resource="http://creativecommons.org/licenses/by-sa/4.0/"/><dc:creator><cc:Agent><dc:title>Sixsixfive (sixsixfive.deviantart.com)</dc:title></cc:Agent></dc:creator><dc:publisher><cc:Agent><dc:title>Sixsixfive (sixsixfive.deviantart.com)</dc:title></cc:Agent></dc:publisher><dc:source>https://github.com/sixsixfive</dc:source><dc:subject><rdf:Bag><rdf:li>ivy</rdf:li></rdf:Bag></dc:subject><dc:contributor><cc:Agent><dc:title>ssf</dc:title></cc:Agent></dc:contributor><dc:rights><cc:Agent><dc:title>Sixsixfive (sixisixfive.deviantart.com)</dc:title></cc:Agent></dc:rights><dc:description>A simple icon theme published under CC-BY-SA_V4(http://creativecommons.org/licenses/by-sa/4.0)</dc:description><dc:identifier>SSF</dc:identifier></cc:Work></rdf:RDF></metadata><!--Part of the Ivy icon them published under the CC-BY-SA_V4: http://creativecommons.org/licenses/by-sa/4.0 -->
</svg>