<?xml version="1.0" encoding="UTF-8" standalone="no"?>
<svg xmlns:dc="http://purl.org/dc/elements/1.1/" xmlns:cc="http://creativecommons.org/ns#" xmlns:rdf="http://www.w3.org/1999/02/22-rdf-syntax-ns#" xmlns:svg="http://www.w3.org/2000/svg" xmlns="http://www.w3.org/2000/svg" xmlns:xlink="http://www.w3.org/1999/xlink" version="1.1" viewBox="0 0 22 22" id="svg2">
 <defs id="defs4">
  <linearGradient id="1" y1="46.13" x1="33.06" y2="17.723" x2="33.13" gradientUnits="userSpaceOnUse">
   <stop stop-color="#ffe051" id="stop8"/>
   <stop offset="1" stop-color="#ffd506" id="stop10"/>
  </linearGradient>
  <linearGradient id="3" x1="33.26" x2="37.499" gradientUnits="userSpaceOnUse">
   <stop stop-color="#6a6a6a" id="stop14"/>
   <stop offset="1" stop-color="#5d5d5d" id="stop16"/>
  </linearGradient>
  <linearGradient id="linearGradient3101" xlink:href="#1" y1="46.13" x1="33.06" y2="17.723" x2="33.13" gradientUnits="userSpaceOnUse" gradientTransform="matrix(0.51399224 0 0 0.49692265 -1.027969 -1.829576)"/>
  <linearGradient id="linearGradient3121" xlink:href="#3" x1="33.26" x2="37.499" gradientUnits="userSpaceOnUse" gradientTransform="matrix(0.46485405 0.2424125 -0.30850416 0.37871625 -3.00208 0)"/>
 </defs>
 <path opacity="0.1" fill-rule="evenodd" id="path3923" d="m 18.25,1.872631 c -0.10208,0.020563 -0.191115,0.057703 -0.25,0.125 l -5.59375,6.40625 -0.5625,-0.3125 C 10.931252,7.896339 11,8.3173668 11,8.997631 c 0,0.4524616 0,1 -1,1 -3,-1 -5.1764912,4.719528 -10,7.000001 3.4733694,3.48038 8.6917633,5.072535 11,5 2.987116,-2.947567 3.42242,-7.236677 3,-9.4375 -0.03917,-0.499656 0.112863,-1.431838 1,-1.5625 0,0 0.676398,0.02334 0.8125,-0.0625 0.08051,-0.09996 0.297283,-0.195949 0.09375,-0.562501 L 14.75,9.716381 20,2.997631 c 0.218605,-0.2810638 0.0883,-0.4781597 -0.25,-0.65625 l -0.5,-0.28125 c -0.253717,-0.1335799 -0.693761,-0.2491877 -1,-0.1875 z"/>
 <path fill="url(#linearGradient3121)" fill-rule="evenodd" id="path29" color="#000" d="m 19.252987,1.0636819 0.506962,0.2669065 C 20.09825,1.5086787 20.218605,1.7189362 20,2 l -7,9 c -0.221603,0.278704 -0.584563,0.08473 -0.923765,-0.09216 L 11.331117,10.519278 C 10.991914,10.342391 10.764459,9.2691901 11,9 l 7,-8 c 0.23554,-0.26918807 0.914698,-0.11442453 1.252987,0.063682 z"/>
 <path opacity="0.4" fill="none" stroke="#000" stroke-linejoin="round" id="path3130" stroke-linecap="round" color="#000" d="m 18.375,1.3125 -7,8 c 0.07756,-0.088639 0.03442,-0.05367 0.03125,0.03125 -0.0032,0.08492 0.0026,0.2152487 0.03125,0.34375 0.02867,0.1285013 0.08331,0.2617772 0.125,0.34375 0.04169,0.08197 0.07852,0.103447 0,0.0625 l 0.71875,0.375 c 0.157957,0.08237 0.304439,0.136282 0.375,0.15625 L 19.5,1.78125 19.03125,1.5 C 19.025527,1.4969869 19.006464,1.5031308 19,1.5 18.892934,1.4481453 18.688976,1.361444 18.53125,1.34375 18.364001,1.3249877 18.306834,1.390404 18.375,1.3125 z"/>
 <path fill="url(#linearGradient3101)" fill-rule="evenodd" id="path33" d="m 11,8 c 0,0.4524616 0,1 -1,1 -3,-1 -5.1764912,4.719527 -10,7 3.4733694,3.48038 8.6917633,5.072535 11,5 2.987116,-2.947567 3.42242,-7.250549 3,-9.451372 C 13.96083,11.048972 14.112863,10.130662 15,10 c 0,0 0.679136,0.01844 0.815238,-0.067402 0.08051,-0.09996 0.305288,-0.1821163 0.101755,-0.5486675 L 11.849366,7.0963971 C 10.936868,6.9013551 11,7.3197358 11,8 z"/>
 <path fill="#ed4c70" id="path3904" d="M 11.125,7.84375 11,7.96875 c 3e-5,0.011191 0,0.019912 0,0.03125 0,0.4524616 0,1 -1,1 l 4,2 0.0625,-0.0625 C 14.165426,10.514615 14.41831,10.085674 15,10 L 11.125,7.84375 z"/>
 <path opacity="0.531" fill="none" stroke="#000" id="path3911" d="M 3,17.695122 C 4.7022269,17.069836 7.5108296,13.55638 8,12.45935"/>
 <path opacity="0.531" fill="none" stroke="#000" id="path3913" d="M 5.7205285,19 C 7,18 9.3908075,14.620052 10,13.484756"/>
 <path opacity="0.531" fill="none" stroke="#000" id="path3915" d="M 11.422764,15.323171 C 10.756098,16.323171 9,19 8,20"/>
 <path opacity="0.4" fill="none" stroke="#000" id="path3909" d="m 10.387819,9.7541191 2.753398,1.3670719"/>
 <path opacity="0.531" fill="none" stroke="#fff" id="path3917" d="M 3.7794715,18.195122 C 5.4816984,17.569836 8.5108296,14.09703 9,13"/>
 <path opacity="0.531" fill="none" stroke="#fff" id="path3919" d="M 6.5,19.5 C 7.7794715,18.5 10.390808,15.135296 11,14"/>
 <path opacity="0.531" fill="none" stroke="#fff" id="path3921" d="M 12,16.331301 C 11.333333,17.331301 9.7794715,19.5 8.7794715,20.5"/>
 <path opacity="0.4" fill="none" stroke="#000" stroke-linejoin="round" id="path3902" stroke-linecap="round" d="m 11.5,7.53125 c 0.01505,0.00716 0,0.1541003 0,0.46875 0,0.2262308 0.01047,0.5827702 -0.21875,0.9375 C 11.052028,9.2922298 10.589238,9.5 10,9.5 A 0.48898979,0.48898979 0 0 1 9.84375,9.46875 c -0.6005238,-0.2001746 -1.1232826,-0.07286 -1.75,0.3125 -0.6267174,0.38536 -1.3075581,1.02389 -2.0625,1.8125 -1.374441,1.435737 -3.0029033,3.248909 -5.1875,4.46875 1.5929543,1.454368 3.4832067,2.581664 5.28125,3.3125 1.8744759,0.761903 3.5998466,1.085317 4.65625,1.09375 2.686852,-2.794452 3.130893,-6.828033 2.75,-8.8125 A 0.48898979,0.48898979 0 0 1 13.5,11.59375 c -0.02529,-0.322584 0.02523,-0.737186 0.21875,-1.15625 0.193522,-0.419064 0.613334,-0.8170813 1.21875,-0.90625 A 0.48898979,0.48898979 0 0 1 15.03125,9.5 c 0,0 0.05108,-3e-4 0.0625,0 L 11.625,7.5625 c -0.0132,-0.00142 -0.01974,-0.030343 -0.03125,-0.03125 -0.03166,-0.00249 -0.07529,-1.195e-4 -0.09375,0 z"/>
 <metadata id="metadata9999">
  <rdf:RDF>
   <cc:Work>
    <dc:format>image/svg+xml</dc:format>
    <dc:type rdf:resource="http://purl.org/dc/dcmitype/StillImage"/>
    <dc:title>Ivy icon theme</dc:title>
    <cc:license rdf:resource="http://creativecommons.org/licenses/by-sa/4.0/"/>
    <dc:creator>
     <cc:Agent>
      <dc:title>Sixsixfive (sixsixfive.deviantart.com)</dc:title>
     </cc:Agent>
    </dc:creator>
    <dc:publisher>
     <cc:Agent>
      <dc:title>Sixsixfive (sixsixfive.deviantart.com)</dc:title>
     </cc:Agent>
    </dc:publisher>
    <dc:source>https://github.com/sixsixfive</dc:source>
    <dc:subject>
     <rdf:Bag>
      <rdf:li>ivy</rdf:li>
     </rdf:Bag>
    </dc:subject>
    <dc:contributor>
     <cc:Agent>
      <dc:title>ssf</dc:title>
     </cc:Agent>
    </dc:contributor>
    <dc:rights>
     <cc:Agent>
      <dc:title>Sixsixfive (sixisixfive.deviantart.com)</dc:title>
     </cc:Agent>
    </dc:rights>
    <dc:description>A simple icon theme published under CC-BY-SA_V4(http://creativecommons.org/licenses/by-sa/4.0)</dc:description>
    <dc:identifier>SSF</dc:identifier>
   </cc:Work>
  </rdf:RDF>
 </metadata>
 <!--Part of the Ivy icon them published under the CC-BY-SA_V4: http://creativecommons.org/licenses/by-sa/4.0 -->
</svg>
