<?xml version="1.0" encoding="UTF-8" standalone="no"?><svg xmlns:cc="http://creativecommons.org/ns#" xmlns:rdf="http://www.w3.org/1999/02/22-rdf-syntax-ns#" xmlns:svg="http://www.w3.org/2000/svg" id="svg2" viewBox="0 0 22 22" version="1.1" xmlns="http://www.w3.org/2000/svg" xmlns:dc="http://purl.org/dc/elements/1.1/"><defs id="defs4"><linearGradient id="0" x2="20.956" y2="-2.01" x1="21" y1="20" gradientUnits="userSpaceOnUse"><stop id="stop7" stop-color="#ddd"/><stop offset="1" id="stop9" stop-color="#fff"/></linearGradient><linearGradient id="1" x2="0" y2="19" y1="2" gradientUnits="userSpaceOnUse"><stop id="stop12" stop-color="#fff"/><stop offset="1" id="stop14" stop-color="#fff" stop-opacity="0"/></linearGradient></defs><path id="path16" opacity="0.1" d="M 1,2 H 21 V 21 H 1 z"/><path id="path18" d="M 1,1 H 21 V 20 H 1 z" fill="url(#0)"/><path id="path20" d="M 1,1 H 21 V 7 H 1 z" fill="#5288d1"/><rect height="13" id="rect3031" width="10" x="1" y="7" fill="#66b03e"/><rect height="4" id="rect3153" opacity="0.2" width="8" transform="matrix(0 1 -1 0 0 0)" x="9" y="-8"/><g id="g22" fill="none"><path id="path24" opacity="0.4" d="m 1.5,1.5 0,18 19,0 0,-18 -19,0 z" stroke="#000"/><path id="path26" opacity="0.4" d="m 2.5,2.5 0,16 17,0 0,-16 -17,0 z" stroke="url(#1)"/></g><path id="path28" opacity="0.4" d="M 2,6 H 20 V 7 H 2 z"/><g id="g30" fill="#fff"><path id="path32" opacity="0.4" d="M 3,7 19,7 19,8 3,8 Z"/><g id="g34" fill-rule="evenodd" color="#000"><path id="path36" d="M 3,3 4,3 4,4 3,4 Z"/><path id="path38" d="M 6,3 8,3 8,5 6,5 Z"/><path id="path40" d="m 9,4 2,0 0,1 -2,0 z"/><path id="path42" d="M 4,4 5,4 5,5 4,5 Z"/></g></g><g id="g44" fill-rule="evenodd" fill="#c1c1c1" color="#000"><path id="path46" d="M 3,4 4,4 4,5 3,5 Z"/><path id="path48" d="M 4,3 5,3 5,4 4,4 Z"/></g><rect height="12" id="rect3033" opacity="0.4" width="1" x="10" y="7"/><rect height="4" id="rect3037" opacity="0.2" width="8" x="2" y="11"/><rect height="2" id="rect3035" width="6" x="3" y="12" fill="#ebebeb"/><rect height="2" id="rect3151" width="6" transform="matrix(0 1 -1 0 0 0)" x="10" y="-7" fill="#ebebeb"/><metadata id="metadata9999"><rdf:RDF><cc:Work><dc:format>image/svg+xml</dc:format><dc:type rdf:resource="http://purl.org/dc/dcmitype/StillImage"/><dc:title>Ivy icon theme</dc:title><cc:license rdf:resource="http://creativecommons.org/licenses/by-sa/4.0/"/><dc:creator><cc:Agent><dc:title>Sixsixfive (sixsixfive.deviantart.com)</dc:title></cc:Agent></dc:creator><dc:publisher><cc:Agent><dc:title>Sixsixfive (sixsixfive.deviantart.com)</dc:title></cc:Agent></dc:publisher><dc:source>https://github.com/sixsixfive</dc:source><dc:subject><rdf:Bag><rdf:li>ivy</rdf:li></rdf:Bag></dc:subject><dc:contributor><cc:Agent><dc:title>ssf</dc:title></cc:Agent></dc:contributor><dc:rights><cc:Agent><dc:title>Sixsixfive (sixisixfive.deviantart.com)</dc:title></cc:Agent></dc:rights><dc:description>A simple icon theme published under CC-BY-SA_V4(http://creativecommons.org/licenses/by-sa/4.0)</dc:description><dc:identifier>SSF</dc:identifier></cc:Work></rdf:RDF></metadata><!--Part of the Ivy icon them published under the CC-BY-SA_V4: http://creativecommons.org/licenses/by-sa/4.0 -->
</svg>