<?xml version="1.0" encoding="UTF-8" standalone="no"?>
<svg xmlns:dc="http://purl.org/dc/elements/1.1/" xmlns:cc="http://creativecommons.org/ns#" xmlns:rdf="http://www.w3.org/1999/02/22-rdf-syntax-ns#" xmlns:svg="http://www.w3.org/2000/svg" xmlns="http://www.w3.org/2000/svg" viewBox="0 0 22 22" id="svg2" version="1.1">
 <defs id="defs4">
  <linearGradient id="0" x1="2.986" x2="45.13" gradientUnits="userSpaceOnUse" gradientTransform="matrix(0 0.47461 0.47473 0 -0.373 -0.417)">
   <stop stop-color="#66b03e" id="stop7"/>
   <stop offset="1" stop-color="#95ce76" id="stop9"/>
  </linearGradient>
  <linearGradient id="1" y1="4.05" y2="18" x2="0" gradientUnits="userSpaceOnUse">
   <stop stop-color="#fff" id="stop12"/>
   <stop offset="1" stop-color="#fff" stop-opacity="0" id="stop14"/>
  </linearGradient>
 </defs>
 <path opacity="0.1" d="m 11.00027 2 c -0.0055 5.84762 0.072 0.197623 0 6 h -9.0001 l 3.0001 4.0001 l -3 3.9999 h 9.00001 v 6 l 9 -10 z" id="path16"/>
 <path fill="url(#0)" d="m 11.00027 1 c -0.0055 5.84762 0.072 0.197623 0 6 h -9.0001 l 3.0001 4.0001 l -3 3.9999 h 9.00001 v 6 l 9 -10 z" id="path18"/>
 <g id="g20" fill="none">
  <path d="m 3.047173,7.5157 7.931,0 c 0.247109,0.00633 0.475075,-0.221641 0.46875,-0.46875 0.018,-1.45069 0.02829,-2.1825 0.03125,-2.5625 0.0015,-0.190001 0.0011,-0.279157 0,-0.34375 -0.0011,-0.064593 -0.02629,-0.165118 -0.03125,-0.1875 -0.0023,-0.043892 0.0026,-0.123473 0,-0.3125 -0.0028,-0.200414 0.0014,-0.916965 0,-1.375 l 7.9062,8.7812 -7.9062,8.7812 0,-4.78125 c 0.0063,-0.247109 -0.221641,-0.475075 -0.46875,-0.46875 l -8.031,0 2.653,-3.5781 z" id="path22" opacity="0.4" stroke="#000"/>
  <path d="m 5.100173,8.5501 5.9,0 c 0.77717,0.008 1.49164,-0.691584 1.5,-1.46875 0.01497,-1.20618 -0.0042,-1.72951 0,-2.15625 l 5.5,6.125 -5.5,6.125 0,-2.125 c 0.0081,-0.787584 -0.712416,-1.50811 -1.5,-1.5 l -5.9,0 1.8,-2.55 z" id="path24" opacity="0.4" stroke="url(#1)"/>
 </g>
 <metadata id="metadata9999">
  <rdf:RDF>
   <cc:Work>
    <dc:format>image/svg+xml</dc:format>
    <dc:type rdf:resource="http://purl.org/dc/dcmitype/StillImage"/>
    <dc:title>Ivy icon theme</dc:title>
    <cc:license rdf:resource="http://creativecommons.org/licenses/by-sa/4.0/"/>
    <dc:creator>
     <cc:Agent>
      <dc:title>Sixsixfive (sixsixfive.deviantart.com)</dc:title>
     </cc:Agent>
    </dc:creator>
    <dc:publisher>
     <cc:Agent>
      <dc:title>Sixsixfive (sixsixfive.deviantart.com)</dc:title>
     </cc:Agent>
    </dc:publisher>
    <dc:source>https://github.com/sixsixfive</dc:source>
    <dc:subject>
     <rdf:Bag>
      <rdf:li>ivy</rdf:li>
     </rdf:Bag>
    </dc:subject>
    <dc:contributor>
     <cc:Agent>
      <dc:title>ssf</dc:title>
     </cc:Agent>
    </dc:contributor>
    <dc:rights>
     <cc:Agent>
      <dc:title>Sixsixfive (sixisixfive.deviantart.com)</dc:title>
     </cc:Agent>
    </dc:rights>
    <dc:description>A simple icon theme published under CC-BY-SA_V4(http://creativecommons.org/licenses/by-sa/4.0)</dc:description>
    <dc:identifier>SSF</dc:identifier>
   </cc:Work>
  </rdf:RDF>
 </metadata>
 <!--Part of the Ivy icon them published under the CC-BY-SA_V4: http://creativecommons.org/licenses/by-sa/4.0 -->
</svg>
