<?xml version="1.0" encoding="UTF-8" standalone="no"?><svg xmlns:cc="http://creativecommons.org/ns#" xmlns:dc="http://purl.org/dc/elements/1.1/" xmlns="http://www.w3.org/2000/svg" xmlns:svg="http://www.w3.org/2000/svg" xmlns:rdf="http://www.w3.org/1999/02/22-rdf-syntax-ns#" id="svg2" version="1.1" viewBox="0 0 22 22" xmlns:xlink="http://www.w3.org/1999/xlink"><defs id="defs4"><linearGradient id="linearGradient4223"><stop id="stop4225" stop-color="#fff"/><stop stop-opacity="0" id="stop4227" stop-color="#fff" offset="1"/></linearGradient><linearGradient gradientTransform="matrix(0.39999998 0 0 0.5526316 0.6124 -3.817579)" gradientUnits="userSpaceOnUse" y1="6.908" id="0" y2="44.908" x2="0"><stop id="stop7" stop-color="#ddd"/><stop id="stop9" stop-color="#fff" offset="1"/></linearGradient><linearGradient gradientUnits="userSpaceOnUse" y1="1" xlink:href="#linearGradient4223" id="linearGradient4229" y2="20" x2="0"/></defs><path opacity="0.1" d="m 3,15.041667 16,0 L 19,22 3,22 Z" id="path4231" fill-rule="evenodd"/><path d="M 3,0 19,0 19,21 3,21 Z" id="path13" fill="url(#0)"/><path d="m 3,14 16,0 0,6.958333 -16,0 z" id="path17" fill-rule="evenodd" fill="#5288d1"/><path opacity="0.3" d="M 4,6 18,6 18,7 4,7 Z" id="path23" fill-rule="evenodd"/><path d="m 5,16 3,0 0,3 -3,0 z" id="path33" fill-rule="evenodd" fill="#ebebeb"/><path opacity="0.8" d="m 5,9 4,0 0,3 -4,0 z" id="path37" fill-rule="evenodd" fill="#6a6a6a"/><path opacity="0.8" d="m 5,2 6,0 0,3 -6,0 z" id="path39" fill-rule="evenodd" fill="#6a6a6a"/><path opacity="0.8" d="m 13,2 4,0 0,3 -4,0 z" id="path41" fill-rule="evenodd" fill="#6a6a6a"/><path opacity="0.8" d="m 11,9 6,0 0,3 -6,0 z" id="path43" fill-rule="evenodd" fill="#6a6a6a"/><path d="m 9,16.000001 2,0 L 11,19 9,19 Z" id="path47" fill-rule="evenodd" fill="#ebebeb"/><path d="m 12,16 5,0 0,2.999999 -5,0 z" id="path49" fill-rule="evenodd" fill="#ebebeb"/><path opacity="0.3" d="m 4,13 14,0 0,1 -14,0 z" id="path4211" fill-rule="evenodd"/><path opacity="0.2" d="M 4,7 18,7 18,8 4,8 Z" id="path4213" fill-rule="evenodd" fill="#fff"/><path opacity="0.2" d="m 4,14 14,0 0,1 -14,0 z" id="path4215" fill-rule="evenodd" fill="#fff"/><path stroke="#000" opacity="0.4" d="m 3.53125,0.53125 0,19.9375 14.9375,0 0,-19.9375 -14.9375,0 z" id="path4219" fill="none"/><path stroke="url(#linearGradient4229)" opacity="0.4" d="m 4.5488281,1.5488281 0,17.9023439 12.9023439,0 0,-17.9023439 -12.9023439,0 z" id="path4221" fill="none"/><metadata id="metadata9999"><rdf:RDF><cc:Work><dc:format>image/svg+xml</dc:format><dc:type rdf:resource="http://purl.org/dc/dcmitype/StillImage"/><dc:title>Ivy icon theme</dc:title><cc:license rdf:resource="http://creativecommons.org/licenses/by-sa/4.0/"/><dc:creator><cc:Agent><dc:title>Sixsixfive (sixsixfive.deviantart.com)</dc:title></cc:Agent></dc:creator><dc:publisher><cc:Agent><dc:title>Sixsixfive (sixsixfive.deviantart.com)</dc:title></cc:Agent></dc:publisher><dc:source>https://github.com/sixsixfive</dc:source><dc:subject><rdf:Bag><rdf:li>ivy</rdf:li></rdf:Bag></dc:subject><dc:contributor><cc:Agent><dc:title>ssf</dc:title></cc:Agent></dc:contributor><dc:rights><cc:Agent><dc:title>Sixsixfive (sixisixfive.deviantart.com)</dc:title></cc:Agent></dc:rights><dc:description>A simple icon theme published under CC-BY-SA_V4(http://creativecommons.org/licenses/by-sa/4.0)</dc:description><dc:identifier>SSF</dc:identifier></cc:Work></rdf:RDF></metadata><!--Part of the Ivy icon them published under the CC-BY-SA_V4: http://creativecommons.org/licenses/by-sa/4.0 -->
</svg>