<?xml version="1.0" encoding="UTF-8" standalone="no"?><svg xmlns:cc="http://creativecommons.org/ns#" viewBox="0 0 22 22" version="1.1" id="svg2" xmlns:svg="http://www.w3.org/2000/svg" xmlns="http://www.w3.org/2000/svg" xmlns:rdf="http://www.w3.org/1999/02/22-rdf-syntax-ns#" xmlns:dc="http://purl.org/dc/elements/1.1/"><defs id="defs4"><linearGradient x2="0" gradientUnits="userSpaceOnUse" y2="21" id="0" y1="0"><stop stop-color="#6a6a6a" id="stop7"/><stop offset="1" stop-color="#9d9d9d" id="stop9"/></linearGradient><linearGradient x2="0" gradientUnits="userSpaceOnUse" y2="20" id="1" y1="1"><stop stop-color="#fff" id="stop12"/><stop offset="1" stop-opacity="0" stop-color="#fff" id="stop14"/></linearGradient></defs><rect height="21" width="21" opacity="0.1" rx="2" ry="2" id="rect16" x="1" y="1"/><rect height="21" width="21" rx="2" ry="2" fill="url(#0)" id="rect18" x="1"/><path opacity="0.4" fill="none" stroke="#000" id="path20" d="M 3 0.5 C 2.156104 0.5 1.5 1.156104 1.5 2 v 17 c 0 0.843896 0.656104 1.5 1.5 1.5 h 17 c 0.843896 0 1.5 -0.656104 1.5 -1.5 v -17 C 21.5 1.156104 20.843896 0.5 20 0.5 h -17 z"/><path opacity="0.4" id="path22" d="M 10.414065 2.95148 C 7.967242 2.95148 6 4.803711 6 7.107529 v 4.609637 c 0 2.3038 1.967221 4.15605 4.414065 4.15605 h 1.171871 C 14.03276 15.873216 16 14.02098 16 11.717166 V 7.107529 C 16 4.80373 14.03278 2.95148 11.585936 2.95148 z m 0.02868 2 h 1.171871 c 1.052053 0 1.471429 1.123698 1.471429 1.123698 L 13 11.01665 c -0.01725 0.990412 -0.362007 2.380071 -1.41406 2.380071 h -1.171871 C 9.362015 13.396722 9 12.993968 9 12.00341 V 6.082858 c 0 0 0.390696 -1.131378 1.442746 -1.131378 z"/><path opacity="0.4" fill="none" stroke="url(#1)" id="path24" d="M 3 1.5 C 2.692658 1.5 2.5 1.692658 2.5 2 v 17 c 0 0.307342 0.192658 0.5 0.5 0.5 h 17 c 0.307342 0 0.5 -0.192658 0.5 -0.5 v -17 C 20.5 1.692658 20.307342 1.5 20 1.5 h -17 z"/><rect height="7.951" width="12" opacity="0.4" rx="0.4" ry="0.398" id="rect26" x="5" y="9"/><g fill="#fff" id="g28"><path id="path30" d="M 10.414065,4 C 7.967242,4 6,5.852231 6,8.156049 l 0,4.609637 c 0,2.3038 1.967221,4.15605 4.414065,4.15605 l 1.171871,0 C 14.03276,16.921736 16,15.0695 16,12.765686 L 16,8.156049 C 16,5.852251 14.03278,4 11.585936,4 Z m 0.02868,2 1.171871,0 c 1.052053,0 1.471429,1.123698 1.471429,1.123698 L 13,12.06517 c -0.01725,0.990412 -0.362007,2.380071 -1.41406,2.380071 l -1.171871,0 C 9.362015,14.445242 9,14.04249 9,13.05193 L 9,7.131378 C 9,7.131378 9.390696,6 10.442746,6 Z"/><path id="rect32" d="m 5.4,10.05 11.2,0 c 0.2216,0 0.4,0.177508 0.4,0.398 l 0,7.155 c 0,0.220492 -0.1784,0.398 -0.4,0.398 l -11.2,0 C 5.1784,18.001 5,17.823492 5,17.603 L 5,10.448 C 5,10.227508 5.1784,10.05 5.4,10.05 Z"/></g><metadata id="metadata9999"><rdf:RDF><cc:Work><dc:format>image/svg+xml</dc:format><dc:type rdf:resource="http://purl.org/dc/dcmitype/StillImage"/><dc:title>Ivy icon theme</dc:title><cc:license rdf:resource="http://creativecommons.org/licenses/by-sa/4.0/"/><dc:creator><cc:Agent><dc:title>Sixsixfive (sixsixfive.deviantart.com)</dc:title></cc:Agent></dc:creator><dc:publisher><cc:Agent><dc:title>Sixsixfive (sixsixfive.deviantart.com)</dc:title></cc:Agent></dc:publisher><dc:source>https://github.com/sixsixfive</dc:source><dc:subject><rdf:Bag><rdf:li>ivy</rdf:li></rdf:Bag></dc:subject><dc:contributor><cc:Agent><dc:title>ssf</dc:title></cc:Agent></dc:contributor><dc:rights><cc:Agent><dc:title>Sixsixfive (sixisixfive.deviantart.com)</dc:title></cc:Agent></dc:rights><dc:description>A simple icon theme published under CC-BY-SA_V4(http://creativecommons.org/licenses/by-sa/4.0)</dc:description><dc:identifier>SSF</dc:identifier></cc:Work></rdf:RDF></metadata><!--Part of the Ivy icon them published under the CC-BY-SA_V4: http://creativecommons.org/licenses/by-sa/4.0 -->
</svg>