<?xml version="1.0" encoding="UTF-8" standalone="no"?><svg xmlns:cc="http://creativecommons.org/ns#" xmlns:svg="http://www.w3.org/2000/svg" xmlns="http://www.w3.org/2000/svg" xmlns:dc="http://purl.org/dc/elements/1.1/" xmlns:rdf="http://www.w3.org/1999/02/22-rdf-syntax-ns#" id="svg2" version="1.1" viewBox="0 0 22 22"><defs id="defs4"><linearGradient gradientTransform="matrix(0.5 0 0 0.47368 -1 -0.368)" gradientUnits="userSpaceOnUse" y1="43" id="0" y2="5" x2="0"><stop id="stop7" stop-color="#ddd"/><stop id="stop9" stop-color="#fff" offset="1"/></linearGradient><linearGradient gradientUnits="userSpaceOnUse" y1="3.045" id="1" y2="18.955" x2="0"><stop id="stop12" stop-color="#fff"/><stop stop-opacity="0" id="stop14" stop-color="#fff" offset="1"/></linearGradient></defs><path opacity="0.1" d="M 1,3 H21 V21 H1 z" id="path16"/><path d="M 1,2 H21 V20 H1 z" id="path18" fill="url(#0)"/><g transform="matrix(-1 0 0 1 0 0)" id="g20"><path opacity="0.65" d="m -18,6 12,0 0,2 -12,0 z" id="path22" fill="#fff"/><path opacity="0.7" d="m -18,5 12,0 0,2 -12,0 z" id="path24" fill="#171717"/><path opacity="0.65" d="m -18,9 5,0 0,2 -5,0 z" id="path26" fill="#fff"/><path opacity="0.7" d="m -18,8 5,0 0,2 -5,0 z" id="path28" fill="#171717"/><path opacity="0.65" d="m -18,12 10,0 0,2 -10,0 z" id="path30" fill="#fff"/><path opacity="0.7" d="m -18,11 10,0 0,2 -10,0 z" id="path32" fill="#171717"/><path opacity="0.65" d="m -18,15 14,0 0,2 -14,0 z" id="path34" fill="#fff"/><path opacity="0.7" d="m -18,14 14,0 0,2 -14,0 z" id="path36" fill="#171717"/></g><g transform="matrix(-1 0 0 1 22 0)" id="g38" fill="none"><path stroke="#000" opacity="0.4" d="m 1.53125,2.53125 0,16.9375 18.9375,0 0,-16.9375 -18.9375,0 z" id="path40"/><path stroke="url(#1)" opacity="0.4" d="m 2.53125,3.53125 0,14.9375 16.9375,0 0,-14.9375 -16.9375,0 z" id="path42"/></g><metadata id="metadata9999"><rdf:RDF><cc:Work><dc:format>image/svg+xml</dc:format><dc:type rdf:resource="http://purl.org/dc/dcmitype/StillImage"/><dc:title>Ivy icon theme</dc:title><cc:license rdf:resource="http://creativecommons.org/licenses/by-sa/4.0/"/><dc:creator><cc:Agent><dc:title>Sixsixfive (sixsixfive.deviantart.com)</dc:title></cc:Agent></dc:creator><dc:publisher><cc:Agent><dc:title>Sixsixfive (sixsixfive.deviantart.com)</dc:title></cc:Agent></dc:publisher><dc:source>https://github.com/sixsixfive</dc:source><dc:subject><rdf:Bag><rdf:li>ivy</rdf:li></rdf:Bag></dc:subject><dc:contributor><cc:Agent><dc:title>ssf</dc:title></cc:Agent></dc:contributor><dc:rights><cc:Agent><dc:title>Sixsixfive (sixisixfive.deviantart.com)</dc:title></cc:Agent></dc:rights><dc:description>A simple icon theme published under CC-BY-SA_V4(http://creativecommons.org/licenses/by-sa/4.0)</dc:description><dc:identifier>SSF</dc:identifier></cc:Work></rdf:RDF></metadata><!--Part of the Ivy icon them published under the CC-BY-SA_V4: http://creativecommons.org/licenses/by-sa/4.0 -->
</svg>