<?xml version="1.0" encoding="UTF-8" standalone="no"?><svg xmlns:xlink="http://www.w3.org/1999/xlink" xmlns:cc="http://creativecommons.org/ns#" viewBox="0 0 22 22" version="1.1" id="svg2" xmlns:svg="http://www.w3.org/2000/svg" xmlns:rdf="http://www.w3.org/1999/02/22-rdf-syntax-ns#" xmlns="http://www.w3.org/2000/svg" xmlns:dc="http://purl.org/dc/elements/1.1/"><defs id="defs4"><path opacity="0.6" id="0" d="m 12 30.0312 c -2.75583 0 -5 2.24417 -5 5 0 2.75583 2.24417 5 5 5 2.75583 0 5 -2.24417 5 -5 0 -2.75583 -2.24417 -5 -5 -5 z m 0 1.9375 c 1.65685 0 3 1.34315 3 3 0 1.65685 -1.34315 3 -3 3 -1.65685 0 -3 -1.34315 -3 -3 0 -1.65685 1.34315 -3 3 -3 z"/><linearGradient x2="0" gradientUnits="userSpaceOnUse" id="1" y2="48" gradientTransform="matrix(0.47832 0 0 0.4776 0.519 23.522)" y1="3"><stop stop-color="#bfbfbf" id="stop8"/><stop offset="1" stop-color="#e7e7e7" id="stop10"/></linearGradient><linearGradient x2="16.956" gradientUnits="userSpaceOnUse" x1="16.994" id="2" y2="39.984" y1="29.99"><stop stop-opacity="0.268" id="stop13"/><stop offset="1" stop-opacity="0" id="stop15"/></linearGradient><linearGradient x2="18.01" gradientUnits="userSpaceOnUse" x1="17.882" id="3" y2="46.17" y1="25.918"><stop stop-color="#fff" id="stop18"/><stop offset="1" stop-opacity="0" stop-color="#fff" id="stop20"/></linearGradient></defs><g id="g22" transform="matrix(1 0 0 1 -0.962 -23.969)"><g id="g24" color="#000"><path opacity="0.1" id="path26" d="m 11.4062,25.0003 c -0.228518,0.01561 -0.43503,0.03937 -0.625,0.0625 -0.01787,0.0021 -0.04494,-0.0021 -0.0625,0 a 0.476661,0.47594 0 0 0 -0.40625,0.40625 l -0.4688,2.5938 c -0.659337,0.179669 -1.29278,0.422463 -1.875,0.75 l -2.1562,-1.5 a 0.476661,0.47594 0 0 0 -0.5625,0 c -0.663175,0.514094 -1.25464,1.10514 -1.78125,1.75 a 0.476661,0.47594 0 0 0 -0.03125,0.5625 l 1.4688,2.125 c -0.385641,0.640491 -0.672643,1.35456 -0.875,2.09375 l -2.5625,0.4062 A 0.476661,0.47594 0 0 0 1.0625,34.65655 C 1.00794,35.10155 1,35.547472 1,36.0003 c 0,0.365724 -0.005901,0.723049 0.03125,1.09375 a 0.476661,0.47594 0 0 0 0.40625,0.4375 L 4,38.00035 c 0.198948,0.7963 0.494778,1.53327 0.90625,2.21875 l -1.5,2.0938 a 0.476661,0.47594 0 0 0 0,0.5625 c 0.505734,0.626896 1.09394,1.18804 1.71875,1.6875 a 0.476661,0.47594 0 0 0 0.5625,0.03125 l 2.1562,-1.4688 c 0.71396,0.417752 1.48046,0.718101 2.3125,0.90625 l 0.4062,2.5 a 0.476661,0.47594 0 0 0 0.40625,0.40625 c 0.346332,0.03148 0.705058,0.03125 1.03125,0.03125 0.471357,0 0.935056,-0.0019 1.40625,-0.0625 a 0.476661,0.47594 0 0 0 0.40625,-0.40625 l 0.5,-2.5938 c 0.780693,-0.226492 1.48896,-0.568887 2.15625,-1 l 2.0625,1.5 A 0.476661,0.47594 0 0 0 19.1249,44.3753 c 0.626566,-0.532262 1.168,-1.13262 1.65625,-1.78125 a 0.476661,0.47594 0 0 0 0.03125,-0.5625 l -1.5,-2.1875 c 0.344344,-0.649418 0.589515,-1.35606 0.75,-2.09375 l 2.5,-0.4062 a 0.476661,0.47594 0 0 0 0.40625,-0.40625 c 0.0264,-0.313791 0.03125,-0.632139 0.03125,-0.9375 0,-0.558221 -0.0502,-1.11523 -0.125,-1.625 a 0.476661,0.47594 0 0 0 -0.40625,-0.375 l -2.5938,-0.4688 c -0.205712,-0.643626 -0.529865,-1.25329 -0.875,-1.8125 l 1.5312,-2.0938 a 0.476661,0.47594 0 0 0 0,-0.59375 c -0.543137,-0.663223 -1.18659,-1.25665 -1.875,-1.78125 a 0.476661,0.47594 0 0 0 -0.53125,0 l -2.25,1.5 c -0.559627,-0.303384 -1.14978,-0.5512 -1.78125,-0.71875 l -0.4062,-2.5625 a 0.476661,0.47594 0 0 0 -0.375,-0.40625 c -0.423683,-0.04977 -0.872376,-0.0625 -1.3125,-0.0625 -0.103464,0 -0.241836,-0.0042 -0.375,0 -0.01632,5.17e-4 -0.05454,-0.006 -0.15625,0 0.04419,-0.0025 0.01456,-0.0053 -0.0625,0 z M 12,32.9691 c 1.65685,0 3,1.34315 3,3 0,1.65685 -1.34315,3 -3,3 -1.65685,0 -3,-1.34315 -3,-3 0,-1.65685 1.34315,-3 3,-3 z"/><path fill="url(#1)" id="path28" d="m 11.4062,24 c -0.228518,0.01561 -0.43503,0.03937 -0.625,0.0625 -0.01787,0.0021 -0.04494,-0.0021 -0.0625,0 a 0.476661,0.47594 0 0 0 -0.40625,0.40625 l -0.4688,2.5938 c -0.659337,0.179669 -1.29278,0.422463 -1.875,0.75 l -2.1562,-1.5 a 0.476661,0.47594 0 0 0 -0.5625,0 c -0.663175,0.514094 -1.25464,1.10514 -1.78125,1.75 a 0.476661,0.47594 0 0 0 -0.03125,0.5625 l 1.4688,2.125 c -0.385641,0.640491 -0.672643,1.35456 -0.875,2.09375 L 1.46875,33.25 A 0.476661,0.47594 0 0 0 1.0625,33.65625 C 1.00794,34.10125 1,34.547172 1,35 c 0,0.365724 -0.005901,0.723049 0.03125,1.09375 a 0.476661,0.47594 0 0 0 0.40625,0.4375 L 4,37.00005 c 0.198948,0.7963 0.494778,1.53327 0.90625,2.21875 l -1.5,2.0938 a 0.476661,0.47594 0 0 0 0,0.5625 c 0.505734,0.626896 1.09394,1.18804 1.71875,1.6875 a 0.476661,0.47594 0 0 0 0.5625,0.03125 l 2.1562,-1.4688 c 0.71396,0.417752 1.48046,0.718101 2.3125,0.90625 l 0.4062,2.5 a 0.476661,0.47594 0 0 0 0.40625,0.40625 c 0.346332,0.03148 0.705058,0.03125 1.03125,0.03125 0.471357,0 0.935056,-0.0019 1.40625,-0.0625 a 0.476661,0.47594 0 0 0 0.40625,-0.40625 l 0.5,-2.5938 c 0.780693,-0.226492 1.48896,-0.568887 2.15625,-1 l 2.0625,1.5 A 0.476661,0.47594 0 0 0 19.1249,43.375 c 0.626566,-0.532262 1.168,-1.13262 1.65625,-1.78125 a 0.476661,0.47594 0 0 0 0.03125,-0.5625 l -1.5,-2.1875 c 0.344344,-0.649418 0.589515,-1.35606 0.75,-2.09375 l 2.5,-0.4062 a 0.476661,0.47594 0 0 0 0.40625,-0.40625 c 0.0264,-0.313791 0.03125,-0.632139 0.03125,-0.9375 0,-0.558221 -0.0502,-1.11523 -0.125,-1.625 a 0.476661,0.47594 0 0 0 -0.40625,-0.375 l -2.5938,-0.4688 c -0.205712,-0.643626 -0.529865,-1.25329 -0.875,-1.8125 l 1.5312,-2.0938 a 0.476661,0.47594 0 0 0 0,-0.59375 c -0.543137,-0.663223 -1.18659,-1.25665 -1.875,-1.78125 a 0.476661,0.47594 0 0 0 -0.53125,0 l -2.25,1.5 c -0.559627,-0.303384 -1.14978,-0.5512 -1.78125,-0.71875 l -0.4062,-2.5625 a 0.476661,0.47594 0 0 0 -0.375,-0.40625 c -0.423683,-0.04977 -0.872376,-0.0625 -1.3125,-0.0625 -0.103464,0 -0.241836,-0.0042 -0.375,0 -0.01632,5.17e-4 -0.05454,-0.006 -0.15625,0 0.04419,-0.0025 0.01456,-0.0053 -0.0625,0 z M 12,31.9688 c 1.65685,0 3,1.34315 3,3 0,1.65685 -1.34315,3 -3,3 -1.65685,0 -3,-1.34315 -3,-3 0,-1.65685 1.34315,-3 3,-3 z"/><g stroke-linejoin="round" fill="none" id="g30" stroke-linecap="round"><path opacity="0.4" id="path32" stroke="url(#3)" transform="matrix(1 0 0 1 0 -1)" d="m 11.5625,26.4062 -0.3438,1.9062 a 1.4096,1.4096 0 0 1 -1.3125,1.15625 c 0.158198,-0.0062 -0.190801,0.107844 -0.78125,0.375 -0.295225,0.133578 -0.685693,0.31131 -1.25,0.28125 -0.429982,-0.02291 -0.824236,-0.3364 -1.1875,-0.625 l -0.0625,0.0938 C 6.103525,29.26934 5.839068,29.09387 5.5312,28.87495 5.404082,29.0145 5.233772,29.1941 4.99995,29.4062 c -0.00688,0.0062 0.007,0.02498 0,0.03125 l 1.0625,1.5 a 1.4096,1.4096 0 0 1 -0.09375,1.75 c 0.018023,-0.02073 -0.11076,0.20358 -0.25,0.625 -0.13924,0.42142 -0.269945,1.07785 -1,1.65625 a 1.4096,1.4096 0 0 1 -0.625,0.28125 c -0.649577,0.120876 -1.15627,0.225053 -1.6875,0.3125 0.016849,0.164386 -0.016569,0.380991 -0.03125,0.65625 l 0.03125,0 c 0.00161,0.04217 -0.00117,0.0244 0,0.0625 L 4.25,36.625 a 1.4096,1.4096 0 0 1 1.15625,1.28125 c 0.0017,0.02386 0.08325,0.30914 0.28125,0.71875 0.198,0.40961 0.554995,0.952547 0.5,1.84375 a 1.4096,1.4096 0 0 1 -0.25,0.6875 c -0.369963,0.548893 -0.666241,0.951638 -0.96875,1.375 0.097696,0.08038 0.207155,0.203981 0.34375,0.34375 0.114292,0.09143 0.079054,0.08655 0.15625,0.15625 0.00817,0.0074 0.023477,-0.0071 0.03125,0 l 1.5625,-1.0625 a 1.4096,1.4096 0 0 1 1.6875,0.0625 c 0.017596,0.0148 0.303424,0.173779 0.75,0.3125 0.446576,0.138721 1.09148,0.237237 1.71875,0.90625 a 1.4096,1.4096 0 0 1 0.34375,0.71875 c 0.118751,0.625056 0.19558,1.11319 0.28125,1.625 0.173661,-0.02137 0.423404,-0.0069 0.71875,0 l 0.375,-1.9375 A 1.4096,1.4096 0 0 1 14.15625,42.5 c -0.009,9.32e-4 0.287599,-0.09235 0.6875,-0.3125 0.399901,-0.220153 0.937548,-0.61976 1.875,-0.5625 a 1.4096,1.4096 0 0 1 0.6875,0.25 c 0.516197,0.350287 0.922501,0.613976 1.34375,0.90625 0.124267,-0.155825 0.177661,-0.273339 0.46875,-0.5 C 19.22879,42.27122 19.24048,42.25918 19.25,42.25 l -1.0938,-1.5938 a 1.4096,1.4096 0 0 1 0.0625,-1.6875 c -0.03355,0.04228 0.07173,-0.200055 0.1875,-0.625 0.115774,-0.424945 0.222537,-1.11176 0.96875,-1.71875 a 1.4096,1.4096 0 0 1 0.625,-0.28125 c 0.625448,-0.118891 1.11344,-0.195658 1.625,-0.28125 -0.01832,-0.178858 -0.03613,-0.502693 -0.0625,-0.78125 l -1.9375,-0.375 a 1.4096,1.4096 0 0 1 -1.15625,-1.25 c 0.01857,0.199456 -0.127567,-0.108601 -0.4375,-0.6875 -0.154967,-0.28945 -0.336279,-0.711926 -0.3125,-1.3125 0.01806,-0.456111 0.322366,-0.858137 0.625,-1.21875 l -0.0938,-0.0625 c 0.293514,-0.443097 0.499331,-0.690411 0.71875,-1 -0.109406,-0.08828 -0.249206,-0.220322 -0.40625,-0.375 -0.07533,-0.07419 -0.105869,-0.09201 -0.1875,-0.1875 l -0.03125,0 -1.6875,1.125 a 1.4096,1.4096 0 0 1 -1.6875,-0.125 c 0.121539,0.103698 -0.237925,-0.02322 -0.84375,-0.25 -0.302913,-0.113393 -0.690773,-0.285185 -1.0625,-0.71875 -0.281959,-0.328864 -0.336452,-0.826556 -0.375,-1.28125 l -0.0938,0.0312 c -0.115095,-0.551271 -0.165025,-0.82692 -0.21875,-1.1875 -0.195741,0.01653 -0.481794,0.01765 -0.8125,0 z m 0.375,5.1562 c 0.02141,-7.77e-4 0.04116,4.56e-4 0.0625,0 2.84839,-0.06092 4.99533,2.72521 4.25,5.46875 l 0.03125,0 c -0.0053,0.0241 -0.02553,0.0386 -0.03125,0.0625 -0.0023,0.0096 0.0024,0.02169 0,0.03125 -0.673994,2.7339 -3.85796,4.08573 -6.3125,2.71875 C 9.9073,39.82683 9.87372,39.83005 9.84375,39.8124 l 0.0312,-0.0312 c -2.49861,-1.31224 -3.06094,-4.69661 -1.125,-6.75 L 8.71875,33 c 0.01582,-0.01758 0.046433,-0.01397 0.0625,-0.03125 0.824803,-0.887137 1.96329,-1.39717 3.15625,-1.40625 z"/><path opacity="0.4" id="path34" stroke="#000" transform="matrix(1 0 0 1 0 -1)" d="m 11.4062,25.4688 c -0.220703,0.0043 -0.472995,0.02405 -0.59375,0.0625 -0.06038,0.01922 -0.06696,0.03638 -0.0625,0.03125 0.0045,-0.0051 -6.46e-4,-0.02324 0,0.03125 a 0.47601,0.47601 0 0 1 0,0.09375 l -0.4375,2.4688 a 0.47601,0.47601 0 0 1 -0.4375,0.375 C 9.636025,28.54065 9.224998,28.785159 8.74995,29.0001 8.512426,29.10757 8.22688,29.20468 7.9062,29.1876 7.629441,29.17286 7.357224,29.00273 7.12495,28.78135 l 0,0.03125 C 7.07496,28.7815 7.04841,28.75077 6.99995,28.71885 6.461653,28.364244 6.01427,27.992343 5.56245,27.7501 c -0.157006,0.04566 -0.3087,0.124664 -0.5,0.3125 -0.209982,0.20618 -0.468303,0.47854 -0.75,0.71875 -0.023964,0.02043 -0.037559,0.0426 -0.0625,0.0625 -0.155535,0.164404 -0.307872,0.329349 -0.375,0.4375 -0.038701,0.06235 -0.031321,0.100862 -0.03125,0.09375 7.1e-5,-0.0071 -0.040314,-0.01212 0,0.03125 a 0.47601,0.47601 0 0 1 0.0625,0.03125 l 1.4062,2.0312 A 0.47601,0.47601 0 0 1 5.2499,32.06255 C 5.083259,32.25419 4.978851,32.622105 4.84365,33.0313 4.708449,33.440495 4.549687,33.913507 4.1249,34.25005 A 0.47601,0.47601 0 0 1 3.9374,34.3438 c -0.826276,0.153757 -1.63688,0.234466 -2.375,0.40625 -0.071999,0.103986 -0.098875,0.211542 -0.09375,0.46875 0.00551,0.276583 0.039884,0.656353 0,1.03125 -0.00483,0.04544 0.00799,0.07856 0,0.125 0.00136,0.225764 0.00917,0.470064 0.03125,0.59375 0.013361,0.07483 0.036042,0.09925 0.03125,0.09375 a 0.47601,0.47601 0 0 1 0.0625,0 l 2.5,0.4688 a 0.47601,0.47601 0 0 1 0.375,0.4375 c 0.020352,0.28489 0.180076,0.659254 0.375,1.0625 0.194924,0.403246 0.439412,0.837594 0.40625,1.375 a 0.47601,0.47601 0 0 1 -0.0625,0.25 c -0.463837,0.688168 -0.988965,1.27739 -1.375,1.90625 0.015273,0.116208 0.071592,0.20084 0.25,0.375 0.184464,0.180071 0.45957,0.38743 0.6875,0.65625 0.251167,0.200921 0.445699,0.426999 0.59375,0.53125 0.074025,0.05213 0.097053,0.06275 0.09375,0.0625 -0.0033,-2.52e-4 -0.019516,0.04487 0.03125,0 A 0.47601,0.47601 0 0 1 5.4999,44.1251 l 2.0625,-1.4062 a 0.47601,0.47601 0 0 1 0.59375,0.03125 c 0.225752,0.189865 0.620122,0.331333 1.0625,0.46875 0.442378,0.137417 0.934493,0.284336 1.3125,0.6875 a 0.47601,0.47601 0 0 1 0.125,0.21875 c 0.150948,0.794525 0.241311,1.57025 0.40625,2.28125 0.117359,0.08002 0.248387,0.137719 0.53125,0.125 0.325153,-0.01462 0.717028,-0.09629 1.15625,-0.03125 0.0115,4.88e-4 0.01951,-3.46e-4 0.03125,0 0.190675,0.0056 0.391597,-0.02606 0.5,-0.0625 0.05754,-0.01934 0.09498,-0.03271 0.09375,-0.03125 -0.0012,0.0015 1.71e-4,0.02432 0,-0.03125 a 0.47601,0.47601 0 0 1 0,-0.09375 l 0.4688,-2.4688 a 0.47601,0.47601 0 0 1 0.40625,-0.375 c 0.269813,-0.02805 0.639487,-0.221827 1.03125,-0.4375 0.391763,-0.215673 0.82656,-0.470999 1.375,-0.4375 a 0.47601,0.47601 0 0 1 0.25,0.0625 c 0.671896,0.455943 1.27614,0.964214 1.90625,1.34375 0.09828,-0.01268 0.164048,-0.05858 0.3125,-0.21875 0.144269,-0.155661 0.340144,-0.384115 0.5625,-0.59375 0.03902,-0.06413 0.08261,-0.07049 0.125,-0.125 0.176016,-0.226331 0.35611,-0.427294 0.46875,-0.5625 0.06988,-0.08388 0.118821,-0.133896 0.125,-0.15625 l -1.5,-2.1875 a 0.47601,0.47601 0 0 1 0.03125,-0.5625 c 0.148334,-0.186931 0.263189,-0.558351 0.375,-0.96875 0.111811,-0.410399 0.20262,-0.906422 0.625,-1.25 A 0.47601,0.47601 0 0 1 20.1562,37.2501 c 0.794735,-0.151071 1.57048,-0.241177 2.28125,-0.40625 0.107097,-0.174227 0.150042,-0.399622 0.125,-0.75 -0.02928,-0.409618 -0.127593,-0.877051 -0.09375,-1.375 a 0.47601,0.47601 0 0 1 0,-0.0625 c 0.01645,-0.09554 0.0014,-0.121848 -0.03125,-0.15625 -0.03268,-0.0344 -0.08976,-0.06728 -0.1875,-0.0625 a 0.47601,0.47601 0 0 1 -0.125,0 l -2.3438,-0.4375 a 0.47601,0.47601 0 0 1 -0.375,-0.4375 c -0.02045,-0.219738 -0.286334,-0.605042 -0.53125,-1.0625 -0.122458,-0.228729 -0.262976,-0.484768 -0.25,-0.8125 0.01123,-0.283516 0.204919,-0.552552 0.4375,-0.78125 l -0.03125,0 c 0.03115,-0.04702 0.06207,-0.07898 0.09375,-0.125 0.351971,-0.511211 0.711002,-0.982177 0.96875,-1.4375 -0.03364,-0.130118 -0.100966,-0.268024 -0.28125,-0.4375 -0.196338,-0.184568 -0.447869,-0.387756 -0.6875,-0.65625 -0.03683,-0.0275 -0.05943,-0.03402 -0.09375,-0.0625 -0.217213,-0.180306 -0.398419,-0.376072 -0.53125,-0.46875 -0.07691,-0.05366 -0.126163,-0.06259 -0.125,-0.0625 0.0012,8.8e-5 0.02187,-0.0469 -0.03125,0 a 0.47601,0.47601 0 0 1 -0.0625,0.0625 l -2.1562,1.4375 A 0.47601,0.47601 0 0 1 15.56245,29.1251 C 15.389795,28.97779 14.945536,28.866099 14.4687,28.6876 14.230282,28.59835 13.956683,28.459974 13.74995,28.21885 13.576092,28.01607 13.534099,27.712504 13.5312,27.40635 l -0.03125,0 c -0.141618,-0.678307 -0.166478,-1.28085 -0.3125,-1.8125 -0.14525,-0.08575 -0.303069,-0.132487 -0.59375,-0.125 -0.320022,0.0082 -0.707435,0.05388 -1.125,0 l -0.0625,0 z M 11.9687,32.5 c 0.01066,-3.87e-4 0.02061,2.79e-4 0.03125,0 2.20874,-0.05786 3.98107,2.18779 3.375,4.3125 -0.0021,0.0094 0.0022,0.02184 0,0.03125 C 14.880011,38.98814 12.24941,40.09712 10.3437,39 l 0,0.03125 C 10.329943,39.0244 10.326062,39.00702 10.31245,39 8.36832,37.99668 7.92223,35.20591 9.43745,33.625 l 0.03125,0 c 0.64672,-0.707621 1.54769,-1.12244 2.5,-1.125 z"/></g></g><g fill="url(#2)" id="g36"><use height="22" width="22" xlink:href="#0" id="use38" x="0" y="0"/><use height="22" width="22" xlink:href="#0" id="use40" x="0" y="0"/><use height="22" width="22" xlink:href="#0" id="use42" x="0" y="0"/></g></g><metadata id="metadata9999"><rdf:RDF><cc:Work><dc:format>image/svg+xml</dc:format><dc:type rdf:resource="http://purl.org/dc/dcmitype/StillImage"/><dc:title>Ivy icon theme</dc:title><cc:license rdf:resource="http://creativecommons.org/licenses/by-sa/4.0/"/><dc:creator><cc:Agent><dc:title>Sixsixfive (sixsixfive.deviantart.com)</dc:title></cc:Agent></dc:creator><dc:publisher><cc:Agent><dc:title>Sixsixfive (sixsixfive.deviantart.com)</dc:title></cc:Agent></dc:publisher><dc:source>https://github.com/sixsixfive</dc:source><dc:subject><rdf:Bag><rdf:li>ivy</rdf:li></rdf:Bag></dc:subject><dc:contributor><cc:Agent><dc:title>ssf</dc:title></cc:Agent></dc:contributor><dc:rights><cc:Agent><dc:title>Sixsixfive (sixisixfive.deviantart.com)</dc:title></cc:Agent></dc:rights><dc:description>A simple icon theme published under CC-BY-SA_V4(http://creativecommons.org/licenses/by-sa/4.0)</dc:description><dc:identifier>SSF</dc:identifier></cc:Work></rdf:RDF></metadata><!--Part of the Ivy icon them published under the CC-BY-SA_V4: http://creativecommons.org/licenses/by-sa/4.0 -->
</svg>