<?xml version="1.0" encoding="UTF-8" standalone="no"?><svg xmlns:cc="http://creativecommons.org/ns#" xmlns:svg="http://www.w3.org/2000/svg" xmlns="http://www.w3.org/2000/svg" xmlns:dc="http://purl.org/dc/elements/1.1/" xmlns:rdf="http://www.w3.org/1999/02/22-rdf-syntax-ns#" id="svg2" version="1.1" viewBox="0 0 22 22" xmlns:xlink="http://www.w3.org/1999/xlink"><defs id="defs4"><linearGradient id="linearGradient4153"><stop stop-opacity="1" id="stop4155" stop-color="#fff"/><stop stop-opacity="0" id="stop4157" stop-color="#fff" offset="1"/></linearGradient><linearGradient id="linearGradient4213"><stop stop-opacity="1" id="stop4215" stop-color="#5288d1"/><stop stop-opacity="1" id="stop4217" stop-color="#93b5e2" offset="1"/></linearGradient><linearGradient gradientTransform="matrix(-0.47619051 0 0 -0.50000001 22.428572 23.000001)" gradientUnits="userSpaceOnUse" y1="38" xlink:href="#linearGradient4213" id="linearGradient4219" x1="21.9" y2="12.000002" x2="21.9"/><linearGradient gradientUnits="userSpaceOnUse" y1="15" xlink:href="#linearGradient4153" id="linearGradient4159" x1="13" y2="6" x2="13"/><linearGradient gradientTransform="matrix(-0.47619051 0 0 -0.50000001 22.428572 23.000001)" gradientUnits="userSpaceOnUse" y1="38" xlink:href="#linearGradient4213" id="linearGradient4168" x1="21.9" y2="12.000002" x2="21.9"/><linearGradient gradientUnits="userSpaceOnUse" y1="15" xlink:href="#linearGradient4153" id="linearGradient4170" x1="13" y2="6" x2="13"/></defs><g transform="matrix(1 0 0 1 0 -3)" id="g4157"><path opacity="0.1" d="M 1,18 21,18 11,6 Z" id="path4159" fill="#000" fill-opacity="1"/><path d="M 21,17 1,17 11,5 Z" id="path4162" fill="url(#linearGradient4168)" fill-opacity="1"/><path transform="matrix(-1 0 0 -1 22 22)" stroke="url(#linearGradient4170)" opacity="0.4" d="M 4.1484375,6.4746094 11,14.697266 l 6.851562,-8.2226566 -13.7031245,0 z" id="path4164" fill="none" fill-opacity="1"/><path transform="matrix(-1 0 0 -1 22 22)" stroke="#000" opacity="0.4" d="M 2.0742188,5.5039062 11,16.212891 19.925781,5.5039062 l -17.8515622,0 z" id="path4166" fill="none" fill-opacity="1"/></g><g transform="matrix(1 0 0 1 0 2)" id="g4151"><path opacity="0.1" d="M 1,18 21,18 11,6 Z" id="path4161" fill="#000" fill-opacity="1"/><path d="M 21,17 1,17 11,5 Z" id="path23" fill="url(#linearGradient4219)" fill-opacity="1"/><path transform="matrix(-1 0 0 -1 22 22)" stroke="url(#linearGradient4159)" opacity="0.4" d="M 4.1484375,6.4746094 11,14.697266 l 6.851562,-8.2226566 -13.7031245,0 z" id="path4151" fill="none" fill-opacity="1"/><path transform="matrix(-1 0 0 -1 22 22)" stroke="#000" opacity="0.4" d="M 2.0742188,5.5039062 11,16.212891 19.925781,5.5039062 l -17.8515622,0 z" id="path4149" fill="none" fill-opacity="1"/></g><metadata id="metadata9999"><rdf:RDF><cc:Work><dc:format>image/svg+xml</dc:format><dc:type rdf:resource="http://purl.org/dc/dcmitype/StillImage"/><dc:title/><cc:license rdf:resource="http://creativecommons.org/licenses/by-sa/4.0/"/><dc:creator><cc:Agent><dc:title>Sixsixfive (sixsixfive.deviantart.com)</dc:title></cc:Agent></dc:creator><dc:publisher><cc:Agent><dc:title>Sixsixfive (sixsixfive.deviantart.com)</dc:title></cc:Agent></dc:publisher><dc:source>https://github.com/sixsixfive</dc:source><dc:subject><rdf:Bag><rdf:li>ivy</rdf:li></rdf:Bag></dc:subject><dc:contributor><cc:Agent><dc:title>ssf</dc:title></cc:Agent></dc:contributor><dc:rights><cc:Agent><dc:title>Sixsixfive (sixisixfive.deviantart.com)</dc:title></cc:Agent></dc:rights><dc:description>A simple icon theme published under CC-BY-SA_V4(http://creativecommons.org/licenses/by-sa/4.0)</dc:description><dc:identifier>SSF</dc:identifier></cc:Work></rdf:RDF></metadata><!--Part of the Ivy icon them published under the CC-BY-SA_V4: http://creativecommons.org/licenses/by-sa/4.0 -->
</svg>