<?xml version="1.0" encoding="UTF-8" standalone="no"?><svg xmlns:cc="http://creativecommons.org/ns#" xmlns:rdf="http://www.w3.org/1999/02/22-rdf-syntax-ns#" xmlns:svg="http://www.w3.org/2000/svg" id="svg2" viewBox="0 0 22 22" version="1.1" xmlns:dc="http://purl.org/dc/elements/1.1/" xmlns="http://www.w3.org/2000/svg"><defs id="defs4"><linearGradient id="0" x2="0" y2="43" gradientTransform="matrix(0.5 0 0 0.5132 -0.981 -1.034)" y1="4" gradientUnits="userSpaceOnUse"><stop id="stop7" stop-color="#ebebeb"/><stop offset="1" id="stop9" stop-color="#fff"/></linearGradient></defs><path id="path11" opacity="0.1" d="m 18.00964 2.00001 c -2.210324 0 -4.00214 1.79086 -4.00214 3.999993 0 0.137466 0.01773 0.272353 0.03127 0.40625 L 7.03502 9.40626 C 6.301145 8.557701 5.212444 8.00001 4.00214 8.00001 1.79182 8.00001 0 9.790872 0 12 c 0 2.209138 1.79182 3.999993 4.00214 3.999993 1.210305 0 2.299005 -0.526435 3.03287 -1.374999 l 7.00375 3.00001 c -0.01249 0.128695 -0.03126 0.243027 -0.03126 0.375 0 2.209138 1.791819 3.999993 4.00214 3.999993 2.210326 0 4.00215 -1.79086 4.00215 -3.999993 0 -2.209138 -1.79182 -3.999998 -4.00215 -3.999998 -1.207709 0 -2.267809 0.56084 -3.00161 1.406248 L 7.941745 12.406249 c 0.013775 -0.135041 0.062535 -0.267574 0.062535 -0.406251 0 -0.121084 -0.020725 -0.225403 -0.03127 -0.343749 L 15.00806 8.624986 c 0.7338 0.845408 1.793899 1.374999 3.00161 1.374999 2.210325 0 4.00214 -1.79086 4.00214 -3.999993 C 22.01181 3.790855 20.21999 2 18.00967 2 z"/><path id="path13" d="m 18.00964 1.00001 c -2.210324 0 -4.00214 1.79086 -4.00214 3.999993 0 0.137466 0.01773 0.272353 0.03127 0.40625 L 7.03502 8.40626 C 6.301145 7.557701 5.212444 7.00001 4.00214 7.00001 1.79182 7.00001 0 8.790872 0 11 c 0 2.209138 1.79182 3.999993 4.00214 3.999993 1.210305 0 2.299005 -0.526435 3.03287 -1.374999 l 7.00375 3.00001 c -0.01249 0.128695 -0.03126 0.243027 -0.03126 0.375 0 2.209138 1.791819 3.999993 4.00214 3.999993 2.210326 0 4.00215 -1.79086 4.00215 -3.999993 0 -2.209138 -1.79182 -3.999998 -4.00215 -3.999998 -1.207709 0 -2.267809 0.56084 -3.00161 1.406248 L 7.941745 11.406249 c 0.013775 -0.135041 0.062535 -0.267574 0.062535 -0.406251 0 -0.121084 -0.020725 -0.225403 -0.03127 -0.343749 L 15.00806 7.624986 c 0.7338 0.845408 1.793899 1.374999 3.00161 1.374999 2.210325 0 4.00214 -1.79086 4.00214 -3.999993 C 22.01181 2.790855 20.21999 1 18.00967 1 z" fill="url(#0)"/><path id="path15" opacity="0.3" d="m 18 1.53125 c -1.92487 0 -3.46875 1.545035 -3.46875 3.46875 0 0.092076 0.01664 0.199307 0.03125 0.34375 A 0.528522 0.528522 0 0 1 14.25 5.90625 l -7 3 A 0.528522 0.528522 0 0 1 6.625 8.75 C 5.985091 8.01009 5.04796 7.53125 4 7.53125 2.075129 7.53125 0.53125 9.07629 0.53125 11 c 0 1.923721 1.543878 3.46875 3.46875 3.46875 1.057063 0 1.989296 -0.452444 2.625 -1.1875 A 0.528522 0.528522 0 0 1 7.25 13.125 l 7 3 a 0.528522 0.528522 0 0 1 0.3125 0.5625 C 14.548 16.836883 14.53125 16.918108 14.53125 17 c 0 1.923721 1.543878 3.46875 3.46875 3.46875 1.924872 0 3.46875 -1.545035 3.46875 -3.46875 0 -1.923721 -1.543877 -3.46875 -3.46875 -3.46875 -1.0441 0 -1.949016 0.475955 -2.59375 1.21875 a 0.528522 0.528522 0 0 1 -0.625 0.15625 l -7.0625 -3 a 0.528522 0.528522 0 0 1 -0.3125 -0.5625 c 0.023 -0.225476 0.0625 -0.32886 0.0625 -0.34375 0 -0.06084 -0.017714 -0.129338 -0.03125 -0.28125 A 0.528522 0.528522 0 0 1 7.75 10.15625 L 14.78125 7.125 a 0.528522 0.528522 0 0 1 0.625 0.15625 C 16.04676 8.01918 16.946781 8.46875 18 8.46875 19.924871 8.46875 21.46875 6.923715 21.46875 5 21.468751 3.07628 19.924871 1.53125 18 1.53125 z" stroke="#000" fill="none"/><metadata id="metadata9999"><rdf:RDF><cc:Work><dc:format>image/svg+xml</dc:format><dc:type rdf:resource="http://purl.org/dc/dcmitype/StillImage"/><dc:title>Ivy icon theme</dc:title><cc:license rdf:resource="http://creativecommons.org/licenses/by-sa/4.0/"/><dc:creator><cc:Agent><dc:title>Sixsixfive (sixsixfive.deviantart.com)</dc:title></cc:Agent></dc:creator><dc:publisher><cc:Agent><dc:title>Sixsixfive (sixsixfive.deviantart.com)</dc:title></cc:Agent></dc:publisher><dc:source>https://github.com/sixsixfive</dc:source><dc:subject><rdf:Bag><rdf:li>ivy</rdf:li></rdf:Bag></dc:subject><dc:contributor><cc:Agent><dc:title>ssf</dc:title></cc:Agent></dc:contributor><dc:rights><cc:Agent><dc:title>Sixsixfive (sixisixfive.deviantart.com)</dc:title></cc:Agent></dc:rights><dc:description>A simple icon theme published under CC-BY-SA_V4(http://creativecommons.org/licenses/by-sa/4.0)</dc:description><dc:identifier>SSF</dc:identifier></cc:Work></rdf:RDF></metadata><!--Part of the Ivy icon them published under the CC-BY-SA_V4: http://creativecommons.org/licenses/by-sa/4.0 -->
</svg>