<?xml version="1.0" encoding="UTF-8" standalone="no"?>
<svg xmlns:dc="http://purl.org/dc/elements/1.1/" xmlns:cc="http://creativecommons.org/ns#" xmlns:rdf="http://www.w3.org/1999/02/22-rdf-syntax-ns#" xmlns:svg="http://www.w3.org/2000/svg" xmlns="http://www.w3.org/2000/svg" xmlns:xlink="http://www.w3.org/1999/xlink" version="1.1" viewBox="0 0 22 22" id="svg2">
 <defs id="defs4">
  <linearGradient id="linearGradient3780">
   <stop stop-color="#fff" id="stop3782"/>
   <stop offset="1" stop-color="#fff" id="stop3784" stop-opacity="0"/>
  </linearGradient>
  <linearGradient id="linearGradient3810">
   <stop stop-color="#464646" id="stop3812"/>
   <stop offset="1" stop-color="#6a6a6a" id="stop3814"/>
  </linearGradient>
  <linearGradient id="linearGradient3816" xlink:href="#linearGradient3810" y1="7" y2="41" x2="0" gradientUnits="userSpaceOnUse" gradientTransform="matrix(0.45833333 0 0 0.45833333 -0.014323 0)"/>
  <linearGradient id="linearGradient3786" xlink:href="#linearGradient3780" y1="4" y2="18" x2="0" gradientUnits="userSpaceOnUse"/>
 </defs>
 <path opacity="0.1" id="path3788" d="M 9,4 21,4 21,20 9,20 1,12 z"/>
 <path fill="url(#linearGradient3816)" id="rect3011" d="M 9,3 21,3 21,19 9,19 1,11 z"/>
 <path opacity="0.4" fill="none" stroke="#000" id="path3008" d="m 1.5,3.5 0,15 11.3125,0 7.5,-7.5 -7.5,-7.5 L 1.5,3.5 z" transform="matrix(-1 0 0 1 22 0)"/>
 <path opacity="0.4" fill="none" stroke="url(#linearGradient3786)" id="path3010" d="m 2.5,4.5 0,13 9.875,0 6.5,-6.5 -6.5,-6.5 -9.875,0 z" transform="matrix(-1 0 0 1 22 0)"/>
 <path opacity="0.28" id="path10079" d="M 15.695579,5 18,7.3044212 15.304421,9.999999 18,12.695578 15.695579,15 13,12.304421 10.304422,15 8,12.695578 10.695579,9.999999 8,7.3044212 10.304422,5 13,7.6955779 15.695579,5 z"/>
 <path fill="#fff" id="path10081" d="M 15.695579,6 18,8.304421 15.304421,10.999999 18,13.695578 15.695579,16 13,13.304421 10.304422,16 8,13.695578 10.695579,10.999999 8,8.304421 10.304422,6 13,8.695578 15.695579,6 z"/>
 <metadata id="metadata9999">
  <rdf:RDF>
   <cc:Work>
    <dc:format>image/svg+xml</dc:format>
    <dc:type rdf:resource="http://purl.org/dc/dcmitype/StillImage"/>
    <dc:title>Ivy icon theme</dc:title>
    <cc:license rdf:resource="http://creativecommons.org/licenses/by-sa/4.0/"/>
    <dc:creator>
     <cc:Agent>
      <dc:title>Sixsixfive (sixsixfive.deviantart.com)</dc:title>
     </cc:Agent>
    </dc:creator>
    <dc:publisher>
     <cc:Agent>
      <dc:title>Sixsixfive (sixsixfive.deviantart.com)</dc:title>
     </cc:Agent>
    </dc:publisher>
    <dc:source>https://github.com/sixsixfive</dc:source>
    <dc:subject>
     <rdf:Bag>
      <rdf:li>ivy</rdf:li>
     </rdf:Bag>
    </dc:subject>
    <dc:contributor>
     <cc:Agent>
      <dc:title>ssf</dc:title>
     </cc:Agent>
    </dc:contributor>
    <dc:rights>
     <cc:Agent>
      <dc:title>Sixsixfive (sixisixfive.deviantart.com)</dc:title>
     </cc:Agent>
    </dc:rights>
    <dc:description>A simple icon theme published under CC-BY-SA_V4(http://creativecommons.org/licenses/by-sa/4.0)</dc:description>
    <dc:identifier>SSF</dc:identifier>
   </cc:Work>
  </rdf:RDF>
 </metadata>
 <!--Part of the Ivy icon them published under the CC-BY-SA_V4: http://creativecommons.org/licenses/by-sa/4.0 -->
</svg>
