<?xml version="1.0" encoding="UTF-8" standalone="no"?>
<svg xmlns:dc="http://purl.org/dc/elements/1.1/" xmlns:cc="http://creativecommons.org/ns#" xmlns:rdf="http://www.w3.org/1999/02/22-rdf-syntax-ns#" xmlns:svg="http://www.w3.org/2000/svg" xmlns="http://www.w3.org/2000/svg" xmlns:xlink="http://www.w3.org/1999/xlink" viewBox="0 0 22 22" id="svg2" version="1.1">
 <defs id="defs4">
  <linearGradient id="0" y1="5.862" y2="78.13" x2="0" gradientUnits="userSpaceOnUse" gradientTransform="matrix(0.22497 0 0 0.22097 3.88 3.736)">
   <stop stop-color="#171717" id="stop7"/>
   <stop offset="1" stop-color="#686868" id="stop9"/>
  </linearGradient>
  <linearGradient id="1" xlink:href="#3" y1="2" y2="16" x2="0" gradientUnits="userSpaceOnUse" gradientTransform="matrix(1 0 0 0.99141 4.03 4.04)"/>
  <linearGradient id="2" xlink:href="#3" y1="1" y2="15" x2="0" gradientUnits="userSpaceOnUse"/>
  <linearGradient id="3">
   <stop stop-color="#fff" id="stop14"/>
   <stop offset="1" stop-color="#fff" stop-opacity="0" id="stop16"/>
  </linearGradient>
  <linearGradient id="4" y1="5.862" y2="78.13" x2="0" gradientUnits="userSpaceOnUse" gradientTransform="matrix(0.22497 0 0 0.22288 -1.152 -1.306)">
   <stop stop-color="#d02604" id="stop19"/>
   <stop offset="1" stop-color="#fc7357" id="stop21"/>
  </linearGradient>
 </defs>
 <g id="g23" fill-rule="evenodd">
  <path d="M 0,1 0,7 2,7 C 2,4.559524 3.5,4 4.375,4 L 6,4 l 0,2.03125 -0.96875,0 0,5.9375 0.96875,0 0,1.71875 C 6,14.66369 5.546953,14.915248 5,15 l -1,0 0,2.09375 4.5,0 2.53125,0 0,1.53125 c 0,0.967803 -0.453047,1.197226 -1,1.28125 l -1,0 0,2.09375 4.5,0 4.5,0 0,-2.09375 -1,0 c -0.55348,0 -0.989927,-0.313499 -1,-1.28125 l 0,-9.625 1.625,0 c 0.875,0 2.375,0.549243 2.375,2.96875 l 2,0 0,-5.9375 L 17,6.03125 17,1 8.5,1 0,1 Z m 11,3 1.625,0 c 0.744988,0 1.941672,0.404462 2.28125,2.03125 l -1.375,0 L 11,6.03125 11,4 Z m 0,5 0.03125,0 0,4.90625 C 11.02406,13.83054 11.00088,13.772823 11,13.6875 L 11,9 Z" id="path25" opacity="0.1"/>
  <path d="M 0,0 0,6 2,6 C 2,3.55952 3.5,3 4.375,3 L 6,2.9996 6,12.69008 c 0,0.97619 -0.453048,1.22496 -1,1.30971 l -1,4e-4 0,2.10695 4.5,0 4.5,0 0,-2.10695 -1,0 c -0.55348,0 -0.989927,-0.333576 -1,-1.30971 L 11,3 12.625,3 C 13.5,3 15,3.559524 15,6 l 2,0 0,-6 -8.5,0 z" id="path27" fill="url(#4)"/>
 </g>
 <g id="g29" fill="none">
  <path d="m 0.5,0.5 0,5 1.0938,0 C 1.696398,4.47867 2.025874,3.68303 2.5313,3.21875 3.124975,2.673408 3.83305,2.5 4.37505,2.5 l 1.625,0 a 0.490328,0.490328 0 0 1 0.5,0.5 l 0,9.6875 c 0,0.563941 -0.150887,1.00399 -0.4375,1.3125 -0.286613,0.30851 -0.67423,0.449521 -1,0.5 a 0.490328,0.490328 0 0 1 -0.0625,0 l -0.5,0 0,1.09375 4,0 4,0 0,-1.09375 -0.5,0 c -0.376058,0 -0.779765,-0.144205 -1.0625,-0.46875 -0.282735,-0.324545 -0.431716,-0.783203 -0.4375,-1.34375 l 0,-9.6875 a 0.490328,0.490328 0 0 1 0.5,-0.5 l 1.625,0 c 0.542004,0 1.25008,0.173408 1.84375,0.71875 0.505426,0.464278 0.834902,1.25992 0.9375,2.28125 l 1.09375,0 0,-5 -8,0 -8,0 z" id="path31" opacity="0.4" stroke="#000"/>
  <path d="m 1.4688,1.4688 0,1.5938 C 1.602165,2.884411 1.687334,2.643827 1.8438,2.5001 2.658243,1.751963 3.62197,1.53135 4.37505,1.53135 l 1.625,0 A 1.48071,1.48071 0 0 1 7.4688,3.0001 l 0,9.6875 c 0,0.693649 -0.193226,1.40541 -0.65625,1.9375 l 1.6875,0 1.65625,0 C 9.702021,14.070784 9.538355,13.37132 9.5313,12.6876 l 0,-9.6875 a 1.48071,1.48071 0 0 1 1.46875,-1.46875 l 1.625,0 c 0.753084,0 1.71681,0.220613 2.53125,0.96875 0.156466,0.143727 0.241635,0.384311 0.375,0.5625 l 0,-1.59375 -7.03125,0 -7.03125,0 z" id="path33" opacity="0.4" stroke="url(#2)" stroke-linejoin="round" stroke-linecap="round"/>
 </g>
 <path fill="url(#0)" fill-rule="evenodd" d="m 5.0312,5.0312 0,5.9484 2,0 c 0,-2.41951 1.5,-2.97422 2.375,-2.97422 l 1.625,-4e-4 v 9.60722 c 0,0.967803 -0.453047,1.21444 -1,1.29846 l -1,4e-4 v 2.08885 h 4.5 4.5 v -2.08885 h -1 c -0.55348,0 -0.989927,-0.33071 -1,-1.29846 V 8.00538 h 1.625 c 0.875,0 2.375,0.554717 2.375,2.97422 h 2 V 5.03115 h -8.5 z" id="path35"/>
 <g id="g37" fill="none">
  <path d="m 5.53125,5.526954 0,4.95704 1.0938,0 C 6.727648,9.471439 7.05712,8.682635 7.56255,8.222344 8.156225,7.681688 8.8643,7.50977 9.4063,7.50977 l 1.625,0 a 0.490328,0.486115 0 0 1 0.5,0.495704 l 0,9.604265 c 0,0.559095 -0.150887,0.995363 -0.4375,1.301223 -0.286613,0.305859 -0.67423,0.445658 -1,0.495704 a 0.490328,0.486115 0 0 1 -0.0625,0 l -0.5,0 0,1.084352 4,0 4,0 0,-1.084352 -0.5,0 c -0.376058,0 -0.779765,-0.142966 -1.0625,-0.464723 -0.282735,-0.321756 -0.431716,-0.776474 -0.4375,-1.332204 l 0,-9.604269 a 0.490328,0.486115 0 0 1 0.5,-0.495704 l 1.625,0 c 0.542004,0 1.25008,0.171918 1.84375,0.712575 0.505426,0.460289 0.834902,1.249095 0.9375,2.26165 l 1.09375,0 0,-4.95704 -8,0 -8,0 z" id="path39" opacity="0.4" stroke="#000"/>
  <path d="m 6.50005,6.48743 0,1.580106 C 6.633415,7.890878 6.718584,7.652361 6.87505,7.509869 7.689493,6.76816 8.65322,6.549443 9.4063,6.549443 l 1.625,0 a 1.48071,1.467988 0 0 1 1.46875,1.45613 l 0,9.604265 c 0,0.687689 -0.193226,1.393334 -0.65625,1.920853 l 1.6875,0 1.65625,0 c -0.454279,-0.549554 -0.617945,-1.243008 -0.625,-1.920853 l 0,-9.604268 A 1.48071,1.467988 0 0 1 16.0313,6.549443 l 1.625,0 c 0.753084,0 1.71681,0.218718 2.53125,0.960426 0.156466,0.142492 0.241635,0.381009 0.375,0.557667 l 0,-1.580056 -7.03125,0 -7.03125,0 z" id="path41" opacity="0.2" stroke="url(#1)" stroke-linejoin="round" stroke-linecap="round"/>
 </g>
 <metadata id="metadata9999">
  <rdf:RDF>
   <cc:Work>
    <dc:format>image/svg+xml</dc:format>
    <dc:type rdf:resource="http://purl.org/dc/dcmitype/StillImage"/>
    <dc:title>Ivy icon theme</dc:title>
    <cc:license rdf:resource="http://creativecommons.org/licenses/by-sa/4.0/"/>
    <dc:creator>
     <cc:Agent>
      <dc:title>Sixsixfive (sixsixfive.deviantart.com)</dc:title>
     </cc:Agent>
    </dc:creator>
    <dc:publisher>
     <cc:Agent>
      <dc:title>Sixsixfive (sixsixfive.deviantart.com)</dc:title>
     </cc:Agent>
    </dc:publisher>
    <dc:source>https://github.com/sixsixfive</dc:source>
    <dc:subject>
     <rdf:Bag>
      <rdf:li>ivy</rdf:li>
     </rdf:Bag>
    </dc:subject>
    <dc:contributor>
     <cc:Agent>
      <dc:title>ssf</dc:title>
     </cc:Agent>
    </dc:contributor>
    <dc:rights>
     <cc:Agent>
      <dc:title>Sixsixfive (sixisixfive.deviantart.com)</dc:title>
     </cc:Agent>
    </dc:rights>
    <dc:description>A simple icon theme published under CC-BY-SA_V4(http://creativecommons.org/licenses/by-sa/4.0)</dc:description>
    <dc:identifier>SSF</dc:identifier>
   </cc:Work>
  </rdf:RDF>
 </metadata>
 <!--Part of the Ivy icon them published under the CC-BY-SA_V4: http://creativecommons.org/licenses/by-sa/4.0 -->
</svg>
