<?xml version="1.0" encoding="UTF-8" standalone="no"?><svg xmlns:cc="http://creativecommons.org/ns#" xmlns:svg="http://www.w3.org/2000/svg" xmlns="http://www.w3.org/2000/svg" xmlns:dc="http://purl.org/dc/elements/1.1/" xmlns:rdf="http://www.w3.org/1999/02/22-rdf-syntax-ns#" id="svg2" version="1.1" viewBox="0 0 22 22" xmlns:xlink="http://www.w3.org/1999/xlink"><defs id="0"><linearGradient id="linearGradient4172"><stop id="stop4174" stop-color="#fff"/><stop stop-opacity="0" id="stop4176" stop-color="#fff" offset="1"/></linearGradient><linearGradient id="linearGradient4165"><stop id="stop4167" stop-color="#eed45a"/><stop id="stop4169" stop-color="#e9c82a" offset="1"/></linearGradient><linearGradient gradientTransform="matrix(0 -0.47619048 -0.45833333 0 22.416667 22.428572)" gradientUnits="userSpaceOnUse" xlink:href="#linearGradient4165" id="linearGradient4171" x1="3" x2="45"/><linearGradient gradientTransform="matrix(-1 0 0 1 21 0)" gradientUnits="userSpaceOnUse" y1="15.771186" xlink:href="#linearGradient4172" id="linearGradient4178" x1="3.7288139" y2="15.525423" x2="16.5"/></defs><g transform="matrix(0 1 -1 0 22 1)" id="g4157"><path opacity="0.1" d="M 17,21 6,21 6,1 l 11,0 0,20 0,0 z" id="path4192"/><g transform="matrix(-1 0 0 1 21 0)" id="g4194"><path d="M 16,21 5,21 5,1 l 11,0 0,20 0,0 z" id="2" fill="url(#linearGradient4171)"/><rect transform="matrix(-1 0 0 1 0 0)" width="3" height="1" stroke-width="19.5" opacity="0.4" stroke-dasharray="39 19.5 9.75 19.5" stroke-linejoin="round" id="rect4151" y="3" x="-15" stroke-linecap="round"/><rect transform="matrix(-1 0 0 1 0 0)" width="5" height="1" stroke-width="19.5" opacity="0.4" stroke-dasharray="39 19.5 9.75 19.5" stroke-linejoin="round" id="rect4153" y="6" x="-15" stroke-linecap="round"/><rect transform="matrix(-1 0 0 1 0 0)" width="3" height="1" stroke-width="19.5" opacity="0.4" stroke-dasharray="39 19.5 9.75 19.5" stroke-linejoin="round" id="rect4155" y="9" x="-15" stroke-linecap="round"/><rect transform="matrix(-1 0 0 1 0 0)" width="5" height="1" stroke-width="19.5" opacity="0.4" stroke-dasharray="39 19.5 9.75 19.5" stroke-linejoin="round" id="rect4157" y="12" x="-15" stroke-linecap="round"/><rect transform="matrix(-1 0 0 1 0 0)" width="3" height="1" stroke-width="19.5" opacity="0.4" stroke-dasharray="39 19.5 9.75 19.5" stroke-linejoin="round" id="rect4159" y="15" x="-15" stroke-linecap="round"/><rect transform="matrix(-1 0 0 1 0 0)" width="5" height="1" stroke-width="19.5" opacity="0.4" stroke-dasharray="39 19.5 9.75 19.5" stroke-linejoin="round" id="rect4161" y="18" x="-15" stroke-linecap="round"/><path stroke="#000" opacity="0.4" d="m 15.496094,1.5039062 0,18.9921878 -9.992188,0 0,-18.9921878 9.992188,0 z" id="path4168" fill="none"/><path stroke="url(#linearGradient4178)" opacity="0.4" d="m 14.488281,2.5117188 0,16.9765622 -7.976562,0 0,-16.9765622 7.976562,0 z" id="path4170" fill="none"/><rect transform="matrix(-1 0 0 1 0 0)" width="3" height="1" stroke-width="19.5" opacity="0.2" stroke-dasharray="39 19.5 9.75 19.5" stroke-linejoin="round" id="rect4180" y="2" x="-15" fill="#fff" stroke-linecap="round"/><rect transform="matrix(-1 0 0 1 0 0)" width="5" height="1" stroke-width="19.5" opacity="0.2" stroke-dasharray="39 19.5 9.75 19.5" stroke-linejoin="round" id="rect4182" y="5" x="-15" fill="#fff" stroke-linecap="round"/><rect transform="matrix(-1 0 0 1 0 0)" width="3" height="1" stroke-width="19.5" opacity="0.2" stroke-dasharray="39 19.5 9.75 19.5" stroke-linejoin="round" id="rect4184" y="8" x="-15" fill="#fff" stroke-linecap="round"/><rect transform="matrix(-1 0 0 1 0 0)" width="5" height="1" stroke-width="19.5" opacity="0.2" stroke-dasharray="39 19.5 9.75 19.5" stroke-linejoin="round" id="rect4186" y="11" x="-15" fill="#fff" stroke-linecap="round"/><rect transform="matrix(-1 0 0 1 0 0)" width="3" height="1" stroke-width="19.5" opacity="0.2" stroke-dasharray="39 19.5 9.75 19.5" stroke-linejoin="round" id="rect4188" y="14" x="-15" fill="#fff" stroke-linecap="round"/><rect transform="matrix(-1 0 0 1 0 0)" width="5" height="1" stroke-width="19.5" opacity="0.2" stroke-dasharray="39 19.5 9.75 19.5" stroke-linejoin="round" id="rect4190" y="17" x="-15" fill="#fff" stroke-linecap="round"/></g></g><metadata id="metadata9999"><rdf:RDF><cc:Work><dc:format>image/svg+xml</dc:format><dc:type rdf:resource="http://purl.org/dc/dcmitype/StillImage"/><dc:title/><cc:license rdf:resource="http://creativecommons.org/licenses/by-sa/4.0/"/><dc:creator><cc:Agent><dc:title>Sixsixfive (sixsixfive.deviantart.com)</dc:title></cc:Agent></dc:creator><dc:publisher><cc:Agent><dc:title>Sixsixfive (sixsixfive.deviantart.com)</dc:title></cc:Agent></dc:publisher><dc:source>https://github.com/sixsixfive</dc:source><dc:subject><rdf:Bag><rdf:li>ivy</rdf:li></rdf:Bag></dc:subject><dc:contributor><cc:Agent><dc:title>ssf</dc:title></cc:Agent></dc:contributor><dc:rights><cc:Agent><dc:title>Sixsixfive (sixisixfive.deviantart.com)</dc:title></cc:Agent></dc:rights><dc:description>A simple icon theme published under CC-BY-SA_V4(http://creativecommons.org/licenses/by-sa/4.0)</dc:description><dc:identifier>SSF</dc:identifier></cc:Work></rdf:RDF></metadata><!--Part of the Ivy icon them published under the CC-BY-SA_V4: http://creativecommons.org/licenses/by-sa/4.0 -->
</svg>