<?xml version="1.0" encoding="UTF-8" standalone="no"?><svg xmlns:svg="http://www.w3.org/2000/svg" xmlns="http://www.w3.org/2000/svg" viewBox="0 0 22 22" xmlns:rdf="http://www.w3.org/1999/02/22-rdf-syntax-ns#" version="1.1" id="svg2" xmlns:dc="http://purl.org/dc/elements/1.1/" xmlns:cc="http://creativecommons.org/ns#"><defs id="defs4"><linearGradient y1="0" x2="0" y2="21" id="0" gradientUnits="userSpaceOnUse"><stop id="stop7" stop-color="#ff8b36"/><stop offset="1" id="stop9" stop-color="#ff9d56"/></linearGradient><linearGradient y1="1" x2="0" y2="20" id="1" gradientUnits="userSpaceOnUse"><stop id="stop12" stop-color="#fff"/><stop stop-opacity="0" offset="1" id="stop14" stop-color="#fff"/></linearGradient></defs><rect y="1" x="1" opacity="0.1" ry="2" rx="2" height="21" id="rect16" width="21"/><rect x="1" ry="2" rx="2" height="21" id="rect18" width="21" fill="url(#0)"/><g id="g20" fill="none"><path stroke="#000" opacity="0.4" id="path22" d="M 3,0.5 C 2.156104,0.5 1.5,1.156104 1.5,2 l 0,17 c 0,0.843896 0.656104,1.5 1.5,1.5 l 17,0 c 0.843896,0 1.5,-0.656104 1.5,-1.5 l 0,-17 C 21.5,1.156104 20.843896,0.5 20,0.5 l -17,0 z"/><path stroke="url(#1)" opacity="0.4" id="path24" d="M 3,1.5 C 2.692658,1.5 2.5,1.692658 2.5,2 l 0,17 c 0,0.307342 0.192658,0.5 0.5,0.5 l 17,0 c 0.307342,0 0.5,-0.192658 0.5,-0.5 l 0,-17 C 20.5,1.692658 20.307342,1.5 20,1.5 l -17,0 z"/><g stroke-linecap="round" id="g26" transform="matrix(1 0 0 1 19.901 -3.352)"><g stroke-width="3.06" id="g28"><path stroke="#000" opacity="0.4" id="path30" d="m -3.9973,8.848 c 1.64954,1.87826 1.94576,4.8958 1.05812,7.35589 -0.88764,2.46009 -3.14408,3.58059 -5.47266,3.58436 -2.32857,0.0037 -4.58929,-1.10943 -5.48302,-3.56664 -0.89373,-2.45721 -0.593181,-5.49002 1.05171,-7.37361"/><path stroke="#fff" id="path32" d="m -3.9973,9.848 c 1.64954,1.87826 1.94576,4.8958 1.05812,7.35589 -0.88764,2.46009 -3.14408,3.58059 -5.47266,3.58436 -2.32857,0.0037 -4.58929,-1.10943 -5.48302,-3.56664 -0.89373,-2.45721 -0.593181,-5.49002 1.05171,-7.37361"/></g><g stroke-width="2.964" id="g34"><path stroke="#000" opacity="0.4" id="path36" d="m -8.4187,7.7826 0,5.0879"/><path stroke="#fff" id="path38" d="m -8.4187,8.7826 0,5.0879"/></g></g></g><metadata id="metadata9999"><rdf:RDF><cc:Work><dc:format>image/svg+xml</dc:format><dc:type rdf:resource="http://purl.org/dc/dcmitype/StillImage"/><dc:title>Ivy icon theme</dc:title><cc:license rdf:resource="http://creativecommons.org/licenses/by-sa/4.0/"/><dc:creator><cc:Agent><dc:title>Sixsixfive (sixsixfive.deviantart.com)</dc:title></cc:Agent></dc:creator><dc:publisher><cc:Agent><dc:title>Sixsixfive (sixsixfive.deviantart.com)</dc:title></cc:Agent></dc:publisher><dc:source>https://github.com/sixsixfive</dc:source><dc:subject><rdf:Bag><rdf:li>ivy</rdf:li></rdf:Bag></dc:subject><dc:contributor><cc:Agent><dc:title>ssf</dc:title></cc:Agent></dc:contributor><dc:rights><cc:Agent><dc:title>Sixsixfive (sixisixfive.deviantart.com)</dc:title></cc:Agent></dc:rights><dc:description>A simple icon theme published under CC-BY-SA_V4(http://creativecommons.org/licenses/by-sa/4.0)</dc:description><dc:identifier>SSF</dc:identifier></cc:Work></rdf:RDF></metadata><!--Part of the Ivy icon them published under the CC-BY-SA_V4: http://creativecommons.org/licenses/by-sa/4.0 -->
</svg>