<?xml version="1.0" encoding="UTF-8" standalone="no"?>
<svg xmlns:dc="http://purl.org/dc/elements/1.1/" xmlns:cc="http://creativecommons.org/ns#" xmlns:rdf="http://www.w3.org/1999/02/22-rdf-syntax-ns#" xmlns:svg="http://www.w3.org/2000/svg" xmlns="http://www.w3.org/2000/svg" xmlns:xlink="http://www.w3.org/1999/xlink" viewBox="0 0 22 22" id="svg2" version="1.1">
 <defs id="defs4">
  <linearGradient id="2" y1="1.031" x1="14.969" y2="19" x2="15" gradientUnits="userSpaceOnUse">
   <stop stop-color="#fff" id="stop7"/>
   <stop offset="1" stop-color="#fff" stop-opacity="0" id="stop9"/>
  </linearGradient>
  <linearGradient id="3" xlink:href="#5" y1="2" y2="44" x2="0" gradientUnits="userSpaceOnUse" gradientTransform="matrix(0.45778 0 0 0.47619 3.289 0.073)"/>
  <linearGradient id="4" xlink:href="#5" y1="2" y2="44" x2="0" gradientUnits="userSpaceOnUse" gradientTransform="matrix(0.45778 0 0 0.47619 -2.772 -0.984)"/>
  <linearGradient id="5">
   <stop stop-color="#dedede" id="stop14"/>
   <stop offset="1" stop-color="#f4f4f4" id="stop16"/>
  </linearGradient>
 </defs>
 <rect width="16" x="6.03" opacity="0.1" y="2" rx="0.537" height="20" ry="0.576" id="rect18"/>
 <rect width="16" x="-0.031" opacity="0.1" y="0.943" rx="0.537" height="20" ry="0.576" id="rect20"/>
 <rect width="16" x="-0.031" y="-0.031" fill="url(#4)" rx="0.537" height="20" ry="0.576" id="rect22"/>
 <path opacity="0.4" fill="none" stroke="#000" id="0" d="m 0.53125 0.53125 c -0.004624 0 0 -0.025382 0 0.03125 v 18.875 c 0 0.05663 -0.004624 0.03125 0 0.03125 h 14.9375 c 0.0046 0 0 0.02538 0 -0.03125 v -18.875 c 0 -0.056632 0.0046 -0.03125 0 -0.03125 h -14.9375 z" transform="matrix(1 0 0 1 -0.031 -0.031)"/>
 <path opacity="0.6" fill="none" stroke="url(#2)" id="1" d="m 1.53125 1.53125 v 16.9375 h 12.9375 v -16.9375 h -12.9375 z" transform="matrix(1 0 0 1 -0.031 -0.031)"/>
 <rect width="16" x="6.03" y="1.026" fill="url(#3)" rx="0.537" height="20" ry="0.576" id="rect26"/>
 <g transform="translate(6.06,1.057)" id="g28">
  <use xlink:href="#0" id="use30" x="0" y="0" width="22" height="22"/>
  <use xlink:href="#1" id="use32" x="0" y="0" width="22" height="22"/>
 </g>
 <g id="g34" color="#000">
  <path d="m 6.537,1 8.926,0 C 15.760498,1 16,1.223 16,1.5 16,1.777 15.760498,2 15.463,2 L 6.537,2 C 6.239502,2 6,1.777 6,1.5 6,1.223 6.239502,1 6.537,1 Z" id="rect36" opacity="0.3"/>
  <path d="M 5.5,1 C 5.777,1 6,1.256896 6,1.576 L 6,18.424 C 6,18.743104 5.777,19 5.5,19 5.223,19 5,18.743104 5,18.424 L 5,1.576 C 5,1.256896 5.223,1 5.5,1 Z" id="rect38" opacity="0.2"/>
 </g>
 <metadata id="metadata9999">
  <rdf:RDF>
   <cc:Work>
    <dc:format>image/svg+xml</dc:format>
    <dc:type rdf:resource="http://purl.org/dc/dcmitype/StillImage"/>
    <dc:title>Ivy icon theme</dc:title>
    <cc:license rdf:resource="http://creativecommons.org/licenses/by-sa/4.0/"/>
    <dc:creator>
     <cc:Agent>
      <dc:title>Sixsixfive (sixsixfive.deviantart.com)</dc:title>
     </cc:Agent>
    </dc:creator>
    <dc:publisher>
     <cc:Agent>
      <dc:title>Sixsixfive (sixsixfive.deviantart.com)</dc:title>
     </cc:Agent>
    </dc:publisher>
    <dc:source>https://github.com/sixsixfive</dc:source>
    <dc:subject>
     <rdf:Bag>
      <rdf:li>ivy</rdf:li>
     </rdf:Bag>
    </dc:subject>
    <dc:contributor>
     <cc:Agent>
      <dc:title>ssf</dc:title>
     </cc:Agent>
    </dc:contributor>
    <dc:rights>
     <cc:Agent>
      <dc:title>Sixsixfive (sixisixfive.deviantart.com)</dc:title>
     </cc:Agent>
    </dc:rights>
    <dc:description>A simple icon theme published under CC-BY-SA_V4(http://creativecommons.org/licenses/by-sa/4.0)</dc:description>
    <dc:identifier>SSF</dc:identifier>
   </cc:Work>
  </rdf:RDF>
 </metadata>
 <!--Part of the Ivy icon them published under the CC-BY-SA_V4: http://creativecommons.org/licenses/by-sa/4.0 -->
</svg>
