<?xml version="1.0" encoding="UTF-8" standalone="no"?>
<svg xmlns:dc="http://purl.org/dc/elements/1.1/" xmlns:cc="http://creativecommons.org/ns#" xmlns:rdf="http://www.w3.org/1999/02/22-rdf-syntax-ns#" xmlns:svg="http://www.w3.org/2000/svg" xmlns="http://www.w3.org/2000/svg" viewBox="0 0 22 22" id="svg2" version="1.1">
 <defs id="defs4">
  <linearGradient id="0" y1="9.966" y2="41.29" x2="0" gradientUnits="userSpaceOnUse" gradientTransform="matrix(0.59237 0 0 0.63853 -5.506 -5.365)">
   <stop stop-color="#bababa" id="stop7"/>
   <stop offset="1" stop-color="#ebebeb" id="stop9"/>
  </linearGradient>
  <linearGradient id="1" y1="1.998" y2="19.998" x2="0" gradientUnits="userSpaceOnUse">
   <stop stop-color="#fff" id="stop12"/>
   <stop offset="1" stop-color="#fff" stop-opacity="0" id="stop14"/>
  </linearGradient>
 </defs>
 <path opacity="0.1" d="m 21 12.00141 a 10 10 0 0 1 -20 0 10 10 0 1 1 20 0 z" id="path16"/>
 <path fill="url(#0)" d="m 21 10.998214 a 10 10 0 0 1 -20 0 10 10 0 1 1 20 0 z" id="path18"/>
 <g id="g20" fill="none">
  <path d="m 10.78125,1.498214 c -0.174989,0.004 -0.294171,0.0187 -0.46875,0.0312 -0.174579,0.0126 -0.295016,0.01 -0.46875,0.0312 -0.173734,0.0213 -0.296296,0.0638 -0.46875,0.0937 -0.172454,0.0299 -0.298006,0.0553 -0.46875,0.0937 -0.170744,0.0385 -0.300142,0.0468 -0.46875,0.0937 -0.168608,0.04723 -0.27145,0.10116 -0.4375,0.1565 -0.16605,0.0553 -0.274422,0.0927 -0.4375,0.15625 -0.163078,0.0636 -0.277802,0.11586 -0.4375,0.1875 -0.159698,0.0716 -0.28158,0.10797 -0.4375,0.1875 -0.15592,0.0795 -0.254498,0.13153 -0.40625,0.21875 -0.151752,0.0872 -0.259044,0.15531 -0.40625,0.25 -0.147206,0.0947 -0.263959,0.17932 -0.40625,0.28125 -0.142291,0.10193 -0.237978,0.17234 -0.375,0.28125 -0.137022,0.10891 -0.24359,0.19688 -0.375,0.3125 -0.13141,0.11562 -0.21828,0.19046 -0.34375,0.3125 -0.12547,0.12204 -0.193284,0.2156 -0.3125,0.34375 -0.119216,0.12815 -0.199835,0.2098 -0.3125,0.34375 -0.112665,0.13395 -0.206668,0.23559 -0.3125,0.375 -0.105833,0.13941 -0.182514,0.23048 -0.28125,0.375 -0.098736,0.14452 -0.158608,0.25697 -0.25,0.40625 -0.091392,0.14928 -0.166179,0.2526 -0.25,0.40625 -0.083821,0.15365 -0.14271,0.27985 -0.21875,0.4375 -0.07604,0.15765 -0.119431,0.27625 -0.1875,0.4375 -0.068069,0.16125 -0.096322,0.27305 -0.15625,0.4375 -0.059928,0.16445 -0.104612,0.27026 -0.15625,0.4375 -0.051638,0.16724 -0.081782,0.29914 -0.125,0.46875 -0.043218,0.16961 -0.090309,0.29719 -0.125,0.46875 -0.034691,0.17156 -0.036423,0.29567 -0.0625,0.46875 -0.026077,0.17308 -0.045102,0.29459 -0.0625,0.46875 -0.017398,0.17416 -0.022575,0.29393 -0.03125,0.46875 -0.00867,0.17481 -0.031319,0.29372 -0.03125,0.46875 7.7e-5,0.17186 0.022743,0.2971 0.03125,0.46875 0.00851,0.17165 0.014333,0.29773 0.03125,0.46875 0.016917,0.17102 0.037214,0.29876 0.0625,0.46875 0.025286,0.16999 0.028906,0.26895 0.0625,0.4375 0.033594,0.16854 0.051928,0.30206 0.09375,0.46875 0.041822,0.16669 0.075052,0.27306 0.125,0.4375 0.049948,0.16444 0.098296,0.27571 0.15625,0.4375 0.057954,0.16179 0.090429,0.27874 0.15625,0.4375 0.065821,0.15876 0.113971,0.28216 0.1875,0.4375 0.073529,0.15534 0.137689,0.25471 0.21875,0.40625 0.081061,0.15154 0.130353,0.25887 0.21875,0.40625 0.088397,0.14738 0.15448,0.26338 0.25,0.40625 0.09552,0.14287 0.178837,0.23699 0.28125,0.375 0.102413,0.13801 0.17219,0.24218 0.28125,0.375 0.10906,0.13282 0.197056,0.21644 0.3125,0.34375 0.115444,0.12731 0.19095,0.22225 0.3125,0.34375 0.12155,0.1215 0.216386,0.19711 0.34375,0.3125 0.127364,0.11539 0.210879,0.2035 0.34375,0.3125 0.132871,0.109 0.236942,0.1789 0.375,0.28125 0.138058,0.10235 0.232088,0.15454 0.375,0.25 0.142912,0.0955 0.258827,0.16167 0.40625,0.25 0.147423,0.0883 0.254672,0.16901 0.40625,0.25 0.151578,0.081 0.250881,0.14529 0.40625,0.21875 0.155369,0.0735 0.278715,0.12175 0.4375,0.1875 0.158785,0.0658 0.275681,0.0984 0.4375,0.15625 0.161819,0.0579 0.273036,0.10638 0.4375,0.15625 0.164464,0.0499 0.270788,0.0832 0.4375,0.125 0.166712,0.0418 0.30019,0.0602 0.46875,0.0937 0.16856,0.0335 0.267499,0.0373 0.4375,0.0625 0.170001,0.0252 0.297717,0.0457 0.46875,0.0625 0.171033,0.0168 0.297097,0.0228 0.46875,0.0312 0.171653,0.008 0.29689,0.0312 0.46875,0.0312 0.17186,0 0.297097,-0.0228 0.46875,-0.0312 0.171653,-0.008 0.297717,-0.0144 0.46875,-0.0312 0.171033,-0.0168 0.298749,-0.0373 0.46875,-0.0625 0.170001,-0.0252 0.26894,-0.029 0.4375,-0.0625 0.16856,-0.0335 0.302038,-0.052 0.46875,-0.0937 0.166712,-0.0418 0.273036,-0.0751 0.4375,-0.125 0.164464,-0.0499 0.275681,-0.0984 0.4375,-0.15625 0.161819,-0.0579 0.278715,-0.0905 0.4375,-0.15625 0.158785,-0.0658 0.282131,-0.11404 0.4375,-0.1875 0.155369,-0.0735 0.254672,-0.13776 0.40625,-0.21875 0.151578,-0.081 0.258827,-0.16167 0.40625,-0.25 0.147423,-0.0883 0.263338,-0.15454 0.40625,-0.25 0.142912,-0.0955 0.236942,-0.14765 0.375,-0.25 0.138058,-0.10235 0.242129,-0.17225 0.375,-0.28125 0.132871,-0.109 0.216386,-0.19711 0.34375,-0.3125 0.127364,-0.11539 0.2222,-0.191 0.34375,-0.3125 0.12155,-0.1215 0.197056,-0.21644 0.3125,-0.34375 0.115444,-0.12731 0.20344,-0.21093 0.3125,-0.34375 0.10906,-0.13282 0.178837,-0.23699 0.28125,-0.375 0.102413,-0.13801 0.18573,-0.23213 0.28125,-0.375 0.09552,-0.14287 0.161603,-0.25887 0.25,-0.40625 0.0884,-0.14738 0.137689,-0.25471 0.21875,-0.40625 0.08106,-0.15154 0.14522,-0.25091 0.21875,-0.40625 0.07353,-0.15534 0.121679,-0.27874 0.1875,-0.4375 0.06582,-0.15876 0.0983,-0.27571 0.15625,-0.4375 0.05795,-0.16179 0.106302,-0.27306 0.15625,-0.4375 0.04995,-0.16444 0.08318,-0.27081 0.125,-0.4375 0.04182,-0.16669 0.06016,-0.30021 0.09375,-0.46875 0.03359,-0.16855 0.03721,-0.26751 0.0625,-0.4375 0.02529,-0.16999 0.04558,-0.29773 0.0625,-0.46875 0.01692,-0.17102 0.02274,-0.2971 0.03125,-0.46875 0.0085,-0.17165 0.03117,-0.29689 0.03125,-0.46875 6.7e-5,-0.16887 -0.02318,-0.30007 -0.03125,-0.46875 -0.0081,-0.16868 -0.01506,-0.26941 -0.03125,-0.4375 -0.01619,-0.1681 -0.007,-0.30163 -0.03125,-0.46875 -0.02428,-0.16712 -0.06144,-0.27175 -0.09375,-0.4375 -0.03231,-0.16576 -0.05349,-0.30475 -0.09375,-0.46875 -0.04026,-0.16401 -0.07688,-0.27563 -0.125,-0.4375 -0.04812,-0.16187 -0.06914,-0.27813 -0.125,-0.4375 -0.05586,-0.15937 -0.09277,-0.24976 -0.15625,-0.40625 -0.06348,-0.15649 -0.116551,-0.28425 -0.1875,-0.4375 -0.07095,-0.15325 -0.140496,-0.2566 -0.21875,-0.40625 -0.07825,-0.14965 -0.133374,-0.26055 -0.21875,-0.40625 -0.08538,-0.1457 -0.1577,-0.23358 -0.25,-0.375 -0.0923,-0.14142 -0.150991,-0.2382 -0.25,-0.375 -0.09901,-0.1368 -0.175762,-0.24313 -0.28125,-0.375 -0.105488,-0.13187 -0.169528,-0.21711 -0.28125,-0.34375 -0.111722,-0.12664 -0.194803,-0.22265 -0.3125,-0.34375 -0.117697,-0.1211 -0.220353,-0.19721 -0.34375,-0.3125 -0.123397,-0.11529 -0.214939,-0.20329 -0.34375,-0.3125 -0.128811,-0.10921 -0.209825,-0.17838 -0.34375,-0.28125 -0.133925,-0.10287 -0.236272,-0.18495 -0.375,-0.28125 -0.138728,-0.0963 -0.231792,-0.1605 -0.375,-0.25 -0.143208,-0.0895 -0.258894,-0.13626 -0.40625,-0.21875 -0.147356,-0.0825 -0.255089,-0.14346 -0.40625,-0.21875 -0.151161,-0.0753 -0.251636,-0.11958 -0.40625,-0.1875 -0.154614,-0.0679 -0.248542,-0.12711 -0.40625,-0.1875 -0.157708,-0.0604 -0.277064,-0.10354 -0.4375,-0.15625 -0.160436,-0.0527 -0.27471,-0.0801 -0.4375,-0.125 -0.16279,-0.0449 -0.272734,-0.088 -0.4375,-0.125 -0.164766,-0.037 -0.302391,-0.0335 -0.46875,-0.0625 -0.166359,-0.029 -0.269935,-0.0728 -0.4375,-0.0937 -0.167565,-0.021 -0.300368,-0.0184 -0.46875,-0.0312 -0.168382,-0.0129 -0.268693,-0.0265 -0.4375,-0.0312 -0.174961,-0.005 -0.325011,-0.004 -0.5,0 z" id="path22" opacity="0.4" stroke="#000"/>
  <path d="m 10.4062,2.560714 c -0.384131,0.0276 -0.464295,0.0592 -0.84375,0.125 -0.379455,0.0658 -0.472758,0.0841 -0.84375,0.1875 -0.370992,0.10337 -0.422426,0.11012 -0.78125,0.25 -0.358824,0.13988 -0.438175,0.16876 -0.78125,0.34375 -0.343075,0.17499 -0.39485,0.22915 -0.71875,0.4375 -0.3239,0.20835 -0.386008,0.22912 -0.6875,0.46875 -0.301492,0.23963 -0.348926,0.29398 -0.625,0.5625 -0.276074,0.26852 -0.34585,0.33027 -0.59375,0.625 -0.2479,0.29473 -0.282749,0.33825 -0.5,0.65625 -0.217251,0.318 -0.253067,0.41191 -0.4375,0.75 -0.184433,0.33809 -0.225226,0.39519 -0.375,0.75 -0.149774,0.35481 -0.16763,0.41327 -0.28125,0.78125 -0.113619,0.36798 -0.142419,0.43502 -0.21875,0.8125 -0.076331,0.37748 -0.08672,0.46053 -0.125,0.84375 -0.03828,0.38322 -0.031402,0.45863 -0.03125,0.84375 1.69e-4,0.37815 -0.00597,0.43619 0.03125,0.8125 0.037223,0.37631 0.051082,0.4729 0.125,0.84375 0.073918,0.37085 0.108848,0.41942 0.21875,0.78125 0.109902,0.36182 0.105172,0.43194 0.25,0.78125 0.144828,0.34931 0.19664,0.41656 0.375,0.75 0.17836,0.33344 0.196075,0.40439 0.40625,0.71875 0.210175,0.31436 0.260032,0.364 0.5,0.65625 0.239968,0.29225 0.29505,0.35767 0.5625,0.625 0.26745,0.26733 0.332641,0.32266 0.625,0.5625 0.292359,0.23984 0.341797,0.25871 0.65625,0.46875 0.314453,0.21003 0.385229,0.25929 0.71875,0.4375 0.333521,0.17821 0.400621,0.19908 0.75,0.34375 0.349379,0.14467 0.419376,0.17151 0.78125,0.28125 0.361874,0.10974 0.410364,0.145 0.78125,0.21875 0.370886,0.0737 0.467422,0.088 0.84375,0.125 0.376328,0.037 0.434352,0.0312 0.8125,0.0312 0.378148,0 0.436172,0.006 0.8125,-0.0312 0.376328,-0.037 0.472864,-0.0513 0.84375,-0.125 0.370886,-0.0737 0.419376,-0.10901 0.78125,-0.21875 0.361874,-0.10974 0.431871,-0.13658 0.78125,-0.28125 0.349379,-0.14467 0.416479,-0.16554 0.75,-0.34375 0.333521,-0.17821 0.404297,-0.22747 0.71875,-0.4375 0.314453,-0.21004 0.363891,-0.22891 0.65625,-0.46875 0.292359,-0.23984 0.35755,-0.29517 0.625,-0.5625 0.26745,-0.26733 0.322532,-0.33275 0.5625,-0.625 0.239968,-0.29225 0.289825,-0.34189 0.5,-0.65625 0.210175,-0.31436 0.22789,-0.38531 0.40625,-0.71875 0.17836,-0.33344 0.230172,-0.40069 0.375,-0.75 0.144828,-0.34931 0.140098,-0.41943 0.25,-0.78125 0.109902,-0.36183 0.144832,-0.4104 0.21875,-0.78125 0.07392,-0.37085 0.08778,-0.46744 0.125,-0.84375 0.03722,-0.37631 0.03108,-0.43435 0.03125,-0.8125 1.47e-4,-0.37158 0.0044,-0.44264 -0.03125,-0.8125 -0.03563,-0.36986 -0.05392,-0.44779 -0.125,-0.8125 -0.07108,-0.36471 -0.08163,-0.42508 -0.1875,-0.78125 -0.105872,-0.35618 -0.141573,-0.43693 -0.28125,-0.78125 -0.139677,-0.34433 -0.171567,-0.38948 -0.34375,-0.71875 -0.172183,-0.32928 -0.20316,-0.40758 -0.40625,-0.71875 -0.20309,-0.31117 -0.236641,-0.36609 -0.46875,-0.65625 -0.232109,-0.29016 -0.272279,-0.32729 -0.53125,-0.59375 -0.258971,-0.26647 -0.310324,-0.32221 -0.59375,-0.5625 -0.283426,-0.24029 -0.351003,-0.28812 -0.65625,-0.5 -0.305247,-0.21188 -0.363269,-0.256 -0.6875,-0.4375 -0.324231,-0.1815 -0.378548,-0.19431 -0.71875,-0.34375 -0.340202,-0.14944 -0.428239,-0.19651 -0.78125,-0.3125 -0.353011,-0.11599 -0.418711,-0.13729 -0.78125,-0.21875 -0.362539,-0.0815 -0.412552,-0.0788 -0.78125,-0.125 -0.368698,-0.0462 -0.44107,-0.0521 -0.8125,-0.0625 -0.384972,-0.0108 -0.459619,-0.0276 -0.84375,0 z" id="path24" opacity="0.4" stroke="url(#1)"/>
 </g>
 <path opacity="0.6" fill="#fff" d="m 7 7.998214 v 8 h 5 v -8 h -5 z" id="path26"/>
 <path fill="#6a6a6a" d="m 7 6.998214 v 8 H 12 V 6.998214 H 7 z" id="path28"/>
 <path opacity="0.6" fill="#fff" d="m 11 7.998214 v 8 h 4 v -8 h -4 z" id="path30"/>
 <path fill="#6a6a6a" d="m 11 6.998214 v 8 h 4 V 6.998214 h -4 z" id="path32"/>
 <metadata id="metadata9999">
  <rdf:RDF>
   <cc:Work>
    <dc:format>image/svg+xml</dc:format>
    <dc:type rdf:resource="http://purl.org/dc/dcmitype/StillImage"/>
    <dc:title>Ivy icon theme</dc:title>
    <cc:license rdf:resource="http://creativecommons.org/licenses/by-sa/4.0/"/>
    <dc:creator>
     <cc:Agent>
      <dc:title>Sixsixfive (sixsixfive.deviantart.com)</dc:title>
     </cc:Agent>
    </dc:creator>
    <dc:publisher>
     <cc:Agent>
      <dc:title>Sixsixfive (sixsixfive.deviantart.com)</dc:title>
     </cc:Agent>
    </dc:publisher>
    <dc:source>https://github.com/sixsixfive</dc:source>
    <dc:subject>
     <rdf:Bag>
      <rdf:li>ivy</rdf:li>
     </rdf:Bag>
    </dc:subject>
    <dc:contributor>
     <cc:Agent>
      <dc:title>ssf</dc:title>
     </cc:Agent>
    </dc:contributor>
    <dc:rights>
     <cc:Agent>
      <dc:title>Sixsixfive (sixisixfive.deviantart.com)</dc:title>
     </cc:Agent>
    </dc:rights>
    <dc:description>A simple icon theme published under CC-BY-SA_V4(http://creativecommons.org/licenses/by-sa/4.0)</dc:description>
    <dc:identifier>SSF</dc:identifier>
   </cc:Work>
  </rdf:RDF>
 </metadata>
 <!--Part of the Ivy icon them published under the CC-BY-SA_V4: http://creativecommons.org/licenses/by-sa/4.0 -->
</svg>
