<?xml version="1.0" encoding="UTF-8" standalone="no"?>
<svg xmlns:dc="http://purl.org/dc/elements/1.1/" xmlns:cc="http://creativecommons.org/ns#" xmlns:rdf="http://www.w3.org/1999/02/22-rdf-syntax-ns#" xmlns:svg="http://www.w3.org/2000/svg" xmlns="http://www.w3.org/2000/svg" xmlns:xlink="http://www.w3.org/1999/xlink" viewBox="0 0 48 48" id="svg2" version="1.1">
 <defs id="0">
  <linearGradient id="A">
   <stop stop-color="#eed45a" id="H"/>
   <stop offset="1" stop-color="#f8ecb7" id="I"/>
  </linearGradient>
  <linearGradient id="B" y1="3" y2="44" x2="0" gradientUnits="userSpaceOnUse">
   <stop stop-color="#eed45a" id="J"/>
   <stop offset="1" stop-color="#f3e291" id="K"/>
  </linearGradient>
  <linearGradient id="C" y1="3" x1="40" y2="42.969" x2="39.906" gradientUnits="userSpaceOnUse">
   <stop stop-color="#fff" id="L"/>
   <stop offset="1" stop-color="#fff" id="M" stop-opacity="0"/>
  </linearGradient>
  <linearGradient id="D" xlink:href="#A" y1="3" y2="13" x2="0" gradientUnits="userSpaceOnUse"/>
 </defs>
 <rect width="34.951" x="6" opacity="0.1" y="3" rx="1.209" height="42" id="1" ry="1.209"/>
 <rect width="34.951" x="5.986" y="2" fill="url(#B)" rx="1.209" height="42" id="2" ry="1.209"/>
 <path opacity="0.1" fill-rule="evenodd" id="3" d="M 6,3 41,3 32,13 15,13 z"/>
 <rect width="26" x="11" opacity="0.4" y="-24" height="1" fill-rule="evenodd" id="4" transform="matrix(0 1 -1 0 0 0)"/>
 <rect width="33" x="7" opacity="0.5" y="38" fill="#fff" height="1" fill-rule="evenodd" id="5"/>
 <rect width="33" x="7" opacity="0.4" y="37" height="1" fill-rule="evenodd" id="6"/>
 <path fill="url(#D)" fill-rule="evenodd" id="7" d="M 7.1875,2 C 6.8432645,2 6.5635306,2.1456163 6.34375,2.375 L 15,12 32,12 40.625,2.40625 C 40.40393,2.1589625 40.078077,2 39.71875,2 L 7.1875,2 z"/>
 <path opacity="0.4" id="8" color="#000" d="M 7.0625,2.03125 C 6.6896823,2.071799 6.3794451,2.2626191 6.1875,2.5625 L 14.625,11.84375 14.78125,12 15,12 32,12 32.21875,12 32.375,11.84375 40.75,2.625 C 40.572084,2.3186635 40.27036,2.0899336 39.90625,2.03125 L 31.78125,11 15.21875,11 7.0625,2.03125 z"/>
 <g id="9" fill="none">
  <path id="F" d="M 7.1875,2.5 C 6.783721,2.5 6.5,2.799839 6.5,3.21875 l 0,39.5625 C 6.5,43.20016 6.783721,43.5 7.1875,43.5 l 32.53125,0 c 0.40378,0 0.71875,-0.31497 0.71875,-0.71875 l 0,-39.5625 C 40.4375,2.814971 40.12253,2.5 39.71875,2.5 L 7.1875,2.5 Z" opacity="0.4" stroke="#000"/>
  <path id="G" d="m 7.5312,3.5312 0,38.9375 31.875,0 0,-38.9375 -31.875,0 z" opacity="0.5" stroke="url(#C)"/>
 </g>
 <metadata id="metadata9999">
  <rdf:RDF>
   <cc:Work>
    <dc:format>image/svg+xml</dc:format>
    <dc:type rdf:resource="http://purl.org/dc/dcmitype/StillImage"/>
    <dc:title>Ivy icon theme</dc:title>
    <cc:license rdf:resource="http://creativecommons.org/licenses/by-sa/4.0/"/>
    <dc:creator>
     <cc:Agent>
      <dc:title>Sixsixfive (sixsixfive.deviantart.com)</dc:title>
     </cc:Agent>
    </dc:creator>
    <dc:publisher>
     <cc:Agent>
      <dc:title>Sixsixfive (sixsixfive.deviantart.com)</dc:title>
     </cc:Agent>
    </dc:publisher>
    <dc:source>https://github.com/sixsixfive</dc:source>
    <dc:subject>
     <rdf:Bag>
      <rdf:li>ivy</rdf:li>
     </rdf:Bag>
    </dc:subject>
    <dc:contributor>
     <cc:Agent>
      <dc:title>ssf</dc:title>
     </cc:Agent>
    </dc:contributor>
    <dc:rights>
     <cc:Agent>
      <dc:title>Sixsixfive (sixisixfive.deviantart.com)</dc:title>
     </cc:Agent>
    </dc:rights>
    <dc:description>A simple icon theme published under CC-BY-SA_V4(http://creativecommons.org/licenses/by-sa/4.0)</dc:description>
    <dc:identifier>SSF</dc:identifier>
   </cc:Work>
  </rdf:RDF>
 </metadata>
 <!--Part of the Ivy icon them published under the CC-BY-SA_V4: http://creativecommons.org/licenses/by-sa/4.0 -->
</svg>
