<?xml version="1.0" encoding="UTF-8" standalone="no"?>
<svg xmlns:dc="http://purl.org/dc/elements/1.1/" xmlns:cc="http://creativecommons.org/ns#" xmlns:rdf="http://www.w3.org/1999/02/22-rdf-syntax-ns#" xmlns:svg="http://www.w3.org/2000/svg" xmlns="http://www.w3.org/2000/svg" viewBox="0 0 22 22" id="svg2" version="1.1">
 <defs id="defs4">
  <linearGradient id="0" y1="43" y2="5" gradientUnits="userSpaceOnUse" x2="0" gradientTransform="matrix(0.5 0 0 0.47368 -23 -0.368)">
   <stop stop-color="#ddd" id="stop7"/>
   <stop offset="1" stop-color="#fff" id="stop9"/>
  </linearGradient>
  <linearGradient id="1" y1="3.045" y2="18.955" gradientUnits="userSpaceOnUse" x2="0">
   <stop stop-color="#fff" id="stop12"/>
   <stop offset="1" stop-color="#fff" id="stop14" stop-opacity="0"/>
  </linearGradient>
 </defs>
 <g id="g16" transform="scale(-1,1)">
  <path id="path18" d="m -21,3 20,0 0,18 -20,0 z" opacity="0.1"/>
  <path id="path20" d="m -21,2 20,0 0,18 -20,0 z" fill="url(#0)"/>
 </g>
 <path opacity="0.65" fill="#fff" id="path22" d="M 4,6 18,6 18,8 4,8 Z"/>
 <path opacity="0.7" fill="#171717" id="path24" d="M 4,5 18,5 18,7 4,7 Z"/>
 <path opacity="0.65" fill="#fff" id="path26" d="m 7,9 11,0 0,2 -11,0 z"/>
 <path opacity="0.7" fill="#171717" id="path28" d="m 7,8 11,0 0,2 -11,0 z"/>
 <path opacity="0.65" fill="#fff" id="path30" d="m 10,12 8,0 0,2 -8,0 z"/>
 <path opacity="0.7" fill="#171717" id="path32" d="m 10,11 8,0 0,2 -8,0 z"/>
 <path opacity="0.65" fill="#fff" id="path34" d="m 10,15 8,0 0,2 -8,0 z"/>
 <path opacity="0.7" fill="#171717" id="path36" d="m 10,14 8,0 0,2 -8,0 z"/>
 <g id="g38" fill="none">
  <path id="path40" d="m 1.53125,2.53125 0,16.9375 18.9375,0 0,-16.9375 -18.9375,0 z" opacity="0.4" stroke="#000"/>
  <path id="path42" d="m 2.53125,3.53125 0,14.9375 16.9375,0 0,-14.9375 -16.9375,0 z" opacity="0.4" stroke="url(#1)"/>
 </g>
 <rect width="1" x="4" opacity="0.7" y="8" height="2" id="rect4318"/>
 <rect width="1" x="9" opacity="0.7" y="-6" height="1" id="rect4320" transform="matrix(0 1 -1 0 0 0)"/>
 <rect width="1" x="7" opacity="0.7" y="11" height="2" id="rect4322"/>
 <rect width="1" x="12" opacity="0.7" y="-9" height="1" id="rect4324" transform="matrix(0 1 -1 0 0 0)"/>
 <rect width="1" x="7" opacity="0.7" y="13" height="3" id="rect4326"/>
 <rect width="1" x="15" opacity="0.7" y="-9" height="1" id="rect4328" transform="matrix(0 1 -1 0 0 0)"/>
 <metadata id="metadata9999">
  <rdf:RDF>
   <cc:Work>
    <dc:format>image/svg+xml</dc:format>
    <dc:type rdf:resource="http://purl.org/dc/dcmitype/StillImage"/>
    <dc:title>Ivy icon theme</dc:title>
    <cc:license rdf:resource="http://creativecommons.org/licenses/by-sa/4.0/"/>
    <dc:creator>
     <cc:Agent>
      <dc:title>Sixsixfive (sixsixfive.deviantart.com)</dc:title>
     </cc:Agent>
    </dc:creator>
    <dc:publisher>
     <cc:Agent>
      <dc:title>Sixsixfive (sixsixfive.deviantart.com)</dc:title>
     </cc:Agent>
    </dc:publisher>
    <dc:source>https://github.com/sixsixfive</dc:source>
    <dc:subject>
     <rdf:Bag>
      <rdf:li>ivy</rdf:li>
     </rdf:Bag>
    </dc:subject>
    <dc:contributor>
     <cc:Agent>
      <dc:title>ssf</dc:title>
     </cc:Agent>
    </dc:contributor>
    <dc:rights>
     <cc:Agent>
      <dc:title>Sixsixfive (sixisixfive.deviantart.com)</dc:title>
     </cc:Agent>
    </dc:rights>
    <dc:description>A simple icon theme published under CC-BY-SA_V4(http://creativecommons.org/licenses/by-sa/4.0)</dc:description>
    <dc:identifier>SSF</dc:identifier>
   </cc:Work>
  </rdf:RDF>
 </metadata>
 <!--Part of the Ivy icon them published under the CC-BY-SA_V4: http://creativecommons.org/licenses/by-sa/4.0 -->
</svg>
