<?xml version="1.0" encoding="UTF-8" standalone="no"?>
<svg xmlns:dc="http://purl.org/dc/elements/1.1/" xmlns:cc="http://creativecommons.org/ns#" xmlns:rdf="http://www.w3.org/1999/02/22-rdf-syntax-ns#" xmlns:svg="http://www.w3.org/2000/svg" xmlns="http://www.w3.org/2000/svg" xmlns:xlink="http://www.w3.org/1999/xlink" version="1.1" viewBox="0 0 22 22" id="svg2">
 <defs id="0">
  <linearGradient id="linearGradient3782">
   <stop stop-color="#fff" id="stop3784"/>
   <stop offset="1" stop-color="#fff" id="stop3786" stop-opacity="0"/>
  </linearGradient>
  <linearGradient id="linearGradient3788" xlink:href="#linearGradient3782" y1="6" y2="18" x2="0" gradientUnits="userSpaceOnUse"/>
 </defs>
 <path opacity="0.1" id="path3825" d="M 0,6 0,20 22,20 22,6 0,6 0,6 z"/>
 <path fill="#ebebeb" id="2" d="M 0,5 0,19 22,19 22,5 0,5 0,5 z"/>
 <rect width="1" x="16" y="8" fill="#fff" height="1" id="rect3808"/>
 <rect width="1" x="18" y="8" fill="#fff" height="1" id="rect3810"/>
 <rect width="1" x="17" y="10" fill="#fff" height="7" id="rect3812"/>
 <rect width="1" x="16" y="17" fill="#fff" height="1" id="rect3814"/>
 <rect width="1" x="18" y="17" fill="#fff" height="1" id="rect3816"/>
 <rect width="13" x="2" y="7" fill="#5288d1" height="10" id="3"/>
 <rect width="4" x="5" opacity="0.1" y="10" height="6" id="rect3790"/>
 <rect width="4" x="5" y="9" fill="#ebebeb" height="6" id="6"/>
 <rect width="2" x="10" opacity="0.1" y="10" height="6" id="rect3792"/>
 <rect width="2" x="10" y="9" fill="#ebebeb" height="6" id="7"/>
 <path opacity="0.4" fill="none" stroke="#000" id="path3010" d="m 0.53125,5.53125 0,12.9375 20.9375,0 0,-12.9375 -20.9375,0 z"/>
 <path opacity="0.6" fill="none" stroke="url(#linearGradient3788)" id="path3012" d="m 1.53125,6.53125 0,10.9375 18.9375,0 0,-10.9375 -18.9375,0 z"/>
 <rect width="1" x="16" y="7" fill="#171717" height="1" id="rect3798"/>
 <rect width="1" x="18" y="7" fill="#171717" height="1" id="rect3800"/>
 <rect width="1" x="17" y="8" fill="#171717" height="8" id="rect3802"/>
 <rect width="1" x="16" y="16" fill="#171717" height="1" id="rect3804"/>
 <rect width="1" x="18" y="16" fill="#171717" height="1" id="rect3806"/>
 <path opacity="0.4" fill="none" stroke="#000" id="path3848" d="m 2.53125,7.53125 0,8.9375 11.9375,0 0,-8.9375 -11.9375,0 z"/>
 <metadata id="metadata9999">
  <rdf:RDF>
   <cc:Work>
    <dc:format>image/svg+xml</dc:format>
    <dc:type rdf:resource="http://purl.org/dc/dcmitype/StillImage"/>
    <dc:title>Ivy icon theme</dc:title>
    <cc:license rdf:resource="http://creativecommons.org/licenses/by-sa/4.0/"/>
    <dc:creator>
     <cc:Agent>
      <dc:title>Sixsixfive (sixsixfive.deviantart.com)</dc:title>
     </cc:Agent>
    </dc:creator>
    <dc:publisher>
     <cc:Agent>
      <dc:title>Sixsixfive (sixsixfive.deviantart.com)</dc:title>
     </cc:Agent>
    </dc:publisher>
    <dc:source>https://github.com/sixsixfive</dc:source>
    <dc:subject>
     <rdf:Bag>
      <rdf:li>ivy</rdf:li>
     </rdf:Bag>
    </dc:subject>
    <dc:contributor>
     <cc:Agent>
      <dc:title>ssf</dc:title>
     </cc:Agent>
    </dc:contributor>
    <dc:rights>
     <cc:Agent>
      <dc:title>Sixsixfive (sixisixfive.deviantart.com)</dc:title>
     </cc:Agent>
    </dc:rights>
    <dc:description>A simple icon theme published under CC-BY-SA_V4(http://creativecommons.org/licenses/by-sa/4.0)</dc:description>
    <dc:identifier>SSF</dc:identifier>
   </cc:Work>
  </rdf:RDF>
 </metadata>
 <!--Part of the Ivy icon them published under the CC-BY-SA_V4: http://creativecommons.org/licenses/by-sa/4.0 -->
</svg>
