<?xml version="1.0" encoding="UTF-8" standalone="no"?><svg viewBox="0 0 22 22" xmlns="http://www.w3.org/2000/svg" xmlns:svg="http://www.w3.org/2000/svg" xmlns:rdf="http://www.w3.org/1999/02/22-rdf-syntax-ns#" version="1.1" id="svg2" xmlns:dc="http://purl.org/dc/elements/1.1/" xmlns:cc="http://creativecommons.org/ns#"><defs id="defs4"><linearGradient y1="43" x2="0" y2="5" gradientTransform="matrix(0.5 0 0 0.47368 -23 -0.368)" id="0" gradientUnits="userSpaceOnUse"><stop id="stop7" stop-color="#ddd"/><stop offset="1" id="stop9" stop-color="#fff"/></linearGradient><linearGradient y1="3.045" x2="0" y2="18.955" id="1" gradientUnits="userSpaceOnUse"><stop id="stop12" stop-color="#fff"/><stop stop-opacity="0" offset="1" id="stop14" stop-color="#fff"/></linearGradient></defs><g transform="matrix(-1 0 0 1 0 0)" id="g16"><path opacity="0.1" id="path18" d="m -21,3 20,0 0,18 -20,0 z"/><path id="path20" d="m -21,2 20,0 0,18 -20,0 z" fill="url(#0)"/></g><path opacity="0.65" id="path22" d="M 4,6 H18 V8 H4 z" fill="#fff"/><path opacity="0.7" id="path24" d="M 4,5 H18 V7 H4 z" fill="#171717"/><path opacity="0.65" id="path26" d="M 4,9 H18 V11 H4 z" fill="#fff"/><path opacity="0.7" id="path28" d="M 4,8 H18 V10 H4 z" fill="#171717"/><path opacity="0.65" id="path30" d="M 4,12 H18 V14 H4 z" fill="#fff"/><path opacity="0.7" id="path32" d="M 4,11 H18 V13 H4 z" fill="#171717"/><path opacity="0.65" id="path34" d="M 4,15 H18 V17 H4 z" fill="#fff"/><path opacity="0.7" id="path36" d="M 4,14 H18 V16 H4 z" fill="#171717"/><g id="g38" fill="none"><path stroke="#000" opacity="0.4" id="path40" d="m 1.53125,2.53125 0,16.9375 18.9375,0 0,-16.9375 -18.9375,0 z"/><path stroke="url(#1)" opacity="0.4" id="path42" d="m 2.53125,3.53125 0,14.9375 16.9375,0 0,-14.9375 -16.9375,0 z"/></g><metadata id="metadata9999"><rdf:RDF><cc:Work><dc:format>image/svg+xml</dc:format><dc:type rdf:resource="http://purl.org/dc/dcmitype/StillImage"/><dc:title>Ivy icon theme</dc:title><cc:license rdf:resource="http://creativecommons.org/licenses/by-sa/4.0/"/><dc:creator><cc:Agent><dc:title>Sixsixfive (sixsixfive.deviantart.com)</dc:title></cc:Agent></dc:creator><dc:publisher><cc:Agent><dc:title>Sixsixfive (sixsixfive.deviantart.com)</dc:title></cc:Agent></dc:publisher><dc:source>https://github.com/sixsixfive</dc:source><dc:subject><rdf:Bag><rdf:li>ivy</rdf:li></rdf:Bag></dc:subject><dc:contributor><cc:Agent><dc:title>ssf</dc:title></cc:Agent></dc:contributor><dc:rights><cc:Agent><dc:title>Sixsixfive (sixisixfive.deviantart.com)</dc:title></cc:Agent></dc:rights><dc:description>A simple icon theme published under CC-BY-SA_V4(http://creativecommons.org/licenses/by-sa/4.0)</dc:description><dc:identifier>SSF</dc:identifier></cc:Work></rdf:RDF></metadata><!--Part of the Ivy icon them published under the CC-BY-SA_V4: http://creativecommons.org/licenses/by-sa/4.0 -->
</svg>