<?xml version="1.0" encoding="UTF-8" standalone="no"?><svg xmlns:rdf="http://www.w3.org/1999/02/22-rdf-syntax-ns#" xmlns:cc="http://creativecommons.org/ns#" xmlns:svg="http://www.w3.org/2000/svg" id="svg2" viewBox="0 0 22 22" version="1.1" xmlns:xlink="http://www.w3.org/1999/xlink" xmlns:dc="http://purl.org/dc/elements/1.1/" xmlns="http://www.w3.org/2000/svg"><defs id="defs4"><linearGradient id="linearGradient4446"><stop id="stop4448" stop-color="#fff"/><stop offset="1" id="stop4450" stop-color="#fff" stop-opacity="0"/></linearGradient><linearGradient id="1"><stop id="stop12" stop-color="#66b03e"/><stop offset="1" id="stop14" stop-color="#7bc454"/></linearGradient><radialGradient r="5" cx="9.683" id="8" cy="17.401" gradientTransform="matrix(0.50604607 -0.18401736 0.39996134 1.0998945 -6.259925 -10.357836)" xlink:href="#1" gradientUnits="userSpaceOnUse"/><radialGradient r="5" cx="9.683" id="radialGradient4204" cy="17.401" gradientTransform="matrix(0.50604607 -0.18401736 0.39996134 1.0998945 -6.255472 -3.370194)" xlink:href="#1" gradientUnits="userSpaceOnUse"/><radialGradient r="5" cx="9.683" id="radialGradient4212" cy="17.401" gradientTransform="matrix(0.50604607 -0.18401736 0.39996134 1.0998945 -6.255472 3.629807)" xlink:href="#1" gradientUnits="userSpaceOnUse"/><radialGradient r="5" cx="9.683" id="radialGradient4192" cy="17.401" gradientTransform="matrix(1.01219 -0.36807 0.8 2.2 -13.722 -16.719)" xlink:href="#9" gradientUnits="userSpaceOnUse"/><radialGradient r="5" cx="9.683" id="9" cy="17.401" gradientTransform="matrix(1.01219 -0.36807 0.8 2.2 -13.722 -16.719)" gradientUnits="userSpaceOnUse"><stop id="stop23" stop-color="#66b03e"/><stop offset="1" id="stop25" stop-color="#7bc454"/></radialGradient><linearGradient id="5-3"><stop id="stop11" stop-opacity="0.2"/><stop offset="1" id="stop13" stop-opacity="0"/></linearGradient><radialGradient r="8.655" cx="12.577" id="8-3" cy="44.784" gradientTransform="matrix(0.10590699 0 0 0.04983 6.05808 17.934583)" xlink:href="#5-3" gradientUnits="userSpaceOnUse"/><linearGradient id="linearGradient4452" x2="0" y2="3.02" xlink:href="#linearGradient4446" y1="15.437" gradientUnits="userSpaceOnUse"/></defs><path id="path4454" opacity="0.1" d="M 12.000004,3 19,22 12.002989,22 12,3 Z"/><g id="g4220" opacity="0.1" transform="matrix(0.99999876 0 0 1 -5.899823 1.013357)"><path id="path4214" d="m 13.999521,4.5002393 a 2.4997607,2.4997607 0 0 1 -4.9995209,0 2.4997607,2.4997607 0 1 1 4.9995209,0 z"/><path id="path4216" d="m 14.003974,11.487882 a 2.4997607,2.4997607 0 0 1 -4.999521,0 2.4997607,2.4997607 0 1 1 4.999521,0 z"/><path id="path4218" d="m 14.003974,18.487882 a 2.4997607,2.4997607 0 0 1 -4.999521,0 2.4997607,2.4997607 0 1 1 4.999521,0 z"/></g><path id="path37" d="m 8.0996873,4.5002393 a 2.4997588,2.4997607 0 0 1 -4.9995169,0 2.4997588,2.4997607 0 1 1 4.9995169,0 z" fill="url(#8)"/><path id="path4192" opacity="0.4" d="M 11.541016,2.484375 C 10.336042,2.4062604 9.2432437,3.7140055 9.5214844,4.8847656 a 0.48459771,0.48459771 0 0 1 0.00781,0.033203 C 9.7351841,6.1840199 11.4209,6.9398646 12.501953,6.25 a 0.48459771,0.48459771 0 0 1 0.03125,-0.019531 C 13.62317,5.6452189 13.836556,3.8959873 12.917969,3.0664062 a 0.48459771,0.48459771 0 0 1 -0.01563,-0.013672 C 12.549206,2.7071161 12.0537,2.4969626 11.560547,2.484375 a 0.48459771,0.48459771 0 0 1 -0.01953,0 z" stroke="#000" transform="matrix(0.99999876 0 0 1 -5.899823 0)" fill="none"/><path id="path4196" opacity="0.476" d="M 4.6903448,4.5830992 C 4.6625578,3 6.6820571,3 6.7033512,4.6706213" stroke="#fff" fill-rule="evenodd" fill="none"/><path id="path4198" d="m 8.1041403,11.487882 a 2.4997588,2.4997607 0 0 1 -4.999517,0 2.4997588,2.4997607 0 1 1 4.999517,0 z" fill="url(#radialGradient4204)"/><path id="path4200" opacity="0.4" d="M 11.541016,2.484375 C 10.336042,2.4062604 9.2432437,3.7140055 9.5214844,4.8847656 a 0.48459771,0.48459771 0 0 1 0.00781,0.033203 C 9.7351841,6.1840199 11.4209,6.9398646 12.501953,6.25 a 0.48459771,0.48459771 0 0 1 0.03125,-0.019531 C 13.62317,5.6452189 13.836556,3.8959873 12.917969,3.0664062 a 0.48459771,0.48459771 0 0 1 -0.01563,-0.013672 C 12.549206,2.7071161 12.0537,2.4969626 11.560547,2.484375 a 0.48459771,0.48459771 0 0 1 -0.01953,0 z" stroke="#000" transform="matrix(0.99999876 0 0 1 -5.89537 6.987643)" fill="none"/><path id="path4202" opacity="0.476" d="m 4.6947978,11.570742 c -0.02779,-1.5830995 1.9917123,-1.5830995 2.0130064,0.08752" stroke="#fff" fill-rule="evenodd" fill="none"/><path id="path4206" d="m 8.1041403,18.487882 a 2.4997588,2.4997607 0 0 1 -4.999517,0 2.4997588,2.4997607 0 1 1 4.999517,0 z" fill="url(#radialGradient4212)"/><path id="path4208" opacity="0.4" d="M 11.541016,2.484375 C 10.336042,2.4062604 9.2432437,3.7140055 9.5214844,4.8847656 a 0.48459771,0.48459771 0 0 1 0.00781,0.033203 C 9.7351841,6.1840199 11.4209,6.9398646 12.501953,6.25 a 0.48459771,0.48459771 0 0 1 0.03125,-0.019531 C 13.62317,5.6452189 13.836556,3.8959873 12.917969,3.0664062 a 0.48459771,0.48459771 0 0 1 -0.01563,-0.013672 C 12.549206,2.7071161 12.0537,2.4969626 11.560547,2.484375 a 0.48459771,0.48459771 0 0 1 -0.01953,0 z" stroke="#000" transform="matrix(0.99999876 0 0 1 -5.89537 13.987643)" fill="none"/><path id="path4210" opacity="0.476" d="m 4.6947978,18.570742 c -0.02779,-1.583099 1.9917123,-1.583099 2.0130064,0.08752" stroke="#fff" fill-rule="evenodd" fill="none"/><path id="path27" opacity="0.652" d="m 8.310379,20.189813 a 0.88312986,0.43131786 0 0 1 -1.7662597,0 0.88312986,0.43131786 0 1 1 1.7662597,0 z" fill="url(#8-3)"/><path id="path31" d="M 12.000004,2.0220557 19,21.022056 l -6.997011,0 L 12,2.0220557 Z" fill="#5288d1"/><use height="22" id="use33" width="22" transform="matrix(0.45833333 0 0 0.45833333 1.375 5.04167)" xlink:href="#1" fill="url(#radialGradient4192)"/><use height="22" id="use47" width="22" transform="matrix(0.45833333 0 0 0.45833333 1.375 -1.833333)" xlink:href="#1" fill="url(#radialGradient4192)"/><use height="22" id="use49" width="22" transform="matrix(0.45833333 0 0 0.45833333 1.375 -1.833333)" xlink:href="#2"/><use height="22" id="use52" width="22" transform="matrix(0.45833333 0 0 0.45833333 1.375 11.916667)" xlink:href="#1" fill="url(#radialGradient4192)"/><use height="22" id="use54" width="22" transform="matrix(0.45833333 0 0 0.45833333 1.375 11.916667)" xlink:href="#2"/><path id="path4442" stroke-miterlimit="6.7" opacity="0.4" d="m 12.498047,2.4941406 -0.0039,15.7285154 5.794921,-15.7285154 -5.791015,0 z" stroke="#000" transform="matrix(1 0 0 -1 0 23.02206)" fill="none"/><path id="path4444" stroke-miterlimit="6.7" opacity="0.4" d="m 13.488281,3.484375 -0.002,9.1875 3.384766,-9.1875 -3.382813,0 z" stroke="url(#linearGradient4452)" transform="matrix(1 0 0 -1 0 23.02206)" fill="none"/><metadata id="metadata9999"><rdf:RDF><cc:Work><dc:format>image/svg+xml</dc:format><dc:type rdf:resource="http://purl.org/dc/dcmitype/StillImage"/><dc:title>Ivy icon theme</dc:title><cc:license rdf:resource="http://creativecommons.org/licenses/by-sa/4.0/"/><dc:creator><cc:Agent><dc:title>Sixsixfive (sixsixfive.deviantart.com)</dc:title></cc:Agent></dc:creator><dc:publisher><cc:Agent><dc:title>Sixsixfive (sixsixfive.deviantart.com)</dc:title></cc:Agent></dc:publisher><dc:source>https://github.com/sixsixfive</dc:source><dc:subject><rdf:Bag><rdf:li>ivy</rdf:li></rdf:Bag></dc:subject><dc:contributor><cc:Agent><dc:title>ssf</dc:title></cc:Agent></dc:contributor><dc:rights><cc:Agent><dc:title>Sixsixfive (sixisixfive.deviantart.com)</dc:title></cc:Agent></dc:rights><dc:description>A simple icon theme published under CC-BY-SA_V4(http://creativecommons.org/licenses/by-sa/4.0)</dc:description><dc:identifier>SSF</dc:identifier></cc:Work></rdf:RDF></metadata><!--Part of the Ivy icon them published under the CC-BY-SA_V4: http://creativecommons.org/licenses/by-sa/4.0 -->
</svg>