<?xml version="1.0" encoding="UTF-8" standalone="no"?><svg xmlns:sodipodi="http://sodipodi.sourceforge.net/DTD/sodipodi-0.dtd" xmlns:rdf="http://www.w3.org/1999/02/22-rdf-syntax-ns#" xmlns:cc="http://creativecommons.org/ns#" xmlns:svg="http://www.w3.org/2000/svg" id="svg2" sodipodi:docname="utilities-compare.svg" xmlns:inkscape="http://www.inkscape.org/namespaces/inkscape" viewBox="0 0 48 48" version="1.1" inkscape:version="0.91 r13725" xmlns:xlink="http://www.w3.org/1999/xlink" xmlns:dc="http://purl.org/dc/elements/1.1/" xmlns="http://www.w3.org/2000/svg"><defs id="defs4"><linearGradient id="linearGradient4208" inkscape:collect="always"><stop id="stop4210" stop-color="#a868d4" stop-opacity="1"/><stop offset="1" id="stop4212" stop-color="#c9a1e4" stop-opacity="1"/></linearGradient><linearGradient id="linearGradient4200" inkscape:collect="always"><stop id="stop4202" stop-color="#5288d1" stop-opacity="1"/><stop offset="1" id="stop4204" stop-color="#85acdf" stop-opacity="1"/></linearGradient><linearGradient id="linearGradient4192" inkscape:collect="always"><stop id="stop4194" stop-color="#d02604" stop-opacity="1"/><stop offset="1" id="stop4196" stop-color="#fc5d3e" stop-opacity="1"/></linearGradient><linearGradient id="linearGradient4179" inkscape:collect="always"><stop id="stop4181" stop-color="#fff" stop-opacity="1"/><stop offset="1" id="stop4183" stop-color="#fff" stop-opacity="0"/></linearGradient><linearGradient id="linearGradient4165" inkscape:collect="always"><stop id="stop4167" stop-color="#fff" stop-opacity="1"/><stop offset="1" id="stop4169" stop-color="#fff" stop-opacity="0"/></linearGradient><linearGradient id="linearGradient4171" x2="39" y2="42" xlink:href="#linearGradient4165" x1="39" y1="18" inkscape:collect="always" gradientUnits="userSpaceOnUse"/><linearGradient id="linearGradient4185" x2="26" y2="30" xlink:href="#linearGradient4179" x1="26" y1="6" inkscape:collect="always" gradientUnits="userSpaceOnUse"/><linearGradient id="linearGradient4198" x2="13" y2="30" xlink:href="#linearGradient4192" x1="13" y1="5" inkscape:collect="always" gradientUnits="userSpaceOnUse"/><linearGradient id="linearGradient4206" x2="39" y2="43" xlink:href="#linearGradient4200" x1="39" y1="17" inkscape:collect="always" gradientUnits="userSpaceOnUse"/><linearGradient id="linearGradient4214" x2="25" y2="31" xlink:href="#linearGradient4208" x1="25" y1="17" inkscape:collect="always" gradientUnits="userSpaceOnUse"/></defs><path stroke-linecap="round" fill-opacity="1" stroke-dasharray="none" id="ellipse4187" stroke-miterlimit="4" inkscape:connector-curvature="0" opacity="0.2" d="M 18.5,6 A 13.5,13 0 0 0 5,19 13.5,13 0 0 0 16.027344,31.771484 13.5,13 0 0 0 29.5,44 13.5,13 0 0 0 43,31 13.5,13 0 0 0 31.972656,18.228516 13.5,13 0 0 0 18.5,6 Z" stroke-width="1.39999998" stroke="none" stroke-linejoin="round" stroke-dashoffset="0" fill-rule="evenodd" fill="#000" stroke-opacity="1"/><sodipodi:namedview inkscape:window-width="640" inkscape:cx="26.483207" inkscape:bbox-paths="true" inkscape:cy="27.53045" inkscape:current-layer="svg2" inkscape:window-height="480" showgrid="true" objecttolerance="10" inkscape:zoom="3.7370593" gridtolerance="10" pagecolor="#ffffff" inkscape:bbox-nodes="true" bordercolor="#666666" inkscape:pageshadow="2" guidetolerance="10" id="namedview18" inkscape:snap-bbox="true" borderopacity="1" inkscape:pageopacity="0"><inkscape:grid id="grid3346" type="xygrid"/></sodipodi:namedview><metadata id="metadata9999"><rdf:RDF><cc:Work><dc:format>image/svg+xml</dc:format><dc:type rdf:resource="http://purl.org/dc/dcmitype/StillImage"/><dc:title/><cc:license rdf:resource="http://creativecommons.org/licenses/by-sa/4.0/"/><dc:creator><cc:Agent><dc:title>Sixsixfive (sixsixfive.deviantart.com)</dc:title></cc:Agent></dc:creator><dc:publisher><cc:Agent><dc:title>Sixsixfive (sixsixfive.deviantart.com)</dc:title></cc:Agent></dc:publisher><dc:source>https://github.com/sixsixfive</dc:source><dc:subject><rdf:Bag><rdf:li>ivy</rdf:li></rdf:Bag></dc:subject><dc:contributor><cc:Agent><dc:title>ssf</dc:title></cc:Agent></dc:contributor><dc:rights><cc:Agent><dc:title>Sixsixfive (sixisixfive.deviantart.com)</dc:title></cc:Agent></dc:rights><dc:description>A simple icon theme published under CC-BY-SA_V4(http://creativecommons.org/licenses/by-sa/4.0)</dc:description><dc:identifier>SSF</dc:identifier></cc:Work></rdf:RDF></metadata><!--Part of the Ivy icon them published under the CC-BY-SA_V4: http://creativecommons.org/licenses/by-sa/4.0 -->
<ellipse stroke-linecap="round" fill-opacity="1" rx="13.5" ry="13" id="path3348" cx="18.5" stroke-dasharray="none" stroke-miterlimit="4" cy="18" opacity="1" stroke-width="1.39999998" stroke="none" fill="url(#linearGradient4198)" stroke-dashoffset="0" fill-rule="evenodd" stroke-opacity="1" stroke-linejoin="round"/><ellipse stroke-linecap="round" fill-opacity="1" rx="13.5" ry="13" id="ellipse3350" cx="29.5" stroke-dasharray="none" stroke-miterlimit="4" cy="30" opacity="1" stroke-width="1.39999998" stroke="none" fill="url(#linearGradient4206)" stroke-dashoffset="0" fill-rule="evenodd" stroke-opacity="1" stroke-linejoin="round"/><path stroke-linecap="round" fill-opacity="1" stroke-dasharray="none" id="ellipse3354" stroke-miterlimit="4" opacity="1" d="M 29.5 17 A 13.5 13 0 0 0 16 30 A 13.5 13 0 0 0 16.027344 30.771484 A 13.5 13 0 0 0 18.5 31 A 13.5 13 0 0 0 32 18 A 13.5 13 0 0 0 31.972656 17.228516 A 13.5 13 0 0 0 29.5 17 z " stroke-width="1.39999998" stroke="none" stroke-linejoin="round" stroke-dashoffset="0" fill-rule="evenodd" fill="url(#linearGradient4214)" stroke-opacity="1"/><path stroke-linecap="round" fill-opacity="1" id="path4161" stroke-dasharray="none" stroke-miterlimit="4" opacity="0.5" d="m 29.5,17.525391 c -3.402001,0 -6.781405,1.348818 -9.181641,3.660156 C 17.918124,23.496885 16.525391,26.73927 16.525391,30 c 0,3.26073 1.392733,6.503115 3.792968,8.814453 2.400236,2.311338 5.77964,3.660156 9.181641,3.660156 3.402001,0 6.781405,-1.348818 9.181641,-3.660156 C 41.081876,36.503115 42.474609,33.26073 42.474609,30 c 0,-3.26073 -1.392733,-6.503115 -3.792968,-8.814453 C 36.281405,18.874209 32.902001,17.525391 29.5,17.525391 Z" stroke-width="1" stroke="#000" inkscape:radius="-0.52474654" inkscape:original="M 29.5 17 A 13.5 13 0 0 0 16 30 A 13.5 13 0 0 0 29.5 43 A 13.5 13 0 0 0 43 30 A 13.5 13 0 0 0 29.5 17 z " fill="none" stroke-dashoffset="0" fill-rule="evenodd" stroke-opacity="1" stroke-linejoin="round" sodipodi:type="inkscape:offset"/><path stroke-linecap="round" fill-opacity="1" id="path4163" stroke-dasharray="none" stroke-miterlimit="4" opacity="0.4" d="m 29.5,18.574219 c -3.13741,0 -6.25067,1.246304 -8.453125,3.367187 -2.202455,2.120883 -3.472656,5.0832 -3.472656,8.058594 0,2.975394 1.270201,5.937711 3.472656,8.058594 2.202455,2.120883 5.315715,3.367187 8.453125,3.367187 3.13741,0 6.25067,-1.246304 8.453125,-3.367187 2.202455,-2.120883 3.472656,-5.0832 3.472656,-8.058594 0,-2.975394 -1.270201,-5.937711 -3.472656,-8.058594 C 35.75067,19.820523 32.63741,18.574219 29.5,18.574219 Z" stroke-width="1" stroke="url(#linearGradient4171)" inkscape:radius="-1.5742842" inkscape:original="M 29.5 17 A 13.5 13 0 0 0 16 30 A 13.5 13 0 0 0 29.5 43 A 13.5 13 0 0 0 43 30 A 13.5 13 0 0 0 29.5 17 z " fill="none" stroke-dashoffset="0" fill-rule="evenodd" stroke-opacity="1" stroke-linejoin="round" sodipodi:type="inkscape:offset"/><path stroke-linecap="round" fill-opacity="1" id="path4175" stroke-dasharray="none" stroke-miterlimit="4" opacity="0.5" d="m 18.5,5.5214844 c -3.403064,0 -6.784517,1.348053 -9.1855469,3.6601562 C 6.9134229,11.493744 5.5214844,14.738124 5.5214844,18 c 0,3.261876 1.3919385,6.506256 3.7929687,8.818359 2.4010299,2.312104 5.7824829,3.660157 9.1855469,3.660157 3.403064,0 6.784517,-1.348053 9.185547,-3.660157 2.40103,-2.312103 3.792969,-5.556483 3.792969,-8.818359 0,-3.261876 -1.391939,-6.506256 -3.792969,-8.8183594 C 25.284517,6.8695374 21.903064,5.5214844 18.5,5.5214844 Z" stroke-width="1" stroke="#000" inkscape:radius="-0.52053016" inkscape:original="M 18.5 5 A 13.5 13 0 0 0 5 18 A 13.5 13 0 0 0 18.5 31 A 13.5 13 0 0 0 32 18 A 13.5 13 0 0 0 18.5 5 z " fill="none" stroke-dashoffset="0" fill-rule="evenodd" stroke-opacity="1" stroke-linejoin="round" sodipodi:type="inkscape:offset"/><path stroke-linecap="round" fill-opacity="1" id="path4177" stroke-dasharray="none" stroke-miterlimit="4" opacity="0.4" d="m 18.5,6.484375 c -3.159837,0 -6.296406,1.2555519 -8.515625,3.3925781 -2.2192195,2.1370259 -3.5,5.1234679 -3.5,8.1230469 0,2.999579 1.2807805,5.986021 3.5,8.123047 2.219219,2.137026 5.355788,3.392578 8.515625,3.392578 3.159837,0 6.296406,-1.255552 8.515625,-3.392578 2.219219,-2.137026 3.5,-5.123468 3.5,-8.123047 0,-2.999579 -1.280781,-5.986021 -3.5,-8.1230469 C 24.796406,7.7399269 21.659837,6.484375 18.5,6.484375 Z" stroke-width="1" stroke="url(#linearGradient4185)" inkscape:radius="-1.4853241" inkscape:original="M 18.5 5 A 13.5 13 0 0 0 5 18 A 13.5 13 0 0 0 18.5 31 A 13.5 13 0 0 0 32 18 A 13.5 13 0 0 0 18.5 5 z " fill="none" stroke-dashoffset="0" fill-rule="evenodd" stroke-opacity="1" stroke-linejoin="round" sodipodi:type="inkscape:offset"/></svg>