<?xml version="1.0" encoding="UTF-8" standalone="no"?><svg viewBox="0 0 22 22" xmlns:svg="http://www.w3.org/2000/svg" xmlns="http://www.w3.org/2000/svg" xmlns:rdf="http://www.w3.org/1999/02/22-rdf-syntax-ns#" xmlns:xlink="http://www.w3.org/1999/xlink" version="1.1" id="svg2" xmlns:dc="http://purl.org/dc/elements/1.1/" xmlns:cc="http://creativecommons.org/ns#"><defs id="defs4"><linearGradient x1="21" y1="20" x2="20.956" y2="-2.01" id="0" gradientUnits="userSpaceOnUse"><stop id="stop7" stop-color="#ddd"/><stop offset="1" id="stop9" stop-color="#fff"/></linearGradient><linearGradient y1="2" x2="0" y2="19" id="1" gradientUnits="userSpaceOnUse"><stop id="stop12" stop-color="#fff"/><stop stop-opacity="0" offset="1" id="stop14" stop-color="#fff"/></linearGradient><linearGradient id="linearGradient4165"><stop id="stop4167" stop-color="#eed45a"/><stop offset="1" id="stop4169" stop-color="#e9c82a"/></linearGradient><linearGradient x1="24.07086" xlink:href="#linearGradient4165" y1="21.03921" x2="24.04742" y2="3.960787" gradientTransform="matrix(1 0 0 1 -0.00000159 -0.00000036)" id="linearGradient4338" gradientUnits="userSpaceOnUse"/></defs><path opacity="0.1" id="path16" d="M 1 2 H 21 V 21 H 1 z"/><path id="path18" d="M 1 1 H 21 V 20 H 1 z" fill="url(#0)"/><path id="path20" d="M 1 1 H 21 V 7 H 1 z" fill="#5288d1"/><rect y="16" x="4" opacity="0.1" height="3" id="rect3968" width="3" fill-rule="evenodd"/><g id="g22" fill="none"><path stroke="#000" opacity="0.4" id="path24" d="m 1.5,1.5 0,18 19,0 0,-18 -19,0 z"/><path stroke="url(#1)" opacity="0.4" id="path26" d="m 2.5,2.5 0,16 17,0 0,-16 -17,0 z"/></g><path opacity="0.4" id="path28" d="M 2 6 H 20 V 7 H 2 z"/><g id="g30" fill="#fff"><path opacity="0.4" id="path32" d="M 3,7 19,7 19,8 3,8 Z"/><g id="g34" color="#000" fill-rule="evenodd"><path id="path36" d="M 3,3 4,3 4,4 3,4 Z"/><path id="path38" d="M 6,3 8,3 8,5 6,5 Z"/><path id="path40" d="m 9,4 2,0 0,1 -2,0 z"/><path id="path42" d="M 4,4 5,4 5,5 4,5 Z"/></g></g><g id="g44" color="#000" fill-rule="evenodd" fill="#c1c1c1"><path id="path46" d="M 3,4 4,4 4,5 3,5 Z"/><path id="path48" d="M 4,3 5,3 5,4 4,4 Z"/></g><rect y="15" x="4" height="3" id="rect3970" width="3" fill-rule="evenodd" fill="#fff"/><rect y="16" x="5" opacity="0.2" height="1" id="rect3974" width="1" fill-rule="evenodd" fill="#000"/><path opacity="0.2" id="path4555" fill-rule="evenodd" d="M 21.999998,4.9999996 0.99999844,22 21.999998,22 Z m -4,8.0000004 0,5 -6,0 z" fill="#000"/><path stroke="#000" opacity="0.35" transform="matrix(1 0 0 1 -0.00000024 6)" id="path3972" fill-rule="evenodd" d="M 4,8.5917969 A 0.40769341,0.40769341 0 0 0 3.5917969,9 l 0,3 A 0.40769341,0.40769341 0 0 0 4,12.408203 l 3,0 A 0.40769341,0.40769341 0 0 0 7.4082031,12 l 0,-3 A 0.40769341,0.40769341 0 0 0 7,8.5917969 l -3,0 z" fill="none"/><path id="path4323" fill-rule="evenodd" d="M 21.999998,3.9999996 0.99999844,21 21.999998,21 Z m -4,8.0000004 0,5 -6,0 z" fill="url(#linearGradient4338)"/><path stroke="#fff" opacity="0.3" id="path4342" fill-rule="evenodd" d="M 4.4999984,20 20.999998,6.4999996" fill="none"/><rect y="18" x="10.999999" opacity="0.3" ry="0.497774" rx="0.497774" height="1" id="rect4340" width="8" fill-rule="evenodd" fill="#fff"/><rect y="19" x="18" opacity="0.4" height="1" id="rect4346" width="1" fill-rule="evenodd" fill="#000"/><rect y="19" x="14.999999" opacity="0.4" height="1" id="rect4348" width="1" fill-rule="evenodd" fill="#000"/><rect y="19" x="11.999999" opacity="0.4" height="1" id="rect4350" width="1" fill-rule="evenodd" fill="#000"/><rect y="19" x="8.999999" opacity="0.4" height="1" id="rect4352" width="1" fill-rule="evenodd" fill="#000"/><rect y="19.00003" x="6.04925" opacity="0.4" height="1" id="rect4354" width="1" fill-rule="evenodd" fill="#000"/><path stroke="#000" opacity="0.4" id="path4553" fill-rule="evenodd" d="M 21.517576,5.0097652 2.3613264,20.517578 l 19.1562496,0 0,-15.5078128 z M 18.001951,11.517578 A 0.48219931,0.48219931 0 0 1 18.48242,12 l 0,5 a 0.48219931,0.48219931 0 0 1 -0.482422,0.482422 l -6,0 a 0.48219931,0.48219931 0 0 1 -0.308594,-0.853516 l 6,-5 a 0.48219931,0.48219931 0 0 1 0.310547,-0.111328 z" fill="none"/><rect y="19" x="17" opacity="0.4" height="1" id="rect4576" width="1" fill-rule="evenodd" fill="#fff"/><rect y="19" x="13.999999" opacity="0.4" height="1" id="rect4578" width="1" fill-rule="evenodd" fill="#fff"/><rect y="19" x="10.999999" opacity="0.4" height="1" id="rect4580" width="1" fill-rule="evenodd" fill="#fff"/><rect y="19" x="7.999999" opacity="0.4" height="1" id="rect4582" width="1" fill-rule="evenodd" fill="#fff"/><rect y="19.00003" x="5.04925" opacity="0.4" height="1" id="rect4584" width="1" fill-rule="evenodd" fill="#fff"/><rect y="10" x="4" opacity="0.1" height="3" id="rect3950" width="3" fill-rule="evenodd" fill="#000"/><rect y="9" x="4" height="3" id="rect3948" width="3" fill-rule="evenodd" fill="#fff"/><path stroke="#000" opacity="0.35" id="path3956" fill-rule="evenodd" d="M 4,8.5917969 A 0.40769341,0.40769341 0 0 0 3.5917969,9 l 0,3 A 0.40769341,0.40769341 0 0 0 4,12.408203 l 3,0 A 0.40769341,0.40769341 0 0 0 7.4082031,12 l 0,-3 A 0.40769341,0.40769341 0 0 0 7,8.5917969 l -3,0 z" fill="none"/><rect y="16" x="4" opacity="0.2" height="1" id="rect3976" width="1" fill-rule="evenodd" fill="#000"/><metadata id="metadata9999"><rdf:RDF><cc:Work><dc:format>image/svg+xml</dc:format><dc:type rdf:resource="http://purl.org/dc/dcmitype/StillImage"/><dc:title>Ivy icon theme</dc:title><cc:license rdf:resource="http://creativecommons.org/licenses/by-sa/4.0/"/><dc:creator><cc:Agent><dc:title>Sixsixfive (sixsixfive.deviantart.com)</dc:title></cc:Agent></dc:creator><dc:publisher><cc:Agent><dc:title>Sixsixfive (sixsixfive.deviantart.com)</dc:title></cc:Agent></dc:publisher><dc:source>https://github.com/sixsixfive</dc:source><dc:subject><rdf:Bag><rdf:li>ivy</rdf:li></rdf:Bag></dc:subject><dc:contributor><cc:Agent><dc:title>ssf</dc:title></cc:Agent></dc:contributor><dc:rights><cc:Agent><dc:title>Sixsixfive (sixisixfive.deviantart.com)</dc:title></cc:Agent></dc:rights><dc:description>A simple icon theme published under CC-BY-SA_V4(http://creativecommons.org/licenses/by-sa/4.0)</dc:description><dc:identifier>SSF</dc:identifier></cc:Work></rdf:RDF></metadata><!--Part of the Ivy icon them published under the CC-BY-SA_V4: http://creativecommons.org/licenses/by-sa/4.0 -->
</svg>