<?xml version="1.0" encoding="UTF-8" standalone="no"?>
<svg xmlns:dc="http://purl.org/dc/elements/1.1/" xmlns:cc="http://creativecommons.org/ns#" xmlns:rdf="http://www.w3.org/1999/02/22-rdf-syntax-ns#" xmlns:svg="http://www.w3.org/2000/svg" xmlns="http://www.w3.org/2000/svg" xmlns:xlink="http://www.w3.org/1999/xlink" viewBox="0 0 48 48" id="svg2" version="1.1">
 <defs id="defs4">
  <path opacity="0.3" fill="none" stroke="#000" id="0" d="m 14.4375 27.4375 v 5.125 h 3.125 v -5.125 h -3.125 z"/>
  <linearGradient id="1" y1="6.03" x1="10.969" y2="44" x2="11" gradientUnits="userSpaceOnUse">
   <stop stop-color="#6a6a6a" id="stop8"/>
   <stop offset="1" stop-color="#c8c8c8" id="stop10"/>
  </linearGradient>
  <linearGradient id="2" y1="12" y2="41" x2="0" gradientUnits="userSpaceOnUse">
   <stop stop-color="#5288d1" id="stop13"/>
   <stop offset="1" stop-color="#9dbce5" id="stop15"/>
  </linearGradient>
  <linearGradient id="3" y1="13" y2="41" x2="0" gradientUnits="userSpaceOnUse">
   <stop stop-color="#fff" id="stop18"/>
   <stop offset="1" stop-color="#fff" stop-opacity="0" id="stop20"/>
  </linearGradient>
 </defs>
 <path opacity="0.1" d="m 4 7 v 4 h 3 v 6 h -2 v 3 h 2 v 3.5 h -2 v 3 h 2 v 18.5 h 4 v -8 h 6 v 5 h 4 h 15 v -5 h 4 v 5 h 6 v -5 v -24 h -35 v -2 v -4 h -7 z" id="path22"/>
 <path fill="url(#2)" d="m 9 12 v 24 h 8 v 5 h 4 h 15 v -5 h 4 v 5 h 6 v -5 v -24 h -37 z" id="path24"/>
 <g id="g26" fill="#eed45a">
  <path d="m 40,36 6,0 0,5 -6,0 z" id="path28"/>
  <path d="m 17,36 7,0 0,5 -7,0 z" id="path30"/>
  <path d="m 24,36 12,0 0,5 -12,0 z" id="path32"/>
 </g>
 <g id="g34" fill="none">
  <path d="m 9.5,12.5 0,23 7.5,0 a 0.502851,0.502851 0 0 1 0.5,0.5 l 0,4.5 3.5,0 14.5,0 0,-4.5 A 0.502851,0.502851 0 0 1 36,35.5 l 4,0 a 0.502851,0.502851 0 0 1 0.5,0.5 l 0,4.5 5,0 0,-4.5 0,-23.5 -36,0 z" id="path36" opacity="0.4" stroke="#000"/>
  <path d="m 10.5,13.5 0,21 6.5,0 0,1 0,0.5 0.5,0 1,0 0,3.5 2.5,0 13.5,0 0,-3.5 1,0 0.5,0 0,-0.5 0,-1 4,0 0,1 0,0.5 0.5,0 1,0 0,3.5 3,0 0,-3.5 0,-22.5 -34,0 z" id="path38" opacity="0.4" stroke="url(#3)"/>
 </g>
 <path opacity="0.2" d="M 25,36 H26 V41 H25 z" id="path40"/>
 <path opacity="0.2" d="M 27,36 H28 V41 H27 z" id="path42"/>
 <path opacity="0.2" d="M 29,36 H30 V41 H29 z" id="path44"/>
 <path opacity="0.2" d="M 19,36 H20 V41 H19 z" id="path46"/>
 <path opacity="0.2" d="M 21,36 H22 V41 H21 z" id="path48"/>
 <path opacity="0.2" d="M 23,36 H24 V41 H23 z" id="path50"/>
 <path opacity="0.2" d="M 31,36 H32 V41 H31 z" id="path52"/>
 <path opacity="0.2" d="M 43,36 H44 V41 H43 z" id="path54"/>
 <path fill="#6a6a6a" d="M 18.969,15.969 H25.969 V22.969 H18.969 z" id="path56"/>
 <path opacity="0.3" fill="none" stroke="#000" d="m 19.4999 16.4999 v 5.9375 h 5.9375 v -5.9375 h -5.9375 z" id="path58"/>
 <path fill="#6a6a6a" d="M 35,16 H42 V23 H35 z" id="path60"/>
 <path opacity="0.3" fill="none" stroke="#000" d="m 35.5312 16.5312 v 5.9375 h 5.9375 v -5.9375 h -5.9375 z" id="path62"/>
 <path fill="#6a6a6a" fill-rule="evenodd" d="M 13.938,26.06 H17.938 V32.06 H13.938 z" id="path64"/>
 <path opacity="0.2" d="M 33,36 H34 V41 H33 z" id="path66"/>
 <use xlink:href="#0" transform="matrix(1 0 0 1 -0.063 -0.938)" id="use68"/>
 <path fill="#6a6a6a" fill-rule="evenodd" d="M 21.938,26.06 H25.938 V32.06 H21.938 z" id="path70"/>
 <use xlink:href="#0" transform="matrix(1 0 0 1 7.938 -0.938)" id="use72"/>
 <path fill="#6a6a6a" fill-rule="evenodd" d="M 37.938,26.06 H41.938 V32.06 H37.938 z" id="path74"/>
 <use xlink:href="#0" transform="matrix(1 0 0 1 23.938 -0.938)" id="use76"/>
 <path fill="#6a6a6a" fill-rule="evenodd" d="M 29.938,26.06 H33.938 V32.06 H29.938 z" id="path78"/>
 <use xlink:href="#0" transform="matrix(1 0 0 1 15.938 -0.938)" id="use80"/>
 <g id="g82" fill="#6a6a6a">
  <path d="m 5,22.5 5,0 0,3 -5,0 z" id="path84"/>
  <path d="m 5,16 5,0 0,3 -5,0 z" id="path86"/>
 </g>
 <path fill="url(#1)" d="m 4 6 v 4 h 3 v 34 h 4 v -34 v -4 h -7 z" id="path88"/>
 <path opacity="0.4" fill="none" stroke="#000" d="m 3.5312,6.5312 0,2.9375 2.4688,0 a 0.530877,0.530877 0 0 1 0.53125,0.53125 v 33.4688 h 2.9375 V 9.99995 6.5312 h -5.9375 z" transform="matrix(1 0 0 1 1 0)" id="path90"/>
 <path opacity="0.3" fill="#fff" d="M 5,7 H10 V8 H5 z" id="path92"/>
 <metadata id="metadata9999">
  <rdf:RDF>
   <cc:Work>
    <dc:format>image/svg+xml</dc:format>
    <dc:type rdf:resource="http://purl.org/dc/dcmitype/StillImage"/>
    <dc:title>Ivy icon theme</dc:title>
    <cc:license rdf:resource="http://creativecommons.org/licenses/by-sa/4.0/"/>
    <dc:creator>
     <cc:Agent>
      <dc:title>Sixsixfive (sixsixfive.deviantart.com)</dc:title>
     </cc:Agent>
    </dc:creator>
    <dc:publisher>
     <cc:Agent>
      <dc:title>Sixsixfive (sixsixfive.deviantart.com)</dc:title>
     </cc:Agent>
    </dc:publisher>
    <dc:source>https://github.com/sixsixfive</dc:source>
    <dc:subject>
     <rdf:Bag>
      <rdf:li>ivy</rdf:li>
     </rdf:Bag>
    </dc:subject>
    <dc:contributor>
     <cc:Agent>
      <dc:title>ssf</dc:title>
     </cc:Agent>
    </dc:contributor>
    <dc:rights>
     <cc:Agent>
      <dc:title>Sixsixfive (sixisixfive.deviantart.com)</dc:title>
     </cc:Agent>
    </dc:rights>
    <dc:description>A simple icon theme published under CC-BY-SA_V4(http://creativecommons.org/licenses/by-sa/4.0)</dc:description>
    <dc:identifier>SSF</dc:identifier>
   </cc:Work>
  </rdf:RDF>
 </metadata>
 <!--Part of the Ivy icon them published under the CC-BY-SA_V4: http://creativecommons.org/licenses/by-sa/4.0 -->
</svg>
