<?xml version="1.0" encoding="UTF-8" standalone="no"?><svg xmlns:cc="http://creativecommons.org/ns#" xmlns:svg="http://www.w3.org/2000/svg" xmlns:dc="http://purl.org/dc/elements/1.1/" xmlns="http://www.w3.org/2000/svg" xmlns:rdf="http://www.w3.org/1999/02/22-rdf-syntax-ns#" id="svg2" version="1.1" xmlns:xlink="http://www.w3.org/1999/xlink" viewBox="0 0 22 22"><defs id="defs4"><linearGradient id="linearGradient4198"><stop id="stop4200"/><stop stop-opacity="0.882" id="stop4202" offset="1"/></linearGradient><linearGradient id="linearGradient4236"><stop id="stop4238"/><stop stop-opacity="0" id="stop4240" offset="1"/></linearGradient><linearGradient id="linearGradient4226"><stop id="stop4228" stop-color="#6a6a6a"/><stop id="stop4230" stop-color="#333" offset="1"/></linearGradient><linearGradient gradientTransform="matrix(0.47692438 0 0 0.47692438 -0.43077313 -0.86154566)" gradientUnits="userSpaceOnUse" xlink:href="#linearGradient4226" y1="42" id="linearGradient4234" y2="6" x2="0"/><linearGradient gradientTransform="matrix(0.50000001 0 0 0.40384483 -0.99999994 1.8654315)" gradientUnits="userSpaceOnUse" xlink:href="#linearGradient4236" y1="39" id="linearGradient4242" y2="35" x2="0"/><radialGradient cy="42.717999" gradientTransform="matrix(0.58131501 -0.62009812 0.49232074 0.43780424 -25.052616 12.780529)" cx="25.841" gradientUnits="userSpaceOnUse" r="17" xlink:href="#linearGradient4198" id="radialGradient4204"/></defs><rect ry="0.66666669" width="21.938522" rx="0.47692439" height="4" stroke-width="1.5" opacity="0.1" stroke-linejoin="round" id="rect4186" y="18" x="0" fill="#000" stroke-linecap="round"/><rect ry="1" width="20.030825" rx="1" height="17.169277" id="rect18" y="2" x="1" fill="url(#linearGradient4234)"/><rect stroke="none" width="18" height="1" opacity="0.15" stroke-width="1" stroke-dashoffset="0" stroke-dasharray="none" id="rect4176" stroke-linejoin="miter" fill-rule="evenodd" y="3" x="2" fill="#fff" stroke-miterlimit="5" stroke-linecap="round" stroke-opacity="1" fill-opacity="1"/><path d="M 3,4 3,15 19,15 19,4 3,4 Z" id="path20" fill="url(#radialGradient4204)"/><path opacity="0.2" d="m 3,15 16,0 0,1 -16,0 z" id="path32" fill="#fff"/><path stroke="#000" d="m 3.5,4.5 0,10 15,0 0,-10 -15,0 z" id="path4170" fill="none"/><rect width="20" height="1.6153793" opacity="0.6" stroke-linejoin="round" id="rect4214" y="16" x="1" fill="url(#linearGradient4242)" stroke-linecap="round"/><path stroke="#000" opacity="0.6" d="M 2,2.5 C 1.7146767,2.5 1.5,2.7146767 1.5,3 l 0,15.169922 c 0,0.285323 0.2146767,0.5 0.5,0.5 l 18.03125,0 c 0.285323,0 0.5,-0.214677 0.5,-0.5 L 20.53125,3 c 0,-0.2853233 -0.214677,-0.5 -0.5,-0.5 L 2,2.5 Z" id="path4174" fill="none"/><rect ry="0.66666669" width="21.938522" rx="0.47692439" height="4" stroke-width="1.5" stroke-linejoin="round" id="rect4170" y="17" x="0" fill="#777" stroke-linecap="round"/><ellipse cy="20" cx="3.5" ry="1" rx="0.49999997" opacity="0.2" stroke-linejoin="round" id="ellipse4178" fill="#fff" stroke-linecap="round"/><rect ry="1" width="4" rx="0.44444448" height="2" opacity="0.2" stroke-linejoin="round" id="rect4212" y="19" x="16" fill="#fff" stroke-linecap="round"/><ellipse cy="19.5" cx="3.5" ry="0.5" rx="0.49999997" stroke-linejoin="round" id="path4202" stroke-linecap="round"/><ellipse cy="20" cx="5.5" ry="0.99999946" rx="0.5" opacity="0.2" stroke-linejoin="round" id="ellipse4180" fill="#fff" stroke-linecap="round"/><ellipse cy="19.5" cx="5.5" ry="0.49999973" rx="0.5" stroke-linejoin="round" id="circle4204" stroke-linecap="round"/><rect ry="0.49999976" width="4" rx="0.44444448" height="0.99999952" stroke-linejoin="round" id="rect4210" y="19" x="16" stroke-linecap="round"/><rect ry="0.5" width="20" rx="0.45454547" height="1" opacity="0.2" stroke-linejoin="round" id="rect4220" y="18" x="1" fill="#fff" stroke-linecap="round"/><path stroke="#000" stroke-width="1" opacity="0.6" d="m 0.54492188,17.503906 c -0.0159741,0.0274 -0.0410156,0.08243 -0.0410156,0.16211 l 0,2.667968 c 0,0.07968 0.0250415,0.134714 0.0410156,0.16211 l 20.84960912,0 c 0.01617,-0.02705 0.04102,-0.08242 0.04102,-0.16211 l 0,-2.667968 c 0,-0.07969 -0.02485,-0.135059 -0.04102,-0.16211 l -20.84960912,0 z" stroke-dasharray="none" stroke-linejoin="round" id="path4184" stroke-miterlimit="4" fill="none" stroke-linecap="round"/><metadata id="metadata9999"><rdf:RDF><cc:Work><dc:format>image/svg+xml</dc:format><dc:type rdf:resource="http://purl.org/dc/dcmitype/StillImage"/><dc:title/><cc:license rdf:resource="http://creativecommons.org/licenses/by-sa/4.0/"/><dc:creator><cc:Agent><dc:title>Sixsixfive (sixsixfive.deviantart.com)</dc:title></cc:Agent></dc:creator><dc:publisher><cc:Agent><dc:title>Sixsixfive (sixsixfive.deviantart.com)</dc:title></cc:Agent></dc:publisher><dc:source>https://github.com/sixsixfive</dc:source><dc:subject><rdf:Bag><rdf:li>ivy</rdf:li></rdf:Bag></dc:subject><dc:contributor><cc:Agent><dc:title>ssf</dc:title></cc:Agent></dc:contributor><dc:rights><cc:Agent><dc:title>Sixsixfive (sixisixfive.deviantart.com)</dc:title></cc:Agent></dc:rights><dc:description>A simple icon theme published under CC-BY-SA_V4(http://creativecommons.org/licenses/by-sa/4.0)</dc:description><dc:identifier>SSF</dc:identifier></cc:Work></rdf:RDF></metadata><!--Part of the Ivy icon them published under the CC-BY-SA_V4: http://creativecommons.org/licenses/by-sa/4.0 -->
</svg>