<?xml version="1.0" encoding="UTF-8" standalone="no"?>
<svg xmlns:dc="http://purl.org/dc/elements/1.1/" xmlns:cc="http://creativecommons.org/ns#" xmlns:rdf="http://www.w3.org/1999/02/22-rdf-syntax-ns#" xmlns:svg="http://www.w3.org/2000/svg" xmlns="http://www.w3.org/2000/svg" xmlns:xlink="http://www.w3.org/1999/xlink" viewBox="0 0 48 48" id="svg2" version="1.1">
 <defs id="defs4">
  <path id="0" d="m 27 39.5 a 3.5 2.5 0 1 1 -7 0 3.5 2.5 0 1 1 7 0 z"/>
  <linearGradient id="1" y1="43" y2="2" x2="0" gradientUnits="userSpaceOnUse">
   <stop stop-color="#ebebeb" id="stop8"/>
   <stop offset="1" stop-color="#c9c9c9" id="stop10"/>
  </linearGradient>
  <linearGradient id="2" y1="3" y2="43" x2="0" gradientUnits="userSpaceOnUse">
   <stop stop-color="#fff" id="stop13"/>
   <stop offset="1" stop-color="#fff" stop-opacity="0" id="stop15"/>
  </linearGradient>
  <radialGradient cx="24.5" cy="42.5" r="15.5" id="3" gradientUnits="userSpaceOnUse" gradientTransform="matrix(1.16129 0 0 0.06452 -4.452 40.26)">
   <stop stop-color="#171717" id="stop18"/>
   <stop offset="1" stop-color="#171717" stop-opacity="0" id="stop20"/>
  </radialGradient>
 </defs>
 <path opacity="0.3" fill="url(#3)" d="M 6,42 H42 V44 H6 z" id="path22"/>
 <rect width="34" x="7" y="2" fill="url(#1)" rx="6.308" height="41" ry="6.308" id="rect24"/>
 <path fill="#171717" d="M 12,8 H36 V32 H12 z" id="path26"/>
 <use opacity="0.5" fill="#fff" xlink:href="#0" transform="matrix(0.85714 0 0 1 3.857 -3)" id="use28"/>
 <use opacity="0.7" xlink:href="#0" transform="matrix(0.85714 0 0 1 3.857 -1)" id="use30"/>
 <g id="g32" fill="#6a6a6a">
  <use xlink:href="#0" transform="matrix(0.85714,0,0,1,3.857,-2)" id="use34" x="0" y="0" width="48" height="48"/>
  <path d="m 20,3 8,0 0,4 -8,0 z" id="path36"/>
 </g>
 <use opacity="0.7" xlink:href="#0" transform="matrix(0.57143 0 0 0.8 17.571 6.4)" id="use38"/>
 <use opacity="0.5" fill="#fff" xlink:href="#0" transform="matrix(0.57143 0 0 0.8 17.571 4.4)" id="use40"/>
 <use opacity="0.7" xlink:href="#0" transform="matrix(0.57143 0 0 0.8 3.571 6.4)" id="use42"/>
 <path opacity="0.4" fill="none" stroke="#000" d="m 13.3125 2.5625 c -3.19034 0 -5.75 2.55966 -5.75 5.75 v 28.375 c 0 3.19034 2.55966 5.75 5.75 5.75 h 21.375 c 3.19034 0 5.75 -2.55966 5.75 -5.75 V 8.3125 c 0 -3.19034 -2.55966 -5.75 -5.75 -5.75 h -21.375 z" id="path44"/>
 <use opacity="0.5" fill="#fff" xlink:href="#0" transform="matrix(0.57143 0 0 0.8 3.571 4.4)" id="use46"/>
 <g id="g48" fill="#6a6a6a">
  <use xlink:href="#0" transform="matrix(0.57143,0,0,0.8,17.571,5.4)" id="use50" x="0" y="0" width="48" height="48"/>
  <use xlink:href="#0" transform="matrix(0.57143,0,0,0.8,3.571,5.4)" id="use52" x="0" y="0" width="48" height="48"/>
 </g>
 <path opacity="0.8" fill="none" stroke="url(#2)" d="M 13.3125 3.5 C 10.62645 3.5 8.5 5.62645 8.5 8.3125 v 28.375 c 0 2.68605 2.12645 4.8125 4.8125 4.8125 h 21.375 C 37.37355 41.5 39.5 39.37355 39.5 36.6875 V 8.3125 C 39.5 5.62645 37.37355 3.5 34.6875 3.5 h -21.375 z" id="path54"/>
 <path opacity="0.6" fill="#fff" d="M 20,7 H28 V8 H20 z" id="path56"/>
 <path opacity="0.2" fill="none" stroke="#000" d="m 20.4688 3.4688 v 3.0625 h 7.0625 v -3.0625 h -7.0625 z" id="path58"/>
 <path opacity="0.5" fill="#fff" d="M 12,32 H36 V33 H12 z" id="path60"/>
 <path opacity="0.397" fill="none" stroke="#000" d="m 12.5625 8.5625 v 22.875 h 22.875 v -22.875 h -22.875 z" id="path62"/>
 <metadata id="metadata9999">
  <rdf:RDF>
   <cc:Work>
    <dc:format>image/svg+xml</dc:format>
    <dc:type rdf:resource="http://purl.org/dc/dcmitype/StillImage"/>
    <dc:title>Ivy icon theme</dc:title>
    <cc:license rdf:resource="http://creativecommons.org/licenses/by-sa/4.0/"/>
    <dc:creator>
     <cc:Agent>
      <dc:title>Sixsixfive (sixsixfive.deviantart.com)</dc:title>
     </cc:Agent>
    </dc:creator>
    <dc:publisher>
     <cc:Agent>
      <dc:title>Sixsixfive (sixsixfive.deviantart.com)</dc:title>
     </cc:Agent>
    </dc:publisher>
    <dc:source>https://github.com/sixsixfive</dc:source>
    <dc:subject>
     <rdf:Bag>
      <rdf:li>ivy</rdf:li>
     </rdf:Bag>
    </dc:subject>
    <dc:contributor>
     <cc:Agent>
      <dc:title>ssf</dc:title>
     </cc:Agent>
    </dc:contributor>
    <dc:rights>
     <cc:Agent>
      <dc:title>Sixsixfive (sixisixfive.deviantart.com)</dc:title>
     </cc:Agent>
    </dc:rights>
    <dc:description>A simple icon theme published under CC-BY-SA_V4(http://creativecommons.org/licenses/by-sa/4.0)</dc:description>
    <dc:identifier>SSF</dc:identifier>
   </cc:Work>
  </rdf:RDF>
 </metadata>
 <!--Part of the Ivy icon them published under the CC-BY-SA_V4: http://creativecommons.org/licenses/by-sa/4.0 -->
</svg>
