<?xml version="1.0" encoding="UTF-8" standalone="no"?><svg viewBox="0 0 22 22" xmlns:svg="http://www.w3.org/2000/svg" xmlns="http://www.w3.org/2000/svg" xmlns:rdf="http://www.w3.org/1999/02/22-rdf-syntax-ns#" xmlns:xlink="http://www.w3.org/1999/xlink" version="1.1" id="svg2" xmlns:dc="http://purl.org/dc/elements/1.1/" xmlns:cc="http://creativecommons.org/ns#"><defs id="0"><linearGradient id="F"><stop id="L" stop-color="#ffd506"/><stop offset="1" id="M" stop-color="#eed45a"/></linearGradient><linearGradient xlink:href="#F" y1="17" x2="0" y2="8" gradientTransform="matrix(0.66666666 0 0 0.5 -4.333333 -1.499998)" id="H" gradientUnits="userSpaceOnUse"/><linearGradient xlink:href="#F" y1="17" x2="0" y2="8" gradientTransform="matrix(3.4999997 0 0 0.5 -131.49999 -1.999998)" id="I" gradientUnits="userSpaceOnUse"/></defs><path opacity="0.1" id="1" fill-rule="evenodd" d="M 5.1666667,3 C 5.0599117,3.017416 4.959564,3.0646 4.8833333,3.1332245 L 3.1499998,4.8277697 C 3.052024,4.9176646 2.9967374,5.043151 3.0000002,5.1682302 l -2.4e-6,15.3580858 C 3.0000258,20.77433 3.2540862,20.999975 3.5333313,21 L 18.466667,21 C 18.745912,20.999975 18.999972,20.774329 19,20.526316 L 19,3.4736849 C 18.999972,3.2256711 18.745912,3.000025 18.466667,3 L 5.2666667,3 c -0.016655,-6.941e-4 -0.033346,-6.941e-4 -0.05,0 -0.016655,-6.941e-4 -0.033346,-6.941e-4 -0.05,0 z"/><path id="2" fill-rule="evenodd" d="M 5.1666667,2 C 5.0599117,2.017416 4.959564,2.0646 4.8833333,2.1332245 L 3.1499998,3.8277697 C 3.052024,3.9176646 2.9967374,4.043151 3.0000002,4.1682302 l -2.4e-6,15.3580858 C 3.0000258,19.77433 3.2540862,19.999975 3.5333313,20 L 18.466667,20 C 18.745912,19.999975 18.999972,19.774329 19,19.526316 L 19,2.4736849 C 18.999972,2.2256711 18.745912,2.000025 18.466667,2 L 5.2666667,2 c -0.016655,-6.941e-4 -0.033346,-6.941e-4 -0.05,0 -0.016655,-6.941e-4 -0.033346,-6.941e-4 -0.05,0 z" fill="#5a5a5a"/><g opacity="0.2" id="3"><path id="J" fill-rule="evenodd" d="M 5,3 19,3 19,6 5,6 Z"/><path id="K" fill-rule="evenodd" d="M 3,5 5,5 5,8 3,8 Z"/></g><rect y="2" x="5" height="3" id="4" width="14" fill-rule="evenodd" fill="url(#I)"/><rect y="4" x="3" height="3" id="5" width="2" fill-rule="evenodd" fill="url(#H)"/><rect y="4" x="4" opacity="0.2" height="3" id="6" width="1" fill-rule="evenodd"/><rect y="2" x="6" opacity="0.31" height="3" id="7" width="1" fill-rule="evenodd"/><rect y="2" x="8" opacity="0.31" height="3" id="8" width="1" fill-rule="evenodd"/><rect y="2" x="10" opacity="0.31" height="3" id="9" width="1" fill-rule="evenodd"/><rect y="2" x="12" opacity="0.31" height="3" id="A" width="1" fill-rule="evenodd"/><rect y="2" x="14" opacity="0.31" height="3" id="B" width="1" fill-rule="evenodd"/><rect y="2" x="16" opacity="0.31" height="3" id="C" width="1" fill-rule="evenodd"/><rect y="3" x="5" opacity="0.4" height="1" id="D" width="13" fill="#fff"/><path stroke-linejoin="round" stroke="#000" opacity="0.4" stroke-linecap="round" id="E" d="m 18.5,2.46875 c 10e-6,0.092647 -0.01702,0.031251 -0.03125,0.03125 l -13.1875,0 A 0.5030536,0.5030536 0 0 1 5.25,2.5 0.5030536,0.5030536 0 0 1 5.21875,2.5 0.5030536,0.5030536 0 0 1 5.1875,2.5 L 3.5,4.15625 a 0.5030536,0.5030536 0 0 1 0,0.03125 l 0,15.34375 c -1.05e-5,-0.09265 0.017022,-0.03125 0.03125,-0.03125 l 14.9375,0 c 0.01423,-1e-6 0.03126,-0.0614 0.03125,0.03125 l 0,-17.0625 z" fill="none"/><metadata id="metadata9999"><rdf:RDF><cc:Work><dc:format>image/svg+xml</dc:format><dc:type rdf:resource="http://purl.org/dc/dcmitype/StillImage"/><dc:title>Ivy icon theme</dc:title><cc:license rdf:resource="http://creativecommons.org/licenses/by-sa/4.0/"/><dc:creator><cc:Agent><dc:title>Sixsixfive (sixsixfive.deviantart.com)</dc:title></cc:Agent></dc:creator><dc:publisher><cc:Agent><dc:title>Sixsixfive (sixsixfive.deviantart.com)</dc:title></cc:Agent></dc:publisher><dc:source>https://github.com/sixsixfive</dc:source><dc:subject><rdf:Bag><rdf:li>ivy</rdf:li></rdf:Bag></dc:subject><dc:contributor><cc:Agent><dc:title>ssf</dc:title></cc:Agent></dc:contributor><dc:rights><cc:Agent><dc:title>Sixsixfive (sixisixfive.deviantart.com)</dc:title></cc:Agent></dc:rights><dc:description>A simple icon theme published under CC-BY-SA_V4(http://creativecommons.org/licenses/by-sa/4.0)</dc:description><dc:identifier>SSF</dc:identifier></cc:Work></rdf:RDF></metadata><!--Part of the Ivy icon them published under the CC-BY-SA_V4: http://creativecommons.org/licenses/by-sa/4.0 -->
</svg>