<?xml version="1.0" encoding="UTF-8" standalone="no"?>
<svg xmlns:dc="http://purl.org/dc/elements/1.1/" xmlns:cc="http://creativecommons.org/ns#" xmlns:rdf="http://www.w3.org/1999/02/22-rdf-syntax-ns#" xmlns:svg="http://www.w3.org/2000/svg" xmlns="http://www.w3.org/2000/svg" version="1.1" id="svg2" viewBox="0 0 22 22">
 <defs id="defs4">
  <linearGradient gradientTransform="matrix(1,0,0,0.7600631,-0.27344211,-785.79809)" gradientUnits="userSpaceOnUse" x2="0" y2="1018.36" y1="1011.36" id="0">
   <stop id="stop7" stop-color="#eed45a"/>
   <stop id="stop9" stop-opacity="0" stop-color="#eed45a" offset="1"/>
  </linearGradient>
  <linearGradient gradientTransform="matrix(0.93944853,0,0,0.76012984,2.4531769,-785.87347)" gradientUnits="userSpaceOnUse" x2="0" y2="1016.36" y1="1011.36" id="1">
   <stop id="stop12"/>
   <stop id="stop14" stop-opacity="0" offset="1"/>
  </linearGradient>
  <linearGradient gradientUnits="userSpaceOnUse" x2="8" y2="38" x1="37" y1="17" id="2" gradientTransform="matrix(0.9394486,0,0,0.94186717,1.5137262,-23.616554)">
   <stop id="stop17" stop-color="#c5c5c5"/>
   <stop id="stop19" stop-color="#9d9d9d" offset="1"/>
  </linearGradient>
  <linearGradient gradientTransform="matrix(1,0,0,0.71149285,0,-736.43554)" gradientUnits="userSpaceOnUse" x2="0" y2="1016.36" y1="1008.36" id="3">
   <stop id="stop22" stop-color="#6a6a6a"/>
   <stop id="stop24" stop-color="#494949" offset="1"/>
  </linearGradient>
  <linearGradient gradientUnits="userSpaceOnUse" x2="0" y2="1049.36" y1="1016.36" id="5" gradientTransform="matrix(1,0,0,0.92302449,0,-949.58498)">
   <stop id="stop36" stop-color="#b6b6b6"/>
   <stop id="stop38" stop-color="#cfcfcf" offset="1"/>
  </linearGradient>
 </defs>
 <g id="g4216" transform="matrix(0.5322271,0,0,0.52621931,-2.3056461,11.001799)">
  <path d="m 12,-11.405444 26,0 c 1.108,0 2,0.823338 2,1.846049 l 0,28.613759 c 0,1.022711 -0.892,1.846049 -2,1.846049 l -26,0 c -1.108,0 -2,-0.823338 -2,-1.846049 l 0,-28.613759 c 0,-1.022711 0.892,-1.846049 2,-1.846049 z" id="path4270" opacity="0.1" fill="#000"/>
  <path id="rect44" d="m 12,-13.305857 26,0 c 1.108,0 2,0.823338 2,1.846049 l 0,28.613759 C 40,18.176662 39.108,19 38,19 l -26,0 c -1.108,0 -2,-0.823338 -2,-1.846049 l 0,-28.613759 c 0,-1.022711 0.892,-1.846049 2,-1.846049 z" fill="url(#5)"/>
  <path d="m 18.322227,-9.5051235 c -0.387742,1.100562 -1.410192,1.9003056 -2.624548,1.9003056 l 0,8.58111506 c 0.151869,-0.0256541 0.305531,-0.0294547 0.466587,-0.0294547 1.28844,0 2.332931,0.85076684 2.332931,1.90030554 0,1.0495388 -1.044491,1.9003057 -2.332931,1.9003057 -0.161056,0 -0.314718,0 -0.466587,-0.029455 l 0,1.454874 0,0.4750764 0.02916,0 c 0.315535,3.7175679 4.354659,6.6510699 9.302563,6.6510699 4.947905,0 8.98703,-2.933502 9.302563,-6.6510699 l 0.02916,0 0,-0.4750764 0,-1.454874 c -0.151868,0.025654 -0.305531,0.029455 -0.466586,0.029455 -1.288441,0 -2.332931,-0.8507669 -2.332931,-1.9003057 0,-1.0495387 1.04449,-1.90030554 2.332931,-1.90030554 0.161055,0 0.314718,0 0.466586,0.0294547 l 0,-8.75926876 C 33.575509,-8.0699177 32.951559,-8.7051899 32.66975,-9.5051235 l -14.347527,0 z" id="path48" opacity="0.5" fill="#fff"/>
  <path id="rect53" d="m 18,-5 14,0 c 0.554,0 1,0.446 1,1 l 0,4 c 0,0.554 -0.446,1 -1,1 L 18,1 C 17.446,1 17,0.554 17,0 l 0,-4 c 0,-0.554 0.446,-1 1,-1 z" opacity="0.38" fill="#6a6a6a"/>
  <path id="path55" d="m 12.209634,-18.9978 25.580614,0 c 0.253258,0 0.421746,0.146852 0.457144,0.325351 l 1.752652,5.041354 c 0.05967,0.171642 -0.203886,0.325238 -0.457144,0.325238 l -29.0857,0 c -0.253258,0 -0.5168095,-0.153594 -0.457144,-0.325238 l 1.752434,-5.041354 c 0.0354,-0.178499 0.203886,-0.325351 0.457144,-0.325351 z" fill="url(#3)"/>
  <path id="path57" d="m 13.726558,-17.106173 12,0 0,3.800316 -12,0 z" opacity="0.68" fill="url(#0)"/>
  <path id="path61" d="m 15.726558,-17.108263 3,0 0,3.800315 -3,0 z" opacity="0.548"/>
  <path id="path63" d="m 32.51553,-17.106554 3.757794,0 0,3.800697 -3.757794,0 z" fill="url(#1)"/>
  <path id="path65" d="m 20.726558,-17.108263 3,0 0,3.800315 -3,0 z" opacity="0.548"/>
  <path id="path67" d="M 18.247654,-5.7044638 C 17.857304,-4.6039 16.827979,-3.804155 15.605455,-3.804155 l 0,8.5811293 c 0.152889,-0.025654 0.307585,-0.029455 0.469725,-0.029455 1.297106,0 2.348621,0.8507682 2.348621,1.9003087 0,1.0495406 -1.051515,1.9003088 -2.348621,1.9003088 -0.16214,0 -0.316836,0 -0.469725,-0.029455 l 0,1.4548764 0,0.4750768 0.02935,0 c 0.317657,3.717574 4.383946,6.651081 9.365128,6.651081 4.981182,0 9.047472,-2.933507 9.365128,-6.651081 l 0.02935,0 0,-0.4750768 0,-1.4548764 c -0.152889,0.025654 -0.307586,0.029455 -0.469725,0.029455 -1.297106,0 -2.348621,-0.8507682 -2.348621,-1.9003088 0,-1.0495405 1.051515,-1.9003087 2.348621,-1.9003087 0.162139,0 0.316836,0 0.469725,0.029455 l 0,-8.7592833 C 33.603512,-4.2692556 32.975364,-4.9045288 32.69166,-5.7044638 l -14.444022,0 z" opacity="0.281"/>
  <path id="path73" d="m 11.847661,-11.405444 26.30456,0 0,1.9002835 -26.30456,0 z" opacity="0.2" fill="#fff"/>
  <path id="path75" d="m 18.247654,-7.6048121 c -0.39035,1.0910024 -1.419675,1.8837343 -2.642199,1.8837343 l 0,7.7467451 c 0.152885,-0.025091 0.307585,-0.029433 0.469725,-0.029433 1.297106,0 2.348621,1.6028698 2.348621,2.6432271 0,1.0403582 -1.051515,2.8345047 -2.348621,2.8345047 -0.16214,0 -0.316836,-0.00433 -0.469725,-0.029433 l 0,0.4914637 0,0.4709336 0.02935,0 C 15.952462,12.09207 20.018751,15 24.999934,15 c 4.981181,0 9.047471,-2.90793 9.365127,-6.5930702 l 0.02936,0 0,-0.4709336 0,-0.4914637 c -0.152883,0.025093 -0.30758,0.029433 -0.469719,0.029433 -1.297106,0 -2.348621,-1.7941465 -2.348621,-2.8345047 0,-1.0403582 1.051515,-2.6432271 2.348621,-2.6432271 0.162139,0 0.316836,0.00433 0.469725,0.029433 l 0,-7.9233452 c -0.790903,-0.284431 -1.419047,-0.914203 -1.702751,-1.7071336 z" fill="url(#2)"/>
  <path id="rect83" d="m 18.423801,-5.7044638 13.15228,0 c 0.520454,0 0.939449,0.5650369 0.939449,1.2668989 l 0,5.06759562 c 0,0.70186198 -0.418995,1.26689888 -0.939449,1.26689888 l -13.15228,0 c -0.520455,0 -0.939449,-0.5650369 -0.939449,-1.26689888 l 0,-5.06759562 c 0,-0.701862 0.418994,-1.2668989 0.939449,-1.2668989 z" opacity="0.936" fill="#fff"/>
  <path id="rect85" d="m 19.613249,-3.8041154 10.5,0 c 0.1385,0 0.25,0.2118888 0.25,0.4750871 l 0,0.9501741 c 0,0.2631983 -0.1115,0.4750871 -0.25,0.4750871 l -10.5,0 c -0.1385,0 -0.25,-0.2118888 -0.25,-0.4750871 l 0,-0.9501741 c 0,-0.2631983 0.1115,-0.4750871 0.25,-0.4750871 z" opacity="0.38"/>
  <path d="m 34.394427,-7.654638 a 1,1 0 0 1 -2,0 1,1 0 1 1 2,0 z" id="path91" opacity="0.751" fill="#fff"/>
  <path d="m 17.363249,-7.7542896 a 1,1 0 0 1 -2,0 1,1 0 1 1 2,0 z" id="path93" opacity="0.751" fill="#fff"/>
  <path d="m 17.484352,-8.6048121 a 1,1 0 0 1 -2,0 1,1 0 1 1 2,0 z" id="path97" opacity="0.751" fill="#494949"/>
  <path d="m 34.51553,-8.5051605 a 1,1 0 0 1 -2,0 1,1 0 1 1 2,0 z" id="path99" opacity="0.751" fill="#494949"/>
  <path id="path71" d="m 10,-13.305857 30,0 0,1.900348 -30,0 z" opacity="0.751"/>
  <path d="m 19.448653,-1.903767 3.586986,0 c 0.04731,0 0.08541,0.2118888 0.08541,0.4750871 l 0,0.95017407 c 0,0.2631983 -0.03809,0.4750871 -0.08541,0.4750871 l -3.586986,0 c -0.04731,0 -0.0854,-0.2118888 -0.0854,-0.4750871 l 0,-0.95017407 c 0,-0.2631983 0.03809,-0.4750871 0.0854,-0.4750871 z" id="path4256" opacity="0.38"/>
  <path id="path4276" d="m 12.541016,-18.048828 -1.589844,4.582031 c 0.0041,10.2069345 9.53e-4,20.415471 0.002,30.623047 0.201773,1.245053 1.636097,0.814811 2.527344,0.892578 8.249916,-0.01271 16.501414,0.02501 24.75,-0.01953 1.203379,-0.283078 0.72188,-1.654549 0.820312,-2.546875 8.33e-4,-9.6493982 -0.002,-19.3001663 0.002,-28.949219 l -1.59375,-4.582031 -24.917968,0 z" opacity="0.5" stroke-dasharray="none" fill="none" stroke="#000" stroke-linejoin="bevel" stroke-width="1.889592" stroke-miterlimit="0"/>
  <path d="m 13.726558,-17.106489 22.546766,0 0,1.900283 -22.546766,0 z" id="path4274" opacity="0.2" fill="#fff"/>
  <path id="path4278" d="m 34.394427,5.5481488 a 1,1 0 0 1 -2,0 1,1 0 1 1 2,0 z" opacity="0.751" fill="#fff"/>
  <path id="path4280" d="m 17.363249,5.4484972 a 1,1 0 0 1 -2,0 1,1 0 1 1 2,0 z" opacity="0.751" fill="#fff"/>
  <path id="path4282" d="m 17.484352,4.5979747 a 1,1 0 0 1 -2,0 1,1 0 1 1 2,0 z" opacity="0.751" fill="#494949"/>
  <path id="path4284" d="m 34.51553,4.6976263 a 1,1 0 0 1 -2,0 1,1 0 1 1 2,0 z" opacity="0.751" fill="#494949"/>
 </g>
 <metadata id="metadata9999">
  <rdf:RDF>
   <cc:Work>
    <dc:format>image/svg+xml</dc:format>
    <dc:type rdf:resource="http://purl.org/dc/dcmitype/StillImage"/>
    <dc:title/>
    <cc:license rdf:resource="http://creativecommons.org/licenses/by-sa/4.0/"/>
    <dc:creator>
     <cc:Agent>
      <dc:title>Sixsixfive (sixsixfive.deviantart.com)</dc:title>
     </cc:Agent>
    </dc:creator>
    <dc:publisher>
     <cc:Agent>
      <dc:title>Sixsixfive (sixsixfive.deviantart.com)</dc:title>
     </cc:Agent>
    </dc:publisher>
    <dc:source>https://github.com/sixsixfive</dc:source>
    <dc:subject>
     <rdf:Bag>
      <rdf:li>ivy</rdf:li>
     </rdf:Bag>
    </dc:subject>
    <dc:contributor>
     <cc:Agent>
      <dc:title>ssf</dc:title>
     </cc:Agent>
    </dc:contributor>
    <dc:rights>
     <cc:Agent>
      <dc:title>Sixsixfive (sixisixfive.deviantart.com)</dc:title>
     </cc:Agent>
    </dc:rights>
    <dc:description>A simple icon theme published under CC-BY-SA_V4(http://creativecommons.org/licenses/by-sa/4.0)</dc:description>
    <dc:identifier>SSF</dc:identifier>
   </cc:Work>
  </rdf:RDF>
 </metadata>
 <!--Part of the Ivy icon them published under the CC-BY-SA_V4: http://creativecommons.org/licenses/by-sa/4.0 -->
</svg>
