<?xml version="1.0" encoding="UTF-8" standalone="no"?><svg xmlns:svg="http://www.w3.org/2000/svg" viewBox="0 0 48 48" xmlns="http://www.w3.org/2000/svg" xmlns:rdf="http://www.w3.org/1999/02/22-rdf-syntax-ns#" xmlns:xlink="http://www.w3.org/1999/xlink" version="1.1" id="svg2" xmlns:dc="http://purl.org/dc/elements/1.1/" xmlns:cc="http://creativecommons.org/ns#"><defs id="defs4"><linearGradient id="linearGradient4241"><stop id="stop4243" stop-color="#ebebeb"/><stop offset="1" id="stop4245" stop-color="#ccc"/></linearGradient><linearGradient id="linearGradient4233"><stop id="stop4235" stop-color="#fff"/><stop stop-opacity="0" offset="1" id="stop4237" stop-color="#fff"/></linearGradient><radialGradient xlink:href="#linearGradient4233" id="radialGradient4178" gradientTransform="matrix(1 0 0 0.86363636 0 -0.2954545)" cy="11.921053" r="11" cx="21" gradientUnits="userSpaceOnUse"/><linearGradient xlink:href="#linearGradient4233" y1="4" x2="0" y2="21" id="linearGradient4199" gradientTransform="matrix(1 0 0 1 0 -2)" gradientUnits="userSpaceOnUse"/><pattern patternUnits="userSpaceOnUse" height="2" id="pattern6401" patternTransform="matrix(1 0 0 1 1 1011.3622)" width="8"><circle stroke-linejoin="round" stroke-linecap="round" id="path6357" cy="0.5" r="0.5" cx="0.5"/><circle stroke-linejoin="round" stroke-linecap="round" id="path6359" cy="0.5" r="0.5" cx="2.5"/><circle stroke-linejoin="round" stroke-linecap="round" id="path6361" cy="0.5" r="0.5" cx="4.5"/><circle stroke-linejoin="round" stroke-linecap="round" id="path6363" cy="0.5" r="0.5" cx="6.5"/><circle stroke-linejoin="round" stroke-linecap="round" id="path6365" cy="1.5" r="0.5" cx="1.5"/><circle stroke-linejoin="round" stroke-linecap="round" id="path6367" cy="1.5" r="0.5" cx="3.5"/><circle stroke-linejoin="round" stroke-linecap="round" id="path6369" cy="1.5" r="0.5" cx="5.5"/><circle stroke-linejoin="round" stroke-linecap="round" id="path6371" cy="1.5" r="0.5" cx="7.5"/></pattern><mask id="mask6415" maskUnits="userSpaceOnUse"><path stroke-linejoin="round" stroke-linecap="round" id="path6417" d="m 24,1007.3622 a 11,11 0 0 0 -11,11 11,11 0 0 0 3.470703,8 l 15.068359,0 a 11,11 0 0 0 3.460938,-8 11,11 0 0 0 -11,-11 z" fill="#fff"/></mask><linearGradient xlink:href="#linearGradient4233" y1="18" x2="0" y2="45" id="linearGradient4221" gradientUnits="userSpaceOnUse"/><linearGradient x1="17" xlink:href="#linearGradient4233" x2="31" id="linearGradient4239" gradientUnits="userSpaceOnUse"/><radialGradient xlink:href="#linearGradient4241" id="radialGradient4247" gradientTransform="matrix(1 0 0 0.125 0 10.062494)" cy="11.499993" r="12" cx="24" gradientUnits="userSpaceOnUse"/><radialGradient xlink:href="#linearGradient4241" id="radialGradient4255" gradientTransform="matrix(1 0 0 0.16666667 0 17.083327)" cy="20.499992" r="9" cx="24" gradientUnits="userSpaceOnUse"/></defs><rect y="17" x="17" ry="2.1" height="29" rx="2.1" id="rect3393" width="14" fill-rule="evenodd" fill="#6a6a6a"/><rect y="17" x="17" opacity="0.4" ry="2.1" height="29" rx="2.1" id="rect4223" width="14" fill-rule="evenodd" fill="url(#linearGradient4239)"/><path stroke="url(#linearGradient4221)" opacity="0.4" id="path4213" fill-rule="evenodd" d="m 19.099609,18.507812 c -0.366143,0 -0.591797,0.225654 -0.591797,0.591797 l 0,24.800782 c 0,0.366143 0.225654,0.591796 0.591797,0.591797 l 9.800782,0 c 0.366143,0 0.591797,-0.225654 0.591797,-0.591797 l 0,-24.800782 c 0,-0.366143 -0.225654,-0.591797 -0.591797,-0.591797 l -9.800782,0 z" fill="none"/><rect y="20" x="15" opacity="0.2" height="3" id="rect4205" width="18" fill-rule="evenodd"/><path stroke="#000" opacity="0.4" id="path4209" fill-rule="evenodd" d="m 19.099609,17.46875 c -0.911868,0 -1.630859,0.718991 -1.630859,1.630859 l 0,24.800782 c 0,0.911868 0.718991,1.630859 1.630859,1.630859 l 9.800782,0 c 0.911868,0 1.630859,-0.718991 1.630859,-1.630859 l 0,-24.800782 c 0,-0.911868 -0.718991,-1.630859 -1.630859,-1.630859 l -9.800782,0 z" fill="none"/><path stroke-linejoin="round" stroke-linecap="round" id="path3338" d="m 24,1 a 11,11 0 0 0 -11,11 11,11 0 0 0 3.470703,8 l 15.068359,0 A 11,11 0 0 0 35,12 11,11 0 0 0 24,1 Z" fill="#e3e3e3"/><rect y="1007.3622" x="13" opacity="0.4" height="20" id="rect6399" transform="matrix(1 0 0 1 0 -1006.3622)" width="22" mask="url(#mask6415)" fill-rule="evenodd" fill="url(#pattern6401)"/><path stroke-linejoin="round" opacity="0.449" stroke-linecap="round" id="path4170" d="m 24,1 a 11,11 0 0 0 -11,11 11,11 0 0 0 3.470703,8 l 15.068359,0 A 11,11 0 0 0 35,12 11,11 0 0 0 24,1 Z" fill="url(#radialGradient4178)"/><path opacity="0.39" id="rect4182" fill-rule="evenodd" d="m 18,20 12,0 0,1 -12,0 z"/><path stroke-linejoin="round" stroke="#000" opacity="0.3" stroke-linecap="round" id="path4186" d="m 24,1.53125 c -2.740715,0 -5.464365,1.1284278 -7.402344,3.0664062 C 14.659678,6.5356347 13.53125,9.259285 13.53125,12 c 0.0049,2.780679 1.187984,5.527448 3.177734,7.46875 l 14.591797,0 C 33.287145,17.525966 34.466184,14.779294 34.46875,12 34.46875,9.259285 33.340322,6.5356347 31.402344,4.5976562 29.464365,2.6596778 26.740715,1.53125 24,1.53125 Z" fill="none"/><rect y="11" x="13" opacity="0.1" height="3" id="rect4203" width="22" fill-rule="evenodd"/><path stroke-linejoin="round" stroke="url(#linearGradient4199)" opacity="0.4" stroke-linecap="round" id="path4191" d="m 24,2.5449219 c -2.462512,0 -4.944211,1.0281963 -6.685547,2.7695312 C 15.573119,7.055788 14.544922,9.537489 14.544922,12 c 0.0047,2.377099 1.031099,4.72373 2.673828,6.455078 l 13.570312,0 C 32.429118,16.722206 33.452884,14.376616 33.455078,12 c 0,-2.462511 -1.028197,-4.944212 -2.769531,-6.6855469 C 28.944211,3.5731182 26.462512,2.5449219 24,2.5449219 Z" fill="none"/><rect y="9.999993" x="12" height="3" id="rect3389" width="24" fill-rule="evenodd" fill="url(#radialGradient4247)"/><rect y="18.999992" x="15" height="3" id="rect3391" width="18" fill-rule="evenodd" fill="url(#radialGradient4255)"/><path stroke="#000" opacity="0.4" id="path3397" fill-rule="evenodd" d="m 12.5,10.5 0,2 23,0 0,-2 -23,0 z" fill="none"/><path stroke="#000" opacity="0.4" id="path3401" fill-rule="evenodd" d="m 15.533203,19.533203 0,1.933594 16.933594,0 0,-1.933594 -16.933594,0 z" fill="none"/><metadata id="metadata9999"><rdf:RDF><cc:Work><dc:format>image/svg+xml</dc:format><dc:type rdf:resource="http://purl.org/dc/dcmitype/StillImage"/><dc:title>Ivy icon theme</dc:title><cc:license rdf:resource="http://creativecommons.org/licenses/by-sa/4.0/"/><dc:creator><cc:Agent><dc:title>Sixsixfive (sixsixfive.deviantart.com)</dc:title></cc:Agent></dc:creator><dc:publisher><cc:Agent><dc:title>Sixsixfive (sixsixfive.deviantart.com)</dc:title></cc:Agent></dc:publisher><dc:source>https://github.com/sixsixfive</dc:source><dc:subject><rdf:Bag><rdf:li>ivy</rdf:li></rdf:Bag></dc:subject><dc:contributor><cc:Agent><dc:title>ssf</dc:title></cc:Agent></dc:contributor><dc:rights><cc:Agent><dc:title>Sixsixfive (sixisixfive.deviantart.com)</dc:title></cc:Agent></dc:rights><dc:description>A simple icon theme published under CC-BY-SA_V4(http://creativecommons.org/licenses/by-sa/4.0)</dc:description><dc:identifier>SSF</dc:identifier></cc:Work></rdf:RDF></metadata><!--Part of the Ivy icon them published under the CC-BY-SA_V4: http://creativecommons.org/licenses/by-sa/4.0 -->
</svg>