<?xml version="1.0" encoding="UTF-8" standalone="no"?><svg xmlns:cc="http://creativecommons.org/ns#" xmlns:rdf="http://www.w3.org/1999/02/22-rdf-syntax-ns#" xmlns:svg="http://www.w3.org/2000/svg" id="svg2" viewBox="0 0 22 22" version="1.1" xmlns:xlink="http://www.w3.org/1999/xlink" xmlns="http://www.w3.org/2000/svg" xmlns:dc="http://purl.org/dc/elements/1.1/"><defs id="defs4"><linearGradient id="linearGradient4172"><stop id="stop4174" stop-color="#ebebeb"/><stop offset="1" id="stop4176" stop-color="#fff"/></linearGradient><linearGradient id="linearGradient4158"><stop id="stop4160" stop-color="#d02604"/><stop offset="1" id="stop4162" stop-color="#fd846c"/></linearGradient><linearGradient id="1" x2="20" y2="20" x1="19.719" y1="3.5" gradientUnits="userSpaceOnUse"><stop id="stop12" stop-color="#fff"/><stop offset="1" id="stop14" stop-color="#fff" stop-opacity="0"/></linearGradient><linearGradient id="linearGradient4164" x2="21" y2="19.949152" xlink:href="#linearGradient4158" x1="21.13559" y1="2.050848" gradientUnits="userSpaceOnUse"/><linearGradient id="linearGradient4178" x2="13.18644" y2="17.938013" xlink:href="#linearGradient4172" x1="12.915255" y1="6.938013" gradientUnits="userSpaceOnUse"/></defs><path id="path26" opacity="0.15" d="m 10.954119 3.00008 c -0.290657 0.00342 -0.54937 0.164246 -0.694895 0.422286 L 1.096904 19.733141 C 0.953426 19.994416 0.975338 20.318689 1.122638 20.577714 1.269941 20.836736 1.525135 20.999403 1.817532 21 L 20.16789 20.97364 c 0.238195 0.0015 0.485948 -0.107049 0.643422 -0.290324 0.157469 -0.183275 0.211527 -0.41768 0.18016 -0.659826 -0.01413 -0.102834 -0.02796 -0.225964 -0.07721 -0.316709 L 11.674707 3.395952 C 11.523452 3.141404 11.244736 2.996639 10.954077 3.00006 z"/><path id="path28" d="m 10.954119 2.00008 c -0.290657 0.00342 -0.54937 0.164246 -0.694895 0.422286 L 1.096904 18.733141 C 0.953426 18.994416 0.975338 19.318689 1.122638 19.577714 1.269941 19.836736 1.525135 19.999403 1.817532 20 L 20.16789 19.97364 c 0.238195 0.0015 0.485948 -0.107049 0.643422 -0.290324 0.157469 -0.183275 0.211527 -0.41768 0.18016 -0.659826 -0.01413 -0.102834 -0.02796 -0.225964 -0.07721 -0.316709 L 11.674707 2.395952 C 11.523452 2.141404 11.244736 1.996639 10.954077 2.00006 z" fill="url(#linearGradient4164)"/><path id="path30" opacity="0.3" d="M 10.999404 6.0625 C 10.191868 6.06533 9.378379 6.471791 9.116363 7.275152 8.592332 8.881872 9.947726 13.0037 10.999404 12.999998 12.05108 12.996298 13.410092 8.864094 12.882445 7.261029 12.618622 6.459505 11.806941 6.05965 10.999404 6.06248 z"/><path id="path32" opacity="0.6" d="m 10.999404 8.0625 c -0.807536 0.00283 -1.621026 0.409291 -1.883041 1.212652 -0.524031 1.60672 0.831364 5.728546 1.883041 5.724846 1.051677 -0.0037 2.410688 -4.135904 1.883041 -5.738969 C 12.618622 8.459505 11.806941 8.05965 10.999404 8.06248 z" fill="#fff"/><path id="path34" opacity="0.3" d="m 11 14 c -1.10457 0 -2 0.671572 -2 1.5 0 0.828427 0.89543 1.5 2 1.5 1.104571 0 2 -0.671573 2 -1.5 C 13 14.671572 12.10457 14 11 14 z"/><path id="path38" opacity="0.6" d="m 11 16 c -1.10457 0 -2 0.671572 -2 1.5 0 0.828427 0.89543 1.5 2 1.5 1.104571 0 2 -0.671573 2 -1.5 C 13 16.671572 12.10457 16 11 16 z" fill="#fff"/><g id="g4168" fill="url(#linearGradient4178)"><path id="path36" d="M 10.999404,7.0625 C 10.191868,7.06533 9.378379,7.471791 9.116363,8.275152 8.592332,9.881872 9.947726,14.0037 10.999404,13.999998 12.05108,13.996261 13.410092,9.864094 12.882445,8.261029 12.618622,7.459505 11.806941,7.05965 10.999404,7.06248 Z"/><path id="path40" d="m 11,15 c -1.10457,0 -2,0.671572 -2,1.5 0,0.828427 0.89543,1.5 2,1.5 1.104571,0 2,-0.671573 2,-1.5 C 13,15.671572 12.10457,15 11,15 Z"/></g><g id="g42" fill="none"><path id="path44" opacity="0.4" d="M 10.96875,2.4375 C 10.848452,2.43892 10.694614,2.532812 10.625,2.65625 L 1.46875,18.9375 C 1.408497,19.047221 1.417419,19.198533 1.5,19.34375 c 0.086663,0.152391 0.194053,0.218508 0.3125,0.21875 l 18.34375,-0.03125 c 0.116474,7.33e-4 0.288994,-0.06127 0.34375,-0.125 0.07715,-0.08979 0.08021,-0.175806 0.0625,-0.3125 -0.0089,-0.0648 -0.02179,-0.138816 -0.03125,-0.15625 L 11.3125,2.625 C 11.23978,2.502619 11.10319,2.435918 10.96875,2.4375 Z" stroke="#000"/><path id="path46" opacity="0.4" d="M 10.96875,4 2.75,18.625 19.21875,18.59375 10.96875,4 Z" stroke="url(#1)"/></g><metadata id="metadata9999"><rdf:RDF><cc:Work><dc:format>image/svg+xml</dc:format><dc:type rdf:resource="http://purl.org/dc/dcmitype/StillImage"/><dc:title>Ivy icon theme</dc:title><cc:license rdf:resource="http://creativecommons.org/licenses/by-sa/4.0/"/><dc:creator><cc:Agent><dc:title>Sixsixfive (sixsixfive.deviantart.com)</dc:title></cc:Agent></dc:creator><dc:publisher><cc:Agent><dc:title>Sixsixfive (sixsixfive.deviantart.com)</dc:title></cc:Agent></dc:publisher><dc:source>https://github.com/sixsixfive</dc:source><dc:subject><rdf:Bag><rdf:li>ivy</rdf:li></rdf:Bag></dc:subject><dc:contributor><cc:Agent><dc:title>ssf</dc:title></cc:Agent></dc:contributor><dc:rights><cc:Agent><dc:title>Sixsixfive (sixisixfive.deviantart.com)</dc:title></cc:Agent></dc:rights><dc:description>A simple icon theme published under CC-BY-SA_V4(http://creativecommons.org/licenses/by-sa/4.0)</dc:description><dc:identifier>SSF</dc:identifier></cc:Work></rdf:RDF></metadata><!--Part of the Ivy icon them published under the CC-BY-SA_V4: http://creativecommons.org/licenses/by-sa/4.0 -->
</svg>