<?xml version="1.0" encoding="UTF-8" standalone="no"?>
<svg xmlns:dc="http://purl.org/dc/elements/1.1/" xmlns:cc="http://creativecommons.org/ns#" xmlns:rdf="http://www.w3.org/1999/02/22-rdf-syntax-ns#" xmlns:svg="http://www.w3.org/2000/svg" xmlns="http://www.w3.org/2000/svg" viewBox="0 0 22 22" id="svg2" version="1.1">
 <defs id="defs4">
  <linearGradient id="0" y1="2" y2="20" x2="0" gradientUnits="userSpaceOnUse">
   <stop stop-color="#5288d1" id="stop7"/>
   <stop offset="1" stop-color="#bbd0ec" id="stop9"/>
  </linearGradient>
  <linearGradient id="1" y1="3.625" y2="18.375" x2="0" gradientUnits="userSpaceOnUse">
   <stop stop-color="#fff" id="stop12"/>
   <stop offset="1" stop-color="#fff" stop-opacity="0" id="stop14"/>
  </linearGradient>
 </defs>
 <path opacity="0.1" d="m 6,3 -4,4 5,5 -5,5 4,4 5,-5 5,5 4,-4 -5,-5 5,-5 -4,-4 -5,5 z" id="path16"/>
 <path fill="url(#0)" d="m 6,2 -4,4 5,5 -5,5 4,4 5,-5 5,5 4,-4 -5,-5 5,-5 -4,-4 -5,5 z" id="path18"/>
 <g id="g20" fill="none">
  <path d="M 6,2.75 2.75,6 7.375,10.625 a 0.53641,0.53641 0 0 1 0,0.75 L 2.75,16 6,19.25 10.625,14.625 a 0.53641,0.53641 0 0 1 0.75,0 L 16,19.25 19.25,16 14.625,11.375 a 0.53641,0.53641 0 0 1 0,-0.75 L 19.25,6 16,2.75 11.375,7.375 a 0.53641,0.53641 0 0 1 -0.75,0 L 6,2.75 Z" id="path22" opacity="0.4" stroke="#000"/>
  <path d="M 6,4.125 4.125,6 8.0625,9.9375 a 1.5206787,1.5206787 0 0 1 0,2.125 L 4.125,16 6,17.875 9.9375,13.9375 a 1.5206787,1.5206787 0 0 1 2.125,0 L 16,17.875 17.875,16 13.9375,12.0625 a 1.5206787,1.5206787 0 0 1 0,-2.125 L 17.875,6 16,4.125 12.0625,8.0625 a 1.5206787,1.5206787 0 0 1 -2.125,0 L 6,4.125 Z" id="path24" opacity="0.4" stroke="url(#1)"/>
 </g>
 <metadata id="metadata9999">
  <rdf:RDF>
   <cc:Work>
    <dc:format>image/svg+xml</dc:format>
    <dc:type rdf:resource="http://purl.org/dc/dcmitype/StillImage"/>
    <dc:title>Ivy icon theme</dc:title>
    <cc:license rdf:resource="http://creativecommons.org/licenses/by-sa/4.0/"/>
    <dc:creator>
     <cc:Agent>
      <dc:title>Sixsixfive (sixsixfive.deviantart.com)</dc:title>
     </cc:Agent>
    </dc:creator>
    <dc:publisher>
     <cc:Agent>
      <dc:title>Sixsixfive (sixsixfive.deviantart.com)</dc:title>
     </cc:Agent>
    </dc:publisher>
    <dc:source>https://github.com/sixsixfive</dc:source>
    <dc:subject>
     <rdf:Bag>
      <rdf:li>ivy</rdf:li>
     </rdf:Bag>
    </dc:subject>
    <dc:contributor>
     <cc:Agent>
      <dc:title>ssf</dc:title>
     </cc:Agent>
    </dc:contributor>
    <dc:rights>
     <cc:Agent>
      <dc:title>Sixsixfive (sixisixfive.deviantart.com)</dc:title>
     </cc:Agent>
    </dc:rights>
    <dc:description>A simple icon theme published under CC-BY-SA_V4(http://creativecommons.org/licenses/by-sa/4.0)</dc:description>
    <dc:identifier>SSF</dc:identifier>
   </cc:Work>
  </rdf:RDF>
 </metadata>
 <!--Part of the Ivy icon them published under the CC-BY-SA_V4: http://creativecommons.org/licenses/by-sa/4.0 -->
</svg>
