<?xml version="1.0" encoding="UTF-8" standalone="no"?>
<svg xmlns:dc="http://purl.org/dc/elements/1.1/" xmlns:cc="http://creativecommons.org/ns#" xmlns:rdf="http://www.w3.org/1999/02/22-rdf-syntax-ns#" xmlns:svg="http://www.w3.org/2000/svg" xmlns="http://www.w3.org/2000/svg" xmlns:xlink="http://www.w3.org/1999/xlink" version="1.1" viewBox="0 0 22 22" id="svg2">
 <defs id="defs4">
  <path d="M 22,2 22,7.952133 16,2 z" id="1" fill="#5288d1"/>
  <use xlink:href="#0" id="2"/>
  <linearGradient gradientUnits="userSpaceOnUse" x2="0" y2="18" y1="4" id="3">
   <stop id="stop9" stop-color="#fff"/>
   <stop id="stop11" stop-opacity="0" stop-color="#fff" offset="1"/>
  </linearGradient>
  <radialGradient gradientTransform="matrix(1.80055 -1.54386 1.14572 1.37209 -79.957 -16.587)" gradientUnits="userSpaceOnUse" id="4" r="19" cy="50.87" cx="16.977">
   <stop id="stop14" stop-color="#c7c7c7"/>
   <stop id="stop16" stop-color="#ebebeb" offset="1"/>
  </radialGradient>
 </defs>
 <path id="path18" d="M 1,4 H21 V20 H1 z" opacity="0.15"/>
 <path id="path20" d="M 1,3 H21 V19 H1 z" fill="url(#4)"/>
 <g id="g22" fill="none">
  <path id="path24" d="m 1.53125,3.53125 0,14.9375 18.9375,0 0,-14.9375 -18.9375,0 z" opacity="0.4" stroke="#000"/>
  <path id="path26" d="m 2.5,4.5 0,13 17,0 0,-13 -17,0 z" opacity="0.6" stroke="url(#3)"/>
 </g>
 <use id="use28" xlink:href="#1"/>
 <path d="m 17.28125,2.53125 4.1875,4.125 0,-4.125 -4.1875,0 z" id="0" stroke="#000" fill="none" opacity="0.3"/>
 <g id="g31" transform="matrix(0,1,-1,0,24,-2)">
  <use id="use33" xlink:href="#1" x="0" y="0" width="22" height="22"/>
  <use id="use35" xlink:href="#2" x="0" y="0" width="22" height="22"/>
 </g>
 <g id="g37" transform="matrix(-1,0,0,-1,22,22)">
  <use id="use39" xlink:href="#1" x="0" y="0" width="22" height="22"/>
  <use id="use41" xlink:href="#2" x="0" y="0" width="22" height="22"/>
 </g>
 <g id="g43" transform="matrix(0,-1,1,0,-2,24)">
  <use id="use45" xlink:href="#1" x="0" y="0" width="22" height="22"/>
  <use id="use47" xlink:href="#2" x="0" y="0" width="22" height="22"/>
 </g>
 <g id="g49" fill="#fff" color="#000">
  <path id="path51" d="M 1,3 3,3 3,4 1,4 Z" opacity="0.2"/>
  <path id="path53" d="m 19,3 2,0 0,1 -2,0 z" opacity="0.2"/>
  <path id="path55" d="m 1,17 1,0 0,1 -1,0 z" opacity="0.2"/>
  <path id="path57" d="m 20,17 1,0 0,1 -1,0 z" opacity="0.2"/>
 </g>
 <metadata id="metadata9999">
  <rdf:RDF>
   <cc:Work>
    <dc:format>image/svg+xml</dc:format>
    <dc:type rdf:resource="http://purl.org/dc/dcmitype/StillImage"/>
    <dc:title>Ivy icon theme</dc:title>
    <cc:license rdf:resource="http://creativecommons.org/licenses/by-sa/4.0/"/>
    <dc:creator>
     <cc:Agent>
      <dc:title>Sixsixfive (sixsixfive.deviantart.com)</dc:title>
     </cc:Agent>
    </dc:creator>
    <dc:publisher>
     <cc:Agent>
      <dc:title>Sixsixfive (sixsixfive.deviantart.com)</dc:title>
     </cc:Agent>
    </dc:publisher>
    <dc:source>https://github.com/sixsixfive</dc:source>
    <dc:subject>
     <rdf:Bag>
      <rdf:li>ivy</rdf:li>
     </rdf:Bag>
    </dc:subject>
    <dc:contributor>
     <cc:Agent>
      <dc:title>ssf</dc:title>
     </cc:Agent>
    </dc:contributor>
    <dc:rights>
     <cc:Agent>
      <dc:title>Sixsixfive (sixisixfive.deviantart.com)</dc:title>
     </cc:Agent>
    </dc:rights>
    <dc:description>A simple icon theme published under CC-BY-SA_V4(http://creativecommons.org/licenses/by-sa/4.0)</dc:description>
    <dc:identifier>SSF</dc:identifier>
   </cc:Work>
  </rdf:RDF>
 </metadata>
 <!--Part of the Ivy icon them published under the CC-BY-SA_V4: http://creativecommons.org/licenses/by-sa/4.0 -->
</svg>
