<?xml version="1.0" encoding="UTF-8" standalone="no"?><svg xmlns:xlink="http://www.w3.org/1999/xlink" xmlns:cc="http://creativecommons.org/ns#" viewBox="0 0 32 32" version="1.1" id="svg2" xmlns:svg="http://www.w3.org/2000/svg" xmlns:rdf="http://www.w3.org/1999/02/22-rdf-syntax-ns#" xmlns="http://www.w3.org/2000/svg" xmlns:dc="http://purl.org/dc/elements/1.1/"><defs id="0"><linearGradient id="linearGradient4177"><stop stop-color="#fff" id="stop4179"/><stop offset="1" stop-opacity="0" stop-color="#fff" id="stop4181"/></linearGradient><linearGradient id="6"><stop stop-color="#ff8b36" id="A"/><stop offset="1" stop-color="#ffe04a" id="B"/></linearGradient><radialGradient gradientUnits="userSpaceOnUse" r="14.986" cx="5.291" xlink:href="#6" cy="37.82" id="9" gradientTransform="matrix(2.0570543 0.00000013 -0.00000012 1.6682069 -10.08731 -32.767585)"/><linearGradient x2="24.847" gradientUnits="userSpaceOnUse" x1="22" xlink:href="#linearGradient4177" y2="18.499" id="linearGradient4183" y1="7"/></defs><path fill-rule="evenodd" opacity="0.1" id="path4161" color="#000" d="m 20.998047,0.99946457 c -0.724379,0 -1.460066,0.15510143 -2.158203,0.49414063 -1.76197,0.8558842 -2.8054,2.6324986 -2.839844,4.5 0.757052,0.035008 1.533373,-0.1131371 2.265625,-0.46875 1.756855,-0.8533125 2.769752,-2.6581036 2.732422,-4.52539063 z M 15.46875,6.9994646 c -3.182208,0 -5.4694207,2.4491216 -5.7714844,5.2500004 C 9.566541,13.183806 9.3504082,13.932754 9.0292969,14.813918 8.5099121,16.144349 7.5304414,17.279937 6.6503906,18.534621 5.7723205,19.786468 5,21.1715 5,22.966262 c -0.023806,3.622095 3.2047261,7.518694 6.224609,8.791015 0.71475,0.285411 1.451861,0.266296 2.148438,0.205079 0.0029,-2.69e-4 0.005,1.36e-4 0.0078,0 l 0.05469,0 c 0.694352,-0.05811 1.379368,-0.15819 2.076172,-0.16211 0.696218,0.0068 1.380434,0.103866 2.074219,0.16211 l 0.05469,0 c 0.0035,2.03e-4 0.0064,-3.37e-4 0.0098,0 0.696058,0.06149 1.430377,0.0802 2.144531,-0.205079 4.048786,-2.344501 5.91224,-5.188967 6.173828,-8.714843 -3.910796,-0.180615 -6.950076,-2.987497 -6.955078,-6.583985 0.001,-1.838073 0.535192,-4.189642 1.978516,-5.462891 C 20.000263,8.47442 18.486791,6.9994646 15.550781,6.9994646 l -0.01563,0 c -0.01652,-6.081e-4 -0.03231,-6.081e-4 -0.04883,0 -0.0059,-1.348e-4 -0.01167,-1.348e-4 -0.01758,0 z"/><path fill-rule="evenodd" fill="url(#9)" id="2" color="#000" d="m 15.468586,6.0000061 c -3.182208,0 -5.4685865,2.4488805 -5.7706502,5.2497589 -0.1307246,0.934341 -0.3480487,1.684355 -0.66916,2.565519 -0.5193848,1.330431 -1.4982727,2.464236 -2.3783235,3.71892 -0.8780701,1.251847 -1.6503215,2.638157 -1.6503215,4.432919 -0.023806,3.622095 3.2050849,7.518179 6.2249682,8.7905 0.71475,0.285411 1.450482,0.265815 2.147059,0.204598 0.0029,-2.69e-4 0.0054,1.36e-4 0.0082,0 l 0.05474,0 c 0.694352,-0.05811 1.379098,-0.158448 2.075902,-0.162368 0.696218,0.0068 1.380749,0.104124 2.074534,0.162368 l 0.05475,0 c 0.0035,2.03e-4 0.0076,-3.37e-4 0.01095,0 0.696058,0.06149 1.4288,0.08068 2.142954,-0.204598 4.048786,-2.344502 5.912943,-5.188784 6.174531,-8.71466 -3.910796,-0.180615 -6.95092,-2.986836 -6.955922,-6.583324 0.001,-1.838073 0.535803,-4.190737 1.979127,-5.4639854 C 19.999999,7.4745152 18.486702,6.0000061 15.550692,6.0000061 l -0.01505,0 c -0.01652,-6.081e-4 -0.03274,-6.081e-4 -0.04926,0 -0.0059,-1.348e-4 -0.01189,-1.348e-4 -0.0178,0 z"/><path fill-rule="evenodd" fill="#66b03e" id="3" color="#000" d="M 20.999004,0 C 20.274625,0 19.537369,0.15487468 18.839232,0.49391384 17.077262,1.349798 16.034444,3.1275033 16,4.9950047 16.757052,5.0300124 17.533553,4.8817781 18.265805,4.5261652 20.02266,3.6728527 21.036334,1.867287 20.999004,0 Z"/><path fill-rule="evenodd" stroke-linejoin="round" opacity="0.4" fill="none" id="path4171" stroke="#000" color="#000" d="m 20.472656,0.52148438 c -0.483334,0.056172 -0.965338,0.16512128 -1.429687,0.390625 -1.435425,0.69726352 -2.305581,2.07555312 -2.5,3.57812502 0.512318,-0.039861 1.025682,-0.1429785 1.519531,-0.3828125 1.42544,-0.6923428 2.268096,-2.0849335 2.410156,-3.58593752 z M 15.46875,6.4648438 c -2.943978,0 -5.032181,2.2528419 -5.310547,4.8339842 a 0.46435392,0.46435392 0 0 1 -0.002,0.01563 c -0.135738,0.970172 -0.3642645,1.760491 -0.6914062,2.658203 a 0.46435392,0.46435392 0 0 1 -0.00391,0.0098 C 8.9021887,15.413686 7.8939286,16.572818 7.03125,17.802734 6.1721344,19.027558 5.4648438,20.305235 5.4648438,21.966797 a 0.46435392,0.46435392 0 0 1 0,0.0039 c -0.010989,1.67201 0.742202,3.470457 1.8789062,4.996094 1.1347388,1.522999 2.6465879,2.764853 4.052734,3.359375 6.02e-4,2.4e-4 0.0014,-2.4e-4 0.002,0 0.604915,0.241019 1.256503,0.233065 1.93164,0.173828 0.06622,-0.0061 0.08046,-0.0026 0.02734,0 a 0.46435392,0.46435392 0 0 1 0.02344,-0.002 l 0.04102,0 c 0.667896,-0.05694 1.357227,-0.157999 2.087891,-0.162109 a 0.46435392,0.46435392 0 0 1 0.0059,0 c 0.727533,0.0071 1.415365,0.105014 2.083984,0.162109 l 0.04102,0 a 0.46435392,0.46435392 0 0 1 0.02734,0.002 c -0.05864,-0.0034 -0.04999,-0.0077 0.02734,0 0.664505,0.05851 1.303307,0.06291 1.900391,-0.167969 3.758843,-2.186923 5.458693,-4.735026 5.824219,-7.896484 -3.864188,-0.414396 -6.865964,-3.288371 -6.871094,-6.976563 9.87e-4,-1.814147 0.497555,-4.070292 1.896484,-5.5195309 -0.458735,-1.0894094 -1.006,-1.9500432 -1.732421,-2.5214843 -0.781832,-0.6150298 -1.771856,-0.9531251 -3.16211,-0.953125 l -0.01563,0 a 0.46435392,0.46435392 0 0 1 -0.01758,0 c -0.0057,-2.081e-4 -0.008,-2.081e-4 -0.01367,0 a 0.46435392,0.46435392 0 0 1 -0.02539,0 0.46435392,0.46435392 0 0 1 -0.0098,0 z"/><path fill-rule="evenodd" opacity="0.4" fill="none" id="path4175" stroke="url(#linearGradient4183)" color="#000" d="m 15.494141,7.4804688 a 1.4817077,1.4817077 0 0 1 -0.02539,0.00195 c -2.42204,0 -4.072381,1.8260587 -4.298828,3.9257811 a 1.4817077,1.4817077 0 0 1 -0.0059,0.04687 c -0.146721,1.048674 -0.401833,1.93322 -0.742187,2.867188 a 1.4817077,1.4817077 0 0 1 -0.01172,0.03125 c -0.6449911,1.652178 -1.7222569,2.857549 -2.5468748,4.033203 -0.8175881,1.165619 -1.3808593,2.210345 -1.3808593,3.580078 a 1.4817077,1.4817077 0 0 1 0,0.0098 c -0.00899,1.367392 0.637533,2.987366 1.6757812,4.38086 1.0343224,1.388224 2.4463279,2.523055 3.6289059,3.02539 0.366255,0.143077 0.830312,0.158594 1.457032,0.103516 l -0.0078,0.002 c 0.204949,-0.01901 0.247885,-0.01439 0.07227,-0.0059 a 1.4817077,1.4817077 0 0 1 0.07226,-0.002 l 0.0078,0 c 0.61818,-0.05483 1.311,-0.157585 2.115234,-0.16211 a 1.4817077,1.4817077 0 0 1 0.02149,0 c 0.795665,0.0078 1.486078,0.10709 2.107421,0.16211 0.0023,2.03e-4 0.0055,-2.02e-4 0.0078,0 a 1.4817077,1.4817077 0 0 1 0.08594,0.0039 c -0.147884,-0.0086 -0.04881,-0.0059 0.05469,0.002 0.603557,0.05332 1.039848,0.03002 1.400391,-0.09961 3.13542,-1.848662 4.575741,-3.812151 5.076171,-6.232422 -3.782094,-0.864215 -6.721182,-3.824765 -6.726562,-7.693359 a 1.4817077,1.4817077 0 0 1 0,-0.002 c 9.6e-4,-1.763692 0.396709,-3.893607 1.648438,-5.5781246 C 18.838773,9.2280092 18.506798,8.5494028 18.083984,8.2167969 17.493908,7.7526137 16.770691,7.4824219 15.550781,7.4824219 l -0.01563,0 a 1.4817077,1.4817077 0 0 1 -0.0332,-0.00195 c -0.0026,5.86e-5 -0.0052,-3.99e-5 -0.0078,0 z"/><metadata id="metadata9999"><rdf:RDF><cc:Work><dc:format>image/svg+xml</dc:format><dc:type rdf:resource="http://purl.org/dc/dcmitype/StillImage"/><dc:title>Ivy icon theme</dc:title><cc:license rdf:resource="http://creativecommons.org/licenses/by-sa/4.0/"/><dc:creator><cc:Agent><dc:title>Sixsixfive (sixsixfive.deviantart.com)</dc:title></cc:Agent></dc:creator><dc:publisher><cc:Agent><dc:title>Sixsixfive (sixsixfive.deviantart.com)</dc:title></cc:Agent></dc:publisher><dc:source>https://github.com/sixsixfive</dc:source><dc:subject><rdf:Bag><rdf:li>ivy</rdf:li></rdf:Bag></dc:subject><dc:contributor><cc:Agent><dc:title>ssf</dc:title></cc:Agent></dc:contributor><dc:rights><cc:Agent><dc:title>Sixsixfive (sixisixfive.deviantart.com)</dc:title></cc:Agent></dc:rights><dc:description>A simple icon theme published under CC-BY-SA_V4(http://creativecommons.org/licenses/by-sa/4.0)</dc:description><dc:identifier>SSF</dc:identifier></cc:Work></rdf:RDF></metadata><!--Part of the Ivy icon them published under the CC-BY-SA_V4: http://creativecommons.org/licenses/by-sa/4.0 -->
</svg>