<?xml version="1.0" encoding="UTF-8" standalone="no"?><svg xmlns:cc="http://creativecommons.org/ns#" xmlns:rdf="http://www.w3.org/1999/02/22-rdf-syntax-ns#" xmlns:svg="http://www.w3.org/2000/svg" id="svg2" viewBox="0 0 22 22" version="1.1" xmlns:xlink="http://www.w3.org/1999/xlink" xmlns:dc="http://purl.org/dc/elements/1.1/" xmlns="http://www.w3.org/2000/svg"><defs id="0"><linearGradient id="A"><stop id="J" stop-color="#fff"/><stop offset="1" id="K" stop-color="#fff" stop-opacity="0"/></linearGradient><radialGradient r="20.398" id="B" cx="21.2" cy="44.37" gradientTransform="matrix(2.63125 -2.0065 1.46287 1.91834 -94.68 11.431)" gradientUnits="userSpaceOnUse"><stop id="L" stop-color="#66b03e"/><stop offset="1" id="M" stop-color="#89ed53"/></radialGradient><radialGradient r="5.737" id="C" cx="30.775" cy="38.674" gradientTransform="matrix(0.46575653 0 0 0.3077615 -0.519314 6.285853)" xlink:href="#A" gradientUnits="userSpaceOnUse"/><radialGradient r="6.813" id="D" cx="18.508" cy="39.18" gradientTransform="matrix(0.46575653 0 0 0.31297007 -0.519314 6.159472)" xlink:href="#A" gradientUnits="userSpaceOnUse"/><radialGradient r="8.893" id="E" cx="33.931" cy="30.999" gradientTransform="matrix(0.46575653 0 0 0.26224567 -0.519314 6.491688)" xlink:href="#A" gradientUnits="userSpaceOnUse"/><radialGradient r="10.4" id="F" cx="15.06" cy="30.496" gradientTransform="matrix(0.46575653 0 0 0.22746296 -0.519314 7.450698)" xlink:href="#A" gradientUnits="userSpaceOnUse"/><radialGradient r="1.107" id="G" cx="24.787" cy="20.31" gradientTransform="matrix(0.46575653 0 0 6.7721607 -0.91901 -127.88732)" xlink:href="#A" gradientUnits="userSpaceOnUse"/><radialGradient r="20.398" id="H" cx="21.2" cy="44.37" gradientTransform="matrix(1.225522 -0.93229385 0.68134129 0.89133147 -45.521179 5.847702)" xlink:href="#B" gradientUnits="userSpaceOnUse"/><linearGradient id="I" x2="0" y2="20" xlink:href="#A" y1="3" gradientUnits="userSpaceOnUse"/></defs><path id="1" opacity="0.1" d="M 11.15208,2.0021486 C 10.405817,2.8009815 9.7781744,3.8677585 9.0659513,4.6959371 8.6035188,5.6204244 8.216058,6.5811328 7.6758235,7.4661706 7.1606414,8.3815412 7.1538725,9.4264476 6.9143024,10.410822 c -0.4014609,1.173795 -1.7048606,0.148232 -2.5198451,0.816422 -0.985844,0.40281 -1.9941325,0.770463 -2.9206672,1.284441 -1.16018799,0.540537 0.132211,1.51972 0.4366082,2.264111 0.5087886,0.713756 1.1877453,1.286705 1.6749402,2.020585 0.4947042,0.558322 1.9690395,0.721823 1.449099,1.749319 -0.4047215,0.853177 -1.0115398,1.742181 -0.7936469,2.713405 0.1844252,1.067075 1.4663014,0.685773 2.2301449,0.626103 1.1488095,-0.0934 1.8958546,-0.994195 2.8056244,-1.55425 0.8758421,-0.325587 1.1689611,-1.959244 1.7820941,-2.00724 0.741941,0.137096 0.495585,-0.294634 2.084919,2.425975 1.144418,0.705832 2.55856,0.861147 3.878514,0.801227 0.208231,-1.065852 -0.09917,-2.118672 -0.332664,-3.086059 0.4,-1.045266 1.68823,-1.296322 2.180293,-2.28189 0.557287,-0.804156 0.862208,-1.745103 1.13045,-2.668266 C 19.567052,12.677886 18.813498,11.923023 17.789192,11.856729 17.003642,11.524211 15.909855,11.79676 15.33535,11.168314 15.018101,10.194858 15.107385,9.113293 14.583649,8.1980555 14.052515,7.1660112 13.573414,6.106108 13.020179,5.0865962 12.507469,4.3426686 11.742101,3.7637416 11.489289,2.8599476 11.309522,2.5603559 11.315409,2.3127035 11.15208,2.0021486 z" fill-rule="evenodd"/><path id="2" d="M 11.15208,1.0010744 C 10.405817,1.7999073 9.7781744,2.8666843 9.0659513,3.6948629 8.6035188,4.6193502 8.216058,5.5800586 7.6758235,6.4650964 7.1606414,7.380467 7.1538725,8.4253734 6.9143024,9.409748 6.5128415,10.583543 5.2094418,9.5579801 4.3944573,10.22617 c -0.985844,0.40281 -1.9941325,0.770463 -2.9206672,1.284441 -1.16018799,0.540537 0.132211,1.51972 0.4366082,2.264111 0.5087886,0.713756 1.1877453,1.286705 1.6749402,2.020585 0.4947042,0.558322 1.9690395,0.721823 1.449099,1.749319 -0.4047215,0.853177 -1.0115398,1.742181 -0.7936469,2.713405 0.1844252,1.067075 1.4663014,0.685773 2.2301449,0.626103 1.1488095,-0.0934 1.8958546,-0.994195 2.8056244,-1.55425 0.8758421,-0.325587 1.1689611,-1.959244 1.7820941,-2.00724 0.741941,0.137096 0.495585,-0.294634 2.084919,2.425975 1.144418,0.705832 2.55856,0.861147 3.878514,0.801227 0.208231,-1.065852 -0.09917,-2.118672 -0.332664,-3.086059 0.4,-1.045266 1.68823,-1.296322 2.180293,-2.28189 0.557287,-0.804156 0.862208,-1.745103 1.13045,-2.668266 C 19.567052,11.676812 18.813498,10.921949 17.789192,10.855655 17.003642,10.523137 15.909855,10.795686 15.33535,10.16724 15.018101,9.1937834 15.107385,8.1122188 14.583649,7.1969813 14.052515,6.164937 13.573414,5.1050338 13.020179,4.085522 12.507469,3.3415944 11.742101,2.7626674 11.489289,1.8588734 11.309522,1.5592817 11.315409,1.3116293 11.15208,1.0010744 z" fill-rule="evenodd" fill="url(#H)"/><path id="3" opacity="0.55" d="M 10.574552,2.3882238 C 11.181177,7.537354 9.531243,12.357161 10.908667,16.920625" stroke="url(#G)" fill="none"/><path id="4" opacity="0.55" d="m 1.8863153,12.254258 c 3.4421972,0.809711 6.8281343,1.712961 9.2215787,4.266394" stroke="url(#F)" fill="none"/><path id="5" opacity="0.55" d="m 19.193483,12.520908 c -2.492001,1.570644 -4.978941,3.148863 -7.818295,4.199731" stroke="url(#E)" fill="none"/><path id="6" opacity="0.55" d="m 5.160644,20.320405 c 1.1024859,-1.779941 2.9965008,-3.086107 5.880428,-3.799755 l 0,0" stroke="url(#D)" fill="none"/><path id="7" opacity="0.55" d="m 11.375187,16.653975 c 2.401077,0.248969 3.480847,1.81607 4.878082,3.066468" stroke="url(#C)" fill="none"/><path id="8" opacity="0.3" d="M 11.03125,1.96875 C 10.535111,2.6010997 10.047014,3.2551653 9.5,3.90625 9.4940238,3.9181975 9.4747011,3.925521 9.46875,3.9375 9.4535089,3.9554803 9.4528382,3.9821646 9.4375,4 9.009867,4.8701807 8.6442782,5.8168486 8.09375,6.71875 l 0.03125,0 C 7.6831008,7.5039122 7.63113,8.4788322 7.375,9.53125 a 0.484546,0.484546 0 0 1 0,0.03125 C 7.2420342,9.9512666 6.9676506,10.245211 6.65625,10.375 6.3448494,10.504789 6.0381903,10.514735 5.78125,10.5 5.2673693,10.470529 4.935461,10.416073 4.71875,10.59375 a 0.484546,0.484546 0 0 1 -0.125,0.0625 c -0.9999819,0.408587 -1.9960678,0.793679 -2.875,1.28125 a 0.484546,0.484546 0 0 1 -0.03125,0 c -0.2071662,0.09652 -0.2170888,0.116904 -0.21875,0.125 -0.00166,0.0081 0.00999,0.122634 0.09375,0.28125 0.1547218,0.292994 0.4959192,0.686729 0.71875,1.15625 l 0.03125,0 c 0.4492354,0.630212 1.1182581,1.174474 1.65625,1.96875 0.00921,0.0136 0.022128,0.01751 0.03125,0.03125 0.1266305,0.121324 0.5485495,0.285164 0.96875,0.5625 0.2181326,0.143969 0.4320667,0.349718 0.5625,0.65625 0.1304333,0.306532 0.1111543,0.688078 -0.0625,1.03125 -0.4272608,0.900691 -0.9127844,1.680664 -0.75,2.40625 0.02938,0.169994 0.07108,0.211091 0.125,0.25 0.05392,0.03891 0.1792998,0.08232 0.34375,0.09375 0.3289005,0.02287 0.8087542,-0.05928 1.25,-0.09375 0.9215005,-0.07492 1.5932807,-0.85286 2.59375,-1.46875 A 0.484546,0.484546 0 0 1 9.125,18.875 C 9.3276994,18.799648 9.5880373,18.454927 9.84375,18 9.9716064,17.772536 10.087502,17.525973 10.25,17.3125 c 0.162498,-0.213473 0.414629,-0.440051 0.78125,-0.46875 a 0.484546,0.484546 0 0 1 0.125,0 c 0.14654,0.02708 0.255271,0.02433 0.4375,0.0625 0.182229,0.03817 0.401578,0.137615 0.5625,0.3125 0.303156,0.329461 0.615287,0.960254 1.3125,2.15625 0.892777,0.529711 1.995576,0.688844 3.09375,0.6875 0.04859,-0.799208 -0.140007,-1.624622 -0.34375,-2.46875 A 0.484546,0.484546 0 0 1 16.25,17.28125 c 0.257781,-0.673625 0.777168,-1.054025 1.21875,-1.375 0.441582,-0.320975 0.791295,-0.582069 0.96875,-0.9375 a 0.484546,0.484546 0 0 1 0.03125,-0.0625 c 0.460449,-0.66442 0.750311,-1.471872 1,-2.3125 C 19.081886,11.922682 18.501466,11.361136 17.75,11.3125 A 0.484546,0.484546 0 0 1 17.59375,11.28125 C 17.318107,11.164572 16.905743,11.148906 16.4375,11.09375 15.969257,11.038594 15.412636,10.920128 15,10.46875 A 0.484546,0.484546 0 0 1 14.875,10.3125 C 14.51658,9.2127136 14.617613,8.1891299 14.1875,7.4375 A 0.484546,0.484546 0 0 1 14.15625,7.40625 C 13.629364,6.3824607 13.154517,5.3570255 12.625,4.375 c -0.01089,-0.020206 -0.0203,-0.042325 -0.03125,-0.0625 -0.440005,-0.612143 -1.172884,-1.2378261 -1.5,-2.21875 -0.01568,-0.047036 -0.04885,-0.076204 -0.0625,-0.125 z" stroke="#000" stroke-linejoin="round" fill="none"/><path stroke-linecap="round" id="9" opacity="0.3" d="M 10.875,3.78125 C 10.71769,3.9929443 10.579956,4.1282323 10.40625,4.34375 10.393616,4.3690079 10.387577,4.4119212 10.375,4.4375 9.9763658,5.2482305 9.601254,6.2242637 9,7.21875 8.7113559,7.7316101 8.6657613,8.5552847 8.375,9.75 A 1.4978673,1.4978673 0 0 1 8.3125,9.90625 C 8.1113573,10.494353 7.5975312,11.07648 7.03125,11.3125 6.4649688,11.54852 6.018495,11.51719 5.71875,11.5 5.11926,11.46562 5.161484,11.524436 5.34375,11.375 a 1.4978673,1.4978673 0 0 1 -0.375,0.21875 c -0.7874812,0.32176 -1.4662507,0.629546 -2.125,0.9375 0.093241,0.127434 0.1415063,0.207457 0.25,0.40625 L 3.125,12.90625 c 0.3222678,0.452095 0.9810017,1.017427 1.59375,1.875 -0.1902357,-0.2147 0.222033,0.04779 0.8125,0.4375 0.2952335,0.194857 0.6843324,0.498779 0.9375,1.09375 0.2490273,0.58524 0.1613567,1.352026 -0.09375,1.875 -0.00743,0.01566 0.00731,0.01582 0,0.03125 -0.3264246,0.688565 -0.3884384,0.933051 -0.46875,1.21875 0.1721898,-0.0198 0.2106476,-0.04478 0.4375,-0.0625 C 6.7898836,19.338729 7.3098528,18.795156 8.5,18.0625 a 1.4978673,1.4978673 0 0 1 0.25,-0.125 c -0.2892149,0.107513 -0.029689,0.0045 0.21875,-0.4375 0.1242197,-0.220994 0.2639084,-0.502348 0.5,-0.8125 0.2360916,-0.310152 0.655981,-0.811376 1.46875,-0.875 a 1.4978673,1.4978673 0 0 1 0.40625,0.03125 c 0.06509,0.01203 0.09774,-0.0087 0.4375,0.0625 0.339763,0.07118 0.870164,0.379302 1.125,0.65625 0.405274,0.440441 0.736953,1.097052 1.21875,1.9375 0.325039,0.175448 0.808554,0.165712 1.21875,0.25 -0.0654,-0.330802 -0.03097,-0.547944 -0.125,-0.9375 a 1.4978673,1.4978673 0 0 1 0.0625,-0.875 c 0.378618,-0.989392 1.139172,-1.513328 1.59375,-1.84375 0.454578,-0.330422 0.622206,-0.494313 0.65625,-0.5625 a 1.4978673,1.4978673 0 0 1 0.125,-0.1875 c 0.254351,-0.367024 0.407162,-0.956924 0.59375,-1.5 -0.194497,-0.19377 -0.361876,-0.487015 -0.5625,-0.5 a 1.4978673,1.4978673 0 0 1 -0.5,-0.125 c -0.03069,-0.01299 -0.346371,-0.06273 -0.875,-0.125 -0.528629,-0.06227 -1.387654,-0.199291 -2.0625,-0.9375 A 1.4978673,1.4978673 0 0 1 13.90625,10.625 C 13.46173,9.2610225 13.515571,8.3469806 13.28125,7.9375 A 1.4978673,1.4978673 0 0 1 13.25,7.875 C 12.705239,6.8164776 12.264168,5.7950594 11.75,4.84375 11.743365,4.8351157 11.725736,4.8212924 11.71875,4.8125 11.517934,4.5597508 11.212367,4.2305119 10.875,3.78125 z" stroke="url(#I)" stroke-linejoin="round" fill="none"/><metadata id="metadata9999"><rdf:RDF><cc:Work><dc:format>image/svg+xml</dc:format><dc:type rdf:resource="http://purl.org/dc/dcmitype/StillImage"/><dc:title>Ivy icon theme</dc:title><cc:license rdf:resource="http://creativecommons.org/licenses/by-sa/4.0/"/><dc:creator><cc:Agent><dc:title>Sixsixfive (sixsixfive.deviantart.com)</dc:title></cc:Agent></dc:creator><dc:publisher><cc:Agent><dc:title>Sixsixfive (sixsixfive.deviantart.com)</dc:title></cc:Agent></dc:publisher><dc:source>https://github.com/sixsixfive</dc:source><dc:subject><rdf:Bag><rdf:li>ivy</rdf:li></rdf:Bag></dc:subject><dc:contributor><cc:Agent><dc:title>ssf</dc:title></cc:Agent></dc:contributor><dc:rights><cc:Agent><dc:title>Sixsixfive (sixisixfive.deviantart.com)</dc:title></cc:Agent></dc:rights><dc:description>A simple icon theme published under CC-BY-SA_V4(http://creativecommons.org/licenses/by-sa/4.0)</dc:description><dc:identifier>SSF</dc:identifier></cc:Work></rdf:RDF></metadata><!--Part of the Ivy icon them published under the CC-BY-SA_V4: http://creativecommons.org/licenses/by-sa/4.0 -->
</svg>