<?xml version="1.0" encoding="UTF-8" standalone="no"?><svg xmlns:xlink="http://www.w3.org/1999/xlink" xmlns:cc="http://creativecommons.org/ns#" viewBox="0 0 22 22" version="1.1" id="svg2" xmlns:svg="http://www.w3.org/2000/svg" xmlns="http://www.w3.org/2000/svg" xmlns:rdf="http://www.w3.org/1999/02/22-rdf-syntax-ns#" xmlns:dc="http://purl.org/dc/elements/1.1/"><defs id="defs4"><path fill="#5288d1" id="1" d="M 22,2 22,7.952133 16,2 z"/><use xlink:href="#0" id="2"/><linearGradient x2="0" gradientUnits="userSpaceOnUse" y2="18" id="3" y1="4"><stop stop-color="#fff" id="stop9"/><stop offset="1" stop-opacity="0" stop-color="#fff" id="stop11"/></linearGradient><radialGradient gradientUnits="userSpaceOnUse" r="19" cx="16.977" cy="50.87" id="4" gradientTransform="matrix(1.80055 -1.54386 1.14572 1.37209 -79.957 -16.587)"><stop stop-color="#c7c7c7" id="stop14"/><stop offset="1" stop-color="#ebebeb" id="stop16"/></radialGradient></defs><path opacity="0.15" id="path18" d="M 1,4 H21 V20 H1 z"/><path fill="url(#4)" id="path20" d="M 1,3 H21 V19 H1 z"/><g fill="none" id="g22"><path opacity="0.4" stroke="#000" id="path24" d="m 1.53125,3.53125 0,14.9375 18.9375,0 0,-14.9375 -18.9375,0 z"/><path opacity="0.6" stroke="url(#3)" id="path26" d="m 2.5,4.5 0,13 17,0 0,-13 -17,0 z"/></g><use xlink:href="#1" id="use28"/><path opacity="0.3" fill="none" stroke="#000" id="0" d="m 17.28125,2.53125 4.1875,4.125 0,-4.125 -4.1875,0 z"/><g id="g31" transform="matrix(0 1 -1 0 24 -2)"><use height="22" width="22" xlink:href="#1" id="use33" x="0" y="0"/><use height="22" width="22" xlink:href="#2" id="use35" x="0" y="0"/></g><g id="g37" transform="matrix(-1 0 0 -1 22 22)"><use height="22" width="22" xlink:href="#1" id="use39" x="0" y="0"/><use height="22" width="22" xlink:href="#2" id="use41" x="0" y="0"/></g><g id="g43" transform="matrix(0 -1 1 0 -2 24)"><use height="22" width="22" xlink:href="#1" id="use45" x="0" y="0"/><use height="22" width="22" xlink:href="#2" id="use47" x="0" y="0"/></g><g fill="#fff" id="g49" color="#000"><path opacity="0.2" id="path51" d="M 1,3 3,3 3,4 1,4 Z"/><path opacity="0.2" id="path53" d="m 19,3 2,0 0,1 -2,0 z"/><path opacity="0.2" id="path55" d="m 1,17 1,0 0,1 -1,0 z"/><path opacity="0.2" id="path57" d="m 20,17 1,0 0,1 -1,0 z"/></g><metadata id="metadata9999"><rdf:RDF><cc:Work><dc:format>image/svg+xml</dc:format><dc:type rdf:resource="http://purl.org/dc/dcmitype/StillImage"/><dc:title>Ivy icon theme</dc:title><cc:license rdf:resource="http://creativecommons.org/licenses/by-sa/4.0/"/><dc:creator><cc:Agent><dc:title>Sixsixfive (sixsixfive.deviantart.com)</dc:title></cc:Agent></dc:creator><dc:publisher><cc:Agent><dc:title>Sixsixfive (sixsixfive.deviantart.com)</dc:title></cc:Agent></dc:publisher><dc:source>https://github.com/sixsixfive</dc:source><dc:subject><rdf:Bag><rdf:li>ivy</rdf:li></rdf:Bag></dc:subject><dc:contributor><cc:Agent><dc:title>ssf</dc:title></cc:Agent></dc:contributor><dc:rights><cc:Agent><dc:title>Sixsixfive (sixisixfive.deviantart.com)</dc:title></cc:Agent></dc:rights><dc:description>A simple icon theme published under CC-BY-SA_V4(http://creativecommons.org/licenses/by-sa/4.0)</dc:description><dc:identifier>SSF</dc:identifier></cc:Work></rdf:RDF></metadata><!--Part of the Ivy icon them published under the CC-BY-SA_V4: http://creativecommons.org/licenses/by-sa/4.0 -->
</svg>