<?xml version="1.0" encoding="UTF-8" standalone="no"?>
<svg xmlns:dc="http://purl.org/dc/elements/1.1/" xmlns:cc="http://creativecommons.org/ns#" xmlns:rdf="http://www.w3.org/1999/02/22-rdf-syntax-ns#" xmlns:svg="http://www.w3.org/2000/svg" xmlns="http://www.w3.org/2000/svg" viewBox="0 0 22 22" id="svg2" version="1.1">
 <defs id="defs4">
  <linearGradient id="0" y1="9.966" y2="41.29" x2="0" gradientUnits="userSpaceOnUse" gradientTransform="matrix(-0.59237 0 0 0.63853 27.506 -5.365)">
   <stop stop-color="#66b03e" id="stop7"/>
   <stop offset="1" stop-color="#95ce76" id="stop9"/>
  </linearGradient>
  <linearGradient id="1" y1="1.998" y2="19.998" x2="0" gradientUnits="userSpaceOnUse">
   <stop stop-color="#fff" id="stop12"/>
   <stop offset="1" stop-color="#fff" stop-opacity="0" id="stop14"/>
  </linearGradient>
 </defs>
 <path opacity="0.1" d="M 1 12.00141 A 10 10 0 0 0 21 12.00141 10 10 0 1 0 1 12.00141 z" id="path16"/>
 <path fill="url(#0)" d="M 1 10.998214 A 10 10 0 0 0 21 10.998214 10 10 0 1 0 1 10.998214 z" id="path18"/>
 <g id="g20" fill="none">
  <path d="m 11.21875,1.498214 c 0.174989,0.00382 0.294171,0.018689 0.46875,0.03125 0.174579,0.012561 0.295016,0.00998 0.46875,0.03125 0.173734,0.021267 0.296296,0.06383 0.46875,0.09375 0.172454,0.02992 0.298006,0.055252 0.46875,0.09375 0.170744,0.038498 0.300142,0.04677 0.46875,0.09375 0.168608,0.04698 0.27145,0.100905 0.4375,0.15625 0.16605,0.055345 0.274422,0.092679 0.4375,0.15625 0.163078,0.063571 0.277802,0.115861 0.4375,0.1875 0.1597,0.071639 0.28158,0.107973 0.4375,0.1875 0.15592,0.079528 0.254498,0.131532 0.40625,0.21875 0.151752,0.087218 0.259044,0.15531 0.40625,0.25 0.147205,0.09469 0.263959,0.179324 0.40625,0.28125 0.142291,0.101926 0.237978,0.172343 0.375,0.28125 0.13702,0.108908 0.24359,0.196884 0.375,0.3125 0.13141,0.115617 0.21828,0.190463 0.34375,0.3125 0.12547,0.122038 0.193284,0.215597 0.3125,0.34375 0.11922,0.128153 0.19984,0.209801 0.3125,0.34375 0.112665,0.133946 0.206667,0.23559 0.3125,0.375 0.105832,0.13941 0.182514,0.230477 0.28125,0.375 0.09874,0.144523 0.15861,0.256975 0.25,0.406246 0.09139,0.14928 0.166179,0.252599 0.25,0.406254 0.08382,0.153655 0.14271,0.27985 0.21875,0.4375 0.07604,0.157646 0.119431,0.276248 0.1875,0.4375 0.06807,0.161253 0.09632,0.273049 0.15625,0.4375 0.05993,0.164452 0.10461,0.270256 0.15625,0.4375 0.05164,0.16724 0.08178,0.299139 0.125,0.46875 0.04322,0.169611 0.09031,0.297192 0.125,0.46875 0.03469,0.171558 0.03642,0.295673 0.0625,0.46875 0.02608,0.173077 0.0451,0.294586 0.0625,0.468746 0.0174,0.174168 0.02257,0.293939 0.03125,0.468754 0.0087,0.174815 0.03132,0.293719 0.03125,0.46875 -7.7e-5,0.17186 -0.02274,0.297101 -0.03125,0.46875 -0.0085,0.171649 -0.01433,0.297725 -0.03125,0.46875 -0.01692,0.171026 -0.03721,0.29876 -0.0625,0.46875 -0.02529,0.16999 -0.02891,0.268955 -0.0625,0.4375 -0.03359,0.168546 -0.05193,0.302056 -0.09375,0.46875 -0.04182,0.166694 -0.07505,0.273058 -0.125,0.4375 -0.04995,0.164442 -0.0983,0.275706 -0.15625,0.4375 -0.05795,0.161793 -0.09043,0.278744 -0.15625,0.4375 -0.06582,0.158756 -0.113971,0.282164 -0.1875,0.437496 -0.07353,0.15534 -0.137689,0.254712 -0.21875,0.406254 -0.08106,0.151542 -0.130353,0.258867 -0.21875,0.40625 -0.0884,0.147386 -0.15448,0.263376 -0.25,0.40625 -0.09552,0.14287 -0.178837,0.236988 -0.28125,0.375 -0.102414,0.138012 -0.17219,0.242178 -0.28125,0.374996 -0.10906,0.13283 -0.19706,0.216442 -0.3125,0.343754 -0.115444,0.127312 -0.19095,0.222254 -0.3125,0.34375 -0.121551,0.121496 -0.216386,0.197113 -0.34375,0.312496 -0.127364,0.11539 -0.21088,0.203503 -0.34375,0.312504 -0.132871,0.109001 -0.236942,0.178898 -0.375,0.28125 -0.138058,0.102352 -0.232088,0.154544 -0.375,0.25 -0.14291,0.09546 -0.25883,0.161666 -0.40625,0.249996 -0.147423,0.08833 -0.254672,0.169011 -0.40625,0.250004 -0.151578,0.08099 -0.250881,0.14529 -0.40625,0.21875 -0.155369,0.07346 -0.278715,0.12175 -0.4375,0.1875 -0.158785,0.06575 -0.275681,0.09837 -0.4375,0.15625 -0.16182,0.05788 -0.273036,0.106376 -0.4375,0.156246 -0.164464,0.04988 -0.270788,0.08325 -0.4375,0.125 -0.166712,0.04175 -0.30019,0.06023 -0.46875,0.09375 -0.16856,0.03352 -0.267499,0.03729 -0.4375,0.0625 -0.170001,0.02521 -0.29772,0.04566 -0.46875,0.0625 -0.171033,0.01684 -0.297097,0.02282 -0.46875,0.03125 -0.171653,0.0084 -0.29689,0.03125 -0.46875,0.03125 -0.17186,0 -0.297097,-0.02282 -0.46875,-0.03125 C 10.359597,20.45856 10.233533,20.45255 10.0625,20.43571 9.891467,20.41887 9.763751,20.39842 9.59375,20.37321 9.423749,20.348 9.32481,20.34423 9.15625,20.31071 8.98769,20.277194 8.854212,20.258714 8.6875,20.21696 8.520788,20.17521 8.414464,20.14184 8.25,20.09196 8.08554,20.04208 7.974319,19.993594 7.8125,19.935714 7.650681,19.877834 7.533785,19.845214 7.375,19.779464 7.216215,19.713714 7.092869,19.665424 6.9375,19.591964 6.782131,19.518504 6.682828,19.454207 6.53125,19.373214 6.379672,19.292224 6.272423,19.211545 6.125,19.12321 5.977577,19.03488 5.861662,18.96867 5.71875,18.873214 5.575838,18.777754 5.481808,18.725566 5.34375,18.623214 5.205692,18.520862 5.101621,18.450965 4.96875,18.341964 4.835879,18.232963 4.752364,18.14485 4.625,18.02946 4.497636,17.914077 4.4028,17.83846 4.28125,17.716964 4.1597,17.595468 4.084194,17.500526 3.96875,17.373214 3.853306,17.245902 3.76531,17.16229 3.65625,17.02946 3.54719,16.896642 3.477413,16.792476 3.375,16.654464 3.272587,16.516452 3.18927,16.422334 3.09375,16.279464 2.99823,16.13659 2.932147,16.0206 2.84375,15.873214 2.75535,15.725831 2.706061,15.618506 2.625,15.466964 2.54394,15.315422 2.47978,15.21605 2.40625,15.06071 2.33272,14.905378 2.284571,14.78197 2.21875,14.623214 2.15293,14.464458 2.12045,14.347507 2.0625,14.185714 2.00455,14.02392 1.956198,13.912656 1.90625,13.748214 1.8563,13.583772 1.82307,13.477408 1.78125,13.310714 1.73943,13.14402 1.72109,13.01051 1.6875,12.841964 1.65391,12.673419 1.65029,12.574454 1.625,12.404464 1.59971,12.234474 1.57942,12.10674 1.5625,11.935714 1.54558,11.764689 1.53976,11.638613 1.53125,11.466964 1.52275,11.295315 1.50008,11.170074 1.5,10.998214 1.499933,10.82934 1.52318,10.698145 1.53125,10.529464 1.53935,10.360783 1.54631,10.260059 1.5625,10.09196 1.57869,9.923869 1.5695,9.790333 1.59375,9.623214 1.61803,9.456095 1.65519,9.351469 1.6875,9.185714 1.71981,9.01996 1.74099,8.880969 1.78125,8.716964 1.82151,8.552959 1.85813,8.441338 1.90625,8.279464 1.95437,8.11759 1.97539,8.00133 2.03125,7.841964 2.08711,7.682598 2.12402,7.592203 2.1875,7.435714 2.25098,7.279226 2.304051,7.151461 2.375,6.998214 2.44595,6.844968 2.515496,6.741613 2.59375,6.591964 2.672,6.442316 2.727124,6.331417 2.8125,6.185714 2.89788,6.04001 2.9702,5.952132 3.0625,5.810714 3.1548,5.669296 3.213491,5.572519 3.3125,5.435714 3.41151,5.29891 3.488262,5.192587 3.59375,5.060714 3.699238,4.928841 3.763278,4.843599 3.875,4.716964 3.986722,4.590329 4.069803,4.494317 4.1875,4.373214 4.305197,4.252112 4.407853,4.176003 4.53125,4.060714 4.654647,3.945426 4.746189,3.857421 4.875,3.748214 5.00381,3.639008 5.084825,3.569835 5.21875,3.466964 5.352675,3.364094 5.455022,3.28201 5.59375,3.185714 5.732478,3.089418 5.825542,3.02521 5.96875,2.935714 6.111958,2.846217 6.227644,2.799454 6.375,2.716964 6.522356,2.634474 6.630089,2.573505 6.78125,2.498214 6.932411,2.422923 7.03289,2.378632 7.1875,2.310714 7.342114,2.242797 7.436042,2.1836 7.59375,2.123214 7.751458,2.062828 7.870814,2.01968 8.03125,1.966964 8.191686,1.91425 8.30596,1.886883 8.46875,1.841964 8.63154,1.797045 8.741484,1.753984 8.90625,1.716964 9.07102,1.679944 9.208641,1.683499 9.375,1.654464 9.541359,1.625429 9.644935,1.581696 9.8125,1.560714 c 0.167565,-0.020982 0.300368,-0.018369 0.46875,-0.03125 0.168382,-0.012881 0.268693,-0.0265 0.4375,-0.03125 0.174961,-0.00492 0.32501,-0.00382 0.5,0 z" id="path22" opacity="0.4" stroke="#000"/>
  <path d="m 11.5938,2.560714 c 0.384131,0.027639 0.46429,0.059166 0.84375,0.125 0.379455,0.065834 0.472758,0.084128 0.84375,0.1875 0.370992,0.103372 0.422426,0.110123 0.78125,0.25 0.358824,0.139877 0.438175,0.168763 0.78125,0.34375 0.343075,0.174987 0.39485,0.229151 0.71875,0.4375 0.3239,0.208349 0.386008,0.229119 0.6875,0.46875 0.301492,0.239631 0.348926,0.293978 0.625,0.5625 0.27607,0.268522 0.34585,0.330269 0.59375,0.625 0.2479,0.294731 0.282749,0.338252 0.5,0.65625 0.21725,0.317998 0.253067,0.41191 0.4375,0.75 0.184433,0.33809 0.225226,0.395193 0.375,0.75 0.149774,0.354806 0.16763,0.413268 0.28125,0.78125 0.11362,0.367982 0.14242,0.435016 0.21875,0.8125 0.07633,0.377484 0.08672,0.460533 0.125,0.84375 0.03828,0.383217 0.0314,0.458626 0.03125,0.84375 -1.69e-4,0.378147 0.006,0.436189 -0.03125,0.8125 -0.03722,0.376311 -0.05108,0.472897 -0.125,0.84375 -0.07392,0.370856 -0.10885,0.419426 -0.21875,0.78125 -0.109902,0.361825 -0.105172,0.431936 -0.25,0.78125 -0.144828,0.349314 -0.19664,0.416558 -0.375,0.75 -0.17836,0.333442 -0.196075,0.404391 -0.40625,0.71875 -0.210175,0.314356 -0.260032,0.363996 -0.5,0.65625 -0.239968,0.292252 -0.29505,0.357669 -0.5625,0.625 -0.26745,0.267331 -0.332641,0.322663 -0.625,0.5625 -0.29236,0.239837 -0.3418,0.258715 -0.65625,0.46875 -0.314453,0.210035 -0.385229,0.259289 -0.71875,0.4375 -0.333521,0.178211 -0.400621,0.199078 -0.75,0.34375 -0.349379,0.144672 -0.419376,0.17151 -0.78125,0.281246 -0.36187,0.10974 -0.41036,0.145 -0.78125,0.218754 -0.370886,0.07375 -0.467422,0.08795 -0.84375,0.125 -0.376328,0.03705 -0.434352,0.03125 -0.8125,0.03125 -0.378148,0 -0.436172,0.0058 -0.8125,-0.03125 -0.376328,-0.03705 -0.472864,-0.05125 -0.84375,-0.125 C 8.972914,19.20571 8.924424,19.17045 8.56255,19.06071 8.200676,18.950974 8.130679,18.924136 7.7813,18.779464 7.431921,18.634792 7.364821,18.613925 7.0313,18.435714 6.697779,18.257503 6.627003,18.208249 6.31255,17.998214 5.998097,17.788179 5.948659,17.769301 5.6563,17.529464 5.363941,17.289627 5.29875,17.234295 5.0313,16.966964 4.76385,16.699633 4.708768,16.634216 4.4688,16.341964 4.228832,16.04971 4.178975,16.00007 3.9688,15.685714 3.758625,15.371355 3.74091,15.300406 3.56255,14.966964 3.38419,14.633522 3.332378,14.566278 3.18755,14.216964 3.042722,13.86765 3.047452,13.797539 2.93755,13.435714 2.827648,13.07389 2.792718,13.02532 2.7188,12.654464 2.64488,12.283611 2.63102,12.187025 2.5938,11.810714 2.55658,11.434403 2.56272,11.376361 2.56255,10.998214 2.562403,10.626637 2.55815,10.555578 2.5938,10.185714 2.62943,9.81585 2.64772,9.737928 2.7188,9.373214 2.78988,9.0085 2.80043,8.948139 2.9063,8.591964 3.01217,8.235789 3.047873,8.155039 3.18755,7.810714 3.327227,7.466389 3.359117,7.421239 3.5313,7.091964 3.703483,6.762689 3.73446,6.68438 3.93755,6.373214 4.14064,6.06205 4.174191,6.00713 4.4063,5.716964 4.638409,5.4268 4.678579,5.389679 4.93755,5.123214 5.196521,4.856749 5.247874,4.801004 5.5313,4.560714 5.814726,4.320424 5.882303,4.272596 6.18755,4.060714 6.492797,3.848832 6.550819,3.804718 6.87505,3.623214 7.199281,3.44171 7.253598,3.428904 7.5938,3.279464 7.934002,3.130024 8.02204,3.082951 8.37505,2.966964 8.728061,2.850977 8.793761,2.82967 9.1563,2.748214 c 0.362539,-0.081456 0.412552,-0.078832 0.78125,-0.125 0.368698,-0.046168 0.44107,-0.052049 0.8125,-0.0625 0.384972,-0.010832 0.459619,-0.027639 0.84375,0 z" id="path24" opacity="0.4" stroke="url(#1)"/>
 </g>
 <metadata id="metadata9999">
  <rdf:RDF>
   <cc:Work>
    <dc:format>image/svg+xml</dc:format>
    <dc:type rdf:resource="http://purl.org/dc/dcmitype/StillImage"/>
    <dc:title>Ivy icon theme</dc:title>
    <cc:license rdf:resource="http://creativecommons.org/licenses/by-sa/4.0/"/>
    <dc:creator>
     <cc:Agent>
      <dc:title>Sixsixfive (sixsixfive.deviantart.com)</dc:title>
     </cc:Agent>
    </dc:creator>
    <dc:publisher>
     <cc:Agent>
      <dc:title>Sixsixfive (sixsixfive.deviantart.com)</dc:title>
     </cc:Agent>
    </dc:publisher>
    <dc:source>https://github.com/sixsixfive</dc:source>
    <dc:subject>
     <rdf:Bag>
      <rdf:li>ivy</rdf:li>
     </rdf:Bag>
    </dc:subject>
    <dc:contributor>
     <cc:Agent>
      <dc:title>ssf</dc:title>
     </cc:Agent>
    </dc:contributor>
    <dc:rights>
     <cc:Agent>
      <dc:title>Sixsixfive (sixisixfive.deviantart.com)</dc:title>
     </cc:Agent>
    </dc:rights>
    <dc:description>A simple icon theme published under CC-BY-SA_V4(http://creativecommons.org/licenses/by-sa/4.0)</dc:description>
    <dc:identifier>SSF</dc:identifier>
   </cc:Work>
  </rdf:RDF>
 </metadata>
 <!--Part of the Ivy icon them published under the CC-BY-SA_V4: http://creativecommons.org/licenses/by-sa/4.0 -->
</svg>
