<?xml version="1.0" encoding="UTF-8" standalone="no"?><svg xmlns:xlink="http://www.w3.org/1999/xlink" xmlns:cc="http://creativecommons.org/ns#" viewBox="0 0 48 48" version="1.1" id="svg2" xmlns:svg="http://www.w3.org/2000/svg" xmlns:rdf="http://www.w3.org/1999/02/22-rdf-syntax-ns#" xmlns="http://www.w3.org/2000/svg" xmlns:dc="http://purl.org/dc/elements/1.1/"><defs id="defs4"><linearGradient id="linearGradient4194"><stop stop-color="#fff" id="stop4196"/><stop offset="1" stop-opacity="0" stop-color="#fff" id="stop4198"/></linearGradient><linearGradient id="linearGradient4172"><stop stop-color="#ffb906" id="stop4174"/><stop offset="1" stop-color="#ffd60d" id="stop4176"/></linearGradient><linearGradient x2="0" gradientUnits="userSpaceOnUse" xlink:href="#linearGradient4172" y2="1045.3622" id="linearGradient4178" y1="1011.3622"/><linearGradient x2="0" gradientUnits="userSpaceOnUse" xlink:href="#linearGradient4194" y2="1044.3622" id="linearGradient4200" y1="1012.3622"/></defs><g id="layer1" transform="matrix(1 0 0 1 0 -1004.3622)"><path fill-rule="evenodd" opacity="0.1" id="rect4202" d="m 10,1012.3622 28,0 c 3.324,0 6,2.676 6,6 l 0,22 c 0,3.324 -2.676,6 -6,6 l -28,0 c -3.324,0 -6,-2.676 -6,-6 l 0,-22 c 0,-3.324 2.676,-6 6,-6 z"/><path fill-rule="evenodd" fill="url(#linearGradient4178)" id="rect3338" d="m 10,1011.3622 28,0 c 3.324,0 6,2.676 6,6 l 0,22 c 0,3.324 -2.676,6 -6,6 l -28,0 c -3.324,0 -6,-2.676 -6,-6 l 0,-22 c 0,-3.324 2.676,-6 6,-6 z"/><path fill-rule="evenodd" opacity="0.3" fill="#fff" id="path4180" d="m 9,1026.362 2,0 3,-5 3,5 2,0 -4,-7 -2,0 -4,7 z"/><path fill-rule="evenodd" opacity="0.4" fill="none" id="path3342" stroke="#000" d="m 10,1011.8984 c -3.0361989,0 -5.4628906,2.4267 -5.4628906,5.4629 l 0,22 c 0,3.0362 2.4266917,5.4629 5.4628906,5.4629 l 28,0 c 3.036199,0 5.462891,-2.4267 5.462891,-5.4629 l 0,-22 c 0,-3.0362 -2.426692,-5.4629 -5.462891,-5.4629 l -28,0 z"/><path fill-rule="evenodd" opacity="0.3" fill="#fff" id="path4184" d="m 29,1026.362 2,0 3,-5 3,5 2,0 -4,-7 -2,0 -4,7 z"/><path fill-rule="evenodd" fill="#171717" id="path3362" d="m 9,1025.3622 2,0 3,-5 3,5 2,0 -4,-7 -2,0 -4,7 z"/><path fill-rule="evenodd" opacity="0.3" fill="#fff" id="rect4188" d="m 19,1039.3622 10,0 0,2 -10,0 z"/><path fill-rule="evenodd" fill="#171717" id="path3366" d="m 29,1025.3622 2,0 3,-5 3,5 2,0 -4,-7 -2,0 -4,7 z"/><path fill-rule="evenodd" fill="#171717" id="rect3370" d="m 19,1038.3622 10,0 0,2 -10,0 z"/><path fill-rule="evenodd" opacity="0.5" fill="none" id="path4192" stroke="url(#linearGradient4200)" d="m 10,1012.8945 c -2.5055529,0 -4.4667969,1.9613 -4.4667969,4.4668 l 0,22 c 0,2.5056 1.961244,4.4668 4.4667969,4.4668 l 28,0 c 2.505553,0 4.466797,-1.9612 4.466797,-4.4668 l 0,-22 c 0,-2.5055 -1.961244,-4.4668 -4.466797,-4.4668 l -28,0 z"/></g><metadata id="metadata9999"><rdf:RDF><cc:Work><dc:format>image/svg+xml</dc:format><dc:type rdf:resource="http://purl.org/dc/dcmitype/StillImage"/><dc:title>Ivy icon theme</dc:title><cc:license rdf:resource="http://creativecommons.org/licenses/by-sa/4.0/"/><dc:creator><cc:Agent><dc:title>Sixsixfive (sixsixfive.deviantart.com)</dc:title></cc:Agent></dc:creator><dc:publisher><cc:Agent><dc:title>Sixsixfive (sixsixfive.deviantart.com)</dc:title></cc:Agent></dc:publisher><dc:source>https://github.com/sixsixfive</dc:source><dc:subject><rdf:Bag><rdf:li>ivy</rdf:li></rdf:Bag></dc:subject><dc:contributor><cc:Agent><dc:title>ssf</dc:title></cc:Agent></dc:contributor><dc:rights><cc:Agent><dc:title>Sixsixfive (sixisixfive.deviantart.com)</dc:title></cc:Agent></dc:rights><dc:description>A simple icon theme published under CC-BY-SA_V4(http://creativecommons.org/licenses/by-sa/4.0)</dc:description><dc:identifier>SSF</dc:identifier></cc:Work></rdf:RDF></metadata><!--Part of the Ivy icon them published under the CC-BY-SA_V4: http://creativecommons.org/licenses/by-sa/4.0 -->
</svg>