<?xml version="1.0" encoding="UTF-8" standalone="no"?><svg xmlns:rdf="http://www.w3.org/1999/02/22-rdf-syntax-ns#" xmlns:cc="http://creativecommons.org/ns#" xmlns:svg="http://www.w3.org/2000/svg" id="svg2" viewBox="0 0 48 48" version="1.1" xmlns:xlink="http://www.w3.org/1999/xlink" xmlns:dc="http://purl.org/dc/elements/1.1/" xmlns="http://www.w3.org/2000/svg"><defs id="0"><linearGradient id="linearGradient4159"><stop id="stop4161" stop-color="#fff"/><stop offset="1" id="stop4163" stop-color="#fff" stop-opacity="0"/></linearGradient><linearGradient id="linearGradient4165" x2="45.49" y2="37.841" gradientTransform="matrix(1 0 0 1 -0.5 0)" xlink:href="#linearGradient4159" x1="45.561" y1="10.05" gradientUnits="userSpaceOnUse"/></defs><path id="rect4167" opacity="0.1" d="m 1,10 45,0 0,30 -45,0 z"/><path id="9" d="M 1,9 46,9 46,39 1,39 Z" fill="#5288d1"/><g id="g4184" transform="matrix(1 0 0 -1 0 48)"><path stroke-linecap="butt" id="path4186" d="M 20,20 1,9 l 0,7 7,4 12,0" stroke-width="1" stroke="none" stroke-linejoin="miter" fill-rule="evenodd" fill="#ebebeb" stroke-opacity="1"/><path stroke-linecap="butt" id="path4188" d="m 1,11 0,2 13,7 3,0" stroke-width="1" stroke="none" stroke-linejoin="miter" fill-rule="evenodd" fill="#d02604" stroke-opacity="1"/></g><path id="rect4437" d="m 1,20 45,0 0,8 -45,0 z" fill="#ebebeb"/><g id="g4178" transform="matrix(-1 0 0 -1 47 48)"><path stroke-linecap="butt" id="path4180" d="M 20,20 1,9 l 0,7 7,4 12,0" stroke-width="1" stroke="none" stroke-linejoin="miter" fill-rule="evenodd" fill="#ebebeb" stroke-opacity="1"/><path stroke-linecap="butt" id="path4182" d="m 1,12 0,2 10,6 3,0" stroke-width="1" stroke="none" stroke-linejoin="miter" fill-rule="evenodd" fill="#d02604" stroke-opacity="1"/></g><path id="rect4616" d="m 28,9 0,30 -8,0 0,-30 z" fill="#ebebeb"/><g id="g4168"><path stroke-linecap="butt" id="path4164" d="M 20,20 1,9 l 0,7 7,4 12,0" stroke-width="1" stroke="none" stroke-linejoin="miter" fill-rule="evenodd" fill="#ebebeb" stroke-opacity="1"/><path stroke-linecap="butt" id="path4166" d="m 1,12 0,2 10,6 3,0" stroke-width="1" stroke="none" stroke-linejoin="miter" fill-rule="evenodd" fill="#d02604" stroke-opacity="1"/></g><g id="g4172" transform="matrix(-1 0 0 1 47 0)"><path stroke-linecap="butt" id="path4174" d="M 20,20 1,9 l 0,7 7,4 12,0" stroke-width="1" stroke="none" stroke-linejoin="miter" fill-rule="evenodd" fill="#ebebeb" stroke-opacity="1"/><path stroke-linecap="butt" id="path4176" d="m 1,11 0,2 13,7 3,0" stroke-width="1" stroke="none" stroke-linejoin="miter" fill-rule="evenodd" fill="#d02604" stroke-opacity="1"/></g><path id="C" opacity="0.4" d="m 1.53125,9.53125 0,28.9375 43.9375,0 0,-28.9375 -43.9375,0 z" stroke="#000" fill="none"/><path id="path4157" opacity="0.4" d="m 2.5117188,10.511719 0,26.976562 41.9765622,0 0,-26.976562 -41.9765622,0 z" stroke="url(#linearGradient4165)" fill="none"/><path id="rect4622" d="m 26,9 0,30 -4,0 0,-30 z" fill="#d02604"/><path id="rect4624" d="M 45.969002,26 1,26 1,22 45.969002,22 Z" fill="#d02604"/><metadata id="metadata9999"><rdf:RDF><cc:Work><dc:format>image/svg+xml</dc:format><dc:type rdf:resource="http://purl.org/dc/dcmitype/StillImage"/><dc:title/><cc:license rdf:resource="http://creativecommons.org/licenses/by-sa/4.0/"/><dc:creator><cc:Agent><dc:title>Sixsixfive (sixsixfive.deviantart.com)</dc:title></cc:Agent></dc:creator><dc:publisher><cc:Agent><dc:title>Sixsixfive (sixsixfive.deviantart.com)</dc:title></cc:Agent></dc:publisher><dc:source>https://github.com/sixsixfive</dc:source><dc:subject><rdf:Bag><rdf:li>ivy</rdf:li></rdf:Bag></dc:subject><dc:contributor><cc:Agent><dc:title>ssf</dc:title></cc:Agent></dc:contributor><dc:rights><cc:Agent><dc:title>Sixsixfive (sixisixfive.deviantart.com)</dc:title></cc:Agent></dc:rights><dc:description>A simple icon theme published under CC-BY-SA_V4(http://creativecommons.org/licenses/by-sa/4.0)</dc:description><dc:identifier>SSF</dc:identifier></cc:Work></rdf:RDF></metadata><!--Part of the Ivy icon them published under the CC-BY-SA_V4: http://creativecommons.org/licenses/by-sa/4.0 -->
</svg>