<?xml version="1.0" encoding="UTF-8" standalone="no"?><svg viewBox="0 0 48 48" xmlns="http://www.w3.org/2000/svg" xmlns:svg="http://www.w3.org/2000/svg" xmlns:rdf="http://www.w3.org/1999/02/22-rdf-syntax-ns#" xmlns:xlink="http://www.w3.org/1999/xlink" version="1.1" id="svg2" xmlns:dc="http://purl.org/dc/elements/1.1/" xmlns:cc="http://creativecommons.org/ns#"><defs id="0"><linearGradient id="linearGradient4159"><stop id="stop4161" stop-color="#fff"/><stop stop-opacity="0" offset="1" id="stop4163" stop-color="#fff"/></linearGradient><linearGradient x1="45.561" xlink:href="#linearGradient4159" y1="10.05" x2="45.49" y2="37.841" gradientTransform="matrix(1 0 0 1 -0.5 0)" id="linearGradient4165" gradientUnits="userSpaceOnUse"/></defs><rect y="10" x="1" opacity="0.1" height="30" id="rect4167" width="45"/><rect y="9" x="1" height="30" id="9" width="45" fill="#5288d1"/><rect y="15" x="1" height="6" id="A" width="45" fill="#fff"/><rect y="26" x="1" height="6" id="B" width="45" fill="#fff"/><path id="rect4163" d="M 1,9 21,24 C 1,39 21,24 1,39 Z" fill="#d02604"/><path stroke="#000" opacity="0.4" id="C" d="m 1.53125,9.53125 0,28.9375 43.9375,0 0,-28.9375 -43.9375,0 z" fill="none"/><path stroke="url(#linearGradient4165)" opacity="0.3" id="path4157" d="m 2.5117188,10.511719 0,26.976562 41.9765622,0 0,-26.976562 -41.9765622,0 z" fill="none"/><path stroke-linecap="round" transform="matrix(1.1043129 -0.05620147 0.05391584 1.1511275 -2.1536164 -3.3981252)" id="path3359" stroke-miterlimit="0" d="M 11.854678,26.602621 9.7994558,24.971617 7.6195426,26.431785 8.5356207,23.973145 6.4732884,22.351141 9.0946782,22.462621 9.9999999,20 l 0.7040301,2.527539 2.621852,0.10002 -2.186276,1.450625 z" fill="#fff"/><metadata id="metadata9999"><rdf:RDF><cc:Work><dc:format>image/svg+xml</dc:format><dc:type rdf:resource="http://purl.org/dc/dcmitype/StillImage"/><dc:title>Ivy icon theme</dc:title><cc:license rdf:resource="http://creativecommons.org/licenses/by-sa/4.0/"/><dc:creator><cc:Agent><dc:title>Sixsixfive (sixsixfive.deviantart.com)</dc:title></cc:Agent></dc:creator><dc:publisher><cc:Agent><dc:title>Sixsixfive (sixsixfive.deviantart.com)</dc:title></cc:Agent></dc:publisher><dc:source>https://github.com/sixsixfive</dc:source><dc:subject><rdf:Bag><rdf:li>ivy</rdf:li></rdf:Bag></dc:subject><dc:contributor><cc:Agent><dc:title>ssf</dc:title></cc:Agent></dc:contributor><dc:rights><cc:Agent><dc:title>Sixsixfive (sixisixfive.deviantart.com)</dc:title></cc:Agent></dc:rights><dc:description>A simple icon theme published under CC-BY-SA_V4(http://creativecommons.org/licenses/by-sa/4.0)</dc:description><dc:identifier>SSF</dc:identifier></cc:Work></rdf:RDF></metadata><!--Part of the Ivy icon them published under the CC-BY-SA_V4: http://creativecommons.org/licenses/by-sa/4.0 -->
</svg>