<?xml version="1.0" encoding="UTF-8" standalone="no"?><svg xmlns:svg="http://www.w3.org/2000/svg" viewBox="0 0 48 48" xmlns="http://www.w3.org/2000/svg" xmlns:rdf="http://www.w3.org/1999/02/22-rdf-syntax-ns#" xmlns:xlink="http://www.w3.org/1999/xlink" version="1.1" id="svg2" xmlns:dc="http://purl.org/dc/elements/1.1/" xmlns:cc="http://creativecommons.org/ns#"><defs id="0"><linearGradient id="linearGradient4159"><stop id="stop4161" stop-color="#fff"/><stop stop-opacity="0" offset="1" id="stop4163" stop-color="#fff"/></linearGradient><linearGradient x1="45.561" xlink:href="#linearGradient4159" y1="10.05" x2="45.49" y2="37.841" id="linearGradient4165" gradientTransform="matrix(1 0 0 1 -0.5 0)" gradientUnits="userSpaceOnUse"/></defs><path opacity="0.1" id="rect4167" d="m 1,10 45,0 0,30 -45,0 z"/><path id="9" d="M 1,9 46,9 46,39 1,39 Z" fill="#66b03e"/><path stroke-linejoin="miter" stroke="none" stroke-opacity="1" stroke-width="1" stroke-linecap="butt" fill-opacity="1" id="path4149" fill-rule="evenodd" d="M 46,11 46,37 26,24 Z" fill="#323232"/><path stroke-linejoin="miter" stroke="none" stroke-opacity="1" stroke-width="1" stroke-linecap="butt" fill-opacity="1" id="path3347" fill-rule="evenodd" d="M 1,11 1,37 21,24 Z" fill="#323232"/><path stroke-linejoin="miter" stroke="none" stroke-opacity="1" stroke-width="1" stroke-linecap="butt" id="path3382" fill-rule="evenodd" d="M 46,12 6,39 1,39 1,36 42,9 46,9 Z" fill="#ffd506"/><path stroke-linejoin="miter" stroke="none" stroke-opacity="1" stroke-width="1" stroke-linecap="butt" id="path3359" fill-rule="evenodd" d="m 1,12 40,27 5,0 0,-3 L 5,9 1,9 Z" fill="#ffd506"/><path stroke="#000" opacity="0.4" id="C" d="m 1.53125,9.53125 0,28.9375 43.9375,0 0,-28.9375 -43.9375,0 z" fill="none"/><path stroke="url(#linearGradient4165)" opacity="0.4" id="path4157" d="m 2.5117188,10.511719 0,26.976562 41.9765622,0 0,-26.976562 -41.9765622,0 z" fill="none"/><metadata id="metadata9999"><rdf:RDF><cc:Work><dc:format>image/svg+xml</dc:format><dc:type rdf:resource="http://purl.org/dc/dcmitype/StillImage"/><dc:title/><cc:license rdf:resource="http://creativecommons.org/licenses/by-sa/4.0/"/><dc:creator><cc:Agent><dc:title>Sixsixfive (sixsixfive.deviantart.com)</dc:title></cc:Agent></dc:creator><dc:publisher><cc:Agent><dc:title>Sixsixfive (sixsixfive.deviantart.com)</dc:title></cc:Agent></dc:publisher><dc:source>https://github.com/sixsixfive</dc:source><dc:subject><rdf:Bag><rdf:li>ivy</rdf:li></rdf:Bag></dc:subject><dc:contributor><cc:Agent><dc:title>ssf</dc:title></cc:Agent></dc:contributor><dc:rights><cc:Agent><dc:title>Sixsixfive (sixisixfive.deviantart.com)</dc:title></cc:Agent></dc:rights><dc:description>A simple icon theme published under CC-BY-SA_V4(http://creativecommons.org/licenses/by-sa/4.0)</dc:description><dc:identifier>SSF</dc:identifier></cc:Work></rdf:RDF></metadata><!--Part of the Ivy icon them published under the CC-BY-SA_V4: http://creativecommons.org/licenses/by-sa/4.0 -->
</svg>