<?xml version="1.0" encoding="UTF-8" standalone="no"?><svg viewBox="0 0 22 22" xmlns="http://www.w3.org/2000/svg" xmlns:svg="http://www.w3.org/2000/svg" xmlns:rdf="http://www.w3.org/1999/02/22-rdf-syntax-ns#" xmlns:xlink="http://www.w3.org/1999/xlink" version="1.1" id="svg2" xmlns:dc="http://purl.org/dc/elements/1.1/" xmlns:cc="http://creativecommons.org/ns#"><defs id="0"><linearGradient id="linearGradient3783"><stop id="stop3785" stop-color="#fff"/><stop stop-opacity="0" offset="1" id="stop3787" stop-color="#fff"/></linearGradient><linearGradient xlink:href="#linearGradient3783" y1="32" x2="0" y2="42" id="linearGradient3789" gradientUnits="userSpaceOnUse"/></defs><g transform="matrix(1 0 0 1 -0.5 -26)" id="1"><path opacity="0.1" id="rect3791" d="m 2.5,32 18,0 0,12 -18,0 z"/><path id="9" d="m 2.5,31 18,0 0,12 -18,0 z" fill="#ffd506"/><path id="rect4682" d="m 2.5,37 18,0 0,6 -18,0 z" fill="#d02604"/><path id="B" d="m 2.5,31 6,0 0,12 -6,0 z" fill="#66b03e"/><path stroke="#000" opacity="0.4" id="path3011" d="m 3,31.5 0,11 17,0 0,-11 -17,0 z" fill="none"/><path stroke="url(#linearGradient3789)" opacity="0.4" id="path3013" d="m 4,32.5 0,9 15,0 0,-9 -15,0 z" fill="none"/></g><metadata id="metadata9999"><rdf:RDF><cc:Work><dc:format>image/svg+xml</dc:format><dc:type rdf:resource="http://purl.org/dc/dcmitype/StillImage"/><dc:title>Ivy icon theme</dc:title><cc:license rdf:resource="http://creativecommons.org/licenses/by-sa/4.0/"/><dc:creator><cc:Agent><dc:title>Sixsixfive (sixsixfive.deviantart.com)</dc:title></cc:Agent></dc:creator><dc:publisher><cc:Agent><dc:title>Sixsixfive (sixsixfive.deviantart.com)</dc:title></cc:Agent></dc:publisher><dc:source>https://github.com/sixsixfive</dc:source><dc:subject><rdf:Bag><rdf:li>ivy</rdf:li></rdf:Bag></dc:subject><dc:contributor><cc:Agent><dc:title>ssf</dc:title></cc:Agent></dc:contributor><dc:rights><cc:Agent><dc:title>Sixsixfive (sixisixfive.deviantart.com)</dc:title></cc:Agent></dc:rights><dc:description>A simple icon theme published under CC-BY-SA_V4(http://creativecommons.org/licenses/by-sa/4.0)</dc:description><dc:identifier>SSF</dc:identifier></cc:Work></rdf:RDF></metadata><!--Part of the Ivy icon them published under the CC-BY-SA_V4: http://creativecommons.org/licenses/by-sa/4.0 -->
</svg>