<?xml version="1.0" encoding="UTF-8" standalone="no"?><svg xmlns:rdf="http://www.w3.org/1999/02/22-rdf-syntax-ns#" xmlns:cc="http://creativecommons.org/ns#" xmlns:svg="http://www.w3.org/2000/svg" id="svg2" viewBox="0 0 22 22" version="1.1" xmlns:xlink="http://www.w3.org/1999/xlink" xmlns:dc="http://purl.org/dc/elements/1.1/" xmlns="http://www.w3.org/2000/svg"><defs id="defs4"><linearGradient id="0" x2="0" y2="19.742" xlink:href="#5" y1="7.919" gradientUnits="userSpaceOnUse"/><linearGradient id="1" x2="21" y2="20" x1="21.06" y1="6.02" gradientUnits="userSpaceOnUse"><stop id="stop8" stop-color="#5288d1"/><stop offset="1" id="stop10" stop-color="#8eb1e1"/></linearGradient><linearGradient id="2" x2="0" y2="20.922" y1="6.919" gradientUnits="userSpaceOnUse"><stop id="stop13" stop-color="#66b03e"/><stop offset="1" id="stop15" stop-color="#95ce76"/></linearGradient><linearGradient id="3" x2="0" y2="20" xlink:href="#5" y1="5" gradientUnits="userSpaceOnUse"/><linearGradient id="4" x2="0.21" y2="12.03" x1="2.028" y1="2.034" gradientUnits="userSpaceOnUse"><stop id="stop19" stop-color="#eeeeec"/><stop offset="1" id="stop21" stop-color="#555753"/></linearGradient><linearGradient id="5"><stop id="stop24" stop-color="#fff"/><stop offset="1" id="stop26" stop-color="#fff" stop-opacity="0"/></linearGradient><linearGradient id="6" x2="0" y2="19.307" xlink:href="#5" y1="4.761" gradientUnits="userSpaceOnUse"/></defs><g id="g29" color="#000"><g id="g31" fill-rule="evenodd"><path id="path33" opacity="0.1" d="m 3.047617,2.860371 c -0.251825,0 -0.361032,0.220743 -0.454557,0.454556 l -0.539831,1.36367 -0.511377,0 c -0.251824,0 -0.454556,0.202732 -0.454556,0.454557 l 0,15.412284 C 1.087296,20.79726 1.290028,21 1.541852,21 l 19.09138,0 c 0.251824,0 0.454558,-0.20274 0.454558,-0.454562 l 0,-15.412284 c 0,-0.251825 -0.202734,-0.454557 -0.454558,-0.454557 l -10.227525,0 -0.539831,-1.36367 C 9.772351,3.081114 9.663143,2.860371 9.411319,2.860371 l -6.363793,0 z"/><path id="path35" d="m 3.047617,2.076704 c -0.251825,0 -0.361032,0.220744 -0.454557,0.454557 l -0.539831,1.36367 -0.511377,0 c -0.251824,0 -0.454556,0.202732 -0.454556,0.454556 l 0,15.412293 c 0,0.25182 0.202732,0.45456 0.454556,0.45456 l 19.09138,0 c 0.251824,0 0.454558,-0.20274 0.454558,-0.45456 l 0,-15.412293 c 0,-0.251824 -0.202734,-0.454556 -0.454558,-0.454556 l -10.227525,0 -0.539831,-1.36367 C 9.772351,2.297448 9.663143,2.076704 9.411319,2.076704 l -6.363793,0 z" fill="url(#4)"/></g><g id="g37" fill="none"><path id="path39" opacity="0.4" d="M 3.09375,2.5625 C 2.847241,3.112129 2.707235,3.730741 2.40625,4.25 2.217174,4.557857 1.635589,4.228246 1.5625,4.5 l 0,15.21875 19.03125,0 0,-15.3125 C 17.1618,4.39941 13.743352,4.398924 10.3125,4.375 9.827029,4.224431 9.847486,3.599692 9.625,3.21875 9.481738,2.900849 9.424966,2.420177 8.96875,2.5625 l -5.875,0 z" stroke="#000"/><path id="path41" opacity="0.4" d="M 3.78125,3.5625 C 3.651757,3.870313 3.54669,4.241835 3.375,4.5625 3.202588,4.884514 2.953506,5.152054 2.5625,5.28125 l 0,13.46875 17.0625,0 0,-13.375 c -3.117823,-0.00398 -6.224701,0.015677 -9.34375,0 C 9.863259,5.353539 9.545702,5.155934 9.3125,4.875 9.0793,4.594066 8.920174,4.23736 8.8125,3.90625 a 0.1007,0.1007 0 0 1 0,-0.03125 C 8.793727,3.704416 8.741985,3.638394 8.65625,3.59375 8.570515,3.549106 8.440909,3.536056 8.28125,3.5625 a 0.1007,0.1007 0 0 1 -0.03125,0 l -4.46875,0 z" stroke="url(#6)"/></g><path id="path43" d="m 11.812012,6 c -0.18887,0 -0.301553,0.120934 -0.383531,0.278481 -0.02726,0.052511 -0.04761,0.10979 -0.07103,0.167088 L 11.00248,7.736646 10.633199,8.627785 c -0.02336,0.057303 -0.04369,0.114572 -0.07102,0.167088 -0.08197,0.157545 -0.198981,0.317857 -0.383528,0.278477 l -4.176241,0 -2.187552,0 -2.72734,0 -1.09e-4,10.697417 c -2e-6,0.246843 0.202733,0.445573 0.454557,0.445573 l 19.09138,0 c 0.251822,0 0.454554,-0.19873 0.454554,-0.445573 l 0,-13.325198 C 21.0879,6.198723 20.869528,6.08564 20.633346,6 L 18.1759,6 14.2695,6 Z" fill-rule="evenodd" fill="url(#1)"/><path id="path45" opacity="0.4" d="M 11.90625,6.53125 C 11.65973,7.130617 11.622868,7.830828 11.307357,8.41825 11.08583,8.936495 10.862062,9.668555 10.162593,9.607284 7.318545,9.575783 4.470563,9.602744 1.625,9.59375 c 0,3.364583 0,6.729167 0,10.09375 6.3125,0 12.625,0 18.9375,0 0,-4.375 0,-8.75 0,-13.125 -0.739737,-0.072509 -1.51118,-0.01072 -2.263186,-0.03125 -2.131024,0 -4.262044,0 -6.393064,0 z" stroke="#000" fill="none"/></g><path id="path47" opacity="0.1" d="M 6 14.9491 L 9.961 14.9387 V 7.9531 H 17.9649 V 14.9387 H 22 L 14.0003 22 z"/><path id="path49" opacity="0.4" d="M 12.625 7.5 C 12.54079 7.874716 12.456902 8.238695 12.1875 8.78125 H 12.21875 C 12.20935 8.803202 12.16628 8.850125 12.15625 8.875 12.065 9.101361 11.94934 9.420332 11.6875 9.78125 11.411273 10.161998 10.810005 10.543675 10.15625 10.53125 V 10.5625 C 10.12518 10.562156 10.09358 10.562827 10.0625 10.5625 7.586777 10.53645 5.09132 10.561944 2.59375 10.5625 V 18.71875 H 19.59375 V 7.53125 C 19.1783 7.53216 18.793135 7.511863 18.3125 7.5 18.30078 7.499711 18.293 7.500321 18.28125 7.5 H 12.625 z" stroke="url(#3)" fill="none" color="#000"/><path id="path51" opacity="0.1" d="M 6 12.9491 L 9.961 12.9387 V 5.9531 H 17.9649 V 12.9387 H 22 L 14.0003 20 z"/><path id="path53" d="M 6 13.9491 L 9.961 13.9387 V 6.9531 H 17.9649 V 13.9387 H 22 L 14.0003 21 z" fill="url(#2)"/><g id="g55" fill="none"><path id="path57" opacity="0.45" d="m 13.999979,20.386606 -6.7812,-5.9688 2.75,0 c 0.244046,-0.005 0.463789,-0.224704 0.46875,-0.46875 l 0,-6.53125 7.05605,0 0,6.53125 c 0.005,0.244046 0.224704,0.463789 0.46875,0.46875 l 2.81895,0 z" stroke="#000"/><path id="path59" opacity="0.35" d="m 13.999979,19.07411 -4.125,-3.656254 0.09375,0 a 1.46608,1.46608 0 0 0 1.46875,-1.46875 l 0,-5.53125 5.15625,0 0,5.53125 a 1.46608,1.46608 0 0 0 1.468751,1.46875 l 0.0625,0 -4.125001,3.656254 z" stroke="url(#0)"/></g><metadata id="metadata9999"><rdf:RDF><cc:Work><dc:format>image/svg+xml</dc:format><dc:type rdf:resource="http://purl.org/dc/dcmitype/StillImage"/><dc:title>Ivy icon theme</dc:title><cc:license rdf:resource="http://creativecommons.org/licenses/by-sa/4.0/"/><dc:creator><cc:Agent><dc:title>Sixsixfive (sixsixfive.deviantart.com)</dc:title></cc:Agent></dc:creator><dc:publisher><cc:Agent><dc:title>Sixsixfive (sixsixfive.deviantart.com)</dc:title></cc:Agent></dc:publisher><dc:source>https://github.com/sixsixfive</dc:source><dc:subject><rdf:Bag><rdf:li>ivy</rdf:li></rdf:Bag></dc:subject><dc:contributor><cc:Agent><dc:title>ssf</dc:title></cc:Agent></dc:contributor><dc:rights><cc:Agent><dc:title>Sixsixfive (sixisixfive.deviantart.com)</dc:title></cc:Agent></dc:rights><dc:description>A simple icon theme published under CC-BY-SA_V4(http://creativecommons.org/licenses/by-sa/4.0)</dc:description><dc:identifier>SSF</dc:identifier></cc:Work></rdf:RDF></metadata><!--Part of the Ivy icon them published under the CC-BY-SA_V4: http://creativecommons.org/licenses/by-sa/4.0 -->
</svg>