<?xml version="1.0" encoding="UTF-8" standalone="no"?>
<svg xmlns:dc="http://purl.org/dc/elements/1.1/" xmlns:cc="http://creativecommons.org/ns#" xmlns:rdf="http://www.w3.org/1999/02/22-rdf-syntax-ns#" xmlns:svg="http://www.w3.org/2000/svg" xmlns="http://www.w3.org/2000/svg" xmlns:xlink="http://www.w3.org/1999/xlink" version="1.1" viewBox="0 0 22 22" id="svg2">
 <defs id="defs4">
  <linearGradient gradientUnits="userSpaceOnUse" x2="0" y2="20" y1="5" xlink:href="#3" id="0"/>
  <linearGradient gradientUnits="userSpaceOnUse" x2="21" y2="20" x1="21.06" y1="6.02" id="1">
   <stop id="stop8" stop-color="#5288d1"/>
   <stop id="stop10" stop-color="#8eb1e1" offset="1"/>
  </linearGradient>
  <linearGradient gradientUnits="userSpaceOnUse" x2="0" y2="19.307" y1="4.761" xlink:href="#3" id="2"/>
  <linearGradient id="3">
   <stop id="stop14" stop-color="#fff"/>
   <stop id="stop16" stop-opacity="0" stop-color="#fff" offset="1"/>
  </linearGradient>
  <linearGradient gradientUnits="userSpaceOnUse" x2="0.21" y2="12.03" x1="2.028" y1="2.034" id="4">
   <stop id="stop19" stop-color="#eeeeec"/>
   <stop id="stop21" stop-color="#555753" offset="1"/>
  </linearGradient>
  <linearGradient id="A-1" y1="9.966" y2="41.29" x2="0" gradientUnits="userSpaceOnUse" gradientTransform="matrix(0.41466 0 0 0.44697 -3.554 -3.455)">
   <stop stop-color="#66b03e" id="P-5"/>
   <stop offset="1" stop-color="#abd992" id="Q-6"/>
  </linearGradient>
  <linearGradient id="B-5" y1="9.966" y2="41.29" x2="0" gradientUnits="userSpaceOnUse" gradientTransform="matrix(0.41466 0 0 0.44697 -3.554 -3.455)">
   <stop stop-color="#5288d1" id="R-1"/>
   <stop offset="1" stop-color="#9fbde5" id="S-0"/>
  </linearGradient>
  <linearGradient id="D-7" y1="9.966" y2="41.29" x2="0" gradientUnits="userSpaceOnUse" gradientTransform="matrix(0.41466 0 0 0.44697 -3.554 -3.455)">
   <stop stop-color="#d02604" id="V-1"/>
   <stop offset="1" stop-color="#fc8068" id="W-1"/>
  </linearGradient>
  <linearGradient id="E-6" xlink:href="#D-7" y1="9.966" y2="41.29" x2="0" gradientUnits="userSpaceOnUse" gradientTransform="matrix(0.14809286,0,0,0.15963214,-1.626429,-1.591072)"/>
  <linearGradient id="F-9" xlink:href="#A-1" y1="9.966" y2="41.29" x2="0" gradientUnits="userSpaceOnUse" gradientTransform="matrix(0.14809285,0,0,0.15963213,8.373572,8.408929)"/>
  <linearGradient id="I-1" xlink:href="#B-5" y1="9.966" y2="41.29" x2="0" gradientUnits="userSpaceOnUse" gradientTransform="matrix(0.14809268,0,0,0.15963195,3.373579,3.408899)"/>
 </defs>
 <g id="g23" color="#000">
  <g id="g25" fill-rule="evenodd">
   <path id="path27" d="m 3.047617,2.860371 c -0.251825,0 -0.361032,0.220744 -0.454557,0.454557 l -0.539832,1.36367 -0.511376,0 c -0.251824,0 -0.454557,0.202732 -0.454557,0.454557 l 0,15.412284 C 1.087296,20.79726 1.290028,21 1.541852,21 l 19.09138,0 c 0.251824,0 0.454557,-0.20274 0.454557,-0.454562 l 0,-15.412284 c 0,-0.251824 -0.202733,-0.454557 -0.454557,-0.454557 l -10.227525,0 -0.539831,-1.36367 C 9.772351,3.081114 9.663143,2.860371 9.411319,2.860371 l -6.363793,0 z" opacity="0.1"/>
   <path id="path29" d="m 3.047617,2.076704 c -0.251825,0 -0.361032,0.220744 -0.454557,0.454556 l -0.539832,1.36367 -0.511376,0 c -0.251824,0 -0.454557,0.202732 -0.454557,0.454557 l 0,15.412293 c 0,0.251822 0.202732,0.454555 0.454557,0.454555 l 19.09138,0 c 0.251824,0 0.454557,-0.202733 0.454557,-0.454555 l 0,-15.412293 c 0,-0.251824 -0.202733,-0.454556 -0.454557,-0.454556 l -10.227525,0 -0.539831,-1.36367 C 9.772351,2.297448 9.663143,2.076704 9.411319,2.076704 l -6.363793,0 z" fill="url(#4)"/>
  </g>
  <g id="g31" fill="none">
   <path id="path33" d="M 3.09375,2.5625 C 2.847241,3.112129 2.707235,3.730741 2.40625,4.25 2.217174,4.557857 1.635589,4.228246 1.5625,4.5 l 0,15.21875 19.03125,0 0,-15.3125 C 17.1618,4.39941 13.743352,4.398924 10.3125,4.375 9.827029,4.224431 9.847486,3.599692 9.625,3.21875 9.481738,2.900849 9.424966,2.420177 8.96875,2.5625 l -5.875,0 z" opacity="0.4" stroke="#000"/>
   <path id="path35" d="M 3.78125,3.5625 C 3.651757,3.870313 3.54669,4.241835 3.375,4.5625 3.202588,4.884514 2.953506,5.152054 2.5625,5.28125 l 0,13.46875 17.0625,0 0,-13.375 c -3.117823,-0.00398 -6.224701,0.015677 -9.34375,0 C 9.863259,5.353539 9.545702,5.155934 9.3125,4.875 9.0793,4.594066 8.920174,4.23736 8.8125,3.90625 a 0.1007,0.1007 0 0 1 0,-0.03125 C 8.793727,3.704416 8.741985,3.638394 8.65625,3.59375 8.570515,3.549106 8.440909,3.536056 8.28125,3.5625 a 0.1007,0.1007 0 0 1 -0.03125,0 l -4.46875,0 z" opacity="0.4" stroke="url(#2)"/>
  </g>
  <path id="path37" d="m 11.812012,6 c -0.18887,0 -0.301553,0.120934 -0.383531,0.278481 -0.02726,0.052511 -0.04761,0.10979 -0.07103,0.167088 L 11.00248,7.736646 10.633199,8.627785 c -0.02336,0.057303 -0.04369,0.114573 -0.07102,0.167089 -0.08197,0.157545 -0.198981,0.317857 -0.383528,0.278481 l -4.176239,0 -2.187554,0 -2.72734,0 -1.09e-4,10.697413 c -2e-6,0.246843 0.202732,0.445568 0.454557,0.445568 l 19.09138,0 c 0.251822,0 0.454558,-0.198725 0.454558,-0.445568 l 0,-13.325198 C 21.0879,6.198723 20.869528,6.08564 20.633346,6 L 18.1759,6 14.2695,6 Z" fill="url(#1)" fill-rule="evenodd"/>
  <g id="g39" fill="none">
   <path id="path41" d="M 11.90625,6.53125 C 11.65973,7.130617 11.622868,7.830828 11.307357,8.41825 11.08583,8.936495 10.862062,9.668555 10.162593,9.607284 7.318545,9.575783 4.470563,9.602744 1.625,9.59375 c 0,3.364583 0,6.729167 0,10.09375 6.3125,0 12.625,0 18.9375,0 0,-4.375 0,-8.75 0,-13.125 -0.739737,-0.072509 -1.511178,-0.01072 -2.263186,-0.03125 -2.131021,0 -4.262043,0 -6.393064,0 z" opacity="0.4" stroke="#000"/>
   <path id="path43" d="m 12.625,7.5 c -0.08421,0.374716 -0.168098,0.738695 -0.4375,1.28125 l 0.03125,0 C 12.20935,8.803202 12.16628,8.850125 12.15625,8.875 12.065,9.101361 11.94934,9.420332 11.6875,9.78125 c -0.276227,0.380748 -0.877495,0.762425 -1.53125,0.75 l 0,0.03125 c -0.03107,-3.44e-4 -0.06267,3.27e-4 -0.09375,0 -2.475723,-0.02605 -4.97118,-5.56e-4 -7.46875,0 l 0,8.15625 17,0 0,-11.1875 C 19.1783,7.53216 18.793135,7.511863 18.3125,7.5 c -0.01172,-2.89e-4 -0.0195,3.21e-4 -0.03125,0 l -5.65625,0 z" opacity="0.4" stroke="url(#0)"/>
  </g>
 </g>
 <g transform="translate(0,1)" id="g3635" opacity="0.3">
  <path d="M 12,8.5 A 2.5,2.5 0 0 1 9.5,11 2.5,2.5 0 0 1 7,8.5 2.5,2.5 0 0 1 9.5,6 2.5,2.5 0 0 1 12,8.5 Z" id="path3629" opacity="1" stroke-linejoin="round" stroke-miterlimit="5.8"/>
  <path d="m 16.972814,13.467008 a 2.5,2.5 0 0 1 -2.5,2.5 2.5,2.5 0 0 1 -2.5,-2.5 2.5,2.5 0 0 1 2.5,-2.5 2.5,2.5 0 0 1 2.5,2.5 z" id="circle3631" opacity="1" stroke-linejoin="round" stroke-miterlimit="5.8"/>
  <path d="M 22,18.5 A 2.5,2.5 0 0 1 19.5,21 2.5,2.5 0 0 1 17,18.5 2.5,2.5 0 0 1 19.5,16 2.5,2.5 0 0 1 22,18.5 Z" id="circle3633" opacity="1" stroke-linejoin="round" stroke-miterlimit="5.8"/>
 </g>
 <g transform="translate(7,6)" id="g3618">
  <path id="4-7" d="m 5,2.5000003 a 2.5,2.5 0 0 1 -5,0 2.5,2.5 0 1 1 5,0 z" fill="url(#E-6)"/>
  <path id="6" d="m 15,12.5 a 2.5,2.5 0 0 1 -5,0 2.5,2.5 0 1 1 5,0 z" fill="url(#F-9)"/>
  <path id="8" d="m 10,7.4999649 a 2.4999973,2.4999973 0 0 1 -4.9999945,0 2.4999973,2.4999973 0 1 1 4.9999945,0 z" fill="url(#I-1)"/>
  <path id="path4186" d="M 2.5390625,0.48046875 C 1.2566924,0.3935186 0.13737059,1.8658673 0.56445312,3.078125 a 0.47998734,0.47998734 0 0 1 0.009766,0.037109 C 0.90632352,4.3575931 2.66438,4.9409789 3.6738281,4.1445312 A 0.47998734,0.47998734 0 0 1 3.703125,4.1230469 C 4.7328472,3.4300415 4.7698347,1.6645472 3.7695312,0.9296875 A 0.47998734,0.47998734 0 0 1 3.7539062,0.91796875 C 3.4183533,0.65065591 2.9862057,0.4938421 2.5585938,0.48242188 a 0.47998734,0.47998734 0 0 1 -0.019531,-0.001953 z" opacity="0.4" fill="none" stroke="#000"/>
  <path id="path4188" d="M 2.5390625,0.48046875 C 1.2566924,0.3935186 0.13737059,1.8658673 0.56445312,3.078125 a 0.47998734,0.47998734 0 0 1 0.009766,0.037109 C 0.90632352,4.3575931 2.66438,4.9409789 3.6738281,4.1445312 A 0.47998734,0.47998734 0 0 1 3.703125,4.1230469 C 4.7328472,3.4300415 4.7698347,1.6645472 3.7695312,0.9296875 A 0.47998734,0.47998734 0 0 1 3.7539062,0.91796875 C 3.4183533,0.65065591 2.9862057,0.4938421 2.5585938,0.48242188 a 0.47998734,0.47998734 0 0 1 -0.019531,-0.001953 z" transform="translate(5.00191,4.990316)" opacity="0.4" fill="none" stroke="#000"/>
  <path id="path4190" d="M 2.5390625,0.48046875 C 1.2566924,0.3935186 0.13737059,1.8658673 0.56445312,3.078125 a 0.47998734,0.47998734 0 0 1 0.009766,0.037109 C 0.90632352,4.3575931 2.66438,4.9409789 3.6738281,4.1445312 A 0.47998734,0.47998734 0 0 1 3.703125,4.1230469 C 4.7328472,3.4300415 4.7698347,1.6645472 3.7695312,0.9296875 A 0.47998734,0.47998734 0 0 1 3.7539062,0.91796875 C 3.4183533,0.65065591 2.9862057,0.4938421 2.5585938,0.48242188 a 0.47998734,0.47998734 0 0 1 -0.019531,-0.001953 z" transform="translate(10.00191,9.990316)" opacity="0.4" fill="none" stroke="#000"/>
  <path id="path4204" d="M 11.321664,12.418658 C 12,11 13,11 13.593698,12.457168" opacity="0.6" fill="none" fill-rule="evenodd" stroke="#fff"/>
  <path id="path4206" d="m 6.2649239,7.559236 c 0.678336,-1.418658 1.678336,-1.418658 2.272034,0.03851" opacity="0.6" fill="none" fill-rule="evenodd" stroke="#fff"/>
  <path id="path4208" d="m 1.2649239,2.559236 c 0.678336,-1.418658 1.678336,-1.418658 2.272034,0.03851" opacity="0.6" fill="none" fill-rule="evenodd" stroke="#fff"/>
 </g>
 <metadata id="metadata9999">
  <rdf:RDF>
   <cc:Work>
    <dc:format>image/svg+xml</dc:format>
    <dc:type rdf:resource="http://purl.org/dc/dcmitype/StillImage"/>
    <dc:title>Ivy icon theme</dc:title>
    <cc:license rdf:resource="http://creativecommons.org/licenses/by-sa/4.0/"/>
    <dc:creator>
     <cc:Agent>
      <dc:title>Sixsixfive (sixsixfive.deviantart.com)</dc:title>
     </cc:Agent>
    </dc:creator>
    <dc:publisher>
     <cc:Agent>
      <dc:title>Sixsixfive (sixsixfive.deviantart.com)</dc:title>
     </cc:Agent>
    </dc:publisher>
    <dc:source>https://github.com/sixsixfive</dc:source>
    <dc:subject>
     <rdf:Bag>
      <rdf:li>ivy</rdf:li>
     </rdf:Bag>
    </dc:subject>
    <dc:contributor>
     <cc:Agent>
      <dc:title>ssf</dc:title>
     </cc:Agent>
    </dc:contributor>
    <dc:rights>
     <cc:Agent>
      <dc:title>Sixsixfive (sixisixfive.deviantart.com)</dc:title>
     </cc:Agent>
    </dc:rights>
    <dc:description>A simple icon theme published under CC-BY-SA_V4(http://creativecommons.org/licenses/by-sa/4.0)</dc:description>
    <dc:identifier>SSF</dc:identifier>
   </cc:Work>
  </rdf:RDF>
 </metadata>
 <!--Part of the Ivy icon them published under the CC-BY-SA_V4: http://creativecommons.org/licenses/by-sa/4.0 -->
</svg>
