<?xml version="1.0" encoding="UTF-8" standalone="no"?>
<svg xmlns:dc="http://purl.org/dc/elements/1.1/" xmlns:cc="http://creativecommons.org/ns#" xmlns:rdf="http://www.w3.org/1999/02/22-rdf-syntax-ns#" xmlns:svg="http://www.w3.org/2000/svg" xmlns="http://www.w3.org/2000/svg" xmlns:xlink="http://www.w3.org/1999/xlink" viewBox="0 0 22 22" id="svg2" version="1.1">
 <defs id="defs4">
  <linearGradient id="0" xlink:href="#3" y1="5" y2="20" x2="0" gradientUnits="userSpaceOnUse"/>
  <linearGradient id="1" y1="6.02" x1="21.06" y2="20" x2="21" gradientUnits="userSpaceOnUse">
   <stop stop-color="#6a6a6a" id="stop8"/>
   <stop offset="1" stop-color="#9e9e9e" id="stop10"/>
  </linearGradient>
  <linearGradient id="2" xlink:href="#3" y1="4.761" y2="19.307" x2="0" gradientUnits="userSpaceOnUse"/>
  <linearGradient id="3">
   <stop stop-color="#fff" id="stop14"/>
   <stop offset="1" stop-color="#fff" stop-opacity="0" id="stop16"/>
  </linearGradient>
  <linearGradient id="4" y1="2.034" x1="2.028" y2="12.03" x2="0.21" gradientUnits="userSpaceOnUse">
   <stop stop-color="#eeeeec" id="stop19"/>
   <stop offset="1" stop-color="#555753" id="stop21"/>
  </linearGradient>
 </defs>
 <g id="g23" color="#000">
  <g id="g25" fill-rule="evenodd">
   <path d="m 3.047617,2.985818 c -0.251825,0 -0.361032,0.220744 -0.454557,0.454557 l -0.539832,1.36367 -0.511376,0 c -0.251824,0 -0.454557,0.202732 -0.454557,0.454557 l 0,15.412284 c 0,0.251822 0.202732,0.454562 0.454557,0.454562 l 19.09138,0 c 0.251824,0 0.454557,-0.20274 0.454557,-0.454562 l 0,-15.412284 c 0,-0.251824 -0.202733,-0.454557 -0.454557,-0.454557 l -10.227525,0 L 9.865876,3.440374 C 9.772351,3.206561 9.663143,2.985818 9.411319,2.985818 l -6.363793,0 z" id="path27" opacity="0.2"/>
   <path d="m 3.047617,2.076704 c -0.251825,0 -0.361032,0.220744 -0.454557,0.454556 l -0.539832,1.36367 -0.511376,0 c -0.251824,0 -0.454557,0.202732 -0.454557,0.454557 l 0,15.412293 c 0,0.251822 0.202732,0.454555 0.454557,0.454555 l 19.09138,0 c 0.251824,0 0.454557,-0.202733 0.454557,-0.454555 l 0,-15.412293 c 0,-0.251824 -0.202733,-0.454556 -0.454557,-0.454556 l -10.227525,0 -0.539831,-1.36367 C 9.772351,2.297448 9.663143,2.076704 9.411319,2.076704 l -6.363793,0 z" id="path29" fill="url(#4)"/>
  </g>
  <g id="g31" fill="none">
   <path d="M 3.09375,2.5625 C 2.847241,3.112129 2.707235,3.730741 2.40625,4.25 2.217174,4.557857 1.635589,4.228246 1.5625,4.5 l 0,15.21875 19.03125,0 0,-15.3125 C 17.1618,4.39941 13.743352,4.398924 10.3125,4.375 9.827029,4.224431 9.847486,3.599692 9.625,3.21875 9.481738,2.900849 9.424966,2.420177 8.96875,2.5625 l -5.875,0 z" id="path33" opacity="0.4" stroke="#000"/>
   <path d="M 3.78125,3.5625 C 3.651757,3.870313 3.54669,4.241835 3.375,4.5625 3.202588,4.884514 2.953506,5.152054 2.5625,5.28125 l 0,13.46875 17.0625,0 0,-13.375 c -3.117823,-0.00398 -6.224701,0.015677 -9.34375,0 C 9.863259,5.353539 9.545702,5.155934 9.3125,4.875 9.0793,4.594066 8.920174,4.23736 8.8125,3.90625 a 0.1007,0.1007 0 0 1 0,-0.03125 C 8.793727,3.704416 8.741985,3.638394 8.65625,3.59375 8.570515,3.549106 8.440909,3.536056 8.28125,3.5625 a 0.1007,0.1007 0 0 1 -0.03125,0 l -4.46875,0 z" id="path35" opacity="0.4" stroke="url(#2)"/>
  </g>
  <path d="m 11.812012,6 c -0.18887,0 -0.301553,0.120934 -0.383531,0.278481 -0.02726,0.052511 -0.04761,0.10979 -0.07103,0.167088 L 11.00248,7.736646 10.633199,8.627785 c -0.02336,0.057303 -0.04369,0.114573 -0.07102,0.167089 -0.08197,0.157545 -0.198981,0.317857 -0.383528,0.278481 l -4.176239,0 -2.187554,0 -2.72734,0 -1.09e-4,10.697413 c -2e-6,0.246843 0.202732,0.445568 0.454557,0.445568 l 19.09138,0 c 0.251822,0 0.454558,-0.198725 0.454558,-0.445568 l 0,-13.325198 C 21.0879,6.198723 20.869528,6.08564 20.633346,6 L 18.1759,6 14.2695,6 Z" id="path37" fill="url(#1)" fill-rule="evenodd"/>
  <g id="g39" fill="none">
   <path d="M 11.90625,6.53125 C 11.65973,7.130617 11.622868,7.830828 11.307357,8.41825 11.08583,8.936495 10.862062,9.668555 10.162593,9.607284 7.318545,9.575783 4.470563,9.602744 1.625,9.59375 c 0,3.364583 0,6.729167 0,10.09375 6.3125,0 12.625,0 18.9375,0 0,-4.375 0,-8.75 0,-13.125 -0.739737,-0.072509 -1.511178,-0.01072 -2.263186,-0.03125 -2.131021,0 -4.262043,0 -6.393064,0 z" id="path41" opacity="0.4" stroke="#000"/>
   <path d="m 12.625,7.5 c -0.08421,0.374716 -0.168098,0.738695 -0.4375,1.28125 l 0.03125,0 C 12.20935,8.803202 12.16628,8.850125 12.15625,8.875 12.065,9.101361 11.94934,9.420332 11.6875,9.78125 c -0.276227,0.380748 -0.877495,0.762425 -1.53125,0.75 l 0,0.03125 c -0.03107,-3.44e-4 -0.06267,3.27e-4 -0.09375,0 -2.475723,-0.02605 -4.97118,-5.56e-4 -7.46875,0 l 0,8.15625 17,0 0,-11.1875 C 19.1783,7.53216 18.793135,7.511863 18.3125,7.5 c -0.01172,-2.89e-4 -0.0195,3.21e-4 -0.03125,0 l -5.65625,0 z" id="path43" opacity="0.4" stroke="url(#0)"/>
  </g>
 </g>
 <metadata id="metadata9999">
  <rdf:RDF>
   <cc:Work>
    <dc:format>image/svg+xml</dc:format>
    <dc:type rdf:resource="http://purl.org/dc/dcmitype/StillImage"/>
    <dc:title>Ivy icon theme</dc:title>
    <cc:license rdf:resource="http://creativecommons.org/licenses/by-sa/4.0/"/>
    <dc:creator>
     <cc:Agent>
      <dc:title>Sixsixfive (sixsixfive.deviantart.com)</dc:title>
     </cc:Agent>
    </dc:creator>
    <dc:publisher>
     <cc:Agent>
      <dc:title>Sixsixfive (sixsixfive.deviantart.com)</dc:title>
     </cc:Agent>
    </dc:publisher>
    <dc:source>https://github.com/sixsixfive</dc:source>
    <dc:subject>
     <rdf:Bag>
      <rdf:li>ivy</rdf:li>
     </rdf:Bag>
    </dc:subject>
    <dc:contributor>
     <cc:Agent>
      <dc:title>ssf</dc:title>
     </cc:Agent>
    </dc:contributor>
    <dc:rights>
     <cc:Agent>
      <dc:title>Sixsixfive (sixisixfive.deviantart.com)</dc:title>
     </cc:Agent>
    </dc:rights>
    <dc:description>A simple icon theme published under CC-BY-SA_V4(http://creativecommons.org/licenses/by-sa/4.0)</dc:description>
    <dc:identifier>SSF</dc:identifier>
   </cc:Work>
  </rdf:RDF>
 </metadata>
 <!--Part of the Ivy icon them published under the CC-BY-SA_V4: http://creativecommons.org/licenses/by-sa/4.0 -->
</svg>
