<?xml version="1.0" encoding="UTF-8" standalone="no"?><svg xmlns:cc="http://creativecommons.org/ns#" xmlns:rdf="http://www.w3.org/1999/02/22-rdf-syntax-ns#" xmlns:svg="http://www.w3.org/2000/svg" id="svg2" viewBox="0 0 22 22" version="1.1" xmlns:xlink="http://www.w3.org/1999/xlink" xmlns:dc="http://purl.org/dc/elements/1.1/" xmlns="http://www.w3.org/2000/svg"><defs id="defs4"><linearGradient id="0" x2="21" y2="20" x1="21.06" y1="6.02" gradientUnits="userSpaceOnUse"><stop id="stop7" stop-color="#5288d1"/><stop offset="1" id="stop9" stop-color="#8eb1e1"/></linearGradient><linearGradient id="4" x2="0" y2="20" xlink:href="#7" y1="5" gradientUnits="userSpaceOnUse"/><linearGradient id="5" x2="0" y2="19.307" xlink:href="#7" y1="4.761" gradientUnits="userSpaceOnUse"/><linearGradient id="6" x2="0.21" y2="12.03" x1="2.028" y1="2.034" gradientUnits="userSpaceOnUse"><stop id="stop25" stop-color="#eeeeec"/><stop offset="1" id="stop27" stop-color="#555753"/></linearGradient><linearGradient id="7"><stop id="stop30" stop-color="#fff"/><stop offset="1" id="stop32" stop-color="#fff" stop-opacity="0"/></linearGradient><linearGradient id="8-1" x2="46.992" y2="43.525" gradientTransform="matrix(0.35105 0 0 0.35 5.575008 5.6)" x1="47.38" y1="4.271" gradientUnits="userSpaceOnUse"><stop id="C" stop-color="#ffb636"/><stop offset="1" id="D" stop-color="#ffe775"/></linearGradient><linearGradient id="9" x2="0" y2="13.971" y1="2.317" gradientUnits="userSpaceOnUse"><stop id="E" stop-color="#fff"/><stop offset="1" id="F" stop-color="#fff" stop-opacity="0"/></linearGradient></defs><g id="g41" fill-rule="evenodd" color="#000"><path id="path43" opacity="0.1" d="m 3.047617,2.860371 c -0.251825,0 -0.361032,0.220744 -0.454557,0.454557 l -0.539832,1.36367 -0.511376,0 c -0.251824,0 -0.454557,0.202732 -0.454557,0.454557 l 0,15.412284 C 1.087296,20.79726 1.290028,21 1.541852,21 l 19.09138,0 c 0.251824,0 0.454557,-0.20274 0.454557,-0.454562 l 0,-15.412284 c 0,-0.251824 -0.202733,-0.454557 -0.454557,-0.454557 l -10.227525,0 -0.539831,-1.36367 C 9.772351,3.081114 9.663143,2.860371 9.411319,2.860371 l -6.363793,0 z"/><path id="path45" d="m 3.047617,2.076704 c -0.251825,0 -0.361032,0.220744 -0.454557,0.454556 l -0.539832,1.36367 -0.511376,0 c -0.251824,0 -0.454557,0.202732 -0.454557,0.454557 l 0,15.412293 c 0,0.251822 0.202732,0.454555 0.454557,0.454555 l 19.09138,0 c 0.251824,0 0.454557,-0.202733 0.454557,-0.454555 l 0,-15.412293 c 0,-0.251824 -0.202733,-0.454556 -0.454557,-0.454556 l -10.227525,0 -0.539831,-1.36367 C 9.772351,2.297448 9.663143,2.076704 9.411319,2.076704 l -6.363793,0 z" fill="url(#6)"/></g><g id="g47" fill="none" color="#000"><path id="path49" opacity="0.4" d="M 3.09375,2.5625 C 2.847241,3.112129 2.707235,3.730741 2.40625,4.25 2.217174,4.557857 1.635589,4.228246 1.5625,4.5 l 0,15.21875 19.03125,0 0,-15.3125 C 17.1618,4.39941 13.743352,4.398924 10.3125,4.375 9.827029,4.224431 9.847486,3.599692 9.625,3.21875 9.481738,2.900849 9.424966,2.420177 8.96875,2.5625 l -5.875,0 z" stroke="#000"/><path id="path51" opacity="0.4" d="M 3.78125,3.5625 C 3.651757,3.870313 3.54669,4.241835 3.375,4.5625 3.202588,4.884514 2.953506,5.152054 2.5625,5.28125 l 0,13.46875 17.0625,0 0,-13.375 c -3.117823,-0.00398 -6.224701,0.015677 -9.34375,0 C 9.863259,5.353539 9.545702,5.155934 9.3125,4.875 9.0793,4.594066 8.920174,4.23736 8.8125,3.90625 a 0.1007,0.1007 0 0 1 0,-0.03125 C 8.793727,3.704416 8.741985,3.638394 8.65625,3.59375 8.570515,3.549106 8.440909,3.536056 8.28125,3.5625 a 0.1007,0.1007 0 0 1 -0.03125,0 l -4.46875,0 z" stroke="url(#5)"/></g><path id="path53" d="m 11.812012,6 c -0.18887,0 -0.301553,0.120934 -0.383531,0.278481 -0.02726,0.052511 -0.04761,0.10979 -0.07103,0.167088 L 11.00248,7.736646 10.633199,8.627785 c -0.02336,0.057303 -0.04369,0.114573 -0.07102,0.167089 -0.08197,0.157545 -0.198981,0.317857 -0.383528,0.278481 l -4.176239,0 -2.187554,0 -2.72734,0 -1.09e-4,10.697413 c -2e-6,0.246843 0.202732,0.445568 0.454557,0.445568 l 19.09138,0 c 0.251822,0 0.454558,-0.198725 0.454558,-0.445568 l 0,-13.325198 C 21.0879,6.198723 20.869528,6.08564 20.633346,6 L 18.1759,6 14.2695,6 Z" fill-rule="evenodd" fill="url(#0)" color="#000"/><path id="path4400" opacity="0.2" d="m 13.963308,6.000022 c -0.232526,0.00262 -0.439496,0.127746 -0.555915,0.328444 L 6.0774926,19.014662 c -0.114782,0.203217 -0.097253,0.455432 0.020587,0.656893 0.117842,0.201463 0.321997,0.327981 0.555916,0.328445 L 21.334296,19.9795 c 0.190556,0.0011 0.388758,-0.08325 0.514735,-0.225809 0.125975,-0.142547 0.169227,-0.324862 0.144127,-0.513196 -0.01131,-0.07997 -0.02237,-0.175753 -0.06177,-0.246331 l -7.3916,-12.6862 C 14.418784,6.109982 14.195811,5.997388 13.963286,6.000042 Z"/><path id="path55" opacity="0.4" d="M 11.90625,6.53125 C 11.65973,7.130617 11.622868,7.830828 11.307357,8.41825 11.08583,8.936495 10.862062,9.668555 10.162593,9.607284 7.318545,9.575783 4.470563,9.602744 1.625,9.59375 c 0,3.364583 0,6.729167 0,10.09375 6.3125,0 12.625,0 18.9375,0 0,-4.375 0,-8.75 0,-13.125 -0.739737,-0.072509 -1.511178,-0.01072 -2.263186,-0.03125 -2.131021,0 -4.262043,0 -6.393064,0 z" stroke="#000" fill="none" color="#000"/><path id="path59" opacity="0.4" d="m 12.625,7.5 c -0.08421,0.374716 -0.168098,0.738695 -0.4375,1.28125 l 0.03125,0 C 12.20935,8.803202 12.16628,8.850125 12.15625,8.875 12.065,9.101361 11.94934,9.420332 11.6875,9.78125 c -0.276227,0.380748 -0.877495,0.762425 -1.53125,0.75 l 0,0.03125 c -0.03107,-3.44e-4 -0.06267,3.27e-4 -0.09375,0 -2.475723,-0.02605 -4.97118,-5.56e-4 -7.46875,0 l 0,8.15625 17,0 0,-11.1875 C 19.1783,7.53216 18.793135,7.511863 18.3125,7.5 c -0.01172,-2.89e-4 -0.0195,3.21e-4 -0.03125,0 l -5.65625,0 z" stroke="url(#4)" fill="none" color="#000"/><path id="1-9" opacity="0.1" d="M 13.963308,8.00002 C 13.730782,8.00265 13.523812,8.127768 13.407393,8.328466 L 6.0774926,21.01467 c -0.114782,0.203209 -0.097253,0.455424 0.020587,0.656885 0.117842,0.201463 0.321997,0.327981 0.555916,0.328445 L 21.334296,21.9795 c 0.190556,0.0011 0.388758,-0.08325 0.514735,-0.225809 0.125975,-0.142547 0.169227,-0.324862 0.144127,-0.513196 -0.01131,-0.07997 -0.02237,-0.175755 -0.06177,-0.246331 l -7.3916,-12.6862 C 14.418784,8.109982 14.195811,7.997388 13.963286,8.00005 Z"/><path id="2-9" d="M 13.963308,7 C 13.730782,7.00262 13.523812,7.127746 13.407393,7.328444 L 6.0774926,20.01464 c -0.114782,0.203217 -0.097253,0.455432 0.020587,0.656893 0.117842,0.201463 0.321997,0.327981 0.555916,0.328445 l 14.6803004,-0.0205 c 0.190556,0.0011 0.388758,-0.08325 0.514735,-0.225809 0.125975,-0.142547 0.169227,-0.324862 0.144127,-0.513196 -0.01131,-0.07997 -0.02237,-0.175753 -0.06177,-0.246331 l -7.3916,-12.6862 C 14.418784,7.10996 14.195811,6.997366 13.963286,7.00002 Z" fill="url(#8-1)"/><path id="3-6" opacity="0.4" d="m 14.000008,18 c -0.552285,0 -1,0.447715 -1,1 0,0.552284 0.447715,1 1,1 0.552285,0 1,-0.447716 1,-1 0,-0.552285 -0.447715,-1 -1,-1 z" fill="#fff"/><path id="4-2" d="m 14.000008,17 c -0.552285,0 -1,0.447715 -1,1 0,0.552284 0.447715,1 1,1 0.552285,0 1,-0.447716 1,-1 0,-0.552285 -0.447715,-1 -1,-1 z" fill="#171717"/><path id="5-5" opacity="0.4" d="m 13.999708,12 c -0.403769,0.0021 -0.810513,0.294984 -0.94152,0.873981 -0.262016,1.157999 0.415681,4.128659 0.94152,4.12601 0.525838,-0.0026 1.20534,-2.980821 0.941521,-4.13617 C 14.809318,12.286149 14.403477,11.997966 13.999708,12 Z" fill="#fff"/><g stroke-linecap="round" id="6-2" transform="matrix(1 0 0 1 6.00001 6)" fill="none"><path id="A" opacity="0.5" d="m 7.96875,1.53125 c -0.026509,2.99e-4 -0.094366,0.00969 -0.125,0.0625 L 0.5,14.25 l 0.03125,0 c -0.006314,0.01118 -0.040724,0.08663 0,0.15625 0.035008,0.05985 0.100939,0.06245 0.125,0.0625 l 14.6875,-0.03125 c 0.04782,2.76e-4 0.103302,-0.0067 0.125,-0.03125 0.04078,-0.04614 0.0065,-0.04528 0,-0.09375 l 0.03125,0 C 15.48733,14.22294 15.42822,14.177403 15.46875,14.25 L 15.5,14.25 8.09375,1.59375 C 8.06419,1.545381 8.0228,1.530632 7.96875,1.53125 Z" stroke="#000" stroke-linejoin="round"/><path id="B" opacity="0.4" d="M 7.9688,3.3125 2.0938,13.4687 13.875,13.4375 Z" stroke="url(#9)"/></g><path id="7-8" d="m 13.999708,11 c -0.403769,0.0021 -0.810513,0.294984 -0.94152,0.873981 -0.262016,1.157999 0.415681,4.128659 0.94152,4.12601 0.525838,-0.0026 1.20534,-2.980821 0.941521,-4.13617 C 14.809318,11.286149 14.403477,10.997966 13.999708,11 Z" fill="#171717"/><metadata id="metadata9999"><rdf:RDF><cc:Work><dc:format>image/svg+xml</dc:format><dc:type rdf:resource="http://purl.org/dc/dcmitype/StillImage"/><dc:title>Ivy icon theme</dc:title><cc:license rdf:resource="http://creativecommons.org/licenses/by-sa/4.0/"/><dc:creator><cc:Agent><dc:title>Sixsixfive (sixsixfive.deviantart.com)</dc:title></cc:Agent></dc:creator><dc:publisher><cc:Agent><dc:title>Sixsixfive (sixsixfive.deviantart.com)</dc:title></cc:Agent></dc:publisher><dc:source>https://github.com/sixsixfive</dc:source><dc:subject><rdf:Bag><rdf:li>ivy</rdf:li></rdf:Bag></dc:subject><dc:contributor><cc:Agent><dc:title>ssf</dc:title></cc:Agent></dc:contributor><dc:rights><cc:Agent><dc:title>Sixsixfive (sixisixfive.deviantart.com)</dc:title></cc:Agent></dc:rights><dc:description>A simple icon theme published under CC-BY-SA_V4(http://creativecommons.org/licenses/by-sa/4.0)</dc:description><dc:identifier>SSF</dc:identifier></cc:Work></rdf:RDF></metadata><!--Part of the Ivy icon them published under the CC-BY-SA_V4: http://creativecommons.org/licenses/by-sa/4.0 -->
</svg>