<?xml version="1.0" encoding="UTF-8" standalone="no"?><svg xmlns:cc="http://creativecommons.org/ns#" xmlns:dc="http://purl.org/dc/elements/1.1/" xmlns="http://www.w3.org/2000/svg" xmlns:svg="http://www.w3.org/2000/svg" xmlns:rdf="http://www.w3.org/1999/02/22-rdf-syntax-ns#" id="svg2" version="1.1" viewBox="0 0 22 22" xmlns:xlink="http://www.w3.org/1999/xlink"><defs id="defs4"><path d="M 22,2 22,7.952133 16,2 z" id="1" fill="#5288d1"/><use xlink:href="#0" id="2"/><linearGradient gradientUnits="userSpaceOnUse" y1="4" id="3" y2="18" x2="0"><stop id="stop9" stop-color="#fff"/><stop stop-opacity="0" id="stop11" stop-color="#fff" offset="1"/></linearGradient><radialGradient gradientTransform="matrix(1.80055 -1.54386 1.14572 1.37209 -79.957 -16.587)" cy="50.87" cx="16.977" gradientUnits="userSpaceOnUse" r="19" id="4"><stop id="stop14" stop-color="#c7c7c7"/><stop id="stop16" stop-color="#ebebeb" offset="1"/></radialGradient></defs><path opacity="0.15" d="M 1,4 H21 V20 H1 z" id="path18"/><path d="M 1,3 H21 V19 H1 z" id="path20" fill="url(#4)"/><g id="g22" fill="none"><path stroke="#000" opacity="0.4" d="m 1.53125,3.53125 0,14.9375 18.9375,0 0,-14.9375 -18.9375,0 z" id="path24"/><path stroke="url(#3)" opacity="0.6" d="m 2.5,4.5 0,13 17,0 0,-13 -17,0 z" id="path26"/></g><use xlink:href="#1" id="use28"/><path stroke="#000" opacity="0.3" d="m 17.28125,2.53125 4.1875,4.125 0,-4.125 -4.1875,0 z" id="0" fill="none"/><g transform="matrix(0 1 -1 0 24 -2)" id="g31"><use width="22" height="22" xlink:href="#1" id="use33" y="0" x="0"/><use width="22" height="22" xlink:href="#2" id="use35" y="0" x="0"/></g><g transform="matrix(-1 0 0 -1 22 22)" id="g37"><use width="22" height="22" xlink:href="#1" id="use39" y="0" x="0"/><use width="22" height="22" xlink:href="#2" id="use41" y="0" x="0"/></g><g transform="matrix(0 -1 1 0 -2 24)" id="g43"><use width="22" height="22" xlink:href="#1" id="use45" y="0" x="0"/><use width="22" height="22" xlink:href="#2" id="use47" y="0" x="0"/></g><g color="#000" id="g49" fill="#fff"><path opacity="0.2" d="M 1,3 3,3 3,4 1,4 Z" id="path51"/><path opacity="0.2" d="m 19,3 2,0 0,1 -2,0 z" id="path53"/><path opacity="0.2" d="m 1,17 1,0 0,1 -1,0 z" id="path55"/><path opacity="0.2" d="m 20,17 1,0 0,1 -1,0 z" id="path57"/></g><metadata id="metadata9999"><rdf:RDF><cc:Work><dc:format>image/svg+xml</dc:format><dc:type rdf:resource="http://purl.org/dc/dcmitype/StillImage"/><dc:title>Ivy icon theme</dc:title><cc:license rdf:resource="http://creativecommons.org/licenses/by-sa/4.0/"/><dc:creator><cc:Agent><dc:title>Sixsixfive (sixsixfive.deviantart.com)</dc:title></cc:Agent></dc:creator><dc:publisher><cc:Agent><dc:title>Sixsixfive (sixsixfive.deviantart.com)</dc:title></cc:Agent></dc:publisher><dc:source>https://github.com/sixsixfive</dc:source><dc:subject><rdf:Bag><rdf:li>ivy</rdf:li></rdf:Bag></dc:subject><dc:contributor><cc:Agent><dc:title>ssf</dc:title></cc:Agent></dc:contributor><dc:rights><cc:Agent><dc:title>Sixsixfive (sixisixfive.deviantart.com)</dc:title></cc:Agent></dc:rights><dc:description>A simple icon theme published under CC-BY-SA_V4(http://creativecommons.org/licenses/by-sa/4.0)</dc:description><dc:identifier>SSF</dc:identifier></cc:Work></rdf:RDF></metadata><!--Part of the Ivy icon them published under the CC-BY-SA_V4: http://creativecommons.org/licenses/by-sa/4.0 -->
</svg>