<?xml version="1.0" encoding="UTF-8" standalone="no"?>
<svg xmlns:dc="http://purl.org/dc/elements/1.1/" xmlns:cc="http://creativecommons.org/ns#" xmlns:rdf="http://www.w3.org/1999/02/22-rdf-syntax-ns#" xmlns:svg="http://www.w3.org/2000/svg" xmlns="http://www.w3.org/2000/svg" viewBox="0 0 22 22" id="svg2" version="1.1">
 <defs id="defs4">
  <linearGradient id="0" y1="3" y2="20" x2="0" gradientUnits="userSpaceOnUse">
   <stop stop-color="#fff" id="stop7"/>
   <stop offset="1" stop-color="#fff" stop-opacity="0" id="stop9"/>
  </linearGradient>
  <radialGradient cx="24" cy="50.27" r="23" id="1" gradientUnits="userSpaceOnUse" gradientTransform="matrix(0.48889 0 0 0.42671 -0.667 0.641)">
   <stop stop-color="#5288d1" id="stop12"/>
   <stop offset="1" stop-color="#6f9bd9" id="stop14"/>
  </radialGradient>
 </defs>
 <path fill="url(#1)" d="m 11,1 -11,11 3,0 0,9 16,0 0,-9 3,0 -3.9999,-4.1164 -3e-4,-5.8831 -4.0001,-4e-4 3e-4,2 z" id="path16"/>
 <g id="g18" fill="none">
  <path d="m 11,1.75 -9.7188,9.7188 1.7188,0 a 0.530688,0.530688 0 0 1 0.53125,0.53125 l 0,8.46875 14.9375,0 0,-8.46875 A 0.530688,0.530688 0 0 1 19,11.4688 l 1.75,0 L 17.625,8.25 A 0.530688,0.530688 0 0 1 17.46875,7.875 l 0,-5.34375 -2.9375,0 0,1.46875 A 0.530688,0.530688 0 0 1 13.625,4.375 L 11,1.75 Z" id="path20" opacity="0.4" stroke="#000"/>
  <path d="m 11,3.1875 -7.375,7.375 A 1.54753,1.54753 0 0 1 4.5625,12 l 0,7.4375 12.875,0 0,-7.4375 a 1.54753,1.54753 0 0 1 1,-1.4375 L 16.875,8.9375 A 1.54753,1.54753 0 0 1 16.4375,7.875 l 0,-4.3125 -0.875,0 0,0.4375 a 1.54753,1.54753 0 0 1 -2.65625,1.09375 l -1.9062,-1.9062 z" id="path22" opacity="0.4" stroke="url(#0)"/>
 </g>
 <path opacity="0.1" d="m 11,2 -11,11 3,0 0,9 16,0 0,-9 3,0 -3.9999,-4.1164 -3e-4,-5.8831 -4.0001,-4e-4 3e-4,2 z" id="path24"/>
 <metadata id="metadata9999">
  <rdf:RDF>
   <cc:Work>
    <dc:format>image/svg+xml</dc:format>
    <dc:type rdf:resource="http://purl.org/dc/dcmitype/StillImage"/>
    <dc:title>Ivy icon theme</dc:title>
    <cc:license rdf:resource="http://creativecommons.org/licenses/by-sa/4.0/"/>
    <dc:creator>
     <cc:Agent>
      <dc:title>Sixsixfive (sixsixfive.deviantart.com)</dc:title>
     </cc:Agent>
    </dc:creator>
    <dc:publisher>
     <cc:Agent>
      <dc:title>Sixsixfive (sixsixfive.deviantart.com)</dc:title>
     </cc:Agent>
    </dc:publisher>
    <dc:source>https://github.com/sixsixfive</dc:source>
    <dc:subject>
     <rdf:Bag>
      <rdf:li>ivy</rdf:li>
     </rdf:Bag>
    </dc:subject>
    <dc:contributor>
     <cc:Agent>
      <dc:title>ssf</dc:title>
     </cc:Agent>
    </dc:contributor>
    <dc:rights>
     <cc:Agent>
      <dc:title>Sixsixfive (sixisixfive.deviantart.com)</dc:title>
     </cc:Agent>
    </dc:rights>
    <dc:description>A simple icon theme published under CC-BY-SA_V4(http://creativecommons.org/licenses/by-sa/4.0)</dc:description>
    <dc:identifier>SSF</dc:identifier>
   </cc:Work>
  </rdf:RDF>
 </metadata>
 <!--Part of the Ivy icon them published under the CC-BY-SA_V4: http://creativecommons.org/licenses/by-sa/4.0 -->
</svg>
