<?xml version="1.0" encoding="UTF-8" standalone="no"?><svg shape-rendering="crispEdges" xmlns:cc="http://creativecommons.org/ns#" xmlns:svg="http://www.w3.org/2000/svg" xmlns="http://www.w3.org/2000/svg" xmlns:dc="http://purl.org/dc/elements/1.1/" xmlns:rdf="http://www.w3.org/1999/02/22-rdf-syntax-ns#" id="svg9999" version="1.1" viewBox="0 0 48 48" xmlns:xlink="http://www.w3.org/1999/xlink"><defs id="defs7"><linearGradient id="linearGradient4157"><stop stop-opacity="1" id="stop4159" stop-color="#5288d1"/><stop stop-opacity="1" id="stop4161" stop-color="#95b6e3" offset="1"/></linearGradient><linearGradient id="linearGradient4149"><stop stop-opacity="1" id="stop4151" stop-color="#fff"/><stop stop-opacity="0" id="stop4153" stop-color="#fff" offset="1"/></linearGradient><linearGradient gradientUnits="userSpaceOnUse" y1="11" xlink:href="#linearGradient4149" id="linearGradient4155" x1="40" y2="42" x2="39"/><linearGradient gradientTransform="matrix(1 0 0 1 0 -2)" gradientUnits="userSpaceOnUse" y1="9" xlink:href="#linearGradient4157" id="linearGradient4163" x1="39" y2="44" x2="38"/></defs><title id="title9999">Ivy icon theme</title><metadata id="metadata9999"><rdf:RDF><cc:Work><dc:format>image/svg+xml</dc:format><dc:type rdf:resource="http://purl.org/dc/dcmitype/StillImage"/><dc:title>Ivy icon theme</dc:title><cc:license rdf:resource="http://creativecommons.org/licenses/by-sa/4.0/"/><dc:creator><cc:Agent><dc:title>Sixsixfive (sixisixfive.deviantart.com)</dc:title></cc:Agent></dc:creator><dc:publisher><cc:Agent><dc:title>Sixsixfive (sixisixfive.deviantart.com)</dc:title></cc:Agent></dc:publisher><dc:source>https://github.com/sixsixfive</dc:source><dc:subject><rdf:Bag><rdf:li>ivy</rdf:li></rdf:Bag></dc:subject><dc:contributor><cc:Agent><dc:title>ssf</dc:title></cc:Agent></dc:contributor><dc:rights><cc:Agent><dc:title>Sixsixfive (sixisixfive.deviantart.com)</dc:title></cc:Agent></dc:rights><dc:description>A simple icon theme published under CC-BY-SA(http://creativecommons.org/licenses/by-sa/4.0/)</dc:description><dc:identifier>SSF</dc:identifier></cc:Work></rdf:RDF></metadata><path stroke="none" stroke-width="1" opacity="0.15" d="M 1,41 34,8 34,21 47,8 47,41 39,41 39,30 26,43 26,28 13,41 Z" stroke-linejoin="miter" id="path4165" fill-rule="evenodd" fill="#000" stroke-opacity="1" stroke-linecap="butt" fill-opacity="1"/><path stroke="none" stroke-width="1" d="M 1,40 34,7 34,20 47,7 47,40 39,40 39,29 26,42 26,27 13,40 Z" stroke-linejoin="miter" id="path4142" fill-rule="evenodd" fill="url(#linearGradient4163)" stroke-opacity="1" stroke-linecap="butt" fill-opacity="1"/><path transform="matrix(1 0 0 1 0 -2)" stroke="#000" stroke-width="1" opacity="0.4" d="m 33.525391,10.146484 -31.3789066,31.378907 10.6562496,0 12.861328,-12.861329 A 0.47429411,0.47429411 0 0 1 26.474609,29 l 0,13.853516 12.189453,-12.189454 A 0.47429411,0.47429411 0 0 1 39.474609,31 l 0,10.525391 7.050782,0 0,-31.378907 -12.189453,12.189454 A 0.47429411,0.47429411 0 0 1 33.525391,22 l 0,-11.853516 z" stroke-linejoin="miter" id="path4145" fill-rule="evenodd" fill="none" stroke-opacity="1" stroke-linecap="butt"/><path transform="matrix(1 0 0 1 0 -2)" stroke="url(#linearGradient4155)" stroke-width="1" opacity="0.4" d="m 32.529297,12.548828 -27.9804689,27.980469 7.8417969,0 12.570313,-12.568359 A 1.4706741,1.4706741 0 0 1 27.470703,29 l 0,11.451172 10.490235,-10.490234 A 1.4706741,1.4706741 0 0 1 40.470703,31 l 0,9.529297 5.058594,0 0,-27.980469 -10.490235,10.490234 A 1.4706741,1.4706741 0 0 1 32.529297,22 l 0,-9.451172 z" stroke-linejoin="miter" id="path4147" fill-rule="evenodd" fill="none" stroke-opacity="1" stroke-linecap="butt"/></svg>