<?xml version="1.0" encoding="UTF-8" standalone="no"?><svg xmlns:cc="http://creativecommons.org/ns#" xmlns:dc="http://purl.org/dc/elements/1.1/" xmlns:svg="http://www.w3.org/2000/svg" xmlns="http://www.w3.org/2000/svg" xmlns:rdf="http://www.w3.org/1999/02/22-rdf-syntax-ns#" id="svg2" version="1.1" xmlns:xlink="http://www.w3.org/1999/xlink" viewBox="0 0 48 48"><defs id="defs4"><linearGradient id="linearGradient4379"><stop stop-opacity="1" id="stop4381" stop-color="#fff"/><stop stop-opacity="0.14" id="stop4383" stop-color="#fff" offset="1"/></linearGradient><linearGradient id="linearGradient4359"><stop stop-opacity="1" id="stop4361" stop-color="#6a6a6a"/><stop stop-opacity="1" id="stop4363" stop-color="#626262" offset="1"/></linearGradient><linearGradient id="linearGradient4324"><stop stop-opacity="1" id="stop4326" stop-color="#fff"/><stop stop-opacity="0" id="stop4328" stop-color="#fff" offset="1"/></linearGradient><linearGradient id="linearGradient4304"><stop stop-opacity="1" id="stop4306" stop-color="#ebebeb"/><stop stop-opacity="1" id="stop4308" stop-color="#6a6a6a" offset="1"/></linearGradient><linearGradient gradientUnits="userSpaceOnUse" y1="3" id="1" y2="45" x2="0"><stop stop-opacity="1" id="stop12" stop-color="#ebebeb"/><stop stop-opacity="1" id="stop14" stop-color="#b6b6b6" offset="1"/></linearGradient><radialGradient gradientTransform="matrix(1 0 0 1.3535463 0 -131.29678)" cy="346.42093" cx="288.84537" gradientUnits="userSpaceOnUse" r="81.978133" xlink:href="#linearGradient4304" id="radialGradient4310" fy="346.42093" fx="288.84537"/><radialGradient gradientTransform="matrix(2.7851078 0 0 3.0276664 -41.781805 -48.654795)" cy="22.015238" cx="23.619123" gradientUnits="userSpaceOnUse" r="18.496094" xlink:href="#1" id="radialGradient4316" fy="22.015238" fx="23.619123"/><linearGradient gradientUnits="userSpaceOnUse" xlink:href="#linearGradient4324" y1="1.9628906" id="linearGradient4330" x1="41.029297" y2="46.037109" x2="41.029297"/><linearGradient gradientUnits="userSpaceOnUse" xlink:href="#linearGradient4359" y1="25" id="linearGradient4367" x1="38" y2="37" x2="26"/><linearGradient gradientUnits="userSpaceOnUse" xlink:href="#linearGradient4359" y1="37" id="linearGradient4375" x1="21" y2="25" x2="9"/><radialGradient gradientTransform="matrix(1 0 0 0.36642394 0 19.645693)" cy="25.528646" cx="24" gradientUnits="userSpaceOnUse" r="13.423409" xlink:href="#linearGradient4379" id="radialGradient4387" fy="25.528646" fx="24"/></defs><metadata id="metadata9999"><rdf:RDF><cc:Work><dc:format>image/svg+xml</dc:format><dc:type rdf:resource="http://purl.org/dc/dcmitype/StillImage"/><dc:title/><cc:license rdf:resource="http://creativecommons.org/licenses/by-sa/4.0/"/><dc:creator><cc:Agent><dc:title>Sixsixfive (sixsixfive.deviantart.com)</dc:title></cc:Agent></dc:creator><dc:publisher><cc:Agent><dc:title>Sixsixfive (sixsixfive.deviantart.com)</dc:title></cc:Agent></dc:publisher><dc:source>https://github.com/sixsixfive</dc:source><dc:subject><rdf:Bag><rdf:li>ivy</rdf:li></rdf:Bag></dc:subject><dc:contributor><cc:Agent><dc:title>ssf</dc:title></cc:Agent></dc:contributor><dc:rights><cc:Agent><dc:title>Sixsixfive (sixisixfive.deviantart.com)</dc:title></cc:Agent></dc:rights><dc:description>A simple icon theme published under CC-BY-SA_V4(http://creativecommons.org/licenses/by-sa/4.0)</dc:description><dc:identifier>SSF</dc:identifier></cc:Work></rdf:RDF></metadata><!--Part of the Ivy icon them published under the CC-BY-SA_V4: http://creativecommons.org/licenses/by-sa/4.0 -->
<metadata id="metadata17">image/svg+xmlSixsixfive (sixsixfive.deviantart.com)Sixsixfive (sixsixfive.deviantart.com)https://github.com/sixsixfiveivyssfSixsixfive (sixisixfive.deviantart.com)A simple icon theme published under CC-BY-SA_V4(http://creativecommons.org/licenses/by-sa/4.0)SSF</metadata><!--Part of the Ivy icon them published under the CC-BY-SA_V4: http://creativecommons.org/licenses/by-sa/4.0 -->
<g transform="matrix(0.22562229 0 0 0.20727966 -42.16995 -52.977613)" id="layer1" fill="url(#radialGradient4310)" fill-opacity="1"><path opacity="0.1" d="m 291.89248,265.234 c -18.251,0 -43.71921,6.23868 -60.09421,26.60958 -15.73,19.569 -22.73227,52.66837 -22.73227,82.25037 0,26.435 15.28936,50.2458 28.67936,69.9538 17.194,25.307 35.17279,43.10865 55.28979,43.10865 19.778,0 39.6843,-22.33634 55.4283,-46.80233 12.74,-19.79801 24.55882,-42.71224 24.55882,-69.71824 0,-27.784 -1.66147,-52.46553 -15.27027,-71.75352 -7.3979,-10.485 -16.07311,-18.93891 -27.17311,-24.49891 -12.854,-6.4389 -28.32041,-9.1494 -38.68641,-9.1494 z" id="path4332" fill="#000" fill-opacity="1"/><path transform="matrix(4.4321862 0 0 4.8244 186.90507 255.5852)" d="M 23.6875 1 C 19.569668 1 13.823471 2.2931518 10.128906 6.515625 C 6.5798676 10.571881 5 17.432706 5 23.564453 C 5 29.043891 8.4496207 33.979386 11.470703 38.064453 C 15.350053 43.310079 19.406469 47 23.945312 47 C 28.40767 47 32.898975 42.370132 36.451172 37.298828 C 39.3256 33.195105 41.992188 28.445451 41.992188 22.847656 C 41.992188 17.088598 41.617324 11.972619 38.546875 7.9746094 C 36.877744 5.8012821 34.920423 4.0489593 32.416016 2.8964844 C 29.515867 1.5618314 26.026301 1 23.6875 1 z " id="path3050" fill="url(#radialGradient4316)" fill-opacity="1"/><path transform="matrix(4.4321862 0 0 4.8244 186.90507 255.5852)" stroke="#000" stroke-width="1" opacity="0.4" d="m 23.6875,1.5039062 c -4.012428,0 -9.621933,1.2776359 -13.179688,5.34375 C 7.0952765,10.747902 5.5039063,17.519186 5.5039062,23.564453 c 0,5.268132 3.3563403,10.124663 6.3710938,14.201172 3.846699,5.201475 7.804335,8.730469 12.070312,8.730469 2.057059,0 4.196407,-1.082138 6.269532,-2.830078 2.073124,-1.747941 4.064019,-4.143297 5.824218,-6.65625 2.853644,-4.074049 5.449219,-8.724203 5.449219,-14.16211 0,-5.73721 -0.383711,-10.717248 -3.339843,-14.566406 C 36.515489,6.1550354 34.623923,4.4666165 32.205078,3.3535156 29.395513,2.0605493 25.945672,1.5039063 23.6875,1.5039062 Z" id="path4320" fill="none" fill-opacity="1"/><path transform="matrix(4.4321862 0 0 4.8244 186.90507 255.5852)" stroke="url(#linearGradient4330)" stroke-width="1" opacity="0.4" d="m 23.6875,2.4628906 c -3.811569,0 -9.159983,1.2474689 -12.457031,5.015625 C 8.0780517,11.081467 6.4628906,17.683981 6.4628906,23.564453 c 0,4.865466 3.1809002,9.570657 6.1835934,13.630859 3.784479,5.117343 7.552825,8.341797 11.298828,8.341797 1.725254,0 3.675445,-0.938353 5.650391,-2.603515 1.974946,-1.665162 3.928301,-4.00491 5.658203,-6.47461 2.814036,-4.017502 5.275391,-8.478104 5.275391,-13.611328 0,-5.695578 -0.404289,-10.416915 -3.142578,-13.9824216 C 35.822721,6.8287977 34.060484,5.262679 31.804688,4.2246094 29.167738,3.0110811 25.792026,2.4628906 23.6875,2.4628906 Z" id="path4322" fill="none" fill-opacity="1"/></g><path stroke="none" stroke-width="1" opacity="0.2" d="M 9,26 C 9,32 15,38 21,38 21,32.461539 15,26 9,26 Z m 29,0 c -6,0 -12,6.461539 -12,12 6,0 12,-6 12,-12 z" id="path4389" stroke-linejoin="miter" fill-rule="evenodd" fill="#fff" stroke-linecap="butt" stroke-opacity="1" fill-opacity="1"/><path stroke="none" stroke-width="1" opacity="1" d="m 9,25 c 6,0 12,6.461539 12,12 C 15,37 9,31 9,25 Z" id="path3495" stroke-linejoin="miter" fill-rule="evenodd" fill="url(#linearGradient4375)" stroke-linecap="butt" stroke-opacity="1" fill-opacity="1"/><path stroke="none" stroke-width="1" opacity="1" d="m 38,25 c -6,0 -12,6.461539 -12,12 6,0 12,-6 12,-12 z" id="path3502" stroke-linejoin="miter" fill-rule="evenodd" fill="url(#linearGradient4367)" stroke-linecap="butt" stroke-opacity="1" fill-opacity="1"/><path stroke="#000" stroke-width="1" opacity="0.4" d="m 9.5390625,25.542969 c 0.1686586,2.664942 1.5078305,5.335956 3.5449215,7.373047 2.037091,2.037091 4.708105,3.376263 7.373047,3.544922 -0.178138,-2.458048 -1.512087,-5.122073 -3.544922,-7.207032 -2.041932,-2.094289 -4.717027,-3.53055 -7.3730465,-3.710937 z m 27.9218755,0 c -2.65602,0.180387 -5.331115,1.616648 -7.373047,3.710937 -2.032835,2.084959 -3.366784,4.748984 -3.544922,7.207032 2.664942,-0.168659 5.335956,-1.507831 7.373047,-3.544922 2.037091,-2.037091 3.376263,-4.708105 3.544922,-7.373047 z" id="path4339" stroke-linejoin="round" fill-rule="evenodd" fill="none" stroke-linecap="butt" stroke-opacity="1"/><path stroke="url(#radialGradient4387)" stroke-width="1" opacity="0.23000004" d="m 10.736328,26.757812 c 0.441117,1.99765 1.368358,3.983593 2.945313,5.560547 1.578051,1.578052 3.565385,2.506825 5.564453,2.947266 -0.453159,-1.867801 -1.372276,-3.814513 -2.939453,-5.421875 -1.589873,-1.630639 -3.58152,-2.618108 -5.570313,-3.085938 z m 25.527344,0 c -1.988793,0.46783 -3.98044,1.455299 -5.570313,3.085938 -1.567177,1.607362 -2.486294,3.554074 -2.939453,5.421875 1.999068,-0.440441 3.986402,-1.369214 5.564453,-2.947266 1.576955,-1.576954 2.504196,-3.562897 2.945313,-5.560547 z" id="path4377" stroke-linejoin="miter" fill-rule="evenodd" fill="none" stroke-linecap="butt" stroke-opacity="1"/></svg>