<?xml version="1.0" encoding="UTF-8" standalone="no"?><svg xmlns:svg="http://www.w3.org/2000/svg" viewBox="0 0 22 22" xmlns="http://www.w3.org/2000/svg" xmlns:rdf="http://www.w3.org/1999/02/22-rdf-syntax-ns#" xmlns:xlink="http://www.w3.org/1999/xlink" version="1.1" id="svg2" xmlns:dc="http://purl.org/dc/elements/1.1/" xmlns:cc="http://creativecommons.org/ns#"><defs id="defs4"><linearGradient id="linearGradient4157"><stop stop-opacity="1" id="stop4159" stop-color="#fff"/><stop stop-opacity="0" offset="1" id="stop4161" stop-color="#fff"/></linearGradient><linearGradient id="linearGradient4960"><stop stop-opacity="1" id="stop4962" stop-color="#5288d1"/><stop stop-opacity="1" offset="1" id="stop4964" stop-color="#00c6ff"/></linearGradient><linearGradient x1="41" xlink:href="#linearGradient4960" y1="1006.3622" x2="41" y2="1050.3622" id="linearGradient4966" gradientTransform="matrix(0.45454546 0 0 0.45454546 0.09090907 -456.43737)" gradientUnits="userSpaceOnUse"/><linearGradient x1="19" xlink:href="#linearGradient4157" y1="2" x2="19" y2="20" id="linearGradient4163" gradientUnits="userSpaceOnUse"/></defs><path stroke-linejoin="round" stroke-dasharray="3 1" stroke="none" stroke-opacity="1" stroke-width="1" stroke-dashoffset="0" opacity="1" stroke-linecap="round" fill-opacity="1" id="rect4138" stroke-miterlimit="4" d="M 1,1 21,1 21,21 1,21 Z" fill="url(#linearGradient4966)"/><metadata id="metadata9999"><rdf:RDF><cc:Work><dc:format>image/svg+xml</dc:format><dc:type rdf:resource="http://purl.org/dc/dcmitype/StillImage"/><dc:title/><cc:license rdf:resource="http://creativecommons.org/licenses/by-sa/4.0/"/><dc:creator><cc:Agent><dc:title>Sixsixfive (sixsixfive.deviantart.com)</dc:title></cc:Agent></dc:creator><dc:publisher><cc:Agent><dc:title>Sixsixfive (sixsixfive.deviantart.com)</dc:title></cc:Agent></dc:publisher><dc:source>https://github.com/sixsixfive</dc:source><dc:subject><rdf:Bag><rdf:li>ivy</rdf:li></rdf:Bag></dc:subject><dc:contributor><cc:Agent><dc:title>ssf</dc:title></cc:Agent></dc:contributor><dc:rights><cc:Agent><dc:title>Sixsixfive (sixisixfive.deviantart.com)</dc:title></cc:Agent></dc:rights><dc:description>A simple icon theme published under CC-BY-SA_V4(http://creativecommons.org/licenses/by-sa/4.0)</dc:description><dc:identifier>SSF</dc:identifier></cc:Work></rdf:RDF></metadata><path stroke-linejoin="miter" stroke-dasharray="none" stroke="none" stroke-opacity="1" stroke-width="1" stroke-dashoffset="0" opacity="0.2" stroke-linecap="round" fill-opacity="1" id="path4167" stroke-miterlimit="4.5" d="M 5,5.0351562 A 0.96569085,0.96569085 0 0 0 4.0351562,6 l 0,2 A 0.96569085,0.96569085 0 0 0 5,8.9648438 l 9.035156,0 0,0.070312 -9.035156,0 A 0.96569085,0.96569085 0 0 0 4.0351562,10 l 0,6 A 0.96569085,0.96569085 0 0 0 5,16.964844 l 12,0 A 0.96569085,0.96569085 0 0 0 17.964844,16 l 0,-2 A 0.96569085,0.96569085 0 0 0 17,13.035156 l -9.0351562,0 0,-0.07031 9.0351562,0 A 0.96569085,0.96569085 0 0 0 17.964844,12 l 0,-6 A 0.96569085,0.96569085 0 0 0 17,5.0351562 l -12,0 z" fill="#000"/><!--Part of the Ivy icon them published under the CC-BY-SA_V4: http://creativecommons.org/licenses/by-sa/4.0 -->
<path stroke-linejoin="miter" stroke-dasharray="none" stroke="none" stroke-opacity="1" stroke-width="1" stroke-dashoffset="0" opacity="1" stroke-linecap="round" fill-opacity="1" id="rect4210" stroke-miterlimit="4.5" d="m 5,6 0,2 10,0 0,2 -10,0 0,6 12,0 0,-2 -10,0 0,-2 10,0 0,-6 z" fill="#f5f5f5"/><path stroke-linejoin="round" stroke-dasharray="none" stroke="#000" stroke-opacity="1" stroke-width="1" stroke-dashoffset="0" opacity="0.4" stroke-linecap="round" fill-opacity="1" id="path4153" stroke-miterlimit="4" d="m 1.4863281,1.4863281 0,19.0273439 19.0273439,0 0,-19.0273439 -19.0273439,0 z" fill="none"/><path stroke-linejoin="round" stroke-dasharray="none" stroke="url(#linearGradient4163)" stroke-opacity="1" stroke-width="1" stroke-dashoffset="0" opacity="0.4" stroke-linecap="round" fill-opacity="1" id="path4155" stroke-miterlimit="4" d="m 2.5039062,2.5039062 0,16.9921878 16.9921878,0 0,-16.9921878 -16.9921878,0 z" fill="none"/></svg>