<?xml version="1.0" encoding="UTF-8" standalone="no"?>
<svg xmlns:dc="http://purl.org/dc/elements/1.1/" xmlns:cc="http://creativecommons.org/ns#" xmlns:rdf="http://www.w3.org/1999/02/22-rdf-syntax-ns#" xmlns:svg="http://www.w3.org/2000/svg" xmlns="http://www.w3.org/2000/svg" xmlns:xlink="http://www.w3.org/1999/xlink" viewBox="0 0 22 22" id="svg2" version="1.1">
 <path d="M 1,1 21,1 21,21 1,21 Z" id="rect4138" opacity="1" stroke-dasharray="3 1" stroke-opacity="1" fill="url(#linearGradient4966)" stroke="none" stroke-linejoin="round" fill-opacity="1" stroke-linecap="round" stroke-width="1" stroke-dashoffset="0" stroke-miterlimit="4"/>
 <defs id="defs4">
  <linearGradient id="linearGradient4157">
   <stop id="stop4159" stop-color="#fff" stop-opacity="1"/>
   <stop offset="1" id="stop4161" stop-color="#fff" stop-opacity="0"/>
  </linearGradient>
  <linearGradient id="linearGradient4960">
   <stop id="stop4962" stop-color="#5288d1" stop-opacity="1"/>
   <stop offset="1" id="stop4964" stop-color="#00c6ff" stop-opacity="1"/>
  </linearGradient>
  <linearGradient xlink:href="#linearGradient4960" id="linearGradient4966" x1="41" y1="1006.3622" x2="41" y2="1050.3622" gradientUnits="userSpaceOnUse" gradientTransform="matrix(0.45454546,0,0,0.45454546,0.09090907,-456.43737)"/>
  <linearGradient xlink:href="#linearGradient4157" id="linearGradient4163" x1="19" y1="2" x2="19" y2="20" gradientUnits="userSpaceOnUse"/>
 </defs>
 <metadata id="metadata9999">
  <rdf:RDF>
   <cc:Work>
    <dc:format>image/svg+xml</dc:format>
    <dc:type rdf:resource="http://purl.org/dc/dcmitype/StillImage"/>
    <dc:title/>
    <cc:license rdf:resource="http://creativecommons.org/licenses/by-sa/4.0/"/>
    <dc:creator>
     <cc:Agent>
      <dc:title>Sixsixfive (sixsixfive.deviantart.com)</dc:title>
     </cc:Agent>
    </dc:creator>
    <dc:publisher>
     <cc:Agent>
      <dc:title>Sixsixfive (sixsixfive.deviantart.com)</dc:title>
     </cc:Agent>
    </dc:publisher>
    <dc:source>https://github.com/sixsixfive</dc:source>
    <dc:subject>
     <rdf:Bag>
      <rdf:li>ivy</rdf:li>
     </rdf:Bag>
    </dc:subject>
    <dc:contributor>
     <cc:Agent>
      <dc:title>ssf</dc:title>
     </cc:Agent>
    </dc:contributor>
    <dc:rights>
     <cc:Agent>
      <dc:title>Sixsixfive (sixisixfive.deviantart.com)</dc:title>
     </cc:Agent>
    </dc:rights>
    <dc:description>A simple icon theme published under CC-BY-SA_V4(http://creativecommons.org/licenses/by-sa/4.0)</dc:description>
    <dc:identifier>SSF</dc:identifier>
   </cc:Work>
  </rdf:RDF>
 </metadata>
 <path id="path4167" d="M 5,5.0351562 A 0.96569085,0.96569085 0 0 0 4.0351562,6 l 0,2 A 0.96569085,0.96569085 0 0 0 5,8.9648438 l 9.035156,0 0,0.070312 -9.035156,0 A 0.96569085,0.96569085 0 0 0 4.0351562,10 l 0,6 A 0.96569085,0.96569085 0 0 0 5,16.964844 l 12,0 A 0.96569085,0.96569085 0 0 0 17.964844,16 l 0,-2 A 0.96569085,0.96569085 0 0 0 17,13.035156 l -9.0351562,0 0,-0.07031 9.0351562,0 A 0.96569085,0.96569085 0 0 0 17.964844,12 l 0,-6 A 0.96569085,0.96569085 0 0 0 17,5.0351562 l -12,0 z" opacity="0.2" stroke-dasharray="none" stroke-opacity="1" fill="#000" stroke="none" stroke-linejoin="miter" fill-opacity="1" stroke-linecap="round" stroke-width="1" stroke-dashoffset="0" stroke-miterlimit="4.5"/>
 <!--Part of the Ivy icon them published under the CC-BY-SA_V4: http://creativecommons.org/licenses/by-sa/4.0 -->
 <path d="m 5,6 0,2 10,0 0,2 -10,0 0,6 12,0 0,-2 -10,0 0,-2 10,0 0,-6 z" id="rect4210" opacity="1" stroke-dasharray="none" stroke-opacity="1" fill="#f5f5f5" stroke="none" stroke-linejoin="miter" fill-opacity="1" stroke-linecap="round" stroke-width="1" stroke-dashoffset="0" stroke-miterlimit="4.5"/>
 <path id="path4153" d="m 1.4863281,1.4863281 0,19.0273439 19.0273439,0 0,-19.0273439 -19.0273439,0 z" opacity="0.4" stroke-dasharray="none" stroke-opacity="1" fill="none" stroke="#000" stroke-linejoin="round" fill-opacity="1" stroke-linecap="round" stroke-width="1" stroke-dashoffset="0" stroke-miterlimit="4"/>
 <path d="m 2.5039062,2.5039062 0,16.9921878 16.9921878,0 0,-16.9921878 -16.9921878,0 z" id="path4155" opacity="0.4" stroke-dasharray="none" stroke-opacity="1" fill="none" stroke="url(#linearGradient4163)" stroke-linejoin="round" fill-opacity="1" stroke-linecap="round" stroke-width="1" stroke-dashoffset="0" stroke-miterlimit="4"/>
</svg>
