<?xml version="1.0" encoding="UTF-8" standalone="no"?><svg viewBox="0 0 48 48" xmlns:svg="http://www.w3.org/2000/svg" xmlns="http://www.w3.org/2000/svg" xmlns:rdf="http://www.w3.org/1999/02/22-rdf-syntax-ns#" xmlns:xlink="http://www.w3.org/1999/xlink" version="1.1" id="svg2" xmlns:dc="http://purl.org/dc/elements/1.1/" xmlns:cc="http://creativecommons.org/ns#"><defs id="defs12"><linearGradient id="linearGradient4368"><stop stop-opacity="1" id="stop4370" stop-color="#171717"/><stop stop-opacity="1" offset="1" id="stop4372" stop-color="#171717"/></linearGradient><linearGradient id="linearGradient4165"><stop id="stop4167" stop-color="#fff"/><stop stop-opacity="0" offset="1" id="stop4169" stop-color="#fff"/></linearGradient><linearGradient xlink:href="#linearGradient4165" y1="6" x2="0" y2="42" id="linearGradient4171" gradientUnits="userSpaceOnUse"/><radialGradient xlink:href="#linearGradient4368" cy="24" id="radialGradient4376" r="19" cx="24" fy="24" fx="24" gradientUnits="userSpaceOnUse"/></defs><rect stroke-linejoin="round" y="6" x="5" stroke-width="3" opacity="0.1" height="38" id="rect4173" width="38"/><rect stroke-linejoin="round" y="5" x="5" stroke-width="3" fill-opacity="1" height="38" id="rect3349" width="38" fill="#ebebeb"/><path stroke-linejoin="round" stroke="#000" opacity="0.4" id="path4153" d="m 5.5449219,5.5449219 0,36.9101561 36.9101561,0 0,-36.9101561 -36.9101561,0 z" fill="none"/><metadata id="metadata9999"><rdf:RDF><cc:Work><dc:format>image/svg+xml</dc:format><dc:type rdf:resource="http://purl.org/dc/dcmitype/StillImage"/><dc:title/><cc:license rdf:resource="http://creativecommons.org/licenses/by-sa/4.0/"/><dc:creator><cc:Agent><dc:title>Sixsixfive (sixsixfive.deviantart.com)</dc:title></cc:Agent></dc:creator><dc:publisher><cc:Agent><dc:title>Sixsixfive (sixsixfive.deviantart.com)</dc:title></cc:Agent></dc:publisher><dc:source>https://github.com/sixsixfive</dc:source><dc:subject><rdf:Bag><rdf:li>ivy</rdf:li></rdf:Bag></dc:subject><dc:contributor><cc:Agent><dc:title>ssf</dc:title></cc:Agent></dc:contributor><dc:rights><cc:Agent><dc:title>Sixsixfive (sixisixfive.deviantart.com)</dc:title></cc:Agent></dc:rights><dc:description>A simple icon theme published under CC-BY-SA_V4(http://creativecommons.org/licenses/by-sa/4.0)</dc:description><dc:identifier>SSF</dc:identifier></cc:Work></rdf:RDF></metadata><!--Part of the Ivy icon them published under the CC-BY-SA_V4: http://creativecommons.org/licenses/by-sa/4.0 -->
<g opacity="0.64" fill-opacity="1" id="g4336" fill="url(#radialGradient4376)"><rect stroke-linejoin="miter" stroke="none" stroke-opacity="1" y="5" x="5" opacity="0.7" ry="0.625" fill-opacity="1" rx="0.625" height="15" id="rect3344" width="15" fill-rule="evenodd" fill="url(#radialGradient4376)"/><rect stroke-linejoin="miter" stroke="none" stroke-opacity="1" y="5" x="28" opacity="0.7" ry="0.625" fill-opacity="1" rx="0.625" height="15" id="rect3354" width="15" fill-rule="evenodd" fill="url(#radialGradient4376)"/><rect stroke-linejoin="miter" stroke="none" stroke-opacity="1" y="28" x="5" opacity="0.7" ry="0.625" fill-opacity="1" rx="0.625" height="15" id="rect3360" width="15" fill-rule="evenodd" fill="url(#radialGradient4376)"/><rect stroke-linejoin="miter" stroke="none" stroke-opacity="1" y="8" x="22" opacity="0.7" fill-opacity="1" height="3" id="rect3366" width="2" fill-rule="evenodd" fill="url(#radialGradient4376)"/><rect stroke-linejoin="miter" stroke="none" stroke-opacity="1" y="11" x="24" opacity="0.7" fill-opacity="1" height="7" id="rect3368" width="2" fill-rule="evenodd" fill="url(#radialGradient4376)"/><rect stroke-linejoin="miter" stroke="none" stroke-opacity="1" y="-15" x="22" opacity="0.7" fill-opacity="1" height="4" transform="matrix(0 1 -1 0 0 0)" id="rect3370" width="2" fill-rule="evenodd" fill="url(#radialGradient4376)"/><rect stroke-linejoin="miter" stroke="none" stroke-opacity="1" y="-37" x="22" opacity="0.7" fill-opacity="1" height="5" transform="matrix(0 1 -1 0 0 0)" id="rect3372" width="2" fill-rule="evenodd" fill="url(#radialGradient4376)"/><rect stroke-linejoin="miter" stroke="none" stroke-opacity="1" y="17" x="22" opacity="0.7" fill-opacity="1" height="3" id="rect3374" width="2" fill-rule="evenodd" fill="url(#radialGradient4376)"/><rect stroke-linejoin="miter" stroke="none" stroke-opacity="1" y="21" x="24" opacity="0.7" fill-opacity="1" height="3" id="rect3376" width="2" fill-rule="evenodd" fill="url(#radialGradient4376)"/><rect stroke-linejoin="miter" stroke="none" stroke-opacity="1" y="26" x="23" opacity="0.7" fill-opacity="1" height="5" id="rect3378" width="3" fill-rule="evenodd" fill="url(#radialGradient4376)"/><rect stroke-linejoin="miter" stroke="none" stroke-opacity="1" y="32" x="22" opacity="0.7" fill-opacity="1" height="5" id="rect3380" width="3" fill-rule="evenodd" fill="url(#radialGradient4376)"/><rect stroke-linejoin="miter" stroke="none" stroke-opacity="1" y="-27" x="37" opacity="0.7" fill-opacity="1" height="5" transform="matrix(0 1 -1 0 0 0)" id="rect3382" width="3" fill-rule="evenodd" fill="url(#radialGradient4376)"/><rect stroke-linejoin="miter" stroke="none" stroke-opacity="1" y="-20" x="22" opacity="0.7" fill-opacity="1" height="5" transform="matrix(0 1 -1 0 0 0)" id="rect3384" width="4" fill-rule="evenodd" fill="url(#radialGradient4376)"/><rect stroke-linejoin="miter" stroke="none" stroke-opacity="1" y="-11" x="23" opacity="0.7" fill-opacity="1" height="4" transform="matrix(0 1 -1 0 0 0)" id="rect3386" width="3" fill-rule="evenodd" fill="url(#radialGradient4376)"/><rect stroke-linejoin="miter" stroke="none" stroke-opacity="1" y="-28" x="29" opacity="0.7" fill-opacity="1" height="2" transform="matrix(0 1 -1 0 0 0)" id="rect3388" width="4" fill-rule="evenodd" fill="url(#radialGradient4376)"/><rect stroke-linejoin="miter" stroke="none" stroke-opacity="1" y="-32" x="25" opacity="0.7" fill-opacity="1" height="2" transform="matrix(0 1 -1 0 0 0)" id="rect3390" width="5" fill-rule="evenodd" fill="url(#radialGradient4376)"/><rect stroke-linejoin="miter" stroke="none" stroke-opacity="1" y="-37" x="34" opacity="0.7" fill-opacity="1" height="4" transform="matrix(0 1 -1 0 0 0)" id="rect3392" width="4" fill-rule="evenodd" fill="url(#radialGradient4376)"/><rect stroke-linejoin="miter" stroke="none" stroke-opacity="1" y="-40" x="27" opacity="0.7" fill-opacity="1" height="3" transform="matrix(0 1 -1 0 0 0)" id="rect3394" width="3" fill-rule="evenodd" fill="url(#radialGradient4376)"/><rect stroke-linejoin="miter" stroke="none" stroke-opacity="1" y="-37" x="30" opacity="0.7" fill-opacity="1" height="3" transform="matrix(0 1 -1 0 0 0)" id="rect3396" width="3" fill-rule="evenodd" fill="url(#radialGradient4376)"/><rect stroke-linejoin="miter" stroke="none" stroke-opacity="1" y="-33" x="31" opacity="0.7" fill-opacity="1" height="3" transform="matrix(0 1 -1 0 0 0)" id="rect3398" width="3" fill-rule="evenodd" fill="url(#radialGradient4376)"/><rect stroke-linejoin="miter" stroke="none" stroke-opacity="1" y="-40" x="38" opacity="0.7" fill-opacity="1" height="3" transform="matrix(0 1 -1 0 0 0)" id="rect3400" width="3" fill-rule="evenodd" fill="url(#radialGradient4376)"/><rect stroke-linejoin="miter" stroke="none" stroke-opacity="1" y="-40" x="23" opacity="0.7" fill-opacity="1" height="3" transform="matrix(0 1 -1 0 0 0)" id="rect3402" width="3" fill-rule="evenodd" fill="url(#radialGradient4376)"/><rect stroke-linejoin="miter" stroke="none" stroke-opacity="1" y="-32" x="-25" opacity="0.7" fill-opacity="1" height="3" transform="matrix(0 -1 -1 0 0 0)" id="rect3404" width="2" fill-rule="evenodd" fill="url(#radialGradient4376)"/><rect stroke-linejoin="miter" stroke="none" stroke-opacity="1" y="-30" x="-28" opacity="0.7" fill-opacity="1" height="4" transform="matrix(0 -1 -1 0 0 0)" id="rect3406" width="3" fill-rule="evenodd" fill="url(#radialGradient4376)"/><rect stroke-linejoin="miter" stroke="none" stroke-opacity="1" y="-28" x="21" opacity="0.7" fill-opacity="1" height="2" transform="matrix(0 1 -1 0 0 0)" id="rect3408" width="1" fill-rule="evenodd" fill="url(#radialGradient4376)"/><rect stroke-linejoin="miter" stroke="none" stroke-opacity="1" y="-24" x="23" opacity="0.7" fill-opacity="1" height="4" transform="matrix(0 1 -1 0 0 0)" id="rect3410" width="1" fill-rule="evenodd" fill="url(#radialGradient4376)"/><rect stroke-linejoin="miter" stroke="none" stroke-opacity="1" y="-28" x="-23" opacity="0.7" fill-opacity="1" height="4" transform="matrix(-1 0 0 -1 0 0)" id="rect3412" width="1" fill-rule="evenodd" fill="url(#radialGradient4376)"/><rect stroke-linejoin="miter" stroke="none" stroke-opacity="1" y="-34" x="26" opacity="0.7" fill-opacity="1" height="2" transform="matrix(0 1 -1 0 0 0)" id="rect3414" width="2" fill-rule="evenodd" fill="url(#radialGradient4376)"/><rect stroke-linejoin="miter" stroke="none" stroke-opacity="1" y="-34" x="28" opacity="0.7" fill-opacity="1" height="2" transform="matrix(0 1 -1 0 0 0)" id="rect3416" width="2" fill-rule="evenodd" fill="url(#radialGradient4376)"/><rect stroke-linejoin="miter" stroke="none" stroke-opacity="1" y="-33" x="38" opacity="0.7" fill-opacity="1" height="2" transform="matrix(0 1 -1 0 0 0)" id="rect3418" width="2" fill-rule="evenodd" fill="url(#radialGradient4376)"/></g><rect stroke-linejoin="miter" stroke="none" stroke-opacity="1" y="7" x="7" opacity="1" ry="0.45833328" fill-opacity="1" rx="0.45833328" height="11" id="rect3350" width="11" fill-rule="evenodd" fill="#ebebeb"/><rect stroke-linejoin="miter" stroke="none" stroke-opacity="1" y="7" x="30" opacity="1" ry="0.45833328" fill-opacity="1" rx="0.45833328" height="11" id="rect3356" width="11" fill-rule="evenodd" fill="#ebebeb"/><rect stroke-linejoin="miter" stroke="none" stroke-opacity="1" y="10" x="33" opacity="0.5" ry="0.20833331" fill-opacity="1" rx="0.20833331" height="5" id="rect3358" width="5" fill-rule="evenodd" fill="#171717"/><rect stroke-linejoin="miter" stroke="none" stroke-opacity="1" y="30" x="7" opacity="1" ry="0.45833328" fill-opacity="1" rx="0.45833328" height="11" id="rect3362" width="11" fill-rule="evenodd" fill="#ebebeb"/><rect stroke-linejoin="miter" stroke="none" stroke-opacity="1" y="10" x="10" opacity="0.5" ry="0.20833331" fill-opacity="1" rx="0.20833331" height="5" id="rect3420" width="5" fill-rule="evenodd" fill="#171717"/><rect stroke-linejoin="miter" stroke="none" stroke-opacity="1" y="33" x="10" opacity="0.5" ry="0.20833331" fill-opacity="1" rx="0.20833331" height="5" id="rect3422" width="5" fill-rule="evenodd" fill="#171717"/><path stroke-linejoin="round" stroke="url(#linearGradient4171)" opacity="0.5" id="path4163" d="m 6.5,6.5 0,35 35,0 0,-35 -35,0 z" fill="none"/></svg>