<?xml version="1.0" encoding="UTF-8" standalone="no"?><svg xmlns:xlink="http://www.w3.org/1999/xlink" xmlns:cc="http://creativecommons.org/ns#" viewBox="0 0 22 22" version="1.1" id="svg2" xmlns:svg="http://www.w3.org/2000/svg" xmlns:rdf="http://www.w3.org/1999/02/22-rdf-syntax-ns#" xmlns="http://www.w3.org/2000/svg" xmlns:dc="http://purl.org/dc/elements/1.1/"><defs id="defs4"><linearGradient id="0"><stop stop-color="#fff" id="stop7"/><stop offset="1" stop-opacity="0" stop-color="#fff" id="stop9"/></linearGradient><linearGradient x2="0" gradientUnits="userSpaceOnUse" xlink:href="#0" y2="15.414" id="1" y1="7.06"/><linearGradient x2="0" gradientUnits="userSpaceOnUse" xlink:href="#0" y2="16.438" id="2" y1="5.969"/><radialGradient gradientUnits="userSpaceOnUse" r="11.12" cx="17.354" cy="29.13" id="3" gradientTransform="matrix(0 -0.56098 0.70887 0 -9.655 24.331)"><stop stop-color="#a4c1e7" id="stop14"/><stop offset="1" stop-color="#5288d1" id="stop16"/></radialGradient><radialGradient gradientUnits="userSpaceOnUse" r="22.04" cx="18.87" cy="52.975" id="4" gradientTransform="matrix(0.33479 -0.38293 0.36583 0.28244 -14.208 13.757)"><stop stop-color="#6a6a6a" id="stop19"/><stop offset="1" stop-color="#dfdfdf" id="stop21"/></radialGradient></defs><g fill-rule="evenodd" id="g23"><path opacity="0.1" id="path25" d="M 22.00304,12.203951 C 20.902522,15.306484 17.07268,18.409 10.997832,18.409 c -6.074844,0 -9.904708,-3.102516 -11.00521,-6.205049 1.100502,-3.102491 4.930366,-6.205048 11.00521,-6.205048 6.074893,0 9.904709,3.102556 11.00521,6.205048 z"/><path fill="url(#4)" id="path27" d="m 22.00304,11.204396 c -1.10052,3.102533 -4.930366,6.205049 -11.00521,6.205049 -6.074844,0 -9.904708,-3.102516 -11.00521,-6.205049 1.100504,-3.102491 4.930368,-6.205048 11.005212,-6.205048 6.074893,0 9.904709,3.102556 11.00521,6.205048 z"/></g><g fill="none" id="g29"><path opacity="0.5" id="path31" stroke="#000" d="m 11,5.46875 c -5.796331,0 -9.374802,2.921471 -10.46875,5.75 C 1.625014,14.04626 5.202882,16.9375 11,16.9375 c 5.797168,0 9.374986,-2.891259 10.46875,-5.71875 C 20.374784,8.390191 16.796358,5.46875 11,5.46875 Z"/><path opacity="0.4" id="path33" stroke="url(#2)" d="m 11,6.46875 c -5.213063,0 -8.26921,2.466392 -9.34375,4.75 1.075734,2.277141 4.130661,4.71875 9.34375,4.71875 5.213137,0 8.268018,-2.441613 9.34375,-4.71875 C 19.269195,8.935109 16.213093,6.46875 11,6.46875 Z"/></g><path fill="url(#3)" id="path35" d="m 18.00793 11.238716 a 7.0101 5.215179 0 0 1 -14.02019 0 7.0101 5.215179 0 1 1 14.02019 0 z"/><path fill="#171717" id="path37" d="m 13 11.00105 a 2 2.00016 0 0 1 -4 0 2 2.00016 0 1 1 4 0 z"/><g fill="none" id="g39"><g id="g41" stroke="#000"><path opacity="0.55" id="path43" d="M 10.84375,6.59375 C 10.275184,6.622724 9.7088,6.656338 9.153351,6.795433 8.46024,6.872613 7.833406,7.22588 7.1875,7.46875 6.662678,7.824867 6.11807,8.151143 5.6875,8.625 5.116496,9.230273 4.683925,9.996042 4.63728,10.840225 c -0.054481,0.531951 -0.026714,1.082063 0.1468,1.590175 0.179575,0.53169 0.500475,0.984901 0.867241,1.412191 0.403259,0.44884 0.919106,0.767582 1.41118,1.094909 0.582105,0.257481 1.150253,0.563031 1.785134,0.67956 0.711992,0.135648 1.421221,0.315527 2.152365,0.25794 0.860718,0.06142 1.694941,-0.182441 2.53125,-0.34375 0.573335,-0.202921 1.132089,-0.44696 1.65625,-0.75 0.457438,-0.342207 0.956037,-0.652634 1.302442,-1.117448 C 16.888635,13.213137 17.17727,12.642447 17.3125,12.0625 17.449153,11.410865 17.38922,10.734845 17.21875,10.09375 17.01851,9.529655 16.697014,9.03558 16.301772,8.587533 15.883351,8.204635 15.449209,7.868705 14.96875,7.5625 14.21542,7.182139 13.429123,6.847703 12.586348,6.747104 12.0427,6.633724 11.484572,6.626381 10.931124,6.592619 l -0.08737,0.00113 z"/><path id="path45" stroke-width="1.166" d="m 10.851804,9.588319 c -0.307976,-0.00735 -0.72615,0.225131 -0.973267,0.585542 -0.247117,0.360412 -0.361628,0.692561 -0.235944,1.171084 0.177435,0.537283 0.518183,0.85101 0.943775,0.990917 0.43385,0.142621 0.941386,0.02449 1.297689,-0.27025 a 0.490706,0.749407 0 0 1 0.02949,0 c 0.210297,-0.138613 0.382754,-0.500682 0.442395,-0.855792 0.05964,-0.35511 0.02424,-0.648898 -0.147465,-0.900833 a 0.490706,0.749407 0 0 1 0,-0.04504 C 11.906552,9.764615 11.377853,9.545884 10.881297,9.588319 a 0.490706,0.749407 0 0 1 -0.02949,0 z"/></g><path opacity="0.6" id="path47" stroke="url(#1)" d="M 10.84375,7.5625 C 10.295029,7.590471 9.813223,7.616836 9.40625,7.71875 A 0.982651,0.982651 0 0 1 9.25,7.75 C 8.88695,7.790427 8.363271,8.03458 7.75,8.28125 7.735501,8.291089 7.733125,8.302775 7.71875,8.3125 7.182481,8.675324 6.702526,8.955188 6.40625,9.28125 a 0.982651,0.982651 0 0 1 0,0.03125 c -0.460634,0.48828 -0.783026,1.060337 -0.8125,1.59375 a 0.982651,0.982651 0 0 1 0,0.03125 c -0.04282,0.41809 0.00815,0.845306 0.125,1.1875 0.112838,0.334094 0.338709,0.688119 0.65625,1.0625 0.252907,0.281493 0.651588,0.549273 1.09375,0.84375 0.637104,0.281809 1.133705,0.546297 1.5625,0.625 0.743457,0.141642 1.37758,0.29164 1.90625,0.25 a 0.982651,0.982651 0 0 1 0.125,0 c 0.596467,0.04256 1.324197,-0.146896 2.15625,-0.3125 0.01357,-0.0048 0.01771,-0.0264 0.03125,-0.03125 0.477718,-0.171089 0.921918,-0.327254 1.34375,-0.5625 l 0.0625,-0.03125 c 0.471563,-0.35084 0.872443,-0.651228 1.0625,-0.90625 A 0.982651,0.982651 0 0 1 15.75,13 c 0.274055,-0.309779 0.491774,-0.707992 0.59375,-1.125 l 0,-0.03125 C 16.42764,11.417548 16.39909,10.923754 16.28125,10.4375 16.12847,10.00712 15.89269,9.624301 15.5625,9.25 15.209962,8.9354 14.837981,8.661483 14.4375,8.40625 13.758352,8.06924 13.10008,7.79411 12.46875,7.71875 a 0.982651,0.982651 0 0 1 -0.0625,0 C 12.00117,7.63427 11.49119,7.595083 10.9375,7.5625 l -0.03125,0 -0.0625,0 z"/></g><metadata id="metadata9999"><rdf:RDF><cc:Work><dc:format>image/svg+xml</dc:format><dc:type rdf:resource="http://purl.org/dc/dcmitype/StillImage"/><dc:title>Ivy icon theme</dc:title><cc:license rdf:resource="http://creativecommons.org/licenses/by-sa/4.0/"/><dc:creator><cc:Agent><dc:title>Sixsixfive (sixsixfive.deviantart.com)</dc:title></cc:Agent></dc:creator><dc:publisher><cc:Agent><dc:title>Sixsixfive (sixsixfive.deviantart.com)</dc:title></cc:Agent></dc:publisher><dc:source>https://github.com/sixsixfive</dc:source><dc:subject><rdf:Bag><rdf:li>ivy</rdf:li></rdf:Bag></dc:subject><dc:contributor><cc:Agent><dc:title>ssf</dc:title></cc:Agent></dc:contributor><dc:rights><cc:Agent><dc:title>Sixsixfive (sixisixfive.deviantart.com)</dc:title></cc:Agent></dc:rights><dc:description>A simple icon theme published under CC-BY-SA_V4(http://creativecommons.org/licenses/by-sa/4.0)</dc:description><dc:identifier>SSF</dc:identifier></cc:Work></rdf:RDF></metadata><!--Part of the Ivy icon them published under the CC-BY-SA_V4: http://creativecommons.org/licenses/by-sa/4.0 -->
</svg>