<?xml version="1.0" encoding="UTF-8" standalone="no"?>
<svg
   xmlns:dc="http://purl.org/dc/elements/1.1/"
   xmlns:cc="http://creativecommons.org/ns#"
   xmlns:rdf="http://www.w3.org/1999/02/22-rdf-syntax-ns#"
   xmlns:svg="http://www.w3.org/2000/svg"
   xmlns="http://www.w3.org/2000/svg"
   xmlns:xlink="http://www.w3.org/1999/xlink"
   version="1.1"
   id="svg2"
   viewBox="0 0 48 48">
  <defs
     id="defs4">
    <linearGradient
       id="linearGradient4294">
      <stop
         id="stop4296"
         offset="0"
         style="stop-color:#ffffff;stop-opacity:1;" />
      <stop
         id="stop4298"
         offset="1"
         style="stop-color:#ffffff;stop-opacity:0;" />
    </linearGradient>
    <linearGradient
       gradientUnits="userSpaceOnUse"
       x2="0"
       y2="44.02"
       y1="4.02"
       id="0">
      <stop
         id="stop7"
         stop-color="#fff" />
      <stop
         id="stop9"
         stop-opacity="0"
         stop-color="#fff"
         offset="1" />
    </linearGradient>
    <linearGradient
       gradientUnits="userSpaceOnUse"
       y2="25"
       x2="22"
       y1="11"
       x1="22"
       id="linearGradient4300"
       xlink:href="#linearGradient4294" />
    <mask
       id="mask4309"
       maskUnits="userSpaceOnUse">
      <rect
         width="42"
         x="3"
         y="3"
         rx="4"
         height="42"
         ry="4"
         id="rect4311"
         style="fill:#ffffff" />
    </mask>
  </defs>
  <rect
     id="rect21"
     ry="4"
     height="42"
     rx="4"
     y="4"
     opacity="0.1"
     x="3"
     width="42" />
  <rect
     style="fill:#66b03e"
     id="rect23"
     ry="4"
     height="42"
     rx="4"
     fill="url(#1)"
     y="3"
     x="3"
     width="42" />
  <path
     d="M 20.494959,7.2703363 6.4671731,21.433479 c -4.7396247,5.791158 2.9252924,5.11736 6.3398269,6.78537 1.224847,1.235296 -4.9948469,2.147087 -3.77,3.383413 1.224847,1.235296 8.006877,2.379928 9.233812,3.615224 1.224847,1.235295 -2.206659,2.545801 -0.981812,3.781097 1.224847,1.235296 3.757296,0.06491 4.28775,2.9167 0.378,2.037877 5.105095,0.875731 7.416954,-0.79331 1.224847,-1.236326 -1.818551,-0.986679 -0.593704,-2.221975 3.045932,-3.073301 5.656888,-1.250041 6.699,-4.329523 0.514791,-1.521712 -5.082936,-2.345929 -3.856,-3.581225 3.524175,-2.030666 16.004368,-3.352504 10.22472,-9.055059 L 26.927232,7.2703363 c -1.778273,-1.6844944 -4.74589,-1.7030393 -6.432273,0 z M 37,33.999998 c 0,0.702645 5,2 5.247106,-0.165874 C 41.499459,31.699401 38,30.999998 37,33.999998 Z m -24.502125,5 c 2.502125,0 2.92677,-1.52053 3.502125,-3 -3,0 -5,1 -3.502125,3 z m 23.452291,-2.986112 c -1.950166,0.986112 0.179602,2.855913 1.758433,1.940001 0.351895,-0.352352 -0.0094,-1.587648 -1.758433,-1.940001 z"
     id="path4319"
     style="fill:#ffffff;fill-opacity:1;opacity:0.4" />
  <rect
     ry="4.1904764"
     rx="4"
     y="3"
     x="3"
     height="22"
     width="42"
     id="rect3470"
     style="opacity:0.91159991;fill:#5288d1;fill-opacity:1;fill-rule:evenodd;stroke:none;stroke-width:3;stroke-linecap:round;stroke-linejoin:round;stroke-miterlimit:4;stroke-dasharray:none;stroke-dashoffset:0;stroke-opacity:1" />
  <g
     mask="url(#mask4309)"
     id="g4304">
    <path
       style="fill:#6a6a6a;fill-rule:evenodd;stroke:none;stroke-width:1px;stroke-linecap:butt;stroke-linejoin:miter;stroke-opacity:1"
       d="M 36.611328 8.0117188 C 36.189428 8.0618049 35.734933 8.2664692 35.234375 8.7011719 L 25.355469 20.779297 C 24.851733 21.698894 23.700779 22.420772 25.355469 24 L 49.066406 24 C 50.633389 22.926458 49.941038 21.85284 49.066406 20.779297 L 38.527344 8.7011719 C 37.928556 8.2742651 37.314495 7.9282419 36.611328 8.0117188 z M 4.0234375 10.636719 C 3.4867338 10.586976 2.9017859 10.730443 2.234375 11.214844 L -7.6445312 21.308594 C -8.1482672 22.077142 -9.2992213 22.680169 -7.6445312 24 L 16.066406 24 C 17.633389 23.102793 16.941038 22.205801 16.066406 21.308594 L 5.5273438 11.214844 C 5.0483132 10.929416 4.5601412 10.686462 4.0234375 10.636719 z "
       id="path4283" />
    <path
       d="m 36.78125,9.4394531 c -0.07955,0.00944 -0.263983,0.081751 -0.554688,0.3183594 L 26.503906,21.646484 c -0.280761,0.474109 -0.518884,0.817969 -0.541015,0.839844 0.0039,0.0082 0.05403,0.06135 0.0625,0.07617 l 22.5,0 c -0.02461,-0.05664 -0.193569,-0.404709 -0.570313,-0.869141 L 37.601562,9.828125 C 37.181726,9.5458132 36.910794,9.4240742 36.78125,9.4394531 Z M 3.890625,12.068359 C 3.713262,12.051922 3.5225579,12.086057 3.125,12.361328 l -9.7246094,9.935547 c -0.1119837,0.15795 -0.1460133,0.189784 -0.2109375,0.265625 l 22.0644529,0 c -0.08423,-0.115953 -0.05415,-0.07901 -0.208984,-0.240234 L 4.6953125,12.408203 C 4.3450222,12.210709 4.0587167,12.083939 3.890625,12.068359 Z"
       id="path4292"
       style="opacity:0.5;fill:none;fill-rule:evenodd;stroke:url(#linearGradient4300);stroke-width:1px;stroke-linecap:butt;stroke-linejoin:miter;stroke-opacity:1" />
    <path
       style="opacity:0.5;fill:none;fill-rule:evenodd;stroke:#000000;stroke-width:1px;stroke-linecap:butt;stroke-linejoin:miter;stroke-opacity:1"
       id="path4290"
       d="m 36.669922,8.5117188 c -0.300137,0.035631 -0.652907,0.1875351 -1.089844,0.5625 L 25.763672,21.076172 c -0.294891,0.515871 -0.646217,0.905046 -0.734375,1.207031 -0.04607,0.15783 -0.05258,0.288194 0.02734,0.496094 0.06694,0.17412 0.27395,0.434418 0.541015,0.716797 l 23.275391,0 c 0.558746,-0.41487 0.664103,-0.698052 0.611328,-1.025391 -0.05692,-0.353032 -0.382107,-0.849567 -0.808594,-1.373047 L 38.197266,9.0898438 C 37.643131,8.6991061 37.165502,8.4528857 36.669922,8.5117188 Z M 3.9765625,11.138672 c -0.4105205,-0.03805 -0.8460021,0.0573 -1.4296875,0.476562 l -9.8066406,10.017578 c -0.3039933,0.444755 -0.6488614,0.780424 -0.71875,0.980469 -0.036707,0.105068 -0.044641,0.158659 0.023437,0.306641 0.057222,0.124384 0.2595133,0.341038 0.5253906,0.576172 l 23.3261715,0 c 0.264178,-0.16759 0.458231,-0.328172 0.527344,-0.4375 0.07961,-0.125927 0.08685,-0.192492 0.06445,-0.308594 -0.0448,-0.232204 -0.358085,-0.653753 -0.783203,-1.089844 L 5.2421875,11.636719 C 4.7958081,11.372982 4.3822444,11.176271 3.9765625,11.138672 Z" />
  </g>
  <g
     fill="none"
     id="g25">
    <path
       stroke="#000"
       opacity="0.4"
       id="path27"
       d="m 7,3.5128 c -1.94587,0 -3.5,1.5541 -3.5,3.5 l 0,34 c 0,1.9459 1.55413,3.5 3.5,3.5 l 34,0 c 1.94587,0 3.5,-1.5541 3.5,-3.5 l 0,-34 c 0,-1.9459 -1.55413,-3.5 -3.5,-3.5 l -34,0 z" />
    <path
       stroke="url(#0)"
       opacity="0.4"
       id="path29"
       d="m 7,4.5128 c -1.40738,0 -2.5,1.0926 -2.5,2.5 l 0,34 c 0,1.4074 1.09262,2.5 2.5,2.5 l 34,0 c 1.40738,0 2.5,-1.0926 2.5,-2.5 l 0,-34 c 0,-1.4074 -1.09262,-2.5 -2.5,-2.5 l -34,0 z" />
  </g>
  <path
     style="fill:#2e2e2e;fill-opacity:1"
     id="path3452"
     d="M 20.494959,6.2703347 6.4671731,20.433481 c -4.7396247,5.791158 2.9252924,5.11736 6.3398269,6.78537 1.224847,1.235296 -4.9948469,2.147087 -3.77,3.383413 1.224847,1.235296 8.006877,2.379928 9.233812,3.615224 1.224847,1.235295 -2.206659,2.545801 -0.981812,3.781097 1.224847,1.235296 3.757296,0.06491 4.28775,2.9167 0.378,2.037877 5.105095,0.875731 7.416954,-0.79331 C 30.218551,38.885649 27.175153,39.135296 28.4,37.9 c 3.045932,-3.073301 5.656888,-1.250041 6.699,-4.329523 0.514791,-1.521712 -5.082936,-2.345929 -3.856,-3.581225 3.524175,-2.030666 16.004368,-3.352504 10.22472,-9.055059 L 26.927232,6.2703347 c -1.778273,-1.6844944 -4.74589,-1.7030393 -6.432273,0 z M 37,33 c 0,0.702645 5,2 5.247106,-0.165874 C 41.499459,30.699403 38,30 37,33 Z M 12.497875,38 C 15,38 15.424645,36.47947 16,35 c -3,0 -5,1 -3.502125,3 z M 35.950166,35.013888 C 34,36 36.129768,37.869801 37.708599,36.953889 c 0.351895,-0.352352 -0.0094,-1.587648 -1.758433,-1.940001 z" />
  <path
     id="path3454"
     d="M 17.137855,27.985373 C 17.512723,28.215124 23,29 25,29 c 0.480332,0.09994 -0.337977,1.670313 -1,2 -1.493206,0.391503 -8.689495,-3.014627 -6.862145,-3.014627 z"
     style="fill:#66b03e" />
  <path
     d="m 23.673828,5.4941406 c -1.056272,-0.00208 -2.087832,0.375442 -2.828125,1.1230469 L 6.8496094,20.748047 c -0.00147,0.0018 -0.00244,0.0021 -0.00391,0.0039 -1.1428437,1.397832 -1.4513952,2.33596 -1.3769531,2.884766 0.074538,0.549512 0.5029844,0.929713 1.3085938,1.28125 1.6112187,0.703073 4.3839212,0.945792 6.2460942,1.855469 a 0.49512751,0.49512751 0 0 1 0.134765,0.09766 c 0.237564,0.239591 0.365004,0.64405 0.255859,0.958984 -0.109144,0.314934 -0.328586,0.500281 -0.564453,0.667969 -0.471734,0.335376 -1.108137,0.598818 -1.732421,0.867187 -0.624285,0.26837 -1.2372493,0.542055 -1.5488286,0.763672 -0.1166558,0.08297 -0.1327901,0.115705 -0.1523438,0.138672 0.1845148,0.17595 0.7844814,0.493846 1.5761724,0.78125 0.805448,0.292399 1.801679,0.589228 2.802734,0.886719 1.001055,0.297491 2.00807,0.596057 2.857422,0.904297 0.849351,0.308239 1.530191,0.58383 1.970703,1.027344 a 0.49512751,0.49512751 0 0 1 0,0.002 c 0.418425,0.421994 0.47649,1.039427 0.296875,1.474609 -0.179615,0.435182 -0.489717,0.769646 -0.765625,1.087891 -0.275909,0.318244 -0.516514,0.61981 -0.597656,0.816406 -0.08114,0.196596 -0.110014,0.20669 0.08398,0.402344 0.437356,0.441087 1.24447,0.481849 2.175781,0.720703 0.465656,0.119427 0.960919,0.308768 1.376953,0.699218 0.416035,0.390451 0.722467,0.967322 0.869141,1.75586 0.05921,0.319193 0.223226,0.464767 0.642578,0.583984 0.419353,0.119218 1.060646,0.125026 1.775391,0.0098 1.416963,-0.2285 3.117221,-0.918983 4.189453,-1.683594 0.04849,-0.05569 0.07077,-0.08429 0.08398,-0.107422 -0.02681,-0.01239 -0.103653,-0.08107 -0.292968,-0.183594 -0.227293,-0.123094 -0.537262,-0.234509 -0.746094,-0.611328 -0.104416,-0.188409 -0.134533,-0.460361 -0.0625,-0.685546 0.07203,-0.225186 0.21024,-0.407871 0.396484,-0.595704 1.607204,-1.621645 3.17784,-1.984238 4.324219,-2.292968 0.573189,-0.154366 1.029906,-0.301385 1.382812,-0.550782 0.352906,-0.249396 0.639348,-0.600514 0.875,-1.296875 0.01852,-0.05475 0.02094,-0.05099 -0.02539,-0.128906 -0.04633,-0.07792 -0.166621,-0.205321 -0.351563,-0.337891 -0.369884,-0.265139 -0.966967,-0.548502 -1.558594,-0.824218 -0.591626,-0.275716 -1.17338,-0.535591 -1.603515,-0.878906 -0.215068,-0.171658 -0.419492,-0.373834 -0.496094,-0.691407 -0.0766,-0.317572 0.06551,-0.681133 0.294922,-0.912109 a 0.49512751,0.49512751 0 0 1 0.103516,-0.08008 c 0.970438,-0.559177 2.41947,-1.012744 3.996093,-1.511719 1.576624,-0.498975 3.270773,-1.03145 4.646485,-1.660156 1.375711,-0.628707 2.390585,-1.369303 2.710937,-2.113281 0.160176,-0.37199 0.18553,-0.746853 0.01563,-1.232422 -0.169905,-0.485569 -0.556791,-1.077679 -1.24414,-1.75586 a 0.49512751,0.49512751 0 0 1 -0.0039,-0.0039 L 26.587891,6.6289062 C 25.798214,5.880873 24.730101,5.4962245 23.673828,5.4941406 Z M 39.689453,31.486328 c -0.836579,-0.05103 -1.639833,0.323939 -2.105469,1.435547 0.09255,0.05744 0.208221,0.124445 0.382813,0.193359 0.422435,0.166742 1.024367,0.31912 1.619141,0.384766 0.594773,0.06565 1.186992,0.03787 1.578124,-0.0957 0.330208,-0.112771 0.4732,-0.259279 0.541016,-0.503906 -0.336909,-0.793019 -1.156961,-1.361686 -2.015625,-1.414063 z m -3.638672,4.085938 c -0.200228,0.142728 -0.36933,0.289953 -0.382812,0.371093 -0.01774,0.106786 0.02332,0.243504 0.183593,0.400391 0.295574,0.289332 0.918862,0.439762 1.46875,0.205078 -0.0103,-0.0712 -0.03471,-0.170587 -0.115234,-0.291016 -0.161302,-0.241239 -0.539677,-0.515018 -1.154297,-0.685546 z m -20.884765,0.0039 c -1.026745,0.0877 -1.905108,0.278029 -2.3125,0.574219 -0.260217,0.189187 -0.353624,0.353931 -0.367188,0.568359 -0.0102,0.161221 0.140967,0.450435 0.306641,0.740234 0.909068,-0.0595 1.446211,-0.315798 1.804687,-0.728515 0.24358,-0.280436 0.394918,-0.744311 0.56836,-1.154297 z"
     id="path4317"
     style="opacity:0.6;fill:none;fill-opacity:1;stroke:#000000" />
  <path
     style="fill:#000000;opacity:0.6"
     d="m 26.104286,7.9157011 5.72687,5.5614069 C 32.374212,14.007698 32.303853,14.704312 32,15 l -3,-2 -1,4 -2,-2 -3,3 -2,-5 -2,3 -2.948715,0.01261 c -1.273583,0.0054 -1.423366,-1.545408 -0.26614,-2.65192 2.021375,-2.0863 4.341216,-4.2127808 5.601881,-5.4449859 1.267131,-1.2383867 3.474912,-1.2033574 4.71726,0 z"
     id="path4321" />
  <path
     id="path3456"
     d="m 26.104286,6.9157011 5.72687,5.5614069 C 32.374212,13.007698 32.303853,13.704312 32,14 l -3,-2 -1,4 -2,-2 -3,3 -2,-5 -2,3 -2.948715,0.01261 c -1.273583,0.0054 -1.423366,-1.545408 -0.26614,-2.65192 2.021375,-2.0863 4.341216,-4.2127808 5.601881,-5.4449859 1.267131,-1.2383867 3.474912,-1.2033574 4.71726,0 z"
     style="fill:#ebebeb" />
  <metadata
     id="metadata9999">
    <rdf:RDF>
      <cc:Work>
        <dc:format>image/svg+xml</dc:format>
        <dc:type
           rdf:resource="http://purl.org/dc/dcmitype/StillImage" />
        <dc:title></dc:title>
        <cc:license
           rdf:resource="http://creativecommons.org/licenses/by-sa/4.0/" />
        <dc:creator>
          <cc:Agent>
            <dc:title>Sixsixfive (sixsixfive.deviantart.com)</dc:title>
          </cc:Agent>
        </dc:creator>
        <dc:publisher>
          <cc:Agent>
            <dc:title>Sixsixfive (sixsixfive.deviantart.com)</dc:title>
          </cc:Agent>
        </dc:publisher>
        <dc:source>https://github.com/sixsixfive</dc:source>
        <dc:subject>
          <rdf:Bag>
            <rdf:li>ivy</rdf:li>
          </rdf:Bag>
        </dc:subject>
        <dc:contributor>
          <cc:Agent>
            <dc:title>ssf</dc:title>
          </cc:Agent>
        </dc:contributor>
        <dc:rights>
          <cc:Agent>
            <dc:title>Sixsixfive (sixisixfive.deviantart.com)</dc:title>
          </cc:Agent>
        </dc:rights>
        <dc:description>A simple icon theme published under CC-BY-SA_V4(http://creativecommons.org/licenses/by-sa/4.0)</dc:description>
        <dc:identifier>SSF</dc:identifier>
      </cc:Work>
    </rdf:RDF>
  </metadata>
  <!--Part of the Ivy icon them published under the CC-BY-SA_V4: http://creativecommons.org/licenses/by-sa/4.0 -->
</svg>
