<?xml version="1.0" encoding="UTF-8" standalone="no"?><svg viewBox="0 0 22 22" xmlns="http://www.w3.org/2000/svg" xmlns:svg="http://www.w3.org/2000/svg" xmlns:rdf="http://www.w3.org/1999/02/22-rdf-syntax-ns#" xmlns:xlink="http://www.w3.org/1999/xlink" version="1.1" id="svg2" xmlns:dc="http://purl.org/dc/elements/1.1/" xmlns:cc="http://creativecommons.org/ns#"><defs id="defs4"><linearGradient y1="44.01" x2="0" y2="2" gradientTransform="matrix(0.37195 0 0 0.38089 -22.27 -22.762)" id="0" gradientUnits="userSpaceOnUse"><stop id="stop7" stop-color="#dedede"/><stop offset="1" id="stop9" stop-color="#f4f4f4"/></linearGradient><linearGradient x1="-8.372" y1="15.469" x2="-8.254" y2="22.531" gradientTransform="matrix(0.24657 0 0 0.50768 -6.491 10.418)" id="1" gradientUnits="userSpaceOnUse"><stop id="stop12" stop-color="#ebebeb"/><stop offset="1" id="stop14" stop-color="#b7b7b7"/></linearGradient><linearGradient xlink:href="#5" y1="43.997" x2="0" y2="1.99" gradientTransform="matrix(-0.37195 0 0 -0.38089 22.279 22.758)" id="2" gradientUnits="userSpaceOnUse"/><linearGradient x1="21.06" y1="6.02" x2="21" y2="20" id="3" gradientUnits="userSpaceOnUse"><stop id="stop18" stop-color="#5288d1"/><stop offset="1" id="stop20" stop-color="#8eb1e1"/></linearGradient><linearGradient x1="2.028" y1="2.034" x2="0.21" y2="12.03" id="4" gradientUnits="userSpaceOnUse"><stop id="stop23" stop-color="#eeeeec"/><stop offset="1" id="stop25" stop-color="#555753"/></linearGradient><linearGradient id="5"><stop id="stop28" stop-color="#fff"/><stop stop-opacity="0" offset="1" id="stop30" stop-color="#fff"/></linearGradient><linearGradient xlink:href="#5" y1="5" x2="0" y2="20" id="6" gradientUnits="userSpaceOnUse"/><linearGradient xlink:href="#5" y1="4.761" x2="0" y2="19.307" id="7" gradientUnits="userSpaceOnUse"/><radialGradient gradientTransform="matrix(0.40911 -0.35335 0.50465 0.28689 21.791 -0.516)" id="8" cy="26.712" cx="-36.514" r="5.533" gradientUnits="userSpaceOnUse"><stop id="stop35" stop-color="#f1d6a5"/><stop offset="1" id="stop37" stop-color="#d49320"/></radialGradient><radialGradient gradientTransform="matrix(-0.1963 -0.2357 0.09354 -0.15865 -7.784 22.527)" id="9" cy="16.184" cx="0.704" r="14.5" gradientUnits="userSpaceOnUse"><stop id="stop40" stop-color="#f28099"/><stop offset="1" id="stop42" stop-color="#ed4c70"/></radialGradient></defs><g id="g44" color="#000"><g id="g46" fill-rule="evenodd"><path opacity="0.1" id="path48" d="m 3.047617,2.860371 c -0.251825,0 -0.361032,0.220743 -0.454557,0.454556 l -0.539831,1.36367 -0.511377,0 c -0.251824,0 -0.454556,0.202732 -0.454556,0.454557 l 0,15.412284 C 1.087296,20.79726 1.290028,21 1.541852,21 l 19.09138,0 c 0.251824,0 0.454558,-0.20274 0.454558,-0.454562 l 0,-15.412284 c 0,-0.251825 -0.202734,-0.454557 -0.454558,-0.454557 l -10.227525,0 -0.539831,-1.36367 C 9.772351,3.081114 9.663143,2.860371 9.411319,2.860371 l -6.363793,0 z"/><path id="path50" d="m 3.047617,2.076704 c -0.251825,0 -0.361032,0.220744 -0.454557,0.454557 l -0.539831,1.36367 -0.511377,0 c -0.251824,0 -0.454556,0.202732 -0.454556,0.454556 l 0,15.412293 c 0,0.25182 0.202732,0.45456 0.454556,0.45456 l 19.09138,0 c 0.251824,0 0.454558,-0.20274 0.454558,-0.45456 l 0,-15.412293 c 0,-0.251824 -0.202734,-0.454556 -0.454558,-0.454556 l -10.227525,0 -0.539831,-1.36367 C 9.772351,2.297448 9.663143,2.076704 9.411319,2.076704 l -6.363793,0 z" fill="url(#4)"/></g><g id="g52" fill="none"><path stroke="#000" opacity="0.4" id="path54" d="M 3.09375,2.5625 C 2.847241,3.112129 2.707235,3.730741 2.40625,4.25 2.217174,4.557857 1.635589,4.228246 1.5625,4.5 l 0,15.21875 19.03125,0 0,-15.3125 C 17.1618,4.39941 13.743352,4.398924 10.3125,4.375 9.827029,4.224431 9.847486,3.599692 9.625,3.21875 9.481738,2.900849 9.424966,2.420177 8.96875,2.5625 l -5.875,0 z"/><path stroke="url(#7)" opacity="0.4" id="path56" d="M 3.78125,3.5625 C 3.651757,3.870313 3.54669,4.241835 3.375,4.5625 3.202588,4.884514 2.953506,5.152054 2.5625,5.28125 l 0,13.46875 17.0625,0 0,-13.375 c -3.117823,-0.00398 -6.224701,0.015677 -9.34375,0 C 9.863259,5.353539 9.545702,5.155934 9.3125,4.875 9.0793,4.594066 8.920174,4.23736 8.8125,3.90625 a 0.1007,0.1007 0 0 1 0,-0.03125 C 8.793727,3.704416 8.741985,3.638394 8.65625,3.59375 8.570515,3.549106 8.440909,3.536056 8.28125,3.5625 a 0.1007,0.1007 0 0 1 -0.03125,0 l -4.46875,0 z"/></g><path id="path58" fill-rule="evenodd" d="m 11.812012,6 c -0.18887,0 -0.301553,0.120934 -0.383531,0.278481 -0.02726,0.052511 -0.04761,0.10979 -0.07103,0.167088 L 11.00248,7.736646 10.633199,8.627785 c -0.02336,0.057303 -0.04369,0.114572 -0.07102,0.167088 -0.08197,0.157545 -0.198981,0.317857 -0.383528,0.278477 l -4.176241,0 -2.187552,0 -2.72734,0 -1.09e-4,10.697417 c -2e-6,0.246843 0.202733,0.445573 0.454557,0.445573 l 19.09138,0 c 0.251822,0 0.454554,-0.19873 0.454554,-0.445573 l 0,-13.325198 C 21.0879,6.198723 20.869528,6.08564 20.633346,6 L 18.1759,6 14.2695,6 Z" fill="url(#3)"/></g><rect y="-22" x="-21" opacity="0.15" ry="0.531" height="17" rx="0.531" transform="matrix(-1 0 0 -1 0 0)" id="rect60" width="15"/><g id="g62" color="#000" fill="none"><path stroke="#000" opacity="0.4" id="path64" d="M 11.90625,6.53125 C 11.65973,7.130617 11.622868,7.830828 11.307357,8.41825 11.08583,8.936495 10.862062,9.668555 10.162593,9.607284 7.318545,9.575783 4.470563,9.602744 1.625,9.59375 c 0,3.364583 0,6.729167 0,10.09375 6.3125,0 12.625,0 18.9375,0 0,-4.375 0,-8.75 0,-13.125 -0.739737,-0.072509 -1.51118,-0.01072 -2.263186,-0.03125 -2.131024,0 -4.262044,0 -6.393064,0 z"/><path stroke="url(#6)" opacity="0.4" id="path66" d="m 12.625,7.5 c -0.08421,0.374716 -0.168098,0.738695 -0.4375,1.28125 l 0.03125,0 C 12.20935,8.803202 12.16628,8.850125 12.15625,8.875 12.065,9.101361 11.94934,9.420332 11.6875,9.78125 c -0.276227,0.380748 -0.877495,0.762425 -1.53125,0.75 l 0,0.03125 c -0.03107,-3.44e-4 -0.06267,3.27e-4 -0.09375,0 -2.475723,-0.02605 -4.97118,-5.56e-4 -7.46875,0 l 0,8.15625 17,0 0,-11.1875 C 19.1783,7.53216 18.793135,7.511863 18.3125,7.5 c -0.01172,-2.89e-4 -0.0195,3.21e-4 -0.03125,0 l -5.65625,0 z"/></g><rect y="-22" x="-20.04" ry="0.46" height="15.997" rx="0.46" transform="matrix(-1 0 0 -1 0 0)" id="rect68" width="13" fill="url(#0)"/><path opacity="0.724" id="path70" d="M 18.13754 5.999836 C 17.506577 6.128295 17.04379 6.704358 17.04379 7.374836 V 7.749836 V 14.906085 V 18.06234 V 18.09359 H 17.07504 L 19.10629 21.999835 L 21.10629 18.06234 V 14.906085 V 7.374836 C 21.10629 6.608892 20.466251 5.999836 19.700036 5.999836 H 18.418786 C 18.321076 5.999836 18.225745 5.981877 18.13754 5.999836 z" fill="#fff"/><g id="g72" fill="none"><path stroke="#000" opacity="0.4" id="path74" d="m 19.518686,6.532036 -11.9375,0 0,14.937499 11.9375,0 0,-14.937499 z"/><path stroke="url(#2)" opacity="0.81" id="path76" d="m 18.549986,7.532036 -10,0 0,12.937499 10,0 0,-12.937499 z"/></g><g transform="matrix(1 0 0 1 25.845 6.333)" id="g78"><path opacity="0.3" id="path80" d="m -15.801,2.667 7.04,0 0,1 -7.04,0 z"/><path opacity="0.3" id="path82" d="m -15.845,4.667 5.04,0 0,1 -5.04,0 z"/><path opacity="0.3" id="path84" d="m -15.845,6.667 6.04,0 0,1 -6.04,0 z"/><path opacity="0.3" id="path86" d="m -15.845,8.667 4.04,0 0,1 -4.04,0 z"/><path opacity="0.3" id="path88" d="m -15.845,10.667 5.04,0 0,1 -5.04,0 z"/><g id="g90" fill="#fff"><path opacity="0.4" id="path92" d="m -15.801,3.667 7.04,0 0,1 -7.04,0 z"/><path opacity="0.4" id="path94" d="m -15.845,5.667 5.04,0 0,1 -5.04,0 z"/><path opacity="0.4" id="path96" d="m -15.845,7.667 6.04,0 0,1 -6.04,0 z"/><path opacity="0.4" id="path98" d="m -15.845,9.667 4.04,0 0,1 -4.04,0 z"/><path opacity="0.4" id="path100" d="m -15.845,11.667 5.04,0 0,1 -5.04,0 z"/></g></g><g transform="matrix(0 -1 1 0 0 0)" id="g102"><path opacity="0.67" id="path104" d="m -18.0798,18.0328 10.31596,0 0,4.061 -10.31596,0 z" fill="#eed45a"/><path id="rect106" d="m -14.911,18.030001 7.5320005,0 c 0.771168,0 1.392,0.620832 1.392,1.392 l 0,1.277 c 0,0.771168 -0.620832,1.392 -1.392,1.392 l -7.5320005,0 c -0.771168,0 -1.391999,-0.620832 -1.391999,-1.392 l 0,-1.277 c 0,-0.771168 0.620831,-1.392 1.391999,-1.392 z" fill="url(#9)"/></g><path id="path108" d="M 18.03269 18.05814 H 22.09409 L 20.10289 21.994735 C 18.0327 18.05811 20.10289 21.994735 18.0327 18.05811 z" fill="url(#8)"/><g transform="matrix(0 -1 1 0 0 0)" id="g110"><path id="path112" d="m -18.0798,21.0738 10.16196,0 0,1.015 -10.16196,0 z" fill="#a07018"/><path id="path114" d="m -18.0798,19.0638 10.05996,0 0,2.01 -10.05996,0 z" fill="#e4ae4e"/><path id="path116" d="m -18.0798,18.0328 10.11096,0 0,1.01 -10.11096,0 z" fill="#eecd92"/><path id="path118" d="m -8.95684,18.0328 0.986,0 0,4.061 -0.986,0 z" fill="url(#1)"/></g><path id="path120" d="M 19.05639 19.984835 L 20.09519 21.994735 L 21.07659 20.01054 z" fill="#6a6a6a"/><path opacity="0.06" id="path122" d="M 18.5558,18.0298 H21.5248 V18.9768 H18.5558 z"/><path stroke-linejoin="round" stroke="#000" opacity="0.34" id="path124" d="M 19.231286 6.499836 C 18.832153 6.581097 18.543786 6.927039 18.543786 7.374836 V 7.749836 V 14.906085 V 17.937335 L 20.10629 20.937335 L 21.606286 17.937335 V 14.906085 V 7.374836 C 21.606286 6.878914 21.20952 6.499836 20.700036 6.499836 H 19.418786 C 19.258164 6.499836 19.19157 6.507923 19.231286 6.499836 z" fill="none"/><metadata id="metadata9999"><rdf:RDF><cc:Work><dc:format>image/svg+xml</dc:format><dc:type rdf:resource="http://purl.org/dc/dcmitype/StillImage"/><dc:title>Ivy icon theme</dc:title><cc:license rdf:resource="http://creativecommons.org/licenses/by-sa/4.0/"/><dc:creator><cc:Agent><dc:title>Sixsixfive (sixsixfive.deviantart.com)</dc:title></cc:Agent></dc:creator><dc:publisher><cc:Agent><dc:title>Sixsixfive (sixsixfive.deviantart.com)</dc:title></cc:Agent></dc:publisher><dc:source>https://github.com/sixsixfive</dc:source><dc:subject><rdf:Bag><rdf:li>ivy</rdf:li></rdf:Bag></dc:subject><dc:contributor><cc:Agent><dc:title>ssf</dc:title></cc:Agent></dc:contributor><dc:rights><cc:Agent><dc:title>Sixsixfive (sixisixfive.deviantart.com)</dc:title></cc:Agent></dc:rights><dc:description>A simple icon theme published under CC-BY-SA_V4(http://creativecommons.org/licenses/by-sa/4.0)</dc:description><dc:identifier>SSF</dc:identifier></cc:Work></rdf:RDF></metadata><!--Part of the Ivy icon them published under the CC-BY-SA_V4: http://creativecommons.org/licenses/by-sa/4.0 -->
</svg>