<?xml version="1.0" encoding="UTF-8" standalone="no"?><svg xmlns:cc="http://creativecommons.org/ns#" xmlns:rdf="http://www.w3.org/1999/02/22-rdf-syntax-ns#" xmlns:svg="http://www.w3.org/2000/svg" id="svg2" viewBox="0 0 22 22" version="1.1" xmlns:xlink="http://www.w3.org/1999/xlink" xmlns="http://www.w3.org/2000/svg" xmlns:dc="http://purl.org/dc/elements/1.1/"><defs id="defs4"><linearGradient id="0" x2="-1.213" y2="15.356" xlink:href="#5" x1="5.657" y1="8.485" gradientUnits="userSpaceOnUse"/><linearGradient id="1" x2="21" y2="20" x1="21.06" y1="6.02" gradientUnits="userSpaceOnUse"><stop id="stop8" stop-color="#5288d1"/><stop offset="1" id="stop10" stop-color="#8eb1e1"/></linearGradient><linearGradient id="2" x2="-0.001" y2="21.21" x1="9.897" y1="11.313" gradientUnits="userSpaceOnUse"><stop id="stop13" stop-color="#ffb636"/><stop offset="1" id="stop15" stop-color="#ffe775"/></linearGradient><linearGradient id="3" x2="0" y2="20" xlink:href="#5" y1="5" gradientUnits="userSpaceOnUse"/><linearGradient id="4" x2="0.21" y2="12.03" x1="2.028" y1="2.034" gradientUnits="userSpaceOnUse"><stop id="stop19" stop-color="#eeeeec"/><stop offset="1" id="stop21" stop-color="#555753"/></linearGradient><linearGradient id="5"><stop id="stop24" stop-color="#fff"/><stop offset="1" id="stop26" stop-color="#fff" stop-opacity="0"/></linearGradient><linearGradient id="6" x2="0" y2="19.307" xlink:href="#5" y1="4.761" gradientUnits="userSpaceOnUse"/></defs><g id="g29" color="#000"><g id="g31" fill-rule="evenodd"><path id="path33" opacity="0.1" d="m 3.047617,2.860371 c -0.251825,0 -0.361032,0.220743 -0.454557,0.454556 l -0.539831,1.36367 -0.511377,0 c -0.251824,0 -0.454556,0.202732 -0.454556,0.454557 l 0,15.412284 C 1.087296,20.79726 1.290028,21 1.541852,21 l 19.09138,0 c 0.251824,0 0.454558,-0.20274 0.454558,-0.454562 l 0,-15.412284 c 0,-0.251825 -0.202734,-0.454557 -0.454558,-0.454557 l -10.227525,0 -0.539831,-1.36367 C 9.772351,3.081114 9.663143,2.860371 9.411319,2.860371 l -6.363793,0 z"/><path id="path35" d="m 3.047617,2.076704 c -0.251825,0 -0.361032,0.220744 -0.454557,0.454557 l -0.539831,1.36367 -0.511377,0 c -0.251824,0 -0.454556,0.202732 -0.454556,0.454556 l 0,15.412293 c 0,0.25182 0.202732,0.45456 0.454556,0.45456 l 19.09138,0 c 0.251824,0 0.454558,-0.20274 0.454558,-0.45456 l 0,-15.412293 c 0,-0.251824 -0.202734,-0.454556 -0.454558,-0.454556 l -10.227525,0 -0.539831,-1.36367 C 9.772351,2.297448 9.663143,2.076704 9.411319,2.076704 l -6.363793,0 z" fill="url(#4)"/></g><g id="g37" fill="none"><path id="path39" opacity="0.4" d="M 3.09375,2.5625 C 2.847241,3.112129 2.707235,3.730741 2.40625,4.25 2.217174,4.557857 1.635589,4.228246 1.5625,4.5 l 0,15.21875 19.03125,0 0,-15.3125 C 17.1618,4.39941 13.743352,4.398924 10.3125,4.375 9.827029,4.224431 9.847486,3.599692 9.625,3.21875 9.481738,2.900849 9.424966,2.420177 8.96875,2.5625 l -5.875,0 z" stroke="#000"/><path id="path41" opacity="0.4" d="M 3.78125,3.5625 C 3.651757,3.870313 3.54669,4.241835 3.375,4.5625 3.202588,4.884514 2.953506,5.152054 2.5625,5.28125 l 0,13.46875 17.0625,0 0,-13.375 c -3.117823,-0.00398 -6.224701,0.015677 -9.34375,0 C 9.863259,5.353539 9.545702,5.155934 9.3125,4.875 9.0793,4.594066 8.920174,4.23736 8.8125,3.90625 a 0.1007,0.1007 0 0 1 0,-0.03125 C 8.793727,3.704416 8.741985,3.638394 8.65625,3.59375 8.570515,3.549106 8.440909,3.536056 8.28125,3.5625 a 0.1007,0.1007 0 0 1 -0.03125,0 l -4.46875,0 z" stroke="url(#6)"/></g><path id="path43" d="m 11.812012,6 c -0.18887,0 -0.301553,0.120934 -0.383531,0.278481 -0.02726,0.052511 -0.04761,0.10979 -0.07103,0.167088 L 11.00248,7.736646 10.633199,8.627785 c -0.02336,0.057303 -0.04369,0.114572 -0.07102,0.167088 -0.08197,0.157545 -0.198981,0.317857 -0.383528,0.278477 l -4.176241,0 -2.187552,0 -2.72734,0 -1.09e-4,10.697417 c -2e-6,0.246843 0.202733,0.445573 0.454557,0.445573 l 19.09138,0 c 0.251822,0 0.454554,-0.19873 0.454554,-0.445573 l 0,-13.325198 C 21.0879,6.198723 20.869528,6.08564 20.633346,6 L 18.1759,6 14.2695,6 Z" fill-rule="evenodd" fill="url(#1)"/><g id="g45" fill="none"><path id="path47" opacity="0.4" d="M 11.90625,6.53125 C 11.65973,7.130617 11.622868,7.830828 11.307357,8.41825 11.08583,8.936495 10.862062,9.668555 10.162593,9.607284 7.318545,9.575783 4.470563,9.602744 1.625,9.59375 c 0,3.364583 0,6.729167 0,10.09375 6.3125,0 12.625,0 18.9375,0 0,-4.375 0,-8.75 0,-13.125 -0.739737,-0.072509 -1.51118,-0.01072 -2.263186,-0.03125 -2.131024,0 -4.262044,0 -6.393064,0 z" stroke="#000"/><path id="path49" opacity="0.4" d="m 12.625,7.5 c -0.08421,0.374716 -0.168098,0.738695 -0.4375,1.28125 l 0.03125,0 C 12.20935,8.803202 12.16628,8.850125 12.15625,8.875 12.065,9.101361 11.94934,9.420332 11.6875,9.78125 c -0.276227,0.380748 -0.877495,0.762425 -1.53125,0.75 l 0,0.03125 c -0.03107,-3.44e-4 -0.06267,3.27e-4 -0.09375,0 -2.475723,-0.02605 -4.97118,-5.56e-4 -7.46875,0 l 0,8.15625 17,0 0,-11.1875 C 19.1783,7.53216 18.793135,7.511863 18.3125,7.5 c -0.01172,-2.89e-4 -0.0195,3.21e-4 -0.03125,0 l -5.65625,0 z" stroke="url(#3)"/></g></g><g id="g51" transform="matrix(1 0 0 1 6.974 6)"><g id="g53" transform="matrix(0.70711 -0.70711 0.70711 0.70711 0 0)"><path id="rect55" opacity="0.1" d="m -5.2430001,6.9000001 9.0710002,0 c 0.32409,0 0.585,0.26091 0.585,0.585 l 0,9.0709999 c 0,0.32409 -0.26091,0.585 -0.585,0.585 l -9.0710002,0 c -0.32409,0 -0.585,-0.26091 -0.585,-0.585 l 0,-9.0709999 c 0,-0.32409 0.26091,-0.585 0.585,-0.585 z"/><path id="rect57" d="m -4.5359998,6.1929998 9.0710002,0 c 0.32409,0 0.585,0.26091 0.585,0.585 l 0,9.0710002 c 0,0.32409 -0.26091,0.585 -0.585,0.585 l -9.0710002,0 c -0.32409,0 -0.585,-0.26091 -0.585,-0.585 l 0,-9.0710002 c 0,-0.32409 0.26091,-0.585 0.585,-0.585 z" fill="url(#2)"/></g><g id="g59" stroke="#010102" transform="matrix(0.28704 0 0 0.31276 0.972 -0.338)" fill="#171717"><g id="g61" opacity="0.4" transform="matrix(1 0 0 1 0 3.197)" fill="#fff"><use height="22" id="use63" width="22" x="0" xlink:href="#7" y="0"/><use height="22" id="use65" width="22" x="0" xlink:href="#8" y="0"/></g><path id="7" stroke-width="0.011" d="m 25.785482,13.906741 c 0.554767,-0.09196 1.195827,-0.02299 1.602654,0.367829 0.456136,0.379324 0.752014,1.000036 0.579417,1.563272 -0.06163,0.609218 -0.628729,1.080497 -1.232807,1.229928 -1.097197,0.356334 -2.428633,-0.632206 -2.231382,-1.724198 0.135611,-0.632206 0.628726,-1.206942 1.282118,-1.436831 z"/><path id="8" stroke-width="0.013" d="m 16.11773,18.288343 c 0.138869,-0.46434 0.305521,-0.968479 0.777692,-1.220553 1.458176,0.01327 2.902462,0.01327 4.346749,0.01327 0.291637,-0.01327 0.569388,0.05306 0.847139,0.106137 0.569377,0.875613 1.263749,1.671623 1.860907,2.533967 0.305523,0.437806 0.597157,0.995013 0.319408,1.512421 -0.805468,1.419551 -1.638716,2.825835 -2.430296,4.258655 1.819249,1.273617 4.308981,3.104455 6.128224,4.364807 0.527722,-0.543937 0.574878,-0.34613 1.408125,-0.160396 0.295375,0.160396 1.408456,0.209515 1.434903,0.213449 0.291639,-0.132669 0.666596,-0.185738 0.958232,-0.02653 0.499947,0.305139 0.749922,0.888878 0.763804,1.432819 0.305527,0.13267 0.555503,0.318406 0.722143,0.583741 0.7777,-0.05307 1.374856,0.490874 1.680377,1.114419 -3.45796,0.02653 -6.902037,-0.01327 -10.359991,0.03979 -0.84713,-0.0796 -1.708148,0.06634 -2.569166,-0.05305 0.18054,-0.199005 0.333298,-0.424543 0.486061,-0.65008 0.402734,-0.17247 0.819351,-0.358203 1.277635,-0.358203 0.236094,-0.05307 0.472174,-0.132669 0.361074,-0.424541 0.236083,-0.344936 0.541609,-0.729675 1.04155,-0.636807 0.263863,-0.50414 1.216345,-0.796009 1.730179,-1.074612 5.104331,3.951241 -3.646636,-2.520701 -5.202019,-3.741247 -0.06943,-0.172474 -0.305525,-0.05307 -0.249977,0.07959 0.347187,0.358205 0.749917,0.756211 0.722147,1.273617 0.02778,0.331671 -0.222197,0.610273 -0.347183,0.902146 -0.402735,0.915407 -0.986012,1.764487 -1.444294,2.653367 -0.277743,0.557209 -0.583269,1.11442 -0.916567,1.64509 -0.361066,0.265337 -0.902676,0.45107 -1.347076,0.25207 -0.277745,-0.199003 -0.444396,-0.50414 -0.541604,-0.80928 0.277742,-0.96848 0.8749,-1.79102 1.263754,-2.7197 0.30552,-0.636808 0.652704,-1.26035 0.972113,-1.883893 -0.819357,-0.968479 -1.624823,-1.950225 -2.485846,-2.89217 -0.01385,0.981746 0.0417,1.97676 -0.01385,2.958505 -0.402734,1.538958 -0.847135,3.077908 -1.263757,4.630128 -0.12498,0.650075 -1.069325,1.00828 -1.624823,0.570475 -0.499942,-0.25207 -0.388847,-0.849078 -0.361067,-1.300151 0.319409,-1.247084 0.652706,-2.4809 0.97211,-3.727983 0.05555,-1.485881 -0.02778,-2.971773 0.04163,-4.457658 0,-0.597009 0.638827,-0.822546 0.94435,-1.247083 -0.333301,-0.106135 -0.569384,-0.371471 -0.555502,-0.703144 -0.319408,-0.212266 -0.611039,-0.464339 -0.958226,-0.636809 -0.138873,-0.278603 0.05555,-0.504137 0.319409,-0.597007 0.236079,0.21227 0.49995,0.398006 0.763811,0.557208 0.180533,-0.782743 0.333296,-1.578758 0.527718,-2.374775 z"/></g><g id="g69" transform="matrix(0.70711 -0.70711 0.70711 0.70711 0 0)" fill="none"><path id="path71" opacity="0.41" d="m -4.53125,6.71875 c -0.030403,0 -0.0625,0.032098 -0.0625,0.0625 l 0,9.0625 c 0,0.0304 0.032097,0.0625 0.0625,0.0625 l 9.0625,0 c 0.030403,0 0.0625,-0.0321 0.0625,-0.0625 l 0,-9.0625 c 0,-0.030402 -0.032097,-0.0625 -0.0625,-0.0625 l -9.0625,0 z" stroke="#000"/><path id="path73" opacity="0.4" d="m -3.53125,7.78125 0,7.0625 7.0625,0 0,-7.0625 -7.0625,0 z" stroke="url(#0)"/></g></g><metadata id="metadata9999"><rdf:RDF><cc:Work><dc:format>image/svg+xml</dc:format><dc:type rdf:resource="http://purl.org/dc/dcmitype/StillImage"/><dc:title>Ivy icon theme</dc:title><cc:license rdf:resource="http://creativecommons.org/licenses/by-sa/4.0/"/><dc:creator><cc:Agent><dc:title>Sixsixfive (sixsixfive.deviantart.com)</dc:title></cc:Agent></dc:creator><dc:publisher><cc:Agent><dc:title>Sixsixfive (sixsixfive.deviantart.com)</dc:title></cc:Agent></dc:publisher><dc:source>https://github.com/sixsixfive</dc:source><dc:subject><rdf:Bag><rdf:li>ivy</rdf:li></rdf:Bag></dc:subject><dc:contributor><cc:Agent><dc:title>ssf</dc:title></cc:Agent></dc:contributor><dc:rights><cc:Agent><dc:title>Sixsixfive (sixisixfive.deviantart.com)</dc:title></cc:Agent></dc:rights><dc:description>A simple icon theme published under CC-BY-SA_V4(http://creativecommons.org/licenses/by-sa/4.0)</dc:description><dc:identifier>SSF</dc:identifier></cc:Work></rdf:RDF></metadata><!--Part of the Ivy icon them published under the CC-BY-SA_V4: http://creativecommons.org/licenses/by-sa/4.0 -->
</svg>