<?xml version="1.0" encoding="UTF-8" standalone="no"?><svg xmlns:svg="http://www.w3.org/2000/svg" xmlns="http://www.w3.org/2000/svg" viewBox="0 0 22 22" xmlns:rdf="http://www.w3.org/1999/02/22-rdf-syntax-ns#" xmlns:xlink="http://www.w3.org/1999/xlink" version="1.1" id="svg2" xmlns:dc="http://purl.org/dc/elements/1.1/" xmlns:cc="http://creativecommons.org/ns#"><defs id="0"><linearGradient xlink:href="#9" y1="5" x2="0" y2="20" id="4" gradientUnits="userSpaceOnUse"/><linearGradient x1="21.06" y1="6.02" x2="21" y2="20" id="5" gradientUnits="userSpaceOnUse"><stop id="M" stop-color="#5288d1"/><stop offset="1" id="N" stop-color="#8eb1e1"/></linearGradient><linearGradient x1="30.817" xlink:href="#9" y1="8.592" x2="29.763" y2="16.995" id="6" gradientTransform="matrix(0.37256 0 0 0.357 -0.481 -1.067)" gradientUnits="userSpaceOnUse"/><linearGradient xlink:href="#9" y1="4.761" x2="0" y2="19.307" id="7" gradientUnits="userSpaceOnUse"/><linearGradient x1="2.028" y1="2.034" x2="0.21" y2="12.03" id="8" gradientUnits="userSpaceOnUse"><stop id="O" stop-color="#eeeeec"/><stop offset="1" id="P" stop-color="#555753"/></linearGradient><linearGradient id="9"><stop id="Q" stop-color="#fff"/><stop stop-opacity="0" offset="1" id="R" stop-color="#fff"/></linearGradient><radialGradient cy="32.2" id="A" gradientTransform="matrix(0.36946 0 0 0.43465 -0.238 -2.927)" cx="14" r="16.449" gradientUnits="userSpaceOnUse"><stop stop-opacity="0" id="S" stop-color="#90b2e1"/><stop stop-opacity="0" offset="1" id="T" stop-color="#90b2e1"/></radialGradient><radialGradient xlink:href="#9" cy="31.994" id="B" gradientTransform="matrix(-0.11231 0.15194 -0.36601 -0.25264 16.247 16.407)" cx="6.332" r="16.449" gradientUnits="userSpaceOnUse"/></defs><g id="1" color="#000"><g id="C" fill-rule="evenodd"><path opacity="0.1" id="U" d="m 3.047617,2.860371 c -0.251825,0 -0.361032,0.220743 -0.454557,0.454556 l -0.539831,1.36367 -0.511377,0 c -0.251824,0 -0.454556,0.202732 -0.454556,0.454557 l 0,15.412284 C 1.087296,20.79726 1.290028,21 1.541852,21 l 19.09138,0 c 0.251824,0 0.454558,-0.20274 0.454558,-0.454562 l 0,-15.412284 c 0,-0.251825 -0.202734,-0.454557 -0.454558,-0.454557 l -10.227525,0 -0.539831,-1.36367 C 9.772351,3.081114 9.663143,2.860371 9.411319,2.860371 l -6.363793,0 z"/><path id="V" d="m 3.047617,2.076704 c -0.251825,0 -0.361032,0.220744 -0.454557,0.454557 l -0.539831,1.36367 -0.511377,0 c -0.251824,0 -0.454556,0.202732 -0.454556,0.454556 l 0,15.412293 c 0,0.25182 0.202732,0.45456 0.454556,0.45456 l 19.09138,0 c 0.251824,0 0.454558,-0.20274 0.454558,-0.45456 l 0,-15.412293 c 0,-0.251824 -0.202734,-0.454556 -0.454558,-0.454556 l -10.227525,0 -0.539831,-1.36367 C 9.772351,2.297448 9.663143,2.076704 9.411319,2.076704 l -6.363793,0 z" fill="url(#8)"/></g><g id="D" fill="none"><path stroke="#000" opacity="0.4" id="W" d="M 3.09375,2.5625 C 2.847241,3.112129 2.707235,3.730741 2.40625,4.25 2.217174,4.557857 1.635589,4.228246 1.5625,4.5 l 0,15.21875 19.03125,0 0,-15.3125 C 17.1618,4.39941 13.743352,4.398924 10.3125,4.375 9.827029,4.224431 9.847486,3.599692 9.625,3.21875 9.481738,2.900849 9.424966,2.420177 8.96875,2.5625 l -5.875,0 z"/><path stroke="url(#7)" opacity="0.4" id="X" d="M 3.78125,3.5625 C 3.651757,3.870313 3.54669,4.241835 3.375,4.5625 3.202588,4.884514 2.953506,5.152054 2.5625,5.28125 l 0,13.46875 17.0625,0 0,-13.375 c -3.117823,-0.00398 -6.224701,0.015677 -9.34375,0 C 9.863259,5.353539 9.545702,5.155934 9.3125,4.875 9.0793,4.594066 8.920174,4.23736 8.8125,3.90625 a 0.1007,0.1007 0 0 1 0,-0.03125 C 8.793727,3.704416 8.741985,3.638394 8.65625,3.59375 8.570515,3.549106 8.440909,3.536056 8.28125,3.5625 a 0.1007,0.1007 0 0 1 -0.03125,0 l -4.46875,0 z"/></g><path id="E" fill-rule="evenodd" d="m 11.812012,6 c -0.18887,0 -0.301553,0.120934 -0.383531,0.278481 -0.02726,0.052511 -0.04761,0.10979 -0.07103,0.167088 L 11.00248,7.736646 10.633199,8.627785 c -0.02336,0.057303 -0.04369,0.114572 -0.07102,0.167088 -0.08197,0.157545 -0.198981,0.317857 -0.383528,0.278477 l -4.176241,0 -2.187552,0 -2.72734,0 -1.09e-4,10.697417 c -2e-6,0.246843 0.202733,0.445573 0.454557,0.445573 l 19.09138,0 c 0.251822,0 0.454554,-0.19873 0.454554,-0.445573 l 0,-13.325198 C 21.0879,6.198723 20.869528,6.08564 20.633346,6 L 18.1759,6 14.2695,6 Z" fill="url(#5)"/><g id="F" fill="none"><path stroke="#000" opacity="0.4" id="Y" d="M 11.90625,6.53125 C 11.65973,7.130617 11.622868,7.830828 11.307357,8.41825 11.08583,8.936495 10.862062,9.668555 10.162593,9.607284 7.318545,9.575783 4.470563,9.602744 1.625,9.59375 c 0,3.364583 0,6.729167 0,10.09375 6.3125,0 12.625,0 18.9375,0 0,-4.375 0,-8.75 0,-13.125 -0.739737,-0.072509 -1.51118,-0.01072 -2.263186,-0.03125 -2.131024,0 -4.262044,0 -6.393064,0 z"/><path stroke="url(#4)" opacity="0.4" id="Z" d="m 12.625,7.5 c -0.08421,0.374716 -0.168098,0.738695 -0.4375,1.28125 l 0.03125,0 C 12.20935,8.803202 12.16628,8.850125 12.15625,8.875 12.065,9.101361 11.94934,9.420332 11.6875,9.78125 c -0.276227,0.380748 -0.877495,0.762425 -1.53125,0.75 l 0,0.03125 c -0.03107,-3.44e-4 -0.06267,3.27e-4 -0.09375,0 -2.475723,-0.02605 -4.97118,-5.56e-4 -7.46875,0 l 0,8.15625 17,0 0,-11.1875 C 19.1783,7.53216 18.793135,7.511863 18.3125,7.5 c -0.01172,-2.89e-4 -0.0195,3.21e-4 -0.03125,0 l -5.65625,0 z"/></g></g><g id="2" transform="matrix(1 0 0 1 7.06 6)"><path id="G" fill-rule="evenodd" d="M 8.5016,0.0038 C 8.168512,0.023812 7.916559,0.07694 7.915411,0.25599 l 0,9.56027 C 7.355305,9.618197 6.712801,9.506756 6.03721,9.506756 c -2.237969,0 -4.043509,1.22379 -4.043509,2.7397 0,1.51591 1.80554,2.75116 4.043509,2.75116 2.137461,0 3.890541,-1.12343 4.04351,-2.54482 l 0.01198,0 0,-6.6601 c 0.03399,-0.019362 0.06058,-0.035705 0.0957,-0.057316 1.61699,0.362066 3.17782,0.87884 3.32573,4.95209 C 17.36619,7.30453 12.551019,3.63912 8.50159,0.00377 Z" fill="#71c044"/><path stroke="url(#B)" opacity="0.52" id="H" d="m 9.4375,3.0625 0,1.3438 a 0.967051,0.967051 0 0 1 1.03125,0.09375 l 0.0625,-0.25 C 10.57517,4.25988 10.641858,4.2707 10.6875,4.2813 10.274128,3.873109 9.909662,3.491492 9.4375,3.06255 Z m -1.75,7.3125 -0.2812,0.875 c -0.38487,-0.1361 -0.879582,-0.21875 -1.375,-0.21875 -0.838453,0 -1.58468,0.250392 -2,0.53125 -0.429777,0.290631 -0.5,0.51323 -0.5,0.6875 0,0.175025 0.063203,0.388785 0.5,0.6875 0.410702,0.280869 1.16058,0.53125 2,0.53125 0.807296,0 1.48372,-0.201216 1.90625,-0.46875 0.443104,-0.280562 0.579123,-0.551589 0.59375,-0.6875 l 0.03125,0 0,-1.53125 A 0.967051,0.967051 0 0 1 7.68755,10.375 Z" fill="url(#A)"/><g id="I" fill="none"><path stroke="#000" opacity="0.4" id="a" stroke-miterlimit="0" d="M 8.4688,0.6875 C 8.46409,3.75226 8.47821,6.81821 8.46174,9.88224 8.419294,10.135315 8.135667,10.127071 8.01934,10.312113 7.590009,10.465724 7.15606,10.07143 6.707991,10.10589 c -1.36234,-0.155279 -2.95507,0.115409 -3.84681,1.252691 -0.554407,0.697039 -0.272091,1.736759 0.419787,2.227 1.23904,0.954064 2.9694,1.04252 4.42451,0.595682 0.879275,-0.283066 1.89777,-0.998094 1.82583,-2.03194 l 0,-6.36807 c 0.294251,0.085686 -0.00927,-0.337897 0.25,-0.4375 0.108116,0.024015 0.206894,-0.111177 0.488289,-0.127438 1.19238,0.217927 2.46038,0.768403 2.99487,1.9328 0.33766,0.686172 0.496961,1.44326 0.610593,2.19463 0.447152,-0.591114 0.64607,-1.36746 0.394656,-2.08489 -0.498206,-1.62019 -1.78407,-2.82422 -2.94964,-3.9882 -0.926596,-0.886972 -1.89438,-1.72938 -2.85126,-2.58315 z"/><path stroke="url(#6)" opacity="0.52" id="b" d="m 9.3438,2.75 0,1.8125 A 0.885923,0.885923 0 0 1 9.37505,4.53125 c 0.011584,-0.0066 0.018298,0.00651 0.03125,0 a 0.885923,0.885923 0 0 1 0.09375,-0.0625 0.885923,0.885923 0 0 1 0.9375,0.15625 l 0.0625,-0.3125 C 10.711389,4.359822 10.976303,4.459903 11.2188,4.53125 10.6443,3.952801 10.03144,3.36719 9.3438,2.75 Z m -1.625,7.5312 -0.2812,0.9062 c -0.39408,-0.13935 -0.901373,-0.25 -1.40625,-0.25 -0.852895,0 -1.59896,0.238919 -2.03125,0.53125 -0.44553,0.301283 -0.5625,0.57549 -0.5625,0.78125 0,0.206447 0.110486,0.472128 0.5625,0.78125 0.428108,0.292772 1.17764,0.53125 2.03125,0.53125 0.820452,0 1.52994,-0.222154 1.96875,-0.5 0.457663,-0.289781 0.606969,-0.582456 0.625,-0.75 l 0.03125,0 0,-1.625 a 0.885923,0.885923 0 0 1 -0.9375,-0.40625 z"/></g><path opacity="0.149" id="J" color="#000" d="m 4.71875,9.09375 c -1.145128,0.204301 -2.221895,0.89604 -3.125,2.25 l 0.8125,0.5625 c 0.790222,-1.184723 1.6169,-1.654948 2.5,-1.8125 0.883096,-0.157552 1.87323,0.0285 2.9375,0.375 l 0.3125,-0.9375 C 7.02674,9.163507 5.863878,8.889449 4.71875,9.09375 Z"/></g><g id="3" fill="#fff"><path opacity="0.2" id="K" d="M 14.5,8 C 14.777,8 15,8.223 15,8.5 l 0,6 C 15,14.777 14.777,15 14.5,15 14.223,15 14,14.777 14,14.5 l 0,-6 C 14,8.223 14.223,8 14.5,8 Z"/><path opacity="0.2" id="L" d="m 17.5,13 c 0.277,0 0.5,0.223 0.5,0.5 l 0,5 C 18,18.777 17.777,19 17.5,19 17.223,19 17,18.777 17,18.5 l 0,-5 C 17,13.223 17.223,13 17.5,13 Z"/></g><metadata id="metadata9999"><rdf:RDF><cc:Work><dc:format>image/svg+xml</dc:format><dc:type rdf:resource="http://purl.org/dc/dcmitype/StillImage"/><dc:title>Ivy icon theme</dc:title><cc:license rdf:resource="http://creativecommons.org/licenses/by-sa/4.0/"/><dc:creator><cc:Agent><dc:title>Sixsixfive (sixsixfive.deviantart.com)</dc:title></cc:Agent></dc:creator><dc:publisher><cc:Agent><dc:title>Sixsixfive (sixsixfive.deviantart.com)</dc:title></cc:Agent></dc:publisher><dc:source>https://github.com/sixsixfive</dc:source><dc:subject><rdf:Bag><rdf:li>ivy</rdf:li></rdf:Bag></dc:subject><dc:contributor><cc:Agent><dc:title>ssf</dc:title></cc:Agent></dc:contributor><dc:rights><cc:Agent><dc:title>Sixsixfive (sixisixfive.deviantart.com)</dc:title></cc:Agent></dc:rights><dc:description>A simple icon theme published under CC-BY-SA_V4(http://creativecommons.org/licenses/by-sa/4.0)</dc:description><dc:identifier>SSF</dc:identifier></cc:Work></rdf:RDF></metadata><!--Part of the Ivy icon them published under the CC-BY-SA_V4: http://creativecommons.org/licenses/by-sa/4.0 -->
</svg>