<?xml version="1.0" encoding="UTF-8" standalone="no"?><svg xmlns:cc="http://creativecommons.org/ns#" viewBox="0 0 48 48" version="1.1" id="svg2" xmlns:svg="http://www.w3.org/2000/svg" xmlns="http://www.w3.org/2000/svg" xmlns:rdf="http://www.w3.org/1999/02/22-rdf-syntax-ns#" xmlns:dc="http://purl.org/dc/elements/1.1/"><defs id="defs4"><linearGradient x2="0" gradientUnits="userSpaceOnUse" y2="44" id="0" y1="3"><stop stop-color="#dedede" id="stop7"/><stop offset="1" stop-color="#f4f4f4" id="stop9"/></linearGradient><linearGradient x2="39.906" gradientUnits="userSpaceOnUse" x1="40" y2="42.969" id="1" y1="3"><stop stop-color="#fff" id="stop12"/><stop offset="1" stop-opacity="0" stop-color="#fff" id="stop14"/></linearGradient><linearGradient x2="0" gradientUnits="userSpaceOnUse" y2="40.485" id="2" gradientTransform="matrix(-1.18474 0 0 1.27706 57 -8.727)" y1="10.765"><stop stop-color="#fff" id="M"/><stop offset="1" stop-opacity="0" stop-color="#fff" id="N"/></linearGradient><mask id="3"><path fill="#fff" id="O" d="m 3.9828,24 a 20,20 0 0 0 40,0 20,20 0 1 0 -40,0 z"/></mask><mask id="4"><path fill="#fff" id="P" d="m 3.9828,24 a 20,20 0 0 0 40,0 20,20 0 1 0 -40,0 z"/></mask><mask id="5"><path fill="#fff" id="Q" d="m 3.9828,24 a 20,20 0 0 0 40,0 20,20 0 1 0 -40,0 z"/></mask><mask id="6"><path fill="#fff" id="R" d="m 3.9828,24 a 20,20 0 0 0 40,0 20,20 0 1 0 -40,0 z"/></mask><mask id="7"><path fill="#fff" id="S" d="m 3.9828,24 a 20,20 0 0 0 40,0 20,20 0 1 0 -40,0 z"/></mask><mask id="8"><path fill="#fff" id="T" d="m 3.9828,24 a 20,20 0 0 0 40,0 20,20 0 1 0 -40,0 z"/></mask><mask id="9"><path fill="#fff" id="U" d="m 3.9828,24 a 20,20 0 0 0 40,0 20,20 0 1 0 -40,0 z"/></mask><mask id="A"><path fill="#fff" id="V" d="m 3.9828,24 a 20,20 0 0 0 40,0 20,20 0 1 0 -40,0 z"/></mask><filter color-interpolation-filters="sRGB" height="2.031" width="2.031" id="B" x="-0.515" y="-0.515"><feGaussianBlur id="W" stdDeviation="5.15337"/></filter><mask maskUnits="userSpaceOnUse" id="mask3575"><rect height="42" width="34.951" rx="1.209" ry="1.209" fill="#fff" id="rect3577" x="-0.713865" y="-6.937154"/></mask></defs><rect height="42" width="34.951" opacity="0.1" rx="1.209" ry="1.209" id="rect16" x="6" y="3"/><rect height="42" width="34.951" rx="1.209" ry="1.209" fill="url(#0)" id="rect18" x="5.986" y="2"/><g mask="url(#mask3575)" id="1-4" transform="matrix(1 0 0 1 6.6998651 8.9371537)"><path opacity="0.1" id="C" d="m 3.9828,25 a 20,20 0 0 0 40,0 20,20 0 1 0 -40,0 z"/><path mask="url(#5)" fill="#ffd506" id="D" filter="url(#B)" d="M 24,0 48,0 C 24,24 48,0 24,24 Z"/><path mask="url(#4)" fill="#66b03e" id="E" filter="url(#B)" d="M 24,0 0,0 c 24,24 0,0 24,24 z"/><path mask="url(#8)" fill="#ee445f" id="F" filter="url(#B)" d="m 24,48 24,0 C 24,24 48,48 24,24 Z"/><path mask="url(#9)" fill="#c268d4" id="G" filter="url(#B)" d="M 24,48 0,48 C 24,24 0,48 24,24 Z"/><path mask="url(#A)" fill="#52a3d1" id="H" filter="url(#B)" d="M 0,24 0,48 C 24,24 0,48 24,24 Z"/><path mask="url(#3)" fill="#3eb084" id="I" filter="url(#B)" d="M 0,24 0,0 c 24,24 0,0 24,24 z"/><path mask="url(#7)" fill="#d02604" id="J" filter="url(#B)" d="m 48,24 0,24 C 24,24 48,48 24,24 Z"/><path mask="url(#6)" fill="#ff8b36" id="K" filter="url(#B)" d="M 48,24 48,0 C 24,24 48,0 24,24 Z"/><g fill="none" id="L"><path opacity="0.4" stroke="#000" id="X" d="m 23.9762,4.5222 c 10.7992,0 19.5482,8.7394 19.5482,19.4751 0,10.7357 -8.74902,19.4751 -19.5482,19.4751 -10.7992,0 -19.5112,-8.73812 -19.5112,-19.4751 0,-10.737 8.712,-19.4751 19.5112,-19.4751 z"/><path opacity="0.6" stroke="url(#2)" id="Y" d="m 23.9762,5.5199 c 10.3443,0 18.6226,8.31366 18.6226,18.4774 0,10.1637 -8.27831,18.4774 -18.6226,18.4774 -10.3443,0 -18.5856,-8.31002 -18.5856,-18.4774 0,-10.1674 8.24128,-18.4774 18.5856,-18.4774 z"/></g></g><g fill="none" id="g20"><path opacity="0.4" stroke="#000" id="path22" d="M 7.1875,2.5 C 6.783721,2.5 6.5,2.799839 6.5,3.21875 l 0,39.5625 C 6.5,43.20016 6.783721,43.5 7.1875,43.5 l 32.53125,0 c 0.40378,0 0.71875,-0.31497 0.71875,-0.71875 l 0,-39.5625 C 40.4375,2.814971 40.12253,2.5 39.71875,2.5 L 7.1875,2.5 Z"/><path opacity="0.78" stroke="url(#1)" id="path24" d="m 7.5312,3.5312 0,38.9375 31.875,0 0,-38.9375 -31.875,0 z"/></g><metadata id="metadata9999"><rdf:RDF><cc:Work><dc:format>image/svg+xml</dc:format><dc:type rdf:resource="http://purl.org/dc/dcmitype/StillImage"/><dc:title>Ivy icon theme</dc:title><cc:license rdf:resource="http://creativecommons.org/licenses/by-sa/4.0/"/><dc:creator><cc:Agent><dc:title>Sixsixfive (sixsixfive.deviantart.com)</dc:title></cc:Agent></dc:creator><dc:publisher><cc:Agent><dc:title>Sixsixfive (sixsixfive.deviantart.com)</dc:title></cc:Agent></dc:publisher><dc:source>https://github.com/sixsixfive</dc:source><dc:subject><rdf:Bag><rdf:li>ivy</rdf:li></rdf:Bag></dc:subject><dc:contributor><cc:Agent><dc:title>ssf</dc:title></cc:Agent></dc:contributor><dc:rights><cc:Agent><dc:title>Sixsixfive (sixisixfive.deviantart.com)</dc:title></cc:Agent></dc:rights><dc:description>A simple icon theme published under CC-BY-SA_V4(http://creativecommons.org/licenses/by-sa/4.0)</dc:description><dc:identifier>SSF</dc:identifier></cc:Work></rdf:RDF></metadata><!--Part of the Ivy icon them published under the CC-BY-SA_V4: http://creativecommons.org/licenses/by-sa/4.0 -->
</svg>