<?xml version="1.0" encoding="UTF-8" standalone="no"?>
<svg xmlns:dc="http://purl.org/dc/elements/1.1/" xmlns:cc="http://creativecommons.org/ns#" xmlns:rdf="http://www.w3.org/1999/02/22-rdf-syntax-ns#" xmlns:svg="http://www.w3.org/2000/svg" xmlns="http://www.w3.org/2000/svg" viewBox="0 0 22 22" id="svg2" version="1.1">
 <defs id="defs4">
  <linearGradient id="0" y1="2" y2="44" x2="0" gradientUnits="userSpaceOnUse" gradientTransform="matrix(0.515 0 0 0.5 -1.083 -1)">
   <stop stop-color="#dedede" id="stop7"/>
   <stop offset="1" stop-color="#f4f4f4" id="stop9"/>
  </linearGradient>
  <linearGradient id="1" y1="1" y2="20" x2="0" gradientUnits="userSpaceOnUse">
   <stop stop-color="#fff" id="stop12"/>
   <stop offset="1" stop-color="#fff" stop-opacity="0" id="stop14"/>
  </linearGradient>
 </defs>
 <rect width="18" x="2" opacity="0.1" y="1" rx="0.604" height="21" ry="0.604" id="rect16"/>
 <rect width="18" x="2" fill="url(#0)" rx="0.604" height="21" ry="0.604" id="rect18"/>
 <path opacity="0.66" fill="#6a6a6a" d="M 8,0 H14 V10 H8 z" id="path20"/>
 <g transform="matrix(0.66667,0,0,1,3,-1)" id="g22" opacity="0.34">
  <path d="m 12,10 3,0 0,1 -3,0 z" id="path24"/>
  <g id="g26" fill="#fff">
   <path d="m 9,10 3,0 0,1 -3,0 z" id="path28"/>
   <path d="m 12,9 3,0 0,1 -3,0 z" id="path30"/>
   <path d="m 9,8 3,0 0,1 -3,0 z" id="path32"/>
   <path d="m 12,7 3,0 0,1 -3,0 z" id="path34"/>
   <path d="m 9,6 3,0 0,1 -3,0 z" id="path36"/>
   <path d="m 12,5 3,0 0,1 -3,0 z" id="path38"/>
   <path d="m 9,4 3,0 0,1 -3,0 z" id="path40"/>
   <path d="m 12,3 3,0 0,1 -3,0 z" id="path42"/>
   <path d="m 9,2 3,0 0,1 -3,0 z" id="path44"/>
   <path d="m 12,1 3,0 0,1 -3,0 z" id="path46"/>
  </g>
  <path d="m 9,9 3,0 0,1 -3,0 z" id="path48"/>
  <path d="m 12,8 3,0 0,1 -3,0 z" id="path50"/>
  <path d="m 9,7 3,0 0,1 -3,0 z" id="path52"/>
  <path d="m 12,6 3,0 0,1 -3,0 z" id="path54"/>
  <path d="m 9,5 3,0 0,1 -3,0 z" id="path56"/>
  <path d="m 12,4 3,0 0,1 -3,0 z" id="path58"/>
  <path d="m 9,3 3,0 0,1 -3,0 z" id="path60"/>
  <path d="m 12,2 3,0 0,1 -3,0 z" id="path62"/>
  <path d="m 9,1 3,0 0,1 -3,0 z" id="path64"/>
 </g>
 <g id="g66" fill="none">
  <path d="m 2.5938,0.5312 c -0.058216,0 -0.0625,0.00428 -0.0625,0.0625 l 0,19.8125 c 0,0.05822 0.00428,0.0625 0.0625,0.0625 l 16.8125,0 c 0.05822,0 0.0625,-0.0043 0.0625,-0.0625 l 0,-19.8125 c 0,-0.058217 -0.0043,-0.0625 -0.0625,-0.0625 l -16.8125,0 z" id="path68" opacity="0.4" stroke="#000"/>
  <path d="m 3.5312,1.5312 0,17.9375 14.9375,0 0,-17.9375 -14.9375,0 z" id="path70" opacity="0.8" stroke="url(#1)"/>
 </g>
 <path opacity="0.1" d="M 7.9375 9 C 7.4112 9 7 9.4112 7 9.9375 v 1.125 C 7 11.5888 7.4112 12 7.9375 12 H 8 V 14.8125 C 8 15.4773 8.5227 16 9.1875 16 h 3.625 C 13.4773 16 14 15.4773 14 14.8125 V 12 H 14.0625 C 14.5888 12 15 11.5888 15 11.0625 v -1.125 C 15 9.4112 14.5888 9 14.0625 9 h -6.125 z" id="path72"/>
 <path opacity="0.66" fill="#6a6a6a" d="M 10,0 H12 V10 H10 z" id="path74"/>
 <path fill="#afafaf" d="M 7.9375 8 C 7.4112 8 7 8.4112 7 8.9375 v 1.125 C 7 10.5888 7.4112 11 7.9375 11 H 8 V 13.8125 C 8 14.4773 8.5227 15 9.1875 15 h 3.625 C 13.4773 15 14 14.4773 14 13.8125 V 11 H 14.0625 C 14.5888 11 15 10.5888 15 10.0625 v -1.125 C 15 8.4112 14.5888 8 14.0625 8 h -6.125 z" id="path76"/>
 <path opacity="0.3" fill="none" stroke="#000" d="M 7.9375 8.5 C 7.673431 8.5 7.5 8.673431 7.5 8.9375 v 1.125 C 7.5 10.326569 7.673431 10.5 7.9375 10.5 H 8 A 0.503499 0.503499 0 0 1 8.5 11 v 2.8125 C 8.5 14.213408 8.786592 14.5 9.1875 14.5 h 3.625 C 13.213408 14.5 13.5 14.213408 13.5 13.8125 V 11 A 0.503499 0.503499 0 0 1 14 10.5 h 0.0625 c 0.264069 0 0.4375 -0.173431 0.4375 -0.4375 v -1.125 C 14.5 8.673431 14.326569 8.5 14.0625 8.5 h -6.125 z" id="path78"/>
 <g id="g80" fill="#fff">
  <path d="m 8.5,9 5,0 C 13.777,9 14,9.223 14,9.5 14,9.777 13.777,10 13.5,10 l -5,0 C 8.223,10 8,9.777 8,9.5 8,9.223 8.223,9 8.5,9 Z" id="rect82" opacity="0.17"/>
  <path d="m 10.5,12 1,0 c 0.277,0 0.5,0.223 0.5,0.5 0,0.277 -0.223,0.5 -0.5,0.5 l -1,0 C 10.223,13 10,12.777 10,12.5 10,12.223 10.223,12 10.5,12 Z" id="rect84"/>
 </g>
 <rect width="2" x="10" opacity="0.17" y="11" rx="0.5" height="1" ry="0.5" id="rect86"/>
 <rect width="2" x="10" opacity="0.2" y="13" fill="#fff" rx="0.5" height="1" ry="0.5" id="rect88"/>
 <metadata id="metadata9999">
  <rdf:RDF>
   <cc:Work>
    <dc:format>image/svg+xml</dc:format>
    <dc:type rdf:resource="http://purl.org/dc/dcmitype/StillImage"/>
    <dc:title>Ivy icon theme</dc:title>
    <cc:license rdf:resource="http://creativecommons.org/licenses/by-sa/4.0/"/>
    <dc:creator>
     <cc:Agent>
      <dc:title>Sixsixfive (sixsixfive.deviantart.com)</dc:title>
     </cc:Agent>
    </dc:creator>
    <dc:publisher>
     <cc:Agent>
      <dc:title>Sixsixfive (sixsixfive.deviantart.com)</dc:title>
     </cc:Agent>
    </dc:publisher>
    <dc:source>https://github.com/sixsixfive</dc:source>
    <dc:subject>
     <rdf:Bag>
      <rdf:li>ivy</rdf:li>
     </rdf:Bag>
    </dc:subject>
    <dc:contributor>
     <cc:Agent>
      <dc:title>ssf</dc:title>
     </cc:Agent>
    </dc:contributor>
    <dc:rights>
     <cc:Agent>
      <dc:title>Sixsixfive (sixisixfive.deviantart.com)</dc:title>
     </cc:Agent>
    </dc:rights>
    <dc:description>A simple icon theme published under CC-BY-SA_V4(http://creativecommons.org/licenses/by-sa/4.0)</dc:description>
    <dc:identifier>SSF</dc:identifier>
   </cc:Work>
  </rdf:RDF>
 </metadata>
 <!--Part of the Ivy icon them published under the CC-BY-SA_V4: http://creativecommons.org/licenses/by-sa/4.0 -->
</svg>
