<?xml version="1.0" encoding="UTF-8" standalone="no"?><svg xmlns:cc="http://creativecommons.org/ns#" viewBox="0 0 22 22" version="1.1" id="svg2" xmlns:svg="http://www.w3.org/2000/svg" xmlns="http://www.w3.org/2000/svg" xmlns:rdf="http://www.w3.org/1999/02/22-rdf-syntax-ns#" xmlns:dc="http://purl.org/dc/elements/1.1/"><defs id="defs4"><linearGradient x2="0" gradientUnits="userSpaceOnUse" y2="44" id="0" gradientTransform="matrix(0.515 0 0 0.5 -1.083 -1)" y1="2"><stop stop-color="#dedede" id="stop7"/><stop offset="1" stop-color="#f4f4f4" id="stop9"/></linearGradient><linearGradient x2="0" gradientUnits="userSpaceOnUse" y2="20" id="1" y1="1"><stop stop-color="#fff" id="stop12"/><stop offset="1" stop-opacity="0" stop-color="#fff" id="stop14"/></linearGradient></defs><rect height="21" width="18" opacity="0.1" rx="0.604" ry="0.604" id="rect16" x="2" y="1"/><rect height="21" width="18" rx="0.604" ry="0.604" fill="url(#0)" id="rect18" x="2"/><g fill="none" id="g20"><path opacity="0.4" stroke="#000" id="path22" d="m 2.5938,0.5312 c -0.058216,0 -0.0625,0.00428 -0.0625,0.0625 l 0,19.8125 c 0,0.05822 0.00428,0.0625 0.0625,0.0625 l 16.8125,0 c 0.05822,0 0.0625,-0.0043 0.0625,-0.0625 l 0,-19.8125 c 0,-0.058217 -0.0043,-0.0625 -0.0625,-0.0625 l -16.8125,0 z"/><path opacity="0.8" stroke="url(#1)" id="path24" d="m 3.5312,1.5312 0,17.9375 14.9375,0 0,-17.9375 -14.9375,0 z"/></g><path opacity="0.3" id="path26" d="M 5,3 H10 V4 H5 z"/><path opacity="0.3" id="path28" d="M 5,5 H9 V6 H5 z"/><path opacity="0.3" id="path30" d="M 5,7 H11 V8 H5 z"/><path opacity="0.3" id="path32" d="M 5,9 H17 V10 H5 z"/><path opacity="0.3" id="path34" d="M 5,11 H12 V12 H5 z"/><path opacity="0.3" id="path36" d="M 5,13 H14 V14 H5 z"/><path opacity="0.3" id="path38" d="M 5,15 H16 V16 H5 z"/><path opacity="0.3" id="path40" d="M 5,17 H12 V18 H5 z"/><g fill="#fff" id="g42"><path opacity="0.3" id="path44" d="m 5,4 5,0 0,1 -5,0 z"/><path opacity="0.3" id="path46" d="M 5,6 9,6 9,7 5,7 Z"/><path opacity="0.3" id="path48" d="m 5,8 6,0 0,1 -6,0 z"/><path opacity="0.3" id="path50" d="m 5,10 12,0 0,1 -12,0 z"/><path opacity="0.3" id="path52" d="m 5,12 7,0 0,1 -7,0 z"/><path opacity="0.3" id="path54" d="m 5,14 9,0 0,1 -9,0 z"/><path opacity="0.3" id="path56" d="m 5,16 11,0 0,1 -11,0 z"/><path opacity="0.3" id="path58" d="m 5,18 7,0 0,1 -7,0 z"/><path opacity="0.3" id="path60" d="m 12,4 5,0 0,4 -5,0 z"/></g><path opacity="0.3" id="path62" d="M 12,3 H17 V7 H12 z"/><g fill="#fff" id="g64"><path opacity="0.6" id="path66" d="m 12,5 1,0 0,2 -1,0 z"/><path opacity="0.6" id="path68" d="m 13,6 1,0 0,1 -1,0 z"/><path opacity="0.6" id="path70" d="m 14,6 1,0 0,1 -1,0 z"/><path opacity="0.6" id="path72" d="m 15,6 1,0 0,1 -1,0 z"/><path opacity="0.6" id="path74" d="m 16,6 1,0 0,1 -1,0 z"/><path opacity="0.6" id="path76" d="m 15,4 1,0 0,1 -1,0 z"/></g><metadata id="metadata9999"><rdf:RDF><cc:Work><dc:format>image/svg+xml</dc:format><dc:type rdf:resource="http://purl.org/dc/dcmitype/StillImage"/><dc:title>Ivy icon theme</dc:title><cc:license rdf:resource="http://creativecommons.org/licenses/by-sa/4.0/"/><dc:creator><cc:Agent><dc:title>Sixsixfive (sixsixfive.deviantart.com)</dc:title></cc:Agent></dc:creator><dc:publisher><cc:Agent><dc:title>Sixsixfive (sixsixfive.deviantart.com)</dc:title></cc:Agent></dc:publisher><dc:source>https://github.com/sixsixfive</dc:source><dc:subject><rdf:Bag><rdf:li>ivy</rdf:li></rdf:Bag></dc:subject><dc:contributor><cc:Agent><dc:title>ssf</dc:title></cc:Agent></dc:contributor><dc:rights><cc:Agent><dc:title>Sixsixfive (sixisixfive.deviantart.com)</dc:title></cc:Agent></dc:rights><dc:description>A simple icon theme published under CC-BY-SA_V4(http://creativecommons.org/licenses/by-sa/4.0)</dc:description><dc:identifier>SSF</dc:identifier></cc:Work></rdf:RDF></metadata><!--Part of the Ivy icon them published under the CC-BY-SA_V4: http://creativecommons.org/licenses/by-sa/4.0 -->
</svg>