<?xml version="1.0" encoding="UTF-8" standalone="no"?><svg xmlns:cc="http://creativecommons.org/ns#" xmlns:dc="http://purl.org/dc/elements/1.1/" xmlns="http://www.w3.org/2000/svg" xmlns:svg="http://www.w3.org/2000/svg" xmlns:rdf="http://www.w3.org/1999/02/22-rdf-syntax-ns#" id="svg2" version="1.1" viewBox="0 0 48 48" xmlns:xlink="http://www.w3.org/1999/xlink"><defs id="defs4"><linearGradient gradientUnits="userSpaceOnUse" y1="3" id="0" y2="44" x2="0"><stop id="stop7" stop-color="#dedede"/><stop id="stop9" stop-color="#f4f4f4" offset="1"/></linearGradient><linearGradient gradientUnits="userSpaceOnUse" y1="3" x1="40" id="1" y2="42.969" x2="39.906"><stop id="stop12" stop-color="#fff"/><stop stop-opacity="0" id="stop14" stop-color="#fff" offset="1"/></linearGradient><linearGradient id="linearGradient4178"><stop id="stop4180" stop-color="#5288d1"/><stop id="stop4182" stop-color="#93b4e2" offset="1"/></linearGradient><linearGradient id="linearGradient4162"><stop id="stop4164" stop-color="#fff"/><stop stop-opacity="0" id="stop4166" stop-color="#fff" offset="1"/></linearGradient><linearGradient gradientUnits="userSpaceOnUse" y1="4" xlink:href="#linearGradient4162" id="linearGradient4168" y2="38" x2="0"/><linearGradient gradientTransform="matrix(1 0 0 1 0 3.9999982)" gradientUnits="userSpaceOnUse" y1="3" xlink:href="#linearGradient4178" id="linearGradient4184" y2="39" x2="0"/><clipPath id="clipPath4162" clipPathUnits="userSpaceOnUse"><rect width="34.951" ry="1.209" height="42" rx="1.209" id="rect4164" y="-1.03845" x="-7.00703" fill="#fff"/></clipPath><linearGradient id="linearGradient4162-1"><stop stop-opacity="1" id="stop4164-5" stop-color="#5288d1"/><stop stop-opacity="1" id="stop4166-6" stop-color="#76a0da" offset="1"/></linearGradient><linearGradient gradientUnits="userSpaceOnUse" y1="7.06" x1="43.917" id="0-8" y2="41.3" x2="43.928"><stop id="stop7-4" stop-color="#fff"/><stop stop-opacity="0" id="stop9-9" stop-color="#fff" offset="1"/></linearGradient><linearGradient gradientUnits="userSpaceOnUse" y1="11" xlink:href="#linearGradient4162-1" x1="34" id="linearGradient4168-7" y2="33" x2="34"/><clipPath id="clipPath4184" clipPathUnits="userSpaceOnUse"><path d="M 7,10 7,34 41,34 41,10 7,10 Z" id="path4186" fill="#fff" fill-opacity="1"/></clipPath><clipPath id="clipPath4402" clipPathUnits="userSpaceOnUse"><rect width="34.951" ry="1.209" height="42" rx="1.209" id="rect4404" y="-3" x="-4.0139999" fill="#fff"/></clipPath></defs><rect width="34.951" ry="1.209" height="42" rx="1.209" opacity="0.1" id="rect16" y="3" x="6"/><rect width="34.951" ry="1.209" height="42" rx="1.209" id="rect18" y="2" x="5.986" fill="url(#0)"/><g transform="matrix(1 0 0 1 10 5)" id="g4385" clip-path="url(#clipPath4402)"><rect width="42" ry="2" height="36" rx="2" opacity="0.1" id="rect11" y="7" x="3"/><rect width="42" ry="2" height="36" rx="2" id="rect13" y="6" x="3" fill="#ddd"/><path d="M 7,10 7,34 41,34 41,10 7,10 Z" id="path15" fill="url(#linearGradient4168-7)" fill-opacity="1"/><g id="g4180" clip-path="url(#clipPath4184)"><path block-progression="tb" fill-rule="evenodd" text-rendering="auto" opacity="0.3" font-stretch="normal" text-decoration="none" stroke-width="2" stroke-linejoin="miter" text-anchor="start" display="inline" color-rendering="auto" font-variant="normal" text-align="start" font-size="0" stroke-opacity="1" baseline-shift="0" stroke="none" color-interpolation="sRGB" clip-rule="nonzero" stroke-dasharray="none" shape-rendering="auto" color-interpolation-filters="linearRGB" fill="#000" xlink:href="#path4174" id="path4176" font-weight="normal" direction="ltr" image-rendering="auto" fill-opacity="1" enable-background="accumulate" letter-spacing="0" font-family="sans-serif" font-style="normal" stroke-linecap="butt" color="#000" stroke-dashoffset="0" stroke-miterlimit="7.5" writing-mode="lr-tb" line-height="normal" visibility="visible" word-spacing="0" overflow="visible" d="m 27.957031,12.025391 a 0.97946758,0.97946758 0 0 0 -0.941406,0.667968 L 25,18.738281 22.996094,12.728516 A 0.97946758,0.97946758 0 0 0 21.152344,12.6875 L 16.576172,24.587891 13.384766,19.480469 A 0.97946758,0.97946758 0 0 0 12.554688,19.021484 L 4,19.021484 A 0.97946758,0.97946758 0 0 0 3.0214844,20 l 0,2 A 0.97946758,0.97946758 0 0 0 4,22.978516 l 6.902344,0 5.482422,8.769531 a 0.97946758,0.97946758 0 0 0 1.74414,-0.167969 l 3.738282,-9.71875 2.203124,6.611328 a 0.97946758,0.97946758 0 0 0 1.859376,0 l 2.18164,-6.539062 1.277344,3.410156 a 0.97946758,0.97946758 0 0 0 0.917969,0.634766 l 15.693359,0 A 0.97946758,0.97946758 0 0 0 46.978516,25 l 0,-2 A 0.97946758,0.97946758 0 0 0 46,22.021484 l -13.626953,0 -3.509766,-9.361328 a 0.97946758,0.97946758 0 0 0 -0.90625,-0.634765 z"/><path block-progression="tb" fill-rule="evenodd" text-rendering="auto" opacity="1" font-stretch="normal" text-decoration="none" stroke-width="2" stroke-linejoin="miter" text-anchor="start" display="inline" color-rendering="auto" font-variant="normal" text-align="start" font-size="0" stroke-opacity="1" baseline-shift="0" stroke="none" color-interpolation="sRGB" clip-rule="nonzero" stroke-dasharray="none" shape-rendering="auto" color-interpolation-filters="linearRGB" fill="#f4f4f4" id="path4160" font-weight="normal" direction="ltr" image-rendering="auto" fill-opacity="1" enable-background="accumulate" letter-spacing="0" font-family="sans-serif" font-style="normal" stroke-linecap="butt" color="#000" stroke-dashoffset="0" stroke-miterlimit="7.5" writing-mode="lr-tb" line-height="normal" visibility="visible" word-spacing="0" overflow="visible" d="M 27.945312,13.003906 25,21.835938 22.066406,13.039062 16.785156,26.771484 12.554688,20 4,20 l 0,2 7.445312,0 5.769532,9.228516 4.71875,-12.267578 L 25,28.162109 28.056641,18.996094 30.306641,25 46,25 46,23 31.693359,23 27.945312,13.003906 Z"/></g><g id="g17" fill="none"><path stroke="#000" opacity="0.4" d="M 5,6.5 C 4.161723,6.5 3.5,7.161723 3.5,8 l 0,32 c 0,0.838277 0.661723,1.5 1.5,1.5 l 38,0 c 0.838277,0 1.5,-0.661723 1.5,-1.5 l 0,-32 C 44.5,7.161723 43.838277,6.5 43,6.5 l -38,0 z" id="path19"/><path stroke="url(#0-8)" d="M 5,7.5 C 4.699797,7.5 4.5,7.699797 4.5,8 l 0,32 c 0,0.300203 0.199797,0.5 0.5,0.5 l 38,0 c 0.300203,0 0.5,-0.199797 0.5,-0.5 l 0,-32 C 43.5,7.699797 43.3002,7.5 43,7.5 l -38,0 z" id="path21"/></g><path opacity="0.8" d="m 7,34 34,0 0,1 -34,0 z" id="path23" fill="#fff"/><path stroke="#000" opacity="0.4" d="m 7.625,10.625 0,22.75 32.75,0 0,-22.75 -32.75,0 z" id="path31" fill="none"/></g><g id="g20" fill="none"><path stroke="#000" opacity="0.4" d="M 7.1875,2.5 C 6.783721,2.5 6.5,2.799839 6.5,3.21875 l 0,39.5625 C 6.5,43.20016 6.783721,43.5 7.1875,43.5 l 32.53125,0 c 0.40378,0 0.71875,-0.31497 0.71875,-0.71875 l 0,-39.5625 C 40.4375,2.814971 40.12253,2.5 39.71875,2.5 L 7.1875,2.5 Z" id="path22"/><path stroke="url(#1)" opacity="0.78" d="m 7.5312,3.5312 0,38.9375 31.875,0 0,-38.9375 -31.875,0 z" id="path24"/></g><metadata id="metadata9999"><rdf:RDF><cc:Work><dc:format>image/svg+xml</dc:format><dc:type rdf:resource="http://purl.org/dc/dcmitype/StillImage"/><dc:title/><cc:license rdf:resource="http://creativecommons.org/licenses/by-sa/4.0/"/><dc:creator><cc:Agent><dc:title>Sixsixfive (sixsixfive.deviantart.com)</dc:title></cc:Agent></dc:creator><dc:publisher><cc:Agent><dc:title>Sixsixfive (sixsixfive.deviantart.com)</dc:title></cc:Agent></dc:publisher><dc:source>https://github.com/sixsixfive</dc:source><dc:subject><rdf:Bag><rdf:li>ivy</rdf:li></rdf:Bag></dc:subject><dc:contributor><cc:Agent><dc:title>ssf</dc:title></cc:Agent></dc:contributor><dc:rights><cc:Agent><dc:title>Sixsixfive (sixisixfive.deviantart.com)</dc:title></cc:Agent></dc:rights><dc:description>A simple icon theme published under CC-BY-SA_V4(http://creativecommons.org/licenses/by-sa/4.0)</dc:description><dc:identifier>SSF</dc:identifier></cc:Work></rdf:RDF></metadata><!--Part of the Ivy icon them published under the CC-BY-SA_V4: http://creativecommons.org/licenses/by-sa/4.0 -->
</svg>