<?xml version="1.0" encoding="UTF-8" standalone="no"?><svg xmlns:cc="http://creativecommons.org/ns#" viewBox="0 0 22 22" version="1.1" id="svg2" xmlns:svg="http://www.w3.org/2000/svg" xmlns:rdf="http://www.w3.org/1999/02/22-rdf-syntax-ns#" xmlns="http://www.w3.org/2000/svg" xmlns:dc="http://purl.org/dc/elements/1.1/"><defs id="defs4"><linearGradient x2="0" gradientUnits="userSpaceOnUse" id="0" y2="44" gradientTransform="matrix(0.515 0 0 0.5 -1.083 -1)" y1="2"><stop id="stop7" stop-color="#dedede"/><stop offset="1" id="stop9" stop-color="#f4f4f4"/></linearGradient><linearGradient x2="0" gradientUnits="userSpaceOnUse" id="1" y2="20" y1="1"><stop id="stop12" stop-color="#fff"/><stop offset="1" stop-opacity="0" id="stop14" stop-color="#fff"/></linearGradient><linearGradient x2="20.956" gradientUnits="userSpaceOnUse" x1="21" id="0-5" y2="-2.01" gradientTransform="matrix(1 0 0 1 22.542114 6.6779658)" y1="20"><stop id="stop7-0" stop-color="#ddd"/><stop offset="1" id="stop9-2" stop-color="#fff"/></linearGradient><linearGradient x2="0" gradientUnits="userSpaceOnUse" id="1-7" y2="19" y1="2"><stop id="stop12-5" stop-color="#fff"/><stop offset="1" stop-opacity="0" id="stop14-6" stop-color="#fff"/></linearGradient><mask maskUnits="userSpaceOnUse" id="mask3981"><rect height="21" width="18" rx="0.604" ry="0.604" fill="#fff" id="rect3983" x="18.542114" y="3.677966"/></mask></defs><rect height="21" width="18" opacity="0.1" rx="0.604" ry="0.604" id="rect16" x="2" y="1"/><rect height="21" width="18" rx="0.604" ry="0.604" fill="url(#0)" id="rect18" x="2"/><g mask="url(#mask3981)" id="g3948" transform="matrix(1 0 0 1 -16.542114 -3.6779658)"><path opacity="0.1" id="path16" d="m 23.542114,8.6779658 20,0 0,19.0000002 -20,0 z"/><path fill="url(#0-5)" id="path18" d="m 23.542114,7.6779658 20,0 0,19.0000002 -20,0 z"/><path fill="#5288d1" id="path20" d="m 23.542114,7.6779658 20,0 0,6.0000002 -20,0 z"/><path fill-rule="evenodd" opacity="0.1" id="rect3968" d="m 26.542114,22.677965 3,0 0,3 -3,0 z"/><g fill="none" id="g22" transform="matrix(1 0 0 1 22.542114 6.6779658)"><path opacity="0.4" id="path24-2" stroke="#000" d="m 1.5,1.5 0,18 19,0 0,-18 -19,0 z"/><path opacity="0.4" id="path26" stroke="url(#1-7)" d="m 2.5,2.5 0,16 17,0 0,-16 -17,0 z"/></g><path opacity="0.4" id="path28" d="m 24.542114,12.677966 18,0 0,1 -18,0 z"/><g fill="#fff" id="g30" transform="matrix(1 0 0 1 22.542114 6.6779658)"><path opacity="0.4" id="path32" d="M 3,7 19,7 19,8 3,8 Z"/><g fill-rule="evenodd" id="g34" color="#000"><path id="path36" d="M 3,3 4,3 4,4 3,4 Z"/><path id="path38" d="M 6,3 8,3 8,5 6,5 Z"/><path id="path40" d="m 9,4 2,0 0,1 -2,0 z"/><path id="path42" d="M 4,4 5,4 5,5 4,5 Z"/></g></g><g fill-rule="evenodd" fill="#c1c1c1" id="g44" transform="matrix(1 0 0 1 22.542114 6.6779658)" color="#000"><path id="path46" d="M 3,4 4,4 4,5 3,5 Z"/><path id="path48" d="M 4,3 5,3 5,4 4,4 Z"/></g><path fill-rule="evenodd" fill="#fff" id="rect3970" d="m 26.542114,21.677965 3,0 0,3 -3,0 z"/><path fill-rule="evenodd" opacity="0.2" fill="#000" id="rect3974" d="m 27.542114,22.677965 1,0 0,1 -1,0 z"/><path fill-rule="evenodd" opacity="0.35" fill="none" id="path3972" stroke="#000" d="m 26.542114,21.269763 a 0.40769341,0.40769341 0 0 0 -0.408203,0.408203 l 0,3 a 0.40769341,0.40769341 0 0 0 0.408203,0.408203 l 3,0 a 0.40769341,0.40769341 0 0 0 0.408203,-0.408203 l 0,-3 a 0.40769341,0.40769341 0 0 0 -0.408203,-0.408203 l -3,0 z"/><path fill-rule="evenodd" opacity="0.1" fill="#000" id="rect3950" d="m 26.542114,16.677965 3,0 0,3 -3,0 z"/><path fill-rule="evenodd" fill="#fff" id="rect3948" d="m 26.542114,15.677966 3,0 0,3 -3,0 z"/><path fill-rule="evenodd" opacity="0.35" fill="none" id="path3956" stroke="#000" d="m 26.542114,15.269763 a 0.40769341,0.40769341 0 0 0 -0.408203,0.408203 l 0,3 a 0.40769341,0.40769341 0 0 0 0.408203,0.408203 l 3,0 a 0.40769341,0.40769341 0 0 0 0.408203,-0.408203 l 0,-3 a 0.40769341,0.40769341 0 0 0 -0.408203,-0.408203 l -3,0 z"/><path fill-rule="evenodd" opacity="0.2" fill="#000" id="rect3976" d="m 26.542114,22.677965 1,0 0,1 -1,0 z"/></g><g fill="none" id="g20"><path opacity="0.4" id="path22" stroke="#000" d="m 2.5938,0.5312 c -0.058216,0 -0.0625,0.00428 -0.0625,0.0625 l 0,19.8125 c 0,0.05822 0.00428,0.0625 0.0625,0.0625 l 16.8125,0 c 0.05822,0 0.0625,-0.0043 0.0625,-0.0625 l 0,-19.8125 c 0,-0.058217 -0.0043,-0.0625 -0.0625,-0.0625 l -16.8125,0 z"/><path opacity="0.8" id="path24" stroke="url(#1)" d="m 3.5312,1.5312 0,17.9375 14.9375,0 0,-17.9375 -14.9375,0 z"/></g><metadata id="metadata9999"><rdf:RDF><cc:Work><dc:format>image/svg+xml</dc:format><dc:type rdf:resource="http://purl.org/dc/dcmitype/StillImage"/><dc:title>Ivy icon theme</dc:title><cc:license rdf:resource="http://creativecommons.org/licenses/by-sa/4.0/"/><dc:creator><cc:Agent><dc:title>Sixsixfive (sixsixfive.deviantart.com)</dc:title></cc:Agent></dc:creator><dc:publisher><cc:Agent><dc:title>Sixsixfive (sixsixfive.deviantart.com)</dc:title></cc:Agent></dc:publisher><dc:source>https://github.com/sixsixfive</dc:source><dc:subject><rdf:Bag><rdf:li>ivy</rdf:li></rdf:Bag></dc:subject><dc:contributor><cc:Agent><dc:title>ssf</dc:title></cc:Agent></dc:contributor><dc:rights><cc:Agent><dc:title>Sixsixfive (sixisixfive.deviantart.com)</dc:title></cc:Agent></dc:rights><dc:description>A simple icon theme published under CC-BY-SA_V4(http://creativecommons.org/licenses/by-sa/4.0)</dc:description><dc:identifier>SSF</dc:identifier></cc:Work></rdf:RDF></metadata><!--Part of the Ivy icon them published under the CC-BY-SA_V4: http://creativecommons.org/licenses/by-sa/4.0 -->
</svg>