<?xml version="1.0" encoding="UTF-8" standalone="no"?><svg xmlns:cc="http://creativecommons.org/ns#" xmlns:svg="http://www.w3.org/2000/svg" xmlns:dc="http://purl.org/dc/elements/1.1/" xmlns="http://www.w3.org/2000/svg" xmlns:rdf="http://www.w3.org/1999/02/22-rdf-syntax-ns#" id="svg2" version="1.1" viewBox="0 0 22 22"><defs id="defs4"><linearGradient gradientTransform="matrix(0.515 0 0 0.5 -1.083 -1)" gradientUnits="userSpaceOnUse" y1="2" id="0" y2="44" x2="0"><stop id="stop7" stop-color="#5288d1"/><stop id="stop9" stop-color="#86acdf" offset="1"/></linearGradient><linearGradient gradientUnits="userSpaceOnUse" y1="1" id="1" y2="20" x2="0"><stop id="stop12" stop-color="#fff"/><stop stop-opacity="0" id="stop14" stop-color="#fff" offset="1"/></linearGradient></defs><rect ry="0.604" width="18" rx="0.604" height="21" opacity="0.1" id="rect16" y="1" x="2"/><rect ry="0.604" width="18" rx="0.604" height="21" id="rect18" x="2" fill="url(#0)"/><g id="g20" fill="none"><path stroke="#000" opacity="0.4" d="m 2.5938,0.5312 c -0.058216,0 -0.0625,0.00428 -0.0625,0.0625 l 0,19.8125 c 0,0.05822 0.00428,0.0625 0.0625,0.0625 l 16.8125,0 c 0.05822,0 0.0625,-0.0043 0.0625,-0.0625 l 0,-19.8125 c 0,-0.058217 -0.0043,-0.0625 -0.0625,-0.0625 l -16.8125,0 z" id="path22"/><path stroke="url(#1)" opacity="0.3" d="m 3.5312,1.5312 0,17.9375 14.9375,0 0,-17.9375 -14.9375,0 z" id="path24"/></g><g id="g26" fill="#ebebeb"><path d="M 6,3 7,3 7,19 6,19 Z" id="path28"/><path d="m 15,3 1,0 0,16 -1,0 z" id="path30"/><g transform="matrix(0 1 -1 0 0 0)" id="g32"><path d="m 4,-17 1,0 0,12 -1,0 z" id="path34"/><path d="m 17,-17 1,0 0,12 -1,0 z" id="path36"/></g><path d="M 7,6 8,6 8,7 7,7 Z" id="path38"/><path d="M 8,5 9,5 9,6 8,6 Z" id="path40"/><path d="M 7,8 8,8 8,9 7,9 Z" id="path42"/><path d="M 8,7 9,7 9,8 8,8 Z" id="path44"/><path d="m 9,6 1,0 0,1 -1,0 z" id="path46"/><path d="m 10,5 1,0 0,1 -1,0 z" id="path48"/><path d="m 13,16 1,0 0,1 -1,0 z" id="path50"/><path d="m 14,15 1,0 0,1 -1,0 z" id="path52"/></g><metadata id="metadata9999"><rdf:RDF><cc:Work><dc:format>image/svg+xml</dc:format><dc:type rdf:resource="http://purl.org/dc/dcmitype/StillImage"/><dc:title>Ivy icon theme</dc:title><cc:license rdf:resource="http://creativecommons.org/licenses/by-sa/4.0/"/><dc:creator><cc:Agent><dc:title>Sixsixfive (sixsixfive.deviantart.com)</dc:title></cc:Agent></dc:creator><dc:publisher><cc:Agent><dc:title>Sixsixfive (sixsixfive.deviantart.com)</dc:title></cc:Agent></dc:publisher><dc:source>https://github.com/sixsixfive</dc:source><dc:subject><rdf:Bag><rdf:li>ivy</rdf:li></rdf:Bag></dc:subject><dc:contributor><cc:Agent><dc:title>ssf</dc:title></cc:Agent></dc:contributor><dc:rights><cc:Agent><dc:title>Sixsixfive (sixisixfive.deviantart.com)</dc:title></cc:Agent></dc:rights><dc:description>A simple icon theme published under CC-BY-SA_V4(http://creativecommons.org/licenses/by-sa/4.0)</dc:description><dc:identifier>SSF</dc:identifier></cc:Work></rdf:RDF></metadata><!--Part of the Ivy icon them published under the CC-BY-SA_V4: http://creativecommons.org/licenses/by-sa/4.0 -->
</svg>