<?xml version="1.0" encoding="UTF-8" standalone="no"?><svg xmlns:xlink="http://www.w3.org/1999/xlink" xmlns:cc="http://creativecommons.org/ns#" viewBox="0 0 22 22" version="1.1" id="svg2" xmlns:svg="http://www.w3.org/2000/svg" xmlns="http://www.w3.org/2000/svg" xmlns:rdf="http://www.w3.org/1999/02/22-rdf-syntax-ns#" xmlns:dc="http://purl.org/dc/elements/1.1/"><defs id="defs4"><linearGradient x2="0" gradientUnits="userSpaceOnUse" xlink:href="#3" y2="16" id="0" y1="2"/><linearGradient x2="0" gradientUnits="userSpaceOnUse" y2="78.13" id="1" gradientTransform="matrix(0.22497 0 0 0.22288 -0.152 -0.306)" y1="5.862"><stop stop-color="#d02604" id="stop8"/><stop offset="1" stop-color="#fc7357" id="stop10"/></linearGradient><linearGradient x2="0" gradientUnits="userSpaceOnUse" y2="78.13" id="2" gradientTransform="matrix(0.22497 0 0 0.22097 4.88 4.736)" y1="5.862"><stop stop-color="#171717" id="stop13"/><stop offset="1" stop-color="#686868" id="stop15"/></linearGradient><linearGradient id="3"><stop stop-color="#fff" id="stop18"/><stop offset="1" stop-opacity="0" stop-color="#fff" id="stop20"/></linearGradient><linearGradient x2="0" gradientUnits="userSpaceOnUse" xlink:href="#3" y2="20" id="4" y1="1"/><linearGradient x2="0" gradientUnits="userSpaceOnUse" y2="44" id="5" gradientTransform="matrix(0.515 0 0 0.5 -1.083 -1)" y1="2"><stop stop-color="#dedede" id="stop24"/><stop offset="1" stop-color="#f4f4f4" id="stop26"/></linearGradient><mask id="6"><rect height="21" width="18" rx="0.604" ry="0.604" fill="#fff" id="rect29" x="-2" y="-2"/></mask></defs><rect height="21" width="18" opacity="0.1" rx="0.604" ry="0.604" id="rect31" x="2" y="1"/><rect height="21" width="18" rx="0.604" ry="0.604" fill="url(#5)" id="rect33" x="2"/><g mask="url(#6)" id="g35" transform="matrix(1 0 0 1 4 2)"><g fill-rule="evenodd" id="g37"><path opacity="0.1" id="path39" d="M 1,2 1,8 3,8 C 3,5.559524 4.5,5 5.375,5 L 7,5 l 0,2.03125 -0.96875,0 0,5.9375 0.96875,0 0,1.71875 C 7,15.66369 6.546953,15.915248 6,16 l -1,0 0,2.09375 4.5,0 2.53125,0 0,1.53125 c 0,0.967803 -0.453047,1.197226 -1,1.28125 l -1,0 0,2.09375 4.5,0 4.5,0 0,-2.09375 -1,0 c -0.55348,0 -0.989927,-0.313499 -1,-1.28125 l 0,-9.625 1.625,0 c 0.875,0 2.375,0.549243 2.375,2.96875 l 2,0 0,-5.9375 L 18,7.03125 18,2 9.5,2 1,2 Z m 11,3 1.625,0 c 0.744988,0 1.941672,0.404462 2.28125,2.03125 l -1.375,0 L 12,7.03125 12,5 Z m 0,5 0.03125,0 0,4.90625 C 12.02406,14.83054 12.00088,14.772823 12,14.6875 L 12,10 Z"/><path fill="url(#1)" id="path41" d="M 1,1 1,7 3,7 C 3,4.55952 4.5,4 5.375,4 L 7,3.9996 7,13.69008 c 0,0.97619 -0.453048,1.22496 -1,1.30971 l -1,4e-4 0,2.10695 4.5,0 4.5,0 0,-2.10695 -1,0 c -0.55348,0 -0.989927,-0.333576 -1,-1.30971 L 12,4 13.625,4 C 14.5,4 16,4.559524 16,7 l 2,0 0,-6 -8.5,0 z"/></g><path opacity="0.4" fill="none" stroke="#000" id="7" d="m 1.5,1.5 0,5 1.0938,0 C 2.696398,5.47867 3.02587,4.68303 3.5313,4.21875 4.124975,3.673408 4.83305,3.5 5.37505,3.5 l 1.625,0 a 0.490328,0.490328 0 0 1 0.5,0.5 l 0,9.6875 c 0,0.563941 -0.150887,1.00399 -0.4375,1.3125 -0.286613,0.30851 -0.67423,0.449521 -1,0.5 a 0.490328,0.490328 0 0 1 -0.0625,0 l -0.5,0 0,1.09375 4,0 4,0 0,-1.09375 -0.5,0 c -0.376058,0 -0.779765,-0.144205 -1.0625,-0.46875 -0.282735,-0.324545 -0.431716,-0.783203 -0.4375,-1.34375 l 0,-9.6875 a 0.490328,0.490328 0 0 1 0.5,-0.5 l 1.625,0 c 0.542004,0 1.25008,0.173408 1.84375,0.71875 0.505426,0.464278 0.834902,1.25992 0.9375,2.28125 l 1.09375,0 0,-5 -8,0 -8,0 z"/><path stroke-linejoin="round" opacity="0.4" fill="none" stroke="url(#0)" id="path44" stroke-linecap="round" d="m 2.4688,2.4688 0,1.5938 C 2.602165,3.884411 2.687334,3.643827 2.8438,3.5001 3.658243,2.751963 4.62197,2.53135 5.37505,2.53135 l 1.625,0 A 1.48071,1.48071 0 0 1 8.4688,4.0001 l 0,9.6875 c 0,0.693649 -0.193226,1.40541 -0.65625,1.9375 l 1.6875,0 1.65625,0 c -0.454279,-0.554316 -0.617945,-1.25378 -0.625,-1.9375 l 0,-9.6875 a 1.48071,1.48071 0 0 1 1.46875,-1.46875 l 1.625,0 c 0.753084,0 1.71681,0.220613 2.53125,0.96875 0.156466,0.143727 0.241635,0.384311 0.375,0.5625 l 0,-1.59375 -7.03125,0 -7.03125,0 z"/><path fill-rule="evenodd" fill="url(#2)" id="path46" d="m 6.0312,6.0312 0,5.9484 2,0 c 0,-2.41951 1.5,-2.97422 2.375,-2.97422 l 1.625,-4e-4 0,9.60722 c 0,0.967803 -0.453047,1.21444 -1,1.29846 l -1,4e-4 0,2.08885 4.5,0 4.5,0 0,-2.08885 -1,0 c -0.55348,0 -0.989927,-0.33071 -1,-1.29846 l 0,-9.60722 1.625,0 c 0.875,0 2.375,0.554717 2.375,2.97422 l 2,0 0,-5.94845 -8.5,0 z"/><use height="22" width="22" xlink:href="#7" id="use48" x="0" transform="matrix(1 0 0 0.99141 5.03 5.04)" y="0"/><path stroke-linejoin="round" opacity="0.2" fill="none" stroke="url(#0)" id="path50" stroke-linecap="round" transform="matrix(1 0 0 0.99141 5.03 5.04)" d="m 2.4688,2.4688 0,1.5938 C 2.602165,3.884411 2.687334,3.643827 2.8438,3.5001 3.658243,2.751963 4.62197,2.53135 5.37505,2.53135 l 1.625,0 A 1.48071,1.48071 0 0 1 8.4688,4.0001 l 0,9.6875 c 0,0.693649 -0.193226,1.40541 -0.65625,1.9375 l 1.6875,0 1.65625,0 c -0.454279,-0.554316 -0.617945,-1.25378 -0.625,-1.9375 l 0,-9.6875 a 1.48071,1.48071 0 0 1 1.46875,-1.46875 l 1.625,0 c 0.753084,0 1.71681,0.220613 2.53125,0.96875 0.156466,0.143727 0.241635,0.384311 0.375,0.5625 l 0,-1.59375 -7.03125,0 -7.03125,0 z"/></g><g fill="none" id="g52"><path opacity="0.6" stroke="url(#4)" id="path54" d="m 3.5312,1.5312 0,17.9375 14.9375,0 0,-17.9375 -14.9375,0 z"/><path opacity="0.4" stroke="#000" id="path56" d="m 2.5938,0.5312 c -0.058216,0 -0.0625,0.00428 -0.0625,0.0625 l 0,19.8125 c 0,0.05822 0.00428,0.0625 0.0625,0.0625 l 16.8125,0 c 0.05822,0 0.0625,-0.0043 0.0625,-0.0625 l 0,-19.8125 c 0,-0.058217 -0.0043,-0.0625 -0.0625,-0.0625 l -16.8125,0 z"/></g><metadata id="metadata9999"><rdf:RDF><cc:Work><dc:format>image/svg+xml</dc:format><dc:type rdf:resource="http://purl.org/dc/dcmitype/StillImage"/><dc:title>Ivy icon theme</dc:title><cc:license rdf:resource="http://creativecommons.org/licenses/by-sa/4.0/"/><dc:creator><cc:Agent><dc:title>Sixsixfive (sixsixfive.deviantart.com)</dc:title></cc:Agent></dc:creator><dc:publisher><cc:Agent><dc:title>Sixsixfive (sixsixfive.deviantart.com)</dc:title></cc:Agent></dc:publisher><dc:source>https://github.com/sixsixfive</dc:source><dc:subject><rdf:Bag><rdf:li>ivy</rdf:li></rdf:Bag></dc:subject><dc:contributor><cc:Agent><dc:title>ssf</dc:title></cc:Agent></dc:contributor><dc:rights><cc:Agent><dc:title>Sixsixfive (sixisixfive.deviantart.com)</dc:title></cc:Agent></dc:rights><dc:description>A simple icon theme published under CC-BY-SA_V4(http://creativecommons.org/licenses/by-sa/4.0)</dc:description><dc:identifier>SSF</dc:identifier></cc:Work></rdf:RDF></metadata><!--Part of the Ivy icon them published under the CC-BY-SA_V4: http://creativecommons.org/licenses/by-sa/4.0 -->
</svg>