<?xml version="1.0" encoding="UTF-8" standalone="no"?>
<svg xmlns:dc="http://purl.org/dc/elements/1.1/" xmlns:cc="http://creativecommons.org/ns#" xmlns:rdf="http://www.w3.org/1999/02/22-rdf-syntax-ns#" xmlns:svg="http://www.w3.org/2000/svg" xmlns="http://www.w3.org/2000/svg" xmlns:xlink="http://www.w3.org/1999/xlink" viewBox="0 0 48 48" id="svg2" version="1.1">
 <defs id="defs4">
  <linearGradient id="1" y1="3" y2="44" x2="0" gradientUnits="userSpaceOnUse">
   <stop stop-color="#dedede" id="stop7"/>
   <stop offset="1" stop-color="#f4f4f4" id="stop9"/>
  </linearGradient>
  <linearGradient id="2" y1="3" x1="40" y2="31" x2="7" gradientUnits="userSpaceOnUse">
   <stop stop-color="#fff" id="stop12"/>
   <stop offset="1" stop-color="#fff" stop-opacity="0" id="stop14"/>
  </linearGradient>
  <linearGradient id="3" y1="44" y2="2" x2="0" gradientUnits="userSpaceOnUse">
   <stop stop-color="#b1db99" id="stop17"/>
   <stop offset="1" stop-color="#66b03e" id="stop19"/>
  </linearGradient>
 </defs>
 <rect width="34.951" x="6" opacity="0.1" y="3" rx="1.209" height="42" ry="1.209" id="rect21"/>
 <rect width="34.951" x="5.986" y="2" fill="url(#1)" rx="1.209" height="42" ry="1.209" id="rect23"/>
 <rect width="7.01" x="6" y="2" fill="url(#3)" rx="1.209" height="42" ry="1.209" id="rect25"/>
 <path opacity="0.4" fill="none" stroke="#000" d="M 7.1875 2.5 C 6.783721 2.5 6.5 2.799839 6.5 3.21875 V 42.78125 C 6.5 43.20016 6.783721 43.5 7.1875 43.5 H 39.71875 C 40.12253 43.5 40.4375 43.18503 40.4375 42.78125 V 3.21875 C 40.4375 2.814971 40.12253 2.5 39.71875 2.5 H 7.1875 z" id="path27"/>
 <path opacity="0.4" d="M 12,3 H13 V43 H12 z" id="path29"/>
 <g id="g31" fill="#fff">
  <path d="m 15,8 2,0 0,34 -2,0 z" id="path33" opacity="0.3"/>
  <path d="m 35,8 2,0 0,34 -2,0 z" id="path35" opacity="0.3"/>
  <g transform="matrix(0,1,-1,0,0,0)" id="g37">
   <path d="m 8,-35 2,0 0,18 -2,0 z" id="path39" opacity="0.3"/>
   <path d="m 16,-35 2,0 0,18 -2,0 z" id="path41" opacity="0.3"/>
   <path d="m 24,-35 2,0 0,18 -2,0 z" id="path43" opacity="0.3"/>
   <path d="m 32,-35 2,0 0,18 -2,0 z" id="path45" opacity="0.3"/>
   <path d="m 40,-35 2,0 0,18 -2,0 z" id="path47" opacity="0.3"/>
  </g>
  <path d="m 25,10 2,0 0,6 -2,0 z" id="path49" opacity="0.3"/>
  <path d="m 25,18 2,0 0,6 -2,0 z" id="path51" opacity="0.3"/>
  <path d="m 25,26 2,0 0,6 -2,0 z" id="path53" opacity="0.3"/>
  <path d="m 25,34 2,0 0,6 -2,0 z" id="path55" opacity="0.3"/>
 </g>
 <path opacity="0.78" fill="none" stroke="url(#2)" d="M 7.5312 3.5312 V 42.4687 H 39.4062 V 3.5312 H 7.5312 z" id="path57"/>
 <path fill="#fff" id="0" d="M 11 15.5 A 1.5 1.5 0 1 1 8 15.5 1.5 1.5 0 1 1 11 15.5 z"/>
 <use xlink:href="#0" transform="matrix(1 0 0 1 0 15)" id="use60"/>
 <g id="g62" fill="#6a6a6a">
  <path d="m 15,7 2,0 0,34 -2,0 z" id="path64" opacity="0.3"/>
  <path d="m 35,7 2,0 0,34 -2,0 z" id="path66" opacity="0.3"/>
  <g transform="matrix(0,1,-1,0,0,0)" id="g68">
   <path d="m 7,-35 2,0 0,18 -2,0 z" id="path70" opacity="0.3"/>
   <path d="m 15,-35 2,0 0,18 -2,0 z" id="path72" opacity="0.3"/>
   <path d="m 23,-35 2,0 0,18 -2,0 z" id="path74" opacity="0.3"/>
   <path d="m 31,-35 2,0 0,18 -2,0 z" id="path76" opacity="0.3"/>
   <path d="m 39,-35 2,0 0,18 -2,0 z" id="path78" opacity="0.3"/>
  </g>
  <path d="m 25,9 2,0 0,6 -2,0 z" id="path80" opacity="0.3"/>
  <path d="m 25,17 2,0 0,6 -2,0 z" id="path82" opacity="0.3"/>
  <path d="m 25,25 2,0 0,6 -2,0 z" id="path84" opacity="0.3"/>
  <path d="m 25,33 2,0 0,6 -2,0 z" id="path86" opacity="0.3"/>
 </g>
 <metadata id="metadata9999">
  <rdf:RDF>
   <cc:Work>
    <dc:format>image/svg+xml</dc:format>
    <dc:type rdf:resource="http://purl.org/dc/dcmitype/StillImage"/>
    <dc:title>Ivy icon theme</dc:title>
    <cc:license rdf:resource="http://creativecommons.org/licenses/by-sa/4.0/"/>
    <dc:creator>
     <cc:Agent>
      <dc:title>Sixsixfive (sixsixfive.deviantart.com)</dc:title>
     </cc:Agent>
    </dc:creator>
    <dc:publisher>
     <cc:Agent>
      <dc:title>Sixsixfive (sixsixfive.deviantart.com)</dc:title>
     </cc:Agent>
    </dc:publisher>
    <dc:source>https://github.com/sixsixfive</dc:source>
    <dc:subject>
     <rdf:Bag>
      <rdf:li>ivy</rdf:li>
     </rdf:Bag>
    </dc:subject>
    <dc:contributor>
     <cc:Agent>
      <dc:title>ssf</dc:title>
     </cc:Agent>
    </dc:contributor>
    <dc:rights>
     <cc:Agent>
      <dc:title>Sixsixfive (sixisixfive.deviantart.com)</dc:title>
     </cc:Agent>
    </dc:rights>
    <dc:description>A simple icon theme published under CC-BY-SA_V4(http://creativecommons.org/licenses/by-sa/4.0)</dc:description>
    <dc:identifier>SSF</dc:identifier>
   </cc:Work>
  </rdf:RDF>
 </metadata>
 <!--Part of the Ivy icon them published under the CC-BY-SA_V4: http://creativecommons.org/licenses/by-sa/4.0 -->
</svg>
