<?xml version="1.0" encoding="UTF-8" standalone="no"?><svg xmlns:svg="http://www.w3.org/2000/svg" viewBox="0 0 22 22" xmlns="http://www.w3.org/2000/svg" xmlns:rdf="http://www.w3.org/1999/02/22-rdf-syntax-ns#" version="1.1" id="svg2" xmlns:dc="http://purl.org/dc/elements/1.1/" xmlns:cc="http://creativecommons.org/ns#"><defs id="defs4"><linearGradient y1="3.03" x2="0" y2="19.03" id="0" gradientUnits="userSpaceOnUse"><stop id="stop7" stop-color="#fff"/><stop stop-opacity="0" offset="1" id="stop9" stop-color="#fff"/></linearGradient><linearGradient x1="6.04" y1="1.882" x2="41" y2="1.927" id="1" gradientTransform="matrix(0.515 0 0 0.5 -1.052 -22.969)" gradientUnits="userSpaceOnUse"><stop id="stop12" stop-color="#171717"/><stop offset="1" id="stop14" stop-color="#646464"/></linearGradient></defs><g id="g16" transform="matrix(0 1 -1 0 0 0)"><path opacity="0.1" id="rect18" d="m 3.6339999,-21.969 16.7920001,0 c 0.334616,0 0.604,0.269384 0.604,0.604 l 0,19.7920002 c 0,0.3346159 -0.269384,0.60399994 -0.604,0.60399994 l -16.7920001,0 C 3.299384,-0.96899986 3.03,-1.2383839 3.03,-1.5729998 L 3.03,-21.365 c 0,-0.334616 0.269384,-0.604 0.6039999,-0.604 z"/><path id="rect20" d="m 2.6349999,-21.969 16.7920001,0 c 0.334616,0 0.604,0.269384 0.604,0.604 l 0,19.7920002 c 0,0.3346159 -0.269384,0.60399994 -0.604,0.60399994 l -16.7920001,0 c -0.334616,0 -0.604,-0.26938404 -0.604,-0.60399994 l 0,-19.7920002 c 0,-0.334616 0.269384,-0.604 0.604,-0.604 z" fill="url(#1)"/></g><g id="g22" fill="none"><path stroke="#000" id="path24" d="M 21.5,2.625 C 21.5,2.534502 21.4655,2.5 21.375,2.5 l -19.8125,0 c -0.090498,0 -0.125,0.034502 -0.125,0.125 l 0,16.8125 c 0,0.0905 0.034502,0.125 0.125,0.125 l 19.8125,0 c 0.0905,0 0.125,-0.0345 0.125,-0.125 l 0,-16.8125 z"/><path stroke="url(#0)" opacity="0.3" id="path26" d="m 20.4688,3.5312 -18,0 0,15 18,0 0,-15 z"/></g><g id="g28" color="#000"><path opacity="0.3" id="path30" d="m 3,13 17,0 0,4 -17,0 z"/><g id="g32" fill="#ebebeb"><path opacity="0.6" id="path34" d="m 4,14 15,0 0,2 -15,0 z"/><path opacity="0.2" id="path36" d="m 3,17 17,0 0,1 -17,0 z"/></g><path opacity="0.7" id="path38" d="m 4,14 6,0 0,2 -6,0 z" fill="#d02604"/></g><g id="g40" transform="matrix(0.3151 0 0 0.33333 3.298 0.408)" fill="#ebebeb"><path id="path42" d="m 33.963377,22.776383 -15.867815,9.000016 -4.3e-5,-18.000032 z" fill="#000"/><path id="path44" transform="matrix(0.99984 -0.01774 0.01774 0.99984 5.492 2.399)" d="M 28.052189,23.879215 12.0272,32.5963 12.3465,14.5991 Z"/></g><metadata id="metadata9999"><rdf:RDF><cc:Work><dc:format>image/svg+xml</dc:format><dc:type rdf:resource="http://purl.org/dc/dcmitype/StillImage"/><dc:title>Ivy icon theme</dc:title><cc:license rdf:resource="http://creativecommons.org/licenses/by-sa/4.0/"/><dc:creator><cc:Agent><dc:title>Sixsixfive (sixsixfive.deviantart.com)</dc:title></cc:Agent></dc:creator><dc:publisher><cc:Agent><dc:title>Sixsixfive (sixsixfive.deviantart.com)</dc:title></cc:Agent></dc:publisher><dc:source>https://github.com/sixsixfive</dc:source><dc:subject><rdf:Bag><rdf:li>ivy</rdf:li></rdf:Bag></dc:subject><dc:contributor><cc:Agent><dc:title>ssf</dc:title></cc:Agent></dc:contributor><dc:rights><cc:Agent><dc:title>Sixsixfive (sixisixfive.deviantart.com)</dc:title></cc:Agent></dc:rights><dc:description>A simple icon theme published under CC-BY-SA_V4(http://creativecommons.org/licenses/by-sa/4.0)</dc:description><dc:identifier>SSF</dc:identifier></cc:Work></rdf:RDF></metadata><!--Part of the Ivy icon them published under the CC-BY-SA_V4: http://creativecommons.org/licenses/by-sa/4.0 -->
</svg>