<?xml version="1.0" encoding="UTF-8" standalone="no"?><svg xmlns:cc="http://creativecommons.org/ns#" viewBox="0 0 48 48" version="1.1" id="svg2" xmlns:svg="http://www.w3.org/2000/svg" xmlns:rdf="http://www.w3.org/1999/02/22-rdf-syntax-ns#" xmlns="http://www.w3.org/2000/svg" xmlns:dc="http://purl.org/dc/elements/1.1/"><defs id="defs4"><linearGradient x2="0" gradientUnits="userSpaceOnUse" y2="43" id="0" y1="9.879"><stop stop-color="#fff" id="stop7"/><stop offset="1" stop-opacity="0" stop-color="#fff" id="stop9"/></linearGradient><linearGradient x2="8" gradientUnits="userSpaceOnUse" x1="15.901" id="1"><stop stop-color="#ffc194" id="stop12"/><stop offset="1" stop-color="#fb6b00" id="stop14"/></linearGradient><linearGradient x2="43" gradientUnits="userSpaceOnUse" x1="8" id="2"><stop stop-color="#dedede" id="stop17"/><stop offset="1" stop-color="#f4f4f4" id="stop19"/></linearGradient></defs><g id="g21" transform="matrix(0 1 -1 0 0 0)"><path opacity="0.1" id="rect23" d="m 11.259,-45 32.533,0 c 0.669786,0 1.209,0.539214 1.209,1.209 l 0,39.582 C 45.001,-3.539214 44.461786,-3 43.792,-3 L 11.259,-3 C 10.589214,-3 10.05,-3.539214 10.05,-4.209 l 0,-39.582 c 0,-0.669786 0.539214,-1.209 1.209,-1.209 z"/><path fill="url(#2)" id="rect25" d="m 10.259,-45 32.533,0 c 0.669786,0 1.209,0.539214 1.209,1.209 l 0,39.582 C 44.001,-3.539214 43.461786,-3 42.792,-3 L 10.259,-3 C 9.5892142,-3 9.0500002,-3.539214 9.0500002,-4.209 l 0,-39.582 c 0,-0.669786 0.539214,-1.209 1.2089998,-1.209 z"/><path fill="url(#1)" id="rect27" d="m 10.269,-45 4.592001,0 c 0.669786,0 1.209,0.539214 1.209,1.209 l 0,39.582 c 0,0.669786 -0.539214,1.209 -1.209,1.209 L 10.269,-3 C 9.5992144,-3 9.0600004,-3.539214 9.0600004,-4.209 l 0,-39.582 c 0,-0.669786 0.539214,-1.209 1.2089996,-1.209 z"/></g><path opacity="0.4" fill="none" id="path29" stroke="#000" d="M 44.5 10.25 C 44.5 9.846221 44.20016 9.5625 43.78125 9.5625 H 4.21875 C 3.799839 9.5625 3.5 9.846221 3.5 10.25 V 42.78125 C 3.5 43.18503 3.81497 43.5 4.21875 43.5 H 43.78125 C 44.18503 43.5 44.5 43.18503 44.5 42.78125 V 10.25 z"/><path opacity="0.4" id="path31" transform="matrix(0 1 -1 0 0 0)" d="M 15.0625,-44 H16.0625 V-4 H15.0625 z"/><path opacity="0.4" fill="none" id="path33" stroke="url(#0)" d="M 43.4688 10.5937 H 4.5313 V 42.4687 H 43.4688 V 10.5937 z"/><path opacity="0.1" id="path35" d="M 31.5 15.062 A 1.5 1.5 0 1 1 31.5 12.062 1.5 1.5 0 0 1 31.5 15.062 z"/><path opacity="0.1" id="path37" d="M 16.5 15.062 A 1.5 1.5 0 1 1 16.5 12.062 1.5 1.5 0 0 1 16.5 15.062 z"/><g fill="#fff" id="g39"><path id="path41" d="m 31.5,14.0625 a 1.5,1.5 0 1 1 0,-3 1.5,1.5 0 0 1 0,3 z"/><path id="path43" d="m 16.5,14.0625 a 1.5,1.5 0 1 1 0,-3 1.5,1.5 0 0 1 0,3 z"/><path opacity="0.7" id="path45" d="M 17.787202,19.04398 C 14.993153,18.961 12.182798,20.05277 10.177548,22.00021 8.172275,23.947648 6.998778,26.724885 7,29.520172 c 0.00429,2.739918 1.135254,5.46128 3.07417,7.397208 1.93895,1.935894 4.185877,3.08284 6.92583,3.08283 l 0,-11 11,0 c 0.0012,-2.691595 -1.130906,-4.8483 -3.005256,-6.78001 -1.874354,-1.931682 -4.517146,-3.09632 -7.207542,-3.17622 z"/></g><path opacity="0.3" fill="#6a6a6a" id="path47" d="M 17.787202 18.04377 C 14.993153 17.960788 12.182798 19.05256 10.177548 21 8.172275 22.947437 6.998778 25.724674 7 28.519961 7.00429 31.25988 8.135254 33.981241 10.07417 35.917169 12.01312 37.853063 14.260047 39.00001 17 39 V 28 H 28 C 28.00119 25.308404 26.869094 23.1517 24.994744 21.21999 23.12039 19.288307 20.477598 18.12366 17.787202 18.04377 z"/><path opacity="0.7" fill="#fff" id="path49" d="M 19 31.00021 V 41.983 A 10.999999 10.999999 0 0 0 30 31.00021 H 19 z"/><path opacity="0.5" fill="#6a6a6a" id="path51" d="M 19 30 V 40.982789 A 10.999999 10.999999 0 0 0 30 30 H 19 z"/><g fill="#fff" id="g53"><path opacity="0.3" id="path55" d="m 32,21 9,0 0,2 -9,0 z"/><path opacity="0.3" id="path57" d="m 32,25 6,0 0,2 -6,0 z"/><path opacity="0.3" id="path59" d="m 32,29 10,0 0,2 -10,0 z"/><path opacity="0.3" id="path61" d="m 32,33 7,0 0,2 -7,0 z"/></g><g fill="#6a6a6a" id="g63"><path opacity="0.3" id="path65" d="m 32,20 9,0 0,2 -9,0 z"/><path opacity="0.3" id="path67" d="m 32,24 6,0 0,2 -6,0 z"/><path opacity="0.3" id="path69" d="m 32,28 10,0 0,2 -10,0 z"/><path opacity="0.3" id="path71" d="m 32,32 7,0 0,2 -7,0 z"/></g><metadata id="metadata9999"><rdf:RDF><cc:Work><dc:format>image/svg+xml</dc:format><dc:type rdf:resource="http://purl.org/dc/dcmitype/StillImage"/><dc:title>Ivy icon theme</dc:title><cc:license rdf:resource="http://creativecommons.org/licenses/by-sa/4.0/"/><dc:creator><cc:Agent><dc:title>Sixsixfive (sixsixfive.deviantart.com)</dc:title></cc:Agent></dc:creator><dc:publisher><cc:Agent><dc:title>Sixsixfive (sixsixfive.deviantart.com)</dc:title></cc:Agent></dc:publisher><dc:source>https://github.com/sixsixfive</dc:source><dc:subject><rdf:Bag><rdf:li>ivy</rdf:li></rdf:Bag></dc:subject><dc:contributor><cc:Agent><dc:title>ssf</dc:title></cc:Agent></dc:contributor><dc:rights><cc:Agent><dc:title>Sixsixfive (sixisixfive.deviantart.com)</dc:title></cc:Agent></dc:rights><dc:description>A simple icon theme published under CC-BY-SA_V4(http://creativecommons.org/licenses/by-sa/4.0)</dc:description><dc:identifier>SSF</dc:identifier></cc:Work></rdf:RDF></metadata><!--Part of the Ivy icon them published under the CC-BY-SA_V4: http://creativecommons.org/licenses/by-sa/4.0 -->
</svg>