<?xml version="1.0" encoding="UTF-8" standalone="no"?>
<svg xmlns:dc="http://purl.org/dc/elements/1.1/" xmlns:cc="http://creativecommons.org/ns#" xmlns:rdf="http://www.w3.org/1999/02/22-rdf-syntax-ns#" xmlns:svg="http://www.w3.org/2000/svg" xmlns="http://www.w3.org/2000/svg" xmlns:xlink="http://www.w3.org/1999/xlink" version="1.1" viewBox="0 0 48 48" id="svg2">
 <defs id="defs4">
  <linearGradient id="linearGradient4164">
   <stop stop-color="#fff" id="stop4166"/>
   <stop offset="1" stop-color="#fff" id="stop4168" stop-opacity="0"/>
  </linearGradient>
  <linearGradient id="linearGradient4192">
   <stop stop-color="#ebebeb" id="stop4194"/>
   <stop offset="1" stop-color="#999" id="stop4196"/>
  </linearGradient>
  <linearGradient xlink:href="#linearGradient4192" id="linearGradient4198" y1="41.42928" y2="18" x2="0" gradientUnits="userSpaceOnUse" gradientTransform="matrix(1.6428568 0 0 1.6521745 -15.428585 -22.739158)"/>
  <linearGradient xlink:href="#linearGradient4164" id="linearGradient4170" y1="8" y2="45" x2="0" gradientUnits="userSpaceOnUse"/>
  <linearGradient id="0" y1="37.438" y2="44.5" x1="-8.303" gradientUnits="userSpaceOnUse" x2="-8.185">
   <stop stop-color="#ebebeb" id="stop4546"/>
   <stop offset="1" stop-color="#b7b7b7" id="stop4548"/>
  </linearGradient>
  <linearGradient xlink:href="#linearGradient4164" id="3" y1="1.837" y2="43.3" gradientUnits="userSpaceOnUse" x2="0"/>
  <radialGradient cx="-36.514" cy="26.712" id="5" r="5.533" gradientUnits="userSpaceOnUse" gradientTransform="matrix(0.80584 -0.99328 0.99403 0.80645 43.401 -17.279)">
   <stop stop-color="#f1d6a5" id="stop4563"/>
   <stop offset="1" stop-color="#d49320" id="stop4565"/>
  </radialGradient>
  <radialGradient cx="0.704" cy="16.184" id="6" r="14.5" gradientUnits="userSpaceOnUse" gradientTransform="matrix(-0.55181 -0.46428 0.26293 -0.3125 -5.985 45.822)">
   <stop stop-color="#f28099" id="stop4568"/>
   <stop offset="1" stop-color="#ed4c70" id="stop4570"/>
  </radialGradient>
 </defs>
 <g id="g4742" transform="matrix(0.99805504,0,0,1.0205645,-0.889318,1.042661)" opacity="0.35">
  <path id="path4744" d="m 37.4375,34.7746 2.1875,6 1.4062,3.7812 1.3438,-3.7812 2.125,-6 0,-0.0312 0,-28.8125 0,-2.25 c 0,-1.26728 -1.01397,-2.28125 -2.28125,-2.28125 l -2.5,0 c -1.26728,0 -2.28125,1.01397 -2.28125,2.28125 l 0,2.25 0,28.8438 z" opacity="0.48" stroke="#000"/>
  <path id="path4746" d="m 38.4375,34.5871 2.125,5.8438 0.4375,1.1875 0.4375,-1.1875 2.0625,-5.8438 0,-28.6563 0,-2.25 c 0,-0.729114 -0.552135,-1.28125 -1.28125,-1.28125 l -2.5,0 c -0.729115,0 -1.28125,0.552136 -1.28125,1.28125 l 0,2.25 0,28.6563 z" opacity="0.4" stroke="url(#3)"/>
 </g>
 <path opacity="0.2" stroke-opacity="0.286275" id="path4172" d="M 5.9285728,8 C 3.1981319,8 1,10.210604 1,12.956524 l 0,19.065211 c 0,2.745913 2.1986938,4.901141 4.9285728,4.95653 L 11,36.978265 11,46 l 10,-9.021735 21.071421,0 C 44.801856,36.978265 47,34.767648 47,32.021736 L 47,12.956524 C 47,10.210604 44.801856,8 42.071421,8 Z"/>
 <path stroke-opacity="0.286275" fill="url(#linearGradient4198)" id="rect3375" d="M 5.9285728,7 C 3.1981319,7 1,9.2106037 1,11.956524 l 0,19.065211 c 0,2.745913 2.1986938,4.901141 4.9285728,4.95653 L 11,35.978265 11,45 l 10,-9.021735 21.071421,0 C 44.801856,35.978265 47,33.767648 47,31.021736 L 47,11.956524 C 47,9.2106037 44.801856,7 42.071421,7 Z"/>
 <g id="g4618" transform="matrix(0,-1,1,0,-0.969,0.069)">
  <path id="path4620" d="m -34.931,36.969 29,0 0,8 -29,0 z" opacity="0.67" fill="#eed45a"/>
  <path d="m -27.188,36.969002 23.5140002,0 c 1.519622,0 2.74300004,1.223378 2.74300004,2.743 l 0,2.514 c 0,1.519622 -1.22337804,2.743 -2.74300004,2.743 l -23.5140002,0 c -1.519622,0 -2.743,-1.223378 -2.743,-2.743 l 0,-2.514 c 0,-1.519622 1.223378,-2.743 2.743,-2.743 z" id="rect4622" fill="url(#6)"/>
 </g>
 <path opacity="0.6" fill="none" stroke="#000" id="path4160" d="m 5.9277344,7.5683594 c -2.4234077,0 -4.359375,1.9461464 -4.359375,4.3886716 l 0,19.064453 c 0,2.44244 1.9342448,4.339229 4.3710937,4.388672 l 5.0605469,0 a 0.56877727,0.56877727 0 0 1 0.568359,0.56836 l 0,7.74414 9.050782,-8.166015 A 0.56877727,0.56877727 0 0 1 21,35.410156 l 21.072266,0 c 2.4234,0 4.359375,-1.946156 4.359375,-4.388672 l 0,-19.064453 c 0,-2.4425245 -1.935974,-4.3886716 -4.359375,-4.3886716 l -36.1445316,0 z"/>
 <path fill="url(#5)" id="path4624" d="m 35.9998,34.9338 8,0 -3.9222,11.066 c -4.07777,-11.066 0,0 -4.07777,-11.066 z"/>
 <path opacity="0.6" fill="none" stroke="url(#linearGradient4170)" id="path4162" d="m 5.9277344,8.515625 c -1.9118807,0 -3.4121094,1.504346 -3.4121094,3.441406 l 0,19.064453 c 0,1.936845 1.4947078,3.401869 3.4433594,3.441407 l 5.0410156,0 a 1.5163783,1.5163783 0 0 1 1.515625,1.515625 l 0,5.613281 7.46875,-6.738281 A 1.5163783,1.5163783 0 0 1 21,34.462891 l 21.072266,0 c 1.911869,0 3.412109,-1.504358 3.412109,-3.441407 l 0,-19.064453 c 0,-1.937058 -1.500236,-3.441406 -3.412109,-3.441406 l -36.1445316,0 z"/>
 <g id="g4626" transform="matrix(0,-1,1,0,-0.969,0.069)">
  <path id="path4628" d="m -34.931,42.969 29,0 0,2 -29,0 z" fill="#a07018"/>
  <path id="path4630" d="m -34.931,39.969 29,0 0,3 -29,0 z" fill="#e4ae4e"/>
  <path id="path4632" d="m -34.931,36.969 29,0 0,3 -29,0 z" fill="#eecd92"/>
  <path id="path4634" d="m -9.931,36.969 4,0 0,8 -4,0 z" fill="url(#0)"/>
 </g>
 <path fill="#6a6a6a" id="path4636" d="m 38.2185,40.9999 1.8438,5 1.7812,-5 -3.625,0 z"/>
 <g id="g4638" transform="translate(-0.969,0.069)" fill="none">
  <path id="path4640" d="m 37.4375,34.7746 2.1875,6 1.4062,3.7812 1.3438,-3.7812 2.125,-6 0,-0.0312 0,-28.8125 0,-2.25 c 0,-1.26728 -1.01397,-2.28125 -2.28125,-2.28125 l -2.5,0 c -1.26728,0 -2.28125,1.01397 -2.28125,2.28125 l 0,2.25 0,28.8438 z" opacity="0.48" stroke="#000"/>
  <path id="path4642" d="m 38.4375,34.5871 2.125,5.8438 0.4375,1.1875 0.4375,-1.1875 2.0625,-5.8438 0,-28.6563 0,-2.25 c 0,-0.729114 -0.552135,-1.28125 -1.28125,-1.28125 l -2.5,0 c -0.729115,0 -1.28125,0.552136 -1.28125,1.28125 l 0,2.25 0,28.6563 z" opacity="0.4" stroke="url(#3)"/>
 </g>
 <path opacity="0.06" id="path4644" d="m 37.031,35.069 6,0 0,1 -6,0 z"/>
 <rect width="1" x="35" opacity="0.36" y="9" fill="#fff" height="25" id="rect4740"/>
 <metadata id="metadata9999">
  <rdf:RDF>
   <cc:Work>
    <dc:format>image/svg+xml</dc:format>
    <dc:type rdf:resource="http://purl.org/dc/dcmitype/StillImage"/>
    <dc:title>Ivy icon theme</dc:title>
    <cc:license rdf:resource="http://creativecommons.org/licenses/by-sa/4.0/"/>
    <dc:creator>
     <cc:Agent>
      <dc:title>Sixsixfive (sixsixfive.deviantart.com)</dc:title>
     </cc:Agent>
    </dc:creator>
    <dc:publisher>
     <cc:Agent>
      <dc:title>Sixsixfive (sixsixfive.deviantart.com)</dc:title>
     </cc:Agent>
    </dc:publisher>
    <dc:source>https://github.com/sixsixfive</dc:source>
    <dc:subject>
     <rdf:Bag>
      <rdf:li>ivy</rdf:li>
     </rdf:Bag>
    </dc:subject>
    <dc:contributor>
     <cc:Agent>
      <dc:title>ssf</dc:title>
     </cc:Agent>
    </dc:contributor>
    <dc:rights>
     <cc:Agent>
      <dc:title>Sixsixfive (sixisixfive.deviantart.com)</dc:title>
     </cc:Agent>
    </dc:rights>
    <dc:description>A simple icon theme published under CC-BY-SA_V4(http://creativecommons.org/licenses/by-sa/4.0)</dc:description>
    <dc:identifier>SSF</dc:identifier>
   </cc:Work>
  </rdf:RDF>
 </metadata>
 <!--Part of the Ivy icon them published under the CC-BY-SA_V4: http://creativecommons.org/licenses/by-sa/4.0 -->
</svg>
