<?xml version="1.0" encoding="UTF-8" standalone="no"?><svg xmlns:cc="http://creativecommons.org/ns#" xmlns:rdf="http://www.w3.org/1999/02/22-rdf-syntax-ns#" xmlns:svg="http://www.w3.org/2000/svg" id="svg2" viewBox="0 0 48 48" version="1.1" xmlns:xlink="http://www.w3.org/1999/xlink" xmlns:dc="http://purl.org/dc/elements/1.1/" xmlns="http://www.w3.org/2000/svg"><defs id="defs4"><linearGradient id="0" x2="45.23" y2="28.738" x1="45.06" y1="14.612" gradientUnits="userSpaceOnUse"><stop id="stop7" stop-color="#5288d1"/><stop offset="1" id="stop9" stop-color="#87addf"/></linearGradient><linearGradient id="1" x2="45.584" y2="45.738" x1="45.06" y1="31.612" gradientUnits="userSpaceOnUse"><stop id="stop12" stop-color="#5288d1"/><stop offset="1" id="stop14" stop-color="#aac4e8"/></linearGradient><linearGradient id="2" x2="46.44" y2="46.86" x1="46.49" y1="15.224" gradientUnits="userSpaceOnUse"><stop id="stop17" stop-color="#66b03e"/><stop offset="1" id="stop19" stop-color="#74c24d"/></linearGradient><linearGradient id="3" x2="46.11" y2="35.459" x1="45.648" xlink:href="#4" y1="16.17" gradientUnits="userSpaceOnUse"/><linearGradient id="4"><stop id="stop23" stop-color="#fff"/><stop offset="1" id="stop25" stop-color="#fff" stop-opacity="0"/></linearGradient><linearGradient id="5" x2="0" y2="49.06" xlink:href="#4" y1="10.938" gradientUnits="userSpaceOnUse"/><linearGradient id="6" x2="53.33" y2="49.741" x1="53.42" y1="9.741" gradientUnits="userSpaceOnUse"><stop id="stop29" stop-color="#303030"/><stop offset="1" id="stop31" stop-color="#6a6a6a"/></linearGradient><radialGradient r="12.221" cx="24.588" id="7" cy="33.25" gradientTransform="matrix(0.16219 0.52641 -0.7736 0.23834 48.3 16.356)" gradientUnits="userSpaceOnUse"><stop id="stop34" stop-color="#fff" stop-opacity="0.8"/><stop offset="1" id="stop36" stop-color="#fff" stop-opacity="0"/></radialGradient><radialGradient r="29.475" cx="35.519" id="8" cy="49.624" gradientTransform="matrix(0.81424 0 0 0.05089 -4.921 40.747)" gradientUnits="userSpaceOnUse"><stop id="stop39" stop-opacity="0.2"/><stop offset="1" id="stop41" stop-opacity="0"/></radialGradient></defs><g id="g43" transform="matrix(1 0 0 1 -10 -6.741)"><path id="path45" d="m 14,10 0,40 40,0 0,-40 -40,0 z m 3,3.5 3,0 0,3 -3,0 0,-3 z m 31,0 3,0 0,3 -3,0 0,-3 z m -31,5 3,0 0,3 -3,0 0,-3 z m 31,0 3,0 0,3 -3,0 0,-3 z m -31,5 3,0 0,3 -3,0 0,-3 z m 31,0 3,0 0,3 -3,0 0,-3 z m -31,5 3,0 0,3 -3,0 0,-3 z m 31,0 3,0 0,3 -3,0 0,-3 z m -31,5 3,0 0,3 -3,0 0,-3 z m 31,0 3,0 0,3 -3,0 0,-3 z m -31,5 3,0 0,3 -3,0 0,-3 z m 31,0 3,0 0,3 -3,0 0,-3 z m -31,5 3,0 0,3 -3,0 0,-3 z m 31,0 3,0 0,3 -3,0 0,-3 z" fill="url(#6)"/><g id="g47" fill="none"><path id="path49" opacity="0.69" d="m 14.4688,10.4688 0,39.0625 39.0625,0 0,-39.0625 -39.0625,0 z" stroke="#000"/><path id="path51" opacity="0.367001" d="m 15.4375,11.4375 0,37.125 37.125,0 0,-37.125 -37.125,0 z" stroke="url(#5)"/></g><path id="path53" d="m 23,14.5 22,0 0,14 -22,0 z" fill="url(#0)"/><path id="path55" d="m 23,31.5 22,0 0,14 -22,0 z" fill="url(#1)"/><g id="g57" stroke="#fff" fill="none"><path id="path59" opacity="0.4" d="m 23.4375,14.9375 0,13.125 21.125,0 0,-13.125 -21.125,0 z"/><path id="path61" opacity="0.4" d="m 23.5312,32.0312 0,12.9375 20.9375,0 0,-12.9375 -20.9375,0 z"/></g></g><g id="g63" fill-rule="evenodd"><path id="path65" opacity="0.237" d="m 32.3089,14 c -0.681179,0.04271 -1.19643,0.156096 -1.19878,0.538227 l 0,20.4037 c -1.14543,-0.42271 -2.45938,-0.660549 -3.84098,-0.660549 -4.57673,0 -8.26911,2.61182 -8.26911,5.84709 0,3.23528 3.69238,5.87156 8.26911,5.87156 4.37118,0 7.95629,-2.39765 8.26911,-5.43119 l 0.0245,0 0,-14.2141 c 0.06952,-0.04133 0.123892,-0.0762 0.195722,-0.12233 3.30681,0.772726 6.49873,1.87563 6.80123,10.5688 7.87757,-7.21991 -1.9696,-15.0427 -10.2508,-22.8012 z" fill="#fff"/><path id="path67" d="m 48,43.2725 a 24,1.5 0 0 1 -48,0 24,1.5 0 1 1 48,0 z" fill="url(#8)"/><path id="path69" d="m 33.2984,14.9839 c -0.681179,0.04271 -1.19643,0.156096 -1.19878,0.538227 l 0,20.4037 c -1.14543,-0.42271 -2.45938,-0.660549 -3.84098,-0.660549 -4.57673,0 -8.26911,2.61182 -8.26911,5.84709 0,3.23528 3.69238,5.87156 8.26911,5.87156 4.37118,0 7.95629,-2.39765 8.26911,-5.43119 l 0.0245,0 0,-14.2141 c 0.06952,-0.04133 0.123892,-0.0762 0.195722,-0.12233 3.30681,0.772726 6.49873,1.87563 6.80123,10.5688 7.87757,-7.21991 -1.9696,-15.0427 -10.2508,-22.8012 z" fill="url(#2)"/></g><g id="g71" fill="none"><path id="path73" opacity="0.863" d="m 33.5829,17.2752 c -0.0093,6.24906 0.01859,12.5017 -0.01393,18.7485 0.444823,1.3864 -0.949311,1.66489 -2.17097,1.217 -2.96268,-0.955623 -6.5828,-0.599627 -8.91452,1.60486 -1.32001,1.16869 -1.28537,3.3542 9.27e-4,4.53358 2.31468,2.22897 5.94538,2.57117 8.90783,1.61711 1.64085,-0.559224 3.40859,-1.74463 3.65941,-3.59609 0.09572,-0.231243 -0.0058,-0.81033 0.03125,-1.1609 0,-4.30053 0,-8.60107 0,-12.9016 0.402093,-1.49627 0.893793,-1.57039 2.12941,-1.52473 2.49434,0.496991 5.09162,1.77194 6.14742,4.22807 0.575093,1.24013 0.888547,2.58187 1.12942,3.92166 1.12629,-2.20354 -0.02492,-4.70088 -1.25,-6.59375 -2.64245,-3.85726 -6.28741,-6.90167 -9.65624,-10.0937 z" stroke="url(#3)"/><path id="path75" opacity="0.6" d="m 33.1454,15.5252 c -0.89908,-0.109928 -0.405575,0.961584 -0.53125,1.50282 -0.0076,6.31522 0.01519,12.6411 -0.01136,18.9497 -0.125045,0.09533 0.06848,0.267928 0.06904,0.480188 -0.08268,0.146846 -0.651007,-0.249688 -0.713928,-0.120178 -1.1087,-0.165662 -2.59545,-0.647395 -3.8922,-0.529553 -2.84722,0.03504 -6.13571,1.16288 -7.31109,3.98548 -0.90641,2.33161 0.913292,4.7018 2.975,5.64132 3.49846,1.7008 8.16046,1.35954 11.0204,-1.41351 0.693117,-0.667452 1.17842,-1.75964 1.27044,-2.58998 0,-4.69792 0,-9.39583 0,-14.0938 0.07485,-0.586991 0.793867,-0.728965 1.78908,-0.385189 2.31334,0.53065 4.34141,2.19247 5.11876,4.46364 0.640175,1.64863 0.895539,3.41691 1.02966,5.17155 1.65415,-1.66681 2.45455,-4.18972 1.6728,-6.45659 -1.23223,-3.78473 -4.1981,-6.64399 -6.92257,-9.40802 -1.82183,-1.76253 -3.68757,-3.5125 -5.56273,-5.19789 z" stroke="#000"/><path id="path77" opacity="0.863" d="m 33.5829,17.2752 c -0.0093,6.24906 0.01859,12.5017 -0.01393,18.7485 0.444823,1.3864 -0.949311,1.66489 -2.17097,1.217 -2.96268,-0.955623 -6.5828,-0.599627 -8.91452,1.60486 -1.32001,1.16869 -1.28537,3.3542 9.27e-4,4.53358 2.31468,2.22897 5.94538,2.57117 8.90783,1.61711 1.64085,-0.559224 3.40859,-1.74463 3.65941,-3.59609 0.09572,-0.231243 -0.0058,-0.81033 0.03125,-1.1609 0,-4.30053 0,-8.60107 0,-12.9016 0.402093,-1.49627 0.893793,-1.57039 2.12941,-1.52473 2.49434,0.496991 5.09162,1.77194 6.14742,4.22807 0.575093,1.24013 0.888547,2.58187 1.12942,3.92166 1.12629,-2.20354 -0.02492,-4.70088 -1.25,-6.59375 -2.64245,-3.85726 -6.28741,-6.90167 -9.65624,-10.0937 z" stroke="url(#7)"/></g><metadata id="metadata9999"><rdf:RDF><cc:Work><dc:format>image/svg+xml</dc:format><dc:type rdf:resource="http://purl.org/dc/dcmitype/StillImage"/><dc:title>Ivy icon theme</dc:title><cc:license rdf:resource="http://creativecommons.org/licenses/by-sa/4.0/"/><dc:creator><cc:Agent><dc:title>Sixsixfive (sixsixfive.deviantart.com)</dc:title></cc:Agent></dc:creator><dc:publisher><cc:Agent><dc:title>Sixsixfive (sixsixfive.deviantart.com)</dc:title></cc:Agent></dc:publisher><dc:source>https://github.com/sixsixfive</dc:source><dc:subject><rdf:Bag><rdf:li>ivy</rdf:li></rdf:Bag></dc:subject><dc:contributor><cc:Agent><dc:title>ssf</dc:title></cc:Agent></dc:contributor><dc:rights><cc:Agent><dc:title>Sixsixfive (sixisixfive.deviantart.com)</dc:title></cc:Agent></dc:rights><dc:description>A simple icon theme published under CC-BY-SA_V4(http://creativecommons.org/licenses/by-sa/4.0)</dc:description><dc:identifier>SSF</dc:identifier></cc:Work></rdf:RDF></metadata><!--Part of the Ivy icon them published under the CC-BY-SA_V4: http://creativecommons.org/licenses/by-sa/4.0 -->
</svg>