<?xml version="1.0" encoding="UTF-8" standalone="no"?>
<svg xmlns:dc="http://purl.org/dc/elements/1.1/" xmlns:cc="http://creativecommons.org/ns#" xmlns:rdf="http://www.w3.org/1999/02/22-rdf-syntax-ns#" xmlns:svg="http://www.w3.org/2000/svg" xmlns="http://www.w3.org/2000/svg" xmlns:xlink="http://www.w3.org/1999/xlink" viewBox="0 0 22 22" id="svg2" version="1.1">
 <defs id="defs4">
  <linearGradient id="0" xlink:href="#5" y1="11" y2="17" x2="0" gradientUnits="userSpaceOnUse" gradientTransform="matrix(0.42857 0 0 0.5 12.571 6.5)"/>
  <linearGradient id="1" xlink:href="#5" y1="11" y2="17" x2="0" gradientUnits="userSpaceOnUse" gradientTransform="matrix(0.42857 0 0 0.5 8.571 -1.5)"/>
  <linearGradient id="2" y1="2" y2="19" x2="0" gradientUnits="userSpaceOnUse">
   <stop stop-color="#fff" id="stop9"/>
   <stop offset="1" stop-color="#fff" stop-opacity="0" id="stop11"/>
  </linearGradient>
  <linearGradient id="3" xlink:href="#5" y1="11" y2="17" x2="0" gradientUnits="userSpaceOnUse" gradientTransform="matrix(0.42857 0 0 0.5 4.571 3.5)"/>
  <linearGradient id="4" y1="43" y2="5" x2="0" gradientUnits="userSpaceOnUse" gradientTransform="matrix(0.525 0 0 0.49965 -1.1 -1.485)">
   <stop stop-color="#f0f0f0" id="stop15"/>
   <stop offset="1" stop-color="#ebebeb" id="stop17"/>
  </linearGradient>
  <linearGradient id="5">
   <stop stop-color="#6a6a6a" id="stop20"/>
   <stop offset="1" stop-color="#979797" id="stop22"/>
  </linearGradient>
  <linearGradient id="6" xlink:href="#5" y1="11" y2="17" x2="0" gradientUnits="userSpaceOnUse" gradientTransform="matrix(0.42857 0 0 0.5 0.571 -0.5)"/>
 </defs>
 <path opacity="0.1" d="M 1,2.01 H22 V20.997 H1 z" id="path25"/>
 <path fill="url(#4)" d="M 1,1.013 H22 V20 H1 z" id="path27"/>
 <g id="g29" fill="#fff">
  <path d="M 5.538,4 7,4 7,17 5.538,17 Z" id="path31" opacity="0.791"/>
  <path d="M 9.538,4 11,4 11,17 9.538,17 Z" id="path33" opacity="0.791"/>
 </g>
 <path opacity="0.15" d="M 8,10.08 H11 V13.001 H8 z" id="path35"/>
 <path opacity="0.791" fill="#fff" d="M 13.538,4 H15 V17 H13.538 z" id="path37"/>
 <path opacity="0.5" fill="#6a6a6a" d="M 5,4 H6 V17 H5 z" id="path39"/>
 <path opacity="0.791" fill="#fff" d="M 18,4 H19 V17 H18 z" id="path41"/>
 <g id="g43" fill="#6a6a6a">
  <path d="m 9,4 1,0 0,13 -1,0 z" id="path45" opacity="0.5"/>
  <path d="m 13,4 1,0 0,13 -1,0 z" id="path47" opacity="0.5"/>
  <path d="m 17,4 1,0 0,13 -1,0 z" id="path49" opacity="0.5"/>
 </g>
 <path opacity="0.15" d="M 4,6 H7 V9 H4 z" id="path51"/>
 <path fill="url(#6)" d="M 4,5 H7 V8 H4 z" id="path53"/>
 <path opacity="0.15" d="M 12,5.079 H15 V8 H12 z" id="path55"/>
 <path opacity="0.15" d="M 16,13.206 H19 V16 H16 z" id="path57"/>
 <path fill="url(#3)" d="M 8,9 H11 V12 H8 z" id="path59"/>
 <path fill="url(#1)" d="M 12,4 H15 V7 H12 z" id="path61"/>
 <path fill="url(#0)" d="M 16,12 H19 V15 H16 z" id="path63"/>
 <g id="g65" fill="none">
  <path d="m 1.5312,1.5312 0,17.9375 19.9375,0 0,-17.9375 -19.9375,0 z" id="path67" opacity="0.4" stroke="#000"/>
  <path d="m 2.5,2.5 0,16 18,0 0,-16 -18,0 z" id="path69" opacity="0.4" stroke="url(#2)"/>
  <g id="g71" stroke="#000">
   <path d="m 4.5,5.5 0,2 2,0 0,-2 -2,0 z" id="path73" opacity="0.2"/>
   <path d="m 12.5,4.5 0,2 2,0 0,-2 -2,0 z" id="path75" opacity="0.2"/>
   <path d="m 8.5,9.5 0,2 2,0 0,-2 -2,0 z" id="path77" opacity="0.2"/>
   <path d="m 16.5,12.5 0,2 2,0 0,-2 -2,0 z" id="path79" opacity="0.2"/>
  </g>
 </g>
 <metadata id="metadata9999">
  <rdf:RDF>
   <cc:Work>
    <dc:format>image/svg+xml</dc:format>
    <dc:type rdf:resource="http://purl.org/dc/dcmitype/StillImage"/>
    <dc:title>Ivy icon theme</dc:title>
    <cc:license rdf:resource="http://creativecommons.org/licenses/by-sa/4.0/"/>
    <dc:creator>
     <cc:Agent>
      <dc:title>Sixsixfive (sixsixfive.deviantart.com)</dc:title>
     </cc:Agent>
    </dc:creator>
    <dc:publisher>
     <cc:Agent>
      <dc:title>Sixsixfive (sixsixfive.deviantart.com)</dc:title>
     </cc:Agent>
    </dc:publisher>
    <dc:source>https://github.com/sixsixfive</dc:source>
    <dc:subject>
     <rdf:Bag>
      <rdf:li>ivy</rdf:li>
     </rdf:Bag>
    </dc:subject>
    <dc:contributor>
     <cc:Agent>
      <dc:title>ssf</dc:title>
     </cc:Agent>
    </dc:contributor>
    <dc:rights>
     <cc:Agent>
      <dc:title>Sixsixfive (sixisixfive.deviantart.com)</dc:title>
     </cc:Agent>
    </dc:rights>
    <dc:description>A simple icon theme published under CC-BY-SA_V4(http://creativecommons.org/licenses/by-sa/4.0)</dc:description>
    <dc:identifier>SSF</dc:identifier>
   </cc:Work>
  </rdf:RDF>
 </metadata>
 <!--Part of the Ivy icon them published under the CC-BY-SA_V4: http://creativecommons.org/licenses/by-sa/4.0 -->
</svg>
