<?xml version="1.0" encoding="UTF-8" standalone="no"?><svg xmlns:cc="http://creativecommons.org/ns#" xmlns:rdf="http://www.w3.org/1999/02/22-rdf-syntax-ns#" xmlns:svg="http://www.w3.org/2000/svg" id="svg9999" viewBox="0 0 48 48" version="1.1" xmlns:xlink="http://www.w3.org/1999/xlink" xmlns:dc="http://purl.org/dc/elements/1.1/" xmlns="http://www.w3.org/2000/svg"><defs id="defs7"><linearGradient id="linearGradient4210"><stop id="stop4212" stop-color="#fff" stop-opacity="1"/><stop offset="1" id="stop4214" stop-color="#fff" stop-opacity="0"/></linearGradient><linearGradient id="linearGradient4200"><stop id="stop4202" stop-color="#eed45a" stop-opacity="1"/><stop offset="1" id="stop4204" stop-color="#e4ae4e" stop-opacity="1"/></linearGradient><linearGradient id="linearGradient4192"><stop id="stop4194" stop-color="#fff" stop-opacity="1"/><stop offset="1" id="stop4196" stop-color="#fff" stop-opacity="0"/></linearGradient><linearGradient id="linearGradient4198" x2="45" y2="46" x1="44" xlink:href="#linearGradient4192" y1="2" gradientUnits="userSpaceOnUse"/><linearGradient id="linearGradient4206" x2="46" y2="1" x1="47" xlink:href="#linearGradient4200" y1="94" gradientUnits="userSpaceOnUse"/><linearGradient id="linearGradient4216" x2="40" y2="4" x1="40" xlink:href="#linearGradient4210" y1="15" gradientUnits="userSpaceOnUse"/></defs><title id="title9999">Ivy icon theme</title><metadata id="metadata9999"><rdf:RDF><cc:Work><dc:format>image/svg+xml</dc:format><dc:type rdf:resource="http://purl.org/dc/dcmitype/StillImage"/><dc:title>Ivy icon theme</dc:title><cc:license rdf:resource="http://creativecommons.org/licenses/by-sa/4.0/"/><dc:creator><cc:Agent><dc:title>Sixsixfive (sixisixfive.deviantart.com)</dc:title></cc:Agent></dc:creator><dc:publisher><cc:Agent><dc:title>Sixsixfive (sixisixfive.deviantart.com)</dc:title></cc:Agent></dc:publisher><dc:source>https://github.com/sixsixfive</dc:source><dc:subject><rdf:Bag><rdf:li>ivy</rdf:li></rdf:Bag></dc:subject><dc:contributor><cc:Agent><dc:title>ssf</dc:title></cc:Agent></dc:contributor><dc:rights><cc:Agent><dc:title>Sixsixfive (sixisixfive.deviantart.com)</dc:title></cc:Agent></dc:rights><dc:description>A simple icon theme published under CC-BY-SA(http://creativecommons.org/licenses/by-sa/4.0/)</dc:description><dc:identifier>SSF</dc:identifier></cc:Work></rdf:RDF></metadata><path stroke-linecap="butt" fill-opacity="1" id="path4222" opacity="0.1" d="M 29,1.9766588 A 1.0114586,1.0114586 0 0 0 28.259766,2.3008775 L 2.2597656,30.300878 a 1.0114586,1.0114586 0 0 0 0.087891,1.460938 l 18.9999998,16 a 1.0114586,1.0114586 0 0 0 1.408203,-0.101563 l 24,-27 a 1.0114586,1.0114586 0 0 0 0.25586,-0.671875 l 0,-11.0000005 A 1.0114586,1.0114586 0 0 0 46.714844,8.2735337 l -6,-6 A 1.0114586,1.0114586 0 0 0 40,1.9766588 l -11,0 z m 9.5,5.0117187 a 3.5,3.5 0 0 1 3.5,3.5000005 3.5,3.5 0 0 1 -3.5,3.5 3.5,3.5 0 0 1 -3.5,-3.5 3.5,3.5 0 0 1 3.5,-3.5000005 z" stroke-width="1" stroke="none" stroke-linejoin="miter" fill-rule="evenodd" stroke-opacity="1" fill="#000"/><path stroke-linecap="butt" fill-opacity="1" id="path4151" d="M 29 0.98828125 A 1.0114586 1.0114586 0 0 0 28.259766 1.3125 L 2.2597656 29.3125 A 1.0114586 1.0114586 0 0 0 2.3476562 30.773438 L 21.347656 46.773438 A 1.0114586 1.0114586 0 0 0 22.755859 46.671875 L 46.755859 19.671875 A 1.0114586 1.0114586 0 0 0 47.011719 19 L 47.011719 8 A 1.0114586 1.0114586 0 0 0 46.714844 7.2851562 L 40.714844 1.2851562 A 1.0114586 1.0114586 0 0 0 40 0.98828125 L 29 0.98828125 z M 38.5 6 A 3.5 3.5 0 0 1 42 9.5 A 3.5 3.5 0 0 1 38.5 13 A 3.5 3.5 0 0 1 35 9.5 A 3.5 3.5 0 0 1 38.5 6 z " stroke-width="1" stroke="none" stroke-linejoin="miter" fill-rule="evenodd" stroke-opacity="1" fill="url(#linearGradient4206)"/><path stroke-linecap="butt" id="path4149" opacity="0.4" d="M 27.189453 9.703125 L 27.166016 9.7285156 A 1.3053794 1.3053794 0 0 0 26.453125 10.140625 L 19.056641 18.460938 L 9.5976562 28.648438 A 1.3053794 1.3053794 0 0 0 9.2519531 29.492188 L 9.25 29.494141 A 1.4148428 1.4148428 0 0 1 9.2519531 29.496094 A 1.3053794 1.3053794 0 0 0 9.7148438 30.535156 L 20.634766 39.730469 A 1.3053794 1.3053794 0 0 0 21.699219 40.015625 A 1.4148428 1.4148428 0 0 1 21.712891 40.037109 L 21.738281 40.009766 A 1.3053794 1.3053794 0 0 0 22.449219 39.599609 L 29.845703 31.279297 L 39.304688 21.091797 A 1.3053794 1.3053794 0 0 0 39.650391 20.248047 L 39.652344 20.246094 A 1.4148428 1.4148428 0 0 1 39.650391 20.244141 A 1.3053794 1.3053794 0 0 0 39.1875 19.205078 L 28.267578 10.009766 A 1.3053794 1.3053794 0 0 0 27.201172 9.7226562 A 1.4148428 1.4148428 0 0 1 27.189453 9.703125 z " stroke-width="1" stroke="none" stroke-linejoin="miter" fill-rule="evenodd" stroke-opacity="1" fill="#000"/><path stroke-linecap="butt" id="path4172" opacity="0.4" d="m 38.5,5.421875 c -1.06762,0 -2.127891,0.4403913 -2.882812,1.1953125 C 34.862266,7.3721087 34.421875,8.4323802 34.421875,9.5 c 0,1.06762 0.440391,2.127891 1.195313,2.882812 0.754921,0.754922 1.815192,1.195313 2.882812,1.195313 1.06762,0 2.127891,-0.440391 2.882812,-1.195313 0.754922,-0.754921 1.195313,-1.815192 1.195313,-2.882812 0,-1.0676198 -0.440391,-2.1278913 -1.195313,-2.8828125 C 40.627891,5.8622663 39.56762,5.421875 38.5,5.421875 Z" stroke-width="1" stroke="#000" stroke-linejoin="miter" fill-rule="evenodd" stroke-opacity="1" fill="none"/><path stroke-linecap="butt" id="path4176" d="m 27.380906,10.773438 c -1.74263,1.800098 -3.358247,3.754432 -5.051879,5.614029 -3.888547,4.414725 -7.96739,8.65656 -11.948121,12.987533 -0.06136,0.609114 0.843527,0.884793 1.201104,1.335569 l 9.738349,8.20154 c 0.566389,0.122266 0.805908,-0.747654 1.227103,-1.030333 3.69833,-4.176185 7.395867,-8.353089 11.229359,-12.406476 1.581594,-1.703332 3.162993,-3.406852 4.74471,-5.110066 0.06137,-0.609113 -0.843515,-0.884806 -1.201087,-1.335588 l -9.740319,-8.203474 -0.193359,-0.05273 -0.0059,0 z" stroke-width="1" stroke="none" stroke-linejoin="miter" fill-rule="evenodd" stroke-opacity="1" fill="#fff"/><path stroke-linecap="butt" id="path4184" opacity="0.4" d="m 29,1.4980469 c -0.137416,2.571e-4 -0.271867,0.059331 -0.365234,0.1601562 a 0.50993511,0.50993511 0 0 1 -0.002,0.00195 L 2.6328125,29.660156 C 2.449306,29.857623 2.4711526,30.2076 2.6757812,30.382812 l 18.9999998,16 c 0.197484,0.166511 0.527673,0.144298 0.699219,-0.04883 l 24,-27 a 0.50993511,0.50993511 0 0 1 0,-0.002 C 46.455768,19.24127 46.50189,19.121495 46.501953,19 l 0,-11 C 46.501824,7.8687057 46.448389,7.7392422 46.355469,7.6464844 a 0.50993511,0.50993511 0 0 1 -0.002,0 l -6,-6 a 0.50993511,0.50993511 0 0 1 0,-0.00195 C 40.260758,1.5516109 40.131294,1.4981755 40,1.4980469 l -11,0 z" stroke-width="1" stroke="#000" stroke-linejoin="miter" fill-rule="evenodd" stroke-opacity="1" fill="none"/><path stroke-linecap="butt" id="path4188" opacity="0.4" d="M 29.216797,2.4882812 3.7089844,29.957031 21.951172,45.320312 45.511719,18.814453 l 0,-10.6074218 -5.71875,-5.71875 z" stroke-width="1" stroke="url(#linearGradient4198)" stroke-linejoin="miter" fill-rule="evenodd" stroke-opacity="1" fill="none"/><path stroke-linecap="butt" id="path4208" opacity="0.4" d="m 38.5,4.4179688 c -2.661246,0 -5.082031,2.4207848 -5.082031,5.0820312 0,2.661246 2.420785,5.082031 5.082031,5.082031 2.661246,0 5.082031,-2.420785 5.082031,-5.082031 0,-2.6612464 -2.420785,-5.0820313 -5.082031,-5.0820312 z" stroke-width="1" stroke="url(#linearGradient4216)" stroke-linejoin="miter" fill-rule="evenodd" stroke-opacity="1" fill="none"/><path stroke-linecap="round" stroke-miterlimit="4" stroke-dasharray="none" id="path4218" opacity="0.6" d="M 16,29 27,17" stroke-width="3" stroke="#000" stroke-linejoin="miter" fill-rule="evenodd" stroke-opacity="1" fill="none"/><path stroke-linecap="round" stroke-miterlimit="4" stroke-dasharray="none" id="path4220" opacity="0.6" d="m 21,33 7,-8" stroke-width="3" stroke="#000" stroke-linejoin="round" fill-rule="evenodd" stroke-opacity="1" fill="none"/></svg>