<?xml version="1.0" encoding="UTF-8" standalone="no"?><svg xmlns:cc="http://creativecommons.org/ns#" xmlns:dc="http://purl.org/dc/elements/1.1/" xmlns="http://www.w3.org/2000/svg" xmlns:svg="http://www.w3.org/2000/svg" xmlns:rdf="http://www.w3.org/1999/02/22-rdf-syntax-ns#" id="svg2" version="1.1" viewBox="0 0 22 22" xmlns:xlink="http://www.w3.org/1999/xlink"><defs id="0"><linearGradient id="linearGradient4180"><stop id="stop4182" stop-color="#fff"/><stop stop-opacity="0" id="stop4184" stop-color="#fff" offset="1"/></linearGradient><linearGradient id="linearGradient4334"><stop id="stop4336" stop-color="#eee"/><stop id="stop4338" stop-color="#fff" offset="1"/></linearGradient><linearGradient gradientTransform="matrix(0.49973464 0 0 0.49973464 -1.0002143 -0.99904466)" gradientUnits="userSpaceOnUse" y1="4.191484" xlink:href="#linearGradient4334" x1="44.09846" id="linearGradient4340" y2="42.23663" x2="43.917587"/><linearGradient gradientUnits="userSpaceOnUse" y1="1010.495" xlink:href="#linearGradient4180" id="linearGradient4186" y2="1046.2233" x2="0"/></defs><path opacity="0.1" d="m 20.991109,12.005307 a 9.9946932,9.9946932 0 0 1 -19.9893864,0 9.9946932,9.9946932 0 1 1 19.9893864,0 z" id="path4188"/><path d="m 20.991109,10.995685 a 9.9946932,9.9946932 0 0 1 -19.9893864,0 9.9946932,9.9946932 0 1 1 19.9893864,0 z" id="6" fill="#5288d1"/><path opacity="0.1" d="M 11.288183,1.0047738 A 9.9946928,9.9946928 0 0 0 1.0036045,10.956521 c 0.8423514,0.0075 1.5780048,0.04229 1.8427715,0.906745 1.3439366,0.599331 -0.1102109,3.240822 1.4992041,4.352181 0.7037507,0.564756 0.4320666,1.55627 0.2869566,2.47232 a 9.9946928,9.9946928 0 0 0 3.4512924,1.856436 C 8.972856,19.759971 9.7215499,18.353508 10.271144,17.64828 11.799726,16.625373 12.245745,14.523188 12.207617,12.821741 10.72986,12.605206 9.7482118,11.905344 8.8197668,10.926263 7.6933404,10.261367 6.5421785,9.268918 5.1000619,9.9424105 5.1315397,8.9813216 5.24137,8.0735345 5.8594242,7.1196908 5.8958652,5.5256882 7.9287943,6.5821777 8.3161277,5.1061117 8.9795989,4.5618505 8.6855336,3.0512668 9.6376915,3.131574 10.606684,2.8017676 11.145912,1.8926667 11.78987,1.0447922 A 9.9946928,9.9946928 0 0 0 11.288183,1.0047771 Z M 14.27195,1.555263 c 0.06922,0.2375448 0.134552,0.4848611 0.173736,0.7427699 0.508844,1.4271419 -0.171892,1.6257662 -0.428483,3.0950362 0.713124,1.5971516 -1.443348,2.4126258 -1.059984,4.1433068 0.105892,1.2888161 0.969781,3.8063761 2.59042,3.4961911 2.263077,-0.897074 1.53671,1.755144 1.755904,3.093084 0.279978,0.58431 0.617482,1.244059 0.982877,1.689533 A 9.9946928,9.9946928 0 0 0 20.991038,10.995562 9.9946928,9.9946928 0 0 0 14.27195,1.555263 Z" id="path4346"/><path d="M 10.391198,1.0242951 C 9.6917513,1.0650298 8.9985274,1.1792092 8.32296,1.364935 l 0.1522632,0.1883763 c 0.070271,0.080859 0.2258411,0.2532303 0.3464956,0.3845605 L 9.0413286,2.177003 9.3839202,2.1506497 C 9.5751512,2.1381546 9.7237772,2.1096424 9.7196794,2.0833 9.7158851,2.0598143 9.7005496,1.9723491 9.6855172,1.8900434 9.6593417,1.7473693 9.6734189,1.7252902 10.004684,1.3961653 Z M 7.0033482,1.8461238 c -3.3037571,1.4394637 -5.5767818,4.545993 -5.9489894,8.130449 0.1690874,0.018612 0.6343728,0.023736 0.9467629,0.00785 l 0.6051475,-0.031238 0.2322984,0.1893518 c 0.1273686,0.103146 0.3707787,0.23329 0.4593586,0.288909 0.1553638,0.09495 0.160807,0.107343 0.1610473,0.341616 l 9.745e-4,0.24401 0.3556384,0.203995 c 0.3030261,0.145471 0.2256163,0.204968 0.3607716,0.204968 0.3079468,0 0.3386885,0.05057 0.3386871,0.529017 2.5e-6,0.228278 -0.017336,0.413842 -0.038065,0.413842 -0.020734,0 -0.1270205,0.109905 -0.236203,0.243035 l -0.2148839,0.190841 0,0.488022 0,0.49095 0.4543797,0.425043 c 0.1026524,0.20689 0.2524354,0.564201 0.3328307,0.797428 l 0.1464068,0.422628 0.3933461,0.306477 c 0.2164227,0.17006 0.6090642,0.326866 0.6468641,0.352352 0.062376,0.03898 0.055441,0.451971 -0.076131,1.868668 -0.063109,0.679048 -0.336171,1.096114 -0.3804041,1.402057 0.4527811,0.297806 0.9290342,0.558292 1.4240483,0.778882 l 0.328927,-0.363088 c 0.1639089,-0.180804 0.6757752,-0.734128 1.1370917,-1.229815 l 0.8384223,-0.901866 0.00195,-0.266459 0.00195,-0.26646 0.5739142,-0.391394 c 0.6376474,-0.435219 0.6177284,-0.407707 0.7222734,-1.029726 0.04819,-0.287048 0.08622,-0.368702 0.345519,-0.74765 l 0.609058,-0.44328 0,-0.480213 0,-0.480214 -0.801338,-0.137467 C 10.459276,13.313304 10.029265,13.182659 9.7694505,13.106748 9.5096235,13.031839 9.270344,12.959287 9.2375065,12.941797 9.2046389,12.925306 9.0643983,12.710454 8.9261483,12.463535 8.7879012,12.216766 8.6582645,11.988615 8.6382152,11.950135 8.6181661,11.914154 8.3989782,11.826866 8.1511692,11.755904 L 7.7012127,11.626089 7.3215319,11.219079 C 7.1130105,11.064562 7.0675561,10.746977 6.9418504,10.509643 l -0.4337777,0.0052 c -0.7177563,-0.02002 -0.7328479,0.213613 -1.1903528,0.424076 l -0.423603,0.194233 -0.3972502,-0.123958 -0.4967572,-0.157452 0,-0.423603 0,-0.422627 -0.2177071,-0.020193 C 3.6073743,9.9528712 3.4470302,9.9391548 3.4261463,9.9531437 3.3759813,9.9846216 3.2631469,9.8879311 3.2631469,9.8155212 c 0,-0.032481 0.1518348,-0.2180835 0.2146803,-0.3508639 0.01957,-0.4690131 0.014586,-0.467937 -0.3679193,-0.467937 -0.2556177,0 -0.2615104,0.2009806 -0.331855,0.3503013 C 2.6711569,9.5673544 2.4851805,9.5535334 2.1494804,9.2982184 L 1.8937569,9.1039881 1.8800921,8.5417866 c -0.00721,-0.3078362 -0.00301,-0.5734918 0.00879,-0.5914823 0.011809,-0.015995 0.086162,-0.073848 0.1649514,-0.1298136 0.13467,-0.097246 0.1616963,-0.1010845 0.4509324,-0.05661 0.2923236,0.040484 0.3140692,0.037965 0.4460522,-0.059543 0.1259533,-0.091501 0.1740923,-0.1037449 0.5143754,-0.091751 0.3263083,0.010031 0.3813743,0.02402 0.4196989,0.098577 0.1432109,0.2815014 0.1222885,0.8646765 0.1605282,0.8646765 0.024616,0 0.3891234,-0.030475 0.4419998,-0.075156 L 4.550553,8.2265144 4.4666128,7.7355638 4.3816968,7.2446132 4.7867551,6.808322 5.1908376,6.3710538 5.2045005,6.0967856 c 0.012468,-0.2647594 0.01811,-0.2791932 0.1522626,-0.3377112 0.1372388,-0.05902 0.1395765,-0.06422 0.1395765,-0.3455202 0,-0.3407685 0.036915,-0.3887713 0.4109149,-0.5173027 L 6.1620016,4.8084036 6.2908397,4.960666 c 0.1265449,0.1522188 0.1345355,0.1522635 0.4528846,0.1522635 0.3185883,0 0.3268289,-9.8e-6 0.4831419,-0.1620241 0.087467,-0.0898 0.159095,-0.1828397 0.159095,-0.2108252 0,-0.023987 -0.083334,-0.1140093 -0.1854485,-0.1991128 C 7.0401224,4.4127849 6.972904,4.3888838 6.7066345,4.3603989 6.488976,4.3389085 6.3982032,4.3159244 6.3982048,4.2705993 c 0,-0.043482 0.078659,-0.059543 0.3250224,-0.059543 l 0.3240469,0 0.2235138,-0.2078976 C 7.4558585,3.8306729 7.5377959,3.790576 7.7558781,3.7416017 8.1387334,3.6616947 8.1379483,3.6630314 7.9940331,3.3589928 7.8312732,3.0154756 7.8083643,2.989794 7.4962506,2.8153357 7.2490223,2.6765596 7.2261185,2.6503317 7.1331624,2.3985657 7.030378,2.118714 6.9722559,1.9631042 7.0062761,1.8880939 c -5.497e-4,-0.00502 -0.00294,-0.080019 -0.00294,-0.00785 -0.0012,-0.01135 -2.747e-4,-0.022722 0,-0.03416 z m 8.4086208,0.1952094 0.148359,0.558297 0.171784,0.5143753 -0.0859,0.3338067 c -0.04705,0.1840532 -0.0425,0.039862 -0.03092,0.052859 0.03799,0.035981 1.074943,0.023933 1.099026,-0.018546 0.01296,-0.020989 0.01109,0.1118733 0.03678,-0.074328 0.02206,-0.159391 0.08484,-0.4014312 0.11127,-0.5036387 -0.458278,-0.3279833 -0.943475,-0.6166199 -1.450403,-0.862823 z m 2.029196,1.3283961 -0.377729,0.3552797 -0.336735,0.3094063 -0.463621,-0.00589 c -0.254978,-0.00502 -0.473225,0.00512 -0.485093,0.017565 -0.0118,0.010991 0.105925,0.1218553 0.261579,0.2469391 l 0.283053,0.2244891 -0.01269,0.2635328 -0.01269,0.2635317 -0.596363,0.03416 c -0.328315,0.014992 -0.607595,0.041018 -0.619788,0.054658 -0.01221,0.011492 -0.04554,0.1901569 -0.07418,0.3952981 l -0.05173,0.3767527 0.284029,0.2684131 c 0.242221,0.22538 0.308089,0.2689877 0.442149,0.2693879 0.08664,0 0.187904,0.012342 0.22449,0.027335 0.0491,0.018492 0.143986,-0.094412 0.358208,-0.4284834 l 0.274114,-0.5356443 0.21473,-0.014643 0.214729,-0.013662 0.03822,-0.1309934 0.02147,-0.3644799 0.460693,0.014643 0.460693,0.015613 0.591483,0.4747712 c 0.752784,0.4139798 1.072729,0.6415393 1.193703,0.8462302 0.0098,-0.00229 0.04024,-0.021196 0.0693,-0.039045 C 19.207989,5.1791856 18.406466,4.1865578 17.441162,3.3696912 Z M 16.802011,6.0053015 16.433888,6.461838 c -0.34538,0.2694554 -0.357914,0.2740021 -0.73789,0.3269736 -0.288453,0.040473 -0.42465,0.082244 -0.536824,0.163 -0.225849,0.1635626 -0.257675,0.2212029 -0.257675,0.4655732 l 0,0.2235133 -0.225467,0.1288388 C 14.486042,7.877527 14.41172,7.959003 14.203626,8.2958245 l -0.230191,0.3824551 0,0.8403741 9.99e-4,0.8403743 0.26045,0.322248 c 0.207119,0.229128 0.342343,0.439181 0.5378,0.83647 l 0.26158,0.530968 0.478262,-0.01464 0.478237,-0.0166 0.299646,-0.209849 c 0.276373,-0.191598 0.318803,-0.20985 0.551465,-0.20985 0.201005,0 0.257827,0.01496 0.280125,0.07419 0.01537,0.04097 0.09273,0.172952 0.171784,0.293788 l 0.144454,0.218634 0.234251,-0.02148 c 0.341165,-0.02898 0.369499,0.0075 0.360161,0.470453 -0.0072,0.354263 8.8e-5,0.388031 0.126885,0.585626 l 0.134694,0.208875 0,0.838421 c 0,0.713271 -0.01227,0.872709 -0.08198,1.075601 -0.04463,0.13093 -0.06643,0.254232 -0.04782,0.27622 0.01864,0.01999 0.190081,0.324813 0.381634,0.677375 l 0.348448,0.641261 0.06149,0.08394 c 0.08556,-0.108226 0.168865,-0.218223 0.249868,-0.329903 0.01924,-0.02704 0.03872,-0.05386 0.05759,-0.08101 0.713234,-1.05353 1.218765,-2.233545 1.489443,-3.47667 0.03535,-0.167303 0.06494,-0.333236 0.09175,-0.498759 0.01647,-0.09933 0.03143,-0.198892 0.0449,-0.298668 0.02547,-0.190655 0.04721,-0.380472 0.06247,-0.567083 0.02296,-0.25675 0.03599,-0.514293 0.03904,-0.772051 l 0,-9.99e-4 c -8.49e-4,-0.162096 -0.008,-0.324042 -0.01561,-0.48607 -0.01365,-0.309238 -0.04166,-0.617675 -0.08394,-0.924314 -0.159891,-1.096316 -0.500951,-2.1584186 -1.00923,-3.1428624 -0.149282,0.1069832 -0.196536,0.2916175 -0.258651,0.4177469 -0.0564,0.1802043 -0.126207,0.3345024 -0.155192,0.346496 -0.08192,0.031979 -1.394165,-0.3802101 -1.419168,-0.445076 -0.02042,-0.054026 0.0518,-0.5199937 0.115328,-0.685906 0.02412,-0.061571 -0.04332,-0.069301 -0.667615,-0.069301 l -0.694943,0 z" id="path4324" fill="url(#linearGradient4340)"/><g transform="matrix(0.49973464 0 0 0.49973464 -1.0002143 -502.91252)" id="9" fill="none"><path stroke="#000" stroke-width="2.00106" opacity="0.4" d="m 24.007812,1009.4434 c -2.474383,-0.02 -4.834572,0.44 -7,1.2929 a 0.5588015,0.5588015 0 0 1 -0.0039,0 c -0.0031,0 -0.0067,7e-4 -0.0098,0 a 0.5588015,0.5588015 0 0 1 -0.002,0 c -7.0107986,2.7678 -11.9687506,9.648 -11.9687505,17.6172 0,10.4323 8.4905295,18.916 18.9882815,18.916 10.497813,0 18.953125,-8.4813 18.953125,-18.916 0,-10.4346 -8.453967,-18.8285 -18.957032,-18.916 z" id="path4176"/><path stroke="url(#linearGradient4186)" stroke-width="2.00106" opacity="0.4" d="m 23.990234,1011.4961 c -2.211148,-0.018 -4.307393,0.3927 -6.234375,1.1523 -0.0025,10e-4 -0.0053,10e-4 -0.0078,0 a 2.6114567,2.6114567 0 0 1 -0.002,0 c -6.237567,2.4626 -10.6699222,8.589 -10.6699221,15.7071 0,9.3173 7.5450361,16.8633 16.9355471,16.8633 9.390726,0 16.90039,-7.5389 16.90039,-16.8633 0,-9.3243 -7.50523,-16.7848 -16.921875,-16.8633 z" id="path4178"/></g><metadata id="metadata9999"><rdf:RDF><cc:Work><dc:format>image/svg+xml</dc:format><dc:type rdf:resource="http://purl.org/dc/dcmitype/StillImage"/><dc:title>Ivy icon theme</dc:title><cc:license rdf:resource="http://creativecommons.org/licenses/by-sa/4.0/"/><dc:creator><cc:Agent><dc:title>Sixsixfive (sixsixfive.deviantart.com)</dc:title></cc:Agent></dc:creator><dc:publisher><cc:Agent><dc:title>Sixsixfive (sixsixfive.deviantart.com)</dc:title></cc:Agent></dc:publisher><dc:source>https://github.com/sixsixfive</dc:source><dc:subject><rdf:Bag><rdf:li>ivy</rdf:li></rdf:Bag></dc:subject><dc:contributor><cc:Agent><dc:title>ssf</dc:title></cc:Agent></dc:contributor><dc:rights><cc:Agent><dc:title>Sixsixfive (sixisixfive.deviantart.com)</dc:title></cc:Agent></dc:rights><dc:description>A simple icon theme published under CC-BY-SA_V4(http://creativecommons.org/licenses/by-sa/4.0)</dc:description><dc:identifier>SSF</dc:identifier></cc:Work></rdf:RDF></metadata><!--Part of the Ivy icon them published under the CC-BY-SA_V4: http://creativecommons.org/licenses/by-sa/4.0 -->
</svg>