<?xml version="1.0" encoding="UTF-8" standalone="no"?><svg xmlns:xlink="http://www.w3.org/1999/xlink" xmlns:cc="http://creativecommons.org/ns#" viewBox="0 0 22 22" version="1.1" id="svg2" xmlns:svg="http://www.w3.org/2000/svg" xmlns="http://www.w3.org/2000/svg" xmlns:rdf="http://www.w3.org/1999/02/22-rdf-syntax-ns#" xmlns:dc="http://purl.org/dc/elements/1.1/"><defs id="defs4"><linearGradient x2="0" gradientUnits="userSpaceOnUse" xlink:href="#0" y2="48.07" id="5" gradientTransform="matrix(1.09258 0 0 1 0 0)" y1="2.866"/><linearGradient x2="0" gradientUnits="userSpaceOnUse" xlink:href="#0" y2="48.07" id="4" gradientTransform="matrix(1.09247 0 0 1 -3.327 0)" y1="2.866"/><linearGradient x2="0" gradientUnits="userSpaceOnUse" xlink:href="#0" y2="48.07" id="6" gradientTransform="matrix(1.0087 0 0 1.001 -0.416 0.694)" y1="2.866"/><linearGradient x2="0" gradientUnits="userSpaceOnUse" xlink:href="#0" y2="48.07" id="3" gradientTransform="matrix(0.82445 0 0 1 2.66 0)" y1="2.866"/><linearGradient x2="0" gradientUnits="userSpaceOnUse" xlink:href="#0" y2="48.07" id="1" y1="2.866"/><linearGradient id="0"><stop stop-color="#66b03e" id="stop12"/><stop offset="1" stop-color="#96cf77" id="stop14"/></linearGradient><linearGradient x2="0" gradientUnits="userSpaceOnUse" xlink:href="#0" y2="48.07" id="2" gradientTransform="matrix(0.99747 0 0 0.95108 -0.627 2.347)" y1="2.866"/></defs><g fill="url(#1)" id="g17" transform="matrix(0.45861 0 0 0.46689 -0.005 -1.405)"><g fill-rule="evenodd" id="g19"><g fill="#000" id="g21"><path opacity="0.1" id="path23" d="M 32.855058,49.945042 C 31.799424,50.18436 30.687092,50.148187 29.580229,50.076057 24.69998,49.861386 19.804041,49.630719 14.928072,50.049967 11.600158,50.272813 7.7041547,49.607195 5.7079251,47.000943 4.5556461,45.443 4.0459383,43.4909 4.5899492,41.666416 4.6670072,40.31152 5.7062993,39.292053 6.73957,38.390796 c 1.2284258,-1.191261 2.829936,-1.956922 4.314702,-2.847641 2.812291,-1.941876 4.313426,-4.894831 6.580648,-7.260729 1.402933,-1.415842 3.691004,-2.11214 5.736398,-1.474571 1.80663,0.519791 3.213833,1.739409 4.162319,3.166302 2.251214,2.785345 4.725641,5.492721 7.745555,7.649751 2.034613,1.295681 3.545881,3.347855 3.917688,5.554808 0.284629,1.839568 -0.393195,3.837682 -2.059489,5.0222 -1.207559,0.937204 -2.730608,1.451811 -4.282304,1.744118 z"/><path opacity="0.1" id="path25" d="m 14.069946,5.3516218 0.524929,-0.1991 0.399448,0 0.399447,0 0,0.008 0,0.0119 0.13315,0.0199 0.133149,0.0199 0.05706,0.0199 q 0.05706,0.019928 0.399421,0.159272 0.342366,0.139364 0.684725,0.398189 0.342367,0.258819 0.715159,0.684881 0.368987,0.430041 0.711352,0.987503 0.34236,0.557462 0.589622,1.17465 0.247261,0.617192 0.418441,1.23438 0.171187,0.6171932 0.285304,1.3538292 0.114118,0.736647 0.114118,1.91129 0,1.17465 -0.05706,1.57284 -0.05706,0.398189 -0.247262,1.19456 -0.1902,0.796373 -0.456484,1.41357 -0.266282,0.617187 -0.532566,1.03528 -0.266276,0.418098 -0.559192,0.696826 -0.296712,0.278734 -0.304317,0.31855 -0.01139,0.03979 -0.391816,0.278727 -0.380401,0.238917 -0.696134,0.350409 -0.31193,0.107506 -0.730378,0.12742 -0.41844,0.01993 -0.589621,-0.01993 -0.171175,-0.03979 -0.532555,-0.179187 -0.361387,-0.139363 -0.836894,-0.485786 -0.475497,-0.350409 -0.483109,-0.390225 -0.01139,-0.03979 -0.15216,-0.159273 -0.144552,-0.119455 -0.1902,-0.199094 -0.04942,-0.07964 -0.410836,-0.6371 -0.36138,-0.557462 -0.646684,-1.23438 -0.285303,-0.676916 -0.513545,-1.5131 -0.22824,-0.836196 -0.323338,-1.79184 -0.0951,-0.955647 -0.05706,-1.89138 0.03803,-0.935742 0.17118,-1.6325692 0.133144,-0.696825 0.304324,-1.23438 0.17118,-0.537552 0.437462,-1.09501 0.266284,-0.557462 0.559192,-0.963609 0.296714,-0.410134 0.722762,-0.780444 0.429854,-0.366384 0.951007,-0.565478 z"/><path opacity="0.1" id="path27" d="m 31.204983,5.1549218 q 0.703805,-0.021025 1.109022,0.105028 0.405226,0.126031 0.810446,0.399097 0.405219,0.273066 0.712341,0.663766 0.311377,0.386496 0.545979,0.911624 0.234602,0.525135 0.36257,1.07127 0.127962,0.546133 0.149289,1.6384 0.02131,1.0922792 -0.06399,1.6594092 -0.0853,0.567143 -0.383893,1.55439 -0.298584,0.987245 -0.725132,1.86946 -0.426553,0.882224 -0.810445,1.47037 -0.383891,0.588147 -0.874422,1.15529 -0.490538,0.567137 -1.057846,1.03766 -0.563044,0.474717 -1.126088,0.798202 -0.567308,0.327682 -1.091965,0.487317 -0.520388,0.155445 -1.160216,0.155445 -0.639822,0 -1.023712,-0.126031 -0.383899,-0.126037 -0.746461,-0.357095 -0.36257,-0.231057 -0.669684,-0.596543 -0.311378,-0.369697 -0.567309,-0.873821 -0.255929,-0.504124 -0.426554,-1.23931 -0.170617,-0.735189 -0.170617,-1.74344 0,-1.00825 0.191946,-1.97449 0.191945,-0.966241 0.469203,-1.72243 0.277258,-0.756186 0.682484,-1.5543892 0.405218,-0.798195 1.032246,-1.68042 0.631293,-0.882218 0.673949,-0.89062 0.04264,-0.012603 0.106636,-0.109232 0.06399,-0.092418 0.106637,-0.100823 0.04263,-0.012603 0.170617,-0.168039 0.127969,-0.159643 0.170619,-0.168045 0.04263,-0.012603 0.298584,-0.243659 0.255931,-0.231058 0.895759,-0.630155 0.63982,-0.399104 1.173008,-0.588147 0.53319,-0.18905 1.236995,-0.210054 z"/><path opacity="0.1" id="path29" d="m 0.05419404,20.551221 -0.02174239,-0.2951 -0.01311099,0 -0.0087407,0 0,-0.8627 0,-0.8627 0.0087407,0 0.01311099,0 0.10893048,-0.7264 q 0.10896763,-0.726445 0.33998876,-1.353 0.22665735,-0.622018 0.53177851,-1.09874 0.3051212,-0.47673 0.5448578,-0.726444 0.2397367,-0.249715 0.6102424,-0.47673 0.3704991,-0.227014 0.762793,-0.340515 0.3923005,-0.113507 0.980748,-0.09081 0.588441,0.02272 1.1115061,0.204308 0.523063,0.181614 1.0810002,0.531211 0.5535733,0.354141 1.0112518,0.762769 0.4576784,0.408622 0.4707577,0.454023 0.00873,0.04537 0.052305,0.04537 0.043576,0 0.5143409,0.612937 0.4664005,0.612937 0.9676687,1.49829 0.501267,0.885352 0.8499778,1.7934 0.3487042,0.908052 0.5884412,1.86151 0.239738,0.953452 0.305121,1.56639 0.06538,0.612937 0.04358,1.61179 -0.02179,0.998859 -0.152556,1.7253 -0.130771,0.726448 -0.379222,1.3076 -0.252816,0.576618 -0.5579382,1.00794 -0.3051201,0.431322 -0.6320295,0.726443 -0.326916,0.295115 -0.8281842,0.499429 Q 7.856543,30.1311 7.1591278,30.1311 6.4617127,30.1311 5.8950644,29.926792 5.3284092,29.722478 4.7966328,29.372882 4.2604906,29.018742 3.6807673,28.464824 3.1053991,27.906375 2.6346414,27.284354 2.1682474,26.657799 1.7759469,25.954064 1.3836529,25.250321 1.0131472,24.342264 0.64264809,23.434213 0.42469972,22.526164 0.20675791,21.618112 0.14137995,21.232194 0.07600199,20.846299 0.05420716,20.551177 Z"/><path opacity="0.1" id="path31" d="m 47.74596,18.673706 0.16522,0.658377 0.0236,0.17558 0.0236,0.17558 0.01412,0 0.0095,0 0,0.548664 0,0.548663 -0.0095,0 -0.01412,0 -0.0236,0.197503 -0.0236,0.197503 -0.0236,0.153657 q -0.02359,0.153627 -0.0472,0.307247 -0.02359,0.15362 -0.236051,0.921726 -0.212451,0.768113 -0.542917,1.536218 -0.330472,0.768105 -0.755369,1.470379 -0.424888,0.702268 -1.038625,1.470381 -0.613733,0.768107 -0.788407,0.921727 -0.179399,0.153619 -0.188844,0.197515 -0.01414,0.04387 -0.122745,0.109732 -0.103867,0.06582 -0.113306,0.109723 -0.01414,0.04387 -0.330473,0.316026 -0.321025,0.276516 -0.981972,0.737382 -0.660938,0.460866 -1.32188,0.768107 -0.660938,0.307246 -1.321881,0.482811 -0.660936,0.175566 -1.392698,0.175566 -0.731756,0 -1.180253,-0.131677 -0.448504,-0.131674 -0.896999,-0.416971 -0.448499,-0.285293 -0.675102,-0.535479 -0.221891,-0.254571 -0.481548,-0.737383 -0.259655,-0.482811 -0.401282,-1.009516 -0.141634,-0.526709 -0.165239,-1.426496 -0.0236,-0.89978 0.0472,-1.316761 0.07082,-0.41697 0.306867,-1.250915 0.23605,-0.833941 0.637339,-1.689835 0.401284,-0.855892 0.873384,-1.580112 0.472106,-0.724217 1.062228,-1.426486 0.590128,-0.702265 0.764809,-0.833946 0.179399,-0.131676 0.321027,-0.307241 0.141631,-0.175565 0.306864,-0.298468 0.165242,-0.118502 0.741204,-0.5267 0.580688,-0.403805 1.180253,-0.719825 0.604287,-0.320411 1.312438,-0.539873 0.708158,-0.21946 1.487121,-0.241404 0.778966,-0.02196 1.227469,0.08779 0.448494,0.10973 0.896988,0.373081 0.448501,0.26335 0.708157,0.548646 0.259655,0.285303 0.53347,0.711051 0.26909,0.430138 0.434322,1.088518 z"/></g><path fill="url(#2)" id="path33" d="m 32.855058,47.803221 c -1.055634,0.239318 -2.167966,0.203145 -3.274829,0.131015 -4.880249,-0.214671 -9.776188,-0.445338 -14.652157,-0.02609 -3.327914,0.222846 -7.2239173,-0.442772 -9.2201469,-3.049024 -1.152279,-1.557943 -1.6619868,-3.510043 -1.1179759,-5.334527 0.077058,-1.354896 1.1163501,-2.374363 2.1496208,-3.27562 1.2284258,-1.191261 2.829936,-1.956922 4.314702,-2.847641 2.812291,-1.941876 4.313426,-4.894831 6.580648,-7.260729 1.402933,-1.415842 3.691004,-2.11214 5.736398,-1.474571 1.80663,0.519791 3.213833,1.739409 4.162319,3.166302 2.251214,2.785345 4.725641,5.492721 7.745555,7.649751 2.034613,1.295681 3.545881,3.347855 3.917688,5.554808 0.284629,1.839568 -0.393195,3.837682 -2.059489,5.0222 -1.207559,0.937204 -2.730608,1.451811 -4.282304,1.744118 z"/><path fill="url(#3)" id="path35" d="m 14.069946,3.2098 0.524929,-0.1991 0.399448,0 0.399447,0 0,0.008 0,0.0119 0.13315,0.0199 0.133149,0.0199 0.05706,0.0199 q 0.05706,0.019928 0.399421,0.159272 0.342366,0.139364 0.684725,0.398189 0.342367,0.258819 0.715159,0.684881 0.368987,0.430041 0.711352,0.987503 0.34236,0.557462 0.589622,1.17465 0.247261,0.617192 0.418441,1.23438 0.171187,0.617193 0.285304,1.35383 0.114118,0.736647 0.114118,1.91129 0,1.17465 -0.05706,1.57284 -0.05706,0.398189 -0.247262,1.19456 -0.1902,0.796373 -0.456484,1.41357 -0.266282,0.617187 -0.532566,1.03528 -0.266276,0.418098 -0.559192,0.696826 -0.296712,0.278734 -0.304317,0.31855 -0.01139,0.03979 -0.391816,0.278727 -0.380401,0.238917 -0.696134,0.350409 -0.31193,0.107506 -0.730378,0.12742 -0.41844,0.01993 -0.589621,-0.01993 -0.171175,-0.03979 -0.532555,-0.179187 -0.361387,-0.139363 -0.836894,-0.485786 -0.475497,-0.350409 -0.483109,-0.390225 -0.01139,-0.03979 -0.15216,-0.159273 -0.144552,-0.119455 -0.1902,-0.199094 -0.04942,-0.07964 -0.410836,-0.6371 -0.36138,-0.557462 -0.646684,-1.23438 -0.285303,-0.676916 -0.513545,-1.5131 -0.22824,-0.836196 -0.323338,-1.79184 -0.0951,-0.955647 -0.05706,-1.89138 0.03803,-0.935742 0.17118,-1.63257 0.133144,-0.696825 0.304324,-1.23438 0.17118,-0.537552 0.437462,-1.09501 Q 12.10331,4.96176 12.396218,4.555613 12.692932,4.145479 13.11898,3.775169 13.548834,3.408785 14.069987,3.209691 Z"/><path fill="url(#4)" id="path37" d="m 31.204983,3.0131 q 0.703805,-0.021025 1.109022,0.105028 0.405226,0.126031 0.810446,0.399097 0.405219,0.273066 0.712341,0.663766 0.311377,0.386496 0.545979,0.911624 0.234602,0.525135 0.36257,1.07127 0.127962,0.546133 0.149289,1.6384 0.02131,1.09228 -0.06399,1.65941 -0.0853,0.567143 -0.383893,1.55439 -0.298584,0.987245 -0.725132,1.86946 -0.426553,0.882224 -0.810445,1.47037 -0.383891,0.588147 -0.874422,1.15529 -0.490538,0.567137 -1.057846,1.03766 -0.563044,0.474717 -1.126088,0.798202 -0.567308,0.327682 -1.091965,0.487317 -0.520388,0.155445 -1.160216,0.155445 -0.639822,0 -1.023712,-0.126031 -0.383899,-0.126037 -0.746461,-0.357095 -0.36257,-0.231057 -0.669684,-0.596543 -0.311378,-0.369697 -0.567309,-0.873821 -0.255929,-0.504124 -0.426554,-1.23931 -0.170617,-0.735189 -0.170617,-1.74344 0,-1.00825 0.191946,-1.97449 0.191945,-0.966241 0.469203,-1.72243 0.277258,-0.756186 0.682484,-1.55439 0.405218,-0.798195 1.032246,-1.68042 0.631293,-0.882218 0.673949,-0.89062 0.04264,-0.012603 0.106636,-0.109232 0.06399,-0.092418 0.106637,-0.100823 0.04263,-0.012603 0.170617,-0.168039 0.127969,-0.159643 0.170619,-0.168045 0.04263,-0.012603 0.298584,-0.243659 0.255931,-0.231058 0.895759,-0.630155 0.63982,-0.399104 1.173008,-0.588147 0.53319,-0.18905 1.236995,-0.210054 z"/><path fill="url(#5)" id="path39" d="m 0.05419404,18.4094 -0.02174239,-0.2951 -0.01311099,0 -0.0087407,0 0,-0.8627 0,-0.8627 0.0087407,0 0.01311099,0 0.10893048,-0.7264 q 0.10896763,-0.726445 0.33998876,-1.353 0.22665735,-0.622018 0.53177851,-1.09874 0.3051212,-0.47673 0.5448578,-0.726444 0.2397367,-0.249715 0.6102424,-0.47673 0.3704991,-0.227014 0.762793,-0.340515 0.3923005,-0.113507 0.980748,-0.09081 0.588441,0.02272 1.1115061,0.204308 0.523063,0.181614 1.0810002,0.531211 0.5535733,0.354141 1.0112518,0.762769 0.4576784,0.408622 0.4707577,0.454023 0.00873,0.04537 0.052305,0.04537 0.043576,0 0.5143409,0.612937 0.4664005,0.612937 0.9676687,1.49829 0.501267,0.885352 0.8499778,1.7934 0.3487042,0.908052 0.5884412,1.86151 0.239738,0.953452 0.305121,1.56639 0.06538,0.612937 0.04358,1.61179 -0.02179,0.998859 -0.152556,1.7253 -0.130771,0.726448 -0.379222,1.3076 -0.252816,0.576618 -0.5579382,1.00794 -0.3051201,0.431322 -0.6320295,0.726443 -0.326916,0.295115 -0.8281842,0.499429 -0.5012681,0.204308 -1.1986833,0.204308 -0.6974151,0 -1.2640634,-0.204308 Q 5.3284092,27.580657 4.7966328,27.231061 4.2604906,26.876921 3.6807673,26.323003 3.1053991,25.764554 2.6346414,25.142533 2.1682474,24.515978 1.7759469,23.812243 1.3836529,23.1085 1.0131472,22.200443 0.64264809,21.292392 0.42469972,20.384343 0.20675791,19.476291 0.14137995,19.090373 0.07600199,18.704478 0.05420716,18.409356 Z"/><path fill="url(#6)" id="path41" d="m 47.74596,16.531885 0.16522,0.658377 0.0236,0.17558 0.0236,0.17558 0.01412,0 0.0095,0 0,0.548664 0,0.548663 -0.0095,0 -0.01412,0 -0.0236,0.197503 -0.0236,0.197503 -0.0236,0.153657 q -0.02359,0.153627 -0.0472,0.307247 -0.02359,0.15362 -0.236051,0.921726 -0.212451,0.768113 -0.542917,1.536218 -0.330472,0.768105 -0.755369,1.470379 -0.424888,0.702268 -1.038625,1.470381 -0.613733,0.768107 -0.788407,0.921727 -0.179399,0.153619 -0.188844,0.197515 -0.01414,0.04387 -0.122745,0.109732 -0.103867,0.06582 -0.113306,0.109723 -0.01414,0.04387 -0.330473,0.316026 -0.321025,0.276516 -0.981972,0.737382 -0.660938,0.460866 -1.32188,0.768107 -0.660938,0.307246 -1.321881,0.482811 -0.660936,0.175566 -1.392698,0.175566 -0.731756,0 -1.180253,-0.131677 -0.448504,-0.131674 -0.896999,-0.416971 -0.448499,-0.285293 -0.675102,-0.535479 -0.221891,-0.254571 -0.481548,-0.737383 -0.259655,-0.482811 -0.401282,-1.009516 -0.141634,-0.526709 -0.165239,-1.426496 -0.0236,-0.89978 0.0472,-1.316761 0.07082,-0.41697 0.306867,-1.250915 0.23605,-0.833941 0.637339,-1.689835 0.401284,-0.855892 0.873384,-1.580112 0.472106,-0.724217 1.062228,-1.426486 0.590128,-0.702265 0.764809,-0.833946 0.179399,-0.131676 0.321027,-0.307241 0.141631,-0.175565 0.306864,-0.298468 0.165242,-0.118502 0.741204,-0.5267 0.580688,-0.403805 1.180253,-0.719825 0.604287,-0.320411 1.312438,-0.539873 0.708158,-0.21946 1.487121,-0.241404 0.778966,-0.02196 1.227469,0.08779 0.448494,0.10973 0.896988,0.373081 0.448501,0.26335 0.708157,0.548646 0.259655,0.285303 0.53347,0.711051 0.26909,0.430138 0.434322,1.088518 z"/></g><path stroke-linejoin="round" opacity="0.4" fill="none" stroke="#000" id="path43" stroke-width="2.161" stroke-linecap="round" d="m 14.797239,4.0810051 c -2.258916,0.7234715 -2.586945,3.4851161 -2.793789,5.4884173 -0.04752,2.3183706 0.431675,4.8083616 1.976095,6.6262596 1.546012,1.616436 3.652666,0.113127 4.011653,-1.698646 C 18.88509,12.002937 18.717238,9.0973399 17.69094,6.6589549 17.117425,5.567539 16.236636,3.9823954 14.797239,4.0810051 Z M 13.979545,16.195682 c 0.142924,0.651453 0.419066,0.45767 0.136282,0.133864 z M 31.219267,4.0810051 c -2.833337,0.2906877 -4.374704,2.9366862 -5.389107,5.28123 -0.886601,2.2226839 -1.302365,5.1724909 0.377787,7.1274629 2.231709,1.372124 4.634206,-0.966437 5.829014,-2.703565 1.512107,-2.415819 2.368542,-5.5563063 1.362824,-8.2995576 -0.336642,-0.850092 -1.22696,-1.5080881 -2.180518,-1.4055703 z M 3.2132361,12.648291 c -1.7476178,0.758138 -2.095843,2.921286 -2.112377,4.618302 0.042625,3.403165 1.5019723,6.979829 4.2928952,9.102741 C 7.499295,27.963376 9.8075159,25.85112 9.7353278,23.713563 10.219545,20.239288 8.9118905,16.651689 6.6202958,14.053861 5.6894186,13.196763 4.569571,12.454005 3.2132361,12.648291 Z M 43.96167,14.790112 c -1.896552,0.117207 -3.710978,1.346159 -4.838025,2.476481 -2.158477,2.442208 -3.975656,5.913801 -2.725648,9.169673 1.093384,1.945757 3.910598,1.21165 5.437716,0.191029 1.510203,-0.8669 1.881741,-1.460217 3.08733,-3.081088 0.879843,-1.423192 1.776455,-3.183334 1.900557,-4.669661 0.307263,-1.553975 -0.212993,-3.487879 -1.907953,-4.086425 -0.317612,-0.02907 -0.636097,-0.0043 -0.953977,-9e-6 z M 21.815782,25.499219 c -3.175464,-0.03348 -4.671893,3.051845 -6.424815,5.123511 -1.507473,2.041901 -3.482505,3.656839 -5.749254,4.806766 -1.8155433,1.186273 -3.9319892,2.64006 -4.1648581,4.943583 -0.4052325,3.086694 2.2966468,5.737172 5.2720751,6.198049 3.656452,0.765564 7.385494,-0.204586 11.079896,0.03463 3.475792,-0.05991 6.953223,0.379188 10.420903,0.240447 2.386416,-0.470539 5.456512,-1.465803 5.838833,-4.236928 0.439715,-2.956506 -1.894364,-5.444615 -4.260903,-6.910503 C 30.628998,33.290105 28.098112,30.178853 25.567523,27.139975 24.569779,26.170316 23.22427,25.5433 21.815782,25.499219 Z m 21.600758,0.06693 c -0.422815,0.144209 0.09237,0.219442 0,0 z"/><g fill="#fff" id="g45" color="#000"><path opacity="0.4" id="rect47" d="m 15.2705,5.152 c 1.207997,0 2.1805,0.4776659 2.1805,1.0709999 0,0.593334 -0.972503,1.071 -2.1805,1.071 -1.207997,0 -2.1805,-0.477666 -2.1805,-1.071 C 13.09,5.6296659 14.062503,5.152 15.2705,5.152 Z"/><path opacity="0.4" id="rect49" d="m 4.3715,13.719 c 1.207997,0 2.1805,0.477666 2.1805,1.071 0,0.593334 -0.972503,1.071 -2.1805,1.071 -1.207997,0 -2.1805,-0.477666 -2.1805,-1.071 0,-0.593334 0.972503,-1.071 2.1805,-1.071 z"/><path opacity="0.4" id="rect51" d="m 30.5375,5.152 c 1.207997,0 2.1805,0.4776659 2.1805,1.0709999 0,0.593334 -0.972503,1.071 -2.1805,1.071 -1.207997,0 -2.1805,-0.477666 -2.1805,-1.071 C 28.357,5.6296659 29.329503,5.152 30.5375,5.152 Z"/><path opacity="0.4" id="rect53" d="m 43.620499,15.861 c 1.207997,0 2.1805,0.477666 2.1805,1.071 0,0.593334 -0.972503,1.071 -2.1805,1.071 -1.207997,0 -2.1805,-0.477666 -2.1805,-1.071 0,-0.593334 0.972503,-1.071 2.1805,-1.071 z"/><path opacity="0.4" id="rect55" d="m 20.726,26.57 c 1.812134,0 3.271,0.477666 3.271,1.071 0,0.593334 -1.458866,1.071 -3.271,1.071 -1.812134,0 -3.271,-0.477666 -3.271,-1.071 0,-0.593334 1.458866,-1.071 3.271,-1.071 z"/></g></g><metadata id="metadata9999"><rdf:RDF><cc:Work><dc:format>image/svg+xml</dc:format><dc:type rdf:resource="http://purl.org/dc/dcmitype/StillImage"/><dc:title>Ivy icon theme</dc:title><cc:license rdf:resource="http://creativecommons.org/licenses/by-sa/4.0/"/><dc:creator><cc:Agent><dc:title>Sixsixfive (sixsixfive.deviantart.com)</dc:title></cc:Agent></dc:creator><dc:publisher><cc:Agent><dc:title>Sixsixfive (sixsixfive.deviantart.com)</dc:title></cc:Agent></dc:publisher><dc:source>https://github.com/sixsixfive</dc:source><dc:subject><rdf:Bag><rdf:li>ivy</rdf:li></rdf:Bag></dc:subject><dc:contributor><cc:Agent><dc:title>ssf</dc:title></cc:Agent></dc:contributor><dc:rights><cc:Agent><dc:title>Sixsixfive (sixisixfive.deviantart.com)</dc:title></cc:Agent></dc:rights><dc:description>A simple icon theme published under CC-BY-SA_V4(http://creativecommons.org/licenses/by-sa/4.0)</dc:description><dc:identifier>SSF</dc:identifier></cc:Work></rdf:RDF></metadata><!--Part of the Ivy icon them published under the CC-BY-SA_V4: http://creativecommons.org/licenses/by-sa/4.0 -->
</svg>