<?xml version="1.0" encoding="UTF-8" standalone="no"?><svg viewBox="0 0 22 22" xmlns="http://www.w3.org/2000/svg" xmlns:svg="http://www.w3.org/2000/svg" xmlns:rdf="http://www.w3.org/1999/02/22-rdf-syntax-ns#" xmlns:xlink="http://www.w3.org/1999/xlink" version="1.1" id="svg2" xmlns:dc="http://purl.org/dc/elements/1.1/" xmlns:cc="http://creativecommons.org/ns#"><defs id="defs4"><linearGradient y1="9.966" x2="0" y2="41.29" gradientTransform="matrix(0.59237 0 0 0.63853 -5.506 -6.364)" id="0" gradientUnits="userSpaceOnUse"><stop id="stop7" stop-color="#a868d4"/><stop offset="1" id="stop9" stop-color="#c8a1e4"/></linearGradient><linearGradient y1="1" x2="0" y2="19" id="1" gradientUnits="userSpaceOnUse"><stop id="stop12" stop-color="#fff"/><stop stop-opacity="0" offset="1" id="stop14" stop-color="#fff"/></linearGradient></defs><path opacity="0.1" id="path16" d="m 21 11.0032 a 10 10 0 0 1 -20 0 10 10 0 1 1 20 0 z"/><path id="path18" d="M 21 10 A 10 10 0 0 1 1 10 10 10 0 1 1 21 10 z" fill="url(#0)"/><g id="g20" fill="none"><path stroke="#000" opacity="0.4" id="path22" d="M 10.78125,0.5 C 10.606261,0.50382 10.487079,0.518689 10.3125,0.53125 10.137921,0.543811 10.01748,0.54123 9.84375,0.5625 9.670016,0.583767 9.547454,0.62633 9.375,0.65625 9.202546,0.68617 9.07699,0.711502 8.90625,0.75 8.735506,0.788498 8.606108,0.79677 8.4375,0.84375 8.268893,0.89073 8.16605,0.944655 8,1 7.83395,1.055345 7.725578,1.092679 7.5625,1.15625 7.399422,1.219821 7.284699,1.272111 7.125,1.34375 6.965302,1.415389 6.84342,1.451722 6.6875,1.53125 6.53158,1.610778 6.433002,1.662782 6.28125,1.75 6.129498,1.837218 6.02221,1.90531 5.875,2 5.727795,2.09469 5.611041,2.179324 5.46875,2.28125 5.326459,2.383176 5.230772,2.453593 5.09375,2.5625 4.956729,2.671407 4.85016,2.759383 4.71875,2.875 4.587341,2.990617 4.50047,3.065463 4.375,3.1875 4.249531,3.309537 4.181716,3.403097 4.0625,3.53125 3.943284,3.659403 3.862665,3.741051 3.75,3.875 3.637335,4.00895 3.543333,4.11059 3.4375,4.25 3.331668,4.38941 3.254986,4.480477 3.15625,4.625 3.057514,4.769523 2.997642,4.881975 2.90625,5.03125 2.814858,5.180525 2.740071,5.283845 2.65625,5.4375 2.572429,5.591155 2.51354,5.71735 2.4375,5.875 2.36146,6.03265 2.318069,6.151248 2.25,6.3125 2.181931,6.473752 2.153678,6.585548 2.09375,6.75 2.033822,6.914452 1.989138,7.02026 1.9375,7.1875 1.885862,7.35474 1.855718,7.486639 1.8125,7.65625 1.769282,7.825861 1.722191,7.953442 1.6875,8.125 1.652809,8.296558 1.651077,8.420673 1.625,8.59375 1.598923,8.766827 1.579898,8.888336 1.5625,9.0625 1.545102,9.236664 1.539925,9.356435 1.53125,9.53125 1.52258,9.706065 1.499931,9.824969 1.5,10 c 7.7e-5,0.17186 0.022743,0.297101 0.03125,0.46875 0.00851,0.171649 0.014333,0.297725 0.03125,0.46875 0.016917,0.171025 0.037214,0.29876 0.0625,0.46875 0.025286,0.16999 0.028906,0.268955 0.0625,0.4375 0.033594,0.168545 0.051928,0.302056 0.09375,0.46875 0.041822,0.166694 0.075052,0.273058 0.125,0.4375 0.049948,0.164442 0.098296,0.275707 0.15625,0.4375 0.057954,0.161793 0.090429,0.278744 0.15625,0.4375 0.065821,0.158756 0.113971,0.282164 0.1875,0.4375 0.073529,0.155336 0.137689,0.254708 0.21875,0.40625 0.081061,0.151542 0.130353,0.258867 0.21875,0.40625 0.088397,0.147383 0.15448,0.26338 0.25,0.40625 0.09552,0.14287 0.178837,0.236988 0.28125,0.375 0.102413,0.138012 0.17219,0.242178 0.28125,0.375 0.10906,0.132822 0.197056,0.216438 0.3125,0.34375 0.115444,0.127312 0.190949,0.222254 0.3125,0.34375 0.12155,0.121496 0.216386,0.197113 0.34375,0.3125 0.127364,0.115387 0.210879,0.203499 0.34375,0.3125 0.132871,0.109001 0.236942,0.178898 0.375,0.28125 0.138058,0.102352 0.232088,0.154544 0.375,0.25 0.142912,0.09546 0.258827,0.161669 0.40625,0.25 0.147423,0.08833 0.254672,0.169007 0.40625,0.25 0.151578,0.08099 0.250881,0.14529 0.40625,0.21875 0.155369,0.07346 0.278715,0.12175 0.4375,0.1875 0.158785,0.06575 0.275681,0.09837 0.4375,0.15625 0.161819,0.05788 0.273036,0.106375 0.4375,0.15625 0.164464,0.04988 0.270788,0.08325 0.4375,0.125 0.166712,0.04175 0.30019,0.06023 0.46875,0.09375 0.16856,0.03352 0.267499,0.03729 0.4375,0.0625 0.170001,0.02521 0.297717,0.04566 0.46875,0.0625 0.171033,0.01684 0.297097,0.02282 0.46875,0.03125 C 10.702903,19.47718 10.82814,19.5 11,19.5 c 0.17186,0 0.297097,-0.02282 0.46875,-0.03125 0.171653,-0.0084 0.297717,-0.01441 0.46875,-0.03125 0.171033,-0.01684 0.298749,-0.03729 0.46875,-0.0625 0.170001,-0.02521 0.26894,-0.02898 0.4375,-0.0625 0.16856,-0.03352 0.302038,-0.052 0.46875,-0.09375 0.166712,-0.04175 0.273036,-0.07512 0.4375,-0.125 0.164464,-0.04988 0.275681,-0.09837 0.4375,-0.15625 0.161819,-0.05788 0.278715,-0.0905 0.4375,-0.15625 0.158785,-0.06575 0.282131,-0.11404 0.4375,-0.1875 0.155369,-0.07346 0.254672,-0.137757 0.40625,-0.21875 0.151578,-0.08099 0.258827,-0.161669 0.40625,-0.25 0.147423,-0.08833 0.263338,-0.154544 0.40625,-0.25 0.142912,-0.09546 0.236942,-0.147648 0.375,-0.25 0.138058,-0.102352 0.242129,-0.172249 0.375,-0.28125 0.132871,-0.109001 0.216386,-0.197113 0.34375,-0.3125 0.127364,-0.115387 0.2222,-0.191004 0.34375,-0.3125 0.12155,-0.121496 0.197056,-0.216438 0.3125,-0.34375 0.115444,-0.127312 0.20344,-0.210928 0.3125,-0.34375 0.10906,-0.132822 0.178837,-0.236988 0.28125,-0.375 0.102413,-0.138012 0.18573,-0.23213 0.28125,-0.375 0.09552,-0.14287 0.161603,-0.258867 0.25,-0.40625 0.0884,-0.147383 0.137689,-0.254708 0.21875,-0.40625 0.08106,-0.151542 0.14522,-0.250914 0.21875,-0.40625 0.07353,-0.155336 0.121679,-0.278744 0.1875,-0.4375 0.06582,-0.158756 0.0983,-0.275707 0.15625,-0.4375 0.05795,-0.161793 0.106302,-0.273058 0.15625,-0.4375 0.04995,-0.164442 0.08318,-0.270806 0.125,-0.4375 0.04182,-0.166694 0.06016,-0.300205 0.09375,-0.46875 0.03359,-0.168545 0.03721,-0.26751 0.0625,-0.4375 0.02529,-0.16999 0.04558,-0.297725 0.0625,-0.46875 0.01692,-0.171025 0.02274,-0.297101 0.03125,-0.46875 C 20.47725,10.297101 20.49992,10.17186 20.5,10 20.500067,9.831126 20.47682,9.699931 20.46875,9.53125 20.46065,9.362569 20.45369,9.261845 20.4375,9.09375 20.42131,8.925655 20.4305,8.792119 20.40625,8.625 20.38197,8.457881 20.34481,8.353255 20.3125,8.1875 20.28019,8.02174 20.25901,7.882755 20.21875,7.71875 20.17849,7.554745 20.14187,7.443124 20.09375,7.28125 20.04563,7.119376 20.02461,7.00312 19.96875,6.84375 19.912887,6.684384 19.87598,6.593988 19.8125,6.4375 19.74902,6.281012 19.695949,6.153247 19.625,6 19.554051,5.846753 19.484504,5.743399 19.40625,5.59375 19.327996,5.444101 19.272876,5.333203 19.1875,5.1875 19.10212,5.0418 19.0298,4.953918 18.9375,4.8125 18.8452,4.671082 18.786509,4.574305 18.6875,4.4375 18.588491,4.300695 18.511738,4.194373 18.40625,4.0625 18.300762,3.930627 18.236722,3.845385 18.125,3.71875 18.01328,3.592115 17.930197,3.496103 17.8125,3.375 17.694803,3.253897 17.592147,3.177789 17.46875,3.0625 17.345353,2.947211 17.253811,2.859207 17.125,2.75 16.996189,2.640793 16.915175,2.571621 16.78125,2.46875 16.647325,2.365879 16.544978,2.283796 16.40625,2.1875 16.267522,2.091204 16.17446,2.026997 16.03125,1.9375 15.888042,1.848003 15.772356,1.80124 15.625,1.71875 15.477644,1.63626 15.369911,1.575291 15.21875,1.5 15.06759,1.424709 14.967114,1.380417 14.8125,1.3125 14.657886,1.244583 14.563958,1.185386 14.40625,1.125 14.248542,1.064614 14.12919,1.021464 13.96875,0.96875 13.808314,0.916036 13.69404,0.888669 13.53125,0.84375 13.36846,0.798831 13.258516,0.75577 13.09375,0.71875 12.928984,0.68173 12.791359,0.685285 12.625,0.65625 12.458641,0.627215 12.355065,0.583482 12.1875,0.5625 12.01994,0.541518 11.887132,0.544131 11.71875,0.53125 11.550368,0.518369 11.450057,0.50475 11.28125,0.5 c -0.174961,-0.00492 -0.325011,-0.00382 -0.5,0 z"/><path stroke="url(#1)" opacity="0.4" id="path24" d="M 10.4062,1.5625 C 10.022069,1.590139 9.941905,1.621666 9.56245,1.6875 9.182995,1.753334 9.089692,1.771628 8.7187,1.875 8.347708,1.978372 8.296274,1.985123 7.93745,2.125 7.578626,2.264877 7.499275,2.293763 7.1562,2.46875 6.813125,2.643737 6.76135,2.697901 6.43745,2.90625 6.11355,3.114599 6.051442,3.135369 5.74995,3.375 5.448458,3.614631 5.401024,3.668978 5.12495,3.9375 4.848876,4.206022 4.7791,4.267769 4.5312,4.5625 4.2833,4.857231 4.248451,4.900752 4.0312,5.21875 3.813949,5.536748 3.778133,5.63066 3.5937,5.96875 3.409267,6.30684 3.368474,6.363943 3.2187,6.71875 3.068926,7.073557 3.05107,7.132018 2.93745,7.5 2.823831,7.867982 2.795031,7.935016 2.7187,8.3125 2.642369,8.689984 2.63198,8.773033 2.5937,9.15625 2.55542,9.539467 2.562298,9.614876 2.56245,10 c 1.69e-4,0.378147 -0.00597,0.436189 0.03125,0.8125 0.037223,0.376311 0.051082,0.472897 0.125,0.84375 0.073918,0.370853 0.108848,0.419425 0.21875,0.78125 0.109902,0.361825 0.105172,0.431936 0.25,0.78125 0.144828,0.349314 0.19664,0.416558 0.375,0.75 0.17836,0.333442 0.196075,0.404391 0.40625,0.71875 0.210175,0.314359 0.260032,0.363998 0.5,0.65625 0.239968,0.292252 0.29505,0.357669 0.5625,0.625 0.26745,0.267331 0.332641,0.322663 0.625,0.5625 0.292359,0.239837 0.341797,0.258715 0.65625,0.46875 0.314453,0.210035 0.385229,0.259289 0.71875,0.4375 0.333521,0.178211 0.400621,0.199078 0.75,0.34375 0.349379,0.144672 0.419376,0.17151 0.78125,0.28125 0.361874,0.10974 0.410364,0.144998 0.78125,0.21875 0.370886,0.07375 0.467422,0.08795 0.84375,0.125 0.376328,0.03705 0.434352,0.03125 0.8125,0.03125 0.378148,0 0.436172,0.0058 0.8125,-0.03125 0.376328,-0.03705 0.472864,-0.05125 0.84375,-0.125 0.370886,-0.07375 0.419376,-0.10901 0.78125,-0.21875 0.361874,-0.10974 0.431871,-0.136578 0.78125,-0.28125 0.349379,-0.144672 0.416479,-0.165539 0.75,-0.34375 0.333521,-0.178211 0.404297,-0.227465 0.71875,-0.4375 0.314453,-0.210035 0.363891,-0.228913 0.65625,-0.46875 0.292359,-0.239837 0.35755,-0.295169 0.625,-0.5625 0.26745,-0.267331 0.322532,-0.332748 0.5625,-0.625 0.239968,-0.292252 0.289825,-0.341891 0.5,-0.65625 0.210175,-0.314359 0.22789,-0.385308 0.40625,-0.71875 0.17836,-0.333442 0.230172,-0.400686 0.375,-0.75 0.144828,-0.349314 0.140098,-0.419425 0.25,-0.78125 0.109902,-0.361825 0.144832,-0.410397 0.21875,-0.78125 0.07392,-0.370853 0.08778,-0.467439 0.125,-0.84375 C 19.44342,10.436189 19.43728,10.378147 19.43745,10 19.437597,9.628423 19.44185,9.557364 19.4062,9.1875 19.37057,8.817636 19.35228,8.739714 19.2812,8.375 19.21012,8.01029 19.19957,7.949925 19.0937,7.59375 18.987828,7.237575 18.952127,7.156825 18.81245,6.8125 18.672773,6.468175 18.640883,6.423025 18.4687,6.09375 18.296517,5.764475 18.26554,5.686166 18.06245,5.375 17.85936,5.063834 17.825809,5.00891 17.5937,4.71875 17.361591,4.428586 17.321421,4.391465 17.06245,4.125 16.803479,3.858535 16.752126,3.80279 16.4687,3.5625 16.185274,3.32221 16.1177,3.274382 15.81245,3.0625 15.507203,2.850618 15.449181,2.806504 15.12495,2.625 14.800719,2.443496 14.746402,2.43069 14.4062,2.28125 14.066,2.13181 13.977961,2.084737 13.62495,1.96875 13.271939,1.852763 13.206239,1.831456 12.8437,1.75 12.481161,1.668544 12.431148,1.671168 12.06245,1.625 11.693752,1.578832 11.62138,1.572951 11.24995,1.5625 c -0.384972,-0.010832 -0.459619,-0.027639 -0.84375,0 z"/></g><g opacity="0.4" id="g26"><path transform="matrix(0.49996 0 0 0.48867 -1 -3.198)" id="2" d="m 27.7726,18.2081 -0.2004,1.0018 c -0.921612,-0.801402 -2.24393,-1.24217 -3.56624,-1.24217 -4.24743,0 -7.89382,3.84674 -7.89382,8.33459 0,3.28575 2.16379,5.64989 5.16905,5.64989 1.68294,0 3.28575,-0.761334 4.40771,-2.08365 0.360631,1.36238 1.4826,2.08365 3.20561,2.08365 1.28224,0 3.00526,-0.560983 4.44778,-1.40245 2.96519,-1.76308 4.64814,-4.68821 4.64814,-8.13424 0,-3.12547 -1.36239,-6.13073 -3.76659,-8.21438 -2.44428,-2.12371 -6.1708,-3.4861 -9.53669,-3.4861 -3.44603,0 -7.2527,1.40246 -9.85725,3.60631 -3.04533,2.60456 -4.80842,6.4513 -4.80842,10.5785 0,7.97395 6.49137,14.3852 14.6657,14.3852 5.64988,0 10.1778,-2.76484 13.0228,-7.89382 l -2.80491,0 c -2.4042,3.4861 -5.73003,5.16905 -10.2179,5.16905 -6.77184,0 -11.7405,-4.9687 -11.7405,-11.7005 0,-6.57149 5.00877,-11.42 11.7405,-11.42 5.8903,0 10.3782,4.08716 10.3782,9.45655 0,2.36414 -0.881545,4.20736 -2.60456,5.44954 -0.681191,0.480841 -1.28224,0.761333 -1.72302,0.761333 -0.520912,0 -0.961684,-0.480843 -0.961684,-1.04182 0,-0.360631 1e-6,-0.360632 0.200351,-1.36238 l 1.5627,-8.4949 -3.76659,0 m -0.8415,2.9251 c -0.721262,3.56624 -1.12196,4.9687 -1.80316,6.09066 -0.801402,1.44252 -1.68295,2.12372 -2.6847,2.12372 -1.12196,0 -1.80316,-0.921614 -1.80316,-2.40421 0,-3.4861 1.92337,-6.65164 4.08715,-6.65164 0.641121,0 1.32231,0.240422 2.20386,0.841473"/></g><g id="g29" fill="#fff"><use y="0" x="0" xlink:href="#2" height="22" transform="matrix(1 0 0 1 0 1)" id="use31" width="22"/></g><metadata id="metadata9999"><rdf:RDF><cc:Work><dc:format>image/svg+xml</dc:format><dc:type rdf:resource="http://purl.org/dc/dcmitype/StillImage"/><dc:title>Ivy icon theme</dc:title><cc:license rdf:resource="http://creativecommons.org/licenses/by-sa/4.0/"/><dc:creator><cc:Agent><dc:title>Sixsixfive (sixsixfive.deviantart.com)</dc:title></cc:Agent></dc:creator><dc:publisher><cc:Agent><dc:title>Sixsixfive (sixsixfive.deviantart.com)</dc:title></cc:Agent></dc:publisher><dc:source>https://github.com/sixsixfive</dc:source><dc:subject><rdf:Bag><rdf:li>ivy</rdf:li></rdf:Bag></dc:subject><dc:contributor><cc:Agent><dc:title>ssf</dc:title></cc:Agent></dc:contributor><dc:rights><cc:Agent><dc:title>Sixsixfive (sixisixfive.deviantart.com)</dc:title></cc:Agent></dc:rights><dc:description>A simple icon theme published under CC-BY-SA_V4(http://creativecommons.org/licenses/by-sa/4.0)</dc:description><dc:identifier>SSF</dc:identifier></cc:Work></rdf:RDF></metadata><!--Part of the Ivy icon them published under the CC-BY-SA_V4: http://creativecommons.org/licenses/by-sa/4.0 -->
</svg>