<?xml version="1.0" encoding="UTF-8" standalone="no"?>
<svg
   xmlns:dc="http://purl.org/dc/elements/1.1/"
   xmlns:cc="http://creativecommons.org/ns#"
   xmlns:rdf="http://www.w3.org/1999/02/22-rdf-syntax-ns#"
   xmlns:svg="http://www.w3.org/2000/svg"
   xmlns="http://www.w3.org/2000/svg"
   id="svg2"
   version="1.1"
   viewBox="0 0 22 22">
  <defs
     id="defs4">
    <linearGradient
       id="0"
       y1="20"
       x1="21"
       y2="-2.01"
       x2="20.956"
       gradientUnits="userSpaceOnUse">
      <stop
         stop-color="#ddd"
         id="stop7" />
      <stop
         offset="1"
         stop-color="#fff"
         id="stop9" />
    </linearGradient>
    <linearGradient
       id="1"
       y1="2"
       y2="19"
       x2="0"
       gradientUnits="userSpaceOnUse">
      <stop
         stop-color="#fff"
         id="stop12" />
      <stop
         offset="1"
         stop-color="#fff"
         id="stop14"
         stop-opacity="0" />
    </linearGradient>
  </defs>
  <path
     opacity="0.1"
     id="path16"
     d="M 1,2 H 21 V 21 H 1 z" />
  <path
     fill="url(#0)"
     id="path18"
     d="M 1,1 H 21 V 20 H 1 z" />
  <path
     fill="#5288d1"
     id="path20"
     d="M 1,1 H 21 V 7 H 1 z" />
  <g
     fill="none"
     id="g22">
    <path
       stroke="#000"
       opacity="0.4"
       id="path24"
       d="m 1.5,1.5 0,18 19,0 0,-18 -19,0 z" />
    <path
       stroke="url(#1)"
       opacity="0.4"
       id="path26"
       d="m 2.5,2.5 0,16 17,0 0,-16 -17,0 z" />
  </g>
  <rect
     y="8"
     x="3"
     height="10"
     width="16"
     id="rect3360"
     style="opacity:1;fill:#5288d1;fill-opacity:1;fill-rule:evenodd;stroke:none" />
  <path
     opacity="0.4"
     id="path28"
     d="M 2,6 H 20 V 7 H 2 z" />
  <g
     fill="#fff"
     id="g30">
    <path
       opacity="0.4"
       id="path32"
       d="M 3,7 19,7 19,8 3,8 Z" />
    <g
       color="#000"
       fill-rule="evenodd"
       id="g34">
      <path
         id="path36"
         d="M 3,3 4,3 4,4 3,4 Z" />
      <path
         id="path38"
         d="M 6,3 8,3 8,5 6,5 Z" />
      <path
         id="path40"
         d="m 9,4 2,0 0,1 -2,0 z" />
      <path
         id="path42"
         d="M 4,4 5,4 5,5 4,5 Z" />
    </g>
  </g>
  <rect
     y="8"
     x="16"
     height="10"
     width="2"
     id="rect3364"
     style="opacity:1;fill:#ffd506;fill-opacity:1;fill-rule:evenodd;stroke:none" />
  <rect
     style="opacity:1;fill:#ffd506;fill-opacity:1;fill-rule:evenodd;stroke:none"
     id="rect3362"
     width="2"
     height="10"
     x="12"
     y="8" />
  <rect
     style="opacity:1;fill:#171717;fill-opacity:1;fill-rule:evenodd;stroke:none"
     id="rect3368"
     width="11"
     height="6"
     x="5"
     y="10" />
  <rect
     style="opacity:1;fill:#ebebeb;fill-opacity:1;fill-rule:evenodd;stroke:none"
     id="rect4172"
     width="1"
     height="2"
     x="6"
     y="13" />
  <path
     d="m 3.4667969,8.4667969 0,9.0664061 15.0664061,0 0,-9.0664061 -15.0664061,0 z"
     id="path4176"
     style="opacity:0.3;fill:none;fill-opacity:1;fill-rule:evenodd;stroke:#000000" />
  <rect
     y="14"
     x="7"
     height="1"
     width="1"
     id="rect4170"
     style="opacity:1;fill:#ebebeb;fill-opacity:1;fill-rule:evenodd;stroke:none" />
  <rect
     y="11"
     x="6"
     height="1"
     width="9"
     id="rect3366"
     style="opacity:1;fill:#5288d1;fill-opacity:1;fill-rule:evenodd;stroke:none" />
  <g
     color="#000"
     fill-rule="evenodd"
     fill="#c1c1c1"
     id="g44">
    <path
       id="path46"
       d="M 3,4 4,4 4,5 3,5 Z" />
    <path
       id="path48"
       d="M 4,3 5,3 5,4 4,4 Z" />
  </g>
  <metadata
     id="metadata9999">
    <rdf:RDF>
      <cc:Work>
        <dc:format>image/svg+xml</dc:format>
        <dc:type
           rdf:resource="http://purl.org/dc/dcmitype/StillImage" />
        <dc:title></dc:title>
        <cc:license
           rdf:resource="http://creativecommons.org/licenses/by-sa/4.0/" />
        <dc:creator>
          <cc:Agent>
            <dc:title>Sixsixfive (sixsixfive.deviantart.com)</dc:title>
          </cc:Agent>
        </dc:creator>
        <dc:publisher>
          <cc:Agent>
            <dc:title>Sixsixfive (sixsixfive.deviantart.com)</dc:title>
          </cc:Agent>
        </dc:publisher>
        <dc:source>https://github.com/sixsixfive</dc:source>
        <dc:subject>
          <rdf:Bag>
            <rdf:li>ivy</rdf:li>
          </rdf:Bag>
        </dc:subject>
        <dc:contributor>
          <cc:Agent>
            <dc:title>ssf</dc:title>
          </cc:Agent>
        </dc:contributor>
        <dc:rights>
          <cc:Agent>
            <dc:title>Sixsixfive (sixisixfive.deviantart.com)</dc:title>
          </cc:Agent>
        </dc:rights>
        <dc:description>A simple icon theme published under CC-BY-SA_V4(http://creativecommons.org/licenses/by-sa/4.0)</dc:description>
        <dc:identifier>SSF</dc:identifier>
      </cc:Work>
    </rdf:RDF>
  </metadata>
  <!--Part of the Ivy icon them published under the CC-BY-SA_V4: http://creativecommons.org/licenses/by-sa/4.0 -->
</svg>
