<?xml version="1.0" encoding="UTF-8" standalone="no"?>
<svg xmlns:dc="http://purl.org/dc/elements/1.1/" xmlns:cc="http://creativecommons.org/ns#" xmlns:rdf="http://www.w3.org/1999/02/22-rdf-syntax-ns#" xmlns:svg="http://www.w3.org/2000/svg" xmlns="http://www.w3.org/2000/svg" viewBox="0 0 22 22" id="svg2" version="1.1">
 <defs id="defs4">
  <linearGradient id="0" y1="0" y2="21" x2="0" gradientUnits="userSpaceOnUse">
   <stop stop-color="#ff8b36" id="stop7"/>
   <stop offset="1" stop-color="#ff9f58" id="stop9"/>
  </linearGradient>
  <linearGradient id="1" y1="1" y2="20" x2="0" gradientUnits="userSpaceOnUse">
   <stop stop-color="#fff" id="stop12"/>
   <stop offset="1" stop-color="#fff" stop-opacity="0" id="stop14"/>
  </linearGradient>
 </defs>
 <rect width="21" x="1" opacity="0.1" y="1" rx="2" height="21" ry="2" id="rect16"/>
 <rect width="21" x="1" fill="url(#0)" rx="2" height="21" ry="2" id="rect18"/>
 <path opacity="0.2" d="m 5 4 v 2 c 5.93985 0.170292 10.8512 5.09643 11 11 h 2 C 17.863017 10.47677 13.01901 5.1063 6.7293 4.132 6.165477 4.044666 5.58558 4.01425 4.99997 3.999998 z" id="path20"/>
 <path fill="#eeeeec" d="m 5 5 v 2 c 5.93985 0.170292 10.8512 5.09643 11 11 h 2 C 17.863017 11.47677 13.01901 6.1063 6.7293 5.132 6.165477 5.04467 5.58558 5.01425 4.99997 4.999998 z" id="path22"/>
 <path opacity="0.1" d="m 5 9 v 2 c 3.44791 0.161353 5.85231 2.57919 6 6 h 2 C 13 12 10 9 5 9 z" id="path24"/>
 <path fill="#eeeeec" d="m 5 10 v 2 c 3.44791 0.161353 5.85231 2.57919 6 6 h 2 c 0 -5 -3 -8 -8 -8 z" id="path26"/>
 <path opacity="0.1" d="m 6.4827,14.0016 c -0.815081,-0.0022 -1.48268,0.651965 -1.48268,1.48212 0,0.830159 0.666826,1.48539 1.48268,1.48753 0.815082,0.0022 1.48268,-0.651965 1.48268,-1.48212 0,-0.778477 -0.587979,-1.41049 -1.32988,-1.48753 -0.035903,-0.0038 -0.088835,1.38e-4 -0.152794,0 z" id="path28"/>
 <path fill="#eeeeec" d="m 6.4827,15.0016 c -0.815081,-0.0022 -1.48268,0.651965 -1.48268,1.48212 0,0.830159 0.666826,1.48539 1.48268,1.48753 0.815082,0.0022 1.48268,-0.651965 1.48268,-1.48212 0,-0.778477 -0.587979,-1.41049 -1.32988,-1.48753 -0.035903,-0.0038 -0.088835,1.38e-4 -0.152794,0 z" id="path30"/>
 <g id="g32" fill="none">
  <path d="M 3,0.5 C 2.156104,0.5 1.5,1.156104 1.5,2 l 0,17 c 0,0.843896 0.656104,1.5 1.5,1.5 l 17,0 c 0.843896,0 1.5,-0.656104 1.5,-1.5 l 0,-17 C 21.5,1.156104 20.843896,0.5 20,0.5 l -17,0 z" id="path34" opacity="0.4" stroke="#000"/>
  <path d="M 3,1.5 C 2.692658,1.5 2.5,1.692658 2.5,2 l 0,17 c 0,0.307342 0.192658,0.5 0.5,0.5 l 17,0 c 0.307342,0 0.5,-0.192658 0.5,-0.5 l 0,-17 C 20.5,1.692658 20.307342,1.5 20,1.5 l -17,0 z" id="path36" opacity="0.4" stroke="url(#1)"/>
 </g>
 <metadata id="metadata9999">
  <rdf:RDF>
   <cc:Work>
    <dc:format>image/svg+xml</dc:format>
    <dc:type rdf:resource="http://purl.org/dc/dcmitype/StillImage"/>
    <dc:title>Ivy icon theme</dc:title>
    <cc:license rdf:resource="http://creativecommons.org/licenses/by-sa/4.0/"/>
    <dc:creator>
     <cc:Agent>
      <dc:title>Sixsixfive (sixsixfive.deviantart.com)</dc:title>
     </cc:Agent>
    </dc:creator>
    <dc:publisher>
     <cc:Agent>
      <dc:title>Sixsixfive (sixsixfive.deviantart.com)</dc:title>
     </cc:Agent>
    </dc:publisher>
    <dc:source>https://github.com/sixsixfive</dc:source>
    <dc:subject>
     <rdf:Bag>
      <rdf:li>ivy</rdf:li>
     </rdf:Bag>
    </dc:subject>
    <dc:contributor>
     <cc:Agent>
      <dc:title>ssf</dc:title>
     </cc:Agent>
    </dc:contributor>
    <dc:rights>
     <cc:Agent>
      <dc:title>Sixsixfive (sixisixfive.deviantart.com)</dc:title>
     </cc:Agent>
    </dc:rights>
    <dc:description>A simple icon theme published under CC-BY-SA_V4(http://creativecommons.org/licenses/by-sa/4.0)</dc:description>
    <dc:identifier>SSF</dc:identifier>
   </cc:Work>
  </rdf:RDF>
 </metadata>
 <!--Part of the Ivy icon them published under the CC-BY-SA_V4: http://creativecommons.org/licenses/by-sa/4.0 -->
</svg>
