<?xml version="1.0" encoding="UTF-8" standalone="no"?>
<svg xmlns:dc="http://purl.org/dc/elements/1.1/" xmlns:cc="http://creativecommons.org/ns#" xmlns:rdf="http://www.w3.org/1999/02/22-rdf-syntax-ns#" xmlns:svg="http://www.w3.org/2000/svg" xmlns="http://www.w3.org/2000/svg" viewBox="0 0 48 48" id="svg2" version="1.1">
 <defs id="defs4">
  <linearGradient id="0" y1="0.00031" y2="1.00031" x2="0">
   <stop stop-color="#ff9241" id="stop7"/>
   <stop offset="1" stop-color="#ffae73" id="stop9"/>
  </linearGradient>
  <linearGradient id="1" y1="-0.012821" y2="1.013077" x2="0">
   <stop stop-color="#fff" id="stop12"/>
   <stop offset="1" stop-color="#fff" id="stop14" stop-opacity="0"/>
  </linearGradient>
 </defs>
 <g id="g12">
  <path d="m 7,4.987 34,0 c 2.216,0 4,1.784 4,4 l 0,34 c 0,2.216 -1.784,4 -4,4 l -34,0 c -2.216,0 -4,-1.784 -4,-4 l 0,-34 c 0,-2.216 1.784,-4 4,-4 z" id="rect19" opacity="0.1"/>
  <path d="m 7,3.987 34,0 c 2.216,0 4,1.784 4,4 l 0,34 c 0,2.216 -1.784,4 -4,4 l -34,0 c -2.216,0 -4,-1.784 -4,-4 l 0,-34 c 0,-2.216 1.784,-4 4,-4 z" id="rect21" fill="url(#0)"/>
  <g id="g33" fill="none">
   <path id="path35" d="M 7,4.5 C 5.05413,4.5 3.5,6.0541 3.5,8 l 0,34 c 0,1.9459 1.55413,3.5 3.5,3.5 l 34,0 c 1.945869,0 3.5,-1.5541 3.5,-3.5 l 0,-34 C 44.5,6.0541 42.945869,4.5 41,4.5 l -34,0 z" opacity="0.45" stroke="#000"/>
   <path id="path37" d="M 7,5.5 C 5.59262,5.5 4.5,6.5926 4.5,8 l 0,34 c 0,1.407398 1.09262,2.5 2.5,2.5 l 34,0 c 1.407379,0 2.5,-1.092602 2.5,-2.5 l 0,-34 C 43.5,6.5926 42.407379,5.5 41,5.5 l -34,0 z" opacity="0.4" stroke="url(#1)"/>
  </g>
  <g id="g4792" fill="#fff">
   <path id="path4778" d="m 15.732497,16.003578 c -2.261849,-0.0673 -4.536899,0.818171 -6.160196,2.397631 -1.623316,1.579456 -2.573289,3.831919 -2.5723,6.09902 0.00348,2.222195 0.919015,4.429337 2.488614,5.99946 1.569625,1.570097 3.388566,2.500319 5.606623,2.500311 l 0,-8.921482 8.90476,0 c 9.73e-4,-2.183004 -0.915495,-3.932186 -2.432825,-5.498886 -1.517334,-1.566681 -3.656736,-2.511261 -5.834676,-2.576054 z" opacity="0.3"/>
   <path id="path4780" d="m 18,27 0,9 a 8.999999,9.014103 0 0 0 9,-9 l -9,0 z" opacity="0.5"/>
   <g id="g4782">
    <path id="path4784" d="m 30,19 9,0 0,2 -9,0 0,-2 z" opacity="0.3"/>
    <path id="path4786" d="m 30,23 6,0 0,2 -6,0 0,-2 z" opacity="0.3"/>
    <path id="path4788" d="m 30,27 10,0 0,2 -10,0 0,-2 z" opacity="0.3"/>
    <path id="path4790" d="m 30,31 7,0 0,2 -7,0 0,-2 z" opacity="0.3"/>
   </g>
  </g>
  <path id="path4685" d="m 15.732497,15.003577 c -2.261849,-0.0673 -4.536899,0.818172 -6.160196,2.397632 -1.623316,1.579456 -2.573289,3.831919 -2.5723,6.09902 0.00348,2.222195 0.919015,4.429337 2.488614,5.99946 1.569625,1.570095 3.388566,2.500319 5.606623,2.500311 l 0,-8.921482 8.90476,0 c 9.73e-4,-2.183004 -0.915495,-3.932186 -2.432825,-5.498886 -1.517334,-1.566681 -3.656736,-2.511261 -5.834676,-2.576055 z" opacity="0.6" fill="#6a6a6a"/>
  <path id="path4689" d="m 18,26 0,9 a 8.999999,9.014103 0 0 0 9,-9 l -9,0 z" opacity="0.9" fill="#6a6a6a"/>
  <g id="g4701" fill="#6a6a6a">
   <path id="path4703" d="m 30,18 9,0 0,2 -9,0 0,-2 z" opacity="0.5"/>
   <path id="path4705" d="m 30,22 6,0 0,2 -6,0 0,-2 z" opacity="0.5"/>
   <path id="path4707" d="m 30,26 10,0 0,2 -10,0 0,-2 z" opacity="0.5"/>
   <path id="path4709" d="m 30,30 7,0 0,2 -7,0 0,-2 z" opacity="0.5"/>
  </g>
 </g>
 <metadata id="metadata9999">
  <rdf:RDF>
   <cc:Work>
    <dc:format>image/svg+xml</dc:format>
    <dc:type rdf:resource="http://purl.org/dc/dcmitype/StillImage"/>
    <dc:title>Ivy icon theme</dc:title>
    <cc:license rdf:resource="http://creativecommons.org/licenses/by-sa/4.0/"/>
    <dc:creator>
     <cc:Agent>
      <dc:title>Sixsixfive (sixsixfive.deviantart.com)</dc:title>
     </cc:Agent>
    </dc:creator>
    <dc:publisher>
     <cc:Agent>
      <dc:title>Sixsixfive (sixsixfive.deviantart.com)</dc:title>
     </cc:Agent>
    </dc:publisher>
    <dc:source>https://github.com/sixsixfive</dc:source>
    <dc:subject>
     <rdf:Bag>
      <rdf:li>ivy</rdf:li>
     </rdf:Bag>
    </dc:subject>
    <dc:contributor>
     <cc:Agent>
      <dc:title>ssf</dc:title>
     </cc:Agent>
    </dc:contributor>
    <dc:rights>
     <cc:Agent>
      <dc:title>Sixsixfive (sixisixfive.deviantart.com)</dc:title>
     </cc:Agent>
    </dc:rights>
    <dc:description>A simple icon theme published under CC-BY-SA_V4(http://creativecommons.org/licenses/by-sa/4.0)</dc:description>
    <dc:identifier>SSF</dc:identifier>
   </cc:Work>
  </rdf:RDF>
 </metadata>
 <!--Part of the Ivy icon them published under the CC-BY-SA_V4: http://creativecommons.org/licenses/by-sa/4.0 -->
</svg>
