<?xml version="1.0" encoding="UTF-8" standalone="no"?><svg xmlns:cc="http://creativecommons.org/ns#" xmlns:rdf="http://www.w3.org/1999/02/22-rdf-syntax-ns#" xmlns:svg="http://www.w3.org/2000/svg" id="svg2" viewBox="0 0 22 22" version="1.1" xmlns:dc="http://purl.org/dc/elements/1.1/" xmlns="http://www.w3.org/2000/svg"><defs id="defs4"><linearGradient id="0" x2="0" y2="44" gradientTransform="matrix(0.515 0 0 0.5 -1.083 -1)" y1="2" gradientUnits="userSpaceOnUse"><stop id="stop7" stop-color="#dedede"/><stop offset="1" id="stop9" stop-color="#f4f4f4"/></linearGradient><linearGradient id="1" x2="0" y2="20" y1="1" gradientUnits="userSpaceOnUse"><stop id="stop12" stop-color="#fff"/><stop offset="1" id="stop14" stop-color="#fff" stop-opacity="0"/></linearGradient><linearGradient id="0-4" x2="0" y2="16.01" y1="1.986" gradientUnits="userSpaceOnUse"><stop id="stop7-6" stop-color="#959595"/><stop offset="1" id="stop9-4" stop-color="#e2e2e2"/></linearGradient><linearGradient id="1-9" x2="21.641" y2="-0.622" x1="22.11" y1="3.631" gradientUnits="userSpaceOnUse"><stop id="stop12-3" stop-color="#5288d1"/><stop offset="1" id="stop14-2" stop-color="#75a0da"/></linearGradient></defs><rect rx="0.604" height="21" ry="0.604" id="rect16" opacity="0.1" width="18" x="2" y="1"/><rect rx="0.604" height="21" ry="0.604" id="rect18" width="18" x="2" fill="url(#0)"/><g id="g20" fill="none"><path id="path22" opacity="0.4" d="m 2.5938,0.5312 c -0.058216,0 -0.0625,0.00428 -0.0625,0.0625 l 0,19.8125 c 0,0.05822 0.00428,0.0625 0.0625,0.0625 l 16.8125,0 c 0.05822,0 0.0625,-0.0043 0.0625,-0.0625 l 0,-19.8125 c 0,-0.058217 -0.0043,-0.0625 -0.0625,-0.0625 l -16.8125,0 z" stroke="#000"/><path id="path24" opacity="0.8" d="m 3.5312,1.5312 0,17.9375 14.9375,0 0,-17.9375 -14.9375,0 z" stroke="url(#1)"/></g><path id="path26" opacity="0.3" d="M 5,3 H10 V4 H5 z"/><path id="path28" opacity="0.3" d="M 5,5 H9 V6 H5 z"/><path id="path30" opacity="0.3" d="M 5,7 H11 V8 H5 z"/><path id="path32" opacity="0.3" d="M 5,9 H17 V10 H5 z"/><path id="path34" opacity="0.3" d="M 5,11 H12 V12 H5 z"/><path id="path36" opacity="0.3" d="M 5,13 H14 V14 H5 z"/><path id="path38" opacity="0.3" d="M 5,15 H16 V16 H5 z"/><path id="path40" opacity="0.3" d="M 5,17 H12 V18 H5 z"/><g id="g42" fill="#fff"><path id="path44" opacity="0.3" d="m 5,4 5,0 0,1 -5,0 z"/><path id="path46" opacity="0.3" d="M 5,6 9,6 9,7 5,7 Z"/><path id="path48" opacity="0.3" d="m 5,8 6,0 0,1 -6,0 z"/><path id="path50" opacity="0.3" d="m 5,10 12,0 0,1 -12,0 z"/><path id="path52" opacity="0.3" d="m 5,12 7,0 0,1 -7,0 z"/><path id="path54" opacity="0.3" d="m 5,14 9,0 0,1 -9,0 z"/><path id="path56" opacity="0.3" d="m 5,16 11,0 0,1 -11,0 z"/><path id="path58" opacity="0.3" d="m 5,18 7,0 0,1 -7,0 z"/><path id="path60" opacity="0.3" d="m 12,4 5,0 0,4 -5,0 z"/></g><path id="path62" opacity="0.3" d="M 12,3 H17 V7 H12 z"/><g id="g64" fill="#fff"><path id="path66" opacity="0.6" d="m 12,5 1,0 0,2 -1,0 z"/><path id="path68" opacity="0.6" d="m 13,6 1,0 0,1 -1,0 z"/><path id="path70" opacity="0.6" d="m 14,6 1,0 0,1 -1,0 z"/><path id="path72" opacity="0.6" d="m 15,6 1,0 0,1 -1,0 z"/><path id="path74" opacity="0.6" d="m 16,6 1,0 0,1 -1,0 z"/><path id="path76" opacity="0.6" d="m 15,4 1,0 0,1 -1,0 z"/></g><ellipse stroke-linecap="round" fill-opacity="1" rx="4.9844" ry="5" id="path4331" stroke-miterlimit="4" stroke-dasharray="none" cx="8.0156" cy="9" opacity="0.2" stroke-width="1" stroke="none" stroke-linejoin="miter" stroke-dashoffset="0" fill-rule="evenodd" fill="#5288d1" stroke-opacity="1"/><metadata id="metadata9999"><rdf:RDF><cc:Work><dc:format>image/svg+xml</dc:format><dc:type rdf:resource="http://purl.org/dc/dcmitype/StillImage"/><dc:title/><cc:license rdf:resource="http://creativecommons.org/licenses/by-sa/4.0/"/><dc:creator><cc:Agent><dc:title>Sixsixfive (sixsixfive.deviantart.com)</dc:title></cc:Agent></dc:creator><dc:publisher><cc:Agent><dc:title>Sixsixfive (sixsixfive.deviantart.com)</dc:title></cc:Agent></dc:publisher><dc:source>https://github.com/sixsixfive</dc:source><dc:subject><rdf:Bag><rdf:li>ivy</rdf:li></rdf:Bag></dc:subject><dc:contributor><cc:Agent><dc:title>ssf</dc:title></cc:Agent></dc:contributor><dc:rights><cc:Agent><dc:title>Sixsixfive (sixisixfive.deviantart.com)</dc:title></cc:Agent></dc:rights><dc:description>A simple icon theme published under CC-BY-SA_V4(http://creativecommons.org/licenses/by-sa/4.0)</dc:description><dc:identifier>SSF</dc:identifier></cc:Work></rdf:RDF></metadata><!--Part of the Ivy icon them published under the CC-BY-SA_V4: http://creativecommons.org/licenses/by-sa/4.0 -->
<g id="g4319" transform="matrix(1 0 0 1 0.00860956 0.03953849)"><path id="rect16-9" opacity="0.1" d="m 20.038,0.41499999 8.418,0 c 1.000524,0 1.806,0.80547601 1.806,1.80600001 l 0,0.4959998 c 0,1.000524 -0.805476,1.806 -1.806,1.806 l -8.418,0 c -1.000524,0 -1.806,-0.805476 -1.806,-1.806 l 0,-0.4959998 c 0,-1.000524 0.805476,-1.80600001 1.806,-1.80600001 z" transform="matrix(0.76273 0.64672 -0.73009 0.68335 0 0)"/><path id="path18" opacity="0.1" d="m 13.625,13.312918 c -0.364986,0.01083 -0.706664,0.129691 -0.96875,0.375 l -0.375,0.34375 c -0.528459,0.494629 -0.492153,1.154707 0.0625,1.625 l 6.4375,5.4375 c 0.554045,0.469779 1.406035,0.434938 1.9375,-0.0625 l 0.375,-0.3125 c 0.524058,-0.490509 0.486019,-1.191161 -0.0625,-1.65625 l -6.40625,-5.4375 c -0.270801,-0.229615 -0.638081,-0.323239 -1,-0.3125 z" stroke="#000"/><path id="path20" opacity="0.1" d="m 8,3.00042 c -3.865993,0 -7,3.134008 -7,7 0,3.865993 3.134007,7 7,7 3.865993,0 7,-3.134007 7,-7 0,-3.865994 -3.134007,-7 -7,-7 z m 0,3 c 2.209139,0 4,1.790861 4,4 0,2.209139 -1.790861,4 -4,4 -2.209139,0 -4,-1.790861 -4,-4 0,-2.209141 1.790861,-4 4,-4 z"/><path id="path22-0" opacity="0.1" d="m 8,3.562918 c -3.567114,0 -6.4375,2.870386 -6.4375,6.4375 0,3.567114 2.870386,6.4375 6.4375,6.4375 3.567114,0 6.4375,-2.870386 6.4375,-6.4375 0,-3.567113 -2.870386,-6.4375 -6.4375,-6.4375 z m 0,1.875 c 2.508018,0 4.5625,2.054482 4.5625,4.5625 0,2.508018 -2.054482,4.5625 -4.5625,4.5625 -2.508018,0 -4.5625,-2.054482 -4.5625,-4.5625 0,-2.508017 2.054482,-4.5625 4.5625,-4.5625 z" stroke="#000"/><path id="rect24" d="m 19.303,-0.35299999 8.417999,0 c 1.000524,0 1.806,0.805476 1.806,1.80599999 l 0,0.4959998 c 0,1.000524 -0.805476,1.806 -1.806,1.806 l -8.417999,0 c -1.000524,0 -1.806,-0.805476 -1.806,-1.806 l 0,-0.4959998 c 0,-1.00052399 0.805476,-1.80599999 1.806,-1.80599999 z" transform="matrix(0.76273 0.64672 -0.73009 0.68335 0 0)" fill="url(#1-9)"/><path id="path26-5" opacity="0.6" d="m 13.625,12.3125 c -0.364986,0.01083 -0.706664,0.129691 -0.96875,0.375 l -0.375,0.34375 c -0.528459,0.494629 -0.492153,1.154707 0.0625,1.625 l 6.4375,5.4375 c 0.554045,0.469779 1.406035,0.434938 1.9375,-0.0625 l 0.375,-0.3125 c 0.524058,-0.490509 0.486019,-1.191161 -0.0625,-1.65625 L 14.625,12.625 c -0.270801,-0.229615 -0.638081,-0.323239 -1,-0.3125 z" stroke="#000" fill="none"/><path id="path28-0" d="M 8,2 C 4.134007,2 1,5.134008 1,9 c 0,3.865993 3.134007,7 7,7 3.865993,0 7,-3.134007 7,-7 C 15,5.134008 11.865993,2 8,2 Z m 0,3 c 2.209139,0 4,1.790861 4,4 0,2.209139 -1.790861,4 -4,4 C 5.790861,13 4,11.209139 4,9 4,6.790861 5.790861,5 8,5 Z" fill="url(#0-4)"/><path id="path30-2" opacity="0.4" d="M 8,2.5625 C 4.432886,2.5625 1.5625,5.432886 1.5625,9 c 0,3.567114 2.870386,6.4375 6.4375,6.4375 3.567114,0 6.4375,-2.870386 6.4375,-6.4375 C 14.4375,5.432886 11.567114,2.5625 8,2.5625 Z m 0,1.875 c 2.508018,0 4.5625,2.054482 4.5625,4.5625 0,2.508018 -2.054482,4.5625 -4.5625,4.5625 C 5.491982,13.5625 3.4375,11.508018 3.4375,9 3.4375,6.491982 5.491982,4.4375 8,4.4375 Z" stroke="#000" fill="none"/></g><path stroke-linecap="butt" id="path4333" opacity="0.5" stroke-width="1" d="M 3.4886928,6 C 5.8783014,2.5679267 10.454601,3 12.878301,6.2433972" stroke="#fff" stroke-linejoin="miter" fill-rule="evenodd" fill="none" stroke-opacity="1"/><path stroke-linecap="butt" id="path4335" opacity="0.4" stroke-width="1" d="m 13.914205,13.197135 6.896253,5.800967" stroke="#fff" stroke-linejoin="miter" fill-rule="evenodd" fill="none" stroke-opacity="1"/></svg>