<?xml version="1.0" encoding="UTF-8" standalone="no"?>
<svg xmlns:dc="http://purl.org/dc/elements/1.1/" xmlns:cc="http://creativecommons.org/ns#" xmlns:rdf="http://www.w3.org/1999/02/22-rdf-syntax-ns#" xmlns:svg="http://www.w3.org/2000/svg" xmlns="http://www.w3.org/2000/svg" xmlns:xlink="http://www.w3.org/1999/xlink" viewBox="0 0 48 48" version="1.1" id="svg2">
 <defs id="defs4">
  <linearGradient id="linearGradient4287">
   <stop id="stop4289" stop-color="#dcdcdc"/>
   <stop offset="1" id="stop4291" stop-color="#f2f2f2"/>
  </linearGradient>
  <linearGradient id="linearGradient4171">
   <stop id="stop4173" stop-color="#5288d1"/>
   <stop offset="1" id="stop4175" stop-color="#76a0db"/>
  </linearGradient>
  <linearGradient id="linearGradient4163">
   <stop id="stop4165" stop-color="#fff"/>
   <stop offset="1" id="stop4167" stop-color="#fff" stop-opacity="0"/>
  </linearGradient>
  <linearGradient xlink:href="#linearGradient4163" id="linearGradient4169" y1="1" x2="0" y2="47" gradientUnits="userSpaceOnUse"/>
  <linearGradient xlink:href="#linearGradient4171" id="linearGradient4177" y1="1" x2="0" y2="47" gradientUnits="userSpaceOnUse"/>
  <linearGradient xlink:href="#linearGradient4287" id="linearGradient4293" y1="1013.3622" x2="0" y2="1043.3622" gradientUnits="userSpaceOnUse"/>
 </defs>
 <g id="layer1" transform="translate(0,-1004.3622)">
  <g id="text3338">
   <path d="M 11,1 C 5.46,1 1,5.46 1,11 l 0,26 c 0,0.337665 0.016456,0.671125 0.048828,1 L 1,38 l 0,9 9,0 0,-0.04883 C 10.328875,46.983544 10.662335,47 11,47 l 26,0 c 5.54,0 10,-4.46 10,-10 l 0,-26 c 0,-0.337665 -0.01646,-0.671125 -0.04883,-1 L 47,10 47,1 38,1 38,1.0488281 C 37.671125,1.0164562 37.337665,1 37,1 L 11,1 Z" transform="translate(0,1004.3622)" id="rect3349" fill="url(#linearGradient4177)" fill-rule="evenodd"/>
   <path id="path4285" d="m 24.179688,1012.4355 a 0.9222318,0.9222318 0 0 0 -0.183594,0.018 c -7.01e-4,0 -0.0013,0 -0.002,0 -2.364808,0.01 -4.558848,0.1661 -6.552735,0.502 a 0.9222318,0.9222318 0 0 0 -0.002,0 c -2.05057,0.3472 -3.839453,0.8953 -5.365234,1.6582 a 0.9222318,0.9222318 0 0 0 -0.002,0 c -1.524755,0.768 -2.7563792,1.784 -3.6386722,3.041 -0.9036931,1.2773 -1.3476563,2.8256 -1.3476563,4.541 0,0.2175 0.021348,0.4368 0.064453,0.6524 a 0.9222318,0.9222318 0 0 0 0.017578,0.072 c 0.1067863,0.3738 0.3478533,0.6659 0.609375,0.875 a 0.9222318,0.9222318 0 0 0 0.052734,0.039 c 0.327059,0.2249 0.6778935,0.3358 1.0820313,0.4238 a 0.9222318,0.9222318 0 0 0 0.029297,0.01 c 0.4373038,0.08 0.9549242,0.1113 1.5957032,0.1113 0.526234,0 0.982049,-0.045 1.427735,-0.2656 0.329009,-0.1582 0.63318,-0.3634 0.863281,-0.6856 0.169019,-0.2366 0.314268,-0.5155 0.34375,-0.8691 l -0.002,0 c 0.01088,-0.1303 0.01953,-0.1245 0.01953,-0.2949 0,-0.2795 0.06621,-0.5828 0.228516,-0.9317 0.152461,-0.3277 0.400982,-0.6706 0.773437,-1.0254 0.368419,-0.3508 0.857931,-0.7029 1.472656,-1.039 0.20304,-0.1111 0.508967,-0.1903 0.742188,-0.293 -0.01562,0.096 -0.03787,0.2047 -0.05273,0.2988 -0.0948,0.6004 -0.194132,1.2413 -0.298828,1.9219 l 0.002,0 c -0.10332,0.661 -0.230911,1.4044 -0.376953,2.2285 -0.113819,0.6422 -0.287074,1.4537 -0.466797,2.2851 -0.04336,0.01 -0.08079,0.013 -0.125,0.022 -0.266149,0.053 -0.573876,0.116 -0.921875,0.1895 -0.341677,0.064 -0.729097,0.143 -1.166016,0.2363 -0.441336,0.094 -0.952962,0.2045 -1.539062,0.3301 a 0.9222318,0.9222318 0 0 0 -0.09766,0.027 c -0.370459,0.1229 -0.746628,0.3693 -0.972656,0.7461 -0.173947,0.2898 -0.271484,0.6386 -0.271484,0.9766 0,0.4576 0.191052,0.9509 0.521484,1.2812 0.25709,0.2572 0.565582,0.4568 0.898437,0.6016 a 0.9222318,0.9222318 0 0 0 0.03125,0.014 c 0.300392,0.1171 0.616224,0.2034 0.94336,0.2558 0.299875,0.048 0.564671,0.072 0.80664,0.072 l 0.783204,0 c -0.09824,0.4491 -0.189075,0.8994 -0.296875,1.3476 -0.194913,0.8104 -0.40605,1.5878 -0.63086,2.334 -0.223976,0.7331 -0.461195,1.4165 -0.71289,2.0508 -0.246397,0.6103 -0.506,1.1377 -0.769532,1.5801 a 0.9222318,0.9222318 0 0 0 -0.002,0.01 c -0.243717,0.4153 -0.489127,0.7141 -0.714844,0.9121 -0.193719,0.16 -0.303933,0.1895 -0.40625,0.1895 -0.357495,0 -0.7105857,-0.047 -1.0664062,-0.1426 -0.4131074,-0.1109 -0.8150268,-0.2313 -1.2050781,-0.3613 -0.4140671,-0.1482 -0.8215834,-0.2828 -1.2167969,-0.4004 -0.4527754,-0.1379 -0.9064097,-0.2109 -1.3535156,-0.2109 -0.4820969,0 -0.9835545,0.1626 -1.3652344,0.4707 a 0.9222318,0.9222318 0 0 0 -0.017578,0.014 c -0.2844852,0.2418 -0.5283531,0.5311 -0.7246093,0.8536 a 0.9222318,0.9222318 0 0 0 -0.015625,0.025 c -0.171366,0.3033 -0.3067324,0.6246 -0.4003907,0.959 a 0.9222318,0.9222318 0 0 0 -0.00586,0.025 c -0.07418,0.2968 -0.1210938,0.558 -0.1210938,0.836 0,0.4834 0.1602533,0.9754 0.4550781,1.3613 0.2508193,0.3367 0.568342,0.6236 0.9335938,0.8535 0.3558134,0.224 0.7486036,0.3994 1.1679687,0.5352 0.3977287,0.1356 0.7986085,0.2456 1.203125,0.3261 0.3944214,0.078 0.7771822,0.1356 1.1484375,0.17 0.354866,0.033 0.6676729,0.051 0.9492188,0.051 1.2407551,0 2.3733141,-0.1793 3.3867191,-0.5605 l 0.002,0 c 0.986885,-0.361 1.874127,-0.8805 2.640625,-1.5527 0.759619,-0.6661 1.409546,-1.4656 1.947265,-2.3809 0.524522,-0.8928 0.974044,-1.8728 1.347657,-2.9375 l 0.002,0 c 0.381914,-1.07 0.694744,-2.2112 0.943359,-3.4219 0.193544,-0.9425 0.356362,-1.9365 0.515625,-2.9355 0.167792,0 0.257813,2e-4 0.462891,-0.01 a 0.9222318,0.9222318 0 0 0 0.0078,0 c 0.543153,-0.021 1.138507,-0.043 1.785156,-0.062 0.658021,-0.021 1.339058,-0.04 2.041016,-0.06 a 0.9222318,0.9222318 0 0 0 0.01563,0 c 0.06598,0 0.11789,-0.01 0.181641,-0.01 -0.258712,2.5219 -0.275751,5.0841 0.01953,7.6192 a 0.9222318,0.9222318 0 0 0 0.0078,0.047 c 0.199176,1.1692 0.370409,2.985 1.923828,3.9726 a 0.9222318,0.9222318 0 0 0 0.08984,0.051 c 0.798775,0.3898 1.668443,0.2955 2.341797,0.012 0.673354,-0.2838 1.213501,-0.7316 1.636719,-1.1797 a 0.9222318,0.9222318 0 0 0 0.0039,0 c 0.99852,-1.0708 1.714589,-2.3043 2.294922,-3.5859 0.02595,0.5475 0.0081,1.084 0.05859,1.6348 a 0.9222318,0.9222318 0 0 0 0.01367,0.1 c 0.063,0.3113 0.08411,0.7923 0.183593,1.3339 0.09948,0.5417 0.30598,1.2025 0.867188,1.7012 a 0.9222318,0.9222318 0 0 0 0.539062,0.2305 c 1.576775,0.1283 2.652994,-0.9963 3.355469,-1.7754 a 0.9222318,0.9222318 0 0 0 0.04297,-0.051 c 1.501083,-1.9303 3.063585,-3.7741 4.673828,-6.5488 a 0.9222318,0.9222318 0 0 0 0.0332,-0.061 c 0.683664,-1.4103 1.78512,-2.8336 2.355469,-4.6757 0.240428,-0.5476 0.350142,-1.1692 0.205078,-1.8145 -0.145142,-0.6457 -0.669528,-1.3181 -1.439453,-1.5566 -1.484438,-0.5304 -3.408865,-0.3482 -4.509766,1.0957 a 0.9222318,0.9222318 0 0 0 -0.101562,0.166 c -0.499212,1.0636 -0.990029,2.1286 -1.484375,3.1933 0.125797,-0.8013 0.250972,-1.6029 0.376953,-2.4043 l -0.0293,0.1329 c 0.22822,-0.7298 -0.119416,-1.4992 -0.582031,-1.8887 -0.44697,-0.3764 -0.982453,-0.5394 -1.556641,-0.5195 -1.636705,-0.1123 -3.191273,0.7191 -4.017578,2.1113 -4.84e-4,8e-4 -0.0015,0 -0.002,0 -0.456825,0.7482 -0.780533,1.5274 -1.123047,2.3008 l 0.269531,-2.0137 -0.03516,0.1563 c 0.314833,-0.9869 -0.221443,-2.1633 -1.310547,-2.4414 a 0.9222318,0.9222318 0 0 0 -0.05469,-0.014 c -0.132682,-0.025 -0.263261,-0.045 -0.384766,-0.064 -6.87e-4,-10e-5 0.27158,0.1182 0.355469,0.1543 -0.345434,-0.2451 -0.733275,-0.3321 -1.091797,-0.3321 l -7.701172,0 c 0.08307,-0.8314 0.168367,-1.7009 0.240235,-2.3261 0.104361,-0.9079 0.198304,-1.6801 0.28125,-2.3125 0.08272,-0.6411 0.149256,-1.1573 0.201171,-1.5625 0.06246,-0.406 0.11443,-0.7387 0.15625,-1 0.02195,-0.1372 0.03254,-0.2172 0.04883,-0.3242 0.186557,-0.022 0.382953,-0.05 0.5625,-0.068 a 0.9222318,0.9222318 0 0 0 0.01367,0 c 0.35439,-0.041 0.719345,-0.075 1.097657,-0.1055 0.384592,-0.03 0.706958,-0.047 0.951172,-0.047 0.941982,0 1.868344,0.018 2.78125,0.049 a 0.9222318,0.9222318 0 0 0 0.0098,0 c 0.918861,0.021 1.805589,0.061 2.658203,0.123 a 0.9222318,0.9222318 0 0 0 0.01172,0 c 0.852102,0.051 1.666807,0.1249 2.445313,0.2168 a 0.9222318,0.9222318 0 0 0 0.0098,0 c 0.779975,0.082 1.50134,0.1794 2.160156,0.291 0.03326,0.01 0.06755,0.014 0.06055,0.012 a 0.9222318,0.9222318 0 0 0 0.234375,0.029 l 0.142578,0 c 0.398063,0 0.807613,-0.095 1.158203,-0.3106 a 0.9222318,0.9222318 0 0 0 0.0098,-0.01 c 0.306717,-0.1937 0.575129,-0.4578 0.765625,-0.7696 0.163066,-0.2668 0.280963,-0.5608 0.355469,-0.8671 0.07865,-0.2834 0.125,-0.5702 0.125,-0.8555 0,-0.5119 -0.195384,-1.0134 -0.501953,-1.416 -0.383737,-0.519 -0.946693,-0.7903 -1.589844,-0.9668 a 0.9222318,0.9222318 0 0 0 -0.115234,-0.024 c -1.877098,-0.265 -3.703324,-0.4503 -5.478516,-0.5566 l -0.002,0 c -1.755341,-0.1061 -3.440307,-0.1602 -5.052734,-0.1602 z m 4.697265,13.1368 a 0.9222318,0.9222318 0 0 0 -0.144531,-0.012 c -0.01371,0 0.145326,0.012 0.144531,0.012 z M 29.513672,1026 c 0.0026,0 0.01563,0.027 0.01953,0.035 A 0.9222318,0.9222318 0 0 0 29.513672,1026 Z" opacity="0.3"/>
   <path d="m 24.179683,1013.3622 c -2.399367,0 -4.595197,0.1686 -6.585938,0.5039 -1.980263,0.3353 -3.682471,0.8598 -5.107422,1.5723 -1.414473,0.7125 -2.5149624,1.6289 -3.3007811,2.75 -0.7858187,1.1107 -1.1777344,2.4467 -1.1777344,4.0078 0,0.1571 0.015442,0.3135 0.046875,0.4707 0.04191,0.1467 0.1416644,0.2825 0.2988281,0.4082 0.1676413,0.1153 0.4186236,0.2102 0.7539063,0.2832 0.3457602,0.063 0.8219877,0.094 1.4296871,0.094 0.450537,0 0.792931,-0.057 1.023438,-0.1718 0.240984,-0.1153 0.412802,-0.2459 0.517578,-0.3926 0.10477,-0.1467 0.163348,-0.2845 0.173828,-0.4102 0.01052,-0.126 0.01563,-0.1977 0.01563,-0.2187 0,-0.4296 0.104901,-0.8698 0.314453,-1.3203 0.209552,-0.4505 0.532598,-0.8856 0.972657,-1.3047 0.440057,-0.4191 0.995449,-0.813 1.666015,-1.1797 0.670565,-0.3667 1.461497,-0.6815 2.373047,-0.9434 -0.125731,0.6706 -0.235778,1.3052 -0.330078,1.9024 -0.0943,0.5972 -0.192099,1.2369 -0.296875,1.918 -0.104776,0.6704 -0.23222,1.4183 -0.378906,2.246 -0.146686,0.8277 -0.344241,1.8028 -0.595703,2.9239 -0.22003,0.031 -0.460718,0.074 -0.722657,0.1269 -0.26194,0.052 -0.566349,0.1145 -0.912109,0.1875 -0.335283,0.063 -0.724005,0.1424 -1.164063,0.2364 -0.440059,0.094 -0.952318,0.2043 -1.539062,0.33 -0.220029,0.073 -0.378358,0.1885 -0.472656,0.3457 -0.0943,0.1571 -0.140625,0.3239 -0.140625,0.502 0,0.2515 0.08431,0.4613 0.251953,0.6289 0.167641,0.1677 0.372297,0.3034 0.613281,0.4082 0.240984,0.094 0.491966,0.1631 0.753906,0.2051 0.261939,0.042 0.482037,0.062 0.660156,0.062 l 1.931641,0 c -0.167642,0.8277 -0.349754,1.6567 -0.548828,2.4844 -0.199075,0.8277 -0.414025,1.6237 -0.644531,2.3886 -0.230507,0.7544 -0.476343,1.461 -0.738282,2.1211 -0.261939,0.6496 -0.540612,1.2204 -0.833984,1.7129 -0.282895,0.482 -0.585351,0.8655 -0.910156,1.1484 -0.324805,0.2724 -0.660099,0.4082 -1.005859,0.4082 -0.440059,0 -0.8751071,-0.059 -1.304688,-0.1738 -0.4295809,-0.1153 -0.8491868,-0.2407 -1.2578125,-0.3769 -0.4086257,-0.1467 -0.807642,-0.2774 -1.1953125,-0.3926 -0.377193,-0.1149 -0.7382242,-0.1719 -1.0839844,-0.1719 -0.3038499,0 -0.565127,0.088 -0.7851562,0.2656 -0.2095517,0.1781 -0.3884702,0.3879 -0.5351563,0.6289 -0.1362086,0.241 -0.2411101,0.4921 -0.3144531,0.754 C 4.030885,1040.5823 4,1040.7869 4,1040.944 c 0,0.3039 0.089459,0.5726 0.2675781,0.8047 0.1781189,0.2409 0.4085116,0.4508 0.6914063,0.6289 0.2828947,0.1781 0.6027465,0.3242 0.9589844,0.4395 0.3667154,0.1257 0.732894,0.2258 1.0996093,0.2988 0.3667154,0.073 0.7174517,0.1253 1.0527344,0.1563 0.3352827,0.031 0.62425,0.047 0.8652344,0.047 1.1525341,0 2.1738591,-0.1666 3.0644531,-0.5019 0.890595,-0.3248 1.676379,-0.7855 2.357422,-1.3828 0.681043,-0.5972 1.26732,-1.3161 1.759766,-2.1543 0.492447,-0.8382 0.917199,-1.765 1.273437,-2.7813 0.366715,-1.0268 0.671125,-2.1273 0.912109,-3.3008 0.240985,-1.1735 0.453981,-2.3943 0.642578,-3.6621 0.272418,0 0.676581,0 1.210938,-0.016 0.544835,-0.021 1.141406,-0.042 1.791016,-0.062 0.660088,-0.021 1.342924,-0.042 2.044922,-0.062 0.489069,-0.022 0.912573,-0.04 1.345703,-0.057 -0.08532,0.3511 -0.150567,0.7054 -0.205079,1.0468 -0.254309,2.4681 -0.269655,4.9696 0.01758,7.4356 0.203807,1.1964 0.394613,2.6406 1.509765,3.3496 1.05384,0.5143 2.189277,-0.2157 2.904297,-0.9727 1.689809,-1.8121 2.621507,-4.1844 3.298828,-6.5332 0.153715,0.023 0.313226,0.051 0.46875,0.076 0.0065,1.6855 0.02378,3.373 0.177735,5.0527 0.169986,0.84 0.0729,1.9189 0.759765,2.5293 1.068943,0.087 1.930298,-0.7346 2.595703,-1.4726 1.516392,-1.95 3.036231,-3.7412 4.605469,-6.4453 0.753473,-1.5544 1.844175,-2.9534 2.339844,-4.625 0.344388,-0.7691 0.284177,-1.8736 -0.671875,-2.1524 -1.162133,-0.4248 -2.707183,-0.245 -3.494141,0.7871 -1.217312,2.5937 -2.415408,5.1975 -3.625,7.795 -0.164398,0.2191 -0.150511,0.6948 -0.509765,0.6308 0.428261,-2.7241 0.854942,-5.4479 1.283203,-8.1719 0.231754,-0.7411 -0.599274,-1.2694 -1.257813,-1.2304 -1.29608,-0.1158 -2.566169,0.5673 -3.226562,1.6816 -1.217469,1.9904 -1.903171,4.2473 -2.84375,6.3711 -0.299851,0.3946 -0.275949,1.2546 -0.792969,1.3496 l 1.076172,-8.0273 c 0.168504,-0.5282 -0.09669,-1.1257 -0.660156,-1.2696 -0.115227,-0.022 -0.235965,-0.043 -0.355469,-0.062 -0.0036,0 -0.0061,0 -0.0098,-0.01 -0.136209,-0.1052 -0.330569,-0.1563 -0.582031,-0.1563 l -8.722656,0 c 0.125731,-1.2573 0.240927,-2.442 0.345703,-3.3535 0.104776,-0.9115 0.199383,-1.6871 0.283203,-2.3262 0.08382,-0.6496 0.150735,-1.1772 0.203125,-1.5859 0.06287,-0.4086 0.116293,-0.744 0.158203,-1.0059 0.04191,-0.2619 0.0728,-0.4665 0.09375,-0.6132 0.02095,-0.1467 0.03125,-0.2773 0.03125,-0.3926 0.450536,-0.063 0.885585,-0.1162 1.304688,-0.1582 0.366715,-0.042 0.743188,-0.078 1.130859,-0.1094 0.398148,-0.031 0.740543,-0.047 1.023438,-0.047 0.95346,0 1.890473,0.016 2.8125,0.047 0.932505,0.021 1.833486,0.062 2.703124,0.125 0.86964,0.052 1.701751,0.1267 2.498047,0.2207 0.796297,0.084 1.535754,0.1835 2.216797,0.2988 0.05239,0.01 0.09871,0.02 0.140625,0.031 l 0.142578,0 c 0.261939,0 0.487185,-0.058 0.675782,-0.1738 0.199074,-0.1257 0.35545,-0.2821 0.470703,-0.4707 0.115255,-0.1886 0.199563,-0.3932 0.251953,-0.6133 0.06287,-0.22 0.09375,-0.4298 0.09375,-0.6289 0,-0.3039 -0.104902,-0.5929 -0.314453,-0.8653 -0.199074,-0.2724 -0.565253,-0.4822 -1.09961,-0.6289 -1.854533,-0.2619 -3.656494,-0.4441 -5.40625,-0.5488 -1.739279,-0.1052 -3.405453,-0.1582 -4.998046,-0.1582 z" id="path3345" fill="url(#linearGradient4293)"/>
   <path id="path4159" d="M 11,1.484375 C 5.7201412,1.484375 1.484375,5.7201412 1.484375,11 l 0,26 c 0,0.321917 0.016063,0.640101 0.046875,0.953125 a 0.484751,0.484751 0 0 1 -0.046875,0.257813 l 0,8.304687 8.3046875,0 a 0.484751,0.484751 0 0 1 0.2578125,-0.04687 c 0.31302,0.03081 0.631206,0.04687 0.953125,0.04687 l 26,0 c 5.279859,0 9.515625,-4.235766 9.515625,-9.515625 l 0,-26 c 0,-0.321915 -0.01606,-0.640097 -0.04687,-0.953125 a 0.484751,0.484751 0 0 1 0.04687,-0.2578125 l 0,-8.3046875 -8.304687,0 A 0.484751,0.484751 0 0 1 37.953125,1.53125 C 37.6401,1.5004383 37.321917,1.484375 37,1.484375 l -26,0 z" transform="translate(0,1004.3622)" opacity="0.4" fill="none" fill-rule="evenodd" stroke="#000"/>
   <path transform="translate(0,1004.3622)" d="M 11,2.5078125 C 6.2691523,2.5078125 2.5078125,6.2691523 2.5078125,11 l 0,26 c 0,0.288682 0.013497,0.57199 0.041016,0.851562 a 1.5077866,1.5077866 0 0 1 -0.041016,0.521485 l 0,7.119141 7.1152344,0 a 1.5077866,1.5077866 0 0 1 0.5253911,-0.04102 c 0.27956,0.02752 0.562874,0.04102 0.851562,0.04102 l 26,0 c 4.730848,0 8.492187,-3.76134 8.492188,-8.492188 l 0,-26 c 0,-0.288676 -0.0135,-0.571978 -0.04102,-0.851562 a 1.5077866,1.5077866 0 0 1 0.04102,-0.5214849 l 0,-7.1191406 -7.115235,0 a 1.5077866,1.5077866 0 0 1 -0.525391,0.041016 C 37.571989,2.5213091 37.288682,2.5078125 37,2.5078125 l -26,0 z" id="path4161" opacity="0.3" fill="none" fill-rule="evenodd" stroke="url(#linearGradient4169)"/>
  </g>
 </g>
 <metadata id="metadata9999">
  <rdf:RDF>
   <cc:Work>
    <dc:format>image/svg+xml</dc:format>
    <dc:type rdf:resource="http://purl.org/dc/dcmitype/StillImage"/>
    <dc:title>Ivy icon theme</dc:title>
    <cc:license rdf:resource="http://creativecommons.org/licenses/by-sa/4.0/"/>
    <dc:creator>
     <cc:Agent>
      <dc:title>Sixsixfive (sixsixfive.deviantart.com)</dc:title>
     </cc:Agent>
    </dc:creator>
    <dc:publisher>
     <cc:Agent>
      <dc:title>Sixsixfive (sixsixfive.deviantart.com)</dc:title>
     </cc:Agent>
    </dc:publisher>
    <dc:source>https://github.com/sixsixfive</dc:source>
    <dc:subject>
     <rdf:Bag>
      <rdf:li>ivy</rdf:li>
     </rdf:Bag>
    </dc:subject>
    <dc:contributor>
     <cc:Agent>
      <dc:title>ssf</dc:title>
     </cc:Agent>
    </dc:contributor>
    <dc:rights>
     <cc:Agent>
      <dc:title>Sixsixfive (sixisixfive.deviantart.com)</dc:title>
     </cc:Agent>
    </dc:rights>
    <dc:description>A simple icon theme published under CC-BY-SA_V4(http://creativecommons.org/licenses/by-sa/4.0)</dc:description>
    <dc:identifier>SSF</dc:identifier>
   </cc:Work>
  </rdf:RDF>
 </metadata>
 <!--Part of the Ivy icon them published under the CC-BY-SA_V4: http://creativecommons.org/licenses/by-sa/4.0 -->
</svg>
