<?xml version="1.0" encoding="UTF-8" standalone="no"?><svg xmlns:cc="http://creativecommons.org/ns#" xmlns:dc="http://purl.org/dc/elements/1.1/" xmlns:svg="http://www.w3.org/2000/svg" xmlns="http://www.w3.org/2000/svg" xmlns:rdf="http://www.w3.org/1999/02/22-rdf-syntax-ns#" id="svg2" version="1.1" viewBox="0 0 22 22"><defs id="defs4"><linearGradient gradientTransform="matrix(0.45 0 0 0.47368 0.2 0.096)" gradientUnits="userSpaceOnUse" y1="3.722" id="0" x1="43.891" y2="41.885" x2="44.14"><stop id="stop7" stop-color="#d4d4d4"/><stop id="stop9" stop-color="#ebebeb" offset="1"/></linearGradient><linearGradient gradientTransform="matrix(0.45 0 0 0.455 0.2 0.171)" gradientUnits="userSpaceOnUse" y1="4.405" id="1" x1="23.73" y2="23.558" x2="23.712"><stop id="stop12" stop-color="#5288d1"/><stop id="stop14" stop-color="#7ca5dc" offset="1"/></linearGradient><linearGradient gradientUnits="userSpaceOnUse" y1="3.03" id="2" x1="18.969" y2="19" x2="19"><stop id="stop17" stop-color="#fff"/><stop stop-opacity="0" id="stop19" stop-color="#fff" offset="1"/></linearGradient></defs><path opacity="0.1" d="M 2,3 H20 V21 H2 z" id="path21"/><path d="M 2,2 H20 V20 H2 z" id="path23" fill="url(#0)"/><path d="M 2,2 H11 V11 H2 z" id="path25" fill="url(#1)"/><g id="g27" fill="none"><path stroke="#000" opacity="0.4" d="m 2.5,2.5 0,17 17,0 0,-17 -17,0 z" id="path29"/><path stroke="url(#2)" opacity="0.4" d="m 3.5312,3.5312 0,14.9375 14.9375,0 0,-14.9375 -14.9375,0 z" id="path31"/></g><g id="g33" fill="#fff"><path transform="matrix(0 1 -1 0 0 0)" opacity="0.4" d="m 11,-18 1,0 0,14 -1,0 z" id="path35"/><path opacity="0.4" d="m 11,4 1,0 0,14 -1,0 z" id="path37"/></g><path opacity="0.4" d="M 10,3 H11 V19 H10 z" id="path39"/><path transform="matrix(0 1 -1 0 0 0)" opacity="0.4" d="M 10,-19 H11 V-3 H10 z" id="path41"/><metadata id="metadata9999"><rdf:RDF><cc:Work><dc:format>image/svg+xml</dc:format><dc:type rdf:resource="http://purl.org/dc/dcmitype/StillImage"/><dc:title>Ivy icon theme</dc:title><cc:license rdf:resource="http://creativecommons.org/licenses/by-sa/4.0/"/><dc:creator><cc:Agent><dc:title>Sixsixfive (sixsixfive.deviantart.com)</dc:title></cc:Agent></dc:creator><dc:publisher><cc:Agent><dc:title>Sixsixfive (sixsixfive.deviantart.com)</dc:title></cc:Agent></dc:publisher><dc:source>https://github.com/sixsixfive</dc:source><dc:subject><rdf:Bag><rdf:li>ivy</rdf:li></rdf:Bag></dc:subject><dc:contributor><cc:Agent><dc:title>ssf</dc:title></cc:Agent></dc:contributor><dc:rights><cc:Agent><dc:title>Sixsixfive (sixisixfive.deviantart.com)</dc:title></cc:Agent></dc:rights><dc:description>A simple icon theme published under CC-BY-SA_V4(http://creativecommons.org/licenses/by-sa/4.0)</dc:description><dc:identifier>SSF</dc:identifier></cc:Work></rdf:RDF></metadata><!--Part of the Ivy icon them published under the CC-BY-SA_V4: http://creativecommons.org/licenses/by-sa/4.0 -->
</svg>