<?xml version="1.0" encoding="UTF-8" standalone="no"?>
<svg xmlns:dc="http://purl.org/dc/elements/1.1/" xmlns:cc="http://creativecommons.org/ns#" xmlns:rdf="http://www.w3.org/1999/02/22-rdf-syntax-ns#" xmlns:svg="http://www.w3.org/2000/svg" xmlns="http://www.w3.org/2000/svg" viewBox="0 0 22 22" id="svg2" version="1.1">
 <defs id="defs4">
  <linearGradient id="0" y1="3.722" x1="43.891" y2="41.885" x2="44.14" gradientUnits="userSpaceOnUse" gradientTransform="matrix(0.45 0 0 0.47368 0.2 0.096)">
   <stop stop-color="#d4d4d4" id="stop7"/>
   <stop offset="1" stop-color="#ebebeb" id="stop9"/>
  </linearGradient>
  <linearGradient id="1" y1="4.405" x1="23.73" y2="23.558" x2="23.712" gradientUnits="userSpaceOnUse" gradientTransform="matrix(0.45 0 0 0.455 0.2 0.171)">
   <stop stop-color="#5288d1" id="stop12"/>
   <stop offset="1" stop-color="#7ca5dc" id="stop14"/>
  </linearGradient>
  <linearGradient id="2" y1="3.03" x1="18.969" y2="19" x2="19" gradientUnits="userSpaceOnUse">
   <stop stop-color="#fff" id="stop17"/>
   <stop offset="1" stop-color="#fff" stop-opacity="0" id="stop19"/>
  </linearGradient>
 </defs>
 <path opacity="0.1" d="M 2,3 H20 V21 H2 z" id="path21"/>
 <path fill="url(#0)" d="M 2,2 H20 V20 H2 z" id="path23"/>
 <path fill="url(#1)" d="M 2,2 H11 V11 H2 z" id="path25"/>
 <g id="g27" fill="none">
  <path d="m 2.5,2.5 0,17 17,0 0,-17 -17,0 z" id="path29" opacity="0.4" stroke="#000"/>
  <path d="m 3.5312,3.5312 0,14.9375 14.9375,0 0,-14.9375 -14.9375,0 z" id="path31" opacity="0.4" stroke="url(#2)"/>
 </g>
 <g id="g33" fill="#fff">
  <path d="m 11,-18 1,0 0,14 -1,0 z" transform="matrix(0,1,-1,0,0,0)" id="path35" opacity="0.4"/>
  <path d="m 11,4 1,0 0,14 -1,0 z" id="path37" opacity="0.4"/>
 </g>
 <path opacity="0.4" d="M 10,3 H11 V19 H10 z" id="path39"/>
 <path opacity="0.4" d="M 10,-19 H11 V-3 H10 z" transform="matrix(0 1 -1 0 0 0)" id="path41"/>
 <metadata id="metadata9999">
  <rdf:RDF>
   <cc:Work>
    <dc:format>image/svg+xml</dc:format>
    <dc:type rdf:resource="http://purl.org/dc/dcmitype/StillImage"/>
    <dc:title>Ivy icon theme</dc:title>
    <cc:license rdf:resource="http://creativecommons.org/licenses/by-sa/4.0/"/>
    <dc:creator>
     <cc:Agent>
      <dc:title>Sixsixfive (sixsixfive.deviantart.com)</dc:title>
     </cc:Agent>
    </dc:creator>
    <dc:publisher>
     <cc:Agent>
      <dc:title>Sixsixfive (sixsixfive.deviantart.com)</dc:title>
     </cc:Agent>
    </dc:publisher>
    <dc:source>https://github.com/sixsixfive</dc:source>
    <dc:subject>
     <rdf:Bag>
      <rdf:li>ivy</rdf:li>
     </rdf:Bag>
    </dc:subject>
    <dc:contributor>
     <cc:Agent>
      <dc:title>ssf</dc:title>
     </cc:Agent>
    </dc:contributor>
    <dc:rights>
     <cc:Agent>
      <dc:title>Sixsixfive (sixisixfive.deviantart.com)</dc:title>
     </cc:Agent>
    </dc:rights>
    <dc:description>A simple icon theme published under CC-BY-SA_V4(http://creativecommons.org/licenses/by-sa/4.0)</dc:description>
    <dc:identifier>SSF</dc:identifier>
   </cc:Work>
  </rdf:RDF>
 </metadata>
 <!--Part of the Ivy icon them published under the CC-BY-SA_V4: http://creativecommons.org/licenses/by-sa/4.0 -->
</svg>
