<?xml version="1.0" encoding="UTF-8" standalone="no"?>
<svg xmlns:dc="http://purl.org/dc/elements/1.1/" xmlns:cc="http://creativecommons.org/ns#" xmlns:rdf="http://www.w3.org/1999/02/22-rdf-syntax-ns#" xmlns:svg="http://www.w3.org/2000/svg" xmlns="http://www.w3.org/2000/svg" viewBox="0 0 22 22" id="svg2" version="1.1">
 <defs id="defs4">
  <linearGradient id="0" y1="0.969" y2="19.656" x2="0" gradientUnits="userSpaceOnUse">
   <stop stop-color="#fff" id="stop7"/>
   <stop offset="1" stop-color="#fff" stop-opacity="0" id="stop9"/>
  </linearGradient>
  <linearGradient id="1" y1="0" y2="12" x2="0" gradientUnits="userSpaceOnUse" gradientTransform="matrix(0.71429 0 0 0.66667 -0.286 0)">
   <stop stop-color="#fff" id="stop12"/>
   <stop offset="1" stop-color="#fff" stop-opacity="0.635" id="stop14"/>
  </linearGradient>
  <radialGradient cx="16.5" cy="15" r="10.5" id="2" gradientUnits="userSpaceOnUse" gradientTransform="matrix(1.19048 0 0 1 -8.143 -4.5)">
   <stop stop-color="#ebebeb" id="stop17"/>
   <stop offset="1" stop-color="#b8b8b8" id="stop19"/>
  </radialGradient>
 </defs>
 <path opacity="0.15" d="M 9.714286 0 C 6.548571 0 4 2.616533 4 5.866667 4 12.466667 4 5.866667 4 12.466667 4 17.748133 7.345 22 11.5 22 15.655001 22 19 17.748133 19 12.466667 19 5.866667 19 12.466667 19 5.866667 19 2.616533 16.451429 0 13.285714 0 z" id="path21"/>
 <path fill="url(#2)" d="M 9.714286 0 C 6.548571 0 4 2.4976 4 5.6 4 11.9 4 5.6 4 11.9 4 16.9414 7.345 21 11.5 21 15.655001 21 19 16.9414 19 11.9 19 5.6 19 11.9 19 5.6 19 2.4976 16.451429 0 13.285714 0 z" id="path23"/>
 <path opacity="0.6" fill="url(#1)" d="M 9.714286 0 C 6.548571 0 4 2.378667 4 5.333333 V 8 H 11.142857 H 19 V 5.333333 C 19 2.378667 16.451429 0 13.285714 0 H 11.142857 H 9.714286 z" id="path25"/>
 <path fill="#cecece" d="M 10,5 H13 V8 H10 z" id="path27"/>
 <path opacity="0.4" d="M 5,8 H18 V9 H5 z" id="path29"/>
 <path opacity="0.65" fill="#ff8b36" d="M 13.28125 0 C 16.446964 0 19 2.389083 19 5.34375 V 8 H 13 V 5 H 11 V 0 H 11.84375 H 13.28125 z" id="path31"/>
 <path opacity="0.4" d="M 11,1 H12 V4 H11 z" id="path33"/>
 <path opacity="0.4" d="M 9,5 H10 V8 H9 z" id="path35"/>
 <path opacity="0.4" d="M 13,5 H14 V8 H13 z" id="path37"/>
 <path opacity="0.4" d="M 4.02,-13 H4.999 V-10 H4.02 z" transform="matrix(0 1 -1 0 0 0)" id="path39"/>
 <path opacity="0.4" fill="#fff" d="M 10,5 H13 V6 H10 z" id="path41"/>
 <g id="g43" fill="none">
  <path d="M 9.71875,0.5 C 6.811364,0.5 4.5,2.732338 4.5,5.5 l 0,6.1875 c 0,4.72615 3.164835,8.4375 7,8.4375 3.835167,0 7,-3.71135 7,-8.4375 L 18.5,5.5 c 0,-2.767662 -2.311363,-5 -5.21875,-5 l -3.5625,0 z" transform="matrix(0.99936,0,0,1.01865,0.007,-0.005)" id="path45" opacity="0.4" stroke="#000"/>
  <path d="m 9.71875,1.46875 c -2.416762,0 -4.25,1.797227 -4.25,4.03125 l 0,6.1875 c 0,4.298257 2.814443,7.46875 6.03125,7.46875 3.216809,0 6.03125,-3.170493 6.03125,-7.46875 l 0,-6.1875 c 0,-2.234023 -1.833238,-4.03125 -4.25,-4.03125 l -3.5625,0 z" id="path47" opacity="0.4" stroke="url(#0)"/>
 </g>
 <path opacity="0.4" fill="#fff" d="M 5,9 H18 V10 H5 z" id="path49"/>
 <metadata id="metadata9999">
  <rdf:RDF>
   <cc:Work>
    <dc:format>image/svg+xml</dc:format>
    <dc:type rdf:resource="http://purl.org/dc/dcmitype/StillImage"/>
    <dc:title>Ivy icon theme</dc:title>
    <cc:license rdf:resource="http://creativecommons.org/licenses/by-sa/4.0/"/>
    <dc:creator>
     <cc:Agent>
      <dc:title>Sixsixfive (sixsixfive.deviantart.com)</dc:title>
     </cc:Agent>
    </dc:creator>
    <dc:publisher>
     <cc:Agent>
      <dc:title>Sixsixfive (sixsixfive.deviantart.com)</dc:title>
     </cc:Agent>
    </dc:publisher>
    <dc:source>https://github.com/sixsixfive</dc:source>
    <dc:subject>
     <rdf:Bag>
      <rdf:li>ivy</rdf:li>
     </rdf:Bag>
    </dc:subject>
    <dc:contributor>
     <cc:Agent>
      <dc:title>ssf</dc:title>
     </cc:Agent>
    </dc:contributor>
    <dc:rights>
     <cc:Agent>
      <dc:title>Sixsixfive (sixisixfive.deviantart.com)</dc:title>
     </cc:Agent>
    </dc:rights>
    <dc:description>A simple icon theme published under CC-BY-SA_V4(http://creativecommons.org/licenses/by-sa/4.0)</dc:description>
    <dc:identifier>SSF</dc:identifier>
   </cc:Work>
  </rdf:RDF>
 </metadata>
 <!--Part of the Ivy icon them published under the CC-BY-SA_V4: http://creativecommons.org/licenses/by-sa/4.0 -->
</svg>
