<?xml version="1.0" encoding="UTF-8" standalone="no"?><svg xmlns:xlink="http://www.w3.org/1999/xlink" xmlns:cc="http://creativecommons.org/ns#" viewBox="0 0 48 48" version="1.1" id="svg2" xmlns:svg="http://www.w3.org/2000/svg" xmlns:rdf="http://www.w3.org/1999/02/22-rdf-syntax-ns#" xmlns="http://www.w3.org/2000/svg" xmlns:dc="http://purl.org/dc/elements/1.1/"><defs id="defs4"><linearGradient x2="0" gradientUnits="userSpaceOnUse" xlink:href="#4" y2="1031.35" id="0" y1="1023.35"/><linearGradient x2="0" gradientUnits="userSpaceOnUse" xlink:href="#4" y2="1019.36" id="1" y1="1011.36"/><linearGradient x2="0" gradientUnits="userSpaceOnUse" xlink:href="#5" y2="1051.36" id="2" y1="1008.36"/><linearGradient x2="0" gradientUnits="userSpaceOnUse" xlink:href="#5" y2="1018.36" id="3" y1="1012.36"/><linearGradient id="4"><stop stop-color="#c1871d" id="stop11"/><stop offset="1" stop-color="#e4ae4e" id="stop13"/></linearGradient><linearGradient id="5"><stop stop-color="#fff" id="stop16"/><stop offset="1" stop-opacity="0" stop-color="#fff" id="stop18"/></linearGradient><linearGradient x2="0" gradientUnits="userSpaceOnUse" y2="1049.36" id="6" y1="1007.36"><stop stop-color="#df9e2a" id="stop21"/><stop offset="1" stop-color="#e8ba69" id="stop23"/></linearGradient></defs><g id="g25" transform="matrix(1 0 0 1 0 -1004.36)"><g id="g27" color="#000"><path opacity="0.15" id="path29" d="m 21,1008.3622 0,4 -12,0 -5,4 5,4 12,0 0,4 -12,0 0,8 12,0 0,18 6,0 0,-18 15,0 5,-4 -5,-4 -15,0 0,-4 15,0 0,-8 -15,0 0,-4 -6,0 z"/><path fill="url(#6)" id="path31" d="m 21,1007.36 6,0 0,42 -6,0 z"/></g><g id="g37" color="#000"><g fill="none" id="g39"><path opacity="0.4" id="path41" stroke="#000" d="m 21.5,1007.875 0,41 5,0 0,-41 -5,0 z"/><path opacity="0.4" id="path43" stroke="url(#2)" d="m 22.5,1008.875 0,39 3,0 0,-39 -3,0 z"/></g><path fill="url(#1)" id="path45" d="m 9,1011.3622 33,0 0,8 -33,0 -5,-4 z"/></g><path opacity="0.4" fill="none" id="7" stroke="#000" color="#000" d="m 9.1875,1011.875 -4.375,3.5 4.375,3.5 32.3125,0 0,-7 -32.3125,0 z"/><path opacity="0.4" fill="none" id="8" stroke="url(#3)" color="#000" d="m 9.5625,1012.875 -3.125,2.5 3.125,2.5 30.9375,0 0,-5 -30.9375,0 z"/><path fill="url(#0)" id="path49" color="#000" d="m 42,1023.3494 -33,0 0,8 33,0 5,-4 z"/><g id="g51" transform="matrix(-1 0 0 1 51 11.987)"><use height="48" width="48" xlink:href="#7" id="use53" x="0" y="0"/><use height="48" width="48" xlink:href="#8" id="use55" x="0" y="0"/></g></g><metadata id="metadata9999"><rdf:RDF><cc:Work><dc:format>image/svg+xml</dc:format><dc:type rdf:resource="http://purl.org/dc/dcmitype/StillImage"/><dc:title>Ivy icon theme</dc:title><cc:license rdf:resource="http://creativecommons.org/licenses/by-sa/4.0/"/><dc:creator><cc:Agent><dc:title>Sixsixfive (sixsixfive.deviantart.com)</dc:title></cc:Agent></dc:creator><dc:publisher><cc:Agent><dc:title>Sixsixfive (sixsixfive.deviantart.com)</dc:title></cc:Agent></dc:publisher><dc:source>https://github.com/sixsixfive</dc:source><dc:subject><rdf:Bag><rdf:li>ivy</rdf:li></rdf:Bag></dc:subject><dc:contributor><cc:Agent><dc:title>ssf</dc:title></cc:Agent></dc:contributor><dc:rights><cc:Agent><dc:title>Sixsixfive (sixisixfive.deviantart.com)</dc:title></cc:Agent></dc:rights><dc:description>A simple icon theme published under CC-BY-SA_V4(http://creativecommons.org/licenses/by-sa/4.0)</dc:description><dc:identifier>SSF</dc:identifier></cc:Work></rdf:RDF></metadata><!--Part of the Ivy icon them published under the CC-BY-SA_V4: http://creativecommons.org/licenses/by-sa/4.0 -->
</svg>