<?xml version="1.0" encoding="UTF-8" standalone="no"?><svg xmlns:cc="http://creativecommons.org/ns#" xmlns:svg="http://www.w3.org/2000/svg" xmlns="http://www.w3.org/2000/svg" xmlns:dc="http://purl.org/dc/elements/1.1/" xmlns:rdf="http://www.w3.org/1999/02/22-rdf-syntax-ns#" id="svg2" version="1.1" viewBox="0 0 22 22" xmlns:xlink="http://www.w3.org/1999/xlink"><defs id="defs4"><linearGradient id="linearGradient4186"><stop id="stop4188" stop-color="#d02604"/><stop id="stop4190" stop-color="#fb6a4b" offset="1"/></linearGradient><linearGradient id="linearGradient4178"><stop id="stop4180" stop-color="#5288d1"/><stop id="stop4182" stop-color="#9ab9e3" offset="1"/></linearGradient><linearGradient id="linearGradient4170"><stop id="stop4172" stop-color="#66b03e"/><stop id="stop4174" stop-color="#9ed482" offset="1"/></linearGradient><linearGradient gradientTransform="matrix(1 0 0 1 0.023166 -1.013355)" gradientUnits="userSpaceOnUse" y1="16" xlink:href="#linearGradient4170" id="linearGradient4168" x1="20" y2="21.01" x2="19.996"/><linearGradient gradientUnits="userSpaceOnUse" y1="8" xlink:href="#linearGradient4178" id="linearGradient4176" y2="13" x2="0"/><linearGradient gradientUnits="userSpaceOnUse" y1="2" xlink:href="#linearGradient4186" id="linearGradient4184" y2="7" x2="0"/></defs><path opacity="0.1" d="m 6.0226873,5.6070597 a 2.4997607,2.4997607 0 0 1 -4.9995209,0 2.4997607,2.4997607 0 1 1 4.9995209,0 z" id="path4214"/><path opacity="0.1" d="m 12.999521,11.514596 a 2.4997607,2.4997607 0 0 1 -4.9995208,0 2.4997607,2.4997607 0 1 1 4.9995208,0 z" id="path4216"/><path opacity="0.1" d="m 20.022687,18.501241 a 2.4997607,2.4997607 0 0 1 -4.999521,0 2.4997607,2.4997607 0 1 1 4.999521,0 z" id="path4218"/><path d="m 6.0226873,4.5937024 a 2.4997607,2.4997607 0 0 1 -4.9995209,0 2.4997607,2.4997607 0 1 1 4.9995209,0 z" id="path37" fill="url(#linearGradient4184)"/><path stroke="#000" opacity="0.4" d="M 3.5641823,2.5778381 C 2.3592083,2.4997235 1.26641,3.8074686 1.5446507,4.9782287 a 0.48459771,0.48459771 0 0 1 0.00781,0.033203 c 0.2058897,1.2660513 1.8916056,2.021896 2.9726586,1.3320314 a 0.48459771,0.48459771 0 0 1 0.03125,-0.019531 C 5.6463363,5.738682 5.8597223,3.9894504 4.9411353,3.1598693 a 0.48459771,0.48459771 0 0 1 -0.01563,-0.013672 C 4.5723723,2.8005792 4.0768663,2.5904257 3.5837133,2.5778381 a 0.48459771,0.48459771 0 0 1 -0.01953,0 z" id="path4192" fill="none"/><path stroke="#fff" opacity="0.476" d="m 2.6133423,4.6765623 c -0.027787,-1.5830992 1.991714,-1.5830992 2.013008,0.087522" id="path4196" fill-rule="evenodd" fill="none"/><path d="m 12.999521,10.501239 a 2.4997607,2.4997607 0 0 1 -4.9995208,0 2.4997607,2.4997607 0 1 1 4.9995208,0 z" id="path4198" fill="url(#linearGradient4176)"/><path stroke="#000" opacity="0.4" d="M 10.541016,8.4853748 C 9.3360421,8.4072602 8.2432438,9.7150053 8.5214845,10.885765 a 0.48459771,0.48459771 0 0 1 0.00781,0.0332 C 8.7351842,12.18502 10.4209,12.940864 11.501953,12.251 a 0.48459771,0.48459771 0 0 1 0.03125,-0.01953 c 1.089967,-0.58525 1.303353,-2.3344819 0.384766,-3.164063 A 0.48459771,0.48459771 0 0 1 11.902339,9.053734 C 11.549206,8.7081159 11.0537,8.4979624 10.560547,8.4853748 a 0.48459771,0.48459771 0 0 1 -0.01953,0 z" id="path4200" fill="none"/><path stroke="#fff" opacity="0.476" d="M 9.5901762,10.584099 C 9.5623862,9.0009998 11.58189,9.0009998 11.603184,10.671619" id="path4202" fill-rule="evenodd" fill="none"/><path d="m 20.022687,17.487884 a 2.4997607,2.4997607 0 0 1 -4.999521,0 2.4997607,2.4997607 0 1 1 4.999521,0 z" id="path4206" fill="url(#linearGradient4168)"/><path stroke="#000" opacity="0.4" d="m 17.564182,15.47202 c -1.204974,-0.07811 -2.297772,1.229631 -2.019532,2.400391 a 0.48459771,0.48459771 0 0 1 0.0078,0.0332 c 0.20589,1.266051 1.891606,2.021896 2.972659,1.332031 a 0.48459771,0.48459771 0 0 1 0.03125,-0.01953 c 1.089967,-0.58525 1.303353,-2.334481 0.384766,-3.164063 a 0.48459771,0.48459771 0 0 1 -0.01563,-0.01367 C 18.572372,15.694761 18.076866,15.484608 17.583713,15.47202 a 0.48459771,0.48459771 0 0 1 -0.01953,0 z" id="path4208" fill="none"/><path stroke="#fff" opacity="0.476" d="m 16.613342,17.570744 c -0.02779,-1.583099 1.991714,-1.583099 2.013008,0.08752" id="path4210" fill-rule="evenodd" fill="none"/><metadata id="metadata9999"><rdf:RDF><cc:Work><dc:format>image/svg+xml</dc:format><dc:type rdf:resource="http://purl.org/dc/dcmitype/StillImage"/><dc:title>Ivy icon theme</dc:title><cc:license rdf:resource="http://creativecommons.org/licenses/by-sa/4.0/"/><dc:creator><cc:Agent><dc:title>Sixsixfive (sixsixfive.deviantart.com)</dc:title></cc:Agent></dc:creator><dc:publisher><cc:Agent><dc:title>Sixsixfive (sixsixfive.deviantart.com)</dc:title></cc:Agent></dc:publisher><dc:source>https://github.com/sixsixfive</dc:source><dc:subject><rdf:Bag><rdf:li>ivy</rdf:li></rdf:Bag></dc:subject><dc:contributor><cc:Agent><dc:title>ssf</dc:title></cc:Agent></dc:contributor><dc:rights><cc:Agent><dc:title>Sixsixfive (sixisixfive.deviantart.com)</dc:title></cc:Agent></dc:rights><dc:description>A simple icon theme published under CC-BY-SA_V4(http://creativecommons.org/licenses/by-sa/4.0)</dc:description><dc:identifier>SSF</dc:identifier></cc:Work></rdf:RDF></metadata><!--Part of the Ivy icon them published under the CC-BY-SA_V4: http://creativecommons.org/licenses/by-sa/4.0 -->
</svg>