<?xml version="1.0" encoding="UTF-8" standalone="no"?>
<svg xmlns:dc="http://purl.org/dc/elements/1.1/" xmlns:cc="http://creativecommons.org/ns#" xmlns:rdf="http://www.w3.org/1999/02/22-rdf-syntax-ns#" xmlns:svg="http://www.w3.org/2000/svg" xmlns="http://www.w3.org/2000/svg" viewBox="0 0 22 22" id="svg2" version="1.1">
 <defs id="defs4">
  <linearGradient id="0" y1="42.29" y2="12.295" x2="0" gradientUnits="userSpaceOnUse" gradientTransform="matrix(0.50008 0 0 0.49783 -31.641 -5.102)">
   <stop stop-color="#d3d7cf" id="stop7"/>
   <stop offset="1" stop-color="#eeeeec" id="stop9"/>
  </linearGradient>
  <linearGradient id="1" y1="47.875" y2="36.34" x2="0" gradientUnits="userSpaceOnUse" gradientTransform="matrix(0.44302 0 0 0.79613 -26.748 -18.11)">
   <stop stop-color="#eeeeec" id="stop12"/>
   <stop offset="1" stop-color="#555753" id="stop14"/>
  </linearGradient>
  <linearGradient id="2" y1="4" y2="17" x2="0" gradientUnits="userSpaceOnUse" gradientTransform="matrix(1.0001 0 0 0.99682 -1 -1.99)">
   <stop stop-color="#fff" id="stop17"/>
   <stop offset="1" stop-color="#fff" stop-opacity="0" id="stop19"/>
  </linearGradient>
 </defs>
 <path opacity="0.1" d="m 1.999266 2.028393 c -0.553396 0 -1.00008 0.445229 -1.00008 0.996821 v 12.927567 c 0 0.551592 0.446685 0.996821 1.00008 0.996821 h 6.00049 v 1.059122 h -1.156344 c -0.460186 0 -0.843819 0.668246 -0.843819 1.49523 0 0.826984 0.383633 1.495231 0.843819 1.495231 h 8.375683 c 0.460187 0 0.843819 -0.668247 0.843819 -1.495231 0 -0.826984 -0.383632 -1.49523 -0.843819 -1.49523 h -1.218849 v -1.059122 h 6.00049 c 0.553396 0 1.00008 -0.445229 1.00008 -0.996821 v -12.927567 c 0 -0.551592 -0.446686 -0.996821 -1.00008 -0.996821 h -18.00147 z" id="path21"/>
 <path fill="url(#1)" d="m 7.999755 10.817161 v 6.194941 h -1.166295 c -0.460185 0 -0.830659 0.665767 -0.830659 1.492749 0 0.826983 0.370474 1.492749 0.830659 1.492749 h 8.389654 c 0.460187 0 0.830661 -0.665769 0.830661 -1.492749 0 -0.826984 -0.370474 -1.492749 -0.830661 -1.492749 h -1.222919 v -6.194921 z" id="path23"/>
 <g id="g25" fill="none" stroke-width="0.998">
  <path d="m 8.499796,11.311784 0,5.700617 a 0.508222,0.506565 0 0 1 -0.500041,0.498411 l -1.156344,0 c 0.016688,0 -0.056934,0.01183 -0.156263,0.186904 -0.099329,0.175075 -0.187515,0.474492 -0.187515,0.809916 0,0.335424 0.088186,0.634841 0.187515,0.809917 0.099329,0.175076 0.172951,0.186904 0.156263,0.186904 l 8.375683,0 c -0.01669,0 0.05693,-0.01183 0.156263,-0.186904 0.09933,-0.175076 0.187515,-0.474493 0.187515,-0.809917 0,-0.335425 -0.08819,-0.634841 -0.187515,-0.809916 -0.09933,-0.175076 -0.17295,-0.186904 -0.156263,-0.186904 l -1.218849,0 a 0.508222,0.506565 0 0 1 -0.500041,-0.498411 l 0,-5.700568 -5.00041,0 z" id="path27" opacity="0.4" stroke="#000"/>
  <path d="m 9.624888,12.433207 0,4.579194 A 1.618182,1.612906 0 0 1 8.874827,18.38303 l 4.281599,0 a 1.618182,1.612906 0 0 1 -0.781314,-1.370629 l 0,-4.579144 -2.750224,0 z" id="path29" opacity="0.4" stroke="#fff"/>
 </g>
 <rect width="20" x="0.999" y="1.018" fill="url(#0)" rx="0.999" height="14.935" ry="0.996" id="rect31"/>
 <path fill="#a868d4" d="M 2.999,2.995 H18.999 V11.966 H2.999 z" id="path33"/>
 <path opacity="0.796" fill="#fff" fill-rule="evenodd" color="#000" d="M 2.999,11.966 H18.999 V12.963 H2.999 z" id="path35"/>
 <g id="g37" fill="none" stroke-width="0.998">
  <path d="m 1.999266,1.530382 c -0.279943,0 -0.500041,0.21938 -0.500041,0.49841 l 0,12.927567 c 0,0.279029 0.220098,0.49841 0.500041,0.49841 l 18.00147,0 c 0.279942,0 0.500041,-0.219381 0.500041,-0.49841 l 0,-12.927567 c 0,-0.27903 -0.220099,-0.49841 -0.500041,-0.49841 l -18.00147,0 z" id="path39" opacity="0.4" stroke="#000"/>
  <path d="m 2.530509,2.558403 0,11.868345 16.938882,0 0,-11.868345 -16.938882,0 z" id="path41" opacity="0.4" stroke="url(#2)"/>
  <path d="m 3.468186,3.461821 0,8.03687 15.06373,0 0,-8.03687 -15.06373,0 z" id="path43" opacity="0.4" stroke="#000"/>
 </g>
 <g id="g45" color="#000">
  <path d="m 5,5 12,0 0,5 -12,0 z" id="path47" fill="#6a6a6a"/>
  <path d="M 6,6 16,6 16,9 6,9 Z" id="path49" fill="#fff"/>
  <g id="g51" fill="#6a6a6a">
   <path d="M 7,6 9,6 9,9 7,9 Z" id="path53" opacity="0.708"/>
   <path d="m 10,6 2,0 0,3 -2,0 z" id="path55" opacity="0.708"/>
  </g>
 </g>
 <metadata id="metadata9999">
  <rdf:RDF>
   <cc:Work>
    <dc:format>image/svg+xml</dc:format>
    <dc:type rdf:resource="http://purl.org/dc/dcmitype/StillImage"/>
    <dc:title>Ivy icon theme</dc:title>
    <cc:license rdf:resource="http://creativecommons.org/licenses/by-sa/4.0/"/>
    <dc:creator>
     <cc:Agent>
      <dc:title>Sixsixfive (sixsixfive.deviantart.com)</dc:title>
     </cc:Agent>
    </dc:creator>
    <dc:publisher>
     <cc:Agent>
      <dc:title>Sixsixfive (sixsixfive.deviantart.com)</dc:title>
     </cc:Agent>
    </dc:publisher>
    <dc:source>https://github.com/sixsixfive</dc:source>
    <dc:subject>
     <rdf:Bag>
      <rdf:li>ivy</rdf:li>
     </rdf:Bag>
    </dc:subject>
    <dc:contributor>
     <cc:Agent>
      <dc:title>ssf</dc:title>
     </cc:Agent>
    </dc:contributor>
    <dc:rights>
     <cc:Agent>
      <dc:title>Sixsixfive (sixisixfive.deviantart.com)</dc:title>
     </cc:Agent>
    </dc:rights>
    <dc:description>A simple icon theme published under CC-BY-SA_V4(http://creativecommons.org/licenses/by-sa/4.0)</dc:description>
    <dc:identifier>SSF</dc:identifier>
   </cc:Work>
  </rdf:RDF>
 </metadata>
 <!--Part of the Ivy icon them published under the CC-BY-SA_V4: http://creativecommons.org/licenses/by-sa/4.0 -->
</svg>
