<?xml version="1.0" encoding="UTF-8" standalone="no"?><svg xmlns:cc="http://creativecommons.org/ns#" xmlns:rdf="http://www.w3.org/1999/02/22-rdf-syntax-ns#" xmlns:svg="http://www.w3.org/2000/svg" id="svg2" viewBox="0 0 48 48" version="1.1" xmlns:xlink="http://www.w3.org/1999/xlink" xmlns:dc="http://purl.org/dc/elements/1.1/" xmlns="http://www.w3.org/2000/svg"><defs id="defs4"><path id="1" opacity="0.4" d="m 16.5312 8.5312 v 12.9375 h 12.9375 v -12.9375 h -12.9375 z" stroke="#000" fill="none"/><linearGradient id="2" x2="0" y2="24" xlink:href="#5" y1="10" gradientUnits="userSpaceOnUse"/><linearGradient id="3" x2="0" y2="42" xlink:href="#5" y1="28" gradientUnits="userSpaceOnUse"/><linearGradient id="4" x2="0" y2="21" y1="9" gradientUnits="userSpaceOnUse"><stop id="stop10" stop-color="#fff"/><stop offset="1" id="stop12" stop-color="#fff" stop-opacity="0"/></linearGradient><linearGradient id="5"><stop id="stop15" stop-color="#c9c9c9"/><stop offset="1" id="stop17" stop-color="#ebebeb"/></linearGradient></defs><path id="path19" opacity="0.1" d="M 17,11 H31 V25 H17 z"/><path id="path21" opacity="0.1" d="M 8,29 H22 V43 H8 z"/><path id="path23" opacity="0.1" d="M 26,29 H40 V43 H26 z"/><path id="path25" d="M 17,10 H31 V24 H17 z" fill="url(#2)"/><g id="g27" transform="matrix(1 0 0 1 1 2)"><use height="48" id="use29" width="48" x="0" y="0" xlink:href="#1"/><use height="48" id="use31" width="48" transform="matrix(1 0 0 1 8 -20)" x="0" y="0" xlink:href="#0"/></g><path id="path33" opacity="0.7" d="M 20,13 H22 V21 H20 z"/><path id="path35" opacity="0.7" d="M 22,19 H24 V21 H22 z"/><path id="path37" opacity="0.7" d="M 24,19 H26 V21 H24 z"/><path id="path39" opacity="0.7" d="M 26,13 H28 V21 H26 z"/><path id="path41" opacity="0.7" d="M 23,17 H25 V19 H23 z"/><path id="path43" d="M 8,28 H22 V42 H8 z" fill="url(#3)"/><use id="use45" transform="matrix(1 0 0 1 -8 20)" xlink:href="#1"/><path id="0" opacity="0.7" d="m 17.5938 9.5938 v 10.8125 h 10.8125 v -10.8125 h -10.8125 z" stroke="url(#4)" transform="matrix(1 0 0 1 -8 20)" fill="none"/><path id="path48" opacity="0.7" d="M 11,31 H19 V33 H11 z"/><g id="g50" transform="matrix(0 1 -1 0 0 0)"><path id="path52" opacity="0.7" d="m 33,-13 6,0 0,2 -6,0 z"/><path id="path54" opacity="0.7" d="m 33,-19 6,0 0,2 -6,0 z"/></g><path id="path56" opacity="0.7" d="M -17,-37 H-13 V-35 H-17 z" transform="matrix(-1 0 0 -1 0 0)"/><path id="path58" d="M 26,28 H40 V42 H26 z" fill="url(#3)"/><use id="use60" transform="matrix(1 0 0 1 10 20)" xlink:href="#1"/><use id="use62" transform="matrix(1 0 0 1 18 0)" xlink:href="#0"/><g id="g64" transform="matrix(-1 0 0 1 0 0)"><path id="path66" opacity="0.7" d="m -37,31 8,0 0,2 -8,0 z"/><path id="path68" opacity="0.7" d="m -37,37 8,0 0,2 -8,0 z"/></g><g id="g70" transform="matrix(0 1 1 0 0 0)"><path id="path72" opacity="0.7" d="m 34,31 2,0 0,4 -2,0 z"/><path id="path74" opacity="0.7" d="m 35,35 2,0 0,2 -2,0 z"/><path id="path76" opacity="0.7" d="m 33,29 2,0 0,2 -2,0 z"/></g><metadata id="metadata9999"><rdf:RDF><cc:Work><dc:format>image/svg+xml</dc:format><dc:type rdf:resource="http://purl.org/dc/dcmitype/StillImage"/><dc:title>Ivy icon theme</dc:title><cc:license rdf:resource="http://creativecommons.org/licenses/by-sa/4.0/"/><dc:creator><cc:Agent><dc:title>Sixsixfive (sixsixfive.deviantart.com)</dc:title></cc:Agent></dc:creator><dc:publisher><cc:Agent><dc:title>Sixsixfive (sixsixfive.deviantart.com)</dc:title></cc:Agent></dc:publisher><dc:source>https://github.com/sixsixfive</dc:source><dc:subject><rdf:Bag><rdf:li>ivy</rdf:li></rdf:Bag></dc:subject><dc:contributor><cc:Agent><dc:title>ssf</dc:title></cc:Agent></dc:contributor><dc:rights><cc:Agent><dc:title>Sixsixfive (sixisixfive.deviantart.com)</dc:title></cc:Agent></dc:rights><dc:description>A simple icon theme published under CC-BY-SA_V4(http://creativecommons.org/licenses/by-sa/4.0)</dc:description><dc:identifier>SSF</dc:identifier></cc:Work></rdf:RDF></metadata><!--Part of the Ivy icon them published under the CC-BY-SA_V4: http://creativecommons.org/licenses/by-sa/4.0 -->
</svg>