<?xml version="1.0" encoding="UTF-8" standalone="no"?><svg xmlns:cc="http://creativecommons.org/ns#" xmlns:rdf="http://www.w3.org/1999/02/22-rdf-syntax-ns#" xmlns:svg="http://www.w3.org/2000/svg" id="svg2" viewBox="0 0 48 48" version="1.1" xmlns:dc="http://purl.org/dc/elements/1.1/" xmlns="http://www.w3.org/2000/svg"><defs id="defs4"/><path id="0" opacity="0.1" d="m 4,5.22 h 40 v 38 H 4 z"/><path id="1" d="m 4,4.22 h 40 v 38 H 4 z" fill="#d02604"/><path id="2" opacity="0.4" d="m 4.468728,4.688542 v 37.0625 h 39.0625 v -37.0625 h -39.0625 z" stroke="#000" fill="none"/><rect height="1" id="3" opacity="0.3" width="38" x="5" y="35" fill-rule="evenodd"/><rect height="1" id="4" opacity="0.3" width="38" x="5" y="29" fill-rule="evenodd"/><rect height="1" id="5" opacity="0.3" width="38" x="5" y="23" fill-rule="evenodd"/><rect height="1" id="6" opacity="0.3" width="38" x="5" y="17" fill-rule="evenodd"/><rect height="1" id="7" opacity="0.3" width="38" x="5" y="11" fill-rule="evenodd"/><rect height="1" id="8" opacity="0.1" width="38" x="5" y="36" fill-rule="evenodd" fill="#fff"/><rect height="1" id="9" opacity="0.1" width="38" x="5" y="30" fill-rule="evenodd" fill="#fff"/><rect height="1" id="A" opacity="0.1" width="38" x="5" y="24" fill-rule="evenodd" fill="#fff"/><rect height="1" id="B" opacity="0.1" width="38" x="5" y="18" fill-rule="evenodd" fill="#fff"/><rect height="1" id="C" opacity="0.1" width="38" x="5" y="12" fill-rule="evenodd" fill="#fff"/><rect height="6" id="D" opacity="0.3" width="1" x="15" y="5" fill-rule="evenodd"/><rect height="5" id="E" opacity="0.3" width="1" x="15" y="18" fill-rule="evenodd"/><rect height="1" id="F" opacity="0.1" width="38" x="5" y="5" fill-rule="evenodd" fill="#fff"/><rect height="5" id="G" opacity="0.3" width="1" x="15" y="30" fill-rule="evenodd"/><rect height="6" id="H" opacity="0.3" width="1" x="32" y="5" fill-rule="evenodd"/><rect height="5" id="I" opacity="0.3" width="1" x="32" y="18" fill-rule="evenodd"/><rect height="5" id="J" opacity="0.3" width="1" x="32" y="30" fill-rule="evenodd"/><rect height="5" id="K" opacity="0.3" width="1" x="24" y="12" fill-rule="evenodd"/><rect height="5" id="L" opacity="0.3" width="1" x="24" y="24" fill-rule="evenodd"/><rect height="5" id="M" opacity="0.3" width="1" x="24" y="36" fill-rule="evenodd"/><metadata id="metadata9999"><rdf:RDF><cc:Work><dc:format>image/svg+xml</dc:format><dc:type rdf:resource="http://purl.org/dc/dcmitype/StillImage"/><dc:title>Ivy icon theme</dc:title><cc:license rdf:resource="http://creativecommons.org/licenses/by-sa/4.0/"/><dc:creator><cc:Agent><dc:title>Sixsixfive (sixsixfive.deviantart.com)</dc:title></cc:Agent></dc:creator><dc:publisher><cc:Agent><dc:title>Sixsixfive (sixsixfive.deviantart.com)</dc:title></cc:Agent></dc:publisher><dc:source>https://github.com/sixsixfive</dc:source><dc:subject><rdf:Bag><rdf:li>ivy</rdf:li></rdf:Bag></dc:subject><dc:contributor><cc:Agent><dc:title>ssf</dc:title></cc:Agent></dc:contributor><dc:rights><cc:Agent><dc:title>Sixsixfive (sixisixfive.deviantart.com)</dc:title></cc:Agent></dc:rights><dc:description>A simple icon theme published under CC-BY-SA_V4(http://creativecommons.org/licenses/by-sa/4.0)</dc:description><dc:identifier>SSF</dc:identifier></cc:Work></rdf:RDF></metadata><!--Part of the Ivy icon them published under the CC-BY-SA_V4: http://creativecommons.org/licenses/by-sa/4.0 -->
</svg>