<?xml version="1.0" encoding="UTF-8" standalone="no"?>
<svg xmlns:dc="http://purl.org/dc/elements/1.1/" xmlns:cc="http://creativecommons.org/ns#" xmlns:rdf="http://www.w3.org/1999/02/22-rdf-syntax-ns#" xmlns:svg="http://www.w3.org/2000/svg" xmlns="http://www.w3.org/2000/svg" xmlns:xlink="http://www.w3.org/1999/xlink" viewBox="0 0 22 22" id="svg2" version="1.1">
 <defs id="defs4">
  <linearGradient id="2" y1="19" y2="43" x2="0" gradientUnits="userSpaceOnUse" gradientTransform="matrix(0.41667 0 0 0.45833 1.167 0.292)">
   <stop stop-color="#ff8b36" id="stop7"/>
   <stop offset="1" stop-color="#ffb986" id="stop9"/>
  </linearGradient>
  <linearGradient id="3" y1="19" y2="43" x2="0" gradientUnits="userSpaceOnUse" gradientTransform="matrix(0.41667 0 0 0.45833 1.167 0.292)">
   <stop stop-color="#ebebeb" id="stop12"/>
   <stop offset="1" stop-color="#f5f5f5" id="stop14"/>
  </linearGradient>
  <linearGradient id="4" y1="9.938" x1="16.06" y2="19" x2="16" gradientUnits="userSpaceOnUse">
   <stop stop-color="#fff" id="stop17"/>
   <stop offset="1" stop-color="#fff" stop-opacity="0" id="stop19"/>
  </linearGradient>
  <linearGradient id="5" y1="19" y2="43" x2="0" gradientUnits="userSpaceOnUse" gradientTransform="matrix(0.41667 0 0 0.45833 1.167 0.292)">
   <stop stop-color="#66b03e" id="stop22"/>
   <stop offset="1" stop-color="#92cd71" id="stop24"/>
  </linearGradient>
  <linearGradient id="6" y1="5" x1="45" y2="29.03" x2="45.03" gradientUnits="userSpaceOnUse" gradientTransform="matrix(0.41785 0 0 0.45833 1.197 -0.292)">
   <stop stop-color="#d02604" id="stop27"/>
   <stop offset="1" stop-color="#fb7257" id="stop29"/>
  </linearGradient>
  <linearGradient id="7" y1="4.969" x1="45.03" y2="29" x2="45" gradientUnits="userSpaceOnUse" gradientTransform="matrix(0.41785 0 0 0.45833 1.197 -0.292)">
   <stop stop-color="#171717" id="stop32"/>
   <stop offset="1" stop-color="#6a6a6a" id="stop34"/>
  </linearGradient>
  <linearGradient id="8" y1="21" y2="29" x2="0" gradientUnits="userSpaceOnUse" gradientTransform="matrix(0.41785 0 0 0.45833 1.197 -0.292)">
   <stop stop-color="#eed45a" id="stop37"/>
   <stop offset="1" stop-color="#ffe97b" id="stop39"/>
  </linearGradient>
 </defs>
 <g id="g41" fill-rule="evenodd">
  <path d="m 4.96875,3 0,7 L 2,10 2,21 17,21 17,14 20,14 20,3 4.96875,3 Z" id="path43" opacity="0.15"/>
  <path d="m 4.957,2 15.04,0 0,11 -15.04,0 z" id="path45" fill="url(#6)"/>
  <path d="m 4.957,9.333 15.04,0 0,3.667 -15.04,0 z" id="path47" fill="url(#8)"/>
  <path d="m 4.957,2 15.04,0 0,3.667 -15.04,0 z" id="path49" fill="url(#7)"/>
 </g>
 <path opacity="0.4" fill="#fff" color="#000" d="M 6,8 H18 V12 H6 z" id="path51"/>
 <path opacity="0.4" fill="none" stroke="#000" id="0" d="m 2.4375 9.4375 v 10.125 h 14.125 v -10.125 h -14.125 z" transform="matrix(1 0 0 1 2.979 -6.938)"/>
 <path fill="url(#3)" fill-rule="evenodd" d="M 2,9 H17 V20 H2 z" id="path54"/>
 <path opacity="0.4" fill="none" stroke="url(#4)" id="1" d="m 3.4375 10.4375 v 8.125 h 12.125 v -8.125 h -12.125 z" transform="matrix(1 0 0 1 2.979 -6.938)"/>
 <g id="g57" fill-rule="evenodd">
  <path d="M 2,9 7,9 7,20 2,20 Z" id="path59" fill="url(#2)"/>
  <path d="m 12,9 5,0 0,11 -5,0 z" id="path61" fill="url(#5)"/>
 </g>
 <g transform="translate(-2.979,6.938)" id="g63">
  <use xlink:href="#0" id="use65" x="0" y="0" width="22" height="22"/>
  <use xlink:href="#1" id="use67" x="0" y="0" width="22" height="22"/>
 </g>
 <metadata id="metadata9999">
  <rdf:RDF>
   <cc:Work>
    <dc:format>image/svg+xml</dc:format>
    <dc:type rdf:resource="http://purl.org/dc/dcmitype/StillImage"/>
    <dc:title>Ivy icon theme</dc:title>
    <cc:license rdf:resource="http://creativecommons.org/licenses/by-sa/4.0/"/>
    <dc:creator>
     <cc:Agent>
      <dc:title>Sixsixfive (sixsixfive.deviantart.com)</dc:title>
     </cc:Agent>
    </dc:creator>
    <dc:publisher>
     <cc:Agent>
      <dc:title>Sixsixfive (sixsixfive.deviantart.com)</dc:title>
     </cc:Agent>
    </dc:publisher>
    <dc:source>https://github.com/sixsixfive</dc:source>
    <dc:subject>
     <rdf:Bag>
      <rdf:li>ivy</rdf:li>
     </rdf:Bag>
    </dc:subject>
    <dc:contributor>
     <cc:Agent>
      <dc:title>ssf</dc:title>
     </cc:Agent>
    </dc:contributor>
    <dc:rights>
     <cc:Agent>
      <dc:title>Sixsixfive (sixisixfive.deviantart.com)</dc:title>
     </cc:Agent>
    </dc:rights>
    <dc:description>A simple icon theme published under CC-BY-SA_V4(http://creativecommons.org/licenses/by-sa/4.0)</dc:description>
    <dc:identifier>SSF</dc:identifier>
   </cc:Work>
  </rdf:RDF>
 </metadata>
 <!--Part of the Ivy icon them published under the CC-BY-SA_V4: http://creativecommons.org/licenses/by-sa/4.0 -->
</svg>
