<?xml version="1.0" encoding="UTF-8" standalone="no"?>
<svg xmlns:dc="http://purl.org/dc/elements/1.1/" xmlns:cc="http://creativecommons.org/ns#" xmlns:rdf="http://www.w3.org/1999/02/22-rdf-syntax-ns#" xmlns:svg="http://www.w3.org/2000/svg" xmlns="http://www.w3.org/2000/svg" viewBox="0 0 22 22" id="svg2" version="1.1">
 <defs id="defs4">
  <linearGradient id="0" y1="0" y2="21" x2="0" gradientUnits="userSpaceOnUse">
   <stop stop-color="#5288d1" id="stop7"/>
   <stop offset="1" stop-color="#b1c9eb" id="stop9"/>
  </linearGradient>
  <linearGradient id="1" y1="1" y2="20" x2="0" gradientUnits="userSpaceOnUse">
   <stop stop-color="#fff" id="stop12"/>
   <stop offset="1" stop-color="#fff" stop-opacity="0" id="stop14"/>
  </linearGradient>
 </defs>
 <rect width="21" x="1" opacity="0.1" y="1" rx="2" height="21" ry="2" id="rect16"/>
 <rect width="21" x="1" fill="url(#0)" rx="2" height="21" ry="2" id="rect18"/>
 <path opacity="0.4" fill="none" stroke="#000" d="m 3 0.5 c -0.843896 0 -1.5 0.656104 -1.5 1.5 V 19 c 0 0.843896 0.656104 1.5 1.5 1.5 h 17 c 0.843896 0 1.5 -0.656104 1.5 -1.5 V 2 C 21.5 1.156104 20.843896 0.5 20 0.5 H 3 z" id="path20"/>
 <path opacity="0.3" d="m 15.5 3 c -0.825747 0 -1.5 0.676575 -1.5 1.506438 0 0.829863 0.674253 1.493562 1.5 1.493562 0.825746 0 1.5 -0.663699 1.5 -1.493562 0 -0.829863 -0.674254 -1.506438 -1.5 -1.506438 z" id="path22"/>
 <path opacity="0.4" fill="none" stroke="url(#1)" d="m 3 1.5 c -0.307342 0 -0.5 0.192658 -0.5 0.5 V 19 c 0 0.307342 0.192658 0.5 0.5 0.5 h 17 c 0.307342 0 0.5 -0.192658 0.5 -0.5 V 2 c 0 -0.307342 -0.192658 -0.5 -0.5 -0.5 H 3 z" id="path24"/>
 <path opacity="0.3" d="M 8.6027 3.9503 C 8.441807 3.965591 8.28839 4.04136 8.174131 4.151074 l -1.936 2.2487 c -0.294038 0.242032 -0.314169 0.741087 -0.040174 1.00387 0.273987 0.262785 0.679194 0.241861 0.931544 -0.040155 l 1.5705 -1.8635 l 2.3 1.5 l -3 3.2948 c -0.05843 0.06831 -0.113794 0.151503 -0.160713 0.227544 -0.50823 0.145442 -0.978997 0.369635 -1.37946 0.682633 l 1.4062 1.218 c 0.339571 -0.211013 0.730428 -0.334624 1.16517 -0.334624 1.19929 0 2.18302 0.937803 2.18302 2.08805 0 0.342365 -0.08847 0.665416 -0.24107 0.950332 l 1.3393 1.1645 c 0.418737 -0.604508 0.656248 -1.33467 0.656248 -2.11482 0 -0.624365 -0.164922 -1.13937 -0.441964 -1.65973 h 2.50125 v 4.68229 c -0.0054 0.366775 0.589548 0.801 0.972 0.801 0.38245 0 1.00534 -0.434225 0.999937 -0.801 v -5.36493 c -0.000038 -0.363493 -0.344221 -0.896038 -0.72321 -0.896074 h -4.24551 l 2.0223 -2.2628 c 0.352887 -0.403143 0.503533 -0.971063 0.388389 -1.48573 -0.115143 -0.514668 -0.483405 -0.962465 -0.977673 -1.19126 -0.01121 -0.00386 -0.02878 -0.010074 -0.04017 -0.013385 l -0.0938 -0.0402 c -0.02246 -0.00761 -0.04421 -0.020024 -0.06697 -0.02677 l -4.3125 -1.9007 C 8.844608 3.972707 8.718008 3.954581 8.602563 3.963575 z" id="path26"/>
 <path fill="#fff" d="m 15.5 4 c -0.825747 0 -1.5 0.676575 -1.5 1.506438 0 0.829863 0.674253 1.493562 1.5 1.493562 0.825746 0 1.5 -0.663699 1.5 -1.493562 0 -0.829863 -0.674254 -1.506438 -1.5 -1.506438 z" id="path28"/>
 <path opacity="0.3" d="m 5.7232 11.9813 c -0.455419 0.620164 -0.72321 1.37777 -0.72321 2.19513 0 2.10879 1.77895 3.81471 3.97766 3.81471 0.993488 0 1.90073 -0.346371 2.5982 -0.923562 l -1.3393 -1.1645 c -0.34393 0.219311 -0.761383 0.348009 -1.20535 0.348009 -1.19929 0 -2.16963 -0.924418 -2.16963 -2.07467 0 -0.350903 0.09466 -0.687014 0.254463 -0.977102 z" id="path30"/>
 <g id="g32" fill="#fff">
  <path d="M 8.6027,4.9503 C 8.441807,4.965591 8.28839,5.04136 8.174131,5.151074 l -1.936,2.2487 C 5.944093,7.641806 5.923962,8.140861 6.197957,8.403644 6.471944,8.666429 6.877151,8.645505 7.129501,8.363489 l 1.5705,-1.8635 2.3,1.5 -3,3.2948 c -0.05843,0.06831 -0.113794,0.151503 -0.160713,0.227544 -0.50823,0.145442 -0.978997,0.369635 -1.37946,0.682633 l 1.4062,1.218 c 0.339571,-0.211013 0.730428,-0.334624 1.16517,-0.334624 1.19929,0 2.18302,0.937803 2.18302,2.08805 0,0.342365 -0.08847,0.665416 -0.24107,0.950332 l 1.3393,1.1645 c 0.418737,-0.604508 0.656248,-1.33467 0.656248,-2.11482 0,-0.624365 -0.164922,-1.13937 -0.441964,-1.65973 l 2.50125,0 0,4.68229 c -0.0054,0.366775 0.589548,0.801 0.972,0.801 0.38245,0 1.00534,-0.434225 0.999937,-0.801 l 0,-5.36493 c -3.8e-5,-0.363493 -0.344221,-0.896038 -0.72321,-0.896074 l -4.24551,0 2.0223,-2.2628 C 14.406386,9.272017 14.557032,8.704097 14.441888,8.18943 14.326745,7.674762 13.958483,7.226965 13.464215,6.99817 13.453005,6.99431 13.435435,6.988096 13.424045,6.984785 l -0.0938,-0.0402 c -0.02246,-0.00761 -0.04421,-0.020024 -0.06697,-0.02677 l -4.3125,-1.9007 C 8.844608,4.972707 8.718008,4.954581 8.602563,4.963575 Z" id="path34"/>
  <path d="m 5.7232,12.9813 c -0.455419,0.620164 -0.72321,1.37777 -0.72321,2.19513 0,2.10879 1.77895,3.81471 3.97766,3.81471 0.993488,0 1.90073,-0.346371 2.5982,-0.923562 l -1.3393,-1.1645 c -0.34393,0.219311 -0.761383,0.348009 -1.20535,0.348009 -1.19929,0 -2.16963,-0.924418 -2.16963,-2.07467 0,-0.350903 0.09466,-0.687014 0.254463,-0.977102 z" id="path36"/>
 </g>
 <metadata id="metadata9999">
  <rdf:RDF>
   <cc:Work>
    <dc:format>image/svg+xml</dc:format>
    <dc:type rdf:resource="http://purl.org/dc/dcmitype/StillImage"/>
    <dc:title>Ivy icon theme</dc:title>
    <cc:license rdf:resource="http://creativecommons.org/licenses/by-sa/4.0/"/>
    <dc:creator>
     <cc:Agent>
      <dc:title>Sixsixfive (sixsixfive.deviantart.com)</dc:title>
     </cc:Agent>
    </dc:creator>
    <dc:publisher>
     <cc:Agent>
      <dc:title>Sixsixfive (sixsixfive.deviantart.com)</dc:title>
     </cc:Agent>
    </dc:publisher>
    <dc:source>https://github.com/sixsixfive</dc:source>
    <dc:subject>
     <rdf:Bag>
      <rdf:li>ivy</rdf:li>
     </rdf:Bag>
    </dc:subject>
    <dc:contributor>
     <cc:Agent>
      <dc:title>ssf</dc:title>
     </cc:Agent>
    </dc:contributor>
    <dc:rights>
     <cc:Agent>
      <dc:title>Sixsixfive (sixisixfive.deviantart.com)</dc:title>
     </cc:Agent>
    </dc:rights>
    <dc:description>A simple icon theme published under CC-BY-SA_V4(http://creativecommons.org/licenses/by-sa/4.0)</dc:description>
    <dc:identifier>SSF</dc:identifier>
   </cc:Work>
  </rdf:RDF>
 </metadata>
 <!--Part of the Ivy icon them published under the CC-BY-SA_V4: http://creativecommons.org/licenses/by-sa/4.0 -->
</svg>
