<?xml version="1.0" encoding="UTF-8" standalone="no"?><svg xmlns:svg="http://www.w3.org/2000/svg" xmlns="http://www.w3.org/2000/svg" viewBox="0 0 22 22" xmlns:rdf="http://www.w3.org/1999/02/22-rdf-syntax-ns#" version="1.1" id="svg2" xmlns:dc="http://purl.org/dc/elements/1.1/" xmlns:cc="http://creativecommons.org/ns#"><defs id="defs4"><linearGradient y1="0.969" x2="0" y2="19.656" id="0" gradientUnits="userSpaceOnUse"><stop id="stop7" stop-color="#fff"/><stop stop-opacity="0" offset="1" id="stop9" stop-color="#fff"/></linearGradient><linearGradient y1="0" x2="0" y2="12" id="1" gradientTransform="matrix(0.71429 0 0 0.66667 -0.286 0)" gradientUnits="userSpaceOnUse"><stop id="stop12" stop-color="#fff"/><stop stop-opacity="0.635" offset="1" id="stop14" stop-color="#fff"/></linearGradient><radialGradient cy="15" id="2" gradientTransform="matrix(1.19048 0 0 1 -8.143 -4.5)" cx="16.5" r="10.5" gradientUnits="userSpaceOnUse"><stop id="stop17" stop-color="#ebebeb"/><stop offset="1" id="stop19" stop-color="#b8b8b8"/></radialGradient></defs><path opacity="0.15" id="path21" d="M 9.714286 0 C 6.548571 0 4 2.616533 4 5.866667 4 12.466667 4 5.866667 4 12.466667 4 17.748133 7.345 22 11.5 22 15.655001 22 19 17.748133 19 12.466667 19 5.866667 19 12.466667 19 5.866667 19 2.616533 16.451429 0 13.285714 0 z"/><path id="path23" d="M 9.714286 0 C 6.548571 0 4 2.4976 4 5.6 4 11.9 4 5.6 4 11.9 4 16.9414 7.345 21 11.5 21 15.655001 21 19 16.9414 19 11.9 19 5.6 19 11.9 19 5.6 19 2.4976 16.451429 0 13.285714 0 z" fill="url(#2)"/><path opacity="0.6" id="path25" d="M 9.714286 0 C 6.548571 0 4 2.378667 4 5.333333 V 8 H 11.142857 H 19 V 5.333333 C 19 2.378667 16.451429 0 13.285714 0 H 11.142857 H 9.714286 z" fill="url(#1)"/><path id="path27" d="M 10,5 H13 V8 H10 z" fill="#cecece"/><path opacity="0.4" id="path29" d="M 5,8 H18 V9 H5 z"/><path opacity="0.65" id="path31" d="M 9.71875 0 C 6.553036 0 4 2.389083 4 5.34375 V 8 H 10 V 5 H 12 V 0 H 11.15625 H 9.71875 z" fill="#ff8b36"/><path opacity="0.4" id="path33" d="M 11,1 H12 V4 H11 z"/><path opacity="0.4" id="path35" d="M 9,5 H10 V8 H9 z"/><path opacity="0.4" id="path37" d="M 13,5 H14 V8 H13 z"/><path opacity="0.4" id="path39" transform="matrix(0 1 -1 0 0 0)" d="M 4.02,-13 H4.999 V-10 H4.02 z"/><path opacity="0.4" id="path41" d="M 10,5 H13 V6 H10 z" fill="#fff"/><g id="g43" fill="none"><path stroke="#000" opacity="0.4" id="path45" transform="matrix(0.99936 0 0 1.01865 0.007 -0.005)" d="M 9.71875,0.5 C 6.811364,0.5 4.5,2.732338 4.5,5.5 l 0,6.1875 c 0,4.72615 3.164835,8.4375 7,8.4375 3.835167,0 7,-3.71135 7,-8.4375 L 18.5,5.5 c 0,-2.767662 -2.311363,-5 -5.21875,-5 l -3.5625,0 z"/><path stroke="url(#0)" opacity="0.4" id="path47" d="m 9.71875,1.46875 c -2.416762,0 -4.25,1.797227 -4.25,4.03125 l 0,6.1875 c 0,4.298257 2.814443,7.46875 6.03125,7.46875 3.216809,0 6.03125,-3.170493 6.03125,-7.46875 l 0,-6.1875 c 0,-2.234023 -1.833238,-4.03125 -4.25,-4.03125 l -3.5625,0 z"/></g><path opacity="0.4" id="path49" d="M 5,9 H18 V10 H5 z" fill="#fff"/><metadata id="metadata9999"><rdf:RDF><cc:Work><dc:format>image/svg+xml</dc:format><dc:type rdf:resource="http://purl.org/dc/dcmitype/StillImage"/><dc:title>Ivy icon theme</dc:title><cc:license rdf:resource="http://creativecommons.org/licenses/by-sa/4.0/"/><dc:creator><cc:Agent><dc:title>Sixsixfive (sixsixfive.deviantart.com)</dc:title></cc:Agent></dc:creator><dc:publisher><cc:Agent><dc:title>Sixsixfive (sixsixfive.deviantart.com)</dc:title></cc:Agent></dc:publisher><dc:source>https://github.com/sixsixfive</dc:source><dc:subject><rdf:Bag><rdf:li>ivy</rdf:li></rdf:Bag></dc:subject><dc:contributor><cc:Agent><dc:title>ssf</dc:title></cc:Agent></dc:contributor><dc:rights><cc:Agent><dc:title>Sixsixfive (sixisixfive.deviantart.com)</dc:title></cc:Agent></dc:rights><dc:description>A simple icon theme published under CC-BY-SA_V4(http://creativecommons.org/licenses/by-sa/4.0)</dc:description><dc:identifier>SSF</dc:identifier></cc:Work></rdf:RDF></metadata><!--Part of the Ivy icon them published under the CC-BY-SA_V4: http://creativecommons.org/licenses/by-sa/4.0 -->
</svg>