<?xml version="1.0" encoding="UTF-8" standalone="no"?>
<svg xmlns:dc="http://purl.org/dc/elements/1.1/" xmlns:cc="http://creativecommons.org/ns#" xmlns:rdf="http://www.w3.org/1999/02/22-rdf-syntax-ns#" xmlns:svg="http://www.w3.org/2000/svg" xmlns="http://www.w3.org/2000/svg" xmlns:xlink="http://www.w3.org/1999/xlink" viewBox="0 0 22 22" id="svg2" version="1.1">
 <defs id="1">
  <linearGradient id="4" y1="3" y2="43" x2="0" gradientUnits="userSpaceOnUse" gradientTransform="matrix(0.45584046 0 0 0.45584046 0.059829 0.059829)">
   <stop stop-color="#dedede" id="8"/>
   <stop offset="1" stop-color="#ebebeb" id="9"/>
  </linearGradient>
  <linearGradient id="5" xlink:href="#4" y1="3" y2="43" x2="0" gradientUnits="userSpaceOnUse" gradientTransform="matrix(0.45584046 0 0 0.45584046 0.059829 0.059829)"/>
 </defs>
 <path opacity="0.1" id="0" d="M 11,2 C 5.4750276,2 1,6.475031 1,12 1,17.524969 5.4750276,22 11,22 16.524973,22 21,17.524969 21,12 21,6.475031 16.524973,2 11,2 z m 0,6 c 2.209139,0 4,1.790861 4,4 0,2.209139 -1.790861,4 -4,4 C 8.790861,16 7,14.209139 7,12 7,9.790861 8.790861,8 11,8 z"/>
 <path fill="url(#5)" id="2" d="M 11,1 C 5.4750276,1 1,5.475031 1,11 1,16.524969 5.4750276,21 11,21 16.524973,21 21,16.524969 21,11 21,5.475031 16.524973,1 11,1 z m 0,6 c 2.209139,0 4,1.790861 4,4 0,2.209139 -1.790861,4 -4,4 C 8.790861,15 7,13.209139 7,11 7,8.790861 8.790861,7 11,7 z"/>
 <g id="3" transform="matrix(0.70710678,0.70710678,-0.70710678,0.70710678,11,-4.556349)">
  <path id="6" d="m 11,1.5 c -5.255718,0 -9.5,4.2442853 -9.5,9.5 0,5.255715 4.244282,9.5 9.5,9.5 5.255719,0 9.5,-4.244285 9.5,-9.5 0,-5.2557147 -4.244281,-9.5 -9.5,-9.5 z m 0,5 c 2.478625,0 4.5,2.0213753 4.5,4.5 0,2.478625 -2.021375,4.5 -4.5,4.5 C 8.5213753,15.5 6.5,13.478625 6.5,11 6.5,8.5213753 8.5213753,6.5 11,6.5 Z" opacity="0.5" fill="none" stroke="#000"/>
  <path id="7" d="m 11,2.96875 0,2.0625 c 3.265807,0 5.96875,2.7029435 5.96875,5.96875 l 2.0625,0 C 19.03125,6.5307913 15.469212,2.96875 11,2.96875 Z" fill="#5288d1"/>
 </g>
 <metadata id="metadata9999">
  <rdf:RDF>
   <cc:Work>
    <dc:format>image/svg+xml</dc:format>
    <dc:type rdf:resource="http://purl.org/dc/dcmitype/StillImage"/>
    <dc:title>Ivy icon theme</dc:title>
    <cc:license rdf:resource="http://creativecommons.org/licenses/by-sa/4.0/"/>
    <dc:creator>
     <cc:Agent>
      <dc:title>Sixsixfive (sixsixfive.deviantart.com)</dc:title>
     </cc:Agent>
    </dc:creator>
    <dc:publisher>
     <cc:Agent>
      <dc:title>Sixsixfive (sixsixfive.deviantart.com)</dc:title>
     </cc:Agent>
    </dc:publisher>
    <dc:source>https://github.com/sixsixfive</dc:source>
    <dc:subject>
     <rdf:Bag>
      <rdf:li>ivy</rdf:li>
     </rdf:Bag>
    </dc:subject>
    <dc:contributor>
     <cc:Agent>
      <dc:title>ssf</dc:title>
     </cc:Agent>
    </dc:contributor>
    <dc:rights>
     <cc:Agent>
      <dc:title>Sixsixfive (sixisixfive.deviantart.com)</dc:title>
     </cc:Agent>
    </dc:rights>
    <dc:description>A simple icon theme published under CC-BY-SA_V4(http://creativecommons.org/licenses/by-sa/4.0)</dc:description>
    <dc:identifier>SSF</dc:identifier>
   </cc:Work>
  </rdf:RDF>
 </metadata>
 <!--Part of the Ivy icon them published under the CC-BY-SA_V4: http://creativecommons.org/licenses/by-sa/4.0 -->
</svg>
