<?xml version="1.0" encoding="UTF-8" standalone="no"?><svg xmlns:xlink="http://www.w3.org/1999/xlink" xmlns:cc="http://creativecommons.org/ns#" viewBox="0 0 22 22" version="1.1" id="svg2" xmlns:svg="http://www.w3.org/2000/svg" xmlns:rdf="http://www.w3.org/1999/02/22-rdf-syntax-ns#" xmlns="http://www.w3.org/2000/svg" xmlns:dc="http://purl.org/dc/elements/1.1/"><defs id="defs4"><linearGradient id="linearGradient4236"><stop id="stop4238"/><stop offset="1" stop-opacity="0" id="stop4240"/></linearGradient><linearGradient id="linearGradient4226"><stop id="stop4228" stop-color="#6a6a6a"/><stop offset="1" id="stop4230" stop-color="#333"/></linearGradient><linearGradient x2="0" gradientUnits="userSpaceOnUse" xlink:href="#linearGradient4226" id="linearGradient4234" y2="6" gradientTransform="matrix(0.47692438 0 0 0.47692438 -0.43077313 -0.86154566)" y1="42"/><linearGradient x2="0" gradientUnits="userSpaceOnUse" xlink:href="#linearGradient4236" id="linearGradient4242" y2="35" gradientTransform="matrix(0.50000001 0 0 0.40384483 -0.99999994 1.8654315)" y1="39"/></defs><rect height="4" width="21.938522" stroke-linejoin="round" opacity="0.1" rx="0.47692439" ry="0.66666669" fill="#000" id="rect4186" stroke-width="1.5" stroke-linecap="round" x="0" y="18"/><rect height="17.169277" width="20.030825" rx="1" ry="1" fill="url(#linearGradient4234)" id="rect18" x="1" y="2"/><rect stroke-dasharray="none" height="1" width="18" fill-opacity="1" fill-rule="evenodd" stroke-linejoin="miter" stroke-miterlimit="5" opacity="0.15" fill="#fff" stroke="none" id="rect4176" stroke-width="1" x="2" stroke-linecap="round" y="3" stroke-dashoffset="0" stroke-opacity="1"/><path fill="#5288d1" id="path20" d="M 3,4 3,15 19,15 19,4 3,4 Z"/><rect stroke-dasharray="none" height="11" width="2" fill-opacity="1" fill-rule="evenodd" stroke-linejoin="miter" stroke-miterlimit="4" opacity="1" fill="#ffd506" stroke="none" id="rect4261" stroke-width="1" x="12" stroke-linecap="round" y="4" stroke-dashoffset="0" stroke-opacity="1"/><rect stroke-dasharray="none" height="11" width="2" fill-opacity="1" fill-rule="evenodd" stroke-linejoin="miter" stroke-miterlimit="4" opacity="1" fill="#ffd506" stroke="none" id="rect4259" stroke-width="1" x="15" stroke-linecap="round" y="4" stroke-dashoffset="0" stroke-opacity="1"/><path opacity="0.2" fill="#fff" id="path32" d="m 3,15 16,0 0,1 -16,0 z"/><path opacity="0.8" fill="none" id="path4170" stroke="#000" d="m 3.5,4.5 0,10 15,0 0,-10 -15,0 z"/><rect height="1.6153793" width="20" stroke-linejoin="round" opacity="0.6" fill="url(#linearGradient4242)" id="rect4214" stroke-linecap="round" x="1" y="16"/><path opacity="0.6" fill="none" id="path4174" stroke="#000" d="M 2,2.5 C 1.7146767,2.5 1.5,2.7146767 1.5,3 l 0,15.169922 c 0,0.285323 0.2146767,0.5 0.5,0.5 l 18.03125,0 c 0.285323,0 0.5,-0.214677 0.5,-0.5 L 20.53125,3 c 0,-0.2853233 -0.214677,-0.5 -0.5,-0.5 L 2,2.5 Z"/><rect height="4" width="21.938522" stroke-linejoin="round" rx="0.47692439" ry="0.66666669" fill="#777" id="rect4170" stroke-width="1.5" stroke-linecap="round" x="0" y="17"/><ellipse stroke-linejoin="round" opacity="0.2" rx="0.49999997" cx="3.5" ry="1" cy="20" fill="#fff" id="ellipse4178" stroke-linecap="round"/><rect height="2" width="4" stroke-linejoin="round" opacity="0.2" rx="0.44444448" ry="1" fill="#fff" id="rect4212" stroke-linecap="round" x="16" y="19"/><ellipse stroke-linejoin="round" rx="0.49999997" cx="3.5" ry="0.5" cy="19.5" id="path4202" stroke-linecap="round"/><ellipse stroke-linejoin="round" opacity="0.2" rx="0.5" cx="5.5" ry="0.99999946" cy="20" fill="#fff" id="ellipse4180" stroke-linecap="round"/><ellipse stroke-linejoin="round" rx="0.5" cx="5.5" ry="0.49999973" cy="19.5" id="circle4204" stroke-linecap="round"/><rect height="0.99999952" width="4" stroke-linejoin="round" rx="0.44444448" ry="0.49999976" id="rect4210" stroke-linecap="round" x="16" y="19"/><rect height="1" width="20" stroke-linejoin="round" opacity="0.2" rx="0.45454547" ry="0.5" fill="#fff" id="rect4220" stroke-linecap="round" x="1" y="18"/><path stroke-dasharray="none" stroke-linejoin="round" stroke-miterlimit="4" opacity="0.6" fill="none" id="path4184" stroke="#000" stroke-width="1" stroke-linecap="round" d="m 0.54492188,17.503906 c -0.0159741,0.0274 -0.0410156,0.08243 -0.0410156,0.16211 l 0,2.667968 c 0,0.07968 0.0250415,0.134714 0.0410156,0.16211 l 20.84960912,0 c 0.01617,-0.02705 0.04102,-0.08242 0.04102,-0.16211 l 0,-2.667968 c 0,-0.07969 -0.02485,-0.135059 -0.04102,-0.16211 l -20.84960912,0 z"/><metadata id="metadata9999"><rdf:RDF><cc:Work><dc:format>image/svg+xml</dc:format><dc:type rdf:resource="http://purl.org/dc/dcmitype/StillImage"/><dc:title/><cc:license rdf:resource="http://creativecommons.org/licenses/by-sa/4.0/"/><dc:creator><cc:Agent><dc:title>Sixsixfive (sixsixfive.deviantart.com)</dc:title></cc:Agent></dc:creator><dc:publisher><cc:Agent><dc:title>Sixsixfive (sixsixfive.deviantart.com)</dc:title></cc:Agent></dc:publisher><dc:source>https://github.com/sixsixfive</dc:source><dc:subject><rdf:Bag><rdf:li>ivy</rdf:li></rdf:Bag></dc:subject><dc:contributor><cc:Agent><dc:title>ssf</dc:title></cc:Agent></dc:contributor><dc:rights><cc:Agent><dc:title>Sixsixfive (sixisixfive.deviantart.com)</dc:title></cc:Agent></dc:rights><dc:description>A simple icon theme published under CC-BY-SA_V4(http://creativecommons.org/licenses/by-sa/4.0)</dc:description><dc:identifier>SSF</dc:identifier></cc:Work></rdf:RDF></metadata><!--Part of the Ivy icon them published under the CC-BY-SA_V4: http://creativecommons.org/licenses/by-sa/4.0 -->
</svg>