<?xml version="1.0" encoding="UTF-8" standalone="no"?><svg xmlns:cc="http://creativecommons.org/ns#" xmlns:rdf="http://www.w3.org/1999/02/22-rdf-syntax-ns#" xmlns:svg="http://www.w3.org/2000/svg" id="svg2" viewBox="0 0 22 22" version="1.1" xmlns:dc="http://purl.org/dc/elements/1.1/" xmlns="http://www.w3.org/2000/svg"><defs id="defs4"><linearGradient id="0" x2="0" y2="21" y1="2" gradientUnits="userSpaceOnUse"><stop id="stop7" stop-color="#ebebeb"/><stop offset="1" id="stop9" stop-color="#f3f3f3"/></linearGradient><linearGradient id="1" x2="0" y2="15.12" gradientTransform="matrix(0.5 0 0 0.49411 -1 -0.471)" y1="5" gradientUnits="userSpaceOnUse"><stop id="stop12" stop-color="#d02604"/><stop offset="1" id="stop14" stop-color="#fc7b62"/></linearGradient><linearGradient id="2" x2="0" y2="20" y1="3" gradientUnits="userSpaceOnUse"><stop id="stop17" stop-color="#fff"/><stop offset="1" id="stop19" stop-color="#fff" stop-opacity="0"/></linearGradient></defs><path id="path21" opacity="0.1" d="M 1,3 H21 V22 H1 z"/><path id="path23" d="M 1,2 H21 V21 H1 z" fill="url(#0)"/><path id="path25" d="m 12 10 v 1.4211 v 1.5789 h 1 v -2 h 2 v 7 h -3 v 1 h 3.23077 h 0.845692 h 1.92354 v -1 c -0.769231 0 -1.23077 0 -2 0 v -6.54544 v -1.45456 h -0.692308 z" fill="#fff"/><path id="path27" d="M 1,2 H21 V7 H1 z" fill="url(#1)"/><path id="path29" opacity="0.4" d="m 1.5 2.5 v 18 h 19 v -18 h -19 z" stroke="#000" fill="none"/><path id="path31" d="m 12 9 v 1.4211 v 1.5789 h 1 v -2 h 2 v 7 h -3 v 1 h 3.23077 h 1.84569 h 0.923078 v -1 c -0.769231 0 -1.23031 0 -1.99954 0 v -6.54544 v -1.45456 h -0.692308 z" fill="#6a6a6a"/><path id="path33" d="M 4,10 4,11.4211 4,13 l 1,0 0,-2 4,0 0,3 -2.96649,0 -0.0335,1 2.96649,0 0.0335,3 -3.96649,0 -0.0335,-2 -1,0 0,1.57895 0,1.42105 6,0 0,-1.42105 0,-6.15789 0,-1.42105 -1.61602,0 -2.92265,0 z" fill="#fff"/><path id="path35" d="M 4,9 4,10.4211 4,12 l 1,0 0,-2 4,0 0,3 -2.96649,0 -0.0335,1 2.96649,0 0.0335,3 -3.96649,0 -0.0335,-2 -1,0 0,1.57895 0,1.42105 6,0 0,-1.42105 0,-6.15789 0,-1.42105 -1.61602,0 -2.92265,0 z" fill="#6a6a6a"/><path id="path37" opacity="0.4" d="M 2,6 H20 V7 H2 z"/><path id="path39" opacity="0.7" d="M 3,7 H19 V8 H3 z" fill="#fff"/><path id="path41" opacity="0.4" d="m 2.5 3.5 v 16 h 17 v -16 h -17 z" stroke="url(#2)" fill="none"/><g id="g43" fill="#fff"><path id="rect45" opacity="0.2" d="m 14.55,1 0.9,0 C 16.3087,1 17,1.6913 17,2.55 l 0,1.9 C 17,5.3087 16.3087,6 15.45,6 l -0.9,0 C 13.6913,6 13,5.3087 13,4.45 l 0,-1.9 C 13,1.6913 13.6913,1 14.55,1 Z"/><path id="rect47" opacity="0.2" d="m 6.55,1 0.9,0 C 8.3087,1 9,1.6913 9,2.55 l 0,1.9 C 9,5.3087 8.3087,6 7.45,6 L 6.55,6 C 5.6913,6 5,5.3087 5,4.45 L 5,2.55 C 5,1.6913 5.6913,1 6.55,1 Z"/></g><rect rx="1.55" height="5" ry="1.55" id="rect49" width="4" x="5" fill="#ddd"/><path id="path51" opacity="0.4" d="M 6.5625 0.5 C 5.976974 0.5 5.5 0.976974 5.5 1.5625 v 1.875 C 5.5 4.02303 5.976974 4.5 6.5625 4.5 h 0.875 C 8.02303 4.5 8.5 4.02303 8.5 3.4375 v -1.875 C 8.5 0.976974 8.02303 0.5 7.4375 0.5 h -0.875 z" stroke="#000" fill="none"/><rect rx="1.55" height="5" ry="1.55" id="rect53" width="4" x="13" fill="#ddd"/><path id="path55" opacity="0.4" d="M 14.5625 0.5 C 13.976974 0.5 13.5 0.976974 13.5 1.5625 v 1.875 C 13.5 4.02303 13.976974 4.5 14.5625 4.5 h 0.875 C 16.02303 4.5 16.5 4.02303 16.5 3.4375 v -1.875 C 16.5 0.976974 16.02303 0.5 15.4375 0.5 h -0.875 z" stroke="#000" fill="none"/><g id="g57" fill="#fff"><path id="rect59" d="m 6.5,1 1,0 C 7.777,1 8,1.223 8,1.5 8,1.777 7.777,2 7.5,2 l -1,0 C 6.223,2 6,1.777 6,1.5 6,1.223 6.223,1 6.5,1 Z"/><path id="rect61" d="m 14.5,1 1,0 C 15.777,1 16,1.223 16,1.5 16,1.777 15.777,2 15.5,2 l -1,0 C 14.223,2 14,1.777 14,1.5 14,1.223 14.223,1 14.5,1 Z"/></g><metadata id="metadata9999"><rdf:RDF><cc:Work><dc:format>image/svg+xml</dc:format><dc:type rdf:resource="http://purl.org/dc/dcmitype/StillImage"/><dc:title>Ivy icon theme</dc:title><cc:license rdf:resource="http://creativecommons.org/licenses/by-sa/4.0/"/><dc:creator><cc:Agent><dc:title>Sixsixfive (sixsixfive.deviantart.com)</dc:title></cc:Agent></dc:creator><dc:publisher><cc:Agent><dc:title>Sixsixfive (sixsixfive.deviantart.com)</dc:title></cc:Agent></dc:publisher><dc:source>https://github.com/sixsixfive</dc:source><dc:subject><rdf:Bag><rdf:li>ivy</rdf:li></rdf:Bag></dc:subject><dc:contributor><cc:Agent><dc:title>ssf</dc:title></cc:Agent></dc:contributor><dc:rights><cc:Agent><dc:title>Sixsixfive (sixisixfive.deviantart.com)</dc:title></cc:Agent></dc:rights><dc:description>A simple icon theme published under CC-BY-SA_V4(http://creativecommons.org/licenses/by-sa/4.0)</dc:description><dc:identifier>SSF</dc:identifier></cc:Work></rdf:RDF></metadata><!--Part of the Ivy icon them published under the CC-BY-SA_V4: http://creativecommons.org/licenses/by-sa/4.0 -->
</svg>