<?xml version="1.0" encoding="UTF-8" standalone="no"?><svg xmlns:cc="http://creativecommons.org/ns#" viewBox="0 0 22 22" version="1.1" id="svg2" xmlns:svg="http://www.w3.org/2000/svg" xmlns:rdf="http://www.w3.org/1999/02/22-rdf-syntax-ns#" xmlns="http://www.w3.org/2000/svg" xmlns:dc="http://purl.org/dc/elements/1.1/"><defs id="0"/><rect height="15" width="3" fill-rule="evenodd" opacity="0.1" id="rect4182" x="13" y="7"/><rect height="11" width="3" fill-rule="evenodd" opacity="0.1" id="rect4184" x="9" y="11"/><rect height="7" width="3" fill-rule="evenodd" opacity="0.1" id="rect4186" x="5" y="15"/><rect height="3" width="3" fill-rule="evenodd" opacity="0.1" id="rect4188" x="1" y="19"/><rect height="15" width="3" fill-rule="evenodd" fill="#abd992" id="2" x="13" y="6"/><rect height="11" width="3" fill-rule="evenodd" fill="#abd992" id="3" x="9" y="10"/><rect height="7" width="3" fill-rule="evenodd" fill="#abd992" id="4" x="5" y="14"/><rect height="3" width="3" fill-rule="evenodd" fill="#abd992" id="5" x="1" y="18"/><path fill-rule="evenodd" opacity="0.4" fill="none" id="path4218" stroke="#000" d="m 13.505859,6.5058594 c 0,4.6627606 0,9.3255206 0,13.9882816 0.662761,0 1.325521,0 1.988282,0 0,-4.662761 0,-9.325521 0,-13.9882816 -0.662761,0 -1.325521,0 -1.988282,0 z"/><path fill-rule="evenodd" opacity="0.4" fill="none" id="path4216" stroke="#000" d="m 9.5058594,10.505859 c 0,3.329427 0,6.658855 0,9.988282 0.6627606,0 1.3255206,0 1.9882816,0 0,-3.329427 0,-6.658855 0,-9.988282 -0.662761,0 -1.325521,0 -1.9882816,0 z"/><path fill-rule="evenodd" opacity="0.4" fill="none" id="path4214" stroke="#000" d="m 5.5058594,14.505859 c 0,1.996094 0,3.992188 0,5.988282 0.6627604,0 1.3255208,0 1.9882812,0 0,-1.996094 0,-3.992188 0,-5.988282 -0.6627604,0 -1.3255208,0 -1.9882812,0 z"/><path fill-rule="evenodd" opacity="0.4" fill="none" id="path4180" stroke="#000" d="m 1.5058594,18.505859 c 0,0.662761 0,1.325521 0,1.988282 0.6627604,0 1.3255208,0 1.9882812,0 0,-0.662761 0,-1.325521 0,-1.988282 -0.6627604,0 -1.3255208,0 -1.9882812,0 z"/><metadata id="metadata9999"><rdf:RDF><cc:Work><dc:format>image/svg+xml</dc:format><dc:type rdf:resource="http://purl.org/dc/dcmitype/StillImage"/><dc:title>Ivy icon theme</dc:title><cc:license rdf:resource="http://creativecommons.org/licenses/by-sa/4.0/"/><dc:creator><cc:Agent><dc:title>Sixsixfive (sixsixfive.deviantart.com)</dc:title></cc:Agent></dc:creator><dc:publisher><cc:Agent><dc:title>Sixsixfive (sixsixfive.deviantart.com)</dc:title></cc:Agent></dc:publisher><dc:source>https://github.com/sixsixfive</dc:source><dc:subject><rdf:Bag><rdf:li>ivy</rdf:li></rdf:Bag></dc:subject><dc:contributor><cc:Agent><dc:title>ssf</dc:title></cc:Agent></dc:contributor><dc:rights><cc:Agent><dc:title>Sixsixfive (sixisixfive.deviantart.com)</dc:title></cc:Agent></dc:rights><dc:description>A simple icon theme published under CC-BY-SA_V4(http://creativecommons.org/licenses/by-sa/4.0)</dc:description><dc:identifier>SSF</dc:identifier></cc:Work></rdf:RDF></metadata><!--Part of the Ivy icon them published under the CC-BY-SA_V4: http://creativecommons.org/licenses/by-sa/4.0 -->
</svg>