<?xml version="1.0" encoding="UTF-8" standalone="no"?><svg viewBox="0 0 48 48" xmlns="http://www.w3.org/2000/svg" xmlns:svg="http://www.w3.org/2000/svg" xmlns:rdf="http://www.w3.org/1999/02/22-rdf-syntax-ns#" xmlns:xlink="http://www.w3.org/1999/xlink" version="1.1" id="svg2" xmlns:dc="http://purl.org/dc/elements/1.1/" xmlns:cc="http://creativecommons.org/ns#"><defs id="defs4"><linearGradient id="linearGradient4198"><stop id="stop4200"/><stop stop-opacity="0.882" offset="1" id="stop4202"/></linearGradient><linearGradient id="linearGradient4236"><stop id="stop4238"/><stop stop-opacity="0" offset="1" id="stop4240"/></linearGradient><linearGradient id="linearGradient4226"><stop id="stop4228" stop-color="#6a6a6a"/><stop offset="1" id="stop4230" stop-color="#333"/></linearGradient><linearGradient x1="43.917" y1="7.06" x2="43.928" y2="41.3" id="0" gradientUnits="userSpaceOnUse"><stop id="stop7" stop-color="#fff"/><stop stop-opacity="0" offset="1" id="stop9" stop-color="#fff"/></linearGradient><linearGradient xlink:href="#linearGradient4226" y1="42" x2="0" y2="6" id="linearGradient4234" gradientUnits="userSpaceOnUse"/><linearGradient xlink:href="#linearGradient4236" y1="39" x2="0" y2="35" id="linearGradient4242" gradientUnits="userSpaceOnUse"/><radialGradient xlink:href="#linearGradient4198" gradientTransform="matrix(1.2352943 -1.3529414 1.0461815 0.95520928 -52.611803 29.15752)" id="radialGradient4204" cy="42.718" cx="25.841" r="17" gradientUnits="userSpaceOnUse"/></defs><rect stroke-linejoin="round" y="38" x="1" stroke-width="1.5" stroke-linecap="round" opacity="0.1" ry="1" height="6" rx="1" id="rect4164" width="46"/><rect y="6" x="3" ry="2" height="36" rx="2" id="rect18" width="42" fill="url(#linearGradient4234)"/><path id="path20" d="M 7 10 V 34 H 41 V 10 H 7 z" fill="url(#radialGradient4204)"/><g id="g26" fill="none"><path stroke="#000" opacity="0.7" id="path28" d="M 5,6.5 C 4.161723,6.5 3.5,7.161723 3.5,8 l 0,32 c 0,0.838277 0.661723,1.5 1.5,1.5 l 38,0 c 0.838277,0 1.5,-0.661723 1.5,-1.5 l 0,-32 C 44.5,7.161723 43.838277,6.5 43,6.5 l -38,0 z"/><path stroke="url(#0)" opacity="0.2" id="path30" d="M 5,7.5 C 4.699797,7.5 4.5,7.699797 4.5,8 l 0,32 c 0,0.300203 0.199797,0.5 0.5,0.5 l 38,0 c 0.300203,0 0.5,-0.199797 0.5,-0.5 l 0,-32 C 43.5,7.699797 43.3002,7.5 43,7.5 l -38,0 z"/></g><path opacity="0.2" id="path32" d="M 7,34 H41 V35 H7 z" fill="#fff"/><path stroke="#000" id="path36" d="m 7.5094376,10.509438 -0.038521,22.942604 33.0581662,0.07704 0,-22.981125 z" fill="none"/><rect stroke-linejoin="round" y="35" x="4" stroke-linecap="round" opacity="0.6" height="4" id="rect4214" width="40" fill="url(#linearGradient4242)"/><rect stroke-linejoin="round" y="37" x="1" stroke-width="1.5" stroke-linecap="round" ry="1" height="6" rx="1" id="rect4170" width="46" fill="#777"/><rect stroke-linejoin="round" y="40" x="34" stroke-linecap="round" opacity="0.2" ry="1" height="2" rx="1" id="rect4212" width="9" fill="#fff"/><circle stroke-linejoin="round" stroke-linecap="round" opacity="0.2" id="circle4206" cy="41" cx="8" r="1" fill="#fff"/><circle stroke-linejoin="round" stroke-linecap="round" id="path4202" cy="40" cx="8" r="1"/><circle stroke-linejoin="round" stroke-linecap="round" opacity="0.2" id="circle4208" cy="41" cx="12" r="1" fill="#fff"/><circle stroke-linejoin="round" stroke-linecap="round" id="circle4204" cy="40" cx="12" r="1"/><rect stroke-linejoin="round" y="39" x="34" stroke-linecap="round" ry="1" height="2" rx="1" id="rect4210" width="9"/><rect stroke-linejoin="round" y="38" x="2" stroke-linecap="round" opacity="0.2" ry="0.5" height="1" rx="1" id="rect4220" width="44" fill="#fff"/><path stroke-linejoin="round" stroke="#000" stroke-linecap="round" transform="matrix(1 0 0 1 0 -1.00045)" id="path4218" d="m 2,38.435547 c -0.3199994,0 -0.5644531,0.244454 -0.5644531,0.564453 l 0,4 c 0,0.319999 0.2444537,0.564453 0.5644531,0.564453 l 44,0 c 0.319999,0 0.564453,-0.244454 0.564453,-0.564453 l 0,-4 c 0,-0.319999 -0.244454,-0.564453 -0.564453,-0.564453 l -44,0 z" fill="none"/><metadata id="metadata9999"><rdf:RDF><cc:Work><dc:format>image/svg+xml</dc:format><dc:type rdf:resource="http://purl.org/dc/dcmitype/StillImage"/><dc:title>Ivy icon theme</dc:title><cc:license rdf:resource="http://creativecommons.org/licenses/by-sa/4.0/"/><dc:creator><cc:Agent><dc:title>Sixsixfive (sixsixfive.deviantart.com)</dc:title></cc:Agent></dc:creator><dc:publisher><cc:Agent><dc:title>Sixsixfive (sixsixfive.deviantart.com)</dc:title></cc:Agent></dc:publisher><dc:source>https://github.com/sixsixfive</dc:source><dc:subject><rdf:Bag><rdf:li>ivy</rdf:li></rdf:Bag></dc:subject><dc:contributor><cc:Agent><dc:title>ssf</dc:title></cc:Agent></dc:contributor><dc:rights><cc:Agent><dc:title>Sixsixfive (sixisixfive.deviantart.com)</dc:title></cc:Agent></dc:rights><dc:description>A simple icon theme published under CC-BY-SA_V4(http://creativecommons.org/licenses/by-sa/4.0)</dc:description><dc:identifier>SSF</dc:identifier></cc:Work></rdf:RDF></metadata><!--Part of the Ivy icon them published under the CC-BY-SA_V4: http://creativecommons.org/licenses/by-sa/4.0 -->
</svg>