<?xml version="1.0" encoding="UTF-8" standalone="no"?>
<svg xmlns:dc="http://purl.org/dc/elements/1.1/" xmlns:cc="http://creativecommons.org/ns#" xmlns:rdf="http://www.w3.org/1999/02/22-rdf-syntax-ns#" xmlns:svg="http://www.w3.org/2000/svg" xmlns="http://www.w3.org/2000/svg" viewBox="0 0 48 48" id="svg2" version="1.1">
 <defs id="defs4">
  <linearGradient id="0" y1="63.25" y2="70.25" x2="0" gradientUnits="userSpaceOnUse" gradientTransform="matrix(1 0 0 1.14286 0 -39.29)">
   <stop stop-color="#a81f03" id="stop7"/>
   <stop offset="1" stop-color="#f22c05" id="stop9"/>
  </linearGradient>
  <linearGradient id="1" x1="11" x2="37.02" gradientUnits="userSpaceOnUse">
   <stop stop-color="#d02604" id="stop12"/>
   <stop offset="0.231" stop-color="#fb5534" id="stop14"/>
   <stop offset="1" stop-color="#d02604" id="stop16"/>
  </linearGradient>
  <linearGradient id="2" y1="63.25" y2="70.25" x2="0" gradientUnits="userSpaceOnUse" gradientTransform="matrix(1 0 0 1.14286 0 -39.29)">
   <stop stop-color="#a81f03" id="stop19"/>
   <stop offset="1" stop-color="#d02604" id="stop21"/>
  </linearGradient>
  <linearGradient id="3" y1="4" y2="9" x2="0" gradientUnits="userSpaceOnUse">
   <stop id="stop24"/>
   <stop offset="1" stop-opacity="0" id="stop26"/>
  </linearGradient>
  <linearGradient id="4" x1="20" x2="28" gradientUnits="userSpaceOnUse">
   <stop stop-color="#ebebeb" id="stop29"/>
   <stop offset="1" stop-color="#898989" id="stop31"/>
  </linearGradient>
  <linearGradient id="5" y1="37" y2="44" x2="0" gradientUnits="userSpaceOnUse">
   <stop stop-color="#d1d1d1" id="stop34"/>
   <stop offset="1" stop-color="#ebebeb" id="stop36"/>
  </linearGradient>
  <linearGradient id="6" y1="5" y2="45" x2="0" gradientUnits="userSpaceOnUse">
   <stop stop-color="#fff" id="stop39"/>
   <stop offset="1" stop-color="#fff" stop-opacity="0" id="stop41"/>
  </linearGradient>
  <linearGradient id="7" x1="11" x2="37" gradientUnits="userSpaceOnUse">
   <stop stop-color="#cecece" id="stop44"/>
   <stop offset="0.676" stop-color="#ebebeb" id="stop46"/>
   <stop offset="1" stop-color="#cecece" id="stop48"/>
  </linearGradient>
 </defs>
 <path opacity="0.2" d="m 11 8 v 35 c 0 2.20914 5.8203 4 13 4 7.1797 0 13 -1.79086 13 -4 V 8 H 11 z" id="path50"/>
 <path fill="url(#7)" d="m 11 7 v 35 c 0 2.20914 5.8203 4 13 4 7.1797 0 13 -1.79086 13 -4 V 7 H 11 z" id="path52"/>
 <path opacity="0.561" fill="#fff" d="m 37 40.5 a 13 3.5 0 1 1 -26 0 13 3.5 0 1 1 26 0 z" transform="matrix(1 0 0 1.14286 0 -38.29)" id="path54"/>
 <path opacity="0.72" fill="none" stroke="url(#6)" d="m 24 4.5312 c -3.46039 0 -6.60784 0.434624 -8.75 1.09375 -1.05599 0.32492 -1.85447 0.729301 -2.3125 1.0625 -0.464653 0.33802 -0.40625 0.490451 -0.40625 0.3125 v 35 c 0 -0.177951 -0.0584 -0.02552 0.40625 0.3125 0.458027 0.333199 1.25651 0.73758 2.3125 1.0625 2.14216 0.659126 5.28961 1.09375 8.75 1.09375 3.46039 0 6.60784 -0.434624 8.75 -1.09375 1.05599 -0.32492 1.85447 -0.729301 2.3125 -1.0625 0.464654 -0.33802 0.40625 -0.490451 0.40625 -0.3125 v -35 c 0 0.177951 0.0584 0.02552 -0.40625 -0.3125 C 34.604473 6.354251 33.80599 5.94987 32.75 5.62495 30.60784 4.965824 27.46039 4.5312 24 4.5312 z" id="path56"/>
 <path fill="url(#5)" d="m 37 40.5 a 13 3.5 0 1 1 -26 0 13 3.5 0 1 1 26 0 z" transform="matrix(1 0 0 1.14286 0 -39.29)" id="path58"/>
 <path fill="url(#1)" d="m 23.0938 34 c -3.98661 0.323516 -8.76818 0.239194 -11.832 3.19155 -0.544674 1.53821 -0.01249 3.23657 -0.261766 4.80845 0.90505 2.78445 4.68794 2.95271 7.10325 3.56483 6.00756 0.639516 12.7925 1.02612 18.1456 -2.22488 1.3854 -1.4013 0.395682 -3.51599 0.748602 -5.2388 -0.502066 -2.545 -3.8859 -2.86713 -5.94693 -3.4715 -2.61715 -0.511167 -5.29366 -0.680739 -7.95681 -0.629652 z" id="path60"/>
 <path opacity="0.3" fill="#fff" d="m 37 38 a 13 4 0 0 1 -26 0 13 4 0 1 1 26 0 z" id="path62"/>
 <path fill="url(#2)" d="m 37 37 a 13 4 0 0 1 -26 0 13 4 0 1 1 26 0 z" id="path64"/>
 <path fill="url(#0)" d="m 37 37 a 13 4 0 0 1 -26 0 13 4 0 1 1 26 0 z" id="path66"/>
 <path opacity="0.4" fill="none" stroke="#000" d="m 24 3.4688 c -3.55007 0 -6.77535 0.452512 -9.0625 1.15625 -1.14357 0.351869 -2.03423 0.788982 -2.625 1.21875 -0.590773 0.429768 -0.84375 0.814084 -0.84375 1.15625 v 35 c 0 0.342166 0.252977 0.726482 0.84375 1.15625 0.590773 0.429768 1.48143 0.866881 2.625 1.21875 2.28715 0.703738 5.51243 1.15625 9.0625 1.15625 3.55007 0 6.77535 -0.452512 9.0625 -1.15625 1.14357 -0.351869 2.03423 -0.788982 2.625 -1.21875 0.590773 -0.429768 0.84375 -0.814084 0.84375 -1.15625 v -35 C 36.53125 6.657884 36.27827 6.273568 35.6875 5.8438 35.09673 5.414032 34.20607 4.976919 33.0625 4.62505 30.77535 3.921312 27.55007 3.4688 24 3.4688 z" id="path68"/>
 <path fill="url(#4)" d="M 20 3.4674 V 7.5 V 8 c 0.547358 0.583813 2.25605 1 4 1 1.74395 0 3.45264 -0.416187 4 -1 V 7.5 V 3.45365 z" id="path70"/>
 <path fill="#fff" d="m 28 8 a 4.5 3 0 1 1 -9 0 4.5 3 0 1 1 9 0 z" transform="matrix(0.88889 0 0 0.5 3.111 0.5)" id="path72"/>
 <path fill="#ebebeb" d="m 28 8 a 4.5 3 0 1 1 -9 0 4.5 3 0 1 1 9 0 z" transform="matrix(0.88889 0 0 0.5 3.111 -0.5)" id="path74"/>
 <path opacity="0.3" fill="none" stroke="url(#3)" d="m 24 3.5 c -0.833289 0 -1.587257 0.086801 -2.1875 0.25 -0.600243 0.163199 -1.053057 0.417022 -1.21875 0.59375 A 0.48633 0.48633 0 0 1 20.5 4.4375 v 0.0625 v 4 h 7 v -4 v -0.0625 A 0.48633 0.48633 0 0 1 27.40625 4.34375 C 27.24056 4.167022 26.787743 3.913199 26.1875 3.75 25.587257 3.586801 24.833289 3.5 24 3.5 z" transform="matrix(1 0 0 1 0 -1)" id="path76"/>
 <metadata id="metadata9999">
  <rdf:RDF>
   <cc:Work>
    <dc:format>image/svg+xml</dc:format>
    <dc:type rdf:resource="http://purl.org/dc/dcmitype/StillImage"/>
    <dc:title>Ivy icon theme</dc:title>
    <cc:license rdf:resource="http://creativecommons.org/licenses/by-sa/4.0/"/>
    <dc:creator>
     <cc:Agent>
      <dc:title>Sixsixfive (sixsixfive.deviantart.com)</dc:title>
     </cc:Agent>
    </dc:creator>
    <dc:publisher>
     <cc:Agent>
      <dc:title>Sixsixfive (sixsixfive.deviantart.com)</dc:title>
     </cc:Agent>
    </dc:publisher>
    <dc:source>https://github.com/sixsixfive</dc:source>
    <dc:subject>
     <rdf:Bag>
      <rdf:li>ivy</rdf:li>
     </rdf:Bag>
    </dc:subject>
    <dc:contributor>
     <cc:Agent>
      <dc:title>ssf</dc:title>
     </cc:Agent>
    </dc:contributor>
    <dc:rights>
     <cc:Agent>
      <dc:title>Sixsixfive (sixisixfive.deviantart.com)</dc:title>
     </cc:Agent>
    </dc:rights>
    <dc:description>A simple icon theme published under CC-BY-SA_V4(http://creativecommons.org/licenses/by-sa/4.0)</dc:description>
    <dc:identifier>SSF</dc:identifier>
   </cc:Work>
  </rdf:RDF>
 </metadata>
 <!--Part of the Ivy icon them published under the CC-BY-SA_V4: http://creativecommons.org/licenses/by-sa/4.0 -->
</svg>
