<?xml version="1.0" encoding="UTF-8" standalone="no"?><svg xmlns:cc="http://creativecommons.org/ns#" viewBox="0 0 22 22" version="1.1" id="svg2" xmlns:svg="http://www.w3.org/2000/svg" xmlns="http://www.w3.org/2000/svg" xmlns:rdf="http://www.w3.org/1999/02/22-rdf-syntax-ns#" xmlns:dc="http://purl.org/dc/elements/1.1/"><defs id="defs4"><linearGradient x2="0" gradientUnits="userSpaceOnUse" y2="21" id="0" y1="0"><stop stop-color="#66b03e" id="stop7"/><stop offset="1" stop-color="#91cd71" id="stop9"/></linearGradient><linearGradient x2="0" gradientUnits="userSpaceOnUse" y2="20" id="1" y1="1"><stop stop-color="#fff" id="stop12"/><stop offset="1" stop-opacity="0" stop-color="#fff" id="stop14"/></linearGradient></defs><rect height="21" width="21" opacity="0.1" rx="2" ry="2" id="rect16" x="1" y="1"/><rect height="21" width="21" rx="2" ry="2" fill="url(#0)" id="rect18" x="1"/><g fill="none" id="g20"><path opacity="0.4" stroke="#000" id="path22" d="M 3,0.5 C 2.156104,0.5 1.5,1.156104 1.5,2 l 0,17 c 0,0.843896 0.656104,1.5 1.5,1.5 l 17,0 c 0.843896,0 1.5,-0.656104 1.5,-1.5 l 0,-17 C 21.5,1.156104 20.843896,0.5 20,0.5 l -17,0 z"/><path opacity="0.4" stroke="url(#1)" id="path24" d="M 3,1.5 C 2.692658,1.5 2.5,1.692658 2.5,2 l 0,17 c 0,0.307342 0.192658,0.5 0.5,0.5 l 17,0 c 0.307342,0 0.5,-0.192658 0.5,-0.5 l 0,-17 C 20.5,1.692658 20.307342,1.5 20,1.5 l -17,0 z"/></g><path opacity="0.8" fill="#171717" id="path26" d="M 10.84375 3 C 8.152245 3 6 4.997853 6 7.46875 v 2.625 h -0.5625 C 5.197433 10.09375 5 10.266899 5 10.5 v 7.09375 C 5 17.826851 5.197433 18 5.4375 18 h 12.125 C 17.802567 18 18 17.826851 18 17.59375 V 10.5 c 0 -0.233101 -0.197433 -0.40625 -0.4375 -0.40625 h -0.5625 v -2.625 C 17 4.997874 14.847779 3 12.15625 3 h -1.3125 z m 0 2.96875 h 1.3125 c 1.15726 0 1.9375 0.437604 1.9375 1.5 v 2.625 h -5.1875 v -2.625 c 0 -1.062396 0.780241 -1.5 1.9375 -1.5 z"/><metadata id="metadata9999"><rdf:RDF><cc:Work><dc:format>image/svg+xml</dc:format><dc:type rdf:resource="http://purl.org/dc/dcmitype/StillImage"/><dc:title>Ivy icon theme</dc:title><cc:license rdf:resource="http://creativecommons.org/licenses/by-sa/4.0/"/><dc:creator><cc:Agent><dc:title>Sixsixfive (sixsixfive.deviantart.com)</dc:title></cc:Agent></dc:creator><dc:publisher><cc:Agent><dc:title>Sixsixfive (sixsixfive.deviantart.com)</dc:title></cc:Agent></dc:publisher><dc:source>https://github.com/sixsixfive</dc:source><dc:subject><rdf:Bag><rdf:li>ivy</rdf:li></rdf:Bag></dc:subject><dc:contributor><cc:Agent><dc:title>ssf</dc:title></cc:Agent></dc:contributor><dc:rights><cc:Agent><dc:title>Sixsixfive (sixisixfive.deviantart.com)</dc:title></cc:Agent></dc:rights><dc:description>A simple icon theme published under CC-BY-SA_V4(http://creativecommons.org/licenses/by-sa/4.0)</dc:description><dc:identifier>SSF</dc:identifier></cc:Work></rdf:RDF></metadata><!--Part of the Ivy icon them published under the CC-BY-SA_V4: http://creativecommons.org/licenses/by-sa/4.0 -->
</svg>