<?xml version="1.0" encoding="UTF-8" standalone="no"?><svg xmlns:cc="http://creativecommons.org/ns#" xmlns:svg="http://www.w3.org/2000/svg" xmlns:dc="http://purl.org/dc/elements/1.1/" xmlns="http://www.w3.org/2000/svg" xmlns:rdf="http://www.w3.org/1999/02/22-rdf-syntax-ns#" id="svg2" version="1.1" viewBox="0 0 22 22"><defs id="defs4"><linearGradient gradientTransform="matrix(0.59237 0 0 0.63853 -5.506 -5.365)" gradientUnits="userSpaceOnUse" y1="9.966" id="0" y2="41.29" x2="0"><stop id="stop7" stop-color="#ff8b36"/><stop id="stop9" stop-color="#ff9e57" offset="1"/></linearGradient><linearGradient gradientUnits="userSpaceOnUse" y1="1.998" id="1" y2="19.998" x2="0"><stop id="stop12" stop-color="#fff"/><stop stop-opacity="0" id="stop14" stop-color="#fff" offset="1"/></linearGradient></defs><path opacity="0.1" d="m 21 12.00141 a 10 10 0 0 1 -20 0 10 10 0 1 1 20 0 z" id="path16"/><path d="m 21 10.998214 a 10 10 0 0 1 -20 0 10 10 0 1 1 20 0 z" id="path18" fill="url(#0)"/><g id="g20" fill="none"><path stroke="#000" opacity="0.4" d="M 10.78125,1.498214 C 10.606261,1.502034 10.487079,1.516903 10.3125,1.529464 10.137921,1.542025 10.017484,1.539444 9.84375,1.560714 9.670016,1.581981 9.547454,1.624544 9.375,1.654464 9.202546,1.684384 9.076994,1.709716 8.90625,1.748214 8.735506,1.786712 8.606108,1.794984 8.4375,1.841964 8.268892,1.888944 8.16605,1.942869 8,1.998214 7.83395,2.053559 7.725578,2.090893 7.5625,2.154464 7.399422,2.218035 7.284698,2.270325 7.125,2.341964 6.965302,2.413603 6.84342,2.449936 6.6875,2.529464 6.53158,2.608992 6.433002,2.660996 6.28125,2.748214 6.129498,2.835432 6.022206,2.903524 5.875,2.998214 5.727794,3.092904 5.611041,3.177538 5.46875,3.279464 5.326459,3.38139 5.230772,3.451807 5.09375,3.560714 4.956728,3.669621 4.85016,3.757597 4.71875,3.873214 4.58734,3.988831 4.50047,4.063677 4.375,4.185714 4.24953,4.307751 4.181716,4.401311 4.0625,4.529464 3.943284,4.657617 3.862665,4.739265 3.75,4.873214 3.637335,5.007163 3.543332,5.108804 3.4375,5.248214 3.331667,5.387624 3.254986,5.478691 3.15625,5.623214 3.057514,5.767737 2.997642,5.880189 2.90625,6.029464 2.814858,6.178739 2.740071,6.282059 2.65625,6.435714 2.572429,6.589369 2.51354,6.715564 2.4375,6.873214 2.36146,7.030864 2.318069,7.149462 2.25,7.310714 2.181931,7.471966 2.153678,7.583762 2.09375,7.748214 2.033822,7.912666 1.989138,8.018474 1.9375,8.185714 1.885862,8.352954 1.855718,8.484853 1.8125,8.654464 1.769282,8.824075 1.722191,8.951656 1.6875,9.123214 1.652809,9.294772 1.651077,9.418887 1.625,9.591964 1.598923,9.765041 1.579898,9.88655 1.5625,10.060714 1.545102,10.234878 1.539925,10.354649 1.53125,10.529464 1.52258,10.704279 1.499931,10.823183 1.5,10.998214 c 7.7e-5,0.17186 0.022743,0.297101 0.03125,0.46875 0.00851,0.171649 0.014333,0.297725 0.03125,0.46875 0.016917,0.171025 0.037214,0.29876 0.0625,0.46875 0.025286,0.16999 0.028906,0.268955 0.0625,0.4375 0.033594,0.168545 0.051928,0.302056 0.09375,0.46875 0.041822,0.166694 0.075052,0.273058 0.125,0.4375 0.049948,0.164442 0.098296,0.275707 0.15625,0.4375 0.057954,0.161793 0.090429,0.278744 0.15625,0.4375 0.065821,0.158756 0.113971,0.282164 0.1875,0.4375 0.073529,0.155336 0.137689,0.254708 0.21875,0.40625 0.081061,0.151542 0.130353,0.258867 0.21875,0.40625 0.088397,0.147383 0.15448,0.26338 0.25,0.40625 0.09552,0.14287 0.178837,0.236988 0.28125,0.375 0.102413,0.138012 0.17219,0.242178 0.28125,0.375 0.10906,0.132822 0.197056,0.216438 0.3125,0.34375 0.115444,0.127312 0.19095,0.222254 0.3125,0.34375 0.12155,0.121496 0.216386,0.197113 0.34375,0.3125 0.127364,0.115387 0.210879,0.203499 0.34375,0.3125 0.132871,0.109001 0.236942,0.178898 0.375,0.28125 0.138058,0.102352 0.232088,0.154544 0.375,0.25 0.142912,0.09546 0.258827,0.161669 0.40625,0.25 0.147423,0.08833 0.254672,0.169007 0.40625,0.25 0.151578,0.08099 0.250881,0.14529 0.40625,0.21875 0.155369,0.07346 0.278715,0.12175 0.4375,0.1875 0.158785,0.06575 0.275681,0.09837 0.4375,0.15625 0.161819,0.05788 0.273036,0.106375 0.4375,0.15625 0.164464,0.04988 0.270788,0.08325 0.4375,0.125 0.166712,0.04175 0.30019,0.06023 0.46875,0.09375 0.16856,0.03352 0.267499,0.03729 0.4375,0.0625 0.170001,0.02521 0.297717,0.04566 0.46875,0.0625 0.171033,0.01684 0.297097,0.02282 0.46875,0.03125 0.171653,0.0084 0.29689,0.03125 0.46875,0.03125 0.17186,0 0.297097,-0.02282 0.46875,-0.03125 0.171653,-0.0084 0.297717,-0.01441 0.46875,-0.03125 0.171033,-0.01684 0.298749,-0.03729 0.46875,-0.0625 0.170001,-0.02521 0.26894,-0.02898 0.4375,-0.0625 0.16856,-0.03352 0.302038,-0.052 0.46875,-0.09375 0.166712,-0.04175 0.273036,-0.07512 0.4375,-0.125 0.164464,-0.04988 0.275681,-0.09837 0.4375,-0.15625 0.161819,-0.05788 0.278715,-0.0905 0.4375,-0.15625 0.158785,-0.06575 0.282131,-0.11404 0.4375,-0.1875 0.155369,-0.07346 0.254672,-0.137757 0.40625,-0.21875 0.151578,-0.08099 0.258827,-0.161669 0.40625,-0.25 0.147423,-0.08833 0.263338,-0.154544 0.40625,-0.25 0.142912,-0.09546 0.236942,-0.147648 0.375,-0.25 0.138058,-0.102352 0.242129,-0.172249 0.375,-0.28125 0.132871,-0.109001 0.216386,-0.197113 0.34375,-0.3125 0.127364,-0.115387 0.2222,-0.191004 0.34375,-0.3125 0.12155,-0.121496 0.197056,-0.216438 0.3125,-0.34375 0.115444,-0.127312 0.20344,-0.210928 0.3125,-0.34375 0.10906,-0.132822 0.178837,-0.236988 0.28125,-0.375 0.102413,-0.138012 0.18573,-0.23213 0.28125,-0.375 0.09552,-0.14287 0.161603,-0.258867 0.25,-0.40625 0.0884,-0.147383 0.137689,-0.254708 0.21875,-0.40625 0.08106,-0.151542 0.14522,-0.250914 0.21875,-0.40625 0.07353,-0.155336 0.121679,-0.278744 0.1875,-0.4375 0.06582,-0.158756 0.0983,-0.275707 0.15625,-0.4375 0.05795,-0.161793 0.106302,-0.273058 0.15625,-0.4375 0.04995,-0.164442 0.08318,-0.270806 0.125,-0.4375 0.04182,-0.166694 0.06016,-0.300205 0.09375,-0.46875 0.03359,-0.168545 0.03721,-0.26751 0.0625,-0.4375 0.02529,-0.16999 0.04558,-0.297725 0.0625,-0.46875 0.01692,-0.171025 0.02274,-0.297101 0.03125,-0.46875 0.0085,-0.171649 0.03117,-0.29689 0.03125,-0.46875 6.7e-5,-0.168874 -0.02318,-0.300069 -0.03125,-0.46875 -0.0081,-0.168681 -0.01506,-0.269405 -0.03125,-0.4375 C 20.42131,9.923869 20.4305,9.790333 20.40625,9.623214 20.38197,9.456095 20.34481,9.351469 20.3125,9.185714 20.28019,9.019959 20.25901,8.880969 20.21875,8.716964 20.17849,8.552959 20.14187,8.441338 20.09375,8.279464 20.04563,8.11759 20.02461,8.00133 19.96875,7.841964 19.91289,7.682598 19.87598,7.592203 19.8125,7.435714 19.74902,7.279226 19.695949,7.151461 19.625,6.998214 19.55405,6.844968 19.484504,6.741613 19.40625,6.591964 19.328,6.442316 19.272876,6.331417 19.1875,6.185714 19.10212,6.040011 19.0298,5.952132 18.9375,5.810714 18.8452,5.669296 18.786509,5.572519 18.6875,5.435714 18.58849,5.298909 18.511738,5.192587 18.40625,5.060714 18.300762,4.928841 18.236722,4.843599 18.125,4.716964 18.01328,4.590329 17.930197,4.494317 17.8125,4.373214 17.694803,4.252112 17.592147,4.176003 17.46875,4.060714 17.345353,3.945426 17.253811,3.857421 17.125,3.748214 16.996189,3.639008 16.915175,3.569835 16.78125,3.466964 16.647325,3.364093 16.544978,3.28201 16.40625,3.185714 16.267522,3.089418 16.174458,3.025211 16.03125,2.935714 15.888042,2.846217 15.772356,2.799454 15.625,2.716964 15.477644,2.634474 15.369911,2.573505 15.21875,2.498214 15.067589,2.422923 14.967114,2.378631 14.8125,2.310714 14.657886,2.242797 14.563958,2.1836 14.40625,2.123214 14.248542,2.062828 14.129186,2.019678 13.96875,1.966964 13.808314,1.91425 13.69404,1.886883 13.53125,1.841964 13.36846,1.797045 13.258516,1.753984 13.09375,1.716964 12.928984,1.679944 12.791359,1.683499 12.625,1.654464 12.458641,1.625429 12.355065,1.581696 12.1875,1.560714 12.019935,1.539732 11.887132,1.542345 11.71875,1.529464 c -0.168382,-0.012881 -0.268693,-0.0265 -0.4375,-0.03125 -0.174961,-0.00492 -0.325011,-0.00382 -0.5,0 z" id="path22"/><path stroke="url(#1)" opacity="0.4" d="M 10.4062,2.560714 C 10.022069,2.588353 9.941905,2.61988 9.56245,2.685714 9.182995,2.751548 9.089692,2.769842 8.7187,2.873214 8.347708,2.976586 8.296274,2.983337 7.93745,3.123214 7.578626,3.263091 7.499275,3.291977 7.1562,3.466964 6.813125,3.641951 6.76135,3.696115 6.43745,3.904464 6.11355,4.112813 6.051442,4.133583 5.74995,4.373214 5.448458,4.612845 5.401024,4.667192 5.12495,4.935714 4.848876,5.204236 4.7791,5.265983 4.5312,5.560714 c -0.2479,0.294731 -0.282749,0.338252 -0.5,0.65625 -0.217251,0.317998 -0.253067,0.41191 -0.4375,0.75 -0.184433,0.33809 -0.225226,0.395193 -0.375,0.75 C 3.068926,8.071771 3.05107,8.130232 2.93745,8.498214 2.823831,8.866196 2.795031,8.93323 2.7187,9.310714 c -0.076331,0.377484 -0.08672,0.460533 -0.125,0.84375 -0.03828,0.383217 -0.031402,0.458626 -0.03125,0.84375 1.69e-4,0.378147 -0.00597,0.436189 0.03125,0.8125 0.037223,0.376311 0.051082,0.472897 0.125,0.84375 0.073918,0.370853 0.108848,0.419425 0.21875,0.78125 0.109902,0.361825 0.105172,0.431936 0.25,0.78125 0.144828,0.349314 0.19664,0.416558 0.375,0.75 0.17836,0.333442 0.196075,0.404391 0.40625,0.71875 0.210175,0.314359 0.260032,0.363998 0.5,0.65625 0.239968,0.292252 0.29505,0.357669 0.5625,0.625 0.26745,0.267331 0.332641,0.322663 0.625,0.5625 0.292359,0.239837 0.341797,0.258715 0.65625,0.46875 0.314453,0.210035 0.385229,0.259289 0.71875,0.4375 0.333521,0.178211 0.400621,0.199078 0.75,0.34375 0.349379,0.144672 0.419376,0.17151 0.78125,0.28125 0.361874,0.10974 0.410364,0.144998 0.78125,0.21875 0.370886,0.07375 0.467422,0.08795 0.84375,0.125 0.376328,0.03705 0.434352,0.03125 0.8125,0.03125 0.378148,0 0.436172,0.0058 0.8125,-0.03125 0.376328,-0.03705 0.472864,-0.05125 0.84375,-0.125 0.370886,-0.07375 0.419376,-0.10901 0.78125,-0.21875 0.361874,-0.10974 0.431871,-0.136578 0.78125,-0.28125 0.349379,-0.144672 0.416479,-0.165539 0.75,-0.34375 0.333521,-0.178211 0.404297,-0.227465 0.71875,-0.4375 0.314453,-0.210035 0.363891,-0.228913 0.65625,-0.46875 0.292359,-0.239837 0.35755,-0.295169 0.625,-0.5625 0.26745,-0.267331 0.322532,-0.332748 0.5625,-0.625 0.239968,-0.292252 0.289825,-0.341891 0.5,-0.65625 0.210175,-0.314359 0.22789,-0.385308 0.40625,-0.71875 0.17836,-0.333442 0.230172,-0.400686 0.375,-0.75 0.144828,-0.349314 0.140098,-0.419425 0.25,-0.78125 0.109902,-0.361825 0.144832,-0.410397 0.21875,-0.78125 0.07392,-0.370853 0.08778,-0.467439 0.125,-0.84375 0.03722,-0.376311 0.03108,-0.434353 0.03125,-0.8125 1.47e-4,-0.371577 0.0044,-0.442636 -0.03125,-0.8125 C 19.37057,9.81585 19.35228,9.737928 19.2812,9.373214 19.21012,9.0085 19.19957,8.948139 19.0937,8.591964 18.987828,8.235789 18.952127,8.155039 18.81245,7.810714 18.672773,7.466389 18.640883,7.421239 18.4687,7.091964 18.296517,6.762689 18.26554,6.68438 18.06245,6.373214 17.85936,6.062048 17.825809,6.007128 17.5937,5.716964 17.361591,5.4268 17.321421,5.389679 17.06245,5.123214 16.803479,4.856749 16.752126,4.801004 16.4687,4.560714 16.185274,4.320424 16.117697,4.272596 15.81245,4.060714 15.507203,3.848832 15.449181,3.804718 15.12495,3.623214 14.800719,3.44171 14.746402,3.428904 14.4062,3.279464 14.065998,3.130024 13.977961,3.082951 13.62495,2.966964 13.271939,2.850977 13.206239,2.82967 12.8437,2.748214 c -0.362539,-0.081456 -0.412552,-0.078832 -0.78125,-0.125 -0.368698,-0.046168 -0.44107,-0.052049 -0.8125,-0.0625 -0.384972,-0.010832 -0.459619,-0.027639 -0.84375,0 z" id="path24"/></g><metadata id="metadata9999"><rdf:RDF><cc:Work><dc:format>image/svg+xml</dc:format><dc:type rdf:resource="http://purl.org/dc/dcmitype/StillImage"/><dc:title>Ivy icon theme</dc:title><cc:license rdf:resource="http://creativecommons.org/licenses/by-sa/4.0/"/><dc:creator><cc:Agent><dc:title>Sixsixfive (sixsixfive.deviantart.com)</dc:title></cc:Agent></dc:creator><dc:publisher><cc:Agent><dc:title>Sixsixfive (sixsixfive.deviantart.com)</dc:title></cc:Agent></dc:publisher><dc:source>https://github.com/sixsixfive</dc:source><dc:subject><rdf:Bag><rdf:li>ivy</rdf:li></rdf:Bag></dc:subject><dc:contributor><cc:Agent><dc:title>ssf</dc:title></cc:Agent></dc:contributor><dc:rights><cc:Agent><dc:title>Sixsixfive (sixisixfive.deviantart.com)</dc:title></cc:Agent></dc:rights><dc:description>A simple icon theme published under CC-BY-SA_V4(http://creativecommons.org/licenses/by-sa/4.0)</dc:description><dc:identifier>SSF</dc:identifier></cc:Work></rdf:RDF></metadata><!--Part of the Ivy icon them published under the CC-BY-SA_V4: http://creativecommons.org/licenses/by-sa/4.0 -->
</svg>