<?xml version="1.0" encoding="UTF-8" standalone="no"?>
<svg xmlns:dc="http://purl.org/dc/elements/1.1/" xmlns:cc="http://creativecommons.org/ns#" xmlns:rdf="http://www.w3.org/1999/02/22-rdf-syntax-ns#" xmlns:svg="http://www.w3.org/2000/svg" xmlns="http://www.w3.org/2000/svg" viewBox="0 0 22 22" id="svg2" version="1.1">
 <defs id="defs4">
  <linearGradient id="0" y1="15.555" x1="15.555" y2="30.408" x2="0.707" gradientUnits="userSpaceOnUse">
   <stop stop-color="#ffb636" id="stop7"/>
   <stop offset="1" stop-color="#ffe775" id="stop9"/>
  </linearGradient>
  <linearGradient id="1" y1="1.218" x1="20.779" y2="19.787" x2="20.781" gradientUnits="userSpaceOnUse">
   <stop stop-color="#fff" id="stop12"/>
   <stop offset="1" stop-color="#fff" stop-opacity="0" id="stop14"/>
  </linearGradient>
 </defs>
 <g transform="matrix(0.70711,-0.70711,0.70711,0.70711,0,0)" id="g16">
  <path d="m -6.8040001,8.5819998 13.6060004,0 c 0.486412,0 0.878,0.391588 0.878,0.878 l 0,13.6060002 c 0,0.486412 -0.391588,0.878 -0.878,0.878 l -13.6060004,0 c -0.4864121,0 -0.8780001,-0.391588 -0.8780001,-0.878 l 0,-13.6060002 c 0,-0.486412 0.391588,-0.878 0.8780001,-0.878 z" id="rect18" opacity="0.1"/>
  <path d="m -6.096,7.875 13.6060005,0 c 0.486412,0 0.878,0.391588 0.878,0.878 l 0,13.606 c 0,0.486412 -0.391588,0.878 -0.878,0.878 l -13.6060005,0 c -0.486412,0 -0.878,-0.391588 -0.878,-0.878 l 0,-13.606 c 0,-0.486412 0.391588,-0.878 0.878,-0.878 z" id="rect20" fill="url(#0)"/>
 </g>
 <g transform="matrix(0.5,0,0,0.5,-2,-502.68)" id="g22" fill="#6a6a6a">
  <path d="m 22,1031.3622 0,-6 4,0 -6,-4 -6,4 4,0 0,6 z" id="path24" opacity="0.459"/>
  <path d="m 32,1021.3622 0,6 -4,0 6,4 6,-4 -4,0 0,-6 z" id="path26" opacity="0.459"/>
 </g>
 <g id="g28" fill="none">
  <path d="m 1.584861,10.203258 c -0.16723,0.16723 -0.16723,0.407295 0,0.574525 l 9.634331,9.63433 c 0.16723,0.16723 0.407294,0.16723 0.574524,0 l 9.612268,-9.612269 c 0.16723,-0.16723 0.16723,-0.407294 0,-0.574524 l -9.63433,-9.63433 c -0.16723,-0.16723 -0.407294,-0.16723 -0.574524,0 l -9.612269,9.612268 z" id="path30" opacity="0.4" stroke="#000"/>
  <path d="m 2.7118473,10.490485 8.7946407,8.794641 8.772508,-8.772508 -8.79464,-8.7946417 -8.7725087,8.7725087 z" id="path32" opacity="0.4" stroke="url(#1)"/>
 </g>
 <metadata id="metadata9999">
  <rdf:RDF>
   <cc:Work>
    <dc:format>image/svg+xml</dc:format>
    <dc:type rdf:resource="http://purl.org/dc/dcmitype/StillImage"/>
    <dc:title>Ivy icon theme</dc:title>
    <cc:license rdf:resource="http://creativecommons.org/licenses/by-sa/4.0/"/>
    <dc:creator>
     <cc:Agent>
      <dc:title>Sixsixfive (sixsixfive.deviantart.com)</dc:title>
     </cc:Agent>
    </dc:creator>
    <dc:publisher>
     <cc:Agent>
      <dc:title>Sixsixfive (sixsixfive.deviantart.com)</dc:title>
     </cc:Agent>
    </dc:publisher>
    <dc:source>https://github.com/sixsixfive</dc:source>
    <dc:subject>
     <rdf:Bag>
      <rdf:li>ivy</rdf:li>
     </rdf:Bag>
    </dc:subject>
    <dc:contributor>
     <cc:Agent>
      <dc:title>ssf</dc:title>
     </cc:Agent>
    </dc:contributor>
    <dc:rights>
     <cc:Agent>
      <dc:title>Sixsixfive (sixisixfive.deviantart.com)</dc:title>
     </cc:Agent>
    </dc:rights>
    <dc:description>A simple icon theme published under CC-BY-SA_V4(http://creativecommons.org/licenses/by-sa/4.0)</dc:description>
    <dc:identifier>SSF</dc:identifier>
   </cc:Work>
  </rdf:RDF>
 </metadata>
 <!--Part of the Ivy icon them published under the CC-BY-SA_V4: http://creativecommons.org/licenses/by-sa/4.0 -->
</svg>
