<?xml version="1.0" encoding="UTF-8" standalone="no"?><svg xmlns:cc="http://creativecommons.org/ns#" viewBox="0 0 48 48" version="1.1" id="svg2" xmlns:svg="http://www.w3.org/2000/svg" xmlns:rdf="http://www.w3.org/1999/02/22-rdf-syntax-ns#" xmlns="http://www.w3.org/2000/svg" xmlns:dc="http://purl.org/dc/elements/1.1/"><defs id="0"><linearGradient x2="0" gradientUnits="userSpaceOnUse" id="2" y2="1049.36" y1="1014.36"><stop stop-color="#fff" id="G"/><stop offset="1" stop-opacity="0" stop-color="#fff" id="H"/></linearGradient><linearGradient x2="40" gradientUnits="userSpaceOnUse" x1="39.695" id="3" y2="8.994" y1="46.621"><stop stop-color="#333" id="I"/><stop offset="1" stop-color="#6a6a6a" id="J"/></linearGradient></defs><g opacity="0.5" id="1"><path opacity="0.15" id="4" d="m 12,10.0022 c -1.108,0 -2,0.8251 -2,1.85 l 0,1.85 0,5.55 0,24.05 c 0,2.0498 1.784,3.7 4,3.7 l 22,0 c 2.216,0 4,-1.6502 4,-3.7 l 0,-24.05 0,-5.55 0,-1.85 c 0,-1.0249 -0.892,-1.85 -2,-1.85 l -2,0 -22,0 -2,0 z"/><path fill="#ebebeb" id="5" d="m 16,1 18,0 0,10 -18,0 z"/><path fill="url(#3)" id="6" d="m 12,9.0022 c -1.108,0 -2,0.8251 -2,1.85 l 0,1.85 0,5.55 0,24.05 c 0,2.0498 1.784,3.7 4,3.7 l 22,0 c 2.216,0 4,-1.6502 4,-3.7 l 0,-24.05 0,-5.55 0,-1.85 c 0,-1.0249 -0.892,-1.85 -2,-1.85 l -2,0 -22,0 -2,0 z"/><path fill="#fff" id="7" d="m 19,5 4,0 0,2 -4,0 z"/><path fill="#4e4e4e" id="8" d="m 19,4 4,0 0,2 -4,0 z"/><path fill="#fff" id="9" d="m 27,5 4,0 0,2 -4,0 z"/><path fill="#4e4e4e" id="A" d="m 27,4 4,0 0,2 -4,0 z"/><path opacity="0.5" id="B" d="M 16,1 34,1 34,2 16,2 Z"/><path opacity="0.5" id="C" d="m 16,2 1,0 0,7 -1,0 z"/><path opacity="0.65" fill="none" id="D" stroke="#fff" d="m 17.40625,2.4212 0,7.1876 15.1875,0 0,-7.1876 -15.1875,0 z"/><path opacity="0.5" id="E" d="m 33,2 1,0 0,7 -1,0 z"/><g fill="none" id="F" transform="matrix(1 0 0 1 0 -1004.36)"><path opacity="0.74" id="K" stroke="#000" d="m 12,1013.8438 c -0.876418,0 -1.53125,0.6228 -1.53125,1.375 l 0,1.8437 0,5.5625 0,24.0312 c 0,1.7773 1.55123,3.25 3.53125,3.25 l 22,0 c 1.980006,0 3.53125,-1.4729 3.53125,-3.25 l 0,-24.0312 0,-5.5625 0,-1.8437 c 0,-0.7524 -0.654804,-1.375 -1.53125,-1.375 l -2,0 -22,0 -2,0 z"/><path opacity="0.4" id="L" stroke="url(#2)" d="m 12,1014.9062 c -0.355618,0 -0.46875,0.1736 -0.46875,0.3126 l 0,1.8437 0,5.5625 0,24.0312 c 0,1.164 1.019419,2.1876 2.46875,2.1876 l 22,0 c 1.449285,0 2.46875,-1.0237 2.46875,-2.1876 l 0,-24.0312 0,-5.5625 0,-1.8437 c 0,-0.1391 -0.11304,-0.3126 -0.46875,-0.3126 l -2,0 -22,0 -2,0 z"/></g></g><metadata id="metadata9999"><rdf:RDF><cc:Work><dc:format>image/svg+xml</dc:format><dc:type rdf:resource="http://purl.org/dc/dcmitype/StillImage"/><dc:title>Ivy icon theme</dc:title><cc:license rdf:resource="http://creativecommons.org/licenses/by-sa/4.0/"/><dc:creator><cc:Agent><dc:title>Sixsixfive (sixsixfive.deviantart.com)</dc:title></cc:Agent></dc:creator><dc:publisher><cc:Agent><dc:title>Sixsixfive (sixsixfive.deviantart.com)</dc:title></cc:Agent></dc:publisher><dc:source>https://github.com/sixsixfive</dc:source><dc:subject><rdf:Bag><rdf:li>ivy</rdf:li></rdf:Bag></dc:subject><dc:contributor><cc:Agent><dc:title>ssf</dc:title></cc:Agent></dc:contributor><dc:rights><cc:Agent><dc:title>Sixsixfive (sixisixfive.deviantart.com)</dc:title></cc:Agent></dc:rights><dc:description>A simple icon theme published under CC-BY-SA_V4(http://creativecommons.org/licenses/by-sa/4.0)</dc:description><dc:identifier>SSF</dc:identifier></cc:Work></rdf:RDF></metadata><!--Part of the Ivy icon them published under the CC-BY-SA_V4: http://creativecommons.org/licenses/by-sa/4.0 -->
</svg>