<?xml version="1.0" encoding="UTF-8" standalone="no"?>
<svg
   xmlns:dc="http://purl.org/dc/elements/1.1/"
   xmlns:cc="http://creativecommons.org/ns#"
   xmlns:rdf="http://www.w3.org/1999/02/22-rdf-syntax-ns#"
   xmlns:svg="http://www.w3.org/2000/svg"
   xmlns="http://www.w3.org/2000/svg"
   xmlns:xlink="http://www.w3.org/1999/xlink"
   version="1.1"
   viewBox="0 0 48 48"
   id="svg2">
  <defs
     id="defs4">
    <linearGradient
       id="linearGradient4198">
      <stop
         id="stop4200" />
      <stop
         stop-opacity="0.882"
         id="stop4202"
         offset="1" />
    </linearGradient>
    <linearGradient
       id="linearGradient4236">
      <stop
         id="stop4238" />
      <stop
         stop-opacity="0"
         id="stop4240"
         offset="1" />
    </linearGradient>
    <linearGradient
       id="linearGradient4226">
      <stop
         stop-color="#6a6a6a"
         id="stop4228" />
      <stop
         stop-color="#333"
         id="stop4230"
         offset="1" />
    </linearGradient>
    <linearGradient
       gradientUnits="userSpaceOnUse"
       y1="7.06"
       x1="43.917"
       y2="41.3"
       x2="43.928"
       id="0">
      <stop
         stop-color="#fff"
         id="stop7" />
      <stop
         stop-opacity="0"
         stop-color="#fff"
         id="stop9"
         offset="1" />
    </linearGradient>
    <linearGradient
       gradientTransform="translate(1,-3)"
       gradientUnits="userSpaceOnUse"
       y1="42"
       xlink:href="#linearGradient4226"
       y2="6"
       x2="0"
       id="linearGradient4234" />
    <linearGradient
       gradientTransform="translate(1,-3)"
       gradientUnits="userSpaceOnUse"
       y1="39"
       xlink:href="#linearGradient4236"
       y2="35"
       x2="0"
       id="linearGradient4242" />
    <radialGradient
       gradientUnits="userSpaceOnUse"
       xlink:href="#linearGradient4198"
       gradientTransform="matrix(1.2352943,-1.3529414,1.0461815,0.95520928,-51.611803,26.15752)"
       cy="42.718"
       cx="25.841"
       id="radialGradient4204"
       r="17" />
    <linearGradient
       id="linearGradient4181">
      <stop
         stop-opacity="1"
         stop-color="#fff"
         id="stop4183" />
      <stop
         stop-opacity="0"
         stop-color="#fff"
         id="stop4185"
         offset="1" />
    </linearGradient>
    <linearGradient
       gradientUnits="userSpaceOnUse"
       y1="3"
       gradientTransform="matrix(0.69999997,0,0,0.7,-1.6832934,15.204583)"
       y2="43"
       x2="0"
       id="1">
      <stop
         stop-color="#66b03e"
         id="stop12" />
      <stop
         stop-color="#95ce76"
         id="stop14"
         offset="1" />
    </linearGradient>
    <linearGradient
       gradientTransform="translate(-0.89533409,0)"
       gradientUnits="userSpaceOnUse"
       y1="19"
       x1="22"
       xlink:href="#linearGradient4181"
       y2="45"
       x2="22"
       id="linearGradient4187" />
  </defs>
  <rect
     style="opacity:0.1;stroke-width:1.5;stroke-linecap:round;stroke-linejoin:round"
     y="35"
     x="2"
     width="46"
     id="rect4164"
     ry="1"
     height="6"
     rx="1" />
  <rect
     style="fill:url(#linearGradient4234)"
     y="3"
     x="4"
     width="42"
     id="rect18"
     ry="2"
     height="36"
     rx="2" />
  <path
     style="fill:url(#radialGradient4204)"
     d="M 8,7 8,31 42,31 42,7 8,7 Z"
     id="path20" />
  <g
     style="fill:none"
     transform="translate(1,-3)"
     id="g26">
    <path
       style="opacity:0.7;stroke:#000000"
       d="M 5,6.5 C 4.161723,6.5 3.5,7.161723 3.5,8 l 0,32 c 0,0.838277 0.661723,1.5 1.5,1.5 l 38,0 c 0.838277,0 1.5,-0.661723 1.5,-1.5 l 0,-32 C 44.5,7.161723 43.838277,6.5 43,6.5 l -38,0 z"
       id="path28" />
    <path
       style="opacity:0.2;stroke:url(#0)"
       d="M 5,7.5 C 4.699797,7.5 4.5,7.699797 4.5,8 l 0,32 c 0,0.300203 0.199797,0.5 0.5,0.5 l 38,0 c 0.300203,0 0.5,-0.199797 0.5,-0.5 l 0,-32 C 43.5,7.699797 43.3002,7.5 43,7.5 l -38,0 z"
       id="path30" />
  </g>
  <path
     style="opacity:0.2;fill:#ffffff"
     d="m 8,31 34,0 0,1 -34,0 z"
     id="path32" />
  <path
     style="fill:none;stroke:#000000"
     d="m 8.5094376,7.509438 -0.038521,22.942604 33.0581664,0.07704 0,-22.981125 z"
     id="path36" />
  <rect
     style="opacity:0.6;fill:url(#linearGradient4242);stroke-linecap:round;stroke-linejoin:round"
     y="32"
     x="5"
     width="40"
     id="rect4214"
     height="4" />
  <rect
     style="fill:#777777;stroke-width:1.5;stroke-linecap:round;stroke-linejoin:round"
     y="34"
     x="2"
     width="46"
     id="rect4170"
     ry="1"
     height="6"
     rx="1" />
  <rect
     style="opacity:0.2;fill:#ffffff;stroke-linecap:round;stroke-linejoin:round"
     y="37"
     x="35"
     width="9"
     id="rect4212"
     ry="1"
     height="2"
     rx="1" />
  <circle
     style="opacity:0.2;fill:#ffffff;stroke-linecap:round;stroke-linejoin:round"
     cy="38"
     cx="9"
     id="circle4206"
     r="1" />
  <circle
     style="stroke-linecap:round;stroke-linejoin:round"
     cy="37"
     cx="9"
     id="path4202"
     r="1" />
  <circle
     style="opacity:0.2;fill:#ffffff;stroke-linecap:round;stroke-linejoin:round"
     cy="38"
     cx="13"
     id="circle4208"
     r="1" />
  <circle
     style="stroke-linecap:round;stroke-linejoin:round"
     cy="37"
     cx="13"
     id="circle4204"
     r="1" />
  <rect
     style="stroke-linecap:round;stroke-linejoin:round"
     y="36"
     x="35"
     width="9"
     id="rect4210"
     ry="1"
     height="2"
     rx="1" />
  <rect
     style="opacity:0.2;fill:#ffffff;stroke-linecap:round;stroke-linejoin:round"
     y="35"
     x="3"
     width="44"
     id="rect4220"
     ry="0.5"
     height="1"
     rx="1" />
  <path
     style="fill:none;stroke:#000000;stroke-linecap:round;stroke-linejoin:round"
     d="m 3,34.435097 c -0.3199994,0 -0.5644531,0.244454 -0.5644531,0.564453 l 0,4 c 0,0.319999 0.2444537,0.564453 0.5644531,0.564453 l 44,0 c 0.319999,0 0.564453,-0.244454 0.564453,-0.564453 l 0,-4 c 0,-0.319999 -0.244454,-0.564453 -0.564453,-0.564453 l -44,0 z"
     id="path4218" />
  <path
     style="fill:#000000;opacity:0.6"
     d="m 2.105001,32.004583 a 14,14 0 0 0 27.999998,0 14,14 0 1 0 -27.999998,0 z"
     id="path4188" />
  <path
     id="path4189"
     d="m 1.1046664,33.004583 a 14,14 0 0 0 27.9999986,0 14,14 0 1 0 -27.9999986,0 z"
     style="opacity:0.1;fill:#000000" />
  <path
     id="path18"
     d="m 1.1046664,32.004583 a 14,14 0 0 0 27.9999986,0 14,14 0 1 0 -27.9999986,0 z"
     style="fill:url(#1)" />
  <path
     id="path4179"
     d="M 14.682791,19.480469 C 9.5208829,19.413709 4.7706575,23.406704 3.1710721,28.271484 a 1.0338241,1.0338241 0 0 1 -0.00781,0.01953 c -0.8963556,2.553917 -0.8167408,5.422197 0.1386718,7.970703 a 1.0338241,1.0338241 0 0 1 0.015625,0.04492 c 1.6739702,5.183842 7.4185561,8.51595 12.8027341,8.185547 a 1.0338241,1.0338241 0 0 1 0.02148,-0.002 c 2.522945,-0.101114 4.96676,-1.160496 6.94336,-2.798828 a 1.0338241,1.0338241 0 0 1 0.02734,-0.02148 c 5.357977,-4.158253 5.906819,-13.184805 1.3125,-18.117188 l -0.0039,-0.0039 c -2.490584,-2.6232 -6.084809,-4.206358 -9.685547,-4.068359 a 1.0338241,1.0338241 0 0 1 -0.05273,0 z"
     style="opacity:0.4;fill:none;stroke:url(#linearGradient4187);stroke-linejoin:round" />
  <path
     id="path3374"
     d="m 14.696463,18.447266 c -5.6904801,-0.0736 -10.7730991,4.226711 -12.507776,9.502342 -0.9820381,2.798046 -0.8942181,5.906402 0.1437002,8.674987 1.842539,5.705855 8.0045788,9.256683 13.8494528,8.898008 2.783347,-0.111551 5.434003,-1.270365 7.563564,-3.03548 5.8913,-4.572158 6.476001,-14.23629 1.429528,-19.645484 -2.687971,-2.833513 -6.550371,-4.544918 -10.478469,-4.394373 z"
     style="opacity:0.7;fill:none;stroke:#000000;stroke-linejoin:round" />
  <metadata
     id="metadata9999">
    <rdf:RDF>
      <cc:Work>
        <dc:format>image/svg+xml</dc:format>
        <dc:type
           rdf:resource="http://purl.org/dc/dcmitype/StillImage" />
        <dc:title></dc:title>
        <cc:license
           rdf:resource="http://creativecommons.org/licenses/by-sa/4.0/" />
        <dc:creator>
          <cc:Agent>
            <dc:title>Sixsixfive (sixsixfive.deviantart.com)</dc:title>
          </cc:Agent>
        </dc:creator>
        <dc:publisher>
          <cc:Agent>
            <dc:title>Sixsixfive (sixsixfive.deviantart.com)</dc:title>
          </cc:Agent>
        </dc:publisher>
        <dc:source>https://github.com/sixsixfive</dc:source>
        <dc:subject>
          <rdf:Bag>
            <rdf:li>ivy</rdf:li>
          </rdf:Bag>
        </dc:subject>
        <dc:contributor>
          <cc:Agent>
            <dc:title>ssf</dc:title>
          </cc:Agent>
        </dc:contributor>
        <dc:rights>
          <cc:Agent>
            <dc:title>Sixsixfive (sixisixfive.deviantart.com)</dc:title>
          </cc:Agent>
        </dc:rights>
        <dc:description>A simple icon theme published under CC-BY-SA_V4(http://creativecommons.org/licenses/by-sa/4.0)</dc:description>
        <dc:identifier>SSF</dc:identifier>
      </cc:Work>
    </rdf:RDF>
  </metadata>
  <!--Part of the Ivy icon them published under the CC-BY-SA_V4: http://creativecommons.org/licenses/by-sa/4.0 -->
</svg>
