<?xml version="1.0" encoding="UTF-8" standalone="no"?>
<svg
   xmlns:dc="http://purl.org/dc/elements/1.1/"
   xmlns:cc="http://creativecommons.org/ns#"
   xmlns:rdf="http://www.w3.org/1999/02/22-rdf-syntax-ns#"
   xmlns:svg="http://www.w3.org/2000/svg"
   xmlns="http://www.w3.org/2000/svg"
   xmlns:xlink="http://www.w3.org/1999/xlink"
   version="1.1"
   id="svg2"
   viewBox="0 0 48 48">
  <defs
     id="defs4">
    <linearGradient
       id="linearGradient4162">
      <stop
         id="stop4164"
         offset="0"
         style="stop-color:#5288d1;stop-opacity:1" />
      <stop
         id="stop4166"
         offset="1"
         style="stop-color:#76a0da;stop-opacity:1" />
    </linearGradient>
    <linearGradient
       gradientUnits="userSpaceOnUse"
       x2="43.928"
       y2="41.3"
       x1="43.917"
       y1="7.06"
       id="0">
      <stop
         id="stop7"
         stop-color="#fff" />
      <stop
         id="stop9"
         stop-opacity="0"
         stop-color="#fff"
         offset="1" />
    </linearGradient>
    <linearGradient
       gradientUnits="userSpaceOnUse"
       y2="33"
       x2="34"
       y1="11"
       x1="34"
       id="linearGradient4168"
       xlink:href="#linearGradient4162" />
    <clipPath
       id="clipPath4184"
       clipPathUnits="userSpaceOnUse">
      <path
         d="M 7,10 7,34 41,34 41,10 7,10 Z"
         id="path4186"
         style="fill:#ffffff;fill-opacity:1" />
    </clipPath>
  </defs>
  <rect
     id="rect11"
     ry="2"
     height="36"
     rx="2"
     y="7"
     opacity="0.1"
     x="3"
     width="42" />
  <rect
     id="rect13"
     ry="2"
     height="36"
     rx="2"
     fill="#ddd"
     y="6"
     x="3"
     width="42" />
  <path
     style="fill:url(#linearGradient4168);fill-opacity:1"
     id="path15"
     d="M 7 10 V 34 H 41 V 10 H 7 z"
     fill="#5288d1" />
  <g
     clip-path="url(#clipPath4184)"
     id="g4180">
    <path
       xlink:href="#path4174"
       style="color:#000000;font-style:normal;font-variant:normal;font-weight:normal;font-stretch:normal;font-size:medium;line-height:normal;font-family:sans-serif;text-indent:0;text-align:start;text-decoration:none;text-decoration-line:none;text-decoration-style:solid;text-decoration-color:#000000;letter-spacing:normal;word-spacing:normal;text-transform:none;direction:ltr;block-progression:tb;writing-mode:lr-tb;baseline-shift:baseline;text-anchor:start;white-space:normal;clip-rule:nonzero;display:inline;overflow:visible;visibility:visible;opacity:0.3;isolation:auto;mix-blend-mode:normal;color-interpolation:sRGB;color-interpolation-filters:linearRGB;solid-color:#000000;solid-opacity:1;fill:#000000;fill-opacity:1;fill-rule:evenodd;stroke:none;stroke-width:2;stroke-linecap:butt;stroke-linejoin:miter;stroke-miterlimit:7.5;stroke-dasharray:none;stroke-dashoffset:0;stroke-opacity:1;color-rendering:auto;image-rendering:auto;shape-rendering:auto;text-rendering:auto;enable-background:accumulate"
       id="path4176"
       d="m 27.957031,12.025391 a 0.97946758,0.97946758 0 0 0 -0.941406,0.667968 L 25,18.738281 22.996094,12.728516 A 0.97946758,0.97946758 0 0 0 21.152344,12.6875 L 16.576172,24.587891 13.384766,19.480469 A 0.97946758,0.97946758 0 0 0 12.554688,19.021484 L 4,19.021484 A 0.97946758,0.97946758 0 0 0 3.0214844,20 l 0,2 A 0.97946758,0.97946758 0 0 0 4,22.978516 l 6.902344,0 5.482422,8.769531 a 0.97946758,0.97946758 0 0 0 1.74414,-0.167969 l 3.738282,-9.71875 2.203124,6.611328 a 0.97946758,0.97946758 0 0 0 1.859376,0 l 2.18164,-6.539062 1.277344,3.410156 a 0.97946758,0.97946758 0 0 0 0.917969,0.634766 l 15.693359,0 A 0.97946758,0.97946758 0 0 0 46.978516,25 l 0,-2 A 0.97946758,0.97946758 0 0 0 46,22.021484 l -13.626953,0 -3.509766,-9.361328 a 0.97946758,0.97946758 0 0 0 -0.90625,-0.634765 z" />
    <path
       style="color:#000000;font-style:normal;font-variant:normal;font-weight:normal;font-stretch:normal;font-size:medium;line-height:normal;font-family:sans-serif;text-indent:0;text-align:start;text-decoration:none;text-decoration-line:none;text-decoration-style:solid;text-decoration-color:#000000;letter-spacing:normal;word-spacing:normal;text-transform:none;direction:ltr;block-progression:tb;writing-mode:lr-tb;baseline-shift:baseline;text-anchor:start;white-space:normal;clip-rule:nonzero;display:inline;overflow:visible;visibility:visible;opacity:1;isolation:auto;mix-blend-mode:normal;color-interpolation:sRGB;color-interpolation-filters:linearRGB;solid-color:#000000;solid-opacity:1;fill:#f4f4f4;fill-opacity:1;fill-rule:evenodd;stroke:none;stroke-width:2;stroke-linecap:butt;stroke-linejoin:miter;stroke-miterlimit:7.5;stroke-dasharray:none;stroke-dashoffset:0;stroke-opacity:1;color-rendering:auto;image-rendering:auto;shape-rendering:auto;text-rendering:auto;enable-background:accumulate"
       d="M 27.945312,13.003906 25,21.835938 22.066406,13.039062 16.785156,26.771484 12.554688,20 4,20 l 0,2 7.445312,0 5.769532,9.228516 4.71875,-12.267578 L 25,28.162109 28.056641,18.996094 30.306641,25 46,25 46,23 31.693359,23 27.945312,13.003906 Z"
       id="path4160" />
  </g>
  <g
     fill="none"
     id="g17">
    <path
       opacity="0.4"
       stroke="#000"
       id="path19"
       d="M 5,6.5 C 4.161723,6.5 3.5,7.161723 3.5,8 l 0,32 c 0,0.838277 0.661723,1.5 1.5,1.5 l 38,0 c 0.838277,0 1.5,-0.661723 1.5,-1.5 l 0,-32 C 44.5,7.161723 43.838277,6.5 43,6.5 l -38,0 z" />
    <path
       stroke="url(#0)"
       id="path21"
       d="M 5,7.5 C 4.699797,7.5 4.5,7.699797 4.5,8 l 0,32 c 0,0.300203 0.199797,0.5 0.5,0.5 l 38,0 c 0.300203,0 0.5,-0.199797 0.5,-0.5 l 0,-32 C 43.5,7.699797 43.3002,7.5 43,7.5 l -38,0 z" />
  </g>
  <path
     id="path23"
     d="M 7,34 H41 V35 H7 z"
     fill="#fff"
     opacity="0.8" />
  <path
     id="path31"
     d="m 7.625 10.625 v 22.75 h 32.75 v -22.75 h -32.75 z"
     stroke="#000"
     fill="none"
     opacity="0.4" />
  <metadata
     id="metadata9999">
    <rdf:RDF>
      <cc:Work>
        <dc:format>image/svg+xml</dc:format>
        <dc:type
           rdf:resource="http://purl.org/dc/dcmitype/StillImage" />
        <dc:title></dc:title>
        <cc:license
           rdf:resource="http://creativecommons.org/licenses/by-sa/4.0/" />
        <dc:creator>
          <cc:Agent>
            <dc:title>Sixsixfive (sixsixfive.deviantart.com)</dc:title>
          </cc:Agent>
        </dc:creator>
        <dc:publisher>
          <cc:Agent>
            <dc:title>Sixsixfive (sixsixfive.deviantart.com)</dc:title>
          </cc:Agent>
        </dc:publisher>
        <dc:source>https://github.com/sixsixfive</dc:source>
        <dc:subject>
          <rdf:Bag>
            <rdf:li>ivy</rdf:li>
          </rdf:Bag>
        </dc:subject>
        <dc:contributor>
          <cc:Agent>
            <dc:title>ssf</dc:title>
          </cc:Agent>
        </dc:contributor>
        <dc:rights>
          <cc:Agent>
            <dc:title>Sixsixfive (sixisixfive.deviantart.com)</dc:title>
          </cc:Agent>
        </dc:rights>
        <dc:description>A simple icon theme published under CC-BY-SA_V4(http://creativecommons.org/licenses/by-sa/4.0)</dc:description>
        <dc:identifier>SSF</dc:identifier>
      </cc:Work>
    </rdf:RDF>
  </metadata>
  <!--Part of the Ivy icon them published under the CC-BY-SA_V4: http://creativecommons.org/licenses/by-sa/4.0 -->
</svg>
