<?xml version="1.0" encoding="UTF-8" standalone="no"?><svg xmlns:xlink="http://www.w3.org/1999/xlink" xmlns:cc="http://creativecommons.org/ns#" viewBox="0 0 48 48" version="1.1" id="svg2" xmlns:svg="http://www.w3.org/2000/svg" xmlns:rdf="http://www.w3.org/1999/02/22-rdf-syntax-ns#" xmlns="http://www.w3.org/2000/svg" xmlns:dc="http://purl.org/dc/elements/1.1/"><defs id="defs4"><linearGradient id="linearGradient4162"><stop stop-opacity="1" stop-color="#5288d1" id="stop4164"/><stop offset="1" stop-opacity="1" stop-color="#76a0da" id="stop4166"/></linearGradient><linearGradient x2="43.928" gradientUnits="userSpaceOnUse" x1="43.917" y2="41.3" id="0" y1="7.06"><stop stop-color="#fff" id="stop7"/><stop offset="1" stop-opacity="0" stop-color="#fff" id="stop9"/></linearGradient><linearGradient x2="34" gradientUnits="userSpaceOnUse" x1="34" xlink:href="#linearGradient4162" y2="33" id="linearGradient4168" y1="11"/><clipPath clipPathUnits="userSpaceOnUse" id="clipPath4184"><path fill-opacity="1" fill="#fff" id="path4186" d="M 7,10 7,34 41,34 41,10 7,10 Z"/></clipPath></defs><rect height="36" width="42" opacity="0.1" rx="2" ry="2" id="rect11" x="3" y="7"/><rect height="36" width="42" rx="2" fill="#ddd" ry="2" id="rect13" x="3" y="6"/><path fill-opacity="1" fill="url(#linearGradient4168)" id="path15" d="M 7 10 V 34 H 41 V 10 H 7 z"/><g clip-path="url(#clipPath4184)" id="g4180"><path stroke="none" font-variant="normal" shape-rendering="auto" fill-rule="evenodd" visibility="visible" letter-spacing="0" color="#000" stroke-linejoin="miter" color-rendering="auto" display="inline" clip-rule="nonzero" line-height="normal" text-anchor="start" stroke-opacity="1" id="path4176" xlink:href="#path4174" block-progression="tb" fill-opacity="1" color-interpolation-filters="linearRGB" stroke-dasharray="none" text-decoration="none" overflow="visible" image-rendering="auto" stroke-dashoffset="0" font-size="0" color-interpolation="sRGB" font-family="sans-serif" baseline-shift="0" word-spacing="0" font-style="normal" font-stretch="normal" writing-mode="lr-tb" stroke-linecap="butt" d="m 27.957031,12.025391 a 0.97946758,0.97946758 0 0 0 -0.941406,0.667968 L 25,18.738281 22.996094,12.728516 A 0.97946758,0.97946758 0 0 0 21.152344,12.6875 L 16.576172,24.587891 13.384766,19.480469 A 0.97946758,0.97946758 0 0 0 12.554688,19.021484 L 4,19.021484 A 0.97946758,0.97946758 0 0 0 3.0214844,20 l 0,2 A 0.97946758,0.97946758 0 0 0 4,22.978516 l 6.902344,0 5.482422,8.769531 a 0.97946758,0.97946758 0 0 0 1.74414,-0.167969 l 3.738282,-9.71875 2.203124,6.611328 a 0.97946758,0.97946758 0 0 0 1.859376,0 l 2.18164,-6.539062 1.277344,3.410156 a 0.97946758,0.97946758 0 0 0 0.917969,0.634766 l 15.693359,0 A 0.97946758,0.97946758 0 0 0 46.978516,25 l 0,-2 A 0.97946758,0.97946758 0 0 0 46,22.021484 l -13.626953,0 -3.509766,-9.361328 a 0.97946758,0.97946758 0 0 0 -0.90625,-0.634765 z" stroke-width="2" fill="#000" text-align="start" opacity="0.3" enable-background="accumulate" text-rendering="auto" font-weight="normal" direction="ltr" stroke-miterlimit="7.5"/><path stroke="none" font-variant="normal" shape-rendering="auto" fill-rule="evenodd" visibility="visible" letter-spacing="0" color="#000" stroke-linejoin="miter" color-rendering="auto" display="inline" clip-rule="nonzero" line-height="normal" text-anchor="start" stroke-opacity="1" id="path4160" block-progression="tb" fill-opacity="1" color-interpolation-filters="linearRGB" stroke-dasharray="none" text-decoration="none" overflow="visible" image-rendering="auto" stroke-dashoffset="0" font-size="0" color-interpolation="sRGB" font-family="sans-serif" baseline-shift="0" word-spacing="0" font-style="normal" font-stretch="normal" writing-mode="lr-tb" stroke-linecap="butt" d="M 27.945312,13.003906 25,21.835938 22.066406,13.039062 16.785156,26.771484 12.554688,20 4,20 l 0,2 7.445312,0 5.769532,9.228516 4.71875,-12.267578 L 25,28.162109 28.056641,18.996094 30.306641,25 46,25 46,23 31.693359,23 27.945312,13.003906 Z" stroke-width="2" fill="#f4f4f4" text-align="start" opacity="1" enable-background="accumulate" text-rendering="auto" font-weight="normal" direction="ltr" stroke-miterlimit="7.5"/></g><g fill="none" id="g17"><path opacity="0.4" id="path19" stroke="#000" d="M 5,6.5 C 4.161723,6.5 3.5,7.161723 3.5,8 l 0,32 c 0,0.838277 0.661723,1.5 1.5,1.5 l 38,0 c 0.838277,0 1.5,-0.661723 1.5,-1.5 l 0,-32 C 44.5,7.161723 43.838277,6.5 43,6.5 l -38,0 z"/><path id="path21" stroke="url(#0)" d="M 5,7.5 C 4.699797,7.5 4.5,7.699797 4.5,8 l 0,32 c 0,0.300203 0.199797,0.5 0.5,0.5 l 38,0 c 0.300203,0 0.5,-0.199797 0.5,-0.5 l 0,-32 C 43.5,7.699797 43.3002,7.5 43,7.5 l -38,0 z"/></g><path opacity="0.8" fill="#fff" id="path23" d="M 7,34 H41 V35 H7 z"/><path opacity="0.4" fill="none" id="path31" stroke="#000" d="m 7.625 10.625 v 22.75 h 32.75 v -22.75 h -32.75 z"/><metadata id="metadata9999"><rdf:RDF><cc:Work><dc:format>image/svg+xml</dc:format><dc:type rdf:resource="http://purl.org/dc/dcmitype/StillImage"/><dc:title/><cc:license rdf:resource="http://creativecommons.org/licenses/by-sa/4.0/"/><dc:creator><cc:Agent><dc:title>Sixsixfive (sixsixfive.deviantart.com)</dc:title></cc:Agent></dc:creator><dc:publisher><cc:Agent><dc:title>Sixsixfive (sixsixfive.deviantart.com)</dc:title></cc:Agent></dc:publisher><dc:source>https://github.com/sixsixfive</dc:source><dc:subject><rdf:Bag><rdf:li>ivy</rdf:li></rdf:Bag></dc:subject><dc:contributor><cc:Agent><dc:title>ssf</dc:title></cc:Agent></dc:contributor><dc:rights><cc:Agent><dc:title>Sixsixfive (sixisixfive.deviantart.com)</dc:title></cc:Agent></dc:rights><dc:description>A simple icon theme published under CC-BY-SA_V4(http://creativecommons.org/licenses/by-sa/4.0)</dc:description><dc:identifier>SSF</dc:identifier></cc:Work></rdf:RDF></metadata><!--Part of the Ivy icon them published under the CC-BY-SA_V4: http://creativecommons.org/licenses/by-sa/4.0 -->
</svg>