<?xml version="1.0" encoding="UTF-8" standalone="no"?>
<svg xmlns:dc="http://purl.org/dc/elements/1.1/" xmlns:cc="http://creativecommons.org/ns#" xmlns:rdf="http://www.w3.org/1999/02/22-rdf-syntax-ns#" xmlns:svg="http://www.w3.org/2000/svg" xmlns="http://www.w3.org/2000/svg" viewBox="0 0 22 22" id="svg2" version="1.1">
 <defs id="defs4">
  <linearGradient id="0" y1="2" y2="19" x2="0" gradientUnits="userSpaceOnUse">
   <stop stop-color="#fff" id="stop7"/>
   <stop offset="1" stop-color="#fff" stop-opacity="0" id="stop9"/>
  </linearGradient>
 </defs>
 <path fill="#5288d1" d="M 1,1 H21 V7 H1 z" id="path11"/>
 <path opacity="0.1" d="M 1,2 H21 V21 H1 z" id="path13"/>
 <path opacity="0.4" fill="none" stroke="url(#0)" d="m 2.5 2.5 v 16 h 17 v -16 h -17 z" id="path15"/>
 <path fill="#171717" d="M 1,7 H21 V20 H1 z" id="path17"/>
 <path fill="#fff" fill-rule="evenodd" color="#000" d="M 3,3 H4 V4 H3 z" id="path19"/>
 <path opacity="0.4" fill="none" stroke="#000" d="m 1.5 1.5 v 18 h 19 v -18 h -19 z" id="path21"/>
 <path opacity="0.4" d="M 2,6 H20 V7 H2 z" id="path23"/>
 <g id="g25" fill="#fff">
  <path d="m 4,11 1,0 0,1 -1,0 z" id="path31"/>
  <path d="m 3,12 1,0 0,1 -1,0 z" id="path33"/>
  <path d="m 5,12 1,0 0,1 -1,0 z" id="path35"/>
  <path d="m 6,11 1,0 0,1 -1,0 z" id="path37"/>
  <path d="m 8,9 3,0 0,1 -3,0 z" id="path39"/>
  <path d="m 8,10 1,0 0,1 -1,0 z" id="path41"/>
  <path d="m 8,11 3,0 0,1 -3,0 z" id="path43"/>
  <path d="m 8,13 3,0 0,1 -3,0 z" id="path45"/>
  <path d="m 10,12 1,0 0,1 -1,0 z" id="path47"/>
  <path d="m 9,8 1,0 0,1 -1,0 z" id="path49"/>
  <path d="m 9,14 1,0 0,1 -1,0 z" id="path51"/>
  <path d="m 12,14 3,0 0,1 -3,0 z" id="path53"/>
  <g id="g55" fill-rule="evenodd" color="#000">
   <path d="M 6,3 8,3 8,5 6,5 Z" id="path57"/>
   <path d="m 9,4 2,0 0,1 -2,0 z" id="path59"/>
   <path d="M 4,4 5,4 5,5 4,5 Z" id="path61"/>
  </g>
 </g>
 <g id="g63" fill="#c1c1c1" fill-rule="evenodd" color="#000">
  <path d="M 3,4 4,4 4,5 3,5 Z" id="path65"/>
  <path d="M 4,3 5,3 5,4 4,4 Z" id="path67"/>
 </g>
 <metadata id="metadata9999">
  <rdf:RDF>
   <cc:Work>
    <dc:format>image/svg+xml</dc:format>
    <dc:type rdf:resource="http://purl.org/dc/dcmitype/StillImage"/>
    <dc:title>Ivy icon theme</dc:title>
    <cc:license rdf:resource="http://creativecommons.org/licenses/by-sa/4.0/"/>
    <dc:creator>
     <cc:Agent>
      <dc:title>Sixsixfive (sixsixfive.deviantart.com)</dc:title>
     </cc:Agent>
    </dc:creator>
    <dc:publisher>
     <cc:Agent>
      <dc:title>Sixsixfive (sixsixfive.deviantart.com)</dc:title>
     </cc:Agent>
    </dc:publisher>
    <dc:source>https://github.com/sixsixfive</dc:source>
    <dc:subject>
     <rdf:Bag>
      <rdf:li>ivy</rdf:li>
     </rdf:Bag>
    </dc:subject>
    <dc:contributor>
     <cc:Agent>
      <dc:title>ssf</dc:title>
     </cc:Agent>
    </dc:contributor>
    <dc:rights>
     <cc:Agent>
      <dc:title>Sixsixfive (sixisixfive.deviantart.com)</dc:title>
     </cc:Agent>
    </dc:rights>
    <dc:description>A simple icon theme published under CC-BY-SA_V4(http://creativecommons.org/licenses/by-sa/4.0)</dc:description>
    <dc:identifier>SSF</dc:identifier>
   </cc:Work>
  </rdf:RDF>
 </metadata>
 <!--Part of the Ivy icon them published under the CC-BY-SA_V4: http://creativecommons.org/licenses/by-sa/4.0 -->
</svg>
