<?xml version="1.0" encoding="UTF-8" standalone="no"?><svg xmlns:cc="http://creativecommons.org/ns#" viewBox="0 0 22 22" version="1.1" id="svg2" xmlns:svg="http://www.w3.org/2000/svg" xmlns:rdf="http://www.w3.org/1999/02/22-rdf-syntax-ns#" xmlns="http://www.w3.org/2000/svg" xmlns:dc="http://purl.org/dc/elements/1.1/"><defs id="defs4"><linearGradient x2="0" gradientUnits="userSpaceOnUse" y2="19" id="0" gradientTransform="matrix(-1 0 0 1 22 -1)" y1="2"><stop stop-color="#fff" id="stop7"/><stop offset="1" stop-opacity="0" stop-color="#fff" id="stop9"/></linearGradient></defs><path opacity="0.1" id="path13" d="M 1,1 21,1 21,20 1,20 Z"/><path fill="#6a6a6a" id="path11" d="M 21,19 1,19 1,13 21,13 Z"/><path fill="#171717" id="path17" d="M 21,13 1,13 1,0 21,0 Z"/><path opacity="0.21" fill="none" id="path15" stroke="url(#0)" d="m 19.5,1.5 0,16 -17,0 0,-16 17,0 z"/><path fill-rule="evenodd" fill="#fff" id="path19" color="#000" d="m 19,15 -1,0 0,1 1,0 z"/><path opacity="0.4" fill="none" id="path21" stroke="#000" d="m 20.5,18.5 0,-18 -19,0 0,18 19,0 z"/><path opacity="0.4" fill="#fff" id="path23" d="M 20,14 2,14 2,13 20,13 Z"/><path fill="#fff" id="path31" d="M 5,8 6,8 6,9 5,9 Z"/><path fill="#fff" id="path33" d="m 4,9 1,0 0,1 -1,0 z"/><path fill="#fff" id="path35" d="m 6,9 1,0 0,1 -1,0 z"/><path fill="#fff" id="path37" d="M 7,8 8,8 8,9 7,9 Z"/><path fill="#fff" id="path39" d="m 9,6 3,0 0,1 -3,0 z"/><path fill="#fff" id="path41" d="m 9,7 1,0 0,1 -1,0 z"/><path fill="#fff" id="path43" d="m 9,8 3,0 0,1 -3,0 z"/><path fill="#fff" id="path45" d="m 9,10 3,0 0,1 -3,0 z"/><path fill="#fff" id="path47" d="m 11,9 1,0 0,1 -1,0 z"/><path fill="#fff" id="path49" d="m 10,5 1,0 0,1 -1,0 z"/><path fill="#fff" id="path51" d="m 10,11 1,0 0,1 -1,0 z"/><path fill="#fff" id="path53" d="m 13,11 3,0 0,1 -3,0 z"/><g fill-rule="evenodd" fill="#fff" id="g55" transform="matrix(-1 0 0 1 22 12)" color="#000"><path id="path57" d="M 6,3 8,3 8,5 6,5 Z"/><path id="path59" d="m 9,4 2,0 0,1 -2,0 z"/><path id="path61" d="M 4,4 5,4 5,5 4,5 Z"/></g><g fill-rule="evenodd" fill="#c1c1c1" id="g63" transform="matrix(-1 0 0 1 22 12)" color="#000"><path id="path65" d="M 3,4 4,4 4,5 3,5 Z"/><path id="path67" d="M 4,3 5,3 5,4 4,4 Z"/></g><metadata id="metadata9999"><rdf:RDF><cc:Work><dc:format>image/svg+xml</dc:format><dc:type rdf:resource="http://purl.org/dc/dcmitype/StillImage"/><dc:title>Ivy icon theme</dc:title><cc:license rdf:resource="http://creativecommons.org/licenses/by-sa/4.0/"/><dc:creator><cc:Agent><dc:title>Sixsixfive (sixsixfive.deviantart.com)</dc:title></cc:Agent></dc:creator><dc:publisher><cc:Agent><dc:title>Sixsixfive (sixsixfive.deviantart.com)</dc:title></cc:Agent></dc:publisher><dc:source>https://github.com/sixsixfive</dc:source><dc:subject><rdf:Bag><rdf:li>ivy</rdf:li></rdf:Bag></dc:subject><dc:contributor><cc:Agent><dc:title>ssf</dc:title></cc:Agent></dc:contributor><dc:rights><cc:Agent><dc:title>Sixsixfive (sixisixfive.deviantart.com)</dc:title></cc:Agent></dc:rights><dc:description>A simple icon theme published under CC-BY-SA_V4(http://creativecommons.org/licenses/by-sa/4.0)</dc:description><dc:identifier>SSF</dc:identifier></cc:Work></rdf:RDF></metadata><!--Part of the Ivy icon them published under the CC-BY-SA_V4: http://creativecommons.org/licenses/by-sa/4.0 -->
</svg>