<?xml version="1.0" encoding="UTF-8" standalone="no"?><svg xmlns:svg="http://www.w3.org/2000/svg" viewBox="0 0 16 16" xmlns="http://www.w3.org/2000/svg" xmlns:rdf="http://www.w3.org/1999/02/22-rdf-syntax-ns#" version="1.1" id="svg2" xmlns:dc="http://purl.org/dc/elements/1.1/" xmlns:cc="http://creativecommons.org/ns#"><defs id="defs4"/><rect y="4" x="1" opacity="0.1" ry="0.667" height="12" rx="0.667" id="0" width="14"/><rect y="3" x="1" ry="0.667" height="12" rx="0.667" id="1" width="14" fill="#ddd"/><path id="2" d="m 3,5 v 8 H 13 V 5 H 3 z" fill="#5288d1"/><path opacity="0.8" id="3" d="m 3,13 h 10 v 1 H 3 z" fill="#fff"/><g id="4" fill="#ffd506"><path id="D" d="m 11,5 0,8 1,0 0,-8 -1,0 z"/><path id="E" d="m 9,5 0,8 1,0 0,-8 -1,0 z"/></g><path opacity="0.8" id="5" d="M 8.989362,9 A 0.994681,1 0 0 1 7,9 0.994681,1 0 1 1 8.989362,9 z"/><g stroke="#000" id="6" fill="none"><path opacity="0.4" id="F" d="m 1.65625,3.53125 c -0.10143,0 -0.125,0.02357 -0.125,0.125 l 0,10.6875 c 0,0.101429 0.02357,0.125 0.125,0.125 l 12.6875,0 c 0.101429,0 0.125,-0.02357 0.125,-0.125 l 0,-10.6875 c 0,-0.10143 -0.02357,-0.125 -0.125,-0.125 l -12.6875,0 z"/><path opacity="0.4" id="G" d="m 3.5,5.5 0,7 9,0 0,-7 -9,0 z"/></g><path opacity="0.8" id="7" d="m 5,7 h 1 v 4 H 5 z"/><path opacity="0.8" id="8" d="m 6,10 h 1 v 1 H 6 z"/><path opacity="0.8" id="9" d="M 6,7 H 7 V 8 H 6 z"/><path opacity="0.8" id="A" d="m 9,7 h 1 V 8 H 9 z"/><path opacity="0.8" id="B" d="m 10,7 h 1 v 4 h -1 z"/><path opacity="0.8" id="C" d="m 9,10 h 1 v 1 H 9 z"/><metadata id="metadata9999"><rdf:RDF><cc:Work><dc:format>image/svg+xml</dc:format><dc:type rdf:resource="http://purl.org/dc/dcmitype/StillImage"/><dc:title>Ivy icon theme</dc:title><cc:license rdf:resource="http://creativecommons.org/licenses/by-sa/4.0/"/><dc:creator><cc:Agent><dc:title>Sixsixfive (sixsixfive.deviantart.com)</dc:title></cc:Agent></dc:creator><dc:publisher><cc:Agent><dc:title>Sixsixfive (sixsixfive.deviantart.com)</dc:title></cc:Agent></dc:publisher><dc:source>https://github.com/sixsixfive</dc:source><dc:subject><rdf:Bag><rdf:li>ivy</rdf:li></rdf:Bag></dc:subject><dc:contributor><cc:Agent><dc:title>ssf</dc:title></cc:Agent></dc:contributor><dc:rights><cc:Agent><dc:title>Sixsixfive (sixisixfive.deviantart.com)</dc:title></cc:Agent></dc:rights><dc:description>A simple icon theme published under CC-BY-SA_V4(http://creativecommons.org/licenses/by-sa/4.0)</dc:description><dc:identifier>SSF</dc:identifier></cc:Work></rdf:RDF></metadata><!--Part of the Ivy icon them published under the CC-BY-SA_V4: http://creativecommons.org/licenses/by-sa/4.0 -->
</svg>