<?xml version="1.0" encoding="UTF-8" standalone="no"?><svg viewBox="0 0 22 22" xmlns:svg="http://www.w3.org/2000/svg" xmlns="http://www.w3.org/2000/svg" xmlns:rdf="http://www.w3.org/1999/02/22-rdf-syntax-ns#" version="1.1" id="svg2" xmlns:dc="http://purl.org/dc/elements/1.1/" xmlns:cc="http://creativecommons.org/ns#"><defs id="defs4"><linearGradient y1="1" x2="0" y2="7" gradientTransform="matrix(0.5146 0 0 0.66667 -1.747 0.333)" id="0" gradientUnits="userSpaceOnUse"><stop id="stop7" stop-color="#ebebeb"/><stop offset="1" id="stop9" stop-color="#9a9a9a"/></linearGradient><linearGradient y1="43.997" x2="0" y2="1.99" gradientTransform="matrix(-0.37195 0 0 -0.38089 16.235 16.758)" id="1" gradientUnits="userSpaceOnUse"><stop id="stop12" stop-color="#fff"/><stop stop-opacity="0" offset="1" id="stop14" stop-color="#fff"/></linearGradient><linearGradient y1="44.01" x2="0" y2="2" gradientTransform="matrix(0.37195 0 0 0.38089 -16.227 -16.762)" id="2" gradientUnits="userSpaceOnUse"><stop id="stop17" stop-color="#dedede"/><stop offset="1" id="stop19" stop-color="#f4f4f4"/></linearGradient></defs><rect y="1" x="2" opacity="0.1" ry="0.467" rx="0.218" height="21" id="rect21" width="17"/><rect x="2" ry="0.467" rx="0.218" height="21" id="rect23" width="17" fill="#e4ae4e"/><rect x="6" ry="0.529" rx="0.529" height="2" id="rect25" width="9" fill="#c5c5c5"/><g transform="matrix(1 0 0 1 3 3)" id="g27"><path transform="matrix(-1 0 0 -1 0 0)" id="rect29" d="m -13.54,-16 12.08,0 c 0.25484,0 0.46,0.20516 0.46,0.46 l 0,15.07699973 c 0,0.25484001 -0.20516,0.46000001 -0.46,0.46000001 l -12.08,0 c -0.25484,0 -0.46,-0.20516 -0.46,-0.46000001 L -14,-15.54 c 0,-0.25484 0.20516,-0.46 0.46,-0.46 z" fill="url(#2)"/><g id="g31" fill="none"><path stroke="#000" opacity="0.4" id="path33" d="m 13.4749,0.5322 -11.9375,0 0,14.9375 11.9375,0 0,-14.9375 z"/><path stroke="url(#1)" opacity="0.81" id="path35" d="m 12.5062,1.5322 -10,0 0,12.9375 10,0 0,-12.9375 z"/></g><g transform="matrix(1 0 0 1 19.801 0.333)" id="g37"><path opacity="0.3" id="path39" d="m -15.801,2.667 7.04,0 0,1 -7.04,0 z"/><path opacity="0.3" id="path41" d="m -15.845,4.667 5.04,0 0,1 -5.04,0 z"/><path opacity="0.3" id="path43" d="m -15.845,6.667 6.04,0 0,1 -6.04,0 z"/><path opacity="0.3" id="path45" d="m -15.845,8.667 4.04,0 0,1 -4.04,0 z"/><path opacity="0.3" id="path47" d="m -15.845,10.667 5.04,0 0,1 -5.04,0 z"/><g id="g49" fill="#fff"><path opacity="0.4" id="path51" d="m -15.801,3.667 7.04,0 0,1 -7.04,0 z"/><path opacity="0.4" id="path53" d="m -15.845,5.667 5.04,0 0,1 -5.04,0 z"/><path opacity="0.4" id="path55" d="m -15.845,7.667 6.04,0 0,1 -6.04,0 z"/><path opacity="0.4" id="path57" d="m -15.845,9.667 4.04,0 0,1 -4.04,0 z"/><path opacity="0.4" id="path59" d="m -15.845,11.667 5.04,0 0,1 -5.04,0 z"/></g></g></g><path id="path61" d="M 7.515666 1 H 13.690828 C 13.975915 1 14.332921 1.336325 14.205425 1.666667 L 13.176231 4.333333 C 13.04874 4.663675 12.946721 5 12.661634 5 H 8.544859 C 8.259773 5 8.157757 4.663675 8.03026 4.333333 L 7.00107 1.666667 C 6.873575 1.336325 7.230579 1 7.515666 1 z" fill="url(#0)"/><g stroke="#000" id="g63" fill="none"><path opacity="0.4" id="path65" d="m 2.5,0.5 0,20 16,0 0,-20 -16,0 z"/><path opacity="0.4" id="path67" d="M 7.53125,1.5 C 7.55805,1.5 7.523743,1.520036 7.5,1.53125 l 1,2.625 C 8.564758,4.324039 8.626109,4.442582 8.65625,4.5 l 3.90625,0 c 0.03419,-0.05801 0.096,-0.187647 0.15625,-0.34375 l 1,-2.625 C 13.695007,1.520036 13.660701,1.5 13.6875,1.5 l -6.15625,0 z"/></g><metadata id="metadata9999"><rdf:RDF><cc:Work><dc:format>image/svg+xml</dc:format><dc:type rdf:resource="http://purl.org/dc/dcmitype/StillImage"/><dc:title>Ivy icon theme</dc:title><cc:license rdf:resource="http://creativecommons.org/licenses/by-sa/4.0/"/><dc:creator><cc:Agent><dc:title>Sixsixfive (sixsixfive.deviantart.com)</dc:title></cc:Agent></dc:creator><dc:publisher><cc:Agent><dc:title>Sixsixfive (sixsixfive.deviantart.com)</dc:title></cc:Agent></dc:publisher><dc:source>https://github.com/sixsixfive</dc:source><dc:subject><rdf:Bag><rdf:li>ivy</rdf:li></rdf:Bag></dc:subject><dc:contributor><cc:Agent><dc:title>ssf</dc:title></cc:Agent></dc:contributor><dc:rights><cc:Agent><dc:title>Sixsixfive (sixisixfive.deviantart.com)</dc:title></cc:Agent></dc:rights><dc:description>A simple icon theme published under CC-BY-SA_V4(http://creativecommons.org/licenses/by-sa/4.0)</dc:description><dc:identifier>SSF</dc:identifier></cc:Work></rdf:RDF></metadata><!--Part of the Ivy icon them published under the CC-BY-SA_V4: http://creativecommons.org/licenses/by-sa/4.0 -->
</svg>