<?xml version="1.0" encoding="UTF-8" standalone="no"?><svg xmlns:cc="http://creativecommons.org/ns#" xmlns:dc="http://purl.org/dc/elements/1.1/" xmlns="http://www.w3.org/2000/svg" xmlns:svg="http://www.w3.org/2000/svg" xmlns:rdf="http://www.w3.org/1999/02/22-rdf-syntax-ns#" id="svg2" version="1.1" viewBox="0 0 48 48" xmlns:xlink="http://www.w3.org/1999/xlink"><defs id="defs4"><linearGradient id="linearGradient4463"><stop stop-opacity="1" id="stop4465" stop-color="#d6d6d6"/><stop stop-opacity="1" id="stop4467" stop-color="#f9f9f9" offset="1"/></linearGradient><linearGradient gradientUnits="userSpaceOnUse" y1="3" id="linearGradient7346" y2="44" x2="0"><stop id="stop7348" stop-color="#171717"/><stop id="stop7350" stop-color="#6a6a6a" offset="1"/></linearGradient><linearGradient gradientUnits="userSpaceOnUse" y1="3" id="linearGradient6540" y2="44" x2="0"><stop stop-opacity="1" id="stop6542" stop-color="#5288d1"/><stop stop-opacity="1" id="stop6544" stop-color="#6e9bd8" offset="1"/></linearGradient><linearGradient gradientUnits="userSpaceOnUse" y1="3" id="0" y2="44" x2="0"><stop id="stop7" stop-color="#5288d1"/><stop id="stop9" stop-color="#8db0e1" offset="1"/></linearGradient><linearGradient gradientUnits="userSpaceOnUse" y1="3" id="1" x1="40" y2="42.969" x2="39.906"><stop id="stop12" stop-color="#fff"/><stop stop-opacity="0" id="stop14" stop-color="#fff" offset="1"/></linearGradient><linearGradient gradientUnits="userSpaceOnUse" y1="3" xlink:href="#1" id="linearGradient3369" x1="40" y2="42.969" x2="39.906"/><linearGradient gradientTransform="matrix(1 0 0 1 0 3.0000001)" gradientUnits="userSpaceOnUse" y1="3" xlink:href="#linearGradient6540" id="linearGradient3371" y2="44" x2="0"/><linearGradient gradientTransform="matrix(1 0 0 1 0 3.0000001)" gradientUnits="userSpaceOnUse" y1="3" xlink:href="#linearGradient7346" id="linearGradient3375" y2="44" x2="0"/><linearGradient gradientTransform="matrix(1 0 0 1 0 -0.9999999)" gradientUnits="userSpaceOnUse" y1="3" xlink:href="#0" id="linearGradient3417" y2="44" x2="0"/><linearGradient gradientTransform="matrix(1 0 0 1 0 -0.9999999)" gradientUnits="userSpaceOnUse" y1="3" xlink:href="#1" id="linearGradient3419" x1="40" y2="42.969" x2="39.906"/><path opacity="0.4" d="m 17.6183 21.2899 a 1.88431 1.64877 0 1 1 -3.76862 0 1.88431 1.64877 0 1 1 3.76862 0 z" id="0-7"/><linearGradient gradientUnits="userSpaceOnUse" y1="17" xlink:href="#linearGradient4463" x1="33" id="linearGradient4469" y2="47" x2="33"/><clipPath id="clipPath4482" clipPathUnits="userSpaceOnUse"><rect width="34.951" ry="1.209" height="42" rx="1.209" id="rect4484" y="5" x="7.9860001" fill="#fff"/></clipPath></defs><rect width="34.951" ry="1.209" height="42" rx="1.209" id="rect3401" y="1" x="3.986" fill="url(#linearGradient3417)"/><path stroke="#000" opacity="0.4" d="m 5.1873,1.5000001 c -0.403779,0 -0.6875,0.299839 -0.6875,0.71875 l 0,39.5624999 c 0,0.418911 0.283721,0.71875 0.6875,0.71875 l 32.5313,0 c 0.40378,0 0.71875,-0.31497 0.71875,-0.71875 l 0,-39.5624999 c 0,-0.403779 -0.31497,-0.71875 -0.71875,-0.71875 l -32.5313,0 z" id="path3405" fill="none"/><path stroke="url(#linearGradient3419)" opacity="0.5" d="m 5.531,2.5312001 0,38.9374999 31.875,0 0,-38.9374999 -31.875,0 z" id="path3407" fill="none"/><rect width="34.951" ry="1.209" height="42" rx="1.209" id="rect3409" y="1" x="7.986" fill="url(#linearGradient3417)"/><path stroke="#000" opacity="0.4" d="m 9.1875,1.5000001 c -0.403779,0 -0.6875,0.299839 -0.6875,0.71875 L 8.5,41.78125 C 8.5,42.20016 8.783721,42.5 9.1875,42.5 l 32.5312,0 c 0.40378,0 0.71875,-0.31497 0.71875,-0.71875 l 0,-39.5624999 c 0,-0.403779 -0.31497,-0.71875 -0.71875,-0.71875 l -32.5312,0 z" id="path3413" fill="none"/><path stroke="url(#linearGradient3419)" opacity="0.5" d="m 9.5313,2.5312001 0,38.9374999 31.875,0 0,-38.9374999 -31.875,0 z" id="path3415" fill="none"/><rect width="34.951" ry="1.209" height="42" rx="1.209" id="rect3377" y="2" x="3.986" fill="#ebebeb"/><path stroke="#fff" d="m 5.1873,2.5000001 c -0.403779,0 -0.6875,0.299839 -0.6875,0.71875 l 0,39.5624999 c 0,0.418911 0.283721,0.71875 0.6875,0.71875 l 32.5313,0 c 0.40378,0 0.71875,-0.31497 0.71875,-0.71875 l 0,-39.5624999 c 0,-0.403779 -0.31497,-0.71875 -0.71875,-0.71875 l -32.5313,0 z" id="path3381" fill="none"/><path stroke="#000" opacity="0.4" d="m 5.1873,1.5000001 c -0.403779,0 -0.6875,0.299839 -0.6875,0.71875 l 0,39.5624999 c 0,0.418911 0.283721,0.71875 0.6875,0.71875 l 32.5313,0 c 0.40378,0 0.71875,-0.31497 0.71875,-0.71875 l 0,-39.5624999 c 0,-0.403779 -0.31497,-0.71875 -0.71875,-0.71875 l -32.5313,0 z" id="path3441" fill="none"/><rect width="34.951" ry="1.209" height="42" rx="1.209" id="rect3385" y="2" x="7.986" fill="#ebebeb"/><path stroke="#fff" opacity="0.82" d="m 9.1875,2.5000001 c -0.403779,0 -0.6875,0.299839 -0.6875,0.71875 L 8.5,42.78125 C 8.5,43.20016 8.783721,43.5 9.1875,43.5 l 32.5312,0 c 0.40378,0 0.71875,-0.31497 0.71875,-0.71875 l 0,-39.5624999 c 0,-0.403779 -0.31497,-0.71875 -0.71875,-0.71875 l -32.5312,0 z" id="path3389" fill="none"/><rect width="38.951" ry="1.209" height="42" rx="1.209" opacity="0.1" id="rect16" y="6" x="4"/><rect width="1" height="4" opacity="0.2" id="rect3431" y="2" x="8" stroke-linecap="square"/><rect width="34.951" ry="1.209" height="42" rx="1.209" id="rect18" y="5" x="3.986" fill="url(#linearGradient3375)"/><path stroke="#000" opacity="0.4" d="m 9.1875,1.5000001 c -0.403779,0 -0.6875,0.299839 -0.6875,0.71875 L 8.5,41.78125 C 8.5,42.20016 8.783721,42.5 9.1875,42.5 l 32.5312,0 c 0.40378,0 0.71875,-0.31497 0.71875,-0.71875 l 0,-39.5624999 c 0,-0.403779 -0.31497,-0.71875 -0.71875,-0.71875 l -32.5312,0 z" id="path3445" fill="none"/><g transform="matrix(1 0 0 1 0 3.0000001)" id="g20" fill="none"><path stroke="#000" opacity="0.4" d="M 5.1873,2.5 C 4.783521,2.5 4.4998,2.799839 4.4998,3.21875 l 0,39.5625 c 0,0.418911 0.283721,0.71875 0.6875,0.71875 l 32.5313,0 c 0.40378,0 0.71875,-0.31497 0.71875,-0.71875 l 0,-39.5625 C 38.43735,2.814971 38.12238,2.5 37.7186,2.5 l -32.5313,0 z" id="path22"/><path stroke="url(#linearGradient3369)" opacity="0.4" d="m 5.531,3.5312 0,38.9375 31.875,0 0,-38.9375 -31.875,0 z" id="path24"/></g><rect width="34.951" ry="1.209" height="42" rx="1.209" id="rect26" y="5" x="7.986" fill="url(#linearGradient3371)"/><g id="g4473" clip-path="url(#clipPath4482)"><path d="m 28.443038,17.033121 c -9.136221,0 -16.531152,6.106732 -16.531152,13.645001 0,7.538166 7.394911,13.644798 16.531152,13.644798 2.385636,0 4.667088,-0.419569 6.71577,-1.169508 C 38.298438,43.899098 40.99871,44.868339 42.959438,47 42.477024,44.368785 42.118946,41.729976 41.461302,39.098963 43.673465,36.777868 45,33.85992 45,30.678122 44.999999,23.139853 37.57926,17.033121 28.442988,17.033121 Z" id="path53" fill="url(#linearGradient4469)" fill-opacity="1"/><path stroke="#000" opacity="0.7" d="m 28.443359,16.435547 c -9.402198,0 -17.128906,6.313523 -17.128906,14.242187 0,7.928566 7.726684,14.242188 17.128906,14.242188 2.3741,0 4.638729,-0.419786 6.699219,-1.146484 3.040836,0.731787 5.566831,1.662934 7.376953,3.630859 a 0.59699586,0.59699586 0 0 0 1.027344,-0.511719 c -0.460947,-2.514128 -0.828419,-5.066873 -1.449219,-7.636719 2.167902,-2.377246 3.5,-5.341223 3.5,-8.578125 -10e-7,-7.930002 -7.752048,-14.242187 -17.154297,-14.242187 z" id="path3661" fill="none"/><use transform="matrix(-1.0614 0 0 1.21303 51.700064 5.1747051)" width="48" height="48" opacity="1" xlink:href="#0-7" id="use69" y="0" x="0" fill="#000" fill-opacity="1"/><use transform="matrix(-1.0614 0 0 1.21303 44.700064 5.1747051)" width="48" height="48" opacity="1" xlink:href="#0-7" id="use71" y="0" x="0" fill="#000" fill-opacity="1"/><use transform="matrix(-1.0614 0 0 1.21303 37.700064 5.1747051)" width="48" height="48" opacity="1" xlink:href="#0-7" id="use73" y="0" x="0" fill="#000" fill-opacity="1"/></g><g transform="matrix(1 0 0 1 0 3.0000001)" id="g30" fill="none"><path stroke="#000" opacity="0.5" d="M 9.1875,2.5 C 8.783721,2.5 8.5,2.799839 8.5,3.21875 l 0,39.5625 C 8.5,43.20016 8.783721,43.5 9.1875,43.5 l 32.5312,0 c 0.40378,0 0.71875,-0.31497 0.71875,-0.71875 l 0,-39.5625 C 42.43745,2.814971 42.12248,2.5 41.7187,2.5 l -32.5312,0 z" id="path32"/><path stroke="url(#linearGradient3369)" opacity="0.3" d="m 9.5313,3.5312 0,38.9375 31.875,0 0,-38.9375 -31.875,0 z" id="path34"/></g><metadata id="metadata9999"><rdf:RDF><cc:Work><dc:format>image/svg+xml</dc:format><dc:type rdf:resource="http://purl.org/dc/dcmitype/StillImage"/><dc:title/><cc:license rdf:resource="http://creativecommons.org/licenses/by-sa/4.0/"/><dc:creator><cc:Agent><dc:title>Sixsixfive (sixsixfive.deviantart.com)</dc:title></cc:Agent></dc:creator><dc:publisher><cc:Agent><dc:title>Sixsixfive (sixsixfive.deviantart.com)</dc:title></cc:Agent></dc:publisher><dc:source>https://github.com/sixsixfive</dc:source><dc:subject><rdf:Bag><rdf:li>ivy</rdf:li></rdf:Bag></dc:subject><dc:contributor><cc:Agent><dc:title>ssf</dc:title></cc:Agent></dc:contributor><dc:rights><cc:Agent><dc:title>Sixsixfive (sixisixfive.deviantart.com)</dc:title></cc:Agent></dc:rights><dc:description>A simple icon theme published under CC-BY-SA_V4(http://creativecommons.org/licenses/by-sa/4.0)</dc:description><dc:identifier>SSF</dc:identifier></cc:Work></rdf:RDF></metadata><!--Part of the Ivy icon them published under the CC-BY-SA_V4: http://creativecommons.org/licenses/by-sa/4.0 -->
</svg>