<?xml version="1.0" encoding="UTF-8" standalone="no"?><svg xmlns:xlink="http://www.w3.org/1999/xlink" xmlns:cc="http://creativecommons.org/ns#" viewBox="0 0 22 22" version="1.1" id="svg2" xmlns:svg="http://www.w3.org/2000/svg" xmlns:rdf="http://www.w3.org/1999/02/22-rdf-syntax-ns#" xmlns="http://www.w3.org/2000/svg" xmlns:dc="http://purl.org/dc/elements/1.1/"><defs id="defs4"><linearGradient x2="0" gradientUnits="userSpaceOnUse" id="0" y2="1015.36" y1="1010.36"><stop id="stop7" stop-color="#eabd70"/><stop offset="1" id="stop9" stop-color="#f2d8aa"/></linearGradient><linearGradient x2="0" gradientUnits="userSpaceOnUse" id="1" y2="1032.36" gradientTransform="matrix(1.75 0 0 1 -18 -0.004)" y1="1027.36"><stop id="stop12"/><stop offset="1" stop-opacity="0" id="stop14"/></linearGradient><linearGradient x2="0" gradientUnits="userSpaceOnUse" id="2" y2="1043.36" y1="1019.36"><stop stop-opacity="0.238" id="stop17" stop-color="#fff"/><stop offset="1" stop-opacity="0" id="stop19" stop-color="#ed4c70"/></linearGradient><radialGradient r="19" gradientUnits="userSpaceOnUse" cx="23" cy="1049.17" id="3" gradientTransform="matrix(1.36842 -1.21053 1.06232 1.20088 -1123.03 -185.73)"><stop id="stop22" stop-color="#e4ae4e"/><stop offset="1" id="stop24" stop-color="#e8b964"/></radialGradient><linearGradient x2="0" gradientUnits="userSpaceOnUse" xlink:href="#1" id="linearGradient3056" y2="1032.36" gradientTransform="matrix(0.75000007 0 0 0.60000017 -7 -605.41858)" y1="1027.36"/><linearGradient x2="0" gradientUnits="userSpaceOnUse" xlink:href="#2" id="linearGradient3059" y2="1043.36" gradientTransform="matrix(0.46666667 0 0 0.41666666 -0.2 -416.73334)" y1="1019.36"/><linearGradient x2="0" gradientUnits="userSpaceOnUse" xlink:href="#0" id="linearGradient3062" y2="1015.36" gradientTransform="matrix(0.47368422 0 0 0.60853491 -0.368421 -612.84068)" y1="1010.36"/><radialGradient r="19" gradientUnits="userSpaceOnUse" cx="23" xlink:href="#3" cy="1049.17" id="radialGradient3065" gradientTransform="matrix(0.64819897 -0.56743596 0.50320422 0.56291252 -532.33001 -558.01097)"/></defs><path opacity="0.1" id="path3093" d="M 2,6 H 20 V 21 H 2 z"/><path fill="url(#radialGradient3065)" id="path30" d="M 2,5 H 20 V 20 H 2 z"/><path fill="url(#linearGradient3062)" id="path32" d="m 4,2 14,0 2,3.042675 -18,0 z"/><path fill="url(#linearGradient3059)" id="path34" d="M 4,8 H 18 V 18 H 4 z"/><path fill="url(#linearGradient3056)" id="path36" d="m 8,11 h 6 v 3 H 8 z"/><path fill="#e4ae4e" id="path38" d="m 8,10 h 6 v 3 H 8 z"/><path opacity="0.242" id="path42" d="M 3,5.041667 H 19 V 6 H 3 z"/><path opacity="0.4" fill="none" id="path3079" stroke="#000" d="M 4.25,2.5 2.5,5.1875 2.5,19.5 l 17,0 0,-14.3125 L 17.75,2.5 4.25,2.5 z"/><path opacity="0.242" fill="#fff" id="path3081" d="M 3,6 H 19 V 6.958333 H 3 z"/><path opacity="0.4" fill="none" id="path3085" stroke="#000" d="m 4.5,8.5 0,9 13,0 0,-9 -13,0 z"/><rect height="1" width="14" opacity="0.4" fill="#fff" id="rect3087" x="4" y="18"/><path opacity="0.4" fill="none" id="path3091" stroke="#000" d="m 8.5,10.5 0,2 5,0 0,-2 -5,0 z"/><metadata id="metadata9999"><rdf:RDF><cc:Work><dc:format>image/svg+xml</dc:format><dc:type rdf:resource="http://purl.org/dc/dcmitype/StillImage"/><dc:title>Ivy icon theme</dc:title><cc:license rdf:resource="http://creativecommons.org/licenses/by-sa/4.0/"/><dc:creator><cc:Agent><dc:title>Sixsixfive (sixsixfive.deviantart.com)</dc:title></cc:Agent></dc:creator><dc:publisher><cc:Agent><dc:title>Sixsixfive (sixsixfive.deviantart.com)</dc:title></cc:Agent></dc:publisher><dc:source>https://github.com/sixsixfive</dc:source><dc:subject><rdf:Bag><rdf:li>ivy</rdf:li></rdf:Bag></dc:subject><dc:contributor><cc:Agent><dc:title>ssf</dc:title></cc:Agent></dc:contributor><dc:rights><cc:Agent><dc:title>Sixsixfive (sixisixfive.deviantart.com)</dc:title></cc:Agent></dc:rights><dc:description>A simple icon theme published under CC-BY-SA_V4(http://creativecommons.org/licenses/by-sa/4.0)</dc:description><dc:identifier>SSF</dc:identifier></cc:Work></rdf:RDF></metadata><!--Part of the Ivy icon them published under the CC-BY-SA_V4: http://creativecommons.org/licenses/by-sa/4.0 -->
</svg>