<?xml version="1.0" encoding="UTF-8" standalone="no"?><svg xmlns:svg="http://www.w3.org/2000/svg" viewBox="0 0 22 22" xmlns="http://www.w3.org/2000/svg" xmlns:rdf="http://www.w3.org/1999/02/22-rdf-syntax-ns#" version="1.1" id="svg2" xmlns:dc="http://purl.org/dc/elements/1.1/" xmlns:cc="http://creativecommons.org/ns#"><defs id="defs4"><linearGradient y1="2" x2="0" y2="19" id="0" gradientUnits="userSpaceOnUse"><stop id="stop7" stop-color="#fff"/><stop stop-opacity="0" offset="1" id="stop9" stop-color="#fff"/></linearGradient></defs><path id="path11" d="M 1,1 H21 V7 H1 z" fill="#5288d1"/><path opacity="0.1" id="path13" d="M 1,2 H21 V21 H1 z"/><path stroke="url(#0)" opacity="0.4" id="path15" d="m 2.5 2.5 v 16 h 17 v -16 h -17 z" fill="none"/><path id="path17" d="M 1,7 H21 V20 H1 z" fill="#171717"/><path id="path19" color="#000" fill-rule="evenodd" d="M 3,3 H4 V4 H3 z" fill="#fff"/><path stroke="#000" opacity="0.4" id="path21" d="m 1.5 1.5 v 18 h 19 v -18 h -19 z" fill="none"/><path opacity="0.4" id="path23" d="M 2,6 H20 V7 H2 z"/><g id="g25" fill="#fff"><path id="path31" d="m 4,11 1,0 0,1 -1,0 z"/><path id="path33" d="m 3,12 1,0 0,1 -1,0 z"/><path id="path35" d="m 5,12 1,0 0,1 -1,0 z"/><path id="path37" d="m 6,11 1,0 0,1 -1,0 z"/><path id="path39" d="m 8,9 3,0 0,1 -3,0 z"/><path id="path41" d="m 8,10 1,0 0,1 -1,0 z"/><path id="path43" d="m 8,11 3,0 0,1 -3,0 z"/><path id="path45" d="m 8,13 3,0 0,1 -3,0 z"/><path id="path47" d="m 10,12 1,0 0,1 -1,0 z"/><path id="path49" d="m 9,8 1,0 0,1 -1,0 z"/><path id="path51" d="m 9,14 1,0 0,1 -1,0 z"/><path id="path53" d="m 12,14 3,0 0,1 -3,0 z"/><g id="g55" color="#000" fill-rule="evenodd"><path id="path57" d="M 6,3 8,3 8,5 6,5 Z"/><path id="path59" d="m 9,4 2,0 0,1 -2,0 z"/><path id="path61" d="M 4,4 5,4 5,5 4,5 Z"/></g></g><g id="g63" color="#000" fill-rule="evenodd" fill="#c1c1c1"><path id="path65" d="M 3,4 4,4 4,5 3,5 Z"/><path id="path67" d="M 4,3 5,3 5,4 4,4 Z"/></g><metadata id="metadata9999"><rdf:RDF><cc:Work><dc:format>image/svg+xml</dc:format><dc:type rdf:resource="http://purl.org/dc/dcmitype/StillImage"/><dc:title>Ivy icon theme</dc:title><cc:license rdf:resource="http://creativecommons.org/licenses/by-sa/4.0/"/><dc:creator><cc:Agent><dc:title>Sixsixfive (sixsixfive.deviantart.com)</dc:title></cc:Agent></dc:creator><dc:publisher><cc:Agent><dc:title>Sixsixfive (sixsixfive.deviantart.com)</dc:title></cc:Agent></dc:publisher><dc:source>https://github.com/sixsixfive</dc:source><dc:subject><rdf:Bag><rdf:li>ivy</rdf:li></rdf:Bag></dc:subject><dc:contributor><cc:Agent><dc:title>ssf</dc:title></cc:Agent></dc:contributor><dc:rights><cc:Agent><dc:title>Sixsixfive (sixisixfive.deviantart.com)</dc:title></cc:Agent></dc:rights><dc:description>A simple icon theme published under CC-BY-SA_V4(http://creativecommons.org/licenses/by-sa/4.0)</dc:description><dc:identifier>SSF</dc:identifier></cc:Work></rdf:RDF></metadata><!--Part of the Ivy icon them published under the CC-BY-SA_V4: http://creativecommons.org/licenses/by-sa/4.0 -->
</svg>