<?xml version="1.0" encoding="UTF-8" standalone="no"?>
<svg xmlns:dc="http://purl.org/dc/elements/1.1/" xmlns:cc="http://creativecommons.org/ns#" xmlns:rdf="http://www.w3.org/1999/02/22-rdf-syntax-ns#" xmlns:svg="http://www.w3.org/2000/svg" xmlns="http://www.w3.org/2000/svg" viewBox="0 0 22 22" id="svg2" version="1.1">
 <defs id="defs4">
  <linearGradient id="0" y1="3" y2="20" x2="0" gradientUnits="userSpaceOnUse">
   <stop stop-color="#fff" id="stop7"/>
   <stop offset="1" stop-color="#fff" stop-opacity="0" id="stop9"/>
  </linearGradient>
  <radialGradient cx="13" cy="15" r="9.516" id="1" gradientUnits="userSpaceOnUse" gradientTransform="matrix(1 0 0 0.99836 -2 -0.979)">
   <stop stop-opacity="0.2" id="stop12"/>
   <stop offset="1" stop-opacity="0" id="stop14"/>
  </radialGradient>
  <radialGradient cx="24" cy="19.235" r="20" id="2" gradientUnits="userSpaceOnUse" gradientTransform="matrix(0.47499 0 0 0.80628 -0.9 -6.84)">
   <stop stop-color="#fb3d17" id="stop17"/>
   <stop offset="1" stop-color="#d02604" id="stop19"/>
  </radialGradient>
  <radialGradient cx="24" cy="24" r="20" id="3" gradientUnits="userSpaceOnUse" gradientTransform="matrix(0.47571 0 0 0.475 -0.903 0.1)">
   <stop stop-color="#d8d8d8" id="stop22"/>
   <stop offset="0.789" stop-color="#ebebeb" id="stop24"/>
   <stop offset="1" stop-color="#fff" id="stop26"/>
  </radialGradient>
 </defs>
 <path opacity="0.1" d="M 10.5 3 C 5.24546 3 1 7.25329 1 12.5 1 17.7467 5.24546 22 10.5 22 15.75454 22 20.03125 17.7467 20.03125 12.5 20.03125 7.25329 15.75454 3 10.5 3 z m 0 5 C 12.98528 8 15 10.01472 15 12.5 15 14.98528 12.98528 17 10.5 17 8.01472 17 6 14.98528 6 12.5 6 10.01472 8.01472 8 10.5 8 z" id="path28"/>
 <g id="g30" fill="none" stroke="#6a6a6a">
  <path d="M 2.4998,8.8655 C -2.37612,5.6767 2.550226,0.01144 7.81468,3.71016" id="path32"/>
  <path d="M 18.5002,8.8655 C 23.37612,5.6767 18.44977,0.01144 13.18532,3.71016" id="path34"/>
  <path d="m 18.5002,14.1345 c 4.87592,3.1888 -0.05043,8.85406 -5.31488,5.15534" id="path36"/>
  <path d="m 2.4998,14.1345 c -4.87592,3.1888 0.050426,8.85406 5.31488,5.15534" id="path38"/>
 </g>
 <path fill="url(#3)" d="M 10.5 2 C 5.24546 2 1 6.25329 1 11.5 1 16.7467 5.24546 21 10.5 21 15.75454 21 20.03125 16.7467 20.03125 11.5 20.03125 6.25329 15.75454 2 10.5 2 z m 0 5 C 12.98528 7 15 9.01472 15 11.5 15 13.98528 12.98528 16 10.5 16 8.01472 16 6 13.98528 6 11.5 6 9.01472 8.01472 7 10.5 7 z" id="path40"/>
 <path fill="url(#1)" d="M 10.5 2 C 5.24546 2 1 6.25329 1 11.5 1 16.7467 5.24546 21 10.5 21 15.75454 21 20.03125 16.7467 20.03125 11.5 20.03125 6.25329 15.75454 2 10.5 2 z m 0 5 C 12.98528 7 15 9.01472 15 11.5 15 13.98528 12.98528 16 10.5 16 8.01472 16 6 13.98528 6 11.5 6 9.01472 8.01472 7 10.5 7 z" id="path42"/>
 <path fill="url(#2)" d="m 10.5 2.0312 c -0.822297 0 -1.73906 0.11639 -2.5 0.3125 v 5.40625 c 0.711413 -0.471214 1.58278 -0.75 2.5 -0.75 0.917223 0 1.78859 0.278786 2.5 0.75 V 2.3437 C 12.239056 2.14759 11.3223 2.0312 10.5 2.0312 z M 1.3125 9 c -0.196402 0.759808 -0.3125 1.67893 -0.3125 2.5 0 0.821071 0.116098 1.74019 0.3125 2.5 H 6.75 C 6.278786 13.288587 6 12.41722 6 11.5 6 10.582777 6.278786 9.71141 6.75 9 H 1.3125 z M 14.25 9 c 0.471214 0.711413 0.75 1.58278 0.75 2.5 0 0.917223 -0.278786 1.78859 -0.75 2.5 h 5.4375 C 19.883903 13.240192 20 12.32107 20 11.5 20 10.67893 19.883903 9.75981 19.6875 9 H 14.25 z M 8 15.25 v 5.4375 C 8.760944 20.88361 9.6777 21 10.5 21 11.322296 21 12.23906 20.88361 13 20.6875 V 15.25 C 12.288587 15.721214 11.41722 16 10.5 16 9.582777 16 8.71141 15.721214 8 15.25 z" id="path44"/>
 <g id="g46" fill="none">
  <path d="m 10.5,2.5 c -4.98066,0 -9,4.02708 -9,9 0,4.97292 4.01934,9 9,9 4.98066,0 9.03125,-4.02909 9.03125,-9 0,-4.97091 -4.05059,-9 -9.03125,-9 z m 0,4 c 2.75957,0 5,2.24043 5,5 0,2.75957 -2.24043,5 -5,5 -2.75957,0 -5,-2.24043 -5,-5 0,-2.75957 2.24043,-5 5,-5 z" id="path48" opacity="0.4" stroke="#000"/>
  <path d="m 10.5,3.5 c -4.44297,0 -8,3.56458 -8,8 0,4.43542 3.55703,8 8,8 4.44297,0 8.03125,-3.57055 8.03125,-8 0,-4.42945 -3.58828,-8 -8.03125,-8 z m 0,2 c 3.29806,0 6,2.70194 6,6 0,3.29806 -2.70194,6 -6,6 -3.29806,0 -6,-2.70194 -6,-6 0,-3.29806 2.70194,-6 6,-6 z" id="path50" opacity="0.4" stroke="url(#0)"/>
 </g>
 <metadata id="metadata9999">
  <rdf:RDF>
   <cc:Work>
    <dc:format>image/svg+xml</dc:format>
    <dc:type rdf:resource="http://purl.org/dc/dcmitype/StillImage"/>
    <dc:title>Ivy icon theme</dc:title>
    <cc:license rdf:resource="http://creativecommons.org/licenses/by-sa/4.0/"/>
    <dc:creator>
     <cc:Agent>
      <dc:title>Sixsixfive (sixsixfive.deviantart.com)</dc:title>
     </cc:Agent>
    </dc:creator>
    <dc:publisher>
     <cc:Agent>
      <dc:title>Sixsixfive (sixsixfive.deviantart.com)</dc:title>
     </cc:Agent>
    </dc:publisher>
    <dc:source>https://github.com/sixsixfive</dc:source>
    <dc:subject>
     <rdf:Bag>
      <rdf:li>ivy</rdf:li>
     </rdf:Bag>
    </dc:subject>
    <dc:contributor>
     <cc:Agent>
      <dc:title>ssf</dc:title>
     </cc:Agent>
    </dc:contributor>
    <dc:rights>
     <cc:Agent>
      <dc:title>Sixsixfive (sixisixfive.deviantart.com)</dc:title>
     </cc:Agent>
    </dc:rights>
    <dc:description>A simple icon theme published under CC-BY-SA_V4(http://creativecommons.org/licenses/by-sa/4.0)</dc:description>
    <dc:identifier>SSF</dc:identifier>
   </cc:Work>
  </rdf:RDF>
 </metadata>
 <!--Part of the Ivy icon them published under the CC-BY-SA_V4: http://creativecommons.org/licenses/by-sa/4.0 -->
</svg>
