<?xml version="1.0" encoding="UTF-8" standalone="no"?>
<svg xmlns:dc="http://purl.org/dc/elements/1.1/" xmlns:cc="http://creativecommons.org/ns#" xmlns:rdf="http://www.w3.org/1999/02/22-rdf-syntax-ns#" xmlns:svg="http://www.w3.org/2000/svg" xmlns="http://www.w3.org/2000/svg" version="1.1" viewBox="0 0 16 16" id="svg2">
 <defs id="1">
  <linearGradient gradientTransform="matrix(0.39058 0 0 0.37989 -1.172 -0.598)" gradientUnits="userSpaceOnUse" x2="0" y2="41" y1="7" id="4">
   <stop id="8" stop-color="#66b03e"/>
   <stop id="9" stop-color="#95ce76" offset="1"/>
  </linearGradient>
 </defs>
 <metadata id="metadata9999">
  <rdf:RDF>
   <cc:Work>
    <dc:format>image/svg+xml</dc:format>
    <dc:type rdf:resource="http://purl.org/dc/dcmitype/StillImage"/>
    <dc:title/>
    <cc:license rdf:resource="http://creativecommons.org/licenses/by-sa/4.0/"/>
    <dc:creator>
     <cc:Agent>
      <dc:title>Sixsixfive (sixsixfive.deviantart.com)</dc:title>
     </cc:Agent>
    </dc:creator>
    <dc:publisher>
     <cc:Agent>
      <dc:title>Sixsixfive (sixsixfive.deviantart.com)</dc:title>
     </cc:Agent>
    </dc:publisher>
    <dc:source>https://github.com/sixsixfive</dc:source>
    <dc:subject>
     <rdf:Bag>
      <rdf:li>ivy</rdf:li>
     </rdf:Bag>
    </dc:subject>
    <dc:contributor>
     <cc:Agent>
      <dc:title>ssf</dc:title>
     </cc:Agent>
    </dc:contributor>
    <dc:rights>
     <cc:Agent>
      <dc:title>Sixsixfive (sixisixfive.deviantart.com)</dc:title>
     </cc:Agent>
    </dc:rights>
    <dc:description>A simple icon theme published under CC-BY-SA_V4(http://creativecommons.org/licenses/by-sa/4.0)</dc:description>
    <dc:identifier>SSF</dc:identifier>
   </cc:Work>
  </rdf:RDF>
 </metadata>
 <!--Part of the Ivy icon them published under the CC-BY-SA_V4: http://creativecommons.org/licenses/by-sa/4.0 -->
 <path d="M 8.9947502,0.01553901 C 9.8659302,0.05123901 10.76493,0.45703901 11,0.999999 L 16,2 10,2 C 9.9453002,1.0336 9.0648002,1.04319 8.5000002,0.999999 c -0.46352,0.0503 -1.47051,-0.006 -1.5,2.000001 -1.31207,0 -1.99367,-3.00000099 1.99475,-2.98446099 z" id="path3149-8" fill="#171717" display="inline" stroke="none" fill-opacity="1"/>
 <path id="path3151-3" d="M 8.0000002,6 0.43701054,0.999999 C 0.07468054,1.68741 -0.06871942,2.47956 0.03077058,3.24412 0.13027058,4.00869 0.47223054,4.74256 0.99955024,5.32314 1.6911502,6.08459 2.9510602,6.92371 4.0000002,7 3.5048302,6.8463 2.8315002,6.36892 2.4449302,5.85395 2.1794102,5.50025 2.0630102,5.04431 1.9872502,4.60857 1.8954502,4.08029 1.8105402,3.54293 1.9999502,3 Z" fill="#0192d3" display="inline" stroke="none" fill-opacity="1"/>
 <path id="path3153-6" d="m 7.2875202,7.90899 -6.24477,-1.89995 c -0.0503,0.63153 0.0642,1.27745 0.32717,1.84403 0.26294,0.56655 0.67332,1.05204 1.17166,1.38594 0.73925,0.49531 1.61852,1.005089 2.45842,0.7609895 C 4.1585802,10.006 3.5180402,9.25885 3.2342402,8.63963 2.9504502,8.02041 2.4979302,6.89356 3.0000002,7 Z" fill="#0192d3" display="inline" stroke="none" fill-opacity="1"/>
 <path d="M 11,4 C 10.85974,4.25548 10.1616,4.56894 10.03224,5.01922 9.8109402,5.78951 10.21708,6.53262 10.50986,7.37565 10.80264,8.21868 11.1462,9.12577 11,9.9999995 10.8891,10.66312 10.84296,11.26103 10.46863,11.73691 c -0.43962,0.55888 -1.1544498,0.88254 -1.8354998,1.08692 -1.1613,0.3485 -2.42745,0.4092 -3.63313,0.17617 l 0,3 1,-2 c 1.28479,0.25859 2.64539,0.082 3.86566,-0.36681 C 10.72195,13.31826 11.51173,12.82996 12.08781,12.17169 12.66388,11.51342 13.01569,10.67951 12.99245,9.8374095 12.96485,8.83481 12.42833,7.91049 11.9099,7.02613 11.47661,6.05259 11.09433,4.54636 11,4 Z" id="path3155-5" fill="#0192d3" display="inline" stroke="none" fill-opacity="1"/>
</svg>
