<?xml version="1.0" encoding="UTF-8" standalone="no"?>
<svg xmlns:dc="http://purl.org/dc/elements/1.1/" xmlns:cc="http://creativecommons.org/ns#" xmlns:rdf="http://www.w3.org/1999/02/22-rdf-syntax-ns#" xmlns:svg="http://www.w3.org/2000/svg" xmlns="http://www.w3.org/2000/svg" xmlns:xlink="http://www.w3.org/1999/xlink" id="svg2" viewBox="0 0 48 48" version="1.1">
 <defs id="defs4">
  <linearGradient id="linearGradient3810">
   <stop id="stop3812" stop-color="#464646"/>
   <stop id="stop3814" stop-color="#6a6a6a" offset="1"/>
  </linearGradient>
  <linearGradient id="linearGradient3792">
   <stop id="stop3794" stop-color="#fff"/>
   <stop stop-opacity="0" id="stop3796" stop-color="#fff" offset="1"/>
  </linearGradient>
  <linearGradient gradientUnits="userSpaceOnUse" x2="0" y2="40" y1="8" xlink:href="#linearGradient3792" id="linearGradient3798"/>
  <linearGradient gradientTransform="matrix(-1 0 0 1 48.03125 0)" gradientUnits="userSpaceOnUse" x2="0" y2="41" y1="7" xlink:href="#linearGradient3810" id="linearGradient3816"/>
 </defs>
 <path d="m 28.03125,8.007 -25,0 0,34 25,0 17,-17.087775 z" id="path3800" opacity="0.1"/>
 <path d="m 28.03125,7 -25,0 0,34 25,0 17,-17.087775 z" id="rect3011" fill="url(#linearGradient3816)"/>
 <path d="m 24.06245,11.9062 4.9688,4.9688 -6.0938,6.0625 5.9688,5.9688 -4.9375,4.9375 -5.9688,-5.9688 -5.9375,5.9688 -4.9688,-4.9688 5.9688,-5.9375 -6.0625,-6.0625 4.9375,-4.9375 6.0625,6.0625 6.0625,-6.0938 z" id="path24" opacity="0.5"/>
 <path d="m 24.06245,12.9062 4.9688,4.9688 -6.0938,6.0625 5.9688,5.9688 -4.9375,4.9375 -5.9688,-5.9688 -5.9375,5.9688 -4.9688,-4.9688 5.9688,-5.9375 -6.0625,-6.0625 4.9375,-4.9375 6.0625,6.0625 6.0625,-6.0938 z" id="path26" fill="#fff"/>
 <path transform="matrix(-1 0 0 1 48.03125 0)" d="m 20.21875,7.46875 -16.53125,16.4375 16.53125,16.625 24.3125,0 0,-33.0625 -24.3125,0 z" id="path3020" stroke="#000" fill="none" opacity="0.4"/>
 <path transform="matrix(-1 0 0 1 48.03125 0)" d="m 20.59375,8.46875 -15.53125,15.4375 15.53125,15.625 22.9375,0 0,-31.0625 -22.9375,0 z" id="path3022" stroke="url(#linearGradient3798)" fill="none" opacity="0.4"/>
 <metadata id="metadata9999">
  <rdf:RDF>
   <cc:Work>
    <dc:format>image/svg+xml</dc:format>
    <dc:type rdf:resource="http://purl.org/dc/dcmitype/StillImage"/>
    <dc:title>Ivy icon theme</dc:title>
    <cc:license rdf:resource="http://creativecommons.org/licenses/by-sa/4.0/"/>
    <dc:creator>
     <cc:Agent>
      <dc:title>Sixsixfive (sixsixfive.deviantart.com)</dc:title>
     </cc:Agent>
    </dc:creator>
    <dc:publisher>
     <cc:Agent>
      <dc:title>Sixsixfive (sixsixfive.deviantart.com)</dc:title>
     </cc:Agent>
    </dc:publisher>
    <dc:source>https://github.com/sixsixfive</dc:source>
    <dc:subject>
     <rdf:Bag>
      <rdf:li>ivy</rdf:li>
     </rdf:Bag>
    </dc:subject>
    <dc:contributor>
     <cc:Agent>
      <dc:title>ssf</dc:title>
     </cc:Agent>
    </dc:contributor>
    <dc:rights>
     <cc:Agent>
      <dc:title>Sixsixfive (sixisixfive.deviantart.com)</dc:title>
     </cc:Agent>
    </dc:rights>
    <dc:description>A simple icon theme published under CC-BY-SA_V4(http://creativecommons.org/licenses/by-sa/4.0)</dc:description>
    <dc:identifier>SSF</dc:identifier>
   </cc:Work>
  </rdf:RDF>
 </metadata>
 <!--Part of the Ivy icon them published under the CC-BY-SA_V4: http://creativecommons.org/licenses/by-sa/4.0 -->
</svg>
