<?xml version="1.0" encoding="UTF-8" standalone="no"?>
<svg xmlns:dc="http://purl.org/dc/elements/1.1/" xmlns:cc="http://creativecommons.org/ns#" xmlns:rdf="http://www.w3.org/1999/02/22-rdf-syntax-ns#" xmlns:svg="http://www.w3.org/2000/svg" xmlns="http://www.w3.org/2000/svg" viewBox="0 0 48 48" id="svg2" version="1.1">
 <defs id="defs4">
  <linearGradient id="0" y1="4.02" y2="44.02" x2="0" gradientUnits="userSpaceOnUse">
   <stop stop-color="#fff" id="stop7"/>
   <stop offset="1" stop-color="#fff" stop-opacity="0" id="stop9"/>
  </linearGradient>
  <linearGradient id="1" y1="3" y2="45" x2="0" gradientUnits="userSpaceOnUse">
   <stop stop-color="#ff8b36" id="stop12"/>
   <stop offset="1" stop-color="#ff9f58" id="stop14"/>
  </linearGradient>
  <radialGradient cx="43.685" cy="46.582" r="45.1" id="2" gradientUnits="userSpaceOnUse" gradientTransform="matrix(0.53212 0 0 0.02359 0.754 43.978)">
   <stop stop-opacity="0.2" id="stop17"/>
   <stop offset="1" stop-opacity="0" id="stop19"/>
  </radialGradient>
 </defs>
 <path fill="url(#2)" d="m 48 45.077 a 24 1.0641 0 0 1 -48 0 24 1.0641 0 1 1 48 0 z" id="path21"/>
 <rect width="42" x="3" y="3" fill="url(#1)" rx="4" height="42" ry="4" id="rect23"/>
 <g id="g25" fill="none">
  <path d="m 7,3.5128 c -1.94587,0 -3.5,1.5541 -3.5,3.5 l 0,34 c 0,1.9459 1.55413,3.5 3.5,3.5 l 34,0 c 1.94587,0 3.5,-1.5541 3.5,-3.5 l 0,-34 c 0,-1.9459 -1.55413,-3.5 -3.5,-3.5 l -34,0 z" id="path27" opacity="0.45" stroke="#000"/>
  <path d="m 7,4.5128 c -1.40738,0 -2.5,1.0926 -2.5,2.5 l 0,34 c 0,1.4074 1.09262,2.5 2.5,2.5 l 34,0 c 1.40738,0 2.5,-1.0926 2.5,-2.5 l 0,-34 c 0,-1.4074 -1.09262,-2.5 -2.5,-2.5 l -34,0 z" id="path29" opacity="0.6" stroke="url(#0)"/>
  <g transform="translate(0,-1003.26)" id="g31" opacity="0.6" stroke="#000" stroke-linecap="round">
   <path d="M 39.18457,26.931583 A 14.895504,14.09034 0 1 1 24.30098,12.841246" transform="matrix(0.63279,-0.63509,0.67138,0.66895,-9.451,1023.83)" id="path33" stroke-width="6.994"/>
   <path d="m 24,1012.7618 0,10.6464" id="path35" stroke-width="6.45"/>
  </g>
  <g id="g37" stroke="#fff" stroke-linecap="round">
   <path d="M 33.4257,14.6903 A 13.3542,13.3542 0 1 1 14.5475,14.71702" id="path39" stroke-width="6.447"/>
   <path d="m 24,10.497 0,10.6464" id="path41" stroke-width="6.45"/>
  </g>
 </g>
 <metadata id="metadata9999">
  <rdf:RDF>
   <cc:Work>
    <dc:format>image/svg+xml</dc:format>
    <dc:type rdf:resource="http://purl.org/dc/dcmitype/StillImage"/>
    <dc:title>Ivy icon theme</dc:title>
    <cc:license rdf:resource="http://creativecommons.org/licenses/by-sa/4.0/"/>
    <dc:creator>
     <cc:Agent>
      <dc:title>Sixsixfive (sixsixfive.deviantart.com)</dc:title>
     </cc:Agent>
    </dc:creator>
    <dc:publisher>
     <cc:Agent>
      <dc:title>Sixsixfive (sixsixfive.deviantart.com)</dc:title>
     </cc:Agent>
    </dc:publisher>
    <dc:source>https://github.com/sixsixfive</dc:source>
    <dc:subject>
     <rdf:Bag>
      <rdf:li>ivy</rdf:li>
     </rdf:Bag>
    </dc:subject>
    <dc:contributor>
     <cc:Agent>
      <dc:title>ssf</dc:title>
     </cc:Agent>
    </dc:contributor>
    <dc:rights>
     <cc:Agent>
      <dc:title>Sixsixfive (sixisixfive.deviantart.com)</dc:title>
     </cc:Agent>
    </dc:rights>
    <dc:description>A simple icon theme published under CC-BY-SA_V4(http://creativecommons.org/licenses/by-sa/4.0)</dc:description>
    <dc:identifier>SSF</dc:identifier>
   </cc:Work>
  </rdf:RDF>
 </metadata>
 <!--Part of the Ivy icon them published under the CC-BY-SA_V4: http://creativecommons.org/licenses/by-sa/4.0 -->
</svg>
