<?xml version="1.0" encoding="UTF-8" standalone="no"?><svg xmlns:cc="http://creativecommons.org/ns#" viewBox="0 0 48 48" version="1.1" id="svg2" xmlns:svg="http://www.w3.org/2000/svg" xmlns:rdf="http://www.w3.org/1999/02/22-rdf-syntax-ns#" xmlns="http://www.w3.org/2000/svg" xmlns:dc="http://purl.org/dc/elements/1.1/"><defs id="defs4"><linearGradient x2="0" gradientUnits="userSpaceOnUse" id="0" y2="42.08" y1="5.957"><stop id="stop7" stop-color="#fff"/><stop offset="1" stop-opacity="0" id="stop9" stop-color="#fff"/></linearGradient><linearGradient x2="43.912" gradientUnits="userSpaceOnUse" x1="44" id="1" y2="-0.997" y1="43.02"><stop id="stop12" stop-color="#ddd"/><stop offset="1" id="stop14" stop-color="#fff"/></linearGradient></defs><path opacity="0.1" id="path16" d="m 4,6.02 h 40 v 38 H 4 z"/><path fill="url(#1)" id="path18" d="m 4,5.02 h 40 v 38 H 4 z"/><path fill="#5288d1" id="path20" d="M 4,5.02 H 44 V 15.139 H 4 z"/><rect stroke-dasharray="none" height="27" width="11" fill-opacity="1" fill-rule="evenodd" stroke-linejoin="round" stroke-miterlimit="4" opacity="0.4" fill="#6a6a6a" stroke="none" id="rect4164" stroke-width="3" x="5" stroke-linecap="round" y="15" stroke-dashoffset="0" stroke-opacity="1"/><g fill="none" id="g22"><g id="g24" stroke="#000"><path opacity="0.4" id="path26" d="m 4.4688,5.4881 0,37.0625 39.0625,0 0,-37.0625 -39.0625,0 z"/><path opacity="0.4" id="path28" d="m 4.9369,14.6279 38.1261,4e-4"/></g><path opacity="0.4" id="path30" stroke="url(#0)" d="m 5.4375,6.4568 0,35.125 37.125,0 0,-35.125 -37.125,0 z"/></g><g fill-rule="evenodd" fill="#fff" id="g32" color="#000"><path id="path34" d="m 7.03,9.111 1,0 0,1 -1,0 z"/><path id="path36" d="m 8.03,10.111 1,0 0,1 -1,0 z"/><path id="path38" d="m 9.03,11.11 1,0 0,1 -1,0 z"/><path id="path40" d="m 7.03,11.11 1,0 0,1 -1,0 z"/><path id="path42" d="m 9.03,9.111 1,0 0,1 -1,0 z"/><path id="path44" d="m 12.03,9.111 1,0 0,3 -1,0 z"/><path id="path46" transform="matrix(0 1 -1 0 0 0)" d="m 11.11,-15.03 1,0 0,3 -1,0 z"/><path id="path48" transform="matrix(-1 0 0 -1 0 0)" d="m -15.03,-12.11 1,0 0,3 -1,0 z"/><g id="g50" transform="matrix(0 -1 1 0 0 0)"><path id="path52" d="m -10.111,12.03 1,0 0,3 -1,0 z"/><path id="path54" d="m -12.11,17.03 1,0 0,3 -1,0 z"/></g></g><rect height="1" width="24.926811" fill="#fff" id="rect3047" x="17" y="15"/><rect height="1" width="11" opacity="0.6" fill="#fff" id="rect4175" x="5" y="15"/><g opacity="0.4" fill="#fff" id="g4183" transform="matrix(1 0 0 1 0 1)"><rect height="3" stroke-dashoffset="0" fill-opacity="1" stroke-linejoin="round" stroke-linecap="round" stroke-dasharray="none" stroke-miterlimit="4" stroke="none" fill-rule="evenodd" x="7" y="18" id="rect4185" stroke-width="3" stroke-opacity="1" width="7" fill="#fff" rx="1" opacity="0.7" ry="1"/><rect height="3" stroke-dashoffset="0" fill-opacity="1" stroke-linejoin="round" stroke-linecap="round" stroke-dasharray="none" stroke-miterlimit="4" stroke="none" fill-rule="evenodd" x="7" y="24" id="rect4187" stroke-width="3" stroke-opacity="1" width="7" fill="#fff" rx="1" opacity="0.7" ry="1"/><rect height="3" stroke-dashoffset="0" fill-opacity="1" stroke-linejoin="round" stroke-linecap="round" stroke-dasharray="none" stroke-miterlimit="4" stroke="none" fill-rule="evenodd" x="7" y="30" id="rect4189" stroke-width="3" stroke-opacity="1" width="7" fill="#fff" rx="1" opacity="0.7" ry="1"/><rect height="3" stroke-dashoffset="0" fill-opacity="1" stroke-linejoin="round" stroke-linecap="round" stroke-dasharray="none" stroke-miterlimit="4" stroke="none" fill-rule="evenodd" x="7" y="36" id="rect4191" stroke-width="3" stroke-opacity="1" width="7" fill="#fff" rx="1" opacity="0.7" ry="1"/></g><g id="g4177"><rect height="3" stroke-dashoffset="0" fill-opacity="1" stroke-linejoin="round" stroke-linecap="round" stroke-dasharray="none" stroke-miterlimit="4" stroke="none" fill-rule="evenodd" x="7" y="18" id="rect4166" stroke-width="3" stroke-opacity="1" width="7" fill="#171717" rx="1" opacity="0.7" ry="1"/><rect height="3" stroke-dashoffset="0" fill-opacity="1" stroke-linejoin="round" stroke-linecap="round" stroke-dasharray="none" stroke-miterlimit="4" stroke="none" fill-rule="evenodd" x="7" y="24" id="rect4169" stroke-width="3" stroke-opacity="1" width="7" fill="#171717" rx="1" opacity="0.7" ry="1"/><rect height="3" stroke-dashoffset="0" fill-opacity="1" stroke-linejoin="round" stroke-linecap="round" stroke-dasharray="none" stroke-miterlimit="4" stroke="none" fill-rule="evenodd" x="7" y="30" id="rect4171" stroke-width="3" stroke-opacity="1" width="7" fill="#171717" rx="1" opacity="0.7" ry="1"/><rect height="3" stroke-dashoffset="0" fill-opacity="1" stroke-linejoin="round" stroke-linecap="round" stroke-dasharray="none" stroke-miterlimit="4" stroke="none" fill-rule="evenodd" x="7" y="36" id="rect4173" stroke-width="3" stroke-opacity="1" width="7" fill="#171717" rx="1" opacity="0.7" ry="1"/></g><rect height="27" width="1" opacity="0.4" id="rect3043" x="16" y="15"/><rect height="1" width="26" opacity="0.7" fill="#fff" id="rect4168" x="16" transform="matrix(0 1 -1 0 0 0)" y="-18"/><metadata id="metadata9999"><rdf:RDF><cc:Work><dc:format>image/svg+xml</dc:format><dc:type rdf:resource="http://purl.org/dc/dcmitype/StillImage"/><dc:title/><cc:license rdf:resource="http://creativecommons.org/licenses/by-sa/4.0/"/><dc:creator><cc:Agent><dc:title>Sixsixfive (sixsixfive.deviantart.com)</dc:title></cc:Agent></dc:creator><dc:publisher><cc:Agent><dc:title>Sixsixfive (sixsixfive.deviantart.com)</dc:title></cc:Agent></dc:publisher><dc:source>https://github.com/sixsixfive</dc:source><dc:subject><rdf:Bag><rdf:li>ivy</rdf:li></rdf:Bag></dc:subject><dc:contributor><cc:Agent><dc:title>ssf</dc:title></cc:Agent></dc:contributor><dc:rights><cc:Agent><dc:title>Sixsixfive (sixisixfive.deviantart.com)</dc:title></cc:Agent></dc:rights><dc:description>A simple icon theme published under CC-BY-SA_V4(http://creativecommons.org/licenses/by-sa/4.0)</dc:description><dc:identifier>SSF</dc:identifier></cc:Work></rdf:RDF></metadata><!--Part of the Ivy icon them published under the CC-BY-SA_V4: http://creativecommons.org/licenses/by-sa/4.0 -->
</svg>