<?xml version="1.0" encoding="UTF-8" standalone="no"?><svg xmlns:cc="http://creativecommons.org/ns#" viewBox="0 0 48 48" version="1.1" id="svg2" xmlns:svg="http://www.w3.org/2000/svg" xmlns:rdf="http://www.w3.org/1999/02/22-rdf-syntax-ns#" xmlns="http://www.w3.org/2000/svg" xmlns:dc="http://purl.org/dc/elements/1.1/"><defs id="defs4"><linearGradient x2="44" gradientUnits="userSpaceOnUse" x1="3" id="0"><stop id="stop7" stop-color="#dedede"/><stop offset="1" id="stop9" stop-color="#f4f4f4"/></linearGradient><linearGradient x2="39.906" gradientUnits="userSpaceOnUse" x1="40" id="1" y2="42.969" y1="3"><stop id="stop12" stop-color="#fff"/><stop offset="1" stop-opacity="0" id="stop14" stop-color="#fff"/></linearGradient></defs><g id="g16" transform="matrix(0 1 -1 0 0 0)"><path opacity="0.1" id="rect18" d="m 11.269,-45.09 32.533001,0 c 0.669786,0 1.209,0.539214 1.209,1.209 l 0,39.5819999 c 0,0.669786 -0.539214,1.2089999 -1.209,1.2089999 l -32.533001,0 c -0.669786,0 -1.209,-0.5392139 -1.209,-1.2089999 l 0,-39.5819999 c 0,-0.669786 0.539214,-1.209 1.209,-1.209 z"/><path fill="url(#0)" id="rect20" d="m 10.269,-45.07 32.533001,0 c 0.669786,0 1.209,0.539214 1.209,1.209 l 0,39.5820003 c 0,0.669786 -0.539214,1.209 -1.209,1.209 l -32.533001,0 c -0.6697856,0 -1.2089996,-0.539214 -1.2089996,-1.209 l 0,-39.5820003 c 0,-0.669786 0.539214,-1.209 1.2089996,-1.209 z"/></g><g fill="none" id="g22"><path opacity="0.4" id="path24" stroke="#000" d="m 44.5809,10.2501 c 0,-0.403779 -0.299839,-0.687499 -0.71875,-0.687499 l -39.5625,0 c -0.418911,0 -0.71875,0.283721 -0.71875,0.687499 l 0,32.5312 c 0,0.40378 0.31497,0.71875 0.71875,0.71875 l 39.5625,0 c 0.403779,0 0.71875,-0.31497 0.71875,-0.71875 l 0,-32.5312 z"/><path opacity="0.78" id="path26" stroke="url(#1)" d="m 43.5496,10.5939 -38.9375,0 0,31.875 38.9375,0 0,-31.875 z"/></g><g fill-rule="evenodd" id="g28"><path fill="#fff" id="path30" d="m 23.859,20.0828 c -4.88293,0.13011 -5.8016,3.68892 -5.54089,6.36612 0.311225,0.228356 0.333906,0.258764 0.660468,0.352064 -0.229933,2.26579 0.643715,4.2793 2.22685,5.87553 -0.09064,0.52693 -0.294612,0.976726 -0.596168,1.52372 l -5.0967,1.0793 c -2.47066,0.564391 -2.65759,4.03832 -2.48989,5.8005 22.0099,-0.06169 -0.04253,0.03632 21.9999,-0.04617 -0.07543,-1.92647 -0.351069,-5.35081 -2.86396,-5.8813 l -4.8278,-0.9062 c -3.6e-4,-0.01535 9.93e-4,-0.03081 0,-0.04617 l -0.2981,-1.6218 c 1.48317,-0.870695 2.14867,-4.50305 2.20349,-4.84819 0.27672,-0.368448 0.211816,-0.999204 0.286401,-1.49485 0.388055,-2.57896 -1.08256,-6.07659 -5.17267,-6.15257 -0.165855,-0.0031 -0.333439,-0.0043 -0.49096,0 z"/><path fill="#6a6a6a" id="path32" d="m 23.859,19.0828 c -4.88293,0.13011 -5.8016,3.68892 -5.54089,6.36612 0.311225,0.228356 0.333906,0.258764 0.660468,0.352064 -0.229933,2.26579 0.643715,4.2793 2.22685,5.87553 -0.09064,0.52693 -0.294612,0.976726 -0.596168,1.52372 l -5.0967,1.0793 c -2.47066,0.564391 -2.65759,4.03832 -2.48989,5.8005 22.0099,-0.06169 -0.04253,0.03632 21.9999,-0.04617 -0.07543,-1.92647 -0.351069,-5.35081 -2.86396,-5.8813 l -4.8278,-0.9062 c -3.6e-4,-0.01535 9.93e-4,-0.03081 0,-0.04617 l -0.2981,-1.6218 c 1.48317,-0.870695 2.14867,-4.50305 2.20349,-4.84819 0.27672,-0.368448 0.211816,-0.999204 0.286401,-1.49485 0.388055,-2.57896 -1.08256,-6.07659 -5.17267,-6.15257 -0.165855,-0.0031 -0.333439,-0.0043 -0.49096,0 z"/></g><metadata id="metadata9999"><rdf:RDF><cc:Work><dc:format>image/svg+xml</dc:format><dc:type rdf:resource="http://purl.org/dc/dcmitype/StillImage"/><dc:title>Ivy icon theme</dc:title><cc:license rdf:resource="http://creativecommons.org/licenses/by-sa/4.0/"/><dc:creator><cc:Agent><dc:title>Sixsixfive (sixsixfive.deviantart.com)</dc:title></cc:Agent></dc:creator><dc:publisher><cc:Agent><dc:title>Sixsixfive (sixsixfive.deviantart.com)</dc:title></cc:Agent></dc:publisher><dc:source>https://github.com/sixsixfive</dc:source><dc:subject><rdf:Bag><rdf:li>ivy</rdf:li></rdf:Bag></dc:subject><dc:contributor><cc:Agent><dc:title>ssf</dc:title></cc:Agent></dc:contributor><dc:rights><cc:Agent><dc:title>Sixsixfive (sixisixfive.deviantart.com)</dc:title></cc:Agent></dc:rights><dc:description>A simple icon theme published under CC-BY-SA_V4(http://creativecommons.org/licenses/by-sa/4.0)</dc:description><dc:identifier>SSF</dc:identifier></cc:Work></rdf:RDF></metadata><!--Part of the Ivy icon them published under the CC-BY-SA_V4: http://creativecommons.org/licenses/by-sa/4.0 -->
</svg>