<?xml version="1.0" encoding="UTF-8" standalone="no"?><svg xmlns:cc="http://creativecommons.org/ns#" xmlns:rdf="http://www.w3.org/1999/02/22-rdf-syntax-ns#" xmlns:svg="http://www.w3.org/2000/svg" id="svg2" viewBox="0 0 48 48" version="1.1" xmlns:xlink="http://www.w3.org/1999/xlink" xmlns:dc="http://purl.org/dc/elements/1.1/" xmlns="http://www.w3.org/2000/svg"><defs id="defs4"><linearGradient id="0" x2="0" y2="47" xlink:href="#5" y1="6" gradientUnits="userSpaceOnUse"/><linearGradient id="1" x2="34.906" y2="41.969" xlink:href="#4" x1="35" y1="2" gradientUnits="userSpaceOnUse"/><linearGradient id="2" x2="45.906" y2="45.969" xlink:href="#4" x1="46" y1="6" gradientUnits="userSpaceOnUse"/><linearGradient id="3" x2="0" y2="43" xlink:href="#5" y1="2" gradientUnits="userSpaceOnUse"/><linearGradient id="4"><stop id="stop11" stop-color="#fff"/><stop offset="1" id="stop13" stop-color="#fff" stop-opacity="0"/></linearGradient><linearGradient id="5"><stop id="stop16" stop-color="#dedede"/><stop offset="1" id="stop18" stop-color="#f4f4f4"/></linearGradient></defs><rect rx="1.209" height="42" ry="1.209" id="rect20" opacity="0.1" width="34.951" x="1" y="2"/><rect rx="1.209" height="42" ry="1.209" id="rect22" width="34.951" x="0.986" y="1" fill="url(#3)"/><g id="g24" fill="none"><path id="path26" opacity="0.4" d="M 2.1875,1.5 C 1.783721,1.5 1.5,1.799839 1.5,2.21875 l 0,39.5625 C 1.5,42.20016 1.783721,42.5 2.1875,42.5 l 32.5312,0 c 0.40378,0 0.71875,-0.31497 0.71875,-0.71875 l 0,-39.5625 C 35.43745,1.814971 35.12248,1.5 34.7187,1.5 l -32.5312,0 z" stroke="#000"/><path id="path28" opacity="0.78" d="m 2.5312,2.5312 0,38.9375 31.875,0 0,-38.9375 -31.875,0 z" stroke="url(#1)"/></g><rect rx="1.209" height="42" ry="1.209" id="rect30" opacity="0.4" width="34.951" x="10.955" y="3.969" fill="#fff"/><rect rx="1.209" height="42" ry="1.209" id="rect32" opacity="0.1" width="34.951" x="12" y="6"/><rect rx="1.209" height="42" ry="1.209" id="rect34" width="34.951" x="11.986" y="5" fill="url(#0)"/><g id="g36" fill="none"><path id="path38" opacity="0.4" d="M 13.1875,5.5 C 12.783721,5.5 12.5,5.799839 12.5,6.21875 l 0,39.5625 c 0,0.41891 0.283721,0.71875 0.6875,0.71875 l 32.5312,0 c 0.40378,0 0.71875,-0.31497 0.71875,-0.71875 l 0,-39.5625 C 46.43745,5.814971 46.12248,5.5 45.7187,5.5 l -32.5312,0 z" stroke="#000"/><path id="path40" opacity="0.78" d="m 13.5312,6.5312 0,38.9375 31.875,0 0,-38.9375 -31.875,0 z" stroke="url(#2)"/></g><metadata id="metadata9999"><rdf:RDF><cc:Work><dc:format>image/svg+xml</dc:format><dc:type rdf:resource="http://purl.org/dc/dcmitype/StillImage"/><dc:title>Ivy icon theme</dc:title><cc:license rdf:resource="http://creativecommons.org/licenses/by-sa/4.0/"/><dc:creator><cc:Agent><dc:title>Sixsixfive (sixsixfive.deviantart.com)</dc:title></cc:Agent></dc:creator><dc:publisher><cc:Agent><dc:title>Sixsixfive (sixsixfive.deviantart.com)</dc:title></cc:Agent></dc:publisher><dc:source>https://github.com/sixsixfive</dc:source><dc:subject><rdf:Bag><rdf:li>ivy</rdf:li></rdf:Bag></dc:subject><dc:contributor><cc:Agent><dc:title>ssf</dc:title></cc:Agent></dc:contributor><dc:rights><cc:Agent><dc:title>Sixsixfive (sixisixfive.deviantart.com)</dc:title></cc:Agent></dc:rights><dc:description>A simple icon theme published under CC-BY-SA_V4(http://creativecommons.org/licenses/by-sa/4.0)</dc:description><dc:identifier>SSF</dc:identifier></cc:Work></rdf:RDF></metadata><!--Part of the Ivy icon them published under the CC-BY-SA_V4: http://creativecommons.org/licenses/by-sa/4.0 -->
</svg>