<?xml version="1.0" encoding="UTF-8" standalone="no"?><svg xmlns:cc="http://creativecommons.org/ns#" xmlns:dc="http://purl.org/dc/elements/1.1/" xmlns="http://www.w3.org/2000/svg" xmlns:svg="http://www.w3.org/2000/svg" xmlns:rdf="http://www.w3.org/1999/02/22-rdf-syntax-ns#" id="svg2" version="1.1" viewBox="0 0 48 48"><defs id="defs4"><linearGradient gradientUnits="userSpaceOnUse" y1="7" id="0" y2="42" x2="0"><stop id="stop7" stop-color="#fff"/><stop stop-opacity="0" id="stop9" stop-color="#fff" offset="1"/></linearGradient><linearGradient gradientUnits="userSpaceOnUse" y1="3.969" x1="43.01" id="1" y2="45.03" x2="43.24"><stop id="stop12" stop-color="#66b03e"/><stop id="stop14" stop-color="#95ce76" offset="1"/></linearGradient><radialGradient gradientTransform="matrix(1 0 0 0.21429 0 36.536)" cy="46.5" cx="32" gradientUnits="userSpaceOnUse" r="7" id="2"><stop id="stop17"/><stop stop-opacity="0" id="stop19" offset="1"/></radialGradient></defs><path transform="matrix(0.71429 0 0 0.66667 2.143 14)" opacity="0.08" d="m 39 46.5 a 7 1.5 0 1 1 -14 0 7 1.5 0 1 1 14 0 z" id="path21" fill="url(#2)"/><path d="m 25.076 4 l -0.000001 11.841615 h 17.962 L 36 25 l 7.038 8.158386 h -17.962 V 45 L 5 24.468168 z" id="path23" fill="url(#1)"/><g id="g25" fill="none"><path stroke="#000" opacity="0.4" d="m 24.5938,5.1562 -18.9375,19.3125 18.9375,19.375 0,-10.6875 c -0.0019,-0.24596 0.22279,-0.470683 0.46875,-0.46875 l 16.8394,-0.0508 -6.5462,-7.6367 6.7495,-8.7383 -17.0427,0.0508 c -0.24596,0.0019 -0.470683,-0.22279 -0.46875,-0.46875 z" id="path27"/><path stroke="url(#0)" opacity="0.6" d="M 23.5938,7.625 7.0626,24.4688 23.5938,41.375 l 0,-8.21875 c 4.08e-4,-0.768924 0.699826,-1.46834 1.46875,-1.46875 l 14.6707,-0.0508 -5.8435,-6.6042 6.1992,-7.8216 -15.0264,0.1016 c -0.768924,-4.08e-4 -1.46834,-0.699826 -1.46875,-1.46875 z" id="path29"/></g><metadata id="metadata9999"><rdf:RDF><cc:Work><dc:format>image/svg+xml</dc:format><dc:type rdf:resource="http://purl.org/dc/dcmitype/StillImage"/><dc:title>Ivy icon theme</dc:title><cc:license rdf:resource="http://creativecommons.org/licenses/by-sa/4.0/"/><dc:creator><cc:Agent><dc:title>Sixsixfive (sixsixfive.deviantart.com)</dc:title></cc:Agent></dc:creator><dc:publisher><cc:Agent><dc:title>Sixsixfive (sixsixfive.deviantart.com)</dc:title></cc:Agent></dc:publisher><dc:source>https://github.com/sixsixfive</dc:source><dc:subject><rdf:Bag><rdf:li>ivy</rdf:li></rdf:Bag></dc:subject><dc:contributor><cc:Agent><dc:title>ssf</dc:title></cc:Agent></dc:contributor><dc:rights><cc:Agent><dc:title>Sixsixfive (sixisixfive.deviantart.com)</dc:title></cc:Agent></dc:rights><dc:description>A simple icon theme published under CC-BY-SA_V4(http://creativecommons.org/licenses/by-sa/4.0)</dc:description><dc:identifier>SSF</dc:identifier></cc:Work></rdf:RDF></metadata><!--Part of the Ivy icon them published under the CC-BY-SA_V4: http://creativecommons.org/licenses/by-sa/4.0 -->
</svg>