<?xml version="1.0" encoding="UTF-8" standalone="no"?>
<svg xmlns:dc="http://purl.org/dc/elements/1.1/" xmlns:cc="http://creativecommons.org/ns#" xmlns:rdf="http://www.w3.org/1999/02/22-rdf-syntax-ns#" xmlns:svg="http://www.w3.org/2000/svg" xmlns="http://www.w3.org/2000/svg" version="1.1" id="svg2" viewBox="0 0 48 48">
 <defs id="defs4">
  <linearGradient gradientUnits="userSpaceOnUse" x2="0" y2="4.22" y1="42.22" id="0">
   <stop id="stop7" stop-color="#ddd"/>
   <stop id="stop9" stop-color="#fff" offset="1"/>
  </linearGradient>
  <linearGradient gradientUnits="userSpaceOnUse" x2="45.501" y2="57.35" x1="43.06" y1="5.158" id="1">
   <stop id="stop12" stop-color="#fff"/>
   <stop id="stop14" stop-opacity="0" stop-color="#fff" offset="1"/>
  </linearGradient>
 </defs>
 <path id="path16" d="m 4 5.22 h 40 v 38 H 4 z" opacity="0.1"/>
 <path id="path18" d="m 4 4.22 h 40 v 38 H 4 z" fill="url(#0)"/>
 <g id="g20" fill="none">
  <path id="path22" d="m 4.4684,4.689 0,37.0625 39.0625,0 0,-37.0625 -39.0625,0 z" opacity="0.4" stroke="#000"/>
  <path id="path24" d="m 5.4372,5.6578 0,35.125 37.125,0 0,-35.125 -37.125,0 z" stroke="url(#1)"/>
 </g>
 <path id="path26" d="m 9 10 v 4 h 30 v -4 H 9 z m 0 8 v 4 h 30 v -4 H 9 z m 0 8 v 4 h 30 v -4 H 9 z m 0 8 v 4 h 30 v -4 H 9 z" fill="#fff"/>
 <g id="g28" transform="scale(-1,1)" fill="#171717">
  <path id="path30" d="m -39,9 30,0 0,4 -30,0 z" opacity="0.7"/>
  <path id="path32" d="m -39,17 30,0 0,4 -30,0 z" opacity="0.7"/>
  <path id="path34" d="m -39,25 30,0 0,4 -30,0 z" opacity="0.7"/>
  <path id="path36" d="m -39,33 30,0 0,4 -30,0 z" opacity="0.7"/>
 </g>
 <metadata id="metadata9999">
  <rdf:RDF>
   <cc:Work>
    <dc:format>image/svg+xml</dc:format>
    <dc:type rdf:resource="http://purl.org/dc/dcmitype/StillImage"/>
    <dc:title>Ivy icon theme</dc:title>
    <cc:license rdf:resource="http://creativecommons.org/licenses/by-sa/4.0/"/>
    <dc:creator>
     <cc:Agent>
      <dc:title>Sixsixfive (sixsixfive.deviantart.com)</dc:title>
     </cc:Agent>
    </dc:creator>
    <dc:publisher>
     <cc:Agent>
      <dc:title>Sixsixfive (sixsixfive.deviantart.com)</dc:title>
     </cc:Agent>
    </dc:publisher>
    <dc:source>https://github.com/sixsixfive</dc:source>
    <dc:subject>
     <rdf:Bag>
      <rdf:li>ivy</rdf:li>
     </rdf:Bag>
    </dc:subject>
    <dc:contributor>
     <cc:Agent>
      <dc:title>ssf</dc:title>
     </cc:Agent>
    </dc:contributor>
    <dc:rights>
     <cc:Agent>
      <dc:title>Sixsixfive (sixisixfive.deviantart.com)</dc:title>
     </cc:Agent>
    </dc:rights>
    <dc:description>A simple icon theme published under CC-BY-SA_V4(http://creativecommons.org/licenses/by-sa/4.0)</dc:description>
    <dc:identifier>SSF</dc:identifier>
   </cc:Work>
  </rdf:RDF>
 </metadata>
 <!--Part of the Ivy icon them published under the CC-BY-SA_V4: http://creativecommons.org/licenses/by-sa/4.0 -->
</svg>
