<?xml version="1.0" encoding="UTF-8" standalone="no"?><svg xmlns:cc="http://creativecommons.org/ns#" xmlns:svg="http://www.w3.org/2000/svg" xmlns:dc="http://purl.org/dc/elements/1.1/" xmlns="http://www.w3.org/2000/svg" xmlns:rdf="http://www.w3.org/1999/02/22-rdf-syntax-ns#" id="svg2" version="1.1" xmlns:xlink="http://www.w3.org/1999/xlink" viewBox="0 0 48 48"><defs id="defs5"><linearGradient id="linearGradient4197"><stop id="stop4199" stop-color="#ebebeb"/><stop id="stop4201" stop-color="#fff" offset="1"/></linearGradient><linearGradient id="linearGradient4184"><stop id="stop4186" stop-color="#fff"/><stop stop-opacity="0" id="stop4188" stop-color="#fff" offset="1"/></linearGradient><linearGradient gradientUnits="userSpaceOnUse" xlink:href="#linearGradient4184" y1="17" id="linearGradient4190" y2="44" x2="0"/><linearGradient gradientUnits="userSpaceOnUse" xlink:href="#linearGradient4197" y1="18" id="linearGradient4203" y2="48" x2="0"/><linearGradient id="linearGradient3797"><stop id="stop3799" stop-color="#ff8b36"/><stop id="stop3801" stop-color="#ffd506" offset="1"/></linearGradient><linearGradient gradientTransform="matrix(0.67752032 0 0 0.68421049 -0.37844546 -0.42105199)" gradientUnits="userSpaceOnUse" xlink:href="#linearGradient3797" y1="-18" id="linearGradient4173" x1="1.410096" y2="45" x2="1.410096"/><linearGradient gradientUnits="userSpaceOnUse" xlink:href="#linearGradient4184" y1="4" id="linearGradient4177" x1="28" y2="28" x2="28"/></defs><path opacity="0.1" d="m 10,17 c -1.108,0 -2,0.892 -2,2 l 0,14 -4,0 c -1.108,0 -2,0.892 -2,2 l 0,5 0,3 0,2 2,0 40,0 2,0 0,-2 0,-3 0,-5 c 0,-1.108 -0.892,-2 -2,-2 l -4,0 0,-14 c 0,-1.108 -0.892,-2 -2,-2 l -28,0 z" stroke-linejoin="round" id="path4213" stroke-linecap="round"/><path d="M 10 16 C 8.892 16 8 16.892 8 18 L 8 32 L 4 32 C 2.892 32 2 32.892 2 34 L 2 39 L 2 42 L 2 44 L 4 44 L 44 44 L 46 44 L 46 42 L 46 39 L 46 34 C 46 32.892 45.108 32 44 32 L 40 32 L 40 18 C 40 16.892 39.108 16 38 16 L 10 16 z " stroke-linejoin="round" id="rect4171" fill="url(#linearGradient4203)" stroke-linecap="round"/><path stroke="url(#linearGradient4190)" opacity="0.4" d="m 10,17.421875 c -0.3445692,0 -0.578125,0.233556 -0.578125,0.578125 l 0,14 A 1.4225884,1.4225884 0 0 1 8,33.421875 l -4,0 c -0.3445692,0 -0.578125,0.233556 -0.578125,0.578125 l 0,5 0,3 0,0.578125 0.578125,0 40,0 0.578125,0 0,-0.578125 0,-3 0,-5 c 0,-0.344569 -0.233556,-0.578125 -0.578125,-0.578125 l -4,0 A 1.4225884,1.4225884 0 0 1 38.578125,32 l 0,-14 c 0,-0.344569 -0.233556,-0.578125 -0.578125,-0.578125 l -28,0 z" stroke-linejoin="round" id="path4182" fill="none" stroke-linecap="round"/><path stroke="#000" opacity="0.4" d="m 10,16.507812 c -0.8352852,0 -1.4921875,0.656903 -1.4921875,1.492188 l 0,14 A 0.50818089,0.50818089 0 0 1 8,32.507812 l -4,0 c -0.8352852,0 -1.4921875,0.656903 -1.4921875,1.492188 l 0,5 0,3 0,1.492188 1.4921875,0 40,0 1.492188,0 0,-1.492188 0,-3 0,-5 c 0,-0.835285 -0.656903,-1.492188 -1.492188,-1.492188 l -4,0 A 0.50818089,0.50818089 0 0 1 39.492188,32 l 0,-14 c 0,-0.835285 -0.656903,-1.492187 -1.492188,-1.492188 l -28,0 z" stroke-linejoin="round" id="path4180" fill="none" stroke-linecap="round"/><rect width="4" height="1" opacity="0.8" stroke-linejoin="round" id="rect4209" y="33" x="4" fill="#fff" stroke-linecap="round"/><rect width="4" height="1" opacity="0.8" stroke-linejoin="round" id="rect4211" y="33" x="40" fill="#fff" stroke-linecap="round"/><g transform="matrix(1 0 0 1 17.993899 18)" id="g4266"><path opacity="0.15" d="M 24.824439,29.892259 C 23.751333,30.679057 17.821814,26.898564 16.495707,26.898112 15.1696,26.89766 9.2375563,30.674113 8.1649761,29.886585 7.0923956,29.099056 8.8203793,22.235826 8.4110155,20.962031 8.0016508,19.688235 2.6120475,15.157806 3.0222626,13.884289 3.4324774,12.610773 10.42995,12.149556 11.503056,11.362758 c 1.073106,-0.786798 3.674191,-7.3632118 5.000299,-7.36276 1.326107,4.517e-4 3.922798,6.578635 4.995378,7.366165 1.07258,0.787528 8.069742,1.25351 8.479106,2.527306 0.409364,1.273797 -4.983264,5.800553 -5.393478,7.07407 -0.410215,1.273517 1.313184,8.137923 0.240078,8.92472 z" stroke-linejoin="round" id="path4179" fill="#000" stroke-linecap="round"/><path d="M 24.824439,28.892259 C 23.751333,29.679057 17.821814,25.898564 16.495707,25.898112 15.1696,25.89766 9.2375563,29.674113 8.1649761,28.886585 7.0923956,28.099056 8.8203793,21.235826 8.4110155,19.962031 8.0016508,18.688235 2.6120475,14.157806 3.0222626,12.884289 3.4324774,11.610773 10.42995,11.149556 11.503056,10.362758 12.576162,9.5759605 15.177247,2.9995482 16.503355,3 c 1.326107,4.517e-4 3.922798,6.5786337 4.995378,7.366163 1.07258,0.787528 8.069742,1.25351 8.479106,2.527306 0.409364,1.273797 -4.983264,5.800553 -5.393478,7.07407 -0.410215,1.273517 1.313184,8.137923 0.240078,8.92472 z" stroke-linejoin="round" id="path3363" fill="url(#linearGradient4173)" stroke-linecap="round"/><path stroke="#000" opacity="0.4" d="m 16.503906,3.4941406 c 0.03817,1.3e-5 -0.06441,0.01463 -0.220703,0.15625 -0.156297,0.1416202 -0.354847,0.3782206 -0.566406,0.6757813 -0.423118,0.5951213 -0.902921,1.4310585 -1.375,2.296875 -0.472079,0.8658165 -0.938326,1.7615095 -1.361328,2.5019531 -0.423002,0.7404436 -0.729582,1.302407 -1.185547,1.636719 -0.455985,0.334326 -1.079628,0.453858 -1.9082032,0.630859 -0.8285757,0.177002 -1.8178814,0.347978 -2.7792969,0.533203 -0.9614156,0.185226 -1.8970731,0.385587 -2.5878907,0.607422 -0.3454087,0.110918 -0.6290626,0.229866 -0.8105468,0.335938 -0.1814843,0.106071 -0.2289063,0.197545 -0.21875,0.166015 0.010142,-0.03148 -0.00526,0.07502 0.080078,0.269532 0.085334,0.194515 0.2461154,0.458745 0.4609375,0.753906 0.4296442,0.590321 1.0688853,1.308306 1.7382812,2.029297 0.669396,0.72099 1.3689505,1.446838 1.9355469,2.082031 0.5665964,0.635193 1.0010716,1.105022 1.1738281,1.642578 0.1727568,0.537558 0.09512,1.173574 0.00586,2.023438 -0.089261,0.849863 -0.2348053,1.851516 -0.3574218,2.832031 -0.1226166,0.980514 -0.2220404,1.940893 -0.2265626,2.673828 -0.00226,0.366467 0.020381,0.676548 0.064453,0.884765 0.044072,0.208218 0.1190054,0.283131 0.089844,0.261719 -0.029191,-0.02143 0.061371,0.02756 0.2695313,0.0059 0.2081606,-0.0217 0.5074812,-0.09593 0.8515625,-0.210938 0.6881625,-0.230021 1.5613515,-0.620921 2.4472665,-1.041015 0.885914,-0.420095 1.787014,-0.868826 2.560546,-1.216797 0.773533,-0.347971 1.346306,-0.621287 1.91211,-0.621094 0.565815,1.92e-4 1.138982,0.274527 1.912109,0.623047 0.773127,0.348519 1.673198,0.796076 2.558594,1.216797 0.885395,0.42072 1.759445,0.814422 2.447265,1.044921 0.343911,0.11525 0.641529,0.189092 0.84961,0.210938 0.20808,0.02185 0.298715,-0.02726 0.269531,-0.0059 -0.02922,0.02142 0.04563,-0.05348 0.08984,-0.261719 0.04421,-0.208243 0.06647,-0.518209 0.06445,-0.884766 -0.004,-0.733114 -0.102635,-1.693005 -0.224609,-2.673828 -0.121975,-0.980822 -0.264814,-1.983896 -0.353516,-2.833984 -0.0887,-0.850088 -0.167269,-1.485957 0.0059,-2.023438 0.173138,-0.537509 0.606698,-1.007791 1.173828,-1.642578 0.567131,-0.634786 1.267481,-1.359572 1.9375,-2.080078 0.67002,-0.720506 1.310095,-1.437335 1.740235,-2.027344 0.21507,-0.295004 0.377404,-0.561412 0.462891,-0.755859 0.08549,-0.194447 0.06995,-0.299098 0.08008,-0.267578 0.01013,0.03153 -0.03734,-0.05982 -0.21875,-0.166016 -0.181445,-0.106196 -0.465262,-0.22478 -0.810584,-0.335936 C 27.789824,12.318703 26.853836,12.117531 25.892578,11.931641 24.93132,11.74575 23.943666,11.574058 23.115234,11.396484 22.286803,11.218911 21.662778,11.098298 21.207031,10.763672 20.751324,10.429075 20.445858,9.8675515 20.023438,9.1269531 19.601017,8.3863548 19.133492,7.4890022 18.662109,6.6230469 18.190726,5.7570915 17.713643,4.9214391 17.291016,4.3261719 17.079702,4.0285382 16.88078,3.7920755 16.724609,3.6503906 16.568439,3.5087058 16.465782,3.4941276 16.503906,3.4941406 Z" stroke-linejoin="round" id="path4167" fill="none" stroke-linecap="round"/><path stroke="url(#linearGradient4177)" opacity="0.4" d="M 16.501953,4.9199219 C 16.128784,5.4483003 15.665811,6.248743 15.205078,7.09375 14.738919,7.9487085 14.27204,8.8464859 13.833984,9.6132812 c -0.438056,0.7667958 -0.62693,1.3327798 -1.457031,1.9414068 -0.83016,0.608671 -1.426491,0.615398 -2.285156,0.798828 -0.8586657,0.183429 -1.8497311,0.35621 -2.7988282,0.539062 -0.9490972,0.182852 -1.8611794,0.381768 -2.4726563,0.578125 0.00318,0.0044 0.00264,0.0053 0.00586,0.0098 0.3811384,0.523675 1.0031209,1.225615 1.6640625,1.9375 0.6609415,0.711884 1.3623468,1.439733 1.9492187,2.097656 0.586872,0.657923 1.0638314,1.021771 1.3769531,1.996094 0.3131232,0.974327 0.139291,1.545875 0.046875,2.425781 -0.092416,0.879906 -0.2382868,1.885223 -0.359375,2.853516 -0.1208126,0.966089 -0.2143324,1.899899 -0.21875,2.550781 0.6079868,-0.204945 1.4499142,-0.577396 2.3164062,-0.988281 0.874611,-0.414735 1.776609,-0.86405 2.578126,-1.22461 0.801516,-0.360559 1.283596,-0.707384 2.316406,-0.707031 1.032844,3.51e-4 1.515292,0.347848 2.316406,0.708984 0.801114,0.361136 1.702078,0.811213 2.576172,1.226563 0.865984,0.411496 1.708761,0.78488 2.316406,0.990234 -0.004,-0.651077 -0.09857,-1.586334 -0.21875,-2.552734 -0.120455,-0.968602 -0.263632,-1.97339 -0.355469,-2.853516 -0.09184,-0.880126 -0.266937,-1.4535 0.04687,-2.427734 0.31384,-0.97432 0.791477,-1.336634 1.378907,-1.994141 0.587429,-0.657507 1.289612,-1.384294 1.951171,-2.095703 0.66156,-0.711409 1.282484,-1.414101 1.664063,-1.9375 0.0032,-0.0044 0.0027,-0.0054 0.0059,-0.0098 -0.61135,-0.196636 -1.522509,-0.396707 -2.47074,-0.580078 C 24.75809,12.712976 23.76672,12.541444 22.908203,12.357422 22.049687,12.1734 21.452757,12.163891 20.623047,11.554688 19.793456,10.94557 19.605429,10.380247 19.167969,9.6132812 18.730509,8.8463153 18.264297,7.9488412 17.798828,7.09375 17.338597,6.2482816 16.874742,5.4483906 16.501953,4.9199219 Z" stroke-linejoin="round" id="path4169" fill="none" stroke-linecap="round"/></g><metadata id="metadata9999"><rdf:RDF><cc:Work><dc:format>image/svg+xml</dc:format><dc:type rdf:resource="http://purl.org/dc/dcmitype/StillImage"/><dc:title>Ivy icon theme</dc:title><cc:license rdf:resource="http://creativecommons.org/licenses/by-sa/4.0/"/><dc:creator><cc:Agent><dc:title>Sixsixfive (sixsixfive.deviantart.com)</dc:title></cc:Agent></dc:creator><dc:publisher><cc:Agent><dc:title>Sixsixfive (sixsixfive.deviantart.com)</dc:title></cc:Agent></dc:publisher><dc:source>https://github.com/sixsixfive</dc:source><dc:subject><rdf:Bag><rdf:li>ivy</rdf:li></rdf:Bag></dc:subject><dc:contributor><cc:Agent><dc:title>ssf</dc:title></cc:Agent></dc:contributor><dc:rights><cc:Agent><dc:title>Sixsixfive (sixisixfive.deviantart.com)</dc:title></cc:Agent></dc:rights><dc:description>A simple icon theme published under CC-BY-SA_V4(http://creativecommons.org/licenses/by-sa/4.0)</dc:description><dc:identifier>SSF</dc:identifier></cc:Work></rdf:RDF></metadata><!--Part of the Ivy icon them published under the CC-BY-SA_V4: http://creativecommons.org/licenses/by-sa/4.0 -->
</svg>