<?xml version="1.0" encoding="UTF-8" standalone="no"?>
<svg xmlns:dc="http://purl.org/dc/elements/1.1/" xmlns:cc="http://creativecommons.org/ns#" xmlns:rdf="http://www.w3.org/1999/02/22-rdf-syntax-ns#" xmlns:svg="http://www.w3.org/2000/svg" xmlns="http://www.w3.org/2000/svg" xmlns:xlink="http://www.w3.org/1999/xlink" viewBox="0 0 48 48" id="svg2" version="1.1">
 <defs id="defs4">
  <linearGradient id="linearGradient4173">
   <stop id="stop4175" stop-color="#000" stop-opacity="1"/>
   <stop offset="0.0625" id="stop4185" stop-color="#fff" stop-opacity="1"/>
   <stop offset="0.916667" id="stop4183" stop-color="#fff" stop-opacity="1"/>
   <stop id="stop4177" offset="1" stop-color="#000" stop-opacity="1"/>
  </linearGradient>
  <linearGradient id="linearGradient4222">
   <stop id="stop4224" stop-color="#fff" stop-opacity="1"/>
   <stop offset="1" id="stop4226" stop-color="#fff" stop-opacity="0"/>
  </linearGradient>
  <linearGradient id="linearGradient4208">
   <stop id="stop4210" stop-color="#fff" stop-opacity="1"/>
   <stop offset="1" id="stop4212" stop-color="#fff" stop-opacity="0"/>
  </linearGradient>
  <linearGradient id="linearGradient4194">
   <stop id="stop4196" stop-color="#fff" stop-opacity="1"/>
   <stop offset="1" id="stop4198" stop-color="#fff" stop-opacity="0"/>
  </linearGradient>
  <linearGradient xlink:href="#linearGradient4194" id="linearGradient4200" x1="35" y1="7" x2="35" y2="19" gradientUnits="userSpaceOnUse"/>
  <linearGradient xlink:href="#linearGradient4208" id="linearGradient4214" x1="33" y1="29" x2="33" y2="41" gradientUnits="userSpaceOnUse"/>
  <linearGradient xlink:href="#linearGradient4222" id="linearGradient4228" x1="25" y1="4" x2="25" y2="13" gradientUnits="userSpaceOnUse"/>
  <linearGradient xlink:href="#linearGradient4222" id="linearGradient4252" gradientUnits="userSpaceOnUse" x1="25" y1="4" x2="25" y2="13"/>
  <linearGradient xlink:href="#linearGradient4222" id="linearGradient4260" gradientUnits="userSpaceOnUse" x1="25" y1="4" x2="25" y2="13"/>
  <linearGradient xlink:href="#linearGradient4222" id="linearGradient4268" gradientUnits="userSpaceOnUse" x1="25" y1="4" x2="25" y2="13"/>
  <linearGradient y2="48" x2="40" y1="0" x1="40" spreadMethod="pad" gradientUnits="userSpaceOnUse" id="linearGradient4223" xlink:href="#linearGradient4173"/>
  <mask id="mask4219" maskUnits="userSpaceOnUse">
   <rect id="rect4221" width="48" height="48" x="0" y="0" opacity="1" stroke-dasharray="none" stroke-opacity="1" fill="url(#linearGradient4223)" stroke="none" stroke-linejoin="round" fill-opacity="1" stroke-linecap="round" stroke-width="1" stroke-dashoffset="0" stroke-miterlimit="12.1"/>
  </mask>
 </defs>
 <metadata id="metadata9999">
  <rdf:RDF>
   <cc:Work>
    <dc:format>image/svg+xml</dc:format>
    <dc:type rdf:resource="http://purl.org/dc/dcmitype/StillImage"/>
    <dc:title/>
    <cc:license rdf:resource="http://creativecommons.org/licenses/by-sa/4.0/"/>
    <dc:creator>
     <cc:Agent>
      <dc:title>Sixsixfive (sixsixfive.deviantart.com)</dc:title>
     </cc:Agent>
    </dc:creator>
    <dc:publisher>
     <cc:Agent>
      <dc:title>Sixsixfive (sixsixfive.deviantart.com)</dc:title>
     </cc:Agent>
    </dc:publisher>
    <dc:source>https://github.com/sixsixfive</dc:source>
    <dc:subject>
     <rdf:Bag>
      <rdf:li>ivy</rdf:li>
     </rdf:Bag>
    </dc:subject>
    <dc:contributor>
     <cc:Agent>
      <dc:title>ssf</dc:title>
     </cc:Agent>
    </dc:contributor>
    <dc:rights>
     <cc:Agent>
      <dc:title>Sixsixfive (sixisixfive.deviantart.com)</dc:title>
     </cc:Agent>
    </dc:rights>
    <dc:description>A simple icon theme published under CC-BY-SA_V4(http://creativecommons.org/licenses/by-sa/4.0)</dc:description>
    <dc:identifier>SSF</dc:identifier>
   </cc:Work>
  </rdf:RDF>
 </metadata>
 <!--Part of the Ivy icon them published under the CC-BY-SA_V4: http://creativecommons.org/licenses/by-sa/4.0 -->
 <g transform="matrix(0,1,-1,0,48,-1)" mask="url(#mask4219)" id="g4187">
  <path d="m 20,10.000438 8,0 0,11 -8,0 z" id="path4270" opacity="0.15" fill="#000"/>
  <path id="path4272" d="m 20,-5 8,0 0,11 -8,0 z" opacity="0.15" fill="#000"/>
  <path d="m 20,25 8,0 0,11 -8,0 z" id="path4274" opacity="0.15" fill="#000"/>
  <path id="path4276" d="m 20,41 8,0 0,11 -8,0 z" opacity="0.15" fill="#000"/>
  <path d="m 6,28.999999 36,0 L 42,43 6,43 Z" id="path4278" opacity="0.15" fill="#000"/>
  <path id="path4280" d="m 10,6.999998 28,0 0,14.000001 -28,0 z" opacity="0.15" fill="#000"/>
  <path d="m 10,5.999998 28,0 0,14.000001 -28,0 z" id="path4157" fill="#6a6a6a"/>
  <path id="path6" d="m 6,27.999999 36,0 L 42,42 6,42 Z" fill="#6a6a6a"/>
  <path d="m 10.441406,6.4414062 0,13.1171878 27.117188,0 0,-13.1171878 -27.117188,0 z" id="path4190" opacity="0.5" fill="none" stroke="#000"/>
  <path id="path4192" d="m 11.476562,7.4765625 0,11.0468755 25.046876,0 0,-11.0468755 -25.046876,0 z" opacity="0.2" fill="none" stroke="url(#linearGradient4200)"/>
  <path d="m 6.4941406,28.494141 0,13.011718 35.0117184,0 0,-13.011718 -35.0117184,0 z" id="path4204" opacity="0.5" fill="none" stroke="#000"/>
  <path id="path4206" d="m 7.5253906,29.525391 0,10.949218 32.9492184,0 0,-10.949218 -32.9492184,0 z" opacity="0.2" fill="none" stroke="url(#linearGradient4214)"/>
  <path d="m 20,9.000438 8,0 0,11 -8,0 z" id="path4171-8" fill="#ff8b36"/>
  <path transform="translate(0,6.000438)" d="m 20.507812,3.5078125 0,9.9843755 6.984376,0 0,-9.9843755 -6.984376,0 z" id="path4218" opacity="0.6" fill="none" stroke="#000"/>
  <path transform="translate(0,6.000438)" id="path4220" d="m 21.523438,4.5234375 0,7.9531245 4.953124,0 0,-7.9531245 -4.953124,0 z" opacity="0.4" fill="none" stroke="url(#linearGradient4228)"/>
  <path id="path4246" d="m 20,24 8,0 0,11 -8,0 z" fill="#ff8b36"/>
  <path transform="translate(0,21)" id="path4248" d="m 20.507812,3.5078125 0,9.9843755 6.984376,0 0,-9.9843755 -6.984376,0 z" opacity="0.6" fill="none" stroke="#000"/>
  <path transform="translate(0,21)" d="m 21.523438,4.5234375 0,7.9531245 4.953124,0 0,-7.9531245 -4.953124,0 z" id="path4250" opacity="0.4" fill="none" stroke="url(#linearGradient4252)"/>
  <path d="m 20,40 8,0 0,11 -8,0 z" id="path4254" fill="#ff8b36"/>
  <path d="m 20.507812,3.5078125 0,9.9843755 6.984376,0 0,-9.9843755 -6.984376,0 z" id="path4256" transform="translate(0,37)" opacity="0.6" fill="none" stroke="#000"/>
  <path id="path4258" d="m 21.523438,4.5234375 0,7.9531245 4.953124,0 0,-7.9531245 -4.953124,0 z" transform="translate(0,37)" opacity="0.4" fill="none" stroke="url(#linearGradient4260)"/>
  <path id="path4262" d="m 20,-6 8,0 0,11 -8,0 z" fill="#ff8b36"/>
  <path id="path4264" d="m 20.507812,3.5078125 0,9.9843755 6.984376,0 0,-9.9843755 -6.984376,0 z" transform="translate(0,-9)" opacity="0.6" fill="none" stroke="#000"/>
  <path d="m 21.523438,4.5234375 0,7.9531245 4.953124,0 0,-7.9531245 -4.953124,0 z" id="path4266" transform="translate(0,-9)" opacity="0.4" fill="none" stroke="url(#linearGradient4268)"/>
 </g>
</svg>
