<?xml version="1.0" encoding="UTF-8" standalone="no"?>
<svg xmlns:dc="http://purl.org/dc/elements/1.1/" xmlns:cc="http://creativecommons.org/ns#" xmlns:rdf="http://www.w3.org/1999/02/22-rdf-syntax-ns#" xmlns:svg="http://www.w3.org/2000/svg" xmlns="http://www.w3.org/2000/svg" version="1.1" id="svg2" viewBox="0 0 48 48">
 <defs id="defs4">
  <linearGradient x2="0" gradientUnits="userSpaceOnUse" y2="4.22" y1="42.22" id="0">
   <stop id="stop7" stop-color="#ddd"/>
   <stop id="stop9" stop-color="#fff" offset="1"/>
  </linearGradient>
  <linearGradient x2="45.501" gradientUnits="userSpaceOnUse" x1="43.06" y2="57.35" y1="5.158" id="1">
   <stop id="stop12" stop-color="#fff"/>
   <stop stop-opacity="0" id="stop14" stop-color="#fff" offset="1"/>
  </linearGradient>
 </defs>
 <path d="m 4 5.22 h 40 v 38 H 4 z" id="path16" opacity="0.1"/>
 <path d="m 4 4.22 h 40 v 38 H 4 z" id="path18" fill="url(#0)"/>
 <g id="g20" fill="none">
  <path d="m 4.4684,4.689 0,37.0625 39.0625,0 0,-37.0625 -39.0625,0 z" id="path22" opacity="0.4" stroke="#000"/>
  <path d="m 5.4372,5.6578 0,35.125 37.125,0 0,-35.125 -37.125,0 z" id="path24" stroke="url(#1)"/>
 </g>
 <path d="m 9,10 0,4 30,0 0,-4 -30,0 z" id="path3388" fill="#fff"/>
 <path d="m 15,18 0,4 24,0 0,-4 -24,0 z" id="path3386" fill="#fff"/>
 <path d="m 21,26 0,4 18,0 0,-4 -18,0 z" id="path3384" fill="#fff"/>
 <path d="m 21,34 0,4 18,0 0,-4 -18,0 z" id="path26" fill="#fff"/>
 <path d="M 39,9 9,9 9,13 39,13 Z" id="path30" fill="#171717" opacity="0.7"/>
 <path d="m 39,17 -24,0 0,4 24,0 z" id="path32" fill="#171717" opacity="0.7"/>
 <path d="m 39,25 -18,0 0,4 18,0 z" id="path34" fill="#171717" opacity="0.7"/>
 <path d="m 39,33 -18,0 0,4 18,0 z" id="path36" fill="#171717" opacity="0.7"/>
 <rect id="rect3390" height="4" y="16" opacity="0.7" x="10" width="1"/>
 <rect transform="matrix(0 1 -1 0 0 0)" id="rect3392" height="2" y="-13" opacity="0.7" x="19" width="1"/>
 <rect id="rect3394" height="11" y="25" opacity="0.7" x="16" width="1"/>
 <rect transform="matrix(0 1 -1 0 0 0)" id="rect3396" height="2" y="-19" opacity="0.7" x="28" width="1"/>
 <rect transform="matrix(0 1 -1 0 0 0)" id="rect3400" height="2" y="-19" opacity="0.7" x="35" width="1"/>
 <metadata id="metadata9999">
  <rdf:RDF>
   <cc:Work>
    <dc:format>image/svg+xml</dc:format>
    <dc:type rdf:resource="http://purl.org/dc/dcmitype/StillImage"/>
    <dc:title>Ivy icon theme</dc:title>
    <cc:license rdf:resource="http://creativecommons.org/licenses/by-sa/4.0/"/>
    <dc:creator>
     <cc:Agent>
      <dc:title>Sixsixfive (sixsixfive.deviantart.com)</dc:title>
     </cc:Agent>
    </dc:creator>
    <dc:publisher>
     <cc:Agent>
      <dc:title>Sixsixfive (sixsixfive.deviantart.com)</dc:title>
     </cc:Agent>
    </dc:publisher>
    <dc:source>https://github.com/sixsixfive</dc:source>
    <dc:subject>
     <rdf:Bag>
      <rdf:li>ivy</rdf:li>
     </rdf:Bag>
    </dc:subject>
    <dc:contributor>
     <cc:Agent>
      <dc:title>ssf</dc:title>
     </cc:Agent>
    </dc:contributor>
    <dc:rights>
     <cc:Agent>
      <dc:title>Sixsixfive (sixisixfive.deviantart.com)</dc:title>
     </cc:Agent>
    </dc:rights>
    <dc:description>A simple icon theme published under CC-BY-SA_V4(http://creativecommons.org/licenses/by-sa/4.0)</dc:description>
    <dc:identifier>SSF</dc:identifier>
   </cc:Work>
  </rdf:RDF>
 </metadata>
 <!--Part of the Ivy icon them published under the CC-BY-SA_V4: http://creativecommons.org/licenses/by-sa/4.0 -->
</svg>
