<?xml version="1.0" encoding="UTF-8" standalone="no"?>
<svg xmlns:dc="http://purl.org/dc/elements/1.1/" xmlns:cc="http://creativecommons.org/ns#" xmlns:rdf="http://www.w3.org/1999/02/22-rdf-syntax-ns#" xmlns:svg="http://www.w3.org/2000/svg" xmlns="http://www.w3.org/2000/svg" viewBox="0 0 48 48" id="svg2" version="1.1">
 <defs id="defs4">
  <linearGradient id="0" y1="7.846" x1="45.03" y2="60.04" x2="47.47" gradientUnits="userSpaceOnUse">
   <stop stop-color="#fff" id="stop7"/>
   <stop offset="1" stop-color="#fff" stop-opacity="0" id="stop9"/>
  </linearGradient>
  <linearGradient id="1" y1="44.908" y2="6.908" x2="0" gradientUnits="userSpaceOnUse">
   <stop stop-color="#ddd" id="stop12"/>
   <stop offset="1" stop-color="#fff" id="stop14"/>
  </linearGradient>
  <radialGradient cx="23.985" cy="44.881" r="23.23" id="2" gradientUnits="userSpaceOnUse" gradientTransform="matrix(0.94141 0 0 0.06457 3.389 42.1)">
   <stop stop-opacity="0.2" id="stop17"/>
   <stop offset="1" stop-opacity="0" id="stop19"/>
  </radialGradient>
 </defs>
 <g transform="translate(-1.969,-2.688)" id="g21">
  <path d="m 47.8396,45.0003 a 21.87095,1.500003 0 0 1 -43.7419,0 21.87095,1.500003 0 1 1 43.7419,0 z" id="path23" fill="url(#2)"/>
  <path d="m 5.969,6.908 40,0 0,38 -40,0 z" id="path25" fill="url(#1)"/>
  <g id="g27" fill="none">
   <path d="m 6.4374,7.377 0,37.0625 39.0625,0 0,-37.0625 -39.0625,0 z" id="path29" opacity="0.4" stroke="#000"/>
   <path d="m 7.4062,8.3458 0,35.125 37.125,0 0,-35.125 -37.125,0 z" id="path31" stroke="url(#0)"/>
  </g>
 </g>
 <g transform="translate(-1,1)" id="g33" fill="#fff">
  <path d="m 21,9 -10,25 6,0 6,-17 3,0 7,17 6,0 L 28,9 Z" id="path35"/>
  <path d="m 18,25 13,0 0,4 -13,0 z" id="path37"/>
 </g>
 <g id="g39" fill="#6a6a6a">
  <path d="m 20,9 -10,25 6,0 6,-17 3,0 7,17 6,0 L 27,9 Z" id="path41"/>
  <path d="m 17,25 13,0 0,4 -13,0 z" id="path43"/>
 </g>
 <path fill="#fff" d="M 8,37 H40 V39 H8 z" id="path45"/>
 <path fill="#6a6a6a" d="M 8,36 H40 V38 H8 z" id="path47"/>
 <metadata id="metadata9999">
  <rdf:RDF>
   <cc:Work>
    <dc:format>image/svg+xml</dc:format>
    <dc:type rdf:resource="http://purl.org/dc/dcmitype/StillImage"/>
    <dc:title>Ivy icon theme</dc:title>
    <cc:license rdf:resource="http://creativecommons.org/licenses/by-sa/4.0/"/>
    <dc:creator>
     <cc:Agent>
      <dc:title>Sixsixfive (sixsixfive.deviantart.com)</dc:title>
     </cc:Agent>
    </dc:creator>
    <dc:publisher>
     <cc:Agent>
      <dc:title>Sixsixfive (sixsixfive.deviantart.com)</dc:title>
     </cc:Agent>
    </dc:publisher>
    <dc:source>https://github.com/sixsixfive</dc:source>
    <dc:subject>
     <rdf:Bag>
      <rdf:li>ivy</rdf:li>
     </rdf:Bag>
    </dc:subject>
    <dc:contributor>
     <cc:Agent>
      <dc:title>ssf</dc:title>
     </cc:Agent>
    </dc:contributor>
    <dc:rights>
     <cc:Agent>
      <dc:title>Sixsixfive (sixisixfive.deviantart.com)</dc:title>
     </cc:Agent>
    </dc:rights>
    <dc:description>A simple icon theme published under CC-BY-SA_V4(http://creativecommons.org/licenses/by-sa/4.0)</dc:description>
    <dc:identifier>SSF</dc:identifier>
   </cc:Work>
  </rdf:RDF>
 </metadata>
 <!--Part of the Ivy icon them published under the CC-BY-SA_V4: http://creativecommons.org/licenses/by-sa/4.0 -->
</svg>
