<?xml version="1.0" encoding="UTF-8" standalone="no"?>
<svg xmlns:dc="http://purl.org/dc/elements/1.1/" xmlns:cc="http://creativecommons.org/ns#" xmlns:rdf="http://www.w3.org/1999/02/22-rdf-syntax-ns#" xmlns:svg="http://www.w3.org/2000/svg" xmlns="http://www.w3.org/2000/svg" viewBox="0 0 48 48" id="svg2" version="1.1">
 <defs id="defs4">
  <linearGradient id="0" y1="7" y2="42" x2="0" gradientUnits="userSpaceOnUse">
   <stop stop-color="#fff" id="stop7"/>
   <stop offset="1" stop-color="#fff" stop-opacity="0" id="stop9"/>
  </linearGradient>
  <linearGradient id="1" y1="3" x1="43.21" y2="45.913" x2="42.884" gradientUnits="userSpaceOnUse">
   <stop stop-color="#66b03e" id="stop12"/>
   <stop offset="1" stop-color="#95ce76" id="stop14"/>
  </linearGradient>
  <radialGradient cx="32" cy="46.5" r="7" id="2" gradientUnits="userSpaceOnUse" gradientTransform="matrix(1 0 0 0.21429 0 36.536)">
   <stop id="stop17"/>
   <stop offset="1" stop-opacity="0" id="stop19"/>
  </radialGradient>
 </defs>
 <path opacity="0.08" fill="url(#2)" d="m 39 46.5 a 7 1.5 0 1 1 -14 0 7 1.5 0 1 1 14 0 z" transform="matrix(0.71429 0 0 0.66667 2.143 14)" id="path21"/>
 <path fill="url(#1)" d="m 25.076 4 v 11.8416 h 17.962 v 17.3168 h -17.962 V 45 L 5 24.4682 z" id="path23"/>
 <g id="g25" fill="none">
  <path d="m 24.5938,5.1562 -18.9375,19.3125 18.9375,19.375 0,-10.6875 a 0.465109,0.465109 0 0 1 0.46875,-0.46875 l 17.5,0 0,-16.375 -17.5,0 A 0.465109,0.465109 0 0 1 24.5938,15.8437 l 0,-10.6875 z" id="path27" opacity="0.4" stroke="#000"/>
  <path d="M 23.5938,7.625 7.0626,24.4688 23.5938,41.375 l 0,-8.21875 a 1.46953,1.46953 0 0 1 1.46875,-1.46875 l 16.5,0 0,-14.375 -16.5,0 A 1.46953,1.46953 0 0 1 23.5938,15.84375 l 0,-8.21875 z" id="path29" opacity="0.6" stroke="url(#0)"/>
 </g>
 <metadata id="metadata9999">
  <rdf:RDF>
   <cc:Work>
    <dc:format>image/svg+xml</dc:format>
    <dc:type rdf:resource="http://purl.org/dc/dcmitype/StillImage"/>
    <dc:title>Ivy icon theme</dc:title>
    <cc:license rdf:resource="http://creativecommons.org/licenses/by-sa/4.0/"/>
    <dc:creator>
     <cc:Agent>
      <dc:title>Sixsixfive (sixsixfive.deviantart.com)</dc:title>
     </cc:Agent>
    </dc:creator>
    <dc:publisher>
     <cc:Agent>
      <dc:title>Sixsixfive (sixsixfive.deviantart.com)</dc:title>
     </cc:Agent>
    </dc:publisher>
    <dc:source>https://github.com/sixsixfive</dc:source>
    <dc:subject>
     <rdf:Bag>
      <rdf:li>ivy</rdf:li>
     </rdf:Bag>
    </dc:subject>
    <dc:contributor>
     <cc:Agent>
      <dc:title>ssf</dc:title>
     </cc:Agent>
    </dc:contributor>
    <dc:rights>
     <cc:Agent>
      <dc:title>Sixsixfive (sixisixfive.deviantart.com)</dc:title>
     </cc:Agent>
    </dc:rights>
    <dc:description>A simple icon theme published under CC-BY-SA_V4(http://creativecommons.org/licenses/by-sa/4.0)</dc:description>
    <dc:identifier>SSF</dc:identifier>
   </cc:Work>
  </rdf:RDF>
 </metadata>
 <!--Part of the Ivy icon them published under the CC-BY-SA_V4: http://creativecommons.org/licenses/by-sa/4.0 -->
</svg>
