<?xml version="1.0" encoding="UTF-8" standalone="no"?><svg xmlns:cc="http://creativecommons.org/ns#" xmlns:rdf="http://www.w3.org/1999/02/22-rdf-syntax-ns#" xmlns:svg="http://www.w3.org/2000/svg" id="svg2" viewBox="0 0 48 48" version="1.1" xmlns="http://www.w3.org/2000/svg" xmlns:dc="http://purl.org/dc/elements/1.1/"><defs id="defs4"><linearGradient id="0" x2="47.47" y2="60.04" x1="45.03" y1="7.846" gradientUnits="userSpaceOnUse"><stop id="stop7" stop-color="#fff"/><stop offset="1" id="stop9" stop-color="#fff" stop-opacity="0"/></linearGradient><linearGradient id="1" x2="0" y2="6.908" y1="44.908" gradientUnits="userSpaceOnUse"><stop id="stop12" stop-color="#ddd"/><stop offset="1" id="stop14" stop-color="#fff"/></linearGradient><radialGradient r="23.23" cx="23.985" id="2" cy="44.881" gradientTransform="matrix(0.94141 0 0 0.06457 3.389 42.1)" gradientUnits="userSpaceOnUse"><stop id="stop17" stop-opacity="0.2"/><stop offset="1" id="stop19" stop-opacity="0"/></radialGradient></defs><g id="g21" transform="matrix(1 0 0 1 -1.969 -2.688)"><path id="path23" d="m 47.8396,45.0003 a 21.87095,1.500003 0 0 1 -43.7419,0 21.87095,1.500003 0 1 1 43.7419,0 z" fill="url(#2)"/><path id="path25" d="m 5.969,6.908 40,0 0,38 -40,0 z" fill="url(#1)"/><g id="g27" fill="none"><path id="path29" opacity="0.4" d="m 6.4374,7.377 0,37.0625 39.0625,0 0,-37.0625 -39.0625,0 z" stroke="#000"/><path id="path31" d="m 7.4062,8.3458 0,35.125 37.125,0 0,-35.125 -37.125,0 z" stroke="url(#0)"/></g></g><g id="g33" fill="#fff"><path id="path35" d="m 9,10 0,4 30,0 0,-4 -30,0 z"/><path id="path37" d="m 9,18 0,4 14.05725,0 0,-4 L 9,18 Z"/><path id="path39" d="m 9,26 0,4 14.05725,0 0,-4 L 9,26 Z"/><path id="path41" d="m 9,34 0,4 24.993822,0 0,-4 L 9,34 Z"/></g><g id="g43" transform="matrix(-1 0 0 1 0 0)" fill="#171717"><path id="path45" opacity="0.7" d="m -39,9 30,0 0,4 -30,0 z"/><path id="path47" opacity="0.7" d="m -23.06,17 14.06,0 0,4 -14.06,0 z"/><path id="path49" opacity="0.7" d="m -23.06,25 14.06,0 0,4 -14.06,0 z"/><path id="path51" opacity="0.7" d="M -33.994,33 -9,33 l 0,4 -24.994,0 z"/></g><path id="path53" d="m 26,24.0783 12.9329,-6.077 0,12 L 26,24.0783" fill="#fff"/><path id="path55" d="m 26,23 12.932866,-6.077018 0,12 L 26,23" fill="#6a6a6a"/><metadata id="metadata9999"><rdf:RDF><cc:Work><dc:format>image/svg+xml</dc:format><dc:type rdf:resource="http://purl.org/dc/dcmitype/StillImage"/><dc:title>Ivy icon theme</dc:title><cc:license rdf:resource="http://creativecommons.org/licenses/by-sa/4.0/"/><dc:creator><cc:Agent><dc:title>Sixsixfive (sixsixfive.deviantart.com)</dc:title></cc:Agent></dc:creator><dc:publisher><cc:Agent><dc:title>Sixsixfive (sixsixfive.deviantart.com)</dc:title></cc:Agent></dc:publisher><dc:source>https://github.com/sixsixfive</dc:source><dc:subject><rdf:Bag><rdf:li>ivy</rdf:li></rdf:Bag></dc:subject><dc:contributor><cc:Agent><dc:title>ssf</dc:title></cc:Agent></dc:contributor><dc:rights><cc:Agent><dc:title>Sixsixfive (sixisixfive.deviantart.com)</dc:title></cc:Agent></dc:rights><dc:description>A simple icon theme published under CC-BY-SA_V4(http://creativecommons.org/licenses/by-sa/4.0)</dc:description><dc:identifier>SSF</dc:identifier></cc:Work></rdf:RDF></metadata><!--Part of the Ivy icon them published under the CC-BY-SA_V4: http://creativecommons.org/licenses/by-sa/4.0 -->
</svg>