<?xml version="1.0" encoding="UTF-8" standalone="no"?><svg xmlns:rdf="http://www.w3.org/1999/02/22-rdf-syntax-ns#" xmlns:cc="http://creativecommons.org/ns#" xmlns:svg="http://www.w3.org/2000/svg" id="svg2" viewBox="0 0 48 48" version="1.1" xmlns:dc="http://purl.org/dc/elements/1.1/" xmlns="http://www.w3.org/2000/svg"><defs id="defs4"><linearGradient id="0" x2="36.04" y2="43" x1="36" y1="19" gradientUnits="userSpaceOnUse"><stop id="stop7" stop-color="#ff8b36"/><stop offset="1" id="stop9" stop-color="#ffb37b"/></linearGradient><linearGradient id="1" x2="0" y2="43" y1="19" gradientUnits="userSpaceOnUse"><stop id="stop12"/><stop offset="1" id="stop14"/></linearGradient><linearGradient id="2" x2="39.906" y2="42.969" x1="40" y1="3" gradientUnits="userSpaceOnUse"><stop id="stop17" stop-color="#fff"/><stop offset="1" id="stop19" stop-color="#fff" stop-opacity="0"/></linearGradient><linearGradient id="3" x2="0" y2="44" y1="3" gradientUnits="userSpaceOnUse"><stop id="stop22" stop-color="#dedede"/><stop offset="1" id="stop24" stop-color="#f4f4f4"/></linearGradient></defs><rect rx="1.209" ry="1.209" height="42" id="rect26" opacity="0.1" width="34.951" x="6" y="3"/><rect rx="1.209" ry="1.209" height="42" id="rect28" width="34.951" x="5.986" y="2" fill="url(#3)"/><path id="path30" opacity="0.78" d="m 7.5312 3.5312 v 38.9375 h 31.875 v -38.9375 H 7.5312 z" stroke="url(#2)" fill="none"/><path id="path32" d="M 11.9626 32 H 19 v 11 h 10.0841 v -11 h 6.9533 L 24 19 z" fill="url(#0)"/><g id="g34" fill="none"><path id="path36" opacity="0.4" d="M 24,19.9375 13.4062,31.375 19,31.375 A 0.634167,0.634167 0 0 1 19.625,32 l 0,10.375 8.84375,0 0,-10.375 a 0.634167,0.634167 0 0 1 0.625,-0.625 l 5.5,0 -10.5938,-11.4375 z" stroke="url(#1)"/><path id="path38" opacity="0.693" d="m 23.9375,18.5938 a 0.404937,0.404937 0 0 0 -0.25,0.125 l -12.0312,13 a 0.404937,0.404937 0 0 0 0.3125,0.6875 l 6.625,0 0,10.5938 a 0.404937,0.404937 0 0 0 0.40625,0.40625 l 10.0938,0 A 0.404937,0.404937 0 0 0 29.5001,43.0001 l 0,-10.5938 6.53125,0 a 0.404937,0.404937 0 0 0 0.3125,-0.6875 l -12.0312,-13 a 0.404937,0.404937 0 0 0 -0.375,-0.125 z" stroke="#fff"/><path id="path40" opacity="0.4" d="M 7.1875,2.5 C 6.783721,2.5 6.5,2.799839 6.5,3.21875 l 0,39.5625 C 6.5,43.20016 6.783721,43.5 7.1875,43.5 l 32.53125,0 c 0.40378,0 0.71875,-0.31497 0.71875,-0.71875 l 0,-39.5625 C 40.4375,2.814971 40.12253,2.5 39.71875,2.5 L 7.1875,2.5 Z" stroke="#000"/></g><metadata id="metadata9999"><rdf:RDF><cc:Work><dc:format>image/svg+xml</dc:format><dc:type rdf:resource="http://purl.org/dc/dcmitype/StillImage"/><dc:title>Ivy icon theme</dc:title><cc:license rdf:resource="http://creativecommons.org/licenses/by-sa/4.0/"/><dc:creator><cc:Agent><dc:title>Sixsixfive (sixsixfive.deviantart.com)</dc:title></cc:Agent></dc:creator><dc:publisher><cc:Agent><dc:title>Sixsixfive (sixsixfive.deviantart.com)</dc:title></cc:Agent></dc:publisher><dc:source>https://github.com/sixsixfive</dc:source><dc:subject><rdf:Bag><rdf:li>ivy</rdf:li></rdf:Bag></dc:subject><dc:contributor><cc:Agent><dc:title>ssf</dc:title></cc:Agent></dc:contributor><dc:rights><cc:Agent><dc:title>Sixsixfive (sixisixfive.deviantart.com)</dc:title></cc:Agent></dc:rights><dc:description>A simple icon theme published under CC-BY-SA_V4(http://creativecommons.org/licenses/by-sa/4.0)</dc:description><dc:identifier>SSF</dc:identifier></cc:Work></rdf:RDF></metadata><!--Part of the Ivy icon them published under the CC-BY-SA_V4: http://creativecommons.org/licenses/by-sa/4.0 -->
</svg>