<?xml version="1.0" encoding="UTF-8" standalone="no"?><svg xmlns:rdf="http://www.w3.org/1999/02/22-rdf-syntax-ns#" xmlns:cc="http://creativecommons.org/ns#" xmlns:svg="http://www.w3.org/2000/svg" id="svg2" viewBox="0 0 48 48" version="1.1" xmlns:dc="http://purl.org/dc/elements/1.1/" xmlns="http://www.w3.org/2000/svg"><defs id="defs4"><linearGradient id="0" x2="0" y2="42" y1="7" gradientUnits="userSpaceOnUse"><stop id="stop7" stop-color="#fff"/><stop offset="1" id="stop9" stop-color="#fff" stop-opacity="0"/></linearGradient><linearGradient id="1" x2="0" y2="45" y1="4" gradientUnits="userSpaceOnUse"><stop id="stop12" stop-color="#66b03e"/><stop offset="1" id="stop14" stop-color="#95ce76"/></linearGradient><radialGradient r="7" cx="32" id="2" cy="46.5" gradientTransform="matrix(1 0 0 0.21429 0 36.536)" gradientUnits="userSpaceOnUse"><stop id="stop17"/><stop offset="1" id="stop19" stop-opacity="0"/></radialGradient></defs><path id="path21" opacity="0.08" d="m 39 46.5 a 7 1.5 0 1 1 -14 0 7 1.5 0 1 1 14 0 z" transform="matrix(-0.71429 0 0 0.66667 45.92 14)" fill="url(#2)"/><path id="path23" d="m 22.9865,4 0,11.8416 -17.962,0 0,17.3168 17.962,0 0,11.8416 20.076,-20.5318 z" fill="url(#1)"/><g id="g25" transform="matrix(-1 0 0 1 48.06 0)" fill="none"><path id="path27" opacity="0.4" d="m 24.5938,5.1562 -18.9375,19.3125 18.9375,19.375 0,-10.6875 a 0.465109,0.465109 0 0 1 0.46875,-0.46875 l 17.5,0 0,-16.375 -17.5,0 A 0.465109,0.465109 0 0 1 24.5938,15.8437 l 0,-10.6875 z" stroke="#000"/><path id="path29" opacity="0.6" d="M 23.5938,7.625 7.0626,24.4688 23.5938,41.375 l 0,-8.21875 a 1.46953,1.46953 0 0 1 1.46875,-1.46875 l 16.5,0 0,-14.375 -16.5,0 A 1.46953,1.46953 0 0 1 23.5938,15.84375 l 0,-8.21875 z" stroke="url(#0)"/></g><metadata id="metadata9999"><rdf:RDF><cc:Work><dc:format>image/svg+xml</dc:format><dc:type rdf:resource="http://purl.org/dc/dcmitype/StillImage"/><dc:title>Ivy icon theme</dc:title><cc:license rdf:resource="http://creativecommons.org/licenses/by-sa/4.0/"/><dc:creator><cc:Agent><dc:title>Sixsixfive (sixsixfive.deviantart.com)</dc:title></cc:Agent></dc:creator><dc:publisher><cc:Agent><dc:title>Sixsixfive (sixsixfive.deviantart.com)</dc:title></cc:Agent></dc:publisher><dc:source>https://github.com/sixsixfive</dc:source><dc:subject><rdf:Bag><rdf:li>ivy</rdf:li></rdf:Bag></dc:subject><dc:contributor><cc:Agent><dc:title>ssf</dc:title></cc:Agent></dc:contributor><dc:rights><cc:Agent><dc:title>Sixsixfive (sixisixfive.deviantart.com)</dc:title></cc:Agent></dc:rights><dc:description>A simple icon theme published under CC-BY-SA_V4(http://creativecommons.org/licenses/by-sa/4.0)</dc:description><dc:identifier>SSF</dc:identifier></cc:Work></rdf:RDF></metadata><!--Part of the Ivy icon them published under the CC-BY-SA_V4: http://creativecommons.org/licenses/by-sa/4.0 -->
</svg>