<?xml version="1.0" encoding="UTF-8" standalone="no"?>
<svg xmlns:dc="http://purl.org/dc/elements/1.1/" xmlns:cc="http://creativecommons.org/ns#" xmlns:rdf="http://www.w3.org/1999/02/22-rdf-syntax-ns#" xmlns:svg="http://www.w3.org/2000/svg" xmlns="http://www.w3.org/2000/svg" version="1.1" id="svg2" viewBox="0 0 48 48">
 <defs id="defs4">
  <linearGradient gradientUnits="userSpaceOnUse" x2="0" y2="42.08" y1="5.957" id="0">
   <stop id="stop7" stop-color="#fff"/>
   <stop id="stop9" stop-opacity="0" stop-color="#fff" offset="1"/>
  </linearGradient>
  <linearGradient gradientUnits="userSpaceOnUse" x2="43.912" y2="-0.997" x1="44" y1="43.02" id="1">
   <stop id="stop12" stop-color="#ddd"/>
   <stop id="stop14" stop-color="#fff" offset="1"/>
  </linearGradient>
  <radialGradient gradientTransform="matrix(0.94141 0 0 0.06457 1.42 40.21)" gradientUnits="userSpaceOnUse" id="2" r="23.23" cy="44.881" cx="23.985">
   <stop id="stop17" stop-opacity="0.2"/>
   <stop id="stop19" stop-opacity="0" offset="1"/>
  </radialGradient>
 </defs>
 <path id="path21" d="m 45.8709 43.1113 a 21.87095 1.500003 0 0 1 -43.7419 0 21.87095 1.500003 0 1 1 43.7419 0 z" fill="url(#2)"/>
 <path id="path23" d="M 4,5.02 H44 V43.02 H4 z" fill="url(#1)"/>
 <path id="path25" d="M 4,5.02 H44 V15.139 H4 z" fill="#5288d1"/>
 <g id="g27" fill="none">
  <g id="g29" stroke="#000">
   <path id="path31" d="m 4.4688,5.4881 0,37.0625 39.0625,0 0,-37.0625 -39.0625,0 z" opacity="0.4"/>
   <path id="path33" d="m 4.9369,14.6279 38.1261,4e-4" opacity="0.4"/>
  </g>
  <path id="path35" d="m 5.4375,6.4568 0,35.125 37.125,0 0,-35.125 -37.125,0 z" opacity="0.4" stroke="url(#0)"/>
 </g>
 <g id="g37" fill="#fff" fill-rule="evenodd" color="#000">
  <path id="path39" d="m 7.03,9.111 1,0 0,1 -1,0 z"/>
  <path id="path41" d="m 8.03,10.111 1,0 0,1 -1,0 z"/>
  <path id="path43" d="m 9.03,11.11 1,0 0,1 -1,0 z"/>
  <path id="path45" d="m 7.03,11.11 1,0 0,1 -1,0 z"/>
  <path id="path47" d="m 9.03,9.111 1,0 0,1 -1,0 z"/>
  <path id="path49" d="m 12.03,9.111 1,0 0,3 -1,0 z"/>
  <path id="path51" transform="matrix(0,1,-1,0,0,0)" d="m 11.11,-15.03 1,0 0,3 -1,0 z"/>
  <path id="path53" transform="scale(-1,-1)" d="m -15.03,-12.11 1,0 0,3 -1,0 z"/>
  <g id="g55" transform="matrix(0,-1,1,0,0,0)">
   <path id="path57" d="m -10.111,12.03 1,0 0,3 -1,0 z"/>
   <path id="path59" d="m -12.11,17.03 1,0 0,3 -1,0 z"/>
  </g>
 </g>
 <path id="path61" d="m 4.9369,15.6276 38.1261,4e-4" stroke="#fff" fill="none"/>
 <metadata id="metadata9999">
  <rdf:RDF>
   <cc:Work>
    <dc:format>image/svg+xml</dc:format>
    <dc:type rdf:resource="http://purl.org/dc/dcmitype/StillImage"/>
    <dc:title>Ivy icon theme</dc:title>
    <cc:license rdf:resource="http://creativecommons.org/licenses/by-sa/4.0/"/>
    <dc:creator>
     <cc:Agent>
      <dc:title>Sixsixfive (sixsixfive.deviantart.com)</dc:title>
     </cc:Agent>
    </dc:creator>
    <dc:publisher>
     <cc:Agent>
      <dc:title>Sixsixfive (sixsixfive.deviantart.com)</dc:title>
     </cc:Agent>
    </dc:publisher>
    <dc:source>https://github.com/sixsixfive</dc:source>
    <dc:subject>
     <rdf:Bag>
      <rdf:li>ivy</rdf:li>
     </rdf:Bag>
    </dc:subject>
    <dc:contributor>
     <cc:Agent>
      <dc:title>ssf</dc:title>
     </cc:Agent>
    </dc:contributor>
    <dc:rights>
     <cc:Agent>
      <dc:title>Sixsixfive (sixisixfive.deviantart.com)</dc:title>
     </cc:Agent>
    </dc:rights>
    <dc:description>A simple icon theme published under CC-BY-SA_V4(http://creativecommons.org/licenses/by-sa/4.0)</dc:description>
    <dc:identifier>SSF</dc:identifier>
   </cc:Work>
  </rdf:RDF>
 </metadata>
 <!--Part of the Ivy icon them published under the CC-BY-SA_V4: http://creativecommons.org/licenses/by-sa/4.0 -->
</svg>
