<?xml version="1.0" encoding="UTF-8" standalone="no"?><svg viewBox="0 0 48 48" xmlns:svg="http://www.w3.org/2000/svg" xmlns="http://www.w3.org/2000/svg" xmlns:rdf="http://www.w3.org/1999/02/22-rdf-syntax-ns#" version="1.1" id="svg2" xmlns:dc="http://purl.org/dc/elements/1.1/" xmlns:cc="http://creativecommons.org/ns#"><defs id="defs4"><linearGradient y1="7" x2="0" y2="42" id="0" gradientUnits="userSpaceOnUse"><stop id="stop7" stop-color="#fff"/><stop stop-opacity="0" offset="1" id="stop9" stop-color="#fff"/></linearGradient><linearGradient x1="43.21" y1="3" x2="42.884" y2="45.913" id="1" gradientUnits="userSpaceOnUse"><stop id="stop12" stop-color="#66b03e"/><stop offset="1" id="stop14" stop-color="#95ce76"/></linearGradient><radialGradient gradientTransform="matrix(1 0 0 0.21429 0 36.536)" cy="46.5" id="2" r="7" cx="32" gradientUnits="userSpaceOnUse"><stop id="stop17"/><stop stop-opacity="0" offset="1" id="stop19"/></radialGradient></defs><path opacity="0.08" transform="matrix(0.71429 0 0 0.66667 2.143 14)" id="path21" d="m 39 46.5 a 7 1.5 0 1 1 -14 0 7 1.5 0 1 1 14 0 z" fill="url(#2)"/><path id="path23" d="m 25.076 4 v 11.8416 h 17.962 v 17.3168 h -17.962 V 45 L 5 24.4682 z" fill="url(#1)"/><g id="g25" fill="none"><path stroke="#000" opacity="0.4" id="path27" d="m 24.5938,5.1562 -18.9375,19.3125 18.9375,19.375 0,-10.6875 a 0.465109,0.465109 0 0 1 0.46875,-0.46875 l 17.5,0 0,-16.375 -17.5,0 A 0.465109,0.465109 0 0 1 24.5938,15.8437 l 0,-10.6875 z"/><path stroke="url(#0)" opacity="0.6" id="path29" d="M 23.5938,7.625 7.0626,24.4688 23.5938,41.375 l 0,-8.21875 a 1.46953,1.46953 0 0 1 1.46875,-1.46875 l 16.5,0 0,-14.375 -16.5,0 A 1.46953,1.46953 0 0 1 23.5938,15.84375 l 0,-8.21875 z"/></g><metadata id="metadata9999"><rdf:RDF><cc:Work><dc:format>image/svg+xml</dc:format><dc:type rdf:resource="http://purl.org/dc/dcmitype/StillImage"/><dc:title>Ivy icon theme</dc:title><cc:license rdf:resource="http://creativecommons.org/licenses/by-sa/4.0/"/><dc:creator><cc:Agent><dc:title>Sixsixfive (sixsixfive.deviantart.com)</dc:title></cc:Agent></dc:creator><dc:publisher><cc:Agent><dc:title>Sixsixfive (sixsixfive.deviantart.com)</dc:title></cc:Agent></dc:publisher><dc:source>https://github.com/sixsixfive</dc:source><dc:subject><rdf:Bag><rdf:li>ivy</rdf:li></rdf:Bag></dc:subject><dc:contributor><cc:Agent><dc:title>ssf</dc:title></cc:Agent></dc:contributor><dc:rights><cc:Agent><dc:title>Sixsixfive (sixisixfive.deviantart.com)</dc:title></cc:Agent></dc:rights><dc:description>A simple icon theme published under CC-BY-SA_V4(http://creativecommons.org/licenses/by-sa/4.0)</dc:description><dc:identifier>SSF</dc:identifier></cc:Work></rdf:RDF></metadata><!--Part of the Ivy icon them published under the CC-BY-SA_V4: http://creativecommons.org/licenses/by-sa/4.0 -->
</svg>