<?xml version="1.0" encoding="UTF-8" standalone="no"?>
<svg xmlns:dc="http://purl.org/dc/elements/1.1/" xmlns:cc="http://creativecommons.org/ns#" xmlns:rdf="http://www.w3.org/1999/02/22-rdf-syntax-ns#" xmlns:svg="http://www.w3.org/2000/svg" xmlns="http://www.w3.org/2000/svg" xmlns:xlink="http://www.w3.org/1999/xlink" version="1.1" id="svg2" viewBox="0 0 48 48">
 <defs id="defs4">
  <linearGradient id="0">
   <stop id="stop7" stop-color="#fff"/>
   <stop id="stop9" stop-opacity="0" stop-color="#fff" offset="1"/>
  </linearGradient>
  <linearGradient id="1">
   <stop id="stop12" stop-color="#66b03e"/>
   <stop id="stop14" stop-color="#7bc454" offset="1"/>
  </linearGradient>
  <linearGradient gradientUnits="userSpaceOnUse" x2="0" y2="13" y1="5" xlink:href="#0" id="2"/>
  <linearGradient gradientUnits="userSpaceOnUse" x2="0" y2="43" y1="35" xlink:href="#0" id="3"/>
  <linearGradient gradientUnits="userSpaceOnUse" x2="0" y2="28" y1="20" xlink:href="#0" id="4"/>
  <radialGradient gradientTransform="matrix(1.01219 -0.36807 0.8 2.2 0.278 9.281)" gradientUnits="userSpaceOnUse" xlink:href="#1" id="5" r="5" cy="17.401" cx="9.683"/>
  <radialGradient gradientTransform="matrix(1.01219 -0.36807 0.8 2.2 0.278 -5.719)" gradientUnits="userSpaceOnUse" xlink:href="#1" id="6" r="5" cy="17.401" cx="9.683"/>
  <radialGradient gradientTransform="matrix(0.35271 0 0 0.11459 19.575 38.916)" gradientUnits="userSpaceOnUse" id="7" r="8.655" cy="45.25" cx="12.547">
   <stop id="stop22" stop-opacity="0.2"/>
   <stop id="stop24" stop-opacity="0" offset="1"/>
  </radialGradient>
  <radialGradient gradientTransform="matrix(1.01219 -0.36807 0.8 2.2 0.278 -20.719)" gradientUnits="userSpaceOnUse" xlink:href="#1" id="8" r="5" cy="17.401" cx="9.683"/>
 </defs>
 <path id="path27" d="m 27.05285 44.1016 a 3.05285 0.99187 0 0 1 -6.10569 0 3.05285 0.99187 0 1 1 6.10569 0 z" fill="url(#7)"/>
 <path id="path29" d="m 29 24 a 5 5 0 0 1 -10 0 5 5 0 1 1 10 0 z" fill="url(#6)"/>
 <g id="g31" fill="none">
  <path id="path33" d="m 24,19.5312 c -2.47675,0 -4.46875,1.992 -4.46875,4.46875 0,2.47675 1.992,4.46875 4.46875,4.46875 2.47675,0 4.46875,-1.992 4.46875,-4.46875 0,-2.47675 -1.992,-4.46875 -4.46875,-4.46875 z" opacity="0.4" stroke="#000"/>
  <path id="path35" d="m 24,20.5312 c -1.94005,0 -3.46875,1.5287 -3.46875,3.46875 0,1.94005 1.5287,3.46875 3.46875,3.46875 1.94005,0 3.46875,-1.5287 3.46875,-3.46875 0,-1.94005 -1.5287,-3.46875 -3.46875,-3.46875 z" opacity="0.4" stroke="url(#4)"/>
 </g>
 <path id="path37" d="M 29 9 A 5 5 0 0 1 19 9 5 5 0 1 1 29 9 z" fill="url(#8)"/>
 <g id="g39" fill="none">
  <path id="path41" d="m 24,4.5312 c -2.47675,0 -4.46875,1.992 -4.46875,4.46875 0,2.47675 1.992,4.46875 4.46875,4.46875 2.47675,0 4.46875,-1.992 4.46875,-4.46875 C 28.46875,6.5232 26.47675,4.5312 24,4.5312 Z" opacity="0.4" stroke="#000"/>
  <path id="path43" d="m 24,5.5312 c -1.94005,0 -3.46875,1.5287 -3.46875,3.46875 0,1.94005 1.5287,3.46875 3.46875,3.46875 1.94005,0 3.46875,-1.5287 3.46875,-3.46875 C 27.46875,7.0599 25.94005,5.5312 24,5.5312 Z" opacity="0.4" stroke="url(#2)"/>
 </g>
 <path id="path45" d="m 29 39 a 5 5 0 0 1 -10 0 5 5 0 1 1 10 0 z" fill="url(#5)"/>
 <g id="g47" fill="none">
  <path id="path49" d="m 24,34.5312 c -2.47675,0 -4.46875,1.992 -4.46875,4.46875 0,2.47675 1.992,4.46875 4.46875,4.46875 2.47675,0 4.46875,-1.992 4.46875,-4.46875 0,-2.47675 -1.992,-4.46875 -4.46875,-4.46875 z" opacity="0.4" stroke="#000"/>
  <path id="path51" d="m 24,35.5312 c -1.94005,0 -3.46875,1.5287 -3.46875,3.46875 0,1.94005 1.5287,3.46875 3.46875,3.46875 1.94005,0 3.46875,-1.5287 3.46875,-3.46875 0,-1.94005 -1.5287,-3.46875 -3.46875,-3.46875 z" opacity="0.4" stroke="url(#3)"/>
 </g>
 <metadata id="metadata9999">
  <rdf:RDF>
   <cc:Work>
    <dc:format>image/svg+xml</dc:format>
    <dc:type rdf:resource="http://purl.org/dc/dcmitype/StillImage"/>
    <dc:title>Ivy icon theme</dc:title>
    <cc:license rdf:resource="http://creativecommons.org/licenses/by-sa/4.0/"/>
    <dc:creator>
     <cc:Agent>
      <dc:title>Sixsixfive (sixsixfive.deviantart.com)</dc:title>
     </cc:Agent>
    </dc:creator>
    <dc:publisher>
     <cc:Agent>
      <dc:title>Sixsixfive (sixsixfive.deviantart.com)</dc:title>
     </cc:Agent>
    </dc:publisher>
    <dc:source>https://github.com/sixsixfive</dc:source>
    <dc:subject>
     <rdf:Bag>
      <rdf:li>ivy</rdf:li>
     </rdf:Bag>
    </dc:subject>
    <dc:contributor>
     <cc:Agent>
      <dc:title>ssf</dc:title>
     </cc:Agent>
    </dc:contributor>
    <dc:rights>
     <cc:Agent>
      <dc:title>Sixsixfive (sixisixfive.deviantart.com)</dc:title>
     </cc:Agent>
    </dc:rights>
    <dc:description>A simple icon theme published under CC-BY-SA_V4(http://creativecommons.org/licenses/by-sa/4.0)</dc:description>
    <dc:identifier>SSF</dc:identifier>
   </cc:Work>
  </rdf:RDF>
 </metadata>
 <!--Part of the Ivy icon them published under the CC-BY-SA_V4: http://creativecommons.org/licenses/by-sa/4.0 -->
</svg>
