<?xml version="1.0" encoding="UTF-8" standalone="no"?><svg xmlns:xlink="http://www.w3.org/1999/xlink" xmlns:cc="http://creativecommons.org/ns#" viewBox="0 0 48 48" version="1.1" id="svg2" xmlns:svg="http://www.w3.org/2000/svg" xmlns:rdf="http://www.w3.org/1999/02/22-rdf-syntax-ns#" xmlns="http://www.w3.org/2000/svg" xmlns:dc="http://purl.org/dc/elements/1.1/"><defs id="defs4"><linearGradient id="linearGradient4213"><stop stop-opacity="1" stop-color="#5288d1" id="stop4215"/><stop offset="1" stop-opacity="1" stop-color="#93b5e2" id="stop4217"/></linearGradient><linearGradient id="linearGradient4203"><stop stop-opacity="1" stop-color="#fff" id="stop4205"/><stop offset="1" stop-opacity="0" stop-color="#fff" id="stop4207"/></linearGradient><linearGradient x2="5.0014739" gradientUnits="userSpaceOnUse" x1="44.001472" xlink:href="#linearGradient4203" y2="11" id="linearGradient4209" y1="10"/><linearGradient x2="3.0014739" gradientUnits="userSpaceOnUse" x1="45.001472" xlink:href="#linearGradient4213" y2="11" id="linearGradient4219" y1="11" gradientTransform="matrix(1 0 0 -1 0 48.001474)"/><linearGradient x2="3.0014739" gradientUnits="userSpaceOnUse" x1="45.001472" xlink:href="#linearGradient4213" y2="11" id="linearGradient3367" y1="11" gradientTransform="matrix(1 0 0 -1 0 48.001474)"/><linearGradient x2="5.0014739" gradientUnits="userSpaceOnUse" x1="44.001472" xlink:href="#linearGradient4203" y2="11" id="linearGradient3369" y1="10"/></defs><g id="g3346" transform="matrix(-1 0 0 1 54.005859 0)"><path opacity="0.15" fill="#000" id="path4211" d="M 36,46 36,4 12,25 Z"/><g id="g4259" transform="matrix(0 -1 1 0 -0.001474 48.001474)"><path fill-opacity="1" fill="url(#linearGradient4219)" id="path23" d="m 3,36.001474 42,0 -21,-24 z"/><path opacity="0.4" fill="none" xlink:href="#path4197" id="path4201" stroke="url(#linearGradient4209)" transform="matrix(1 0 0 -1 0 48.001474)" d="M 6.3066406,13.5 24,33.720703 41.693359,13.5 6.3066406,13.5 Z"/><path opacity="0.4" fill="none" xlink:href="#path4197" id="path4199" stroke="#000" transform="matrix(1 0 0 -1 0 48.001474)" d="M 4.0898438,12.494141 24,35.248047 43.910156,12.494141 l -39.8203122,0 z"/></g></g><g id="g3355" transform="matrix(-1 0 0 1 42.005859 0)"><path opacity="0.15" fill="#000" id="path3357" d="M 36,46 36,4 12,25 Z"/><g id="g3359" transform="matrix(0 -1 1 0 -0.001474 48.001474)"><path fill-opacity="1" fill="url(#linearGradient3367)" id="path3361" d="m 3,36.001474 42,0 -21,-24 z"/><path opacity="0.4" fill="none" xlink:href="#path4197" id="path3363" stroke="url(#linearGradient3369)" transform="matrix(1 0 0 -1 0 48.001474)" d="M 6.3066406,13.5 24,33.720703 41.693359,13.5 6.3066406,13.5 Z"/><path opacity="0.4" fill="none" xlink:href="#path4197" id="path3365" stroke="#000" transform="matrix(1 0 0 -1 0 48.001474)" d="M 4.0898438,12.494141 24,35.248047 43.910156,12.494141 l -39.8203122,0 z"/></g></g><metadata id="metadata9999"><rdf:RDF><cc:Work><dc:format>image/svg+xml</dc:format><dc:type rdf:resource="http://purl.org/dc/dcmitype/StillImage"/><dc:title/><cc:license rdf:resource="http://creativecommons.org/licenses/by-sa/4.0/"/><dc:creator><cc:Agent><dc:title>Sixsixfive (sixsixfive.deviantart.com)</dc:title></cc:Agent></dc:creator><dc:publisher><cc:Agent><dc:title>Sixsixfive (sixsixfive.deviantart.com)</dc:title></cc:Agent></dc:publisher><dc:source>https://github.com/sixsixfive</dc:source><dc:subject><rdf:Bag><rdf:li>ivy</rdf:li></rdf:Bag></dc:subject><dc:contributor><cc:Agent><dc:title>ssf</dc:title></cc:Agent></dc:contributor><dc:rights><cc:Agent><dc:title>Sixsixfive (sixisixfive.deviantart.com)</dc:title></cc:Agent></dc:rights><dc:description>A simple icon theme published under CC-BY-SA_V4(http://creativecommons.org/licenses/by-sa/4.0)</dc:description><dc:identifier>SSF</dc:identifier></cc:Work></rdf:RDF></metadata><!--Part of the Ivy icon them published under the CC-BY-SA_V4: http://creativecommons.org/licenses/by-sa/4.0 -->
</svg>