<?xml version="1.0" encoding="UTF-8" standalone="no"?>
<svg xmlns:dc="http://purl.org/dc/elements/1.1/" xmlns:cc="http://creativecommons.org/ns#" xmlns:rdf="http://www.w3.org/1999/02/22-rdf-syntax-ns#" xmlns:svg="http://www.w3.org/2000/svg" xmlns="http://www.w3.org/2000/svg" version="1.1" id="svg2" viewBox="0 0 48 48">
 <defs id="defs4">
  <linearGradient gradientUnits="userSpaceOnUse" x2="0" y2="4.22" y1="42.22" id="0">
   <stop id="stop7" stop-color="#ddd"/>
   <stop id="stop9" stop-color="#fff" offset="1"/>
  </linearGradient>
  <linearGradient gradientUnits="userSpaceOnUse" x2="45.501" y2="57.35" x1="43.06" y1="5.158" id="1">
   <stop id="stop12" stop-color="#fff"/>
   <stop stop-opacity="0" id="stop14" stop-color="#fff" offset="1"/>
  </linearGradient>
 </defs>
 <path d="m 4 5.22 h 40 v 38 H 4 z" id="path16" opacity="0.1"/>
 <path d="m 4 4.22 h 40 v 38 H 4 z" id="path18" fill="url(#0)"/>
 <path d="M 9 9 L 9 17 L 17 17 L 17 9 L 9 9 z M 20 9 L 20 17 L 28 17 L 28 9 L 20 9 z M 31 9 L 31 17 L 39 17 L 39 9 L 31 9 z M 9 20 L 9 28 L 17 28 L 17 20 L 9 20 z M 20 20 L 20 28 L 28 28 L 28 20 L 20 20 z M 31 20 L 31 28 L 39 28 L 39 20 L 31 20 z M 9 31 L 9 39 L 17 39 L 17 31 L 9 31 z M 20 31 L 20 39 L 28 39 L 28 31 L 20 31 z M 31 31 L 31 39 L 39 39 L 39 31 L 31 31 z " id="rect3425" fill="#fff" opacity="0.7"/>
 <g id="g20" fill="none">
  <path d="m 4.4684,4.689 0,37.0625 39.0625,0 0,-37.0625 -39.0625,0 z" id="path22" opacity="0.4" stroke="#000"/>
  <path d="m 5.4372,5.6578 0,35.125 37.125,0 0,-35.125 -37.125,0 z" id="path24" stroke="url(#1)"/>
 </g>
 <rect id="rect3378" height="8" y="8" opacity="0.6" x="9" width="8"/>
 <rect id="rect3380" height="8" y="8" opacity="0.6" x="20" width="8"/>
 <rect id="rect3384" height="8" y="8" opacity="0.6" x="31" width="8"/>
 <rect id="rect3413" height="8" y="19" opacity="0.6" x="9" width="8"/>
 <rect id="rect3415" height="8" y="19" opacity="0.6" x="20" width="8"/>
 <rect id="rect3417" height="8" y="19" opacity="0.6" x="31" width="8"/>
 <rect id="rect3419" height="8" y="30" opacity="0.6" x="9" width="8"/>
 <rect id="rect3421" height="8" y="30" opacity="0.6" x="20" width="8"/>
 <rect id="rect3423" height="8" y="30" opacity="0.6" x="31" width="8"/>
 <metadata id="metadata9999">
  <rdf:RDF>
   <cc:Work>
    <dc:format>image/svg+xml</dc:format>
    <dc:type rdf:resource="http://purl.org/dc/dcmitype/StillImage"/>
    <dc:title>Ivy icon theme</dc:title>
    <cc:license rdf:resource="http://creativecommons.org/licenses/by-sa/4.0/"/>
    <dc:creator>
     <cc:Agent>
      <dc:title>Sixsixfive (sixsixfive.deviantart.com)</dc:title>
     </cc:Agent>
    </dc:creator>
    <dc:publisher>
     <cc:Agent>
      <dc:title>Sixsixfive (sixsixfive.deviantart.com)</dc:title>
     </cc:Agent>
    </dc:publisher>
    <dc:source>https://github.com/sixsixfive</dc:source>
    <dc:subject>
     <rdf:Bag>
      <rdf:li>ivy</rdf:li>
     </rdf:Bag>
    </dc:subject>
    <dc:contributor>
     <cc:Agent>
      <dc:title>ssf</dc:title>
     </cc:Agent>
    </dc:contributor>
    <dc:rights>
     <cc:Agent>
      <dc:title>Sixsixfive (sixisixfive.deviantart.com)</dc:title>
     </cc:Agent>
    </dc:rights>
    <dc:description>A simple icon theme published under CC-BY-SA_V4(http://creativecommons.org/licenses/by-sa/4.0)</dc:description>
    <dc:identifier>SSF</dc:identifier>
   </cc:Work>
  </rdf:RDF>
 </metadata>
 <!--Part of the Ivy icon them published under the CC-BY-SA_V4: http://creativecommons.org/licenses/by-sa/4.0 -->
</svg>
