<?xml version="1.0" encoding="UTF-8" standalone="no"?>
<svg xmlns:dc="http://purl.org/dc/elements/1.1/" xmlns:cc="http://creativecommons.org/ns#" xmlns:rdf="http://www.w3.org/1999/02/22-rdf-syntax-ns#" xmlns:svg="http://www.w3.org/2000/svg" xmlns="http://www.w3.org/2000/svg" id="svg2" viewBox="0 0 48 48" version="1.1">
 <defs id="defs4">
  <linearGradient x2="0" gradientUnits="userSpaceOnUse" y2="42.08" y1="5.957" id="0">
   <stop id="stop7" stop-color="#fff"/>
   <stop stop-opacity="0" id="stop9" stop-color="#fff" offset="1"/>
  </linearGradient>
  <linearGradient x2="43.912" gradientUnits="userSpaceOnUse" x1="44" y2="-0.997" y1="43.02" id="1">
   <stop id="stop12" stop-color="#ddd"/>
   <stop id="stop14" stop-color="#fff" offset="1"/>
  </linearGradient>
 </defs>
 <path d="m 4,6.02 h 40 v 38 H 4 z" id="path16" opacity="0.1"/>
 <path d="m 4,5.02 h 40 v 38 H 4 z" id="path18" fill="url(#1)"/>
 <path d="M 4,5.02 H 44 V 15.139 H 4 z" id="path20" fill="#5288d1"/>
 <rect id="rect3039" height="16" fill="#66b03e" y="27" x="4" width="40"/>
 <rect id="rect3047" height="1" fill="#fff" y="15" x="5" width="38"/>
 <g id="g22" fill="none">
  <g id="g24" stroke="#000">
   <path d="m 4.4688,5.4881 0,37.0625 39.0625,0 0,-37.0625 -39.0625,0 z" id="path26" opacity="0.4"/>
   <path d="m 4.9369,14.6279 38.1261,4e-4" id="path28" opacity="0.4"/>
  </g>
  <path d="m 5.4375,6.4568 0,35.125 37.125,0 0,-35.125 -37.125,0 z" id="path30" opacity="0.4" stroke="url(#0)"/>
 </g>
 <g id="g32" fill="#fff" fill-rule="evenodd" color="#000">
  <path d="m 7.03,9.111 1,0 0,1 -1,0 z" id="path34"/>
  <path d="m 8.03,10.111 1,0 0,1 -1,0 z" id="path36"/>
  <path d="m 9.03,11.11 1,0 0,1 -1,0 z" id="path38"/>
  <path d="m 7.03,11.11 1,0 0,1 -1,0 z" id="path40"/>
  <path d="m 9.03,9.111 1,0 0,1 -1,0 z" id="path42"/>
  <path d="m 12.03,9.111 1,0 0,3 -1,0 z" id="path44"/>
  <path transform="matrix(0,1,-1,0,0,0)" d="m 11.11,-15.03 1,0 0,3 -1,0 z" id="path46"/>
  <path transform="scale(-1,-1)" d="m -15.03,-12.11 1,0 0,3 -1,0 z" id="path48"/>
  <g transform="matrix(0,-1,1,0,0,0)" id="g50">
   <path d="m -10.111,12.03 1,0 0,3 -1,0 z" id="path52"/>
   <path d="m -12.11,17.03 1,0 0,3 -1,0 z" id="path54"/>
  </g>
 </g>
 <rect id="rect3043" height="1" y="27" opacity="0.4" x="5" width="38"/>
 <rect id="rect3049" height="1" fill="#fff" y="15" x="25" opacity="0.4" width="17"/>
 <g transform="translate(-1,-1)" id="g3385">
  <g transform="translate(1,0)" id="g3370">
   <path transform="translate(-1,0)" d="m 22,31 0,3 -3,0 0,5 3,0 0,3 5,0 0,-3 3,0 0,-5 -3,0 0,-3 -5,0 z" id="rect3378" opacity="0.3"/>
   <path id="rect3051" d="m 19,35 9,0 0,3 -9,0 z" fill="#ebebeb"/>
   <path id="rect3116" d="m 32,-25 9,0 0,3 -9,0 z" transform="matrix(0,1,-1,0,0,0)" fill="#ebebeb"/>
  </g>
 </g>
 <rect id="rect3376" height="1" fill="#fff" y="28" opacity="0.3352" x="5" width="38"/>
 <metadata id="metadata9999">
  <rdf:RDF>
   <cc:Work>
    <dc:format>image/svg+xml</dc:format>
    <dc:type rdf:resource="http://purl.org/dc/dcmitype/StillImage"/>
    <dc:title>Ivy icon theme</dc:title>
    <cc:license rdf:resource="http://creativecommons.org/licenses/by-sa/4.0/"/>
    <dc:creator>
     <cc:Agent>
      <dc:title>Sixsixfive (sixsixfive.deviantart.com)</dc:title>
     </cc:Agent>
    </dc:creator>
    <dc:publisher>
     <cc:Agent>
      <dc:title>Sixsixfive (sixsixfive.deviantart.com)</dc:title>
     </cc:Agent>
    </dc:publisher>
    <dc:source>https://github.com/sixsixfive</dc:source>
    <dc:subject>
     <rdf:Bag>
      <rdf:li>ivy</rdf:li>
     </rdf:Bag>
    </dc:subject>
    <dc:contributor>
     <cc:Agent>
      <dc:title>ssf</dc:title>
     </cc:Agent>
    </dc:contributor>
    <dc:rights>
     <cc:Agent>
      <dc:title>Sixsixfive (sixisixfive.deviantart.com)</dc:title>
     </cc:Agent>
    </dc:rights>
    <dc:description>A simple icon theme published under CC-BY-SA_V4(http://creativecommons.org/licenses/by-sa/4.0)</dc:description>
    <dc:identifier>SSF</dc:identifier>
   </cc:Work>
  </rdf:RDF>
 </metadata>
 <!--Part of the Ivy icon them published under the CC-BY-SA_V4: http://creativecommons.org/licenses/by-sa/4.0 -->
</svg>
