<?xml version="1.0" encoding="UTF-8" standalone="no"?><svg viewBox="0 0 48 48" xmlns="http://www.w3.org/2000/svg" xmlns:svg="http://www.w3.org/2000/svg" xmlns:rdf="http://www.w3.org/1999/02/22-rdf-syntax-ns#" version="1.1" id="svg2" xmlns:dc="http://purl.org/dc/elements/1.1/" xmlns:cc="http://creativecommons.org/ns#"><defs id="defs4"><linearGradient y1="4.02" x2="0" y2="44.02" id="0" gradientUnits="userSpaceOnUse"><stop id="stop7" stop-color="#fff"/><stop stop-opacity="0" offset="1" id="stop9" stop-color="#fff"/></linearGradient><linearGradient y1="3" x2="0" y2="45" id="1" gradientUnits="userSpaceOnUse"><stop id="stop12" stop-color="#5288d1"/><stop offset="1" id="stop14" stop-color="#7aa4dc"/></linearGradient><radialGradient gradientTransform="matrix(0.53212 0 0 0.02359 0.754 43.978)" id="2" cy="46.582" cx="43.685" r="45.1" gradientUnits="userSpaceOnUse"><stop stop-opacity="0.2" id="stop17"/><stop stop-opacity="0" offset="1" id="stop19"/></radialGradient></defs><path id="path21" d="m 48 45.077 a 24 1.0641 0 0 1 -48 0 24 1.0641 0 1 1 48 0 z" fill="url(#2)"/><rect y="3" x="3" ry="4" height="42" rx="4" id="rect23" width="42" fill="url(#1)"/><g id="g25" fill="none"><path stroke="#000" opacity="0.45" id="path27" d="m 7,3.5128 c -1.94587,0 -3.5,1.5541 -3.5,3.5 l 0,34 c 0,1.9459 1.55413,3.5 3.5,3.5 l 34,0 c 1.94587,0 3.5,-1.5541 3.5,-3.5 l 0,-34 c 0,-1.9459 -1.55413,-3.5 -3.5,-3.5 l -34,0 z"/><path stroke="url(#0)" opacity="0.6" id="path29" d="m 7,4.5128 c -1.40738,0 -2.5,1.0926 -2.5,2.5 l 0,34 c 0,1.4074 1.09262,2.5 2.5,2.5 l 34,0 c 1.40738,0 2.5,-1.0926 2.5,-2.5 l 0,-34 c 0,-1.4074 -1.09262,-2.5 -2.5,-2.5 l -34,0 z"/></g><g transform="matrix(1 0 0 1 59.955 -4.236)" id="g31"><path opacity="0.4" id="path33" d="m -34.9865,12.1577 -15.7812,15.5625 0,1 15.7812,15.5938 0,-9 13.8438,0 0,-14.1562 -13.8438,0 0,-9 z"/><path id="path35" d="m -34.9806,13.1574 0,8.9971 13.844,0 0,13.1571 -13.844,0 0,8.9971 -15.7933,-15.5998 15.7933,-15.5514 z" fill="#fff"/></g><metadata id="metadata9999"><rdf:RDF><cc:Work><dc:format>image/svg+xml</dc:format><dc:type rdf:resource="http://purl.org/dc/dcmitype/StillImage"/><dc:title>Ivy icon theme</dc:title><cc:license rdf:resource="http://creativecommons.org/licenses/by-sa/4.0/"/><dc:creator><cc:Agent><dc:title>Sixsixfive (sixsixfive.deviantart.com)</dc:title></cc:Agent></dc:creator><dc:publisher><cc:Agent><dc:title>Sixsixfive (sixsixfive.deviantart.com)</dc:title></cc:Agent></dc:publisher><dc:source>https://github.com/sixsixfive</dc:source><dc:subject><rdf:Bag><rdf:li>ivy</rdf:li></rdf:Bag></dc:subject><dc:contributor><cc:Agent><dc:title>ssf</dc:title></cc:Agent></dc:contributor><dc:rights><cc:Agent><dc:title>Sixsixfive (sixisixfive.deviantart.com)</dc:title></cc:Agent></dc:rights><dc:description>A simple icon theme published under CC-BY-SA_V4(http://creativecommons.org/licenses/by-sa/4.0)</dc:description><dc:identifier>SSF</dc:identifier></cc:Work></rdf:RDF></metadata><!--Part of the Ivy icon them published under the CC-BY-SA_V4: http://creativecommons.org/licenses/by-sa/4.0 -->
</svg>