<?xml version="1.0" encoding="UTF-8" standalone="no"?>
<svg xmlns:dc="http://purl.org/dc/elements/1.1/" xmlns:cc="http://creativecommons.org/ns#" xmlns:rdf="http://www.w3.org/1999/02/22-rdf-syntax-ns#" xmlns:svg="http://www.w3.org/2000/svg" xmlns="http://www.w3.org/2000/svg" xmlns:xlink="http://www.w3.org/1999/xlink" version="1.1" id="svg2" viewBox="0 0 48 48">
 <defs id="defs4">
  <linearGradient gradientUnits="userSpaceOnUse" x2="0" y2="32.08" y1="20" id="0">
   <stop id="stop7" stop-color="#66b03e"/>
   <stop id="stop9" stop-color="#a2d586" offset="1"/>
  </linearGradient>
  <linearGradient gradientUnits="userSpaceOnUse" x2="0" y2="44" y1="31.92" id="1">
   <stop id="stop12" stop-color="#a868d4"/>
   <stop id="stop14" stop-color="#dabfed" offset="1"/>
  </linearGradient>
  <linearGradient gradientUnits="userSpaceOnUse" x2="43" x1="9" xlink:href="#7" id="2"/>
  <linearGradient gradientUnits="userSpaceOnUse" x2="0" y2="44.08" y1="32" id="3">
   <stop id="stop18" stop-color="#ed4c70"/>
   <stop id="stop20" stop-color="#f59fb2" offset="1"/>
  </linearGradient>
  <linearGradient gradientUnits="userSpaceOnUse" x2="0" y2="44" y1="32" id="4">
   <stop id="stop23" stop-color="#e4ae4e"/>
   <stop id="stop25" stop-color="#eabf74" offset="1"/>
  </linearGradient>
  <linearGradient gradientUnits="userSpaceOnUse" x2="0" y2="32.08" y1="20" id="5">
   <stop id="stop28" stop-color="#5288d1"/>
   <stop id="stop30" stop-color="#8cb0e1" offset="1"/>
  </linearGradient>
  <linearGradient gradientUnits="userSpaceOnUse" x2="0" y2="32" y1="20" id="6">
   <stop id="stop33" stop-color="#eed45a"/>
   <stop id="stop35" stop-color="#f3e28e" offset="1"/>
  </linearGradient>
  <linearGradient id="7">
   <stop id="stop38" stop-color="#fff"/>
   <stop id="stop40" stop-opacity="0" stop-color="#fff" offset="1"/>
  </linearGradient>
  <linearGradient gradientUnits="userSpaceOnUse" x2="0" y2="20" y1="8" id="8">
   <stop id="stop43" stop-color="#d02604"/>
   <stop id="stop45" stop-color="#fc775d" offset="1"/>
  </linearGradient>
  <linearGradient gradientUnits="userSpaceOnUse" x2="0" y2="20" y1="8" id="9">
   <stop id="stop48" stop-color="#ffd506"/>
   <stop id="stop50" stop-color="#ffe773" offset="1"/>
  </linearGradient>
  <linearGradient gradientUnits="userSpaceOnUse" x2="0" y2="20" y1="7.919" id="A">
   <stop id="stop53" stop-color="#ff8b36"/>
   <stop id="stop55" stop-color="#ffb178" offset="1"/>
  </linearGradient>
  <linearGradient gradientUnits="userSpaceOnUse" x2="0" y2="39" y1="4.906" xlink:href="#7" id="B"/>
 </defs>
 <path id="path58" d="M 6,32.92 H42 V45 H6 z" opacity="0.144"/>
 <path id="path60" d="M 6,7.919 H18 V19.999 H6 z" fill="url(#8)"/>
 <path id="path62" d="M 6,19.92 H18 V32 H6 z" fill="url(#6)"/>
 <path id="path64" d="M 6,31.92 H18 V44 H6 z" fill="url(#1)"/>
 <path id="path66" d="M 18,32 H30 V44.08 H18 z" fill="url(#3)"/>
 <path id="path68" d="M 30,32 H42 V44.08 H30 z" fill="url(#4)"/>
 <path id="path70" d="M 30,20 H42 V32.08 H30 z" fill="url(#5)"/>
 <path id="path72" d="M 18,20 H30 V32.08 H18 z" fill="url(#0)"/>
 <path id="path74" d="M 18,8 H30 V20.08 H18 z" fill="url(#A)"/>
 <path id="path76" d="M 30,7.919 H42 V19.999 H30 z" fill="url(#9)"/>
 <g id="g78" transform="translate(2,4)" fill="none">
  <path id="path80" d="m 4.5312,4.4375 0,35.0312 34.9375,0 0,-35.0312 -34.9375,0 z" opacity="0.5" stroke="#000"/>
  <path id="path82" d="m 5.5,5.4062 0,33.0938 33,0 0,-33.0938 -33,0 z" opacity="0.7" stroke="url(#B)"/>
 </g>
 <path id="path84" d="M 7,19 H41 V20 H7 z" opacity="0.4"/>
 <path id="path86" d="M 7,31 H41 V32 H7 z" opacity="0.4"/>
 <g id="g88" fill="#fff">
  <path id="path90" d="m 7,32 34,0 0,1 -34,0 z" opacity="0.4"/>
  <path id="path92" d="m 7,20 34,0 0,1 -34,0 z" opacity="0.4"/>
 </g>
 <g id="g94" transform="matrix(0,1,-1,0,0,0)">
  <path id="path96" d="m 8,-19 35,0 0,1 -35,0 z" opacity="0.12"/>
  <path id="path98" d="m 9,-18 34,0 0,1 -34,0 z" opacity="0.4" fill="url(#2)"/>
  <path id="path100" d="m 8,-31 35,0 0,1 -35,0 z" opacity="0.12"/>
  <path id="path102" d="m 9,-30 34,0 0,1 -34,0 z" opacity="0.4" fill="url(#2)"/>
 </g>
 <metadata id="metadata9999">
  <rdf:RDF>
   <cc:Work>
    <dc:format>image/svg+xml</dc:format>
    <dc:type rdf:resource="http://purl.org/dc/dcmitype/StillImage"/>
    <dc:title>Ivy icon theme</dc:title>
    <cc:license rdf:resource="http://creativecommons.org/licenses/by-sa/4.0/"/>
    <dc:creator>
     <cc:Agent>
      <dc:title>Sixsixfive (sixsixfive.deviantart.com)</dc:title>
     </cc:Agent>
    </dc:creator>
    <dc:publisher>
     <cc:Agent>
      <dc:title>Sixsixfive (sixsixfive.deviantart.com)</dc:title>
     </cc:Agent>
    </dc:publisher>
    <dc:source>https://github.com/sixsixfive</dc:source>
    <dc:subject>
     <rdf:Bag>
      <rdf:li>ivy</rdf:li>
     </rdf:Bag>
    </dc:subject>
    <dc:contributor>
     <cc:Agent>
      <dc:title>ssf</dc:title>
     </cc:Agent>
    </dc:contributor>
    <dc:rights>
     <cc:Agent>
      <dc:title>Sixsixfive (sixisixfive.deviantart.com)</dc:title>
     </cc:Agent>
    </dc:rights>
    <dc:description>A simple icon theme published under CC-BY-SA_V4(http://creativecommons.org/licenses/by-sa/4.0)</dc:description>
    <dc:identifier>SSF</dc:identifier>
   </cc:Work>
  </rdf:RDF>
 </metadata>
 <!--Part of the Ivy icon them published under the CC-BY-SA_V4: http://creativecommons.org/licenses/by-sa/4.0 -->
</svg>
