<?xml version="1.0" encoding="UTF-8" standalone="no"?><svg viewBox="0 0 48 48" xmlns="http://www.w3.org/2000/svg" xmlns:svg="http://www.w3.org/2000/svg" xmlns:rdf="http://www.w3.org/1999/02/22-rdf-syntax-ns#" version="1.1" id="svg2" xmlns:dc="http://purl.org/dc/elements/1.1/" xmlns:cc="http://creativecommons.org/ns#"><defs id="defs4"><linearGradient y1="19" x2="0" y2="45" id="0" gradientUnits="userSpaceOnUse"><stop id="stop7" stop-color="#fff"/><stop stop-opacity="0" offset="1" id="stop9" stop-color="#fff"/></linearGradient><linearGradient y1="19" x2="0" y2="46" id="1" gradientUnits="userSpaceOnUse"><stop id="stop12" stop-color="#929292"/><stop offset="1" id="stop14" stop-color="#d6d6d6"/></linearGradient><radialGradient gradientTransform="matrix(-2.18339 1.8986 -1.81818 -2.09091 98.42 -12.243)" id="2" cy="12.786" cx="25.27" r="11" gradientUnits="userSpaceOnUse"><stop id="stop17" stop-color="#ebebeb"/><stop offset="1" id="stop19" stop-color="#6a6a6a"/></radialGradient></defs><path opacity="0.1" id="path21" d="m 21 6.9062 c -4.432 0 -8 3.568 -8 8 v 5.09375 h -1 c -1.662 0 -3 1.338 -3 3 v 21 c 0 1.662 1.338 3 3 3 h 24 c 1.662 0 3 -1.338 3 -3 v -21 c 0 -1.662 -1.338 -3 -3 -3 H 35 V 14.9062 c 0 -4.432 -3.568 -8 -8 -8 h -6 z m 0 4 h 6 c 2.2928 0 4 1.7072 4 4 v 5.09375 H 17 V 14.9062 c 0 -2.2928 1.7072 -4 4 -4 z"/><path id="path23" d="m 21 5.8998 c -4.432 0 -8 3.568 -8 8 v 11 c 0 4.432 3.568 8 8 8 h 6 c 4.432 0 8 -3.568 8 -8 v -11 c 0 -4.432 -3.568 -8 -8 -8 h -6 z m 0 4 h 6 c 2.2928 0 4 1.7072 4 4 v 11 c 0 2.2928 -1.7072 4 -4 4 h -6 c -2.2928 0 -4 -1.7072 -4 -4 v -11 c 0 -2.2928 1.7072 -4 4 -4 z" fill="url(#2)"/><path stroke="#000" opacity="0.4" id="path25" d="m 21 6.3685 c -4.18409 0 -7.53125 3.34716 -7.53125 7.53125 v 11 c 0 4.18409 3.34716 7.53125 7.53125 7.53125 h 6 c 4.18409 0 7.53125 -3.34716 7.53125 -7.53125 v -11 C 34.53125 9.71566 31.18409 6.3685 27 6.3685 h -6 z m 0 3.0625 h 6 c 2.52208 0 4.46875 1.94667 4.46875 4.46875 v 11 c 0 2.52208 -1.94667 4.46875 -4.46875 4.46875 h -6 c -2.52208 0 -4.46875 -1.94667 -4.46875 -4.46875 v -11 C 16.53125 11.37767 18.47792 9.431 21 9.431 z" fill="none"/><rect y="19" x="9" ry="3" height="27" rx="3" id="rect27" width="30" fill="url(#1)"/><path opacity="0.463" id="path29" d="M 19,6.9 H29 V7.9 H19 z" fill="#fff"/><path stroke="url(#0)" opacity="0.8" id="path31" d="m 12 20.5312 c -0.839748 0 -1.46875 0.629002 -1.46875 1.46875 v 21 c 0 0.839748 0.629002 1.46875 1.46875 1.46875 h 24 c 0.839748 0 1.46875 -0.629002 1.46875 -1.46875 v -21 C 37.46875 21.1602 36.839748 20.5312 36 20.5312 H 12 z" fill="none"/><path id="path33" d="M 10,24 H39 V29 H10 z" fill="#ffd506"/><path id="path35" d="m 10,29 5,-5 5,0 -5,5 z"/><path id="path37" d="m 20,29 5,-5 5,0 -5,5 z"/><path id="path39" d="m 35,24 -5,5 5,0 4,-4 0,-1 h -4 z"/><path stroke="#000" opacity="0.4" id="path41" d="m 12 19.5312 c -1.37278 0 -2.46875 1.09597 -2.46875 2.46875 v 21 c 0 1.37278 1.09597 2.46875 2.46875 2.46875 h 24 c 1.37278 0 2.46875 -1.09597 2.46875 -2.46875 v -21 C 38.46875 20.62717 37.37278 19.5312 36 19.5312 H 12 z" fill="none"/><path opacity="0.3" id="path43" d="M 10,28 H38 V29 H10 z"/><path opacity="0.46" id="path45" d="M 10,24 H38 V25 H10 z"/><g id="g47" fill="#fff"><path opacity="0.36" id="path49" d="m 10,29 28,0 0,1 -28,0 z"/><path opacity="0.26" id="path51" d="m 10,23 28,0 0,1 -28,0 z"/></g><metadata id="metadata9999"><rdf:RDF><cc:Work><dc:format>image/svg+xml</dc:format><dc:type rdf:resource="http://purl.org/dc/dcmitype/StillImage"/><dc:title>Ivy icon theme</dc:title><cc:license rdf:resource="http://creativecommons.org/licenses/by-sa/4.0/"/><dc:creator><cc:Agent><dc:title>Sixsixfive (sixsixfive.deviantart.com)</dc:title></cc:Agent></dc:creator><dc:publisher><cc:Agent><dc:title>Sixsixfive (sixsixfive.deviantart.com)</dc:title></cc:Agent></dc:publisher><dc:source>https://github.com/sixsixfive</dc:source><dc:subject><rdf:Bag><rdf:li>ivy</rdf:li></rdf:Bag></dc:subject><dc:contributor><cc:Agent><dc:title>ssf</dc:title></cc:Agent></dc:contributor><dc:rights><cc:Agent><dc:title>Sixsixfive (sixisixfive.deviantart.com)</dc:title></cc:Agent></dc:rights><dc:description>A simple icon theme published under CC-BY-SA_V4(http://creativecommons.org/licenses/by-sa/4.0)</dc:description><dc:identifier>SSF</dc:identifier></cc:Work></rdf:RDF></metadata><!--Part of the Ivy icon them published under the CC-BY-SA_V4: http://creativecommons.org/licenses/by-sa/4.0 -->
</svg>