<?xml version="1.0" encoding="UTF-8" standalone="no"?><svg xmlns:xlink="http://www.w3.org/1999/xlink" xmlns:cc="http://creativecommons.org/ns#" viewBox="0 0 48 48" version="1.1" id="svg2" xmlns:svg="http://www.w3.org/2000/svg" xmlns:rdf="http://www.w3.org/1999/02/22-rdf-syntax-ns#" xmlns="http://www.w3.org/2000/svg" xmlns:dc="http://purl.org/dc/elements/1.1/"><defs id="0"><linearGradient id="A"><stop stop-color="#eed45a" id="H"/><stop offset="1" stop-color="#f8ecb7" id="I"/></linearGradient><linearGradient x2="0" gradientUnits="userSpaceOnUse" y2="44" id="B" y1="3"><stop stop-color="#eed45a" id="J"/><stop offset="1" stop-color="#f3e291" id="K"/></linearGradient><linearGradient x2="39.906" gradientUnits="userSpaceOnUse" x1="40" y2="42.969" id="C" y1="3"><stop stop-color="#fff" id="L"/><stop offset="1" stop-opacity="0" stop-color="#fff" id="M"/></linearGradient><linearGradient x2="0" gradientUnits="userSpaceOnUse" xlink:href="#A" y2="13" id="D" y1="3"/></defs><rect height="42" width="34.951" opacity="0.1" rx="1.209" ry="1.209" id="1" x="6" y="3"/><rect height="42" width="34.951" rx="1.209" fill="url(#B)" ry="1.209" id="2" x="5.986" y="2"/><path fill-rule="evenodd" opacity="0.1" id="3" d="M 6,3 41,3 32,13 15,13 z"/><rect height="1" width="26" fill-rule="evenodd" opacity="0.4" id="4" x="11" transform="matrix(0 1 -1 0 0 0)" y="-24"/><rect height="1" width="33" fill-rule="evenodd" opacity="0.5" fill="#fff" id="5" x="7" y="38"/><rect height="1" width="33" fill-rule="evenodd" opacity="0.4" id="6" x="7" y="37"/><path fill-rule="evenodd" fill="url(#D)" id="7" d="M 7.1875,2 C 6.8432645,2 6.5635306,2.1456163 6.34375,2.375 L 15,12 32,12 40.625,2.40625 C 40.40393,2.1589625 40.078077,2 39.71875,2 L 7.1875,2 z"/><path opacity="0.4" id="8" color="#000" d="M 7.0625,2.03125 C 6.6896823,2.071799 6.3794451,2.2626191 6.1875,2.5625 L 14.625,11.84375 14.78125,12 15,12 32,12 32.21875,12 32.375,11.84375 40.75,2.625 C 40.572084,2.3186635 40.27036,2.0899336 39.90625,2.03125 L 31.78125,11 15.21875,11 7.0625,2.03125 z"/><g fill="none" id="9"><path opacity="0.4" id="F" stroke="#000" d="M 7.1875,2.5 C 6.783721,2.5 6.5,2.799839 6.5,3.21875 l 0,39.5625 C 6.5,43.20016 6.783721,43.5 7.1875,43.5 l 32.53125,0 c 0.40378,0 0.71875,-0.31497 0.71875,-0.71875 l 0,-39.5625 C 40.4375,2.814971 40.12253,2.5 39.71875,2.5 L 7.1875,2.5 Z"/><path opacity="0.5" id="G" stroke="url(#C)" d="m 7.5312,3.5312 0,38.9375 31.875,0 0,-38.9375 -31.875,0 z"/></g><metadata id="metadata9999"><rdf:RDF><cc:Work><dc:format>image/svg+xml</dc:format><dc:type rdf:resource="http://purl.org/dc/dcmitype/StillImage"/><dc:title>Ivy icon theme</dc:title><cc:license rdf:resource="http://creativecommons.org/licenses/by-sa/4.0/"/><dc:creator><cc:Agent><dc:title>Sixsixfive (sixsixfive.deviantart.com)</dc:title></cc:Agent></dc:creator><dc:publisher><cc:Agent><dc:title>Sixsixfive (sixsixfive.deviantart.com)</dc:title></cc:Agent></dc:publisher><dc:source>https://github.com/sixsixfive</dc:source><dc:subject><rdf:Bag><rdf:li>ivy</rdf:li></rdf:Bag></dc:subject><dc:contributor><cc:Agent><dc:title>ssf</dc:title></cc:Agent></dc:contributor><dc:rights><cc:Agent><dc:title>Sixsixfive (sixisixfive.deviantart.com)</dc:title></cc:Agent></dc:rights><dc:description>A simple icon theme published under CC-BY-SA_V4(http://creativecommons.org/licenses/by-sa/4.0)</dc:description><dc:identifier>SSF</dc:identifier></cc:Work></rdf:RDF></metadata><!--Part of the Ivy icon them published under the CC-BY-SA_V4: http://creativecommons.org/licenses/by-sa/4.0 -->
</svg>