<?xml version="1.0" encoding="UTF-8" standalone="no"?>
<svg xmlns:dc="http://purl.org/dc/elements/1.1/" xmlns:cc="http://creativecommons.org/ns#" xmlns:rdf="http://www.w3.org/1999/02/22-rdf-syntax-ns#" xmlns:svg="http://www.w3.org/2000/svg" xmlns="http://www.w3.org/2000/svg" version="1.1" id="svg2" viewBox="0 0 48 48">
 <defs id="defs4">
  <linearGradient gradientUnits="userSpaceOnUse" x2="0" y2="44.02" y1="4.02" id="0">
   <stop id="stop7" stop-color="#fff"/>
   <stop id="stop9" stop-opacity="0" stop-color="#fff" offset="1"/>
  </linearGradient>
  <linearGradient gradientUnits="userSpaceOnUse" x2="0" y2="45" y1="3" id="1">
   <stop id="stop12" stop-color="#d02604"/>
   <stop id="stop14" stop-color="#fb5938" offset="1"/>
  </linearGradient>
 </defs>
 <rect id="rect16" ry="4" height="42" rx="4" y="4" opacity="0.1" x="3" width="42"/>
 <rect id="rect18" ry="4" height="42" rx="4" fill="url(#1)" y="3" x="3" width="42"/>
 <g id="g20" fill="none">
  <path id="path22" d="m 7,3.5128 c -1.94587,0 -3.5,1.5541 -3.5,3.5 l 0,34 c 0,1.9459 1.55413,3.5 3.5,3.5 l 34,0 c 1.94587,0 3.5,-1.5541 3.5,-3.5 l 0,-34 c 0,-1.9459 -1.55413,-3.5 -3.5,-3.5 l -34,0 z" opacity="0.45" stroke="#000"/>
  <path id="path24" d="m 7,4.5128 c -1.40738,0 -2.5,1.0926 -2.5,2.5 l 0,34 c 0,1.4074 1.09262,2.5 2.5,2.5 l 34,0 c 1.40738,0 2.5,-1.0926 2.5,-2.5 l 0,-34 c 0,-1.4074 -1.09262,-2.5 -2.5,-2.5 l -34,0 z" opacity="0.6" stroke="url(#0)"/>
  <g id="g26" transform="translate(0,-1003.26)" opacity="0.6" stroke="#000" stroke-linecap="round">
   <path id="path28" transform="matrix(0.63279,-0.63509,0.67138,0.66895,-9.451,1023.83)" d="M 39.18457,26.931583 A 14.895504,14.09034 0 1 1 24.30098,12.841246" stroke-width="6.994"/>
   <path id="path30" d="m 24,1012.7618 0,10.6464" stroke-width="6.45"/>
  </g>
  <g id="g32" stroke="#fff" stroke-linecap="round">
   <path id="path34" d="M 33.4257,14.6903 A 13.3542,13.3542 0 1 1 14.5475,14.71702" stroke-width="6.447"/>
   <path id="path36" d="m 24,10.497 0,10.6464" stroke-width="6.45"/>
  </g>
 </g>
 <metadata id="metadata9999">
  <rdf:RDF>
   <cc:Work>
    <dc:format>image/svg+xml</dc:format>
    <dc:type rdf:resource="http://purl.org/dc/dcmitype/StillImage"/>
    <dc:title>Ivy icon theme</dc:title>
    <cc:license rdf:resource="http://creativecommons.org/licenses/by-sa/4.0/"/>
    <dc:creator>
     <cc:Agent>
      <dc:title>Sixsixfive (sixsixfive.deviantart.com)</dc:title>
     </cc:Agent>
    </dc:creator>
    <dc:publisher>
     <cc:Agent>
      <dc:title>Sixsixfive (sixsixfive.deviantart.com)</dc:title>
     </cc:Agent>
    </dc:publisher>
    <dc:source>https://github.com/sixsixfive</dc:source>
    <dc:subject>
     <rdf:Bag>
      <rdf:li>ivy</rdf:li>
     </rdf:Bag>
    </dc:subject>
    <dc:contributor>
     <cc:Agent>
      <dc:title>ssf</dc:title>
     </cc:Agent>
    </dc:contributor>
    <dc:rights>
     <cc:Agent>
      <dc:title>Sixsixfive (sixisixfive.deviantart.com)</dc:title>
     </cc:Agent>
    </dc:rights>
    <dc:description>A simple icon theme published under CC-BY-SA_V4(http://creativecommons.org/licenses/by-sa/4.0)</dc:description>
    <dc:identifier>SSF</dc:identifier>
   </cc:Work>
  </rdf:RDF>
 </metadata>
 <!--Part of the Ivy icon them published under the CC-BY-SA_V4: http://creativecommons.org/licenses/by-sa/4.0 -->
</svg>
