<?xml version="1.0" encoding="UTF-8" standalone="no"?><svg xmlns:cc="http://creativecommons.org/ns#" viewBox="0 0 48 48" version="1.1" id="svg2" xmlns:svg="http://www.w3.org/2000/svg" xmlns:rdf="http://www.w3.org/1999/02/22-rdf-syntax-ns#" xmlns="http://www.w3.org/2000/svg" xmlns:dc="http://purl.org/dc/elements/1.1/"><defs id="defs4"><linearGradient x2="0" gradientUnits="userSpaceOnUse" y2="42.08" id="0" y1="5.957"><stop stop-color="#fff" id="stop7"/><stop offset="1" stop-opacity="0" stop-color="#fff" id="stop9"/></linearGradient><linearGradient x2="43.912" gradientUnits="userSpaceOnUse" x1="44" y2="-0.997" id="1" y1="43.02"><stop stop-color="#ddd" id="stop12"/><stop offset="1" stop-color="#fff" id="stop14"/></linearGradient><linearGradient x2="0" gradientUnits="userSpaceOnUse" y2="44" id="0-9" y1="4" gradientTransform="matrix(0.65018 0 0 0.65115 0.376 0.411)"><stop stop-color="#66b03e" id="stop4259"/><stop offset="1" stop-color="#95ce76" id="stop4261"/></linearGradient><linearGradient x2="0" gradientUnits="userSpaceOnUse" y2="28" id="1-9" y1="4"><stop stop-color="#fff" id="stop4264"/><stop offset="1" stop-opacity="0" stop-color="#fff" id="stop4266"/></linearGradient></defs><path opacity="0.1" id="path16" d="M 4,6.02 H44 V44.02 H4 z"/><path fill="url(#1)" id="path18" d="M 4,5.02 H44 V43.02 H4 z"/><path fill="#5288d1" id="path20" d="M 4,5.02 H44 V15.139 H4 z"/><g fill="none" id="g22"><g id="g24" stroke="#000"><path opacity="0.4" id="path26" d="m 4.4688,5.4881 0,37.0625 39.0625,0 0,-37.0625 -39.0625,0 z"/><path opacity="0.4" id="path28" d="m 4.9369,14.6279 38.1261,4e-4"/></g><path opacity="0.4" id="path30" stroke="url(#0)" d="m 5.4375,6.4568 0,35.125 37.125,0 0,-35.125 -37.125,0 z"/></g><g fill-rule="evenodd" fill="#fff" id="g32" color="#000"><path id="path34" d="m 7.03,9.111 1,0 0,1 -1,0 z"/><path id="path36" d="m 8.03,10.111 1,0 0,1 -1,0 z"/><path id="path38" d="m 9.03,11.11 1,0 0,1 -1,0 z"/><path id="path40" d="m 7.03,11.11 1,0 0,1 -1,0 z"/><path id="path42" d="m 9.03,9.111 1,0 0,1 -1,0 z"/><path id="path44" d="m 12.03,9.111 1,0 0,3 -1,0 z"/><path id="path46" transform="matrix(0 1 -1 0 0 0)" d="m 11.11,-15.03 1,0 0,3 -1,0 z"/><path id="path48" transform="matrix(-1 0 0 -1 0 0)" d="m -15.03,-12.11 1,0 0,3 -1,0 z"/><g id="g50" transform="matrix(0 -1 1 0 0 0)"><path id="path52" d="m -10.111,12.03 1,0 0,3 -1,0 z"/><path id="path54" d="m -12.11,17.03 1,0 0,3 -1,0 z"/></g></g><path fill="none" id="path56" stroke="#fff" d="m 4.9369,15.6276 38.1261,4e-4"/><g id="g4288" transform="matrix(1 0 0 1 17.999414 17.0006)"><path opacity="0.15" id="path4268" d="m 11.0617,3.8215 0,8.1305 -8.0459,0 0,10.041 8.0459,0 0,8.0304 9.9373,0 0,-8.0303 7.9463,0 0,-10.041 -7.9463,0 0,-8.1305 z"/><path fill="url(#0-9)" id="path4270" d="m 11.047,3.0158 0,8.0822 -8.0701,0 0,9.8819 8.0701,0 0,8.0822 9.8671,0 0,-8.0822 8.0701,0 0,-9.8819 -8.0701,0 0,-8.08215 z"/><g fill="none" id="g4272"><path opacity="0.4" id="path4274" stroke="#000" d="m 11.5862,3.4994 0,7.5739 c 1.16e-4,0.2752 -0.249944,0.525649 -0.524716,0.525533 l -7.56209,0 0,8.84132 7.56209,0 c 0.274772,-1.16e-4 0.524832,0.250333 0.524716,0.525533 l 0,7.57386 8.88143,0 0,-7.57386 c -1.16e-4,-0.2752 0.249944,-0.525649 0.524716,-0.525533 l 7.50824,0 0,-8.84132 -7.50824,0 C 20.717574,11.598949 20.467514,11.3485 20.46763,11.0733 l 0,-7.5739 z"/><path opacity="0.65" id="path4276" stroke="url(#1-9)" d="m 12.5625,4.375 0,6.625 A 1.5491,1.5491 0 0 1 11,12.5625 l -6.625,0 0,6.875 6.625,0 A 1.5491,1.5491 0 0 1 12.5625,21 l 0,6.625 6.875,0 0,-6.625 A 1.5491,1.5491 0 0 1 21,19.4375 l 6.625,0 0,-6.875 -6.625,0 A 1.5491,1.5491 0 0 1 19.4375,11 l 0,-6.625 -6.875,0 z"/></g></g><metadata id="metadata9999"><rdf:RDF><cc:Work><dc:format>image/svg+xml</dc:format><dc:type rdf:resource="http://purl.org/dc/dcmitype/StillImage"/><dc:title>Ivy icon theme</dc:title><cc:license rdf:resource="http://creativecommons.org/licenses/by-sa/4.0/"/><dc:creator><cc:Agent><dc:title>Sixsixfive (sixsixfive.deviantart.com)</dc:title></cc:Agent></dc:creator><dc:publisher><cc:Agent><dc:title>Sixsixfive (sixsixfive.deviantart.com)</dc:title></cc:Agent></dc:publisher><dc:source>https://github.com/sixsixfive</dc:source><dc:subject><rdf:Bag><rdf:li>ivy</rdf:li></rdf:Bag></dc:subject><dc:contributor><cc:Agent><dc:title>ssf</dc:title></cc:Agent></dc:contributor><dc:rights><cc:Agent><dc:title>Sixsixfive (sixisixfive.deviantart.com)</dc:title></cc:Agent></dc:rights><dc:description>A simple icon theme published under CC-BY-SA_V4(http://creativecommons.org/licenses/by-sa/4.0)</dc:description><dc:identifier>SSF</dc:identifier></cc:Work></rdf:RDF></metadata><!--Part of the Ivy icon them published under the CC-BY-SA_V4: http://creativecommons.org/licenses/by-sa/4.0 -->
</svg>