<?xml version="1.0" encoding="UTF-8" standalone="no"?><svg viewBox="0 0 48 48" xmlns:svg="http://www.w3.org/2000/svg" xmlns="http://www.w3.org/2000/svg" xmlns:rdf="http://www.w3.org/1999/02/22-rdf-syntax-ns#" version="1.1" id="svg2" xmlns:dc="http://purl.org/dc/elements/1.1/" xmlns:cc="http://creativecommons.org/ns#"><defs id="defs4"><linearGradient y1="5.957" x2="0" y2="42.08" id="0" gradientUnits="userSpaceOnUse"><stop id="stop7" stop-color="#fff"/><stop stop-opacity="0" offset="1" id="stop9" stop-color="#fff"/></linearGradient><linearGradient x1="44" y1="43.02" x2="43.912" y2="-0.997" id="1" gradientUnits="userSpaceOnUse"><stop id="stop12" stop-color="#ddd"/><stop offset="1" id="stop14" stop-color="#fff"/></linearGradient><radialGradient gradientTransform="matrix(0.94141 0 0 0.06457 1.42 40.21)" cy="44.881" id="2" r="23.23" cx="23.985" gradientUnits="userSpaceOnUse"><stop stop-opacity="0.2" id="stop17"/><stop stop-opacity="0" offset="1" id="stop19"/></radialGradient></defs><path id="path21" d="m 45.8709 43.1113 a 21.87095 1.500003 0 0 1 -43.7419 0 21.87095 1.500003 0 1 1 43.7419 0 z" fill="url(#2)"/><path id="path23" d="M 4,5.02 H44 V43.02 H4 z" fill="url(#1)"/><path id="path25" d="M 4,5.02 H44 V15.139 H4 z" fill="#5288d1"/><g id="g27" fill="none"><g stroke="#000" id="g29"><path opacity="0.4" id="path31" d="m 4.4688,5.4881 0,37.0625 39.0625,0 0,-37.0625 -39.0625,0 z"/><path opacity="0.4" id="path33" d="m 4.9369,14.6279 38.1261,4e-4"/></g><path stroke="url(#0)" opacity="0.4" id="path35" d="m 5.4375,6.4568 0,35.125 37.125,0 0,-35.125 -37.125,0 z"/></g><g id="g37" color="#000" fill-rule="evenodd" fill="#fff"><path id="path39" d="m 7.03,9.111 1,0 0,1 -1,0 z"/><path id="path41" d="m 8.03,10.111 1,0 0,1 -1,0 z"/><path id="path43" d="m 9.03,11.11 1,0 0,1 -1,0 z"/><path id="path45" d="m 7.03,11.11 1,0 0,1 -1,0 z"/><path id="path47" d="m 9.03,9.111 1,0 0,1 -1,0 z"/><path id="path49" d="m 12.03,9.111 1,0 0,3 -1,0 z"/><path transform="matrix(0 1 -1 0 0 0)" id="path51" d="m 11.11,-15.03 1,0 0,3 -1,0 z"/><path transform="matrix(-1 0 0 -1 0 0)" id="path53" d="m -15.03,-12.11 1,0 0,3 -1,0 z"/><g transform="matrix(0 -1 1 0 0 0)" id="g55"><path id="path57" d="m -10.111,12.03 1,0 0,3 -1,0 z"/><path id="path59" d="m -12.11,17.03 1,0 0,3 -1,0 z"/></g></g><path stroke="#fff" id="path61" d="m 4.9369,15.6276 38.1261,4e-4" fill="none"/><metadata id="metadata9999"><rdf:RDF><cc:Work><dc:format>image/svg+xml</dc:format><dc:type rdf:resource="http://purl.org/dc/dcmitype/StillImage"/><dc:title>Ivy icon theme</dc:title><cc:license rdf:resource="http://creativecommons.org/licenses/by-sa/4.0/"/><dc:creator><cc:Agent><dc:title>Sixsixfive (sixsixfive.deviantart.com)</dc:title></cc:Agent></dc:creator><dc:publisher><cc:Agent><dc:title>Sixsixfive (sixsixfive.deviantart.com)</dc:title></cc:Agent></dc:publisher><dc:source>https://github.com/sixsixfive</dc:source><dc:subject><rdf:Bag><rdf:li>ivy</rdf:li></rdf:Bag></dc:subject><dc:contributor><cc:Agent><dc:title>ssf</dc:title></cc:Agent></dc:contributor><dc:rights><cc:Agent><dc:title>Sixsixfive (sixisixfive.deviantart.com)</dc:title></cc:Agent></dc:rights><dc:description>A simple icon theme published under CC-BY-SA_V4(http://creativecommons.org/licenses/by-sa/4.0)</dc:description><dc:identifier>SSF</dc:identifier></cc:Work></rdf:RDF></metadata><!--Part of the Ivy icon them published under the CC-BY-SA_V4: http://creativecommons.org/licenses/by-sa/4.0 -->
</svg>