<?xml version="1.0" encoding="UTF-8" standalone="no"?><svg xmlns:cc="http://creativecommons.org/ns#" viewBox="0 0 48 48" version="1.1" id="svg2" xmlns:svg="http://www.w3.org/2000/svg" xmlns:rdf="http://www.w3.org/1999/02/22-rdf-syntax-ns#" xmlns="http://www.w3.org/2000/svg" xmlns:dc="http://purl.org/dc/elements/1.1/"><defs id="defs4"><linearGradient x2="21.02" gradientUnits="userSpaceOnUse" x1="22.05" y2="32.649" id="0" gradientTransform="matrix(0.95856 -0.24755 0.24487 0.96904 -4.145 7.566)" y1="12.273"><stop stop-color="#fff" id="stop7"/><stop offset="1" stop-opacity="0" stop-color="#fff" id="stop9"/></linearGradient><linearGradient x2="0" gradientUnits="userSpaceOnUse" y2="41" id="1" y1="7"><stop stop-color="#66b03e" id="stop12"/><stop offset="1" stop-color="#95ce76" id="stop14"/></linearGradient></defs><path opacity="0.1" id="path16" d="m 35.016,7.84 -15.0161,17.2683 -9.2325,-8.0384 -7.7677,9.0384 9.3097,8.1766 8.7599,7.7752 8.0084,-8.9764 14.8866,-17.3608 z"/><path fill="url(#1)" id="path18" d="m 35.016,6.84 -15.0161,17.2683 -9.2325,-8.0384 -7.7677,9.0384 9.3097,8.1766 8.7599,7.7752 8.0084,-8.9764 14.8866,-17.3608 z"/><g fill="none" id="g20" stroke-width="0.995"><path opacity="0.4" id="path22" stroke="#000" d="M 35.0722,7.5674 20.3766,24.4626 c -0.182536,0.20101 -0.530845,0.213707 -0.727229,0.02651 l -8.8258,-7.6918 -7.1043,8.2541 8.9406,7.8526 8.3532,7.4286 7.6878,-8.6033 14.5438,-16.9496 z"/><path opacity="0.55" id="path24" stroke="url(#0)" d="M 35.1546,9.0301 21.1524,25.1333 c -0.525095,0.609848 -1.54637,0.690453 -2.15873,0.17038 l -8.0877,-7.0437 -5.7399,6.7082 8.1572,7.1517 7.6074,6.7502 6.9945,-7.8113 13.8727,-16.1957 z"/></g><metadata id="metadata9999"><rdf:RDF><cc:Work><dc:format>image/svg+xml</dc:format><dc:type rdf:resource="http://purl.org/dc/dcmitype/StillImage"/><dc:title>Ivy icon theme</dc:title><cc:license rdf:resource="http://creativecommons.org/licenses/by-sa/4.0/"/><dc:creator><cc:Agent><dc:title>Sixsixfive (sixsixfive.deviantart.com)</dc:title></cc:Agent></dc:creator><dc:publisher><cc:Agent><dc:title>Sixsixfive (sixsixfive.deviantart.com)</dc:title></cc:Agent></dc:publisher><dc:source>https://github.com/sixsixfive</dc:source><dc:subject><rdf:Bag><rdf:li>ivy</rdf:li></rdf:Bag></dc:subject><dc:contributor><cc:Agent><dc:title>ssf</dc:title></cc:Agent></dc:contributor><dc:rights><cc:Agent><dc:title>Sixsixfive (sixisixfive.deviantart.com)</dc:title></cc:Agent></dc:rights><dc:description>A simple icon theme published under CC-BY-SA_V4(http://creativecommons.org/licenses/by-sa/4.0)</dc:description><dc:identifier>SSF</dc:identifier></cc:Work></rdf:RDF></metadata><!--Part of the Ivy icon them published under the CC-BY-SA_V4: http://creativecommons.org/licenses/by-sa/4.0 -->
</svg>