<?xml version="1.0" encoding="UTF-8" standalone="no"?>
<svg xmlns:dc="http://purl.org/dc/elements/1.1/" xmlns:cc="http://creativecommons.org/ns#" xmlns:rdf="http://www.w3.org/1999/02/22-rdf-syntax-ns#" xmlns:svg="http://www.w3.org/2000/svg" xmlns="http://www.w3.org/2000/svg" xmlns:xlink="http://www.w3.org/1999/xlink" version="1.1" viewBox="0 0 48 48" id="svg2">
 <defs id="0">
  <linearGradient id="D">
   <stop stop-color="#fff" id="F"/>
   <stop offset="1" stop-color="#fff" id="G" stop-opacity="0"/>
  </linearGradient>
  <linearGradient id="E" xlink:href="#D" y1="15" y2="37" x2="0" gradientUnits="userSpaceOnUse"/>
 </defs>
 <path opacity="0.1" id="1" d="m 3,15 0,24 42,0 0,-24 -42,0 0,0 z"/>
 <path fill="#ebebeb" id="2" d="m 3,14 0,24 42,0 0,-24 -42,0 0,0 z"/>
 <path fill="#fff" id="8" d="m 7.056,19.012299 0,1.898062 1.9923132,0 0,-1.898062 -1.9923132,0 z m 1.9923132,1.898062 0,13.223161 1.9591078,0 0,-13.223161 -1.9591078,0 z m 1.9591078,0 1.992313,0 0,-1.898062 -1.992313,0 0,1.898062 z m 0,13.223161 0,1.866478 1.992313,0 0,-1.866478 -1.992313,0 z m -1.9591078,0 -1.9923132,0 0,1.866478 1.9923132,0 0,-1.866478 z"/>
 <path fill="#2e3436" id="9" d="m 7.056,18 0,1.898061 1.9924024,0 0,-1.898061 L 7.056,18 z m 1.9924024,1.898061 0,13.223162 1.9591956,0 0,-13.223162 -1.9591956,0 z m 1.9591956,0 1.992402,0 L 13,18 l -1.992402,0 0,1.898061 z m 0,13.223162 0,1.866478 1.992402,0 0,-1.866478 -1.992402,0 z m -1.9591956,0 -1.9924024,0 0,1.866478 1.9924024,0 0,-1.866478 z"/>
 <path opacity="0.4" fill="none" stroke="#000" id="B" d="m 3.53125,14.53125 0,22.9375 40.9375,0 0,-22.9375 -40.9375,0 z"/>
 <path opacity="0.65" fill="none" stroke="url(#E)" id="C" d="m 4.53125,15.53125 0,20.9375 38.9375,0 0,-20.9375 -38.9375,0 z"/>
 <metadata id="metadata9999">
  <rdf:RDF>
   <cc:Work>
    <dc:format>image/svg+xml</dc:format>
    <dc:type rdf:resource="http://purl.org/dc/dcmitype/StillImage"/>
    <dc:title>Ivy icon theme</dc:title>
    <cc:license rdf:resource="http://creativecommons.org/licenses/by-sa/4.0/"/>
    <dc:creator>
     <cc:Agent>
      <dc:title>Sixsixfive (sixsixfive.deviantart.com)</dc:title>
     </cc:Agent>
    </dc:creator>
    <dc:publisher>
     <cc:Agent>
      <dc:title>Sixsixfive (sixsixfive.deviantart.com)</dc:title>
     </cc:Agent>
    </dc:publisher>
    <dc:source>https://github.com/sixsixfive</dc:source>
    <dc:subject>
     <rdf:Bag>
      <rdf:li>ivy</rdf:li>
     </rdf:Bag>
    </dc:subject>
    <dc:contributor>
     <cc:Agent>
      <dc:title>ssf</dc:title>
     </cc:Agent>
    </dc:contributor>
    <dc:rights>
     <cc:Agent>
      <dc:title>Sixsixfive (sixisixfive.deviantart.com)</dc:title>
     </cc:Agent>
    </dc:rights>
    <dc:description>A simple icon theme published under CC-BY-SA_V4(http://creativecommons.org/licenses/by-sa/4.0)</dc:description>
    <dc:identifier>SSF</dc:identifier>
   </cc:Work>
  </rdf:RDF>
 </metadata>
 <!--Part of the Ivy icon them published under the CC-BY-SA_V4: http://creativecommons.org/licenses/by-sa/4.0 -->
</svg>
