<?xml version="1.0" encoding="UTF-8" standalone="no"?><svg xmlns:rdf="http://www.w3.org/1999/02/22-rdf-syntax-ns#" xmlns:cc="http://creativecommons.org/ns#" xmlns:svg="http://www.w3.org/2000/svg" id="svg2" viewBox="0 0 48 48" version="1.1" xmlns:xlink="http://www.w3.org/1999/xlink" xmlns:dc="http://purl.org/dc/elements/1.1/" xmlns="http://www.w3.org/2000/svg"><defs id="defs4"><linearGradient id="0" x2="0" y2="40.485" y1="10.765" gradientUnits="userSpaceOnUse"><stop id="stop7" stop-color="#fff"/><stop offset="1" id="stop9" stop-color="#fff" stop-opacity="0"/></linearGradient><linearGradient id="1" x2="0" y2="41.29" y1="9.966" gradientUnits="userSpaceOnUse"><stop id="stop12" stop-color="#bababa"/><stop offset="1" id="stop14" stop-color="#ebebeb"/></linearGradient></defs><path id="path3368" opacity="0.1" d="m 44.002139,25.000198 a 20.00007,20.000037 0 1 1 -40.0000211,0 20.00007,20.000037 0 1 1 40.0000211,0 z"/><path id="path23" d="m 44.7458 25.6271 a 16.8814 15.661 0 1 1 -33.7627 0 16.8814 15.661 0 1 1 33.7627 0 z" transform="matrix(1.18474 0 0 1.27706 -9.01 -8.727)" fill="url(#1)"/><g id="g25" stroke-width="0.813" fill="none"><path id="path27" opacity="0.7" d="m 27.875,11.1562 c -8.7313,0 -15.7188,6.51002 -15.7188,14.4688 0,7.95873 6.98745,14.4688 15.7188,14.4688 8.7313,0 15.6875,-6.50717 15.6875,-14.4688 0,-7.96158 -6.9562,-14.4688 -15.6875,-14.4688 z" stroke="url(#0)" transform="matrix(1.18474 0 0 1.27706 -9.01 -8.727)"/><path id="path29" opacity="0.4" d="m 27.875,10.375 c -9.11523,0 -16.5,6.84339 -16.5,15.25 0,8.40661 7.38477,15.25 16.5,15.25 9.11523,0 16.4688,-6.84239 16.4688,-15.25 0,-8.40761 -7.35352,-15.25 -16.4688,-15.25 z" stroke="#000" transform="matrix(1.18474 0 0 1.27706 -9.01 -8.727)"/></g><g id="g31" fill="#fff"><path id="3" d="M 28.1844,23.8816 12.0272,32.5963 12.3465,14.5991 Z" transform="matrix(0.99984 -0.01774 0.01774 0.99984 5.396 2.622)"/></g><g id="g34" fill="#6a6a6a"><use height="48" id="use36" width="48" transform="matrix(1 0 0 1 0 -1)" x="0" xlink:href="#3" y="0"/></g><metadata id="metadata9999"><rdf:RDF><cc:Work><dc:format>image/svg+xml</dc:format><dc:type rdf:resource="http://purl.org/dc/dcmitype/StillImage"/><dc:title>Ivy icon theme</dc:title><cc:license rdf:resource="http://creativecommons.org/licenses/by-sa/4.0/"/><dc:creator><cc:Agent><dc:title>Sixsixfive (sixsixfive.deviantart.com)</dc:title></cc:Agent></dc:creator><dc:publisher><cc:Agent><dc:title>Sixsixfive (sixsixfive.deviantart.com)</dc:title></cc:Agent></dc:publisher><dc:source>https://github.com/sixsixfive</dc:source><dc:subject><rdf:Bag><rdf:li>ivy</rdf:li></rdf:Bag></dc:subject><dc:contributor><cc:Agent><dc:title>ssf</dc:title></cc:Agent></dc:contributor><dc:rights><cc:Agent><dc:title>Sixsixfive (sixisixfive.deviantart.com)</dc:title></cc:Agent></dc:rights><dc:description>A simple icon theme published under CC-BY-SA_V4(http://creativecommons.org/licenses/by-sa/4.0)</dc:description><dc:identifier>SSF</dc:identifier></cc:Work></rdf:RDF></metadata><!--Part of the Ivy icon them published under the CC-BY-SA_V4: http://creativecommons.org/licenses/by-sa/4.0 -->
</svg>