<?xml version="1.0" encoding="UTF-8" standalone="no"?><svg xmlns:cc="http://creativecommons.org/ns#" xmlns:dc="http://purl.org/dc/elements/1.1/" xmlns:svg="http://www.w3.org/2000/svg" xmlns="http://www.w3.org/2000/svg" xmlns:rdf="http://www.w3.org/1999/02/22-rdf-syntax-ns#" id="svg2" version="1.1" viewBox="0 0 48 48"><defs id="defs4"><linearGradient gradientUnits="userSpaceOnUse" y1="43" id="0" y2="19" x2="0"><stop id="stop7" stop-color="#a868d4"/><stop id="stop9" stop-color="#ddc5ee" offset="1"/></linearGradient><linearGradient gradientUnits="userSpaceOnUse" y1="19" id="1" y2="43" x2="0"><stop id="stop12"/><stop id="stop14" offset="1"/></linearGradient><linearGradient gradientUnits="userSpaceOnUse" y1="3" id="2" x1="40" y2="42.969" x2="39.906"><stop id="stop17" stop-color="#fff"/><stop stop-opacity="0" id="stop19" stop-color="#fff" offset="1"/></linearGradient><linearGradient gradientUnits="userSpaceOnUse" y1="3" id="3" y2="44" x2="0"><stop id="stop22" stop-color="#dedede"/><stop id="stop24" stop-color="#f4f4f4" offset="1"/></linearGradient></defs><rect width="34.951" ry="1.209" height="42" rx="1.209" opacity="0.1" id="rect26" y="3" x="6"/><rect width="34.951" ry="1.209" height="42" rx="1.209" id="rect28" y="2" x="5.986" fill="url(#3)"/><path stroke="url(#2)" opacity="0.78" d="m 7.5312 3.5312 v 38.9375 h 31.875 v -38.9375 H 7.5312 z" id="path30" fill="none"/><g transform="matrix(-1 0 0 -1 47.937 45.906)" id="g32"><path d="M 11.9626,32 19,32 l 0,11 10.0841,0 0,-11 6.9533,0 L 24,19 Z" id="path34" fill="url(#0)"/><g id="g36" fill="none"><path stroke="url(#1)" opacity="0.4" d="M 24,19.9375 13.4062,31.375 19,31.375 A 0.634167,0.634167 0 0 1 19.625,32 l 0,10.375 8.84375,0 0,-10.375 a 0.634167,0.634167 0 0 1 0.625,-0.625 l 5.5,0 -10.5938,-11.4375 z" id="path38"/><path stroke="#fff" opacity="0.693" d="m 23.9375,18.5938 a 0.404937,0.404937 0 0 0 -0.25,0.125 l -12.0312,13 a 0.404937,0.404937 0 0 0 0.3125,0.6875 l 6.625,0 0,10.5938 a 0.404937,0.404937 0 0 0 0.40625,0.40625 l 10.0938,0 A 0.404937,0.404937 0 0 0 29.5001,43.0001 l 0,-10.5938 6.53125,0 a 0.404937,0.404937 0 0 0 0.3125,-0.6875 l -12.0312,-13 a 0.404937,0.404937 0 0 0 -0.375,-0.125 z" id="path40"/></g></g><path stroke="#000" opacity="0.4" d="M 7.1875 2.5 C 6.783721 2.5 6.5 2.799839 6.5 3.21875 v 39.5625 C 6.5 43.20016 6.783721 43.5 7.1875 43.5 h 32.53125 c 0.40378 0 0.71875 -0.31497 0.71875 -0.71875 v -39.5625 C 40.4375 2.814971 40.12253 2.5 39.71875 2.5 H 7.1875 z" id="path42" fill="none"/><metadata id="metadata9999"><rdf:RDF><cc:Work><dc:format>image/svg+xml</dc:format><dc:type rdf:resource="http://purl.org/dc/dcmitype/StillImage"/><dc:title>Ivy icon theme</dc:title><cc:license rdf:resource="http://creativecommons.org/licenses/by-sa/4.0/"/><dc:creator><cc:Agent><dc:title>Sixsixfive (sixsixfive.deviantart.com)</dc:title></cc:Agent></dc:creator><dc:publisher><cc:Agent><dc:title>Sixsixfive (sixsixfive.deviantart.com)</dc:title></cc:Agent></dc:publisher><dc:source>https://github.com/sixsixfive</dc:source><dc:subject><rdf:Bag><rdf:li>ivy</rdf:li></rdf:Bag></dc:subject><dc:contributor><cc:Agent><dc:title>ssf</dc:title></cc:Agent></dc:contributor><dc:rights><cc:Agent><dc:title>Sixsixfive (sixisixfive.deviantart.com)</dc:title></cc:Agent></dc:rights><dc:description>A simple icon theme published under CC-BY-SA_V4(http://creativecommons.org/licenses/by-sa/4.0)</dc:description><dc:identifier>SSF</dc:identifier></cc:Work></rdf:RDF></metadata><!--Part of the Ivy icon them published under the CC-BY-SA_V4: http://creativecommons.org/licenses/by-sa/4.0 -->
</svg>