<?xml version="1.0" encoding="UTF-8" standalone="no"?>
<svg xmlns:dc="http://purl.org/dc/elements/1.1/" xmlns:cc="http://creativecommons.org/ns#" xmlns:rdf="http://www.w3.org/1999/02/22-rdf-syntax-ns#" xmlns:svg="http://www.w3.org/2000/svg" xmlns="http://www.w3.org/2000/svg" version="1.1" id="svg2" viewBox="0 0 48 48">
 <defs id="defs4">
  <linearGradient gradientUnits="userSpaceOnUse" x2="0" y2="41.28" y1="5.158" id="0">
   <stop id="stop7" stop-color="#fff"/>
   <stop id="stop9" stop-opacity="0" stop-color="#fff" offset="1"/>
  </linearGradient>
  <linearGradient gradientUnits="userSpaceOnUse" x2="0" y2="4.22" y1="42.22" id="1">
   <stop id="stop12" stop-color="#ddd"/>
   <stop id="stop14" stop-color="#fff" offset="1"/>
  </linearGradient>
 </defs>
 <path id="path16" d="M 4,5.22 H44 V43.22 H4 z" opacity="0.1"/>
 <path id="path18" d="M 4,4.22 H44 V42.22 H4 z" fill="url(#1)"/>
 <g id="g20" fill="none">
  <path id="path22" d="m 4.468728,4.688542 0,37.0625 39.0625,0 0,-37.0625 -39.0625,0 z" opacity="0.4" stroke="#000"/>
  <path id="path24" d="m 5.437528,5.657342 0,35.125 37.125,0 0,-35.125 -37.125,0 z" opacity="0.4" stroke="url(#0)"/>
 </g>
 <g id="g26" fill="#171717">
  <path id="path28" d="m 30,8 10,0 0,10 C 30.07091,7.933908 40.05827,18.04765 30,8 Z" opacity="0.7"/>
  <path id="path30" d="M 8,8 18,8 C 7.9339,18.024 18.14254,8.03662 8,18 Z" opacity="0.7"/>
  <path id="path32" d="m 40,28 0,10 -10,0 C 40.161,27.976 30.04724,37.96338 40,28 Z" opacity="0.7"/>
  <path id="path34" d="M 8,28 C 18.1189,38.161 8.03662,27.95235 18,38 L 8,38 Z" opacity="0.7"/>
 </g>
 <metadata id="metadata9999">
  <rdf:RDF>
   <cc:Work>
    <dc:format>image/svg+xml</dc:format>
    <dc:type rdf:resource="http://purl.org/dc/dcmitype/StillImage"/>
    <dc:title>Ivy icon theme</dc:title>
    <cc:license rdf:resource="http://creativecommons.org/licenses/by-sa/4.0/"/>
    <dc:creator>
     <cc:Agent>
      <dc:title>Sixsixfive (sixsixfive.deviantart.com)</dc:title>
     </cc:Agent>
    </dc:creator>
    <dc:publisher>
     <cc:Agent>
      <dc:title>Sixsixfive (sixsixfive.deviantart.com)</dc:title>
     </cc:Agent>
    </dc:publisher>
    <dc:source>https://github.com/sixsixfive</dc:source>
    <dc:subject>
     <rdf:Bag>
      <rdf:li>ivy</rdf:li>
     </rdf:Bag>
    </dc:subject>
    <dc:contributor>
     <cc:Agent>
      <dc:title>ssf</dc:title>
     </cc:Agent>
    </dc:contributor>
    <dc:rights>
     <cc:Agent>
      <dc:title>Sixsixfive (sixisixfive.deviantart.com)</dc:title>
     </cc:Agent>
    </dc:rights>
    <dc:description>A simple icon theme published under CC-BY-SA_V4(http://creativecommons.org/licenses/by-sa/4.0)</dc:description>
    <dc:identifier>SSF</dc:identifier>
   </cc:Work>
  </rdf:RDF>
 </metadata>
 <!--Part of the Ivy icon them published under the CC-BY-SA_V4: http://creativecommons.org/licenses/by-sa/4.0 -->
</svg>
