<?xml version="1.0" encoding="UTF-8" standalone="no"?><svg viewBox="0 0 48 48" xmlns="http://www.w3.org/2000/svg" xmlns:svg="http://www.w3.org/2000/svg" xmlns:rdf="http://www.w3.org/1999/02/22-rdf-syntax-ns#" version="1.1" id="svg2" xmlns:dc="http://purl.org/dc/elements/1.1/" xmlns:cc="http://creativecommons.org/ns#"><defs id="defs4"><linearGradient y1="2" x2="0" y2="32" id="0" gradientUnits="userSpaceOnUse"><stop id="stop7" stop-color="#fff"/><stop stop-opacity="0" offset="1" id="stop9" stop-color="#fff"/></linearGradient><linearGradient y1="44" x2="0" y2="2" id="1" gradientUnits="userSpaceOnUse"><stop id="stop12" stop-color="#87c863"/><stop offset="1" id="stop14" stop-color="#66b03e"/></linearGradient></defs><path opacity="0.1" id="path16" d="M 17 3 L 1 17.96875 L 17 33 V 24 H 27 V 38.9375 V 45 H 39 V 24 V 18.0625 C 39 14.703157 36.324 12 33 12 32.844058 12 32.68413 12.01956 32.53125 12.03125 32.363859 12.01435 32.20324 12 32.03125 12 H 17 V 3 z"/><path id="path18" d="M 17 2 L 1 16.96875 L 17 32 V 23 H 27 V 37.9375 V 44 H 39 V 23 V 17.0625 C 39 13.703157 36.324 11 33 11 32.844058 11 32.68413 11.01956 32.53125 11.03125 32.363859 11.01435 32.20324 11 32.03125 11 H 17 V 2 z" fill="url(#1)"/><g id="g20" fill="none"><path stroke="#000" opacity="0.4" id="path22" d="M 16.5,3.125 1.7188,16.9688 16.5,30.875 16.5,23 A 0.489973,0.489973 0 0 1 17,22.5 l 10,0 a 0.489973,0.489973 0 0 1 0.5,0.5 l 0,14.9375 0,5.5625 11,0 0,-20.5 0,-5.9375 C 38.5,13.96333 36.05839,11.5 33,11.5 c -0.11498,0 -0.269107,0.01837 -0.4375,0.03125 a 0.489973,0.489973 0 0 1 -0.09375,0 C 32.304938,11.514713 32.175987,11.5 32.03125,11.5 l -15.0312,0 a 0.489973,0.489973 0 0 1 -0.5,-0.5 l 0,-7.875 z"/><path stroke="url(#0)" opacity="0.651" id="path24" d="m 15.5,5.4688 -12.3125,11.5 12.3125,11.5625 0,-5.5312 a 1.49819,1.49819 0 0 1 1.5,-1.5 l 10,0 a 1.49819,1.49819 0 0 1 1.5,1.5 l 0,14.9375 0,4.5625 9,0 0,-19.5 0,-5.9375 c 0,-2.5638 -1.98816,-4.5625 -4.5,-4.5625 -0.03069,0 -0.143437,0.01593 -0.34375,0.03125 a 1.49819,1.49819 0 0 1 -0.28125,0 C 32.218551,12.515557 32.119906,12.5001 32.03125,12.5001 l -15.0312,0 a 1.49819,1.49819 0 0 1 -1.5,-1.5 l 0,-5.53125 z"/></g><metadata id="metadata9999"><rdf:RDF><cc:Work><dc:format>image/svg+xml</dc:format><dc:type rdf:resource="http://purl.org/dc/dcmitype/StillImage"/><dc:title>Ivy icon theme</dc:title><cc:license rdf:resource="http://creativecommons.org/licenses/by-sa/4.0/"/><dc:creator><cc:Agent><dc:title>Sixsixfive (sixsixfive.deviantart.com)</dc:title></cc:Agent></dc:creator><dc:publisher><cc:Agent><dc:title>Sixsixfive (sixsixfive.deviantart.com)</dc:title></cc:Agent></dc:publisher><dc:source>https://github.com/sixsixfive</dc:source><dc:subject><rdf:Bag><rdf:li>ivy</rdf:li></rdf:Bag></dc:subject><dc:contributor><cc:Agent><dc:title>ssf</dc:title></cc:Agent></dc:contributor><dc:rights><cc:Agent><dc:title>Sixsixfive (sixisixfive.deviantart.com)</dc:title></cc:Agent></dc:rights><dc:description>A simple icon theme published under CC-BY-SA_V4(http://creativecommons.org/licenses/by-sa/4.0)</dc:description><dc:identifier>SSF</dc:identifier></cc:Work></rdf:RDF></metadata><!--Part of the Ivy icon them published under the CC-BY-SA_V4: http://creativecommons.org/licenses/by-sa/4.0 -->
</svg>