<?xml version="1.0" encoding="UTF-8" standalone="no"?><svg xmlns:cc="http://creativecommons.org/ns#" xmlns:svg="http://www.w3.org/2000/svg" xmlns:dc="http://purl.org/dc/elements/1.1/" xmlns="http://www.w3.org/2000/svg" xmlns:rdf="http://www.w3.org/1999/02/22-rdf-syntax-ns#" id="svg2" version="1.1" xmlns:xlink="http://www.w3.org/1999/xlink" viewBox="0 0 48 48"><defs id="defs4"><linearGradient id="0"><stop id="stop7"/><stop stop-opacity="0" id="stop9" offset="1"/></linearGradient><linearGradient gradientUnits="userSpaceOnUse" y1="5" id="1" y2="43" x2="0"><stop id="stop12" stop-color="#66b03e"/><stop id="stop14" stop-color="#95ce76" offset="1"/></linearGradient><linearGradient gradientTransform="matrix(0 0.99505 1.01964 0 -0.984 0.068)" gradientUnits="userSpaceOnUse" id="2" x1="5.962" x2="41.14"><stop id="stop17" stop-color="#fff"/><stop stop-opacity="0" id="stop19" stop-color="#fff" offset="1"/></linearGradient><radialGradient cy="46.5" gradientTransform="matrix(-0.50369 0 0 0.14286 48.949 36.39)" cx="32" gradientUnits="userSpaceOnUse" r="7" xlink:href="#0" id="3"/><radialGradient cy="46.5" gradientTransform="matrix(-0.50369 0 0 0.14286 31.696 36.39)" cx="32" gradientUnits="userSpaceOnUse" r="7" xlink:href="#0" id="4"/></defs><path opacity="0.079" d="m 12.0526 43.0372 a 3.52583 1 0 0 0 7.05166 0 3.52583 1 0 1 0 -7.05166 0 z" id="path23" fill="url(#4)"/><path d="m 2.986,24.9752 1.7029,0.0186 10.5723,0.1154 0,17.873 8.7391,-7.0005 8.9177,7.0005 0,-17.873 12.2082,0 L 23.9231,5.0656 z" id="path25" fill="url(#1)"/><g stroke-width="1.01" id="g27" fill="none"><path stroke="#000" opacity="0.4" d="M 4.2738,24.5394 23.9655,5.6957 43.721,24.5394 l -10.8974,0 c -0.25079,-0.0019 -0.479926,0.221687 -0.477955,0.466428 l 0.0717,16.8396 -8.3921,-6.5262 -8.3045,6.5979 -0.0717,-16.9113 c 0.002,-0.244741 -0.227164,-0.468351 -0.477954,-0.466428 z" id="path29"/><path stroke="url(#2)" opacity="0.4" d="m 6.4724,23.6688 17.4932,-16.7603 17.5569,16.7603 -8.69878,0 c -0.339042,0.0091 -0.663349,0.224241 -0.796591,0.528618 -0.01062,-1.85e-4 -0.02124,-1.85e-4 -0.03186,0 -1.9e-4,0.01037 -1.9e-4,0.02073 0,0.0311 -0.3119,0.130028 -0.532429,0.446514 -0.541682,0.777379 l 0,14.7497 -7.4282,-5.6656 -7.3406,5.9525 -0.1434,-15.0366 c -0.0093,-0.330865 -0.229783,-0.647351 -0.541683,-0.777379 -0.01035,-0.01062 -0.02098,-0.02099 -0.03186,-0.0311 -0.13325,-0.304377 -0.457557,-0.519588 -0.796599,-0.528618 z" id="path31"/></g><path opacity="0.079" d="m 29.3054 43.0372 a 3.52583 1 0 0 0 7.05166 0 3.52583 1 0 1 0 -7.05166 0 z" id="path33" fill="url(#3)"/><metadata id="metadata9999"><rdf:RDF><cc:Work><dc:format>image/svg+xml</dc:format><dc:type rdf:resource="http://purl.org/dc/dcmitype/StillImage"/><dc:title>Ivy icon theme</dc:title><cc:license rdf:resource="http://creativecommons.org/licenses/by-sa/4.0/"/><dc:creator><cc:Agent><dc:title>Sixsixfive (sixsixfive.deviantart.com)</dc:title></cc:Agent></dc:creator><dc:publisher><cc:Agent><dc:title>Sixsixfive (sixsixfive.deviantart.com)</dc:title></cc:Agent></dc:publisher><dc:source>https://github.com/sixsixfive</dc:source><dc:subject><rdf:Bag><rdf:li>ivy</rdf:li></rdf:Bag></dc:subject><dc:contributor><cc:Agent><dc:title>ssf</dc:title></cc:Agent></dc:contributor><dc:rights><cc:Agent><dc:title>Sixsixfive (sixisixfive.deviantart.com)</dc:title></cc:Agent></dc:rights><dc:description>A simple icon theme published under CC-BY-SA_V4(http://creativecommons.org/licenses/by-sa/4.0)</dc:description><dc:identifier>SSF</dc:identifier></cc:Work></rdf:RDF></metadata><!--Part of the Ivy icon them published under the CC-BY-SA_V4: http://creativecommons.org/licenses/by-sa/4.0 -->
</svg>