<?xml version="1.0" encoding="UTF-8" standalone="no"?><svg xmlns:cc="http://creativecommons.org/ns#" xmlns:svg="http://www.w3.org/2000/svg" xmlns:dc="http://purl.org/dc/elements/1.1/" xmlns="http://www.w3.org/2000/svg" xmlns:rdf="http://www.w3.org/1999/02/22-rdf-syntax-ns#" id="svg2" version="1.1" viewBox="0 0 48 48"><defs id="defs4"><linearGradient gradientUnits="userSpaceOnUse" y1="7.846" id="0" x1="45.03" y2="60.04" x2="47.47"><stop id="stop7" stop-color="#fff"/><stop stop-opacity="0" id="stop9" stop-color="#fff" offset="1"/></linearGradient><linearGradient gradientUnits="userSpaceOnUse" y1="44.908" id="1" y2="6.908" x2="0"><stop id="stop12" stop-color="#ddd"/><stop id="stop14" stop-color="#fff" offset="1"/></linearGradient><radialGradient cy="44.881" gradientTransform="matrix(0.94141 0 0 0.06457 3.389 42.1)" cx="23.985" gradientUnits="userSpaceOnUse" r="23.23" id="2"><stop stop-opacity="0.2" id="stop17"/><stop stop-opacity="0" id="stop19" offset="1"/></radialGradient></defs><g transform="matrix(1 0 0 1 -1.969 -2.688)" id="g21"><path d="m 47.8396,45.0003 a 21.87095,1.500003 0 0 1 -43.7419,0 21.87095,1.500003 0 1 1 43.7419,0 z" id="path23" fill="url(#2)"/><path d="m 5.969,6.908 40,0 0,38 -40,0 z" id="path25" fill="url(#1)"/><g id="g27" fill="none"><path stroke="#000" opacity="0.4" d="m 6.4374,7.377 0,37.0625 39.0625,0 0,-37.0625 -39.0625,0 z" id="path29"/><path stroke="url(#0)" d="m 7.4062,8.3458 0,35.125 37.125,0 0,-35.125 -37.125,0 z" id="path31"/></g></g><path d="m 39 10 v 4 h -25 v -4 h 25 z m 0 8 v 4 h -12 v -4 h 12 z m 0 8 v 4 h -20 v -4 h 20 z m 0 8 v 4 H 9 v -4 h 30 z" id="path33" fill="#fff"/><g transform="matrix(-1 0 0 1 0 0)" id="g35" fill="#171717"><path opacity="0.7" d="m -39,9 25,0 0,4 -25,0 z" id="path37"/><path opacity="0.7" d="m -39,17 12,0 0,4 -12,0 z" id="path39"/><path opacity="0.7" d="m -39,25 20,0 0,4 -20,0 z" id="path41"/><path opacity="0.7" d="m -39,33 30,0 0,4 -30,0 z" id="path43"/></g><metadata id="metadata9999"><rdf:RDF><cc:Work><dc:format>image/svg+xml</dc:format><dc:type rdf:resource="http://purl.org/dc/dcmitype/StillImage"/><dc:title>Ivy icon theme</dc:title><cc:license rdf:resource="http://creativecommons.org/licenses/by-sa/4.0/"/><dc:creator><cc:Agent><dc:title>Sixsixfive (sixsixfive.deviantart.com)</dc:title></cc:Agent></dc:creator><dc:publisher><cc:Agent><dc:title>Sixsixfive (sixsixfive.deviantart.com)</dc:title></cc:Agent></dc:publisher><dc:source>https://github.com/sixsixfive</dc:source><dc:subject><rdf:Bag><rdf:li>ivy</rdf:li></rdf:Bag></dc:subject><dc:contributor><cc:Agent><dc:title>ssf</dc:title></cc:Agent></dc:contributor><dc:rights><cc:Agent><dc:title>Sixsixfive (sixisixfive.deviantart.com)</dc:title></cc:Agent></dc:rights><dc:description>A simple icon theme published under CC-BY-SA_V4(http://creativecommons.org/licenses/by-sa/4.0)</dc:description><dc:identifier>SSF</dc:identifier></cc:Work></rdf:RDF></metadata><!--Part of the Ivy icon them published under the CC-BY-SA_V4: http://creativecommons.org/licenses/by-sa/4.0 -->
</svg>