<?xml version="1.0" encoding="UTF-8" standalone="no"?><svg xmlns:svg="http://www.w3.org/2000/svg" xmlns="http://www.w3.org/2000/svg" viewBox="0 0 48 48" xmlns:rdf="http://www.w3.org/1999/02/22-rdf-syntax-ns#" xmlns:xlink="http://www.w3.org/1999/xlink" version="1.1" id="svg2" xmlns:dc="http://purl.org/dc/elements/1.1/" xmlns:cc="http://creativecommons.org/ns#"><defs id="defs4"><linearGradient x1="47.784" y1="7.459" x2="46.766" y2="-1.822" id="0" gradientUnits="userSpaceOnUse"><stop id="stop7" stop-color="#5288d1"/><stop offset="1" id="stop9" stop-color="#75a0da"/></linearGradient><linearGradient x1="48.736" xlink:href="#4" y1="-6.612" x2="70.5" y2="7.909" id="1" gradientUnits="userSpaceOnUse"/><linearGradient x1="21.969" xlink:href="#4" y1="15.03" x2="22.08" y2="17.667" id="2" gradientUnits="userSpaceOnUse"/><linearGradient y1="3.969" x2="0" y2="34.03" id="3" gradientUnits="userSpaceOnUse"><stop id="stop14" stop-color="#959595"/><stop offset="1" id="stop16" stop-color="#e2e2e2"/></linearGradient><linearGradient id="4"><stop id="stop19" stop-color="#fff"/><stop stop-opacity="0" offset="1" id="stop21" stop-color="#fff"/></linearGradient><linearGradient xlink:href="#4" y1="5" x2="0" y2="34" id="5" gradientUnits="userSpaceOnUse"/></defs><path opacity="0.1" id="path24" d="m 18 4.9692 c -8.29815 0 -15.0312 6.7331 -15.0312 15.0312 0 8.29815 6.7331 15.0312 15.0312 15.0312 2.8277 0 5.45901 -0.797059 7.71875 -2.15625 0.118306 0.131519 0.233971 0.255421 0.375 0.375 l 14 11.9062 c 1.69235 1.43495 4.34882 1.35997 5.96875 -0.15625 l 0.7812 -0.7188 c 1.62043 -1.5167 1.59999 -3.90762 -0.09375 -5.34375 l -14.0312 -11.9062 c -0.343258 -0.29105 -0.717761 -0.489559 -1.125 -0.65625 0.912415 -1.93911 1.4375 -4.09099 1.4375 -6.375 0 -8.29815 -6.7331 -15.0312 -15.0312 -15.0312 z m 0 5.0625 c 1.7214 0 3.33746 0.42048 4.75 1.1875 0.0081 0.0044 0.02315 -0.0044 0.03125 0 0.274179 0.149843 0.523491 0.32591 0.78125 0.5 0.0074 0.005 0.02383 -0.005 0.03125 0 1.05207 0.714307 1.9757 1.66485 2.6875 2.71875 0.174017 0.259075 0.35035 0.505769 0.5 0.78125 0.775015 1.4181 1.1875 3.05025 1.1875 4.78125 0 1.7214 -0.420481 3.33746 -1.1875 4.75 -0.0044 0.0081 0.0044 0.02315 0 0.03125 -0.149843 0.274179 -0.325909 0.523491 -0.5 0.78125 -0.005 0.0074 0.005 0.02383 0 0.03125 -1.7926 2.64024 -4.84718 4.375 -8.28125 4.375 -1.731 0 -3.36315 -0.412485 -4.78125 -1.1875 -0.275481 -0.14965 -0.522175 -0.325983 -0.78125 -0.5 -1.0539 -0.711805 -2.00444 -1.63543 -2.71875 -2.6875 -0.00501 -0.0074 0.00499 -0.02382 0 -0.03125 -0.174091 -0.257759 -0.350157 -0.507071 -0.5 -0.78125 -0.0044 -0.0081 0.00438 -0.02314 0 -0.03125 -0.767019 -1.41254 -1.1875 -3.0286 -1.1875 -4.75 0 -1.731 0.412485 -3.36315 1.1875 -4.78125 0.14965 -0.275481 0.325983 -0.522175 0.5 -0.78125 0.711805 -1.0539 1.63543 -2.00444 2.6875 -2.71875 0.273602 -0.184842 0.551781 -0.342439 0.84375 -0.5 1.41254 -0.767018 3.0286 -1.1875 4.75 -1.1875 z m 0 3.9687 c -3.31371 0 -6 2.68629 -6 6 0 3.31371 2.68629 6 6 6 3.31371 0 6 -2.68629 6 -6 0 -3.31371 -2.68629 -6 -6 -6 z"/><rect y="-1.235" x="37.722" ry="3.941" rx="3.941" height="8.966" id="rect26" transform="matrix(0.76273 0.64672 -0.73009 0.68335 0 0)" width="26.26" fill="url(#0)"/><g id="g28" transform="matrix(0.76273 0.64672 -0.73009 0.68335 0 0)" fill="none"><path stroke="#000" opacity="0.6" id="path30" d="m 41.6562,-0.8125 c -1.9515,0 -3.5,1.5757 -3.5,3.53125 l 0,1.0625 c 0,1.95555 1.54445,3.5 3.5,3.5 l 18.375,0 c 1.95555,0 3.5,-1.54445 3.5,-3.5 l 0,-1.0625 c 0,-1.95555 -1.5485,-3.53125 -3.5,-3.53125 l -18.375,0 z"/><path stroke="url(#1)" opacity="0.66" id="path32" d="m 41.6562,0.1875 c -1.39129,0 -2.5,1.12611 -2.5,2.53125 l 0,1.0625 c 0,1.40514 1.09486,2.5 2.5,2.5 l 18.375,0 c 1.40514,0 2.5,-1.09486 2.5,-2.5 l 0,-1.0625 c 0,-1.40514 -1.10871,-2.53125 -2.5,-2.53125 l -18.375,0 z"/></g><path id="path34" d="m 18 3.9994 c -8.28427 0 -15 6.71573 -15 15 0 8.28427 6.71573 15 15 15 8.28427 0 15 -6.71573 15 -15 0 -8.28427 -6.71573 -15 -15 -15 z m 0 5 c 5.52285 0 10 4.47715 10 10 0 5.52285 -4.47715 10 -10 10 -5.52285 0 -10 -4.47715 -10 -10 0 -5.52285 4.47715 -10 10 -10 z" fill="url(#3)"/><path stroke="#000" opacity="0.4" id="path36" d="M 18 4.4688 C 9.97186 4.4688 3.4688 10.97191 3.4688 19 3.4688 27.02814 9.97191 33.5312 18 33.5312 26.02814 33.5312 32.5312 27.02809 32.5312 19 32.5312 10.97186 26.02809 4.4688 18 4.4688 z m 0 4.0625 c 5.77898 0 10.4688 4.68977 10.4688 10.4688 0 5.77898 -4.68977 10.4688 -10.4688 10.4688 -5.77898 0 -10.4688 -4.68977 -10.4688 -10.4688 C 7.5312 13.22112 12.22097 8.5313 18 8.5313 z" fill="#ebebeb"/><path stroke="url(#5)" id="path38" d="M 18 5.4688 C 10.51245 5.4688 4.4688 11.5125 4.4688 19 4.4688 26.48755 10.5125 32.5312 18 32.5312 25.48755 32.5312 31.5312 26.4875 31.5312 19 31.5312 11.51245 25.4875 5.4688 18 5.4688 z m 0 2.0625 c 6.31957 0 11.4688 5.14917 11.4688 11.4688 0 6.31958 -5.14918 11.4688 -11.4688 11.4688 -6.31957 0 -11.4688 -5.14917 -11.4688 -11.4688 C 6.5312 12.68052 11.68038 7.5313 18 7.5313 z" fill="none"/><g id="g40" transform="matrix(1.09091 0 0 1.09091 -1.091 -2.273)"><path id="path42" d="m 23,19.5 a 5.5,5.5 0 1 1 -11,0 5.5,5.5 0 1 1 11,0 z" fill="#6a6a6a"/><g id="g44" fill="none"><path stroke="#000" opacity="0.6" id="path46" d="m 17.5,14.5312 c -2.74561,0 -4.96875,2.22314 -4.96875,4.96875 0,2.74561 2.22314,4.96875 4.96875,4.96875 2.74561,0 4.96875,-2.22314 4.96875,-4.96875 0,-2.74561 -2.22314,-4.96875 -4.96875,-4.96875 z"/><path stroke="url(#2)" opacity="0.43" id="path48" d="m 17.5,15.5312 c -2.21523,0 -3.96875,1.75352 -3.96875,3.96875 0,2.21523 1.75352,3.96875 3.96875,3.96875 2.21523,0 3.96875,-1.75352 3.96875,-3.96875 0,-2.21523 -1.75352,-3.96875 -3.96875,-3.96875 z"/></g></g><metadata id="metadata9999"><rdf:RDF><cc:Work><dc:format>image/svg+xml</dc:format><dc:type rdf:resource="http://purl.org/dc/dcmitype/StillImage"/><dc:title>Ivy icon theme</dc:title><cc:license rdf:resource="http://creativecommons.org/licenses/by-sa/4.0/"/><dc:creator><cc:Agent><dc:title>Sixsixfive (sixsixfive.deviantart.com)</dc:title></cc:Agent></dc:creator><dc:publisher><cc:Agent><dc:title>Sixsixfive (sixsixfive.deviantart.com)</dc:title></cc:Agent></dc:publisher><dc:source>https://github.com/sixsixfive</dc:source><dc:subject><rdf:Bag><rdf:li>ivy</rdf:li></rdf:Bag></dc:subject><dc:contributor><cc:Agent><dc:title>ssf</dc:title></cc:Agent></dc:contributor><dc:rights><cc:Agent><dc:title>Sixsixfive (sixisixfive.deviantart.com)</dc:title></cc:Agent></dc:rights><dc:description>A simple icon theme published under CC-BY-SA_V4(http://creativecommons.org/licenses/by-sa/4.0)</dc:description><dc:identifier>SSF</dc:identifier></cc:Work></rdf:RDF></metadata><!--Part of the Ivy icon them published under the CC-BY-SA_V4: http://creativecommons.org/licenses/by-sa/4.0 -->
</svg>