<?xml version="1.0" encoding="UTF-8" standalone="no"?>
<svg xmlns:dc="http://purl.org/dc/elements/1.1/" xmlns:cc="http://creativecommons.org/ns#" xmlns:rdf="http://www.w3.org/1999/02/22-rdf-syntax-ns#" xmlns:svg="http://www.w3.org/2000/svg" xmlns="http://www.w3.org/2000/svg" xmlns:xlink="http://www.w3.org/1999/xlink" viewBox="0 0 48 48" id="svg2" version="1.1">
 <defs id="defs4">
  <path fill="url(#9)" id="1" d="M 15 13 A 5 5 0 1 1 5 13 5 5 0 1 1 15 13 z"/>
  <path opacity="0.4" fill="none" stroke="#000" id="2" d="m 10 8.5312 c -2.47675 0 -4.46875 1.992 -4.46875 4.46875 0 2.47675 1.992 4.46875 4.46875 4.46875 2.47675 0 4.46875 -1.992 4.46875 -4.46875 0 -2.47675 -1.992 -4.46875 -4.46875 -4.46875 z"/>
  <linearGradient id="3" xlink:href="#6" y1="9" y2="17" x2="0" gradientUnits="userSpaceOnUse"/>
  <linearGradient id="4" xlink:href="#6" y1="9" y2="37" x2="0" gradientUnits="userSpaceOnUse"/>
  <linearGradient id="5">
   <stop stop-opacity="0.2" id="stop11"/>
   <stop offset="1" stop-opacity="0" id="stop13"/>
  </linearGradient>
  <linearGradient id="6">
   <stop stop-color="#fff" id="stop16"/>
   <stop offset="1" stop-color="#fff" stop-opacity="0" id="stop18"/>
  </linearGradient>
  <radialGradient cx="12.547" cy="45.25" r="8.655" id="7" xlink:href="#5" gradientUnits="userSpaceOnUse" gradientTransform="matrix(0.35271 0 0 0.11459 8.575 38.916)"/>
  <radialGradient cx="12.577" cy="44.784" r="8.655" id="8" xlink:href="#5" gradientUnits="userSpaceOnUse" gradientTransform="matrix(1.21822 0 0 0.10872 20.36 39.13)"/>
  <radialGradient cx="9.683" cy="17.401" r="5" id="9" gradientUnits="userSpaceOnUse" gradientTransform="matrix(1.01219 -0.36807 0.8 2.2 -13.722 -16.719)">
   <stop stop-color="#66b03e" id="stop23"/>
   <stop offset="1" stop-color="#7bc454" id="stop25"/>
  </radialGradient>
 </defs>
 <path opacity="0.802" fill="url(#8)" d="m 46.248 44.0505 a 10.15855 0.941062 0 0 1 -20.3171 0 10.15855 0.941062 0 1 1 20.3171 0 z" id="path27"/>
 <path fill="url(#7)" d="m 16.0528 44.1016 a 3.05285 0.99187 0 0 1 -6.10569 0 3.05285 0.99187 0 1 1 6.10569 0 z" id="path29"/>
 <path fill="#5288d1" d="m 28.9939,4.003 14.3075,40 -14.3014,0 -0.0061,-40 z" id="path31"/>
 <use xlink:href="#1" transform="matrix(1 0 0 1 3 11)" id="use33"/>
 <g stroke-miterlimit="43.799999" id="g35" fill="none">
  <path d="m 29.5352,6.9322 0,36.636 13.2556,0 -13.2556,-36.636 z" id="path37" opacity="0.4" stroke="#000" stroke-width="0.994"/>
  <path d="m 30.538,12.378 0,30.1875 10.8125,0 L 30.538,12.378 Z" id="path39" opacity="0.4" stroke="url(#4)"/>
 </g>
 <g transform="translate(3,11)" id="g41">
  <use xlink:href="#2" id="use43" x="0" y="0" width="48" height="48"/>
  <use xlink:href="#0" transform="translate(-3,4)" id="use45" x="0" y="0" width="48" height="48"/>
 </g>
 <use xlink:href="#1" transform="matrix(1 0 0 1 3 -4)" id="use47"/>
 <use xlink:href="#2" transform="matrix(1 0 0 1 3 -4)" id="use49"/>
 <path opacity="0.4" fill="none" stroke="url(#3)" id="0" d="m 10 9.5312 c -1.94005 0 -3.46875 1.5287 -3.46875 3.46875 0 1.94005 1.5287 3.46875 3.46875 3.46875 1.94005 0 3.46875 -1.5287 3.46875 -3.46875 C 13.46875 11.0599 11.94005 9.5312 10 9.5312 z" transform="matrix(1 0 0 1 3 -4)"/>
 <use xlink:href="#1" transform="matrix(1 0 0 1 3 26)" id="use52"/>
 <use xlink:href="#2" transform="matrix(1 0 0 1 3 26)" id="use54"/>
 <use xlink:href="#0" transform="matrix(1 0 0 1 0 30)" id="use56"/>
 <metadata id="metadata9999">
  <rdf:RDF>
   <cc:Work>
    <dc:format>image/svg+xml</dc:format>
    <dc:type rdf:resource="http://purl.org/dc/dcmitype/StillImage"/>
    <dc:title>Ivy icon theme</dc:title>
    <cc:license rdf:resource="http://creativecommons.org/licenses/by-sa/4.0/"/>
    <dc:creator>
     <cc:Agent>
      <dc:title>Sixsixfive (sixsixfive.deviantart.com)</dc:title>
     </cc:Agent>
    </dc:creator>
    <dc:publisher>
     <cc:Agent>
      <dc:title>Sixsixfive (sixsixfive.deviantart.com)</dc:title>
     </cc:Agent>
    </dc:publisher>
    <dc:source>https://github.com/sixsixfive</dc:source>
    <dc:subject>
     <rdf:Bag>
      <rdf:li>ivy</rdf:li>
     </rdf:Bag>
    </dc:subject>
    <dc:contributor>
     <cc:Agent>
      <dc:title>ssf</dc:title>
     </cc:Agent>
    </dc:contributor>
    <dc:rights>
     <cc:Agent>
      <dc:title>Sixsixfive (sixisixfive.deviantart.com)</dc:title>
     </cc:Agent>
    </dc:rights>
    <dc:description>A simple icon theme published under CC-BY-SA_V4(http://creativecommons.org/licenses/by-sa/4.0)</dc:description>
    <dc:identifier>SSF</dc:identifier>
   </cc:Work>
  </rdf:RDF>
 </metadata>
 <!--Part of the Ivy icon them published under the CC-BY-SA_V4: http://creativecommons.org/licenses/by-sa/4.0 -->
</svg>
