<?xml version="1.0" encoding="UTF-8" standalone="no"?>
<svg xmlns:dc="http://purl.org/dc/elements/1.1/" xmlns:cc="http://creativecommons.org/ns#" xmlns:rdf="http://www.w3.org/1999/02/22-rdf-syntax-ns#" xmlns:svg="http://www.w3.org/2000/svg" xmlns="http://www.w3.org/2000/svg" viewBox="0 0 48 48" id="svg2" version="1.1">
 <defs id="defs4">
  <linearGradient id="0" y1="7.846" x1="45.03" y2="60.04" x2="47.47" gradientUnits="userSpaceOnUse">
   <stop stop-color="#fff" id="stop7"/>
   <stop offset="1" stop-color="#fff" stop-opacity="0" id="stop9"/>
  </linearGradient>
  <linearGradient id="1" y1="44.908" y2="6.908" x2="0" gradientUnits="userSpaceOnUse">
   <stop stop-color="#ddd" id="stop12"/>
   <stop offset="1" stop-color="#fff" id="stop14"/>
  </linearGradient>
  <radialGradient cx="23.985" cy="44.881" r="23.23" id="2" gradientUnits="userSpaceOnUse" gradientTransform="matrix(0.94141 0 0 0.06457 3.389 42.1)">
   <stop stop-opacity="0.2" id="stop17"/>
   <stop offset="1" stop-opacity="0" id="stop19"/>
  </radialGradient>
 </defs>
 <g transform="translate(-1.969,-2.688)" id="g21">
  <path d="m 47.8396,45.0003 a 21.87095,1.500003 0 0 1 -43.7419,0 21.87095,1.500003 0 1 1 43.7419,0 z" id="path23" fill="url(#2)"/>
  <path d="m 5.969,6.908 40,0 0,38 -40,0 z" id="path25" fill="url(#1)"/>
  <g id="g27" fill="none">
   <path d="m 6.4374,7.377 0,37.0625 39.0625,0 0,-37.0625 -39.0625,0 z" id="path29" opacity="0.4" stroke="#000"/>
   <path d="m 7.4062,8.3458 0,35.125 37.125,0 0,-35.125 -37.125,0 z" id="path31" stroke="url(#0)"/>
  </g>
 </g>
 <g id="g33" fill="#fff">
  <path d="m 17.0959,21.7665 0,-3.965 -3.9325,0 0,3.965 3.9325,0 z m 0,2.0963 -3.9325,0 0,6.0613 -2.0962,0 0,-12.2037 2.015,0 0,-2.015 4.095,0 0,2.015 2.015,0 0,12.2037 -2.0963,0 0,-6.06125 z" id="path35"/>
  <path d="m 23.3196,19.8285 4.0137,0 0,2.015 2.015,0 0,6.1425 -2.015,0 0,2.015 -6.11,0 0,-14.2188 2.0963,0 0,4.04625 z m 0,2.0963 0,5.98 3.9325,0 0,-5.98 -3.9325,0 z" id="path37"/>
 </g>
 <path fill="#6a6a6a" d="m 17.0959 20.7667 v -3.965 h -3.9325 v 3.965 h 3.9325 z m 0 2.0963 h -3.9325 v 6.0613 h -2.0962 v -12.2037 h 2.015 v -2.015 h 4.095 v 2.015 h 2.015 v 12.2037 h -2.0963 v -6.06125 z" id="path39"/>
 <path fill="#fff" d="m 37.3193 19.8448 v 2.0963 h -4.0138 v 5.9638 h 4.0138 v 2.0963 h -4.095 v -2.015 h -1.9988 v -6.1262 h 1.9988 v -2.015 h 4.095 z" id="path41"/>
 <g id="g43" fill="#6a6a6a">
  <path d="m 23.3196,18.8287 4.0137,0 0,2.015 2.015,0 0,6.1425 -2.015,0 0,2.015 -6.11,0 0,-14.2188 2.0963,0 0,4.04625 z m 0,2.0963 0,5.98 3.9325,0 0,-5.98 -3.9325,0 z" id="path45"/>
  <path d="m 37.3193,18.845 0,2.0963 -4.0138,0 0,5.9638 4.0138,0 0,2.0963 -4.095,0 0,-2.015 -1.9988,0 0,-6.1262 1.9988,0 0,-2.015 4.095,0 z" id="path47"/>
 </g>
 <metadata id="metadata9999">
  <rdf:RDF>
   <cc:Work>
    <dc:format>image/svg+xml</dc:format>
    <dc:type rdf:resource="http://purl.org/dc/dcmitype/StillImage"/>
    <dc:title>Ivy icon theme</dc:title>
    <cc:license rdf:resource="http://creativecommons.org/licenses/by-sa/4.0/"/>
    <dc:creator>
     <cc:Agent>
      <dc:title>Sixsixfive (sixsixfive.deviantart.com)</dc:title>
     </cc:Agent>
    </dc:creator>
    <dc:publisher>
     <cc:Agent>
      <dc:title>Sixsixfive (sixsixfive.deviantart.com)</dc:title>
     </cc:Agent>
    </dc:publisher>
    <dc:source>https://github.com/sixsixfive</dc:source>
    <dc:subject>
     <rdf:Bag>
      <rdf:li>ivy</rdf:li>
     </rdf:Bag>
    </dc:subject>
    <dc:contributor>
     <cc:Agent>
      <dc:title>ssf</dc:title>
     </cc:Agent>
    </dc:contributor>
    <dc:rights>
     <cc:Agent>
      <dc:title>Sixsixfive (sixisixfive.deviantart.com)</dc:title>
     </cc:Agent>
    </dc:rights>
    <dc:description>A simple icon theme published under CC-BY-SA_V4(http://creativecommons.org/licenses/by-sa/4.0)</dc:description>
    <dc:identifier>SSF</dc:identifier>
   </cc:Work>
  </rdf:RDF>
 </metadata>
 <!--Part of the Ivy icon them published under the CC-BY-SA_V4: http://creativecommons.org/licenses/by-sa/4.0 -->
</svg>
