<?xml version="1.0" encoding="UTF-8" standalone="no"?><svg xmlns:cc="http://creativecommons.org/ns#" xmlns:svg="http://www.w3.org/2000/svg" xmlns="http://www.w3.org/2000/svg" xmlns:dc="http://purl.org/dc/elements/1.1/" xmlns:rdf="http://www.w3.org/1999/02/22-rdf-syntax-ns#" id="svg2" version="1.1" viewBox="0 0 48 48"><defs id="defs4"><linearGradient gradientUnits="userSpaceOnUse" y1="5.957" id="0" y2="42.08" x2="0"><stop id="stop7" stop-color="#fff"/><stop stop-opacity="0" id="stop9" stop-color="#fff" offset="1"/></linearGradient><linearGradient gradientUnits="userSpaceOnUse" y1="43.02" id="1" x1="44" y2="-0.997" x2="43.912"><stop id="stop12" stop-color="#ddd"/><stop id="stop14" stop-color="#fff" offset="1"/></linearGradient></defs><path opacity="0.1" d="m 4,6.02 h 40 v 38 H 4 z" id="path16"/><path d="m 4,5.02 h 40 v 38 H 4 z" id="path18" fill="url(#1)"/><path d="M 4,5.02 H 44 V 15.139 H 4 z" id="path20" fill="#5288d1"/><g id="g22" fill="none"><g stroke="#000" id="g24"><path opacity="0.4" d="m 4.4688,5.4881 0,37.0625 39.0625,0 0,-37.0625 -39.0625,0 z" id="path26"/><path opacity="0.4" d="m 4.9369,14.6279 38.1261,4e-4" id="path28"/></g><path stroke="url(#0)" opacity="0.4" d="m 5.4375,6.4568 0,35.125 37.125,0 0,-35.125 -37.125,0 z" id="path30"/></g><g color="#000" id="g32" fill-rule="evenodd" fill="#fff"><path d="m 7.03,9.111 1,0 0,1 -1,0 z" id="path34"/><path d="m 8.03,10.111 1,0 0,1 -1,0 z" id="path36"/><path d="m 9.03,11.11 1,0 0,1 -1,0 z" id="path38"/><path d="m 7.03,11.11 1,0 0,1 -1,0 z" id="path40"/><path d="m 9.03,9.111 1,0 0,1 -1,0 z" id="path42"/><path d="m 12.03,9.111 1,0 0,3 -1,0 z" id="path44"/><path transform="matrix(0 1 -1 0 0 0)" d="m 11.11,-15.03 1,0 0,3 -1,0 z" id="path46"/><path transform="matrix(-1 0 0 -1 0 0)" d="m -15.03,-12.11 1,0 0,3 -1,0 z" id="path48"/><g transform="matrix(0 -1 1 0 0 0)" id="g50"><path d="m -10.111,12.03 1,0 0,3 -1,0 z" id="path52"/><path d="m -12.11,17.03 1,0 0,3 -1,0 z" id="path54"/></g></g><rect width="35.926811" height="1" id="rect3047" y="15" x="6" fill="#fff"/><rect width="1" height="27" opacity="0.4" id="rect3043" y="15" x="24"/><rect transform="matrix(0 1 -1 0 0 0)" width="26" height="1" opacity="0.7" id="rect4168" y="-26" x="16" fill="#fff"/><metadata id="metadata9999"><rdf:RDF><cc:Work><dc:format>image/svg+xml</dc:format><dc:type rdf:resource="http://purl.org/dc/dcmitype/StillImage"/><dc:title>Ivy icon theme</dc:title><cc:license rdf:resource="http://creativecommons.org/licenses/by-sa/4.0/"/><dc:creator><cc:Agent><dc:title>Sixsixfive (sixsixfive.deviantart.com)</dc:title></cc:Agent></dc:creator><dc:publisher><cc:Agent><dc:title>Sixsixfive (sixsixfive.deviantart.com)</dc:title></cc:Agent></dc:publisher><dc:source>https://github.com/sixsixfive</dc:source><dc:subject><rdf:Bag><rdf:li>ivy</rdf:li></rdf:Bag></dc:subject><dc:contributor><cc:Agent><dc:title>ssf</dc:title></cc:Agent></dc:contributor><dc:rights><cc:Agent><dc:title>Sixsixfive (sixisixfive.deviantart.com)</dc:title></cc:Agent></dc:rights><dc:description>A simple icon theme published under CC-BY-SA_V4(http://creativecommons.org/licenses/by-sa/4.0)</dc:description><dc:identifier>SSF</dc:identifier></cc:Work></rdf:RDF></metadata><!--Part of the Ivy icon them published under the CC-BY-SA_V4: http://creativecommons.org/licenses/by-sa/4.0 -->
</svg>