<?xml version="1.0" encoding="UTF-8" standalone="no"?><svg xmlns:cc="http://creativecommons.org/ns#" xmlns:dc="http://purl.org/dc/elements/1.1/" xmlns="http://www.w3.org/2000/svg" xmlns:svg="http://www.w3.org/2000/svg" xmlns:rdf="http://www.w3.org/1999/02/22-rdf-syntax-ns#" id="svg2" version="1.1" viewBox="0 0 48 48" xmlns:xlink="http://www.w3.org/1999/xlink"><defs id="defs4"><linearGradient id="linearGradient4213"><stop stop-opacity="1" id="stop4215" stop-color="#5288d1"/><stop stop-opacity="1" id="stop4217" stop-color="#93b5e2" offset="1"/></linearGradient><linearGradient id="linearGradient4203"><stop stop-opacity="1" id="stop4205" stop-color="#fff"/><stop stop-opacity="0" id="stop4207" stop-color="#fff" offset="1"/></linearGradient><linearGradient gradientUnits="userSpaceOnUse" y1="13" xlink:href="#linearGradient4203" id="linearGradient4209" x1="27" y2="32" x2="27"/><linearGradient gradientUnits="userSpaceOnUse" y1="11" xlink:href="#linearGradient4213" id="linearGradient4219" x1="28" y2="38" x2="27"/><linearGradient gradientUnits="userSpaceOnUse" y1="11" xlink:href="#linearGradient4213" x1="28" id="linearGradient3379" y2="38" x2="27"/><linearGradient gradientUnits="userSpaceOnUse" y1="13" xlink:href="#linearGradient4203" x1="27" id="linearGradient3381" y2="32" x2="27"/></defs><g transform="matrix(1 0 0 1 0 2)" id="g3385"><g transform="matrix(1 0 0 1 0 3)" id="g3363"><path opacity="0.15" d="M 3,13 45,13 24,37 Z" id="path4211" fill="#000"/><path d="M 3,12 45,12 24,36 Z" id="path23" fill="url(#linearGradient4219)" fill-opacity="1"/><path stroke="url(#linearGradient4209)" opacity="0.4" d="M 6.3066406,13.5 24,33.720703 41.693359,13.5 6.3066406,13.5 Z" xlink:href="#path4197" id="path4201" fill="none"/><path stroke="#000" opacity="0.4" d="M 4.0898438,12.494141 24,35.248047 43.910156,12.494141 l -39.8203122,0 z" xlink:href="#path4197" id="path4199" fill="none"/></g><g transform="matrix(1 0 0 1 0 -8)" id="g3369"><path opacity="0.15" d="M 3,13 45,13 24,37 Z" id="path3371" fill="#000"/><path d="M 3,12 45,12 24,36 Z" id="path3373" fill="url(#linearGradient3379)" fill-opacity="1"/><path stroke="url(#linearGradient3381)" opacity="0.4" d="M 6.3066406,13.5 24,33.720703 41.693359,13.5 6.3066406,13.5 Z" xlink:href="#path4197" id="path3375" fill="none"/><path stroke="#000" opacity="0.4" d="M 4.0898438,12.494141 24,35.248047 43.910156,12.494141 l -39.8203122,0 z" xlink:href="#path4197" id="path3377" fill="none"/></g></g><metadata id="metadata9999"><rdf:RDF><cc:Work><dc:format>image/svg+xml</dc:format><dc:type rdf:resource="http://purl.org/dc/dcmitype/StillImage"/><dc:title/><cc:license rdf:resource="http://creativecommons.org/licenses/by-sa/4.0/"/><dc:creator><cc:Agent><dc:title>Sixsixfive (sixsixfive.deviantart.com)</dc:title></cc:Agent></dc:creator><dc:publisher><cc:Agent><dc:title>Sixsixfive (sixsixfive.deviantart.com)</dc:title></cc:Agent></dc:publisher><dc:source>https://github.com/sixsixfive</dc:source><dc:subject><rdf:Bag><rdf:li>ivy</rdf:li></rdf:Bag></dc:subject><dc:contributor><cc:Agent><dc:title>ssf</dc:title></cc:Agent></dc:contributor><dc:rights><cc:Agent><dc:title>Sixsixfive (sixisixfive.deviantart.com)</dc:title></cc:Agent></dc:rights><dc:description>A simple icon theme published under CC-BY-SA_V4(http://creativecommons.org/licenses/by-sa/4.0)</dc:description><dc:identifier>SSF</dc:identifier></cc:Work></rdf:RDF></metadata><!--Part of the Ivy icon them published under the CC-BY-SA_V4: http://creativecommons.org/licenses/by-sa/4.0 -->
</svg>