<?xml version="1.0" encoding="UTF-8" standalone="no"?><svg viewBox="0 0 48 48" xmlns="http://www.w3.org/2000/svg" xmlns:svg="http://www.w3.org/2000/svg" xmlns:rdf="http://www.w3.org/1999/02/22-rdf-syntax-ns#" version="1.1" id="svg2" xmlns:dc="http://purl.org/dc/elements/1.1/" xmlns:cc="http://creativecommons.org/ns#"><defs id="defs4"><linearGradient y1="10.765" x2="0" y2="40.485" gradientTransform="matrix(-1.18474 0 0 1.27706 57 -8.727)" id="0" gradientUnits="userSpaceOnUse"><stop id="stop7" stop-color="#fff"/><stop stop-opacity="0" offset="1" id="stop9" stop-color="#fff"/></linearGradient></defs><path opacity="0.1" id="path16" d="M 3.9828 25 A 20 20 0 0 0 43.9828 25 20 20 0 1 0 3.9828 25 z"/><path id="path18" d="M 3.9828 24 A 20 20 0 1 0 43.9828 24 20 20 0 1 0 3.9828 24 z" fill="#ebebeb"/><path stroke-linejoin="bevel" opacity="0.7728" stroke-linecap="square" id="rect4157" d="M 23.398438 4.0078125 A 20 20 0 0 0 3.9824219 24 A 20 20 0 0 0 24 43.980469 L 24 4.0214844 A 20 20 0 0 0 23.398438 4.0078125 z " fill="#171717"/><g id="g20" fill="none"><path stroke="#000" opacity="0.4" id="path22" d="m 23.9762,4.5222 c 10.7992,0 19.5482,8.7394 19.5482,19.4751 0,10.7357 -8.74902,19.4751 -19.5482,19.4751 -10.7992,0 -19.5112,-8.73812 -19.5112,-19.4751 0,-10.737 8.712,-19.4751 19.5112,-19.4751 z"/><path stroke="url(#0)" opacity="0.3" id="path24" d="m 23.9762,5.5199 c 10.3443,0 18.6226,8.31366 18.6226,18.4774 0,10.1637 -8.27831,18.4774 -18.6226,18.4774 -10.3443,0 -18.5856,-8.31002 -18.5856,-18.4774 0,-10.1674 8.24128,-18.4774 18.5856,-18.4774 z"/></g><rect stroke-linejoin="bevel" y="5" x="24" opacity="0.2" stroke-linecap="square" height="38" id="rect4164" width="1" fill="#fff"/><rect stroke-linejoin="bevel" y="4" x="23" opacity="0.7728" stroke-linecap="square" height="39.972664" id="rect4162" width="1" fill="#171717"/><metadata id="metadata9999"><rdf:RDF><cc:Work><dc:format>image/svg+xml</dc:format><dc:type rdf:resource="http://purl.org/dc/dcmitype/StillImage"/><dc:title>Ivy icon theme</dc:title><cc:license rdf:resource="http://creativecommons.org/licenses/by-sa/4.0/"/><dc:creator><cc:Agent><dc:title>Sixsixfive (sixsixfive.deviantart.com)</dc:title></cc:Agent></dc:creator><dc:publisher><cc:Agent><dc:title>Sixsixfive (sixsixfive.deviantart.com)</dc:title></cc:Agent></dc:publisher><dc:source>https://github.com/sixsixfive</dc:source><dc:subject><rdf:Bag><rdf:li>ivy</rdf:li></rdf:Bag></dc:subject><dc:contributor><cc:Agent><dc:title>ssf</dc:title></cc:Agent></dc:contributor><dc:rights><cc:Agent><dc:title>Sixsixfive (sixisixfive.deviantart.com)</dc:title></cc:Agent></dc:rights><dc:description>A simple icon theme published under CC-BY-SA_V4(http://creativecommons.org/licenses/by-sa/4.0)</dc:description><dc:identifier>SSF</dc:identifier></cc:Work></rdf:RDF></metadata><!--Part of the Ivy icon them published under the CC-BY-SA_V4: http://creativecommons.org/licenses/by-sa/4.0 -->
</svg>