<?xml version="1.0" encoding="UTF-8" standalone="no"?><svg xmlns:xlink="http://www.w3.org/1999/xlink" xmlns:cc="http://creativecommons.org/ns#" viewBox="0 0 48 48" version="1.1" id="svg2" xmlns:svg="http://www.w3.org/2000/svg" xmlns:rdf="http://www.w3.org/1999/02/22-rdf-syntax-ns#" xmlns="http://www.w3.org/2000/svg" xmlns:dc="http://purl.org/dc/elements/1.1/"><defs id="defs4"><linearGradient id="0"><stop stop-color="#fff" id="stop7"/><stop offset="1" stop-opacity="0" stop-color="#fff" id="stop9"/></linearGradient><linearGradient id="1"><stop stop-color="#66b03e" id="stop12"/><stop offset="1" stop-color="#7bc454" id="stop14"/></linearGradient><linearGradient x2="0" gradientUnits="userSpaceOnUse" xlink:href="#0" y2="13" id="2" y1="5"/><linearGradient x2="0" gradientUnits="userSpaceOnUse" xlink:href="#0" y2="43" id="3" y1="35"/><linearGradient x2="0" gradientUnits="userSpaceOnUse" xlink:href="#0" y2="28" id="4" y1="20"/><radialGradient gradientUnits="userSpaceOnUse" r="5" cx="9.683" xlink:href="#1" cy="17.401" id="5" gradientTransform="matrix(1.01219 -0.36807 0.8 2.2 0.278 9.281)"/><radialGradient gradientUnits="userSpaceOnUse" r="5" cx="9.683" xlink:href="#1" cy="17.401" id="6" gradientTransform="matrix(1.01219 -0.36807 0.8 2.2 0.278 -5.719)"/><radialGradient gradientUnits="userSpaceOnUse" r="8.655" cx="12.547" cy="45.25" id="7" gradientTransform="matrix(0.35271 0 0 0.11459 19.575 38.916)"><stop stop-opacity="0.2" id="stop22"/><stop offset="1" stop-opacity="0" id="stop24"/></radialGradient><radialGradient gradientUnits="userSpaceOnUse" r="5" cx="9.683" xlink:href="#1" cy="17.401" id="8" gradientTransform="matrix(1.01219 -0.36807 0.8 2.2 0.278 -20.719)"/></defs><path fill="url(#7)" id="path27" d="m 27.05285 44.1016 a 3.05285 0.99187 0 0 1 -6.10569 0 3.05285 0.99187 0 1 1 6.10569 0 z"/><path fill="url(#6)" id="path29" d="m 29 24 a 5 5 0 0 1 -10 0 5 5 0 1 1 10 0 z"/><g fill="none" id="g31"><path opacity="0.4" id="path33" stroke="#000" d="m 24,19.5312 c -2.47675,0 -4.46875,1.992 -4.46875,4.46875 0,2.47675 1.992,4.46875 4.46875,4.46875 2.47675,0 4.46875,-1.992 4.46875,-4.46875 0,-2.47675 -1.992,-4.46875 -4.46875,-4.46875 z"/><path opacity="0.4" id="path35" stroke="url(#4)" d="m 24,20.5312 c -1.94005,0 -3.46875,1.5287 -3.46875,3.46875 0,1.94005 1.5287,3.46875 3.46875,3.46875 1.94005,0 3.46875,-1.5287 3.46875,-3.46875 0,-1.94005 -1.5287,-3.46875 -3.46875,-3.46875 z"/></g><path fill="url(#8)" id="path37" d="M 29 9 A 5 5 0 0 1 19 9 5 5 0 1 1 29 9 z"/><g fill="none" id="g39"><path opacity="0.4" id="path41" stroke="#000" d="m 24,4.5312 c -2.47675,0 -4.46875,1.992 -4.46875,4.46875 0,2.47675 1.992,4.46875 4.46875,4.46875 2.47675,0 4.46875,-1.992 4.46875,-4.46875 C 28.46875,6.5232 26.47675,4.5312 24,4.5312 Z"/><path opacity="0.4" id="path43" stroke="url(#2)" d="m 24,5.5312 c -1.94005,0 -3.46875,1.5287 -3.46875,3.46875 0,1.94005 1.5287,3.46875 3.46875,3.46875 1.94005,0 3.46875,-1.5287 3.46875,-3.46875 C 27.46875,7.0599 25.94005,5.5312 24,5.5312 Z"/></g><path fill="url(#5)" id="path45" d="m 29 39 a 5 5 0 0 1 -10 0 5 5 0 1 1 10 0 z"/><g fill="none" id="g47"><path opacity="0.4" id="path49" stroke="#000" d="m 24,34.5312 c -2.47675,0 -4.46875,1.992 -4.46875,4.46875 0,2.47675 1.992,4.46875 4.46875,4.46875 2.47675,0 4.46875,-1.992 4.46875,-4.46875 0,-2.47675 -1.992,-4.46875 -4.46875,-4.46875 z"/><path opacity="0.4" id="path51" stroke="url(#3)" d="m 24,35.5312 c -1.94005,0 -3.46875,1.5287 -3.46875,3.46875 0,1.94005 1.5287,3.46875 3.46875,3.46875 1.94005,0 3.46875,-1.5287 3.46875,-3.46875 0,-1.94005 -1.5287,-3.46875 -3.46875,-3.46875 z"/></g><metadata id="metadata9999"><rdf:RDF><cc:Work><dc:format>image/svg+xml</dc:format><dc:type rdf:resource="http://purl.org/dc/dcmitype/StillImage"/><dc:title>Ivy icon theme</dc:title><cc:license rdf:resource="http://creativecommons.org/licenses/by-sa/4.0/"/><dc:creator><cc:Agent><dc:title>Sixsixfive (sixsixfive.deviantart.com)</dc:title></cc:Agent></dc:creator><dc:publisher><cc:Agent><dc:title>Sixsixfive (sixsixfive.deviantart.com)</dc:title></cc:Agent></dc:publisher><dc:source>https://github.com/sixsixfive</dc:source><dc:subject><rdf:Bag><rdf:li>ivy</rdf:li></rdf:Bag></dc:subject><dc:contributor><cc:Agent><dc:title>ssf</dc:title></cc:Agent></dc:contributor><dc:rights><cc:Agent><dc:title>Sixsixfive (sixisixfive.deviantart.com)</dc:title></cc:Agent></dc:rights><dc:description>A simple icon theme published under CC-BY-SA_V4(http://creativecommons.org/licenses/by-sa/4.0)</dc:description><dc:identifier>SSF</dc:identifier></cc:Work></rdf:RDF></metadata><!--Part of the Ivy icon them published under the CC-BY-SA_V4: http://creativecommons.org/licenses/by-sa/4.0 -->
</svg>