<?xml version="1.0" encoding="UTF-8" standalone="no"?><svg xmlns:xlink="http://www.w3.org/1999/xlink" xmlns:cc="http://creativecommons.org/ns#" viewBox="0 0 48 48" version="1.1" id="svg2" xmlns:svg="http://www.w3.org/2000/svg" xmlns="http://www.w3.org/2000/svg" xmlns:rdf="http://www.w3.org/1999/02/22-rdf-syntax-ns#" xmlns:dc="http://purl.org/dc/elements/1.1/"><defs id="defs4"><linearGradient x2="45.898" gradientUnits="userSpaceOnUse" x1="44.597" y2="46.46" id="0" y1="3.159"><stop stop-color="#fff" id="stop7"/><stop offset="1" stop-opacity="0" stop-color="#fff" id="stop9"/></linearGradient><linearGradient x2="0.001" gradientUnits="userSpaceOnUse" x1="31.11" y2="65.06" id="1" y1="33.939"><stop stop-color="#ffb636" id="stop12"/><stop offset="1" stop-color="#ffe775" id="stop14"/></linearGradient></defs><g id="g16" transform="matrix(0.70711 -0.70711 0.70711 0.70711 0 0)"><path opacity="0.1" id="rect18" d="m -15.132001,18.724001 28.511999,0 c 1.018806,0 1.839,0.820194 1.839,1.839 l 0,28.511999 c 0,1.018806 -0.820194,1.839 -1.839,1.839 l -28.511999,0 c -1.018806,0 -1.839,-0.820194 -1.839,-1.839 l 0,-28.511999 c 0,-1.018806 0.820194,-1.839 1.839,-1.839 z"/><path fill="url(#1)" id="rect20" d="m -14.251,17.847 28.511998,0 c 1.018806,0 1.839,0.820194 1.839,1.839 l 0,28.511999 c 0,1.018806 -0.820194,1.839 -1.839,1.839 l -28.511998,0 c -1.018806,0 -1.839,-0.820194 -1.839,-1.839 l 0,-28.511999 c 0,-1.018806 0.820194,-1.839 1.839,-1.839 z"/></g><g fill="none" id="g22"><path opacity="0.4" stroke="#000" id="path24" d="m 2.9168,23.064 c -0.519002,0.519003 -0.519002,1.33715 0,1.85616 l 20.1525,20.1525 c 0.519002,0.519002 1.33715,0.519002 1.85616,0 l 20.1525,-20.1525 c 0.519002,-0.519003 0.519002,-1.33715 0,-1.85616 L 24.92546,2.9115 c -0.519002,-0.519002 -1.33715,-0.519002 -1.85616,0 L 2.9168,23.064 Z"/><path opacity="0.6" stroke="url(#0)" id="path26" d="m 3.5797,23.7269 c -0.170342,0.170342 -0.170342,0.359988 0,0.53033 l 20.1525,20.1525 c 0.170342,0.170342 0.359988,0.170342 0.53033,0 l 20.1525,-20.1525 c 0.170342,-0.170342 0.170342,-0.359988 0,-0.53033 L 24.26253,3.5744 c -0.170342,-0.170342 -0.359988,-0.170342 -0.53033,0 L 3.5797,23.7269 Z"/></g><g opacity="0.4" fill="#fff" id="g28" transform="matrix(1 0 0 1 0 1)"><path stroke="#010102" id="2" stroke-width="0.013" d="m 24.537357,13.10952 c 0.618445,-0.111815 1.333089,-0.02796 1.786614,0.447265 0.508494,0.461242 0.838331,1.216 0.645926,1.900872 -0.06871,0.740782 -0.700898,1.313838 -1.374315,1.49554 -1.22314,0.433286 -2.707405,-0.768736 -2.487512,-2.096551 0.151176,-0.768736 0.700899,-1.467585 1.429287,-1.747126 z"/><path stroke="#010102" id="3" stroke-width="0.013" d="m 16.11763,17.374418 c 0.13887,-0.493076 0.305524,-1.028414 0.777701,-1.296084 1.458194,0.01409 2.902498,0.01409 4.346803,0.01409 0.29164,-0.01409 0.569394,0.05634 0.847146,0.112703 0.569387,0.929799 1.263768,1.775071 1.860933,2.690782 0.305525,0.464898 0.597165,1.056589 0.319413,1.606017 -0.805479,1.507401 -1.638737,3.00071 -2.430327,4.522203 1.819272,1.352435 3.49967,2.873924 5.318936,4.212272 0.527727,-0.577604 1.19433,-1.211556 2.027588,-1.014327 0.305523,0.112703 0.666603,0.154967 0.888799,0.408549 0.291641,0.324021 0.541616,0.690304 0.736041,1.084766 0.291641,-0.140879 0.666604,-0.197231 0.958244,-0.02817 0.499949,0.324021 0.749931,0.943887 0.763813,1.521489 0.305531,0.14088 0.555505,0.33811 0.722152,0.619866 0.777709,-0.05635 1.374873,0.521251 1.680398,1.183381 -3.458003,0.02818 -6.902118,-0.01409 -10.36012,0.04226 -0.84714,-0.08453 -1.708169,0.07044 -2.569197,-0.05634 0.180536,-0.211318 0.333301,-0.450813 0.486067,-0.690305 0.402738,-0.183144 0.819361,-0.380373 1.27765,-0.380373 0.236092,-0.05635 0.472178,-0.140879 0.36108,-0.450813 0.236084,-0.366283 0.541615,-0.774832 1.041564,-0.676216 0.263864,-0.535339 0.694381,-0.957975 1.208221,-1.25382 -1.555411,-1.296084 -3.124704,-2.563991 -4.680106,-3.860074 -0.06943,-0.183143 -0.30553,-0.05635 -0.249981,0.08452 0.347191,0.380373 0.749929,0.803009 0.722152,1.352435 0.02778,0.352197 -0.222196,0.648042 -0.347183,0.957976 -0.40274,0.972062 -0.986024,1.873685 -1.444312,2.817572 -0.277746,0.59169 -0.583276,1.18338 -0.916578,1.746895 -0.361072,0.281758 -0.902688,0.478986 -1.347094,0.267669 -0.277747,-0.211318 -0.444401,-0.535338 -0.54161,-0.85936 0.277746,-1.028413 0.874911,-1.90186 1.263769,-2.888011 0.305523,-0.676217 0.652713,-1.338348 0.972126,-2.00048 -0.819367,-1.028414 -1.624847,-2.070915 -2.485877,-3.071153 -0.01385,1.042502 0.0417,2.099092 -0.01385,3.141593 -0.402739,1.634192 -0.847146,3.268385 -1.263768,4.916664 -0.124987,0.690306 -1.069343,1.070678 -1.624848,0.605779 -0.499948,-0.267669 -0.38885,-0.901623 -0.361072,-1.380611 0.319413,-1.324259 0.652714,-2.63443 0.972126,-3.95869 0.05555,-1.577839 -0.02778,-3.155681 0.04163,-4.733521 0,-0.633954 0.638832,-0.873449 0.944355,-1.32426 -0.333301,-0.112702 -0.569387,-0.394459 -0.555505,-0.746656 -0.319413,-0.225407 -0.611047,-0.493076 -0.958238,-0.676218 -0.138875,-0.295845 0.05555,-0.535338 0.319413,-0.633954 0.236086,0.225406 0.499956,0.422637 0.76382,0.591691 0.180536,-0.831184 0.3333,-1.676457 0.527727,-2.521728 z"/></g><g fill="#171717" id="g32"><use height="48" width="48" xlink:href="#2" id="use34" x="0" y="0"/><use height="48" width="48" xlink:href="#3" id="use36" x="0" y="0"/></g><metadata id="metadata9999"><rdf:RDF><cc:Work><dc:format>image/svg+xml</dc:format><dc:type rdf:resource="http://purl.org/dc/dcmitype/StillImage"/><dc:title>Ivy icon theme</dc:title><cc:license rdf:resource="http://creativecommons.org/licenses/by-sa/4.0/"/><dc:creator><cc:Agent><dc:title>Sixsixfive (sixsixfive.deviantart.com)</dc:title></cc:Agent></dc:creator><dc:publisher><cc:Agent><dc:title>Sixsixfive (sixsixfive.deviantart.com)</dc:title></cc:Agent></dc:publisher><dc:source>https://github.com/sixsixfive</dc:source><dc:subject><rdf:Bag><rdf:li>ivy</rdf:li></rdf:Bag></dc:subject><dc:contributor><cc:Agent><dc:title>ssf</dc:title></cc:Agent></dc:contributor><dc:rights><cc:Agent><dc:title>Sixsixfive (sixisixfive.deviantart.com)</dc:title></cc:Agent></dc:rights><dc:description>A simple icon theme published under CC-BY-SA_V4(http://creativecommons.org/licenses/by-sa/4.0)</dc:description><dc:identifier>SSF</dc:identifier></cc:Work></rdf:RDF></metadata><!--Part of the Ivy icon them published under the CC-BY-SA_V4: http://creativecommons.org/licenses/by-sa/4.0 -->
</svg>