<?xml version="1.0" encoding="UTF-8" standalone="no"?><svg xmlns:cc="http://creativecommons.org/ns#" xmlns:rdf="http://www.w3.org/1999/02/22-rdf-syntax-ns#" xmlns:svg="http://www.w3.org/2000/svg" id="svg2" viewBox="0 0 48 48" version="1.1" xmlns:dc="http://purl.org/dc/elements/1.1/" xmlns="http://www.w3.org/2000/svg"><defs id="defs4"><linearGradient id="0" x2="0" y2="4.22" y1="42.22" gradientUnits="userSpaceOnUse"><stop id="stop7" stop-color="#ddd"/><stop offset="1" id="stop9" stop-color="#fff"/></linearGradient><linearGradient id="1" x2="45.501" y2="57.35" x1="43.06" y1="5.158" gradientUnits="userSpaceOnUse"><stop id="stop12" stop-color="#fff"/><stop offset="1" id="stop14" stop-color="#fff" stop-opacity="0"/></linearGradient></defs><path id="path16" opacity="0.1" d="m 4 5.22 h 40 v 38 H 4 z"/><path id="path18" d="m 4 4.22 h 40 v 38 H 4 z" fill="url(#0)"/><g id="g4205" opacity="0.6" transform="matrix(1 0 0 1 0 1)" fill="#fff"><rect stroke-linecap="round" fill-opacity="1" height="3" stroke-miterlimit="4" id="rect4207" stroke-dasharray="none" opacity="0.7" stroke-width="3" stroke="none" width="34" x="7" y="9" fill-rule="evenodd" stroke-linejoin="round" stroke-dashoffset="0" stroke-opacity="1" fill="#fff"/><path id="path4209" opacity="0.4" d="m 15,15 -6,0 0,6 6,0 z" fill="#fff"/><path id="path4211" opacity="0.4" d="m 27,15 -6,0 0,6 6,0 z" fill="#fff"/><path id="path4213" opacity="0.4" d="m 39,15 -6,0 0,6 6,0 z" fill="#fff"/><rect stroke-linecap="round" fill-opacity="1" height="3" stroke-miterlimit="4" id="rect4215" stroke-dasharray="none" opacity="0.7" stroke-width="3" stroke="none" width="34" x="7" y="24" fill-rule="evenodd" stroke-linejoin="round" stroke-dashoffset="0" stroke-opacity="1" fill="#fff"/><path id="path4217" opacity="0.4" d="m 15,30 -6,0 0,6 6,0 z" fill="#fff"/><path id="path4219" opacity="0.4" d="m 27,30 -6,0 0,6 6,0 z" fill="#fff"/></g><g id="g20" fill="none"><path id="path22" opacity="0.4" d="m 4.4684,4.689 0,37.0625 39.0625,0 0,-37.0625 -39.0625,0 z" stroke="#000"/><path id="path24" d="m 5.4372,5.6578 0,35.125 37.125,0 0,-35.125 -37.125,0 z" stroke="url(#1)"/></g><g id="g4196"><rect stroke-linecap="round" fill-opacity="1" height="3" stroke-miterlimit="4" id="rect4160" stroke-dasharray="none" opacity="0.7" stroke-width="3" stroke="none" width="34" x="7" y="9" fill-rule="evenodd" stroke-linejoin="round" stroke-dashoffset="0" stroke-opacity="1" fill="#000"/><path id="path30" opacity="0.4" d="m 15,15 -6,0 0,6 6,0 z" fill="#171717"/><path id="path4156" opacity="0.4" d="m 27,15 -6,0 0,6 6,0 z" fill="#171717"/><path id="path4158" opacity="0.4" d="m 39,15 -6,0 0,6 6,0 z" fill="#171717"/><rect stroke-linecap="round" fill-opacity="1" height="3" stroke-miterlimit="4" id="rect4180" stroke-dasharray="none" opacity="0.7" stroke-width="3" stroke="none" width="34" x="7" y="24" fill-rule="evenodd" stroke-linejoin="round" stroke-dashoffset="0" stroke-opacity="1" fill="#000"/><path id="path4182" opacity="0.4" d="m 15,30 -6,0 0,6 6,0 z" fill="#171717"/><path id="path4184" opacity="0.4" d="m 27,30 -6,0 0,6 6,0 z" fill="#171717"/></g><metadata id="metadata9999"><rdf:RDF><cc:Work><dc:format>image/svg+xml</dc:format><dc:type rdf:resource="http://purl.org/dc/dcmitype/StillImage"/><dc:title/><cc:license rdf:resource="http://creativecommons.org/licenses/by-sa/4.0/"/><dc:creator><cc:Agent><dc:title>Sixsixfive (sixsixfive.deviantart.com)</dc:title></cc:Agent></dc:creator><dc:publisher><cc:Agent><dc:title>Sixsixfive (sixsixfive.deviantart.com)</dc:title></cc:Agent></dc:publisher><dc:source>https://github.com/sixsixfive</dc:source><dc:subject><rdf:Bag><rdf:li>ivy</rdf:li></rdf:Bag></dc:subject><dc:contributor><cc:Agent><dc:title>ssf</dc:title></cc:Agent></dc:contributor><dc:rights><cc:Agent><dc:title>Sixsixfive (sixisixfive.deviantart.com)</dc:title></cc:Agent></dc:rights><dc:description>A simple icon theme published under CC-BY-SA_V4(http://creativecommons.org/licenses/by-sa/4.0)</dc:description><dc:identifier>SSF</dc:identifier></cc:Work></rdf:RDF></metadata><!--Part of the Ivy icon them published under the CC-BY-SA_V4: http://creativecommons.org/licenses/by-sa/4.0 -->
</svg>