<?xml version="1.0" encoding="UTF-8" standalone="no"?>
<svg xmlns:dc="http://purl.org/dc/elements/1.1/" xmlns:cc="http://creativecommons.org/ns#" xmlns:rdf="http://www.w3.org/1999/02/22-rdf-syntax-ns#" xmlns:svg="http://www.w3.org/2000/svg" xmlns="http://www.w3.org/2000/svg" xmlns:xlink="http://www.w3.org/1999/xlink" id="svg2" viewBox="0 0 48 48" version="1.1">
 <defs id="0">
  <linearGradient id="linearGradient4165">
   <stop id="stop4167" stop-color="#eed45a"/>
   <stop id="stop4169" stop-color="#e9c82a" offset="1"/>
  </linearGradient>
  <linearGradient id="D">
   <stop id="F" stop-color="#fff"/>
   <stop stop-opacity="0" id="G" stop-color="#fff" offset="1"/>
  </linearGradient>
  <linearGradient y1="14.853086" y2="36.606426" gradientTransform="translate(-4e-8,-2)" gradientUnits="userSpaceOnUse" x2="43.647217" x1="44" xlink:href="#D" id="E"/>
  <linearGradient y2="14.268319" y1="37.425102" gradientTransform="translate(-4e-8,-2)" gradientUnits="userSpaceOnUse" x2="45" x1="44.869331" id="linearGradient4171" xlink:href="#linearGradient4165"/>
 </defs>
 <path opacity="0.2" d="m 3,13 0,24 42,0 0,-24 -42,0 0,0 z" id="path4202"/>
 <path fill="url(#linearGradient4171)" id="2" d="m 3,12 0,24 42,0 0,-24 -42,0 0,0 z"/>
 <path stroke="#000" fill="none" opacity="0.4" id="B" d="m 3.53125,35.46875 0,-22.9375 40.9375,0 0,22.9375 -40.9375,0 z"/>
 <path stroke="url(#E)" fill="none" opacity="0.65" id="C" d="m 4.53125,13.53125 0,20.9375 38.9375,0 0,-20.9375 -38.9375,0 z"/>
 <g transform="matrix(0,-1,-1,0,48,48)" id="g4185" fill="#fff">
  <path id="rect4173" d="m 13,9 7,0 0,2 -7,0 z" opacity="0.4" stroke-dasharray="39 19.5 9.75 19.5" stroke-linejoin="round" stroke-linecap="round" stroke-width="19.5"/>
  <path id="rect4175" d="m 13,15 10,0 0,2 -10,0 z" opacity="0.4" stroke-dasharray="39 19.5 9.75 19.5" stroke-linejoin="round" stroke-linecap="round" stroke-width="19.5"/>
  <path id="rect4177" d="m 13,21 7,0 0,2 -7,0 z" opacity="0.4" stroke-dasharray="39 19.5 9.75 19.5" stroke-linejoin="round" stroke-linecap="round" stroke-width="19.5"/>
  <path id="rect4179" d="m 13,27 10,0 0,2 -10,0 z" opacity="0.4" stroke-dasharray="39 19.5 9.75 19.5" stroke-linejoin="round" stroke-linecap="round" stroke-width="19.5"/>
  <path id="rect4181" d="m 13,33 7,0 0,2 -7,0 z" opacity="0.4" stroke-dasharray="39 19.5 9.75 19.5" stroke-linejoin="round" stroke-linecap="round" stroke-width="19.5"/>
  <path id="rect4183" d="m 13,39 10,0 0,2 -10,0 z" opacity="0.4" stroke-dasharray="39 19.5 9.75 19.5" stroke-linejoin="round" stroke-linecap="round" stroke-width="19.5"/>
 </g>
 <rect stroke-width="19.5" stroke-linecap="round" stroke-linejoin="round" stroke-dasharray="39 19.5 9.75 19.5" opacity="0.4" transform="matrix(0,-1,-1,0,0,0)" id="rect4151" height="2" y="-40" x="-35" width="7"/>
 <rect stroke-width="19.5" stroke-linecap="round" stroke-linejoin="round" stroke-dasharray="39 19.5 9.75 19.5" opacity="0.4" transform="matrix(0,-1,-1,0,0,0)" id="rect4153" height="2" y="-34" x="-35" width="10"/>
 <rect stroke-width="19.5" stroke-linecap="round" stroke-linejoin="round" stroke-dasharray="39 19.5 9.75 19.5" opacity="0.4" transform="matrix(0,-1,-1,0,0,0)" id="rect4155" height="2" y="-28" x="-35" width="7"/>
 <rect stroke-width="19.5" stroke-linecap="round" stroke-linejoin="round" stroke-dasharray="39 19.5 9.75 19.5" opacity="0.4" transform="matrix(0,-1,-1,0,0,0)" id="rect4157" height="2" y="-22" x="-35" width="10"/>
 <rect stroke-width="19.5" stroke-linecap="round" stroke-linejoin="round" stroke-dasharray="39 19.5 9.75 19.5" opacity="0.4" transform="matrix(0,-1,-1,0,0,0)" id="rect4159" height="2" y="-16" x="-35" width="7"/>
 <rect stroke-width="19.5" stroke-linecap="round" stroke-linejoin="round" stroke-dasharray="39 19.5 9.75 19.5" opacity="0.4" transform="matrix(0,-1,-1,0,0,0)" id="rect4161" height="2" y="-10" x="-35" width="10"/>
 <metadata id="metadata9999">
  <rdf:RDF>
   <cc:Work>
    <dc:format>image/svg+xml</dc:format>
    <dc:type rdf:resource="http://purl.org/dc/dcmitype/StillImage"/>
    <dc:title>Ivy icon theme</dc:title>
    <cc:license rdf:resource="http://creativecommons.org/licenses/by-sa/4.0/"/>
    <dc:creator>
     <cc:Agent>
      <dc:title>Sixsixfive (sixsixfive.deviantart.com)</dc:title>
     </cc:Agent>
    </dc:creator>
    <dc:publisher>
     <cc:Agent>
      <dc:title>Sixsixfive (sixsixfive.deviantart.com)</dc:title>
     </cc:Agent>
    </dc:publisher>
    <dc:source>https://github.com/sixsixfive</dc:source>
    <dc:subject>
     <rdf:Bag>
      <rdf:li>ivy</rdf:li>
     </rdf:Bag>
    </dc:subject>
    <dc:contributor>
     <cc:Agent>
      <dc:title>ssf</dc:title>
     </cc:Agent>
    </dc:contributor>
    <dc:rights>
     <cc:Agent>
      <dc:title>Sixsixfive (sixisixfive.deviantart.com)</dc:title>
     </cc:Agent>
    </dc:rights>
    <dc:description>A simple icon theme published under CC-BY-SA_V4(http://creativecommons.org/licenses/by-sa/4.0)</dc:description>
    <dc:identifier>SSF</dc:identifier>
   </cc:Work>
  </rdf:RDF>
 </metadata>
 <!--Part of the Ivy icon them published under the CC-BY-SA_V4: http://creativecommons.org/licenses/by-sa/4.0 -->
</svg>
