<?xml version="1.0" encoding="UTF-8" standalone="no"?><svg viewBox="0 0 48 48" xmlns="http://www.w3.org/2000/svg" xmlns:svg="http://www.w3.org/2000/svg" xmlns:rdf="http://www.w3.org/1999/02/22-rdf-syntax-ns#" xmlns:xlink="http://www.w3.org/1999/xlink" version="1.1" id="svg2" xmlns:dc="http://purl.org/dc/elements/1.1/" xmlns:cc="http://creativecommons.org/ns#"><defs id="defs4"><linearGradient xlink:href="#5" y1="6" x2="0" y2="47" gradientTransform="matrix(1 0 0 1 -3.8999934 0)" id="0" gradientUnits="userSpaceOnUse"/><linearGradient x1="35" xlink:href="#4" y1="2" x2="34.906" y2="41.969" id="1" gradientUnits="userSpaceOnUse"/><linearGradient x1="46" xlink:href="#4" y1="6" x2="45.906" y2="45.969" id="2" gradientUnits="userSpaceOnUse"/><linearGradient xlink:href="#5" y1="2" x2="0" y2="43" id="3" gradientUnits="userSpaceOnUse"/><linearGradient id="4"><stop id="stop11" stop-color="#fff"/><stop stop-opacity="0" offset="1" id="stop13" stop-color="#fff"/></linearGradient><linearGradient id="5"><stop id="stop16" stop-color="#dedede"/><stop offset="1" id="stop18" stop-color="#f4f4f4"/></linearGradient><linearGradient y1="17" x2="0" y2="31" gradientTransform="matrix(0.7 0 0 0.71429 -0.8 -1.143)" id="0-2" gradientUnits="userSpaceOnUse"><stop id="stop4452" stop-color="#d02604"/><stop offset="1" id="stop4454" stop-color="#fc8f7a"/></linearGradient><linearGradient y1="12" x2="0" y2="20" id="1-6" gradientUnits="userSpaceOnUse"><stop id="stop4457" stop-color="#fff"/><stop stop-opacity="0" offset="1" id="stop4459" stop-color="#fff"/></linearGradient></defs><rect y="2" x="1" opacity="0.1" ry="1.209" height="42" rx="1.209" id="rect20" width="34.951"/><rect y="1" x="0.986" ry="1.209" height="42" rx="1.209" id="rect22" width="34.951" fill="url(#3)"/><g id="g24" fill="none"><path stroke="#000" opacity="0.4" id="path26" d="M 2.1875,1.5 C 1.783721,1.5 1.5,1.799839 1.5,2.21875 l 0,39.5625 C 1.5,42.20016 1.783721,42.5 2.1875,42.5 l 32.5312,0 c 0.40378,0 0.71875,-0.31497 0.71875,-0.71875 l 0,-39.5625 C 35.43745,1.814971 35.12248,1.5 34.7187,1.5 l -32.5312,0 z"/><path stroke="url(#1)" opacity="0.78" id="path28" d="m 2.5312,2.5312 0,38.9375 31.875,0 0,-38.9375 -31.875,0 z"/></g><rect y="3.969" x="7.055" opacity="0.4" ry="1.209" height="42" rx="1.209" id="rect30" width="34.951" fill="#fff"/><rect y="6" x="8.099998" opacity="0.1" ry="1.209" height="42" rx="1.209" id="rect32" width="34.951"/><rect y="5" x="8.086" ry="1.209" height="42" rx="1.209" id="rect34" width="34.951" fill="url(#0)"/><g transform="matrix(1 0 0 1 -3.8999934 0)" id="g36" fill="none"><path stroke="#000" opacity="0.4" id="path38" d="M 13.1875,5.5 C 12.783721,5.5 12.5,5.799839 12.5,6.21875 l 0,39.5625 c 0,0.418911 0.283721,0.71875 0.6875,0.71875 l 32.5312,0 c 0.40378,0 0.71875,-0.31497 0.71875,-0.71875 l 0,-39.5625 C 46.43745,5.814971 46.12248,5.5 45.7187,5.5 l -32.5312,0 z"/><path stroke="url(#2)" opacity="0.78" id="path40" d="m 13.5312,6.5312 0,38.9375 31.875,0 0,-38.9375 -31.875,0 z"/></g><g transform="matrix(1 0 0 1 18 19)" id="g4480"><path opacity="0.15" id="path4461" d="m 2,12 28,0 0,10 -28,0 z"/><path id="path4463" d="m 2,11 28,0 0,10 -28,0 z" fill="url(#0-2)"/><g id="g4465" fill="none"><path stroke="#000" opacity="0.58" id="path4467" d="m 2.5,11.5 0,9 27,0 0,-9 -27,0 z"/><path stroke="url(#1-6)" opacity="0.58" id="path4469" d="m 3.5,12.5 0,7 25,0 0,-7 -25,0 z"/></g></g><metadata id="metadata9999"><rdf:RDF><cc:Work><dc:format>image/svg+xml</dc:format><dc:type rdf:resource="http://purl.org/dc/dcmitype/StillImage"/><dc:title>Ivy icon theme</dc:title><cc:license rdf:resource="http://creativecommons.org/licenses/by-sa/4.0/"/><dc:creator><cc:Agent><dc:title>Sixsixfive (sixsixfive.deviantart.com)</dc:title></cc:Agent></dc:creator><dc:publisher><cc:Agent><dc:title>Sixsixfive (sixsixfive.deviantart.com)</dc:title></cc:Agent></dc:publisher><dc:source>https://github.com/sixsixfive</dc:source><dc:subject><rdf:Bag><rdf:li>ivy</rdf:li></rdf:Bag></dc:subject><dc:contributor><cc:Agent><dc:title>ssf</dc:title></cc:Agent></dc:contributor><dc:rights><cc:Agent><dc:title>Sixsixfive (sixisixfive.deviantart.com)</dc:title></cc:Agent></dc:rights><dc:description>A simple icon theme published under CC-BY-SA_V4(http://creativecommons.org/licenses/by-sa/4.0)</dc:description><dc:identifier>SSF</dc:identifier></cc:Work></rdf:RDF></metadata><!--Part of the Ivy icon them published under the CC-BY-SA_V4: http://creativecommons.org/licenses/by-sa/4.0 -->
</svg>