<?xml version="1.0" encoding="UTF-8" standalone="no"?>
<svg xmlns:dc="http://purl.org/dc/elements/1.1/" xmlns:cc="http://creativecommons.org/ns#" xmlns:rdf="http://www.w3.org/1999/02/22-rdf-syntax-ns#" xmlns:svg="http://www.w3.org/2000/svg" xmlns="http://www.w3.org/2000/svg" version="1.1" id="svg2" viewBox="0 0 48 48">
 <defs id="defs4">
  <linearGradient gradientUnits="userSpaceOnUse" x2="0" y2="6.06" y1="36.05" id="0">
   <stop id="stop7" stop-color="#d3d7cf"/>
   <stop id="stop9" stop-color="#eeeeec" offset="1"/>
  </linearGradient>
  <linearGradient gradientTransform="matrix(0.96873 0 0 1.0014 -58.56 -5.945)" gradientUnits="userSpaceOnUse" x2="0" y2="36.34" y1="47.875" id="1">
   <stop id="stop12" stop-color="#eeeeec"/>
   <stop id="stop14" stop-color="#555753" offset="1"/>
  </linearGradient>
  <linearGradient gradientUnits="userSpaceOnUse" x2="0" y2="46" y1="7" id="2">
   <stop id="stop17" stop-color="#fff"/>
   <stop id="stop19" stop-opacity="0" stop-color="#fff" offset="1"/>
  </linearGradient>
 </defs>
 <path id="path21" d="m 6 7.0625 c -1.108 0 -2 0.891999 -2 2 v 26 c 0 1.108 0.891999 2 2 2 h 11.75 v 2.15625 h -2.875 c -1.00627 0 -1.8125 0.866015 -1.8125 1.90625 0 1.04023 0.806232 1.875 1.8125 1.875 h 18.3438 c 1.00627 0 1.8125 -0.834767 1.8125 -1.875 0 -1.04024 -0.806233 -1.90625 -1.8125 -1.90625 h -2.875 V 37.0625 H 42 c 1.108 0 2 -0.891999 2 -2 v -26 c 0 -1.108 -0.891999 -2 -2 -2 H 6 z" opacity="0.1"/>
 <path id="path23" d="m 17.7418 30.4415 v 7.7924 h -2.8759 c -1.00627 0 -1.81637 0.837445 -1.81637 1.87768 0 1.04023 0.810099 1.87768 1.81637 1.87768 h 18.3453 c 1.00627 0 1.81637 -0.837446 1.81637 -1.87768 0 -1.04024 -0.810101 -1.87768 -1.81637 -1.87768 h -2.87591 v -7.79237 h -12.5935 z" fill="url(#1)"/>
 <g id="g25" fill="none" stroke-width="0.985">
  <path id="path27" d="m 19.2857,32.0375 0,6.1963 a 1.54068,1.59268 0 0 1 -1.54391,1.59603 l -2.87591,0 c -0.179465,0 -0.272456,0.09613 -0.272456,0.281652 0,0.185522 0.09299,0.281651 0.272456,0.281651 l 18.3453,0 c 0.179464,0 0.272455,-0.09613 0.272455,-0.281651 0,-0.185524 -0.09299,-0.281652 -0.272455,-0.281652 l -2.87591,0 A 1.54068,1.59268 0 0 1 28.79136,38.2338 l 0,-6.19634 -9.50566,0 z" opacity="0.4" stroke="#fff"/>
  <path id="path29" d="m 18.2261,30.9422 0,7.2917 a 0.487506,0.503962 0 0 1 -0.484364,0.500714 l -2.87591,0 c -0.744648,0 -1.332,0.607181 -1.332,1.37697 0,0.769783 0.587355,1.37696 1.332,1.37696 l 18.3453,0 c 0.744648,0 1.332,-0.607181 1.332,-1.37696 0,-0.769785 -0.587355,-1.37697 -1.332,-1.37697 l -2.87591,0 A 0.487506,0.503962 0 0 1 29.850852,38.2339 l 0,-7.29166 -11.6248,0 z" opacity="0.4" stroke="#000"/>
 </g>
 <rect id="rect31" ry="2" height="30" rx="2" fill="url(#0)" y="6.06" x="4" width="40"/>
 <g id="g33" fill="none">
  <path id="path35" d="m 6.0115,6.5736 c -0.826489,0 -1.46875,0.642261 -1.46875,1.46875 l 0,26 c 0,0.826489 0.642261,1.46875 1.46875,1.46875 l 36,0 c 0.82649,0 1.46875,-0.642261 1.46875,-1.46875 l 0,-26 c 0,-0.826489 -0.64226,-1.46875 -1.46875,-1.46875 l -36,0 z" opacity="0.4" stroke="#000"/>
  <path id="path37" d="m 6.0115,7.4799 c -0.330232,0 -0.5625,0.232268 -0.5625,0.5625 l 0,26 c 0,0.330231 0.232268,0.5625 0.5625,0.5625 l 36,0 c 0.33023,0 0.5625,-0.232269 0.5625,-0.5625 l 0,-26 c 0,-0.330232 -0.23227,-0.5625 -0.5625,-0.5625 l -36,0 z" opacity="0.9" stroke="url(#2)"/>
 </g>
 <path id="path39" d="M 7.01,10.1 H41.01 V28.916 H7.01 z" fill="#d02604"/>
 <path id="path41" d="M 7,29 H41 V30 H7 z" color="#000" fill-rule="evenodd" fill="#fff" opacity="0.796"/>
 <g id="g43" transform="translate(77.862,-4.406)">
  <path id="path45" d="m -53.8617,18.4064 -8,7 c 0,1 0,0 0,1 l 5.03125,0 0,6 0,1 6,0 0,-1 0,-6 4.96875,0 c 0,-1 0,0 0,-1 z" opacity="0.4"/>
  <path id="path47" d="m -45.8617,26.3934 -4.975,0 2e-4,7.013 -6.0001,0 0,-7.013 -5.0251,0 7.9979,-6.987 z" fill="#ebebeb"/>
 </g>
 <path id="path49" d="m 7.4688 10.5378 v 17.9343 h 33.0625 v -17.9343 h -33.0625 z" stroke-width="0.97" stroke="#000" fill="none" opacity="0.46"/>
 <metadata id="metadata9999">
  <rdf:RDF>
   <cc:Work>
    <dc:format>image/svg+xml</dc:format>
    <dc:type rdf:resource="http://purl.org/dc/dcmitype/StillImage"/>
    <dc:title>Ivy icon theme</dc:title>
    <cc:license rdf:resource="http://creativecommons.org/licenses/by-sa/4.0/"/>
    <dc:creator>
     <cc:Agent>
      <dc:title>Sixsixfive (sixsixfive.deviantart.com)</dc:title>
     </cc:Agent>
    </dc:creator>
    <dc:publisher>
     <cc:Agent>
      <dc:title>Sixsixfive (sixsixfive.deviantart.com)</dc:title>
     </cc:Agent>
    </dc:publisher>
    <dc:source>https://github.com/sixsixfive</dc:source>
    <dc:subject>
     <rdf:Bag>
      <rdf:li>ivy</rdf:li>
     </rdf:Bag>
    </dc:subject>
    <dc:contributor>
     <cc:Agent>
      <dc:title>ssf</dc:title>
     </cc:Agent>
    </dc:contributor>
    <dc:rights>
     <cc:Agent>
      <dc:title>Sixsixfive (sixisixfive.deviantart.com)</dc:title>
     </cc:Agent>
    </dc:rights>
    <dc:description>A simple icon theme published under CC-BY-SA_V4(http://creativecommons.org/licenses/by-sa/4.0)</dc:description>
    <dc:identifier>SSF</dc:identifier>
   </cc:Work>
  </rdf:RDF>
 </metadata>
 <!--Part of the Ivy icon them published under the CC-BY-SA_V4: http://creativecommons.org/licenses/by-sa/4.0 -->
</svg>
