<?xml version="1.0" encoding="UTF-8" standalone="no"?>
<svg xmlns:dc="http://purl.org/dc/elements/1.1/" xmlns:cc="http://creativecommons.org/ns#" xmlns:rdf="http://www.w3.org/1999/02/22-rdf-syntax-ns#" xmlns:svg="http://www.w3.org/2000/svg" xmlns="http://www.w3.org/2000/svg" version="1.1" id="svg2" viewBox="0 0 48 48">
 <defs id="defs4">
  <linearGradient gradientUnits="userSpaceOnUse" x2="47.47" y2="60.04" x1="45.03" y1="7.846" id="0">
   <stop id="stop7" stop-color="#fff"/>
   <stop id="stop9" stop-opacity="0" stop-color="#fff" offset="1"/>
  </linearGradient>
  <linearGradient gradientUnits="userSpaceOnUse" x2="0" y2="6.908" y1="44.908" id="1">
   <stop id="stop12" stop-color="#ddd"/>
   <stop id="stop14" stop-color="#fff" offset="1"/>
  </linearGradient>
  <radialGradient gradientTransform="matrix(0.94141 0 0 0.06457 3.389 42.1)" gradientUnits="userSpaceOnUse" id="2" r="23.23" cy="44.881" cx="23.985">
   <stop id="stop17" stop-opacity="0.2"/>
   <stop id="stop19" stop-opacity="0" offset="1"/>
  </radialGradient>
 </defs>
 <g id="g21" transform="translate(-1.969,-2.688)">
  <path id="path23" d="m 47.8396,45.0003 a 21.87095,1.500003 0 0 1 -43.7419,0 21.87095,1.500003 0 1 1 43.7419,0 z" fill="url(#2)"/>
  <path id="path25" d="m 5.969,6.908 40,0 0,38 -40,0 z" fill="url(#1)"/>
  <g id="g27" fill="none">
   <path id="path29" d="m 6.4374,7.377 0,37.0625 39.0625,0 0,-37.0625 -39.0625,0 z" opacity="0.4" stroke="#000"/>
   <path id="path31" d="m 7.4062,8.3458 0,35.125 37.125,0 0,-35.125 -37.125,0 z" stroke="url(#0)"/>
  </g>
 </g>
 <g id="g33" transform="translate(-1,2)" fill="#fff">
  <path id="path35" d="m 21,9 -10,25 6,0 6,-17 3,0 7,17 6,0 L 28,9 Z"/>
  <path id="path37" d="m 18,25 13,0 0,4 -13,0 z"/>
 </g>
 <g id="g39" fill="#6a6a6a">
  <path id="path41" d="m 20,10 -10,25 6,0 6,-17 3,0 7,17 6,0 -11,-25 z"/>
  <path id="path43" d="m 17,26 13,0 0,4 -13,0 z"/>
 </g>
 <metadata id="metadata9999">
  <rdf:RDF>
   <cc:Work>
    <dc:format>image/svg+xml</dc:format>
    <dc:type rdf:resource="http://purl.org/dc/dcmitype/StillImage"/>
    <dc:title>Ivy icon theme</dc:title>
    <cc:license rdf:resource="http://creativecommons.org/licenses/by-sa/4.0/"/>
    <dc:creator>
     <cc:Agent>
      <dc:title>Sixsixfive (sixsixfive.deviantart.com)</dc:title>
     </cc:Agent>
    </dc:creator>
    <dc:publisher>
     <cc:Agent>
      <dc:title>Sixsixfive (sixsixfive.deviantart.com)</dc:title>
     </cc:Agent>
    </dc:publisher>
    <dc:source>https://github.com/sixsixfive</dc:source>
    <dc:subject>
     <rdf:Bag>
      <rdf:li>ivy</rdf:li>
     </rdf:Bag>
    </dc:subject>
    <dc:contributor>
     <cc:Agent>
      <dc:title>ssf</dc:title>
     </cc:Agent>
    </dc:contributor>
    <dc:rights>
     <cc:Agent>
      <dc:title>Sixsixfive (sixisixfive.deviantart.com)</dc:title>
     </cc:Agent>
    </dc:rights>
    <dc:description>A simple icon theme published under CC-BY-SA_V4(http://creativecommons.org/licenses/by-sa/4.0)</dc:description>
    <dc:identifier>SSF</dc:identifier>
   </cc:Work>
  </rdf:RDF>
 </metadata>
 <!--Part of the Ivy icon them published under the CC-BY-SA_V4: http://creativecommons.org/licenses/by-sa/4.0 -->
</svg>
