<?xml version="1.0" encoding="UTF-8" standalone="no"?><svg xmlns:cc="http://creativecommons.org/ns#" viewBox="0 0 48 48" version="1.1" id="svg2" xmlns:svg="http://www.w3.org/2000/svg" xmlns:rdf="http://www.w3.org/1999/02/22-rdf-syntax-ns#" xmlns="http://www.w3.org/2000/svg" xmlns:dc="http://purl.org/dc/elements/1.1/"><defs id="defs12"/><path stroke-linejoin="round" opacity="0.2" fill="#000" id="rect4232" stroke-width="3" d="M 45,4 31,18 5,18 5,44 31,44 45,30 45,4 Z"/><rect height="26" width="26" stroke-linejoin="round" fill="#e6e6e6" id="rect4155" stroke-width="3" x="5" y="17"/><path stroke-linejoin="round" fill="#ccc" id="path4191" stroke-width="3" d="M 45 29 L 45 3 L 31 17 L 31 43 L 45 29 z "/><path fill-rule="evenodd" stroke-linejoin="miter" fill="#f2f2f2" id="path4197" stroke="none" stroke-width="1" stroke-linecap="butt" stroke-opacity="1" d="M 5,17 31,17 45,3 19,3 Z"/><path stroke-dasharray="none" stroke-linejoin="round" stroke-miterlimit="4" opacity="0.4" fill="none" id="path4208" stroke="#000" stroke-width="1" d="M 19.210938,3.5078125 5.5078125,17.210938 l 0,25.28125 25.2812495,0 13.703126,-13.703126 0,-25.2812495 -25.28125,0 z"/><path fill-rule="evenodd" stroke-linejoin="miter" opacity="0.4" fill="none" id="path4210" stroke="#000" stroke-width="1" stroke-linecap="butt" stroke-opacity="1" d="m 5.5,17.5 25,0 0,25"/><path fill-rule="evenodd" stroke-linejoin="miter" opacity="0.4" fill="none" id="path4212" stroke="#000" stroke-width="1" stroke-linecap="butt" stroke-opacity="1" d="M 29.868298,17.366317 43.90984,3.381989"/><path stroke-dasharray="3 1" fill-rule="evenodd" stroke-linejoin="miter" stroke-miterlimit="4" opacity="0.2" fill="none" id="path4214" stroke="#000" stroke-width="1" stroke-linecap="butt" stroke-dashoffset="0" stroke-opacity="1" d="m 19.5,4 0,25 -13,13"/><path stroke-dasharray="3 1" fill-rule="evenodd" stroke-linejoin="miter" stroke-miterlimit="4" opacity="0.2" fill="none" id="path4216" stroke="#000" stroke-width="1" stroke-linecap="butt" stroke-dashoffset="0" stroke-opacity="1" d="m 19,28.5 25,0"/><rect stroke-dasharray="3 1" height="1" width="24" fill-opacity="1" stroke-linejoin="miter" stroke-miterlimit="4" opacity="0.78" fill="#fff" id="rect4220" stroke="none" stroke-width="1" x="6" stroke-dashoffset="0" y="18" stroke-opacity="1"/><path fill-rule="evenodd" stroke-linejoin="miter" opacity="0.4" fill="#fff" id="path4222" stroke="none" stroke-width="1" stroke-linecap="butt" stroke-opacity="1" d="M 31,17 44,4 44,5.5 31,18.5 Z"/><rect stroke-dasharray="3 1" height="1" width="23" fill-opacity="1" stroke-linejoin="miter" stroke-miterlimit="4" opacity="0.78" fill="#fff" id="rect4226" stroke="none" stroke-width="1" x="19" stroke-dashoffset="0" transform="matrix(0 1 -1 0 0 0)" y="-30" stroke-opacity="1"/><rect stroke-dasharray="3 1" height="1" width="23" fill-opacity="1" stroke-linejoin="miter" stroke-miterlimit="4" opacity="0.78" fill="#fff" id="rect4228" stroke="none" stroke-width="1" x="19" stroke-dashoffset="0" transform="matrix(0 1 -1 0 0 0)" y="-7" stroke-opacity="1"/><rect stroke-dasharray="3 1" height="1" width="24" fill-opacity="1" stroke-linejoin="miter" stroke-miterlimit="4" opacity="0.4" fill="#fff" id="rect4230" stroke="none" stroke-width="1" x="5" stroke-dashoffset="0" transform="matrix(0 1 -1 0 0 0)" y="-44" stroke-opacity="1"/><metadata id="metadata9999"><rdf:RDF><cc:Work><dc:format>image/svg+xml</dc:format><dc:type rdf:resource="http://purl.org/dc/dcmitype/StillImage"/><dc:title>Ivy icon theme</dc:title><cc:license rdf:resource="http://creativecommons.org/licenses/by-sa/4.0/"/><dc:creator><cc:Agent><dc:title>Sixsixfive (sixsixfive.deviantart.com)</dc:title></cc:Agent></dc:creator><dc:publisher><cc:Agent><dc:title>Sixsixfive (sixsixfive.deviantart.com)</dc:title></cc:Agent></dc:publisher><dc:source>https://github.com/sixsixfive</dc:source><dc:subject><rdf:Bag><rdf:li>ivy</rdf:li></rdf:Bag></dc:subject><dc:contributor><cc:Agent><dc:title>ssf</dc:title></cc:Agent></dc:contributor><dc:rights><cc:Agent><dc:title>Sixsixfive (sixisixfive.deviantart.com)</dc:title></cc:Agent></dc:rights><dc:description>A simple icon theme published under CC-BY-SA_V4(http://creativecommons.org/licenses/by-sa/4.0)</dc:description><dc:identifier>SSF</dc:identifier></cc:Work></rdf:RDF></metadata><!--Part of the Ivy icon them published under the CC-BY-SA_V4: http://creativecommons.org/licenses/by-sa/4.0 -->
</svg>