<?xml version="1.0" encoding="UTF-8" standalone="no"?><svg xmlns:cc="http://creativecommons.org/ns#" viewBox="0 0 48 48" version="1.1" id="svg2" xmlns:svg="http://www.w3.org/2000/svg" xmlns="http://www.w3.org/2000/svg" xmlns:rdf="http://www.w3.org/1999/02/22-rdf-syntax-ns#" xmlns:dc="http://purl.org/dc/elements/1.1/"><defs id="defs4"><linearGradient x2="0" gradientUnits="userSpaceOnUse" y2="43" id="0" y1="5"><stop stop-color="#fff" id="stop7"/><stop offset="1" stop-opacity="0" stop-color="#fff" id="stop9"/></linearGradient><linearGradient x2="0" gradientUnits="userSpaceOnUse" y2="44" id="1" y1="4"><stop stop-color="#a868d4" id="stop12"/><stop offset="1" stop-color="#cface8" id="stop14"/></linearGradient></defs><path opacity="0.15" id="path16" d="m 17 5 v 13 h -13 v 14 h 13 v 13 h 14 v -13 h 13 v -14 h -13 v -13 h -14 z"/><path fill="url(#1)" id="path18" d="m 17 4 v 13 h -13 v 14 h 13 v 13 h 14 v -13 h 13 v -14 h -13 v -13 h -14 z"/><g fill="none" id="g20" stroke-linecap="square"><path opacity="0.4" stroke="#000" id="path22" d="m 17.4375,4.4375 0,12.5625 A 0.442397,0.442397 0 0 1 17,17.4375 l -12.5625,0 0,13.125 12.5625,0 A 0.442397,0.442397 0 0 1 17.4375,31 l 0,12.5625 13.125,0 0,-12.5625 A 0.442397,0.442397 0 0 1 31,30.5625 l 12.5625,0 0,-13.125 -12.5625,0 A 0.442397,0.442397 0 0 1 30.5625,17 l 0,-12.5625 -13.125,0 z"/><path opacity="0.425" stroke="url(#0)" id="path24" d="m 18.4062,5.4062 0,11.5938 a 1.41082,1.41082 0 0 1 -1.40625,1.40625 l -11.5938,0 0,11.1875 11.5938,0 A 1.41082,1.41082 0 0 1 18.4062,31 l 0,11.5938 11.1875,0 0,-11.5938 a 1.41082,1.41082 0 0 1 1.40625,-1.40625 l 11.5938,0 0,-11.1875 -11.5938,0 A 1.41082,1.41082 0 0 1 29.5937,17 l 0,-11.5938 -11.1875,0 z"/></g><metadata id="metadata9999"><rdf:RDF><cc:Work><dc:format>image/svg+xml</dc:format><dc:type rdf:resource="http://purl.org/dc/dcmitype/StillImage"/><dc:title>Ivy icon theme</dc:title><cc:license rdf:resource="http://creativecommons.org/licenses/by-sa/4.0/"/><dc:creator><cc:Agent><dc:title>Sixsixfive (sixsixfive.deviantart.com)</dc:title></cc:Agent></dc:creator><dc:publisher><cc:Agent><dc:title>Sixsixfive (sixsixfive.deviantart.com)</dc:title></cc:Agent></dc:publisher><dc:source>https://github.com/sixsixfive</dc:source><dc:subject><rdf:Bag><rdf:li>ivy</rdf:li></rdf:Bag></dc:subject><dc:contributor><cc:Agent><dc:title>ssf</dc:title></cc:Agent></dc:contributor><dc:rights><cc:Agent><dc:title>Sixsixfive (sixisixfive.deviantart.com)</dc:title></cc:Agent></dc:rights><dc:description>A simple icon theme published under CC-BY-SA_V4(http://creativecommons.org/licenses/by-sa/4.0)</dc:description><dc:identifier>SSF</dc:identifier></cc:Work></rdf:RDF></metadata><!--Part of the Ivy icon them published under the CC-BY-SA_V4: http://creativecommons.org/licenses/by-sa/4.0 -->
</svg>