<?xml version="1.0" encoding="UTF-8" standalone="no"?><svg xmlns:cc="http://creativecommons.org/ns#" viewBox="0 0 48 48" version="1.1" id="svg2" xmlns:svg="http://www.w3.org/2000/svg" xmlns:rdf="http://www.w3.org/1999/02/22-rdf-syntax-ns#" xmlns="http://www.w3.org/2000/svg" xmlns:dc="http://purl.org/dc/elements/1.1/"><defs id="defs4"><linearGradient x2="0" gradientUnits="userSpaceOnUse" id="0" y2="42" y1="7"><stop id="stop7" stop-color="#fff"/><stop offset="1" stop-opacity="0" id="stop9" stop-color="#fff"/></linearGradient><linearGradient x2="32.13" gradientUnits="userSpaceOnUse" x1="31.779" id="1" y2="44.853" y1="4.01"><stop id="stop12" stop-color="#66b03e"/><stop offset="1" id="stop14" stop-color="#95ce76"/></linearGradient><radialGradient r="7" gradientUnits="userSpaceOnUse" cx="32" cy="46.5" id="2" gradientTransform="matrix(1 0 0 0.21429 0 36.536)"><stop id="stop17"/><stop offset="1" stop-opacity="0" id="stop19"/></radialGradient></defs><path opacity="0.08" fill="url(#2)" id="path21" transform="matrix(-0.71429 0 0 0.66667 45.939 14)" d="m 39 46.5 a 7 1.5 0 1 1 -14 0 7 1.5 0 1 1 14 0 z"/><path fill="url(#1)" id="path23" d="m 23.006,4 0,11.8416 -17.962,0 L 12.082,25 5.044,33.1584 H 23.006 V 45 L 43.082,24.4682 z"/><g fill="none" id="g25"><path opacity="0.4" id="path27" stroke="#000" d="m 23.4883,5.1562 18.9375,19.3125 -18.9375,19.375 0,-10.6875 c 0.0019,-0.24596 -0.22279,-0.470683 -0.46875,-0.46875 l -16.8394,-0.0508 6.5462,-7.6367 -6.7495,-8.7383 17.0427,0.0508 c 0.24596,0.0019 0.470683,-0.22279 0.46875,-0.46875 z"/><path opacity="0.6" id="path29" stroke="url(#0)" d="m 24.4883,7.625 16.5312,16.8438 -16.5312,16.9062 0,-8.2188 c -4.08e-4,-0.768924 -0.699826,-1.46834 -1.46875,-1.46875 l -14.6707,-0.0508 5.8435,-6.6042 -6.1992,-7.8216 15.0264,0.1016 c 0.768924,-4.08e-4 1.46834,-0.699826 1.46875,-1.46875 z"/></g><metadata id="metadata9999"><rdf:RDF><cc:Work><dc:format>image/svg+xml</dc:format><dc:type rdf:resource="http://purl.org/dc/dcmitype/StillImage"/><dc:title>Ivy icon theme</dc:title><cc:license rdf:resource="http://creativecommons.org/licenses/by-sa/4.0/"/><dc:creator><cc:Agent><dc:title>Sixsixfive (sixsixfive.deviantart.com)</dc:title></cc:Agent></dc:creator><dc:publisher><cc:Agent><dc:title>Sixsixfive (sixsixfive.deviantart.com)</dc:title></cc:Agent></dc:publisher><dc:source>https://github.com/sixsixfive</dc:source><dc:subject><rdf:Bag><rdf:li>ivy</rdf:li></rdf:Bag></dc:subject><dc:contributor><cc:Agent><dc:title>ssf</dc:title></cc:Agent></dc:contributor><dc:rights><cc:Agent><dc:title>Sixsixfive (sixisixfive.deviantart.com)</dc:title></cc:Agent></dc:rights><dc:description>A simple icon theme published under CC-BY-SA_V4(http://creativecommons.org/licenses/by-sa/4.0)</dc:description><dc:identifier>SSF</dc:identifier></cc:Work></rdf:RDF></metadata><!--Part of the Ivy icon them published under the CC-BY-SA_V4: http://creativecommons.org/licenses/by-sa/4.0 -->
</svg>