<?xml version="1.0" encoding="UTF-8" standalone="no"?><svg xmlns:cc="http://creativecommons.org/ns#" xmlns:rdf="http://www.w3.org/1999/02/22-rdf-syntax-ns#" xmlns:svg="http://www.w3.org/2000/svg" id="svg2" viewBox="0 0 48 48" version="1.1" xmlns:xlink="http://www.w3.org/1999/xlink" xmlns="http://www.w3.org/2000/svg" xmlns:dc="http://purl.org/dc/elements/1.1/"><defs id="defs4"><linearGradient id="linearGradient4401"><stop id="stop4403" stop-color="#fff"/><stop offset="1" id="stop4405" stop-color="#fff" stop-opacity="0"/></linearGradient><linearGradient id="0" x2="0" y2="42.08" y1="5.957" gradientUnits="userSpaceOnUse"><stop id="stop7" stop-color="#fff"/><stop offset="1" id="stop9" stop-color="#fff" stop-opacity="0"/></linearGradient><linearGradient id="1" x2="43.912" y2="-0.997" x1="44" y1="43.02" gradientUnits="userSpaceOnUse"><stop id="stop12" stop-color="#ddd"/><stop offset="1" id="stop14" stop-color="#fff"/></linearGradient><linearGradient id="linearGradient4165"><stop id="stop4167" stop-color="#eed45a"/><stop offset="1" id="stop4169" stop-color="#e9c82a"/></linearGradient><linearGradient id="linearGradient4407" x2="0" y2="23" xlink:href="#linearGradient4401" y1="42" gradientUnits="userSpaceOnUse"/><linearGradient id="linearGradient4423" x2="0" y2="12" xlink:href="#linearGradient4165" y1="46" gradientUnits="userSpaceOnUse"/></defs><path id="path16" opacity="0.1" d="M 4,6.02 H44 V44.02 H4 z"/><path id="path18" d="M 4,5.02 H44 V43.02 H4 z" fill="url(#1)"/><path id="path4504" opacity="0.1" d="m 11,19.537109 c -0.266,0 -0.462891,0.196891 -0.462891,0.462891 l 0,5 c 0,0.266 0.196891,0.462891 0.462891,0.462891 l 5,0 c 0.266,0 0.462891,-0.196891 0.462891,-0.462891 l 0,-5 C 16.462891,19.734 16.266,19.537109 16,19.537109 l -5,0 z" stroke="#000" transform="matrix(1 0 0 1 0 1.000109)" fill-rule="evenodd"/><path id="path3395" opacity="0.1" d="M 47 13 L 7 47 L 47 47 L 47 13 z M 41 26 L 41 41 L 23 41 L 41 26 z " fill-rule="evenodd"/><path id="path20" d="M 4,5.02 H44 V15.139 H4 z" fill="#5288d1"/><g id="g22" fill="none"><g id="g24" stroke="#000"><path id="path26" opacity="0.4" d="m 4.4688,5.4881 0,37.0625 39.0625,0 0,-37.0625 -39.0625,0 z"/><path id="path28" opacity="0.4" d="m 4.9369,14.6279 38.1261,4e-4"/></g><path id="path30" opacity="0.4" d="m 5.4375,6.4568 0,35.125 37.125,0 0,-35.125 -37.125,0 z" stroke="url(#0)"/></g><path id="rect3390" d="M 47 12 L 7 46 L 47 46 L 47 12 z M 41 25 L 41 40 L 23 40 L 41 25 z " stroke="none" fill-rule="evenodd" fill="url(#linearGradient4423)"/><g id="g32" fill-rule="evenodd" fill="#fff" color="#000"><path id="path34" d="m 7.03,9.111 1,0 0,1 -1,0 z"/><path id="path36" d="m 8.03,10.111 1,0 0,1 -1,0 z"/><path id="path38" d="m 9.03,11.11 1,0 0,1 -1,0 z"/><path id="path40" d="m 7.03,11.11 1,0 0,1 -1,0 z"/><path id="path42" d="m 9.03,9.111 1,0 0,1 -1,0 z"/><path id="path44" d="m 12.03,9.111 1,0 0,3 -1,0 z"/><path id="path46" d="m 11.11,-15.03 1,0 0,3 -1,0 z" transform="matrix(0 1 -1 0 0 0)"/><path id="path48" d="m -15.03,-12.11 1,0 0,3 -1,0 z" transform="matrix(-1 0 0 -1 0 0)"/><g id="g50" transform="matrix(0 -1 1 0 0 0)"><path id="path52" d="m -10.111,12.03 1,0 0,3 -1,0 z"/><path id="path54" d="m -12.11,17.03 1,0 0,3 -1,0 z"/></g></g><path id="path56" d="m 4.9369,15.6276 38.1261,4e-4" stroke="#fff" fill="none"/><path id="path3399" opacity="0.4" d="m 46.460938,13.166016 -37.9941411,32.294922 37.9941411,0 0,-32.294922 z" stroke="#000" fill-rule="evenodd" fill="none"/><path id="path3401" opacity="0.4" d="m 45.458984,15.332031 -34.267578,29.126953 34.267578,0 0,-29.126953 z" stroke="#fff" fill-rule="evenodd" fill="none"/><rect stroke-linecap="round" height="1" stroke-dasharray="39 19.5 9.75 19.5" id="rect4425" opacity="0.4" stroke-width="19.5" width="2" transform="matrix(0 -1 -1 0 0 0)" x="-45" y="-42" stroke-linejoin="round"/><rect stroke-linecap="round" height="1" stroke-dasharray="39 19.5 9.75 19.5" id="rect4427" opacity="0.2" stroke-width="19.5" width="2" transform="matrix(0 -1 -1 0 0 0)" x="-45" y="-41" stroke-linejoin="round" fill="#fff"/><rect stroke-linecap="round" height="1" stroke-dasharray="39 19.5 9.75 19.5" id="rect4429" opacity="0.4" stroke-width="19.5" width="2" transform="matrix(0 -1 -1 0 0 0)" x="-45" y="-36" stroke-linejoin="round"/><rect stroke-linecap="round" height="1" stroke-dasharray="39 19.5 9.75 19.5" id="rect4431" opacity="0.2" stroke-width="19.5" width="2" transform="matrix(0 -1 -1 0 0 0)" x="-45" y="-35" stroke-linejoin="round" fill="#fff"/><path stroke-linecap="square" stroke-miterlimit="26.1" id="path4397" opacity="0.4" d="m 40.986328,24.542969 a 0.45750227,0.45750227 0 0 0 -0.279297,0.105469 l -18,15 A 0.45750227,0.45750227 0 0 0 23,40.457031 l 18,0 A 0.45750227,0.45750227 0 0 0 41.457031,40 l 0,-15 a 0.45750227,0.45750227 0 0 0 -0.470703,-0.457031 z" stroke="#000" fill-rule="evenodd" fill="none"/><path stroke-linecap="square" stroke-miterlimit="26.1" id="path4399" opacity="0.4" d="m 40.957031,23.533203 a 1.4680261,1.4680261 0 0 0 -0.896484,0.339844 l -18,15 A 1.4680261,1.4680261 0 0 0 23,41.46875 l 18,0 A 1.4680261,1.4680261 0 0 0 42.46875,40 l 0,-15 a 1.4680261,1.4680261 0 0 0 -1.511719,-1.466797 z" stroke="url(#linearGradient4407)" fill-rule="evenodd" fill="none"/><rect stroke-linecap="round" height="1" stroke-dasharray="39 19.5 9.75 19.5" id="rect4474" opacity="0.4" stroke-width="19.5" width="2" transform="matrix(0 -1 -1 0 0 0)" x="-45" y="-30" stroke-linejoin="round"/><rect stroke-linecap="round" height="1" stroke-dasharray="39 19.5 9.75 19.5" id="rect4476" opacity="0.2" stroke-width="19.5" width="2" transform="matrix(0 -1 -1 0 0 0)" x="-45" y="-29" stroke-linejoin="round" fill="#fff"/><rect stroke-linecap="round" height="1" stroke-dasharray="39 19.5 9.75 19.5" id="rect4478" opacity="0.4" stroke-width="19.5" width="2" transform="matrix(0 -1 -1 0 0 0)" x="-45" y="-24" stroke-linejoin="round"/><rect stroke-linecap="round" height="1" stroke-dasharray="39 19.5 9.75 19.5" id="rect4480" opacity="0.2" stroke-width="19.5" width="2" transform="matrix(0 -1 -1 0 0 0)" x="-45" y="-23" stroke-linejoin="round" fill="#fff"/><rect stroke-linecap="round" height="1" stroke-dasharray="39 19.5 9.75 19.5" id="rect4482" opacity="0.4" stroke-width="19.5" width="2" transform="matrix(0 -1 -1 0 0 0)" x="-45" y="-18" stroke-linejoin="round"/><rect stroke-linecap="round" height="1" stroke-dasharray="39 19.5 9.75 19.5" id="rect4484" opacity="0.2" stroke-width="19.5" width="2" transform="matrix(0 -1 -1 0 0 0)" x="-45" y="-17" stroke-linejoin="round" fill="#fff"/><rect rx="1" ry="1" height="7" id="rect4490" width="7" x="10" y="19" fill-rule="evenodd" fill="#fff"/><path id="path4502" opacity="0.4" d="m 11,19.537109 c -0.266,0 -0.462891,0.196891 -0.462891,0.462891 l 0,5 c 0,0.266 0.196891,0.462891 0.462891,0.462891 l 5,0 c 0.266,0 0.462891,-0.196891 0.462891,-0.462891 l 0,-5 C 16.462891,19.734 16.266,19.537109 16,19.537109 l -5,0 z" stroke="#000" fill-rule="evenodd" fill="#fff"/><path id="path4506" opacity="0.1" d="m 11,19.537109 c -0.266,0 -0.462891,0.196891 -0.462891,0.462891 l 0,5 c 0,0.266 0.196891,0.462891 0.462891,0.462891 l 5,0 c 0.266,0 0.462891,-0.196891 0.462891,-0.462891 l 0,-5 C 16.462891,19.734 16.266,19.537109 16,19.537109 l -5,0 z" stroke="#000" transform="matrix(1 0 0 1 0 12.037109)" fill-rule="evenodd" fill="#000"/><rect rx="1" ry="1" height="7" id="rect4508" width="7" x="10" y="30.037" fill-rule="evenodd" fill="#fff"/><path id="path4510" opacity="0.4" d="m 11,19.537109 c -0.266,0 -0.462891,0.196891 -0.462891,0.462891 l 0,5 c 0,0.266 0.196891,0.462891 0.462891,0.462891 l 5,0 c 0.266,0 0.462891,-0.196891 0.462891,-0.462891 l 0,-5 C 16.462891,19.734 16.266,19.537109 16,19.537109 l -5,0 z" stroke="#000" transform="matrix(1 0 0 1 0 11.037)" fill-rule="evenodd" fill="#fff"/><path stroke-linecap="round" stroke-miterlimit="2" id="path4512" opacity="0.48" d="m 12.5,33 0.5,2 2.4,-3" stroke="#000" stroke-linejoin="round" fill-rule="evenodd" fill="none"/><metadata id="metadata9999"><rdf:RDF><cc:Work><dc:format>image/svg+xml</dc:format><dc:type rdf:resource="http://purl.org/dc/dcmitype/StillImage"/><dc:title>Ivy icon theme</dc:title><cc:license rdf:resource="http://creativecommons.org/licenses/by-sa/4.0/"/><dc:creator><cc:Agent><dc:title>Sixsixfive (sixsixfive.deviantart.com)</dc:title></cc:Agent></dc:creator><dc:publisher><cc:Agent><dc:title>Sixsixfive (sixsixfive.deviantart.com)</dc:title></cc:Agent></dc:publisher><dc:source>https://github.com/sixsixfive</dc:source><dc:subject><rdf:Bag><rdf:li>ivy</rdf:li></rdf:Bag></dc:subject><dc:contributor><cc:Agent><dc:title>ssf</dc:title></cc:Agent></dc:contributor><dc:rights><cc:Agent><dc:title>Sixsixfive (sixisixfive.deviantart.com)</dc:title></cc:Agent></dc:rights><dc:description>A simple icon theme published under CC-BY-SA_V4(http://creativecommons.org/licenses/by-sa/4.0)</dc:description><dc:identifier>SSF</dc:identifier></cc:Work></rdf:RDF></metadata><!--Part of the Ivy icon them published under the CC-BY-SA_V4: http://creativecommons.org/licenses/by-sa/4.0 -->
</svg>