<?xml version="1.0" encoding="UTF-8" standalone="no"?><svg xmlns:cc="http://creativecommons.org/ns#" viewBox="0 0 48 48" version="1.1" id="svg2" xmlns:svg="http://www.w3.org/2000/svg" xmlns:rdf="http://www.w3.org/1999/02/22-rdf-syntax-ns#" xmlns="http://www.w3.org/2000/svg" xmlns:dc="http://purl.org/dc/elements/1.1/"><defs id="defs4"><linearGradient x2="0" gradientUnits="userSpaceOnUse" id="0" y2="1049.36" y1="1014.36"><stop id="stop7" stop-color="#fff"/><stop offset="1" stop-opacity="0" id="stop9" stop-color="#fff"/></linearGradient><linearGradient x2="40" gradientUnits="userSpaceOnUse" x1="39.695" id="1" y2="8.994" y1="46.621"><stop id="stop12" stop-color="#333"/><stop offset="1" id="stop14" stop-color="#6a6a6a"/></linearGradient></defs><path opacity="0.15" id="path16" d="M 12 10.0022 C 10.892 10.0022 10 10.8273 10 11.8522 V 13.7022 V 19.2522 V 43.3022 C 10 45.352 11.784 47.0022 14 47.0022 H 36 C 38.216 47.0022 40 45.352 40 43.3022 V 19.2522 V 13.7022 V 11.8522 C 40 10.8273 39.108 10.0022 38 10.0022 H 36 H 14 H 12 z"/><path fill="#ebebeb" id="path18" d="M 16 1 H 34 V 11 H 16 z"/><path fill="url(#1)" id="path20" d="M 12 9.0022 C 10.892 9.0022 10 9.8273 10 10.8522 V 12.7022 V 18.2522 V 42.3022 C 10 44.352 11.784 46.0022 14 46.0022 H 36 C 38.216 46.0022 40 44.352 40 42.3022 V 18.2522 V 12.7022 V 10.8522 C 40 9.8273 39.108 9.0022 38 9.0022 H 36 H 14 H 12 z"/><path fill="#fff" id="path22" d="M 19 5 H 23 V 7 H 19 z"/><path fill="#4e4e4e" id="path24" d="M 19 4 H 23 V 6 H 19 z"/><path fill="#fff" id="path26" d="M 27 5 H 31 V 7 H 27 z"/><path fill="#4e4e4e" id="path28" d="M 27 4 H 31 V 6 H 27 z"/><path opacity="0.5" id="path30" d="M 16 1 H 34 V 2 H 16 z"/><path opacity="0.5" id="path32" d="M 16 2 H 17 V 9 H 16 z"/><path opacity="0.65" fill="none" id="path34" stroke="#fff" d="M 17.40625 2.4212 V 9.6088 H 32.59375 V 2.4212 H 17.40625 z"/><path opacity="0.5" id="path36" d="M 33 2 H 34 V 9 H 33 z"/><g fill="none" id="g38" transform="matrix(1 0 0 1 0 -1004.36)"><path opacity="0.74" id="path40" stroke="#000" d="m 12,1013.8438 c -0.876418,0 -1.53125,0.6228 -1.53125,1.375 l 0,1.8437 0,5.5625 0,24.0312 c 0,1.7773 1.55123,3.25 3.53125,3.25 l 22,0 c 1.980006,0 3.53125,-1.4729 3.53125,-3.25 l 0,-24.0312 0,-5.5625 0,-1.8437 c 0,-0.7524 -0.654804,-1.375 -1.53125,-1.375 l -2,0 -22,0 -2,0 z"/><path opacity="0.4" id="path42" stroke="url(#0)" d="m 12,1014.9062 c -0.355618,0 -0.46875,0.1736 -0.46875,0.3126 l 0,1.8437 0,5.5625 0,24.0312 c 0,1.164 1.019419,2.1876 2.46875,2.1876 l 22,0 c 1.449285,0 2.46875,-1.0237 2.46875,-2.1876 l 0,-24.0312 0,-5.5625 0,-1.8437 c 0,-0.1391 -0.11304,-0.3126 -0.46875,-0.3126 l -2,0 -22,0 -2,0 z"/></g><metadata id="metadata9999"><rdf:RDF><cc:Work><dc:format>image/svg+xml</dc:format><dc:type rdf:resource="http://purl.org/dc/dcmitype/StillImage"/><dc:title>Ivy icon theme</dc:title><cc:license rdf:resource="http://creativecommons.org/licenses/by-sa/4.0/"/><dc:creator><cc:Agent><dc:title>Sixsixfive (sixsixfive.deviantart.com)</dc:title></cc:Agent></dc:creator><dc:publisher><cc:Agent><dc:title>Sixsixfive (sixsixfive.deviantart.com)</dc:title></cc:Agent></dc:publisher><dc:source>https://github.com/sixsixfive</dc:source><dc:subject><rdf:Bag><rdf:li>ivy</rdf:li></rdf:Bag></dc:subject><dc:contributor><cc:Agent><dc:title>ssf</dc:title></cc:Agent></dc:contributor><dc:rights><cc:Agent><dc:title>Sixsixfive (sixisixfive.deviantart.com)</dc:title></cc:Agent></dc:rights><dc:description>A simple icon theme published under CC-BY-SA_V4(http://creativecommons.org/licenses/by-sa/4.0)</dc:description><dc:identifier>SSF</dc:identifier></cc:Work></rdf:RDF></metadata><!--Part of the Ivy icon them published under the CC-BY-SA_V4: http://creativecommons.org/licenses/by-sa/4.0 -->
</svg>