<?xml version="1.0" encoding="UTF-8" standalone="no"?><svg xmlns:cc="http://creativecommons.org/ns#" xmlns:rdf="http://www.w3.org/1999/02/22-rdf-syntax-ns#" xmlns:svg="http://www.w3.org/2000/svg" id="svg2" viewBox="0 0 48 48" version="1.1" xmlns:xlink="http://www.w3.org/1999/xlink" xmlns="http://www.w3.org/2000/svg" xmlns:dc="http://purl.org/dc/elements/1.1/"><defs id="defs4"><path id="0" d="M 19,-31 H20 V-27 H19 z"/><path id="1" d="M 20,-30 H21 V-28 H20 z"/><linearGradient id="2" x2="32.938" y2="27.5" xlink:href="#6" x1="33" y1="21.929" gradientUnits="userSpaceOnUse"/><linearGradient id="3" x2="0" y2="40.03" xlink:href="#6" y1="13.03" gradientUnits="userSpaceOnUse"/><linearGradient id="4" x2="20" y2="23" xlink:href="#6" x1="19.969" y1="16.03" gradientUnits="userSpaceOnUse"/><linearGradient id="5" x2="11" y2="44" x1="10.969" y1="6.03" gradientUnits="userSpaceOnUse"><stop id="stop12" stop-color="#6a6a6a"/><stop offset="1" id="stop14" stop-color="#c8c8c8"/></linearGradient><linearGradient id="6"><stop id="stop17" stop-color="#fff"/><stop offset="1" id="stop19" stop-color="#fff" stop-opacity="0"/></linearGradient><linearGradient id="7" x2="0" y2="41" y1="12" gradientUnits="userSpaceOnUse"><stop id="stop22" stop-color="#fc5330"/><stop offset="1" id="stop24" stop-color="#fd7a60"/></linearGradient></defs><path id="path26" opacity="0.15" d="m 4 7 v 4 h 3 v 6 h -2 v 8 h 2 v 20 h 4 v -8 h 10 v 5 h 25 v -5 v -24 h -35 v -2 v -4 h -7 z"/><path id="path28" d="m 9 12 v 24 h 12 v 5 h 25 v -5 v -24 h -37 z" fill="url(#7)"/><path id="path30" opacity="0.1" d="m 16 30.5 a 1.5 1.5 0 0 1 -3 0 1.5 1.5 0 1 1 3 0 z"/><path id="path32" d="M 39,36 H46 V41 H39 z" fill="#eed45a"/><path id="path34" d="m 16 29.5 a 1.5 1.5 0 0 1 -3 0 1.5 1.5 0 1 1 3 0 z" fill="#5288d1"/><path id="path36" opacity="0.1" d="m 21 30.5 a 1.5 1.5 0 0 1 -3 0 1.5 1.5 0 1 1 3 0 z"/><g id="g38" fill="#eed45a"><path id="path40" d="m 21,36 7,0 0,5 -7,0 z"/><path id="path42" d="m 30,36 7,0 0,5 -7,0 z"/></g><g id="g44" fill="none"><path id="path46" opacity="0.4" d="m 9.5312,12.5312 0,22.9375 11.4688,0 a 0.530877,0.530877 0 0 1 0.53125,0.53125 l 0,4.46875 23.9375,0 0,-4.46875 0,-23.4688 -35.9375,0 z" stroke="#000"/><path id="path48" opacity="0.4" d="m 10.5576,13.5309 0,21 10.5,0 a 1.50458,1.50458 0 0 1 1.5,1.5 l 0,3.5 22,0 0,-3.5 0,-22.5 -34,0 z" stroke="url(#3)"/></g><path id="path50" d="M 5,16 H10 V24 H5 z" fill="#6a6a6a"/><path id="path52" opacity="0.3" d="m 5.4688 16.4688 v 7.0625 h 4.0625 v -7.0625 h -4.0625 z" stroke="#000" fill="none"/><path id="path54" d="m 4 6 v 4 h 3 v 34 h 4 v -34 v -4 h -7 z" fill="url(#5)"/><path id="path56" opacity="0.4" d="m 3.5312,6.5312 0,2.9375 2.4688,0 a 0.530877,0.530877 0 0 1 0.53125,0.53125 v 33.4688 h 2.9375 V 9.99995 6.5312 h -5.9375 z" stroke="#000" transform="matrix(1 0 0 1 1 0)" fill="none"/><path id="path58" d="M 38,16 H42 V21 H38 z" fill="#6a6a6a"/><path id="path60" opacity="0.1" d="m 34 27.5 a 7 6.5 0 1 1 -14 0 7 6.5 0 1 1 14 0 z" transform="matrix(1 0 0 1.07692 2 -5.615)"/><path id="path62" d="m 34 27.5 a 7 6.5 0 1 1 -14 0 7 6.5 0 1 1 14 0 z" transform="matrix(1 0 0 1.07692 2 -6.615)" fill="#ebebeb"/><path id="path64" opacity="0.2" d="M 31,36 H32 V41 H31 z"/><path id="path66" opacity="0.2" d="M 33,36 H34 V41 H33 z"/><path id="path68" opacity="0.2" d="M 35,36 H36 V41 H35 z"/><path id="path70" opacity="0.2" d="M 23,36 H24 V41 H23 z"/><path id="path72" opacity="0.2" d="M 25,36 H26 V41 H25 z"/><path id="path74" opacity="0.2" d="M 27,36 H28 V41 H27 z"/><path id="path76" opacity="0.2" d="M 39,36 H40 V41 H39 z"/><path id="path78" opacity="0.2" d="M 41,36 H42 V41 H41 z"/><path id="path80" opacity="0.2" d="M 43,36 H44 V41 H43 z"/><g id="g82" transform="matrix(1 0 0 1.07692 2 -6.615)" fill="none"><path id="path84" opacity="0.4" d="m 27,21.5312 c -3.59759,0 -6.46875,2.69018 -6.46875,5.96875 0,3.27857 2.87116,5.96875 6.46875,5.96875 3.59759,0 6.46875,-2.69018 6.46875,-5.96875 0,-3.27857 -2.87116,-5.96875 -6.46875,-5.96875 z" stroke="#000"/><path id="path86" opacity="0.8" d="m 27,22.5625 c -3.08063,0 -5.4375,2.25849 -5.4375,4.9375 0,2.67901 2.35687,4.9375 5.4375,4.9375 3.08063,0 5.4375,-2.25849 5.4375,-4.9375 0,-2.67901 -2.35687,-4.9375 -5.4375,-4.9375 z" stroke="url(#2)"/></g><g id="g88" transform="matrix(0 1 -1 0 0 0)" fill="#6a6a6a"><use height="48" id="use90" width="48" x="0" xlink:href="#0" y="0"/><use height="48" id="use92" width="48" x="0" xlink:href="#1" y="0"/></g><g id="g94" fill="#6a6a6a"><g id="g96" transform="matrix(-1 0 0 -1 52 -6)"><use height="48" id="use98" width="48" x="0" xlink:href="#0" y="0"/><use height="48" id="use100" width="48" x="0" xlink:href="#1" y="0"/></g><g id="g102" transform="matrix(0 -1 1 0 58 46)"><use height="48" id="use104" width="48" x="0" xlink:href="#0" y="0"/><use height="48" id="use106" width="48" x="0" xlink:href="#1" y="0"/></g><g id="g108" transform="matrix(1 0 0 1 6 52)"><use height="48" id="use110" width="48" x="0" xlink:href="#0" y="0"/><use height="48" id="use112" width="48" x="0" xlink:href="#1" y="0"/></g><path id="path114" d="m 38,24 4,0 0,5 -4,0 z"/><path id="path116" d="m 13,16 7,0 0,7 -7,0 z"/></g><path id="path118" d="m 21 29.5 a 1.5 1.5 0 0 1 -3 0 1.5 1.5 0 1 1 3 0 z" fill="#5288d1"/><path id="path120" opacity="0.3" d="m 13.5312 16.5312 v 5.9375 h 5.9375 v -5.9375 h -5.9375 z" stroke="url(#4)" fill="none"/><g id="g122" fill="#fff"><path id="path124" opacity="0.3" d="m 5,7 5,0 0,1 -5,0 z"/><path id="path126" opacity="0.2" d="m 38,16 4,0 0,1 -4,0 z"/><path id="path128" opacity="0.2" d="m 38,24 4,0 0,1 -4,0 z"/></g><metadata id="metadata9999"><rdf:RDF><cc:Work><dc:format>image/svg+xml</dc:format><dc:type rdf:resource="http://purl.org/dc/dcmitype/StillImage"/><dc:title>Ivy icon theme</dc:title><cc:license rdf:resource="http://creativecommons.org/licenses/by-sa/4.0/"/><dc:creator><cc:Agent><dc:title>Sixsixfive (sixsixfive.deviantart.com)</dc:title></cc:Agent></dc:creator><dc:publisher><cc:Agent><dc:title>Sixsixfive (sixsixfive.deviantart.com)</dc:title></cc:Agent></dc:publisher><dc:source>https://github.com/sixsixfive</dc:source><dc:subject><rdf:Bag><rdf:li>ivy</rdf:li></rdf:Bag></dc:subject><dc:contributor><cc:Agent><dc:title>ssf</dc:title></cc:Agent></dc:contributor><dc:rights><cc:Agent><dc:title>Sixsixfive (sixisixfive.deviantart.com)</dc:title></cc:Agent></dc:rights><dc:description>A simple icon theme published under CC-BY-SA_V4(http://creativecommons.org/licenses/by-sa/4.0)</dc:description><dc:identifier>SSF</dc:identifier></cc:Work></rdf:RDF></metadata><!--Part of the Ivy icon them published under the CC-BY-SA_V4: http://creativecommons.org/licenses/by-sa/4.0 -->
</svg>