<?xml version="1.0" encoding="UTF-8" standalone="no"?>
<svg xmlns:dc="http://purl.org/dc/elements/1.1/" xmlns:cc="http://creativecommons.org/ns#" xmlns:rdf="http://www.w3.org/1999/02/22-rdf-syntax-ns#" xmlns:svg="http://www.w3.org/2000/svg" xmlns="http://www.w3.org/2000/svg" xmlns:xlink="http://www.w3.org/1999/xlink" viewBox="0 0 48 48" id="svg2" version="1.1">
 <defs id="defs4">
  <linearGradient id="0" y1="44" y2="35.857" x2="0" gradientUnits="userSpaceOnUse">
   <stop stop-color="#e8a92a" id="stop7"/>
   <stop offset="1" stop-color="#efce5a" id="stop9"/>
  </linearGradient>
  <linearGradient id="1" xlink:href="#4" y1="4.03" y2="43.969" x2="0" gradientUnits="userSpaceOnUse"/>
  <linearGradient id="2" xlink:href="#4" y1="8.03" y2="39.969" x2="0" gradientUnits="userSpaceOnUse"/>
  <linearGradient id="3" y1="7" y2="41" x2="0" gradientUnits="userSpaceOnUse">
   <stop stop-color="#ddd" id="stop14"/>
   <stop offset="1" stop-color="#bec2c2" id="stop16"/>
  </linearGradient>
  <linearGradient id="4">
   <stop stop-color="#fff" id="stop19"/>
   <stop offset="1" stop-color="#fff" stop-opacity="0" id="stop21"/>
  </linearGradient>
  <radialGradient cx="26.65" cy="48.4" r="29.604" id="5" gradientUnits="userSpaceOnUse" gradientTransform="matrix(1 0 0 0.12245 0 42.476)">
   <stop stop-opacity="0.2" id="stop24"/>
   <stop offset="1" stop-opacity="0" id="stop26"/>
  </radialGradient>
 </defs>
 <path fill="url(#5)" d="m 56.2535 48.4028 a 29.6036 3.62493 0 1 1 -59.2072 0 29.6036 3.62493 0 1 1 59.2072 0 z" transform="matrix(0.81071 0 0 0.4138 2.395 24.971)" id="path28"/>
 <path fill="#60a53a" d="M 3,3 H45 V45 H3 z" id="path30"/>
 <path fill="url(#0)" d="m 4,38 6,6 -6,0 0,-6 z" id="path32"/>
 <g id="g34" fill="none">
  <path d="m 3.5625,3.5625 0,40.875 40.875,0 0,-40.875 -40.875,0 z" id="path36" opacity="0.4" stroke="#000"/>
  <path d="m 4.5312,4.5312 0,38.9375 38.9375,0 0,-38.9375 -38.9375,0 z" id="path38" opacity="0.559" stroke="url(#1)"/>
 </g>
 <rect width="34" x="7" y="7" fill="url(#3)" rx="4" height="34" ry="4" id="rect40"/>
 <g id="g42" fill="none">
  <path d="M 11,7.5 C 9.0457,7.5 7.5,9.0457 7.5,11 l 0,26 c 0,1.9543 1.5457,3.5 3.5,3.5 l 26,0 c 1.9543,0 3.5,-1.5457 3.5,-3.5 l 0,-26 C 40.5,9.0457 38.9543,7.5 37,7.5 l -26,0 z" id="path44" opacity="0.5" stroke="#000"/>
  <path d="m 11,8.5312 c -1.39548,0 -2.46875,1.07327 -2.46875,2.46875 l 0,26 c 0,1.39548 1.07327,2.46875 2.46875,2.46875 l 26,0 c 1.39548,0 2.46875,-1.07327 2.46875,-2.46875 l 0,-26 C 39.46875,9.60447 38.39548,8.5312 37,8.5312 l -26,0 z" id="path46" stroke="url(#2)"/>
 </g>
 <path opacity="0.4" d="M 13,10 H35 V13 H13 z" id="path48"/>
 <path opacity="0.4" d="M 13,15 H27 V16 H13 z" id="path50"/>
 <path opacity="0.4" d="M 13,18 H28 V19 H13 z" id="path52"/>
 <path opacity="0.3" d="M 13,25.979 H19 V31.979 H13 z" id="path54"/>
 <path opacity="0.3" d="M 13,25.979 H14 V26.979 H13 z" id="path56"/>
 <g id="g58" fill="#fff">
  <path d="m 18,25.979 1,0 0,1 -1,0 z" id="path60" opacity="0.3"/>
  <path d="m 16,25.979 1,0 0,1 -1,0 z" id="path62" opacity="0.3"/>
  <path d="m 14,25.979 1,0 0,1 -1,0 z" id="path64" opacity="0.3"/>
  <path d="m 15,26.979 1,0 0,1 -1,0 z" id="path66" opacity="0.3"/>
  <path d="m 17,26.979 1,0 0,1 -1,0 z" id="path68" opacity="0.3"/>
  <path d="m 17,28.979 1,0 0,1 -1,0 z" id="path70" opacity="0.3"/>
  <path d="m 14.198,29.438 1,0 0,1 -1,0 z" id="path72" opacity="0.3"/>
 </g>
 <path opacity="0.1" d="M 14.887,28.841 H15.887 V29.841 H14.887 z" id="path74"/>
 <path opacity="0.1" d="M 17.643,28.612 H18.643 V29.612 H17.643 z" id="path76"/>
 <path opacity="0.1" d="M 15.392,26.407 H16.392 V27.407 H15.392 z" id="path78"/>
 <metadata id="metadata9999">
  <rdf:RDF>
   <cc:Work>
    <dc:format>image/svg+xml</dc:format>
    <dc:type rdf:resource="http://purl.org/dc/dcmitype/StillImage"/>
    <dc:title>Ivy icon theme</dc:title>
    <cc:license rdf:resource="http://creativecommons.org/licenses/by-sa/4.0/"/>
    <dc:creator>
     <cc:Agent>
      <dc:title>Sixsixfive (sixsixfive.deviantart.com)</dc:title>
     </cc:Agent>
    </dc:creator>
    <dc:publisher>
     <cc:Agent>
      <dc:title>Sixsixfive (sixsixfive.deviantart.com)</dc:title>
     </cc:Agent>
    </dc:publisher>
    <dc:source>https://github.com/sixsixfive</dc:source>
    <dc:subject>
     <rdf:Bag>
      <rdf:li>ivy</rdf:li>
     </rdf:Bag>
    </dc:subject>
    <dc:contributor>
     <cc:Agent>
      <dc:title>ssf</dc:title>
     </cc:Agent>
    </dc:contributor>
    <dc:rights>
     <cc:Agent>
      <dc:title>Sixsixfive (sixisixfive.deviantart.com)</dc:title>
     </cc:Agent>
    </dc:rights>
    <dc:description>A simple icon theme published under CC-BY-SA_V4(http://creativecommons.org/licenses/by-sa/4.0)</dc:description>
    <dc:identifier>SSF</dc:identifier>
   </cc:Work>
  </rdf:RDF>
 </metadata>
 <!--Part of the Ivy icon them published under the CC-BY-SA_V4: http://creativecommons.org/licenses/by-sa/4.0 -->
</svg>
