<?xml version="1.0" encoding="UTF-8" standalone="no"?>
<svg xmlns:dc="http://purl.org/dc/elements/1.1/" xmlns:cc="http://creativecommons.org/ns#" xmlns:rdf="http://www.w3.org/1999/02/22-rdf-syntax-ns#" xmlns:svg="http://www.w3.org/2000/svg" xmlns="http://www.w3.org/2000/svg" xmlns:xlink="http://www.w3.org/1999/xlink" viewBox="0 0 48 48" id="svg2" version="1.1">
 <defs id="defs4">
  <linearGradient id="0" y1="1011.36" y2="1018.36" x2="0" gradientUnits="userSpaceOnUse" gradientTransform="matrix(1 0 0 0.8 0 203.28)">
   <stop stop-color="#eed45a" id="stop7"/>
   <stop offset="1" stop-color="#eed45a" stop-opacity="0" id="stop9"/>
  </linearGradient>
  <linearGradient id="1" y1="1011.36" y2="1016.36" x2="0" gradientUnits="userSpaceOnUse" gradientTransform="matrix(1 0 0 0.79999 0 203.28)">
   <stop id="stop12"/>
   <stop offset="1" stop-opacity="0" id="stop14"/>
  </linearGradient>
  <linearGradient id="2" y1="17" x1="37" y2="38" x2="8" gradientUnits="userSpaceOnUse">
   <stop stop-color="#c5c5c5" id="stop17"/>
   <stop offset="1" stop-color="#9d9d9d" id="stop19"/>
  </linearGradient>
  <linearGradient id="3" y1="1008.36" y2="1016.36" x2="0" gradientUnits="userSpaceOnUse" gradientTransform="matrix(1 0 0 0.625 0 381.14)">
   <stop stop-color="#6a6a6a" id="stop22"/>
   <stop offset="1" stop-color="#494949" id="stop24"/>
  </linearGradient>
  <linearGradient id="4" y1="8" y2="44" x2="0" gradientUnits="userSpaceOnUse">
   <stop stop-color="#fff" stop-opacity="0.443" id="stop27"/>
   <stop offset="0.111" stop-color="#fff" stop-opacity="0" id="stop29"/>
   <stop offset="0.111" stop-color="#fff" id="stop31"/>
   <stop offset="1" stop-color="#fff" stop-opacity="0.549" id="stop33"/>
  </linearGradient>
  <linearGradient id="5" y1="1016.36" y2="1049.36" x2="0" gradientUnits="userSpaceOnUse">
   <stop stop-color="#b6b6b6" id="stop36"/>
   <stop offset="1" stop-color="#cfcfcf" id="stop38"/>
  </linearGradient>
 </defs>
 <g transform="translate(0,-1004.36)" id="g40">
  <path d="m 12,1015.36 26,0 c 1.108,0 2,0.892 2,2 l 0,31 c 0,1.108 -0.892,2 -2,2 l -26,0 c -1.108,0 -2,-0.892 -2,-2 l 0,-31 c 0,-1.108 0.892,-2 2,-2 z" id="rect42" opacity="0.2"/>
  <path d="m 12,1014.36 26,0 c 1.108,0 2,0.892 2,2 l 0,31 c 0,1.108 -0.892,2 -2,2 l -26,0 c -1.108,0 -2,-0.892 -2,-2 l 0,-31 c 0,-1.108 0.892,-2 2,-2 z" id="rect44" fill="url(#5)"/>
  <g id="g46" fill="#fff">
   <path d="m 17.8125,1020.3617 c -0.41551,1.1583 -1.51118,2 -2.8125,2 l 0,9.0313 c 0.162744,-0.027 0.327411,-0.031 0.5,-0.031 1.38071,0 2.5,0.8954 2.5,2 0,1.1046 -1.11929,2 -2.5,2 -0.172589,0 -0.337256,0 -0.5,-0.031 l 0,1.5312 0,0.5 0.03125,0 c 0.338131,3.9126 4.66651,7 9.96875,7 5.30224,0 9.63062,-3.0874 9.96875,-7 l 0.03125,0 0,-0.5 0,-1.5312 c -0.162744,0.027 -0.327411,0.031 -0.5,0.031 -1.38071,0 -2.5,-0.8954 -2.5,-2 0,-1.1046 1.11929,-2 2.5,-2 0.172589,0 0.337256,0 0.5,0.031 l 0,-9.2188 c -0.841876,-0.302 -1.51051,-0.9706 -1.8125,-1.8125 l -15.375,0 z" id="path48" opacity="0.5"/>
   <path id="6" d="m 36,30.5 a 1,0.5 0 1 1 -2,0 1,0.5 0 1 1 2,0 z" transform="matrix(1,0,0,2,0,974.36)" opacity="0.751"/>
   <path d="m 16,1035.3622 a 1,1 0 0 1 -2,0 1,1 0 1 1 2,0 z" id="path51" opacity="0.751"/>
  </g>
  <path d="m 18,1025.36 14,0 c 0.554,0 1,0.446 1,1 l 0,4 c 0,0.554 -0.446,1 -1,1 l -14,0 c -0.554,0 -1,-0.446 -1,-1 l 0,-4 c 0,-0.554 0.446,-1 1,-1 z" id="rect53" opacity="0.38" fill="#6a6a6a"/>
  <path d="m 11.4576,1011.3622 27.0849,0 c 0.253258,0 0.421746,0.129 0.457144,0.2858 l 1.0004,4.4285 c 0.0354,0.1567 -0.203886,0.2857 -0.457144,0.2857 l -29.0857,0 c -0.253258,0 -0.492542,-0.129 -0.457144,-0.2857 l 1.0004,-4.4285 c 0.0354,-0.1568 0.203886,-0.2858 0.457144,-0.2858 z" id="path55" fill="url(#3)"/>
  <path d="m 14,1012.3622 12,0 0,4 -12,0 z" id="path57" opacity="0.68" fill="url(#0)"/>
  <path d="m 11.669,7.5004 c 0.02547,0 0.009,-0.032279 0,0.03125 l -1.2003,3.9996 c 3.35e-4,0.01041 3.35e-4,0.02084 0,0.03125 0.01041,-3.35e-4 0.02084,-3.35e-4 0.03125,0 0.0039,0.01751 -0.002,0.01678 0,0.03125 3.35e-4,0.01041 3.35e-4,0.02084 0,0.03125 9.38e-4,0.02323 0.0023,0.04958 0,0.0625 0.003,0.03115 0.003,0.0626 0,0.09375 -0.01549,0.110261 0,0.184109 0,0.21875 l 0,31 c 0,0.847376 0.652624,1.5 1.5,1.5 l 26,0 c 0.847376,0 1.5,-0.652624 1.5,-1.5 l 0,-31 c 0,-0.03465 0.01549,-0.108494 0,-0.21875 -0.0054,-0.04143 -0.0054,-0.08357 0,-0.125 -0.0013,-0.0208 -0.0013,-0.0417 0,-0.0625 0.002,-0.01445 -0.0039,-0.01379 0,-0.03125 -4.83e-4,-0.0018 0.03203,-0.0075 0.03125,0 -0.01088,-0.0099 -0.02132,-0.02037 -0.03125,-0.03125 0.01041,-3.35e-4 0.02084,-3.35e-4 0.03125,0 L 38.331,7.53165 c -0.009,-0.063523 -0.02547,-0.03125 0,-0.03125 z" transform="translate(0,1004.36)" id="path59" opacity="0.27" fill="none" stroke="#000" stroke-linejoin="round"/>
  <path d="m 16,1012.36 3,0 0,4 -3,0 z" id="path61" opacity="0.548"/>
  <path d="m 32,1012.36 4,0 0,4 -4,0 z" id="path63" fill="url(#1)"/>
  <path d="m 21,1012.36 3,0 0,4 -3,0 z" id="path65" opacity="0.548"/>
  <path d="m 17.8125,1022.3617 c -0.41551,1.1583 -1.51118,2 -2.8125,2 l 0,9.0313 c 0.162744,-0.027 0.327411,-0.031 0.5,-0.031 1.38071,0 2.5,0.8954 2.5,2 0,1.1046 -1.11929,2 -2.5,2 -0.172589,0 -0.337256,0 -0.5,-0.031 l 0,1.5312 0,0.5 0.03125,0 c 0.338131,3.9126 4.66651,7 9.96875,7 5.30224,0 9.63062,-3.0874 9.96875,-7 l 0.03125,0 0,-0.5 0,-1.5312 c -0.162744,0.027 -0.327411,0.031 -0.5,0.031 -1.38071,0 -2.5,-0.8954 -2.5,-2 0,-1.1046 1.11929,-2 2.5,-2 0.172589,0 0.337256,0 0.5,0.031 l 0,-9.2188 c -0.841876,-0.302 -1.51051,-0.9706 -1.8125,-1.8125 l -15.375,0 z" id="path67" opacity="0.281"/>
  <path d="m 12.4062,8.562 -0.8438,2.8755 c 1.04e-4,0.01042 1.04e-4,0.02083 0,0.03125 0.02052,0.144869 0.02052,0.292631 0,0.4375 1.04e-4,0.01042 1.04e-4,0.02083 0,0.03125 -0.02103,0.149666 0,0.163851 0,0.0625 l 0,31 c 0,0.271015 0.166485,0.4375 0.4375,0.4375 l 26,0 c 0.271015,0 0.4375,-0.166485 0.4375,-0.4375 l 0,-31 c 0,0.101324 0.02103,0.08715 0,-0.0625 -0.02052,-0.144869 -0.02052,-0.292631 0,-0.4375 l 0,-0.03125 -0.8438,-2.9068 z" transform="translate(0,1004.36)" id="path69" opacity="0.87" fill="none" stroke="url(#4)" stroke-linejoin="round"/>
  <path d="m 11,1016.36 28,0 0,1 -28,0 z" id="path71" opacity="0.751"/>
  <path d="m 12,1017.36 26,0 0,1 -26,0 z" id="path73" opacity="0.2" fill="#fff"/>
  <path d="M 17.8125,17 C 17.39699,18.15834 16.30132,19 15,19 l 0,9.03125 C 15.16274,28.00461 15.327411,28 15.5,28 c 1.38071,0 2.5,0.895431 2.5,2 0,1.10457 -1.11929,2 -2.5,2 -0.172589,0 -0.337256,-0.0046 -0.5,-0.03125 l 0,1.53125 0,0.5 0.03125,0 c 0.338131,3.91259 4.66651,7 9.96875,7 5.30224,0 9.63062,-3.08741 9.96875,-7 L 35,34 35,33.5 35,31.96875 C 34.837256,31.995392 34.672589,32 34.5,32 33.11929,32 32,31.10457 32,30 c 0,-1.10457 1.11929,-2 2.5,-2 0.172589,0 0.337256,0.0046 0.5,0.03125 L 35,18.8125 C 34.15812,18.510513 33.48949,17.841871 33.1875,17 l -15.375,0 z" transform="translate(0,1004.36)" id="path75" fill="url(#2)"/>
  <g id="g77" fill="#494949">
   <path d="m 16,1034.3622 a 1,1 0 0 1 -2,0 1,1 0 1 1 2,0 z" id="path79" opacity="0.751"/>
   <use xlink:href="#6" transform="translate(0,-1)" id="use81" x="0" y="0" width="48" height="48"/>
  </g>
  <path d="m 18,1024.36 14,0 c 0.554,0 1,0.446 1,1 l 0,4 c 0,0.554 -0.446,1 -1,1 l -14,0 c -0.554,0 -1,-0.446 -1,-1 l 0,-4 c 0,-0.554 0.446,-1 1,-1 z" id="rect83" opacity="0.936" fill="#fff"/>
  <path d="m 19.25,1026.36 10.5,0 c 0.1385,0 0.25,0.1115 0.25,0.25 l 0,0.5 c 0,0.1385 -0.1115,0.25 -0.25,0.25 l -10.5,0 c -0.1385,0 -0.25,-0.1115 -0.25,-0.25 l 0,-0.5 c 0,-0.1385 0.1115,-0.25 0.25,-0.25 z" id="rect85" opacity="0.38"/>
  <path d="m 19.25,1028.36 4.5,0 c 0.1385,0 0.25,0.1115 0.25,0.25 l 0,0.5 c 0,0.1385 -0.1115,0.25 -0.25,0.25 l -4.5,0 c -0.1385,0 -0.25,-0.1115 -0.25,-0.25 l 0,-0.5 c 0,-0.1385 0.1115,-0.25 0.25,-0.25 z" id="rect87" opacity="0.38"/>
  <g id="g89" fill="#fff">
   <path d="m 36,1021.3622 a 1,1 0 0 1 -2,0 1,1 0 1 1 2,0 z" id="path91" opacity="0.751"/>
   <path d="m 16,1021.3622 a 1,1 0 0 1 -2,0 1,1 0 1 1 2,0 z" id="path93" opacity="0.751"/>
  </g>
  <g id="g95" fill="#494949">
   <path d="m 16,1020.3622 a 1,1 0 0 1 -2,0 1,1 0 1 1 2,0 z" id="path97" opacity="0.751"/>
   <path d="m 36,1020.3622 a 1,1 0 0 1 -2,0 1,1 0 1 1 2,0 z" id="path99" opacity="0.751"/>
  </g>
 </g>
 <metadata id="metadata9999">
  <rdf:RDF>
   <cc:Work>
    <dc:format>image/svg+xml</dc:format>
    <dc:type rdf:resource="http://purl.org/dc/dcmitype/StillImage"/>
    <dc:title>Ivy icon theme</dc:title>
    <cc:license rdf:resource="http://creativecommons.org/licenses/by-sa/4.0/"/>
    <dc:creator>
     <cc:Agent>
      <dc:title>Sixsixfive (sixsixfive.deviantart.com)</dc:title>
     </cc:Agent>
    </dc:creator>
    <dc:publisher>
     <cc:Agent>
      <dc:title>Sixsixfive (sixsixfive.deviantart.com)</dc:title>
     </cc:Agent>
    </dc:publisher>
    <dc:source>https://github.com/sixsixfive</dc:source>
    <dc:subject>
     <rdf:Bag>
      <rdf:li>ivy</rdf:li>
     </rdf:Bag>
    </dc:subject>
    <dc:contributor>
     <cc:Agent>
      <dc:title>ssf</dc:title>
     </cc:Agent>
    </dc:contributor>
    <dc:rights>
     <cc:Agent>
      <dc:title>Sixsixfive (sixisixfive.deviantart.com)</dc:title>
     </cc:Agent>
    </dc:rights>
    <dc:description>A simple icon theme published under CC-BY-SA_V4(http://creativecommons.org/licenses/by-sa/4.0)</dc:description>
    <dc:identifier>SSF</dc:identifier>
   </cc:Work>
  </rdf:RDF>
 </metadata>
 <!--Part of the Ivy icon them published under the CC-BY-SA_V4: http://creativecommons.org/licenses/by-sa/4.0 -->
</svg>
