<?xml version="1.0" encoding="UTF-8" standalone="no"?><svg xmlns:svg="http://www.w3.org/2000/svg" xmlns="http://www.w3.org/2000/svg" viewBox="0 0 48 48" xmlns:rdf="http://www.w3.org/1999/02/22-rdf-syntax-ns#" xmlns:xlink="http://www.w3.org/1999/xlink" version="1.1" id="svg2" xmlns:dc="http://purl.org/dc/elements/1.1/" xmlns:cc="http://creativecommons.org/ns#"><defs id="defs4"><linearGradient x1="1008.41" xlink:href="#5" x2="1022.34" id="0" gradientUnits="userSpaceOnUse"/><linearGradient xlink:href="#4" y1="-17" x2="0" y2="-11" id="1" gradientUnits="userSpaceOnUse"/><linearGradient xlink:href="#4" y1="-35.03" x2="0" y2="-29.03" id="2" gradientUnits="userSpaceOnUse"/><linearGradient x1="41" xlink:href="#5" y1="13" x2="40" y2="42" id="3" gradientUnits="userSpaceOnUse"/><linearGradient id="4"><stop id="stop11" stop-color="#ebebeb"/><stop offset="1" id="stop13" stop-color="#cbcbcb"/></linearGradient><linearGradient id="5"><stop id="stop16" stop-color="#fff"/><stop stop-opacity="0" offset="1" id="stop18" stop-color="#fff"/></linearGradient><linearGradient y1="1026.36" x2="0" y2="1040.36" id="6" gradientUnits="userSpaceOnUse"><stop id="stop21" stop-color="#343434"/><stop offset="1" id="stop23" stop-color="#6a6a6a"/></linearGradient></defs><g id="g25" transform="matrix(1 0 0 1 0 -1004.36)"><path opacity="0.2" id="path27" d="m 5,1018.3622 0,9 6,14 0,7 24,0 0,-7 6,-14 0,-9 -36,0 z"/><path id="path29" transform="matrix(0 1 -1 0 0 0)" d="m 1006.32,-35.03 16,0 0,6 -16,0 z" fill="url(#2)"/><path stroke="url(#0)" opacity="0.7" id="7" transform="matrix(0 1 -1 0 19.03 -1.044)" d="m 1008.9062,-14.4688 0,2.9375 12.9376,0 0,-2.9375 -12.9376,0 z" fill="none"/><path stroke="#000" opacity="0.4" id="8" transform="matrix(0 1 -1 0 19.03 -1.044)" d="m 1007.8438,-15.5312 0,5.0625 15.0624,0 0,-5.0625 -15.0624,0 z" fill="none"/><path id="path33" transform="matrix(0 1 -1 0 0 0)" d="m 1006.36,-17 16,0 0,6 -16,0 z" fill="url(#1)"/><g id="g35" transform="matrix(1 0 0 1 -18.03 0.044)"><use y="0" x="0" xlink:href="#7" height="48" id="use37" width="48"/><use y="0" x="0" xlink:href="#8" height="48" id="use39" width="48"/></g><path id="path41" d="m 5,1017.3622 0,9 6,14 24,0 6,-14 0,-9 z" fill="url(#6)"/><path opacity="0.2" id="path43" d="m 6,1026.36 34,0 0,1 -34,0 z" fill="#fff"/><path id="path45" d="m 11,1040.36 24,0 0,7 -24,0 z" fill="#6a6a6a"/><path stroke="#000" opacity="0.521" id="path47" transform="matrix(1 0 0 1 0 1004.36)" d="m 5.5625,13.5625 0,8.3125 5.9375,13.9062 a 0.549519,0.549519 0 0 1 0.0625,0.21875 l 0,6.4375 22.875,0 0,-6.4375 A 0.549519,0.549519 0 0 1 34.5,35.7812 l 5.9375,-13.9062 0,-8.3125 -34.875,0 z" fill="none"/><path opacity="0.5" id="path49" d="m 5,1025.36 36,0 0,1 -36,0 z"/><path opacity="0.5" id="path51" d="m 11,1040.36 23,0 0,1 -23,0 z"/><path stroke="url(#3)" opacity="0.2" id="path53" transform="matrix(1 0 0 1 0 1004.36)" d="m 6.4688,14.4688 0,7.2188 5.875,13.7188 a 0.917459,0.917459 0 0 1 0.0625,0.59375 l 0.0625,0 0,5.53125 21.0625,0 0,-5.53125 0.09375,0 A 0.917459,0.917459 0 0 1 33.6563,35.4064 l 5.875,-13.7188 0,-7.21875 -33.0625,0 z" fill="none"/></g><metadata id="metadata9999"><rdf:RDF><cc:Work><dc:format>image/svg+xml</dc:format><dc:type rdf:resource="http://purl.org/dc/dcmitype/StillImage"/><dc:title>Ivy icon theme</dc:title><cc:license rdf:resource="http://creativecommons.org/licenses/by-sa/4.0/"/><dc:creator><cc:Agent><dc:title>Sixsixfive (sixsixfive.deviantart.com)</dc:title></cc:Agent></dc:creator><dc:publisher><cc:Agent><dc:title>Sixsixfive (sixsixfive.deviantart.com)</dc:title></cc:Agent></dc:publisher><dc:source>https://github.com/sixsixfive</dc:source><dc:subject><rdf:Bag><rdf:li>ivy</rdf:li></rdf:Bag></dc:subject><dc:contributor><cc:Agent><dc:title>ssf</dc:title></cc:Agent></dc:contributor><dc:rights><cc:Agent><dc:title>Sixsixfive (sixisixfive.deviantart.com)</dc:title></cc:Agent></dc:rights><dc:description>A simple icon theme published under CC-BY-SA_V4(http://creativecommons.org/licenses/by-sa/4.0)</dc:description><dc:identifier>SSF</dc:identifier></cc:Work></rdf:RDF></metadata><!--Part of the Ivy icon them published under the CC-BY-SA_V4: http://creativecommons.org/licenses/by-sa/4.0 -->
</svg>