<?xml version="1.0" encoding="UTF-8" standalone="no"?>
<svg
   xmlns:dc="http://purl.org/dc/elements/1.1/"
   xmlns:cc="http://creativecommons.org/ns#"
   xmlns:rdf="http://www.w3.org/1999/02/22-rdf-syntax-ns#"
   xmlns:svg="http://www.w3.org/2000/svg"
   xmlns="http://www.w3.org/2000/svg"
   xmlns:xlink="http://www.w3.org/1999/xlink"
   id="svg2"
   version="1.1"
   viewBox="0 0 48 48">
  <defs
     id="defs4">
    <linearGradient
       id="linearGradient4817">
      <stop
         id="stop4819"
         offset="0"
         style="stop-color:#dcdcdc;stop-opacity:1" />
      <stop
         id="stop4821"
         offset="1"
         style="stop-color:#ebebeb;stop-opacity:1" />
    </linearGradient>
    <linearGradient
       y1="4.02"
       id="0"
       y2="44.02"
       gradientUnits="userSpaceOnUse"
       x2="0">
      <stop
         id="stop7"
         stop-color="#fff" />
      <stop
         id="stop9"
         stop-color="#fff"
         stop-opacity="0"
         offset="1" />
    </linearGradient>
    <linearGradient
       gradientUnits="userSpaceOnUse"
       y2="46"
       x2="33"
       y1="3"
       x1="33"
       id="linearGradient4823"
       xlink:href="#linearGradient4817" />
  </defs>
  <rect
     y="4"
     x="3"
     id="rect16"
     ry="4"
     rx="4"
     opacity="0.1"
     width="42"
     height="42" />
  <rect
     style="fill:url(#linearGradient4823);fill-opacity:1"
     y="3"
     x="3"
     id="rect18"
     fill="url(#1)"
     ry="4"
     rx="4"
     width="42"
     height="42" />
  <path
     style="fill:#ffffff;fill-opacity:1;fill-rule:evenodd;stroke:none;opacity:0.4"
     d="m 31.818359,9.1015625 c -0.520872,0.012092 -1.067508,0.068466 -1.625,0.1757813 C 22.212806,10.813899 17.113099,22.397451 15,28.900391 20.688328,19.76032 25.363534,18.059777 34.109375,13.195312 37.862092,11.108291 35.464466,9.0169219 31.818359,9.1015625 Z M 11.470703,12.507812 C 10.238162,12.587173 8.5819342,14.132935 7.6738281,16.404297 4.7833179,23.629855 11.864099,33.859432 16.232422,39 12.819065,31.634988 12.000937,26.771389 13.027344,15.330078 c 0.10497,-2.059936 -0.597998,-2.883989 -1.556641,-2.822266 z m 11.871094,15.503907 c -1.541594,-0.0621 -3.026848,0.140214 -4.402344,0.689453 -4.10008,1.637754 -5.841272,5.599123 -1.046875,5.320312 C 27.566654,32.72254 32.346536,31.988251 42.03125,37 37.745913,33.514111 30.022035,28.280804 23.341797,28.011719 Z"
     id="path4801" />
  <g
     style="stroke:#000000;fill:none"
     id="g4692" />
  <path
     id="path22"
     d="m 7,3.5128 c -1.94587,0 -3.5,1.5541 -3.5,3.5 l 0,34 c 0,1.9459 1.55413,3.5 3.5,3.5 l 34,0 c 1.94587,0 3.5,-1.5541 3.5,-3.5 l 0,-34 c 0,-1.9459 -1.55413,-3.5 -3.5,-3.5 l -34,0 z"
     style="opacity:0.5;fill:none;stroke:#000000" />
  <path
     id="path24"
     d="m 7,4.5128 c -1.40738,0 -2.5,1.0926 -2.5,2.5 l 0,34 c 0,1.4074 1.09262,2.5 2.5,2.5 l 34,0 c 1.40738,0 2.5,-1.0926 2.5,-2.5 l 0,-34 c 0,-1.4074 -1.09262,-2.5 -2.5,-2.5 l -34,0 z"
     style="opacity:1;fill:none;stroke:url(#0)" />
  <path
     id="path4704"
     d="m 31.818359,8.1015625 c -0.520872,0.012092 -1.067508,0.068466 -1.625,0.1757813 C 22.212806,9.8138994 17.113099,21.397451 15,27.900391 20.688328,18.76032 25.363534,17.059777 34.109375,12.195312 37.862092,10.108291 35.464466,8.0169219 31.818359,8.1015625 Z M 11.470703,11.507812 C 10.238162,11.587173 8.5819342,13.132935 7.6738281,15.404297 4.7833179,22.629855 11.864099,32.859432 16.232422,38 12.819065,30.634988 12.000937,25.771389 13.027344,14.330078 c 0.10497,-2.059936 -0.597998,-2.883989 -1.556641,-2.822266 z m 11.871094,15.503907 c -1.541594,-0.0621 -3.026848,0.140214 -4.402344,0.689453 -4.10008,1.637754 -5.841272,5.599123 -1.046875,5.320312 C 27.566654,31.72254 32.346536,30.988251 42.03125,36 37.745913,32.514111 30.022035,27.280804 23.341797,27.011719 Z"
     style="fill:#5288d1;fill-opacity:1;fill-rule:evenodd;stroke:none" />
  <metadata
     id="metadata9999">
    <rdf:RDF>
      <cc:Work>
        <dc:format>image/svg+xml</dc:format>
        <dc:type
           rdf:resource="http://purl.org/dc/dcmitype/StillImage" />
        <dc:title></dc:title>
        <cc:license
           rdf:resource="http://creativecommons.org/licenses/by-sa/4.0/" />
        <dc:creator>
          <cc:Agent>
            <dc:title>Sixsixfive (sixsixfive.deviantart.com)</dc:title>
          </cc:Agent>
        </dc:creator>
        <dc:publisher>
          <cc:Agent>
            <dc:title>Sixsixfive (sixsixfive.deviantart.com)</dc:title>
          </cc:Agent>
        </dc:publisher>
        <dc:source>https://github.com/sixsixfive</dc:source>
        <dc:subject>
          <rdf:Bag>
            <rdf:li>ivy</rdf:li>
          </rdf:Bag>
        </dc:subject>
        <dc:contributor>
          <cc:Agent>
            <dc:title>ssf</dc:title>
          </cc:Agent>
        </dc:contributor>
        <dc:rights>
          <cc:Agent>
            <dc:title>Sixsixfive (sixisixfive.deviantart.com)</dc:title>
          </cc:Agent>
        </dc:rights>
        <dc:description>A simple icon theme published under CC-BY-SA_V4(http://creativecommons.org/licenses/by-sa/4.0)</dc:description>
        <dc:identifier>SSF</dc:identifier>
      </cc:Work>
    </rdf:RDF>
  </metadata>
  <!--Part of the Ivy icon them published under the CC-BY-SA_V4: http://creativecommons.org/licenses/by-sa/4.0 -->
</svg>
