<?xml version="1.0" encoding="UTF-8" standalone="no"?><svg xmlns:cc="http://creativecommons.org/ns#" xmlns:rdf="http://www.w3.org/1999/02/22-rdf-syntax-ns#" xmlns:svg="http://www.w3.org/2000/svg" id="svg2" viewBox="0 0 48 48" version="1.1" xmlns:xlink="http://www.w3.org/1999/xlink" xmlns:dc="http://purl.org/dc/elements/1.1/" xmlns="http://www.w3.org/2000/svg"><defs id="0"><linearGradient id="6"><stop id="A" stop-color="#ff8b36"/><stop offset="1" id="B" stop-color="#ffe04a"/></linearGradient><linearGradient id="7"><stop id="C" stop-color="#fff"/><stop offset="1" id="D" stop-color="#fff" stop-opacity="0"/></linearGradient><linearGradient spreadMethod="repeat" id="8" x2="0" y2="45" xlink:href="#7" y1="9" gradientUnits="userSpaceOnUse"/><radialGradient r="14.986" cx="5.291" id="9" cy="37.82" gradientTransform="matrix(2.9359903 0.00000019 -0.00000017 2.4689008 -12.533983 -48.37498)" xlink:href="#6" gradientUnits="userSpaceOnUse"/></defs><path id="1" opacity="0.15" d="m 30.998047,1.999713 c -1.014049,0 -2.046126,0.2168063 -3.023438,0.6914062 C 25.508046,3.8892193 24.048218,6.3777005 24,8.9919005 c 1.059789,0.049 2.146803,-0.15845 3.171875,-0.65625 2.4594,-1.1945 3.878431,-3.7220375 3.826172,-6.3359375 z m -7.056641,8 c -4.541898,0 -8.236328,3.485431 -8.236328,7.769531 -0.18658,1.3828 -0.496762,2.492775 -0.955078,3.796875 -0.741307,1.969 -2.138453,3.647007 -3.394531,5.503906 C 10.102218,28.922725 9,30.974372 9,33.630572 c -0.033978,5.3606 4.57455,11.126766 8.884766,13.009766 1.020146,0.4224 2.070243,0.393334 3.064453,0.302734 0.0042,-4e-4 0.0076,2e-4 0.01172,0 l 0.07812,0 c 0.991034,-0.086 1.968356,-0.234434 2.962891,-0.240234 0.993697,0.01 1.970714,0.154034 2.960938,0.240234 l 0.07813,0 c 0.005,3e-4 0.01073,-5e-4 0.01563,0 0.993467,0.091 2.039296,0.119466 3.058593,-0.302734 5.778746,-3.4698 8.484062,-7.447816 8.857422,-12.666016 A 10.5,9.9999924 0 0 1 29,23.999713 10.5,9.9999924 0 0 1 32.226562,16.792682 C 31.71434,12.968882 28.249098,9.999713 24.058594,9.999713 l -0.02148,0 c -0.02358,-9e-4 -0.04672,-9e-4 -0.07031,0 -0.0084,-2e-4 -0.01697,-2e-4 -0.02539,0 z" fill-rule="evenodd" color="#000"/><path id="2" d="M 30.998047,1 C 29.983998,1 28.951921,1.2168 27.974609,1.6914 25.508046,2.8895 24.048218,5.378 24,7.9922 25.059789,8.0412 26.146803,7.8337 27.171875,7.3359 29.631275,6.1414 31.050306,3.6139 30.998047,1 Z m -7.056641,8 c -4.541898,0 -8.236328,3.4854 -8.236328,7.7695 -0.18658,1.3828 -0.496762,2.4928 -0.955078,3.7969 -0.741307,1.969 -2.138453,3.647 -3.394531,5.5039 C 10.102218,27.923 9,29.9747 9,32.6309 c -0.033978,5.3606 4.57455,11.1267 8.884766,13.0097 1.020146,0.4224 2.070243,0.3934 3.064453,0.3028 0.0042,-4e-4 0.0076,2e-4 0.01172,0 l 0.07812,0 c 0.991034,-0.086 1.968356,-0.2345 2.962891,-0.2403 0.993697,0.01 1.970714,0.1541 2.960938,0.2403 l 0.07813,0 c 0.005,3e-4 0.01073,-5e-4 0.01563,0 0.993467,0.091 2.039296,0.1194 3.058593,-0.3028 5.778746,-3.4698 8.484062,-7.4478 8.857422,-12.666 A 10.5,9.9999924 0 0 1 29,23 10.5,9.9999924 0 0 1 32.226562,15.793 C 31.71434,11.9692 28.249098,9 24.058594,9 l -0.02148,0 c -0.02358,-9e-4 -0.04672,-9e-4 -0.07031,0 -0.0084,-2e-4 -0.01697,-2e-4 -0.02539,0 z" fill-rule="evenodd" fill="url(#9)" color="#000"/><path id="3" d="M 30.998047,1 C 29.983998,1 28.951921,1.2168 27.974609,1.6914 25.508046,2.8895 24.048218,5.378 24,7.9922 25.059789,8.0412 26.146803,7.8337 27.171875,7.3359 29.631275,6.1414 31.050306,3.6139 30.998047,1 Z" fill-rule="evenodd" fill="#66b03e" color="#000"/><path id="4" opacity="0.4" d="m 30.472656,1.5332031 c -3.065713,0.1995696 -5.679409,2.8967824 -5.93164,5.9433594 3.151235,-0.090663 5.77394,-2.8189329 5.93164,-5.9433594 z M 23.925781,9.4882812 C 19.991372,9.3696622 16.11724,12.746734 16.193359,16.759766 a 0.48854584,0.48854584 0 0 1 -0.002,0.06445 c -0.36112,3.168394 -1.788911,6.074194 -3.736328,8.521484 -2.051954,2.619374 -3.5394648,5.935391 -2.783203,9.197266 a 0.48854584,0.48854584 0 0 1 0,0.0039 c 0.990459,4.468328 4.131083,8.481113 8.210937,10.552734 1.182278,0.493056 2.446158,0.440893 3.802735,0.304688 1.360866,-0.136636 2.799505,-0.35924 4.267578,-0.05078 l -0.02344,-0.0039 c 1.955239,0.311875 3.976209,0.264747 5.398437,-1.05664 a 0.48854584,0.48854584 0 0 1 0.06445,-0.05273 c 3.669174,-2.390506 6.633457,-6.177946 7.025391,-10.582031 a 0.48854584,0.48854584 0 0 1 0.01953,-0.103515 c 0.04215,-0.133806 0.03483,-0.18726 0.0332,-0.199219 -0.04175,-0.02335 -0.291487,-0.08646 -0.625,-0.09766 -0.339777,-0.01141 -0.748666,0.0011 -1.154297,-0.04492 -0.334075,-0.03793 -0.679175,-0.148918 -0.972656,-0.38086 -6.416326,-1.911134 -9.487108,-10.407212 -5.265625,-15.78125 a 0.48854584,0.48854584 0 0 1 0.132813,-0.115234 c 0.609035,-0.365717 0.873496,-0.760073 0.978515,-1.189453 0.10502,-0.429381 0.03651,-0.932418 -0.173828,-1.470703 -0.419714,-1.07413 -1.400731,-2.225504 -2.191406,-2.945313 -1.44733,-1.217936 -3.35479,-1.8717242 -5.25,-1.8417968 a 0.48854584,0.48854584 0 0 1 -0.02344,0 z" stroke="#000" fill-rule="evenodd" fill="none" color="#000"/><path stroke-linecap="round" id="5" opacity="0.4" d="m 29.212891,2.8222656 c -1.538298,0.5743072 -2.794707,1.8563208 -3.373047,3.4082032 1.578423,-0.5306618 2.83425,-1.8157676 3.373047,-3.4082032 z m -5.316407,7.6386724 c -3.367472,-0.101527 -6.794748,2.89242 -6.730468,6.28125 a 1.4613181,1.4613181 0 0 1 -0.0098,0.193359 c -0.386252,3.388892 -1.904592,6.45599 -3.941406,9.015625 l 0.0078,-0.0098 c -1.948902,2.486667 -3.2648966,5.528219 -2.603515,8.38086 a 1.4613181,1.4613181 0 0 1 0.002,0.01367 c 0.919813,4.149617 3.872006,7.925972 7.658203,9.867187 0.9293,0.381653 1.990494,0.364764 3.308594,0.232422 1.330542,-0.133592 2.876028,-0.388371 4.566406,-0.0332 l -0.07031,-0.01367 c 1.836842,0.292989 3.484676,0.210955 4.582032,-0.808594 a 1.4613181,1.4613181 0 0 1 0.197265,-0.154297 c 3.286991,-2.14151 5.854781,-5.46162 6.435547,-9.216797 -0.231545,-0.003 -0.422729,0.0041 -0.716797,-0.0293 -0.359319,-0.04079 -0.815493,-0.188069 -1.261719,-0.46875 C 28.312053,31.524722 25.042413,22.366952 29.689453,16.451172 a 1.4613181,1.4613181 0 0 1 0.396485,-0.34961 c 0.437421,-0.262665 0.491484,-0.415368 0.533203,-0.585937 0.04172,-0.170569 0.02753,-0.469427 -0.134766,-0.884766 -0.321921,-0.823858 -1.21959,-1.914474 -1.929687,-2.564453 -1.25592,-1.049955 -2.933967,-1.631617 -4.589844,-1.605468 a 1.4613181,1.4613181 0 0 1 -0.06836,0 z" stroke="url(#8)" stroke-linejoin="round" fill-rule="evenodd" fill="none" color="#000"/><metadata id="metadata9999"><rdf:RDF><cc:Work><dc:format>image/svg+xml</dc:format><dc:type rdf:resource="http://purl.org/dc/dcmitype/StillImage"/><dc:title>Ivy icon theme</dc:title><cc:license rdf:resource="http://creativecommons.org/licenses/by-sa/4.0/"/><dc:creator><cc:Agent><dc:title>Sixsixfive (sixsixfive.deviantart.com)</dc:title></cc:Agent></dc:creator><dc:publisher><cc:Agent><dc:title>Sixsixfive (sixsixfive.deviantart.com)</dc:title></cc:Agent></dc:publisher><dc:source>https://github.com/sixsixfive</dc:source><dc:subject><rdf:Bag><rdf:li>ivy</rdf:li></rdf:Bag></dc:subject><dc:contributor><cc:Agent><dc:title>ssf</dc:title></cc:Agent></dc:contributor><dc:rights><cc:Agent><dc:title>Sixsixfive (sixisixfive.deviantart.com)</dc:title></cc:Agent></dc:rights><dc:description>A simple icon theme published under CC-BY-SA_V4(http://creativecommons.org/licenses/by-sa/4.0)</dc:description><dc:identifier>SSF</dc:identifier></cc:Work></rdf:RDF></metadata><!--Part of the Ivy icon them published under the CC-BY-SA_V4: http://creativecommons.org/licenses/by-sa/4.0 -->
</svg>