<?xml version="1.0" encoding="UTF-8" standalone="no"?><svg xmlns:cc="http://creativecommons.org/ns#" xmlns:rdf="http://www.w3.org/1999/02/22-rdf-syntax-ns#" xmlns:svg="http://www.w3.org/2000/svg" id="svg2" viewBox="0 0 48 48" version="1.1" xmlns="http://www.w3.org/2000/svg" xmlns:dc="http://purl.org/dc/elements/1.1/"><defs id="defs4"><linearGradient id="0" x2="21.02" y2="32.649" gradientTransform="matrix(0.95856 -0.24755 0.24487 0.96904 -4.145 7.566)" x1="22.05" y1="12.273" gradientUnits="userSpaceOnUse"><stop id="stop7" stop-color="#fff"/><stop offset="1" id="stop9" stop-color="#fff" stop-opacity="0"/></linearGradient><linearGradient id="1" x2="0" y2="41" y1="7" gradientUnits="userSpaceOnUse"><stop id="stop12" stop-color="#6a6a6a"/><stop offset="1" id="stop14" stop-color="#979797"/></linearGradient></defs><path id="path16" opacity="0.15" d="m 35.016,7.84 -15.0161,17.2683 -9.2325,-8.0384 -7.7677,9.0384 9.3097,8.1766 8.7599,7.7752 8.0084,-8.9764 14.8866,-17.3608 z"/><path id="path18" d="m 35.016,6.84 -15.0161,17.2683 -9.2325,-8.0384 -7.7677,9.0384 9.3097,8.1766 8.7599,7.7752 8.0084,-8.9764 14.8866,-17.3608 z" fill="url(#1)"/><g id="g20" stroke-width="0.995" fill="none"><path id="path22" opacity="0.4" d="M 35.0722,7.5674 20.3766,24.4626 c -0.182536,0.20101 -0.530845,0.213707 -0.727229,0.02651 l -8.8258,-7.6918 -7.1043,8.2541 8.9406,7.8526 8.3532,7.4286 7.6878,-8.6033 14.5438,-16.9496 z" stroke="#000"/><path id="path24" opacity="0.55" d="M 35.1546,9.0301 21.1524,25.1333 c -0.525095,0.609848 -1.54637,0.690453 -2.15873,0.17038 l -8.0877,-7.0437 -5.7399,6.7082 8.1572,7.1517 7.6074,6.7502 6.9945,-7.8113 13.8727,-16.1957 z" stroke="url(#0)"/></g><metadata id="metadata9999"><rdf:RDF><cc:Work><dc:format>image/svg+xml</dc:format><dc:type rdf:resource="http://purl.org/dc/dcmitype/StillImage"/><dc:title>Ivy icon theme</dc:title><cc:license rdf:resource="http://creativecommons.org/licenses/by-sa/4.0/"/><dc:creator><cc:Agent><dc:title>Sixsixfive (sixsixfive.deviantart.com)</dc:title></cc:Agent></dc:creator><dc:publisher><cc:Agent><dc:title>Sixsixfive (sixsixfive.deviantart.com)</dc:title></cc:Agent></dc:publisher><dc:source>https://github.com/sixsixfive</dc:source><dc:subject><rdf:Bag><rdf:li>ivy</rdf:li></rdf:Bag></dc:subject><dc:contributor><cc:Agent><dc:title>ssf</dc:title></cc:Agent></dc:contributor><dc:rights><cc:Agent><dc:title>Sixsixfive (sixisixfive.deviantart.com)</dc:title></cc:Agent></dc:rights><dc:description>A simple icon theme published under CC-BY-SA_V4(http://creativecommons.org/licenses/by-sa/4.0)</dc:description><dc:identifier>SSF</dc:identifier></cc:Work></rdf:RDF></metadata><!--Part of the Ivy icon them published under the CC-BY-SA_V4: http://creativecommons.org/licenses/by-sa/4.0 -->
</svg>