<?xml version="1.0" encoding="UTF-8" standalone="no"?>
<svg xmlns:dc="http://purl.org/dc/elements/1.1/" xmlns:cc="http://creativecommons.org/ns#" xmlns:rdf="http://www.w3.org/1999/02/22-rdf-syntax-ns#" xmlns:svg="http://www.w3.org/2000/svg" xmlns="http://www.w3.org/2000/svg" viewBox="0 0 48 48" id="svg2" version="1.1">
 <defs id="defs4">
  <linearGradient id="0" y1="6.789" y2="40.31" x2="0" gradientUnits="userSpaceOnUse">
   <stop stop-color="#fff" id="stop7"/>
   <stop offset="1" stop-color="#fff" stop-opacity="0" id="stop9"/>
  </linearGradient>
  <linearGradient id="1" y1="4.741" x1="41.825" y2="43" x2="42.41" gradientUnits="userSpaceOnUse">
   <stop stop-color="#5288d1" id="stop12"/>
   <stop offset="1" stop-color="#9cbbe5" id="stop14"/>
  </linearGradient>
 </defs>
 <path opacity="0.15" d="M 13.4629,6.025 4.925,14.5629 14.9121,24.55 4.925,34.5371 13.4629,43.075 23.45,33.0879 33.4371,43.075 41.975,34.5371 31.9879,24.55 41.975,14.5629 33.4371,6.025 23.45,16.0121 13.4629,6.025 z" id="path16"/>
 <path fill="url(#1)" d="M 13.4629,5.025 4.925,13.5629 14.9121,23.55 4.925,33.5371 13.4629,42.075 23.45,32.0879 33.4371,42.075 41.975,33.5371 31.9879,23.55 41.975,13.5629 33.4371,5.025 23.45,15.0121 13.4629,5.025 z" id="path18"/>
 <g id="g20" fill="none" stroke-width="1.01">
  <path d="m 13.4629,7.2934 -6.2695,6.2695 8.8529,8.8529 a 1.59224,1.59224 0 0 1 0,2.26837 l -8.8529,8.8529 6.2695,6.2695 8.8529,-8.8529 a 1.59224,1.59224 0 0 1 2.26837,0 l 8.8529,8.8529 6.2695,-6.2695 -8.8529,-8.8529 a 1.59224,1.59224 0 0 1 0,-2.26837 l 8.8529,-8.8529 -6.2695,-6.2695 -8.8529,8.8529 a 1.59224,1.59224 0 0 1 -2.26837,0 L 13.4629,7.2934 Z" id="path22" opacity="0.439" stroke="url(#0)"/>
  <path d="m 13.4629,5.7811 -7.7818,7.7818 9.6091,9.6091 a 0.528762,0.528762 0 0 1 0,0.75612 l -9.6091,9.6091 7.7818,7.7818 9.6091,-9.6091 a 0.528762,0.528762 0 0 1 0.75612,0 l 9.6091,9.6091 7.7818,-7.7818 -9.6091,-9.6091 a 0.528762,0.528762 0 0 1 0,-0.75612 l 9.6091,-9.6091 -7.7818,-7.7818 -9.6091,9.6091 a 0.528762,0.528762 0 0 1 -0.75612,0 L 13.4629,5.7811 Z" id="path24" opacity="0.4" stroke="#000"/>
 </g>
 <metadata id="metadata9999">
  <rdf:RDF>
   <cc:Work>
    <dc:format>image/svg+xml</dc:format>
    <dc:type rdf:resource="http://purl.org/dc/dcmitype/StillImage"/>
    <dc:title>Ivy icon theme</dc:title>
    <cc:license rdf:resource="http://creativecommons.org/licenses/by-sa/4.0/"/>
    <dc:creator>
     <cc:Agent>
      <dc:title>Sixsixfive (sixsixfive.deviantart.com)</dc:title>
     </cc:Agent>
    </dc:creator>
    <dc:publisher>
     <cc:Agent>
      <dc:title>Sixsixfive (sixsixfive.deviantart.com)</dc:title>
     </cc:Agent>
    </dc:publisher>
    <dc:source>https://github.com/sixsixfive</dc:source>
    <dc:subject>
     <rdf:Bag>
      <rdf:li>ivy</rdf:li>
     </rdf:Bag>
    </dc:subject>
    <dc:contributor>
     <cc:Agent>
      <dc:title>ssf</dc:title>
     </cc:Agent>
    </dc:contributor>
    <dc:rights>
     <cc:Agent>
      <dc:title>Sixsixfive (sixisixfive.deviantart.com)</dc:title>
     </cc:Agent>
    </dc:rights>
    <dc:description>A simple icon theme published under CC-BY-SA_V4(http://creativecommons.org/licenses/by-sa/4.0)</dc:description>
    <dc:identifier>SSF</dc:identifier>
   </cc:Work>
  </rdf:RDF>
 </metadata>
 <!--Part of the Ivy icon them published under the CC-BY-SA_V4: http://creativecommons.org/licenses/by-sa/4.0 -->
</svg>
