<?xml version="1.0" encoding="UTF-8" standalone="no"?>
<svg xmlns:dc="http://purl.org/dc/elements/1.1/" xmlns:cc="http://creativecommons.org/ns#" xmlns:rdf="http://www.w3.org/1999/02/22-rdf-syntax-ns#" xmlns:svg="http://www.w3.org/2000/svg" xmlns="http://www.w3.org/2000/svg" xmlns:xlink="http://www.w3.org/1999/xlink" viewBox="0 0 48 48" id="svg2" version="1.1">
 <defs id="defs4">
  <linearGradient id="0" y1="3" y2="44" x2="0" gradientUnits="userSpaceOnUse">
   <stop stop-color="#dedede" id="stop7"/>
   <stop offset="1" stop-color="#f4f4f4" id="stop9"/>
  </linearGradient>
  <linearGradient id="1" y1="3" x1="40" y2="42.969" x2="39.906" gradientUnits="userSpaceOnUse">
   <stop stop-color="#fff" id="stop12"/>
   <stop offset="1" stop-color="#fff" stop-opacity="0" id="stop14"/>
  </linearGradient>
  <linearGradient id="2" y1="19" y2="30" x2="0" gradientUnits="userSpaceOnUse">
   <stop stop-color="#a2a2a2" id="stop17"/>
   <stop offset="1" stop-color="#bbb" id="stop19"/>
  </linearGradient>
 </defs>
 <rect width="34.951" x="6" opacity="0.1" y="3" rx="1.209" height="42" ry="1.209" id="rect21"/>
 <rect width="34.951" x="5.986" y="2" fill="url(#0)" rx="1.209" height="42" ry="1.209" id="rect23"/>
 <path opacity="0.66" fill="#6a6a6a" d="M 20,2 H28 V23 H20 z" id="path25"/>
 <g id="g27" fill="none">
  <path d="M 7.1875,2.5 C 6.783721,2.5 6.5,2.799839 6.5,3.21875 l 0,39.5625 C 6.5,43.20016 6.783721,43.5 7.1875,43.5 l 32.53125,0 c 0.40378,0 0.71875,-0.31497 0.71875,-0.71875 l 0,-39.5625 C 40.4375,2.814971 40.12253,2.5 39.71875,2.5 L 7.1875,2.5 Z" id="path29" opacity="0.4" stroke="#000"/>
  <path d="m 7.5312,3.5312 0,38.9375 31.875,0 0,-38.9375 -31.875,0 z" id="path31" opacity="0.78" stroke="url(#1)"/>
 </g>
 <g id="g33" opacity="0.26" fill="#fff">
  <path id="3" d="m 21,4 3,0 0,1 -3,0 z"/>
  <path id="4" d="m 24,5 3,0 0,1 -3,0 z"/>
  <path id="5" d="m 21,6 3,0 0,1 -3,0 z"/>
  <path id="6" d="m 24,7 3,0 0,1 -3,0 z"/>
  <path id="7" d="m 21,8 3,0 0,1 -3,0 z"/>
  <path id="8" d="m 24,9 3,0 0,1 -3,0 z"/>
  <path id="9" d="m 21,10 3,0 0,1 -3,0 z"/>
  <path id="A" d="m 24,11 3,0 0,1 -3,0 z"/>
  <path id="B" d="m 21,12 3,0 0,1 -3,0 z"/>
  <path id="C" d="m 24,13 3,0 0,1 -3,0 z"/>
  <path id="D" d="m 21,14 3,0 0,1 -3,0 z"/>
  <path id="E" d="m 24,15 3,0 0,1 -3,0 z"/>
  <path id="F" d="m 21,16 3,0 0,1 -3,0 z"/>
  <path id="G" d="m 24,17 3,0 0,1 -3,0 z"/>
  <path id="H" d="m 21,18 3,0 0,1 -3,0 z"/>
  <path id="I" d="m 24,19 3,0 0,1 -3,0 z"/>
  <path id="J" d="m 21,20 3,0 0,1 -3,0 z"/>
  <path id="K" d="m 24,3 3,0 0,1 -3,0 z"/>
  <path id="L" d="m 21,2 3,0 0,1 -3,0 z"/>
 </g>
 <g transform="matrix(-1,0,0,1,48,0)" id="g54" opacity="0.5">
  <use xlink:href="#3" id="use56" x="0" y="0" width="48" height="48"/>
  <use xlink:href="#4" id="use58" x="0" y="0" width="48" height="48"/>
  <use xlink:href="#5" id="use60" x="0" y="0" width="48" height="48"/>
  <use xlink:href="#6" id="use62" x="0" y="0" width="48" height="48"/>
  <use xlink:href="#7" id="use64" x="0" y="0" width="48" height="48"/>
  <use xlink:href="#8" id="use66" x="0" y="0" width="48" height="48"/>
  <use xlink:href="#9" id="use68" x="0" y="0" width="48" height="48"/>
  <use xlink:href="#A" id="use70" x="0" y="0" width="48" height="48"/>
  <use xlink:href="#B" id="use72" x="0" y="0" width="48" height="48"/>
  <use xlink:href="#C" id="use74" x="0" y="0" width="48" height="48"/>
  <use xlink:href="#D" id="use76" x="0" y="0" width="48" height="48"/>
  <use xlink:href="#E" id="use78" x="0" y="0" width="48" height="48"/>
  <use xlink:href="#F" id="use80" x="0" y="0" width="48" height="48"/>
  <use xlink:href="#G" id="use82" x="0" y="0" width="48" height="48"/>
  <use xlink:href="#H" id="use84" x="0" y="0" width="48" height="48"/>
  <use xlink:href="#I" id="use86" x="0" y="0" width="48" height="48"/>
  <use xlink:href="#J" id="use88" x="0" y="0" width="48" height="48"/>
  <use xlink:href="#K" id="use90" x="0" y="0" width="48" height="48"/>
  <use xlink:href="#L" id="use92" x="0" y="0" width="48" height="48"/>
 </g>
 <path opacity="0.66" fill="#171717" d="M 23,2 H25 V21 H23 z" id="path94"/>
 <path opacity="0.2" d="m 19 20 c -0.554 0 -1 0.446 -1 1 v 2 c 0 0.554 0.446 1 1 1 h 1 v 5 c 0 1.108 0.892 2 2 2 h 4 c 1.108 0 2 -0.892 2 -2 v -5 h 1 c 0.554 0 1 -0.446 1 -1 v -2 c 0 -0.554 -0.446 -1 -1 -1 H 19 z" id="path96"/>
 <path fill="url(#2)" d="m 19 19 c -0.554 0 -1 0.446 -1 1 v 2 c 0 0.554 0.446 1 1 1 h 1 v 5 c 0 1.108 0.892 2 2 2 h 4 c 1.108 0 2 -0.892 2 -2 v -5 h 1 c 0.554 0 1 -0.446 1 -1 v -2 c 0 -0.554 -0.446 -1 -1 -1 H 19 z" id="path98"/>
 <rect width="4" x="22" y="26" fill="#ebebeb" rx="1" height="2" ry="1" id="rect100"/>
 <path opacity="0.4" fill="none" stroke="#000" d="m 19 19.5312 c -0.264478 0 -0.46875 0.204272 -0.46875 0.46875 v 2 c 0 0.264478 0.204272 0.46875 0.46875 0.46875 h 1 a 0.539501 0.539501 0 0 1 0.53125 0.53125 v 5 c 0 0.818478 0.650272 1.46875 1.46875 1.46875 h 4 c 0.818478 0 1.46875 -0.650272 1.46875 -1.46875 v -5 A 0.539501 0.539501 0 0 1 28 22.4687 h 1 c 0.264478 0 0.46875 -0.204272 0.46875 -0.46875 v -2 C 29.46875 19.735472 29.26448 19.5312 29 19.5312 H 19 z" id="path102"/>
 <rect width="10" x="19" opacity="0.36" y="20" fill="#fff" rx="1" height="1" ry="0.5" id="rect104"/>
 <rect width="4" x="22" opacity="0.54" y="26" rx="0.96" height="1" ry="0.5" id="rect106"/>
 <rect width="4" x="22" opacity="0.35" y="28" fill="#fff" rx="0.96" height="1" ry="0.5" id="rect108"/>
 <metadata id="metadata9999">
  <rdf:RDF>
   <cc:Work>
    <dc:format>image/svg+xml</dc:format>
    <dc:type rdf:resource="http://purl.org/dc/dcmitype/StillImage"/>
    <dc:title>Ivy icon theme</dc:title>
    <cc:license rdf:resource="http://creativecommons.org/licenses/by-sa/4.0/"/>
    <dc:creator>
     <cc:Agent>
      <dc:title>Sixsixfive (sixsixfive.deviantart.com)</dc:title>
     </cc:Agent>
    </dc:creator>
    <dc:publisher>
     <cc:Agent>
      <dc:title>Sixsixfive (sixsixfive.deviantart.com)</dc:title>
     </cc:Agent>
    </dc:publisher>
    <dc:source>https://github.com/sixsixfive</dc:source>
    <dc:subject>
     <rdf:Bag>
      <rdf:li>ivy</rdf:li>
     </rdf:Bag>
    </dc:subject>
    <dc:contributor>
     <cc:Agent>
      <dc:title>ssf</dc:title>
     </cc:Agent>
    </dc:contributor>
    <dc:rights>
     <cc:Agent>
      <dc:title>Sixsixfive (sixisixfive.deviantart.com)</dc:title>
     </cc:Agent>
    </dc:rights>
    <dc:description>A simple icon theme published under CC-BY-SA_V4(http://creativecommons.org/licenses/by-sa/4.0)</dc:description>
    <dc:identifier>SSF</dc:identifier>
   </cc:Work>
  </rdf:RDF>
 </metadata>
 <!--Part of the Ivy icon them published under the CC-BY-SA_V4: http://creativecommons.org/licenses/by-sa/4.0 -->
</svg>
