<?xml version="1.0" encoding="UTF-8" standalone="no"?><svg xmlns:cc="http://creativecommons.org/ns#" xmlns:dc="http://purl.org/dc/elements/1.1/" xmlns:svg="http://www.w3.org/2000/svg" xmlns="http://www.w3.org/2000/svg" xmlns:rdf="http://www.w3.org/1999/02/22-rdf-syntax-ns#" id="svg2" version="1.1" xmlns:xlink="http://www.w3.org/1999/xlink" viewBox="0 0 48 48"><defs id="defs4"><linearGradient id="linearGradient4193"><stop id="stop4195" stop-color="#d02604"/><stop id="stop4197" stop-color="#fc7054" offset="1"/></linearGradient><linearGradient id="linearGradient4175"><stop id="stop4177" stop-color="#ebebeb"/><stop id="stop4179" stop-color="#fff" offset="1"/></linearGradient><linearGradient gradientUnits="userSpaceOnUse" y1="5.062" id="3" x1="45.75" y2="49.649" x2="47.17"><stop id="stop22" stop-color="#fff"/><stop stop-opacity="0" id="stop24" stop-color="#fff" offset="1"/></linearGradient><linearGradient gradientUnits="userSpaceOnUse" xlink:href="#linearGradient4175" y1="15.246227" id="linearGradient4181" x1="28.462883" y2="40.893261" x2="28.705259"/><linearGradient gradientUnits="userSpaceOnUse" xlink:href="#linearGradient4193" y1="4" id="linearGradient4199" y2="45" x2="0"/></defs><path opacity="0.1" d="m 23.8954 5.00014 c -0.662369 0.00758 -1.25194 0.36499 -1.58357 0.938413 l -20.8797 36.2462 c -0.326966 0.580611 -0.277033 1.30122 0.058644 1.87683 C 1.826458 44.637192 2.408011 44.998674 3.074344 45 l 41.818 -0.0586 c 0.542812 0.0033 1.10741 -0.237886 1.46627 -0.645166 0.358852 -0.407277 0.482044 -0.928176 0.41056 -1.46628 -0.03221 -0.228519 -0.06372 -0.502143 -0.175951 -0.7038 l -21.0557 -36.2463 C 25.19283 5.314191 24.557676 4.992492 23.895303 5.00009 z" id="path26"/><path d="m 23.8954 4.0001 c -0.662369 0.00758 -1.25194 0.36499 -1.58357 0.938413 l -20.8797 36.2462 c -0.326966 0.580611 -0.277033 1.30122 0.058644 1.87683 0.335684 0.575605 0.917237 0.937087 1.58357 0.938413 l 41.818 -0.0586 c 0.542812 0.0033 1.10741 -0.237886 1.46627 -0.645166 0.358852 -0.407277 0.482044 -0.928176 0.41056 -1.46628 -0.03221 -0.228519 -0.06372 -0.502143 -0.175951 -0.7038 L 25.537523 4.87981 C 25.19283 4.314147 24.557676 3.992448 23.895303 4.00005 z" id="path28" fill="url(#linearGradient4199)"/><path opacity="0.2" d="M 24 16.1875 C 21.97638 16.1938 19.93784 17.09458 19.28125 18.875 17.96807 22.43584 21.36458 31.5707 24 31.5625 26.63542 31.5543 30.04099 22.39644 28.71875 18.8437 28.05763 17.06735 26.02362 16.18119 24 16.18745 z m 0 17.6875 c -2.20914 0 -4 1.79086 -4 4 0 2.20914 1.79086 4 4 4 2.20914 0 4 -1.79086 4 -4 0 -2.20914 -1.79086 -4 -4 -4 z" id="path30" fill="#fff"/><g id="g32" fill="none"><path stroke="#000" opacity="0.521" d="M 23.90625,4.5 C 23.415904,4.505611 22.997699,4.759204 22.75,5.1875 l -20.875,36.25 c -0.231059,0.410303 -0.195394,0.932773 0.0625,1.375 0.261133,0.447771 0.634499,0.686524 1.125,0.6875 l 41.84375,-0.0625 c 0.389377,0.0024 0.797038,-0.167466 1.0625,-0.46875 0.274416,-0.311447 0.367091,-0.651565 0.3125,-1.0625 l 0.03125,0 C 46.28075,41.681033 46.19794,41.4499 46.15625,41.375 L 25.09375,5.125 C 24.839797,4.724484 24.400878,4.494325 23.90625,4.5 Z" id="path34"/><path stroke="url(#3)" opacity="0.4" d="m 23.9375,5.5625 c -0.113035,0.00129 -0.217645,0.04627 -0.28125,0.15625 l -20.875,36.25 0.03125,0 c -0.020699,0.03676 -0.056039,0.162821 0.03125,0.3125 0.097616,0.167385 0.113921,0.156041 0.21875,0.15625 L 44.90625,42.375 c 0.05284,3.21e-4 0.220635,-0.0562 0.28125,-0.125 0.08922,-0.101257 0.04879,-0.05548 0.03125,-0.1875 l 0.03125,0 C 45.21928,41.844525 45.1057,41.671875 45.21875,41.875 L 24.1875,5.6875 c -0.04806,-0.078873 -0.09673,-0.126758 -0.25,-0.125 z" id="path36"/></g><path opacity="0.2" d="M 24 14.1875 C 21.97638 14.1938 19.93784 15.09458 19.28125 16.875 17.96807 20.43584 21.36458 29.5707 24 29.5625 26.63542 29.5543 30.04099 20.39644 28.71875 16.8437 28.05763 15.06735 26.02362 14.18119 24 14.18745 z m 0 17.6875 c -2.20914 0 -4 1.79086 -4 4 0 2.20914 1.79086 4 4 4 2.20914 0 4 -1.79086 4 -4 0 -2.20914 -1.79086 -4 -4 -4 z" id="path38"/><path d="M 24 15.1875 C 21.97638 15.1938 19.93784 16.09458 19.28125 17.875 C 17.96807 21.43584 21.36458 30.5707 24 30.5625 C 26.63542 30.5543 30.04099 21.39649 28.71875 17.84375 C 28.05763 16.0674 26.02362 15.18124 24 15.1875 z M 24 32.875 C 21.79086 32.875 20 34.66586 20 36.875 C 20 39.08414 21.79086 40.875 24 40.875 C 26.20914 40.875 28 39.08414 28 36.875 C 28 34.66586 26.20914 32.875 24 32.875 z " id="path40" fill="url(#linearGradient4181)"/><metadata id="metadata9999"><rdf:RDF><cc:Work><dc:format>image/svg+xml</dc:format><dc:type rdf:resource="http://purl.org/dc/dcmitype/StillImage"/><dc:title>Ivy icon theme</dc:title><cc:license rdf:resource="http://creativecommons.org/licenses/by-sa/4.0/"/><dc:creator><cc:Agent><dc:title>Sixsixfive (sixsixfive.deviantart.com)</dc:title></cc:Agent></dc:creator><dc:publisher><cc:Agent><dc:title>Sixsixfive (sixsixfive.deviantart.com)</dc:title></cc:Agent></dc:publisher><dc:source>https://github.com/sixsixfive</dc:source><dc:subject><rdf:Bag><rdf:li>ivy</rdf:li></rdf:Bag></dc:subject><dc:contributor><cc:Agent><dc:title>ssf</dc:title></cc:Agent></dc:contributor><dc:rights><cc:Agent><dc:title>Sixsixfive (sixisixfive.deviantart.com)</dc:title></cc:Agent></dc:rights><dc:description>A simple icon theme published under CC-BY-SA_V4(http://creativecommons.org/licenses/by-sa/4.0)</dc:description><dc:identifier>SSF</dc:identifier></cc:Work></rdf:RDF></metadata><!--Part of the Ivy icon them published under the CC-BY-SA_V4: http://creativecommons.org/licenses/by-sa/4.0 -->
</svg>