<?xml version="1.0" encoding="UTF-8" standalone="no"?>
<svg
   xmlns:dc="http://purl.org/dc/elements/1.1/"
   xmlns:cc="http://creativecommons.org/ns#"
   xmlns:rdf="http://www.w3.org/1999/02/22-rdf-syntax-ns#"
   xmlns:svg="http://www.w3.org/2000/svg"
   xmlns="http://www.w3.org/2000/svg"
   xmlns:xlink="http://www.w3.org/1999/xlink"
   height="48"
   width="48"
   version="1.1"
   viewBox="0 0 48 48"
   id="svg2">
  <path
     id="path4236"
     d="M 39.03125,2 C 29.405212,2 27.600441,16 33.015625,16 38.430026,16 48.657678,2 39.03125,2 Z M 25.685547,5 C 25.542148,4.999541 25.391293,5.008208 25.232422,5.0273438 20.150375,5.6396903 21.936558,13.844705 24.642578,13.998047 27.26297,14.146596 30.130919,5.0142298 25.685547,5 Z m -8.294922,4.0019531 c -0.113573,-0.00566 -0.229888,-0.00211 -0.351563,0.00977 -0.259574,0.025342 -0.538641,0.092233 -0.835937,0.2050781 -4.757588,1.8059058 -0.721882,9.2607958 1.943359,8.7597648 2.422525,-0.454322 2.76489,-8.7991434 -0.755859,-8.9746086 z M 9.3164062,15 C 8.9624202,14.98861 8.581406,15.100155 8.1738281,15.369141 4.9146649,17.52138 9.2719347,22.722364 11.189453,21.916016 12.867285,21.210157 11.794308,15.079699 9.3164062,15 Z M 28.099609,18.935547 C 21.094383,18.823129 11.707224,21.729923 10.078125,28.345703 9.1185239,35.861375 17.06263,46 26.117188,46 c 4.454375,0 8.827834,-3.918532 9.789062,-8.882812 0.142413,-3.304038 -8.466595,-2.479507 -7.693359,0.236328 -0.670638,4.576712 -2.282687,5.214884 -4.714844,2.550781 C 16.847866,33.417001 37.15605,30.705565 35.947266,22.25 35.648302,20.158727 32.302745,19.002997 28.099609,18.935547 Z"
     style="fill:#000000;fill-opacity:1;fill-rule:nonzero;stroke:none;opacity:0.1" />
  <defs
     id="defs4">
    <linearGradient
       id="linearGradient4226">
      <stop
         id="stop4228"
         offset="0"
         style="stop-color:#ffffff;stop-opacity:1;" />
      <stop
         id="stop4230"
         offset="1"
         style="stop-color:#ffffff;stop-opacity:0;" />
    </linearGradient>
    <linearGradient
       id="linearGradient4205">
      <stop
         stop-opacity="1"
         stop-color="#6a6a6a"
         id="stop4207" />
      <stop
         stop-opacity="1"
         stop-color="#b5b5b5"
         id="stop4209"
         offset="1" />
    </linearGradient>
    <linearGradient
       gradientTransform="matrix(1.5248651,0,0,1.5,-0.68754093,2.2928643e-7)"
       gradientUnits="userSpaceOnUse"
       y1="0.99999988"
       x1="20.000002"
       xlink:href="#linearGradient4205"
       y2="31"
       x2="20.000002"
       id="linearGradient4211" />
    <linearGradient
       y2="31"
       x2="20.000002"
       y1="0.99999988"
       x1="20.000002"
       gradientTransform="matrix(1.4445233,0,0,1.5555556,1.1088639,-0.55555552)"
       gradientUnits="userSpaceOnUse"
       id="linearGradient4178"
       xlink:href="#linearGradient4205" />
    <linearGradient
       y2="31"
       x2="20.000002"
       y1="0.99999988"
       x1="20.000002"
       gradientTransform="matrix(1.5,0,0,1.5,-0.49953633,-0.49864432)"
       gradientUnits="userSpaceOnUse"
       id="linearGradient4180"
       xlink:href="#linearGradient4205" />
    <linearGradient
       y2="31"
       x2="20.000002"
       y1="0.99999988"
       x1="20.000002"
       gradientTransform="matrix(1.5,0,0,1.5,0.50038132,0.49932979)"
       gradientUnits="userSpaceOnUse"
       id="linearGradient4182"
       xlink:href="#linearGradient4205" />
    <linearGradient
       y2="31"
       x2="20.000002"
       y1="0.99999988"
       x1="20.000002"
       gradientTransform="matrix(1.6666811,0,0,1.3999634,-1.3339831,1.401117)"
       gradientUnits="userSpaceOnUse"
       id="linearGradient4184"
       xlink:href="#linearGradient4205" />
    <linearGradient
       gradientUnits="userSpaceOnUse"
       y2="44"
       x2="30"
       y1="2"
       x1="30"
       id="linearGradient4232"
       xlink:href="#linearGradient4226" />
  </defs>
  <metadata
     id="metadata9999">
    <rdf:RDF>
      <cc:Work>
        <dc:format>image/svg+xml</dc:format>
        <dc:type
           rdf:resource="http://purl.org/dc/dcmitype/StillImage" />
        <dc:title></dc:title>
        <cc:license
           rdf:resource="http://creativecommons.org/licenses/by-sa/4.0/" />
        <dc:creator>
          <cc:Agent>
            <dc:title>Sixsixfive (sixsixfive.deviantart.com)</dc:title>
          </cc:Agent>
        </dc:creator>
        <dc:publisher>
          <cc:Agent>
            <dc:title>Sixsixfive (sixsixfive.deviantart.com)</dc:title>
          </cc:Agent>
        </dc:publisher>
        <dc:source>https://github.com/sixsixfive</dc:source>
        <dc:subject>
          <rdf:Bag>
            <rdf:li>ivy</rdf:li>
          </rdf:Bag>
        </dc:subject>
        <dc:contributor>
          <cc:Agent>
            <dc:title>ssf</dc:title>
          </cc:Agent>
        </dc:contributor>
        <dc:rights>
          <cc:Agent>
            <dc:title>Sixsixfive (sixisixfive.deviantart.com)</dc:title>
          </cc:Agent>
        </dc:rights>
        <dc:description>A simple icon theme published under CC-BY-SA_V4(http://creativecommons.org/licenses/by-sa/4.0)</dc:description>
        <dc:identifier>SSF</dc:identifier>
      </cc:Work>
    </rdf:RDF>
  </metadata>
  <!--Part of the Ivy icon them published under the CC-BY-SA_V4: http://creativecommons.org/licenses/by-sa/4.0 -->
  <g
     id="g4186">
    <path
       style="fill:url(#linearGradient4178);fill-opacity:1;fill-rule:nonzero;stroke:none"
       d="M 39.030422,1 C 29.404384,1 27.600153,15 33.015337,15 38.429738,15 48.65685,1 39.030422,1 Z"
       id="path4176" />
    <path
       style="fill:url(#linearGradient4180);fill-opacity:1;fill-rule:nonzero;stroke:none"
       d="m 25.231909,4.0277228 c -5.082047,0.6123466 -3.294887,8.8173612 -0.588867,8.9707032 2.704921,0.153341 5.672751,-9.5830458 0.588867,-8.9707032 z"
       id="path4174" />
    <path
       style="fill:url(#linearGradient4182);fill-opacity:1;fill-rule:nonzero;stroke:none"
       d="m 17.038468,8.0110486 c -0.259574,0.025342 -0.537666,0.092233 -0.834962,0.205078 -4.757588,1.8059064 -0.722858,9.2607964 1.942383,8.7597664 2.500671,-0.468978 2.786177,-9.3449783 -1.107421,-8.9648444 z"
       id="path4172" />
    <path
       style="fill:url(#linearGradient4184);fill-opacity:1;fill-rule:nonzero;stroke:none"
       d="m 9.3171508,14.000788 c -0.353986,-0.01139 -0.7350102,0.100145 -1.1425881,0.369131 -3.2591632,2.152239 1.0968309,7.352271 3.0143493,6.545923 1.677832,-0.705859 0.606141,-6.835355 -1.8717612,-6.915054 z"
       id="path4170" />
    <path
       style="fill:url(#linearGradient4211);fill-opacity:1;fill-rule:nonzero;stroke:none"
       d="M 28.100245,17.935547 C 21.095019,17.823129 11.70794,20.729924 10.078841,27.345704 9.1192399,34.861376 17.062172,45 26.116729,45 c 4.454376,0 8.828288,-3.918531 9.789516,-8.882812 0.142413,-3.304037 -8.466062,-2.478531 -7.692826,0.237304 -0.670638,4.576712 -2.282417,5.212932 -4.714574,2.548829 -6.650181,-6.487296 13.657879,-9.198732 12.449095,-17.654297 -0.298964,-2.091273 -3.644559,-3.246027 -7.847695,-3.313477 z"
       id="path9" />
  </g>
  <path
     d="m 39.03125,1.5 c -4.570973,0 -7.235037,3.2945153 -8.167969,6.6347656 -0.466465,1.6701252 -0.469985,3.3363164 -0.07227,4.5175784 C 31.188735,13.833606 31.87696,14.5 33.015625,14.5 c 1.138438,0 2.736641,-0.798495 4.257813,-2.070312 C 38.794609,11.15787 40.250781,9.4421423 41.232422,7.75 42.214062,6.0578577 42.685026,4.391111 42.427734,3.3027344 42.299089,2.7585461 42.024555,2.3475108 41.5,2.0292969 40.975445,1.711083 40.174044,1.5 39.03125,1.5 Z m -13.347656,3 c -0.122161,-3.91e-4 -0.251239,0.00665 -0.390625,0.023437 -1.13559,0.1368296 -1.810141,0.6559235 -2.246094,1.3964844 -0.435953,0.7405608 -0.600782,1.7322108 -0.53125,2.7304687 0.06953,0.9982579 0.371636,1.9951954 0.792969,2.7148434 0.421332,0.719649 0.932826,1.110484 1.361328,1.134766 0.361347,0.02049 0.93141,-0.355508 1.453125,-1.123047 0.521714,-0.767538 0.971826,-1.8496068 1.203125,-2.9218749 C 27.557471,7.38281 27.561702,6.3189674 27.298828,5.6054688 27.035954,4.8919701 26.62382,4.5030097 25.683594,4.5 Z m -8.31836,4 c -0.08629,-0.0043 -0.176734,-0.00201 -0.277343,0.00781 -0.209455,0.020449 -0.445449,0.076492 -0.707032,0.1757813 -1.060951,0.4027206 -1.560296,1.0525439 -1.773437,1.8613282 -0.213141,0.808784 -0.09588,1.800862 0.251953,2.74414 0.347829,0.943279 0.92301,1.831724 1.537109,2.425782 0.6141,0.594057 1.235315,0.850982 1.658204,0.771484 0.335569,-0.06293 0.735644,-0.484993 1.023437,-1.253906 0.287793,-0.768914 0.444401,-1.810598 0.419922,-2.835938 C 19.473567,11.371145 19.265808,10.359202 18.892578,9.6445312 18.519348,8.929861 18.048524,8.5340534 17.365234,8.5 Z m -8.0644528,5.998047 c -0.237754,-0.0076 -0.5104137,0.06196 -0.8515624,0.287109 C 7.7542776,15.244071 7.5163676,15.785027 7.5,16.425781 c -0.016368,0.640755 0.2412556,1.386853 0.6640625,2.060547 0.4228069,0.673694 1.0054745,1.271213 1.5585937,1.63086 0.5531198,0.359646 1.0331328,0.438942 1.2734378,0.33789 0.163816,-0.06892 0.378145,-0.384411 0.46289,-0.976562 0.08475,-0.592152 0.03787,-1.380002 -0.134765,-2.144532 -0.172639,-0.764529 -0.472553,-1.509938 -0.841797,-2.03125 -0.369244,-0.521311 -0.7665609,-0.791337 -1.1816408,-0.804687 z m 18.7910158,3.9375 c -3.430005,-0.05504 -7.472644,0.63497 -10.814453,2.136719 -3.330619,1.49672 -5.928031,3.771011 -6.703125,6.863281 -0.442753,3.553096 1.229763,7.850423 4.146484,11.230469 C 17.644604,42.054382 21.776258,44.5 26.117188,44.5 c 4.146312,0 8.347614,-3.71743 9.285156,-8.427734 0.01542,-0.593487 -0.295997,-0.947575 -0.949219,-1.238282 -0.663498,-0.295279 -1.640241,-0.419724 -2.597656,-0.357422 -0.957415,0.0623 -1.899595,0.312048 -2.494141,0.660157 -0.297273,0.174054 -0.501786,0.368705 -0.603516,0.542969 -0.101729,0.174263 -0.126789,0.318165 -0.06445,0.537109 a 0.49932433,0.49932433 0 0 1 0.01367,0.208984 c -0.171578,1.170922 -0.402995,2.104554 -0.71289,2.828125 -0.309896,0.723571 -0.706219,1.261058 -1.253907,1.53711 -0.547687,0.276051 -1.195394,0.21938 -1.791015,-0.06836 -0.59353,-0.286729 -1.183724,-0.786712 -1.814453,-1.476562 -0.872464,-0.855808 -1.356855,-1.705004 -1.457032,-2.558594 -0.10081,-0.858995 0.202791,-1.668668 0.726563,-2.384766 1.047544,-1.432194 2.961932,-2.636514 5.013672,-3.912109 2.05174,-1.275595 4.246297,-2.601971 5.816406,-4.089844 1.570109,-1.487873 2.4927,-3.06416 2.21875,-4.980469 -0.114382,-0.800108 -0.836576,-1.498745 -2.150391,-2.023437 -1.313814,-0.524692 -3.152988,-0.828303 -5.210937,-0.861328 z"
     id="path4222"
     style="opacity:0.4;fill:none;fill-opacity:1;fill-rule:nonzero;stroke:#000000" />
  <path
     style="opacity:0.4;fill:none;fill-opacity:1;fill-rule:nonzero;stroke:url(#linearGradient4232)"
     id="path4224"
     d="m 39.03125,2.4882812 c -4.091221,0 -6.370348,2.888493 -7.214844,5.9121094 -0.422248,1.5118082 -0.398029,3.0163594 -0.08789,3.9375004 0.310139,0.92114 0.574847,1.173828 1.287109,1.173828 0.711973,0 2.198319,-0.650614 3.623047,-1.841797 C 38.063399,10.478739 39.459886,8.8294179 40.375,7.2519531 41.290114,5.6744884 41.61712,4.1734466 41.464844,3.5292969 41.388705,3.207222 41.29982,3.0651753 40.986328,2.875 40.672836,2.6848247 40.054111,2.4882812 39.03125,2.4882812 Z m -13.349609,3 c -0.08007,-2.562e-4 -0.170718,0.00544 -0.271485,0.017578 -0.868165,0.104607 -1.212475,0.4076861 -1.511718,0.9160156 -0.299244,0.5083295 -0.455631,1.310998 -0.396485,2.1601562 0.05915,0.8491583 0.334428,1.7235138 0.662109,2.2832028 0.327682,0.55969 0.625556,0.650058 0.5625,0.646485 -0.220884,-0.01252 0.147962,-0.05856 0.578126,-0.691407 0.430163,-0.63285 0.847465,-1.6226236 1.052734,-2.5742182 0.205269,-0.9515947 0.170648,-1.8674577 0.01172,-2.2988282 -0.15893,-0.4313705 -0.08644,-0.4570603 -0.6875,-0.4589844 z m -8.365235,4 c -0.03223,-0.00161 -0.07396,1.129e-4 -0.132812,0.00586 -0.110115,0.010751 -0.260376,0.042814 -0.451172,0.1152344 -0.806365,0.3060835 -1.025991,0.64875 -1.167969,1.1875 -0.141978,0.53875 -0.07196,1.346128 0.224609,2.150391 0.296568,0.804262 0.809083,1.586657 1.294922,2.05664 0.48584,0.469984 0.846697,0.498564 0.78711,0.509766 -0.199712,0.03745 0.05089,-0.01864 0.279297,-0.628906 0.228411,-0.610261 0.381151,-1.55273 0.359375,-2.464844 -0.02178,-0.912115 -0.223833,-1.798813 -0.494141,-2.316406 C 17.745317,9.5859226 17.609431,9.5028849 17.316406,9.4882812 Z M 9.2675781,15.488281 c -0.00738,-2.37e-4 -0.063956,-0.0152 -0.2734375,0.123047 -0.4573915,0.302046 -0.4964229,0.470428 -0.5058594,0.839844 -0.00944,0.369416 0.1661816,0.95608 0.5136719,1.509766 0.3474904,0.553685 0.8535199,1.062024 1.2597659,1.326171 0.223381,0.145246 0.13874,0.123855 0.193359,0.140625 0.01055,-0.04156 0.01476,-0.02922 0.02344,-0.08984 0.06118,-0.427471 0.03073,-1.123418 -0.119141,-1.78711 C 10.209507,16.887089 9.9388127,16.246357 9.6757812,15.875 9.4127498,15.503643 9.2775329,15.488601 9.2675781,15.488281 Z m 18.8085939,3.935547 c -3.286091,-0.05273 -7.217798,0.626046 -10.392578,2.052734 -3.141635,1.411795 -5.432039,3.473398 -6.126953,6.144532 -0.367496,3.151208 1.158554,7.205524 3.912109,10.396484 2.777238,3.218406 6.676866,5.494141 10.648438,5.494141 3.527005,0 7.350265,-3.307416 8.257812,-7.496094 0.01213,-0.116685 0.06633,-0.103535 -0.324219,-0.277344 -0.442521,-0.196937 -1.295307,-0.329763 -2.130859,-0.27539 -0.835553,0.05437 -1.665399,0.297126 -2.058594,0.527343 -0.142217,0.08327 -0.155361,0.111784 -0.179687,0.136719 a 1.4890169,1.4890169 0 0 1 0.0039,0.443359 c -0.179346,1.22393 -0.41892,2.228218 -0.78125,3.074219 -0.36233,0.846001 -0.86928,1.601138 -1.71875,2.029297 -0.84947,0.42816 -1.888063,0.315276 -2.666016,-0.06055 -0.767227,-0.370641 -1.41863,-0.948134 -2.091797,-1.68164 -0.963855,-0.951178 -1.599054,-1.992501 -1.732422,-3.128907 -0.135117,-1.151319 0.28954,-2.235482 0.910157,-3.083984 1.241233,-1.697004 3.23055,-2.886948 5.291015,-4.167969 2.060466,-1.28102 4.204845,-2.593363 5.65625,-3.96875 1.451406,-1.375387 2.137887,-2.596406 1.919922,-4.121093 -0.04481,-0.313457 -0.392439,-0.786999 -1.537109,-1.244141 -1.14467,-0.457142 -2.887882,-0.761331 -4.859375,-0.792969 z" />
</svg>
