<?xml version="1.0" encoding="UTF-8" standalone="no"?>
<svg xmlns:dc="http://purl.org/dc/elements/1.1/" xmlns:cc="http://creativecommons.org/ns#" xmlns:rdf="http://www.w3.org/1999/02/22-rdf-syntax-ns#" xmlns:svg="http://www.w3.org/2000/svg" xmlns="http://www.w3.org/2000/svg" viewBox="0 0 48 48" id="svg2" version="1.1">
 <defs id="defs12">
  <linearGradient id="b" y1="2" y2="46" gradientUnits="userSpaceOnUse" x2="0">
   <stop stop-color="#66b03e" id="stop4151"/>
   <stop offset="1" stop-color="#88c964" id="stop4153"/>
  </linearGradient>
  <linearGradient id="a" y1="2.908" y2="45.09" gradientUnits="userSpaceOnUse" x2="0">
   <stop stop-color="#fff" id="stop4165"/>
   <stop offset="1" stop-color="#fff" id="stop4167" stop-opacity="0"/>
  </linearGradient>
 </defs>
 <path opacity="0.1" id="path4171" d="m6 3v12 6h10v-6h13v-12h-13-10zm26 0v44h10v-44h-10zm-13 15v29h10v-29h-10zm-13 6v23h10v-23h-10z"/>
 <path fill="url(#b)" id="rect4140" d="m6 2v12 6h10v-6h13v-12h-13-10zm26 0v44h10v-44h-10zm-13 15v29h10v-29h-10zm-13 6v23h10v-23h-10z"/>
 <path opacity="0.4" fill="none" stroke="#000" id="path4159" d="m6.4473 2.4473v11.553 5.5527h9.1055v-5.5527a0.44812 0.44812 0 0 1 0.447 -0.447h12.553v-11.105h-12.553-9.5527zm26 0v43.105h9.1055v-43.105h-9.1055zm-13 15v28.105h9.1055v-28.105h-9.1055zm-13 6v22.105h9.1055v-22.105h-9.1055z"/>
 <path opacity="0.4" fill="none" stroke="url(#a)" id="path4161" d="m7.4082 3.4082v10.592 4.5918h7.1836v-4.5918a1.4076 1.4076 0 0 1 1.408 -1.408h11.592v-9.1836h-11.592-8.5918zm26 0v41.184h7.1836v-41.184h-7.1836zm-13 15v26.184h7.1836v-26.184h-7.1836zm-13 6v20.184h7.1836v-20.184h-7.1836z"/>
 <metadata id="metadata9999">
  <rdf:RDF>
   <cc:Work>
    <dc:format>image/svg+xml</dc:format>
    <dc:type rdf:resource="http://purl.org/dc/dcmitype/StillImage"/>
    <dc:title>Ivy icon theme</dc:title>
    <cc:license rdf:resource="http://creativecommons.org/licenses/by-sa/4.0/"/>
    <dc:creator>
     <cc:Agent>
      <dc:title>Sixsixfive (sixsixfive.deviantart.com)</dc:title>
     </cc:Agent>
    </dc:creator>
    <dc:publisher>
     <cc:Agent>
      <dc:title>Sixsixfive (sixsixfive.deviantart.com)</dc:title>
     </cc:Agent>
    </dc:publisher>
    <dc:source>https://github.com/sixsixfive</dc:source>
    <dc:subject>
     <rdf:Bag>
      <rdf:li>ivy</rdf:li>
     </rdf:Bag>
    </dc:subject>
    <dc:contributor>
     <cc:Agent>
      <dc:title>ssf</dc:title>
     </cc:Agent>
    </dc:contributor>
    <dc:rights>
     <cc:Agent>
      <dc:title>Sixsixfive (sixisixfive.deviantart.com)</dc:title>
     </cc:Agent>
    </dc:rights>
    <dc:description>A simple icon theme published under CC-BY-SA_V4(http://creativecommons.org/licenses/by-sa/4.0)</dc:description>
    <dc:identifier>SSF</dc:identifier>
   </cc:Work>
  </rdf:RDF>
 </metadata>
 <!--Part of the Ivy icon them published under the CC-BY-SA_V4: http://creativecommons.org/licenses/by-sa/4.0 -->
</svg>
