<?xml version="1.0" encoding="UTF-8" standalone="no"?>
<svg xmlns:dc="http://purl.org/dc/elements/1.1/" xmlns:cc="http://creativecommons.org/ns#" xmlns:rdf="http://www.w3.org/1999/02/22-rdf-syntax-ns#" xmlns:svg="http://www.w3.org/2000/svg" xmlns="http://www.w3.org/2000/svg" xmlns:xlink="http://www.w3.org/1999/xlink" viewBox="0 0 48 48" id="svg2" version="1.1">
 <defs id="defs4">
  <path opacity="0.2" id="0" d="M 38 37 A 15.5 1 0 1 1 7 37 15.5 1 0 1 1 38 37 z"/>
  <path opacity="0.2" fill="none" stroke="#000" id="1" d="m 3.5312,6.625 0,7.875 7.875,-7.875 h -7.875 z"/>
  <path opacity="0.512" fill="none" id="2" d="m 4.5,7.5938 0,4.5625 4.5625,-4.5625 H 4.5 z"/>
  <linearGradient id="3" xlink:href="#5" y1="9" y2="37" x2="0" gradientUnits="userSpaceOnUse"/>
  <linearGradient id="4" xlink:href="#5" y1="13.363" x1="10.27" y2="9" x2="10" gradientUnits="userSpaceOnUse"/>
  <linearGradient id="5">
   <stop stop-color="#fff" id="stop12"/>
   <stop offset="1" stop-color="#fff" stop-opacity="0" id="stop14"/>
  </linearGradient>
  <linearGradient id="6" xlink:href="#5" y1="6" y2="9" x2="0" gradientUnits="userSpaceOnUse"/>
  <radialGradient cx="22.5" cy="37" r="15.5" id="7" gradientUnits="userSpaceOnUse" gradientTransform="matrix(1 0 0 0.06452 0 34.613)">
   <stop id="stop18"/>
   <stop offset="1" stop-opacity="0" id="stop20"/>
  </radialGradient>
  <radialGradient cx="16.977" cy="50.87" r="19" id="8" gradientUnits="userSpaceOnUse" gradientTransform="matrix(3.42105 -2.89474 2.17687 2.57266 -148.82 -28.726)">
   <stop stop-color="#c7c7c7" id="stop23"/>
   <stop offset="1" stop-color="#ebebeb" id="stop25"/>
  </radialGradient>
 </defs>
 <g id="g27" fill="url(#7)">
  <use xlink:href="#0" transform="matrix(1.4158,0,0,1,-7.839,0.948)" id="use29" x="0" y="0" width="48" height="48"/>
  <use xlink:href="#0" transform="matrix(0.45273,0,0,1,29.705,3.128)" id="use31" x="0" y="0" width="48" height="48"/>
  <use xlink:href="#0" transform="matrix(0.45273,0,0,1,-2.235,2.938)" id="use33" x="0" y="0" width="48" height="48"/>
 </g>
 <path fill="url(#8)" d="M 5,8 H43 V38 H5 z" id="path35"/>
 <g id="g37" fill="none">
  <path d="m 6.5,9.5 0,27 35,0 0,-27 -35,0 z" id="path39" opacity="0.85" stroke="url(#3)"/>
  <path d="m 5.5312,8.5312 0,28.9375 36.9375,0 0,-28.9375 -36.9375,0 z" id="path41" opacity="0.43" stroke="#000"/>
 </g>
 <path fill="#5288d1" d="m 2.9062,6 0,10 10,-10 z" id="path43"/>
 <use xlink:href="#1" id="use45"/>
 <path opacity="0.512" fill="none" stroke="url(#6)" d="m 4.5,7.5938 0,4.5625 4.5625,-4.5625 H 4.5 z" id="path47"/>
 <path fill="#5288d1" d="m 45.0938,5.9062 0,10 -10,-10 z" id="path49"/>
 <g transform="matrix(-1,0,0,1,48,-0.094)" id="g51">
  <use xlink:href="#1" id="use53" x="0" y="0" width="48" height="48"/>
  <use xlink:href="#2" id="use55" x="0" y="0" width="48" height="48" stroke="url(#6)"/>
 </g>
 <path fill="#5288d1" d="M 3,40 3,30 13,40 z" id="path57"/>
 <use xlink:href="#1" transform="matrix(1.04361 0 0 -1.04361 -0.163 46.39)" id="use59"/>
 <use stroke="url(#4)" xlink:href="#2" transform="matrix(1.06005 0 0 -1.06005 -0.24 46.52)" id="use61"/>
 <path fill="#5288d1" d="m 45.1148,40 0,-10 -10,10 z" id="path63"/>
 <use xlink:href="#1" transform="matrix(-1.04361 0 0 -1.04361 48.28 46.39)" id="use65"/>
 <use stroke="url(#4)" xlink:href="#2" transform="matrix(-1.06005 0 0 -1.06005 48.36 46.52)" id="use67"/>
 <metadata id="metadata9999">
  <rdf:RDF>
   <cc:Work>
    <dc:format>image/svg+xml</dc:format>
    <dc:type rdf:resource="http://purl.org/dc/dcmitype/StillImage"/>
    <dc:title>Ivy icon theme</dc:title>
    <cc:license rdf:resource="http://creativecommons.org/licenses/by-sa/4.0/"/>
    <dc:creator>
     <cc:Agent>
      <dc:title>Sixsixfive (sixsixfive.deviantart.com)</dc:title>
     </cc:Agent>
    </dc:creator>
    <dc:publisher>
     <cc:Agent>
      <dc:title>Sixsixfive (sixsixfive.deviantart.com)</dc:title>
     </cc:Agent>
    </dc:publisher>
    <dc:source>https://github.com/sixsixfive</dc:source>
    <dc:subject>
     <rdf:Bag>
      <rdf:li>ivy</rdf:li>
     </rdf:Bag>
    </dc:subject>
    <dc:contributor>
     <cc:Agent>
      <dc:title>ssf</dc:title>
     </cc:Agent>
    </dc:contributor>
    <dc:rights>
     <cc:Agent>
      <dc:title>Sixsixfive (sixisixfive.deviantart.com)</dc:title>
     </cc:Agent>
    </dc:rights>
    <dc:description>A simple icon theme published under CC-BY-SA_V4(http://creativecommons.org/licenses/by-sa/4.0)</dc:description>
    <dc:identifier>SSF</dc:identifier>
   </cc:Work>
  </rdf:RDF>
 </metadata>
 <!--Part of the Ivy icon them published under the CC-BY-SA_V4: http://creativecommons.org/licenses/by-sa/4.0 -->
</svg>
