<?xml version="1.0" encoding="UTF-8" standalone="no"?><svg xmlns:cc="http://creativecommons.org/ns#" xmlns:rdf="http://www.w3.org/1999/02/22-rdf-syntax-ns#" xmlns:svg="http://www.w3.org/2000/svg" id="svg2" viewBox="0 0 48 48" version="1.1" xmlns:dc="http://purl.org/dc/elements/1.1/" xmlns="http://www.w3.org/2000/svg"><defs id="defs4"><linearGradient id="0" x2="0" y2="44.02" y1="9.02" gradientUnits="userSpaceOnUse"><stop id="stop7" stop-color="#171717"/><stop offset="1" id="stop9" stop-color="#6a6a6a"/></linearGradient><linearGradient id="1" x2="0" y2="56.805" gradientTransform="matrix(0.94878 0 0 0.95977 -5.886 -10.498)" y1="13.04" gradientUnits="userSpaceOnUse"><stop id="stop12" stop-color="#171717"/><stop offset="1" id="stop14" stop-color="#a1a1a1"/></linearGradient><linearGradient id="2" x2="0" y2="44.504" y1="9.5" gradientUnits="userSpaceOnUse"><stop id="stop17" stop-color="#ebebeb"/><stop offset="1" id="stop19" stop-color="#fff"/></linearGradient><linearGradient id="3" x2="44.5" y2="43.524" x1="44.4" y1="9.5" gradientUnits="userSpaceOnUse"><stop id="stop22" stop-color="#fff" stop-opacity="0.8"/><stop offset="1" id="stop24" stop-color="#fff" stop-opacity="0"/></linearGradient></defs><g id="g26" transform="matrix(1 0 0 1 -0.4 0.499)"><path id="path28" opacity="0.1" d="m 30.875,8.59375 a 0.449134,0.449134 0 0 0 -0.3125,0.4375 l 0,13.5625 -13.5625,0 a 0.449134,0.449134 0 0 0 -0.4375,0.4375 l 0,13.5625 -13.5625,0 a 0.449134,0.449134 0 0 0 -0.4375,0.4375 l 0,7 A 0.449134,0.449134 0 0 0 3,44.46875 l 14,0 14,0 14,0 a 0.449134,0.449134 0 0 0 0.4375,-0.4375 l 0,-35 A 0.449134,0.449134 0 0 0 45,8.59375 l -14,0 a 0.449134,0.449134 0 0 0 -0.125,0 z" transform="matrix(1 0 0 1 0 1)"/><path id="path30" d="m 45.00002,23.02176 a 20.000015,21.000016 0 0 1 -40.000029,0 20.000015,21.000016 0 1 1 40.000029,0 z" fill="url(#1)"/><path id="path32" d="m 31,9.02175 0,14 -14,0 0,14 -14,0 0,7 14,0 14,0 14,0 0,-35 -14,0 z" fill="url(#0)"/><path id="path34" d="m 31,9.02425 0,14 -14,0 0,14 -6.875,0 c 3.66244,4.28494 8.9642,7 14.875,7 11.04,0 20,-9.408004 20,-21 0,-5.385664 -1.94685,-10.281704 -5.125,-14 l -8.875,0 z" fill="url(#2)"/><g stroke-linecap="round" id="g36" stroke="#2e3436" fill="none"><path id="path38" d="m 45.00002,23.02176 a 20.000015,21.000016 0 0 1 -40.000029,0 20.000015,21.000016 0 1 1 40.000029,0 z"/><path id="path40" d="m 31,9.02175 0,14 -14,0 0,14 -14,0 0,7 14,0 14,0 14,0 0,-35 -14,0 z"/></g><path id="path42" opacity="0.5" d="m 25,2.493046 c -10.7799,0 -19.5312,9.19303 -19.5312,20.531204 0,5.672516 2.21124,10.791996 5.75,14.499996 l -7.21875,0 -0.5,0 0,0.500004 0,5 0,0.499996 0.5,0 13,0 14,0 13,0 0.5,0 0,-0.499996 0,-33 0,-0.500004 -0.5,0 -4.3125,0 c -3.57179,-4.30067 -8.82749,-7.03125 -14.6875,-7.03125 z m 0,1 c 5.22854,0 9.91162,2.34758 13.2812,6.03125 l -6.28125,0 -0.5,0 0,0.500004 0,13 c -0.0013,0.282626 -0.21737,0.498716 -0.5,0.499996 l -13,0 -0.5,0 0,0.500004 0,13 c -0.0013,0.28263 -0.21737,0.498716 -0.5,0.499996 l -4.34375,0 C 8.88117,33.960456 6.4687,28.807856 6.4687,23.0243 6.4687,12.199596 14.78857,3.492996 24.9999,3.493096 Z m 7.5,7.0312 6.9688,0 1.0625,0 2.9688,0 0,32 -12.5,0 -14,0 -12.5,0 0,-4 7.75,0 4.75,0 c 0.819864,-0.0037 1.49629,-0.680136 1.5,-1.499996 l 0,-12.500004 12.5,0 c 0.819864,-0.0037 1.49629,-0.680136 1.5,-1.499996 l 0,-12.500004 z" fill="url(#3)"/></g><metadata id="metadata9999"><rdf:RDF><cc:Work><dc:format>image/svg+xml</dc:format><dc:type rdf:resource="http://purl.org/dc/dcmitype/StillImage"/><dc:title>Ivy icon theme</dc:title><cc:license rdf:resource="http://creativecommons.org/licenses/by-sa/4.0/"/><dc:creator><cc:Agent><dc:title>Sixsixfive (sixsixfive.deviantart.com)</dc:title></cc:Agent></dc:creator><dc:publisher><cc:Agent><dc:title>Sixsixfive (sixsixfive.deviantart.com)</dc:title></cc:Agent></dc:publisher><dc:source>https://github.com/sixsixfive</dc:source><dc:subject><rdf:Bag><rdf:li>ivy</rdf:li></rdf:Bag></dc:subject><dc:contributor><cc:Agent><dc:title>ssf</dc:title></cc:Agent></dc:contributor><dc:rights><cc:Agent><dc:title>Sixsixfive (sixisixfive.deviantart.com)</dc:title></cc:Agent></dc:rights><dc:description>A simple icon theme published under CC-BY-SA_V4(http://creativecommons.org/licenses/by-sa/4.0)</dc:description><dc:identifier>SSF</dc:identifier></cc:Work></rdf:RDF></metadata><!--Part of the Ivy icon them published under the CC-BY-SA_V4: http://creativecommons.org/licenses/by-sa/4.0 -->
</svg>