<?xml version="1.0" encoding="UTF-8" standalone="no"?><svg xmlns:cc="http://creativecommons.org/ns#" xmlns:svg="http://www.w3.org/2000/svg" xmlns="http://www.w3.org/2000/svg" xmlns:dc="http://purl.org/dc/elements/1.1/" xmlns:rdf="http://www.w3.org/1999/02/22-rdf-syntax-ns#" id="svg2" version="1.1" viewBox="0 0 48 48" xmlns:xlink="http://www.w3.org/1999/xlink"><defs id="0"><linearGradient id="linearGradient4159"><stop id="stop4161" stop-color="#fff"/><stop stop-opacity="0" id="stop4163" stop-color="#fff" offset="1"/></linearGradient><linearGradient gradientTransform="matrix(1 0 0 1 -0.5117188 -0.011719)" gradientUnits="userSpaceOnUse" y1="10.05" xlink:href="#linearGradient4159" id="linearGradient4165" x1="45.561" y2="37.841" x2="45.49"/></defs><path opacity="0.1" d="m 1,10 45,0 0,30 -45,0 z" id="rect4167"/><path d="M 1,9 46,9 46,39 1,39 Z" id="9" fill="#d02604"/><g id="g3370"><path stroke="none" stroke-width="1" d="m 25,25 0,-13 -9,0 z" stroke-linejoin="miter" id="path3364" fill-rule="evenodd" fill="#295897" stroke-opacity="1" stroke-linecap="butt" fill-opacity="1"/><path stroke="none" stroke-width="1" d="m 25,25 21,11 0,-5 z" stroke-linejoin="miter" id="path3358" fill-rule="evenodd" fill="#295897" stroke-opacity="1" stroke-linecap="butt" fill-opacity="1"/><path stroke="none" stroke-width="1" d="M 25,25 4,30 4,25 Z" stroke-linejoin="miter" id="path3368" fill-rule="evenodd" fill="#295897" stroke-opacity="1" stroke-linecap="butt" fill-opacity="1"/><path stroke="none" stroke-width="1" d="M 25,25 4,19 4,12 Z" stroke-linejoin="miter" id="path3366" fill-rule="evenodd" fill="#295897" stroke-opacity="1" stroke-linecap="butt" fill-opacity="1"/><path stroke="none" stroke-width="1" d="m 25,25 21,-6 0,6 z" stroke-linejoin="miter" id="path3360" fill-rule="evenodd" fill="#295897" stroke-opacity="1" stroke-linecap="butt" fill-opacity="1"/><path stroke="none" stroke-width="1" d="M 25,25 46,12 35,12 Z" stroke-linejoin="miter" id="path3362" fill-rule="evenodd" fill="#295897" stroke-opacity="1" stroke-linecap="butt" fill-opacity="1"/></g><path stroke="none" stroke-width="1" d="M 4,36 46,36 25,25 Z" stroke-linejoin="miter" id="path3352" fill-rule="evenodd" fill="#ebebeb" stroke-opacity="1" stroke-linecap="butt" fill-opacity="1"/><g transform="matrix(1 0 0 1 47.25 4)" id="g5056"><path d="m -31.25,22.75 1,0 0,1 -1,0" id="path3764" fill="#000" fill-opacity="0"/><path d="m -30.25,22.75 1,0 0,1 -1,0" id="path3766" fill="#000" fill-opacity="0"/><path d="m -29.25,22.75 1,0 0,1 -1,0" id="path3768" fill="#000" fill-opacity="0"/><path d="m -28.25,22.75 1,0 0,1 -1,0" id="path3770" fill="#000" fill-opacity="0"/><path d="m -27.25,22.75 1,0 0,1 -1,0" id="path3772" fill="#000" fill-opacity="0"/><path d="m -26.25,22.75 1,0 -0.25,0.75 -0.75,0.25" id="path3774" fill="#000" fill-opacity="0"/><path d="m -25.25,22.75 1,0 0,1 L -25,24 -25.5,23.5" id="path3776" fill="#000" fill-opacity="0"/><path d="m -20.25,22.75 1,0 0,1 -1,0" id="path3786" fill="#ff0" fill-opacity="0.03137255"/><path d="m -19.25,22.75 1,0 0.25,0.75 -0.5,0.5 -0.75,-0.25" id="path3788" fill="#000" fill-opacity="0"/><path d="m -18.25,22.75 1,0 0,1 L -18,23.5" id="path3790" fill="#000" fill-opacity="0"/><path d="m -17.25,22.75 1,0 0,1 -1,0" id="path3792" fill="#000" fill-opacity="0"/><path d="m -16.25,22.75 1,0 0,1 -1,0" id="path3794" fill="#000" fill-opacity="0"/><path d="m -15.25,22.75 1,0 0,1 -1,0" id="path3796" fill="#000" fill-opacity="0"/><path d="m -31.25,23.75 1,0 0,1 -1,0" id="path3828" fill="#000" fill-opacity="0"/><path d="m -30.25,23.75 1,0 0,1 -1,0" id="path3830" fill="#000" fill-opacity="0"/><path d="m -29.25,23.75 1,0 0,1 -1,0" id="path3832" fill="#000" fill-opacity="0"/><path d="m -28.25,23.75 1,0 -0.25,0.75 -0.75,0.25" id="path3834" fill="#000" fill-opacity="0"/><path d="m -27.25,23.75 1,0 0,1 L -27,25 -27.5,24.5" id="path3836" fill="#000" fill-opacity="0"/><path d="m -26.25,23.75 0.75,-0.25 0.5,0.5 -0.25,0.75 -1,0" id="path3838" fill="#000" fill-opacity="0"/><path d="m -23.25,23.75 1,0 0,1 -1,0" id="path3844" fill="#e2a293" fill-opacity="1"/><path d="m -22.25,23.75 1,0 0,1 -1,0" id="path3846" fill="#e7ad98" fill-opacity="1"/><path d="m -18.5,24 0.5,-0.5 0.75,0.25 0,1 -1,0" id="path3854" fill="#000" fill-opacity="0"/><path d="m -17.25,23.75 1,0 0.25,0.75 -0.5,0.5 -0.75,-0.25" id="path3856" fill="#000" fill-opacity="0"/><path d="m -16.25,23.75 1,0 0,1 L -16,24.5" id="path3858" fill="#000" fill-opacity="0"/><path d="m -15.25,23.75 1,0 0,1 -1,0" id="path3860" fill="#000" fill-opacity="0"/><path d="m -31.25,24.75 1,0 0,1 -1,0" id="path3892" fill="#000" fill-opacity="0"/><path d="m -30.25,24.75 1,0 -0.25,0.75 -0.75,0.25" id="path3894" fill="#000" fill-opacity="0"/><path d="m -29.25,24.75 1,0 0,1 L -29,26 -29.5,25.5" id="path3896" fill="#000" fill-opacity="0"/><path d="m -28.25,24.75 0.75,-0.25 0.5,0.5 -0.25,0.75 -1,0" id="path3898" fill="#000" fill-opacity="0"/><path d="m -25.25,24.75 1,0 0,1 -1,0" id="path3904" fill="#fefbf8" fill-opacity="1"/><path d="m -24.25,24.75 1,0 0,1 -1,0" id="path3906" fill="#efc3c3" fill-opacity="1"/><path d="m -23.25,24.75 1,0 0,1 -1,0" id="path3908" fill="#cb4133" fill-opacity="1"/><path d="m -22.25,24.75 1,0 0,1 -1,0" id="path3910" fill="#cd443b" fill-opacity="1"/><path d="m -21.25,24.75 1,0 -0.25,0.75 -0.75,0.25" id="path3912" fill="#f4dbdd" fill-opacity="1"/><path d="m -20.25,24.75 1,0 0.25,0.75 -0.5,0.5 -0.5,0 -0.5,-0.5" id="path3914" fill="#faf5f6" fill-opacity="1"/><path d="m -16.5,25 0.5,-0.5 0.75,0.25 0,1 L -16,25.5" id="path3922" fill="#000" fill-opacity="0"/><path d="m -15.25,24.75 1,0 0.25,0.75 -0.5,0.5 -0.75,-0.25" id="path3924" fill="#000" fill-opacity="0"/><path d="m -31.25,25.75 1,0 -0.25,0.75 -0.75,0.25" id="path3956" fill="#000" fill-opacity="0"/><path d="M -30.25,25.75 -29.5,25.5 -29,26 -29.25,26.75 -30,27 -30.5,26.5" id="path3958" fill="#000" fill-opacity="0"/><path d="m -29,26 0.75,-0.25 0,1 -1,0" id="path3960" fill="#500" fill-opacity="0.01176471"/><path d="m -26.25,25.75 1,0 0,1 L -26,27 -26.5,26.5" id="path3966" fill="#d7e8de" fill-opacity="1"/><path d="m -25.25,25.75 1,0 0,1 -1,0" id="path3968" fill="#ced6cd" fill-opacity="1"/><path d="m -24.25,25.75 1,0 0,1 -1,0" id="path3970" fill="#fadfdc" fill-opacity="1"/><path d="m -23.25,25.75 1,0 0,1 -1,0" id="path3972" fill="#cb8953" fill-opacity="1"/><path d="m -22.25,25.75 1,0 0,1 -1,0" id="path3974" fill="#9d8093" fill-opacity="1"/><path d="m -21.25,25.75 0.75,-0.25 0.5,0.5 -0.25,0.75 -1,0" id="path3976" fill="#f4e3e3" fill-opacity="1"/><path d="m -20,26 0.5,0 0.25,0.75 -1,0" id="path3978" fill="#d5d9d1" fill-opacity="1"/><path d="m -19.5,26 0.5,-0.5 0.75,0.25 0.25,0.75 -0.5,0.5 -0.75,-0.25" id="path3980" fill="#e0ebdb" fill-opacity="1"/><path d="m -31.25,26.75 0.75,-0.25 0.5,0.5 -0.25,0.75 -1,0" id="path4020" fill="#000" fill-opacity="0"/><path d="m -28.25,26.75 1,0 0,1 -1,0" id="path4026" fill="#fff" fill-opacity="1"/><path d="m -27.25,26.75 0.75,-0.25 0.5,0.5 -0.5,0.5 -0.75,0.25" id="path4028" fill="#b1cab4" fill-opacity="1"/><path d="m -26,27 0.75,-0.25 0,1 L -26,28 -26.5,27.5" id="path4030" fill="#759d79" fill-opacity="1"/><path d="m -25.25,26.75 1,0 -0.25,0.75 -0.75,0.25" id="path4032" fill="#c0bbb9" fill-opacity="1"/><path d="m -24.25,26.75 1,0 0,1 L -24,28 -24.5,27.5" id="path4034" fill="#e2cbc4" fill-opacity="1"/><path d="m -23.25,26.75 1,0 0,1 -1,0" id="path4036" fill="#d97e51" fill-opacity="1"/><path d="m -22.25,26.75 1,0 -0.25,0.75 -0.75,0.25" id="path4038" fill="#d48665" fill-opacity="1"/><path d="m -21.25,26.75 1,0 -0.25,0.75 -0.5,0.5 -0.5,-0.5" id="path4040" fill="#e7dad4" fill-opacity="1"/><path d="m -20.25,26.75 1,0 0,1 L -20,28 -20.5,27.5" id="path4042" fill="#a9aba2" fill-opacity="1"/><path d="m -19.25,26.75 0.75,0.25 0.25,0.75 -1,0" id="path4044" fill="#75a77f" fill-opacity="1"/><path d="m -18.5,27 0.5,-0.5 0.75,0.25 0.25,0.75 -0.5,0.5 -0.75,-0.25" id="path4046" fill="#c9d9ca" fill-opacity="1"/><path d="m -17.25,26.75 1,0 0,1 L -17,27.5" id="path4048" fill="#fff" fill-opacity="1"/><path d="m -30.25,27.75 1,0 0,1 L -30,29 -30.5,28.5" id="path4086" fill="#f2f1ed" fill-opacity="1"/><path d="m -29.25,27.75 1,0 0.25,0.75 -0.5,0.5 -0.75,-0.25" id="path4088" fill="#cfe8d8" fill-opacity="1"/><path d="m -28.25,27.75 1,0 0,1 L -28,28.5" id="path4090" fill="#eaecea" fill-opacity="1"/><path d="m -27.25,27.75 0.75,-0.25 0.5,0.5 -0.5,0.5 -0.75,0.25" id="path4092" fill="#82ac8b" fill-opacity="1"/><path d="m -26,28 0.75,-0.25 0,1 L -26,29 -26.5,28.5" id="path4094" fill="#84ad8d" fill-opacity="1"/><path d="m -25.25,27.75 0.75,-0.25 0.5,0.5 -0.5,0.5 -0.75,0.25" id="path4096" fill="#bfaca2" fill-opacity="1"/><path d="m -24,28 0.75,-0.25 0,1 L -24,29 -24.5,28.5" id="path4098" fill="#a5b6a3" fill-opacity="1"/><path d="m -23.25,27.75 1,0 0,1 -1,0" id="path4100" fill="#ebeace" fill-opacity="1"/><path d="m -22.25,27.75 0.75,-0.25 0.5,0.5 -0.25,0.75 -1,0" id="path4102" fill="#dee1c9" fill-opacity="1"/><path d="m -21,28 0.5,-0.5 0.5,0.5 -0.25,0.75 -1,0" id="path4104" fill="#a8ae9a" fill-opacity="1"/><path d="m -20,28 0.75,-0.25 0,1 -1,0" id="path4106" fill="#c2bdb3" fill-opacity="1"/><path d="m -19.25,27.75 1,0 0,1 -1,0" id="path4108" fill="#689871" fill-opacity="1"/><path d="m -18.25,27.75 0.75,0.25 0.25,0.75 -1,0" id="path4110" fill="#9bbaa2" fill-opacity="1"/><path d="m -17.5,28 0.5,-0.5 0.75,0.25 -0.25,0.75 -0.75,0.25" id="path4112" fill="#f0f2f0" fill-opacity="1"/><path d="m -16.25,27.75 1,0 0,1 L -16,29 -16.5,28.5" id="path4114" fill="#d1e9d9" fill-opacity="1"/><path d="m -15.25,27.75 1,0 0.25,0.75 -0.5,0.5 -0.75,-0.25" id="path4116" fill="#fffbfa" fill-opacity="1"/><path d="m -31.25,28.75 0.75,-0.25 0.5,0.5 -0.25,0.75 -1,0" id="path4148" fill="#e4eee6" fill-opacity="1"/><path d="m -30,29 0.75,-0.25 0,1 -1,0" id="path4150" fill="#70a87d" fill-opacity="1"/><path d="m -29.25,28.75 0.75,0.25 0.25,0.75 -1,0" id="path4152" fill="#839187" fill-opacity="1"/><path d="m -28.5,29 0.5,-0.5 0.75,0.25 0.25,0.75 -0.5,0.5 -0.75,-0.25" id="path4154" fill="#ccd9cd" fill-opacity="1"/><path d="m -27.25,28.75 0.75,-0.25 0.5,0.5 0,0.5 -0.5,0.5 -0.5,-0.5" id="path4156" fill="#b1cdb5" fill-opacity="1"/><path d="m -26,29 0.75,-0.25 0,1 L -26,29.5" id="path4158" fill="#dae3de" fill-opacity="1"/><path d="m -25.25,28.75 0.75,-0.25 0.5,0.5 -0.5,0.5 -0.75,0.25" id="path4160" fill="#c1c3c1" fill-opacity="1"/><path d="m -24,29 0.75,-0.25 0,1 L -24,30 -24.5,29.5" id="path4162" fill="#b4d3bf" fill-opacity="1"/><path d="m -23.25,28.75 1,0 0,1 -1,0" id="path4164" fill="#f2ab63" fill-opacity="1"/><path d="m -22.25,28.75 1,0 0,1 -1,0" id="path4166" fill="#f0c99d" fill-opacity="1"/><path d="m -21.25,28.75 1,0 0.25,0.75 -0.5,0.5 -0.75,-0.25" id="path4168" fill="#a3c2a9" fill-opacity="1"/><path d="m -20.25,28.75 1,0 0,1 L -20,29.5" id="path4170" fill="#d3d4d3" fill-opacity="1"/><path d="m -19.25,28.75 1,0 -0.25,0.75 -0.75,0.25" id="path4172" fill="#d4ded7" fill-opacity="1"/><path d="m -18.25,28.75 1,0 -0.25,0.75 -0.5,0.5 -0.5,-0.5" id="path4174" fill="#bed4c1" fill-opacity="1"/><path d="M -17.25,28.75 -16.5,28.5 -16,29 -16.25,29.75 -17,30 -17.5,29.5" id="path4176" fill="#c1d0c2" fill-opacity="1"/><path d="m -16,29 0.75,-0.25 -0.25,0.75 -0.75,0.25" id="path4178" fill="#748d7a" fill-opacity="1"/><path d="M -15.25,28.75 -14.5,29 -14.25,29.75 -15,30 -15.5,29.5" id="path4180" fill="#88b892" fill-opacity="1"/><path d="m -31.25,29.75 1,0 0.25,0.75 -0.5,0.5 -0.75,-0.25" id="path4212" fill="#f5f7f5" fill-opacity="1"/><path d="m -30.25,29.75 1,0 0,1 L -30,30.5" id="path4214" fill="#a2c3a8" fill-opacity="1"/><path d="m -29.25,29.75 1,0 0,1 -1,0" id="path4216" fill="#94bb9a" fill-opacity="1"/><path d="m -28.25,29.75 0.75,0.25 0.5,0.5 -0.5,0.5 -0.75,-0.25" id="path4218" fill="#e5e7e4" fill-opacity="1"/><path d="m -27.5,30 0.5,-0.5 0.5,0.5 0.5,0.5 -0.5,0.5 -0.5,-0.5" id="path4220" fill="#e8ebe9" fill-opacity="1"/><path d="m -26.5,30 0.5,-0.5 0.75,0.25 0,1 L -26,30.5" id="path4222" fill="#a7c4a6" fill-opacity="1"/><path d="m -25.25,29.75 0.75,-0.25 0.5,0.5 -0.25,0.75 -1,0" id="path4224" fill="#9bbaa2" fill-opacity="1"/><path d="m -24,30 0.75,-0.25 0,1 -1,0" id="path4226" fill="#d5d1b3" fill-opacity="1"/><path d="m -23.25,29.75 1,0 0,1 -1,0" id="path4228" fill="#67363f" fill-opacity="1"/><path d="m -22.25,29.75 1,0 0,1 -1,0" id="path4230" fill="#c56a26" fill-opacity="1"/><path d="m -21.25,29.75 0.75,0.25 0.5,0.5 -0.5,0.5 -0.75,-0.25" id="path4232" fill="#cfd8c8" fill-opacity="1"/><path d="m -20.5,30 0.5,-0.5 0.75,0.25 0,1 L -20,30.5" id="path4234" fill="#92b496" fill-opacity="1"/><path d="m -19.25,29.75 0.75,-0.25 0.5,0.5 0,0.5 -0.5,0.5 -0.75,-0.25" id="path4236" fill="#afcaae" fill-opacity="1"/><path d="m -18,30 0.5,-0.5 0.5,0.5 -0.25,0.75 L -18,30.5" id="path4238" fill="#e5e6e6" fill-opacity="1"/><path d="m -17,30 0.75,-0.25 -0.25,0.75 -0.75,0.25" id="path4240" fill="#eaefe9" fill-opacity="1"/><path d="M -16.25,29.75 -15.5,29.5 -15,30 -15.5,30.5 -16,31 -16.5,30.5" id="path4242" fill="#94b99a" fill-opacity="1"/><path d="m -15,30 0.75,-0.25 -0.25,0.75 -0.5,0.5 -0.5,-0.5" id="path4244" fill="#bbd2bf" fill-opacity="1"/><path d="m -31.25,30.75 0.75,0.25 0.25,0.75 -1,0" id="path4276" fill="#fefeff" fill-opacity="1"/><path d="m -30.5,31 0.5,-0.5 0.75,0.25 0,1 -1,0" id="path4278" fill="#fff" fill-opacity="1"/><path d="m -29.25,30.75 1,0 0,1 -1,0" id="path4280" fill="#71a171" fill-opacity="1"/><path d="m -28.25,30.75 0.75,0.25 0.25,0.75 -1,0" id="path4282" fill="#acc2b1" fill-opacity="1"/><path d="m -27.5,31 0.5,-0.5 0.5,0.5 0.25,0.75 -1,0" id="path4284" fill="#bac6b6" fill-opacity="1"/><path d="m -26.5,31 0.5,-0.5 0.75,0.25 0,1 -1,0" id="path4286" fill="#ebedde" fill-opacity="1"/><path d="m -25.25,30.75 1,0 0,1 -1,0" id="path4288" fill="#eff5f2" fill-opacity="1"/><path d="m -24.25,30.75 1,0 0,1 -1,0" id="path4290" fill="#f9fcf9" fill-opacity="1"/><path d="m -23.25,30.75 1,0 0,1 -1,0" id="path4292" fill="#eee0d9" fill-opacity="1"/><path d="m -22.25,30.75 1,0 0,1 -1,0" id="path4294" fill="#f3e5de" fill-opacity="1"/><path d="m -21.25,30.75 0.75,0.25 0.25,0.75 -1,0" id="path4296" fill="#f6faf8" fill-opacity="1"/><path d="m -20.5,31 0.5,-0.5 0.75,0.25 0,1 -1,0" id="path4298" fill="#f0f5f1" fill-opacity="1"/><path d="m -19.25,30.75 0.75,0.25 0.5,0.5 -0.5,0.5 -0.75,-0.25" id="path4300" fill="#e8ead7" fill-opacity="1"/><path d="m -18.5,31 0.5,-0.5 0.75,0.25 0,1 L -18,31.5" id="path4302" fill="#b1c1ad" fill-opacity="1"/><path d="m -17.25,30.75 0.75,-0.25 0.5,0.5 -0.25,0.75 -1,0" id="path4304" fill="#aac1b0" fill-opacity="1"/><path d="m -16,31 0.5,-0.5 0.5,0.5 -0.25,0.75 -1,0" id="path4306" fill="#94b996" fill-opacity="1"/><path d="m -15,31 0.5,-0.5 0.5,0.5 -0.25,0.75 -1,0" id="path4308" fill="#fff" fill-opacity="1"/></g><circle cy="25" cx="25" stroke="none" stroke-width="1" opacity="1" r="4" stroke-dashoffset="0" stroke-dasharray="none" stroke-linejoin="round" id="path3378" fill-rule="evenodd" stroke-miterlimit="4" fill="#ffd506" stroke-opacity="1" stroke-linecap="round" fill-opacity="1"/><rect fill-rule="evenodd" width="41.96875" stroke-miterlimit="4" stroke="none" height="3" fill="#ffd506" opacity="1" stroke-width="1" stroke-linejoin="round" transform="matrix(-1 0 0 -1 0 0)" stroke-dasharray="none" id="rect3350" y="-39" x="-45.96875" fill-opacity="1" stroke-opacity="1" stroke-dashoffset="0" stroke-linecap="round"/><rect fill-rule="evenodd" width="26.96875" stroke-miterlimit="4" stroke="none" height="3" fill="#ffd506" opacity="1" stroke-width="1" stroke-linejoin="round" transform="matrix(0 1 -1 0 0 0)" stroke-dasharray="none" id="rect3348" y="-4" x="12" fill-opacity="1" stroke-opacity="1" stroke-dashoffset="0" stroke-linecap="round"/><rect stroke="none" width="45" height="3" stroke-width="1" opacity="1" stroke-dashoffset="0" stroke-dasharray="none" stroke-linejoin="round" id="rect3346" fill-rule="evenodd" y="9" x="1" stroke-miterlimit="4" fill="#ffd506" stroke-linecap="round" stroke-opacity="1" fill-opacity="1"/><path stroke="#000" opacity="0.4" d="m 1.53125,9.53125 0,28.9375 43.9375,0 0,-28.9375 -43.9375,0 z" id="C" fill="none"/><path stroke="url(#linearGradient4165)" opacity="0.4" d="m 2.5,10.5 0,26.976562 41.976562,0 0,-26.976562 L 2.5,10.5 Z" id="path4157" fill="none"/><metadata id="metadata9999"><rdf:RDF><cc:Work><dc:format>image/svg+xml</dc:format><dc:type rdf:resource="http://purl.org/dc/dcmitype/StillImage"/><dc:title/><cc:license rdf:resource="http://creativecommons.org/licenses/by-sa/4.0/"/><dc:creator><cc:Agent><dc:title>Sixsixfive (sixsixfive.deviantart.com)</dc:title></cc:Agent></dc:creator><dc:publisher><cc:Agent><dc:title>Sixsixfive (sixsixfive.deviantart.com)</dc:title></cc:Agent></dc:publisher><dc:source>https://github.com/sixsixfive</dc:source><dc:subject><rdf:Bag><rdf:li>ivy</rdf:li></rdf:Bag></dc:subject><dc:contributor><cc:Agent><dc:title>ssf</dc:title></cc:Agent></dc:contributor><dc:rights><cc:Agent><dc:title>Sixsixfive (sixisixfive.deviantart.com)</dc:title></cc:Agent></dc:rights><dc:description>A simple icon theme published under CC-BY-SA_V4(http://creativecommons.org/licenses/by-sa/4.0)</dc:description><dc:identifier>SSF</dc:identifier></cc:Work></rdf:RDF></metadata><!--Part of the Ivy icon them published under the CC-BY-SA_V4: http://creativecommons.org/licenses/by-sa/4.0 -->
</svg>