<?xml version="1.0" encoding="UTF-8" standalone="no"?>
<svg xmlns:dc="http://purl.org/dc/elements/1.1/" xmlns:cc="http://creativecommons.org/ns#" xmlns:rdf="http://www.w3.org/1999/02/22-rdf-syntax-ns#" xmlns:svg="http://www.w3.org/2000/svg" xmlns="http://www.w3.org/2000/svg" xmlns:xlink="http://www.w3.org/1999/xlink" viewBox="0 0 48 48" id="svg2" version="1.1">
 <defs id="0">
  <linearGradient id="linearGradient4159">
   <stop stop-color="#fff" id="stop4161"/>
   <stop offset="1" stop-color="#fff" id="stop4163" stop-opacity="0"/>
  </linearGradient>
  <linearGradient id="linearGradient4165" xlink:href="#linearGradient4159" y1="10.05" y2="37.841" x1="45.561" gradientUnits="userSpaceOnUse" x2="45.49"/>
 </defs>
 <g id="1">
  <path d="m 1,10 45,0 0,30 -45,0 z" id="rect4167" opacity="0.1"/>
  <path d="M 1,9 46,9 46,39 1,39 Z" id="9" fill="#5288d1"/>
  <g id="g4630" fill="#ebebeb">
   <path d="m 1,20 45,0 0,8 -45,0 z" id="rect4437"/>
   <path transform="matrix(0,1,-1,0,0,0)" d="m 9,-20 30,0 0,8 -30,0 z" id="rect4616"/>
  </g>
  <path id="C" d="m 1.53125,9.53125 0,28.9375 43.9375,0 0,-28.9375 -43.9375,0 z" opacity="0.4" fill="none" stroke="#000"/>
  <path id="path4157" d="m 3.0117188,10.511719 0,26.976562 41.9765622,0 0,-26.976562 -41.9765622,0 z" transform="translate(-0.5,0)" opacity="0.4" fill="none" stroke="url(#linearGradient4165)"/>
  <g id="g4626">
   <path transform="matrix(0,1,-1,0,0,0)" d="m 9,-18 30,0 0,4 -30,0 z" id="rect4622" fill="#d02604"/>
   <path transform="scale(-1,-1)" d="M -45.969002,-26 -1,-26 l 0,4 -44.969002,0 z" id="rect4624" fill="#d02604"/>
  </g>
 </g>
 <metadata id="metadata9999">
  <rdf:RDF>
   <cc:Work>
    <dc:format>image/svg+xml</dc:format>
    <dc:type rdf:resource="http://purl.org/dc/dcmitype/StillImage"/>
    <dc:title>Ivy icon theme</dc:title>
    <cc:license rdf:resource="http://creativecommons.org/licenses/by-sa/4.0/"/>
    <dc:creator>
     <cc:Agent>
      <dc:title>Sixsixfive (sixsixfive.deviantart.com)</dc:title>
     </cc:Agent>
    </dc:creator>
    <dc:publisher>
     <cc:Agent>
      <dc:title>Sixsixfive (sixsixfive.deviantart.com)</dc:title>
     </cc:Agent>
    </dc:publisher>
    <dc:source>https://github.com/sixsixfive</dc:source>
    <dc:subject>
     <rdf:Bag>
      <rdf:li>ivy</rdf:li>
     </rdf:Bag>
    </dc:subject>
    <dc:contributor>
     <cc:Agent>
      <dc:title>ssf</dc:title>
     </cc:Agent>
    </dc:contributor>
    <dc:rights>
     <cc:Agent>
      <dc:title>Sixsixfive (sixisixfive.deviantart.com)</dc:title>
     </cc:Agent>
    </dc:rights>
    <dc:description>A simple icon theme published under CC-BY-SA_V4(http://creativecommons.org/licenses/by-sa/4.0)</dc:description>
    <dc:identifier>SSF</dc:identifier>
   </cc:Work>
  </rdf:RDF>
 </metadata>
 <!--Part of the Ivy icon them published under the CC-BY-SA_V4: http://creativecommons.org/licenses/by-sa/4.0 -->
</svg>
