<?xml version="1.0" encoding="UTF-8" standalone="no"?><svg xmlns:xlink="http://www.w3.org/1999/xlink" xmlns:cc="http://creativecommons.org/ns#" viewBox="0 0 48 48" version="1.1" id="svg2" xmlns:svg="http://www.w3.org/2000/svg" xmlns:rdf="http://www.w3.org/1999/02/22-rdf-syntax-ns#" xmlns="http://www.w3.org/2000/svg" xmlns:dc="http://purl.org/dc/elements/1.1/"><defs id="0"><linearGradient id="linearGradient4159"><stop id="stop4161" stop-color="#fff"/><stop offset="1" stop-opacity="0" id="stop4163" stop-color="#fff"/></linearGradient><linearGradient x2="45.49" gradientUnits="userSpaceOnUse" x1="45.561" xlink:href="#linearGradient4159" id="linearGradient4165" y2="37.841" gradientTransform="matrix(1 0 0 1 -0.5 0)" y1="10.05"/></defs><rect height="30" width="45" opacity="0.1" id="rect4167" x="1" y="10"/><rect height="30" width="45" fill="#d02604" id="9" x="1" y="9"/><path opacity="0.4" fill="none" id="C" stroke="#000" d="m 1.53125,9.53125 0,28.9375 43.9375,0 0,-28.9375 -43.9375,0 z"/><path opacity="0.2" fill="none" id="path4157" stroke="url(#linearGradient4165)" d="m 2.5117188,10.511719 0,26.976562 41.9765622,0 0,-26.976562 -41.9765622,0 z"/><path fill-rule="evenodd" opacity="0.2" id="path3374" d="M 20,11.091797 A 0.90923436,0.90923436 0 0 0 19.091797,12 l 0,7.091797 -7.091797,0 A 0.90923436,0.90923436 0 0 0 11.091797,20 l 0,8 A 0.90923436,0.90923436 0 0 0 12,28.908203 l 7.091797,0 0,7.091797 A 0.90923436,0.90923436 0 0 0 20,36.908203 l 8,0 A 0.90923436,0.90923436 0 0 0 28.908203,36 l 0,-7.091797 7.091797,0 A 0.90923436,0.90923436 0 0 0 36.908203,28 l 0,-8 A 0.90923436,0.90923436 0 0 0 36,19.091797 l -7.091797,0 0,-7.091797 A 0.90923436,0.90923436 0 0 0 28,11.091797 l -8,0 z"/><rect height="8" width="24" fill-rule="evenodd" fill="#ebebeb" id="rect3363" x="12" y="20"/><rect height="8" width="24" fill-rule="evenodd" fill="#ebebeb" id="rect3367" x="12" transform="matrix(0 1 -1 0 0 0)" y="-28"/><metadata id="metadata9999"><rdf:RDF><cc:Work><dc:format>image/svg+xml</dc:format><dc:type rdf:resource="http://purl.org/dc/dcmitype/StillImage"/><dc:title>Ivy icon theme</dc:title><cc:license rdf:resource="http://creativecommons.org/licenses/by-sa/4.0/"/><dc:creator><cc:Agent><dc:title>Sixsixfive (sixsixfive.deviantart.com)</dc:title></cc:Agent></dc:creator><dc:publisher><cc:Agent><dc:title>Sixsixfive (sixsixfive.deviantart.com)</dc:title></cc:Agent></dc:publisher><dc:source>https://github.com/sixsixfive</dc:source><dc:subject><rdf:Bag><rdf:li>ivy</rdf:li></rdf:Bag></dc:subject><dc:contributor><cc:Agent><dc:title>ssf</dc:title></cc:Agent></dc:contributor><dc:rights><cc:Agent><dc:title>Sixsixfive (sixisixfive.deviantart.com)</dc:title></cc:Agent></dc:rights><dc:description>A simple icon theme published under CC-BY-SA_V4(http://creativecommons.org/licenses/by-sa/4.0)</dc:description><dc:identifier>SSF</dc:identifier></cc:Work></rdf:RDF></metadata><!--Part of the Ivy icon them published under the CC-BY-SA_V4: http://creativecommons.org/licenses/by-sa/4.0 -->
</svg>