<?xml version="1.0" encoding="UTF-8" standalone="no"?><svg xmlns:xlink="http://www.w3.org/1999/xlink" xmlns:cc="http://creativecommons.org/ns#" viewBox="0 0 48 48" version="1.1" id="svg2" xmlns:svg="http://www.w3.org/2000/svg" xmlns:rdf="http://www.w3.org/1999/02/22-rdf-syntax-ns#" xmlns="http://www.w3.org/2000/svg" xmlns:dc="http://purl.org/dc/elements/1.1/"><defs id="0"><linearGradient id="linearGradient4159"><stop stop-color="#fff" id="stop4161"/><stop offset="1" stop-opacity="0" stop-color="#fff" id="stop4163"/></linearGradient><linearGradient x2="45.49" gradientUnits="userSpaceOnUse" x1="45.561" xlink:href="#linearGradient4159" id="linearGradient4165" y2="37.841" y1="10.05"/></defs><g id="1" transform="matrix(1 0 0 1 -0.5 0)"><path opacity="0.1" id="rect4167" d="m 1.5,10 45,0 0,30 -45,0 z"/><path fill="#ffd506" id="9" d="m 1.5,9 45,0 0,30 -45,0 z"/><path fill="#5288d1" id="rect4435" d="m 1.5,9 15,0 0,30 -15,0 z"/><path fill="#d02604" id="rect4437" d="m 31.5,9 15,0 0,30 -15,0 z"/><path opacity="0.4" fill="none" id="C" stroke="#000" d="m 2.03125,9.53125 0,28.9375 43.9375,0 0,-28.9375 -43.9375,0 z"/><path opacity="0.4" fill="none" id="path4157" stroke="url(#linearGradient4165)" d="m 3.0117188,10.511719 0,26.976562 41.9765622,0 0,-26.976562 -41.9765622,0 z"/></g><metadata id="metadata9999"><rdf:RDF><cc:Work><dc:format>image/svg+xml</dc:format><dc:type rdf:resource="http://purl.org/dc/dcmitype/StillImage"/><dc:title>Ivy icon theme</dc:title><cc:license rdf:resource="http://creativecommons.org/licenses/by-sa/4.0/"/><dc:creator><cc:Agent><dc:title>Sixsixfive (sixsixfive.deviantart.com)</dc:title></cc:Agent></dc:creator><dc:publisher><cc:Agent><dc:title>Sixsixfive (sixsixfive.deviantart.com)</dc:title></cc:Agent></dc:publisher><dc:source>https://github.com/sixsixfive</dc:source><dc:subject><rdf:Bag><rdf:li>ivy</rdf:li></rdf:Bag></dc:subject><dc:contributor><cc:Agent><dc:title>ssf</dc:title></cc:Agent></dc:contributor><dc:rights><cc:Agent><dc:title>Sixsixfive (sixisixfive.deviantart.com)</dc:title></cc:Agent></dc:rights><dc:description>A simple icon theme published under CC-BY-SA_V4(http://creativecommons.org/licenses/by-sa/4.0)</dc:description><dc:identifier>SSF</dc:identifier></cc:Work></rdf:RDF></metadata><!--Part of the Ivy icon them published under the CC-BY-SA_V4: http://creativecommons.org/licenses/by-sa/4.0 -->
</svg>