<?xml version="1.0" encoding="UTF-8" standalone="no"?><svg xmlns:sodipodi="http://sodipodi.sourceforge.net/DTD/sodipodi-0.dtd" xmlns:inkscape="http://www.inkscape.org/namespaces/inkscape" xmlns:cc="http://creativecommons.org/ns#" inkscape:version="0.91 r13725" sodipodi:docname="flag-bd.svg" xmlns:dc="http://purl.org/dc/elements/1.1/" xmlns:svg="http://www.w3.org/2000/svg" xmlns="http://www.w3.org/2000/svg" xmlns:rdf="http://www.w3.org/1999/02/22-rdf-syntax-ns#" id="svg2" version="1.1" xmlns:xlink="http://www.w3.org/1999/xlink" viewBox="0 0 48 48"><defs id="0"><linearGradient id="linearGradient4170"><stop id="stop4172" stop-color="#d02604"/><stop id="stop4174" stop-color="#de2904" offset="1"/></linearGradient><linearGradient id="linearGradient4159"><stop id="stop4161" stop-color="#fff"/><stop stop-opacity="0" id="stop4163" stop-color="#fff" offset="1"/></linearGradient><linearGradient gradientTransform="matrix(1 0 0 1 -0.5 0)" gradientUnits="userSpaceOnUse" xlink:href="#linearGradient4159" y1="10.05" id="linearGradient4165" x1="45.561" y2="37.841" x2="45.49"/><linearGradient gradientTransform="matrix(1 0 0 1 -1.999797 0)" gradientUnits="userSpaceOnUse" xlink:href="#linearGradient4170" y1="15" id="linearGradient4176" y2="33" x2="0"/></defs><sodipodi:namedview inkscape:cx="24" inkscape:zoom="4.9166667" inkscape:pageshadow="2" borderopacity="1" showgrid="false" id="namedview20" inkscape:window-width="640" bordercolor="#666666" inkscape:window-height="480" pagecolor="#ffffff" inkscape:pageopacity="0" objecttolerance="10" gridtolerance="10" guidetolerance="10" inkscape:cy="24" inkscape:current-layer="svg2"/><rect width="45" height="30" opacity="0.1" id="rect4167" y="10" x="1"/><rect width="45" height="30" id="9" y="9" x="1" fill="#66b03e" fill-opacity="1"/><path stroke="#000" opacity="0.4" d="m 1.53125,9.53125 0,28.9375 43.9375,0 0,-28.9375 -43.9375,0 z" id="C" fill="none"/><path stroke="url(#linearGradient4165)" opacity="0.4" d="m 2.5117188,10.511719 0,26.976562 41.9765622,0 0,-26.976562 -41.9765622,0 z" id="path4157" fill="none"/><circle cy="24" cx="21.000202" r="9" id="path4162" fill="url(#linearGradient4176)" stroke-linecap="square"/><path stroke="#000" opacity="0.5" d="m 21.000203,15.462891 c -2.235135,0 -4.45663,0.91952 -6.037109,2.5 -1.58048,1.580479 -2.5,3.801974 -2.5,6.037109 0,2.235135 0.91952,4.45663 2.5,6.037109 1.580479,1.58048 3.801974,2.5 6.037109,2.5 2.235135,0 4.45663,-0.91952 6.037109,-2.5 1.58048,-1.580479 2.5,-3.801974 2.5,-6.037109 0,-2.235135 -0.91952,-4.45663 -2.5,-6.037109 -1.580479,-1.58048 -3.801974,-2.5 -6.037109,-2.5 z" id="path4166" fill="none" stroke-linecap="square"/><path stroke="#fff" opacity="0.1" d="m 21.000203,14.466797 c -2.495791,0 -4.975444,1.028178 -6.740234,2.792969 C 12.495178,19.024556 11.467,21.504209 11.467,24 c 0,2.495791 1.028178,4.975444 2.792969,6.740234 1.76479,1.764791 4.244443,2.792969 6.740234,2.792969 2.495791,0 4.975444,-1.028178 6.740234,-2.792969 1.764791,-1.76479 2.792969,-4.244443 2.792969,-6.740234 0,-2.495791 -1.028178,-4.975444 -2.792969,-6.740234 -1.76479,-1.764791 -4.244443,-2.792969 -6.740234,-2.792969 z" id="path4168" fill="none" stroke-linecap="square"/><metadata id="metadata9999"><rdf:RDF><cc:Work><dc:format>image/svg+xml</dc:format><dc:type rdf:resource="http://purl.org/dc/dcmitype/StillImage"/><dc:title/><cc:license rdf:resource="http://creativecommons.org/licenses/by-sa/4.0/"/><dc:creator><cc:Agent><dc:title>Sixsixfive (sixsixfive.deviantart.com)</dc:title></cc:Agent></dc:creator><dc:publisher><cc:Agent><dc:title>Sixsixfive (sixsixfive.deviantart.com)</dc:title></cc:Agent></dc:publisher><dc:source>https://github.com/sixsixfive</dc:source><dc:subject><rdf:Bag><rdf:li>ivy</rdf:li></rdf:Bag></dc:subject><dc:contributor><cc:Agent><dc:title>ssf</dc:title></cc:Agent></dc:contributor><dc:rights><cc:Agent><dc:title>Sixsixfive (sixisixfive.deviantart.com)</dc:title></cc:Agent></dc:rights><dc:description>A simple icon theme published under CC-BY-SA_V4(http://creativecommons.org/licenses/by-sa/4.0)</dc:description><dc:identifier>SSF</dc:identifier></cc:Work></rdf:RDF></metadata><!--Part of the Ivy icon them published under the CC-BY-SA_V4: http://creativecommons.org/licenses/by-sa/4.0 -->
</svg>