<?xml version="1.0" encoding="UTF-8" standalone="no"?>
<svg xmlns:dc="http://purl.org/dc/elements/1.1/" xmlns:cc="http://creativecommons.org/ns#" xmlns:rdf="http://www.w3.org/1999/02/22-rdf-syntax-ns#" xmlns:svg="http://www.w3.org/2000/svg" xmlns="http://www.w3.org/2000/svg" xmlns:xlink="http://www.w3.org/1999/xlink" id="svg2" viewBox="0 0 48 48" version="1.1">
 <defs id="0">
  <linearGradient id="linearGradient4170">
   <stop stop-color="#d02604" id="stop4172"/>
   <stop stop-color="#de2904" offset="1" id="stop4174"/>
  </linearGradient>
  <linearGradient id="linearGradient4159">
   <stop stop-color="#fff" id="stop4161"/>
   <stop offset="1" stop-color="#fff" id="stop4163" stop-opacity="0"/>
  </linearGradient>
  <linearGradient id="linearGradient4165" xlink:href="#linearGradient4159" y1="10.05" y2="37.841" x1="45.561" gradientUnits="userSpaceOnUse" x2="45.49" gradientTransform="translate(-0.5,0)"/>
  <linearGradient xlink:href="#linearGradient4170" id="linearGradient4176" y1="15" x2="0" y2="33" gradientUnits="userSpaceOnUse"/>
 </defs>
 <rect opacity="0.1" id="rect4167" height="30" y="10" x="1" width="45"/>
 <rect fill="#ebebeb" id="9" height="30" y="9" x="1" width="45"/>
 <path stroke="#000" fill="none" opacity="0.4" d="m 1.53125,9.53125 0,28.9375 43.9375,0 0,-28.9375 -43.9375,0 z" id="C"/>
 <path stroke="url(#linearGradient4165)" fill="none" opacity="0.4" d="m 2.5117188,10.511719 0,26.976562 41.9765622,0 0,-26.976562 -41.9765622,0 z" id="path4157"/>
 <circle stroke-linecap="square" fill="url(#linearGradient4176)" id="path4162" cx="23" cy="24" r="9"/>
 <path stroke-linecap="square" stroke="#000" fill="none" opacity="0.5" id="path4166" d="m 23,15.462891 c -2.235135,0 -4.45663,0.91952 -6.037109,2.5 -1.58048,1.580479 -2.5,3.801974 -2.5,6.037109 0,2.235135 0.91952,4.45663 2.5,6.037109 1.580479,1.58048 3.801974,2.5 6.037109,2.5 2.235135,0 4.45663,-0.91952 6.037109,-2.5 1.58048,-1.580479 2.5,-3.801974 2.5,-6.037109 0,-2.235135 -0.91952,-4.45663 -2.5,-6.037109 -1.580479,-1.58048 -3.801974,-2.5 -6.037109,-2.5 z"/>
 <path stroke-linecap="square" stroke="#fff" fill="none" opacity="0.3" d="m 23,14.466797 c -2.495791,0 -4.975444,1.028178 -6.740234,2.792969 -1.764791,1.76479 -2.792969,4.244443 -2.792969,6.740234 0,2.495791 1.028178,4.975444 2.792969,6.740234 1.76479,1.764791 4.244443,2.792969 6.740234,2.792969 2.495791,0 4.975444,-1.028178 6.740234,-2.792969 1.764791,-1.76479 2.792969,-4.244443 2.792969,-6.740234 0,-2.495791 -1.028178,-4.975444 -2.792969,-6.740234 C 27.975444,15.494975 25.495791,14.466797 23,14.466797 Z" id="path4168"/>
 <metadata id="metadata9999">
  <rdf:RDF>
   <cc:Work>
    <dc:format>image/svg+xml</dc:format>
    <dc:type rdf:resource="http://purl.org/dc/dcmitype/StillImage"/>
    <dc:title>Ivy icon theme</dc:title>
    <cc:license rdf:resource="http://creativecommons.org/licenses/by-sa/4.0/"/>
    <dc:creator>
     <cc:Agent>
      <dc:title>Sixsixfive (sixsixfive.deviantart.com)</dc:title>
     </cc:Agent>
    </dc:creator>
    <dc:publisher>
     <cc:Agent>
      <dc:title>Sixsixfive (sixsixfive.deviantart.com)</dc:title>
     </cc:Agent>
    </dc:publisher>
    <dc:source>https://github.com/sixsixfive</dc:source>
    <dc:subject>
     <rdf:Bag>
      <rdf:li>ivy</rdf:li>
     </rdf:Bag>
    </dc:subject>
    <dc:contributor>
     <cc:Agent>
      <dc:title>ssf</dc:title>
     </cc:Agent>
    </dc:contributor>
    <dc:rights>
     <cc:Agent>
      <dc:title>Sixsixfive (sixisixfive.deviantart.com)</dc:title>
     </cc:Agent>
    </dc:rights>
    <dc:description>A simple icon theme published under CC-BY-SA_V4(http://creativecommons.org/licenses/by-sa/4.0)</dc:description>
    <dc:identifier>SSF</dc:identifier>
   </cc:Work>
  </rdf:RDF>
 </metadata>
 <!--Part of the Ivy icon them published under the CC-BY-SA_V4: http://creativecommons.org/licenses/by-sa/4.0 -->
</svg>
