<?xml version="1.0" encoding="UTF-8" standalone="no"?><svg xmlns:rdf="http://www.w3.org/1999/02/22-rdf-syntax-ns#" xmlns:cc="http://creativecommons.org/ns#" xmlns:svg="http://www.w3.org/2000/svg" id="svg2" viewBox="0 0 48 48" version="1.1" xmlns:dc="http://purl.org/dc/elements/1.1/" xmlns="http://www.w3.org/2000/svg"><defs id="defs4"><linearGradient id="0" x2="0" y2="43" y1="5" gradientUnits="userSpaceOnUse"><stop id="stop7" stop-color="#fff"/><stop offset="1" id="stop9" stop-color="#fff" stop-opacity="0"/></linearGradient><radialGradient r="17.519" cx="24.939" id="1" cy="39.756" gradientTransform="matrix(1.13819 0 0 0.08562 -4.297 40.56)" gradientUnits="userSpaceOnUse"><stop id="stop12" stop-opacity="0.2"/><stop offset="1" id="stop14" stop-opacity="0"/></radialGradient><radialGradient r="23" cx="24" id="2" cy="50.27" gradientTransform="matrix(1 0 0 0.87568 0 2.982)" gradientUnits="userSpaceOnUse"><stop id="stop17" stop-color="#5288d1"/><stop offset="1" id="stop19" stop-color="#6f9bd9"/></radialGradient></defs><path id="path21" d="m 44.0282 43.9641 a 19.94 1.5 0 0 1 -39.88 0 19.94 1.5 0 1 1 39.88 0 z" fill="url(#1)"/><path id="path23" d="m 24 3.84375 l -23 23.125 h 7.125 v 17.15625 h 31.75 v -17.15625 h 7.125 l -9.0625 -9.125 V 6 H 30 V 9.875 L 24 3.84375 z" fill="url(#2)"/><g id="g25" fill="none"><path id="path27" opacity="0.4" d="m 24,4.4688 -21.9375,22.0625 6.0625,0 a 0.435729,0.435729 0 0 1 0.4375,0.4375 l 0,16.7188 30.875,0 0,-16.7188 a 0.435729,0.435729 0 0 1 0.4375,-0.4375 l 6.0625,0 -8.3125,-8.375 A 0.435729,0.435729 0 0 1 37.5,17.8438 l 0,-11.4062 -7.0625,0 0,3.4375 a 0.435729,0.435729 0 0 1 -0.75,0.3125 L 24,4.4688 Z" stroke="#000"/><path id="path29" opacity="0.47" d="m 24,5.875 -19.5312,19.6562 3.6562,0 a 1.43658,1.43658 0 0 1 1.4375,1.4375 l 0,15.7188 28.875,0 0,-15.7188 a 1.43658,1.43658 0 0 1 1.4375,-1.4375 l 3.6875,0 -6.6562,-6.6875 a 1.43658,1.43658 0 0 1 -0.40625,-1 l 0,-10.4062 -5.0625,0 0,2.4375 a 1.43658,1.43658 0 0 1 -2.46875,1 L 24,5.875 Z" stroke="url(#0)"/></g><metadata id="metadata9999"><rdf:RDF><cc:Work><dc:format>image/svg+xml</dc:format><dc:type rdf:resource="http://purl.org/dc/dcmitype/StillImage"/><dc:title>Ivy icon theme</dc:title><cc:license rdf:resource="http://creativecommons.org/licenses/by-sa/4.0/"/><dc:creator><cc:Agent><dc:title>Sixsixfive (sixsixfive.deviantart.com)</dc:title></cc:Agent></dc:creator><dc:publisher><cc:Agent><dc:title>Sixsixfive (sixsixfive.deviantart.com)</dc:title></cc:Agent></dc:publisher><dc:source>https://github.com/sixsixfive</dc:source><dc:subject><rdf:Bag><rdf:li>ivy</rdf:li></rdf:Bag></dc:subject><dc:contributor><cc:Agent><dc:title>ssf</dc:title></cc:Agent></dc:contributor><dc:rights><cc:Agent><dc:title>Sixsixfive (sixisixfive.deviantart.com)</dc:title></cc:Agent></dc:rights><dc:description>A simple icon theme published under CC-BY-SA_V4(http://creativecommons.org/licenses/by-sa/4.0)</dc:description><dc:identifier>SSF</dc:identifier></cc:Work></rdf:RDF></metadata><!--Part of the Ivy icon them published under the CC-BY-SA_V4: http://creativecommons.org/licenses/by-sa/4.0 -->
</svg>