<?xml version="1.0" encoding="UTF-8" standalone="no"?><svg xmlns:cc="http://creativecommons.org/ns#" xmlns:dc="http://purl.org/dc/elements/1.1/" xmlns="http://www.w3.org/2000/svg" xmlns:svg="http://www.w3.org/2000/svg" xmlns:rdf="http://www.w3.org/1999/02/22-rdf-syntax-ns#" id="svg2" version="1.1" viewBox="0 0 48 48" xmlns:xlink="http://www.w3.org/1999/xlink"><defs id="defs4"><linearGradient gradientTransform="matrix(0.65482 0 0 0.6671 0.089 -0.017)" gradientUnits="userSpaceOnUse" y1="3" id="0" y2="45" x2="0"><stop id="stop7" stop-color="#5288d1"/><stop id="stop9" stop-color="#90b2e1" offset="1"/></linearGradient><linearGradient gradientTransform="matrix(0.65798 0 0 0.66676 1.063 0.661)" gradientUnits="userSpaceOnUse" y1="3" id="1" y2="44" x2="0"><stop id="stop12" stop-color="#dedede"/><stop id="stop14" stop-color="#f4f4f4" offset="1"/></linearGradient><linearGradient gradientUnits="userSpaceOnUse" y1="3" xlink:href="#6" id="2" y2="29" x2="0"/><linearGradient gradientUnits="userSpaceOnUse" y1="1.614" xlink:href="#6" id="3" y2="27.29" x2="0"/><linearGradient gradientUnits="userSpaceOnUse" y1="9.868" x1="45.932" id="4" y2="43.631" x2="46"><stop id="stop19" stop-color="#5288d1"/><stop id="stop21" stop-color="#96b7e3" offset="1"/></linearGradient><linearGradient gradientUnits="userSpaceOnUse" y1="-6.975" xlink:href="#6" id="5" y2="47.556" x2="0"/><linearGradient id="6"><stop id="stop25" stop-color="#fff"/><stop stop-opacity="0" id="stop27" stop-color="#fff" offset="1"/></linearGradient><linearGradient gradientUnits="userSpaceOnUse" y1="3.993" x1="3.153" id="7" y2="22.971" x2="2.281"><stop id="stop30" stop-color="#eeeeec"/><stop id="stop32" stop-color="#555753" offset="1"/></linearGradient><mask id="8"><rect width="22.997" ry="0.806" height="28" rx="0.806" id="rect35" y="-3.037" x="0.006" fill="#fff"/></mask><radialGradient gradientTransform="matrix(0.47392 0 0 0.37913 5.261 13.381)" cy="20.1" cx="7.89" gradientUnits="userSpaceOnUse" r="10.55" xlink:href="#6" id="9"/></defs><g color="#000" id="g38"><g id="g40" fill-rule="evenodd"><path opacity="0.2" d="m 25.5938,10.9996 c -0.4155,0 -0.66341,0.271416 -0.84375,0.625 -0.06011,0.117861 -0.104813,0.246406 -0.15625,0.375 l -0.7812,2 -0.8125,2 c -0.05144,0.128594 -0.09614,0.257139 -0.15625,0.375 -0.18034,0.353584 -0.437757,0.713374 -0.84375,0.625 l -9.1875,0 -4.8125,0 -6,0 0,26.9064 c 0,0.554 0.446,1 1,1 l 42,0 c 0.554,0 1,-0.446 1,-1 l 0,-31.9064 c 0,-0.554 -0.480411,-0.807794 -1,-1 l -5.40625,0 -8.59375,0 z" id="path42"/><path d="m 6.3125,4 c -0.554,0 -0.79425,0.485624 -1,1 L 4.125,8 3,8 C 2.446,8 2,8.446 2,9 l 0,33.90625 c 0,0.554 0.446,1 1,1 l 42,0 c 0.554,0 1,-0.446 1,-1 L 46,9 C 46,8.446 45.554,8 45,8 L 22.5,8 21.3125,5 c -0.20575,-0.514376 -0.446,-1 -1,-1 l -14,0 z" id="path44" fill="url(#7)"/></g><g id="g46" fill="none"><path stroke="#fff" opacity="0.4" d="M 6.75,5.5312 C 6.282542,6.64501 5.947558,7.85158 5.34493,8.89708 5.0092,9.582545 5.04894,9.509033 4.125,9.531202 c -0.98392,-0.29644 -0.47047,0.90449 -0.59375,1.46869 0,10.4584 0,20.9167 0,31.3751 13.6458,0 27.2917,0 40.9375,0 0,-10.9479 0,-21.8958 0,-32.8438 -7.32292,0 -14.6458,0 -21.9688,0 -0.945545,0.04378 -0.945118,0.04927 -1.27707,-0.710328 -0.5437,-1.04535 -0.904326,-2.19797 -1.34793,-3.28967 -4.375,0 -8.75,0 -13.125,0 z" stroke-linejoin="round" id="path48"/><path stroke="#000" opacity="0.4" d="m 6.3125,4.5312 c -0.119775,0 -0.134635,0.024243 -0.21875,0.125 C 6.00963,4.756957 5.910239,4.943101 5.8125,5.18745 l -1.1875,3 a 0.538141,0.538141 0 0 1 -0.5,0.34375 l -1.125,0 c -0.265207,0 -0.46875,0.203543 -0.46875,0.46875 l 0,33.9062 c 0,0.265207 0.203543,0.46875 0.46875,0.46875 l 42,0 c 0.265207,0 0.46875,-0.203543 0.46875,-0.46875 l 0,-33.9062 C 45.46875,8.734743 45.26521,8.5312 45,8.5312 l -22.5,0 A 0.538141,0.538141 0 0 1 22,8.18745 l -1.1875,-3 C 20.71476,4.943101 20.615365,4.756957 20.53125,4.6562 20.44713,4.555443 20.43228,4.5312 20.3125,4.5312 l -14,0 z" id="path50"/></g><path d="m 25.5938,9.9999 c -0.4155,0 -0.66341,0.271416 -0.84375,0.625 -0.06011,0.117861 -0.104813,0.246406 -0.15625,0.375 l -0.7812,2 -0.8125,2 c -0.05144,0.128594 -0.09614,0.257139 -0.15625,0.375 -0.18034,0.353584 -0.437757,0.713374 -0.84375,0.625 l -9.1875,0 -4.8125,0 -6,0 0,26.9064 c 0,0.554 0.446,1 1,1 l 42,0 c 0.554,0 1,-0.446 1,-1 l 0,-31.9064 c 0,-0.554 -0.480411,-0.807794 -1,-1 l -5.40625,0 -8.59375,0 z" id="path52" fill-rule="evenodd" fill="url(#4)"/></g><rect width="1" ry="1" height="25" rx="0.5" opacity="0.1" id="rect54" y="18" x="24"/><path stroke="#000" opacity="0.5" color="#000" d="m 25.5938,10.5311 c -0.09055,0 -0.102741,0.01856 -0.15625,0.0625 -0.05351,0.04394 -0.14861,0.14373 -0.21875,0.28125 -0.03721,0.07296 -0.06756,0.168903 -0.125,0.3125 l -0.7812,2 -0.8125,2 c -0.04544,0.113584 -0.104492,0.274743 -0.1875,0.4375 -0.1102,0.216064 -0.249344,0.444835 -0.46875,0.625 -0.219406,0.180165 -0.526233,0.350365 -0.84375,0.28125 H 12.8126 8.0001 2.53135 v 26.3751 c 0,0.265114 0.203636,0.46875 0.46875,0.46875 h 42 c 0.265114,0 0.46875,-0.203636 0.46875,-0.46875 V 10.9998 c 0,-0.265114 -0.220103,-0.376771 -0.46875,-0.46875 H 39.59385 31.0001 z" id="path56" fill="none"/><rect width="19" ry="0.5" height="1" rx="1.233" opacity="0.1" id="rect58" y="18" x="25"/><path stroke="url(#5)" opacity="0.5" color="#000" d="m 26,11.4999 c -0.0077,0.01923 -0.02203,0.0082 -0.03125,0.03125 v 0.03125 l -0.7812,1.9688 c 1.09e-4,0.01042 1.09e-4,0.02083 0,0.03125 l -0.8125,2 c -0.03479,0.08698 -0.0639,0.257655 -0.1875,0.5 -0.145707,0.285681 -0.352303,0.605342 -0.71875,0.90625 -0.366447,0.300908 -0.948224,0.644555 -1.46875,0.53125 h -9.1875 -4.8125 -4.5 v 24.9064 h 41 V 11.49995 H 39.5938 31.00005 z" stroke-linejoin="round" id="path60" fill="none"/><g transform="matrix(1 0 0 1 19.998 16.986)" id="g62"><path opacity="0.06" d="m 5.806,2.9949999 21.385,0 c 0.446524,0 0.806,0.359476 0.806,0.806 l 0,26.3880001 c 0,0.446524 -0.359476,0.806 -0.806,0.806 l -21.385,0 C 5.359476,30.995 5,30.635524 5,30.189 L 5,3.8009999 c 0,-0.446524 0.359476,-0.806 0.806,-0.806 z" id="rect64"/><path d="m 5.806,1.995 21.385,0 c 0.446524,0 0.806,0.359476 0.806,0.806 l 0,26.388 c 0,0.446524 -0.359476,0.806 -0.806,0.806 l -21.385,0 C 5.359476,29.995 5,29.635524 5,29.189 L 5,2.801 C 5,2.354476 5.359476,1.995 5.806,1.995 Z" id="rect66" fill="url(#1)"/><g transform="matrix(1 0 0 1 4.995 5.03)" id="g68" mask="url(#8)"><g id="g70" fill-rule="evenodd"><path opacity="0.15" d="m 15.0785,2.9856 c -0.590358,0.037388 -1.03691,0.136658 -1.03895,0.471206 l 0,18.1629 c -0.992718,-0.370073 -1.63123,-0.578225 -2.82862,-0.578225 -3.96652,0 -7.16661,1.98661 -7.16661,4.81902 0,2.83242 3.20009,5.14043 7.16661,5.14043 3.78838,0 6.49555,-2.09909 6.76666,-4.75489 l 0.02124,0 4e-4,-12.2439 c 0.06025,-0.03617 0.107374,-0.06671 0.169626,-0.107096 2.86592,0.676505 5.56489,1.44183 5.82705,9.05252 8.00413,-5.94797 -1.7403,-13.1696 -8.91739,-19.962 z" id="path72"/><path d="m 15.0785,1.9859 c -0.590358,0.037388 -1.03691,0.136658 -1.03895,0.471206 l 0,18.1629 c -0.992718,-0.370073 -1.63123,-0.578225 -2.82862,-0.578225 -3.96652,0 -7.16661,1.98661 -7.16661,4.81902 0,2.83242 3.20009,5.14043 7.16661,5.14043 3.78838,0 6.49555,-2.09909 6.76666,-4.75489 l 0.02124,0 4e-4,-12.2439 c 0.06025,-0.03617 0.107374,-0.06671 0.169626,-0.107096 2.86592,0.676505 5.56489,1.44183 5.82705,9.05252 8.00413,-5.94797 -1.7403,-13.1696 -8.91739,-19.962 z" id="path74" fill="url(#0)"/></g><g id="g76" fill="none"><path stroke="#000" opacity="0.4" d="m 14.9375,2.5312 c -0.158459,0.018385 -0.331784,0.038066 -0.40625,0.0625 l 0,18.0312 A 0.48706,0.48706 0 0 1 13.875,21.09365 c -0.990474,-0.369236 -1.51951,-0.5625 -2.65625,-0.5625 -1.90094,0 -3.61037,0.48952 -4.8125,1.28125 -1.20213,0.79173 -1.875,1.8309 -1.875,3.0625 0,1.2316 0.669279,2.35949 1.875,3.21875 1.20572,0.859255 2.92307,1.40625 4.8125,1.40625 3.6089,0 6.00932,-1.95481 6.25,-4.3125 A 0.48706,0.48706 0 0 1 17.5,25.15615 a 0.48706,0.48706 0 0 1 0,-0.0625 l 0,-12.0938 a 0.48706,0.48706 0 0 1 0.25,-0.40625 c 0.07066,-0.04242 0.108471,-0.06275 0.15625,-0.09375 a 0.48706,0.48706 0 0 1 0.375,-0.0625 c 1.43834,0.339522 2.94763,0.717881 4.125,2.0625 1.06732,1.21894 1.77551,3.20933 2,6.4375 1.38662,-1.22791 2.0155,-2.43371 2.09375,-3.6875 0.09104,-1.45867 -0.524882,-3.04051 -1.65625,-4.6875 C 22.62054,9.3259 18.5005,5.88716 14.9375,2.53115 Z" id="path78"/><path stroke="url(#2)" opacity="0.5" d="m 15.4688,4.3125 0,16.3125 a 1.43529,1.43529 0 0 1 -1.9375,1.34375 c -0.986104,-0.367607 -1.29383,-0.5 -2.3125,-0.5 -1.74068,0 -3.27172,0.460117 -4.28125,1.125 C 5.92802,23.258633 5.4688,24.0028 5.4688,24.875 c 0,0.872202 0.479888,1.74177 1.5,2.46875 1.02011,0.726981 2.54323,1.21875 4.25,1.21875 3.25948,0 5.13106,-1.69143 5.3125,-3.46875 a 1.43529,1.43529 0 0 1 0.03125,-0.125 l 0,-11.9688 a 1.43529,1.43529 0 0 1 0.6875,-1.21875 c 0.09094,-0.05459 0.105398,-0.08103 0.125,-0.09375 a 1.43529,1.43529 0 0 1 1.125,-0.1875 c 1.44881,0.341995 3.23846,0.791493 4.625,2.375 0.959632,1.09595 1.50957,2.85464 1.875,5 0.360291,-0.582393 0.527205,-1.12201 0.5625,-1.6875 0.07177,-1.14986 -0.434053,-2.54199 -1.5,-4.09375 -1.86776,-2.719 -5.32274,-5.75588 -8.59375,-8.78125 z" id="path80"/><path stroke="url(#9)" opacity="0.5" d="m 15.4688,4.3125 0,16.3125 a 1.43529,1.43529 0 0 1 -1.9375,1.34375 c -0.986104,-0.367607 -1.29383,-0.5 -2.3125,-0.5 -1.74068,0 -3.27172,0.460117 -4.28125,1.125 C 5.92802,23.258633 5.4688,24.0028 5.4688,24.875 c 0,0.872202 0.479888,1.74177 1.5,2.46875 1.02011,0.726981 2.54323,1.21875 4.25,1.21875 3.25948,0 5.13106,-1.69143 5.3125,-3.46875 a 1.43529,1.43529 0 0 1 0.03125,-0.125 l 0,-11.9688 a 1.43529,1.43529 0 0 1 0.6875,-1.21875 c 0.09094,-0.05459 0.105398,-0.08103 0.125,-0.09375 a 1.43529,1.43529 0 0 1 1.125,-0.1875 c 1.44881,0.341995 3.23846,0.791493 4.625,2.375 0.959632,1.09595 1.50957,2.85464 1.875,5 0.360291,-0.582393 0.527205,-1.12201 0.5625,-1.6875 0.07177,-1.14986 -0.434053,-2.54199 -1.5,-4.09375 -1.86776,-2.719 -5.32274,-5.75588 -8.59375,-8.78125 z" id="path82"/></g></g><g transform="matrix(0.99956 0 0 1.01258 -0.983 1.366)" stroke-width="0.994" id="g84" fill="none"><path stroke="#000" opacity="0.4" d="m 6.7812,1.1562 c -0.142866,0 -0.25,0.112596 -0.25,0.28125 l 0,26.0938 c 0,0.168654 0.08985,0.25 0.25,0.25 l 21.4688,0 c 0.154628,0 0.25,-0.09537 0.25,-0.25 l 0,-26.0938 C 28.5,1.282823 28.387343,1.1562 28.25,1.1562 l -21.4688,0 z" id="path86"/><path stroke="url(#3)" opacity="0.7" d="m 7.5312,2.1562 0,24.625 19.9688,0 0,-24.625 -19.9688,0 z" id="path88"/></g></g><rect width="1" ry="0.92" height="23" rx="0.5" opacity="0.22" id="rect90" y="19.996" x="25"/><rect width="19" ry="0.5" height="1" rx="1.233" opacity="0.22" id="rect92" y="19" x="25.5"/><metadata id="metadata9999"><rdf:RDF><cc:Work><dc:format>image/svg+xml</dc:format><dc:type rdf:resource="http://purl.org/dc/dcmitype/StillImage"/><dc:title>Ivy icon theme</dc:title><cc:license rdf:resource="http://creativecommons.org/licenses/by-sa/4.0/"/><dc:creator><cc:Agent><dc:title>Sixsixfive (sixsixfive.deviantart.com)</dc:title></cc:Agent></dc:creator><dc:publisher><cc:Agent><dc:title>Sixsixfive (sixsixfive.deviantart.com)</dc:title></cc:Agent></dc:publisher><dc:source>https://github.com/sixsixfive</dc:source><dc:subject><rdf:Bag><rdf:li>ivy</rdf:li></rdf:Bag></dc:subject><dc:contributor><cc:Agent><dc:title>ssf</dc:title></cc:Agent></dc:contributor><dc:rights><cc:Agent><dc:title>Sixsixfive (sixisixfive.deviantart.com)</dc:title></cc:Agent></dc:rights><dc:description>A simple icon theme published under CC-BY-SA_V4(http://creativecommons.org/licenses/by-sa/4.0)</dc:description><dc:identifier>SSF</dc:identifier></cc:Work></rdf:RDF></metadata><!--Part of the Ivy icon them published under the CC-BY-SA_V4: http://creativecommons.org/licenses/by-sa/4.0 -->
</svg>