<?xml version="1.0" encoding="UTF-8" standalone="no"?>
<svg xmlns:dc="http://purl.org/dc/elements/1.1/" xmlns:cc="http://creativecommons.org/ns#" xmlns:rdf="http://www.w3.org/1999/02/22-rdf-syntax-ns#" xmlns:svg="http://www.w3.org/2000/svg" xmlns="http://www.w3.org/2000/svg" xmlns:xlink="http://www.w3.org/1999/xlink" viewBox="0 0 48 48" id="svg2" version="1.1">
 <defs id="defs4">
  <linearGradient id="0" xlink:href="#4" x1="28.04" x2="7.03" gradientUnits="userSpaceOnUse" gradientTransform="matrix(0 -0.99956 1.01258 0 19.372 53.03)"/>
  <linearGradient id="1" y1="9.868" x1="45.932" y2="43.631" x2="46" gradientUnits="userSpaceOnUse">
   <stop stop-color="#5288d1" id="stop8"/>
   <stop offset="1" stop-color="#96b7e3" id="stop10"/>
  </linearGradient>
  <linearGradient id="2" x1="40.941" x2="5.985" gradientUnits="userSpaceOnUse" gradientTransform="matrix(0.65798 0 0 0.66676 -50.936 18.663)">
   <stop stop-color="#171717" id="stop13"/>
   <stop offset="1" stop-color="#646464" id="stop15"/>
  </linearGradient>
  <linearGradient id="3" y1="3.993" x1="3.153" y2="22.971" x2="2.281" gradientUnits="userSpaceOnUse">
   <stop stop-color="#eeeeec" id="stop18"/>
   <stop offset="1" stop-color="#555753" id="stop20"/>
  </linearGradient>
  <linearGradient id="4">
   <stop stop-color="#fff" id="stop23"/>
   <stop offset="1" stop-color="#fff" stop-opacity="0" id="stop25"/>
  </linearGradient>
  <linearGradient id="5" xlink:href="#4" y1="-6.975" y2="47.556" x2="0" gradientUnits="userSpaceOnUse"/>
 </defs>
 <g id="g28" color="#000">
  <g id="g30" fill-rule="evenodd">
   <path d="m 25.5938,10.9996 c -0.4155,0 -0.66341,0.271416 -0.84375,0.625 -0.06011,0.117861 -0.104813,0.246406 -0.15625,0.375 l -0.7812,2 -0.8125,2 c -0.05144,0.128594 -0.09614,0.257139 -0.15625,0.375 -0.18034,0.353584 -0.437757,0.713374 -0.84375,0.625 l -9.1875,0 -4.8125,0 -6,0 0,26.9064 c 0,0.554 0.446,1 1,1 l 42,0 c 0.554,0 1,-0.446 1,-1 l 0,-31.9064 c 0,-0.554 -0.480411,-0.807794 -1,-1 l -5.40625,0 -8.59375,0 z" id="path32" opacity="0.2"/>
   <path d="m 6.3125,4 c -0.554,0 -0.79425,0.485624 -1,1 L 4.125,8 3,8 C 2.446,8 2,8.446 2,9 l 0,33.90625 c 0,0.554 0.446,1 1,1 l 42,0 c 0.554,0 1,-0.446 1,-1 L 46,9 C 46,8.446 45.554,8 45,8 L 22.5,8 21.3125,5 c -0.20575,-0.514376 -0.446,-1 -1,-1 l -14,0 z" id="path34" fill="url(#3)"/>
  </g>
  <g id="g36" fill="none">
   <path d="M 6.75,5.5312 C 6.282542,6.64501 5.947558,7.85158 5.34493,8.89708 5.0092,9.582545 5.04894,9.509033 4.125,9.531202 c -0.98392,-0.29644 -0.47047,0.90449 -0.59375,1.46869 0,10.4584 0,20.9167 0,31.3751 13.6458,0 27.2917,0 40.9375,0 0,-10.9479 0,-21.8958 0,-32.8438 -7.32292,0 -14.6458,0 -21.9688,0 -0.945545,0.04378 -0.945118,0.04927 -1.27707,-0.710328 -0.5437,-1.04535 -0.904326,-2.19797 -1.34793,-3.28967 -4.375,0 -8.75,0 -13.125,0 z" id="path38" opacity="0.4" stroke="#fff" stroke-linejoin="round"/>
   <path d="m 6.3125,4.5312 c -0.119775,0 -0.134635,0.024243 -0.21875,0.125 C 6.00963,4.756957 5.910239,4.943101 5.8125,5.18745 l -1.1875,3 a 0.538141,0.538141 0 0 1 -0.5,0.34375 l -1.125,0 c -0.265207,0 -0.46875,0.203543 -0.46875,0.46875 l 0,33.9062 c 0,0.265207 0.203543,0.46875 0.46875,0.46875 l 42,0 c 0.265207,0 0.46875,-0.203543 0.46875,-0.46875 l 0,-33.9062 C 45.46875,8.734743 45.26521,8.5312 45,8.5312 l -22.5,0 A 0.538141,0.538141 0 0 1 22,8.18745 l -1.1875,-3 C 20.71476,4.943101 20.615365,4.756957 20.53125,4.6562 20.44713,4.555443 20.43228,4.5312 20.3125,4.5312 l -14,0 z" id="path40" opacity="0.4" stroke="#000"/>
  </g>
  <path d="m 25.5938,9.9999 c -0.4155,0 -0.66341,0.271416 -0.84375,0.625 -0.06011,0.117861 -0.104813,0.246406 -0.15625,0.375 l -0.7812,2 -0.8125,2 c -0.05144,0.128594 -0.09614,0.257139 -0.15625,0.375 -0.18034,0.353584 -0.437757,0.713374 -0.84375,0.625 l -9.1875,0 -4.8125,0 -6,0 0,26.9064 c 0,0.554 0.446,1 1,1 l 42,0 c 0.554,0 1,-0.446 1,-1 l 0,-31.9064 c 0,-0.554 -0.480411,-0.807794 -1,-1 l -5.40625,0 -8.59375,0 z" id="path42" fill="url(#1)" fill-rule="evenodd"/>
 </g>
 <rect width="1" x="19" opacity="0.1" y="23.5" rx="0.5" height="19" ry="1.209" id="rect44"/>
 <path opacity="0.5" fill="none" stroke="#000" color="#000" d="m 25.5938 10.5311 c -0.09055 0 -0.102741 0.01856 -0.15625 0.0625 -0.05351 0.04394 -0.14861 0.14373 -0.21875 0.28125 -0.03721 0.07296 -0.06756 0.168903 -0.125 0.3125 l -0.7812 2 l -0.8125 2 c -0.04544 0.113584 -0.104492 0.274743 -0.1875 0.4375 -0.1102 0.216064 -0.249344 0.444835 -0.46875 0.625 -0.219406 0.180165 -0.526233 0.350365 -0.84375 0.28125 h -9.1875 h -4.8125 h -5.46875 v 26.3751 c 0 0.265114 0.203636 0.46875 0.46875 0.46875 h 42 c 0.265114 0 0.46875 -0.203636 0.46875 -0.46875 v -31.9064 c 0 -0.265114 -0.220103 -0.376771 -0.46875 -0.46875 h -5.40625 h -8.59375 z" id="path46"/>
 <rect width="25.5" x="19.5" opacity="0.1" y="23" rx="1.233" height="1" ry="0.5" id="rect48"/>
 <path opacity="0.5" fill="none" stroke="url(#5)" stroke-linejoin="round" color="#000" d="m 26 11.4999 c -0.0077 0.01923 -0.02203 0.0082 -0.03125 0.03125 v 0.03125 l -0.7812 1.9688 c 0.000109 0.01042 0.000109 0.02083 0 0.03125 l -0.8125 2 c -0.03479 0.08698 -0.0639 0.257655 -0.1875 0.5 -0.145707 0.285681 -0.352303 0.605342 -0.71875 0.90625 -0.366447 0.300908 -0.948224 0.644555 -1.46875 0.53125 h -9.1875 h -4.8125 h -4.5 v 24.9064 h 41 v -30.9064 h -4.90625 h -8.59375 z" id="path50"/>
 <g transform="matrix(0,-1,1,0,0,0)" id="g52">
  <path d="m -47.191002,19.997 21.385,0 c 0.446524,0 0.806,0.359476 0.806,0.806 l 0,26.388 c 0,0.446524 -0.359476,0.806 -0.806,0.806 l -21.385,0 c -0.446524,0 -0.806,-0.359476 -0.806,-0.806 l 0,-26.388 c 0,-0.446524 0.359476,-0.806 0.806,-0.806 z" id="rect54" opacity="0.1"/>
  <path d="m -46.191002,19.997 21.385,0 c 0.446524,0 0.806,0.359476 0.806,0.806 l 0,26.388 c 0,0.446524 -0.359476,0.806 -0.806,0.806 l -21.385,0 c -0.446524,0 -0.806,-0.359476 -0.806,-0.806 l 0,-26.388 c 0,-0.446524 0.359476,-0.806 0.806,-0.806 z" id="rect56" fill="url(#2)"/>
 </g>
 <g id="g58" fill="none">
  <path d="m 20.543107,46.24804 c 0,0.142803 0.114013,0.24989 0.284789,0.24989 l 26.4221,0 c 0.170776,0 0.253146,-0.08981 0.253146,-0.24989 l 0,-21.4592 c 0,-0.15456 -0.09657,-0.249889 -0.253146,-0.249889 l -26.4221,0 c -0.156572,0 -0.284789,0.112607 -0.284789,0.249889 l 0,21.4592 z" id="path60" opacity="0.6" stroke="#000"/>
  <path d="m 21.555607,45.498342 24.9349,0 0,-19.9599 -24.9349,0 0,19.9599 z" id="path62" opacity="0.2" stroke="url(#0)"/>
 </g>
 <path opacity="0.4" d="M 22,39 H45.969 V43.906 H22 z" id="path64"/>
 <path opacity="0.6" fill="#ebebeb" d="M 23,40 H44.969 V42.906 H23 z" id="path66"/>
 <path opacity="0.7" fill="#d02604" d="M 23,40 H32 V42.906 H23 z" id="path68"/>
 <path d="M 37.498874,32 31,36 31,28 z" id="path70"/>
 <path fill="#ebebeb" d="M 37.498874,33 31,37 31,29 z" id="path72"/>
 <path opacity="0.2" fill="#fff" d="M 22.02,43.906 H45.989 V45 H22.02 z" id="path74"/>
 <metadata id="metadata9999">
  <rdf:RDF>
   <cc:Work>
    <dc:format>image/svg+xml</dc:format>
    <dc:type rdf:resource="http://purl.org/dc/dcmitype/StillImage"/>
    <dc:title>Ivy icon theme</dc:title>
    <cc:license rdf:resource="http://creativecommons.org/licenses/by-sa/4.0/"/>
    <dc:creator>
     <cc:Agent>
      <dc:title>Sixsixfive (sixsixfive.deviantart.com)</dc:title>
     </cc:Agent>
    </dc:creator>
    <dc:publisher>
     <cc:Agent>
      <dc:title>Sixsixfive (sixsixfive.deviantart.com)</dc:title>
     </cc:Agent>
    </dc:publisher>
    <dc:source>https://github.com/sixsixfive</dc:source>
    <dc:subject>
     <rdf:Bag>
      <rdf:li>ivy</rdf:li>
     </rdf:Bag>
    </dc:subject>
    <dc:contributor>
     <cc:Agent>
      <dc:title>ssf</dc:title>
     </cc:Agent>
    </dc:contributor>
    <dc:rights>
     <cc:Agent>
      <dc:title>Sixsixfive (sixisixfive.deviantart.com)</dc:title>
     </cc:Agent>
    </dc:rights>
    <dc:description>A simple icon theme published under CC-BY-SA_V4(http://creativecommons.org/licenses/by-sa/4.0)</dc:description>
    <dc:identifier>SSF</dc:identifier>
   </cc:Work>
  </rdf:RDF>
 </metadata>
 <!--Part of the Ivy icon them published under the CC-BY-SA_V4: http://creativecommons.org/licenses/by-sa/4.0 -->
</svg>
