<?xml version="1.0" encoding="UTF-8" standalone="no"?>
<svg xmlns:dc="http://purl.org/dc/elements/1.1/" xmlns:cc="http://creativecommons.org/ns#" xmlns:rdf="http://www.w3.org/1999/02/22-rdf-syntax-ns#" xmlns:svg="http://www.w3.org/2000/svg" xmlns="http://www.w3.org/2000/svg" xmlns:xlink="http://www.w3.org/1999/xlink" viewBox="0 0 48 48" id="svg2" version="1.1">
 <defs id="0">
  <linearGradient id="9" y1="9.868" x1="45.932" y2="43.631" x2="46" gradientUnits="userSpaceOnUse">
   <stop stop-color="#5288d1" id="U"/>
   <stop offset="1" stop-color="#96b7e3" id="V"/>
  </linearGradient>
  <linearGradient id="A" xlink:href="#B" y1="-6.975" y2="47.556" x2="0" gradientUnits="userSpaceOnUse"/>
  <linearGradient id="B">
   <stop stop-color="#fff" id="W"/>
   <stop offset="1" stop-color="#fff" id="X" stop-opacity="0"/>
  </linearGradient>
  <linearGradient id="C" y1="3.993" x1="3.153" y2="22.971" x2="2.281" gradientUnits="userSpaceOnUse">
   <stop stop-color="#eeeeec" id="Y"/>
   <stop offset="1" stop-color="#555753" id="Z"/>
  </linearGradient>
  <linearGradient id="D" y1="1.614" y2="27.29" x2="0" gradientUnits="userSpaceOnUse">
   <stop stop-color="#fff" id="a"/>
   <stop offset="1" stop-color="#fff" id="b" stop-opacity="0"/>
  </linearGradient>
  <linearGradient id="E" y1="3" y2="44" x2="0" gradientUnits="userSpaceOnUse" gradientTransform="matrix(0.65798 0 0 0.66676 1.063 0.661)">
   <stop stop-color="#dedede" id="c"/>
   <stop offset="1" stop-color="#f4f4f4" id="d"/>
  </linearGradient>
 </defs>
 <g id="1" color="#000">
  <g id="F" fill-rule="evenodd">
   <path id="e" d="m 25.5938,10.9996 c -0.4155,0 -0.66341,0.271416 -0.84375,0.625 -0.06011,0.117861 -0.104813,0.246406 -0.15625,0.375 l -0.7812,2 -0.8125,2 c -0.05144,0.128594 -0.09614,0.257139 -0.15625,0.375 -0.18034,0.353584 -0.437757,0.713374 -0.84375,0.625 l -9.1875,0 -4.8125,0 -6,0 0,26.9064 c 0,0.554 0.446,1 1,1 l 42,0 c 0.554,0 1,-0.446 1,-1 l 0,-31.9064 c 0,-0.554 -0.480411,-0.807794 -1,-1 l -5.40625,0 -8.59375,0 z" opacity="0.2"/>
   <path id="f" d="m 6.3125,4 c -0.554,0 -0.79425,0.485624 -1,1 L 4.125,8 3,8 C 2.446,8 2,8.446 2,9 l 0,33.90625 c 0,0.554 0.446,1 1,1 l 42,0 c 0.554,0 1,-0.446 1,-1 L 46,9 C 46,8.446 45.554,8 45,8 L 22.5,8 21.3125,5 c -0.20575,-0.514376 -0.446,-1 -1,-1 l -14,0 z" fill="url(#C)"/>
  </g>
  <g id="G" fill="none">
   <path id="g" d="M 6.75,5.5312 C 6.282542,6.64501 5.947558,7.85158 5.34493,8.89708 5.0092,9.582545 5.04894,9.509033 4.125,9.531202 c -0.98392,-0.29644 -0.47047,0.90449 -0.59375,1.46869 0,10.4584 0,20.9167 0,31.3751 13.6458,0 27.2917,0 40.9375,0 0,-10.9479 0,-21.8958 0,-32.8438 -7.32292,0 -14.6458,0 -21.9688,0 -0.945545,0.04378 -0.945118,0.04927 -1.27707,-0.710328 -0.5437,-1.04535 -0.904326,-2.19797 -1.34793,-3.28967 -4.375,0 -8.75,0 -13.125,0 z" opacity="0.4" stroke="#fff" stroke-linejoin="round"/>
   <path id="h" d="m 6.3125,4.5312 c -0.119775,0 -0.134635,0.024243 -0.21875,0.125 C 6.00963,4.756957 5.910239,4.943101 5.8125,5.18745 l -1.1875,3 a 0.538141,0.538141 0 0 1 -0.5,0.34375 l -1.125,0 c -0.265207,0 -0.46875,0.203543 -0.46875,0.46875 l 0,33.9062 c 0,0.265207 0.203543,0.46875 0.46875,0.46875 l 42,0 c 0.265207,0 0.46875,-0.203543 0.46875,-0.46875 l 0,-33.9062 C 45.46875,8.734743 45.26521,8.5312 45,8.5312 l -22.5,0 A 0.538141,0.538141 0 0 1 22,8.18745 l -1.1875,-3 C 20.71476,4.943101 20.615365,4.756957 20.53125,4.6562 20.44713,4.555443 20.43228,4.5312 20.3125,4.5312 l -14,0 z" opacity="0.4" stroke="#000"/>
  </g>
  <path id="H" d="m 25.5938,9.9999 c -0.4155,0 -0.66341,0.271416 -0.84375,0.625 -0.06011,0.117861 -0.104813,0.246406 -0.15625,0.375 l -0.7812,2 -0.8125,2 c -0.05144,0.128594 -0.09614,0.257139 -0.15625,0.375 -0.18034,0.353584 -0.437757,0.713374 -0.84375,0.625 l -9.1875,0 -4.8125,0 -6,0 0,26.9064 c 0,0.554 0.446,1 1,1 l 42,0 c 0.554,0 1,-0.446 1,-1 l 0,-31.9064 c 0,-0.554 -0.480411,-0.807794 -1,-1 l -5.40625,0 -8.59375,0 z" fill="url(#9)" fill-rule="evenodd"/>
 </g>
 <rect width="1" x="24" opacity="0.1" y="18" rx="0.5" height="25" ry="1" id="2"/>
 <path opacity="0.5" fill="none" stroke="#000" id="3" color="#000" d="m 25.5938,10.5311 c -0.09055,0 -0.102741,0.01856 -0.15625,0.0625 -0.05351,0.04394 -0.14861,0.14373 -0.21875,0.28125 -0.03721,0.07296 -0.06756,0.168903 -0.125,0.3125 l -0.7812,2 -0.8125,2 c -0.04544,0.113584 -0.104492,0.274743 -0.1875,0.4375 -0.1102,0.216064 -0.249344,0.444835 -0.46875,0.625 -0.219406,0.180165 -0.526233,0.350365 -0.84375,0.28125 H 12.8126 8.0001 2.53135 v 26.3751 c 0,0.265114 0.203636,0.46875 0.46875,0.46875 h 42 c 0.265114,0 0.46875,-0.203636 0.46875,-0.46875 V 10.9998 c 0,-0.265114 -0.220103,-0.376771 -0.46875,-0.46875 H 39.59385 31.0001 z"/>
 <rect width="19" x="25" opacity="0.1" y="18" rx="1.233" height="1" ry="0.5" id="4"/>
 <path opacity="0.5" fill="none" stroke="url(#A)" stroke-linejoin="round" id="5" color="#000" d="m 26,11.4999 c -0.0077,0.01923 -0.02203,0.0082 -0.03125,0.03125 v 0.03125 l -0.7812,1.9688 c 1.09e-4,0.01042 1.09e-4,0.02083 0,0.03125 l -0.8125,2 c -0.03479,0.08698 -0.0639,0.257655 -0.1875,0.5 -0.145707,0.285681 -0.352303,0.605342 -0.71875,0.90625 -0.366447,0.300908 -0.948224,0.644555 -1.46875,0.53125 h -9.1875 -4.8125 -4.5 v 24.9064 h 41 V 11.49995 H 39.5938 31.00005 z"/>
 <g id="6" transform="translate(20,17.005)">
  <path d="m 5.806,2.9949999 21.385,0 c 0.446524,0 0.806,0.359476 0.806,0.806 l 0,26.3880001 c 0,0.446524 -0.359476,0.806 -0.806,0.806 l -21.385,0 C 5.359476,30.995 5,30.635524 5,30.189 L 5,3.8009999 c 0,-0.446524 0.359476,-0.806 0.806,-0.806 z" id="I" opacity="0.06"/>
  <path d="m 5.806,1.995 21.385,0 c 0.446524,0 0.806,0.359476 0.806,0.806 l 0,26.388 c 0,0.446524 -0.359476,0.806 -0.806,0.806 l -21.385,0 C 5.359476,29.995 5,29.635524 5,29.189 L 5,2.801 C 5,2.354476 5.359476,1.995 5.806,1.995 Z" id="J" fill="url(#E)"/>
  <g id="K" transform="matrix(0.99956,0,0,1.01258,-0.983,1.366)" fill="none" stroke-width="0.994">
   <path id="i" d="m 6.7812,1.1562 c -0.142866,0 -0.25,0.112596 -0.25,0.28125 l 0,26.0938 c 0,0.168654 0.08985,0.25 0.25,0.25 l 21.4688,0 c 0.154628,0 0.25,-0.09537 0.25,-0.25 l 0,-26.0938 C 28.5,1.282823 28.387343,1.1562 28.25,1.1562 l -21.4688,0 z" opacity="0.4" stroke="#000"/>
   <path id="j" d="m 7.5312,2.1562 0,24.625 19.9688,0 0,-24.625 -19.9688,0 z" opacity="0.7" stroke="url(#D)"/>
  </g>
  <path id="L" d="M 8,5 25,5 25,6 8,6 Z" opacity="0.3"/>
  <path id="M" d="m 8,8 10.06,0 0,1 L 8,9 Z" opacity="0.3"/>
  <path id="N" d="m 8,11 13,0 0,1 -13,0 z" opacity="0.3"/>
  <path id="O" d="M 8.07,14 22,14 22,15 8.07,15 Z" opacity="0.3"/>
  <path id="P" d="m 8,17 12,0 0,1 -12,0 z" opacity="0.3"/>
  <path id="Q" d="m 8,20 15,0 0,1 -15,0 z" opacity="0.3"/>
  <path id="R" d="m 8,23 13,0 0,1 -13,0 z" opacity="0.3"/>
  <path id="S" d="m 8,26 11,0 0,1 -11,0 z" opacity="0.3"/>
  <g id="T" fill="#fff">
   <path id="k" d="M 8,6 25,6 25,7 8,7 Z" opacity="0.3"/>
   <path id="l" d="m 8,9 10.06,0 0,1 L 8,10 Z" opacity="0.3"/>
   <path id="m" d="m 8,12 13,0 0,1 -13,0 z" opacity="0.3"/>
   <path id="n" d="M 8.07,15 22,15 22,16 8.07,16 Z" opacity="0.3"/>
   <path id="o" d="m 8,18 12,0 0,1 -12,0 z" opacity="0.3"/>
   <path id="p" d="m 8,21 15,0 0,1 -15,0 z" opacity="0.3"/>
   <path id="q" d="m 8,24 13,0 0,1 -13,0 z" opacity="0.3"/>
   <path id="r" d="m 8,27 11,0 0,1 -11,0 z" opacity="0.3"/>
  </g>
 </g>
 <rect width="1" x="25" opacity="0.22" y="19.996" rx="0.5" height="23" ry="0.92" id="7"/>
 <rect width="19" x="25.5" opacity="0.22" y="19" rx="1.233" height="1" ry="0.5" id="8"/>
 <metadata id="metadata9999">
  <rdf:RDF>
   <cc:Work>
    <dc:format>image/svg+xml</dc:format>
    <dc:type rdf:resource="http://purl.org/dc/dcmitype/StillImage"/>
    <dc:title>Ivy icon theme</dc:title>
    <cc:license rdf:resource="http://creativecommons.org/licenses/by-sa/4.0/"/>
    <dc:creator>
     <cc:Agent>
      <dc:title>Sixsixfive (sixsixfive.deviantart.com)</dc:title>
     </cc:Agent>
    </dc:creator>
    <dc:publisher>
     <cc:Agent>
      <dc:title>Sixsixfive (sixsixfive.deviantart.com)</dc:title>
     </cc:Agent>
    </dc:publisher>
    <dc:source>https://github.com/sixsixfive</dc:source>
    <dc:subject>
     <rdf:Bag>
      <rdf:li>ivy</rdf:li>
     </rdf:Bag>
    </dc:subject>
    <dc:contributor>
     <cc:Agent>
      <dc:title>ssf</dc:title>
     </cc:Agent>
    </dc:contributor>
    <dc:rights>
     <cc:Agent>
      <dc:title>Sixsixfive (sixisixfive.deviantart.com)</dc:title>
     </cc:Agent>
    </dc:rights>
    <dc:description>A simple icon theme published under CC-BY-SA_V4(http://creativecommons.org/licenses/by-sa/4.0)</dc:description>
    <dc:identifier>SSF</dc:identifier>
   </cc:Work>
  </rdf:RDF>
 </metadata>
 <!--Part of the Ivy icon them published under the CC-BY-SA_V4: http://creativecommons.org/licenses/by-sa/4.0 -->
</svg>
