<?xml version="1.0" encoding="UTF-8" standalone="no"?>
<svg xmlns:dc="http://purl.org/dc/elements/1.1/" xmlns:cc="http://creativecommons.org/ns#" xmlns:rdf="http://www.w3.org/1999/02/22-rdf-syntax-ns#" xmlns:svg="http://www.w3.org/2000/svg" xmlns="http://www.w3.org/2000/svg" xmlns:xlink="http://www.w3.org/1999/xlink" version="1.1" id="svg2" viewBox="0 0 48 48">
 <defs id="0">
  <linearGradient gradientUnits="userSpaceOnUse" x2="46" y2="43.631" x1="45.932" y1="9.868" id="9">
   <stop id="T" stop-color="#5288d1"/>
   <stop id="U" stop-color="#96b7e3" offset="1"/>
  </linearGradient>
  <linearGradient gradientUnits="userSpaceOnUse" x2="0" y2="47.556" y1="-6.975" xlink:href="#B" id="A"/>
  <linearGradient id="B">
   <stop id="V" stop-color="#fff"/>
   <stop stop-opacity="0" id="W" stop-color="#fff" offset="1"/>
  </linearGradient>
  <linearGradient gradientUnits="userSpaceOnUse" x2="2.281" y2="22.971" x1="3.153" y1="3.993" id="C">
   <stop id="X" stop-color="#eeeeec"/>
   <stop id="Y" stop-color="#555753" offset="1"/>
  </linearGradient>
  <linearGradient gradientUnits="userSpaceOnUse" x2="0" y2="21" y1="15" id="D">
   <stop id="Z" stop-color="#a2a2a2"/>
   <stop id="a" stop-color="#bbb" offset="1"/>
  </linearGradient>
  <linearGradient gradientUnits="userSpaceOnUse" x2="0" y2="27.29" y1="1.614" id="E">
   <stop id="b" stop-color="#fff"/>
   <stop stop-opacity="0" id="c" stop-color="#fff" offset="1"/>
  </linearGradient>
  <linearGradient gradientTransform="matrix(0.65798 0 0 0.66676 1.063 0.661)" gradientUnits="userSpaceOnUse" x2="0" y2="44" y1="3" id="F">
   <stop id="d" stop-color="#dedede"/>
   <stop id="e" stop-color="#f4f4f4" offset="1"/>
  </linearGradient>
 </defs>
 <g id="1" color="#000">
  <g id="G" fill-rule="evenodd">
   <path d="m 25.5938,10.9996 c -0.4155,0 -0.66341,0.271416 -0.84375,0.625 -0.06011,0.117861 -0.104813,0.246406 -0.15625,0.375 l -0.7812,2 -0.8125,2 c -0.05144,0.128594 -0.09614,0.257139 -0.15625,0.375 -0.18034,0.353584 -0.437757,0.713374 -0.84375,0.625 l -9.1875,0 -4.8125,0 -6,0 0,26.9064 c 0,0.554 0.446,1 1,1 l 42,0 c 0.554,0 1,-0.446 1,-1 l 0,-31.9064 c 0,-0.554 -0.480411,-0.807794 -1,-1 l -5.40625,0 -8.59375,0 z" id="f" opacity="0.2"/>
   <path d="m 6.3125,4 c -0.554,0 -0.79425,0.485624 -1,1 L 4.125,8 3,8 C 2.446,8 2,8.446 2,9 l 0,33.90625 c 0,0.554 0.446,1 1,1 l 42,0 c 0.554,0 1,-0.446 1,-1 L 46,9 C 46,8.446 45.554,8 45,8 L 22.5,8 21.3125,5 c -0.20575,-0.514376 -0.446,-1 -1,-1 l -14,0 z" id="g" fill="url(#C)"/>
  </g>
  <g id="H" fill="none">
   <path d="M 6.75,5.5312 C 6.282542,6.64501 5.947558,7.85158 5.34493,8.89708 5.0092,9.582545 5.04894,9.509033 4.125,9.531202 c -0.98392,-0.29644 -0.47047,0.90449 -0.59375,1.46869 0,10.4584 0,20.9167 0,31.3751 13.6458,0 27.2917,0 40.9375,0 0,-10.9479 0,-21.8958 0,-32.8438 -7.32292,0 -14.6458,0 -21.9688,0 -0.945545,0.04378 -0.945118,0.04927 -1.27707,-0.710328 -0.5437,-1.04535 -0.904326,-2.19797 -1.34793,-3.28967 -4.375,0 -8.75,0 -13.125,0 z" id="h" opacity="0.4" stroke="#fff" stroke-linejoin="round"/>
   <path d="m 6.3125,4.5312 c -0.119775,0 -0.134635,0.024243 -0.21875,0.125 C 6.00963,4.756957 5.910239,4.943101 5.8125,5.18745 l -1.1875,3 a 0.538141,0.538141 0 0 1 -0.5,0.34375 l -1.125,0 c -0.265207,0 -0.46875,0.203543 -0.46875,0.46875 l 0,33.9062 c 0,0.265207 0.203543,0.46875 0.46875,0.46875 l 42,0 c 0.265207,0 0.46875,-0.203543 0.46875,-0.46875 l 0,-33.9062 C 45.46875,8.734743 45.26521,8.5312 45,8.5312 l -22.5,0 A 0.538141,0.538141 0 0 1 22,8.18745 l -1.1875,-3 C 20.71476,4.943101 20.615365,4.756957 20.53125,4.6562 20.44713,4.555443 20.43228,4.5312 20.3125,4.5312 l -14,0 z" id="i" opacity="0.4" stroke="#000"/>
  </g>
  <path d="m 25.5938,9.9999 c -0.4155,0 -0.66341,0.271416 -0.84375,0.625 -0.06011,0.117861 -0.104813,0.246406 -0.15625,0.375 l -0.7812,2 -0.8125,2 c -0.05144,0.128594 -0.09614,0.257139 -0.15625,0.375 -0.18034,0.353584 -0.437757,0.713374 -0.84375,0.625 l -9.1875,0 -4.8125,0 -6,0 0,26.9064 c 0,0.554 0.446,1 1,1 l 42,0 c 0.554,0 1,-0.446 1,-1 l 0,-31.9064 c 0,-0.554 -0.480411,-0.807794 -1,-1 l -5.40625,0 -8.59375,0 z" id="I" fill="url(#9)" fill-rule="evenodd"/>
 </g>
 <rect id="2" ry="1" height="25" rx="0.5" y="18" opacity="0.1" x="24" width="1"/>
 <path d="m 25.5938,10.5311 c -0.09055,0 -0.102741,0.01856 -0.15625,0.0625 -0.05351,0.04394 -0.14861,0.14373 -0.21875,0.28125 -0.03721,0.07296 -0.06756,0.168903 -0.125,0.3125 l -0.7812,2 -0.8125,2 c -0.04544,0.113584 -0.104492,0.274743 -0.1875,0.4375 -0.1102,0.216064 -0.249344,0.444835 -0.46875,0.625 -0.219406,0.180165 -0.526233,0.350365 -0.84375,0.28125 H 12.8126 8.0001 2.53135 v 26.3751 c 0,0.265114 0.203636,0.46875 0.46875,0.46875 h 42 c 0.265114,0 0.46875,-0.203636 0.46875,-0.46875 V 10.9998 c 0,-0.265114 -0.220103,-0.376771 -0.46875,-0.46875 H 39.59385 31.0001 z" color="#000" id="3" stroke="#000" fill="none" opacity="0.5"/>
 <rect id="4" ry="0.5" height="1" rx="1.233" y="18" opacity="0.1" x="25" width="19"/>
 <path d="m 26,11.4999 c -0.0077,0.01923 -0.02203,0.0082 -0.03125,0.03125 v 0.03125 l -0.7812,1.9688 c 1.09e-4,0.01042 1.09e-4,0.02083 0,0.03125 l -0.8125,2 c -0.03479,0.08698 -0.0639,0.257655 -0.1875,0.5 -0.145707,0.285681 -0.352303,0.605342 -0.71875,0.90625 -0.366447,0.300908 -0.948224,0.644555 -1.46875,0.53125 h -9.1875 -4.8125 -4.5 v 24.9064 h 41 V 11.49995 H 39.5938 31.00005 z" color="#000" id="5" stroke-linejoin="round" stroke="url(#A)" fill="none" opacity="0.5"/>
 <g transform="translate(20,17.005)" id="6">
  <path id="J" d="m 5.806,2.9949999 21.385,0 c 0.446524,0 0.806,0.359476 0.806,0.806 l 0,26.3880001 c 0,0.446524 -0.359476,0.806 -0.806,0.806 l -21.385,0 C 5.359476,30.995 5,30.635524 5,30.189 L 5,3.8009999 c 0,-0.446524 0.359476,-0.806 0.806,-0.806 z" opacity="0.06"/>
  <path id="K" d="m 5.806,1.995 21.385,0 c 0.446524,0 0.806,0.359476 0.806,0.806 l 0,26.388 c 0,0.446524 -0.359476,0.806 -0.806,0.806 l -21.385,0 C 5.359476,29.995 5,29.635524 5,29.189 L 5,2.801 C 5,2.354476 5.359476,1.995 5.806,1.995 Z" fill="url(#F)"/>
  <path d="m 12,16 0,2 1,0 0,4 6,0 0,-4 1,0 0,-2 -4,0 -2,0 -2,0 z" id="L" opacity="0.1"/>
  <path d="m 13,2 6,0 0,14 -6,0 z" id="M" opacity="0.66" fill="#6a6a6a"/>
  <g id="N" fill="#171717">
   <path d="m 16,2 2,0 0,1 -2,0 z" id="j" opacity="0.66"/>
   <path d="m 14,3 2,0 0,1 -2,0 z" id="k" opacity="0.66"/>
   <path d="m 16,4 2,0 0,1 -2,0 z" id="l" opacity="0.66"/>
   <path d="m 14,5 2,0 0,1 -2,0 z" id="m" opacity="0.66"/>
   <path d="m 16,6 2,0 0,1 -2,0 z" id="n" opacity="0.66"/>
   <path d="m 14,7 2,0 0,1 -2,0 z" id="o" opacity="0.66"/>
   <path d="m 16,8 2,0 0,1 -2,0 z" id="p" opacity="0.66"/>
   <path d="m 14,9 2,0 0,1 -2,0 z" id="q" opacity="0.66"/>
   <path d="m 16,10 2,0 0,1 -2,0 z" id="r" opacity="0.66"/>
   <path d="m 14,11 2,0 0,1 -2,0 z" id="s" opacity="0.66"/>
   <path d="m 16,12 2,0 0,1 -2,0 z" id="t" opacity="0.66"/>
   <path d="m 14,13 2,0 0,1 -2,0 z" id="u" opacity="0.66"/>
   <path d="m 16,14 2,0 0,1 -2,0 z" id="v" opacity="0.66"/>
  </g>
  <path d="m 12,15 0,2 1,0 0,4 6,0 0,-4 1,0 0,-2 -4,0 -2,0 -2,0 z" id="O" fill="url(#D)"/>
  <g transform="matrix(-1,0,0,1,32,0)" id="P" opacity="0.689" fill="#fff">
   <path d="m 15,2 2,0 0,14 -2,0 z" id="w" opacity="0.66"/>
   <use y="0" x="0" xlink:href="#j" id="x" height="1" width="1"/>
   <use y="0" x="0" xlink:href="#k" id="y" height="1" width="1"/>
   <use y="0" x="0" xlink:href="#l" id="z" height="1" width="1"/>
   <use y="0" x="0" xlink:href="#m" id="10" height="1" width="1"/>
   <use y="0" x="0" xlink:href="#n" id="11" height="1" width="1"/>
   <use y="0" x="0" xlink:href="#o" id="12" height="1" width="1"/>
   <use y="0" x="0" xlink:href="#p" id="13" height="1" width="1"/>
   <use y="0" x="0" xlink:href="#q" id="14" height="1" width="1"/>
   <use y="0" x="0" xlink:href="#s" id="15" height="1" width="1"/>
   <use y="0" x="0" xlink:href="#t" id="16" height="1" width="1"/>
   <use y="0" x="0" xlink:href="#u" id="17" height="1" width="1"/>
   <use y="0" x="0" xlink:href="#v" id="18" height="1" width="1"/>
   <path d="m 14,15 2,0 0,1 -2,0 z" id="19" opacity="0.66"/>
  </g>
  <path d="m 15,2 2,0 0,14 -2,0 z" id="Q" opacity="0.66" fill="#171717"/>
  <g id="R" fill="none">
   <g transform="matrix(0.99956,0,0,1.01258,-0.983,1.366)" id="1A" stroke-width="0.994">
    <path d="m 6.7812,1.1562 c -0.142866,0 -0.25,0.112596 -0.25,0.28125 l 0,26.0938 c 0,0.168654 0.08985,0.25 0.25,0.25 l 21.4688,0 c 0.154628,0 0.25,-0.09537 0.25,-0.25 l 0,-26.0938 C 28.5,1.282823 28.387343,1.1562 28.25,1.1562 l -21.4688,0 z" id="1F" opacity="0.4" stroke="#000"/>
    <path d="m 7.5312,2.1562 0,24.625 19.9688,0 0,-24.625 -19.9688,0 z" id="1G" opacity="0.7" stroke="url(#E)"/>
   </g>
   <path d="m 12.5312,15.5312 0,0.9375 0.4688,0 a 0.54206,0.54206 0 0 1 0.53125,0.53125 l 0,3.46875 4.9375,0 0,-3.46875 A 0.54206,0.54206 0 0 1 19,16.4687 l 0.46875,0 0,-0.9375 -3.46875,0 -2,0 -1.46875,0 z" id="1B" opacity="0.4" stroke="#000"/>
  </g>
  <g id="S" fill="#fff">
   <path d="m 15,18 2,0 0,1 -2,0 z" id="1C" opacity="0.884"/>
   <path id="1D" d="m 14.5,16 3,0 c 0.277,0 0.5,0.223 0.5,0.5 0,0.277 -0.223,0.5 -0.5,0.5 l -3,0 C 14.223,17 14,16.777 14,16.5 14,16.223 14.223,16 14.5,16 Z" opacity="0.47"/>
   <path id="1E" d="m 13.56,13.995 4.828,0 c 0.277,0 0.5,0.223 0.5,0.5 0,0.277 -0.223,0.5 -0.5,0.5 l -4.828,0 c -0.277,0 -0.5,-0.223 -0.5,-0.5 0,-0.277 0.223,-0.5 0.5,-0.5 z" opacity="0.47"/>
  </g>
 </g>
 <rect id="7" ry="0.92" height="23" rx="0.5" y="19.996" opacity="0.22" x="25" width="1"/>
 <rect id="8" ry="0.5" height="1" rx="1.233" y="19" opacity="0.22" x="25.5" width="19"/>
 <metadata id="metadata9999">
  <rdf:RDF>
   <cc:Work>
    <dc:format>image/svg+xml</dc:format>
    <dc:type rdf:resource="http://purl.org/dc/dcmitype/StillImage"/>
    <dc:title>Ivy icon theme</dc:title>
    <cc:license rdf:resource="http://creativecommons.org/licenses/by-sa/4.0/"/>
    <dc:creator>
     <cc:Agent>
      <dc:title>Sixsixfive (sixsixfive.deviantart.com)</dc:title>
     </cc:Agent>
    </dc:creator>
    <dc:publisher>
     <cc:Agent>
      <dc:title>Sixsixfive (sixsixfive.deviantart.com)</dc:title>
     </cc:Agent>
    </dc:publisher>
    <dc:source>https://github.com/sixsixfive</dc:source>
    <dc:subject>
     <rdf:Bag>
      <rdf:li>ivy</rdf:li>
     </rdf:Bag>
    </dc:subject>
    <dc:contributor>
     <cc:Agent>
      <dc:title>ssf</dc:title>
     </cc:Agent>
    </dc:contributor>
    <dc:rights>
     <cc:Agent>
      <dc:title>Sixsixfive (sixisixfive.deviantart.com)</dc:title>
     </cc:Agent>
    </dc:rights>
    <dc:description>A simple icon theme published under CC-BY-SA_V4(http://creativecommons.org/licenses/by-sa/4.0)</dc:description>
    <dc:identifier>SSF</dc:identifier>
   </cc:Work>
  </rdf:RDF>
 </metadata>
 <!--Part of the Ivy icon them published under the CC-BY-SA_V4: http://creativecommons.org/licenses/by-sa/4.0 -->
</svg>
