<?xml version="1.0" encoding="UTF-8" standalone="no"?><svg xmlns:rdf="http://www.w3.org/1999/02/22-rdf-syntax-ns#" xmlns:cc="http://creativecommons.org/ns#" xmlns:svg="http://www.w3.org/2000/svg" id="svg2" viewBox="0 0 48 48" version="1.1" xmlns:xlink="http://www.w3.org/1999/xlink" xmlns:dc="http://purl.org/dc/elements/1.1/" xmlns="http://www.w3.org/2000/svg"><defs id="defs4"><linearGradient id="0" x2="0" y2="27.313" xlink:href="#4" y1="4.063" gradientUnits="userSpaceOnUse"/><linearGradient id="1" x2="46" y2="43.631" x1="45.932" y1="9.868" gradientUnits="userSpaceOnUse"><stop id="stop8" stop-color="#5288d1"/><stop offset="1" id="stop10" stop-color="#96b7e3"/></linearGradient><linearGradient id="2" x2="45.33" y2="43.08" gradientTransform="matrix(0.66667 0 0 0.68572 -0.037 -0.428)" x1="45.29" y1="5.246" gradientUnits="userSpaceOnUse"><stop id="stop13" stop-color="#66b03e"/><stop offset="1" id="stop15" stop-color="#95ce76"/></linearGradient><linearGradient id="3" x2="2.281" y2="22.971" x1="3.153" y1="3.993" gradientUnits="userSpaceOnUse"><stop id="stop18" stop-color="#eeeeec"/><stop offset="1" id="stop20" stop-color="#555753"/></linearGradient><linearGradient id="4"><stop id="stop23" stop-color="#fff"/><stop offset="1" id="stop25" stop-color="#fff" stop-opacity="0"/></linearGradient><linearGradient id="5" x2="0" y2="47.556" xlink:href="#4" y1="-6.975" gradientUnits="userSpaceOnUse"/></defs><g id="g28" color="#000"><g id="g30" fill-rule="evenodd"><path id="path32" opacity="0.2" d="m 25.5938,10.9996 c -0.4155,0 -0.66341,0.271416 -0.84375,0.625 -0.06011,0.117861 -0.104813,0.246406 -0.15625,0.375 l -0.7812,2 -0.8125,2 c -0.05144,0.128594 -0.09614,0.257139 -0.15625,0.375 -0.18034,0.353584 -0.437757,0.713374 -0.84375,0.625 l -9.1875,0 -4.8125,0 -6,0 0,26.9064 c 0,0.554 0.446,1 1,1 l 42,0 c 0.554,0 1,-0.446 1,-1 l 0,-31.9064 c 0,-0.554 -0.480411,-0.807794 -1,-1 l -5.40625,0 -8.59375,0 z"/><path id="path34" d="m 6.3125,4 c -0.554,0 -0.79425,0.485624 -1,1 L 4.125,8 3,8 C 2.446,8 2,8.446 2,9 l 0,33.90625 c 0,0.554 0.446,1 1,1 l 42,0 c 0.554,0 1,-0.446 1,-1 L 46,9 C 46,8.446 45.554,8 45,8 L 22.5,8 21.3125,5 c -0.20575,-0.514376 -0.446,-1 -1,-1 l -14,0 z" fill="url(#3)"/></g><g id="g36" fill="none"><path id="path38" opacity="0.4" d="M 6.75,5.5312 C 6.282542,6.64501 5.947558,7.85158 5.34493,8.89708 5.0092,9.582545 5.04894,9.509033 4.125,9.531202 c -0.98392,-0.29644 -0.47047,0.90449 -0.59375,1.46869 0,10.4584 0,20.9167 0,31.3751 13.6458,0 27.2917,0 40.9375,0 0,-10.9479 0,-21.8958 0,-32.8438 -7.32292,0 -14.6458,0 -21.9688,0 -0.945545,0.04378 -0.945118,0.04927 -1.27707,-0.710328 -0.5437,-1.04535 -0.904326,-2.19797 -1.34793,-3.28967 -4.375,0 -8.75,0 -13.125,0 z" stroke="#fff" stroke-linejoin="round"/><path id="path40" opacity="0.4" d="m 6.3125,4.5312 c -0.119775,0 -0.134635,0.024243 -0.21875,0.125 C 6.00963,4.756957 5.910239,4.943101 5.8125,5.18745 l -1.1875,3 a 0.538141,0.538141 0 0 1 -0.5,0.34375 l -1.125,0 c -0.265207,0 -0.46875,0.203543 -0.46875,0.46875 l 0,33.9062 c 0,0.265207 0.203543,0.46875 0.46875,0.46875 l 42,0 c 0.265207,0 0.46875,-0.203543 0.46875,-0.46875 l 0,-33.9062 C 45.46875,8.734743 45.26521,8.5312 45,8.5312 l -22.5,0 A 0.538141,0.538141 0 0 1 22,8.18745 l -1.1875,-3 C 20.71476,4.943101 20.615365,4.756957 20.53125,4.6562 20.44713,4.555443 20.43228,4.5312 20.3125,4.5312 l -14,0 z" stroke="#000"/></g><path id="path42" d="m 25.5938,9.9999 c -0.4155,0 -0.66341,0.271416 -0.84375,0.625 -0.06011,0.117861 -0.104813,0.246406 -0.15625,0.375 l -0.7812,2 -0.8125,2 c -0.05144,0.128594 -0.09614,0.257139 -0.15625,0.375 -0.18034,0.353584 -0.437757,0.713374 -0.84375,0.625 l -9.1875,0 -4.8125,0 -6,0 0,26.9064 c 0,0.554 0.446,1 1,1 l 42,0 c 0.554,0 1,-0.446 1,-1 l 0,-31.9064 c 0,-0.554 -0.480411,-0.807794 -1,-1 l -5.40625,0 -8.59375,0 z" fill-rule="evenodd" fill="url(#1)"/><path id="path44" opacity="0.5" d="m 25.5938,10.5311 c -0.09055,0 -0.102741,0.01856 -0.15625,0.0625 -0.05351,0.04394 -0.14861,0.14373 -0.21875,0.28125 -0.03721,0.07296 -0.06756,0.168903 -0.125,0.3125 l -0.7812,2 -0.8125,2 c -0.04544,0.113584 -0.104492,0.274743 -0.1875,0.4375 -0.1102,0.216064 -0.249344,0.444835 -0.46875,0.625 -0.219406,0.180165 -0.526233,0.350365 -0.84375,0.28125 l -9.1875,0 -4.8125,0 -5.46875,0 0,26.3751 c 0,0.265114 0.203636,0.46875 0.46875,0.46875 l 42,0 c 0.265114,0 0.46875,-0.203636 0.46875,-0.46875 l 0,-31.9064 c 0,-0.265114 -0.220103,-0.376771 -0.46875,-0.46875 l -5.40625,0 -8.59375,0 z" stroke="#000" fill="none"/></g><path id="path46" opacity="0.1" d="M 28,20 H40 V36 H28 z"/><path id="path48" opacity="0.5" d="m 26 11.4999 c -0.0077 0.01923 -0.02203 0.0082 -0.03125 0.03125 v 0.03125 l -0.7812 1.9688 c 0.000109 0.01042 0.000109 0.02083 0 0.03125 l -0.8125 2 c -0.03479 0.08698 -0.0639 0.257655 -0.1875 0.5 -0.145707 0.285681 -0.352303 0.605342 -0.71875 0.90625 -0.366447 0.300908 -0.948224 0.644555 -1.46875 0.53125 h -9.1875 h -4.8125 h -4.5 v 24.9064 h 41 v -30.9064 h -4.90625 h -8.59375 z" stroke="url(#5)" stroke-linejoin="round" fill="none" color="#000"/><path id="path50" opacity="0.1" d="M 27,21 H39 V37 H27 z"/><path id="path52" opacity="0.1" d="M 29,21 H41 V37 H29 z"/><g id="g54" transform="matrix(1 0 0 1 18 18)"><path id="path56" opacity="0.1" d="m 2,16 c 8,0 0,0 8,0 l 0,-12 6,5 6,-5 0,12 8,0 -14,14 z"/><path id="path58" d="m 2,15 c 8,0 0,0 8,0 l 0,-12 6,0 6,0 0,12 8,0 -14,14 z" fill="url(#2)"/><g id="g60" fill="none"><path id="path62" opacity="0.4" d="m 10.5625,3.5625 0,11.4375 A 0.562556,0.562556 0 0 1 10,15.5625 l -6.625,0 12.625,12.625 12.625,-12.625 -6.625,0 A 0.562556,0.562556 0 0 1 21.4375,15 l 0,-11.4375 -5.4375,0 -5.4375,0 z" stroke="#000"/><path id="path64" opacity="0.4" d="m 11.5625,4.5625 0,10.4375 A 1.562656,1.562656 0 0 1 10,16.5625 l -4.25,0 10.25,10.25 10.25,-10.25 -4.25,0 A 1.562656,1.562656 0 0 1 20.4375,15 l 0,-10.4375 -4.4375,0 -4.4375,0 z" stroke="url(#0)"/></g></g><path id="path66" opacity="0.1" d="M 21,32 H27 V33 H21 z"/><path id="path68" opacity="0.1" d="M 41,32 H44 V33 H41 z"/><metadata id="metadata9999"><rdf:RDF><cc:Work><dc:format>image/svg+xml</dc:format><dc:type rdf:resource="http://purl.org/dc/dcmitype/StillImage"/><dc:title>Ivy icon theme</dc:title><cc:license rdf:resource="http://creativecommons.org/licenses/by-sa/4.0/"/><dc:creator><cc:Agent><dc:title>Sixsixfive (sixsixfive.deviantart.com)</dc:title></cc:Agent></dc:creator><dc:publisher><cc:Agent><dc:title>Sixsixfive (sixsixfive.deviantart.com)</dc:title></cc:Agent></dc:publisher><dc:source>https://github.com/sixsixfive</dc:source><dc:subject><rdf:Bag><rdf:li>ivy</rdf:li></rdf:Bag></dc:subject><dc:contributor><cc:Agent><dc:title>ssf</dc:title></cc:Agent></dc:contributor><dc:rights><cc:Agent><dc:title>Sixsixfive (sixisixfive.deviantart.com)</dc:title></cc:Agent></dc:rights><dc:description>A simple icon theme published under CC-BY-SA_V4(http://creativecommons.org/licenses/by-sa/4.0)</dc:description><dc:identifier>SSF</dc:identifier></cc:Work></rdf:RDF></metadata><!--Part of the Ivy icon them published under the CC-BY-SA_V4: http://creativecommons.org/licenses/by-sa/4.0 -->
</svg>