<?xml version="1.0" encoding="UTF-8" standalone="no"?>
<svg xmlns:dc="http://purl.org/dc/elements/1.1/" xmlns:cc="http://creativecommons.org/ns#" xmlns:rdf="http://www.w3.org/1999/02/22-rdf-syntax-ns#" xmlns:svg="http://www.w3.org/2000/svg" xmlns="http://www.w3.org/2000/svg" xmlns:xlink="http://www.w3.org/1999/xlink" viewBox="0 0 48 48" id="svg2" version="1.1">
 <path d="M 38.6117,27.79805 C 39.536317,29.57756 40,31.73252 40,34.19257 c 0,2.37219 -0.508277,4.49695 -1.523928,6.23179 -1.015948,1.73573 -2.372669,3.19824 -3.998615,4.31867 -1.625342,1.12042 -3.502554,1.91901 -5.556451,2.4688 C 26.865581,47.76043 24.763553,48 22.687052,48 18.532224,48 15.334043,47.35842 12.512234,45.86601 9.2915917,44.37271 4.9138454,39.78898 5.0012897,39.07884 5.1150002,38.15542 7,36 9.082,34.056142 c 0.9115913,-0.851106 1.120327,-1.48847 2.214571,-0.54428 0,0 0.857855,0.514488 1.806,1.239098 0.948134,0.72551 2.011005,1.22096 3.117987,1.76956 1.105752,0.55038 1.764046,0.85851 3.09646,1.24497 1.151874,0.35263 2.441099,0.49213 3.43475,0.49213 0.992739,0 1.654889,-0.36127 2.124029,-0.77473 0.518666,-0.4571 0.670529,-0.93957 0.670529,-1.90632 0,-0.83392 -0.717595,-1.80127 -1.642212,-2.54911 C 22.978276,32.28141 21.935077,31.64329 20.55808,30.82963 19.180159,30.01686 17.653913,29.06822 16.051485,28.12262 14.448143,27.17851 12.95843,25.99875 11.581422,24.72465 10.203204,23.45114 9.2330801,22.2723 8.307858,20.62532 7.3820103,18.97774 7.047,17.14885 7.047,14.99586 7.047,12.88695 7.1805887,10.83056 7.9934029,9.24881 8.8062273,7.66705 9.900677,6.33904 11.278598,5.2621 12.655298,4.18635 14.247029,3.37387 16.053505,2.82349 17.859058,2.27489 19.778865,2 21.810762,2 c 4.082706,0 6.706786,0.57802 9.393274,1.76729 3.628141,1.50809 5.53695,3.48325 7.508735,5.23547 0.768569,0.68299 0.07632,1.489263 -0.295542,2.11332 -0.944666,1.58532 -1.751343,3.182729 -2.4765,4.30446 -0.353839,0.65677 -1.007877,0.9038 -1.550368,0.44604 0,0 -1.340978,-1.10817 -2.424443,-1.79019 -1.083752,-0.67994 -2.108685,-1.19125 -3.146941,-1.67492 -1.039158,-0.48307 -1.97398,-0.77488 -2.876607,-1.01672 -0.903849,-0.24094 -1.620685,-0.32713 -2.298189,-0.32713 -0.812825,0 -1.484288,0.03317 -1.867326,0.42838 -0.384269,0.39522 -0.822957,0.95927 -0.802855,1.57397 0.0362,1.10835 0.508389,1.31471 1.579444,2.31346 0.924617,0.68143 1.653351,1.17176 3.524246,2.14394 1.398484,0.7267 2.900925,1.53797 4.504277,2.43831 1.602429,0.90092 3.212734,2.05894 4.612952,3.33244 1.39991,1.2756 2.490328,2.73101 3.416781,4.50993 z" id="path4180" opacity="0.15" stroke-dasharray="none" stroke-opacity="1" fill="#000" display="inline" stroke="none" fill-opacity="1" stroke-width="0.2625" stroke-miterlimit="4"/>
 <defs id="defs4">
  <linearGradient id="linearGradient4196">
   <stop id="stop4198" stop-color="#fff" stop-opacity="1"/>
   <stop offset="1" id="stop4200" stop-color="#fff" stop-opacity="0"/>
  </linearGradient>
  <linearGradient id="linearGradient4182">
   <stop id="stop4184" stop-color="#ffd506" stop-opacity="1"/>
   <stop offset="1" id="stop4186" stop-color="#579635" stop-opacity="1"/>
  </linearGradient>
  <linearGradient xlink:href="#linearGradient4182" id="linearGradient4188" x1="24.427177" y1="-42.492264" x2="33.14643" y2="64.4994" gradientUnits="userSpaceOnUse"/>
  <linearGradient xlink:href="#linearGradient4196" id="linearGradient4202" x1="39.07447" y1="2.302387" x2="38.970703" y2="45.874016" gradientUnits="userSpaceOnUse"/>
 </defs>
 <metadata id="metadata9999">
  <rdf:RDF>
   <cc:Work>
    <dc:format>image/svg+xml</dc:format>
    <dc:type rdf:resource="http://purl.org/dc/dcmitype/StillImage"/>
    <dc:title/>
    <cc:license rdf:resource="http://creativecommons.org/licenses/by-sa/4.0/"/>
    <dc:creator>
     <cc:Agent>
      <dc:title>Sixsixfive (sixsixfive.deviantart.com)</dc:title>
     </cc:Agent>
    </dc:creator>
    <dc:publisher>
     <cc:Agent>
      <dc:title>Sixsixfive (sixsixfive.deviantart.com)</dc:title>
     </cc:Agent>
    </dc:publisher>
    <dc:source>https://github.com/sixsixfive</dc:source>
    <dc:subject>
     <rdf:Bag>
      <rdf:li>ivy</rdf:li>
     </rdf:Bag>
    </dc:subject>
    <dc:contributor>
     <cc:Agent>
      <dc:title>ssf</dc:title>
     </cc:Agent>
    </dc:contributor>
    <dc:rights>
     <cc:Agent>
      <dc:title>Sixsixfive (sixisixfive.deviantart.com)</dc:title>
     </cc:Agent>
    </dc:rights>
    <dc:description>A simple icon theme published under CC-BY-SA_V4(http://creativecommons.org/licenses/by-sa/4.0)</dc:description>
    <dc:identifier>SSF</dc:identifier>
   </cc:Work>
  </rdf:RDF>
 </metadata>
 <!--Part of the Ivy icon them published under the CC-BY-SA_V4: http://creativecommons.org/licenses/by-sa/4.0 -->
 <path id="path3268" d="M 38.6117,26.79805 C 39.536317,28.57756 40,30.73252 40,33.19257 c 0,2.37219 -0.508277,4.49695 -1.523928,6.23179 -1.015948,1.73573 -2.372669,3.19824 -3.998615,4.31867 -1.625342,1.12042 -3.502554,1.91901 -5.556451,2.4688 C 26.865581,46.76043 24.763553,47 22.687052,47 18.532224,47 15.334043,46.35842 12.512234,44.86601 9.2915917,43.37271 4.9138454,38.78898 5.0012897,38.07884 5.1150002,37.15542 7,35 9.082,33.056142 c 0.9115913,-0.851106 1.120327,-1.48847 2.214571,-0.54428 0,0 0.857855,0.514488 1.806,1.239098 0.948134,0.72551 2.011005,1.22096 3.117987,1.76956 1.105752,0.55038 1.764046,0.85851 3.09646,1.24497 1.151874,0.35263 2.441099,0.49213 3.43475,0.49213 0.992739,0 1.654889,-0.36127 2.124029,-0.77473 0.518666,-0.4571 0.670529,-0.93957 0.670529,-1.90632 0,-0.83392 -0.717595,-1.80127 -1.642212,-2.54911 C 22.978276,31.28141 21.935077,30.64329 20.55808,29.82963 19.180159,29.01686 17.653913,28.06822 16.051485,27.12262 14.448143,26.17851 12.95843,24.99875 11.581422,23.72465 10.203204,22.45114 9.2330801,21.2723 8.307858,19.62532 7.3820103,17.97774 7.047,16.14885 7.047,13.99586 7.047,11.88695 7.1805887,9.83056 7.9934029,8.24881 8.8062273,6.66705 9.900677,5.33904 11.278598,4.2621 12.655298,3.18635 14.247029,2.37387 16.053505,1.82349 17.859058,1.27489 19.778865,1 21.810762,1 c 4.082706,0 6.706786,0.57802 9.393274,1.76729 3.628141,1.50809 5.53695,3.48325 7.508735,5.23547 0.768569,0.68299 0.07632,1.4892627 -0.295542,2.11332 -0.944666,1.58532 -1.751343,3.182729 -2.4765,4.30446 -0.353839,0.65677 -1.007877,0.9038 -1.550368,0.44604 0,0 -1.340978,-1.10817 -2.424443,-1.79019 -1.083752,-0.67994 -2.108685,-1.19125 -3.146941,-1.67492 -1.039158,-0.48307 -1.97398,-0.77488 -2.876607,-1.01672 -0.903849,-0.24094 -1.620685,-0.32713 -2.298189,-0.32713 -0.812825,0 -1.484288,0.03317 -1.867326,0.42838 -0.384269,0.39522 -0.822957,0.95927 -0.802855,1.57397 0.0362,1.10835 0.508389,1.31471 1.579444,2.31346 0.924617,0.68143 1.653351,1.17176 3.524246,2.14394 1.398484,0.7267 2.900925,1.53797 4.504277,2.43831 1.602429,0.90092 3.212734,2.05894 4.612952,3.33244 1.39991,1.2756 2.490328,2.73101 3.416781,4.50993 z" opacity="1" stroke-dasharray="none" stroke-opacity="1" fill="url(#linearGradient4188)" display="inline" stroke="none" fill-opacity="1" stroke-width="0.2625" stroke-miterlimit="4"/>
 <path id="path4192" d="m 21.810547,1.5390625 c -1.983221,0 -3.849605,0.2684658 -5.601563,0.8007813 -1.749641,0.5330641 -3.275951,1.3129263 -4.597656,2.3457031 -1.317764,1.0299229 -2.3596578,2.292629 -3.1386718,3.8085937 -0.7371196,1.4344471 -0.8867187,3.4159204 -0.8867187,5.5019534 0,2.097009 0.3216375,3.817449 1.1914063,5.365234 0.900271,1.602565 1.8208772,2.722197 3.1699222,3.96875 1.356712,1.255322 2.817116,2.411586 4.376953,3.330078 1.609194,0.949593 3.137826,1.898942 4.507812,2.707032 1.380544,0.815756 2.44721,1.464282 3.410157,2.240234 a 0.53831852,0.53831852 0 0 1 0,0.002 c 0.995098,0.804847 1.843749,1.823932 1.84375,2.966797 0,0.511809 -0.0383,0.9336 -0.171876,1.320312 -0.133577,0.386712 -0.373518,0.716966 -0.683593,0.990235 -0.540444,0.4763 -1.354951,0.910156 -2.478516,0.910156 -1.04405,0 -2.372325,-0.141703 -3.59375,-0.515625 -1.353366,-0.393114 -2.068959,-0.726456 -3.175781,-1.277344 l -0.002,0 C 14.880751,35.458937 13.78479,34.94863 12.777344,34.177734 11.856236,33.473787 11.019531,32.972656 11.019531,32.972656 a 0.53831852,0.53831852 0 0 1 -0.07422,-0.05273 c -0.244443,-0.210923 -0.414695,-0.304115 -0.490234,-0.328125 -0.07554,-0.02401 -0.04741,-0.02257 -0.09766,0.002 -0.100491,0.04904 -0.4183674,0.398134 -0.9082032,0.855469 -1.0277111,0.959522 -2.0060883,1.974217 -2.7304688,2.845703 -0.3621902,0.435743 -0.6617239,0.835544 -0.8671875,1.166016 -0.2054636,0.330471 -0.3049627,0.606523 -0.3144531,0.683593 0.026642,-0.216359 -0.00459,-0.06904 0.091797,0.0918 0.096391,0.160837 0.2606937,0.388526 0.4746094,0.652344 0.4278315,0.527636 1.0558238,1.202692 1.7851563,1.90039 1.4586649,1.395398 3.3455471,2.89051 4.8496091,3.587891 a 0.53831852,0.53831852 0 0 1 0.02539,0.01172 c 2.729607,1.443646 5.824479,2.072266 9.923828,2.072266 2.034946,0 4.090774,-0.23441 6.095703,-0.769532 2.0072,-0.537291 3.824237,-1.314144 5.388672,-2.392578 1.561091,-1.075739 2.862964,-2.477502 3.839844,-4.146484 0.958419,-1.63708 1.449219,-3.663608 1.449219,-5.958985 0,-2.392359 -0.451509,-4.459355 -1.328126,-6.146484 l 0.002,0 C 37.23263,25.314648 36.184079,23.919488 34.832031,22.6875 33.463748,21.443206 31.882689,20.303328 30.318359,19.423828 28.719904,18.526238 27.223196,17.720005 25.830078,16.996094 23.944221,16.016139 23.166552,15.495082 22.232422,14.806641 a 0.53831852,0.53831852 0 0 1 -0.04687,-0.03906 C 21.665333,14.282483 21.275939,13.987144 20.958984,13.597656 20.64203,13.208168 20.45805,12.707319 20.4375,12.078125 c -0.02881,-0.881068 0.533035,-1.534735 0.953125,-1.966797 0.591512,-0.6103084 1.426723,-0.5917968 2.253906,-0.5917968 0.722648,0 1.493909,0.09469 2.435547,0.3457032 0.917714,0.2458826 1.889106,0.5487536 2.964844,1.0488276 1.046508,0.487515 2.096359,1.010202 3.207031,1.707032 a 0.53831852,0.53831852 0 0 1 0.002,0 c 1.136716,0.71554 2.480469,1.832031 2.480469,1.832031 a 0.53831852,0.53831852 0 0 1 0.0039,0.002 c 0.153057,0.129151 0.225995,0.128426 0.335938,0.09375 0.109943,-0.03468 0.267949,-0.153439 0.392578,-0.384766 a 0.53831852,0.53831852 0 0 1 0.02344,-0.03711 c 0.697467,-1.078897 1.507757,-2.680944 2.464844,-4.2871092 0.208871,-0.3505253 0.445003,-0.6879687 0.527344,-0.9316407 0.08234,-0.243672 0.118793,-0.2855234 -0.126953,-0.5039062 -1.992832,-1.7709233 -3.823143,-3.6707383 -7.359375,-5.140625 a 0.53831852,0.53831852 0 0 1 -0.01172,-0.00391 C 28.35743,2.0968543 25.842423,1.5390625 21.810547,1.5390625 Z" opacity="0.4" stroke-dasharray="none" stroke-opacity="1" fill="none" display="inline" stroke="#000" fill-opacity="1" stroke-width="1" stroke-miterlimit="4"/>
 <path d="m 21.810547,2.5292969 c -1.893612,0 -3.65921,0.2554762 -5.3125,0.7578125 -1.645011,0.5011863 -3.056883,1.2260225 -4.277344,2.1796875 -1.207017,0.9433665 -2.150417,2.08563 -2.8671874,3.4804687 -0.5977692,1.1632694 -0.7773437,3.0049124 -0.7773437,5.0488284 0,1.993952 0.2998764,3.514838 1.0664062,4.878906 a 1.5293387,1.5293387 0 0 1 0,0.002 c 0.8543369,1.520799 1.6812249,2.527683 2.9765629,3.724609 a 1.5293387,1.5293387 0 0 1 0.002,0 c 1.31935,1.220752 2.725333,2.331795 4.205078,3.203126 a 1.5293387,1.5293387 0 0 1 0.002,0.002 c 1.621649,0.956942 3.152434,1.907558 4.507813,2.707031 1.387074,0.819615 2.496082,1.491264 3.527343,2.322266 a 1.5293387,1.5293387 0 0 1 0.002,0.002 c 1.124854,0.909793 2.210938,2.026662 2.210938,3.738281 0,0.564156 -0.03499,1.093622 -0.22461,1.642578 -0.189619,0.548956 -0.561353,1.054561 -0.964843,1.410156 -0.67171,0.591988 -1.770356,1.158203 -3.134766,1.158203 -1.13395,0 -2.526765,-0.145918 -3.873047,-0.55664 -1.401617,-0.40748 -2.223945,-0.783476 -3.33789,-1.337891 l -0.002,-0.002 c -1.08667,-0.538475 -2.246544,-1.071568 -3.363281,-1.925781 l -0.002,0 c -0.870511,-0.665072 -1.662109,-1.140625 -1.662109,-1.140625 a 1.5293387,1.5293387 0 0 1 -0.0293,-0.01953 c -0.124689,0.120705 -0.06127,0.09264 -0.357422,0.36914 -1.0032467,0.936681 -1.9591335,1.92932 -2.6445312,2.753906 -0.3426989,0.412294 -0.6179451,0.784554 -0.7871094,1.056641 -0.011653,0.01874 -0.00136,0.0015 -0.011719,0.01953 0.066025,0.09098 0.096733,0.144961 0.1914063,0.261719 0.3900965,0.481098 0.996809,1.132829 1.7011719,1.806641 1.4087257,1.347624 3.2716342,2.799569 4.5800782,3.40625 a 1.5293387,1.5293387 0 0 1 0.07226,0.03516 c 2.559869,1.353874 5.463723,1.957031 9.460938,1.957031 1.958446,0 3.927875,-0.226018 5.839844,-0.736328 1.921232,-0.514279 3.629723,-1.250813 5.082031,-2.251953 1.441697,-0.993465 2.641918,-2.285927 3.546875,-3.832031 0.853056,-1.457109 1.314453,-3.303064 1.314453,-5.457032 0,-2.266703 -0.427285,-4.17078 -1.214844,-5.6875 l -0.002,-0.002 c -0.857029,-1.645006 -1.824631,-2.932899 -3.08789,-4.083984 -1.30955,-1.191038 -2.837372,-2.290284 -4.332032,-3.13086 l -0.002,-0.002 C 28.243527,19.395141 26.755563,18.593403 25.373047,17.875 23.459644,16.880732 22.596175,16.304864 21.644531,15.603516 a 1.5293387,1.5293387 0 0 1 -0.134765,-0.111328 c -0.492022,-0.458806 -0.891373,-0.742431 -1.320313,-1.269532 -0.42894,-0.527101 -0.71908,-1.344027 -0.744141,-2.111328 -0.04485,-1.371439 0.750295,-2.1915212 1.236329,-2.6914061 0.974804,-1.0038225 2.109924,-0.890625 2.96289,-0.890625 0.805755,0 1.680201,0.107395 2.691407,0.3769531 a 1.5293387,1.5293387 0 0 1 0.002,0.00195 c 0.945489,0.2533241 1.98192,0.5760422 3.125,1.1074219 a 1.5293387,1.5293387 0 0 1 0.002,0 c 1.0617,0.494592 2.154222,1.037703 3.314453,1.765625 a 1.5293387,1.5293387 0 0 1 0.002,0 c 0.978128,0.615712 1.652681,1.190449 2.046875,1.511719 0.623899,-1.007162 1.363887,-2.43127 2.275391,-3.9609378 0.156926,-0.2633529 0.198296,-0.3331238 0.27539,-0.4628906 C 35.482997,7.1635272 33.806077,5.5060082 30.615234,4.1796875 a 1.5293387,1.5293387 0 0 1 -0.03125,-0.013672 C 28.066654,3.0516293 25.748849,2.5292969 21.810547,2.5292969 Z" id="path4194" opacity="0.4" stroke-dasharray="none" stroke-opacity="1" fill="none" display="inline" stroke="url(#linearGradient4202)" fill-opacity="1" stroke-width="1" stroke-miterlimit="4"/>
</svg>
