<?xml version="1.0" encoding="UTF-8" standalone="no"?>
<svg xmlns:dc="http://purl.org/dc/elements/1.1/" xmlns:cc="http://creativecommons.org/ns#" xmlns:rdf="http://www.w3.org/1999/02/22-rdf-syntax-ns#" xmlns:svg="http://www.w3.org/2000/svg" xmlns="http://www.w3.org/2000/svg" xmlns:xlink="http://www.w3.org/1999/xlink" viewBox="0 0 48 48" id="svg9999" version="1.1">
 <defs id="defs7">
  <linearGradient id="linearGradient4308">
   <stop id="stop4310" stop-color="#ffa036" stop-opacity="1"/>
   <stop offset="1" id="stop4312" stop-color="#f4cb00" stop-opacity="1"/>
  </linearGradient>
  <linearGradient id="linearGradient4300">
   <stop id="stop4302" stop-color="#fff" stop-opacity="1"/>
   <stop offset="1" id="stop4304" stop-color="#fff" stop-opacity="0"/>
  </linearGradient>
  <linearGradient xlink:href="#linearGradient4300" id="linearGradient4306" x1="25" y1="4" x2="25" y2="48" gradientUnits="userSpaceOnUse"/>
  <linearGradient xlink:href="#linearGradient4308" id="linearGradient4314" x1="25" y1="-38" x2="25" y2="53" gradientUnits="userSpaceOnUse"/>
 </defs>
 <title id="title9999">Ivy icon theme</title>
 <metadata id="metadata9999">
  <rdf:RDF>
   <cc:Work>
    <dc:format>image/svg+xml</dc:format>
    <dc:type rdf:resource="http://purl.org/dc/dcmitype/StillImage"/>
    <dc:title>Ivy icon theme</dc:title>
    <cc:license rdf:resource="http://creativecommons.org/licenses/by-sa/4.0/"/>
    <dc:creator>
     <cc:Agent>
      <dc:title>Sixsixfive (sixisixfive.deviantart.com)</dc:title>
     </cc:Agent>
    </dc:creator>
    <dc:publisher>
     <cc:Agent>
      <dc:title>Sixsixfive (sixisixfive.deviantart.com)</dc:title>
     </cc:Agent>
    </dc:publisher>
    <dc:source>https://github.com/sixsixfive</dc:source>
    <dc:subject>
     <rdf:Bag>
      <rdf:li>ivy</rdf:li>
     </rdf:Bag>
    </dc:subject>
    <dc:contributor>
     <cc:Agent>
      <dc:title>ssf</dc:title>
     </cc:Agent>
    </dc:contributor>
    <dc:rights>
     <cc:Agent>
      <dc:title>Sixsixfive (sixisixfive.deviantart.com)</dc:title>
     </cc:Agent>
    </dc:rights>
    <dc:description>A simple icon theme published under CC-BY-SA(http://creativecommons.org/licenses/by-sa/4.0/)</dc:description>
    <dc:identifier>SSF</dc:identifier>
   </cc:Work>
  </rdf:RDF>
 </metadata>
 <path id="path4316" d="m 3,4 0,9 12,12 -12,12 0,9 9,0 12,-12 12,12 9,0 0,-9 L 33,25 45,13 45,4 36,4 24,16 12,4 3,4 Z" opacity="0.1" stroke-dasharray="none" stroke-opacity="1" fill="#000" fill-rule="evenodd" stroke="none" stroke-linejoin="round" fill-opacity="1" stroke-linecap="round" stroke-width="3.9" stroke-miterlimit="4"/>
 <path d="M 3 3 L 3 12 L 15 24 L 3 36 L 3 45 L 12 45 L 24 33 L 36 45 L 45 45 L 45 36 L 33 24 L 45 12 L 45 3 L 36 3 L 24 15 L 12 3 L 3 3 z " id="rect4270" opacity="1" stroke-dasharray="none" stroke-opacity="1" fill="url(#linearGradient4314)" fill-rule="evenodd" stroke="none" stroke-linejoin="round" fill-opacity="1" stroke-linecap="round" stroke-width="3.9" stroke-miterlimit="4"/>
 <path id="path4296" d="m 3.5195312,3.5195312 0,8.2656248 11.8476568,11.847656 a 0.51927382,0.51927382 0 0 1 0,0.734376 l -11.8476568,11.847656 0,8.265625 8.2656248,0 11.847656,-11.847657 a 0.51927382,0.51927382 0 0 1 0.734376,0 l 11.847656,11.847657 8.265625,0 0,-8.265625 -11.847657,-11.847656 a 0.51927382,0.51927382 0 0 1 0,-0.734376 l 11.847657,-11.847656 0,-8.2656248 -8.265625,0 -11.847656,11.8476568 a 0.51927382,0.51927382 0 0 1 -0.734376,0 L 11.785156,3.5195312 l -8.2656248,0 z" opacity="0.4" stroke-dasharray="none" stroke-opacity="1" fill="none" fill-rule="evenodd" stroke="#000" stroke-linejoin="round" fill-opacity="1" stroke-linecap="round" stroke-width="1" stroke-miterlimit="4"/>
 <path d="m 4.515625,4.515625 0,6.857422 11.556641,11.554687 a 1.5156077,1.5156077 0 0 1 0,2.144532 l -11.556641,11.554687 0,6.857422 6.857422,0 11.554687,-11.556641 a 1.5156077,1.5156077 0 0 1 2.144532,0 l 11.554687,11.556641 6.857422,0 0,-6.857422 -11.556641,-11.554687 a 1.5156077,1.5156077 0 0 1 0,-2.144532 l 11.556641,-11.554687 0,-6.857422 -6.857422,0 -11.554687,11.556641 a 1.5156077,1.5156077 0 0 1 -2.144532,0 L 11.373047,4.515625 l -6.857422,0 z" id="path4298" opacity="0.4" stroke-dasharray="none" stroke-opacity="1" fill="none" fill-rule="evenodd" stroke="url(#linearGradient4306)" stroke-linejoin="round" fill-opacity="1" stroke-linecap="round" stroke-width="1" stroke-miterlimit="4"/>
</svg>
