<?xml version="1.0" encoding="UTF-8" standalone="no"?>
<svg xmlns:dc="http://purl.org/dc/elements/1.1/" xmlns:cc="http://creativecommons.org/ns#" xmlns:rdf="http://www.w3.org/1999/02/22-rdf-syntax-ns#" xmlns:svg="http://www.w3.org/2000/svg" xmlns="http://www.w3.org/2000/svg" xmlns:xlink="http://www.w3.org/1999/xlink" version="1.1" id="svg2" viewBox="0 0 48 48.000001">
 <path id="rect4914" d="M 2,3 46,3 46,47 2,47 Z" opacity="0.1" stroke-dasharray="3 1" stroke-opacity="1" fill="#000" stroke="none" stroke-linejoin="round" fill-opacity="1" stroke-linecap="round" stroke-width="1" stroke-dashoffset="0" stroke-miterlimit="4"/>
 <path id="rect4138" d="M 2,2 46,2 46,46 2,46 Z" opacity="1" stroke-dasharray="3 1" stroke-opacity="1" fill="url(#linearGradient4966)" stroke="none" stroke-linejoin="round" fill-opacity="1" stroke-linecap="round" stroke-width="1" stroke-dashoffset="0" stroke-miterlimit="4"/>
 <path d="M 11,9.96875 A 1.0315771,1.0315771 0 0 0 9.96875,11 l 0,5 A 1.0315771,1.0315771 0 0 0 11,17.03125 l 19.96875,0 0,2.9375 -19.96875,0 A 1.0315771,1.0315771 0 0 0 9.96875,21 l 0,4 0,1 0,5 0,2 0,3 A 1.0315771,1.0315771 0 0 0 11,37.03125 l 26,0 A 1.0315771,1.0315771 0 0 0 38.03125,36 l 0,-5 A 1.0315771,1.0315771 0 0 0 37,29.96875 l -19.96875,0 0,-2.9375 19.96875,0 A 1.0315771,1.0315771 0 0 0 38.03125,26 l 0,-5 0,-5 0,-5 A 1.0315771,1.0315771 0 0 0 37,9.96875 l -26,0 z" id="path4226" opacity="0.3" stroke-dasharray="none" stroke-opacity="1" fill="#000" stroke="none" stroke-linejoin="miter" fill-opacity="1" stroke-linecap="round" stroke-width="1" stroke-dashoffset="0" stroke-miterlimit="4.5"/>
 <defs id="defs4">
  <linearGradient id="linearGradient4960">
   <stop id="stop4962" stop-color="#5288d1" stop-opacity="1"/>
   <stop id="stop4964" offset="1" stop-color="#00c6ff" stop-opacity="1"/>
  </linearGradient>
  <linearGradient id="linearGradient4370">
   <stop id="stop4372" stop-color="#fff" stop-opacity="1"/>
   <stop id="stop4374" offset="1" stop-color="#fff" stop-opacity="0"/>
  </linearGradient>
  <linearGradient gradientTransform="translate(0,-1004.3622)" gradientUnits="userSpaceOnUse" y2="1049.3622" x2="44" y1="1007.3622" x1="44" id="linearGradient4376" xlink:href="#linearGradient4370"/>
  <linearGradient gradientTransform="translate(0,-1004.3622)" gradientUnits="userSpaceOnUse" y2="1050.3622" x2="41" y1="1006.3622" x1="41" id="linearGradient4966" xlink:href="#linearGradient4960"/>
 </defs>
 <path id="path4366" d="m 2.5058594,2.505 0,42.9883 42.9882816,0 0,-42.9883 -42.9882816,0 z" opacity="0.4" stroke-dasharray="none" stroke-opacity="1" fill="none" stroke="#000" stroke-linejoin="round" fill-opacity="1" stroke-linecap="round" stroke-width="1" stroke-dashoffset="0" stroke-miterlimit="4"/>
 <path d="m 3.5019531,3.5011 0,40.9961 40.9960939,0 0,-40.9961 -40.9960939,0 z" id="path4368" opacity="0.4" stroke-dasharray="none" stroke-opacity="1" fill="none" stroke="url(#linearGradient4376)" stroke-linejoin="round" fill-opacity="1" stroke-linecap="round" stroke-width="1" stroke-dashoffset="0" stroke-miterlimit="4"/>
 <metadata id="metadata9999">
  <rdf:RDF>
   <cc:Work>
    <dc:format>image/svg+xml</dc:format>
    <dc:type rdf:resource="http://purl.org/dc/dcmitype/StillImage"/>
    <dc:title/>
    <cc:license rdf:resource="http://creativecommons.org/licenses/by-sa/4.0/"/>
    <dc:creator>
     <cc:Agent>
      <dc:title>Sixsixfive (sixsixfive.deviantart.com)</dc:title>
     </cc:Agent>
    </dc:creator>
    <dc:publisher>
     <cc:Agent>
      <dc:title>Sixsixfive (sixsixfive.deviantart.com)</dc:title>
     </cc:Agent>
    </dc:publisher>
    <dc:source>https://github.com/sixsixfive</dc:source>
    <dc:subject>
     <rdf:Bag>
      <rdf:li>ivy</rdf:li>
     </rdf:Bag>
    </dc:subject>
    <dc:contributor>
     <cc:Agent>
      <dc:title>ssf</dc:title>
     </cc:Agent>
    </dc:contributor>
    <dc:rights>
     <cc:Agent>
      <dc:title>Sixsixfive (sixisixfive.deviantart.com)</dc:title>
     </cc:Agent>
    </dc:rights>
    <dc:description>A simple icon theme published under CC-BY-SA_V4(http://creativecommons.org/licenses/by-sa/4.0)</dc:description>
    <dc:identifier>SSF</dc:identifier>
   </cc:Work>
  </rdf:RDF>
 </metadata>
 <!--Part of the Ivy icon them published under the CC-BY-SA_V4: http://creativecommons.org/licenses/by-sa/4.0 -->
 <path id="rect4210" d="m 11,11 0,5 21,0 0,5 -21,0 0,4 0,1 0,5 0,2 0,3 26,0 0,-5 -21,0 0,-5 21,0 0,-5 0,-5 0,-5 -26,0 z" opacity="1" stroke-dasharray="none" stroke-opacity="1" fill="#f5f5f5" stroke="none" stroke-linejoin="miter" fill-opacity="1" stroke-linecap="round" stroke-width="1" stroke-dashoffset="0" stroke-miterlimit="4.5"/>
</svg>
