<?xml version="1.0" encoding="UTF-8" standalone="no"?>
<svg xmlns:dc="http://purl.org/dc/elements/1.1/" xmlns:cc="http://creativecommons.org/ns#" xmlns:rdf="http://www.w3.org/1999/02/22-rdf-syntax-ns#" xmlns:svg="http://www.w3.org/2000/svg" xmlns="http://www.w3.org/2000/svg" xmlns:xlink="http://www.w3.org/1999/xlink" id="svg2" viewBox="0 0 48 48" version="1.1">
 <metadata id="metadata9999">
  <rdf:RDF>
   <cc:Work>
    <dc:format>image/svg+xml</dc:format>
    <dc:type rdf:resource="http://purl.org/dc/dcmitype/StillImage"/>
    <dc:title/>
    <cc:license rdf:resource="http://creativecommons.org/licenses/by-sa/4.0/"/>
    <dc:creator>
     <cc:Agent>
      <dc:title>Sixsixfive (sixsixfive.deviantart.com)</dc:title>
     </cc:Agent>
    </dc:creator>
    <dc:publisher>
     <cc:Agent>
      <dc:title>Sixsixfive (sixsixfive.deviantart.com)</dc:title>
     </cc:Agent>
    </dc:publisher>
    <dc:source>https://github.com/sixsixfive</dc:source>
    <dc:subject>
     <rdf:Bag>
      <rdf:li>ivy</rdf:li>
     </rdf:Bag>
    </dc:subject>
    <dc:contributor>
     <cc:Agent>
      <dc:title>ssf</dc:title>
     </cc:Agent>
    </dc:contributor>
    <dc:rights>
     <cc:Agent>
      <dc:title>Sixsixfive (sixisixfive.deviantart.com)</dc:title>
     </cc:Agent>
    </dc:rights>
    <dc:description>A simple icon theme published under CC-BY-SA_V4(http://creativecommons.org/licenses/by-sa/4.0)</dc:description>
    <dc:identifier>SSF</dc:identifier>
   </cc:Work>
  </rdf:RDF>
 </metadata>
 <!--Part of the Ivy icon them published under the CC-BY-SA_V4: http://creativecommons.org/licenses/by-sa/4.0 -->
 <defs id="defs4">
  <linearGradient x2="-0.115385" y2="1.013005" y1="-0.012636" id="0" x1="-0.115385">
   <stop id="stop7" stop-color="#fff"/>
   <stop id="stop9" stop-opacity="0" stop-color="#fff" offset="1"/>
  </linearGradient>
  <linearGradient gradientUnits="userSpaceOnUse" x2="0" y2="45" y1="3" id="1">
   <stop id="stop12" stop-color="#6a6a6a"/>
   <stop id="stop14" stop-color="#7d7d7d" offset="1"/>
  </linearGradient>
  <linearGradient y2="1.02381" x2="0.833333" y1="0" x1="0.833333" id="linearGradient4146" xlink:href="#1"/>
  <mask id="mask4342" maskUnits="userSpaceOnUse">
   <rect id="rect4344" ry="4" height="42" rx="4" y="3" x="3" width="42" fill="#fff"/>
  </mask>
  <mask id="mask4346" maskUnits="userSpaceOnUse">
   <rect width="42" x="3" y="3" rx="4" height="42" ry="4" id="rect4348" fill="#fff"/>
  </mask>
 </defs>
 <metadata id="metadata17">image/svg+xmlSixsixfive (sixsixfive.deviantart.com)Sixsixfive (sixsixfive.deviantart.com)https://github.com/sixsixfiveivyssfSixsixfive (sixisixfive.deviantart.com)A simple icon theme published under CC-BY-SA_V4(http://creativecommons.org/licenses/by-sa/4.0)SSF</metadata>
 <!--Part of the Ivy icon them published under the CC-BY-SA_V4: http://creativecommons.org/licenses/by-sa/4.0 -->
 <g id="g19">
  <title id="title21">Layer 1</title>
  <path id="rect16" d="m 7,4 34,0 c 2.216,0 4,1.784 4,4 l 0,34 c 0,2.216 -1.784,4 -4,4 L 7,46 C 4.784,46 3,44.216 3,42 L 3,8 C 3,5.784 4.784,4 7,4 Z" opacity="0.1"/>
  <path id="rect18" d="m 7,3 34,0 c 2.216,0 4,1.784 4,4 l 0,34 c 0,2.216 -1.784,4 -4,4 L 7,45 C 4.784,45 3,43.216 3,41 L 3,7 C 3,4.784 4.784,3 7,3 Z" fill="url(#linearGradient4146)"/>
  <path mask="url(#mask4346)" d="m -5.00977,8.00586 a 0.99363,0.99363 0 0 0 -0.93359,0.67969 l -2,6 a 0.99363,0.99363 0 0 0 0.39258,1.14258 l 25.71289,17.08398 c 0.20741,1.29647 0.768,2.54064 1.72266,3.44336 1.09898,1.0392 2.60272,1.63811 4.11523,1.63867 1.5691,0 3.12876,-0.64634 4.23828,-1.75586 C 29.3478,35.12876 29.99414,33.5691 29.99414,32 a 0.99363,0.99363 0 0 0 0,-0.0039 c -0.0015,-0.37752 -0.1112,-0.74277 -0.18359,-1.11328 l 5.4082,-4.05469 c 1.79378,-0.2835 3.49988,-1.13133 4.7168,-2.48047 1.30796,-1.45008 2.05661,-3.39288 2.05859,-5.3457 a 0.99363,0.99363 0 0 0 0,-0.002 c 0,-2.0927 -0.86203,-4.17258 -2.3418,-5.65235 C 38.17258,11.86789 36.0927,11.00586 34,11.00586 c -2.0927,0 -4.17258,0.86203 -5.65234,2.3418 -1.47977,1.47976 -2.3418,3.55964 -2.3418,5.65234 a 0.99363,0.99363 0 0 0 0,0.0039 c 0.0028,0.87547 0.24657,1.72489 0.53125,2.55273 l -2.54297,4.44922 c -0.49348,0.0016 -0.97303,0.13578 -1.45117,0.25782 L -4.44727,8.17383 a 0.99363,0.99363 0 0 0 -0.5625,-0.16797 z" id="path4326" stroke-miterlimit="4" opacity="0.4" fill="#000" fill-rule="evenodd" stroke-linecap="round" stroke-dashoffset="0"/>
  <g id="g20" fill="none">
   <path id="path22" d="m 7,3.5128 c -1.94587,0 -3.5,1.5541 -3.5,3.5 l 0,34 c 0,1.9459 1.55413,3.5 3.5,3.5 l 34,0 c 1.94587,0 3.5,-1.5541 3.5,-3.5 l 0,-34 c 0,-1.9459 -1.55413,-3.5 -3.5,-3.5 l -34,0 z" opacity="0.8" stroke="#000"/>
   <path id="path24" d="m 7,4.5128 c -1.40738,0 -2.5,1.0926 -2.5,2.5 l 0,34 c 0,1.4074 1.09262,2.5 2.5,2.5 l 34,0 c 1.40738,0 2.5,-1.0926 2.5,-2.5 l 0,-34 c 0,-1.4074 -1.09262,-2.5 -2.5,-2.5 l -34,0 z" opacity="0.3" stroke="url(#0)"/>
  </g>
  <path id="path4292" d="m 41,19 a 7,7 0 0 1 -7,7 7,7 0 0 1 -7,-7 7,7 0 0 1 7,-7 7,7 0 0 1 7,7 z" fill="#ebebeb" fill-rule="evenodd" stroke-linecap="round" stroke-dashoffset="0" stroke-miterlimit="4"/>
  <path id="circle4303" d="m 29,32 a 5,5 0 0 1 -5,5 5,5 0 0 1 -5,-5 5,5 0 0 1 5,-5 5,5 0 0 1 5,5 z" fill="#ebebeb" fill-rule="evenodd" stroke-linecap="round" stroke-dashoffset="0" stroke-miterlimit="4"/>
  <path id="path4307" d="m 24,28 4,-7 8,4 -8,6 -4,-3 z" fill="#ebebeb" fill-rule="evenodd" stroke-width="1"/>
  <path id="circle4305" d="m 28,32 a 4,4 0 0 1 -4,4 4,4 0 0 1 -4,-4 4,4 0 0 1 4,-4 4,4 0 0 1 4,4 z" fill="#171717" fill-rule="evenodd" stroke-linecap="round" stroke-dashoffset="0" stroke-miterlimit="4"/>
  <path id="circle4309" d="m 38,19 a 4,4 0 0 1 -4,4 4,4 0 0 1 -4,-4 4,4 0 0 1 4,-4 4,4 0 0 1 4,4 z" fill="#171717" fill-rule="evenodd" stroke-linecap="round" stroke-dashoffset="0" stroke-miterlimit="4"/>
  <path id="circle4311" d="m 37,19 a 3,3 0 0 1 -3,3 3,3 0 0 1 -3,-3 3,3 0 0 1 3,-3 3,3 0 0 1 3,3 z" fill="#ebebeb" fill-rule="evenodd" stroke-linecap="round" stroke-dashoffset="0" stroke-miterlimit="4"/>
  <path id="path4313" d="m 27,32 a 3,3 0 0 1 -3,3 3,3 0 0 1 -3,-3 3,3 0 0 1 3,-3 3,3 0 0 1 3,3 z" fill="#ebebeb" fill-rule="evenodd" stroke-linecap="round" stroke-dashoffset="0" stroke-miterlimit="4"/>
  <path mask="url(#mask4342)" id="path4315" d="M 26,29.77789 -5,9 -7,15 22.46068,34.57497" fill="#ebebeb" fill-rule="evenodd" stroke-width="1"/>
 </g>
</svg>
