<?xml version="1.0" encoding="UTF-8" standalone="no"?><svg xmlns:cc="http://creativecommons.org/ns#" xmlns:dc="http://purl.org/dc/elements/1.1/" xmlns="http://www.w3.org/2000/svg" xmlns:svg="http://www.w3.org/2000/svg" xmlns:rdf="http://www.w3.org/1999/02/22-rdf-syntax-ns#" id="svg2" version="1.1" viewBox="0 0 48 48"><defs id="defs4"><linearGradient gradientUnits="userSpaceOnUse" y1="13.929" id="0" y2="29.929" x2="0"><stop id="stop7" stop-color="#171717"/><stop id="stop9" stop-color="#393939" offset="1"/></linearGradient><linearGradient gradientUnits="userSpaceOnUse" y1="28.931" id="1" x1="44.23" y2="57.51" x2="31.22"><stop id="stop12" stop-color="#ebebeb"/><stop id="stop14" stop-color="#f9f9f9" offset="1"/></linearGradient><linearGradient gradientUnits="userSpaceOnUse" y1="3" id="2" x1="40" y2="42.969" x2="39.906"><stop id="stop17" stop-color="#fff"/><stop stop-opacity="0" id="stop19" stop-color="#fff" offset="1"/></linearGradient><linearGradient gradientUnits="userSpaceOnUse" y1="3" id="3" y2="44" x2="0"><stop id="stop22" stop-color="#dedede"/><stop id="stop24" stop-color="#f4f4f4" offset="1"/></linearGradient><mask id="4"><rect width="34.951" ry="1.209" height="42" rx="1.209" id="rect27" y="2" x="5.986" fill="#fff"/></mask><radialGradient cy="28.889" cx="19" gradientUnits="userSpaceOnUse" r="8" id="5"><stop id="stop30" stop-color="#171717"/><stop id="stop32" stop-color="#6a6a6a" offset="1"/></radialGradient><radialGradient gradientTransform="matrix(-0.25 1.30435 -1.42489 -0.13216 49.45 11.717)" cy="22.289" cx="10.742" gradientUnits="userSpaceOnUse" r="8" id="6"><stop id="stop35" stop-color="#6a6a6a"/><stop id="stop37" stop-color="#171717" offset="1"/></radialGradient></defs><rect width="34.951" ry="1.209" height="42" rx="1.209" opacity="0.1" id="rect39" y="3" x="6"/><rect width="34.951" ry="1.209" height="42" rx="1.209" id="rect41" y="2" x="5.986" fill="url(#3)"/><g id="g43" mask="url(#4)"><g id="g45"><path opacity="0.1" d="m 20.04131,30.03091 c -1.107979,2.3948 -2.079777,4.8668 -2.96875,7.3438 -0.991128,3.1303 -2.131891,6.3888 -1.75,9.7187 0.143955,1.7127 1.734825,3.2125 3.5,2.8125 6.334695,-0.1443 12.435976,0.1426 18.53125,0.094 2.787917,-0.014 5.56947,0.2051 8.34375,-0.125 2.280234,-0.4862 3.143966,-3.0778 2.96875,-5.1563 -0.341057,-5.165 -2.361002,-10.0278 -4.5,-14.6875 l -24.125,0 z" id="path47"/><path transform="matrix(1 0 0 1.125 28.23 6.431)" d="M 23,28 A 8,8 0 1 1 7,28 8,8 0 1 1 23,28 Z" id="path49" fill="url(#5)"/><path transform="matrix(1 0 0 1.4375 5.229 -4.819)" d="M 23,28 A 8,8 0 1 1 7,28 8,8 0 1 1 23,28 Z" id="path51" fill="url(#6)"/><path d="m 31.947564,13.80631 c -2.339747,0.1059 -3.881355,2.2103 -5.268802,3.8443 -4.17936,5.631 -7.233089,12.0345 -9.595309,18.6166 -0.991128,3.1303 -2.14641,6.4036 -1.764519,9.7335 0.143955,1.7127 1.738455,3.2056 3.50363,2.8056 6.334695,-0.1443 12.421052,0.1408 18.516326,0.092 2.787917,-0.014 5.595899,0.1919 8.370179,-0.1382 2.280234,-0.4862 3.136227,-3.0605 2.961011,-5.139 -0.35151,-5.3234 -2.481198,-10.3271 -4.692086,-15.1167 -2.267277,-4.5786 -4.751113,-9.1831 -8.39234,-12.827 -1.00361,-0.9292 -2.196146,-1.884 -3.63809,-1.8712 z" id="path53" fill="url(#0)"/><path d="m 20.04131,28.93131 c -1.107979,2.394798 -2.079777,4.866711 -2.96875,7.34375 -0.991128,3.1303 -2.131891,6.38885 -1.75,9.71875 0.143955,1.7127 1.734825,3.2125 3.5,2.8125 6.334695,-0.1443 12.435976,0.14255 18.53125,0.09375 2.787917,-0.014 5.56947,0.2051 8.34375,-0.125 2.280234,-0.4862 3.143966,-3.07775 2.96875,-5.15625 -0.341057,-5.165091 -2.361002,-10.02789 -4.5,-14.6875 l -24.125,0 z" id="path55" fill="url(#1)"/><path opacity="0.34" d="m 20.16,28.13 22.616,0 0,0.848 -22.616,0 z" id="path57"/><path opacity="0.48" d="m 19.877,28.981 22.616,0 0,0.848 -22.616,0 z" id="path59" fill="#fff"/><path transform="matrix(1 0 0 1 9.417 9.345)" opacity="0.22" d="m 32,22 a 7,5 0 1 1 -14,0 7,5 0 1 1 14,0 z" id="path61"/><path transform="matrix(1 0 0 1 9.229 7.931)" d="m 32,22 a 7,5 0 1 1 -14,0 7,5 0 1 1 14,0 z" id="path63" fill="#d02604"/><g id="g65" fill="none"><g stroke="#000" id="g67"><path transform="matrix(1 0 0 1 9.4 7.865)" opacity="0.743" d="M 22.71875,6.375 C 20.683073,6.485838 19.20563,8.357981 17.8125,10 c -0.0051,0.0069 0.0051,0.02433 0,0.03125 -1.565146,2.111068 -2.945376,4.351026 -4.21875,6.65625 a 0.485514,0.485514 0 0 1 -0.625,0.1875 C 12.326157,16.61441 11.687465,16.5 11,16.5 8.979436,16.5 7.131609,17.670187 5.75,19.65625 4.368391,21.642313 3.5,24.41562 3.5,27.5 c 0,3.544799 1.156167,6.688981 2.90625,8.6875 a 0.485514,0.485514 0 0 1 0.125,0.3125 c -0.00173,0.09716 -7.83e-4,0.20517 0,0.3125 C 6.531594,37.21752 6.517442,37.60712 6.5625,38 a 0.485514,0.485514 0 0 1 0,0.03125 c 0.01436,0.170854 0.070599,0.348368 0.125,0.53125 0.105938,0.355224 0.269716,0.654135 0.5,0.9375 0.125999,0.155042 0.232912,0.281546 0.34375,0.375 0.539081,0.463261 1.236724,0.697132 1.96875,0.53125 A 0.485514,0.485514 0 0 1 9.59375,40.375 c 3.177059,-0.07237 6.262237,-0.04762 9.34375,0 3.081511,0.04762 6.149959,0.118069 9.1875,0.09375 1.409758,-0.0071 2.80241,0.05411 4.1875,0.0625 1.369471,0.01158 2.715363,0.0021 4.0625,-0.15625 0.01015,-0.0022 0.02132,0.0022 0.03125,0 0.122461,-0.02731 0.229969,-0.08373 0.34375,-0.125 0.10161,-0.0356 0.171442,-0.05648 0.25,-0.09375 0.01597,-0.0077 0.04331,-0.02144 0.0625,-0.03125 0.118284,-0.05931 0.250705,-0.133661 0.40625,-0.25 0.08656,-0.06474 0.168108,-0.169353 0.28125,-0.28125 0.132937,-0.132085 0.265209,-0.238967 0.34375,-0.34375 0.127579,-0.170207 0.230246,-0.397382 0.34375,-0.625 0.114778,-0.230173 0.209045,-0.458393 0.28125,-0.6875 0.145088,-0.460364 0.22588,-0.935181 0.25,-1.40625 A 0.485514,0.485514 0 0 1 39.125,36.21875 C 40.592269,34.669832 41.5,32.466834 41.5,30 c 0,-4.383954 -2.902943,-7.96536 -6.59375,-8.46875 A 0.485514,0.485514 0 0 1 34.53125,21.25 C 34.53525,21.2587 34.52325,21.23819 34.5,21.1875 34.42374,21.02138 34.36719,20.899729 34.3125,20.78125 32.05089,16.214087 29.575608,11.671983 26,8.09375 25.02173,7.188013 23.961681,6.378495 22.75,6.375 c -0.01034,-3e-5 -0.02089,-9.2e-5 -0.03125,0 z" id="path69"/><path opacity="0.67" d="m 22.22881,24.93131 c -2.576395,6.327705 -6.209069,12.839083 -6.565397,19.18847" id="path71"/><path opacity="0.9" d="m 43.851883,29.21401 c 2.208047,5.249506 4.853709,10.203125 4.376931,14.717301" id="path73"/></g><path stroke="#ebebeb" opacity="0.69" d="m 15.825113,44.4349 c -0.649938,0.912652 0.652318,3.905226 1.630131,3.889829 8.998802,-0.141699 17.316508,0.2198 27.2407,0.04064 1.399658,-0.02527 3.372734,-0.630715 3.451033,-4.118932" id="path75"/><g transform="matrix(1 0 0 1 9.4 7.865)" id="g77"><path stroke="#000" opacity="0.4" d="m 25,17.46875 c -1.845535,0 -3.509458,0.533541 -4.6875,1.375 -1.178042,0.841459 -1.84375,1.946963 -1.84375,3.15625 0,1.209287 0.665708,2.314791 1.84375,3.15625 1.178042,0.841459 2.841965,1.375 4.6875,1.375 1.845535,0 3.509458,-0.533541 4.6875,-1.375 1.178042,-0.841459 1.84375,-1.946963 1.84375,-3.15625 0,-1.209287 -0.665708,-2.314791 -1.84375,-3.15625 -1.178042,-0.841459 -2.841965,-1.375 -4.6875,-1.375 z" id="path79"/><g stroke="#fff" id="g81"><path opacity="0.21" d="m 25,18.40625 c -1.6622,0 -3.132906,0.478862 -4.125,1.1875 -0.992094,0.708638 -1.46875,1.556299 -1.46875,2.40625 0,0.849951 0.476656,1.697612 1.46875,2.40625 0.992094,0.708638 2.4628,1.1875 4.125,1.1875 1.6622,0 3.132906,-0.478862 4.125,-1.1875 0.992094,-0.708638 1.46875,-1.556299 1.46875,-2.40625 0,-0.849951 -0.476656,-1.697612 -1.46875,-2.40625 -0.992094,-0.708638 -2.4628,-1.1875 -4.125,-1.1875 z" id="path83"/><path opacity="0.139" d="m 22.75,7.625 c -1.280957,0.086754 -2.550445,1.492217 -3.9375,3.125 -0.0021,0.0036 2.7e-5,0.03121 0,0.03125 -0.01045,0.01231 -0.02079,0.01892 -0.03125,0.03125 -1.512073,2.043584 -2.846584,4.210971 -4.09375,6.46875 l -0.46875,-0.25 a 1.252878,1.252878 0 0 1 -1.71875,1 C 12.00697,17.831311 11.548474,17.75 11,17.75 9.463114,17.75 7.995565,18.629423 6.78125,20.375 5.571318,22.11428 4.75,24.650757 4.75,27.5 c 0,3.272402 1.092536,6.160679 2.59375,7.875 a 1.252878,1.252878 0 0 1 0.25,1.15625 l 0.1875,0 c -0.00129,0.07246 -7.92e-4,0.172667 0,0.28125 3.69e-4,0.434881 2.57e-4,0.761009 0.03125,1.03125 a 1.252878,1.252878 0 0 1 0,0.09375 c -0.00244,-0.029 0.00399,0.08456 0.0625,0.28125 0.059886,0.200806 0.139561,0.325652 0.28125,0.5 0.117597,0.144704 0.199084,0.197267 0.1875,0.1875 a 1.252878,1.252878 0 0 1 0,0.03125 c 0.291948,0.250887 0.557803,0.321879 0.875,0.25 A 1.252878,1.252878 0 0 1 9.5625,39.15625 l 0,-0.03125 c 3.202021,-0.07294 6.318527,-0.04771 9.40625,0 3.087752,0.04771 6.144831,0.11786 9.15625,0.09375 1.450151,-0.0073 2.834222,0.05431 4.1875,0.0625 1.345925,0.01138 2.627687,-0.01183 3.875,-0.15625 0.0014,-0.0012 0.02453,0.0029 0.03125,0 0.02687,-0.01143 -0.02362,-0.01993 0.09375,-0.0625 a 1.252878,1.252878 0 0 1 0.03125,0 c 0.126369,-0.04427 0.142467,-0.03954 0.125,-0.03125 C 36.46645,39.03235 36.48889,39.00568 36.5,39 c 0.07818,-0.0392 0.131288,-0.05958 0.21875,-0.125 -0.116814,0.08737 0.0113,-0.01445 0.15625,-0.15625 l 0,-0.03125 c 0.164586,-0.164778 0.29406,-0.287973 0.21875,-0.1875 1.77e-4,-2.37e-4 0.09132,-0.181965 0.21875,-0.4375 0.08944,-0.179367 0.168813,-0.341551 0.21875,-0.5 0.110935,-0.351998 0.168487,-0.722423 0.1875,-1.09375 l 0.1875,0 a 1.252878,1.252878 0 0 1 0.3125,-1.125 C 39.455572,34.0381 40.25,32.15951 40.25,30 c 0,-3.830927 -2.510357,-6.810992 -5.5,-7.21875 l 0.15625,-1.25 0.03125,-0.21875 C 34.75932,21.289976 34.53125,21.25 34.53125,21.25 c 0,0 -0.75,1 -0.75,1 0,0 -0.0625,-0.0625 -0.0625,-0.0625 0,0 -0.09375,-0.0625 -0.09375,-0.0625 0,0 -0.03125,-0.03125 -0.03125,-0.03125 0,0 0.9375,-0.84375 0.9375,-0.84375 -1.15e-4,-1.44e-4 -1.05076,0.675186 -1.0625,0.65625 -0.04696,-0.07574 -0.0531,-0.0757 -0.0625,-0.09375 -0.0188,-0.03611 -0.01236,-0.0526 -0.03125,-0.09375 -0.07027,-0.153082 -0.135292,-0.26199 -0.1875,-0.375 -0.0035,-0.0077 0.0035,-0.0236 0,-0.03125 C 30.950817,16.797445 28.539228,12.39731 25.15625,9 25.14209,8.986892 25.13911,8.981706 25.125,8.96875 24.23072,8.147825 23.423812,7.63693 22.78125,7.625 c -0.0065,-1.2e-4 -0.02483,1.9e-5 -0.03125,0 z" stroke-linejoin="round" id="path85" stroke-linecap="round"/></g></g></g></g></g><g id="g87" fill="none"><path stroke="#000" opacity="0.4" d="M 7.1875,2.5 C 6.783721,2.5 6.5,2.799839 6.5,3.21875 l 0,39.5625 C 6.5,43.20016 6.783721,43.5 7.1875,43.5 l 32.53125,0 c 0.40378,0 0.71875,-0.31497 0.71875,-0.71875 l 0,-39.5625 C 40.4375,2.814971 40.12253,2.5 39.71875,2.5 L 7.1875,2.5 Z" id="path89"/><path stroke="url(#2)" opacity="0.78" d="m 7.5312,3.5312 0,38.9375 31.875,0 0,-38.9375 -31.875,0 z" id="path91"/></g><metadata id="metadata9999"><rdf:RDF><cc:Work><dc:format>image/svg+xml</dc:format><dc:type rdf:resource="http://purl.org/dc/dcmitype/StillImage"/><dc:title>Ivy icon theme</dc:title><cc:license rdf:resource="http://creativecommons.org/licenses/by-sa/4.0/"/><dc:creator><cc:Agent><dc:title>Sixsixfive (sixsixfive.deviantart.com)</dc:title></cc:Agent></dc:creator><dc:publisher><cc:Agent><dc:title>Sixsixfive (sixsixfive.deviantart.com)</dc:title></cc:Agent></dc:publisher><dc:source>https://github.com/sixsixfive</dc:source><dc:subject><rdf:Bag><rdf:li>ivy</rdf:li></rdf:Bag></dc:subject><dc:contributor><cc:Agent><dc:title>ssf</dc:title></cc:Agent></dc:contributor><dc:rights><cc:Agent><dc:title>Sixsixfive (sixisixfive.deviantart.com)</dc:title></cc:Agent></dc:rights><dc:description>A simple icon theme published under CC-BY-SA_V4(http://creativecommons.org/licenses/by-sa/4.0)</dc:description><dc:identifier>SSF</dc:identifier></cc:Work></rdf:RDF></metadata><!--Part of the Ivy icon them published under the CC-BY-SA_V4: http://creativecommons.org/licenses/by-sa/4.0 -->
</svg>