<?xml version="1.0" encoding="UTF-8" standalone="no"?><svg xmlns:cc="http://creativecommons.org/ns#" xmlns:rdf="http://www.w3.org/1999/02/22-rdf-syntax-ns#" xmlns:svg="http://www.w3.org/2000/svg" id="svg2" viewBox="0 0 48 48" version="1.1" xmlns:dc="http://purl.org/dc/elements/1.1/" xmlns="http://www.w3.org/2000/svg"><defs id="defs4"><linearGradient id="0" x2="0" y2="44" y1="3" gradientUnits="userSpaceOnUse"><stop id="stop7" stop-color="#dedede"/><stop offset="1" id="stop9" stop-color="#f4f4f4"/></linearGradient><linearGradient id="1" x2="39.906" y2="42.969" x1="40" y1="3" gradientUnits="userSpaceOnUse"><stop id="stop12" stop-color="#fff"/><stop offset="1" id="stop14" stop-color="#fff" stop-opacity="0"/></linearGradient></defs><rect rx="1.209" height="42" ry="1.209" id="rect16" opacity="0.1" width="34.951" x="6.05" y="3"/><rect rx="1.209" height="42" ry="1.209" id="rect18" width="34.951" x="5.986" y="2" fill="url(#0)"/><path id="path5127" d="m 30.498047,23.000094 c -1.413298,0.0041 -2.836362,0.590445 -3.294922,1.75 -0.917126,2.31911 1.454346,8.268982 3.294922,8.263672 1.840575,-0.0053 4.220331,-5.969403 3.296875,-8.283203 -0.461728,-1.1569 -1.883578,-1.734549 -3.296875,-1.730469 z M 30.5,35.129 c -1.380781,0 -2.5,1.118954 -2.5,2.5 0,1.381047 1.119219,2.5 2.5,2.5 1.380781,0 2.5,-1.118944 2.5,-2.5 0,-1.381046 -1.119219,-2.5 -2.5,-2.5 z" fill="#fff"/><path id="path4308" d="m 30.498957,22.000021 c -1.413298,0.0041 -2.836728,0.590445 -3.295288,1.75 -0.917126,2.31911 1.454712,8.268982 3.295288,8.263672 1.840575,-0.0053 4.218743,-5.969403 3.295287,-8.283203 -0.461728,-1.1569 -1.88199,-1.734549 -3.295287,-1.730469 z" fill="#959595"/><path id="4" d="m 30.5,34.128928 c -1.380781,0 -2.5,1.119891 -2.5,2.500937 0,1.381047 1.119219,2.499063 2.5,2.499063 1.380781,0 2.5,-1.118007 2.5,-2.499063 0,-1.381046 -1.119219,-2.500937 -2.5,-2.500937 z" fill="#959595"/><g id="g20" fill="none"><path id="path22" opacity="0.4" d="M 7.1875,2.5 C 6.7837,2.5 6.5,2.7998 6.5,3.2188 l 0,39.562 c 0,0.419 0.2837,0.719 0.6875,0.719 l 32.531,0 c 0.40378,0 0.71875,-0.31497 0.71875,-0.71875 l 0,-39.562 c 10e-4,-0.404 -0.314,-0.719 -0.718,-0.719 l -32.532,0 z" stroke="#000"/><path id="path24" opacity="0.78" d="m 7.5312,3.5312 0,38.938 31.875,0 0,-38.938 -31.875,0 z" stroke="url(#1)"/></g><metadata id="metadata9999"><rdf:RDF><cc:Work><dc:format>image/svg+xml</dc:format><dc:type rdf:resource="http://purl.org/dc/dcmitype/StillImage"/><dc:title>Ivy icon theme</dc:title><cc:license rdf:resource="http://creativecommons.org/licenses/by-sa/4.0/"/><dc:creator><cc:Agent><dc:title>Sixsixfive (sixsixfive.deviantart.com)</dc:title></cc:Agent></dc:creator><dc:publisher><cc:Agent><dc:title>Sixsixfive (sixsixfive.deviantart.com)</dc:title></cc:Agent></dc:publisher><dc:source>https://github.com/sixsixfive</dc:source><dc:subject><rdf:Bag><rdf:li>ivy</rdf:li></rdf:Bag></dc:subject><dc:contributor><cc:Agent><dc:title>ssf</dc:title></cc:Agent></dc:contributor><dc:rights><cc:Agent><dc:title>Sixsixfive (sixisixfive.deviantart.com)</dc:title></cc:Agent></dc:rights><dc:description>A simple icon theme published under CC-BY-SA_V4(http://creativecommons.org/licenses/by-sa/4.0)</dc:description><dc:identifier>SSF</dc:identifier></cc:Work></rdf:RDF></metadata><!--Part of the Ivy icon them published under the CC-BY-SA_V4: http://creativecommons.org/licenses/by-sa/4.0 -->
</svg>