<?xml version="1.0" encoding="UTF-8" standalone="no"?>
<svg
   xmlns:dc="http://purl.org/dc/elements/1.1/"
   xmlns:cc="http://creativecommons.org/ns#"
   xmlns:rdf="http://www.w3.org/1999/02/22-rdf-syntax-ns#"
   xmlns:svg="http://www.w3.org/2000/svg"
   xmlns="http://www.w3.org/2000/svg"
   xmlns:xlink="http://www.w3.org/1999/xlink"
   version="1.1"
   viewBox="0 0 48 48"
   id="svg2">
  <defs
     id="defs4">
    <linearGradient
       gradientUnits="userSpaceOnUse"
       x2="0"
       y2="44"
       y1="3"
       id="0">
      <stop
         id="stop7"
         stop-color="#dedede" />
      <stop
         id="stop9"
         stop-color="#f4f4f4"
         offset="1" />
    </linearGradient>
    <linearGradient
       gradientUnits="userSpaceOnUse"
       x2="39.906"
       y2="42.969"
       x1="40"
       y1="3"
       id="1">
      <stop
         id="stop12"
         stop-color="#fff" />
      <stop
         id="stop14"
         stop-opacity="0"
         stop-color="#fff"
         offset="1" />
    </linearGradient>
    <linearGradient
       id="1-3"
       y1="14"
       y2="34"
       x2="0"
       gradientUnits="userSpaceOnUse">
      <stop
         stop-color="#ebebeb"
         id="stop3686" />
      <stop
         offset="1"
         stop-color="#eee"
         id="stop3688" />
    </linearGradient>
    <linearGradient
       id="2"
       y1="19"
       y2="6"
       x2="0"
       gradientUnits="userSpaceOnUse">
      <stop
         stop-color="#fff"
         id="stop3691" />
      <stop
         offset="1"
         stop-color="#fff"
         stop-opacity="0"
         id="stop3693" />
    </linearGradient>
    <mask
       id="3">
      <rect
         width="15"
         x="13"
         opacity="0.4"
         y="1"
         fill="url(#2)"
         rx="1"
         height="18"
         id="rect3696"
         ry="1" />
    </mask>
    <clipPath
       id="clipPath3388"
       clipPathUnits="userSpaceOnUse">
      <rect
         style="fill:#ffffff"
         ry="1.209"
         id="rect3390"
         height="42"
         rx="1.209"
         y="-5"
         x="-2.0139999"
         width="34.951" />
    </clipPath>
  </defs>
  <rect
     id="rect16"
     height="42"
     rx="1.209"
     y="3"
     opacity="0.1"
     x="6"
     width="34.951"
     ry="1.209" />
  <rect
     id="rect18"
     height="42"
     rx="1.209"
     fill="url(#0)"
     y="2"
     x="5.986"
     width="34.951"
     ry="1.209" />
  <g
     clip-path="url(#clipPath3388)"
     mask="none"
     transform="translate(8,7)"
     id="g3773">
    <path
       opacity="0.1"
       d="m 3,15 42,0 c 0.554,0 1,0.446 1,1 l 0,18 c 0,0.554 -0.446,1 -1,1 L 3,35 C 2.446,35 2,34.554 2,34 L 2,16 c 0,-0.554 0.446,-1 1,-1 z"
       id="rect3698" />
    <g
       mask="url(#3)"
       id="g3700">
      <path
         d="M 15.53125,1.78125 A 0.859511,0.859511 0 0 0 15,3.03125 c 1.735311,3.119725 4.04498,6.486233 5.25,9.1875 0.60251,1.350634 0.88921,2.519237 0.8125,3.3125 -0.07671,0.793263 -0.344792,1.244167 -1.375,1.65625 A 0.859511,0.859511 0 0 0 20,18.875 l 5,0 A 0.859511,0.859511 0 0 0 25.875,18 c 0,-3.477458 -2.65797,-7.217111 -4.25,-10.15625 C 20.828983,6.37418 20.348198,5.067282 20.375,4.53125 20.388401,4.263234 20.414916,4.241287 20.59375,4.125 20.772584,4.00871 21.21708,3.875 22,3.875 a 0.859943,0.859943 0 0 0 0.0625,-1.71875 l -6.25,-0.375 a 0.859511,0.859511 0 0 0 -0.28125,0 z"
         id="path3702" />
      <path
         fill="#6a6a6a"
         d="M 20,18 C 25,16 19.17067,8.74019 15.762895,2.613732 L 22,3 c -7,0 3,9 3,15 z"
         id="path3704" />
    </g>
    <path
       fill="url(#1-3)"
       d="m 3,14 42,0 c 0.554,0 1,0.446 1,1 l 0,18 c 0,0.554 -0.446,1 -1,1 L 3,34 C 2.446,34 2,33.554 2,33 L 2,15 c 0,-0.554 0.446,-1 1,-1 z"
       id="rect3706" />
    <path
       fill="#fff"
       opacity="0.839"
       d="m 5,18 38,0 c 0.554,0 1,0.446 1,1 l 0,13 c 0,0.554 -0.446,1 -1,1 L 5,33 C 4.446,33 4,32.554 4,32 L 4,19 c 0,-0.554 0.446,-1 1,-1 z"
       id="rect3708" />
    <path
       fill="#171717"
       opacity="0.839"
       d="m 5,17 38,0 c 0.554,0 1,0.446 1,1 l 0,13 c 0,0.554 -0.446,1 -1,1 L 5,32 C 4.446,32 4,31.554 4,31 L 4,18 c 0,-0.554 0.446,-1 1,-1 z"
       id="rect3710" />
    <path
       d="m 9,22 c -0.554,0 -1,0.446 -1,1 l 0,2 -2,0 c -0.554,0 -1,0.446 -1,1 l 0,2 c 0,0.554 0.446,1 1,1 l 2,0 0,2 c 0,0.554 0.446,1 1,1 l 2,0 c 0.554,0 1,-0.446 1,-1 l 0,-2 2,0 c 0.554,0 1,-0.446 1,-1 l 0,-2 c 0,-0.554 -0.446,-1 -1,-1 l -2,0 0,-2 c 0,-0.554 -0.446,-1 -1,-1 l -2,0 z m 9,5 c -0.554,0 -1,0.446 -1,1 l 0,2 c 0,0.554 0.446,1 1,1 l 9,0 c 0.554,0 1,-0.446 1,-1 l 0,-2 c 0,-0.554 -0.446,-1 -1,-1 l -9,0 z m 13,0 c -0.554,0 -1,0.446 -1,1 l 0,3 c 0,0.554 0.446,1 1,1 l 3,0 c 0.554,0 1,-0.446 1,-1 l 0,-3 c 0,-0.554 -0.446,-1 -1,-1 l -3,0 z m 6,0 c -0.554,0 -1,0.446 -1,1 l 0,3 c 0,0.554 0.446,1 1,1 l 3,0 c 0.554,0 1,-0.446 1,-1 l 0,-3 c 0,-0.554 -0.446,-1 -1,-1 l -3,0 z"
       id="path3712" />
    <path
       fill="#ebebeb"
       d="m 9,21 c -0.554,0 -1,0.446 -1,1 l 0,2 -2,0 c -0.554,0 -1,0.446 -1,1 l 0,2 c 0,0.554 0.446,1 1,1 l 2,0 0,2 c 0,0.554 0.446,1 1,1 l 2,0 c 0.554,0 1,-0.446 1,-1 l 0,-2 2,0 c 0.554,0 1,-0.446 1,-1 l 0,-2 c 0,-0.554 -0.446,-1 -1,-1 l -2,0 0,-2 c 0,-0.554 -0.446,-1 -1,-1 l -2,0 z m 9,5 c -0.554,0 -1,0.446 -1,1 l 0,2 c 0,0.554 0.446,1 1,1 l 9,0 c 0.554,0 1,-0.446 1,-1 l 0,-2 c 0,-0.554 -0.446,-1 -1,-1 l -9,0 z m 13,0 c -0.554,0 -1,0.446 -1,1 l 0,3 c 0,0.554 0.446,1 1,1 l 3,0 c 0.554,0 1,-0.446 1,-1 l 0,-3 c 0,-0.554 -0.446,-1 -1,-1 l -3,0 z m 6,0 c -0.554,0 -1,0.446 -1,1 l 0,3 c 0,0.554 0.446,1 1,1 l 3,0 c 0.554,0 1,-0.446 1,-1 l 0,-3 c 0,-0.554 -0.446,-1 -1,-1 l -3,0 z"
       id="path3714" />
    <g
       fill="#171717"
       id="g3716">
      <path
         transform="matrix(0,1,-1,0,0,0)"
         d="m 25.8,-14 0.4,0 c 0.4432,0 0.8,0.3568 0.8,0.8 l 0,6.4 c 0,0.4432 -0.3568,0.8 -0.8,0.8 l -0.4,0 C 25.3568,-6 25,-6.3568 25,-6.8 l 0,-6.4 c 0,-0.4432 0.3568,-0.8 0.8,-0.8 z"
         id="rect3718" />
      <path
         transform="scale(-1,-1)"
         d="m -10.2,-30 0.4,0 c 0.4432,0 0.8,0.3568 0.8,0.8 l 0,6.4 c 0,0.4432 -0.3568,0.8 -0.8,0.8 l -0.4,0 c -0.4432,0 -0.8,-0.3568 -0.8,-0.8 l 0,-6.4 c 0,-0.4432 0.3568,-0.8 0.8,-0.8 z"
         id="rect3720" />
    </g>
    <path
       fill="#fff"
       opacity="0.7"
       d="m 18.8,28 2.4,0 c 0.4432,0 0.8,0.3568 0.8,0.8 l 0,0.4 c 0,0.4432 -0.3568,0.8 -0.8,0.8 l -2.4,0 C 18.3568,30 18,29.6432 18,29.2 l 0,-0.4 C 18,28.3568 18.3568,28 18.8,28 Z"
       id="rect3722" />
    <path
       fill="#171717"
       d="m 18.8,27 2.4,0 c 0.4432,0 0.8,0.3568 0.8,0.8 l 0,0.4 c 0,0.4432 -0.3568,0.8 -0.8,0.8 l -2.4,0 C 18.3568,29 18,28.6432 18,28.2 l 0,-0.4 C 18,27.3568 18.3568,27 18.8,27 Z"
       id="rect3724" />
    <path
       fill="#fff"
       opacity="0.7"
       d="m 23.8,28 2.4,0 c 0.4432,0 0.8,0.3568 0.8,0.8 l 0,0.4 c 0,0.4432 -0.3568,0.8 -0.8,0.8 l -2.4,0 C 23.3568,30 23,29.6432 23,29.2 l 0,-0.4 C 23,28.3568 23.3568,28 23.8,28 Z"
       id="rect3726" />
    <path
       fill="#171717"
       d="m 23.8,27 2.4,0 c 0.4432,0 0.8,0.3568 0.8,0.8 l 0,0.4 c 0,0.4432 -0.3568,0.8 -0.8,0.8 l -2.4,0 C 23.3568,29 23,28.6432 23,28.2 l 0,-0.4 C 23,27.3568 23.3568,27 23.8,27 Z"
       id="rect3728" />
    <g
       fill="#fff"
       id="g3730">
      <path
         opacity="0.4"
         d="m 17.8,23 9.4,0 c 0.4432,0 0.8,0.3568 0.8,0.8 l 0,0.4 c 0,0.4432 -0.3568,0.8 -0.8,0.8 l -9.4,0 C 17.3568,25 17,24.6432 17,24.2 l 0,-0.4 C 17,23.3568 17.3568,23 17.8,23 Z"
         id="rect3732" />
      <path
         opacity="0.4"
         d="m 17.8,20 9.4,0 c 0.4432,0 0.8,0.3568 0.8,0.8 l 0,0.4 c 0,0.4432 -0.3568,0.8 -0.8,0.8 l -9.4,0 C 17.3568,22 17,21.6432 17,21.2 l 0,-0.4 C 17,20.3568 17.3568,20 17.8,20 Z"
         id="rect3734" />
      <path
         opacity="0.4"
         d="m 17.8,17 9.4,0 c 0.4432,0 0.8,0.3568 0.8,0.8 l 0,0.4 c 0,0.4432 -0.3568,0.8 -0.8,0.8 l -9.4,0 C 17.3568,19 17,18.6432 17,18.2 l 0,-0.4 C 17,17.3568 17.3568,17 17.8,17 Z"
         id="rect3736" />
    </g>
    <g
       fill="#d02604"
       id="g3738">
      <path
         d="m 31,20 1,0 0,2 -1,0 z"
         id="path3740" />
      <path
         d="m 32,21 1,0 0,1 -1,0 z"
         id="path3742" />
      <path
         d="m 34,20 1,0 0,2 -1,0 z"
         id="path3744" />
      <path
         d="m 36,21 1,0 0,1 -1,0 z"
         id="path3746" />
      <path
         d="m 37,20 1,0 0,2 -1,0 z"
         id="path3748" />
      <path
         d="m 39,20 1,0 0,1 -1,0 z"
         id="path3750" />
    </g>
    <path
       stroke="#000"
       fill="none"
       opacity="0.3"
       d="m 3,14.53125 c -0.262276,0 -0.46875,0.206474 -0.46875,0.46875 l 0,18 c 0,0.26228 0.206474,0.46875 0.46875,0.46875 l 42,0 c 0.26228,0 0.46875,-0.20647 0.46875,-0.46875 l 0,-18 c 0,-0.262276 -0.20647,-0.46875 -0.46875,-0.46875 l -42,0 z"
       id="path3752" />
    <path
       fill="#fff"
       opacity="0.8"
       d="m 3,15 42,0 0,1 -42,0 z"
       id="path3754" />
    <path
       fill="#d02604"
       id="0-9"
       d="m 34,28.5 a 1.5,1.5 0 1 1 -3,0 1.5,1.5 0 1 1 3,0 z" />
    <use
       height="48"
       width="48"
       xlink:href="#0-9"
       transform="translate(6,0)"
       id="use3757"
       x="0"
       y="0" />
    <path
       fill="#fff"
       opacity="0.4"
       d="m 17,31.0594 11,0 0,0.8092 -11,0 z"
       id="path3759" />
  </g>
  <g
     fill="none"
     id="g20">
    <path
       stroke="#000"
       opacity="0.4"
       id="path22"
       d="M 7.1875,2.5 C 6.783721,2.5 6.5,2.799839 6.5,3.21875 l 0,39.5625 C 6.5,43.20016 6.783721,43.5 7.1875,43.5 l 32.53125,0 c 0.40378,0 0.71875,-0.31497 0.71875,-0.71875 l 0,-39.5625 C 40.4375,2.814971 40.12253,2.5 39.71875,2.5 L 7.1875,2.5 Z" />
    <path
       stroke="url(#1)"
       opacity="0.78"
       id="path24"
       d="m 7.5312,3.5312 0,38.9375 31.875,0 0,-38.9375 -31.875,0 z" />
  </g>
  <metadata
     id="metadata9999">
    <rdf:RDF>
      <cc:Work>
        <dc:format>image/svg+xml</dc:format>
        <dc:type
           rdf:resource="http://purl.org/dc/dcmitype/StillImage" />
        <dc:title></dc:title>
        <cc:license
           rdf:resource="http://creativecommons.org/licenses/by-sa/4.0/" />
        <dc:creator>
          <cc:Agent>
            <dc:title>Sixsixfive (sixsixfive.deviantart.com)</dc:title>
          </cc:Agent>
        </dc:creator>
        <dc:publisher>
          <cc:Agent>
            <dc:title>Sixsixfive (sixsixfive.deviantart.com)</dc:title>
          </cc:Agent>
        </dc:publisher>
        <dc:source>https://github.com/sixsixfive</dc:source>
        <dc:subject>
          <rdf:Bag>
            <rdf:li>ivy</rdf:li>
          </rdf:Bag>
        </dc:subject>
        <dc:contributor>
          <cc:Agent>
            <dc:title>ssf</dc:title>
          </cc:Agent>
        </dc:contributor>
        <dc:rights>
          <cc:Agent>
            <dc:title>Sixsixfive (sixisixfive.deviantart.com)</dc:title>
          </cc:Agent>
        </dc:rights>
        <dc:description>A simple icon theme published under CC-BY-SA_V4(http://creativecommons.org/licenses/by-sa/4.0)</dc:description>
        <dc:identifier>SSF</dc:identifier>
      </cc:Work>
    </rdf:RDF>
  </metadata>
  <!--Part of the Ivy icon them published under the CC-BY-SA_V4: http://creativecommons.org/licenses/by-sa/4.0 -->
</svg>
