<?xml version="1.0" encoding="UTF-8" standalone="no"?><svg xmlns:cc="http://creativecommons.org/ns#" xmlns:dc="http://purl.org/dc/elements/1.1/" xmlns="http://www.w3.org/2000/svg" xmlns:svg="http://www.w3.org/2000/svg" xmlns:rdf="http://www.w3.org/1999/02/22-rdf-syntax-ns#" id="svg2" version="1.1" viewBox="0 0 48 48"><defs id="defs4"><linearGradient gradientUnits="userSpaceOnUse" y1="3" id="0" y2="44" x2="0"><stop id="stop7" stop-color="#dedede"/><stop id="stop9" stop-color="#f4f4f4" offset="1"/></linearGradient><linearGradient gradientUnits="userSpaceOnUse" y1="3" x1="40" id="1" y2="42.969" x2="39.906"><stop id="stop12" stop-color="#fff"/><stop stop-opacity="0" id="stop14" stop-color="#fff" offset="1"/></linearGradient></defs><rect width="34.951" ry="1.209" height="42" rx="1.209" opacity="0.1" id="rect16" y="3" x="6"/><rect width="34.951" ry="1.209" height="42" rx="1.209" id="rect18" y="2" x="5.986" fill="url(#0)"/><g id="g20" fill="none"><path stroke="#000" opacity="0.4" d="M 7.1875,2.5 C 6.7837,2.5 6.5,2.7998 6.5,3.2188 l 0,39.562 c 0,0.419 0.2837,0.719 0.6875,0.719 l 32.531,0 c 0.40378,0 0.71875,-0.31497 0.71875,-0.71875 l 0,-39.562 c 10e-4,-0.404 -0.314,-0.719 -0.718,-0.719 l -32.532,0 z" id="path22"/><path stroke="url(#1)" opacity="0.78" d="m 7.5312,3.5312 0,38.938 31.875,0 0,-38.938 -31.875,0 z" id="path24"/></g><g transform="matrix(-1 0 0 1 0 0)" id="g26"><path opacity="0.3" d="m -25,29 0,1 1,0 0,1 1,0 0,1 1,0 0,1 1,0 0,1 1,0 0,1 -1,0 0,1 -1,0 0,1 -1,0 0,1 -1,0 0,1 -1,0 0,1 -1,0 0,-2 1,0 0,-1 1,0 0,-1 1,0 0,-1 1,0 0,-1 -1,0 0,-1 -1,0 0,-1 -1,0 0,-1 -1,0 0,-2 1,0 z m -5,0 0,2 -1,0 0,1 -1,0 0,1 -1,0 0,1 -1,0 0,1 1,0 0,1 1,0 0,1 1,0 0,1 1,0 0,2 -1,0 0,-1 -1,0 0,-1 -1,0 0,-1 -1,0 0,-1 -1,0 0,-1 -1,0 0,-1 1,0 0,-1 1,0 0,-1 1,0 0,-1 1,0 0,-1 1,0 0,-1 1,0 z" id="path28" fill="#fff"/><path opacity="0.3" d="m -25,28 0,1 1,0 0,1 1,0 0,1 1,0 0,1 1,0 0,1 1,0 0,1 -1,0 0,1 -1,0 0,1 -1,0 0,1 -1,0 0,1 -1,0 0,1 -1,0 0,-2 1,0 0,-1 1,0 0,-1 1,0 0,-1 1,0 0,-1 -1,0 0,-1 -1,0 0,-1 -1,0 0,-1 -1,0 0,-2 1,0 z m -5,0 0,2 -1,0 0,1 -1,0 0,1 -1,0 0,1 -1,0 0,1 1,0 0,1 1,0 0,1 1,0 0,1 1,0 0,2 -1,0 0,-1 -1,0 0,-1 -1,0 0,-1 -1,0 0,-1 -1,0 0,-1 -1,0 0,-1 1,0 0,-1 1,0 0,-1 1,0 0,-1 1,0 0,-1 1,0 0,-1 1,0 z" id="path30"/></g><metadata id="metadata9999"><rdf:RDF><cc:Work><dc:format>image/svg+xml</dc:format><dc:type rdf:resource="http://purl.org/dc/dcmitype/StillImage"/><dc:title>Ivy icon theme</dc:title><cc:license rdf:resource="http://creativecommons.org/licenses/by-sa/4.0/"/><dc:creator><cc:Agent><dc:title>Sixsixfive (sixsixfive.deviantart.com)</dc:title></cc:Agent></dc:creator><dc:publisher><cc:Agent><dc:title>Sixsixfive (sixsixfive.deviantart.com)</dc:title></cc:Agent></dc:publisher><dc:source>https://github.com/sixsixfive</dc:source><dc:subject><rdf:Bag><rdf:li>ivy</rdf:li></rdf:Bag></dc:subject><dc:contributor><cc:Agent><dc:title>ssf</dc:title></cc:Agent></dc:contributor><dc:rights><cc:Agent><dc:title>Sixsixfive (sixisixfive.deviantart.com)</dc:title></cc:Agent></dc:rights><dc:description>A simple icon theme published under CC-BY-SA_V4(http://creativecommons.org/licenses/by-sa/4.0)</dc:description><dc:identifier>SSF</dc:identifier></cc:Work></rdf:RDF></metadata><!--Part of the Ivy icon them published under the CC-BY-SA_V4: http://creativecommons.org/licenses/by-sa/4.0 -->
</svg>