<?xml version="1.0" encoding="UTF-8" standalone="no"?>
<svg
   xmlns:dc="http://purl.org/dc/elements/1.1/"
   xmlns:cc="http://creativecommons.org/ns#"
   xmlns:rdf="http://www.w3.org/1999/02/22-rdf-syntax-ns#"
   xmlns:svg="http://www.w3.org/2000/svg"
   xmlns="http://www.w3.org/2000/svg"
   id="svg2"
   viewBox="0 0 48 48"
   version="1.1">
  <defs
     id="defs4">
    <linearGradient
       id="0"
       y1="3"
       y2="44"
       x2="0"
       gradientUnits="userSpaceOnUse">
      <stop
         stop-color="#dedede"
         id="stop7" />
      <stop
         offset="1"
         stop-color="#f4f4f4"
         id="stop9" />
    </linearGradient>
    <linearGradient
       id="1"
       y1="3"
       x1="40"
       y2="42.969"
       x2="39.906"
       gradientUnits="userSpaceOnUse">
      <stop
         stop-color="#fff"
         id="stop12" />
      <stop
         offset="1"
         stop-color="#fff"
         stop-opacity="0"
         id="stop14" />
    </linearGradient>
    <linearGradient
       gradientUnits="userSpaceOnUse"
       x2="0"
       y2="45"
       y1="19"
       id="0-1">
      <stop
         id="stop3843"
         stop-color="#fff" />
      <stop
         id="stop3845"
         stop-opacity="0"
         stop-color="#fff"
         offset="1" />
    </linearGradient>
    <linearGradient
       gradientUnits="userSpaceOnUse"
       x2="0"
       y2="46"
       y1="19"
       id="1-3">
      <stop
         id="stop3848"
         stop-color="#929292" />
      <stop
         id="stop3850"
         stop-color="#d6d6d6"
         offset="1" />
    </linearGradient>
    <radialGradient
       gradientTransform="matrix(-2.18339,1.8986,-1.81818,-2.09091,98.42,-12.243)"
       gradientUnits="userSpaceOnUse"
       id="2"
       r="11"
       cy="12.786"
       cx="25.27">
      <stop
         id="stop3853"
         stop-color="#ebebeb" />
      <stop
         id="stop3855"
         stop-color="#6a6a6a"
         offset="1" />
    </radialGradient>
    <clipPath
       id="clipPath3373"
       clipPathUnits="userSpaceOnUse">
      <rect
         style="fill:#ffffff"
         width="34.951"
         x="-3.0139999"
         y="0.99994999"
         rx="1.209"
         height="42"
         id="rect3375"
         ry="1.209" />
    </clipPath>
  </defs>
  <rect
     ry="1.209"
     width="34.951"
     x="6"
     opacity="0.1"
     y="3"
     rx="1.209"
     height="42"
     id="rect16" />
  <rect
     ry="1.209"
     width="34.951"
     x="5.986"
     y="2"
     fill="url(#0)"
     rx="1.209"
     height="42"
     id="rect18" />
  <g
     clip-path="url(#clipPath3373)"
     id="g3902"
     transform="translate(9,1.00005)"
     mask="none">
    <path
       opacity="0.1"
       id="path3857"
       d="m 21,6.9062 c -4.432,0 -8,3.568 -8,8 l 0,5.09375 -1,0 c -1.662,0 -3,1.338 -3,3 l 0,21 c 0,1.662 1.338,3 3,3 l 24,0 c 1.662,0 3,-1.338 3,-3 l 0,-21 c 0,-1.662 -1.338,-3 -3,-3 l -1,0 0,-5.09375 c 0,-4.432 -3.568,-8 -8,-8 l -6,0 z m 0,4 6,0 c 2.2928,0 4,1.7072 4,4 l 0,5.09375 -14,0 0,-5.09375 c 0,-2.2928 1.7072,-4 4,-4 z" />
    <path
       fill="url(#2)"
       id="path3859"
       d="m 21,5.8998 c -4.432,0 -8,3.568 -8,8 l 0,11 c 0,4.432 3.568,8 8,8 l 6,0 c 4.432,0 8,-3.568 8,-8 l 0,-11 c 0,-4.432 -3.568,-8 -8,-8 l -6,0 z m 0,4 6,0 c 2.2928,0 4,1.7072 4,4 l 0,11 c 0,2.2928 -1.7072,4 -4,4 l -6,0 c -2.2928,0 -4,-1.7072 -4,-4 l 0,-11 c 0,-2.2928 1.7072,-4 4,-4 z" />
    <path
       stroke="#000"
       fill="none"
       opacity="0.4"
       id="path3861"
       d="m 21,6.3685 c -4.18409,0 -7.53125,3.34716 -7.53125,7.53125 l 0,11 c 0,4.18409 3.34716,7.53125 7.53125,7.53125 l 6,0 c 4.18409,0 7.53125,-3.34716 7.53125,-7.53125 l 0,-11 C 34.53125,9.71566 31.18409,6.3685 27,6.3685 l -6,0 z m 0,3.0625 6,0 c 2.52208,0 4.46875,1.94667 4.46875,4.46875 l 0,11 c 0,2.52208 -1.94667,4.46875 -4.46875,4.46875 l -6,0 c -2.52208,0 -4.46875,-1.94667 -4.46875,-4.46875 l 0,-11 C 16.53125,11.37767 18.47792,9.431 21,9.431 Z" />
    <path
       fill="url(#1-3)"
       id="rect3863"
       d="m 12,19 24,0 c 1.662,0 3,1.338 3,3 l 0,21 c 0,1.662 -1.338,3 -3,3 L 12,46 C 10.338,46 9,44.662 9,43 L 9,22 c 0,-1.662 1.338,-3 3,-3 z" />
    <path
       fill="#fff"
       opacity="0.463"
       id="path3865"
       d="m 19,6.9 10,0 0,1 -10,0 z" />
    <path
       stroke="url(#0-1)"
       fill="none"
       opacity="0.8"
       id="path3867"
       d="m 12,20.5312 c -0.839748,0 -1.46875,0.629002 -1.46875,1.46875 l 0,21 c 0,0.839748 0.629002,1.46875 1.46875,1.46875 l 24,0 c 0.839748,0 1.46875,-0.629002 1.46875,-1.46875 l 0,-21 C 37.46875,21.1602 36.839748,20.5312 36,20.5312 l -24,0 z" />
    <path
       fill="#ffd506"
       id="path3869"
       d="m 10,24 29,0 0,5 -29,0 z" />
    <path
       id="path3871"
       d="m 10,29 5,-5 5,0 -5,5 z" />
    <path
       id="path3873"
       d="m 20,29 5,-5 5,0 -5,5 z" />
    <path
       id="path3875"
       d="m 35,24 -5,5 5,0 4,-4 0,-1 -4,0 z" />
    <path
       stroke="#000"
       fill="none"
       opacity="0.4"
       id="path3877"
       d="m 12,19.5312 c -1.37278,0 -2.46875,1.09597 -2.46875,2.46875 l 0,21 c 0,1.37278 1.09597,2.46875 2.46875,2.46875 l 24,0 c 1.37278,0 2.46875,-1.09597 2.46875,-2.46875 l 0,-21 C 38.46875,20.62717 37.37278,19.5312 36,19.5312 l -24,0 z" />
    <path
       opacity="0.3"
       id="path3879"
       d="m 10,28 28,0 0,1 -28,0 z" />
    <path
       opacity="0.46"
       id="path3881"
       d="m 10,24 28,0 0,1 -28,0 z" />
    <g
       fill="#fff"
       id="g3883">
      <path
         opacity="0.36"
         id="path3885"
         d="m 10,29 28,0 0,1 -28,0 z" />
      <path
         opacity="0.26"
         id="path3887"
         d="m 10,23 28,0 0,1 -28,0 z" />
    </g>
  </g>
  <g
     fill="none"
     id="g20">
    <path
       stroke="#000"
       opacity="0.4"
       d="M 7.1875,2.5 C 6.783721,2.5 6.5,2.799839 6.5,3.21875 l 0,39.5625 C 6.5,43.20016 6.783721,43.5 7.1875,43.5 l 32.53125,0 c 0.40378,0 0.71875,-0.31497 0.71875,-0.71875 l 0,-39.5625 C 40.4375,2.814971 40.12253,2.5 39.71875,2.5 L 7.1875,2.5 Z"
       id="path22" />
    <path
       stroke="url(#1)"
       opacity="0.78"
       d="m 7.5312,3.5312 0,38.9375 31.875,0 0,-38.9375 -31.875,0 z"
       id="path24" />
  </g>
  <metadata
     id="metadata9999">
    <rdf:RDF>
      <cc:Work>
        <dc:format>image/svg+xml</dc:format>
        <dc:type
           rdf:resource="http://purl.org/dc/dcmitype/StillImage" />
        <dc:title></dc:title>
        <cc:license
           rdf:resource="http://creativecommons.org/licenses/by-sa/4.0/" />
        <dc:creator>
          <cc:Agent>
            <dc:title>Sixsixfive (sixsixfive.deviantart.com)</dc:title>
          </cc:Agent>
        </dc:creator>
        <dc:publisher>
          <cc:Agent>
            <dc:title>Sixsixfive (sixsixfive.deviantart.com)</dc:title>
          </cc:Agent>
        </dc:publisher>
        <dc:source>https://github.com/sixsixfive</dc:source>
        <dc:subject>
          <rdf:Bag>
            <rdf:li>ivy</rdf:li>
          </rdf:Bag>
        </dc:subject>
        <dc:contributor>
          <cc:Agent>
            <dc:title>ssf</dc:title>
          </cc:Agent>
        </dc:contributor>
        <dc:rights>
          <cc:Agent>
            <dc:title>Sixsixfive (sixisixfive.deviantart.com)</dc:title>
          </cc:Agent>
        </dc:rights>
        <dc:description>A simple icon theme published under CC-BY-SA_V4(http://creativecommons.org/licenses/by-sa/4.0)</dc:description>
        <dc:identifier>SSF</dc:identifier>
      </cc:Work>
    </rdf:RDF>
  </metadata>
  <!--Part of the Ivy icon them published under the CC-BY-SA_V4: http://creativecommons.org/licenses/by-sa/4.0 -->
</svg>
