<?xml version="1.0" encoding="UTF-8" standalone="no"?><svg viewBox="0 0 48 48" xmlns:svg="http://www.w3.org/2000/svg" xmlns="http://www.w3.org/2000/svg" xmlns:rdf="http://www.w3.org/1999/02/22-rdf-syntax-ns#" xmlns:xlink="http://www.w3.org/1999/xlink" version="1.1" id="svg2" xmlns:dc="http://purl.org/dc/elements/1.1/" xmlns:cc="http://creativecommons.org/ns#"><defs id="defs4"><linearGradient y1="3" x2="0" y2="44" id="0" gradientUnits="userSpaceOnUse"><stop id="stop7" stop-color="#e22904"/><stop offset="1" id="stop9" stop-color="#fc6445"/></linearGradient><linearGradient x1="40" y1="3" x2="39.906" y2="42.969" id="1" gradientUnits="userSpaceOnUse"><stop id="stop12" stop-color="#fff"/><stop stop-opacity="0" offset="1" id="stop14" stop-color="#fff"/></linearGradient><linearGradient y1="19" x2="0" y2="30" id="2" gradientUnits="userSpaceOnUse"><stop id="stop17" stop-color="#a2a2a2"/><stop offset="1" id="stop19" stop-color="#bbb"/></linearGradient></defs><rect y="3" x="6" opacity="0.1" ry="1.209" rx="1.209" height="42" id="rect21" width="34.951"/><rect y="2" x="5.986" ry="1.209" rx="1.209" height="42" id="rect23" width="34.951" fill="url(#0)"/><path opacity="0.66" id="path25" d="M 20,2 H28 V23 H20 z" fill="#6a6a6a"/><g id="g27" fill="none"><path stroke="#000" opacity="0.4" id="path29" d="M 7.1875,2.5 C 6.783721,2.5 6.5,2.799839 6.5,3.21875 l 0,39.5625 C 6.5,43.20016 6.783721,43.5 7.1875,43.5 l 32.53125,0 c 0.40378,0 0.71875,-0.31497 0.71875,-0.71875 l 0,-39.5625 C 40.4375,2.814971 40.12253,2.5 39.71875,2.5 L 7.1875,2.5 Z"/><path stroke="url(#1)" opacity="0.34" id="path31" d="m 7.5312,3.5312 0,38.9375 31.875,0 0,-38.9375 -31.875,0 z"/></g><g opacity="0.26" id="g33" fill="#fff"><path id="3" d="m 21,4 3,0 0,1 -3,0 z"/><path id="4" d="m 24,5 3,0 0,1 -3,0 z"/><path id="5" d="m 21,6 3,0 0,1 -3,0 z"/><path id="6" d="m 24,7 3,0 0,1 -3,0 z"/><path id="7" d="m 21,8 3,0 0,1 -3,0 z"/><path id="8" d="m 24,9 3,0 0,1 -3,0 z"/><path id="9" d="m 21,10 3,0 0,1 -3,0 z"/><path id="A" d="m 24,11 3,0 0,1 -3,0 z"/><path id="B" d="m 21,12 3,0 0,1 -3,0 z"/><path id="C" d="m 24,13 3,0 0,1 -3,0 z"/><path id="D" d="m 21,14 3,0 0,1 -3,0 z"/><path id="E" d="m 24,15 3,0 0,1 -3,0 z"/><path id="F" d="m 21,16 3,0 0,1 -3,0 z"/><path id="G" d="m 24,17 3,0 0,1 -3,0 z"/><path id="H" d="m 21,18 3,0 0,1 -3,0 z"/><path id="I" d="m 24,19 3,0 0,1 -3,0 z"/><path id="J" d="m 21,20 3,0 0,1 -3,0 z"/><path id="K" d="m 24,3 3,0 0,1 -3,0 z"/><path id="L" d="m 21,2 3,0 0,1 -3,0 z"/></g><g opacity="0.5" transform="matrix(-1 0 0 1 48 0)" id="g54"><use y="0" x="0" xlink:href="#3" height="48" id="use56" width="48"/><use y="0" x="0" xlink:href="#4" height="48" id="use58" width="48"/><use y="0" x="0" xlink:href="#5" height="48" id="use60" width="48"/><use y="0" x="0" xlink:href="#6" height="48" id="use62" width="48"/><use y="0" x="0" xlink:href="#7" height="48" id="use64" width="48"/><use y="0" x="0" xlink:href="#8" height="48" id="use66" width="48"/><use y="0" x="0" xlink:href="#9" height="48" id="use68" width="48"/><use y="0" x="0" xlink:href="#A" height="48" id="use70" width="48"/><use y="0" x="0" xlink:href="#B" height="48" id="use72" width="48"/><use y="0" x="0" xlink:href="#C" height="48" id="use74" width="48"/><use y="0" x="0" xlink:href="#D" height="48" id="use76" width="48"/><use y="0" x="0" xlink:href="#E" height="48" id="use78" width="48"/><use y="0" x="0" xlink:href="#F" height="48" id="use80" width="48"/><use y="0" x="0" xlink:href="#G" height="48" id="use82" width="48"/><use y="0" x="0" xlink:href="#H" height="48" id="use84" width="48"/><use y="0" x="0" xlink:href="#I" height="48" id="use86" width="48"/><use y="0" x="0" xlink:href="#J" height="48" id="use88" width="48"/><use y="0" x="0" xlink:href="#K" height="48" id="use90" width="48"/><use y="0" x="0" xlink:href="#L" height="48" id="use92" width="48"/></g><path opacity="0.66" id="path94" d="M 23,2 H25 V21 H23 z" fill="#171717"/><path opacity="0.2" id="path96" d="m 19 20 c -0.554 0 -1 0.446 -1 1 v 2 c 0 0.554 0.446 1 1 1 h 1 v 5 c 0 1.108 0.892 2 2 2 h 4 c 1.108 0 2 -0.892 2 -2 v -5 h 1 c 0.554 0 1 -0.446 1 -1 v -2 c 0 -0.554 -0.446 -1 -1 -1 h -10 z"/><path id="path98" d="m 19 19 c -0.554 0 -1 0.446 -1 1 v 2 c 0 0.554 0.446 1 1 1 h 1 v 5 c 0 1.108 0.892 2 2 2 h 4 c 1.108 0 2 -0.892 2 -2 v -5 h 1 c 0.554 0 1 -0.446 1 -1 v -2 c 0 -0.554 -0.446 -1 -1 -1 h -10 z" fill="url(#2)"/><rect y="26" x="22" ry="1" rx="1" height="2" id="rect100" width="4" fill="#d02604"/><path stroke="#000" opacity="0.4" id="path102" d="m 19 19.5312 c -0.264478 0 -0.46875 0.204272 -0.46875 0.46875 v 2 c 0 0.264478 0.204272 0.46875 0.46875 0.46875 h 1 a 0.539501 0.539501 0 0 1 0.53125 0.53125 v 5 c 0 0.818478 0.650272 1.46875 1.46875 1.46875 h 4 c 0.818478 0 1.46875 -0.650272 1.46875 -1.46875 v -5 A 0.539501 0.539501 0 0 1 28 22.4687 h 1 c 0.264478 0 0.46875 -0.204272 0.46875 -0.46875 v -2 C 29.46875 19.735472 29.26448 19.5312 29 19.5312 h -10 z" fill="none"/><rect y="20" x="19" opacity="0.36" ry="0.5" rx="1" height="1" id="rect104" width="10" fill="#fff"/><rect y="26" x="22" opacity="0.54" ry="0.5" rx="0.96" height="1" id="rect106" width="4"/><rect y="28" x="22" opacity="0.35" ry="0.5" rx="0.96" height="1" id="rect108" width="4" fill="#fff"/><metadata id="metadata9999"><rdf:RDF><cc:Work><dc:format>image/svg+xml</dc:format><dc:type rdf:resource="http://purl.org/dc/dcmitype/StillImage"/><dc:title>Ivy icon theme</dc:title><cc:license rdf:resource="http://creativecommons.org/licenses/by-sa/4.0/"/><dc:creator><cc:Agent><dc:title>Sixsixfive (sixsixfive.deviantart.com)</dc:title></cc:Agent></dc:creator><dc:publisher><cc:Agent><dc:title>Sixsixfive (sixsixfive.deviantart.com)</dc:title></cc:Agent></dc:publisher><dc:source>https://github.com/sixsixfive</dc:source><dc:subject><rdf:Bag><rdf:li>ivy</rdf:li></rdf:Bag></dc:subject><dc:contributor><cc:Agent><dc:title>ssf</dc:title></cc:Agent></dc:contributor><dc:rights><cc:Agent><dc:title>Sixsixfive (sixisixfive.deviantart.com)</dc:title></cc:Agent></dc:rights><dc:description>A simple icon theme published under CC-BY-SA_V4(http://creativecommons.org/licenses/by-sa/4.0)</dc:description><dc:identifier>SSF</dc:identifier></cc:Work></rdf:RDF></metadata><!--Part of the Ivy icon them published under the CC-BY-SA_V4: http://creativecommons.org/licenses/by-sa/4.0 -->
</svg>