<?xml version="1.0" encoding="UTF-8" standalone="no"?>
<svg
   xmlns:dc="http://purl.org/dc/elements/1.1/"
   xmlns:cc="http://creativecommons.org/ns#"
   xmlns:rdf="http://www.w3.org/1999/02/22-rdf-syntax-ns#"
   xmlns:svg="http://www.w3.org/2000/svg"
   xmlns="http://www.w3.org/2000/svg"
   xmlns:xlink="http://www.w3.org/1999/xlink"
   version="1.1"
   viewBox="0 0 48 48"
   id="svg2">
  <defs
     id="defs5">
    <linearGradient
       id="linearGradient4206">
      <stop
         stop-color="#fff"
         id="stop4208" />
      <stop
         offset="1"
         stop-color="#fff"
         id="stop4210"
         stop-opacity="0" />
    </linearGradient>
    <linearGradient
       id="linearGradient4192">
      <stop
         stop-color="#ebebeb"
         id="stop4194" />
      <stop
         offset="1"
         stop-color="#999"
         id="stop4196" />
    </linearGradient>
    <linearGradient
       id="1"
       y1="-0.002857"
       x1="0.001516"
       y2="-0.001667"
       x2="1.00169">
      <stop
         stop-color="#171717"
         id="stop7" />
      <stop
         offset="1"
         stop-color="#646464"
         id="stop9" />
    </linearGradient>
    <linearGradient
       id="2"
       y1="10.484654"
       x1="40.20389"
       y2="48.15725"
       gradientUnits="userSpaceOnUse"
       x2="40.36488"
       gradientTransform="matrix(1.1021928 0 0 0.9072823 0 0)">
      <stop
         stop-color="#fff"
         id="stop12" />
      <stop
         offset="1"
         stop-color="#fff"
         id="stop14"
         stop-opacity="0" />
    </linearGradient>
    <linearGradient
       xlink:href="#linearGradient4192"
       id="linearGradient4198"
       y1="52.3313"
       y2="26.48051"
       gradientUnits="userSpaceOnUse"
       x2="0"
       gradientTransform="matrix(1.1033546 0 0 0.90632697 0 0)" />
    <linearGradient
       xlink:href="#linearGradient4206"
       id="linearGradient4212"
       y1="27.967894"
       x1="40.687614"
       y2="52.599871"
       gradientUnits="userSpaceOnUse"
       x2="40.664538"
       gradientTransform="matrix(1.1436112 0 0 0.87442303 0 0)" />
    <linearGradient
       id="linearGradient8100"
       xlink:href="#1"
       y1="-41.15989"
       y2="-41.11429"
       x1="9.978809"
       gradientUnits="userSpaceOnUse"
       x2="48.29913"
       gradientTransform="matrix(0.9122317 0 0 1.0962127 0 0)" />
    <clipPath
       id="clipPath3363"
       clipPathUnits="userSpaceOnUse">
      <rect
         style="fill:#ffffff"
         ry="1.209"
         transform="matrix(0,1,-1,0,0,0)"
         id="rect3365"
         height="42"
         rx="1.209"
         y="-45"
         x="9.0500002"
         width="34.951" />
    </clipPath>
  </defs>
  <rect
     width="34.951"
     x="10.05"
     opacity="0.1"
     y="-45"
     rx="1.209"
     height="42"
     id="rect18"
     transform="matrix(0 1 -1 0 0 0)"
     ry="1.209" />
  <rect
     width="34.951"
     x="9.05"
     y="-45"
     fill="url(#linearGradient8100)"
     rx="1.209"
     height="42"
     id="rect20"
     transform="matrix(0 1 -1 0 0 0)"
     ry="1.209" />
  <rect
     width="34.951"
     x="9.05"
     y="-45"
     fill="url(#linearGradient8100)"
     rx="1.209"
     height="42"
     id="rect4158"
     transform="matrix(0 1 -1 0 0 0)"
     ry="1.209" />
  <rect
     width="34.951"
     x="9.05"
     y="-45"
     fill="url(#linearGradient8100)"
     rx="1.209"
     height="42"
     id="rect4160"
     transform="matrix(0 1 -1 0 0 0)"
     ry="1.209" />
  <g
     clip-path="url(#clipPath3363)"
     id="g8148"
     mask="none">
    <path
       fill="url(#linearGradient4198)"
       stroke-opacity="0.286275"
       id="rect3375"
       d="m 22.009766,24 c -1.661999,0 -3,1.337999 -3,3 l 0,12 c 0,1.661999 1.338001,3 3,3 l 3,0 0,5 6.25,-5 12.75,0 c 1.661999,0 3,-1.338001 3,-3 l 0,-12 c 0,-1.662001 -1.338001,-3 -3,-3 l -22,0 z" />
    <path
       stroke-opacity="0.286275"
       opacity="0.2"
       id="path4214"
       d="m 22.009766,25 c -1.661999,0 -3,1.337999 -3,3 l 0,12 c 0,1.661999 1.338001,3 3,3 l 3,0 0,5 6.25,-5 12.75,0 c 1.661999,0 3,-1.338001 3,-3 l 0,-12 c 0,-1.662001 -1.338001,-3 -3,-3 l -22,0 z" />
    <path
       stroke="url(#linearGradient4212)"
       fill="none"
       stroke-opacity="0.286275"
       id="path4204"
       d="m 22.009766,25.525391 c -0.843706,0 -1.474609,0.630903 -1.474609,1.474609 l 0,12 c 0,0.843708 0.630903,1.474609 1.474609,1.474609 l 3,0 A 1.524819,1.524819 0 0 1 26.535157,42 l 0,1.826172 3.771484,-3.017578 a 1.524819,1.524819 0 0 1 0.953125,-0.333984 l 12.75,0 c 0.843708,0 1.474609,-0.630901 1.474609,-1.474609 l 0,-11.999998 c 0,-0.843706 -0.630901,-1.474609 -1.474609,-1.474609 l -22,0 0,-2e-6 z" />
    <path
       stroke="#000"
       fill="none"
       opacity="0.9"
       id="path4202"
       d="M 22.009766,24.490234 C 20.610747,24.490234 19.5,25.60098 19.5,27 l 0,12 c 0,1.399017 1.110746,2.509766 2.509766,2.509766 l 3,0 A 0.490044,0.490044 0 0 1 25.5,42 l 0,3.980469 5.453125,-4.363281 a 0.490044,0.490044 0 0 1 0.306641,-0.107422 l 12.75,0 c 1.399017,0 2.509766,-1.110748 2.509766,-2.509766 l 0,-12 c 0,-1.399019 -1.110748,-2.509768 -2.509766,-2.509768 l -22,0 0,2e-6 z" />
  </g>
  <g
     fill="none"
     id="g22">
    <path
       stroke="#000"
       id="path24"
       d="m 44.506901,10.2431 c 0,-0.403779 -0.299839,-0.6875 -0.71875,-0.6875 l -39.5625,0 c -0.418911,0 -0.71875,0.283721 -0.71875,0.6875 l 0,32.531199 c 0,0.403782 0.31497,0.71875 0.71875,0.71875 l 39.5625,0 c 0.403778,0 0.71875,-0.314968 0.71875,-0.71875 l 0,-32.531199 z" />
    <path
       stroke="url(#2)"
       opacity="0.3"
       id="path26"
       d="m 43.475601,10.5869 -38.9375,0 0,31.874999 38.9375,0 0,-31.874999 z" />
  </g>
  <metadata
     id="metadata9999">
    <rdf:RDF>
      <cc:Work>
        <dc:format>image/svg+xml</dc:format>
        <dc:type
           rdf:resource="http://purl.org/dc/dcmitype/StillImage" />
        <dc:title></dc:title>
        <cc:license
           rdf:resource="http://creativecommons.org/licenses/by-sa/4.0/" />
        <dc:creator>
          <cc:Agent>
            <dc:title>Sixsixfive (sixsixfive.deviantart.com)</dc:title>
          </cc:Agent>
        </dc:creator>
        <dc:publisher>
          <cc:Agent>
            <dc:title>Sixsixfive (sixsixfive.deviantart.com)</dc:title>
          </cc:Agent>
        </dc:publisher>
        <dc:source>https://github.com/sixsixfive</dc:source>
        <dc:subject>
          <rdf:Bag>
            <rdf:li>ivy</rdf:li>
          </rdf:Bag>
        </dc:subject>
        <dc:contributor>
          <cc:Agent>
            <dc:title>ssf</dc:title>
          </cc:Agent>
        </dc:contributor>
        <dc:rights>
          <cc:Agent>
            <dc:title>Sixsixfive (sixisixfive.deviantart.com)</dc:title>
          </cc:Agent>
        </dc:rights>
        <dc:description>A simple icon theme published under CC-BY-SA_V4(http://creativecommons.org/licenses/by-sa/4.0)</dc:description>
        <dc:identifier>SSF</dc:identifier>
      </cc:Work>
    </rdf:RDF>
  </metadata>
  <!--Part of the Ivy icon them published under the CC-BY-SA_V4: http://creativecommons.org/licenses/by-sa/4.0 -->
</svg>
