<?xml version="1.0" encoding="UTF-8" standalone="no"?>
<svg
   xmlns:dc="http://purl.org/dc/elements/1.1/"
   xmlns:cc="http://creativecommons.org/ns#"
   xmlns:rdf="http://www.w3.org/1999/02/22-rdf-syntax-ns#"
   xmlns:svg="http://www.w3.org/2000/svg"
   xmlns="http://www.w3.org/2000/svg"
   xmlns:xlink="http://www.w3.org/1999/xlink"
   id="svg2"
   version="1.1"
   viewBox="0 0 48 48">
  <defs
     id="defs4">
    <linearGradient
       gradientUnits="userSpaceOnUse"
       x2="0"
       y2="44"
       y1="3"
       id="1">
      <stop
         id="stop8"
         stop-color="#dedede" />
      <stop
         id="stop10"
         stop-color="#f4f4f4"
         offset="1" />
    </linearGradient>
    <linearGradient
       gradientUnits="userSpaceOnUse"
       x2="39.906"
       y2="42.969"
       x1="40"
       y1="3"
       id="2">
      <stop
         id="stop13"
         stop-color="#fff" />
      <stop
         id="stop15"
         stop-opacity="0"
         stop-color="#fff"
         offset="1" />
    </linearGradient>
    <linearGradient
       id="2-0">
      <stop
         id="E"
         stop-color="#a3c0e7" />
      <stop
         id="F"
         stop-color="#fff"
         offset="1" />
    </linearGradient>
    <linearGradient
       id="3">
      <stop
         id="G" />
      <stop
         stop-opacity="0"
         id="H"
         offset="1" />
    </linearGradient>
    <linearGradient
       id="4">
      <stop
         id="I"
         stop-color="#fff" />
      <stop
         stop-opacity="0"
         id="J"
         stop-color="#fff"
         offset="1" />
    </linearGradient>
    <linearGradient
       gradientUnits="userSpaceOnUse"
       x2="0"
       y2="39"
       y1="12"
       xlink:href="#4"
       id="5" />
    <radialGradient
       gradientTransform="matrix(1,0,0,0.65,0,8.225)"
       gradientUnits="userSpaceOnUse"
       xlink:href="#3"
       id="6"
       r="10"
       cy="23.5"
       cx="14" />
    <linearGradient
       gradientUnits="userSpaceOnUse"
       x2="0"
       y2="38"
       y1="11"
       xlink:href="#2-0"
       id="7" />
    <mask
       id="8">
      <path
         d="m 24,11 c -3.406245,0 -6.164865,2.32542 -7.078125,5.4375 C 15.88203,15.891755 14.75511,15.5 13.5,15.5 9.36,15.5 5.999985,18.859985 6,23 6,23.868395 6.24378,24.66155 6.515625,25.4375 4.45542,26.59361 3,28.721 3,31.25 c 0,3.726 3.024,6.750015 6.75,6.75 0.265695,0 28.234305,0 28.5,0 C 41.975985,38 45,34.976 45,31.25 45,28.721 43.54458,26.59361 41.484375,25.4375 41.756235,24.661565 42,23.86838 42,23 c 0,-4.14 -3.36,-7.499985 -7.5,-7.5 -1.25511,0 -2.38203,0.391755 -3.421875,0.9375 C 30.164865,13.32542 27.406245,11 24,11 z"
         id="K"
         fill="#fff" />
    </mask>
    <linearGradient
       id="0-6"
       y1="5.246"
       x1="45.29"
       y2="43.08"
       x2="45.33"
       gradientUnits="userSpaceOnUse"
       gradientTransform="matrix(0.66667,0,0,0.68572,-0.037,-0.428)">
      <stop
         stop-color="#5288d1"
         id="stop3776" />
      <stop
         offset="1"
         stop-color="#cad9f0"
         id="stop3778" />
    </linearGradient>
    <linearGradient
       id="1-6"
       y1="4.063"
       y2="27.313"
       x2="0"
       gradientUnits="userSpaceOnUse">
      <stop
         stop-color="#fff"
         id="stop3781" />
      <stop
         offset="1"
         stop-color="#fff"
         stop-opacity="0"
         id="stop3783" />
    </linearGradient>
    <clipPath
       id="clipPath3382"
       clipPathUnits="userSpaceOnUse">
      <rect
         style="fill:#ffffff"
         id="rect3384"
         height="42"
         rx="1.209"
         y="-1.03"
         x="-1.0140001"
         width="34.951"
         ry="1.209" />
    </clipPath>
  </defs>
  <rect
     ry="1.209"
     id="rect20"
     height="42"
     rx="1.209"
     y="3"
     opacity="0.1"
     x="6"
     width="34.951" />
  <rect
     ry="1.209"
     id="rect22"
     height="42"
     rx="1.209"
     fill="url(#1)"
     y="2"
     x="5.986"
     width="34.951" />
  <g
     clip-path="url(#clipPath3382)"
     id="g3627"
     transform="translate(7.0000001,3.03)"
     mask="none">
    <g
       transform="translate(8,18)"
       id="g3805">
      <path
         opacity="0.1"
         d="m 2,16 c 8,0 0,0 8,0 l 0,-12 6,5 6,-5 0,12 8,0 -14,14 z"
         id="path3785" />
      <path
         fill="url(#0-6)"
         d="m 2,15 c 8,0 0,0 8,0 l 0,-12 6,0 6,0 0,12 8,0 -14,14 z"
         id="path3787" />
      <g
         fill="none"
         id="g3789">
        <path
           stroke="#000"
           opacity="0.4"
           d="m 10.5625,3.5625 0,11.4375 A 0.562556,0.562556 0 0 1 10,15.5625 l -6.625,0 12.625,12.625 12.625,-12.625 -6.625,0 A 0.562556,0.562556 0 0 1 21.4375,15 l 0,-11.4375 -5.4375,0 -5.4375,0 z"
           id="path3791" />
        <path
           stroke="url(#1-6)"
           opacity="0.4"
           d="m 11.5625,4.5625 0,10.4375 A 1.562656,1.562656 0 0 1 10,16.5625 l -4.25,0 10.25,10.25 10.25,-10.25 -4.25,0 A 1.562656,1.562656 0 0 1 20.4375,15 l 0,-10.4375 -4.4375,0 -4.4375,0 z"
           id="path3793" />
      </g>
    </g>
    <g
       transform="matrix(1.0253696,0,0,1,-1.0761089,-9)"
       id="1-1">
      <path
         opacity="0.1"
         d="m 24,12 c -3.406245,0 -6.164865,2.32542 -7.078125,5.4375 C 15.88203,16.891755 14.75511,16.5 13.5,16.5 9.36,16.5 5.999985,19.859985 6,24 6,24.868395 6.24378,25.66155 6.515625,26.4375 4.45542,27.59361 3,29.721 3,32.25 c 0,3.726 3.024,6.750015 6.75,6.75 0.265695,0 28.234305,0 28.5,0 C 41.975985,39 45,35.976 45,32.25 45,29.721 43.54458,27.59361 41.484375,26.4375 41.756235,25.661565 42,24.86838 42,24 c 0,-4.14 -3.36,-7.499985 -7.5,-7.5 -1.25511,0 -2.38203,0.391755 -3.421875,0.9375 C 30.164865,14.32542 27.406245,12 24,12 Z"
         id="9" />
      <path
         fill="url(#7)"
         d="m 24,11 c -3.406245,0 -6.164865,2.32542 -7.078125,5.4375 C 15.88203,15.891755 14.75511,15.5 13.5,15.5 9.36,15.5 5.999985,18.859985 6,23 6,23.868395 6.24378,24.66155 6.515625,25.4375 4.45542,26.59361 3,28.721 3,31.25 c 0,3.726 3.024,6.750015 6.75,6.75 0.265695,0 28.234305,0 28.5,0 C 41.975985,38 45,34.976 45,31.25 45,28.721 43.54458,26.59361 41.484375,25.4375 41.756235,24.661565 42,23.86838 42,23 c 0,-4.14 -3.36,-7.499985 -7.5,-7.5 -1.25511,0 -2.38203,0.391755 -3.421875,0.9375 C 30.164865,13.32542 27.406245,11 24,11 Z"
         id="A" />
      <path
         stroke="#000"
         fill="none"
         opacity="0.4"
         d="m 24,11.5 c -3.181639,0 -5.736966,2.142872 -6.59375,5.0625 a 0.49355006,0.49355006 0 0 1 -0.6875,0.3125 C 15.724568,16.353221 14.65242,16 13.5,16 c -3.8729863,0 -7.000014,3.127001 -7,7 0,0.781956 0.2031129,1.52302 0.46875,2.28125 A 0.49355006,0.49355006 0 0 1 6.75,25.875 C 4.8295386,26.952691 3.5,28.908305 3.5,31.25 c 0,3.458985 2.7910173,6.250014 6.25,6.25 l 28.5,0 c 3.458969,0 6.25,-2.791016 6.25,-6.25 0,-2.341695 -1.329539,-4.297309 -3.25,-5.375 A 0.49355006,0.49355006 0 0 1 41.03125,25.28125 C 41.296896,24.523051 41.5,23.781945 41.5,23 c 0,-3.872985 -3.127013,-6.999986 -7,-7 -1.15242,0 -2.224568,0.353221 -3.21875,0.875 a 0.49355006,0.49355006 0 0 1 -0.6875,-0.3125 C 29.736966,13.642872 27.181639,11.5 24,11.5 Z"
         id="B" />
      <path
         stroke="url(#5)"
         fill="none"
         opacity="0.4"
         d="m 24,12.4375 c -2.752219,0 -4.938692,1.854565 -5.6875,4.40625 a 1.4371564,1.4371564 0 0 1 -2.03125,0.875 C 15.374371,17.24279 14.456089,16.9375 13.5,16.9375 c -3.362489,0 -6.0625122,2.700003 -6.0625,6.0625 0,0.616696 0.1524816,1.244397 0.40625,1.96875 a 1.4371564,1.4371564 0 0 1 -0.625,1.71875 C 5.565461,27.615264 4.4375,29.266408 4.4375,31.25 c 0,2.948486 2.3640211,5.312512 5.3125,5.3125 l 28.5,0 c 2.948468,0 5.3125,-2.364018 5.3125,-5.3125 0,-1.983592 -1.127961,-3.634736 -2.78125,-4.5625 a 1.4371564,1.4371564 0 0 1 -0.625,-1.71875 C 40.410015,24.24446 40.5625,23.616693 40.5625,23 c 0,-3.362486 -2.700008,-6.062488 -6.0625,-6.0625 -0.956089,0 -1.874371,0.30529 -2.78125,0.78125 a 1.4371564,1.4371564 0 0 1 -2.03125,-0.875 C 28.938692,14.292065 26.752219,12.4375 24,12.4375 Z"
         id="C" />
      <g
         mask="url(#8)"
         id="D">
        <path
           fill-rule="evenodd"
           fill="url(#6)"
           opacity="0.094"
           transform="matrix(1,0,0,1.3846154,11,-13.538462)"
           d="m 24,23.5 a 10,6.5 0 1 1 -20,0 10,6.5 0 1 1 20,0 z"
           id="L" />
        <path
           fill-rule="evenodd"
           fill="url(#6)"
           opacity="0.09"
           transform="matrix(1,0,0,1.3846154,22,-9.538462)"
           d="m 24,23.5 a 10,6.5 0 1 1 -20,0 10,6.5 0 1 1 20,0 z"
           id="M" />
      </g>
    </g>
  </g>
  <g
     fill="none"
     id="g34">
    <path
       stroke="#000"
       opacity="0.4"
       id="path36"
       d="M 7.1875,2.5 C 6.783721,2.5 6.5,2.799839 6.5,3.21875 l 0,39.5625 C 6.5,43.20016 6.783721,43.5 7.1875,43.5 l 32.53125,0 c 0.40378,0 0.71875,-0.31497 0.71875,-0.71875 l 0,-39.5625 C 40.4375,2.814971 40.12253,2.5 39.71875,2.5 L 7.1875,2.5 Z" />
    <path
       stroke="url(#2)"
       opacity="0.78"
       id="path38"
       d="m 7.5312,3.5312 0,38.9375 31.875,0 0,-38.9375 -31.875,0 z" />
  </g>
  <metadata
     id="metadata9999">
    <rdf:RDF>
      <cc:Work>
        <dc:format>image/svg+xml</dc:format>
        <dc:type
           rdf:resource="http://purl.org/dc/dcmitype/StillImage" />
        <dc:title></dc:title>
        <cc:license
           rdf:resource="http://creativecommons.org/licenses/by-sa/4.0/" />
        <dc:creator>
          <cc:Agent>
            <dc:title>Sixsixfive (sixsixfive.deviantart.com)</dc:title>
          </cc:Agent>
        </dc:creator>
        <dc:publisher>
          <cc:Agent>
            <dc:title>Sixsixfive (sixsixfive.deviantart.com)</dc:title>
          </cc:Agent>
        </dc:publisher>
        <dc:source>https://github.com/sixsixfive</dc:source>
        <dc:subject>
          <rdf:Bag>
            <rdf:li>ivy</rdf:li>
          </rdf:Bag>
        </dc:subject>
        <dc:contributor>
          <cc:Agent>
            <dc:title>ssf</dc:title>
          </cc:Agent>
        </dc:contributor>
        <dc:rights>
          <cc:Agent>
            <dc:title>Sixsixfive (sixisixfive.deviantart.com)</dc:title>
          </cc:Agent>
        </dc:rights>
        <dc:description>A simple icon theme published under CC-BY-SA_V4(http://creativecommons.org/licenses/by-sa/4.0)</dc:description>
        <dc:identifier>SSF</dc:identifier>
      </cc:Work>
    </rdf:RDF>
  </metadata>
  <!--Part of the Ivy icon them published under the CC-BY-SA_V4: http://creativecommons.org/licenses/by-sa/4.0 -->
</svg>
