<?xml version="1.0" encoding="UTF-8" standalone="no"?>
<svg xmlns:dc="http://purl.org/dc/elements/1.1/" xmlns:cc="http://creativecommons.org/ns#" xmlns:rdf="http://www.w3.org/1999/02/22-rdf-syntax-ns#" xmlns:svg="http://www.w3.org/2000/svg" xmlns="http://www.w3.org/2000/svg" xmlns:xlink="http://www.w3.org/1999/xlink" version="1.1" id="svg2" viewBox="0 0 48 48">
 <defs id="defs4">
  <linearGradient gradientUnits="userSpaceOnUse" x2="0" y2="44" y1="3" id="1">
   <stop id="stop7" stop-color="#dedede"/>
   <stop id="stop9" stop-color="#f4f4f4" offset="1"/>
  </linearGradient>
  <linearGradient gradientUnits="userSpaceOnUse" x2="7" y2="31" x1="40" y1="3" id="2">
   <stop id="stop12" stop-color="#fff"/>
   <stop id="stop14" stop-opacity="0" stop-color="#fff" offset="1"/>
  </linearGradient>
  <linearGradient gradientUnits="userSpaceOnUse" x2="0" y2="2" y1="44" id="3">
   <stop id="stop17" stop-color="#b1db99"/>
   <stop id="stop19" stop-color="#66b03e" offset="1"/>
  </linearGradient>
 </defs>
 <rect id="rect21" ry="1.209" height="42" rx="1.209" y="3" opacity="0.1" x="6" width="34.951"/>
 <rect id="rect23" ry="1.209" height="42" rx="1.209" fill="url(#1)" y="2" x="5.986" width="34.951"/>
 <rect id="rect25" ry="1.209" height="42" rx="1.209" fill="url(#3)" y="2" x="6" width="7.01"/>
 <path id="path27" d="M 7.1875 2.5 C 6.783721 2.5 6.5 2.799839 6.5 3.21875 V 42.78125 C 6.5 43.20016 6.783721 43.5 7.1875 43.5 H 39.71875 C 40.12253 43.5 40.4375 43.18503 40.4375 42.78125 V 3.21875 C 40.4375 2.814971 40.12253 2.5 39.71875 2.5 H 7.1875 z" stroke="#000" fill="none" opacity="0.4"/>
 <path id="path29" d="M 12,3 H13 V43 H12 z" opacity="0.4"/>
 <g id="g31" fill="#fff">
  <path id="path33" d="m 15,8 2,0 0,34 -2,0 z" opacity="0.3"/>
  <path id="path35" d="m 35,8 2,0 0,34 -2,0 z" opacity="0.3"/>
  <g id="g37" transform="matrix(0,1,-1,0,0,0)">
   <path id="path39" d="m 8,-35 2,0 0,18 -2,0 z" opacity="0.3"/>
   <path id="path41" d="m 16,-35 2,0 0,18 -2,0 z" opacity="0.3"/>
   <path id="path43" d="m 24,-35 2,0 0,18 -2,0 z" opacity="0.3"/>
   <path id="path45" d="m 32,-35 2,0 0,18 -2,0 z" opacity="0.3"/>
   <path id="path47" d="m 40,-35 2,0 0,18 -2,0 z" opacity="0.3"/>
  </g>
  <path id="path49" d="m 25,10 2,0 0,6 -2,0 z" opacity="0.3"/>
  <path id="path51" d="m 25,18 2,0 0,6 -2,0 z" opacity="0.3"/>
  <path id="path53" d="m 25,26 2,0 0,6 -2,0 z" opacity="0.3"/>
  <path id="path55" d="m 25,34 2,0 0,6 -2,0 z" opacity="0.3"/>
 </g>
 <path id="path57" d="M 7.5312 3.5312 V 42.4687 H 39.4062 V 3.5312 H 7.5312 z" stroke="url(#2)" fill="none" opacity="0.78"/>
 <path d="M 11 15.5 A 1.5 1.5 0 1 1 8 15.5 1.5 1.5 0 1 1 11 15.5 z" id="0" fill="#fff"/>
 <use id="use60" transform="matrix(1 0 0 1 0 15)" xlink:href="#0"/>
 <g id="g62" fill="#6a6a6a">
  <path id="path64" d="m 15,7 2,0 0,34 -2,0 z" opacity="0.3"/>
  <path id="path66" d="m 35,7 2,0 0,34 -2,0 z" opacity="0.3"/>
  <g id="g68" transform="matrix(0,1,-1,0,0,0)">
   <path id="path70" d="m 7,-35 2,0 0,18 -2,0 z" opacity="0.3"/>
   <path id="path72" d="m 15,-35 2,0 0,18 -2,0 z" opacity="0.3"/>
   <path id="path74" d="m 23,-35 2,0 0,18 -2,0 z" opacity="0.3"/>
   <path id="path76" d="m 31,-35 2,0 0,18 -2,0 z" opacity="0.3"/>
   <path id="path78" d="m 39,-35 2,0 0,18 -2,0 z" opacity="0.3"/>
  </g>
  <path id="path80" d="m 25,9 2,0 0,6 -2,0 z" opacity="0.3"/>
  <path id="path82" d="m 25,17 2,0 0,6 -2,0 z" opacity="0.3"/>
  <path id="path84" d="m 25,25 2,0 0,6 -2,0 z" opacity="0.3"/>
  <path id="path86" d="m 25,33 2,0 0,6 -2,0 z" opacity="0.3"/>
 </g>
 <metadata id="metadata9999">
  <rdf:RDF>
   <cc:Work>
    <dc:format>image/svg+xml</dc:format>
    <dc:type rdf:resource="http://purl.org/dc/dcmitype/StillImage"/>
    <dc:title>Ivy icon theme</dc:title>
    <cc:license rdf:resource="http://creativecommons.org/licenses/by-sa/4.0/"/>
    <dc:creator>
     <cc:Agent>
      <dc:title>Sixsixfive (sixsixfive.deviantart.com)</dc:title>
     </cc:Agent>
    </dc:creator>
    <dc:publisher>
     <cc:Agent>
      <dc:title>Sixsixfive (sixsixfive.deviantart.com)</dc:title>
     </cc:Agent>
    </dc:publisher>
    <dc:source>https://github.com/sixsixfive</dc:source>
    <dc:subject>
     <rdf:Bag>
      <rdf:li>ivy</rdf:li>
     </rdf:Bag>
    </dc:subject>
    <dc:contributor>
     <cc:Agent>
      <dc:title>ssf</dc:title>
     </cc:Agent>
    </dc:contributor>
    <dc:rights>
     <cc:Agent>
      <dc:title>Sixsixfive (sixisixfive.deviantart.com)</dc:title>
     </cc:Agent>
    </dc:rights>
    <dc:description>A simple icon theme published under CC-BY-SA_V4(http://creativecommons.org/licenses/by-sa/4.0)</dc:description>
    <dc:identifier>SSF</dc:identifier>
   </cc:Work>
  </rdf:RDF>
 </metadata>
 <!--Part of the Ivy icon them published under the CC-BY-SA_V4: http://creativecommons.org/licenses/by-sa/4.0 -->
</svg>
