<?xml version="1.0" encoding="UTF-8" standalone="no"?><svg xmlns:cc="http://creativecommons.org/ns#" xmlns:dc="http://purl.org/dc/elements/1.1/" xmlns="http://www.w3.org/2000/svg" xmlns:svg="http://www.w3.org/2000/svg" xmlns:rdf="http://www.w3.org/1999/02/22-rdf-syntax-ns#" id="svg2" version="1.1" viewBox="0 0 48 48" xmlns:xlink="http://www.w3.org/1999/xlink"><defs id="defs4"><linearGradient gradientUnits="userSpaceOnUse" y1="3" id="1" y2="44" x2="0"><stop id="stop7" stop-color="#dedede"/><stop id="stop9" stop-color="#f4f4f4" offset="1"/></linearGradient><linearGradient gradientUnits="userSpaceOnUse" y1="3" x1="40" id="2" y2="31" x2="7"><stop id="stop12" stop-color="#fff"/><stop stop-opacity="0" id="stop14" stop-color="#fff" offset="1"/></linearGradient><linearGradient gradientUnits="userSpaceOnUse" y1="44" id="3" y2="2" x2="0"><stop id="stop17" stop-color="#b1db99"/><stop id="stop19" stop-color="#66b03e" offset="1"/></linearGradient></defs><rect width="34.951" ry="1.209" height="42" rx="1.209" opacity="0.1" id="rect21" y="3" x="6"/><rect width="34.951" ry="1.209" height="42" rx="1.209" id="rect23" y="2" x="5.986" fill="url(#1)"/><rect width="7.01" ry="1.209" height="42" rx="1.209" id="rect25" y="2" x="6" fill="url(#3)"/><path stroke="#000" opacity="0.4" d="M 7.1875 2.5 C 6.783721 2.5 6.5 2.799839 6.5 3.21875 V 42.78125 C 6.5 43.20016 6.783721 43.5 7.1875 43.5 H 39.71875 C 40.12253 43.5 40.4375 43.18503 40.4375 42.78125 V 3.21875 C 40.4375 2.814971 40.12253 2.5 39.71875 2.5 H 7.1875 z" id="path27" fill="none"/><path opacity="0.4" d="M 12,3 H13 V43 H12 z" id="path29"/><g id="g31" fill="#fff"><path opacity="0.3" d="m 15,8 2,0 0,34 -2,0 z" id="path33"/><path opacity="0.3" d="m 35,8 2,0 0,34 -2,0 z" id="path35"/><g transform="matrix(0 1 -1 0 0 0)" id="g37"><path opacity="0.3" d="m 8,-35 2,0 0,18 -2,0 z" id="path39"/><path opacity="0.3" d="m 16,-35 2,0 0,18 -2,0 z" id="path41"/><path opacity="0.3" d="m 24,-35 2,0 0,18 -2,0 z" id="path43"/><path opacity="0.3" d="m 32,-35 2,0 0,18 -2,0 z" id="path45"/><path opacity="0.3" d="m 40,-35 2,0 0,18 -2,0 z" id="path47"/></g><path opacity="0.3" d="m 25,10 2,0 0,6 -2,0 z" id="path49"/><path opacity="0.3" d="m 25,18 2,0 0,6 -2,0 z" id="path51"/><path opacity="0.3" d="m 25,26 2,0 0,6 -2,0 z" id="path53"/><path opacity="0.3" d="m 25,34 2,0 0,6 -2,0 z" id="path55"/></g><path stroke="url(#2)" opacity="0.78" d="M 7.5312 3.5312 V 42.4687 H 39.4062 V 3.5312 H 7.5312 z" id="path57" fill="none"/><path d="M 11 15.5 A 1.5 1.5 0 1 1 8 15.5 1.5 1.5 0 1 1 11 15.5 z" id="0" fill="#fff"/><use transform="matrix(1 0 0 1 0 15)" xlink:href="#0" id="use60"/><g id="g62" fill="#6a6a6a"><path opacity="0.3" d="m 15,7 2,0 0,34 -2,0 z" id="path64"/><path opacity="0.3" d="m 35,7 2,0 0,34 -2,0 z" id="path66"/><g transform="matrix(0 1 -1 0 0 0)" id="g68"><path opacity="0.3" d="m 7,-35 2,0 0,18 -2,0 z" id="path70"/><path opacity="0.3" d="m 15,-35 2,0 0,18 -2,0 z" id="path72"/><path opacity="0.3" d="m 23,-35 2,0 0,18 -2,0 z" id="path74"/><path opacity="0.3" d="m 31,-35 2,0 0,18 -2,0 z" id="path76"/><path opacity="0.3" d="m 39,-35 2,0 0,18 -2,0 z" id="path78"/></g><path opacity="0.3" d="m 25,9 2,0 0,6 -2,0 z" id="path80"/><path opacity="0.3" d="m 25,17 2,0 0,6 -2,0 z" id="path82"/><path opacity="0.3" d="m 25,25 2,0 0,6 -2,0 z" id="path84"/><path opacity="0.3" d="m 25,33 2,0 0,6 -2,0 z" id="path86"/></g><metadata id="metadata9999"><rdf:RDF><cc:Work><dc:format>image/svg+xml</dc:format><dc:type rdf:resource="http://purl.org/dc/dcmitype/StillImage"/><dc:title>Ivy icon theme</dc:title><cc:license rdf:resource="http://creativecommons.org/licenses/by-sa/4.0/"/><dc:creator><cc:Agent><dc:title>Sixsixfive (sixsixfive.deviantart.com)</dc:title></cc:Agent></dc:creator><dc:publisher><cc:Agent><dc:title>Sixsixfive (sixsixfive.deviantart.com)</dc:title></cc:Agent></dc:publisher><dc:source>https://github.com/sixsixfive</dc:source><dc:subject><rdf:Bag><rdf:li>ivy</rdf:li></rdf:Bag></dc:subject><dc:contributor><cc:Agent><dc:title>ssf</dc:title></cc:Agent></dc:contributor><dc:rights><cc:Agent><dc:title>Sixsixfive (sixisixfive.deviantart.com)</dc:title></cc:Agent></dc:rights><dc:description>A simple icon theme published under CC-BY-SA_V4(http://creativecommons.org/licenses/by-sa/4.0)</dc:description><dc:identifier>SSF</dc:identifier></cc:Work></rdf:RDF></metadata><!--Part of the Ivy icon them published under the CC-BY-SA_V4: http://creativecommons.org/licenses/by-sa/4.0 -->
</svg>