<?xml version="1.0" encoding="UTF-8" standalone="no"?><svg xmlns:xlink="http://www.w3.org/1999/xlink" xmlns:cc="http://creativecommons.org/ns#" viewBox="0 0 48 48" version="1.1" id="svg2" xmlns:svg="http://www.w3.org/2000/svg" xmlns:rdf="http://www.w3.org/1999/02/22-rdf-syntax-ns#" xmlns="http://www.w3.org/2000/svg" xmlns:dc="http://purl.org/dc/elements/1.1/"><defs id="defs4"><linearGradient x2="0" gradientUnits="userSpaceOnUse" id="1" y2="44" y1="3"><stop id="stop7" stop-color="#dedede"/><stop offset="1" id="stop9" stop-color="#f4f4f4"/></linearGradient><linearGradient x2="7" gradientUnits="userSpaceOnUse" x1="40" id="2" y2="31" y1="3"><stop id="stop12" stop-color="#fff"/><stop offset="1" stop-opacity="0" id="stop14" stop-color="#fff"/></linearGradient><linearGradient x2="0" gradientUnits="userSpaceOnUse" id="3" y2="2" y1="44"><stop id="stop17" stop-color="#9ebce5"/><stop offset="1" id="stop19" stop-color="#5288d1"/></linearGradient></defs><rect height="42" width="34.951" opacity="0.1" rx="1.209" ry="1.209" id="rect21" x="6" y="3"/><rect height="42" width="34.951" rx="1.209" ry="1.209" fill="url(#1)" id="rect23" x="5.986" y="2"/><path opacity="0.3" fill="#fff" id="path25" d="M 15 7 H 26.407407 V 9 H 15 z"/><rect height="42" width="7.01" rx="1.209" ry="1.209" fill="url(#3)" id="rect27" x="6" y="2"/><path opacity="0.4" fill="none" id="path29" stroke="#000" d="M 7.1875 2.5 C 6.783721 2.5 6.5 2.799839 6.5 3.21875 V 42.78125 C 6.5 43.20016 6.783721 43.5 7.1875 43.5 H 39.71875 C 40.12253 43.5 40.4375 43.18503 40.4375 42.78125 V 3.21875 C 40.4375 2.814971 40.12253 2.5 39.71875 2.5 H 7.1875 z"/><path opacity="0.4" id="path31" d="M 12,3 H13 V43 H12 z"/><path opacity="0.78" fill="none" id="path33" stroke="url(#2)" d="M 7.5312 3.5312 V 42.4687 H 39.4062 V 3.5312 H 7.5312 z"/><path opacity="0.3" fill="#fff" id="path35" d="M 15 15 H 25.592593 V 17 H 15 z"/><path opacity="0.3" id="path37" d="M 15 6 H 26.407407 V 8 H 15 z"/><path opacity="0.3" fill="#fff" id="path39" d="M 15 19 H 37 V 21 H 15 z"/><path opacity="0.3" id="path41" d="M 15 10 H 24.777778 V 12 H 15 z"/><path opacity="0.3" fill="#fff" id="path43" d="M 15 23 H 28.851852 V 25 H 15 z"/><path opacity="0.3" id="path45" d="M 15 14 H 25.592593 V 16 H 15 z"/><path opacity="0.3" fill="#fff" id="path47" d="M 15 27 H 32.925926 V 29 H 15 z"/><path opacity="0.3" id="path49" d="M 15 18 H 37 V 20 H 15 z"/><path opacity="0.3" fill="#fff" id="path51" d="M 15 31 H 30.481481 V 33 H 15 z"/><path opacity="0.3" id="path53" d="M 15 22 H 28.851852 V 24 H 15 z"/><path opacity="0.3" fill="#fff" id="path55" d="M 15 35 H 32.925926 V 37 H 15 z"/><path opacity="0.3" id="path57" d="M 15 26 H 32.925926 V 28 H 15 z"/><path opacity="0.3" fill="#fff" id="path59" d="M 15 39 H 36.18518 V 41 H 15 z"/><path opacity="0.3" id="path61" d="M 15 30 H 30.481481 V 32 H 15 z"/><path opacity="0.3" id="path63" d="M 15 34 H 32.925926 V 36 H 15 z"/><path opacity="0.3" id="path65" d="M 15 38 H 36.18518 V 40 H 15 z"/><path fill="#fff" id="0" d="M 11 15.5 A 1.5 1.5 0 1 1 8 15.5 1.5 1.5 0 1 1 11 15.5 z"/><use xlink:href="#0" id="use68" transform="matrix(1 0 0 1 0 15)"/><metadata id="metadata9999"><rdf:RDF><cc:Work><dc:format>image/svg+xml</dc:format><dc:type rdf:resource="http://purl.org/dc/dcmitype/StillImage"/><dc:title>Ivy icon theme</dc:title><cc:license rdf:resource="http://creativecommons.org/licenses/by-sa/4.0/"/><dc:creator><cc:Agent><dc:title>Sixsixfive (sixsixfive.deviantart.com)</dc:title></cc:Agent></dc:creator><dc:publisher><cc:Agent><dc:title>Sixsixfive (sixsixfive.deviantart.com)</dc:title></cc:Agent></dc:publisher><dc:source>https://github.com/sixsixfive</dc:source><dc:subject><rdf:Bag><rdf:li>ivy</rdf:li></rdf:Bag></dc:subject><dc:contributor><cc:Agent><dc:title>ssf</dc:title></cc:Agent></dc:contributor><dc:rights><cc:Agent><dc:title>Sixsixfive (sixisixfive.deviantart.com)</dc:title></cc:Agent></dc:rights><dc:description>A simple icon theme published under CC-BY-SA_V4(http://creativecommons.org/licenses/by-sa/4.0)</dc:description><dc:identifier>SSF</dc:identifier></cc:Work></rdf:RDF></metadata><!--Part of the Ivy icon them published under the CC-BY-SA_V4: http://creativecommons.org/licenses/by-sa/4.0 -->
</svg>