<?xml version="1.0" encoding="UTF-8" standalone="no"?><svg xmlns:cc="http://creativecommons.org/ns#" viewBox="0 0 48 48" version="1.1" id="svg2" xmlns:svg="http://www.w3.org/2000/svg" xmlns="http://www.w3.org/2000/svg" xmlns:rdf="http://www.w3.org/1999/02/22-rdf-syntax-ns#" xmlns:dc="http://purl.org/dc/elements/1.1/"><defs id="defs4"><linearGradient x2="0" gradientUnits="userSpaceOnUse" y2="44" id="0" y1="3"><stop stop-color="#dedede" id="stop7"/><stop offset="1" stop-color="#f4f4f4" id="stop9"/></linearGradient><linearGradient x2="39.906" gradientUnits="userSpaceOnUse" x1="40" y2="42.969" id="1" y1="3"><stop stop-color="#fff" id="stop12"/><stop offset="1" stop-opacity="0" stop-color="#fff" id="stop14"/></linearGradient></defs><rect height="42" width="34.951" opacity="0.1" rx="1.209" ry="1.209" id="rect16" x="6" y="3"/><rect height="42" width="34.951" rx="1.209" ry="1.209" fill="url(#0)" id="rect18" x="5.986" y="2"/><path opacity="0.3" fill="#fff" id="path20" d="M 10,7 H35 V9 H10 z"/><path opacity="0.4" fill="none" stroke="#000" id="path22" d="M 7.1875 2.5 C 6.783721 2.5 6.5 2.799839 6.5 3.21875 v 39.5625 C 6.5 43.20016 6.783721 43.5 7.1875 43.5 h 32.53125 c 0.40378 0 0.71875 -0.31497 0.71875 -0.71875 v -39.5625 C 40.4375 2.814971 40.12253 2.5 39.71875 2.5 H 7.1875 z"/><path opacity="0.3" fill="#fff" id="path24" d="M 10,11 H25 V13 H10 z"/><path opacity="0.78" fill="none" stroke="url(#1)" id="path26" d="m 7.5312 3.5312 v 38.9375 h 31.875 v -38.9375 H 7.5312 z"/><path opacity="0.3" fill="#fff" id="path28" d="M 10,15 H29 V17 H10 z"/><path opacity="0.3" id="path30" d="M 10,6 H35 V8 H10 z"/><path opacity="0.3" fill="#fff" id="path32" d="M 10,19 H31 V21 H10 z"/><path opacity="0.3" id="path34" d="M 10,10 H25 V12 H10 z"/><path opacity="0.3" fill="#fff" id="path36" d="M 10,23 H29 V25 H10 z"/><path opacity="0.3" id="path38" d="M 10,14 H29 V16 H10 z"/><path opacity="0.3" fill="#fff" id="path40" d="M 10,27 H24 V29 H10 z"/><path opacity="0.3" id="path42" d="M 10,18 H31 V20 H10 z"/><path opacity="0.3" fill="#fff" id="path44" d="M 10,31 H29 V33 H10 z"/><path opacity="0.3" id="path46" d="M 10,22 H29 V24 H10 z"/><path opacity="0.3" fill="#fff" id="path48" d="M 10,35 H32 V37 H10 z"/><path opacity="0.3" id="path50" d="M 10,26 H24 V28 H10 z"/><path opacity="0.3" fill="#fff" id="path52" d="M 10,39 H27 V41 H10 z"/><path opacity="0.3" id="path54" d="M 10,30 H29 V32 H10 z"/><path opacity="0.3" id="path56" d="M 10,34 H32 V36 H10 z"/><path opacity="0.3" id="path58" d="M 10,38 H27 V40 H10 z"/><metadata id="metadata9999"><rdf:RDF><cc:Work><dc:format>image/svg+xml</dc:format><dc:type rdf:resource="http://purl.org/dc/dcmitype/StillImage"/><dc:title>Ivy icon theme</dc:title><cc:license rdf:resource="http://creativecommons.org/licenses/by-sa/4.0/"/><dc:creator><cc:Agent><dc:title>Sixsixfive (sixsixfive.deviantart.com)</dc:title></cc:Agent></dc:creator><dc:publisher><cc:Agent><dc:title>Sixsixfive (sixsixfive.deviantart.com)</dc:title></cc:Agent></dc:publisher><dc:source>https://github.com/sixsixfive</dc:source><dc:subject><rdf:Bag><rdf:li>ivy</rdf:li></rdf:Bag></dc:subject><dc:contributor><cc:Agent><dc:title>ssf</dc:title></cc:Agent></dc:contributor><dc:rights><cc:Agent><dc:title>Sixsixfive (sixisixfive.deviantart.com)</dc:title></cc:Agent></dc:rights><dc:description>A simple icon theme published under CC-BY-SA_V4(http://creativecommons.org/licenses/by-sa/4.0)</dc:description><dc:identifier>SSF</dc:identifier></cc:Work></rdf:RDF></metadata><!--Part of the Ivy icon them published under the CC-BY-SA_V4: http://creativecommons.org/licenses/by-sa/4.0 -->
</svg>