<?xml version="1.0" encoding="UTF-8" standalone="no"?><svg xmlns:rdf="http://www.w3.org/1999/02/22-rdf-syntax-ns#" xmlns:cc="http://creativecommons.org/ns#" xmlns:svg="http://www.w3.org/2000/svg" id="svg2" viewBox="0 0 48 48" version="1.1" xmlns:dc="http://purl.org/dc/elements/1.1/" xmlns="http://www.w3.org/2000/svg"><defs id="defs4"><linearGradient id="0" x2="0" y2="44" y1="3" gradientUnits="userSpaceOnUse"><stop id="stop7" stop-color="#dedede"/><stop offset="1" id="stop9" stop-color="#f4f4f4"/></linearGradient><linearGradient id="1" x2="39.906" y2="42.969" x1="40" y1="3" gradientUnits="userSpaceOnUse"><stop id="stop12" stop-color="#fff"/><stop offset="1" id="stop14" stop-color="#fff" stop-opacity="0"/></linearGradient></defs><rect rx="1.209" ry="1.209" height="42" id="rect16" opacity="0.1" width="34.951" x="6" y="3"/><rect rx="1.209" ry="1.209" height="42" id="rect18" width="34.951" x="5.986" y="2" fill="url(#0)"/><g id="g20" fill="none"><path id="path22" opacity="0.4" d="M 7.1875,2.5 C 6.783721,2.5 6.5,2.799839 6.5,3.21875 l 0,39.5625 C 6.5,43.20016 6.783721,43.5 7.1875,43.5 l 32.53125,0 c 0.40378,0 0.71875,-0.31497 0.71875,-0.71875 l 0,-39.5625 C 40.4375,2.814971 40.12253,2.5 39.71875,2.5 L 7.1875,2.5 Z" stroke="#000"/><path id="path24" opacity="0.78" d="m 7.5312,3.5312 0,38.9375 31.875,0 0,-38.9375 -31.875,0 z" stroke="url(#1)"/></g><path id="path26" opacity="0.6" d="M 18,18 H30 V26 H18 z"/><path id="path28" opacity="0.6" d="M 18,14 H22 V18 H18 z"/><path id="path30" opacity="0.1" d="M 14,11 H18 V15 H14 z" fill="#fff"/><path id="path32" opacity="0.6" d="M 14,10 H18 V14 H14 z"/><path id="path34" opacity="0.1" d="M 30,27 H34 V31 H30 z" fill="#fff"/><path id="path36" opacity="0.6" d="M 30,26 H34 V30 H30 z"/><path id="path38" opacity="0.1" d="M 22,27 H30 V31 H22 z" fill="#fff"/><path id="path40" opacity="0.6" d="M 22,26 H30 V30 H22 z"/><g id="g42" transform="matrix(-1 0 0 1 0 0)"><path id="path44" opacity="0.1" d="m -18,27 4,0 0,4 -4,0 z" fill="#fff"/><path id="path46" opacity="0.6" d="m -18,26 4,0 0,4 -4,0 z"/><path id="path48" opacity="0.1" d="m -22,27 4,0 0,4 -4,0 z" fill="#fff"/><path id="path50" opacity="0.6" d="m -22,26 4,0 0,4 -4,0 z"/><path id="path52" opacity="0.1" d="m -34,11 4,0 0,4 -4,0 z" fill="#fff"/><path id="path54" opacity="0.6" d="m -30,14 4,0 0,4 -4,0 z"/><path id="path56" opacity="0.1" d="m -14,31 4,0 0,4 -4,0 z" fill="#fff"/><path id="path58" opacity="0.6" d="m -34,10 4,0 0,4 -4,0 z"/></g><g id="g60" fill="#fff"><path id="path62" opacity="0.1" d="m 34,31 4,0 0,4 -4,0 z"/><path id="path64" opacity="0.965" d="m 18,22 4,0 0,4 -4,0 z"/><path id="path66" opacity="0.1" d="m 26,35 8,0 0,4 -8,0 z"/><path id="path68" opacity="0.965" d="m 26,22 4,0 0,4 -4,0 z"/><path id="path70" opacity="0.1" d="m 14,35 8,0 0,4 -8,0 z"/></g><g id="g72" transform="matrix(-1 0 0 1 0 0)"><path id="path74" opacity="0.6" d="m -14,30 4,0 0,4 -4,0 z"/><path id="path76" opacity="0.6" d="m -18,22 4,0 0,4 -4,0 z"/><path id="path78" opacity="0.6" d="m -18,18 4,0 0,4 -4,0 z"/></g><path id="path80" opacity="0.6" d="M 34,30 H38 V34 H34 z"/><path id="path82" opacity="0.6" d="M 30,22 H34 V26 H30 z"/><path id="path84" opacity="0.6" d="M 30,18 H34 V22 H30 z"/><path id="path86" opacity="0.6" d="M 26,34 H34 V38 H26 z"/><path id="path88" opacity="0.6" d="M 14,34 H22 V38 H14 z"/><metadata id="metadata9999"><rdf:RDF><cc:Work><dc:format>image/svg+xml</dc:format><dc:type rdf:resource="http://purl.org/dc/dcmitype/StillImage"/><dc:title>Ivy icon theme</dc:title><cc:license rdf:resource="http://creativecommons.org/licenses/by-sa/4.0/"/><dc:creator><cc:Agent><dc:title>Sixsixfive (sixsixfive.deviantart.com)</dc:title></cc:Agent></dc:creator><dc:publisher><cc:Agent><dc:title>Sixsixfive (sixsixfive.deviantart.com)</dc:title></cc:Agent></dc:publisher><dc:source>https://github.com/sixsixfive</dc:source><dc:subject><rdf:Bag><rdf:li>ivy</rdf:li></rdf:Bag></dc:subject><dc:contributor><cc:Agent><dc:title>ssf</dc:title></cc:Agent></dc:contributor><dc:rights><cc:Agent><dc:title>Sixsixfive (sixisixfive.deviantart.com)</dc:title></cc:Agent></dc:rights><dc:description>A simple icon theme published under CC-BY-SA_V4(http://creativecommons.org/licenses/by-sa/4.0)</dc:description><dc:identifier>SSF</dc:identifier></cc:Work></rdf:RDF></metadata><!--Part of the Ivy icon them published under the CC-BY-SA_V4: http://creativecommons.org/licenses/by-sa/4.0 -->
</svg>