<?xml version="1.0" encoding="UTF-8" standalone="no"?>
<svg xmlns:dc="http://purl.org/dc/elements/1.1/" xmlns:cc="http://creativecommons.org/ns#" xmlns:rdf="http://www.w3.org/1999/02/22-rdf-syntax-ns#" xmlns:svg="http://www.w3.org/2000/svg" xmlns="http://www.w3.org/2000/svg" version="1.1" id="svg2" viewBox="0 0 48 48">
 <defs id="defs4">
  <linearGradient gradientUnits="userSpaceOnUse" x2="0" y2="44" y1="3" id="0">
   <stop id="stop7" stop-color="#171717"/>
   <stop id="stop9" stop-color="#6a6a6a" offset="1"/>
  </linearGradient>
  <linearGradient gradientUnits="userSpaceOnUse" x2="39.906" y2="42.969" x1="40" y1="3" id="1">
   <stop id="stop12" stop-color="#fff"/>
   <stop id="stop14" stop-opacity="0" stop-color="#fff" offset="1"/>
  </linearGradient>
 </defs>
 <rect id="rect16" ry="1.209" height="42" rx="1.209" y="3" opacity="0.1" x="6" width="34.951"/>
 <rect id="rect18" ry="1.209" height="42" rx="1.209" fill="url(#0)" y="2" x="5.986" width="34.951"/>
 <g id="g20" fill="none">
  <path id="path22" d="M 7.1875,2.5 C 6.783721,2.5 6.5,2.799839 6.5,3.21875 l 0,39.5625 C 6.5,43.20016 6.783721,43.5 7.1875,43.5 l 32.53125,0 c 0.40378,0 0.71875,-0.31497 0.71875,-0.71875 l 0,-39.5625 C 40.4375,2.814971 40.12253,2.5 39.71875,2.5 L 7.1875,2.5 Z" opacity="0.4" stroke="#000"/>
  <path id="path24" d="m 7.5312,3.5312 0,38.9375 31.875,0 0,-38.9375 -31.875,0 z" opacity="0.3" stroke="url(#1)"/>
 </g>
 <g id="g26" fill="#fff" fill-rule="evenodd" color="#000">
  <path id="path28" d="m 16,11 1,0 0,1 -1,0 z"/>
  <path id="path30" d="m 12,11 1,0 0,1 -1,0 z"/>
  <path id="path32" d="m 13,11 1,0 0,1 -1,0 z"/>
  <path id="path34" d="m 14,12 1,0 0,1 -1,0 z"/>
  <path id="path36" d="m 16,12 1,0 0,1 -1,0 z"/>
  <path id="path38" d="m 15,13 1,0 0,1 -1,0 z"/>
  <path id="path40" d="m 20,9 3,0 0,1 -3,0 z"/>
  <g id="g42" transform="scale(-1,-1)">
   <path id="path44" d="m -23,-13 3,0 0,1 -3,0 z"/>
   <path id="path46" d="m -23,-16 3,0 0,1 -3,0 z"/>
  </g>
  <g id="g48" transform="matrix(0,-1,1,0,0,0)">
   <path id="path50" d="m -15,23 2,0 0,1 -2,0 z"/>
   <path id="path52" d="m -12,19 2,0 0,1 -2,0 z"/>
   <path id="path54" d="m -17,21 9,0 0,1 -9,0 z"/>
  </g>
  <path id="path56" d="m 11,12 1,0 0,1 -1,0 z"/>
  <path id="path58" d="m 11,13 1,0 0,1 -1,0 z"/>
  <path id="path60" d="m 23,10 1,0 0,1 -1,0 z"/>
  <path id="path62" transform="matrix(0,-1,1,0,0,0)" d="m -15,19 1,0 0,1 -1,0 z"/>
  <path id="path64" d="m 27,16 5,0 0,1 -5,0 z"/>
 </g>
 <metadata id="metadata9999">
  <rdf:RDF>
   <cc:Work>
    <dc:format>image/svg+xml</dc:format>
    <dc:type rdf:resource="http://purl.org/dc/dcmitype/StillImage"/>
    <dc:title>Ivy icon theme</dc:title>
    <cc:license rdf:resource="http://creativecommons.org/licenses/by-sa/4.0/"/>
    <dc:creator>
     <cc:Agent>
      <dc:title>Sixsixfive (sixsixfive.deviantart.com)</dc:title>
     </cc:Agent>
    </dc:creator>
    <dc:publisher>
     <cc:Agent>
      <dc:title>Sixsixfive (sixsixfive.deviantart.com)</dc:title>
     </cc:Agent>
    </dc:publisher>
    <dc:source>https://github.com/sixsixfive</dc:source>
    <dc:subject>
     <rdf:Bag>
      <rdf:li>ivy</rdf:li>
     </rdf:Bag>
    </dc:subject>
    <dc:contributor>
     <cc:Agent>
      <dc:title>ssf</dc:title>
     </cc:Agent>
    </dc:contributor>
    <dc:rights>
     <cc:Agent>
      <dc:title>Sixsixfive (sixisixfive.deviantart.com)</dc:title>
     </cc:Agent>
    </dc:rights>
    <dc:description>A simple icon theme published under CC-BY-SA_V4(http://creativecommons.org/licenses/by-sa/4.0)</dc:description>
    <dc:identifier>SSF</dc:identifier>
   </cc:Work>
  </rdf:RDF>
 </metadata>
 <!--Part of the Ivy icon them published under the CC-BY-SA_V4: http://creativecommons.org/licenses/by-sa/4.0 -->
</svg>
