<?xml version="1.0" encoding="UTF-8" standalone="no"?>
<svg
   xmlns:dc="http://purl.org/dc/elements/1.1/"
   xmlns:cc="http://creativecommons.org/ns#"
   xmlns:rdf="http://www.w3.org/1999/02/22-rdf-syntax-ns#"
   xmlns:svg="http://www.w3.org/2000/svg"
   xmlns="http://www.w3.org/2000/svg"
   id="svg2"
   version="1.1"
   viewBox="0 0 48 48">
  <defs
     id="defs4">
    <linearGradient
       gradientUnits="userSpaceOnUse"
       id="0"
       y2="44"
       x2="0"
       y1="3">
      <stop
         stop-color="#dedede"
         id="stop7" />
      <stop
         stop-color="#f4f4f4"
         id="stop9"
         offset="1" />
    </linearGradient>
    <linearGradient
       gradientUnits="userSpaceOnUse"
       id="1"
       y2="42.969"
       x2="39.906"
       y1="3"
       x1="40">
      <stop
         stop-color="#fff"
         id="stop12" />
      <stop
         stop-color="#fff"
         id="stop14"
         offset="1"
         stop-opacity="0" />
    </linearGradient>
  </defs>
  <rect
     width="34.951"
     id="rect16"
     height="42"
     rx="1.209"
     ry="1.209"
     opacity="0.1"
     x="6"
     y="3" />
  <rect
     fill="url(#0)"
     width="34.951"
     id="rect18"
     height="42"
     rx="1.209"
     ry="1.209"
     x="5.986"
     y="2" />
  <path
     style="fill:#000000;opacity:0.1"
     d="m 35.878906,29.978204 c -0.232069,0 -0.476568,0.01455 -0.740234,0.03711 -0.419469,0.03653 -0.84225,0.100959 -1.261719,0.193359 -0.468497,0.154719 -0.88801,0.347608 -1.261719,0.583985 -0.144912,0.09455 -0.200614,0.184848 -0.177734,0.267578 0.02288,0.08166 0.108362,0.125 0.25,0.125 0.169967,-0.04728 0.357031,-0.07227 0.558594,-0.07227 0.204831,0 0.412953,-0.02411 0.630859,-0.07031 0.407484,-0.03653 0.8169,-0.05273 1.226563,-0.05273 l 0.30664,0 c 0.502273,0.02471 0.826659,0.129258 0.972656,0.31836 0.09584,0.118188 0.123851,0.308831 0.08789,0.574218 -0.03269,0.267536 -0.109119,0.562238 -0.224609,0.886719 -0.11549,0.324481 -0.233402,0.652374 -0.365235,0.984375 l -0.34375,0.814453 c -0.05011,0.140752 -0.02103,0.235934 0.07813,0.283203 0.103505,0.04727 0.220408,0.0097 0.345704,-0.107421 0.343201,-0.235303 0.642583,-0.525517 0.90625,-0.867188 0.257129,-0.342747 0.465743,-0.688795 0.617187,-1.039062 0.152534,-0.348118 0.278484,-0.692607 0.371094,-1.033203 C 37.951347,31.461629 38,31.171415 38,30.937188 l 0,-0.144531 c 0,-0.117114 -0.01487,-0.214726 -0.04102,-0.291016 -0.02615,-0.07629 -0.05134,-0.138277 -0.07422,-0.185547 -0.09261,-0.06984 -0.264356,-0.134072 -0.521485,-0.195312 -0.258218,-0.05802 -0.586471,-0.10029 -0.986328,-0.125 -0.165609,-0.01186 -0.333528,-0.01758 -0.498047,-0.01758 z M 9.2675781,30.47625 c -0.082804,0 -0.1549197,0.03563 -0.2148437,0.105469 C 9.0167804,30.617179 9,30.658566 9,30.704766 c 0,0.07199 0.053157,0.14969 0.1621094,0.232422 1.8936016,1.569755 4.0394066,2.796498 6.4472656,3.679688 2.404591,0.884262 4.994541,1.328124 7.759766,1.328124 1.746515,0 3.545786,-0.201966 5.402343,-0.611328 1.857648,-0.408287 3.558112,-1.024636 5.107422,-1.847656 0.191757,-0.119263 0.393011,-0.233766 0.605469,-0.347656 0.2081,-0.110667 0.40849,-0.240304 0.603516,-0.378906 0.145997,-0.08273 0.214843,-0.195186 0.214843,-0.335938 -0.01307,-0.06984 -0.03567,-0.137096 -0.06836,-0.197266 -0.04903,-0.08381 -0.135147,-0.134563 -0.253906,-0.158203 -0.119848,-0.02363 -0.240616,-0.01231 -0.359375,0.03711 -0.131833,0.05802 -0.262101,0.103025 -0.38086,0.140625 -0.119848,0.03438 -0.242569,0.0788 -0.361328,0.125 -1.708382,0.601686 -3.421799,1.046913 -5.136718,1.335937 -1.717099,0.290099 -3.399055,0.435547 -5.050782,0.435547 -2.596348,0 -5.109864,-0.317057 -7.535156,-0.953125 -2.427471,-0.634993 -4.641936,-1.515687 -6.6542969,-2.640625 -0.082804,-0.04835 -0.162466,-0.07227 -0.234375,-0.07227 z"
     id="path4169" />
  <g
     fill="none"
     id="g20">
    <path
       d="M 7.1875,2.5 C 6.783721,2.5 6.5,2.799839 6.5,3.21875 l 0,39.5625 C 6.5,43.20016 6.783721,43.5 7.1875,43.5 l 32.53125,0 c 0.40378,0 0.71875,-0.31497 0.71875,-0.71875 l 0,-39.5625 C 40.4375,2.814971 40.12253,2.5 39.71875,2.5 L 7.1875,2.5 Z"
       id="path22"
       opacity="0.4"
       stroke="#000" />
    <path
       d="m 7.5312,3.5312 0,38.9375 31.875,0 0,-38.9375 -31.875,0 z"
       id="path24"
       opacity="0.78"
       stroke="url(#1)" />
  </g>
  <path
     id="path4163"
     d="M 35.878906 28.978516 C 35.646837 28.978516 35.402338 28.993065 35.138672 29.015625 C 34.719203 29.052156 34.296422 29.116584 33.876953 29.208984 C 33.408456 29.363703 32.988943 29.556592 32.615234 29.792969 C 32.470322 29.887519 32.41462 29.977817 32.4375 30.060547 C 32.46038 30.142202 32.545862 30.185547 32.6875 30.185547 C 32.857467 30.138267 33.044531 30.113281 33.246094 30.113281 C 33.450925 30.113281 33.659047 30.089169 33.876953 30.042969 C 34.284437 30.006439 34.693853 29.990234 35.103516 29.990234 L 35.410156 29.990234 C 35.912429 30.014946 36.236815 30.119492 36.382812 30.308594 C 36.478653 30.426782 36.506663 30.617425 36.470703 30.882812 C 36.438017 31.150348 36.361584 31.44505 36.246094 31.769531 C 36.130604 32.094012 36.012692 32.421905 35.880859 32.753906 L 35.537109 33.568359 C 35.486994 33.709111 35.516084 33.804293 35.615234 33.851562 C 35.718739 33.898837 35.835642 33.861254 35.960938 33.744141 C 36.304139 33.508838 36.603521 33.218624 36.867188 32.876953 C 37.124317 32.534206 37.332931 32.188158 37.484375 31.837891 C 37.636909 31.489773 37.762859 31.145284 37.855469 30.804688 C 37.951347 30.461941 38 30.171727 38 29.9375 L 38 29.792969 C 38 29.675855 37.985134 29.578243 37.958984 29.501953 C 37.932834 29.425668 37.907646 29.363676 37.884766 29.316406 C 37.792156 29.246567 37.62041 29.182334 37.363281 29.121094 C 37.105063 29.063073 36.77681 29.020804 36.376953 28.996094 C 36.211344 28.984234 36.043425 28.978516 35.878906 28.978516 z M 9.2675781 29.476562 C 9.1847738 29.476562 9.1126584 29.512191 9.0527344 29.582031 C 9.0167804 29.617491 9 29.658878 9 29.705078 C 9 29.777066 9.0531565 29.854768 9.1621094 29.9375 C 11.055711 31.507255 13.201516 32.733998 15.609375 33.617188 C 18.013966 34.50145 20.603916 34.945312 23.369141 34.945312 C 25.115656 34.945312 26.914927 34.743346 28.771484 34.333984 C 30.629132 33.925697 32.329596 33.309348 33.878906 32.486328 C 34.070663 32.367065 34.271917 32.252562 34.484375 32.138672 C 34.692475 32.028005 34.892865 31.898368 35.087891 31.759766 C 35.233888 31.677034 35.302734 31.56458 35.302734 31.423828 C 35.289664 31.35399 35.267065 31.286732 35.234375 31.226562 C 35.185346 31.142755 35.099228 31.091999 34.980469 31.068359 C 34.860621 31.044729 34.739853 31.056049 34.621094 31.105469 C 34.489261 31.16349 34.358993 31.208494 34.240234 31.246094 C 34.120386 31.280475 33.997665 31.324894 33.878906 31.371094 C 32.170524 31.97278 30.457107 32.418007 28.742188 32.707031 C 27.025089 32.99713 25.343133 33.142578 23.691406 33.142578 C 21.095058 33.142578 18.581542 32.825521 16.15625 32.189453 C 13.728779 31.55446 11.514314 30.673766 9.5019531 29.548828 C 9.4191489 29.500478 9.3394871 29.476562 9.2675781 29.476562 z "
     style="fill:#ff8b36" />
  <path
     id="path4161"
     d="m 22.841629,8.7891054 c -1.817541,0.1724475 -3.813159,0.4418649 -5.203855,1.7352996 -0.736703,0.796321 -1.393172,1.731491 -1.591786,2.818576 -0.447193,0.741633 0.541227,1.10419 1.130102,1.059258 0.776899,0.107922 1.553798,0.215845 2.330697,0.323767 0.842577,-0.360317 0.577885,-1.611262 1.453292,-1.987302 1.076405,-0.778475 2.681376,-0.917311 3.767066,-0.08274 0.589656,0.8828 0.167085,2.034101 0.268094,3.008609 -0.654407,0.36627 -1.510734,0.123264 -2.243745,0.340155 -2.289421,0.274099 -4.781135,0.739669 -6.417488,2.514294 -1.454524,1.620605 -1.747849,4.151624 -0.824355,6.102108 0.92542,1.871154 3.20214,2.544407 5.154826,2.448721 1.412064,-0.04008 2.864634,-0.280751 4.049227,-1.100839 0.711307,-0.252566 1.375402,-1.680781 1.906207,-0.534618 0.675949,0.662313 1.601008,2.040601 2.660996,1.276267 0.725822,-0.620711 1.510069,-1.156562 2.288488,-1.70712 1.032926,-0.836693 -0.522068,-1.753476 -0.888271,-2.545678 -0.834634,-0.963658 -0.513423,-2.276451 -0.579124,-3.431388 7.71e-4,-2.224604 0.04372,-4.451269 -0.102147,-6.670907 0.05789,-0.857214 -0.422777,-1.60282 -1.129746,-2.043324 C 27.177516,8.9841815 24.917259,8.7696664 22.841629,8.7891054 Z m 2.181511,9.3056866 c -0.0142,1.314265 0.0145,2.6399 -0.05672,3.946826 -0.450832,1.67199 -2.802686,2.668024 -4.178955,1.469718 -1.161427,-1.164276 -0.88735,-3.367227 0.499601,-4.242504 0.884208,-0.623996 1.94131,-1.029924 3.014438,-1.153498 0.240287,-0.01438 0.481102,-0.01341 0.721635,-0.02054 z"
     style="fill:#171717" />
  <metadata
     id="metadata9999">
    <rdf:RDF>
      <cc:Work>
        <dc:format>image/svg+xml</dc:format>
        <dc:type
           rdf:resource="http://purl.org/dc/dcmitype/StillImage" />
        <dc:title></dc:title>
        <cc:license
           rdf:resource="http://creativecommons.org/licenses/by-sa/4.0/" />
        <dc:creator>
          <cc:Agent>
            <dc:title>Sixsixfive (sixsixfive.deviantart.com)</dc:title>
          </cc:Agent>
        </dc:creator>
        <dc:publisher>
          <cc:Agent>
            <dc:title>Sixsixfive (sixsixfive.deviantart.com)</dc:title>
          </cc:Agent>
        </dc:publisher>
        <dc:source>https://github.com/sixsixfive</dc:source>
        <dc:subject>
          <rdf:Bag>
            <rdf:li>ivy</rdf:li>
          </rdf:Bag>
        </dc:subject>
        <dc:contributor>
          <cc:Agent>
            <dc:title>ssf</dc:title>
          </cc:Agent>
        </dc:contributor>
        <dc:rights>
          <cc:Agent>
            <dc:title>Sixsixfive (sixisixfive.deviantart.com)</dc:title>
          </cc:Agent>
        </dc:rights>
        <dc:description>A simple icon theme published under CC-BY-SA_V4(http://creativecommons.org/licenses/by-sa/4.0)</dc:description>
        <dc:identifier>SSF</dc:identifier>
      </cc:Work>
    </rdf:RDF>
  </metadata>
  <!--Part of the Ivy icon them published under the CC-BY-SA_V4: http://creativecommons.org/licenses/by-sa/4.0 -->
</svg>
