<?xml version="1.0" encoding="UTF-8" standalone="no"?><svg viewBox="0 0 48 48" xmlns:svg="http://www.w3.org/2000/svg" xmlns="http://www.w3.org/2000/svg" xmlns:rdf="http://www.w3.org/1999/02/22-rdf-syntax-ns#" xmlns:xlink="http://www.w3.org/1999/xlink" version="1.1" id="svg2" xmlns:dc="http://purl.org/dc/elements/1.1/" xmlns:cc="http://creativecommons.org/ns#"><defs id="defs4"><linearGradient y1="3" x2="0" y2="44" id="1" gradientUnits="userSpaceOnUse"><stop id="stop7" stop-color="#dedede"/><stop offset="1" id="stop9" stop-color="#f4f4f4"/></linearGradient><linearGradient x1="40" y1="3" x2="7" y2="31" id="2" gradientUnits="userSpaceOnUse"><stop id="stop12" stop-color="#fff"/><stop stop-opacity="0" offset="1" id="stop14" stop-color="#fff"/></linearGradient><linearGradient y1="44" x2="0" y2="2" id="3" gradientUnits="userSpaceOnUse"><stop id="stop17" stop-color="#fd9e8a"/><stop offset="1" id="stop19" stop-color="#d02604"/></linearGradient></defs><rect y="3" x="6" opacity="0.1" ry="1.209" rx="1.209" height="42" id="rect21" width="34.951"/><rect y="2" x="5.986" ry="1.209" rx="1.209" height="42" id="rect23" width="34.951" fill="url(#1)"/><rect y="2" x="6" ry="1.209" rx="1.209" height="42" id="rect25" width="7.01" fill="url(#3)"/><path stroke="#000" opacity="0.4" id="path27" d="M 7.1875 2.5 C 6.783721 2.5 6.5 2.799839 6.5 3.21875 V 42.78125 C 6.5 43.20016 6.783721 43.5 7.1875 43.5 H 39.71875 C 40.12253 43.5 40.4375 43.18503 40.4375 42.78125 V 3.21875 C 40.4375 2.814971 40.12253 2.5 39.71875 2.5 H 7.1875 z" fill="none"/><path opacity="0.4" id="path29" d="M 12,3 H13 V43 H12 z"/><path opacity="0.4" id="path31" d="M 26.5 10 C 21.253295 10 17 11.790861 17 14 V 20 C 17 20.17016 17.04477 20.335427 17.09375 20.5 17.04477 20.664573 17 20.829837 17 21 V 27 C 17 27.17016 17.04477 27.335427 17.09375 27.5 17.04477 27.664573 17 27.829837 17 28 V 34 C 17 36.20914 21.253295 38 26.5 38 31.746705 38 36 36.20914 36 34 V 28 C 36 27.829837 35.955231 27.664573 35.90625 27.5 35.955231 27.335427 36 27.17016 36 27 V 21 C 36 20.829837 35.955231 20.664573 35.90625 20.5 35.955231 20.335427 36 20.17016 36 20 V 14 C 36 11.790861 31.746705 10 26.5 10 z" fill="#fff"/><path stroke="url(#2)" opacity="0.78" id="path33" d="M 7.5312 3.5312 V 42.4687 H 39.4062 V 3.5312 H 7.5312 z" fill="none"/><path id="0" d="M 11 15.5 A 1.5 1.5 0 1 1 8 15.5 1.5 1.5 0 1 1 11 15.5 z" fill="#fff"/><use xlink:href="#0" transform="matrix(1 0 0 1 0 15)" id="use36"/><path id="path38" d="M 26.5 23 C 21.253295 23 17 24.790861 17 27 17 33 17 27 17 33 17 35.20914 21.253295 37 26.5 37 31.746705 37 36 35.20914 36 33 36 27 36 33 36 27 36 24.790861 31.746705 23 26.5 23 z" fill="#8c8c8c"/><path id="path40" d="M 26.5 16 C 21.253295 16 17 17.790861 17 20 17 26 17 20 17 26 17 28.20914 21.253295 30 26.5 30 31.746705 30 36 28.20914 36 26 36 20 36 26 36 20 36 17.790861 31.746705 16 26.5 16 z" fill="#a0a0a0"/><path id="path42" d="M 26.5 9 C 21.253295 9 17 10.790861 17 13 17 19 17 13 17 19 17 21.20914 21.253295 23 26.5 23 31.746705 23 36 21.20914 36 19 36 13 36 19 36 13 36 10.790861 31.746705 9 26.5 9 z" fill="#aaa"/><metadata id="metadata9999"><rdf:RDF><cc:Work><dc:format>image/svg+xml</dc:format><dc:type rdf:resource="http://purl.org/dc/dcmitype/StillImage"/><dc:title>Ivy icon theme</dc:title><cc:license rdf:resource="http://creativecommons.org/licenses/by-sa/4.0/"/><dc:creator><cc:Agent><dc:title>Sixsixfive (sixsixfive.deviantart.com)</dc:title></cc:Agent></dc:creator><dc:publisher><cc:Agent><dc:title>Sixsixfive (sixsixfive.deviantart.com)</dc:title></cc:Agent></dc:publisher><dc:source>https://github.com/sixsixfive</dc:source><dc:subject><rdf:Bag><rdf:li>ivy</rdf:li></rdf:Bag></dc:subject><dc:contributor><cc:Agent><dc:title>ssf</dc:title></cc:Agent></dc:contributor><dc:rights><cc:Agent><dc:title>Sixsixfive (sixisixfive.deviantart.com)</dc:title></cc:Agent></dc:rights><dc:description>A simple icon theme published under CC-BY-SA_V4(http://creativecommons.org/licenses/by-sa/4.0)</dc:description><dc:identifier>SSF</dc:identifier></cc:Work></rdf:RDF></metadata><!--Part of the Ivy icon them published under the CC-BY-SA_V4: http://creativecommons.org/licenses/by-sa/4.0 -->
</svg>