<?xml version="1.0" encoding="UTF-8" standalone="no"?>
<svg xmlns:dc="http://purl.org/dc/elements/1.1/" xmlns:cc="http://creativecommons.org/ns#" xmlns:rdf="http://www.w3.org/1999/02/22-rdf-syntax-ns#" xmlns:svg="http://www.w3.org/2000/svg" xmlns="http://www.w3.org/2000/svg" xmlns:xlink="http://www.w3.org/1999/xlink" version="1.1" id="svg2" viewBox="0 0 48 48">
 <defs id="defs4">
  <linearGradient gradientUnits="userSpaceOnUse" x2="0" y2="44" y1="3" id="0">
   <stop id="stop7" stop-color="#dedede"/>
   <stop id="stop9" stop-color="#f4f4f4" offset="1"/>
  </linearGradient>
  <linearGradient gradientUnits="userSpaceOnUse" x2="39.906" y2="42.969" x1="40" y1="3" id="1">
   <stop id="stop12" stop-color="#fff"/>
   <stop id="stop14" stop-opacity="0" stop-color="#fff" offset="1"/>
  </linearGradient>
  <linearGradient gradientUnits="userSpaceOnUse" x2="0" y2="30" y1="19" id="2">
   <stop id="stop17" stop-color="#a2a2a2"/>
   <stop id="stop19" stop-color="#bbb" offset="1"/>
  </linearGradient>
 </defs>
 <rect id="rect21" ry="1.209" height="42" rx="1.209" y="3" opacity="0.1" x="6" width="34.951"/>
 <rect id="rect23" ry="1.209" height="42" rx="1.209" fill="url(#0)" y="2" x="5.986" width="34.951"/>
 <path id="path25" d="M 20,2 H28 V23 H20 z" fill="#6a6a6a" opacity="0.66"/>
 <g id="g27" fill="none">
  <path id="path29" d="M 7.1875,2.5 C 6.783721,2.5 6.5,2.799839 6.5,3.21875 l 0,39.5625 C 6.5,43.20016 6.783721,43.5 7.1875,43.5 l 32.53125,0 c 0.40378,0 0.71875,-0.31497 0.71875,-0.71875 l 0,-39.5625 C 40.4375,2.814971 40.12253,2.5 39.71875,2.5 L 7.1875,2.5 Z" opacity="0.4" stroke="#000"/>
  <path id="path31" d="m 7.5312,3.5312 0,38.9375 31.875,0 0,-38.9375 -31.875,0 z" opacity="0.78" stroke="url(#1)"/>
 </g>
 <g id="g33" opacity="0.26" fill="#fff">
  <path d="m 21,4 3,0 0,1 -3,0 z" id="3"/>
  <path d="m 24,5 3,0 0,1 -3,0 z" id="4"/>
  <path d="m 21,6 3,0 0,1 -3,0 z" id="5"/>
  <path d="m 24,7 3,0 0,1 -3,0 z" id="6"/>
  <path d="m 21,8 3,0 0,1 -3,0 z" id="7"/>
  <path d="m 24,9 3,0 0,1 -3,0 z" id="8"/>
  <path d="m 21,10 3,0 0,1 -3,0 z" id="9"/>
  <path d="m 24,11 3,0 0,1 -3,0 z" id="A"/>
  <path d="m 21,12 3,0 0,1 -3,0 z" id="B"/>
  <path d="m 24,13 3,0 0,1 -3,0 z" id="C"/>
  <path d="m 21,14 3,0 0,1 -3,0 z" id="D"/>
  <path d="m 24,15 3,0 0,1 -3,0 z" id="E"/>
  <path d="m 21,16 3,0 0,1 -3,0 z" id="F"/>
  <path d="m 24,17 3,0 0,1 -3,0 z" id="G"/>
  <path d="m 21,18 3,0 0,1 -3,0 z" id="H"/>
  <path d="m 24,19 3,0 0,1 -3,0 z" id="I"/>
  <path d="m 21,20 3,0 0,1 -3,0 z" id="J"/>
  <path d="m 24,3 3,0 0,1 -3,0 z" id="K"/>
  <path d="m 21,2 3,0 0,1 -3,0 z" id="L"/>
 </g>
 <g id="g54" transform="matrix(-1,0,0,1,48,0)" opacity="0.5">
  <use height="48" width="48" y="0" x="0" id="use56" xlink:href="#3"/>
  <use height="48" width="48" y="0" x="0" id="use58" xlink:href="#4"/>
  <use height="48" width="48" y="0" x="0" id="use60" xlink:href="#5"/>
  <use height="48" width="48" y="0" x="0" id="use62" xlink:href="#6"/>
  <use height="48" width="48" y="0" x="0" id="use64" xlink:href="#7"/>
  <use height="48" width="48" y="0" x="0" id="use66" xlink:href="#8"/>
  <use height="48" width="48" y="0" x="0" id="use68" xlink:href="#9"/>
  <use height="48" width="48" y="0" x="0" id="use70" xlink:href="#A"/>
  <use height="48" width="48" y="0" x="0" id="use72" xlink:href="#B"/>
  <use height="48" width="48" y="0" x="0" id="use74" xlink:href="#C"/>
  <use height="48" width="48" y="0" x="0" id="use76" xlink:href="#D"/>
  <use height="48" width="48" y="0" x="0" id="use78" xlink:href="#E"/>
  <use height="48" width="48" y="0" x="0" id="use80" xlink:href="#F"/>
  <use height="48" width="48" y="0" x="0" id="use82" xlink:href="#G"/>
  <use height="48" width="48" y="0" x="0" id="use84" xlink:href="#H"/>
  <use height="48" width="48" y="0" x="0" id="use86" xlink:href="#I"/>
  <use height="48" width="48" y="0" x="0" id="use88" xlink:href="#J"/>
  <use height="48" width="48" y="0" x="0" id="use90" xlink:href="#K"/>
  <use height="48" width="48" y="0" x="0" id="use92" xlink:href="#L"/>
 </g>
 <path id="path94" d="M 23,2 H25 V21 H23 z" fill="#171717" opacity="0.66"/>
 <path id="path96" d="m 19 20 c -0.554 0 -1 0.446 -1 1 v 2 c 0 0.554 0.446 1 1 1 h 1 v 5 c 0 1.108 0.892 2 2 2 h 4 c 1.108 0 2 -0.892 2 -2 v -5 h 1 c 0.554 0 1 -0.446 1 -1 v -2 c 0 -0.554 -0.446 -1 -1 -1 H 19 z" opacity="0.2"/>
 <path id="path98" d="m 19 19 c -0.554 0 -1 0.446 -1 1 v 2 c 0 0.554 0.446 1 1 1 h 1 v 5 c 0 1.108 0.892 2 2 2 h 4 c 1.108 0 2 -0.892 2 -2 v -5 h 1 c 0.554 0 1 -0.446 1 -1 v -2 c 0 -0.554 -0.446 -1 -1 -1 H 19 z" fill="url(#2)"/>
 <rect id="rect100" ry="1" height="2" rx="1" fill="#ebebeb" y="26" x="22" width="4"/>
 <path id="path102" d="m 19 19.5312 c -0.264478 0 -0.46875 0.204272 -0.46875 0.46875 v 2 c 0 0.264478 0.204272 0.46875 0.46875 0.46875 h 1 a 0.539501 0.539501 0 0 1 0.53125 0.53125 v 5 c 0 0.818478 0.650272 1.46875 1.46875 1.46875 h 4 c 0.818478 0 1.46875 -0.650272 1.46875 -1.46875 v -5 A 0.539501 0.539501 0 0 1 28 22.4687 h 1 c 0.264478 0 0.46875 -0.204272 0.46875 -0.46875 v -2 C 29.46875 19.735472 29.26448 19.5312 29 19.5312 H 19 z" stroke="#000" fill="none" opacity="0.4"/>
 <rect id="rect104" ry="0.5" height="1" rx="1" fill="#fff" y="20" opacity="0.36" x="19" width="10"/>
 <rect id="rect106" ry="0.5" height="1" rx="0.96" y="26" opacity="0.54" x="22" width="4"/>
 <rect id="rect108" ry="0.5" height="1" rx="0.96" fill="#fff" y="28" opacity="0.35" x="22" width="4"/>
 <metadata id="metadata9999">
  <rdf:RDF>
   <cc:Work>
    <dc:format>image/svg+xml</dc:format>
    <dc:type rdf:resource="http://purl.org/dc/dcmitype/StillImage"/>
    <dc:title>Ivy icon theme</dc:title>
    <cc:license rdf:resource="http://creativecommons.org/licenses/by-sa/4.0/"/>
    <dc:creator>
     <cc:Agent>
      <dc:title>Sixsixfive (sixsixfive.deviantart.com)</dc:title>
     </cc:Agent>
    </dc:creator>
    <dc:publisher>
     <cc:Agent>
      <dc:title>Sixsixfive (sixsixfive.deviantart.com)</dc:title>
     </cc:Agent>
    </dc:publisher>
    <dc:source>https://github.com/sixsixfive</dc:source>
    <dc:subject>
     <rdf:Bag>
      <rdf:li>ivy</rdf:li>
     </rdf:Bag>
    </dc:subject>
    <dc:contributor>
     <cc:Agent>
      <dc:title>ssf</dc:title>
     </cc:Agent>
    </dc:contributor>
    <dc:rights>
     <cc:Agent>
      <dc:title>Sixsixfive (sixisixfive.deviantart.com)</dc:title>
     </cc:Agent>
    </dc:rights>
    <dc:description>A simple icon theme published under CC-BY-SA_V4(http://creativecommons.org/licenses/by-sa/4.0)</dc:description>
    <dc:identifier>SSF</dc:identifier>
   </cc:Work>
  </rdf:RDF>
 </metadata>
 <!--Part of the Ivy icon them published under the CC-BY-SA_V4: http://creativecommons.org/licenses/by-sa/4.0 -->
</svg>
