<?xml version="1.0" encoding="UTF-8" standalone="no"?>
<svg
   xmlns:dc="http://purl.org/dc/elements/1.1/"
   xmlns:cc="http://creativecommons.org/ns#"
   xmlns:rdf="http://www.w3.org/1999/02/22-rdf-syntax-ns#"
   xmlns:svg="http://www.w3.org/2000/svg"
   xmlns="http://www.w3.org/2000/svg"
   xmlns:xlink="http://www.w3.org/1999/xlink"
   id="svg2"
   version="1.1"
   viewBox="0 0 48 48">
  <defs
     id="defs4">
    <linearGradient
       gradientUnits="userSpaceOnUse"
       x2="0"
       y2="44"
       y1="3"
       id="0">
      <stop
         id="stop7"
         stop-color="#dedede" />
      <stop
         id="stop9"
         stop-color="#f4f4f4"
         offset="1" />
    </linearGradient>
    <linearGradient
       gradientUnits="userSpaceOnUse"
       x2="39.906"
       y2="42.969"
       x1="40"
       y1="3"
       id="1">
      <stop
         id="stop12"
         stop-color="#fff" />
      <stop
         id="stop14"
         stop-opacity="0"
         stop-color="#fff"
         offset="1" />
    </linearGradient>
    <linearGradient
       id="linearGradient4162">
      <stop
         stop-color="#fff"
         id="stop4164" />
      <stop
         stop-opacity="0"
         stop-color="#fff"
         id="stop4166"
         offset="1" />
    </linearGradient>
    <linearGradient
       xlink:href="#linearGradient4162"
       id="linearGradient4257"
       y1="1007.3622"
       x2="0"
       y2="1010.3622"
       gradientUnits="userSpaceOnUse" />
    <clipPath
       id="clipPath4183"
       clipPathUnits="userSpaceOnUse">
      <rect
         style="fill:#ffffff"
         id="rect4185"
         height="42"
         rx="1.209"
         y="991.36218"
         x="-4.0530629"
         width="34.951"
         ry="1.209" />
    </clipPath>
  </defs>
  <rect
     ry="1.209"
     id="rect16"
     height="42"
     rx="1.209"
     y="3"
     opacity="0.1"
     x="6"
     width="34.951" />
  <rect
     ry="1.209"
     id="rect18"
     height="42"
     rx="1.209"
     fill="url(#0)"
     y="2"
     x="5.986"
     width="34.951" />
  <g
     clip-path="url(#clipPath4183)"
     id="layer1"
     transform="translate(10.039063,-989.36218)"
     mask="none">
    <path
       fill-rule="evenodd"
       opacity="0.15"
       id="path3411"
       d="m 2,1015.3622 0,7 0,1 0,22 c 0,2.216 1.784,4 4,4 l 36,0 c 2.216,0 4,-1.784 4,-4 l 0,-22 0,-1 0,-7 -44,0 z" />
    <path
       fill-rule="evenodd"
       fill="#6a6a6a"
       id="rect3370"
       d="m 42,1006.3622 c 2.216,0 4,1.784 4,4 l 0,6 c 0,2.216 -1.784,4 -4,4 -2.216,0 -4,-1.784 -4,-4 l 0,-6 c 0,-2.216 1.784,-4 4,-4 z" />
    <path
       fill-rule="evenodd"
       id="path3423"
       d="m 6,1007.3622 c -2.216,0 -4,1.784 -4,4 l 0,4 40,0 c 2.216,0 4,-1.784 4,-4 0,-2.216 -1.784,-4 -4,-4 l -36,0 z" />
    <path
       fill-rule="evenodd"
       fill="#6a6a6a"
       d="m 2,10 0,7 0,1 0,22 c 0,2.216 1.784,4 4,4 l 36,0 c 2.216,0 4,-1.784 4,-4 l 0,-22 0,-1 0,-7 -44,0 z"
       transform="translate(0,1004.3622)"
       id="rect3338" />
    <path
       fill-rule="evenodd"
       fill="#6a6a6a"
       d="m 6,1006.3622 c -2.216,0 -4,1.784 -4,4 l 0,4 40,0 c 2.216,0 4,-1.784 4,-4 0,-2.216 -1.784,-4 -4,-4 l -36,0 z"
       id="rect3346" />
    <path
       fill-rule="evenodd"
       fill="#fff"
       d="m 3,1014.3622 5,-8 4,0 -5,8 z"
       id="path3372" />
    <path
       fill-rule="evenodd"
       fill="#fff"
       id="path3374"
       d="m 11,1014.3622 5,-8 4,0 -5,8 z" />
    <path
       fill-rule="evenodd"
       fill="#fff"
       d="m 19,1014.3622 5,-8 4,0 -5,8 z"
       id="path3376" />
    <path
       fill-rule="evenodd"
       fill="#fff"
       id="path3378"
       d="m 27,1014.3622 5,-8 4,0 -5,8 z" />
    <path
       fill-rule="evenodd"
       fill="#fff"
       d="m 3,10 3.75,6 4,0 L 7,10 3,10 Z m 8,0 3.75,6 4,0 -3.75,-6 -4,0 z m 8,0 3.75,6 4,0 -3.75,-6 -4,0 z m 8,0 3.75,6 4,0 -3.75,-6 -4,0 z"
       transform="translate(0,1004.3622)"
       id="path3382" />
    <path
       fill="#ebebeb"
       opacity="0.6"
       id="path3390"
       d="m 43,1010.3622 a 1,0.999991 0 0 1 -1,1 1,0.999991 0 0 1 -1,-1 1,0.999991 0 0 1 1,-1 1,0.999991 0 0 1 1,1 z" />
    <path
       fill="#ebebeb"
       opacity="0.6"
       id="ellipse3392"
       d="m 43,1017.3622 a 1,0.999991 0 0 1 -1,1 1,0.999991 0 0 1 -1,-1 1,0.999991 0 0 1 1,-1 1,0.999991 0 0 1 1,1 z" />
    <path
       fill-rule="evenodd"
       fill="#fff"
       opacity="0.5"
       id="rect3399"
       d="m 2,1026.3622 44,0 0,1 -44,0 z" />
    <path
       fill-rule="evenodd"
       fill="#fff"
       opacity="0.5"
       id="rect3401"
       d="m 2,1035.3622 44,0 0,1 -44,0 z" />
    <path
       fill-rule="evenodd"
       fill="#fff"
       opacity="0.5"
       id="rect3403"
       d="m -1041.3622,-24 5,0 0,1.00001 -5,0 z"
       transform="matrix(0,-1,-1,0,0,0)" />
    <path
       fill-rule="evenodd"
       fill="#fff"
       opacity="0.5"
       id="rect3407"
       d="m -1035.3622,-16 8,0 0,1.00002 -8,0 z"
       transform="matrix(0,-1,-1,0,0,0)" />
    <path
       fill-rule="evenodd"
       fill="#fff"
       opacity="0.5"
       id="rect3409"
       d="m -1035.3622,-32 8,0 0,1.00002 -8,0 z"
       transform="matrix(0,-1,-1,0,0,0)" />
    <path
       fill-rule="evenodd"
       fill="#fff"
       opacity="0.5"
       id="rect3427"
       d="m 2,1020.3622 44,0 0,1 -44,0 z" />
    <path
       stroke="#000"
       fill-rule="evenodd"
       fill="none"
       opacity="0.4"
       id="path3417"
       d="m 2.4609375,10.460938 0,6.539062 0,1 0,22 c 0,1.968484 1.5705788,3.539062 3.5390625,3.539062 l 36,0 c 1.968484,0 3.539062,-1.570578 3.539062,-3.539062 l 0,-22 0,-1 0,-6.539062 -43.0781245,0 z"
       transform="translate(0,1004.3622)" />
    <path
       stroke="#000"
       fill-rule="evenodd"
       fill="none"
       opacity="0.6"
       id="path3421"
       d="m 6,1006.8809 c -1.9375592,0 -3.4804688,1.5429 -3.4804688,3.4804 l 0,3.4805 39.4804688,0 c 1.937559,0 3.480469,-1.5429 3.480469,-3.4805 0,-1.9375 -1.54291,-3.4804 -3.480469,-3.4804 l -36,0 z" />
    <path
       fill-rule="evenodd"
       fill="#fff"
       opacity="0.5"
       id="rect3429"
       d="m 2,1041.3622 44,0 0,1 -44,0 z" />
    <path
       fill-rule="evenodd"
       fill="#fff"
       opacity="0.57"
       id="rect3431"
       d="m 5,1022.3622 2,0 c 0.554,0 1,0.223 1,0.5 0,0.277 -0.446,0.5 -1,0.5 l -2,0 c -0.554,0 -1,-0.223 -1,-0.5 0,-0.277 0.446,-0.5 1,-0.5 z" />
    <path
       fill-rule="evenodd"
       fill="#fff"
       opacity="0.57"
       id="rect3433"
       d="m 5,1028.3622 2,0 c 0.554,0 1,0.223 1,0.5 0,0.277 -0.446,0.5 -1,0.5 l -2,0 c -0.554,0 -1,-0.223 -1,-0.5 0,-0.277 0.446,-0.5 1,-0.5 z" />
    <path
       fill-rule="evenodd"
       fill="#fff"
       opacity="0.57"
       id="rect3435"
       d="m 19,-1029.3622 2,0 c 0.554,0 1,0.223 1,0.5 0,0.277 -0.446,0.5 -1,0.5 l -2,0 c -0.554,0 -1,-0.223 -1,-0.5 0,-0.277 0.446,-0.5 1,-0.5 z"
       transform="scale(1,-1)" />
    <path
       fill-rule="evenodd"
       fill="#fff"
       opacity="0.57"
       id="rect3437"
       d="m 35,-1029.3622 2,0 c 0.554,0 1,0.223 1,0.5 0,0.277 -0.446,0.5 -1,0.5 l -2,0 c -0.554,0 -1,-0.223 -1,-0.5 0,-0.277 0.446,-0.5 1,-0.5 z"
       transform="scale(1,-1)" />
    <path
       fill-rule="evenodd"
       fill="#fff"
       opacity="0.57"
       id="rect3439"
       d="m 27,-1038.3622 2,0 c 0.554,0 1,0.223 1,0.5 0,0.277 -0.446,0.5 -1,0.5 l -2,0 c -0.554,0 -1,-0.223 -1,-0.5 0,-0.277 0.446,-0.5 1,-0.5 z"
       transform="scale(1,-1)" />
    <path
       fill-rule="evenodd"
       fill="#fff"
       opacity="0.57"
       id="rect3441"
       d="m 5,-1038.3622 2,0 c 0.554,0 1,0.223 1,0.5 0,0.277 -0.446,0.5 -1,0.5 l -2,0 c -0.554,0 -1,-0.223 -1,-0.5 0,-0.277 0.446,-0.5 1,-0.5 z"
       transform="scale(1,-1)" />
    <path
       fill-rule="evenodd"
       fill="#fff"
       opacity="0.57"
       id="rect3443"
       d="m 5,-1044.3622 2,0 c 0.554,0 1,0.223 1,0.5 0,0.277 -0.446,0.5 -1,0.5 l -2,0 c -0.554,0 -1,-0.223 -1,-0.5 0,-0.277 0.446,-0.5 1,-0.5 z"
       transform="scale(1,-1)" />
    <path
       fill-rule="evenodd"
       fill="#fff"
       opacity="0.2"
       id="rect3445"
       d="m 3.5,1015.3622 41,0 c 0.277,0 0.5,0.223 0.5,0.5 0,0.277 -0.223,0.5 -0.5,0.5 l -41,0 c -0.277,0 -0.5,-0.223 -0.5,-0.5 0,-0.277 0.223,-0.5 0.5,-0.5 z" />
    <path
       stroke="url(#linearGradient4257)"
       fill-rule="evenodd"
       fill="none"
       opacity="0.33"
       id="path3449"
       d="m 6,1007.8418 c -1.4274411,0 -2.5195313,1.0922 -2.5195312,2.5195 l 0,2.5196 38.5195312,0 c 1.427441,0 2.519531,-1.0921 2.519531,-2.5196 0,-1.4273 -1.09209,-2.5195 -2.519531,-2.5195 l -36,0 z" />
  </g>
  <g
     fill="none"
     id="g20">
    <path
       stroke="#000"
       opacity="0.4"
       id="path22"
       d="M 7.1875,2.5 C 6.783721,2.5 6.5,2.799839 6.5,3.21875 l 0,39.5625 C 6.5,43.20016 6.783721,43.5 7.1875,43.5 l 32.53125,0 c 0.40378,0 0.71875,-0.31497 0.71875,-0.71875 l 0,-39.5625 C 40.4375,2.814971 40.12253,2.5 39.71875,2.5 L 7.1875,2.5 Z" />
    <path
       stroke="url(#1)"
       opacity="0.78"
       id="path24"
       d="m 7.5312,3.5312 0,38.9375 31.875,0 0,-38.9375 -31.875,0 z" />
  </g>
  <rect
     ry="0.5"
     fill-rule="evenodd"
     fill="#000"
     opacity="0.4"
     id="rect3952"
     width="28"
     height="1"
     x="12"
     y="43"
     rx="1.209" />
  <metadata
     id="metadata9999">
    <rdf:RDF>
      <cc:Work>
        <dc:format>image/svg+xml</dc:format>
        <dc:type
           rdf:resource="http://purl.org/dc/dcmitype/StillImage" />
        <dc:title></dc:title>
        <cc:license
           rdf:resource="http://creativecommons.org/licenses/by-sa/4.0/" />
        <dc:creator>
          <cc:Agent>
            <dc:title>Sixsixfive (sixsixfive.deviantart.com)</dc:title>
          </cc:Agent>
        </dc:creator>
        <dc:publisher>
          <cc:Agent>
            <dc:title>Sixsixfive (sixsixfive.deviantart.com)</dc:title>
          </cc:Agent>
        </dc:publisher>
        <dc:source>https://github.com/sixsixfive</dc:source>
        <dc:subject>
          <rdf:Bag>
            <rdf:li>ivy</rdf:li>
          </rdf:Bag>
        </dc:subject>
        <dc:contributor>
          <cc:Agent>
            <dc:title>ssf</dc:title>
          </cc:Agent>
        </dc:contributor>
        <dc:rights>
          <cc:Agent>
            <dc:title>Sixsixfive (sixisixfive.deviantart.com)</dc:title>
          </cc:Agent>
        </dc:rights>
        <dc:description>A simple icon theme published under CC-BY-SA_V4(http://creativecommons.org/licenses/by-sa/4.0)</dc:description>
        <dc:identifier>SSF</dc:identifier>
      </cc:Work>
    </rdf:RDF>
  </metadata>
  <!--Part of the Ivy icon them published under the CC-BY-SA_V4: http://creativecommons.org/licenses/by-sa/4.0 -->
</svg>
