<?xml version="1.0" encoding="UTF-8" standalone="no"?><svg viewBox="0 0 48 48" xmlns:svg="http://www.w3.org/2000/svg" xmlns="http://www.w3.org/2000/svg" xmlns:rdf="http://www.w3.org/1999/02/22-rdf-syntax-ns#" xmlns:xlink="http://www.w3.org/1999/xlink" version="1.1" id="svg2" xmlns:dc="http://purl.org/dc/elements/1.1/" xmlns:cc="http://creativecommons.org/ns#"><defs id="defs4"><linearGradient id="linearGradient4641"><stop stop-opacity="1" id="stop4643" stop-color="#fff"/><stop stop-opacity="0" offset="1" id="stop4645" stop-color="#fff"/></linearGradient><linearGradient x1="43" xlink:href="#linearGradient4641" y1="5" x2="43" y2="31" id="linearGradient4647" gradientUnits="userSpaceOnUse"/></defs><path opacity="0.1" id="path4651" d="m 15.962,4 0,11.8416 -13.962,0 0,17.3168 13.962,0 0,11.8416 20.076,-20.5318 z" fill="#000"/><metadata id="metadata9999"><rdf:RDF><cc:Work><dc:format>image/svg+xml</dc:format><dc:type rdf:resource="http://purl.org/dc/dcmitype/StillImage"/><dc:title/><cc:license rdf:resource="http://creativecommons.org/licenses/by-sa/4.0/"/><dc:creator><cc:Agent><dc:title>Sixsixfive (sixsixfive.deviantart.com)</dc:title></cc:Agent></dc:creator><dc:publisher><cc:Agent><dc:title>Sixsixfive (sixsixfive.deviantart.com)</dc:title></cc:Agent></dc:publisher><dc:source>https://github.com/sixsixfive</dc:source><dc:subject><rdf:Bag><rdf:li>ivy</rdf:li></rdf:Bag></dc:subject><dc:contributor><cc:Agent><dc:title>ssf</dc:title></cc:Agent></dc:contributor><dc:rights><cc:Agent><dc:title>Sixsixfive (sixisixfive.deviantart.com)</dc:title></cc:Agent></dc:rights><dc:description>A simple icon theme published under CC-BY-SA_V4(http://creativecommons.org/licenses/by-sa/4.0)</dc:description><dc:identifier>SSF</dc:identifier></cc:Work></rdf:RDF></metadata><!--Part of the Ivy icon them published under the CC-BY-SA_V4: http://creativecommons.org/licenses/by-sa/4.0 -->
<path stroke="none" opacity="0.1" fill-opacity="1" id="path4649" d="M 27,4 27,12.195312 39.037109,24.46875 27,36.779297 27,45 47,24.5 27,4 Z" fill="#000"/><path stroke="none" fill-opacity="1" id="path23" d="M 27,3 27,11.195312 39.037109,23.46875 27,35.779297 27,44 47,23.5 27,3 Z" fill="#ff8b36"/><g transform="matrix(1 0 0 1 1.3116881 -0.96615841)" id="g4615" fill="#00d4ff"/><path stroke="#000" opacity="0.4" fill-opacity="1" id="path4630" d="m 27.46875,4.1523438 0,6.8515622 11.904297,12.136719 a 0.46951667,0.46951667 0 0 1 0,0.65625 l -11.904297,12.173828 0,6.876953 L 46.34375,23.5 27.46875,4.1523438 Z" fill="none"/><path id="path23-0" d="m 15.962,3 0,11.8416 -13.962,0 0,17.3168 13.962,0 0,11.8416 20.076,-20.5318 z" fill="#5288d1"/><path stroke="#000" opacity="0.4" transform="matrix(1 0 0 1 -0.65625 -1.0429991)" id="path4634" d="m 17.119141,5.1152344 0,10.6933596 a 0.46951706,0.46951706 0 0 1 -0.46875,0.46875 l -13.494141,0 0,16.378906 13.494141,0 a 0.46951706,0.46951706 0 0 1 0.46875,0.46875 l 0,10.691406 L 36.070312,24.433594 17.119141,5.1152344 Z" fill="none"/><path stroke="url(#linearGradient4647)" opacity="0.4" fill-opacity="1" id="path4636" d="m 17.439453,6.6132812 0,8.2285158 a 1.4764386,1.4764386 0 0 1 -1.476562,1.476562 l -12.4863285,0 0,14.363282 12.4863285,0 a 1.4764386,1.4764386 0 0 1 1.476562,1.476562 l 0,8.220703 L 33.972656,23.46875 17.439453,6.6132812 Z m 11.046875,0.041016 0,3.9335938 11.611328,11.839843 a 1.4868158,1.4868158 0 0 1 0.002,2.080078 l -11.613281,11.876954 0,3.960937 L 44.923828,23.5 28.486328,6.6542969 Z" fill="none"/></svg>