<?xml version="1.0" encoding="UTF-8" standalone="no"?>
<svg xmlns:dc="http://purl.org/dc/elements/1.1/" xmlns:cc="http://creativecommons.org/ns#" xmlns:rdf="http://www.w3.org/1999/02/22-rdf-syntax-ns#" xmlns:svg="http://www.w3.org/2000/svg" xmlns="http://www.w3.org/2000/svg" xmlns:xlink="http://www.w3.org/1999/xlink" id="svg2" viewBox="0 0 48 48" version="1.1">
 <defs id="defs4">
  <linearGradient id="linearGradient4182">
   <stop stop-color="#ebebeb" id="stop4184"/>
   <stop stop-color="#fff" offset="1" id="stop4186"/>
  </linearGradient>
  <linearGradient id="linearGradient4165">
   <stop stop-color="#fff" id="stop4167"/>
   <stop stop-opacity="0" stop-color="#fff" offset="1" id="stop4169"/>
  </linearGradient>
  <linearGradient xlink:href="#linearGradient4165" id="linearGradient4171" y1="4" x2="0" y2="43" gradientUnits="userSpaceOnUse"/>
  <linearGradient xlink:href="#linearGradient4182" id="linearGradient4188" y1="41" x2="0" y2="6" gradientUnits="userSpaceOnUse"/>
 </defs>
 <g id="layer1" transform="translate(0,-1004.3622)">
  <path d="m 3,1008.3622 0,41 12,0 0,-15 10,0 0,15 20,0 0,-41 -20,0 0,14 -10,0 0,-14 -12,0 z" id="rect4190" opacity="0.15" fill-rule="evenodd"/>
  <path id="rect3338" d="m 3,1007.3622 12,0 0,41 -12,0 z" fill="#a868d4" fill-rule="evenodd"/>
  <path id="rect3340" d="m 25,1007.3622 20,0 0,41 -20,0 z" fill="#a868d4" fill-rule="evenodd"/>
  <path id="rect3342" d="m 8,1021.3622 18,0 0,12 -18,0 z" fill="#a868d4" fill-rule="evenodd"/>
  <path d="m 28,6 0,7 7,0 0,7 -7,0 0,7 0,7 0,3 0,4 14,0 0,-7 -7,0 0,-7 7,0 0,-7 0,-12 0,-2 -14,0 z" transform="translate(0,1004.3622)" id="rect3344" fill="url(#linearGradient4188)" fill-rule="evenodd"/>
  <path id="path3361" d="m 3.5410156,3.5410156 0,39.9179684 10.9179684,0 0,-14.458984 A 0.54189301,0.54189301 0 0 1 15,28.458984 l 10,0 A 0.54189301,0.54189301 0 0 1 25.541016,29 l 0,14.458984 18.917968,0 0,-39.9179684 -18.917968,0 0,13.4589844 A 0.54189301,0.54189301 0 0 1 25,17.541016 l -10,0 A 0.54189301,0.54189301 0 0 1 14.458984,17 l 0,-13.4589844 -10.9179684,0 z" transform="translate(0,1004.3622)" opacity="0.4" fill="none" fill-rule="evenodd" stroke="#000"/>
  <path transform="translate(0,1004.3622)" d="m 4.515625,4.515625 0,37.96875 8.96875,0 0,-13.484375 A 1.5164771,1.5164771 0 0 1 15,27.484375 l 10,0 A 1.5164771,1.5164771 0 0 1 26.515625,29 l 0,13.484375 16.96875,0 0,-37.96875 -16.96875,0 0,12.484375 A 1.5164771,1.5164771 0 0 1 25,18.515625 l -10,0 A 1.5164771,1.5164771 0 0 1 13.484375,17 l 0,-12.484375 -8.96875,0 z" id="path3363" opacity="0.3" fill="none" fill-rule="evenodd" stroke="url(#linearGradient4171)"/>
 </g>
 <metadata id="metadata9999">
  <rdf:RDF>
   <cc:Work>
    <dc:format>image/svg+xml</dc:format>
    <dc:type rdf:resource="http://purl.org/dc/dcmitype/StillImage"/>
    <dc:title>Ivy icon theme</dc:title>
    <cc:license rdf:resource="http://creativecommons.org/licenses/by-sa/4.0/"/>
    <dc:creator>
     <cc:Agent>
      <dc:title>Sixsixfive (sixsixfive.deviantart.com)</dc:title>
     </cc:Agent>
    </dc:creator>
    <dc:publisher>
     <cc:Agent>
      <dc:title>Sixsixfive (sixsixfive.deviantart.com)</dc:title>
     </cc:Agent>
    </dc:publisher>
    <dc:source>https://github.com/sixsixfive</dc:source>
    <dc:subject>
     <rdf:Bag>
      <rdf:li>ivy</rdf:li>
     </rdf:Bag>
    </dc:subject>
    <dc:contributor>
     <cc:Agent>
      <dc:title>ssf</dc:title>
     </cc:Agent>
    </dc:contributor>
    <dc:rights>
     <cc:Agent>
      <dc:title>Sixsixfive (sixisixfive.deviantart.com)</dc:title>
     </cc:Agent>
    </dc:rights>
    <dc:description>A simple icon theme published under CC-BY-SA_V4(http://creativecommons.org/licenses/by-sa/4.0)</dc:description>
    <dc:identifier>SSF</dc:identifier>
   </cc:Work>
  </rdf:RDF>
 </metadata>
 <!--Part of the Ivy icon them published under the CC-BY-SA_V4: http://creativecommons.org/licenses/by-sa/4.0 -->
</svg>
