<?xml version="1.0" encoding="UTF-8" standalone="no"?><svg xmlns:rdf="http://www.w3.org/1999/02/22-rdf-syntax-ns#" xmlns:cc="http://creativecommons.org/ns#" xmlns:svg="http://www.w3.org/2000/svg" id="svg2" viewBox="0 0 48 48" version="1.1" xmlns:xlink="http://www.w3.org/1999/xlink" xmlns:dc="http://purl.org/dc/elements/1.1/" xmlns="http://www.w3.org/2000/svg"><defs id="defs4"><linearGradient id="linearGradient4162"><stop id="stop4164" stop-color="#ff6d01"/><stop offset="1" id="stop4166" stop-color="#ff8d39"/></linearGradient><linearGradient id="linearGradient4154"><stop id="stop4156" stop-color="#fff"/><stop offset="1" id="stop4158" stop-color="#fff" stop-opacity="0"/></linearGradient><linearGradient id="linearGradient4160" x2="0" y2="1046.3622" xlink:href="#linearGradient4154" y1="1014.3622" gradientUnits="userSpaceOnUse"/><linearGradient id="linearGradient4168" x2="0" y2="1045.3622" xlink:href="#linearGradient4162" y1="1013.3622" gradientUnits="userSpaceOnUse"/></defs><g id="layer1" transform="matrix(1 0 0 1 0 -1004.3622)"><g id="text3336"><path id="path4170" opacity="0.2" d="m 24.944411,1014.3552 c -7.484746,0 -11.537447,1.4927 -14.578125,3.13 -1.5593218,0.8577 -4.6344535,2.8845 -5.881911,7.5625 -0.3118645,1.1695 -0.3907838,2.126 -0.46875,3.2955 l 14.926833,0 c 0.155933,-0.8575 0.232741,-1.1908 0.388672,-1.6587 1.013561,-2.183 3.275773,-2.3723 5.380859,-2.3723 2.962711,0 4.67753,0.5797 5.535156,1.7492 1.963999,2.6117 -0.247145,4.3008 -3.197265,4.834 -1.481356,0.3119 -2.962004,0.4672 -4.44336,0.6231 -4.755932,0.5458 -11.774205,1.1702 -15.9843743,4.2109 -3.9762714,2.8068 -4.6652787,7.4842 -4.6652787,9.2773 0,0.4866 0.030769,0.931 0.072266,1.3555 l 16.878169,0 c -0.07295,-0.114 -0.142322,-0.228 -0.199219,-0.3418 -0.311864,-0.5459 -0.390784,-1.091 -0.46875,-1.7148 0,-0.8575 0.312818,-1.5612 0.46875,-1.795 0.779662,-1.4034 2.027681,-1.9485 5.068359,-2.5722 3.976271,-0.7017 5.040507,-1.4067 7.223558,-2.5762 l 0,9 14.995197,0 0,-18.2734 c 0,-1.3254 0.234515,-4.913 -2.572265,-8.1875 -2.962711,-3.4304 -8.966651,-5.5461 -18.478521,-5.5461 z"/><path id="path3343" d="m 24.944411,1013.3552 c -7.484746,0 -11.537447,1.4927 -14.578125,3.13 -1.5593218,0.8577 -4.6344535,2.8845 -5.881911,7.5625 -0.3118645,1.1695 -0.3907838,2.126 -0.46875,3.2955 l 14.926833,0 c 0.155933,-0.8575 0.232741,-1.1908 0.388672,-1.6587 1.013561,-2.183 3.275773,-2.3723 5.380859,-2.3723 2.962711,0 4.67753,0.5797 5.535156,1.7492 1.963999,2.6117 -0.247145,4.3008 -3.197265,4.834 -1.481356,0.3119 -2.962004,0.4672 -4.44336,0.6231 -4.755932,0.5458 -11.774205,1.1702 -15.9843743,4.2109 -3.9762714,2.8068 -4.6652787,7.4842 -4.6652787,9.2773 0,0.4866 0.030769,0.931 0.072266,1.3555 l 16.878169,0 c -0.07295,-0.114 -0.142322,-0.228 -0.199219,-0.3418 -0.311864,-0.5459 -0.390784,-1.091 -0.46875,-1.7148 0,-0.8575 0.312818,-1.5612 0.46875,-1.795 0.779662,-1.4034 2.027681,-1.9485 5.068359,-2.5722 3.976271,-0.7017 5.040507,-1.4067 7.223558,-2.5762 l 0,9 14.995197,0 0,-18.2734 c 0,-1.3254 0.234515,-4.913 -2.572265,-8.1875 -2.962711,-3.4304 -8.966651,-5.5461 -18.478521,-5.5461 z" fill="url(#linearGradient4168)"/><path id="path3350" opacity="0.4" d="m 24.945312,1013.8789 c -7.415127,0 -11.34356,1.4583 -14.330078,3.0664 -1.5097527,0.8309 -4.4239124,2.7322 -5.6249996,7.2363 -0.2469198,0.926 -0.3039146,1.739 -0.3730469,2.6387 l 13.9121095,0 c 0.09865,-0.4959 0.181899,-0.9343 0.304687,-1.3027 a 0.52406729,0.52406729 0 0 1 0.02344,-0.055 c 0.567068,-1.2214 1.535139,-1.9281 2.589844,-2.2813 1.054705,-0.3531 2.197474,-0.3925 3.265625,-0.3925 3.027659,0 4.946361,0.5885 5.953125,1.957 0.535694,0.7124 0.821112,1.4067 0.849609,2.0742 0.0285,0.6675 -0.213888,1.2827 -0.619141,1.7715 -0.810505,0.9775 -2.20414,1.5386 -3.751953,1.8184 -1.511215,0.3172 -3.005693,0.4734 -4.482422,0.6289 -4.768822,0.5471 -11.720212,1.2155 -15.7324215,4.1132 a 0.52406729,0.52406729 0 0 1 -0.00391,0 c -3.7755164,2.6651 -4.4453124,7.1909 -4.4453124,8.8497 0,0.2962 0.025789,0.5602 0.044922,0.832 l 15.5566409,0 c -0.194843,-0.493 -0.300727,-0.9839 -0.361328,-1.4688 a 0.52406729,0.52406729 0 0 1 -0.0039,-0.064 c 0,-0.9753 0.304295,-1.6985 0.548828,-2.0703 0.432712,-0.7684 1.042123,-1.3508 1.898437,-1.7735 0.865148,-0.427 1.971856,-0.722 3.507813,-1.0371 a 0.52406729,0.52406729 0 0 1 0.01367,0 c 3.932861,-0.6941 4.86852,-1.346 7.066406,-2.5235 a 0.52406729,0.52406729 0 0 1 0.771485,0.4629 l 0,8.4766 13.949218,0 0,-17.75 c 0,-1.3872 0.227046,-4.7258 -2.447266,-7.8457 -2.803777,-3.2454 -8.646858,-5.3633 -18.080079,-5.3633 z" stroke="#000" fill="none"/><path id="path3352" opacity="0.4" d="m 24.945312,1014.8691 c -7.28194,0 -10.973534,1.3947 -13.857421,2.9473 -6.44e-4,4e-4 -0.0013,0 -0.002,0 -1.4155657,0.7795 -4.0251659,2.4434 -5.1386724,6.6191 -0.1274303,0.4779 -0.1351064,0.9514 -0.1953125,1.3926 l 11.9941409,0 c 0.04796,-0.1804 0.08909,-0.4469 0.148437,-0.625 a 1.5144098,1.5144098 0 0 1 0.06445,-0.1582 c 0.680996,-1.4667 1.931434,-2.3868 3.173828,-2.8028 1.242395,-0.416 2.482433,-0.4453 3.580079,-0.4453 3.155044,0 5.460863,0.6118 6.748047,2.3594 0.61709,0.8227 1.003809,1.7019 1.042968,2.6191 0.03927,0.9198 -0.31341,1.8034 -0.845703,2.4454 -1.061964,1.2808 -2.645508,1.853 -4.326172,2.1582 -1.565201,0.3273 -3.085865,0.4862 -4.552734,0.6406 -0.0011,10e-5 -0.0028,-1e-4 -0.0039,0 -0.0032,3e-4 -0.0066,0 -0.0098,0 -4.793002,0.55 -11.616536,1.3052 -15.2558594,3.9336 a 1.5144098,1.5144098 0 0 1 -0.013672,0.01 c -3.3225904,2.3454 -3.966509,6.3906 -3.9941407,7.8829 l 13.3378911,0 c -0.01494,-0.1076 -0.08908,-0.2556 -0.101563,-0.3555 a 1.5144098,1.5144098 0 0 1 -0.01172,-0.1875 c 0,-1.1977 0.306097,-1.9583 0.707032,-2.5742 0.517408,-0.9033 1.303823,-1.669 2.291015,-2.1563 1.00801,-0.4975 2.182578,-0.798 3.748047,-1.1191 a 1.5144098,1.5144098 0 0 1 0.04102,-0.01 c 3.85083,-0.6796 4.545564,-1.2255 6.771484,-2.418 a 1.5144098,1.5144098 0 0 1 2.228516,1.334 l 0,7.4864 11.96875,0 0,-16.7598 c 0,-1.5032 0.214766,-4.3708 -2.205078,-7.1973 l -0.002,0 c -2.503215,-2.8965 -8.044633,-5.0196 -17.330079,-5.0196 z m -7.589843,30.8282 0.03906,0.074 c -0.0028,-0.01 -0.0011,-0.01 -0.0039,-0.014 -0.01214,-0.023 -0.02302,-0.036 -0.03516,-0.061 z" stroke="url(#linearGradient4160)" fill="none"/></g></g><metadata id="metadata9999"><rdf:RDF><cc:Work><dc:format>image/svg+xml</dc:format><dc:type rdf:resource="http://purl.org/dc/dcmitype/StillImage"/><dc:title>Ivy icon theme</dc:title><cc:license rdf:resource="http://creativecommons.org/licenses/by-sa/4.0/"/><dc:creator><cc:Agent><dc:title>Sixsixfive (sixsixfive.deviantart.com)</dc:title></cc:Agent></dc:creator><dc:publisher><cc:Agent><dc:title>Sixsixfive (sixsixfive.deviantart.com)</dc:title></cc:Agent></dc:publisher><dc:source>https://github.com/sixsixfive</dc:source><dc:subject><rdf:Bag><rdf:li>ivy</rdf:li></rdf:Bag></dc:subject><dc:contributor><cc:Agent><dc:title>ssf</dc:title></cc:Agent></dc:contributor><dc:rights><cc:Agent><dc:title>Sixsixfive (sixisixfive.deviantart.com)</dc:title></cc:Agent></dc:rights><dc:description>A simple icon theme published under CC-BY-SA_V4(http://creativecommons.org/licenses/by-sa/4.0)</dc:description><dc:identifier>SSF</dc:identifier></cc:Work></rdf:RDF></metadata><!--Part of the Ivy icon them published under the CC-BY-SA_V4: http://creativecommons.org/licenses/by-sa/4.0 -->
</svg>