<?xml version="1.0" encoding="UTF-8" standalone="no"?><svg xmlns:cc="http://creativecommons.org/ns#" xmlns:svg="http://www.w3.org/2000/svg" xmlns:dc="http://purl.org/dc/elements/1.1/" xmlns="http://www.w3.org/2000/svg" xmlns:rdf="http://www.w3.org/1999/02/22-rdf-syntax-ns#" id="svg2" version="1.1" viewBox="0 0 48 48"><defs id="defs4"><linearGradient gradientUnits="userSpaceOnUse" y1="4.561" id="0" x1="39.25" y2="42.87" x2="39.17"><stop id="stop7" stop-color="#fff"/><stop stop-opacity="0" id="stop9" stop-color="#fff" offset="1"/></linearGradient><linearGradient gradientUnits="userSpaceOnUse" y1="3" id="1" y2="45.12" x2="0"><stop id="stop12" stop-color="#66b03e"/><stop id="stop14" stop-color="#a3d588" offset="1"/></linearGradient></defs><path opacity="0.1" d="m 6.1726,31.6102 0,14.4108 L 41.8273,24.349 6.1726,3.9799 v 20.861 l 9.6935,-7.9725 12.8286,7.6038 -12.8286,8.0189 v -9.03495 z" id="path16"/><path d="m 6.1726,30.6097 0,14.4108 L 41.8273,23.3485 6.1726,2.9794 v 20.861 l 9.6935,-7.9725 12.8286,7.6038 -12.8286,8.0189 v -9.03495 z" id="path18" fill="url(#1)"/><g id="g24" fill="none"><path stroke="#000" opacity="0.4" d="m 6.6875,3.8438 0,18.9688 8.875,-7.3125 a 0.499874,0.499874 0 0 1 0.5625,-0.0625 l 12.8125,7.5938 a 0.499874,0.499874 0 0 1 0,0.875 L 16.125,31.9376 a 0.499874,0.499874 0 0 1 -0.75,-0.4375 l 0,-7.96875 -8.6875,7.3125 0,13.2812 34.125,-20.7812 -34.125,-19.5 z" id="path26"/><path stroke="url(#0)" opacity="0.61" d="m 7.6875,5.5625 0,15.125 7.25,-5.9688 a 1.4998,1.4998 0 0 1 1.6875,-0.125 l 12.8125,7.5938 a 1.4998,1.4998 0 0 1 0.03125,2.5625 l -12.8125,8.0312 A 1.4998,1.4998 0 0 1 14.375,31.49995 l 0,-5.8125 -6.6875,5.625 0,11.0625 L 38.8437,23.40615 7.6875,5.56235 Z" id="path28"/></g><metadata id="metadata9999"><rdf:RDF><cc:Work><dc:format>image/svg+xml</dc:format><dc:type rdf:resource="http://purl.org/dc/dcmitype/StillImage"/><dc:title>Ivy icon theme</dc:title><cc:license rdf:resource="http://creativecommons.org/licenses/by-sa/4.0/"/><dc:creator><cc:Agent><dc:title>Sixsixfive (sixsixfive.deviantart.com)</dc:title></cc:Agent></dc:creator><dc:publisher><cc:Agent><dc:title>Sixsixfive (sixsixfive.deviantart.com)</dc:title></cc:Agent></dc:publisher><dc:source>https://github.com/sixsixfive</dc:source><dc:subject><rdf:Bag><rdf:li>ivy</rdf:li></rdf:Bag></dc:subject><dc:contributor><cc:Agent><dc:title>ssf</dc:title></cc:Agent></dc:contributor><dc:rights><cc:Agent><dc:title>Sixsixfive (sixisixfive.deviantart.com)</dc:title></cc:Agent></dc:rights><dc:description>A simple icon theme published under CC-BY-SA_V4(http://creativecommons.org/licenses/by-sa/4.0)</dc:description><dc:identifier>SSF</dc:identifier></cc:Work></rdf:RDF></metadata><!--Part of the Ivy icon them published under the CC-BY-SA_V4: http://creativecommons.org/licenses/by-sa/4.0 -->
</svg>