<?xml version="1.0" encoding="UTF-8" standalone="no"?><svg xmlns:cc="http://creativecommons.org/ns#" xmlns:svg="http://www.w3.org/2000/svg" xmlns="http://www.w3.org/2000/svg" xmlns:dc="http://purl.org/dc/elements/1.1/" xmlns:rdf="http://www.w3.org/1999/02/22-rdf-syntax-ns#" id="svg2" version="1.1" viewBox="0 0 48 48"><defs id="defs4"><filter width="1.137" color-interpolation-filters="sRGB" height="1.216" id="0" y="-0.108" x="-0.069"><feGaussianBlur stdDeviation="0.63" id="feGaussianBlur7"/></filter><linearGradient gradientUnits="userSpaceOnUse" y1="14" id="1" y2="41" x2="0"><stop id="stop10" stop-color="#d9d9d9"/><stop id="stop12" stop-color="#f9f9f9" offset="1"/></linearGradient><linearGradient gradientUnits="userSpaceOnUse" y1="5.158" id="2" y2="41.28" x2="0"><stop id="stop15" stop-color="#fff"/><stop stop-opacity="0" id="stop17" stop-color="#fff" offset="1"/></linearGradient><linearGradient gradientUnits="userSpaceOnUse" y1="42.22" id="3" y2="4.22" x2="0"><stop id="stop20" stop-color="#ddd"/><stop id="stop22" stop-color="#fff" offset="1"/></linearGradient><mask id="4"><path color="#000" d="M 4.054,14 H44.014 V42.21 H4.054 z" id="path25" fill-rule="evenodd" fill="#fff"/></mask></defs><path d="M 11,20 H33 V34 H11 z" id="path27" filter="url(#0)"/><path opacity="0.1" color="#000" d="M 4.054,15 H44.014 V43.21 H4.054 z" id="path29" fill-rule="evenodd" fill="#171717"/><path d="M 4,4.22 H44 V42.22 H4 z" id="path31" fill="url(#3)"/><path d="M 4,4.22 H44 V14 H4 z" id="path33" fill="#5288d1"/><g id="g35" fill="none"><g stroke="#000" id="g37"><path opacity="0.4" d="m 4.4688,4.6886 0,37.0625 39.0625,0 0,-37.0625 -39.0625,0 z" id="path39"/><path opacity="0.562" d="m 4.9369,13.5286 38.1261,4e-4" id="path41"/></g><path stroke="url(#2)" opacity="0.5" d="m 5.4375,5.6573 0,35.125 37.125,0 0,-35.125 -37.125,0 z" id="path43"/></g><path color="#000" d="M 4.054,14 H44.014 V42.21 H4.054 z" id="path45" fill-rule="evenodd" fill="#171717"/><path stroke="#a1a1a1" d="m 4.4688 4.6886 v 37.0625 h 39.0625 v -37.0625 h -39.0625 z" id="path47" fill="url(#1)" mask="url(#4)"/><g color="#000" id="g49" fill-rule="evenodd" fill="#fff"><path d="M 7,8 8,8 8,9 7,9 Z" id="path51"/><path d="m 8,9 1,0 0,1 -1,0 z" id="path53"/><path d="m 9,10 1,0 0,1 -1,0 z" id="path55"/><path d="m 7,10 1,0 0,1 -1,0 z" id="path57"/><path d="m 9,8 1,0 0,1 -1,0 z" id="path59"/><path d="m 12,8 1,0 0,3 -1,0 z" id="path61"/><path transform="matrix(0 1 -1 0 0 0)" d="m 10,-15 1,0 0,3 -1,0 z" id="path63"/><path transform="matrix(-1 0 0 -1 0 0)" d="m -15,-11 1,0 0,3 -1,0 z" id="path65"/><g transform="matrix(0 -1 1 0 0 0)" id="g67"><path d="m -9,12 1,0 0,3 -1,0 z" id="path69"/><path d="m -11,17 1,0 0,3 -1,0 z" id="path71"/></g></g><path d="M 7,16 H41 V38 H7 z" id="path73" fill="#5288d1"/><g id="g75" fill="#ffd506"><path d="m 35,16 3,0 0,22 -3,0 z" id="path77"/><path d="m 29,16.12 3,0 0,21.882 -3,0 z" id="path79"/></g><path stroke="#000" opacity="0.4" d="m 7.5 16.5 v 21 h 33 v -21 h -33 z" id="path81" fill="none"/><path opacity="0.8" d="M 7,38 H41 V39.086 H7 z" id="path83" fill="#fff"/><path d="M 11,20 H33 V34 H11 z" id="path85" fill="#171717"/><path d="M 11,20 H33 V24 H11 z" id="path87" fill="#5288d1"/><path stroke="#000" opacity="0.657" d="m 11.46875 20.46875 v 13.0625 h 21.0625 v -13.0625 h -21.0625 z" id="path89" fill="none"/><g id="g91" fill="#fff"><path opacity="0.23" d="m 12,24 20,0 0,1 -20,0 z" id="path93"/><path d="m 13,26 1,0 0,2 -1,0 z" id="path95"/><path d="m 15,27 1,0 0,1 -1,0 z" id="path97"/><path d="m 13,22 1,0 0,1 -1,0 z" id="path99"/><path d="m 15,22 1,0 0,1 -1,0 z" id="path101"/><path d="m 17,22 1,0 0,1 -1,0 z" id="path103"/></g><metadata id="metadata9999"><rdf:RDF><cc:Work><dc:format>image/svg+xml</dc:format><dc:type rdf:resource="http://purl.org/dc/dcmitype/StillImage"/><dc:title>Ivy icon theme</dc:title><cc:license rdf:resource="http://creativecommons.org/licenses/by-sa/4.0/"/><dc:creator><cc:Agent><dc:title>Sixsixfive (sixsixfive.deviantart.com)</dc:title></cc:Agent></dc:creator><dc:publisher><cc:Agent><dc:title>Sixsixfive (sixsixfive.deviantart.com)</dc:title></cc:Agent></dc:publisher><dc:source>https://github.com/sixsixfive</dc:source><dc:subject><rdf:Bag><rdf:li>ivy</rdf:li></rdf:Bag></dc:subject><dc:contributor><cc:Agent><dc:title>ssf</dc:title></cc:Agent></dc:contributor><dc:rights><cc:Agent><dc:title>Sixsixfive (sixisixfive.deviantart.com)</dc:title></cc:Agent></dc:rights><dc:description>A simple icon theme published under CC-BY-SA_V4(http://creativecommons.org/licenses/by-sa/4.0)</dc:description><dc:identifier>SSF</dc:identifier></cc:Work></rdf:RDF></metadata><!--Part of the Ivy icon them published under the CC-BY-SA_V4: http://creativecommons.org/licenses/by-sa/4.0 -->
</svg>