<?xml version="1.0" encoding="UTF-8" standalone="no"?>
<svg xmlns:dc="http://purl.org/dc/elements/1.1/" xmlns:cc="http://creativecommons.org/ns#" xmlns:rdf="http://www.w3.org/1999/02/22-rdf-syntax-ns#" xmlns:svg="http://www.w3.org/2000/svg" xmlns="http://www.w3.org/2000/svg" xmlns:xlink="http://www.w3.org/1999/xlink" id="svg2" viewBox="0 0 48 48" version="1.1">
 <defs id="defs4">
  <linearGradient id="linearGradient4174">
   <stop stop-color="#ffd506" id="stop4176"/>
   <stop stop-color="#ffe461" offset="1" id="stop4178"/>
  </linearGradient>
  <linearGradient id="linearGradient4166">
   <stop stop-color="#fff" id="stop4168"/>
   <stop stop-opacity="0" stop-color="#fff" offset="1" id="stop4170"/>
  </linearGradient>
  <linearGradient xlink:href="#linearGradient4166" id="linearGradient4172" x1="19" y1="1009.3622" x2="18.8125" y2="1014.3613" gradientUnits="userSpaceOnUse"/>
  <linearGradient xlink:href="#linearGradient4174" id="linearGradient4180" y1="1009.3622" x2="0" y2="1019.3622" gradientUnits="userSpaceOnUse"/>
 </defs>
 <g id="layer1" transform="translate(0,-1004.3622)">
  <g id="g4184">
   <path id="ellipse4182" d="m 22,1015.3622 a 8,7.9999881 0 0 1 -8,8 8,7.9999881 0 0 1 -8,-8 8,7.9999881 0 0 1 8,-8 8,7.9999881 0 0 1 8,8 z" opacity="0.15"/>
   <path id="path3338" d="m 22,1014.3622 a 8,7.9999881 0 0 1 -8,8 8,7.9999881 0 0 1 -8,-8 8,7.9999881 0 0 1 8,-8 8,7.9999881 0 0 1 8,8 z" fill="#6a6a6a"/>
   <path d="m 14,1009.5547 c -2.516899,0 -4.8066444,2.2897 -4.8066406,4.8066 -3.8e-6,2.5169 2.2897416,4.8067 4.8066406,4.8067 2.516899,0 4.806644,-2.2898 4.806641,-4.8067 3e-6,-2.5169 -2.289742,-4.8066 -4.806641,-4.8066 z" id="path3346" fill="url(#linearGradient4180)"/>
   <path d="m 14,1006.8652 c -1.96227,0 -3.913248,0.8078 -5.3007812,2.1953 -1.3875331,1.3876 -2.1953155,3.3386 -2.1953126,5.3008 -2.9e-6,1.9623 0.8077795,3.9133 2.1953126,5.3008 1.3875332,1.3875 3.3385112,2.1953 5.3007812,2.1953 1.96227,0 3.913248,-0.8078 5.300781,-2.1953 1.387533,-1.3875 2.195316,-3.3385 2.195313,-5.3008 3e-6,-1.9622 -0.80778,-3.9132 -2.195313,-5.3008 C 17.913248,1007.673 15.96227,1006.8652 14,1006.8652 Z" id="path3350" opacity="0.6" fill="none" stroke="#000"/>
   <path d="m 14,1009.0273 c -2.837138,0 -5.3339887,2.4969 -5.3339844,5.334 -4.3e-6,2.8372 2.4968324,5.334 5.3339844,5.334 2.837152,0 5.333988,-2.4968 5.333984,-5.334 4e-6,-2.8371 -2.496846,-5.334 -5.333984,-5.334 z" id="path3354" opacity="0.6" fill="none" stroke="#000"/>
   <path id="path4156" d="m 14,1010.0488 c -2.217086,0 -4.3125033,2.0954 -4.3125,4.3125 -3.3e-6,2.2171 2.095427,4.3125 4.3125,4.3125 2.217073,0 4.312503,-2.0954 4.3125,-4.3125 3e-6,-2.2171 -2.095414,-4.3125 -4.3125,-4.3125 z" opacity="0.4" fill="none" stroke="url(#linearGradient4172)"/>
  </g>
  <g id="g4192" transform="translate(20,14.000005)">
   <path id="ellipse4194" d="m 22,1015.3622 a 8,7.9999881 0 0 1 -8,8 8,7.9999881 0 0 1 -8,-8 8,7.9999881 0 0 1 8,-8 8,7.9999881 0 0 1 8,8 z" opacity="0.15"/>
   <path id="ellipse4196" d="m 22,1014.3622 a 8,7.9999881 0 0 1 -8,8 8,7.9999881 0 0 1 -8,-8 8,7.9999881 0 0 1 8,-8 8,7.9999881 0 0 1 8,8 z" fill="#6a6a6a"/>
   <path id="path4198" d="m 14,1009.5547 c -2.516899,0 -4.8066444,2.2897 -4.8066406,4.8066 -3.8e-6,2.5169 2.2897416,4.8067 4.8066406,4.8067 2.516899,0 4.806644,-2.2898 4.806641,-4.8067 3e-6,-2.5169 -2.289742,-4.8066 -4.806641,-4.8066 z" fill="url(#linearGradient4180)"/>
   <path id="path4200" d="m 14,1006.8652 c -1.96227,0 -3.913248,0.8078 -5.3007812,2.1953 -1.3875331,1.3876 -2.1953155,3.3386 -2.1953126,5.3008 -2.9e-6,1.9623 0.8077795,3.9133 2.1953126,5.3008 1.3875332,1.3875 3.3385112,2.1953 5.3007812,2.1953 1.96227,0 3.913248,-0.8078 5.300781,-2.1953 1.387533,-1.3875 2.195316,-3.3385 2.195313,-5.3008 3e-6,-1.9622 -0.80778,-3.9132 -2.195313,-5.3008 C 17.913248,1007.673 15.96227,1006.8652 14,1006.8652 Z" opacity="0.6" fill="none" stroke="#000"/>
   <path id="path4202" d="m 14,1009.0273 c -2.837138,0 -5.3339887,2.4969 -5.3339844,5.334 -4.3e-6,2.8372 2.4968324,5.334 5.3339844,5.334 2.837152,0 5.333988,-2.4968 5.333984,-5.334 4e-6,-2.8371 -2.496846,-5.334 -5.333984,-5.334 z" opacity="0.6" fill="none" stroke="#000"/>
   <path d="m 14,1010.0488 c -2.217086,0 -4.3125033,2.0954 -4.3125,4.3125 -3.3e-6,2.2171 2.095427,4.3125 4.3125,4.3125 2.217073,0 4.312503,-2.0954 4.3125,-4.3125 3e-6,-2.2171 -2.095414,-4.3125 -4.3125,-4.3125 z" id="path4204" opacity="0.4" fill="none" stroke="url(#linearGradient4172)"/>
  </g>
  <g transform="translate(0,27.000005)" id="g4210">
   <path id="ellipse4212" d="m 22,1015.3622 a 8,7.9999881 0 0 1 -8,8 8,7.9999881 0 0 1 -8,-8 8,7.9999881 0 0 1 8,-8 8,7.9999881 0 0 1 8,8 z" opacity="0.15"/>
   <path id="ellipse4214" d="m 22,1014.3622 a 8,7.9999881 0 0 1 -8,8 8,7.9999881 0 0 1 -8,-8 8,7.9999881 0 0 1 8,-8 8,7.9999881 0 0 1 8,8 z" fill="#6a6a6a"/>
   <path d="m 14,1009.5547 c -2.516899,0 -4.8066444,2.2897 -4.8066406,4.8066 -3.8e-6,2.5169 2.2897416,4.8067 4.8066406,4.8067 2.516899,0 4.806644,-2.2898 4.806641,-4.8067 3e-6,-2.5169 -2.289742,-4.8066 -4.806641,-4.8066 z" id="path4216" fill="url(#linearGradient4180)"/>
   <path d="m 14,1006.8652 c -1.96227,0 -3.913248,0.8078 -5.3007812,2.1953 -1.3875331,1.3876 -2.1953155,3.3386 -2.1953126,5.3008 -2.9e-6,1.9623 0.8077795,3.9133 2.1953126,5.3008 1.3875332,1.3875 3.3385112,2.1953 5.3007812,2.1953 1.96227,0 3.913248,-0.8078 5.300781,-2.1953 1.387533,-1.3875 2.195316,-3.3385 2.195313,-5.3008 3e-6,-1.9622 -0.80778,-3.9132 -2.195313,-5.3008 C 17.913248,1007.673 15.96227,1006.8652 14,1006.8652 Z" id="path4218" opacity="0.6" fill="none" stroke="#000"/>
   <path d="m 14,1009.0273 c -2.837138,0 -5.3339887,2.4969 -5.3339844,5.334 -4.3e-6,2.8372 2.4968324,5.334 5.3339844,5.334 2.837152,0 5.333988,-2.4968 5.333984,-5.334 4e-6,-2.8371 -2.496846,-5.334 -5.333984,-5.334 z" id="path4220" opacity="0.6" fill="none" stroke="#000"/>
   <path id="path4222" d="m 14,1010.0488 c -2.217086,0 -4.3125033,2.0954 -4.3125,4.3125 -3.3e-6,2.2171 2.095427,4.3125 4.3125,4.3125 2.217073,0 4.312503,-2.0954 4.3125,-4.3125 3e-6,-2.2171 -2.095414,-4.3125 -4.3125,-4.3125 z" opacity="0.4" fill="none" stroke="url(#linearGradient4172)"/>
  </g>
 </g>
 <metadata id="metadata9999">
  <rdf:RDF>
   <cc:Work>
    <dc:format>image/svg+xml</dc:format>
    <dc:type rdf:resource="http://purl.org/dc/dcmitype/StillImage"/>
    <dc:title>Ivy icon theme</dc:title>
    <cc:license rdf:resource="http://creativecommons.org/licenses/by-sa/4.0/"/>
    <dc:creator>
     <cc:Agent>
      <dc:title>Sixsixfive (sixsixfive.deviantart.com)</dc:title>
     </cc:Agent>
    </dc:creator>
    <dc:publisher>
     <cc:Agent>
      <dc:title>Sixsixfive (sixsixfive.deviantart.com)</dc:title>
     </cc:Agent>
    </dc:publisher>
    <dc:source>https://github.com/sixsixfive</dc:source>
    <dc:subject>
     <rdf:Bag>
      <rdf:li>ivy</rdf:li>
     </rdf:Bag>
    </dc:subject>
    <dc:contributor>
     <cc:Agent>
      <dc:title>ssf</dc:title>
     </cc:Agent>
    </dc:contributor>
    <dc:rights>
     <cc:Agent>
      <dc:title>Sixsixfive (sixisixfive.deviantart.com)</dc:title>
     </cc:Agent>
    </dc:rights>
    <dc:description>A simple icon theme published under CC-BY-SA_V4(http://creativecommons.org/licenses/by-sa/4.0)</dc:description>
    <dc:identifier>SSF</dc:identifier>
   </cc:Work>
  </rdf:RDF>
 </metadata>
 <!--Part of the Ivy icon them published under the CC-BY-SA_V4: http://creativecommons.org/licenses/by-sa/4.0 -->
</svg>
