<?xml version="1.0" encoding="UTF-8" standalone="no"?>
<svg xmlns:dc="http://purl.org/dc/elements/1.1/" xmlns:cc="http://creativecommons.org/ns#" xmlns:rdf="http://www.w3.org/1999/02/22-rdf-syntax-ns#" xmlns:svg="http://www.w3.org/2000/svg" xmlns="http://www.w3.org/2000/svg" xmlns:xlink="http://www.w3.org/1999/xlink" viewBox="0 0 48 48" id="svg2" version="1.1">
 <defs id="defs4">
  <linearGradient id="0" y1="4" y2="47" x2="0" gradientUnits="userSpaceOnUse">
   <stop stop-color="#fff" id="stop7"/>
   <stop offset="1" stop-color="#fff" stop-opacity="0" id="stop9"/>
  </linearGradient>
  <linearGradient id="1" y1="2.866" y2="48.07" x2="0" gradientUnits="userSpaceOnUse">
   <stop stop-color="#66b03e" id="stop12"/>
   <stop offset="1" stop-color="#96cf77" id="stop14"/>
  </linearGradient>
  <linearGradient xlink:href="#1" id="linearGradient4148" gradientUnits="userSpaceOnUse" y1="2.866" x2="0" y2="48.07"/>
  <linearGradient xlink:href="#1" id="linearGradient4150" gradientUnits="userSpaceOnUse" y1="2.866" x2="0" y2="48.07"/>
  <linearGradient xlink:href="#1" id="linearGradient4152" gradientUnits="userSpaceOnUse" y1="2.866" x2="0" y2="48.07"/>
  <linearGradient xlink:href="#1" id="linearGradient4154" gradientUnits="userSpaceOnUse" y1="2.866" x2="0" y2="48.07"/>
  <linearGradient xlink:href="#1" id="linearGradient4156" gradientUnits="userSpaceOnUse" y1="2.866" x2="0" y2="48.07"/>
  <linearGradient xlink:href="#1" id="linearGradient4158" gradientUnits="userSpaceOnUse" y1="2.866" x2="0" y2="48.07"/>
 </defs>
 <g id="g16" transform="translate(0,-1.0713333)" fill="url(#linearGradient4158)" fill-rule="evenodd">
  <path d="m 33.5673,47.7937 c -1.05831,0.251626 -2.17346,0.213593 -3.28313,0.137753 -4.89262,-0.225712 -9.80097,-0.468242 -14.6893,-0.02743 -3.33635,0.234308 -7.24223,-0.465544 -9.24352,-3.20584 -1.1552,-1.63807 -1.6662,-3.69057 -1.12081,-5.60889 0.077253,-1.42458 1.11918,-2.49648 2.15507,-3.44409 1.23154,-1.25253 2.83711,-2.05757 4.32564,-2.9941 2.81942,-2.04175 4.32436,-5.14658 6.59733,-7.63416 1.40649,-1.48866 3.70036,-2.22077 5.75094,-1.55041 1.81121,0.546525 3.22198,1.82887 4.17287,3.32915 2.25692,2.9286 4.73762,5.77522 7.76519,8.04319 2.03977,1.36232 3.55487,3.52004 3.92762,5.8405 0.28535,1.93418 -0.394192,4.03506 -2.06471,5.2805 -1.21062,0.985406 -2.73753,1.52648 -4.29316,1.83382 z" id="path18" fill="url(#linearGradient4148)"/>
  <path d="m 13.8397,3.2098 0.6367,-0.1991 0.4845,0 0.4845,0 0,0.008 0,0.0119 0.1615,0.0199 0.1615,0.0199 0.0692,0.0199 q 0.06921,0.019928 0.484468,0.159272 0.415263,0.139364 0.830519,0.398189 0.415264,0.258819 0.867435,0.684881 0.447552,0.430041 0.862816,0.987503 0.415256,0.557462 0.715166,1.17465 0.29991,0.617192 0.507539,1.23438 0.207635,0.617193 0.346051,1.35383 0.138417,0.736647 0.138417,1.91129 0,1.17465 -0.06921,1.57284 -0.06921,0.398189 -0.29991,1.19456 -0.230699,0.796373 -0.55368,1.41357 -0.32298,0.617187 -0.645962,1.03528 -0.322974,0.418098 -0.678258,0.696826 -0.359889,0.278734 -0.369114,0.31855 -0.01382,0.03979 -0.475244,0.278727 -0.461397,0.238917 -0.844357,0.350409 -0.378347,0.107506 -0.885893,0.12742 -0.507538,0.01993 -0.715167,-0.01993 -0.207622,-0.03979 -0.645948,-0.179187 -0.438335,-0.139363 -1.01509,-0.485786 -0.576743,-0.350409 -0.585975,-0.390225 -0.01382,-0.03979 -0.184558,-0.159273 -0.175332,-0.119455 -0.230699,-0.199094 -0.05995,-0.07964 -0.498312,-0.6371 -0.438327,-0.557462 -0.784379,-1.23438 -0.346051,-0.676916 -0.622891,-1.5131 -0.27684,-0.836196 -0.392186,-1.79184 -0.115351,-0.955647 -0.06921,-1.89138 0.04613,-0.935742 0.207629,-1.63257 0.161493,-0.696825 0.369122,-1.23438 0.207628,-0.537552 0.530608,-1.09501 0.322982,-0.557462 0.678258,-0.963609 0.359891,-0.410134 0.876655,-0.780444 0.521381,-0.366384 1.1535,-0.565478 z" id="path20" fill="url(#linearGradient4150)"/>
  <path d="m 31.6086,3.0131 q 0.644232,-0.021025 1.01515,0.105028 0.370926,0.126031 0.741846,0.399097 0.370919,0.273066 0.652045,0.663766 0.285021,0.386496 0.499765,0.911624 0.214744,0.525135 0.33188,1.07127 0.117131,0.546133 0.136653,1.6384 0.01951,1.09228 -0.05857,1.65941 -0.07808,0.567143 -0.351398,1.55439 -0.273311,0.987245 -0.663754,1.86946 -0.390448,0.882224 -0.741845,1.47037 -0.351397,0.588147 -0.800407,1.15529 -0.449017,0.567137 -0.968306,1.03766 -0.515385,0.474717 -1.03077,0.798202 -0.519289,0.327682 -0.999537,0.487317 -0.47634,0.155445 -1.06201,0.155445 -0.585664,0 -0.937061,-0.126031 -0.351403,-0.126037 -0.683277,-0.357095 -0.33188,-0.231057 -0.612999,-0.596543 -0.285022,-0.369697 -0.519289,-0.873821 -0.234266,-0.504124 -0.390449,-1.23931 -0.156175,-0.735189 -0.156175,-1.74344 0,-1.00825 0.175699,-1.97449 0.175698,-0.966241 0.429487,-1.72243 0.25379,-0.756186 0.624716,-1.55439 0.370919,-0.798195 0.944872,-1.68042 0.577858,-0.882218 0.616903,-0.89062 0.03903,-0.012603 0.09761,-0.109232 0.05857,-0.092418 0.09761,-0.100823 0.03903,-0.012603 0.156176,-0.168039 0.117137,-0.159643 0.156177,-0.168045 0.03903,-0.012603 0.273311,-0.243659 0.234268,-0.231058 0.819937,-0.630155 0.585663,-0.399104 1.07372,-0.588147 0.488058,-0.18905 1.13229,-0.210054 z" id="path22" fill="url(#linearGradient4152)"/>
  <path d="m 0.0505,18.4094 -0.0199,-0.2951 -0.012,0 -0.008,0 0,-0.8627 0,-0.8627 0.008,0 0.012,0 0.0997,-0.7264 q 0.099734,-0.726445 0.311179,-1.353 0.207451,-0.622018 0.486717,-1.09874 0.279266,-0.47673 0.498688,-0.726444 0.219422,-0.249715 0.558532,-0.47673 0.339104,-0.227014 0.698156,-0.340515 0.359058,-0.113507 0.897642,-0.09081 0.538578,0.02272 1.01732,0.204308 0.47874,0.181614 0.989399,0.531211 0.506665,0.354141 0.925561,0.762769 0.418896,0.408622 0.430867,0.454023 0.00799,0.04537 0.047873,0.04537 0.039884,0 0.470757,0.612937 0.426879,0.612937 0.885671,1.49829 0.458791,0.885352 0.777953,1.7934 0.319156,0.908052 0.538578,1.86151 0.219423,0.953452 0.279266,1.56639 0.059842,0.612937 0.039883,1.61179 -0.019942,0.998859 -0.139629,1.7253 -0.119689,0.726448 -0.347087,1.3076 -0.231393,0.576618 -0.51066,1.00794 -0.279265,0.431322 -0.578473,0.726443 -0.299214,0.295115 -0.758006,0.499429 -0.458792,0.204308 -1.09711,0.204308 -0.638318,0 -1.15695,-0.204308 Q 4.877792,27.580657 4.391077,27.231061 3.900366,26.876921 3.369767,26.323003 2.843154,25.764554 2.412287,25.142533 1.985414,24.515978 1.626356,23.812243 1.267304,23.1085 0.928194,22.200443 0.58909,21.292392 0.38961,20.384343 0.190136,19.476291 0.130298,19.090373 0.07046,18.704478 0.050512,18.409356 Z" id="path24" fill="url(#linearGradient4154)"/>
  <path d="m 47.748,15.8212 0.1638,0.6577 0.0234,0.1754 0.0234,0.1754 0.014,0 0.0094,0 0,0.5481 0,0.5481 -0.0094,0 -0.014,0 -0.0234,0.1973 -0.0234,0.1973 -0.0234,0.1535 q -0.02339,0.153469 -0.04679,0.306931 -0.02339,0.153463 -0.234022,0.92078 -0.210625,0.767324 -0.538251,1.53464 -0.327632,0.767317 -0.748877,1.46887 -0.421237,0.701546 -1.0297,1.46887 -0.608459,0.767319 -0.781631,0.920781 -0.177857,0.153462 -0.187221,0.197312 -0.01402,0.04382 -0.12169,0.109619 -0.102975,0.06576 -0.112332,0.109611 -0.01402,0.04382 -0.327633,0.315701 -0.318267,0.276233 -0.973533,0.736625 -0.655258,0.460393 -1.31052,0.767318 -0.655258,0.306931 -1.31052,0.482316 -0.655257,0.175385 -1.38073,0.175385 -0.725467,0 -1.17011,-0.131541 -0.444649,-0.13154 -0.889289,-0.416543 -0.444646,-0.285001 -0.669301,-0.53493 -0.219984,-0.254309 -0.47741,-0.736625 -0.257423,-0.482315 -0.397833,-1.00848 -0.140417,-0.526167 -0.163819,-1.42503 -0.0234,-0.898857 0.04679,-1.31541 0.07021,-0.416542 0.30423,-1.24963 0.234022,-0.833084 0.631862,-1.6881 0.397835,-0.855013 0.865878,-1.57849 0.468049,-0.723472 1.0531,-1.42502 0.585056,-0.701544 0.758235,-0.83309 0.177857,-0.131541 0.318268,-0.306925 0.140415,-0.175385 0.304228,-0.298162 0.163821,-0.11838 0.734833,-0.526159 0.575698,-0.40339 1.17011,-0.719085 0.599094,-0.320083 1.30116,-0.539319 0.702071,-0.219235 1.47434,-0.241157 0.772272,-0.02194 1.21692,0.0877 0.444639,0.109618 0.88928,0.372698 0.444646,0.26308 0.70207,0.548083 0.257424,0.285009 0.528886,0.710321 0.266777,0.429695 0.430589,1.0874 z" id="path26" fill="url(#linearGradient4156)"/>
 </g>
 <g id="g28" transform="translate(0,-1.0713333)" fill="none" stroke-linejoin="round">
  <path d="m 14.4688,3.375 c -3.19691,0.824827 -4.36846,4.54904 -4.0452,7.50687 0.116055,2.13109 1.21423,4.6549 2.76395,5.83688 1.95769,1.76645 5.26876,0.66893 6.125,-1.71875 1.77692,-3.58911 1.00626,-8.6144 -2.34375,-11.0312 -0.753132,-0.487252 -1.62519,-0.645627 -2.5,-0.59375 z m 17.125,0 c -1.4749,0.066562 -2.62477,1.19162 -3.59375,2.15625 -1.27202,1.8664 -2.56638,4.51588 -2.61172,7.04893 -0.326641,2.26342 0.965614,5.87631 3.86172,4.91982 3.36373,-1.46647 4.93298,-5.32926 5.36634,-8.75103 C 34.745154,6.68739 34.33666,3.29682 31.5938,3.375 Z M 3.5626,11.9375 c -2.31467,0.003 -3.00028,2.72941 -3.1875,4.59375 -0.0899559,3.80959 1.17941,7.94865 4.25,10.375 C 6.6986,28.8365 9.44659,26.575811 9.46885,24.1875 10.029898,20.47477 8.877096,16.52368 6.5626,13.625 c -0.47156,-0.470731 -1.88614,-1.74895 -3,-1.6875 z m 40.4062,1.4375 c -3.944,0.404367 -6.85676,3.92923 -8.0984,7.47205 -0.832224,2.20643 -0.824444,5.75875 1.8484,6.65295 3.07447,0.601156 5.836,-1.62261 7.56718,-3.90401 1.41795,-2.05658 2.62676,-4.63896 2.21325,-7.19303 C 47.263197,14.6342 45.85952,13.16043 43.9688,13.37499 Z M 22.5,23.5938 c -2.67184,-0.09521 -4.49033,2.12192 -5.84864,4.124 -1.73486,2.46971 -3.66819,4.9433 -6.44415,6.28341 -1.81293,1.16914 -3.80094,2.55501 -4.54873,4.66568 -0.874887,2.91766 0.45514,6.34854 3.24033,7.7005 4.08418,2.1551 8.76619,0.66586 13.1276,0.919353 3.69,-0.0963 7.38828,0.494389 11.0656,0.197362 2.90348,-0.38263 6.26409,-2.08209 6.50297,-5.36579 0.281962,-3.25012 -2.11174,-5.95634 -4.66252,-7.62453 -3.21129,-2.54853 -5.67677,-5.85622 -8.22279,-9.0209 -1.11264,-1.10388 -2.62212,-1.87217 -4.20967,-1.87909 z" id="path30" opacity="0.4" stroke="#000"/>
  <path d="m 31.625,4.375 c -0.951556,0.042943 -1.89096,0.812458 -2.8125,1.71875 -0.0073,0.01064 -0.024,0.020553 -0.03125,0.03125 -1.19597,1.76414 -2.36701,4.30772 -2.40625,6.5 a 0.988108,0.988108 0 0 1 -0.03125,0.125 c -0.126166,0.874256 0.0985,2.18688 0.59375,3 0.247624,0.406558 0.544869,0.676724 0.84375,0.8125 0.282725,0.128437 0.614423,0.142855 1.09375,0 2.83847,-1.26378 4.33227,-4.69174 4.75,-7.875 C 33.683143,7.756608 33.623857,6.49598 33.28125,5.625 33.109946,5.189508 32.873202,4.855359 32.625,4.65625 32.376798,4.457141 32.106634,4.361271 31.625,4.375 Z m -17,0.0312 c -1.21472,0.351767 -2.05359,1.17603 -2.59375,2.34375 -0.557085,1.20432 -0.767934,2.72339 -0.625,4.03125 a 0.988108,0.988108 0 0 1 0.03125,0.03125 c 0.100196,1.83987 1.15805,4.22065 2.34375,5.125 a 0.988108,0.988108 0 0 1 0.0625,0.0625 c 1.3952,1.2589 3.91573,0.372668 4.53125,-1.34375 a 0.988108,0.988108 0 0 1 0.0625,-0.09375 c 1.55721,-3.14533 0.850935,-7.65931 -2,-9.75 C 15.921746,4.478774 15.29932,4.382232 14.625,4.4062 Z M 3.5625,12.9374 c -0.769543,9.97e-4 -1.14944,0.340873 -1.53125,1.0625 -0.372193,0.703443 -0.56553,1.71471 -0.65625,2.5625 -0.084379,3.57341 1.12934,7.39291 3.875,9.5625 a 0.988108,0.988108 0 0 1 0.0625,0.0625 c 0.736625,0.685734 1.30709,0.590232 1.96875,0.15625 0.661658,-0.433982 1.17987,-1.33807 1.1875,-2.15625 A 0.988108,0.988108 0 0 1 8.5,24.03115 C 9.015698,20.61852 7.922407,16.93149 5.78125,14.2499 5.561518,14.035954 5.183109,13.697112 4.75,13.40615 4.280414,13.090682 3.782746,12.928698 3.625,12.9374 a 0.988108,0.988108 0 0 1 -0.0625,0 z m 40.5,1.4062 c -3.41405,0.350033 -6.10003,3.53124 -7.25,6.8125 a 0.988108,0.988108 0 0 1 0,0.03125 c -0.354122,0.938866 -0.533011,2.26603 -0.34375,3.3125 0.186092,1.02895 0.602108,1.70188 1.53125,2.03125 1.22211,0.211689 2.38833,-0.08939 3.5,-0.75 1.12834,-0.670516 2.16585,-1.69919 2.96875,-2.75 1.34865,-1.95607 2.41048,-4.31941 2.0625,-6.46875 a 0.988108,0.988108 0 0 1 0,-0.03125 c -0.177601,-1.33089 -1.10603,-2.3386 -2.4375,-2.1875 a 0.988108,0.988108 0 0 1 -0.03125,0 z m -21.5938,10.25 c -1.05508,-0.0376 -1.91797,0.342021 -2.75,1.03125 -0.832029,0.689229 -1.59037,1.68398 -2.25,2.65625 -1.75443,2.49756 -3.76945,5.12469 -6.8125,6.59375 l 0.0938,-0.0312 c -1.79449,1.15725 -3.54866,2.4413 -4.15625,4.15625 -0.697164,2.43525 0.46541,5.39104 2.75,6.5 a 0.988108,0.988108 0 0 1 0.03125,0 c 3.61583,1.90796 8.03154,0.536829 12.625,0.78125 3.81077,-0.09945 7.47864,0.471929 11,0.1875 l -0.0312,0.0312 c 1.31524,-0.173326 2.75357,-0.652021 3.8125,-1.40625 1.05893,-0.754229 1.71648,-1.71135 1.8125,-3.03125 A 0.988108,0.988108 0 0 1 38.62505,42.0311 C 38.861424,39.30647 36.78371,36.86716 34.4063,35.31235 A 0.988108,0.988108 0 0 1 34.31255,35.2811 c -3.3458,-2.65528 -5.84546,-6.04329 -8.375,-9.1875 -0.947006,-0.903854 -2.20009,-1.4946 -3.4375,-1.5 a 0.988108,0.988108 0 0 1 -0.03125,0 z" id="path32" opacity="0.52" stroke="url(#0)"/>
 </g>
 <metadata id="metadata9999">
  <rdf:RDF>
   <cc:Work>
    <dc:format>image/svg+xml</dc:format>
    <dc:type rdf:resource="http://purl.org/dc/dcmitype/StillImage"/>
    <dc:title/>
    <cc:license rdf:resource="http://creativecommons.org/licenses/by-sa/4.0/"/>
    <dc:creator>
     <cc:Agent>
      <dc:title>Sixsixfive (sixsixfive.deviantart.com)</dc:title>
     </cc:Agent>
    </dc:creator>
    <dc:publisher>
     <cc:Agent>
      <dc:title>Sixsixfive (sixsixfive.deviantart.com)</dc:title>
     </cc:Agent>
    </dc:publisher>
    <dc:source>https://github.com/sixsixfive</dc:source>
    <dc:subject>
     <rdf:Bag>
      <rdf:li>ivy</rdf:li>
     </rdf:Bag>
    </dc:subject>
    <dc:contributor>
     <cc:Agent>
      <dc:title>ssf</dc:title>
     </cc:Agent>
    </dc:contributor>
    <dc:rights>
     <cc:Agent>
      <dc:title>Sixsixfive (sixisixfive.deviantart.com)</dc:title>
     </cc:Agent>
    </dc:rights>
    <dc:description>A simple icon theme published under CC-BY-SA_V4(http://creativecommons.org/licenses/by-sa/4.0)</dc:description>
    <dc:identifier>SSF</dc:identifier>
   </cc:Work>
  </rdf:RDF>
 </metadata>
 <!--Part of the Ivy icon them published under the CC-BY-SA_V4: http://creativecommons.org/licenses/by-sa/4.0 -->
 <g transform="translate(0,0.01165465)" id="g4160" opacity="0.1" fill="#000" fill-rule="evenodd">
  <path id="path4162" d="m 33.5673,47.7937 c -1.05831,0.251626 -2.17346,0.213593 -3.28313,0.137753 -4.89262,-0.225712 -9.80097,-0.468242 -14.6893,-0.02743 -3.33635,0.234308 -7.24223,-0.465544 -9.24352,-3.20584 -1.1552,-1.63807 -1.6662,-3.69057 -1.12081,-5.60889 0.077253,-1.42458 1.11918,-2.49648 2.15507,-3.44409 1.23154,-1.25253 2.83711,-2.05757 4.32564,-2.9941 2.81942,-2.04175 4.32436,-5.14658 6.59733,-7.63416 1.40649,-1.48866 3.70036,-2.22077 5.75094,-1.55041 1.81121,0.546525 3.22198,1.82887 4.17287,3.32915 2.25692,2.9286 4.73762,5.77522 7.76519,8.04319 2.03977,1.36232 3.55487,3.52004 3.92762,5.8405 0.28535,1.93418 -0.394192,4.03506 -2.06471,5.2805 -1.21062,0.985406 -2.73753,1.52648 -4.29316,1.83382 z" fill="#000"/>
  <path id="path4164" d="m 13.8397,3.2098 0.6367,-0.1991 0.4845,0 0.4845,0 0,0.008 0,0.0119 0.1615,0.0199 0.1615,0.0199 0.0692,0.0199 q 0.06921,0.019928 0.484468,0.159272 0.415263,0.139364 0.830519,0.398189 0.415264,0.258819 0.867435,0.684881 0.447552,0.430041 0.862816,0.987503 0.415256,0.557462 0.715166,1.17465 0.29991,0.617192 0.507539,1.23438 0.207635,0.617193 0.346051,1.35383 0.138417,0.736647 0.138417,1.91129 0,1.17465 -0.06921,1.57284 -0.06921,0.398189 -0.29991,1.19456 -0.230699,0.796373 -0.55368,1.41357 -0.32298,0.617187 -0.645962,1.03528 -0.322974,0.418098 -0.678258,0.696826 -0.359889,0.278734 -0.369114,0.31855 -0.01382,0.03979 -0.475244,0.278727 -0.461397,0.238917 -0.844357,0.350409 -0.378347,0.107506 -0.885893,0.12742 -0.507538,0.01993 -0.715167,-0.01993 -0.207622,-0.03979 -0.645948,-0.179187 -0.438335,-0.139363 -1.01509,-0.485786 -0.576743,-0.350409 -0.585975,-0.390225 -0.01382,-0.03979 -0.184558,-0.159273 -0.175332,-0.119455 -0.230699,-0.199094 -0.05995,-0.07964 -0.498312,-0.6371 -0.438327,-0.557462 -0.784379,-1.23438 -0.346051,-0.676916 -0.622891,-1.5131 -0.27684,-0.836196 -0.392186,-1.79184 -0.115351,-0.955647 -0.06921,-1.89138 0.04613,-0.935742 0.207629,-1.63257 0.161493,-0.696825 0.369122,-1.23438 0.207628,-0.537552 0.530608,-1.09501 0.322982,-0.557462 0.678258,-0.963609 0.359891,-0.410134 0.876655,-0.780444 0.521381,-0.366384 1.1535,-0.565478 z" fill="#000"/>
  <path id="path4166" d="m 31.6086,3.0131 q 0.644232,-0.021025 1.01515,0.105028 0.370926,0.126031 0.741846,0.399097 0.370919,0.273066 0.652045,0.663766 0.285021,0.386496 0.499765,0.911624 0.214744,0.525135 0.33188,1.07127 0.117131,0.546133 0.136653,1.6384 0.01951,1.09228 -0.05857,1.65941 -0.07808,0.567143 -0.351398,1.55439 -0.273311,0.987245 -0.663754,1.86946 -0.390448,0.882224 -0.741845,1.47037 -0.351397,0.588147 -0.800407,1.15529 -0.449017,0.567137 -0.968306,1.03766 -0.515385,0.474717 -1.03077,0.798202 -0.519289,0.327682 -0.999537,0.487317 -0.47634,0.155445 -1.06201,0.155445 -0.585664,0 -0.937061,-0.126031 -0.351403,-0.126037 -0.683277,-0.357095 -0.33188,-0.231057 -0.612999,-0.596543 -0.285022,-0.369697 -0.519289,-0.873821 -0.234266,-0.504124 -0.390449,-1.23931 -0.156175,-0.735189 -0.156175,-1.74344 0,-1.00825 0.175699,-1.97449 0.175698,-0.966241 0.429487,-1.72243 0.25379,-0.756186 0.624716,-1.55439 0.370919,-0.798195 0.944872,-1.68042 0.577858,-0.882218 0.616903,-0.89062 0.03903,-0.012603 0.09761,-0.109232 0.05857,-0.092418 0.09761,-0.100823 0.03903,-0.012603 0.156176,-0.168039 0.117137,-0.159643 0.156177,-0.168045 0.03903,-0.012603 0.273311,-0.243659 0.234268,-0.231058 0.819937,-0.630155 0.585663,-0.399104 1.07372,-0.588147 0.488058,-0.18905 1.13229,-0.210054 z" fill="#000"/>
  <path id="path4168" d="m 0.0505,18.4094 -0.0199,-0.2951 -0.012,0 -0.008,0 0,-0.8627 0,-0.8627 0.008,0 0.012,0 0.0997,-0.7264 q 0.099734,-0.726445 0.311179,-1.353 0.207451,-0.622018 0.486717,-1.09874 0.279266,-0.47673 0.498688,-0.726444 0.219422,-0.249715 0.558532,-0.47673 0.339104,-0.227014 0.698156,-0.340515 0.359058,-0.113507 0.897642,-0.09081 0.538578,0.02272 1.01732,0.204308 0.47874,0.181614 0.989399,0.531211 0.506665,0.354141 0.925561,0.762769 0.418896,0.408622 0.430867,0.454023 0.00799,0.04537 0.047873,0.04537 0.039884,0 0.470757,0.612937 0.426879,0.612937 0.885671,1.49829 0.458791,0.885352 0.777953,1.7934 0.319156,0.908052 0.538578,1.86151 0.219423,0.953452 0.279266,1.56639 0.059842,0.612937 0.039883,1.61179 -0.019942,0.998859 -0.139629,1.7253 -0.119689,0.726448 -0.347087,1.3076 -0.231393,0.576618 -0.51066,1.00794 -0.279265,0.431322 -0.578473,0.726443 -0.299214,0.295115 -0.758006,0.499429 -0.458792,0.204308 -1.09711,0.204308 -0.638318,0 -1.15695,-0.204308 Q 4.877792,27.580657 4.391077,27.231061 3.900366,26.876921 3.369767,26.323003 2.843154,25.764554 2.412287,25.142533 1.985414,24.515978 1.626356,23.812243 1.267304,23.1085 0.928194,22.200443 0.58909,21.292392 0.38961,20.384343 0.190136,19.476291 0.130298,19.090373 0.07046,18.704478 0.050512,18.409356 Z" fill="#000"/>
  <path id="path4170" d="m 47.748,15.8212 0.1638,0.6577 0.0234,0.1754 0.0234,0.1754 0.014,0 0.0094,0 0,0.5481 0,0.5481 -0.0094,0 -0.014,0 -0.0234,0.1973 -0.0234,0.1973 -0.0234,0.1535 q -0.02339,0.153469 -0.04679,0.306931 -0.02339,0.153463 -0.234022,0.92078 -0.210625,0.767324 -0.538251,1.53464 -0.327632,0.767317 -0.748877,1.46887 -0.421237,0.701546 -1.0297,1.46887 -0.608459,0.767319 -0.781631,0.920781 -0.177857,0.153462 -0.187221,0.197312 -0.01402,0.04382 -0.12169,0.109619 -0.102975,0.06576 -0.112332,0.109611 -0.01402,0.04382 -0.327633,0.315701 -0.318267,0.276233 -0.973533,0.736625 -0.655258,0.460393 -1.31052,0.767318 -0.655258,0.306931 -1.31052,0.482316 -0.655257,0.175385 -1.38073,0.175385 -0.725467,0 -1.17011,-0.131541 -0.444649,-0.13154 -0.889289,-0.416543 -0.444646,-0.285001 -0.669301,-0.53493 -0.219984,-0.254309 -0.47741,-0.736625 -0.257423,-0.482315 -0.397833,-1.00848 -0.140417,-0.526167 -0.163819,-1.42503 -0.0234,-0.898857 0.04679,-1.31541 0.07021,-0.416542 0.30423,-1.24963 0.234022,-0.833084 0.631862,-1.6881 0.397835,-0.855013 0.865878,-1.57849 0.468049,-0.723472 1.0531,-1.42502 0.585056,-0.701544 0.758235,-0.83309 0.177857,-0.131541 0.318268,-0.306925 0.140415,-0.175385 0.304228,-0.298162 0.163821,-0.11838 0.734833,-0.526159 0.575698,-0.40339 1.17011,-0.719085 0.599094,-0.320083 1.30116,-0.539319 0.702071,-0.219235 1.47434,-0.241157 0.772272,-0.02194 1.21692,0.0877 0.444639,0.109618 0.88928,0.372698 0.444646,0.26308 0.70207,0.548083 0.257424,0.285009 0.528886,0.710321 0.266777,0.429695 0.430589,1.0874 z" fill="#000"/>
 </g>
</svg>
