<?xml version="1.0" encoding="UTF-8" standalone="no"?>
<svg
   xmlns:dc="http://purl.org/dc/elements/1.1/"
   xmlns:cc="http://creativecommons.org/ns#"
   xmlns:rdf="http://www.w3.org/1999/02/22-rdf-syntax-ns#"
   xmlns:svg="http://www.w3.org/2000/svg"
   xmlns="http://www.w3.org/2000/svg"
   version="1.1"
   viewBox="0 0 48 48"
   id="svg2">
  <defs
     id="defs4">
    <linearGradient
       gradientUnits="userSpaceOnUse"
       y1="4.02"
       y2="44.02"
       x2="0"
       id="0">
      <stop
         stop-color="#fff"
         id="stop7" />
      <stop
         stop-opacity="0"
         stop-color="#fff"
         id="stop9"
         offset="1" />
    </linearGradient>
  </defs>
  <rect
     y="4"
     x="3"
     width="42"
     opacity="0.1"
     id="rect16"
     ry="4"
     height="42"
     rx="4" />
  <rect
     style="fill:#6897d7;fill-opacity:1"
     fill="url(#1)"
     y="3"
     x="3"
     width="42"
     id="rect18"
     ry="4"
     height="42"
     rx="4" />
  <path
     id="path4170"
     d="M 34.509766 10.988281 C 32.080762 10.988281 29.917686 11.751991 28.386719 13.277344 C 26.855751 14.802697 26.013672 17.039244 26.013672 19.753906 L 26.013672 23.068359 L 22 23.068359 A 1.0119889 1.0119889 0 0 0 20.988281 24.080078 L 20.988281 29.947266 A 1.0119889 1.0119889 0 0 0 22 30.958984 L 26.013672 30.958984 L 26.013672 45 L 34.046875 45 L 34.046875 30.958984 L 38.046875 30.958984 A 1.0119889 1.0119889 0 0 0 39.050781 30.076172 L 39.800781 24.208984 A 1.0119889 1.0119889 0 0 0 38.796875 23.068359 L 34.046875 23.068359 L 34.046875 20.335938 C 34.046875 19.579373 34.149862 19.361743 34.248047 19.273438 C 34.346231 19.185132 34.801609 18.992187 35.917969 18.992188 L 39 18.990234 A 1.0119889 1.0119889 0 0 0 40.011719 17.978516 L 40.011719 12.230469 A 1.0119889 1.0119889 0 0 0 39.134766 11.226562 C 38.496263 11.141141 36.688306 10.988281 34.509766 10.988281 z "
     style="fill:#000000;fill-opacity:1;fill-rule:nonzero;stroke:none;opacity:0.3" />
  <g
     fill="none"
     id="g20">
    <path
       stroke="#000"
       d="m 7,3.5128 c -1.94587,0 -3.5,1.5541 -3.5,3.5 l 0,34 c 0,1.9459 1.55413,3.5 3.5,3.5 l 34,0 c 1.94587,0 3.5,-1.5541 3.5,-3.5 l 0,-34 c 0,-1.9459 -1.55413,-3.5 -3.5,-3.5 l -34,0 z"
       opacity="0.45"
       id="path22" />
    <path
       style="opacity:0.3"
       stroke="url(#0)"
       d="m 7,4.5128 c -1.40738,0 -2.5,1.0926 -2.5,2.5 l 0,34 c 0,1.4074 1.09262,2.5 2.5,2.5 l 34,0 c 1.40738,0 2.5,-1.0926 2.5,-2.5 l 0,-34 c 0,-1.4074 -1.09262,-2.5 -2.5,-2.5 l -34,0 z"
       opacity="0.4"
       id="path24" />
  </g>
  <path
     id="path162"
     style="fill:#ffffff;fill-opacity:1;fill-rule:nonzero;stroke:none"
     d="m 33.034424,45 0,-15.052719 5.012223,0 0.750351,-5.866428 -5.762574,0 0,-3.745302 c 0,-1.698475 0.467759,-2.355709 2.883911,-2.355709 L 39,17.978158 39,12.231132 C 38.466913,12.159813 36.637688,12 34.509597,12 c -4.443017,0 -7.484556,2.7338 -7.484556,7.754479 l 0,4.326184 -5.025041,0 0,5.86642 5.025041,0 0,15.052727 6.009383,0" />
  <metadata
     id="metadata9999">
    <rdf:RDF>
      <cc:Work>
        <dc:format>image/svg+xml</dc:format>
        <dc:type
           rdf:resource="http://purl.org/dc/dcmitype/StillImage" />
        <dc:title></dc:title>
        <cc:license
           rdf:resource="http://creativecommons.org/licenses/by-sa/4.0/" />
        <dc:creator>
          <cc:Agent>
            <dc:title>Sixsixfive (sixsixfive.deviantart.com)</dc:title>
          </cc:Agent>
        </dc:creator>
        <dc:publisher>
          <cc:Agent>
            <dc:title>Sixsixfive (sixsixfive.deviantart.com)</dc:title>
          </cc:Agent>
        </dc:publisher>
        <dc:source>https://github.com/sixsixfive</dc:source>
        <dc:subject>
          <rdf:Bag>
            <rdf:li>ivy</rdf:li>
          </rdf:Bag>
        </dc:subject>
        <dc:contributor>
          <cc:Agent>
            <dc:title>ssf</dc:title>
          </cc:Agent>
        </dc:contributor>
        <dc:rights>
          <cc:Agent>
            <dc:title>Sixsixfive (sixisixfive.deviantart.com)</dc:title>
          </cc:Agent>
        </dc:rights>
        <dc:description>A simple icon theme published under CC-BY-SA_V4(http://creativecommons.org/licenses/by-sa/4.0)</dc:description>
        <dc:identifier>SSF</dc:identifier>
      </cc:Work>
    </rdf:RDF>
  </metadata>
  <!--Part of the Ivy icon them published under the CC-BY-SA_V4: http://creativecommons.org/licenses/by-sa/4.0 -->
</svg>
