<?xml version="1.0" encoding="UTF-8" standalone="no"?>
<svg xmlns:dc="http://purl.org/dc/elements/1.1/" xmlns:cc="http://creativecommons.org/ns#" xmlns:rdf="http://www.w3.org/1999/02/22-rdf-syntax-ns#" xmlns:svg="http://www.w3.org/2000/svg" xmlns="http://www.w3.org/2000/svg" version="1.1" id="svg2" viewBox="0 0 48 48">
 <defs id="defs4">
  <linearGradient x2="0" y2="1.00031" y1="0.00031" id="0">
   <stop id="stop7" stop-color="#66b03e"/>
   <stop id="stop9" stop-color="#9bd07c" offset="1"/>
  </linearGradient>
  <linearGradient x2="0" y2="1.013077" y1="-0.012821" id="1">
   <stop id="stop12" stop-color="#fff"/>
   <stop stop-opacity="0" id="stop14" stop-color="#fff" offset="1"/>
  </linearGradient>
 </defs>
 <g id="g12">
  <path id="rect19" d="m 7,4.987 34,0 c 2.216,0 4,1.784 4,4 l 0,34 c 0,2.216 -1.784,4 -4,4 l -34,0 c -2.216,0 -4,-1.784 -4,-4 l 0,-34 c 0,-2.216 1.784,-4 4,-4 z" opacity="0.1"/>
  <path id="rect21" d="m 7,3.987 34,0 c 2.216,0 4,1.784 4,4 l 0,34 c 0,2.216 -1.784,4 -4,4 l -34,0 c -2.216,0 -4,-1.784 -4,-4 l 0,-34 c 0,-2.216 1.784,-4 4,-4 z" fill="url(#0)"/>
  <g id="g33" fill="none">
   <path d="M 7,4.5 C 5.05413,4.5 3.5,6.0541 3.5,8 l 0,34 c 0,1.9459 1.55413,3.5 3.5,3.5 l 34,0 c 1.945869,0 3.5,-1.5541 3.5,-3.5 l 0,-34 C 44.5,6.0541 42.945869,4.5 41,4.5 l -34,0 z" id="path35" opacity="0.45" stroke="#000"/>
   <path d="M 7,5.5 C 5.59262,5.5 4.5,6.5926 4.5,8 l 0,34 c 0,1.407398 1.09262,2.5 2.5,2.5 l 34,0 c 1.407379,0 2.5,-1.092602 2.5,-2.5 l 0,-34 C 43.5,6.5926 42.407379,5.5 41,5.5 l -34,0 z" id="path37" opacity="0.6" stroke="url(#1)"/>
  </g>
  <g id="g4300" opacity="0.2">
   <path id="rect4302" d="m 11,10 26,0 0,4 -26,0 z" stroke-linejoin="round"/>
   <path id="rect4304" d="m 11,-37 27,0 0,4 -27,0 z" transform="matrix(0,1,-1,0,0,0)" stroke-linejoin="round"/>
   <path id="rect4306" d="m 11,-15 27,0 0,4 -27,0 z" transform="matrix(0,1,-1,0,0,0)" stroke-linejoin="round"/>
   <path id="rect4308" d="m 11,34 26,0 0,4 -26,0 z" stroke-linejoin="round"/>
   <path id="rect4310" d="m 11,-26 27,0 0,4 -27,0 z" transform="matrix(0,1,-1,0,0,0)" stroke-linejoin="round"/>
   <path id="rect4312" d="m -37,-27 26,0 0,4 -26,0 z" transform="matrix(-1,0,0,-1,0,-1)" stroke-linejoin="round"/>
  </g>
  <g id="g4292">
   <path id="rect4162" d="m 11,11 26,0 0,4 -26,0 z" fill="#ebebeb" stroke-linejoin="round"/>
   <path id="rect4164" d="m 12,-37 27,0 0,4 -27,0 z" transform="matrix(0,1,-1,0,0,0)" fill="#ebebeb" stroke-linejoin="round"/>
   <path id="rect4166" d="m 12,-15 27,0 0,4 -27,0 z" transform="matrix(0,1,-1,0,0,0)" fill="#ebebeb" stroke-linejoin="round"/>
   <path id="rect4168" d="m 11,35 26,0 0,4 -26,0 z" fill="#ebebeb" stroke-linejoin="round"/>
   <path id="rect4288" d="m 12,-26 27,0 0,4 -27,0 z" transform="matrix(0,1,-1,0,0,0)" fill="#ebebeb" stroke-linejoin="round"/>
   <path id="rect4290" d="m -37,-27 26,0 0,4 -26,0 z" transform="scale(-1,-1)" fill="#ebebeb" stroke-linejoin="round"/>
  </g>
 </g>
 <metadata id="metadata9999">
  <rdf:RDF>
   <cc:Work>
    <dc:format>image/svg+xml</dc:format>
    <dc:type rdf:resource="http://purl.org/dc/dcmitype/StillImage"/>
    <dc:title>Ivy icon theme</dc:title>
    <cc:license rdf:resource="http://creativecommons.org/licenses/by-sa/4.0/"/>
    <dc:creator>
     <cc:Agent>
      <dc:title>Sixsixfive (sixsixfive.deviantart.com)</dc:title>
     </cc:Agent>
    </dc:creator>
    <dc:publisher>
     <cc:Agent>
      <dc:title>Sixsixfive (sixsixfive.deviantart.com)</dc:title>
     </cc:Agent>
    </dc:publisher>
    <dc:source>https://github.com/sixsixfive</dc:source>
    <dc:subject>
     <rdf:Bag>
      <rdf:li>ivy</rdf:li>
     </rdf:Bag>
    </dc:subject>
    <dc:contributor>
     <cc:Agent>
      <dc:title>ssf</dc:title>
     </cc:Agent>
    </dc:contributor>
    <dc:rights>
     <cc:Agent>
      <dc:title>Sixsixfive (sixisixfive.deviantart.com)</dc:title>
     </cc:Agent>
    </dc:rights>
    <dc:description>A simple icon theme published under CC-BY-SA_V4(http://creativecommons.org/licenses/by-sa/4.0)</dc:description>
    <dc:identifier>SSF</dc:identifier>
   </cc:Work>
  </rdf:RDF>
 </metadata>
 <!--Part of the Ivy icon them published under the CC-BY-SA_V4: http://creativecommons.org/licenses/by-sa/4.0 -->
</svg>
