<?xml version="1.0" encoding="UTF-8" standalone="no"?><svg xmlns:cc="http://creativecommons.org/ns#" xmlns:dc="http://purl.org/dc/elements/1.1/" xmlns:svg="http://www.w3.org/2000/svg" xmlns="http://www.w3.org/2000/svg" xmlns:rdf="http://www.w3.org/1999/02/22-rdf-syntax-ns#" id="svg2" version="1.1" xmlns:xlink="http://www.w3.org/1999/xlink" viewBox="0 0 48 48"><defs id="defs4"><linearGradient gradientUnits="userSpaceOnUse" y1="21" id="0" y2="29" x2="0"><stop id="stop7" stop-color="#eed45a"/><stop id="stop9" stop-color="#ffe97b" offset="1"/></linearGradient><linearGradient gradientUnits="userSpaceOnUse" y1="19" id="1" y2="43" x2="0"><stop id="stop12" stop-color="#66b03e"/><stop id="stop14" stop-color="#92cd71" offset="1"/></linearGradient><linearGradient gradientUnits="userSpaceOnUse" y1="19" id="2" y2="43" x2="0"><stop id="stop17" stop-color="#ebebeb"/><stop id="stop19" stop-color="#f5f5f5" offset="1"/></linearGradient><linearGradient gradientUnits="userSpaceOnUse" y1="19" id="3" y2="43" x2="0"><stop id="stop22" stop-color="#ff8b36"/><stop id="stop24" stop-color="#ffb986" offset="1"/></linearGradient><linearGradient gradientUnits="userSpaceOnUse" y1="5" id="4" x1="45" y2="29.03" x2="45.03"><stop id="stop27" stop-color="#d02604"/><stop id="stop29" stop-color="#fb7257" offset="1"/></linearGradient><linearGradient id="5"><stop id="stop32" stop-color="#fff"/><stop stop-opacity="0" id="stop34" stop-color="#fff" offset="1"/></linearGradient><linearGradient gradientUnits="userSpaceOnUse" xlink:href="#5" y1="5.969" id="6" y2="28.03" x2="0"/><linearGradient gradientUnits="userSpaceOnUse" xlink:href="#5" y1="20" id="7" y2="42" x2="0"/><linearGradient gradientUnits="userSpaceOnUse" y1="4.969" id="8" x1="45.03" y2="29" x2="45"><stop id="stop39" stop-color="#171717"/><stop id="stop41" stop-color="#6a6a6a" offset="1"/></linearGradient></defs><g id="g43" fill-rule="evenodd"><path opacity="0.1" d="m 9,6 0,14 -7,0 0,24 36,0 0,-14 7,0 L 45,6 9,6 Z" id="path45"/><path d="M 9,5 45,5 45,29 9,29 Z" id="path47" fill="url(#4)"/><path d="m 9,21 36,0 0,8 -36,0 z" id="path49" fill="url(#0)"/><path d="m 9,5 36,0 0,8 -36,0 z" id="path51" fill="url(#8)"/></g><g id="g53" fill="none"><path stroke="#000" opacity="0.4" d="m 9.46875,5.46875 0,23.0625 35.0625,0 0,-23.0625 -35.0625,0 z" id="path55"/><path stroke="url(#6)" opacity="0.1" d="m 10.46875,6.46875 0,21.0625 33.0625,0 0,-21.0625 -33.0625,0 z" id="path57"/></g><g id="g59" fill-rule="evenodd"><path d="m 2,19 36,0 0,24 -36,0 z" id="path61" fill="url(#2)"/><path d="m 2,19 12,0 0,24 -12,0 z" id="path63" fill="url(#3)"/><path d="m 26,19 12,0 0,24 -12,0 z" id="path65" fill="url(#1)"/></g><g id="g67" fill="none"><path stroke="#000" opacity="0.4" d="m 2.46875,19.46875 0,23.0625 35.0625,0 0,-23.0625 -35.0625,0 z" id="path69"/><path stroke="url(#7)" opacity="0.4" d="m 3.40625,20.40625 0,21.1875 33.1875,0 0,-21.1875 -33.1875,0 z" id="path71"/></g><g id="g73" fill-rule="evenodd"><path opacity="0.564" d="m 9,19 29,0 0,1 -29,0 z" id="path75"/><path transform="matrix(0 1 -1 0 0 0)" opacity="0.564" d="m 19.5,-38 9.5,0 0,1 -9.5,0 z" id="path77"/></g><metadata id="metadata9999"><rdf:RDF><cc:Work><dc:format>image/svg+xml</dc:format><dc:type rdf:resource="http://purl.org/dc/dcmitype/StillImage"/><dc:title>Ivy icon theme</dc:title><cc:license rdf:resource="http://creativecommons.org/licenses/by-sa/4.0/"/><dc:creator><cc:Agent><dc:title>Sixsixfive (sixsixfive.deviantart.com)</dc:title></cc:Agent></dc:creator><dc:publisher><cc:Agent><dc:title>Sixsixfive (sixsixfive.deviantart.com)</dc:title></cc:Agent></dc:publisher><dc:source>https://github.com/sixsixfive</dc:source><dc:subject><rdf:Bag><rdf:li>ivy</rdf:li></rdf:Bag></dc:subject><dc:contributor><cc:Agent><dc:title>ssf</dc:title></cc:Agent></dc:contributor><dc:rights><cc:Agent><dc:title>Sixsixfive (sixisixfive.deviantart.com)</dc:title></cc:Agent></dc:rights><dc:description>A simple icon theme published under CC-BY-SA_V4(http://creativecommons.org/licenses/by-sa/4.0)</dc:description><dc:identifier>SSF</dc:identifier></cc:Work></rdf:RDF></metadata><!--Part of the Ivy icon them published under the CC-BY-SA_V4: http://creativecommons.org/licenses/by-sa/4.0 -->
</svg>