<?xml version="1.0" encoding="UTF-8" standalone="no"?><svg xmlns:svg="http://www.w3.org/2000/svg" viewBox="0 0 48 48" xmlns="http://www.w3.org/2000/svg" xmlns:rdf="http://www.w3.org/1999/02/22-rdf-syntax-ns#" xmlns:xlink="http://www.w3.org/1999/xlink" version="1.1" id="svg2" xmlns:dc="http://purl.org/dc/elements/1.1/" xmlns:cc="http://creativecommons.org/ns#"><defs id="defs4"><linearGradient y1="20" x2="0" y2="32.08" id="0" gradientUnits="userSpaceOnUse"><stop id="stop7" stop-color="#66b03e"/><stop offset="1" id="stop9" stop-color="#a2d586"/></linearGradient><linearGradient y1="31.92" x2="0" y2="44" id="1" gradientUnits="userSpaceOnUse"><stop id="stop12" stop-color="#a868d4"/><stop offset="1" id="stop14" stop-color="#dabfed"/></linearGradient><linearGradient x1="9" xlink:href="#7" x2="43" id="2" gradientUnits="userSpaceOnUse"/><linearGradient y1="32" x2="0" y2="44.08" id="3" gradientUnits="userSpaceOnUse"><stop id="stop18" stop-color="#ed4c70"/><stop offset="1" id="stop20" stop-color="#f59fb2"/></linearGradient><linearGradient y1="32" x2="0" y2="44" id="4" gradientUnits="userSpaceOnUse"><stop id="stop23" stop-color="#e4ae4e"/><stop offset="1" id="stop25" stop-color="#eabf74"/></linearGradient><linearGradient y1="20" x2="0" y2="32.08" id="5" gradientUnits="userSpaceOnUse"><stop id="stop28" stop-color="#5288d1"/><stop offset="1" id="stop30" stop-color="#8cb0e1"/></linearGradient><linearGradient y1="20" x2="0" y2="32" id="6" gradientUnits="userSpaceOnUse"><stop id="stop33" stop-color="#eed45a"/><stop offset="1" id="stop35" stop-color="#f3e28e"/></linearGradient><linearGradient id="7"><stop id="stop38" stop-color="#fff"/><stop stop-opacity="0" offset="1" id="stop40" stop-color="#fff"/></linearGradient><linearGradient y1="8" x2="0" y2="20" id="8" gradientUnits="userSpaceOnUse"><stop id="stop43" stop-color="#d02604"/><stop offset="1" id="stop45" stop-color="#fc775d"/></linearGradient><linearGradient y1="8" x2="0" y2="20" id="9" gradientUnits="userSpaceOnUse"><stop id="stop48" stop-color="#ffd506"/><stop offset="1" id="stop50" stop-color="#ffe773"/></linearGradient><linearGradient y1="7.919" x2="0" y2="20" id="A" gradientUnits="userSpaceOnUse"><stop id="stop53" stop-color="#ff8b36"/><stop offset="1" id="stop55" stop-color="#ffb178"/></linearGradient><linearGradient xlink:href="#7" y1="4.906" x2="0" y2="39" id="B" gradientUnits="userSpaceOnUse"/></defs><path opacity="0.144" id="path58" d="M 6,32.92 H42 V45 H6 z"/><path id="path60" d="M 6,7.919 H18 V19.999 H6 z" fill="url(#8)"/><path id="path62" d="M 6,19.92 H18 V32 H6 z" fill="url(#6)"/><path id="path64" d="M 6,31.92 H18 V44 H6 z" fill="url(#1)"/><path id="path66" d="M 18,32 H30 V44.08 H18 z" fill="url(#3)"/><path id="path68" d="M 30,32 H42 V44.08 H30 z" fill="url(#4)"/><path id="path70" d="M 30,20 H42 V32.08 H30 z" fill="url(#5)"/><path id="path72" d="M 18,20 H30 V32.08 H18 z" fill="url(#0)"/><path id="path74" d="M 18,8 H30 V20.08 H18 z" fill="url(#A)"/><path id="path76" d="M 30,7.919 H42 V19.999 H30 z" fill="url(#9)"/><g id="g78" transform="matrix(1 0 0 1 2 4)" fill="none"><path stroke="#000" opacity="0.5" id="path80" d="m 4.5312,4.4375 0,35.0312 34.9375,0 0,-35.0312 -34.9375,0 z"/><path stroke="url(#B)" opacity="0.7" id="path82" d="m 5.5,5.4062 0,33.0938 33,0 0,-33.0938 -33,0 z"/></g><path opacity="0.4" id="path84" d="M 7,19 H41 V20 H7 z"/><path opacity="0.4" id="path86" d="M 7,31 H41 V32 H7 z"/><g id="g88" fill="#fff"><path opacity="0.4" id="path90" d="m 7,32 34,0 0,1 -34,0 z"/><path opacity="0.4" id="path92" d="m 7,20 34,0 0,1 -34,0 z"/></g><g id="g94" transform="matrix(0 1 -1 0 0 0)"><path opacity="0.12" id="path96" d="m 8,-19 35,0 0,1 -35,0 z"/><path opacity="0.4" id="path98" d="m 9,-18 34,0 0,1 -34,0 z" fill="url(#2)"/><path opacity="0.12" id="path100" d="m 8,-31 35,0 0,1 -35,0 z"/><path opacity="0.4" id="path102" d="m 9,-30 34,0 0,1 -34,0 z" fill="url(#2)"/></g><metadata id="metadata9999"><rdf:RDF><cc:Work><dc:format>image/svg+xml</dc:format><dc:type rdf:resource="http://purl.org/dc/dcmitype/StillImage"/><dc:title>Ivy icon theme</dc:title><cc:license rdf:resource="http://creativecommons.org/licenses/by-sa/4.0/"/><dc:creator><cc:Agent><dc:title>Sixsixfive (sixsixfive.deviantart.com)</dc:title></cc:Agent></dc:creator><dc:publisher><cc:Agent><dc:title>Sixsixfive (sixsixfive.deviantart.com)</dc:title></cc:Agent></dc:publisher><dc:source>https://github.com/sixsixfive</dc:source><dc:subject><rdf:Bag><rdf:li>ivy</rdf:li></rdf:Bag></dc:subject><dc:contributor><cc:Agent><dc:title>ssf</dc:title></cc:Agent></dc:contributor><dc:rights><cc:Agent><dc:title>Sixsixfive (sixisixfive.deviantart.com)</dc:title></cc:Agent></dc:rights><dc:description>A simple icon theme published under CC-BY-SA_V4(http://creativecommons.org/licenses/by-sa/4.0)</dc:description><dc:identifier>SSF</dc:identifier></cc:Work></rdf:RDF></metadata><!--Part of the Ivy icon them published under the CC-BY-SA_V4: http://creativecommons.org/licenses/by-sa/4.0 -->
</svg>