<?xml version="1.0" encoding="UTF-8" standalone="no"?>
<svg xmlns:dc="http://purl.org/dc/elements/1.1/" xmlns:cc="http://creativecommons.org/ns#" xmlns:rdf="http://www.w3.org/1999/02/22-rdf-syntax-ns#" xmlns:svg="http://www.w3.org/2000/svg" xmlns="http://www.w3.org/2000/svg" xmlns:xlink="http://www.w3.org/1999/xlink" version="1.1" id="svg2" viewBox="0 0 48 48">
 <defs id="defs4">
  <linearGradient gradientUnits="userSpaceOnUse" x2="41.849" y2="-3.954" x1="41.937" y1="40.06" xlink:href="#6" id="0"/>
  <linearGradient gradientUnits="userSpaceOnUse" x2="0" y2="39.12" y1="3" xlink:href="#5" id="1"/>
  <linearGradient gradientUnits="userSpaceOnUse" x2="0" y2="43.12" y1="7" xlink:href="#5" id="2"/>
  <linearGradient gradientUnits="userSpaceOnUse" x2="45.849" y2="0.046" x1="45.937" y1="44.06" xlink:href="#6" id="3"/>
  <linearGradient id="4">
   <stop id="stop11" stop-opacity="0.2"/>
   <stop id="stop13" stop-opacity="0" offset="1"/>
  </linearGradient>
  <linearGradient id="5">
   <stop id="stop16" stop-color="#fff"/>
   <stop id="stop18" stop-opacity="0" stop-color="#fff" offset="1"/>
  </linearGradient>
  <linearGradient id="6">
   <stop id="stop21" stop-color="#ddd"/>
   <stop id="stop23" stop-color="#fff" offset="1"/>
  </linearGradient>
  <radialGradient gradientTransform="matrix(0.94141 0 0 0.06457 -0.642 37.26)" gradientUnits="userSpaceOnUse" xlink:href="#4" id="7" r="23.23" cy="44.881" cx="23.985"/>
  <radialGradient gradientTransform="matrix(0.94141 0 0 0.06457 3.358 41.26)" gradientUnits="userSpaceOnUse" xlink:href="#4" id="8" r="23.23" cy="44.881" cx="23.985"/>
 </defs>
 <path id="path27" d="m 43.8084 40.1545 a 21.87095 1.500003 0 0 1 -43.7419 0 21.87095 1.500003 0 1 1 43.7419 0 z" fill="url(#7)"/>
 <path id="path29" d="M 1.938,2.063 H41.938 V40.063 H1.938 z" fill="url(#0)"/>
 <path id="path31" d="M 1.938,2.063 H41.938 V12.182 H1.938 z" fill="#6a6a6a"/>
 <g id="g33" fill="none">
  <g id="g35" stroke="#000">
   <path id="path37" d="m 2.4062,2.5312 0,37.0625 39.0625,0 0,-37.0625 -39.0625,0 z" opacity="0.4"/>
   <path id="path39" d="m 2.8744,11.6711 38.1261,4e-4" opacity="0.4"/>
  </g>
  <path id="path41" d="m 3.375,3.5 0,35.125 37.125,0 0,-35.125 -37.125,0 z" opacity="0.4" stroke="url(#1)"/>
 </g>
 <g id="g43" fill="#ebebeb" fill-rule="evenodd" color="#000">
  <path id="path45" d="m 4.969,6.154 1,0 0,1 -1,0 z"/>
  <path id="path47" d="m 5.969,7.154 1,0 0,1 -1,0 z"/>
  <path id="path49" d="m 6.969,8.154 1,0 0,1 -1,0 z"/>
  <path id="path51" d="m 4.969,8.154 1,0 0,1 -1,0 z"/>
  <path id="path53" d="m 6.969,6.154 1,0 0,1 -1,0 z"/>
  <path id="path55" d="m 9.969,6.154 1,0 0,3 -1,0 z"/>
  <path id="path57" transform="matrix(0,1,-1,0,0,0)" d="m 8.154,-12.969 1,0 0,3 -1,0 z"/>
  <path id="path59" transform="scale(-1,-1)" d="m -12.969,-9.154 1,0 0,3 -1,0 z"/>
  <g id="g61" transform="matrix(0,-1,1,0,0,0)">
   <path id="path63" d="m -7.154,9.969 1,0 0,3 -1,0 z"/>
   <path id="path65" d="m -9.154,14.969 1,0 0,3 -1,0 z"/>
  </g>
 </g>
 <path id="path67" d="m 2.8744,12.6708 38.1261,4e-4" stroke="#fff" fill="none"/>
 <path id="path69" d="m 47.8084 44.1545 a 21.87095 1.500003 0 0 1 -43.7419 0 21.87095 1.500003 0 1 1 43.7419 0 z" fill="url(#8)"/>
 <path id="path71" d="M 5.938,6.06 H45.938 V44.06 H5.938 z" fill="url(#3)"/>
 <path id="path73" d="M 5.938,6.06 H45.938 V16.179 H5.938 z" fill="#5288d1"/>
 <g id="g75" fill="none">
  <g id="g77" stroke="#000">
   <path id="path79" d="m 6.4062,6.5312 0,37.0625 39.0625,0 0,-37.0625 -39.0625,0 z" opacity="0.4"/>
   <path id="path81" d="m 6.8744,15.6711 38.1261,4e-4" opacity="0.4"/>
  </g>
  <path id="path83" d="m 7.375,7.5 0,35.125 37.125,0 0,-35.125 -37.125,0 z" opacity="0.4" stroke="url(#2)"/>
 </g>
 <g id="g85" fill="#fff" fill-rule="evenodd" color="#000">
  <path id="path87" d="m 8.969,10.154 1,0 0,1 -1,0 z"/>
  <path id="path89" d="m 9.969,11.154 1,0 0,1 -1,0 z"/>
  <path id="path91" d="m 10.969,12.154 1,0 0,1 -1,0 z"/>
  <path id="path93" d="m 8.969,12.154 1,0 0,1 -1,0 z"/>
  <path id="path95" d="m 10.969,10.154 1,0 0,1 -1,0 z"/>
  <path id="path97" d="m 13.969,10.154 1,0 0,3 -1,0 z"/>
  <path id="path99" transform="matrix(0,1,-1,0,0,0)" d="m 12.154,-16.969 1,0 0,3 -1,0 z"/>
  <path id="path101" transform="scale(-1,-1)" d="m -16.969,-13.154 1,0 0,3 -1,0 z"/>
  <g id="g103" transform="matrix(0,-1,1,0,0,0)">
   <path id="path105" d="m -11.154,13.969 1,0 0,3 -1,0 z"/>
   <path id="path107" d="m -13.154,18.969 1,0 0,3 -1,0 z"/>
  </g>
 </g>
 <path id="path109" d="m 6.8744,16.6708 38.1261,4e-4" stroke="#fff" fill="none"/>
 <metadata id="metadata9999">
  <rdf:RDF>
   <cc:Work>
    <dc:format>image/svg+xml</dc:format>
    <dc:type rdf:resource="http://purl.org/dc/dcmitype/StillImage"/>
    <dc:title>Ivy icon theme</dc:title>
    <cc:license rdf:resource="http://creativecommons.org/licenses/by-sa/4.0/"/>
    <dc:creator>
     <cc:Agent>
      <dc:title>Sixsixfive (sixsixfive.deviantart.com)</dc:title>
     </cc:Agent>
    </dc:creator>
    <dc:publisher>
     <cc:Agent>
      <dc:title>Sixsixfive (sixsixfive.deviantart.com)</dc:title>
     </cc:Agent>
    </dc:publisher>
    <dc:source>https://github.com/sixsixfive</dc:source>
    <dc:subject>
     <rdf:Bag>
      <rdf:li>ivy</rdf:li>
     </rdf:Bag>
    </dc:subject>
    <dc:contributor>
     <cc:Agent>
      <dc:title>ssf</dc:title>
     </cc:Agent>
    </dc:contributor>
    <dc:rights>
     <cc:Agent>
      <dc:title>Sixsixfive (sixisixfive.deviantart.com)</dc:title>
     </cc:Agent>
    </dc:rights>
    <dc:description>A simple icon theme published under CC-BY-SA_V4(http://creativecommons.org/licenses/by-sa/4.0)</dc:description>
    <dc:identifier>SSF</dc:identifier>
   </cc:Work>
  </rdf:RDF>
 </metadata>
 <!--Part of the Ivy icon them published under the CC-BY-SA_V4: http://creativecommons.org/licenses/by-sa/4.0 -->
</svg>
