<?xml version="1.0" encoding="UTF-8" standalone="no"?>
<svg xmlns:dc="http://purl.org/dc/elements/1.1/" xmlns:cc="http://creativecommons.org/ns#" xmlns:rdf="http://www.w3.org/1999/02/22-rdf-syntax-ns#" xmlns:svg="http://www.w3.org/2000/svg" xmlns="http://www.w3.org/2000/svg" xmlns:xlink="http://www.w3.org/1999/xlink" viewBox="0 0 48 48" id="svg2" version="1.1">
 <defs id="defs4">
  <linearGradient id="0" y1="21" y2="29" x2="0" gradientUnits="userSpaceOnUse">
   <stop stop-color="#eed45a" id="stop7"/>
   <stop offset="1" stop-color="#ffe97b" id="stop9"/>
  </linearGradient>
  <linearGradient id="1" y1="19" y2="43" x2="0" gradientUnits="userSpaceOnUse">
   <stop stop-color="#66b03e" id="stop12"/>
   <stop offset="1" stop-color="#92cd71" id="stop14"/>
  </linearGradient>
  <linearGradient id="2" y1="19" y2="43" x2="0" gradientUnits="userSpaceOnUse">
   <stop stop-color="#ebebeb" id="stop17"/>
   <stop offset="1" stop-color="#f5f5f5" id="stop19"/>
  </linearGradient>
  <linearGradient id="3" y1="19" y2="43" x2="0" gradientUnits="userSpaceOnUse">
   <stop stop-color="#ff8b36" id="stop22"/>
   <stop offset="1" stop-color="#ffb986" id="stop24"/>
  </linearGradient>
  <linearGradient id="4" y1="5" x1="45" y2="29.03" x2="45.03" gradientUnits="userSpaceOnUse">
   <stop stop-color="#d02604" id="stop27"/>
   <stop offset="1" stop-color="#fb7257" id="stop29"/>
  </linearGradient>
  <linearGradient id="5">
   <stop stop-color="#fff" id="stop32"/>
   <stop offset="1" stop-color="#fff" stop-opacity="0" id="stop34"/>
  </linearGradient>
  <linearGradient id="6" xlink:href="#5" y1="5.969" y2="28.03" x2="0" gradientUnits="userSpaceOnUse"/>
  <linearGradient id="7" xlink:href="#5" y1="20" y2="42" x2="0" gradientUnits="userSpaceOnUse"/>
  <linearGradient id="8" y1="4.969" x1="45.03" y2="29" x2="45" gradientUnits="userSpaceOnUse">
   <stop stop-color="#171717" id="stop39"/>
   <stop offset="1" stop-color="#6a6a6a" id="stop41"/>
  </linearGradient>
 </defs>
 <g id="g43" fill-rule="evenodd">
  <path d="m 9,6 0,14 -7,0 0,24 36,0 0,-14 7,0 L 45,6 9,6 Z" id="path45" opacity="0.1"/>
  <path d="M 9,5 45,5 45,29 9,29 Z" id="path47" fill="url(#4)"/>
  <path d="m 9,21 36,0 0,8 -36,0 z" id="path49" fill="url(#0)"/>
  <path d="m 9,5 36,0 0,8 -36,0 z" id="path51" fill="url(#8)"/>
 </g>
 <g id="g53" fill="none">
  <path d="m 9.46875,5.46875 0,23.0625 35.0625,0 0,-23.0625 -35.0625,0 z" id="path55" opacity="0.4" stroke="#000"/>
  <path d="m 10.46875,6.46875 0,21.0625 33.0625,0 0,-21.0625 -33.0625,0 z" id="path57" opacity="0.1" stroke="url(#6)"/>
 </g>
 <g id="g59" fill-rule="evenodd">
  <path d="m 2,19 36,0 0,24 -36,0 z" id="path61" fill="url(#2)"/>
  <path d="m 2,19 12,0 0,24 -12,0 z" id="path63" fill="url(#3)"/>
  <path d="m 26,19 12,0 0,24 -12,0 z" id="path65" fill="url(#1)"/>
 </g>
 <g id="g67" fill="none">
  <path d="m 2.46875,19.46875 0,23.0625 35.0625,0 0,-23.0625 -35.0625,0 z" id="path69" opacity="0.4" stroke="#000"/>
  <path d="m 3.40625,20.40625 0,21.1875 33.1875,0 0,-21.1875 -33.1875,0 z" id="path71" opacity="0.4" stroke="url(#7)"/>
 </g>
 <g id="g73" fill-rule="evenodd">
  <path d="m 9,19 29,0 0,1 -29,0 z" id="path75" opacity="0.564"/>
  <path d="m 19.5,-38 9.5,0 0,1 -9.5,0 z" transform="matrix(0,1,-1,0,0,0)" id="path77" opacity="0.564"/>
 </g>
 <metadata id="metadata9999">
  <rdf:RDF>
   <cc:Work>
    <dc:format>image/svg+xml</dc:format>
    <dc:type rdf:resource="http://purl.org/dc/dcmitype/StillImage"/>
    <dc:title>Ivy icon theme</dc:title>
    <cc:license rdf:resource="http://creativecommons.org/licenses/by-sa/4.0/"/>
    <dc:creator>
     <cc:Agent>
      <dc:title>Sixsixfive (sixsixfive.deviantart.com)</dc:title>
     </cc:Agent>
    </dc:creator>
    <dc:publisher>
     <cc:Agent>
      <dc:title>Sixsixfive (sixsixfive.deviantart.com)</dc:title>
     </cc:Agent>
    </dc:publisher>
    <dc:source>https://github.com/sixsixfive</dc:source>
    <dc:subject>
     <rdf:Bag>
      <rdf:li>ivy</rdf:li>
     </rdf:Bag>
    </dc:subject>
    <dc:contributor>
     <cc:Agent>
      <dc:title>ssf</dc:title>
     </cc:Agent>
    </dc:contributor>
    <dc:rights>
     <cc:Agent>
      <dc:title>Sixsixfive (sixisixfive.deviantart.com)</dc:title>
     </cc:Agent>
    </dc:rights>
    <dc:description>A simple icon theme published under CC-BY-SA_V4(http://creativecommons.org/licenses/by-sa/4.0)</dc:description>
    <dc:identifier>SSF</dc:identifier>
   </cc:Work>
  </rdf:RDF>
 </metadata>
 <!--Part of the Ivy icon them published under the CC-BY-SA_V4: http://creativecommons.org/licenses/by-sa/4.0 -->
</svg>
