<?xml version="1.0" encoding="UTF-8" standalone="no"?>
<svg xmlns:dc="http://purl.org/dc/elements/1.1/" xmlns:cc="http://creativecommons.org/ns#" xmlns:rdf="http://www.w3.org/1999/02/22-rdf-syntax-ns#" xmlns:svg="http://www.w3.org/2000/svg" xmlns="http://www.w3.org/2000/svg" xmlns:xlink="http://www.w3.org/1999/xlink" viewBox="0 0 48 48" id="svg2" version="1.1">
 <defs id="defs4">
  <path opacity="0.4" fill="none" stroke="#000" id="2" d="m 3.5938 6.5625 v 6.8125 h 6.8125 v -6.8125 H 3.5938 z"/>
  <path opacity="0.4" id="3" d="m 18.5312 7.5312 v 4.9375 h 24.9375 v -4.9375 H 18.5312 z"/>
  <path id="4" d="M 3,5.965 H11 V13.965 H3 z"/>
  <linearGradient id="5" y1="7" y2="13" x2="0" gradientUnits="userSpaceOnUse">
   <stop stop-color="#fff" id="stop10"/>
   <stop offset="1" stop-color="#fff" stop-opacity="0" id="stop12"/>
  </linearGradient>
  <linearGradient id="6" y1="6" y2="14" x2="0" gradientUnits="userSpaceOnUse">
   <stop stop-color="#5288d1" id="stop15"/>
   <stop offset="1" stop-color="#b1c9eb" id="stop17"/>
  </linearGradient>
 </defs>
 <path opacity="0.15" d="m 3 7 v 8 h 8 V 7 H 3 z m 14 0 v 8 h 28 V 7 H 17 z m -14.0312 14.0312 v 8 h 8 v -8 h -8 z m 14 0 v 8 h 28 v -8 h -28 z m -14 13.9688 v 8 h 8 v -8 h -8 z m 14 0 v 8 h 28 v -8 h -28 z" id="path19"/>
 <g id="g21" fill="url(#6)">
  <use xlink:href="#4" id="use23" x="0" y="0" width="48" height="48"/>
  <path id="7" d="m 17,6 28,0 0,8 -28,0 z"/>
 </g>
 <use xlink:href="#2" id="use26"/>
 <g id="g28" fill="none">
  <path d="m 17.5938,6.5938 0,6.8125 26.8125,0 0,-6.8125 -26.8125,0 z" id="path30" opacity="0.4" stroke="#000"/>
  <g id="g32" stroke="url(#5)">
   <use xlink:href="#3" id="use34" x="0" y="0" width="48" height="48"/>
   <path d="m 4.5312,7.5 0,4.9375 4.9375,0 0,-4.9375 -4.9375,0 z" id="path36" opacity="0.4"/>
  </g>
 </g>
 <g transform="translate(-0.031,14.03)" id="g38" fill="url(#6)">
  <use xlink:href="#4" id="use40" x="0" y="0" width="48" height="48"/>
  <use id="8" xlink:href="#7" x="0" y="0" width="48" height="48"/>
 </g>
 <use xlink:href="#2" transform="matrix(1 0 0 1 -0.031 14.03)" id="use43"/>
 <path opacity="0.4" fill="none" stroke="#000" id="0" d="m 17.5938 6.5938 v 6.8125 h 26.8125 v -6.8125 H 17.5938 z" transform="matrix(1 0 0 1 -0.031 14.03)"/>
 <use fill="none" stroke="url(#5)" xlink:href="#3" transform="matrix(1 0 0 1 -0.031 14.03)" id="use46"/>
 <path opacity="0.4" fill="none" stroke="url(#5)" id="1" d="m 4.5312 7.5 v 4.9375 h 4.9375 v -4.9375 H 4.5312 z" transform="matrix(1 0 0 1 -0.031 14.03)"/>
 <g transform="translate(-0.031,28.03)" id="g49" fill="url(#6)">
  <use xlink:href="#4" id="use51" x="0" y="0" width="48" height="48"/>
  <use xlink:href="#8" id="use53" x="0" y="0" width="48" height="48"/>
 </g>
 <use xlink:href="#2" transform="matrix(1 0 0 1 -0.031 28.03)" id="use55"/>
 <use xlink:href="#0" transform="matrix(1 0 0 1 0 14)" id="use57"/>
 <use fill="none" stroke="url(#5)" xlink:href="#3" transform="matrix(1 0 0 1 -0.031 28.03)" id="use59"/>
 <use xlink:href="#1" transform="matrix(1 0 0 1 0 14)" id="use61"/>
 <metadata id="metadata9999">
  <rdf:RDF>
   <cc:Work>
    <dc:format>image/svg+xml</dc:format>
    <dc:type rdf:resource="http://purl.org/dc/dcmitype/StillImage"/>
    <dc:title>Ivy icon theme</dc:title>
    <cc:license rdf:resource="http://creativecommons.org/licenses/by-sa/4.0/"/>
    <dc:creator>
     <cc:Agent>
      <dc:title>Sixsixfive (sixsixfive.deviantart.com)</dc:title>
     </cc:Agent>
    </dc:creator>
    <dc:publisher>
     <cc:Agent>
      <dc:title>Sixsixfive (sixsixfive.deviantart.com)</dc:title>
     </cc:Agent>
    </dc:publisher>
    <dc:source>https://github.com/sixsixfive</dc:source>
    <dc:subject>
     <rdf:Bag>
      <rdf:li>ivy</rdf:li>
     </rdf:Bag>
    </dc:subject>
    <dc:contributor>
     <cc:Agent>
      <dc:title>ssf</dc:title>
     </cc:Agent>
    </dc:contributor>
    <dc:rights>
     <cc:Agent>
      <dc:title>Sixsixfive (sixisixfive.deviantart.com)</dc:title>
     </cc:Agent>
    </dc:rights>
    <dc:description>A simple icon theme published under CC-BY-SA_V4(http://creativecommons.org/licenses/by-sa/4.0)</dc:description>
    <dc:identifier>SSF</dc:identifier>
   </cc:Work>
  </rdf:RDF>
 </metadata>
 <!--Part of the Ivy icon them published under the CC-BY-SA_V4: http://creativecommons.org/licenses/by-sa/4.0 -->
</svg>
