<?xml version="1.0" encoding="UTF-8" standalone="no"?>
<svg xmlns:dc="http://purl.org/dc/elements/1.1/" xmlns:cc="http://creativecommons.org/ns#" xmlns:rdf="http://www.w3.org/1999/02/22-rdf-syntax-ns#" xmlns:svg="http://www.w3.org/2000/svg" xmlns="http://www.w3.org/2000/svg" xmlns:xlink="http://www.w3.org/1999/xlink" version="1.1" viewBox="0 0 48 48" id="svg2">
 <defs id="defs4">
  <linearGradient id="linearGradient4276">
   <stop id="stop4278"/>
   <stop id="stop4280" offset="1" stop-opacity="0"/>
  </linearGradient>
  <linearGradient id="linearGradient4264">
   <stop id="stop4266" stop-color="#fff"/>
   <stop id="stop4268" offset="1" stop-color="#fff" stop-opacity="0"/>
  </linearGradient>
  <linearGradient id="linearGradient4254">
   <stop id="stop4256" stop-color="#6a6a6a"/>
   <stop id="stop4258" offset="1" stop-color="#aeaeae"/>
  </linearGradient>
  <linearGradient id="linearGradient4242">
   <stop id="stop4244" stop-color="#a868d4"/>
   <stop id="stop4246" offset="1" stop-color="#cca6e6"/>
  </linearGradient>
  <linearGradient gradientUnits="userSpaceOnUse" y2="16" x2="0" y1="4" id="linearGradient4198" xlink:href="#linearGradient4264"/>
  <linearGradient gradientUnits="userSpaceOnUse" y2="42" x2="0" y1="28" id="linearGradient4248" xlink:href="#linearGradient4242"/>
  <linearGradient gradientUnits="userSpaceOnUse" y2="17" x2="0" y1="3" id="linearGradient4250" xlink:href="#linearGradient4242"/>
  <linearGradient gradientUnits="userSpaceOnUse" y2="27" x2="43" y1="7" x1="16" id="linearGradient4260" xlink:href="#linearGradient4254"/>
  <linearGradient gradientTransform="matrix(1,0,0,1.1875,0,-6.375)" gradientUnits="userSpaceOnUse" x2="11" x1="14" id="linearGradient4270" xlink:href="#linearGradient4264"/>
  <linearGradient gradientUnits="userSpaceOnUse" x2="37" x1="34" id="linearGradient4282" xlink:href="#linearGradient4276"/>
 </defs>
 <path d="m 9,13 a 1.0001,1.0001 0 0 0 -1,1 l 0,24 a 1.0001,1.0001 0 0 0 1,1 l 30,0 a 1.0001,1.0001 0 0 0 1,-1 l 0,-24 -1,0 -1,0 -2,0 -1,0 -1,0 0,19 -20,0 0,-19 a 1.0001,1.0001 0 0 0 -1,-1 l -4,0 z" id="path4226" opacity="0.1" fill-rule="evenodd"/>
 <path id="path3379" d="M 9 12 A 1.0001 1.0001 0 0 0 8 13 L 8 37 A 1.0001 1.0001 0 0 0 9 38 L 39 38 A 1.0001 1.0001 0 0 0 40 37 L 40 13 L 39 13 L 38 13 L 36 13 L 35 13 L 34 13 L 34 32 L 14 32 L 14 13 A 1.0001 1.0001 0 0 0 13 12 L 9 12 z " fill="url(#linearGradient4260)" fill-rule="evenodd"/>
 <rect id="rect4272" width="3" height="19" x="34" y="15" ry="4" opacity="0.1" fill="url(#linearGradient4282)" fill-rule="evenodd" rx="1.5"/>
 <circle id="circle4200" cx="11" cy="11" r="7" opacity="0.1" stroke-linecap="round"/>
 <rect ry="4" y="15" x="11" height="19" width="3" id="rect4262" opacity="0.6" fill="url(#linearGradient4270)" fill-rule="evenodd" rx="1.5"/>
 <path d="M 9,12.496094 C 8.7356313,12.49612 8.4961202,12.735631 8.4960938,13 l 0,24 C 8.4961202,37.264369 8.7356313,37.50388 9,37.503906 l 30,0 C 39.264369,37.50388 39.50388,37.264369 39.503906,37 l 0,-23.503906 -0.503906,0 -1,0 -2,0 -1,0 -0.503906,0 0,18.503906 A 0.49517811,0.49517811 0 0 1 34,32.496094 l -20,0 A 0.49517811,0.49517811 0 0 1 13.503906,32 l 0,-19 C 13.50388,12.735631 13.264369,12.49612 13,12.496094 l -4,0 z" id="path4224" opacity="0.4" fill="none" fill-rule="evenodd" stroke="#000"/>
 <circle r="7" cy="10" cx="11" id="path3358" fill="url(#linearGradient4250)" stroke-linecap="round"/>
 <path d="m 11,3.4882812 c -1.7049939,1e-7 -3.399856,0.7006373 -4.6054688,1.90625 C 5.1889185,6.600144 4.4882812,8.2950061 4.4882812,10 c 0,1.704994 0.7006373,3.399856 1.90625,4.605469 1.2056128,1.205613 2.9004749,1.90625 4.6054688,1.90625 1.704994,0 3.399856,-0.700637 4.605469,-1.90625 1.205613,-1.205613 1.90625,-2.900475 1.90625,-4.605469 0,-1.7049939 -0.700637,-3.399856 -1.90625,-4.6054688 C 14.399856,4.1889185 12.704994,3.4882812 11,3.4882812 Z" id="path4188" opacity="0.4" fill="none" stroke="#000" stroke-linecap="round"/>
 <path id="path4190" d="m 11,4.4960938 c -1.4409823,0 -2.8736498,0.5923997 -3.8925781,1.6113281 C 6.0884935,7.1263502 5.4960938,8.5590177 5.4960938,10 c 0,1.440982 0.5923997,2.87365 1.6113281,3.892578 1.0189283,1.018928 2.4515958,1.611328 3.8925781,1.611328 1.440982,0 2.87365,-0.5924 3.892578,-1.611328 C 15.911506,12.87365 16.503906,11.440982 16.503906,10 c 0,-1.4409823 -0.5924,-2.8736498 -1.611328,-3.8925781 C 13.87365,5.0884935 12.440982,4.4960938 11,4.4960938 Z" opacity="0.4" fill="none" stroke="url(#linearGradient4198)" stroke-linecap="round"/>
 <rect y="33" x="13" height="1" width="21" id="rect4228" opacity="0.25" fill="#fff" fill-rule="evenodd"/>
 <circle r="7" cy="36.01172" cx="24" id="circle4202" opacity="0.1" stroke-linecap="round"/>
 <circle id="circle4204" cx="24" cy="35.01172" r="7" fill="url(#linearGradient4248)" stroke-linecap="round"/>
 <path transform="translate(13,25.011719)" id="path4206" d="m 11,3.4882812 c -1.7049939,1e-7 -3.399856,0.7006373 -4.6054688,1.90625 C 5.1889185,6.600144 4.4882812,8.2950061 4.4882812,10 c 0,1.704994 0.7006373,3.399856 1.90625,4.605469 1.2056128,1.205613 2.9004749,1.90625 4.6054688,1.90625 1.704994,0 3.399856,-0.700637 4.605469,-1.90625 1.205613,-1.205613 1.90625,-2.900475 1.90625,-4.605469 0,-1.7049939 -0.700637,-3.399856 -1.90625,-4.6054688 C 14.399856,4.1889185 12.704994,3.4882812 11,3.4882812 Z" opacity="0.4" fill="none" stroke="#000" stroke-linecap="round"/>
 <path transform="translate(13,25.011719)" d="m 11,4.4960938 c -1.4409823,0 -2.8736498,0.5923997 -3.8925781,1.6113281 C 6.0884935,7.1263502 5.4960938,8.5590177 5.4960938,10 c 0,1.440982 0.5923997,2.87365 1.6113281,3.892578 1.0189283,1.018928 2.4515958,1.611328 3.8925781,1.611328 1.440982,0 2.87365,-0.5924 3.892578,-1.611328 C 15.911506,12.87365 16.503906,11.440982 16.503906,10 c 0,-1.4409823 -0.5924,-2.8736498 -1.611328,-3.8925781 C 13.87365,5.0884935 12.440982,4.4960938 11,4.4960938 Z" id="path4208" opacity="0.4" fill="none" stroke="url(#linearGradient4198)" stroke-linecap="round"/>
 <circle id="circle4212" cx="37.00391" cy="11" r="7" opacity="0.1" stroke-linecap="round"/>
 <circle r="7" cy="10" cx="37.00391" id="circle4214" fill="url(#linearGradient4250)" stroke-linecap="round"/>
 <path d="m 11,3.4882812 c -1.7049939,1e-7 -3.399856,0.7006373 -4.6054688,1.90625 C 5.1889185,6.600144 4.4882812,8.2950061 4.4882812,10 c 0,1.704994 0.7006373,3.399856 1.90625,4.605469 1.2056128,1.205613 2.9004749,1.90625 4.6054688,1.90625 1.704994,0 3.399856,-0.700637 4.605469,-1.90625 1.205613,-1.205613 1.90625,-2.900475 1.90625,-4.605469 0,-1.7049939 -0.700637,-3.399856 -1.90625,-4.6054688 C 14.399856,4.1889185 12.704994,3.4882812 11,3.4882812 Z" id="path4216" transform="translate(26.003906,1e-7)" opacity="0.4" fill="none" stroke="#000" stroke-linecap="round"/>
 <path id="path4218" d="m 11,4.4960938 c -1.4409823,0 -2.8736498,0.5923997 -3.8925781,1.6113281 C 6.0884935,7.1263502 5.4960938,8.5590177 5.4960938,10 c 0,1.440982 0.5923997,2.87365 1.6113281,3.892578 1.0189283,1.018928 2.4515958,1.611328 3.8925781,1.611328 1.440982,0 2.87365,-0.5924 3.892578,-1.611328 C 15.911506,12.87365 16.503906,11.440982 16.503906,10 c 0,-1.4409823 -0.5924,-2.8736498 -1.611328,-3.8925781 C 13.87365,5.0884935 12.440982,4.4960938 11,4.4960938 Z" transform="translate(26.003906,1e-7)" opacity="0.4" fill="none" stroke="url(#linearGradient4198)" stroke-linecap="round"/>
 <metadata id="metadata9999">
  <rdf:RDF>
   <cc:Work>
    <dc:format>image/svg+xml</dc:format>
    <dc:type rdf:resource="http://purl.org/dc/dcmitype/StillImage"/>
    <dc:title>Ivy icon theme</dc:title>
    <cc:license rdf:resource="http://creativecommons.org/licenses/by-sa/4.0/"/>
    <dc:creator>
     <cc:Agent>
      <dc:title>Sixsixfive (sixsixfive.deviantart.com)</dc:title>
     </cc:Agent>
    </dc:creator>
    <dc:publisher>
     <cc:Agent>
      <dc:title>Sixsixfive (sixsixfive.deviantart.com)</dc:title>
     </cc:Agent>
    </dc:publisher>
    <dc:source>https://github.com/sixsixfive</dc:source>
    <dc:subject>
     <rdf:Bag>
      <rdf:li>ivy</rdf:li>
     </rdf:Bag>
    </dc:subject>
    <dc:contributor>
     <cc:Agent>
      <dc:title>ssf</dc:title>
     </cc:Agent>
    </dc:contributor>
    <dc:rights>
     <cc:Agent>
      <dc:title>Sixsixfive (sixisixfive.deviantart.com)</dc:title>
     </cc:Agent>
    </dc:rights>
    <dc:description>A simple icon theme published under CC-BY-SA_V4(http://creativecommons.org/licenses/by-sa/4.0)</dc:description>
    <dc:identifier>SSF</dc:identifier>
   </cc:Work>
  </rdf:RDF>
 </metadata>
 <!--Part of the Ivy icon them published under the CC-BY-SA_V4: http://creativecommons.org/licenses/by-sa/4.0 -->
</svg>
