<?xml version="1.0" encoding="UTF-8" standalone="no"?>
<svg xmlns:dc="http://purl.org/dc/elements/1.1/" xmlns:cc="http://creativecommons.org/ns#" xmlns:rdf="http://www.w3.org/1999/02/22-rdf-syntax-ns#" xmlns:svg="http://www.w3.org/2000/svg" xmlns="http://www.w3.org/2000/svg" xmlns:xlink="http://www.w3.org/1999/xlink" id="svg2" viewBox="0 0 48 48" version="1.1">
 <defs id="defs4">
  <linearGradient id="0" y1="36.05" y2="6.06" x2="0" gradientUnits="userSpaceOnUse">
   <stop stop-color="#d3d7cf" id="stop7"/>
   <stop offset="1" stop-color="#eeeeec" id="stop9"/>
  </linearGradient>
  <linearGradient id="1" y1="47.875" y2="36.34" x2="0" gradientUnits="userSpaceOnUse" gradientTransform="matrix(0.96873 0 0 1.0014 -58.56 -5.945)">
   <stop stop-color="#eeeeec" id="stop12"/>
   <stop offset="1" stop-color="#555753" id="stop14"/>
  </linearGradient>
  <linearGradient id="2" y1="7" y2="46" x2="0" gradientUnits="userSpaceOnUse">
   <stop stop-color="#fff" id="stop17"/>
   <stop offset="1" stop-color="#fff" stop-opacity="0" id="stop19"/>
  </linearGradient>
  <radialGradient cx="19.501" cy="37.764" r="17" id="3" gradientUnits="userSpaceOnUse" gradientTransform="matrix(1.57755 -1.30712 1.70588 2.05882 -71.18 -11.853)">
   <stop id="stop22"/>
   <stop offset="1" stop-color="#171717" id="stop24"/>
  </radialGradient>
  <linearGradient id="linearGradient4401">
   <stop stop-color="#fff" id="stop4403"/>
   <stop stop-opacity="0" stop-color="#fff" offset="1" id="stop4405"/>
  </linearGradient>
  <linearGradient id="linearGradient4165">
   <stop id="stop4167" stop-color="#eed45a"/>
   <stop id="stop4169" stop-color="#e9c82a" offset="1"/>
  </linearGradient>
  <linearGradient xlink:href="#linearGradient4401" id="linearGradient4407" y1="42" x2="0" y2="23" gradientUnits="userSpaceOnUse" gradientTransform="translate(1.0410163,-1.9589845)"/>
  <linearGradient xlink:href="#linearGradient4165" id="linearGradient4423" y1="46" x2="0" y2="12" gradientUnits="userSpaceOnUse" gradientTransform="translate(1.0410163,-1.9589845)"/>
 </defs>
 <path opacity="0.1" d="m 6 7.0625 c -1.108 0 -2 0.891999 -2 2 v 26 c 0 1.108 0.891999 2 2 2 h 11.75 v 2.15625 h -2.875 c -1.00627 0 -1.8125 0.866015 -1.8125 1.90625 0 1.04023 0.806232 1.875 1.8125 1.875 h 18.3438 c 1.00627 0 1.8125 -0.834767 1.8125 -1.875 0 -1.04024 -0.806233 -1.90625 -1.8125 -1.90625 h -2.875 V 37.0625 H 42 c 1.108 0 2 -0.891999 2 -2 v -26 c 0 -1.108 -0.891999 -2 -2 -2 H 6 z" id="path26"/>
 <path fill="url(#1)" d="m 17.7418 30.4415 v 7.7924 h -2.8759 c -1.00627 0 -1.81637 0.837445 -1.81637 1.87768 0 1.04023 0.810099 1.87768 1.81637 1.87768 h 18.3453 c 1.00627 0 1.81637 -0.837446 1.81637 -1.87768 0 -1.04024 -0.810101 -1.87768 -1.81637 -1.87768 h -2.87591 v -7.79237 h -12.5935 z" id="path28"/>
 <g id="g30" fill="none" stroke-width="0.985">
  <path d="m 19.2857,32.0375 0,6.1963 a 1.54068,1.59268 0 0 1 -1.54391,1.59603 l -2.87591,0 c -0.179465,0 -0.272456,0.09613 -0.272456,0.281652 0,0.185522 0.09299,0.281651 0.272456,0.281651 l 18.3453,0 c 0.179464,0 0.272455,-0.09613 0.272455,-0.281651 0,-0.185524 -0.09299,-0.281652 -0.272455,-0.281652 l -2.87591,0 A 1.54068,1.59268 0 0 1 28.79136,38.2338 l 0,-6.19634 -9.50566,0 z" id="path32" opacity="0.4" stroke="#fff"/>
  <path d="m 18.2261,30.9422 0,7.2917 a 0.487506,0.503962 0 0 1 -0.484364,0.500714 l -2.87591,0 c -0.744648,0 -1.332,0.607181 -1.332,1.37697 0,0.769783 0.587355,1.37696 1.332,1.37696 l 18.3453,0 c 0.744648,0 1.332,-0.607181 1.332,-1.37696 0,-0.769785 -0.587355,-1.37697 -1.332,-1.37697 l -2.87591,0 A 0.487506,0.503962 0 0 1 29.850852,38.2339 l 0,-7.29166 -11.6248,0 z" id="path34" opacity="0.4" stroke="#000"/>
 </g>
 <rect ry="2" width="40" x="4" y="6.06" fill="url(#0)" rx="2" height="30" id="rect36"/>
 <g id="g38" fill="none">
  <path d="m 6.0115,6.5736 c -0.826489,0 -1.46875,0.642261 -1.46875,1.46875 l 0,26 c 0,0.826489 0.642261,1.46875 1.46875,1.46875 l 36,0 c 0.82649,0 1.46875,-0.642261 1.46875,-1.46875 l 0,-26 c 0,-0.826489 -0.64226,-1.46875 -1.46875,-1.46875 l -36,0 z" id="path40" opacity="0.4" stroke="#000"/>
  <path d="m 6.0115,7.4799 c -0.330232,0 -0.5625,0.232268 -0.5625,0.5625 l 0,26 c 0,0.330231 0.232268,0.5625 0.5625,0.5625 l 36,0 c 0.33023,0 0.5625,-0.232269 0.5625,-0.5625 l 0,-26 c 0,-0.330232 -0.23227,-0.5625 -0.5625,-0.5625 l -36,0 z" id="path42" opacity="0.9" stroke="url(#2)"/>
 </g>
 <path fill="url(#3)" d="M 7.01,10.1 H41.01 V28.916 H7.01 z" id="path44"/>
 <path fill="none" stroke="#000" stroke-width="0.97" d="m 7.4688 10.5378 v 17.9343 h 33.0625 v -17.9343 h -33.0625 z" id="path46"/>
 <path opacity="0.796" fill="#fff" fill-rule="evenodd" color="#000" d="M 7,29 H41 V30 H7 z" id="path48"/>
 <path fill-rule="evenodd" fill="#000" opacity="0.1" id="path3395" d="m 48.04102,11.041016 -40.0000037,34 40.0000037,0 0,-34 z m -6,13 0,15 -18.000004,0 18.000004,-15 z"/>
 <path fill-rule="evenodd" fill="url(#linearGradient4423)" id="rect3390" d="m 48.04102,10.041016 -40.0000037,34 40.0000037,0 0,-34 z m -6,13 0,15 -18.000004,0 18.000004,-15 z"/>
 <path stroke="#000" fill-rule="evenodd" fill="none" opacity="0.4" d="m 47.50195,11.207032 -37.994137,32.294922 37.994137,0 0,-32.294922 z" id="path3399"/>
 <path stroke="#fff" fill-rule="evenodd" fill="none" opacity="0.4" id="path3401" d="M 46.5,13.373047 12.232422,42.5 46.5,42.5 l 0,-29.126953 z"/>
 <rect stroke-width="19.5" stroke-linecap="round" stroke-linejoin="round" stroke-dasharray="39 19.5 9.75 19.5" opacity="0.4" width="2" x="-43.04102" y="-43.04102" height="1" id="rect4425" transform="matrix(0,-1,-1,0,0,0)"/>
 <rect stroke-width="19.5" stroke-linecap="round" stroke-linejoin="round" fill="#fff" stroke-dasharray="39 19.5 9.75 19.5" opacity="0.2" width="2" x="-43.04102" y="-42.04102" height="1" id="rect4427" transform="matrix(0,-1,-1,0,0,0)"/>
 <rect stroke-width="19.5" stroke-linecap="round" stroke-linejoin="round" stroke-dasharray="39 19.5 9.75 19.5" opacity="0.4" transform="matrix(0,-1,-1,0,0,0)" id="rect4429" height="1" y="-37.04102" x="-43.04102" width="2"/>
 <rect stroke-width="19.5" stroke-linecap="round" stroke-linejoin="round" fill="#fff" stroke-dasharray="39 19.5 9.75 19.5" opacity="0.2" transform="matrix(0,-1,-1,0,0,0)" id="rect4431" height="1" y="-36.04102" x="-43.04102" width="2"/>
 <path stroke-miterlimit="26.1" stroke-linecap="square" stroke="#000" fill-rule="evenodd" fill="none" opacity="0.4" d="m 42.02734,22.583985 a 0.45750227,0.45750227 0 0 0 -0.27929,0.105469 l -18.000003,15 a 0.45750227,0.45750227 0 0 0 0.292969,0.808593 l 18.000004,0 a 0.45750227,0.45750227 0 0 0 0.45703,-0.457031 l 0,-15 a 0.45750227,0.45750227 0 0 0 -0.47071,-0.457031 z" id="path4397"/>
 <path stroke-miterlimit="26.1" stroke-linecap="square" stroke="url(#linearGradient4407)" fill-rule="evenodd" fill="none" opacity="0.4" id="path4399" d="m 41.99805,21.574219 a 1.4680261,1.4680261 0 0 0 -0.89649,0.339844 l -17.999997,15 a 1.4680261,1.4680261 0 0 0 0.939453,2.595703 l 18.000004,0 a 1.4680261,1.4680261 0 0 0 1.46875,-1.46875 l 0,-15 a 1.4680261,1.4680261 0 0 0 -1.51172,-1.466797 z"/>
 <rect stroke-width="19.5" stroke-linecap="round" stroke-linejoin="round" stroke-dasharray="39 19.5 9.75 19.5" opacity="0.4" transform="matrix(0,-1,-1,0,0,0)" id="rect4474" height="1" y="-31.04102" x="-43.04102" width="2"/>
 <rect stroke-width="19.5" stroke-linecap="round" stroke-linejoin="round" fill="#fff" stroke-dasharray="39 19.5 9.75 19.5" opacity="0.2" transform="matrix(0,-1,-1,0,0,0)" id="rect4476" height="1" y="-30.04102" x="-43.04102" width="2"/>
 <rect stroke-width="19.5" stroke-linecap="round" stroke-linejoin="round" stroke-dasharray="39 19.5 9.75 19.5" opacity="0.4" width="2" x="-43.04102" y="-25.04102" height="1" id="rect4478" transform="matrix(0,-1,-1,0,0,0)"/>
 <rect stroke-width="19.5" stroke-linecap="round" stroke-linejoin="round" fill="#fff" stroke-dasharray="39 19.5 9.75 19.5" opacity="0.2" width="2" x="-43.04102" y="-24.04102" height="1" id="rect4480" transform="matrix(0,-1,-1,0,0,0)"/>
 <rect stroke-width="19.5" stroke-linecap="round" stroke-linejoin="round" stroke-dasharray="39 19.5 9.75 19.5" opacity="0.4" transform="matrix(0,-1,-1,0,0,0)" id="rect4482" height="1" y="-19.04102" x="-43.04102" width="2"/>
 <rect stroke-width="19.5" stroke-linecap="round" stroke-linejoin="round" fill="#fff" stroke-dasharray="39 19.5 9.75 19.5" opacity="0.2" transform="matrix(0,-1,-1,0,0,0)" id="rect4484" height="1" y="-18.04102" x="-43.04102" width="2"/>
 <metadata id="metadata9999">
  <rdf:RDF>
   <cc:Work>
    <dc:format>image/svg+xml</dc:format>
    <dc:type rdf:resource="http://purl.org/dc/dcmitype/StillImage"/>
    <dc:title>Ivy icon theme</dc:title>
    <cc:license rdf:resource="http://creativecommons.org/licenses/by-sa/4.0/"/>
    <dc:creator>
     <cc:Agent>
      <dc:title>Sixsixfive (sixsixfive.deviantart.com)</dc:title>
     </cc:Agent>
    </dc:creator>
    <dc:publisher>
     <cc:Agent>
      <dc:title>Sixsixfive (sixsixfive.deviantart.com)</dc:title>
     </cc:Agent>
    </dc:publisher>
    <dc:source>https://github.com/sixsixfive</dc:source>
    <dc:subject>
     <rdf:Bag>
      <rdf:li>ivy</rdf:li>
     </rdf:Bag>
    </dc:subject>
    <dc:contributor>
     <cc:Agent>
      <dc:title>ssf</dc:title>
     </cc:Agent>
    </dc:contributor>
    <dc:rights>
     <cc:Agent>
      <dc:title>Sixsixfive (sixisixfive.deviantart.com)</dc:title>
     </cc:Agent>
    </dc:rights>
    <dc:description>A simple icon theme published under CC-BY-SA_V4(http://creativecommons.org/licenses/by-sa/4.0)</dc:description>
    <dc:identifier>SSF</dc:identifier>
   </cc:Work>
  </rdf:RDF>
 </metadata>
 <!--Part of the Ivy icon them published under the CC-BY-SA_V4: http://creativecommons.org/licenses/by-sa/4.0 -->
</svg>
