<?xml version="1.0" encoding="UTF-8" standalone="no"?><svg xmlns:cc="http://creativecommons.org/ns#" xmlns:rdf="http://www.w3.org/1999/02/22-rdf-syntax-ns#" xmlns:svg="http://www.w3.org/2000/svg" id="svg2" viewBox="0 0 48 48" version="1.1" xmlns:dc="http://purl.org/dc/elements/1.1/" xmlns="http://www.w3.org/2000/svg"><defs id="defs4"><linearGradient id="0" x2="0" y2="43.484" gradientTransform="matrix(1.0038 0 0 1.0014 -0.09 -0.545)" y1="5.538" gradientUnits="userSpaceOnUse"><stop id="stop7" stop-color="#fff"/><stop offset="1" id="stop9" stop-color="#fff" stop-opacity="0"/></linearGradient><linearGradient id="1" x2="46.2" y2="44.24" x1="45.934" y1="3.973" gradientUnits="userSpaceOnUse"><stop id="stop12" stop-color="#ed4c70"/><stop offset="1" id="stop14" stop-color="#f2829c"/></linearGradient></defs><path id="path16" opacity="0.2" d="M 13.5206 5.0865 C 7.14526 5.103705 1.9848 10.31686 2.0017 16.7234 2.03613 29.7567 15.1282 33.139 24.0774 46 32.47224 33.1718 46.0315 29.2232 45.9981 16.606 45.981059 10.19942 40.79327 5.0137 34.4179 5.0307 29.79348 5.04328 25.8206 7.79758 23.9869 11.75023 22.13232 7.80742 18.14494 5.07411 13.5205 5.08645 z"/><path id="path18" d="M 13.5206 4.0865 C 7.14526 4.103705 1.9848 9.31686 2.0017 15.7234 2.03613 28.7567 15.1282 32.139 24.0774 45 32.47224 32.1718 46.0315 28.2232 45.9981 15.606 45.981059 9.19942 40.79327 4.0137 34.4179 4.0307 29.79348 4.04328 25.8206 6.79758 23.9869 10.75023 22.13232 6.80742 18.14494 4.07411 13.5205 4.08645 z" fill="url(#1)"/><path id="path20" d="m 38.1562,12.0428 -1.0625,6.5625 c -0.918909,0.278142 -1.81354,0.665005 -2.65625,1.125 l -5.3438,-4 -4.2812,4.1875 3.9375,5.4062 c -0.472477,0.843325 -0.867312,1.73378 -1.15625,2.65625 l -6.5938,0.9688 -0.0312,5.9687 6.5625,1.0625 c 0.255392,0.84375 0.621996,1.6567 1.03125,2.4375 1.52449,-1.65217 3.07036,-3.17461 4.625,-4.59375 -0.854753,-3.75412 1.12943,-7.65985 4.8125,-9.15625 1.58297,-0.643148 3.23275,-0.731572 4.78125,-0.375 1.20992,-1.66815 2.14417,-3.45721 2.6875,-5.46875 -0.1358,-0.04719 -0.269058,-0.113278 -0.40625,-0.15625 l -0.9375,-6.5938 -5.9688,-0.0312 z" fill="#6a6a6a"/><path id="path22" opacity="0.621" d="m 38.1562,14.0312 -1.0625,6.5625 c -0.918909,0.278142 -1.81354,0.665005 -2.65625,1.125 l -5.3438,-4 -4.2812,4.1875 3.9375,5.4062 c -0.472477,0.843325 -0.867312,1.73378 -1.15625,2.65625 l -6.5938,0.9688 -0.0312,5.9688 6.5625,1.0625 c 0.177965,0.587952 0.42473,1.16117 0.6875,1.71875 1.57746,-1.74164 3.19397,-3.3309 4.8125,-4.8125 -0.351764,-3.44435 1.5962,-6.84851 4.96875,-8.21875 1.33269,-0.541461 2.70416,-0.679419 4.03125,-0.5 1.35072,-1.67812 2.43711,-3.46827 3.125,-5.46875 -0.03079,-0.01163 -0.06263,-0.0215 -0.09375,-0.03125 l -0.9375,-6.5938 -5.9688,-0.0312 z" fill="#fff"/><path id="path24" d="m 38.1562,12.9688 -1.0625,6.5625 c -0.918909,0.278142 -1.81354,0.665005 -2.65625,1.125 l -5.3438,-4 -4.2812,4.1875 3.9375,5.4062 c -0.472477,0.843325 -0.867312,1.73378 -1.15625,2.65625 l -6.5938,0.9688 -0.0312,5.9688 6.5625,1.0625 c 0.255392,0.84375 0.621996,1.6567 1.03125,2.4375 1.52449,-1.65217 3.07036,-3.17461 4.625,-4.59375 -0.854753,-3.75412 1.12943,-7.65985 4.8125,-9.15625 1.58297,-0.643148 3.23275,-0.731572 4.78125,-0.375 1.20992,-1.66815 2.14417,-3.45721 2.6875,-5.46875 -0.1358,-0.04719 -0.269058,-0.113278 -0.40625,-0.15625 l -0.9375,-6.5938 -5.9688,-0.0312 z" fill="#ebebeb"/><g id="g26" stroke-miterlimit="100" fill="none"><path id="path28" opacity="0.4" d="m 34.414,4.5242 c -4.42871,0.012048 -8.21775,2.65905 -9.97488,6.44659 a 0.492157,0.491005 0 0 1 -0.878292,0 c -1.77623,-3.77623 -5.60844,-6.39582 -10.0376,-6.38401 -6.10693,0.01648 -11.0262,4.9975 -11.01,11.1407 0.016783,6.35304 3.16935,10.2833 7.52821,14.3327 4.23092,3.93054 9.57051,7.93434 14.0213,14.1137 4.1967,-6.17258 9.52462,-10.2853 13.8017,-14.3014 4.40873,-4.13975 7.63852,-8.1372 7.62231,-14.2701 -0.01634,-6.14315 -4.96577,-11.0944 -11.0727,-11.0781 z" stroke="#000"/><path id="path30" opacity="0.4" d="m 34.414,5.4943 c -4.0337,0.010974 -7.46269,2.42901 -9.06522,5.8833 a 1.48552,1.48204 0 0 1 -2.69761,0 C 21.0331,7.9376 17.5583,5.54612 13.52321,5.55689 7.95803,5.571908 3.47081,10.11585 3.48561,15.72749 c 0.015911,6.02286 2.9183,9.62174 7.21454,13.613 3.92742,3.64859 8.95256,7.52777 13.3312,13.2374 4.1641,-5.71542 9.17086,-9.72669 13.143,-13.4565 4.35311,-4.08751 7.35527,-7.74069 7.34001,-13.5191 -0.01493,-5.61145 -4.53505,-10.1229 -10.1003,-10.108 z" stroke="url(#0)"/></g><metadata id="metadata9999"><rdf:RDF><cc:Work><dc:format>image/svg+xml</dc:format><dc:type rdf:resource="http://purl.org/dc/dcmitype/StillImage"/><dc:title>Ivy icon theme</dc:title><cc:license rdf:resource="http://creativecommons.org/licenses/by-sa/4.0/"/><dc:creator><cc:Agent><dc:title>Sixsixfive (sixsixfive.deviantart.com)</dc:title></cc:Agent></dc:creator><dc:publisher><cc:Agent><dc:title>Sixsixfive (sixsixfive.deviantart.com)</dc:title></cc:Agent></dc:publisher><dc:source>https://github.com/sixsixfive</dc:source><dc:subject><rdf:Bag><rdf:li>ivy</rdf:li></rdf:Bag></dc:subject><dc:contributor><cc:Agent><dc:title>ssf</dc:title></cc:Agent></dc:contributor><dc:rights><cc:Agent><dc:title>Sixsixfive (sixisixfive.deviantart.com)</dc:title></cc:Agent></dc:rights><dc:description>A simple icon theme published under CC-BY-SA_V4(http://creativecommons.org/licenses/by-sa/4.0)</dc:description><dc:identifier>SSF</dc:identifier></cc:Work></rdf:RDF></metadata><!--Part of the Ivy icon them published under the CC-BY-SA_V4: http://creativecommons.org/licenses/by-sa/4.0 -->
</svg>