<?xml version="1.0" encoding="UTF-8" standalone="no"?><svg viewBox="0 0 48 48" xmlns:svg="http://www.w3.org/2000/svg" xmlns="http://www.w3.org/2000/svg" xmlns:rdf="http://www.w3.org/1999/02/22-rdf-syntax-ns#" version="1.1" id="svg2" xmlns:dc="http://purl.org/dc/elements/1.1/" xmlns:cc="http://creativecommons.org/ns#"><defs id="defs4"><linearGradient x1="43.917" y1="7.06" x2="43.928" y2="41.3" id="0" gradientUnits="userSpaceOnUse"><stop id="stop7" stop-color="#fff"/><stop stop-opacity="0" offset="1" id="stop9" stop-color="#fff"/></linearGradient><radialGradient gradientTransform="matrix(1.54732 -1.57385 1.5426 1.5166 -83.85 6.699)" cy="45.915" id="1" r="17" cx="23.797" gradientUnits="userSpaceOnUse"><stop id="stop12"/><stop offset="1" id="stop14" stop-color="#171717"/></radialGradient></defs><rect y="7" x="3" opacity="0.1" ry="2" rx="2" height="36" id="rect16" width="42"/><rect y="6" x="3" ry="2" rx="2" height="36" id="rect18" width="42" fill="#ddd"/><path id="path20" d="M 7 10 V 34 H 41 V 10 H 7 z" fill="url(#1)"/><path opacity="0.1" id="path22" d="m 10 11 v 1 h -1 v 1 h -1 v 4 v 1 v 1 v 1 h 1 v -1 h 1 v -1 h 1 v -1 h 1 v -1 h 1 v -1 h 1 v -1 h 1 v -1 h 1 v -1 h 1 v -1 h -1 h -1 h -1 h -4 z" fill="#fff"/><path id="path24" d="m 9 11 v 1 h -1 v 4 v 1 v 1 v 1 h 1 v -1 h 1 v -1 h 1 v -1 h 1 v -1 h 1 v -1 h 1 v -1 h 1 v -1 h 1 v -1 h -1 h -1 h -1 h -4 z"/><g id="g26" fill="none"><path stroke="#000" opacity="0.4" id="path28" d="M 5,6.5 C 4.161723,6.5 3.5,7.161723 3.5,8 l 0,32 c 0,0.838277 0.661723,1.5 1.5,1.5 l 38,0 c 0.838277,0 1.5,-0.661723 1.5,-1.5 l 0,-32 C 44.5,7.161723 43.838277,6.5 43,6.5 l -38,0 z"/><path stroke="url(#0)" id="path30" d="M 5,7.5 C 4.699797,7.5 4.5,7.699797 4.5,8 l 0,32 c 0,0.300203 0.199797,0.5 0.5,0.5 l 38,0 c 0.300203,0 0.5,-0.199797 0.5,-0.5 l 0,-32 C 43.5,7.699797 43.3002,7.5 43,7.5 l -38,0 z"/></g><path opacity="0.8" id="path32" d="M 7,34 H41 V35 H7 z" fill="#fff"/><path id="path34" d="m 8 11 v 4 v 1 v 1 v 1 h 1 v -1 h 1 v -1 h 1 v -1 h 1 v -1 h 1 v -1 h 1 v -1 h 1 v -1 h -1 h -1 h -1 h -4 z" fill="#ed4c70"/><path stroke="#000" id="path36" d="m 7.625 10.625 v 22.75 h 32.75 v -22.75 h -32.75 z" fill="none"/><metadata id="metadata9999"><rdf:RDF><cc:Work><dc:format>image/svg+xml</dc:format><dc:type rdf:resource="http://purl.org/dc/dcmitype/StillImage"/><dc:title>Ivy icon theme</dc:title><cc:license rdf:resource="http://creativecommons.org/licenses/by-sa/4.0/"/><dc:creator><cc:Agent><dc:title>Sixsixfive (sixsixfive.deviantart.com)</dc:title></cc:Agent></dc:creator><dc:publisher><cc:Agent><dc:title>Sixsixfive (sixsixfive.deviantart.com)</dc:title></cc:Agent></dc:publisher><dc:source>https://github.com/sixsixfive</dc:source><dc:subject><rdf:Bag><rdf:li>ivy</rdf:li></rdf:Bag></dc:subject><dc:contributor><cc:Agent><dc:title>ssf</dc:title></cc:Agent></dc:contributor><dc:rights><cc:Agent><dc:title>Sixsixfive (sixisixfive.deviantart.com)</dc:title></cc:Agent></dc:rights><dc:description>A simple icon theme published under CC-BY-SA_V4(http://creativecommons.org/licenses/by-sa/4.0)</dc:description><dc:identifier>SSF</dc:identifier></cc:Work></rdf:RDF></metadata><!--Part of the Ivy icon them published under the CC-BY-SA_V4: http://creativecommons.org/licenses/by-sa/4.0 -->
</svg>