<?xml version="1.0" encoding="UTF-8" standalone="no"?><svg xmlns:cc="http://creativecommons.org/ns#" xmlns:rdf="http://www.w3.org/1999/02/22-rdf-syntax-ns#" xmlns:svg="http://www.w3.org/2000/svg" id="svg2" viewBox="0 0 48 48" version="1.1" xmlns:dc="http://purl.org/dc/elements/1.1/" xmlns="http://www.w3.org/2000/svg"><defs id="defs4"><linearGradient id="0" x2="0" y2="44" y1="1" gradientUnits="userSpaceOnUse"><stop id="stop7" stop-color="#fff"/><stop offset="1" id="stop9" stop-color="#fff" stop-opacity="0"/></linearGradient><linearGradient id="1" x2="0" y2="12" gradientTransform="matrix(1.47619 0 0 1.5 0.143 0)" y1="0" gradientUnits="userSpaceOnUse"><stop id="stop12" stop-color="#fff"/><stop offset="1" id="stop14" stop-color="#fff" stop-opacity="0.635"/></linearGradient><mask id="2"><path id="path17" d="M 9,0 H24 V18 H9 z" fill="#fff"/></mask><radialGradient r="10.5" cx="16.5" id="3" cy="15" gradientTransform="matrix(2.46032 0 0 2.14286 -16.1 -9.643)" gradientUnits="userSpaceOnUse"><stop id="stop20" stop-color="#ebebeb"/><stop offset="1" id="stop22" stop-color="#b8b8b8"/></radialGradient></defs><path id="path24" opacity="0.1" d="M 20.809524 1 C 14.267048 1 9 6.352 9 13 9 26.5 9 13 9 26.5 9 37.303 15.913 46 24.5 46 33.087 46 40 37.303 40 26.5 40 13 40 26.5 40 13 40 6.352 34.732952 1 28.19048 1 z"/><path id="path26" d="M 20.809524 0 C 14.267048 0 9 5.352 9 12 9 25.5 9 12 9 25.5 9 36.303 15.913 45 24.5 45 33.087 45 40 36.303 40 25.5 40 12 40 25.5 40 12 40 5.352 34.732952 0 28.19048 0 z" fill="url(#3)"/><path id="path28" opacity="0.59" d="M 20.809524 0 C 14.267048 0 9 5.352 9 12 V 18 H 23.761905 H 40 V 12 C 40 5.352 34.732952 0 28.19048 0 h -4.428571 h -2.952381 z" fill="url(#1)"/><path mask="url(#2)" id="path30" opacity="0.65" d="M 20.809524 0 C 14.267048 0 9 5.352 9 12 V 18 H 23.761905 H 40 V 12 C 40 5.352 34.732952 0 28.19048 0 h -4.428571 h -2.952381 z" transform="matrix(-1 0 0 1 49 0)" fill="#ff8b36"/><path id="path32" d="M 22,10 H27 V18 H22 z" fill="#cecece"/><path id="path34" opacity="0.4" d="M 24,1 H25 V9 H24 z"/><path id="path36" opacity="0.4" d="M 21,10 H22 V18 H21 z"/><path id="path38" opacity="0.4" d="M 27,10 H28 V18 H27 z"/><path id="path40" opacity="0.4" d="M 9,-27 H10 V-22 H9 z" transform="matrix(0 1 -1 0 0 0)"/><g id="g42" fill="#fff"><path id="path44" opacity="0.4" d="m 11,19 27,0 0,1 -27,0 z"/><path id="path46" opacity="0.4" d="m 22,10 5,0 0,1 -5,0 z"/></g><g id="g48" fill="none"><path id="path50" opacity="0.4" d="M 20.8125,0.53125 C 14.567122,0.53125 9.53125,5.639904 9.53125,12 l 0,13.5 c 0,10.570593 6.749586,18.96875 14.96875,18.96875 8.219164,0 14.96875,-8.398157 14.96875,-18.96875 l 0,-13.5 c 0,-6.360096 -5.03587,-11.46875 -11.28125,-11.46875 l -7.375,0 z" stroke="#000"/><path id="path52" opacity="0.8" d="M 20.8125,1.53125 C 15.1115,1.53125 10.53125,6.167435 10.53125,12 l 0,13.5 c 0,10.144751 6.423578,17.96875 13.96875,17.96875 7.545172,0 13.96875,-7.823999 13.96875,-17.96875 l 0,-13.5 C 38.46875,6.167435 33.8885,1.53125 28.1875,1.53125 l -7.375,0 z" stroke="url(#0)"/></g><path id="path54" opacity="0.4" d="M 10,18 H39 V19 H10 z"/><metadata id="metadata9999"><rdf:RDF><cc:Work><dc:format>image/svg+xml</dc:format><dc:type rdf:resource="http://purl.org/dc/dcmitype/StillImage"/><dc:title>Ivy icon theme</dc:title><cc:license rdf:resource="http://creativecommons.org/licenses/by-sa/4.0/"/><dc:creator><cc:Agent><dc:title>Sixsixfive (sixsixfive.deviantart.com)</dc:title></cc:Agent></dc:creator><dc:publisher><cc:Agent><dc:title>Sixsixfive (sixsixfive.deviantart.com)</dc:title></cc:Agent></dc:publisher><dc:source>https://github.com/sixsixfive</dc:source><dc:subject><rdf:Bag><rdf:li>ivy</rdf:li></rdf:Bag></dc:subject><dc:contributor><cc:Agent><dc:title>ssf</dc:title></cc:Agent></dc:contributor><dc:rights><cc:Agent><dc:title>Sixsixfive (sixisixfive.deviantart.com)</dc:title></cc:Agent></dc:rights><dc:description>A simple icon theme published under CC-BY-SA_V4(http://creativecommons.org/licenses/by-sa/4.0)</dc:description><dc:identifier>SSF</dc:identifier></cc:Work></rdf:RDF></metadata><!--Part of the Ivy icon them published under the CC-BY-SA_V4: http://creativecommons.org/licenses/by-sa/4.0 -->
</svg>