<?xml version="1.0" encoding="UTF-8" standalone="no"?><svg xmlns:cc="http://creativecommons.org/ns#" viewBox="0 0 48 48" version="1.1" id="svg2" xmlns:svg="http://www.w3.org/2000/svg" xmlns="http://www.w3.org/2000/svg" xmlns:rdf="http://www.w3.org/1999/02/22-rdf-syntax-ns#" xmlns:dc="http://purl.org/dc/elements/1.1/"><defs id="0"><linearGradient x2="0" gradientUnits="userSpaceOnUse" y2="45" id="2" y1="4"><stop stop-color="#fff" id="8"/><stop offset="1" stop-opacity="0" stop-color="#fff" id="9"/></linearGradient><linearGradient x2="0" gradientUnits="userSpaceOnUse" y2="46" id="4" gradientTransform="matrix(1.01204 0 0 0.99986 -0.479 0.003)" y1="3"><stop stop-color="#919191" id="C"/><stop offset="1" stop-color="#c2c2c2" id="D"/></linearGradient></defs><g opacity="0.5" id="1"><path opacity="0.15" id="5" d="M 33.14042,4.00386 C 30.508197,4.030986 27.417903,4.678759 24.210888,5.056766 20.160949,4.739248 16.306663,3.851496 13.268576,4.216373 c -1.527357,0.183434 -2.89224,0.72499 -3.827414,1.878806 -0.935174,1.153823 -1.405146,2.833823 -1.405147,5.19208 0,4.119495 0.79459,7.235553 2.87634,12.823236 -0.365498,4.774574 -0.0097,10.278115 0.602678,14.619938 0.309148,2.191817 0.682934,4.083039 1.069958,5.449669 0.193513,0.683319 0.385975,1.233523 0.601025,1.653418 0.107526,0.209945 0.21604,0.388878 0.373166,0.550606 0.06363,0.06546 0.14975,0.129778 0.246024,0.186749 6.54e-4,4.13e-4 10e-4,0.0013 0.0016,0.0013 0.05638,0.08952 0.130938,0.175892 0.234468,0.255985 0.208472,0.161282 0.57127,0.211989 0.807422,0.130401 0.472306,-0.163167 0.631501,-0.467456 0.852003,-0.830728 0.441006,-0.726543 0.891547,-1.86753 1.360566,-3.347081 0.932317,-2.941062 1.883068,-7.168582 2.38264,-11.466047 1.012782,-2.984831 6.556436,-3.057992 7.516131,0.186749 0.362081,4.114568 1.588972,8.095 2.828455,10.957306 0.623966,1.440905 1.245262,2.593811 1.789871,3.364791 0.272303,0.38549 0.51109,0.674794 0.805771,0.887083 0.147339,0.106146 0.318061,0.210253 0.581211,0.225388 0.189035,0.01088 0.406734,-0.07516 0.568005,-0.196407 l 0.0016,0.0013 c 0.0057,-0.0039 0.0094,-0.0074 0.01486,-0.01127 0.0024,-0.002 0.0043,-0.0033 0.0066,-0.0046 0.0018,-0.0013 0.0031,-0.0033 0.005,-0.0046 0.19366,-0.139364 0.273181,-0.278499 0.363259,-0.434683 0.09455,-0.163955 0.180361,-0.352296 0.26914,-0.573144 0.177561,-0.441681 0.361817,-1.014596 0.553143,-1.708148 0.382649,-1.387113 0.790475,-3.252206 1.154169,-5.402985 0.718854,-4.251043 1.264957,-9.603189 1.076567,-14.481484 3.00553,-5.162147 3.02502,-8.939429 3.02502,-12.832895 0,-2.798064 -0.657099,-4.675835 -1.918658,-5.826395 C 36.82261,4.310197 35.07631,3.983795 33.14056,4.00376 Z"/><path fill="url(#4)" id="6" d="M 33.14042,3.00399 C 30.508193,3.03111 27.417899,3.678886 24.21088,4.056894 20.16095,3.739376 16.306659,2.851623 13.268572,3.2165 11.741215,3.399934 10.376332,3.94149 9.441158,5.095306 8.505984,6.249129 8.03601,7.92913 8.03601,10.28739 c 0,4.119495 0.79459,7.235553 2.87634,12.823236 -0.365498,4.774574 -0.0097,10.278115 0.602678,14.619938 0.309148,2.191816 0.682934,4.083039 1.069958,5.449669 0.193513,0.683319 0.385975,1.233523 0.601025,1.653418 0.107526,0.209945 0.21604,0.388878 0.373166,0.550605 0.06363,0.06546 0.14975,0.129778 0.246024,0.18675 6.54e-4,4.13e-4 10e-4,0.0013 0.0016,0.0013 0.05638,0.08952 0.130938,0.175893 0.234468,0.255986 0.208472,0.161282 0.57127,0.211989 0.807422,0.130401 0.472306,-0.163167 0.631501,-0.467456 0.852003,-0.830728 0.441006,-0.726543 0.891547,-1.86753 1.360566,-3.347081 0.932317,-2.941062 1.883068,-7.168582 2.38264,-11.466047 1.012782,-2.984831 6.556436,-3.057992 7.516131,0.186749 0.362081,4.114568 1.588972,8.095 2.828455,10.957306 0.623966,1.440905 1.245262,2.593811 1.789871,3.364791 0.272303,0.38549 0.51109,0.674794 0.805771,0.887083 0.147339,0.106146 0.318061,0.210252 0.581211,0.225388 0.189035,0.01088 0.406734,-0.07516 0.568005,-0.196408 l 0.0016,0.0013 c 0.0057,-0.0039 0.0094,-0.0074 0.01486,-0.01127 0.0024,-0.002 0.0043,-0.0033 0.0066,-0.0046 0.0018,-0.0013 0.0031,-0.0033 0.005,-0.0046 0.19366,-0.139364 0.273181,-0.2785 0.363259,-0.434683 0.09455,-0.163955 0.180361,-0.352296 0.26914,-0.573144 0.177561,-0.441681 0.361817,-1.014596 0.553143,-1.708149 0.382649,-1.387112 0.790475,-3.252205 1.154169,-5.402985 0.718854,-4.251043 1.264957,-9.603189 1.076567,-14.481483 3.00553,-5.162147 3.02502,-8.93943 3.02502,-12.832895 0,-2.798068 -0.657099,-4.675839 -1.918658,-5.826398 C 36.82261,3.31032 35.07631,2.983918 33.14056,3.00388 Z"/><g fill="none" id="7" transform="matrix(1.01204 0 0 0.99986 -0.479 0.003)"><path opacity="0.4" stroke="#000" id="E" d="m 33.21875,3.46875 c -2.524864,0.026337 -5.552381,0.68101 -8.75,1.0625 a 0.474393,0.474393 0 0 1 -0.09375,0 C 20.32714,4.21003 16.518656,3.339536 13.65625,3.6875 12.223661,3.861648 11.01579,4.340615 10.1875,5.375 9.353101,6.417024 8.875001,7.987316 8.875,10.28125 c 0,4.059676 0.761835,7.116221 2.8125,12.6875 a 0.474393,0.474393 0 0 1 0.03125,0.1875 c -0.357357,4.725072 -0.0073,10.186821 0.59375,14.5 0.303352,2.176915 0.689315,4.072437 1.0625,5.40625 0.187123,0.668802 0.374289,1.190535 0.5625,1.5625 0.0885,0.174908 0.153915,0.27359 0.28125,0.40625 0.01147,0.01194 0.08199,0.08052 0.15625,0.125 a 0.474393,0.474393 0 0 1 0.15625,0.15625 c 0.06743,0.108364 0.08809,0.15182 0.09375,0.15625 0.02099,0.01644 0.342033,0.07403 0.375,0.0625 0.317605,-0.111059 0.365645,-0.275876 0.59375,-0.65625 0.396662,-0.661446 0.854199,-1.786653 1.3125,-3.25 0.909649,-2.904504 1.822542,-7.108915 2.3125,-11.375 A 0.474393,0.474393 0 0 1 19.25,30.15625 c 0.583062,-1.739306 2.419333,-2.578238 4.1875,-2.5625 1.768167,0.01574 3.61274,0.921255 4.15625,2.78125 a 0.474393,0.474393 0 0 1 0,0.09375 c 0.352147,4.050416 1.543944,7.993469 2.75,10.8125 0.606149,1.416809 1.206366,2.515806 1.71875,3.25 0.267236,0.382924 0.480675,0.661688 0.6875,0.8125 0.12616,0.09199 0.159346,0.116084 0.3125,0.125 0.03176,0.0018 0.143318,-0.04844 0.21875,-0.09375 0.0084,-0.0079 0.06183,-0.03077 0.0625,-0.03125 0.127665,-0.09299 0.171417,-0.174588 0.25,-0.3125 0.0701,-0.123032 0.130249,-0.277162 0.21875,-0.5 0.167758,-0.422379 0.346553,-0.978574 0.53125,-1.65625 0.371316,-1.362423 0.767411,-3.234572 1.125,-5.375 0.706088,-4.226401 1.246818,-9.512772 1.0625,-14.34375 a 0.474393,0.474393 0 0 1 0.0625,-0.28125 c 2.920483,-5.077164 2.9375,-8.702202 2.9375,-12.59375 0,-2.723907 -0.629688,-4.434566 -1.75,-5.46875 -1.120999,-1.034905 -2.708615,-1.363103 -4.5625,-1.34375 z"/><path opacity="0.4" stroke="url(#2)" id="F" d="m 33.21875,4.46875 c -2.364831,0.024667 -5.366874,0.673791 -8.625,1.0625 a 1.472693,1.472693 0 0 1 -0.3125,0 C 20.13638,5.202332 16.350008,4.375233 13.78125,4.6875 12.509855,4.842053 11.595517,5.217277 10.96875,6 10.323009,6.806421 9.875001,8.123366 9.875,10.28125 c 0,3.932599 0.712638,6.808614 2.75,12.34375 a 1.472693,1.472693 0 0 1 0.09375,0.625 c -0.349374,4.619517 0.0013,9.998356 0.59375,14.25 0.298894,2.144921 0.646248,4.01689 1,5.28125 0.17852,0.638054 0.362886,1.135269 0.5,1.40625 0.309172,-0.55435 0.704643,-1.501558 1.125,-2.84375 0.885287,-2.826716 1.799019,-6.988695 2.28125,-11.1875 a 1.472693,1.472693 0 0 1 0.0625,-0.3125 c 0.757085,-2.258424 3.067336,-3.268593 5.15625,-3.25 2.088914,0.01859 4.404257,1.140426 5.09375,3.5 a 1.472693,1.472693 0 0 1 0.0625,0.28125 c 0.340306,3.914223 1.48951,7.772866 2.65625,10.5 0.584276,1.365683 1.198046,2.437191 1.65625,3.09375 0.01621,0.02322 0.01591,0.0097 0.03125,0.03125 0.139597,-0.368021 0.314235,-0.808066 0.46875,-1.375 0.357046,-1.310065 0.739904,-3.163228 1.09375,-5.28125 0.697219,-4.173313 1.211715,-9.426258 1.03125,-14.15625 a 1.472693,1.472693 0 0 1 0.1875,-0.78125 c 2.816751,-4.89683 2.8125,-8.238618 2.8125,-12.125 0,-2.567031 -0.582844,-3.929798 -1.4375,-4.71875 -0.8571,-0.791274 -2.144935,-1.11181 -3.875,-1.09375 z"/></g></g><metadata id="metadata9999"><rdf:RDF><cc:Work><dc:format>image/svg+xml</dc:format><dc:type rdf:resource="http://purl.org/dc/dcmitype/StillImage"/><dc:title>Ivy icon theme</dc:title><cc:license rdf:resource="http://creativecommons.org/licenses/by-sa/4.0/"/><dc:creator><cc:Agent><dc:title>Sixsixfive (sixsixfive.deviantart.com)</dc:title></cc:Agent></dc:creator><dc:publisher><cc:Agent><dc:title>Sixsixfive (sixsixfive.deviantart.com)</dc:title></cc:Agent></dc:publisher><dc:source>https://github.com/sixsixfive</dc:source><dc:subject><rdf:Bag><rdf:li>ivy</rdf:li></rdf:Bag></dc:subject><dc:contributor><cc:Agent><dc:title>ssf</dc:title></cc:Agent></dc:contributor><dc:rights><cc:Agent><dc:title>Sixsixfive (sixisixfive.deviantart.com)</dc:title></cc:Agent></dc:rights><dc:description>A simple icon theme published under CC-BY-SA_V4(http://creativecommons.org/licenses/by-sa/4.0)</dc:description><dc:identifier>SSF</dc:identifier></cc:Work></rdf:RDF></metadata><!--Part of the Ivy icon them published under the CC-BY-SA_V4: http://creativecommons.org/licenses/by-sa/4.0 -->
</svg>