<?xml version="1.0" encoding="UTF-8" standalone="no"?><svg xmlns:cc="http://creativecommons.org/ns#" viewBox="0 0 48 48" version="1.1" id="svg2" xmlns:svg="http://www.w3.org/2000/svg" xmlns:rdf="http://www.w3.org/1999/02/22-rdf-syntax-ns#" xmlns="http://www.w3.org/2000/svg" xmlns:dc="http://purl.org/dc/elements/1.1/"><defs id="defs4"><linearGradient x2="27.469" gradientUnits="userSpaceOnUse" x1="54.08" id="0" y2="49.988" gradientTransform="matrix(0.71267 -0.71114 0.71267 0.71114 -12.231 26.931)" y1="23.375"><stop stop-color="#fff" id="stop7"/><stop offset="1" stop-opacity="0" stop-color="#fff" id="stop9"/></linearGradient><linearGradient x2="0" gradientUnits="userSpaceOnUse" id="1" y2="44" y1="4"><stop stop-color="#d02604" id="stop12"/><stop offset="1" stop-color="#fb5736" id="stop14"/></linearGradient><radialGradient r="20.03" gradientUnits="userSpaceOnUse" cx="26.544" cy="44.542" id="2" gradientTransform="matrix(0.59904 0 0 0.04926 8.099 41.82)"><stop stop-opacity="0.2" id="stop17"/><stop offset="1" stop-opacity="0" id="stop19"/></radialGradient></defs><path fill="url(#2)" id="path21" d="m 36.0016 44.0139 a 12.0017 0.986877 0 0 1 -24.0034 0 12.0017 0.986877 0 1 1 24.0034 0 z"/><path fill-rule="evenodd" fill="url(#1)" id="path23" d="m 16.2442,4.0936 -12.1889,12.037 0,15.9026 12.0314,11.9112 16.1889,0 11.7165,-11.157 V 16.2562 L 32.0552,4.0935 l -15.8109,0 z"/><path opacity="0.711" id="path25" d="m 36 26 v -7 h -24 v 7 h 24 z"/><path opacity="0.66" fill="none" id="path27" stroke="#000" stroke-width="1.01" d="m 4.5611,16.3529 -0.0223,15.445 11.7813,11.6671 15.7233,0 11.4473,-10.8893 0,-16.0895 -11.67,-11.9115 -15.367,0 L 4.561,16.3529 z"/><path fill="#fff" id="path29" d="m 36 27 v -7 h -24 v 7 h 24 z"/><path opacity="0.49" fill="none" id="path31" stroke="url(#0)" stroke-width="1.01" d="m 5.5855,16.753 -0.0223,14.645 11.1577,11.0448 14.9215,0 10.8237,-10.267 0,-15.2894 -11.0464,-11.2893 -14.5652,0 -11.2691,11.156 z"/><metadata id="metadata9999"><rdf:RDF><cc:Work><dc:format>image/svg+xml</dc:format><dc:type rdf:resource="http://purl.org/dc/dcmitype/StillImage"/><dc:title>Ivy icon theme</dc:title><cc:license rdf:resource="http://creativecommons.org/licenses/by-sa/4.0/"/><dc:creator><cc:Agent><dc:title>Sixsixfive (sixsixfive.deviantart.com)</dc:title></cc:Agent></dc:creator><dc:publisher><cc:Agent><dc:title>Sixsixfive (sixsixfive.deviantart.com)</dc:title></cc:Agent></dc:publisher><dc:source>https://github.com/sixsixfive</dc:source><dc:subject><rdf:Bag><rdf:li>ivy</rdf:li></rdf:Bag></dc:subject><dc:contributor><cc:Agent><dc:title>ssf</dc:title></cc:Agent></dc:contributor><dc:rights><cc:Agent><dc:title>Sixsixfive (sixisixfive.deviantart.com)</dc:title></cc:Agent></dc:rights><dc:description>A simple icon theme published under CC-BY-SA_V4(http://creativecommons.org/licenses/by-sa/4.0)</dc:description><dc:identifier>SSF</dc:identifier></cc:Work></rdf:RDF></metadata><!--Part of the Ivy icon them published under the CC-BY-SA_V4: http://creativecommons.org/licenses/by-sa/4.0 -->
</svg>