<?xml version="1.0" encoding="UTF-8" standalone="no"?><svg xmlns:cc="http://creativecommons.org/ns#" xmlns:dc="http://purl.org/dc/elements/1.1/" xmlns="http://www.w3.org/2000/svg" xmlns:svg="http://www.w3.org/2000/svg" xmlns:rdf="http://www.w3.org/1999/02/22-rdf-syntax-ns#" id="svg2" version="1.1" viewBox="0 0 48 48"><defs id="defs4"><linearGradient gradientUnits="userSpaceOnUse" id="0" x1="20" x2="28"><stop id="stop7" stop-color="#ebebeb"/><stop id="stop9" stop-color="#898989" offset="1"/></linearGradient><linearGradient gradientUnits="userSpaceOnUse" y1="4" id="1" y2="9" x2="0"><stop id="stop12"/><stop stop-opacity="0" id="stop14" offset="1"/></linearGradient><linearGradient gradientUnits="userSpaceOnUse" y1="37" id="2" y2="44" x2="0"><stop id="stop17" stop-color="#4f8730"/><stop id="stop19" stop-color="#66b03e" offset="1"/></linearGradient><linearGradient gradientUnits="userSpaceOnUse" id="3" x1="11" x2="37"><stop id="stop22" stop-color="#66b03e"/><stop id="stop24" stop-color="#9dd37f" offset="0.269"/><stop id="stop26" stop-color="#66b03e" offset="1"/></linearGradient><linearGradient gradientUnits="userSpaceOnUse" y1="5" id="4" y2="45" x2="0"><stop id="stop29" stop-color="#fff"/><stop stop-opacity="0" id="stop31" stop-color="#fff" offset="1"/></linearGradient></defs><path opacity="0.2" d="m 11 8 v 35 c 0 2.20914 5.8203 4 13 4 7.1797 0 13 -1.79086 13 -4 V 8 H 11 z" id="path33"/><path d="m 11 7 v 35 c 0 2.20914 5.8203 4 13 4 7.1797 0 13 -1.79086 13 -4 V 7 H 11 z" id="path35" fill="url(#3)"/><path transform="matrix(1 0 0 1.14286 0 -38.29)" opacity="0.561" d="m 37 40.5 a 13 3.5 0 1 1 -26 0 13 3.5 0 1 1 26 0 z" id="path37" fill="#fff"/><path stroke="url(#4)" opacity="0.72" d="m 24 4.5312 c -3.46039 0 -6.60784 0.434624 -8.75 1.09375 -1.05599 0.32492 -1.85447 0.729301 -2.3125 1.0625 -0.464653 0.33802 -0.40625 0.490451 -0.40625 0.3125 v 35 c 0 -0.177951 -0.0584 -0.02552 0.40625 0.3125 0.458027 0.333199 1.25651 0.73758 2.3125 1.0625 2.14216 0.659126 5.28961 1.09375 8.75 1.09375 3.46039 0 6.60784 -0.434624 8.75 -1.09375 1.05599 -0.32492 1.85447 -0.729301 2.3125 -1.0625 0.464654 -0.33802 0.40625 -0.490451 0.40625 -0.3125 v -35 c 0 0.177951 0.0584 0.02552 -0.40625 -0.3125 C 34.604473 6.354251 33.80599 5.94987 32.75 5.62495 30.60784 4.965824 27.46039 4.5312 24 4.5312 z" id="path39" fill="none"/><path transform="matrix(1 0 0 1.14286 0 -39.29)" d="m 37 40.5 a 13 3.5 0 1 1 -26 0 13 3.5 0 1 1 26 0 z" id="path41" fill="url(#2)"/><path stroke="#000" opacity="0.4" d="m 24 3.4688 c -3.55007 0 -6.77535 0.452512 -9.0625 1.15625 -1.14357 0.351869 -2.03423 0.788982 -2.625 1.21875 -0.590773 0.429768 -0.84375 0.814084 -0.84375 1.15625 v 35 c 0 0.342166 0.252977 0.726482 0.84375 1.15625 0.590773 0.429768 1.48143 0.866881 2.625 1.21875 2.28715 0.703738 5.51243 1.15625 9.0625 1.15625 3.55007 0 6.77535 -0.452512 9.0625 -1.15625 1.14357 -0.351869 2.03423 -0.788982 2.625 -1.21875 0.590773 -0.429768 0.84375 -0.814084 0.84375 -1.15625 v -35 C 36.53125 6.657884 36.27827 6.273568 35.6875 5.8438 35.09673 5.414032 34.20607 4.976919 33.0625 4.62505 30.77535 3.921312 27.55007 3.4688 24 3.4688 z" id="path43" fill="none"/><path d="M 20 3.4674 V 7.5 V 8 c 0.547358 0.583813 2.25605 1 4 1 1.74395 0 3.45264 -0.416187 4 -1 V 7.5 V 3.45365 z" id="path45" fill="url(#0)"/><path transform="matrix(0.88889 0 0 0.5 3.111 0.5)" d="m 28 8 a 4.5 3 0 1 1 -9 0 4.5 3 0 1 1 9 0 z" id="path47" fill="#fff"/><path transform="matrix(0.88889 0 0 0.5 3.111 -0.5)" d="m 28 8 a 4.5 3 0 1 1 -9 0 4.5 3 0 1 1 9 0 z" id="path49" fill="#ebebeb"/><path transform="matrix(1 0 0 1 0 -1)" stroke="url(#1)" opacity="0.3" d="m 24 3.5 c -0.833289 0 -1.587257 0.086801 -2.1875 0.25 -0.600243 0.163199 -1.053057 0.417022 -1.21875 0.59375 A 0.48633 0.48633 0 0 1 20.5 4.4375 v 0.0625 v 4 h 7 v -4 v -0.0625 A 0.48633 0.48633 0 0 1 27.40625 4.34375 C 27.24056 4.167022 26.787743 3.913199 26.1875 3.75 25.587257 3.586801 24.833289 3.5 24 3.5 z" id="path51" fill="none"/><g transform="matrix(1 0 0 1 41.4 4.385)" id="g53"><path opacity="0.4" d="m -20.6425,12.6155 7.5117,0 -4.2924,8 6.9751,0 -12.3406,15 3.7558,-12 -5.3655,0 z" id="path55" fill="#fff"/><path opacity="0.64" d="m -20.6425,11.6155 7.5117,0 -4.2924,8 6.9751,0 -12.3406,15 3.7558,-12 -5.3655,0 z" id="path57" fill="#171717"/></g><metadata id="metadata9999"><rdf:RDF><cc:Work><dc:format>image/svg+xml</dc:format><dc:type rdf:resource="http://purl.org/dc/dcmitype/StillImage"/><dc:title>Ivy icon theme</dc:title><cc:license rdf:resource="http://creativecommons.org/licenses/by-sa/4.0/"/><dc:creator><cc:Agent><dc:title>Sixsixfive (sixsixfive.deviantart.com)</dc:title></cc:Agent></dc:creator><dc:publisher><cc:Agent><dc:title>Sixsixfive (sixsixfive.deviantart.com)</dc:title></cc:Agent></dc:publisher><dc:source>https://github.com/sixsixfive</dc:source><dc:subject><rdf:Bag><rdf:li>ivy</rdf:li></rdf:Bag></dc:subject><dc:contributor><cc:Agent><dc:title>ssf</dc:title></cc:Agent></dc:contributor><dc:rights><cc:Agent><dc:title>Sixsixfive (sixisixfive.deviantart.com)</dc:title></cc:Agent></dc:rights><dc:description>A simple icon theme published under CC-BY-SA_V4(http://creativecommons.org/licenses/by-sa/4.0)</dc:description><dc:identifier>SSF</dc:identifier></cc:Work></rdf:RDF></metadata><!--Part of the Ivy icon them published under the CC-BY-SA_V4: http://creativecommons.org/licenses/by-sa/4.0 -->
</svg>