<?xml version="1.0" encoding="UTF-8" standalone="no"?>
<svg xmlns:dc="http://purl.org/dc/elements/1.1/" xmlns:cc="http://creativecommons.org/ns#" xmlns:rdf="http://www.w3.org/1999/02/22-rdf-syntax-ns#" xmlns:svg="http://www.w3.org/2000/svg" xmlns="http://www.w3.org/2000/svg" version="1.1" id="svg2" viewBox="0 0 48 48">
 <defs id="defs4">
  <linearGradient gradientUnits="userSpaceOnUse" x2="24" y2="46" x1="23" y1="21" id="0">
   <stop id="stop7" stop-opacity="0.568" stop-color="#fff"/>
   <stop id="stop9" stop-color="#6a6a6a" offset="1"/>
  </linearGradient>
  <linearGradient gradientUnits="userSpaceOnUse" x2="0" y2="27" y1="21" id="1">
   <stop id="stop12" stop-color="#66b03e"/>
   <stop id="stop14" stop-color="#bfe3ad" offset="1"/>
  </linearGradient>
  <linearGradient gradientUnits="userSpaceOnUse" x2="0" y2="45" y1="3" id="2">
   <stop id="stop17" stop-color="#fff"/>
   <stop id="stop19" stop-opacity="0" stop-color="#fff" offset="1"/>
  </linearGradient>
  <linearGradient gradientUnits="userSpaceOnUse" x2="24" y2="46" x1="11" y1="6" id="3">
   <stop id="stop22" stop-color="#ebebeb"/>
   <stop id="stop24" stop-color="#6a6a6a" offset="1"/>
  </linearGradient>
 </defs>
 <path id="path26" d="m 17,3.0315 -13,15.9688 0,0.0312 -3,0 0,11.9688 3,0 13,15.9688 7,0 V 3.0316 l -7,0 z" opacity="0.2"/>
 <path id="path28" d="m 26 22.0003 v 6 h 4 v -6 h -4 z" opacity="0.2"/>
 <path id="path30" d="M 17.0001,2.0312 4.0002,18 v 0.03125 H 1.00023 v 11.9688 H 4.0002 l 12.9999,15.9688 h 6.99993 V 2.03135 H 17.0001 z" fill="url(#3)"/>
 <path id="path32" d="M 17,2 H24 V46 H17 z" fill="url(#0)"/>
 <g id="g34" transform="translate(26,0)" fill="none" stroke-linejoin="round">
  <path id="path36" d="m -8.75,2.5312 -12.75,15.6562 0,-0.0625 a 0.505183,0.505183 0 0 1 -0.5,0.40625 l -2.5,0 0,10.9688 2.5,0 a 0.505183,0.505183 0 0 1 0.40625,0.1875 l 12.8438,15.7812 6.25,0 0,-42.9375 -6.25,0 z" opacity="0.4" stroke="#000"/>
  <path id="path38" d="m -8.3125,3.4688 -12.25,15.0312 0,-0.3125 A 1.44633,1.44633 0 0 1 -22,19.46875 l -1.5625,0 0,9.09375 1.5625,0 a 1.44633,1.44633 0 0 1 1.125,0.53125 l 12.5625,15.4375 4.875,0 0,-41.0625 -4.875,0 z" opacity="0.66" stroke="url(#2)"/>
 </g>
 <path id="path40" d="M 17,2 H18 V46 H17 z" opacity="0.189"/>
 <path id="path42" d="M 16,4 H17 V43 H16 z" fill="#fff" opacity="0.189"/>
 <path id="path44" d="M 3,18.75 H4 V29.25 H3 z" opacity="0.189"/>
 <path id="path46" d="M 4,18.5 H5 V29 H4 z" fill="#fff" opacity="0.14"/>
 <path id="path48" d="M 26,21 H30 V27 H26 z" fill="url(#1)"/>
 <path id="path50" d="m 26.5 21.5 v 5 h 3 v -5 h -3 z" stroke="#000" fill="none" opacity="0.3"/>
 <path id="path52" d="M 27,22 H29 V23 H27 z" fill="#fff" opacity="0.4"/>
 <metadata id="metadata9999">
  <rdf:RDF>
   <cc:Work>
    <dc:format>image/svg+xml</dc:format>
    <dc:type rdf:resource="http://purl.org/dc/dcmitype/StillImage"/>
    <dc:title>Ivy icon theme</dc:title>
    <cc:license rdf:resource="http://creativecommons.org/licenses/by-sa/4.0/"/>
    <dc:creator>
     <cc:Agent>
      <dc:title>Sixsixfive (sixsixfive.deviantart.com)</dc:title>
     </cc:Agent>
    </dc:creator>
    <dc:publisher>
     <cc:Agent>
      <dc:title>Sixsixfive (sixsixfive.deviantart.com)</dc:title>
     </cc:Agent>
    </dc:publisher>
    <dc:source>https://github.com/sixsixfive</dc:source>
    <dc:subject>
     <rdf:Bag>
      <rdf:li>ivy</rdf:li>
     </rdf:Bag>
    </dc:subject>
    <dc:contributor>
     <cc:Agent>
      <dc:title>ssf</dc:title>
     </cc:Agent>
    </dc:contributor>
    <dc:rights>
     <cc:Agent>
      <dc:title>Sixsixfive (sixisixfive.deviantart.com)</dc:title>
     </cc:Agent>
    </dc:rights>
    <dc:description>A simple icon theme published under CC-BY-SA_V4(http://creativecommons.org/licenses/by-sa/4.0)</dc:description>
    <dc:identifier>SSF</dc:identifier>
   </cc:Work>
  </rdf:RDF>
 </metadata>
 <!--Part of the Ivy icon them published under the CC-BY-SA_V4: http://creativecommons.org/licenses/by-sa/4.0 -->
</svg>
