<?xml version="1.0" encoding="UTF-8" standalone="no"?>
<svg xmlns:dc="http://purl.org/dc/elements/1.1/" xmlns:cc="http://creativecommons.org/ns#" xmlns:rdf="http://www.w3.org/1999/02/22-rdf-syntax-ns#" xmlns:svg="http://www.w3.org/2000/svg" xmlns="http://www.w3.org/2000/svg" xmlns:xlink="http://www.w3.org/1999/xlink" id="svg2" version="1.1" viewBox="0 0 48 48">
 <g transform="matrix(-1,0,0,1,49.000003,0)" id="g4182" opacity="1">
  <path id="path4189" d="m 36.52419,43.742532 c -1.550042,1.149935 -10.114904,-4.375401 -12.030392,-4.376061 -1.915488,-6.6e-4 -10.483994,5.518771 -12.033277,4.367768 -1.549283,-1.151003 0.946694,-11.181878 0.35539,-13.04358 -0.591304,-1.861702 -8.3762868,-8.483098 -7.783754,-10.344392 0.5925328,-1.861294 10.699992,-2.53538 12.250034,-3.685315 1.550043,-1.149935 5.307165,-10.7616146 7.222653,-10.7609544 1.915488,6.601e-4 5.666265,9.6149264 7.215547,10.7659304 1.549283,1.151003 11.656295,1.832054 12.247599,3.693756 0.591304,1.861702 -7.198048,8.477732 -7.79058,10.339026 -0.592534,1.861294 1.896821,11.893887 0.34678,13.043822 z" opacity="0.1" filter="url(#filter4178)" stroke-linejoin="round" stroke-linecap="round"/>
  <path d="m 36.52419,42.742534 c -1.550042,1.149935 -10.114904,-4.375401 -12.030392,-4.376061 -1.915488,-6.6e-4 -10.483994,5.518771 -12.033277,4.367768 -1.549283,-1.151003 0.946694,-11.181878 0.35539,-13.04358 -0.591304,-1.861702 -8.3762868,-8.483098 -7.783754,-10.344392 0.5925328,-1.861294 10.699992,-2.53538 12.250034,-3.685315 1.550043,-1.149935 5.307165,-10.7616151 7.222653,-10.7609549 1.915488,6.601e-4 5.666265,9.6149269 7.215547,10.7659309 1.549283,1.151003 11.656295,1.832054 12.247599,3.693756 0.591304,1.861702 -7.198048,8.477732 -7.79058,10.339026 -0.592534,1.861294 1.896821,11.893887 0.34678,13.043822 z" id="path3363" fill="url(#linearGradient4173)" filter="url(#filter4174)" stroke-linejoin="round" stroke-linecap="round"/>
  <path d="m 24.505756,5.3589842 c -0.05567,-1.92e-5 -0.24789,0.068538 -0.496966,0.296875 -0.249077,0.2283372 -0.544385,0.5873924 -0.856311,1.03125 -0.623852,0.8877152 -1.317676,2.1145078 -2.001243,3.3828128 -0.683567,1.268305 -1.359694,2.57911 -1.966838,3.654297 -0.607144,1.075187 -1.079706,1.894354 -1.638075,2.308593 -0.558408,0.414268 -1.466495,0.620183 -2.654945,0.876954 -1.18845,0.25677 -2.616432,0.506182 -4.008221,0.777343 -1.3917897,0.271161 -2.7501361,0.565425 -3.7692949,0.896485 -0.5095795,0.16553 -0.9337275,0.342432 -1.2233006,0.513672 -0.2895731,0.171239 -0.4147597,0.336538 -0.4319781,0.390625 -0.017223,0.0541 -0.011291,0.261585 0.1242415,0.574218 0.1355318,0.312634 0.3771612,0.712026 0.6938408,1.152344 0.6333593,0.880637 1.5616026,1.933941 2.5307031,2.990235 0.9691004,1.056293 1.9795622,2.116731 2.7925662,3.039062 0.813003,0.922331 1.428908,1.634093 1.641898,2.304688 0.213001,0.670625 0.124296,1.61729 -0.0038,2.851562 -0.128119,1.234272 -0.336654,2.700397 -0.514169,4.136719 -0.177516,1.436322 -0.322094,2.844785 -0.328762,3.9375 -0.0033,0.546357 0.02946,1.015281 0.09939,1.349609 0.06993,0.334328 0.184332,0.505603 0.229369,0.539063 0.04503,0.03345 0.240564,0.09175 0.573422,0.05664 0.332858,-0.03511 0.778701,-0.146657 1.286377,-0.318359 1.015353,-0.343404 2.282184,-0.919744 3.564774,-1.535156 1.282591,-0.615412 2.583166,-1.268335 3.692839,-1.773438 1.109673,-0.505102 1.963052,-0.885003 2.653033,-0.884766 0.689962,2.38e-4 1.54378,0.378944 2.653034,0.884766 1.109252,0.505823 2.40886,1.161108 3.690927,1.777344 1.282067,0.616235 2.547827,1.193051 3.562863,1.537109 0.507517,0.172029 0.953569,0.284986 1.286376,0.320313 0.332808,0.03533 0.528356,-0.02321 0.573423,-0.05664 0.04506,-0.03342 0.161149,-0.204795 0.23128,-0.539062 0.07013,-0.334268 0.10241,-0.80131 0.09939,-1.347657 -0.0061,-1.092694 -0.150163,-2.503038 -0.32685,-3.939453 -0.176688,-1.436414 -0.384862,-2.902379 -0.512258,-4.136719 -0.127396,-1.234339 -0.215365,-2.181051 -0.002,-2.851562 0.213444,-0.670483 0.830119,-1.382962 1.64381,-2.304688 0.813691,-0.921725 1.824578,-1.981544 2.794477,-3.037109 0.9699,-1.055565 1.898601,-2.108127 2.532615,-2.988281 0.317007,-0.440077 0.559996,-0.837866 0.695752,-1.150391 0.135755,-0.312524 0.141425,-0.520117 0.124242,-0.574219 -0.0172,-0.05413 -0.142548,-0.221105 -0.431979,-0.392578 C 42.820011,18.937513 42.395546,18.761254 41.88614,18.595313 40.867369,18.263431 39.510233,17.96916 38.118797,17.696875 36.727362,17.42459 35.300634,17.17334 34.112488,16.915625 32.924342,16.65791 32.015618,16.451327 31.457543,16.036719 30.899465,15.622107 30.427763,14.801678 29.821379,13.726172 29.214995,12.650666 28.541026,11.340516 27.858364,10.071875 27.175701,8.8032336 26.482245,7.5751513 25.859032,6.6871092 25.547426,6.2430881 25.25163,5.8862914 25.002721,5.6578123 24.753813,5.4293332 24.561437,5.3590034 24.505756,5.3589842 Z" id="path4177" opacity="0.4" fill="none" filter="url(#filter4170)" stroke="#000" stroke-linejoin="round" stroke-linecap="round" stroke-width="0.989263"/>
  <path id="path4179" d="m 24.505756,6.653906 c -0.154055,0.1673851 -0.314619,0.337636 -0.527549,0.640625 -0.573917,0.8166591 -1.258899,2.020563 -1.936255,3.277344 -0.677356,1.256781 -1.351558,2.568741 -1.974484,3.671875 -0.622925,1.103134 -0.976953,1.929105 -1.922875,2.630859 -0.946044,0.701845 -1.823603,0.789286 -3.04296,1.052735 -1.219359,0.263448 -2.650104,0.514506 -4.029247,0.783203 -1.3791431,0.268697 -2.7113202,0.560682 -3.648876,0.865234 -0.347773,0.11297 -0.555412,0.214714 -0.7588286,0.3125 0.1081897,0.201378 0.217983,0.408784 0.4338894,0.708985 0.5826642,0.810149 1.4920415,1.847836 2.4523354,2.894531 0.9602938,1.046695 1.9718138,2.108388 2.8059458,3.054687 0.834131,0.9463 1.493264,1.54567 1.854065,2.681641 0.360833,1.136072 0.171589,2.01684 0.04013,3.283203 -0.13145,1.266363 -0.340177,2.732982 -0.51608,4.15625 -0.175902,1.423269 -0.316893,2.809228 -0.323028,3.814453 -0.0023,0.372347 0.02922,0.604183 0.05734,0.832031 0.220886,-0.0429 0.448834,-0.08405 0.795145,-0.201171 0.934081,-0.315917 2.181066,-0.878462 3.452002,-1.488282 1.270936,-0.609819 2.571527,-1.264973 3.710041,-1.783203 1.138513,-0.51823 1.89898,-0.975012 3.067808,-0.974609 1.168769,4.03e-4 1.929723,0.457592 3.067809,0.976562 1.138086,0.518971 2.437715,1.174522 3.70813,1.785157 1.270414,0.610634 2.518227,1.175673 3.452001,1.492187 0.345995,0.117279 0.572435,0.158113 0.793234,0.201172 0.02825,-0.227818 0.0594,-0.459649 0.05734,-0.832031 -0.0056,-1.005198 -0.144123,-2.393046 -0.319204,-3.816406 -0.175083,-1.423361 -0.38346,-2.88981 -0.514169,-4.15625 -0.130709,-1.266441 -0.319565,-2.145323 0.04205,-3.28125 0.361587,-1.135837 1.021135,-1.734005 1.855976,-2.679688 0.834841,-0.945683 1.848682,-2.006761 2.809769,-3.052734 0.961086,-1.045974 1.870982,-2.084829 2.454246,-2.894532 C 42.117919,20.308508 42.227049,20.101377 42.335362,19.9 42.132032,19.80205 41.924185,19.700749 41.576533,19.5875 40.639303,19.282194 39.306445,18.988169 37.927656,18.718359 36.548868,18.44855 35.119363,18.197619 33.900322,17.933203 32.68128,17.668787 31.804661,17.580869 30.859273,16.878516 29.91387,16.176151 29.560457,15.349169 28.938309,14.245703 28.316161,13.142237 27.642195,11.83094 26.965737,10.573828 26.289279,9.3167161 25.604711,8.111477 25.031393,7.294531 24.818767,6.9915529 24.659657,6.8213663 24.505756,6.653906 Z" opacity="0.4" fill="none" filter="url(#filter4166)" stroke="url(#linearGradient4187)" stroke-linejoin="round" stroke-linecap="round" stroke-width="0.999996"/>
 </g>
 <defs id="0">
  <linearGradient id="linearGradient4224">
   <stop id="stop4226" stop-color="#000" stop-opacity="1"/>
   <stop id="stop4228" offset="1" stop-color="#fff" stop-opacity="1"/>
  </linearGradient>
  <linearGradient id="linearGradient4181">
   <stop stop-color="#fff" id="stop4183"/>
   <stop stop-opacity="0" stop-color="#fff" offset="1" id="stop4185"/>
  </linearGradient>
  <linearGradient id="linearGradient3797">
   <stop stop-color="#d7e4f4" id="stop3799" stop-opacity="1"/>
   <stop offset="1" stop-color="#5288d1" id="stop3801" stop-opacity="1"/>
  </linearGradient>
  <linearGradient gradientTransform="matrix(0.97864046,0,0,1,0.1200233,-0.10000023)" x1="-0.207829" xlink:href="#linearGradient3797" id="linearGradient4173" y1="47.983051" x2="0" y2="2" gradientUnits="userSpaceOnUse"/>
  <linearGradient gradientTransform="matrix(0.97864046,0,0,1,0.1200233,-0.10000023)" xlink:href="#linearGradient4181" id="linearGradient4187" x1="43.642128" y1="6.248502" x2="43.815865" y2="42" gradientUnits="userSpaceOnUse"/>
  <filter id="filter4166" color-interpolation-filters="sRGB">
   <feColorMatrix id="feColorMatrix4168" values="0.21 0.72 0.072 0 0 0.21 0.72 0.072 0 0 0.21 0.72 0.072 0 0 0 0 0 1 0 "/>
  </filter>
  <filter id="filter4170" color-interpolation-filters="sRGB">
   <feColorMatrix id="feColorMatrix4172" values="0.21 0.72 0.072 0 0 0.21 0.72 0.072 0 0 0.21 0.72 0.072 0 0 0 0 0 1 0 "/>
  </filter>
  <filter id="filter4174" color-interpolation-filters="sRGB">
   <feColorMatrix id="feColorMatrix4176" values="0.21 0.72 0.072 0 0 0.21 0.72 0.072 0 0 0.21 0.72 0.072 0 0 0 0 0 1 0 "/>
  </filter>
  <filter id="filter4178" color-interpolation-filters="sRGB">
   <feColorMatrix id="feColorMatrix4180" values="0.21 0.72 0.072 0 0 0.21 0.72 0.072 0 0 0.21 0.72 0.072 0 0 0 0 0 1 0 "/>
  </filter>
  <linearGradient x1="-0.207829" xlink:href="#linearGradient3797" id="linearGradient4173-8" y1="47.983051" x2="0" y2="2" gradientUnits="userSpaceOnUse"/>
  <linearGradient xlink:href="#linearGradient4181" id="linearGradient4187-9" x1="43.642128" y1="6.248502" x2="43.815865" y2="42" gradientUnits="userSpaceOnUse"/>
  <linearGradient y2="35" x2="5" y1="35" x1="44" gradientUnits="userSpaceOnUse" id="linearGradient4252" xlink:href="#linearGradient4224"/>
  <linearGradient y2="35" x2="5" y1="35" x1="44" gradientUnits="userSpaceOnUse" id="linearGradient4254" xlink:href="#linearGradient4224"/>
  <mask id="mask4248" maskUnits="userSpaceOnUse">
   <rect y="0" x="0" height="48" width="48" id="rect4250" opacity="1" stroke-dasharray="none" stroke-opacity="1" fill="url(#linearGradient4252)" stroke="url(#linearGradient4254)" stroke-linejoin="miter" fill-opacity="1" stroke-linecap="round" stroke-width="1" stroke-dashoffset="0" stroke-miterlimit="4.5"/>
  </mask>
 </defs>
 <metadata id="metadata9999">
  <rdf:RDF>
   <cc:Work>
    <dc:format>image/svg+xml</dc:format>
    <dc:type rdf:resource="http://purl.org/dc/dcmitype/StillImage"/>
    <dc:title/>
    <cc:license rdf:resource="http://creativecommons.org/licenses/by-sa/4.0/"/>
    <dc:creator>
     <cc:Agent>
      <dc:title>Sixsixfive (sixsixfive.deviantart.com)</dc:title>
     </cc:Agent>
    </dc:creator>
    <dc:publisher>
     <cc:Agent>
      <dc:title>Sixsixfive (sixsixfive.deviantart.com)</dc:title>
     </cc:Agent>
    </dc:publisher>
    <dc:source>https://github.com/sixsixfive</dc:source>
    <dc:subject>
     <rdf:Bag>
      <rdf:li>ivy</rdf:li>
     </rdf:Bag>
    </dc:subject>
    <dc:contributor>
     <cc:Agent>
      <dc:title>ssf</dc:title>
     </cc:Agent>
    </dc:contributor>
    <dc:rights>
     <cc:Agent>
      <dc:title>Sixsixfive (sixisixfive.deviantart.com)</dc:title>
     </cc:Agent>
    </dc:rights>
    <dc:description>A simple icon theme published under CC-BY-SA_V4(http://creativecommons.org/licenses/by-sa/4.0)</dc:description>
    <dc:identifier>SSF</dc:identifier>
   </cc:Work>
  </rdf:RDF>
 </metadata>
 <!--Part of the Ivy icon them published under the CC-BY-SA_V4: http://creativecommons.org/licenses/by-sa/4.0 -->
 <g transform="matrix(-1,0,0,1,49.000003,0)" mask="url(#mask4248)" id="g4185">
  <path transform="matrix(0.97864046,0,0,1,0.1200233,0)" d="M 37.198714,42.842534 C 35.614841,43.992469 26.863045,38.467133 24.90575,38.466473 22.948455,38.465813 14.192935,43.985244 12.609838,42.834241 11.026741,41.683238 13.577194,31.652363 12.972985,29.790661 12.368775,27.928959 4.4138793,21.307563 5.0193446,19.446269 5.6248098,17.584975 15.952872,16.910889 17.536745,15.760954 19.120618,14.611019 22.959742,4.9993391 24.917037,4.9999993 c 1.957295,6.601e-4 5.789935,9.6149267 7.373032,10.7659307 1.583097,1.151003 11.910702,1.832054 12.514911,3.693756 0.60421,1.861702 -7.35515,8.477732 -7.960615,10.339026 -0.605466,1.861294 1.938221,11.893887 0.354349,13.043822 z" id="path3363-7" fill="url(#linearGradient4173-8)" stroke-linejoin="round" stroke-linecap="round"/>
  <path transform="matrix(0.97864046,0,0,1,0.1200233,0)" d="m 24.917969,5.4589844 c -0.05688,-1.92e-5 -0.2533,0.068538 -0.507813,0.296875 -0.254513,0.2283372 -0.556266,0.5873924 -0.875,1.03125 -0.637468,0.8877152 -1.346435,2.1145078 -2.044922,3.3828126 -0.698486,1.268305 -1.38937,2.57911 -2.009765,3.654297 -0.620396,1.075187 -1.103272,1.894354 -1.673828,2.308593 -0.570595,0.414268 -1.498502,0.620183 -2.712891,0.876954 -1.214389,0.25677 -2.673537,0.506182 -4.095703,0.777343 -1.4221666,0.271161 -2.8101599,0.565425 -3.8515626,0.896485 -0.5207014,0.16553 -0.9541068,0.342432 -1.25,0.513672 -0.2958933,0.171239 -0.4238121,0.336538 -0.4414063,0.390625 -0.017599,0.0541 -0.011537,0.261585 0.1269531,0.574218 0.1384899,0.312634 0.385393,0.712026 0.7089844,1.152344 0.6471828,0.880637 1.5956857,1.933941 2.5859375,2.990235 0.9902518,1.056293 2.0227679,2.116731 2.8535159,3.039062 0.830747,0.922331 1.460095,1.634093 1.677734,2.304688 0.21765,0.670625 0.127009,1.61729 -0.0039,2.851562 -0.130915,1.234272 -0.344001,2.700397 -0.525391,4.136719 -0.18139,1.436322 -0.329124,2.844785 -0.335937,3.9375 -0.0034,0.546357 0.0301,1.015281 0.101562,1.349609 0.07146,0.334328 0.188355,0.505603 0.234375,0.539063 0.04601,0.03345 0.245815,0.09175 0.585938,0.05664 0.340123,-0.03511 0.795696,-0.146657 1.314453,-0.318359 1.037514,-0.343404 2.331994,-0.919744 3.642578,-1.535156 1.310584,-0.615412 2.639545,-1.268335 3.773437,-1.773438 1.133893,-0.505102 2.005898,-0.885003 2.710938,-0.884766 0.705021,2.38e-4 1.577474,0.378944 2.710938,0.884766 1.133463,0.505823 2.461435,1.161108 3.771484,1.777344 1.310049,0.616235 2.603436,1.193051 3.640625,1.537109 0.518594,0.172029 0.974382,0.284986 1.314453,0.320313 0.340071,0.03533 0.539887,-0.02321 0.585938,-0.05664 0.04604,-0.03342 0.164666,-0.204795 0.236328,-0.539062 0.07166,-0.334268 0.104645,-0.80131 0.101562,-1.347657 -0.0062,-1.092694 -0.15344,-2.503038 -0.333984,-3.939453 -0.180544,-1.436414 -0.393261,-2.902379 -0.523438,-4.136719 -0.130176,-1.234339 -0.220065,-2.181051 -0.002,-2.851562 0.218103,-0.670483 0.848237,-1.382962 1.679688,-2.304688 0.83145,-0.921725 1.8644,-1.981544 2.855468,-3.037109 0.991069,-1.055565 1.940039,-2.108127 2.587891,-2.988281 0.323926,-0.440077 0.572219,-0.837866 0.710938,-1.150391 0.138718,-0.312524 0.144511,-0.520117 0.126953,-0.574219 -0.01757,-0.05413 -0.145659,-0.221105 -0.441407,-0.392578 -0.295747,-0.171472 -0.729476,-0.347731 -1.25,-0.513672 C 41.636686,18.363431 40.24993,18.06916 38.828125,17.796875 37.40632,17.52459 35.948453,17.27334 34.734375,17.015625 33.520297,16.75791 32.591739,16.551327 32.021484,16.136719 31.451225,15.722107 30.969228,14.901678 30.349609,13.826172 29.729991,12.750666 29.041312,11.440516 28.34375,10.171875 27.646188,8.9032338 26.937596,7.6751515 26.300781,6.7871094 25.982374,6.3430883 25.680122,5.9862916 25.425781,5.7578125 25.17144,5.5293334 24.974865,5.4590036 24.917969,5.4589844 Z" id="path4177-8" opacity="0.4" fill="none" stroke="#000" stroke-linejoin="round" stroke-linecap="round"/>
  <path id="path4179-8" d="m 24.917969,6.7539062 c -0.157417,0.1673851 -0.321486,0.337636 -0.539063,0.640625 -0.586443,0.8166591 -1.286375,2.020563 -1.978515,3.2773438 -0.69214,1.256781 -1.381057,2.568741 -2.017579,3.671875 -0.636521,1.103134 -0.998276,1.929105 -1.964843,2.630859 -0.966692,0.701845 -1.863404,0.789286 -3.109375,1.052735 -1.245972,0.263448 -2.707944,0.514506 -4.117188,0.783203 -1.4092439,0.268697 -2.7704968,0.560682 -3.7285154,0.865234 -0.3553634,0.11297 -0.5675343,0.214714 -0.7753906,0.3125 0.110551,0.201378 0.2227407,0.408784 0.4433594,0.708985 0.5953812,0.810149 1.5246064,1.847836 2.5058594,2.894531 0.9812532,1.046695 2.0148502,2.108388 2.8671872,3.054687 0.852337,0.9463 1.525856,1.54567 1.894532,2.681641 0.368708,1.136072 0.175334,2.01684 0.04101,3.283203 -0.134319,1.266363 -0.347602,2.732982 -0.527344,4.15625 -0.179741,1.423269 -0.32381,2.809228 -0.330078,3.814453 -0.0023,0.372347 0.02986,0.604183 0.05859,0.832031 0.225707,-0.0429 0.45863,-0.08405 0.8125,-0.201171 0.954468,-0.315917 2.228669,-0.878462 3.527344,-1.488282 1.298675,-0.609819 2.627653,-1.264973 3.791015,-1.783203 1.163362,-0.51823 1.940427,-0.975012 3.134766,-0.974609 1.194278,4.03e-4 1.97184,0.457592 3.134766,0.976562 1.162925,0.518971 2.49092,1.174522 3.789062,1.785157 1.298142,0.610634 2.573189,1.175673 3.527344,1.492187 0.353546,0.117279 0.584929,0.158113 0.810547,0.201172 0.02887,-0.227818 0.0607,-0.459649 0.05859,-0.832031 -0.0057,-1.005198 -0.147268,-2.393046 -0.326171,-3.816406 -0.178904,-1.423361 -0.391829,-2.88981 -0.525391,-4.15625 -0.133562,-1.266441 -0.32654,-2.145323 0.04297,-3.28125 0.369479,-1.135837 1.043422,-1.734005 1.896484,-2.679688 0.853062,-0.945683 1.889031,-2.006761 2.871094,-3.052734 0.982063,-1.045974 1.911818,-2.084829 2.507812,-2.894532 C 42.91453,20.408508 43.026042,20.201377 43.136719,20 42.928951,19.90205 42.716568,19.800749 42.361328,19.6875 41.403642,19.382194 40.041694,19.088169 38.632812,18.818359 37.223931,18.54855 35.763226,18.297619 34.517578,18.033203 33.27193,17.768787 32.376178,17.680869 31.410156,16.978516 30.444119,16.276151 30.082993,15.449169 29.447266,14.345703 28.811539,13.242237 28.122863,11.93094 27.431641,10.673828 26.740419,9.4167163 26.04091,8.2114772 25.455078,7.3945312 25.237812,7.0915531 25.075229,6.9213665 24.917969,6.7539062 Z" transform="matrix(0.97864046,0,0,1,0.1200233,0)" opacity="0.4" fill="none" stroke="url(#linearGradient4187-9)" stroke-linejoin="round" stroke-linecap="round" stroke-width="1.01085"/>
 </g>
</svg>
