<?xml version="1.0" encoding="UTF-8" standalone="no"?><svg viewBox="0 0 48 48" xmlns="http://www.w3.org/2000/svg" xmlns:svg="http://www.w3.org/2000/svg" xmlns:rdf="http://www.w3.org/1999/02/22-rdf-syntax-ns#" version="1.1" id="svg2" xmlns:dc="http://purl.org/dc/elements/1.1/" xmlns:cc="http://creativecommons.org/ns#"><defs id="0"><linearGradient x1="11" x2="37.02" id="E" gradientUnits="userSpaceOnUse"><stop id="N" stop-color="#ffaa06"/><stop offset="0.231" id="O" stop-color="#ffd480"/><stop offset="1" id="P" stop-color="#ffaa06"/></linearGradient><linearGradient y1="4" x2="0" y2="9" id="F" gradientUnits="userSpaceOnUse"><stop id="Q"/><stop stop-opacity="0" offset="1" id="R"/></linearGradient><linearGradient y1="23" x2="0" y2="31" id="G" gradientUnits="userSpaceOnUse"><stop id="S" stop-color="#d48c00"/><stop offset="1" id="T" stop-color="#ffc24c"/></linearGradient><linearGradient x1="20" x2="28" id="H" gradientUnits="userSpaceOnUse"><stop id="U" stop-color="#ebebeb"/><stop offset="1" id="V" stop-color="#898989"/></linearGradient><linearGradient y1="5" x2="0" y2="45" id="I" gradientUnits="userSpaceOnUse"><stop id="W" stop-color="#fff"/><stop stop-opacity="0" offset="1" id="X" stop-color="#fff"/></linearGradient><linearGradient x1="11" x2="37" id="J" gradientUnits="userSpaceOnUse"><stop id="Y" stop-color="#cecece"/><stop offset="0.676" id="Z" stop-color="#ebebeb"/><stop offset="1" id="a" stop-color="#cecece"/></linearGradient><linearGradient y1="37" x2="0" y2="44" id="K" gradientUnits="userSpaceOnUse"><stop id="b" stop-color="#d1d1d1"/><stop offset="1" id="c" stop-color="#ebebeb"/></linearGradient></defs><path opacity="0.2" id="1" d="m 11,8 v 35 c 0,2.20914 5.8203,4 13,4 7.1797,0 13,-1.79086 13,-4 V 8 H 11 z"/><path id="2" d="m 11,7 v 35 c 0,2.20914 5.8203,4 13,4 7.1797,0 13,-1.79086 13,-4 V 7 H 11 z" fill="url(#J)"/><path opacity="0.561" transform="matrix(1 0 0 1.14286 0 -38.29)" id="3" d="m 37,40.5 a 13,3.5 0 1 1 -26,0 13,3.5 0 1 1 26,0 z" fill="#fff"/><path transform="matrix(1 0 0 1.14286 0 -39.29)" id="4" d="m 37,40.5 a 13,3.5 0 1 1 -26,0 13,3.5 0 1 1 26,0 z" fill="url(#K)"/><path opacity="0.15" id="5" d="m 37,26 a 13,4 0 0 1 -26,0 13,4 0 1 1 26,0 z"/><path id="6" d="m 23.09375,24 c -3.249581,0.06987 -6.39318,0.531909 -8.611951,1.265766 C 12.263028,25.999623 10.992076,26.997694 11,28 c 0,5 0,-1 0,5 -0.0027,0.167051 0.02861,0.334154 0.09375,0.5 C 11.02861,33.665846 10.99728,33.832949 11,34 c -0.0027,0.167051 0.02861,0.334154 0.09375,0.5 C 11.02861,34.665846 10.99728,34.832949 11,35 c -0.0027,0.167051 0.02861,0.334154 0.09375,0.5 C 11.02861,35.665846 10.99728,35.832949 11,36 c -0.0027,0.167051 0.02861,0.334154 0.09375,0.5 C 11.02861,36.665846 10.99728,36.832949 11,37 c 0.004,0.198744 0.05632,0.397394 0.15625,0.59375 C 10.812773,39.02443 11.228122,40.561489 11,42 c 0.90505,2.784449 4.678443,2.950382 7.09375,3.5625 6.00756,0.639516 12.803149,1.032244 18.15625,-2.21875 1.385402,-1.401304 0.39708,-3.527192 0.75,-5.25 -0.03628,-0.183892 -0.09147,-0.338374 -0.15625,-0.5 C 36.943677,37.39739 36.995953,37.19874 37,37 37.0027,36.832949 36.97139,36.665846 36.90625,36.5 36.97139,36.33415 37.00272,36.16705 37,36 37.0027,35.832949 36.97139,35.665846 36.90625,35.5 36.97139,35.33415 37.00272,35.16705 37,35 37.0027,34.832949 36.97139,34.665846 36.90625,34.5 36.97139,34.33415 37.00272,34.16705 37,34 37.0027,33.832949 36.97139,33.665846 36.90625,33.5 36.97139,33.33415 37.00272,33.16705 37,33 c 0,-5 0,0 0,-5 0.0087,-1.09533 -1.521732,-2.183762 -4.122223,-2.931769 C 30.27728,24.320225 26.644923,23.923639 23.09375,24 z" fill="url(#E)"/><path opacity="0.5" id="7" d="m 37,28 a 13,4 0 0 1 -26,0 13,4 0 1 1 26,0 z" fill="#fff"/><path id="8" d="m 37,27 a 13,4 0 0 1 -26,0 13,4 0 1 1 26,0 z" fill="url(#G)"/><g id="9" fill="none"><path stroke="#000" opacity="0.4" id="L" d="m 24,3.4688 c -3.55007,0 -6.77535,0.452512 -9.0625,1.15625 -1.14357,0.351869 -2.03423,0.788982 -2.625,1.21875 -0.590773,0.429768 -0.84375,0.814084 -0.84375,1.15625 l 0,35 c 0,0.342166 0.252977,0.726482 0.84375,1.15625 0.590773,0.429768 1.48143,0.866881 2.625,1.21875 2.28715,0.703738 5.51243,1.15625 9.0625,1.15625 3.55007,0 6.77535,-0.452512 9.0625,-1.15625 1.14357,-0.351869 2.03423,-0.788982 2.625,-1.21875 0.590773,-0.429768 0.84375,-0.814084 0.84375,-1.15625 l 0,-35 C 36.53125,6.657884 36.27827,6.273568 35.6875,5.8438 35.09673,5.414032 34.20607,4.976919 33.0625,4.62505 30.77535,3.921312 27.55007,3.4688 24,3.4688 Z"/><path stroke="url(#I)" opacity="0.72" id="M" d="m 24,4.5312 c -3.46039,0 -6.60784,0.434624 -8.75,1.09375 -1.05599,0.32492 -1.85447,0.729301 -2.3125,1.0625 -0.464653,0.33802 -0.40625,0.490451 -0.40625,0.3125 l 0,35 c 0,-0.177951 -0.0584,-0.02552 0.40625,0.3125 0.458027,0.333199 1.25651,0.73758 2.3125,1.0625 2.14216,0.659126 5.28961,1.09375 8.75,1.09375 3.46039,0 6.60784,-0.434624 8.75,-1.09375 1.05599,-0.32492 1.85447,-0.729301 2.3125,-1.0625 0.464654,-0.33802 0.40625,-0.490451 0.40625,-0.3125 l 0,-35 c 0,0.177951 0.0584,0.02552 -0.40625,-0.3125 C 34.604473,6.354251 33.80599,5.94987 32.75,5.62495 30.60784,4.965824 27.46039,4.5312 24,4.5312 Z"/></g><path id="A" d="M 20,3.4674 V 7.5 8 c 0.547358,0.583813 2.25605,1 4,1 1.74395,0 3.45264,-0.416187 4,-1 V 7.5 3.45365 z" fill="url(#H)"/><path transform="matrix(0.88889 0 0 0.5 3.111 0.5)" id="B" d="m 28,8 a 4.5,3 0 1 1 -9,0 4.5,3 0 1 1 9,0 z" fill="#fff"/><path transform="matrix(0.88889 0 0 0.5 3.111 -0.5)" id="C" d="m 28,8 a 4.5,3 0 1 1 -9,0 4.5,3 0 1 1 9,0 z" fill="#ebebeb"/><path stroke="url(#F)" opacity="0.3" transform="matrix(1 0 0 1 0 -1)" id="D" d="m 24,3.5 c -0.833289,0 -1.587257,0.086801 -2.1875,0.25 -0.600243,0.163199 -1.053057,0.417022 -1.21875,0.59375 A 0.48633,0.48633 0 0 1 20.5,4.4375 V 4.5 v 4 h 7 V 4.5 4.4375 A 0.48633,0.48633 0 0 1 27.40625,4.34375 C 27.24056,4.167022 26.787743,3.913199 26.1875,3.75 25.587257,3.586801 24.833289,3.5 24,3.5 z" fill="none"/><metadata id="metadata9999"><rdf:RDF><cc:Work><dc:format>image/svg+xml</dc:format><dc:type rdf:resource="http://purl.org/dc/dcmitype/StillImage"/><dc:title>Ivy icon theme</dc:title><cc:license rdf:resource="http://creativecommons.org/licenses/by-sa/4.0/"/><dc:creator><cc:Agent><dc:title>Sixsixfive (sixsixfive.deviantart.com)</dc:title></cc:Agent></dc:creator><dc:publisher><cc:Agent><dc:title>Sixsixfive (sixsixfive.deviantart.com)</dc:title></cc:Agent></dc:publisher><dc:source>https://github.com/sixsixfive</dc:source><dc:subject><rdf:Bag><rdf:li>ivy</rdf:li></rdf:Bag></dc:subject><dc:contributor><cc:Agent><dc:title>ssf</dc:title></cc:Agent></dc:contributor><dc:rights><cc:Agent><dc:title>Sixsixfive (sixisixfive.deviantart.com)</dc:title></cc:Agent></dc:rights><dc:description>A simple icon theme published under CC-BY-SA_V4(http://creativecommons.org/licenses/by-sa/4.0)</dc:description><dc:identifier>SSF</dc:identifier></cc:Work></rdf:RDF></metadata><!--Part of the Ivy icon them published under the CC-BY-SA_V4: http://creativecommons.org/licenses/by-sa/4.0 -->
</svg>