<?xml version="1.0" encoding="UTF-8" standalone="no"?>
<svg xmlns:dc="http://purl.org/dc/elements/1.1/" xmlns:cc="http://creativecommons.org/ns#" xmlns:rdf="http://www.w3.org/1999/02/22-rdf-syntax-ns#" xmlns:svg="http://www.w3.org/2000/svg" xmlns="http://www.w3.org/2000/svg" xmlns:xlink="http://www.w3.org/1999/xlink" version="1.1" id="svg2" viewBox="0 0 48 48">
 <defs id="0">
  <linearGradient id="B">
   <stop id="H" stop-color="#ffb006"/>
   <stop id="I" stop-color="#eed45a" offset="1"/>
  </linearGradient>
  <linearGradient gradientUnits="userSpaceOnUse" x2="0" y2="46" y1="31" xlink:href="#B" id="E"/>
  <linearGradient gradientUnits="userSpaceOnUse" x2="0" y2="46" y1="41" xlink:href="#B" id="F"/>
  <linearGradient gradientUnits="userSpaceOnUse" x2="0" y2="46" y1="21" xlink:href="#B" id="G"/>
 </defs>
 <rect id="1" fill-rule="evenodd" height="25" y="22" opacity="0.1" x="22" width="5"/>
 <rect id="2" fill-rule="evenodd" height="15" y="32" opacity="0.1" x="12" width="5"/>
 <rect id="3" fill-rule="evenodd" height="5" y="42" opacity="0.1" x="2" width="5"/>
 <rect id="4" fill-rule="evenodd" height="25" fill="url(#G)" y="21" x="22" width="5"/>
 <rect id="5" fill-rule="evenodd" height="15" fill="url(#E)" y="31" x="12" width="5"/>
 <rect id="6" fill-rule="evenodd" height="5" fill="url(#F)" y="41" x="2" width="5"/>
 <path d="m 22.5,21.5 0,24 4,0 0,-24 -4,0 z m -10,10 0,14 4,0 0,-14 -4,0 z m -10,10 0,4 4,0 0,-4 -4,0 z" id="7" stroke="#000" fill="none" opacity="0.4"/>
 <rect id="8" height="1" fill="#fff" y="42" opacity="0.4" x="3" width="3"/>
 <rect id="9" height="1" fill="#fff" y="32" opacity="0.4" x="13" width="3"/>
 <rect id="A" height="1" fill="#fff" y="22" opacity="0.4" x="23" width="3"/>
 <metadata id="metadata9999">
  <rdf:RDF>
   <cc:Work>
    <dc:format>image/svg+xml</dc:format>
    <dc:type rdf:resource="http://purl.org/dc/dcmitype/StillImage"/>
    <dc:title>Ivy icon theme</dc:title>
    <cc:license rdf:resource="http://creativecommons.org/licenses/by-sa/4.0/"/>
    <dc:creator>
     <cc:Agent>
      <dc:title>Sixsixfive (sixsixfive.deviantart.com)</dc:title>
     </cc:Agent>
    </dc:creator>
    <dc:publisher>
     <cc:Agent>
      <dc:title>Sixsixfive (sixsixfive.deviantart.com)</dc:title>
     </cc:Agent>
    </dc:publisher>
    <dc:source>https://github.com/sixsixfive</dc:source>
    <dc:subject>
     <rdf:Bag>
      <rdf:li>ivy</rdf:li>
     </rdf:Bag>
    </dc:subject>
    <dc:contributor>
     <cc:Agent>
      <dc:title>ssf</dc:title>
     </cc:Agent>
    </dc:contributor>
    <dc:rights>
     <cc:Agent>
      <dc:title>Sixsixfive (sixisixfive.deviantart.com)</dc:title>
     </cc:Agent>
    </dc:rights>
    <dc:description>A simple icon theme published under CC-BY-SA_V4(http://creativecommons.org/licenses/by-sa/4.0)</dc:description>
    <dc:identifier>SSF</dc:identifier>
   </cc:Work>
  </rdf:RDF>
 </metadata>
 <!--Part of the Ivy icon them published under the CC-BY-SA_V4: http://creativecommons.org/licenses/by-sa/4.0 -->
</svg>
