<?xml version="1.0" encoding="UTF-8" standalone="no"?><svg xmlns:svg="http://www.w3.org/2000/svg" viewBox="0 0 48 48" xmlns="http://www.w3.org/2000/svg" xmlns:rdf="http://www.w3.org/1999/02/22-rdf-syntax-ns#" version="1.1" id="svg2" xmlns:dc="http://purl.org/dc/elements/1.1/" xmlns:cc="http://creativecommons.org/ns#"><defs id="defs4"><linearGradient y1="3" x2="0" y2="43" id="0" gradientUnits="userSpaceOnUse"><stop id="stop7" stop-color="#dedede"/><stop offset="1" id="stop9" stop-color="#ebebeb"/></linearGradient></defs><path opacity="0.15" id="path11" d="m 24 3.063 c -12.12041 0 -21.9375 9.817099 -21.9375 21.9375 0 12.1204 9.817092 21.9375 21.9375 21.9375 12.12041 0 21.9375 -9.817099 21.9375 -21.9375 C 45.9375 12.880099 36.12041 3.063 24 3.063 z m 0 11.875 c 5.552704 0 10.0625 4.509797 10.0625 10.0625 0 5.552703 -4.509796 10.0625 -10.0625 10.0625 -5.552704 0 -10.0625 -4.509797 -10.0625 -10.0625 0 -5.552703 4.509796 -10.0625 10.0625 -10.0625 z"/><path id="path13" d="M 24 2.0625 C 11.879592 2.0625 2.0625 11.879599 2.0625 24 2.0625 36.1204 11.879592 45.9375 24 45.9375 36.12041 45.9375 45.9375 36.1204 45.9375 24 45.9375 11.879599 36.12041 2.0625 24 2.0625 z m 0 11.875 c 5.552704 0 10.0625 4.509797 10.0625 10.0625 0 5.552703 -4.509796 10.0625 -10.0625 10.0625 -5.552704 0 -10.0625 -4.509797 -10.0625 -10.0625 0 -5.552703 4.509796 -10.0625 10.0625 -10.0625 z" fill="url(#0)"/><path stroke="#000" opacity="0.5" id="path15" d="M 24 2.53125 C 12.13198 2.53125 2.53125 12.13199 2.53125 24 2.53125 35.868012 12.13198 45.46875 24 45.46875 35.868019 45.46875 45.46875 35.868012 45.46875 24 45.46875 12.13199 35.868019 2.53125 24 2.53125 z m 0 10.9375 c 5.805093 0 10.53125 4.726158 10.53125 10.53125 0 5.805092 -4.726157 10.53125 -10.53125 10.53125 -5.805093 0 -10.53125 -4.726158 -10.53125 -10.53125 0 -5.805092 4.726157 -10.53125 10.53125 -10.53125 z" fill="none"/><g id="g17" transform="matrix(-1 0 0 -1 48 48)"><path id="path19" d="M 36.06025,38.632956 A 1.0001,1.0001 0 0 0 35.927664,37.35133 L 33.07714,34.500801 a 1.0001,1.0001 0 0 0 -1.303729,-0.110485 c -4.585332,3.42497 -10.97092,3.42496 -15.556349,0 a 1.0001,1.0001 0 0 0 -1.303728,0.110485 l -2.850524,2.850524 a 1.0001,1.0001 0 0 0 0.06629,1.480505 c 6.927232,5.557587 16.805072,5.557534 23.732272,0 a 1.0001,1.0001 0 0 0 0.132582,-0.132582 1.0001,1.0001 0 0 0 0.06629,-0.06629 z" fill="#5288d1"/><path stroke-linejoin="round" stroke="#000" opacity="0.4" stroke-linecap="round" id="path21" d="m 35.667094,38.346532 a 0.48611563,0.48611563 0 0 1 0,-0.04419 c 0.01057,-0.01891 0.01236,-0.0027 0.0221,-0.0221 0.0097,-0.01935 0.01322,-0.0023 0.0221,-0.0221 0.0089,-0.01976 0.01411,-0.0019 0.0221,-0.0221 0.008,-0.02015 -0.0292,-0.0016 -0.0221,-0.0221 0.0071,-0.02051 0.01589,-0.0013 0.0221,-0.0221 0.0053,-0.02101 -0.0044,-0.02297 0,-0.04419 0.0044,-0.02123 0.01866,-7e-4 0.0221,-0.0221 0.0034,-0.0214 -0.0246,-5.73e-4 -0.0221,-0.0221 0.0025,-0.02152 0.02054,-4.88e-4 0.0221,-0.0221 6.09e-4,-0.02167 3.4e-4,-0.02253 0,-0.04419 -3.39e-4,-0.02167 -0.02081,-4.6e-4 -0.0221,-0.0221 -0.0013,-0.02164 0.02433,-5.38e-4 0.0221,-0.0221 -0.0022,-0.02156 -0.01893,-6.57e-4 -0.0221,-0.0221 -0.0032,-0.02144 0.02621,-8.2e-4 0.0221,-0.0221 -0.0041,-0.02128 -0.01707,-0.001 -0.0221,-0.0221 -0.0059,-0.02084 0.0069,-0.02364 0,-0.04419 -0.0068,-0.02056 -0.01433,-0.0019 -0.0221,-0.0221 -0.0086,-0.01991 0.0095,-0.02471 0,-0.04419 -0.0095,-0.01951 -0.01179,-0.003 -0.0221,-0.0221 -0.01112,-0.01862 -0.01012,-0.004 -0.0221,-0.0221 -0.01198,-0.01806 -0.0094,-0.0046 -0.0221,-0.0221 -0.01273,-0.01754 -0.0086,-0.0051 -0.0221,-0.0221 -0.01423,-0.01635 -0.0072,-0.0064 -0.0221,-0.0221 -0.01492,-0.01572 -0.0065,-0.0071 -0.0221,-0.0221 L 32.72817,34.833058 c -0.01542,-0.0158 -0.006,-0.007 -0.0221,-0.0221 -0.0161,-0.01509 -0.0053,-0.0077 -0.0221,-0.0221 -0.0174,-0.01358 -0.0041,-0.0093 -0.0221,-0.0221 -0.01801,-0.01278 -0.0036,-0.01011 -0.0221,-0.0221 -0.01852,-0.01201 -0.003,-0.01096 -0.0221,-0.0221 -0.01951,-0.01032 -0.02423,0.0094 -0.04419,0 -0.02,-0.0094 -0.0017,-0.01359 -0.0221,-0.0221 -0.02075,-0.0076 -0.0011,-0.01542 -0.0221,-0.0221 -0.02104,-0.0067 -0.02288,0.0057 -0.04419,0 -0.02155,-0.0048 -0.02245,0.0038 -0.0442,0 -0.02189,-0.0028 -9.9e-5,-0.02024 -0.0221,-0.0221 -0.022,-0.0019 -0.02214,8.84e-4 -0.04419,0 -0.02208,9.9e-5 -0.02214,-0.0011 -0.04419,0 -0.02206,0.0011 -1.2e-4,0.02003 -0.0221,0.0221 -0.02198,0.0021 -2.33e-4,-0.02514 -0.0221,-0.0221 -0.02186,0.003 -3.89e-4,0.01808 -0.0221,0.0221 -0.02151,0.005 -0.02293,-0.0059 -0.04419,0 -0.02126,0.0059 -0.0011,0.01525 -0.0221,0.0221 -0.02066,0.0078 -0.02391,-0.0087 -0.04419,0 -0.02029,0.0087 -0.0022,0.01252 -0.0221,0.0221 -0.01941,0.0105 -0.0031,0.01075 -0.0221,0.0221 -0.01896,0.01132 -0.02576,-0.01218 -0.04419,0 -4.758675,3.554447 -11.372107,3.55443 -16.130873,0 -0.01841,-0.01218 -0.02522,0.01136 -0.0442,0 -0.01896,-0.01132 -0.0027,-0.0116 -0.0221,-0.0221 -0.0199,-0.0096 -0.0018,-0.0134 -0.0221,-0.0221 -0.02029,-0.0087 -0.02354,0.0078 -0.04419,0 -0.02099,-0.0069 -8.35e-4,-0.01616 -0.0221,-0.0221 -0.02126,-0.0059 -0.02268,0.005 -0.04419,0 -0.02171,-0.004 -2.34e-4,-0.01906 -0.0221,-0.0221 -0.02186,-0.003 -1.21e-4,0.02416 -0.0221,0.0221 -0.02198,-0.0021 -4.3e-5,-0.02102 -0.0221,-0.0221 -0.02205,-0.0011 -0.02212,9.9e-5 -0.04419,0 -0.02205,8.84e-4 -0.0222,-0.0019 -0.04419,0 -0.022,0.0019 -2.05e-4,0.01926 -0.0221,0.0221 -0.02174,0.0038 -0.02264,-0.0048 -0.04419,0 -0.02132,0.0057 -0.02315,-0.0067 -0.04419,0 -0.02104,0.0067 -0.0013,0.0145 -0.0221,0.0221 -0.02039,0.0085 -0.0021,0.01271 -0.0221,0.0221 -0.02,0.0094 -0.02467,-0.0103 -0.04419,0 -0.01906,0.01114 -0.0036,0.01011 -0.0221,0.0221 -0.01852,0.01201 -0.0041,0.0093 -0.0221,0.0221 -0.01801,0.01278 -0.0047,0.0085 -0.0221,0.0221 -0.01676,0.01436 -0.006,0.007 -0.0221,0.0221 -0.0161,0.01509 -0.0067,0.0063 -0.0221,0.0221 l -2.850525,2.850524 c -0.01835,0.01819 -0.0047,0.003 -0.0221,0.0221 -0.0174,0.0191 -0.0057,0.0021 -0.0221,0.0221 -0.01634,0.02002 -0.0068,0.0013 -0.0221,0.0221 -0.01421,0.02157 -0.0091,-2.12e-4 -0.0221,0.0221 -0.013,0.02234 -0.01018,-8.48e-4 -0.0221,0.0221 -0.01189,0.02292 0.01063,0.02067 0,0.04419 -0.01066,0.02352 -0.01271,-0.002 -0.0221,0.0221 -0.0094,0.02406 -0.01399,-0.0024 -0.0221,0.0221 -0.0081,0.02452 0.02894,-0.0028 0.0221,0.0221 -0.0068,0.02492 -0.01657,-0.0031 -0.0221,0.0221 -0.0055,0.02524 0.0042,0.01871 0,0.04419 -0.0029,0.02567 0.0015,0.01841 0,0.04419 -0.0015,0.02579 -0.02191,-0.0037 -0.0221,0.0221 -1.91e-4,0.02583 0.02094,-0.0037 0.0221,0.0221 0.0012,0.02581 -0.0025,0.01848 0,0.04419 0.0038,0.02555 -0.0052,0.01888 0,0.04419 0.0052,0.02531 0.01563,-0.0029 0.0221,0.0221 0.0065,0.02502 -0.02987,-0.0025 -0.0221,0.0221 0.0078,0.02464 0.01303,-0.0021 0.0221,0.0221 0.009,0.02421 0.01181,-0.0016 0.0221,0.0221 0.01028,0.02372 -0.01148,0.0211 0,0.04419 0.01153,0.02312 0.0094,-3.53e-4 0.0221,0.0221 0.01387,0.02179 0.0071,0.0011 0.0221,0.0221 0.01498,0.02106 0.0061,0.0018 0.0221,0.0221 0.01603,0.02027 -0.01706,0.02484 0,0.04419 0.0171,0.01936 0.004,0.0036 0.0221,0.0221 0.01807,0.01846 0.003,0.0046 0.0221,0.0221 0.01903,0.01747 0.0022,0.0056 0.0221,0.0221 6.742041,5.390676 16.371544,5.390626 23.113554,0 0.008,-0.0065 0.01407,-0.01563 0.0221,-0.0221 0.0172,-0.01565 0.0057,-0.0057 0.0221,-0.0221 0.01644,-0.01644 0.0064,-0.0049 0.0221,-0.0221 0.01565,-0.0172 0.0073,-0.0042 0.0221,-0.0221 a 0.48611563,0.48611563 0 0 1 0.0221,-0.0221 z" fill="none"/></g><metadata id="metadata9999"><rdf:RDF><cc:Work><dc:format>image/svg+xml</dc:format><dc:type rdf:resource="http://purl.org/dc/dcmitype/StillImage"/><dc:title>Ivy icon theme</dc:title><cc:license rdf:resource="http://creativecommons.org/licenses/by-sa/4.0/"/><dc:creator><cc:Agent><dc:title>Sixsixfive (sixsixfive.deviantart.com)</dc:title></cc:Agent></dc:creator><dc:publisher><cc:Agent><dc:title>Sixsixfive (sixsixfive.deviantart.com)</dc:title></cc:Agent></dc:publisher><dc:source>https://github.com/sixsixfive</dc:source><dc:subject><rdf:Bag><rdf:li>ivy</rdf:li></rdf:Bag></dc:subject><dc:contributor><cc:Agent><dc:title>ssf</dc:title></cc:Agent></dc:contributor><dc:rights><cc:Agent><dc:title>Sixsixfive (sixisixfive.deviantart.com)</dc:title></cc:Agent></dc:rights><dc:description>A simple icon theme published under CC-BY-SA_V4(http://creativecommons.org/licenses/by-sa/4.0)</dc:description><dc:identifier>SSF</dc:identifier></cc:Work></rdf:RDF></metadata><!--Part of the Ivy icon them published under the CC-BY-SA_V4: http://creativecommons.org/licenses/by-sa/4.0 -->
</svg>