<?xml version="1.0" encoding="UTF-8" standalone="no"?><svg xmlns:cc="http://creativecommons.org/ns#" xmlns:rdf="http://www.w3.org/1999/02/22-rdf-syntax-ns#" xmlns:svg="http://www.w3.org/2000/svg" id="svg2" viewBox="0 0 48 48" version="1.1" xmlns="http://www.w3.org/2000/svg" xmlns:dc="http://purl.org/dc/elements/1.1/"><defs id="defs4"><linearGradient id="0" x2="0" y2="44.02" y1="4.02" gradientUnits="userSpaceOnUse"><stop id="stop7" stop-color="#fff"/><stop offset="1" id="stop9" stop-color="#fff" stop-opacity="0"/></linearGradient><linearGradient id="1" x2="0" y2="45" y1="3" gradientUnits="userSpaceOnUse"><stop id="stop12" stop-color="#ff8b36"/><stop offset="1" id="stop14" stop-color="#ff9f58"/></linearGradient></defs><rect rx="4" ry="4" height="42" id="rect16" opacity="0.1" width="42" x="3" y="4"/><rect rx="4" ry="4" height="42" id="rect18" width="42" x="3" y="3" fill="url(#1)"/><g id="g20" fill="none"><path id="path22" opacity="0.45" d="m 7,3.5128 c -1.94587,0 -3.5,1.5541 -3.5,3.5 l 0,34 c 0,1.9459 1.55413,3.5 3.5,3.5 l 34,0 c 1.94587,0 3.5,-1.5541 3.5,-3.5 l 0,-34 c 0,-1.9459 -1.55413,-3.5 -3.5,-3.5 l -34,0 z" stroke="#000"/><path id="path24" opacity="0.6" d="m 7,4.5128 c -1.40738,0 -2.5,1.0926 -2.5,2.5 l 0,34 c 0,1.4074 1.09262,2.5 2.5,2.5 l 34,0 c 1.40738,0 2.5,-1.0926 2.5,-2.5 l 0,-34 c 0,-1.4074 -1.09262,-2.5 -2.5,-2.5 l -34,0 z" stroke="url(#0)"/></g><path id="path26" opacity="0.2" d="m 10.7945 9.029 v 4.4594 c 11.4228 0.353772 20.6145 10.2711 20.9007 22.5355 l 4.0993 0.0119 C 35.531072 22.4841 26.21568 11.3274 14.1201 9.3032 13.03583 9.121768 11.92064 9.05858 10.79447 9.02896 z m 0 9.4911 v 4.3163 C 17.42509 23.17161 22.716 28.89345 23 36 l 3.9607 0.0119 C 26.6962 27.21528 20.64249 20.0026 12.7806 18.687 12.13237 18.578517 11.46475 18.5473 10.79446 18.520074 z m 3.0254 10.91 c -1.66318 -0.0048 -3.0254 1.43713 -3.0254 3.26705 0 1.82992 1.36066 3.27423 3.0254 3.27897 1.66318 0.0048 3.02541 -1.43713 3.02541 -3.26705 0 -1.716 -1.19977 -3.10915 -2.71363 -3.27897 -0.07326 -0.0082 -0.181267 0.000302 -0.311777 0 z"/><path id="path28" d="m 11 10 v 4.4594 c 11.4228 0.353772 20.6145 10.2711 20.9007 22.5355 L 36 37.0068 C 35.736572 23.4551 26.42118 12.2984 14.3256 10.2742 13.24132 10.09277 12.12614 10.02958 10.99997 9.99996 z m 0 9.4911 v 4.3163 c 6.63059 0.335202 11.9215 6.05703 12.2055 13.1636 l 3.9607 0.0119 C 26.9017 28.18629 20.84799 20.9737 12.9861 19.658 12.33787 19.549517 11.67025 19.5183 10.99996 19.491074 z m 3.0254 10.91 C 12.36222 30.396341 11 31.83824 11 33.66816 c 0 1.82992 1.36066 3.27423 3.0254 3.27897 1.66318 0.0048 3.02541 -1.43713 3.02541 -3.26705 0 -1.716 -1.19977 -3.10915 -2.71363 -3.27897 -0.07326 -0.0082 -0.181267 0.000302 -0.311777 0 z" fill="#eeeeec"/><metadata id="metadata9999"><rdf:RDF><cc:Work><dc:format>image/svg+xml</dc:format><dc:type rdf:resource="http://purl.org/dc/dcmitype/StillImage"/><dc:title>Ivy icon theme</dc:title><cc:license rdf:resource="http://creativecommons.org/licenses/by-sa/4.0/"/><dc:creator><cc:Agent><dc:title>Sixsixfive (sixsixfive.deviantart.com)</dc:title></cc:Agent></dc:creator><dc:publisher><cc:Agent><dc:title>Sixsixfive (sixsixfive.deviantart.com)</dc:title></cc:Agent></dc:publisher><dc:source>https://github.com/sixsixfive</dc:source><dc:subject><rdf:Bag><rdf:li>ivy</rdf:li></rdf:Bag></dc:subject><dc:contributor><cc:Agent><dc:title>ssf</dc:title></cc:Agent></dc:contributor><dc:rights><cc:Agent><dc:title>Sixsixfive (sixisixfive.deviantart.com)</dc:title></cc:Agent></dc:rights><dc:description>A simple icon theme published under CC-BY-SA_V4(http://creativecommons.org/licenses/by-sa/4.0)</dc:description><dc:identifier>SSF</dc:identifier></cc:Work></rdf:RDF></metadata><!--Part of the Ivy icon them published under the CC-BY-SA_V4: http://creativecommons.org/licenses/by-sa/4.0 -->
</svg>