<?xml version="1.0" encoding="UTF-8" standalone="no"?><svg xmlns:svg="http://www.w3.org/2000/svg" xmlns="http://www.w3.org/2000/svg" viewBox="0 0 48 48" xmlns:rdf="http://www.w3.org/1999/02/22-rdf-syntax-ns#" xmlns:xlink="http://www.w3.org/1999/xlink" version="1.1" id="svg2" xmlns:dc="http://purl.org/dc/elements/1.1/" xmlns:cc="http://creativecommons.org/ns#"><defs id="defs4"><linearGradient x1="42.887" xlink:href="#3" y1="27.931" x2="42.994" y2="44.998" id="0" gradientUnits="userSpaceOnUse"/><linearGradient x1="42.969" xlink:href="#3" y1="3.02" x2="42.998" y2="23.999" id="1" gradientUnits="userSpaceOnUse"/><linearGradient x1="43.937" y1="4.053" x2="44.05" y2="44.12" id="2" gradientUnits="userSpaceOnUse"><stop id="stop9" stop-color="#66b03e"/><stop offset="1" id="stop11" stop-color="#87c762"/></linearGradient><linearGradient id="3"><stop id="stop14" stop-color="#fff"/><stop stop-opacity="0" offset="1" id="stop16" stop-color="#fff"/></linearGradient></defs><g display="block" id="g18" color="#000"><g id="g20" fill="url(#2)"><path id="path22" d="M 44,25.15269 C 43.901818,44 28.29913,50.23795 11.864872,37.15669 L 7,42 7,25.08251 22.1464,25 17.245404,30.731005 C 29.00163,44 40.921781,32 44,25.15269 Z"/><path id="path24" d="M 7.0498,22.9336 C 7.147982,4.0863 22.7507,-2.1517 39.1849,10.9296 L 43.9999,5 l 0,18 -14.9002,0 4.7046,-5.6447 C 22.0481,4.0863 10.1279,16.0863 7.0497,22.93362 Z"/></g><g id="g26" fill="none"><g stroke="#000" id="g28"><path opacity="0.4" id="path30" transform="matrix(0.99236 0 0 1.0002 0.335 -2.01)" stroke-miterlimit="6.3" d="m 20.9688,27.4688 -13.75,0.0938 0,15.3125 4.125,-4.0625 a 0.466775,0.466775 0 0 1 0.59375,-0.03125 c 8.18753,6.47371 16.1027,8.10882 21.9062,5.90625 5.37621,-2.0404 9.0079,-7.39906 9.5625,-15.5625 C 41.4924,32.3532 38.2257,36.00227 34,37.90635 c -5.0133,2.25897 -11.2651,1.87008 -17.2812,-4.875 a 0.466775,0.466775 0 0 1 0,-0.625 l 4.25,-4.9375 z"/><path opacity="0.4" id="path32" transform="matrix(0.99779 0 0 1.0001 0.096 1.999)" stroke-miterlimit="9" d="M 21.7188,2.5625 C 17.53665,2.702891 14.00063,4.39457 11.4688,7.5 9.30891,10.14922 7.92387,13.90873 7.5313,18.5312 c 1.95707,-3.14321 5.17696,-6.59567 9.25,-8.4375 5.04113,-2.27959 11.3397,-1.89154 17.375,4.875 a 0.556636,0.556636 0 0 1 0.03125,0.71875 l -4,4.75 13.25,0 0,-15.875 -3.8438,4.7188 A 0.556636,0.556636 0 0 1 38.8125,9.375 C 32.68334,4.5288 26.7365,2.39406 21.7187,2.5625 Z"/></g><path stroke="url(#0)" opacity="0.4" id="path34" transform="matrix(0.99236 0 0 1.0002 0.335 -2.01)" stroke-miterlimit="6.3" d="m 18.9062,28.4375 -10.75,0.0625 0,12.125 2.5,-2.4688 a 1.41884,1.41884 0 0 1 1.875,-0.125 c 8.01489,6.33721 15.5773,7.82744 20.9688,5.78125 4.14699,-1.57388 7.22915,-5.28324 8.46875,-11 C 39.99503,35.16705 37.4523,37.39459 34.375,38.7812 29.06462,41.17403 22.2173,40.62684 16,33.6562 a 1.41884,1.41884 0 0 1 0,-1.875 l 2.9062,-3.3438 z"/><path stroke="url(#1)" opacity="0.4" id="path36" transform="matrix(0.99779 0 0 1.0001 0.096 1.999)" stroke-miterlimit="9" d="M 21.75,3.5312 C 17.81941,3.663147 14.57773,5.23153 12.21875,8.12495 10.8318,9.82611 9.78884,12.06299 9.125,14.7187 c 1.92791,-2.1911 4.35782,-4.22341 7.25,-5.53125 5.3471,-2.41796 12.2883,-1.87442 18.5312,5.125 a 1.53843,1.53843 0 0 1 0.03125,2.03125 l -2.625,3.125 10.1562,0 0,-12.1562 -2.125,2.5938 a 1.53843,1.53843 0 0 1 -2.15625,0.25 C 32.19047,5.41466 26.4642,3.37305 21.7499,3.5313 Z"/></g></g><metadata id="metadata9999"><rdf:RDF><cc:Work><dc:format>image/svg+xml</dc:format><dc:type rdf:resource="http://purl.org/dc/dcmitype/StillImage"/><dc:title>Ivy icon theme</dc:title><cc:license rdf:resource="http://creativecommons.org/licenses/by-sa/4.0/"/><dc:creator><cc:Agent><dc:title>Sixsixfive (sixsixfive.deviantart.com)</dc:title></cc:Agent></dc:creator><dc:publisher><cc:Agent><dc:title>Sixsixfive (sixsixfive.deviantart.com)</dc:title></cc:Agent></dc:publisher><dc:source>https://github.com/sixsixfive</dc:source><dc:subject><rdf:Bag><rdf:li>ivy</rdf:li></rdf:Bag></dc:subject><dc:contributor><cc:Agent><dc:title>ssf</dc:title></cc:Agent></dc:contributor><dc:rights><cc:Agent><dc:title>Sixsixfive (sixisixfive.deviantart.com)</dc:title></cc:Agent></dc:rights><dc:description>A simple icon theme published under CC-BY-SA_V4(http://creativecommons.org/licenses/by-sa/4.0)</dc:description><dc:identifier>SSF</dc:identifier></cc:Work></rdf:RDF></metadata><!--Part of the Ivy icon them published under the CC-BY-SA_V4: http://creativecommons.org/licenses/by-sa/4.0 -->
</svg>