<?xml version="1.0" encoding="UTF-8" standalone="no"?>
<svg xmlns:dc="http://purl.org/dc/elements/1.1/" xmlns:cc="http://creativecommons.org/ns#" xmlns:rdf="http://www.w3.org/1999/02/22-rdf-syntax-ns#" xmlns:svg="http://www.w3.org/2000/svg" xmlns="http://www.w3.org/2000/svg" version="1.1" id="svg2" viewBox="0 0 48 48">
 <defs id="0">
  <linearGradient gradientUnits="userSpaceOnUse" x2="0" y2="1049.36" y1="1014.36" id="2">
   <stop id="G" stop-color="#fff"/>
   <stop stop-opacity="0" id="H" stop-color="#fff" offset="1"/>
  </linearGradient>
  <linearGradient gradientUnits="userSpaceOnUse" x2="40" y2="8.994" x1="39.695" y1="46.621" id="3">
   <stop id="I" stop-color="#333"/>
   <stop id="J" stop-color="#6a6a6a" offset="1"/>
  </linearGradient>
 </defs>
 <g id="1" opacity="0.5">
  <path d="m 12,10.0022 c -1.108,0 -2,0.8251 -2,1.85 l 0,1.85 0,5.55 0,24.05 c 0,2.0498 1.784,3.7 4,3.7 l 22,0 c 2.216,0 4,-1.6502 4,-3.7 l 0,-24.05 0,-5.55 0,-1.85 c 0,-1.0249 -0.892,-1.85 -2,-1.85 l -2,0 -22,0 -2,0 z" id="4" opacity="0.15"/>
  <path d="m 16,1 18,0 0,10 -18,0 z" id="5" fill="#ebebeb"/>
  <path d="m 12,9.0022 c -1.108,0 -2,0.8251 -2,1.85 l 0,1.85 0,5.55 0,24.05 c 0,2.0498 1.784,3.7 4,3.7 l 22,0 c 2.216,0 4,-1.6502 4,-3.7 l 0,-24.05 0,-5.55 0,-1.85 c 0,-1.0249 -0.892,-1.85 -2,-1.85 l -2,0 -22,0 -2,0 z" id="6" fill="url(#3)"/>
  <path d="m 19,5 4,0 0,2 -4,0 z" id="7" fill="#fff"/>
  <path d="m 19,4 4,0 0,2 -4,0 z" id="8" fill="#4e4e4e"/>
  <path d="m 27,5 4,0 0,2 -4,0 z" id="9" fill="#fff"/>
  <path d="m 27,4 4,0 0,2 -4,0 z" id="A" fill="#4e4e4e"/>
  <path d="M 16,1 34,1 34,2 16,2 Z" id="B" opacity="0.5"/>
  <path d="m 16,2 1,0 0,7 -1,0 z" id="C" opacity="0.5"/>
  <path d="m 17.40625,2.4212 0,7.1876 15.1875,0 0,-7.1876 -15.1875,0 z" id="D" opacity="0.65" fill="none" stroke="#fff"/>
  <path d="m 33,2 1,0 0,7 -1,0 z" id="E" opacity="0.5"/>
  <g transform="translate(0,-1004.36)" id="F" fill="none">
   <path d="m 12,1013.8438 c -0.876418,0 -1.53125,0.6228 -1.53125,1.375 l 0,1.8437 0,5.5625 0,24.0312 c 0,1.7773 1.55123,3.25 3.53125,3.25 l 22,0 c 1.980006,0 3.53125,-1.4729 3.53125,-3.25 l 0,-24.0312 0,-5.5625 0,-1.8437 c 0,-0.7524 -0.654804,-1.375 -1.53125,-1.375 l -2,0 -22,0 -2,0 z" id="K" opacity="0.74" stroke="#000"/>
   <path d="m 12,1014.9062 c -0.355618,0 -0.46875,0.1736 -0.46875,0.3126 l 0,1.8437 0,5.5625 0,24.0312 c 0,1.164 1.019419,2.1876 2.46875,2.1876 l 22,0 c 1.449285,0 2.46875,-1.0237 2.46875,-2.1876 l 0,-24.0312 0,-5.5625 0,-1.8437 c 0,-0.1391 -0.11304,-0.3126 -0.46875,-0.3126 l -2,0 -22,0 -2,0 z" id="L" opacity="0.4" stroke="url(#2)"/>
  </g>
 </g>
 <metadata id="metadata9999">
  <rdf:RDF>
   <cc:Work>
    <dc:format>image/svg+xml</dc:format>
    <dc:type rdf:resource="http://purl.org/dc/dcmitype/StillImage"/>
    <dc:title>Ivy icon theme</dc:title>
    <cc:license rdf:resource="http://creativecommons.org/licenses/by-sa/4.0/"/>
    <dc:creator>
     <cc:Agent>
      <dc:title>Sixsixfive (sixsixfive.deviantart.com)</dc:title>
     </cc:Agent>
    </dc:creator>
    <dc:publisher>
     <cc:Agent>
      <dc:title>Sixsixfive (sixsixfive.deviantart.com)</dc:title>
     </cc:Agent>
    </dc:publisher>
    <dc:source>https://github.com/sixsixfive</dc:source>
    <dc:subject>
     <rdf:Bag>
      <rdf:li>ivy</rdf:li>
     </rdf:Bag>
    </dc:subject>
    <dc:contributor>
     <cc:Agent>
      <dc:title>ssf</dc:title>
     </cc:Agent>
    </dc:contributor>
    <dc:rights>
     <cc:Agent>
      <dc:title>Sixsixfive (sixisixfive.deviantart.com)</dc:title>
     </cc:Agent>
    </dc:rights>
    <dc:description>A simple icon theme published under CC-BY-SA_V4(http://creativecommons.org/licenses/by-sa/4.0)</dc:description>
    <dc:identifier>SSF</dc:identifier>
   </cc:Work>
  </rdf:RDF>
 </metadata>
 <!--Part of the Ivy icon them published under the CC-BY-SA_V4: http://creativecommons.org/licenses/by-sa/4.0 -->
</svg>
