<?xml version="1.0" encoding="UTF-8" standalone="no"?><svg viewBox="0 0 48 48" xmlns="http://www.w3.org/2000/svg" xmlns:svg="http://www.w3.org/2000/svg" xmlns:rdf="http://www.w3.org/1999/02/22-rdf-syntax-ns#" xmlns:xlink="http://www.w3.org/1999/xlink" version="1.1" id="svg2" xmlns:dc="http://purl.org/dc/elements/1.1/" xmlns:cc="http://creativecommons.org/ns#"><defs id="0"><linearGradient id="linearGradient4181"><stop id="stop4183" stop-color="#fff"/><stop stop-opacity="0" offset="1" id="stop4185" stop-color="#fff"/></linearGradient><linearGradient id="linearGradient3797"><stop stop-opacity="1" id="stop3799" stop-color="#d7e4f4"/><stop stop-opacity="1" offset="1" id="stop3801" stop-color="#5288d1"/></linearGradient><linearGradient x1="-0.207829" xlink:href="#linearGradient3797" y1="47.983051" x2="0" y2="2" gradientTransform="matrix(0.97864046 0 0 1 0.1200233 -0.10000023)" id="linearGradient4173" gradientUnits="userSpaceOnUse"/><linearGradient x1="43.642128" xlink:href="#linearGradient4181" y1="6.248502" x2="43.815865" y2="42" gradientTransform="matrix(0.97864046 0 0 1 0.1200233 -0.10000023)" id="linearGradient4187" gradientUnits="userSpaceOnUse"/><filter color-interpolation-filters="sRGB" id="filter4166"><feColorMatrix values="0.21 0.72 0.072 0 0 0.21 0.72 0.072 0 0 0.21 0.72 0.072 0 0 0 0 0 1 0 " id="feColorMatrix4168"/></filter><filter color-interpolation-filters="sRGB" id="filter4170"><feColorMatrix values="0.21 0.72 0.072 0 0 0.21 0.72 0.072 0 0 0.21 0.72 0.072 0 0 0 0 0 1 0 " id="feColorMatrix4172"/></filter><filter color-interpolation-filters="sRGB" id="filter4174"><feColorMatrix values="0.21 0.72 0.072 0 0 0.21 0.72 0.072 0 0 0.21 0.72 0.072 0 0 0 0 0 1 0 " id="feColorMatrix4176"/></filter><filter color-interpolation-filters="sRGB" id="filter4178"><feColorMatrix values="0.21 0.72 0.072 0 0 0.21 0.72 0.072 0 0 0.21 0.72 0.072 0 0 0 0 0 1 0 " id="feColorMatrix4180"/></filter></defs><g opacity="1" id="g4182"><path stroke-linejoin="round" opacity="0.1" stroke-linecap="round" id="path4189" d="m 36.52419,43.742532 c -1.550042,1.149935 -10.114904,-4.375401 -12.030392,-4.376061 -1.915488,-6.6e-4 -10.483994,5.518771 -12.033277,4.367768 -1.549283,-1.151003 0.946694,-11.181878 0.35539,-13.04358 -0.591304,-1.861702 -8.3762868,-8.483098 -7.783754,-10.344392 0.5925328,-1.861294 10.699992,-2.53538 12.250034,-3.685315 1.550043,-1.149935 5.307165,-10.7616146 7.222653,-10.7609544 1.915488,6.601e-4 5.666265,9.6149264 7.215547,10.7659304 1.549283,1.151003 11.656295,1.832054 12.247599,3.693756 0.591304,1.861702 -7.198048,8.477732 -7.79058,10.339026 -0.592534,1.861294 1.896821,11.893887 0.34678,13.043822 z" filter="url(#filter4178)"/><path stroke-linejoin="round" stroke-linecap="round" id="path3363" d="m 36.52419,42.742534 c -1.550042,1.149935 -10.114904,-4.375401 -12.030392,-4.376061 -1.915488,-6.6e-4 -10.483994,5.518771 -12.033277,4.367768 -1.549283,-1.151003 0.946694,-11.181878 0.35539,-13.04358 -0.591304,-1.861702 -8.3762868,-8.483098 -7.783754,-10.344392 0.5925328,-1.861294 10.699992,-2.53538 12.250034,-3.685315 1.550043,-1.149935 5.307165,-10.7616151 7.222653,-10.7609549 1.915488,6.601e-4 5.666265,9.6149269 7.215547,10.7659309 1.549283,1.151003 11.656295,1.832054 12.247599,3.693756 0.591304,1.861702 -7.198048,8.477732 -7.79058,10.339026 -0.592534,1.861294 1.896821,11.893887 0.34678,13.043822 z" fill="url(#linearGradient4173)" filter="url(#filter4174)"/><path stroke-linejoin="round" stroke="#000" stroke-width="0.989263" opacity="0.4" stroke-linecap="round" id="path4177" d="m 24.505756,5.3589842 c -0.05567,-1.92e-5 -0.24789,0.068538 -0.496966,0.296875 -0.249077,0.2283372 -0.544385,0.5873924 -0.856311,1.03125 -0.623852,0.8877152 -1.317676,2.1145078 -2.001243,3.3828128 -0.683567,1.268305 -1.359694,2.57911 -1.966838,3.654297 -0.607144,1.075187 -1.079706,1.894354 -1.638075,2.308593 -0.558408,0.414268 -1.466495,0.620183 -2.654945,0.876954 -1.18845,0.25677 -2.616432,0.506182 -4.008221,0.777343 -1.3917897,0.271161 -2.7501361,0.565425 -3.7692949,0.896485 -0.5095795,0.16553 -0.9337275,0.342432 -1.2233006,0.513672 -0.2895731,0.171239 -0.4147597,0.336538 -0.4319781,0.390625 -0.017223,0.0541 -0.011291,0.261585 0.1242415,0.574218 0.1355318,0.312634 0.3771612,0.712026 0.6938408,1.152344 0.6333593,0.880637 1.5616026,1.933941 2.5307031,2.990235 0.9691004,1.056293 1.9795622,2.116731 2.7925662,3.039062 0.813003,0.922331 1.428908,1.634093 1.641898,2.304688 0.213001,0.670625 0.124296,1.61729 -0.0038,2.851562 -0.128119,1.234272 -0.336654,2.700397 -0.514169,4.136719 -0.177516,1.436322 -0.322094,2.844785 -0.328762,3.9375 -0.0033,0.546357 0.02946,1.015281 0.09939,1.349609 0.06993,0.334328 0.184332,0.505603 0.229369,0.539063 0.04503,0.03345 0.240564,0.09175 0.573422,0.05664 0.332858,-0.03511 0.778701,-0.146657 1.286377,-0.318359 1.015353,-0.343404 2.282184,-0.919744 3.564774,-1.535156 1.282591,-0.615412 2.583166,-1.268335 3.692839,-1.773438 1.109673,-0.505102 1.963052,-0.885003 2.653033,-0.884766 0.689962,2.38e-4 1.54378,0.378944 2.653034,0.884766 1.109252,0.505823 2.40886,1.161108 3.690927,1.777344 1.282067,0.616235 2.547827,1.193051 3.562863,1.537109 0.507517,0.172029 0.953569,0.284986 1.286376,0.320313 0.332808,0.03533 0.528356,-0.02321 0.573423,-0.05664 0.04506,-0.03342 0.161149,-0.204795 0.23128,-0.539062 0.07013,-0.334268 0.10241,-0.80131 0.09939,-1.347657 -0.0061,-1.092694 -0.150163,-2.503038 -0.32685,-3.939453 -0.176688,-1.436414 -0.384862,-2.902379 -0.512258,-4.136719 -0.127396,-1.234339 -0.215365,-2.181051 -0.002,-2.851562 0.213444,-0.670483 0.830119,-1.382962 1.64381,-2.304688 0.813691,-0.921725 1.824578,-1.981544 2.794477,-3.037109 0.9699,-1.055565 1.898601,-2.108127 2.532615,-2.988281 0.317007,-0.440077 0.559996,-0.837866 0.695752,-1.150391 0.135755,-0.312524 0.141425,-0.520117 0.124242,-0.574219 -0.0172,-0.05413 -0.142548,-0.221105 -0.431979,-0.392578 C 42.820011,18.937513 42.395546,18.761254 41.88614,18.595313 40.867369,18.263431 39.510233,17.96916 38.118797,17.696875 36.727362,17.42459 35.300634,17.17334 34.112488,16.915625 32.924342,16.65791 32.015618,16.451327 31.457543,16.036719 30.899465,15.622107 30.427763,14.801678 29.821379,13.726172 29.214995,12.650666 28.541026,11.340516 27.858364,10.071875 27.175701,8.8032336 26.482245,7.5751513 25.859032,6.6871092 25.547426,6.2430881 25.25163,5.8862914 25.002721,5.6578123 24.753813,5.4293332 24.561437,5.3590034 24.505756,5.3589842 Z" fill="none" filter="url(#filter4170)"/><path stroke-linejoin="round" stroke="url(#linearGradient4187)" stroke-width="0.999996" opacity="0.4" stroke-linecap="round" id="path4179" d="m 24.505756,6.653906 c -0.154055,0.1673851 -0.314619,0.337636 -0.527549,0.640625 -0.573917,0.8166591 -1.258899,2.020563 -1.936255,3.277344 -0.677356,1.256781 -1.351558,2.568741 -1.974484,3.671875 -0.622925,1.103134 -0.976953,1.929105 -1.922875,2.630859 -0.946044,0.701845 -1.823603,0.789286 -3.04296,1.052735 -1.219359,0.263448 -2.650104,0.514506 -4.029247,0.783203 -1.3791431,0.268697 -2.7113202,0.560682 -3.648876,0.865234 -0.347773,0.11297 -0.555412,0.214714 -0.7588286,0.3125 0.1081897,0.201378 0.217983,0.408784 0.4338894,0.708985 0.5826642,0.810149 1.4920415,1.847836 2.4523354,2.894531 0.9602938,1.046695 1.9718138,2.108388 2.8059458,3.054687 0.834131,0.9463 1.493264,1.54567 1.854065,2.681641 0.360833,1.136072 0.171589,2.01684 0.04013,3.283203 -0.13145,1.266363 -0.340177,2.732982 -0.51608,4.15625 -0.175902,1.423269 -0.316893,2.809228 -0.323028,3.814453 -0.0023,0.372347 0.02922,0.604183 0.05734,0.832031 0.220886,-0.0429 0.448834,-0.08405 0.795145,-0.201171 0.934081,-0.315917 2.181066,-0.878462 3.452002,-1.488282 1.270936,-0.609819 2.571527,-1.264973 3.710041,-1.783203 1.138513,-0.51823 1.89898,-0.975012 3.067808,-0.974609 1.168769,4.03e-4 1.929723,0.457592 3.067809,0.976562 1.138086,0.518971 2.437715,1.174522 3.70813,1.785157 1.270414,0.610634 2.518227,1.175673 3.452001,1.492187 0.345995,0.117279 0.572435,0.158113 0.793234,0.201172 0.02825,-0.227818 0.0594,-0.459649 0.05734,-0.832031 -0.0056,-1.005198 -0.144123,-2.393046 -0.319204,-3.816406 -0.175083,-1.423361 -0.38346,-2.88981 -0.514169,-4.15625 -0.130709,-1.266441 -0.319565,-2.145323 0.04205,-3.28125 0.361587,-1.135837 1.021135,-1.734005 1.855976,-2.679688 0.834841,-0.945683 1.848682,-2.006761 2.809769,-3.052734 0.961086,-1.045974 1.870982,-2.084829 2.454246,-2.894532 C 42.117919,20.308508 42.227049,20.101377 42.335362,19.9 42.132032,19.80205 41.924185,19.700749 41.576533,19.5875 40.639303,19.282194 39.306445,18.988169 37.927656,18.718359 36.548868,18.44855 35.119363,18.197619 33.900322,17.933203 32.68128,17.668787 31.804661,17.580869 30.859273,16.878516 29.91387,16.176151 29.560457,15.349169 28.938309,14.245703 28.316161,13.142237 27.642195,11.83094 26.965737,10.573828 26.289279,9.3167161 25.604711,8.111477 25.031393,7.294531 24.818767,6.9915529 24.659657,6.8213663 24.505756,6.653906 Z" fill="none" filter="url(#filter4166)"/></g><metadata id="metadata9999"><rdf:RDF><cc:Work><dc:format>image/svg+xml</dc:format><dc:type rdf:resource="http://purl.org/dc/dcmitype/StillImage"/><dc:title>Ivy icon theme</dc:title><cc:license rdf:resource="http://creativecommons.org/licenses/by-sa/4.0/"/><dc:creator><cc:Agent><dc:title>Sixsixfive (sixsixfive.deviantart.com)</dc:title></cc:Agent></dc:creator><dc:publisher><cc:Agent><dc:title>Sixsixfive (sixsixfive.deviantart.com)</dc:title></cc:Agent></dc:publisher><dc:source>https://github.com/sixsixfive</dc:source><dc:subject><rdf:Bag><rdf:li>ivy</rdf:li></rdf:Bag></dc:subject><dc:contributor><cc:Agent><dc:title>ssf</dc:title></cc:Agent></dc:contributor><dc:rights><cc:Agent><dc:title>Sixsixfive (sixisixfive.deviantart.com)</dc:title></cc:Agent></dc:rights><dc:description>A simple icon theme published under CC-BY-SA_V4(http://creativecommons.org/licenses/by-sa/4.0)</dc:description><dc:identifier>SSF</dc:identifier></cc:Work></rdf:RDF></metadata><!--Part of the Ivy icon them published under the CC-BY-SA_V4: http://creativecommons.org/licenses/by-sa/4.0 -->
</svg>