<?xml version="1.0" encoding="UTF-8" standalone="no"?>
<svg xmlns:dc="http://purl.org/dc/elements/1.1/" xmlns:cc="http://creativecommons.org/ns#" xmlns:rdf="http://www.w3.org/1999/02/22-rdf-syntax-ns#" xmlns:svg="http://www.w3.org/2000/svg" xmlns="http://www.w3.org/2000/svg" xmlns:xlink="http://www.w3.org/1999/xlink" version="1.1" id="svg2" viewBox="0 0 48 48">
 <defs id="defs4">
  <linearGradient gradientUnits="userSpaceOnUse" x2="45.898" y2="46.46" x1="44.597" y1="3.159" id="0">
   <stop id="stop7" stop-color="#fff"/>
   <stop id="stop9" stop-opacity="0" stop-color="#fff" offset="1"/>
  </linearGradient>
  <linearGradient gradientUnits="userSpaceOnUse" x2="0.001" y2="65.06" x1="31.11" y1="33.939" id="1">
   <stop id="stop12" stop-color="#ffb636"/>
   <stop id="stop14" stop-color="#ffe775" offset="1"/>
  </linearGradient>
 </defs>
 <g id="g16" transform="matrix(0.70711,-0.70711,0.70711,0.70711,0,0)">
  <path id="rect18" d="m -15.132001,18.724001 28.511999,0 c 1.018806,0 1.839,0.820194 1.839,1.839 l 0,28.511999 c 0,1.018806 -0.820194,1.839 -1.839,1.839 l -28.511999,0 c -1.018806,0 -1.839,-0.820194 -1.839,-1.839 l 0,-28.511999 c 0,-1.018806 0.820194,-1.839 1.839,-1.839 z" opacity="0.1"/>
  <path id="rect20" d="m -14.251,17.847 28.511998,0 c 1.018806,0 1.839,0.820194 1.839,1.839 l 0,28.511999 c 0,1.018806 -0.820194,1.839 -1.839,1.839 l -28.511998,0 c -1.018806,0 -1.839,-0.820194 -1.839,-1.839 l 0,-28.511999 c 0,-1.018806 0.820194,-1.839 1.839,-1.839 z" fill="url(#1)"/>
 </g>
 <path id="path22" d="m 2.9168 23.064 c -0.519002 0.519003 -0.519002 1.33715 0 1.85616 l 20.1525 20.1525 c 0.519002 0.519002 1.33715 0.519002 1.85616 0 l 20.1525 -20.1525 c 0.519002 -0.519003 0.519002 -1.33715 0 -1.85616 L 24.92546 2.9115 c -0.519002 -0.519002 -1.33715 -0.519002 -1.85616 0 L 2.9168 23.064 z" stroke="#000" fill="none" opacity="0.4"/>
 <g id="g24" fill="#6a6a6a">
  <path d="m 29,17 0,8 -4,0 6,6 6,-6 -4,0 0,-8 -4,0 z" id="2" opacity="0.459"/>
 </g>
 <g id="g27" fill="#6a6a6a">
  <use height="48" width="48" y="0" x="0" id="use29" transform="matrix(-1,0,0,-1,48,48)" xlink:href="#2"/>
 </g>
 <path id="path31" d="m 3.5797 23.7269 c -0.170342 0.170342 -0.170342 0.359988 0 0.53033 l 20.1525 20.1525 c 0.170342 0.170342 0.359988 0.170342 0.53033 0 l 20.1525 -20.1525 c 0.170342 -0.170342 0.170342 -0.359988 0 -0.53033 L 24.26253 3.5744 c -0.170342 -0.170342 -0.359988 -0.170342 -0.53033 0 L 3.5797 23.7269 z" stroke="url(#0)" fill="none" opacity="0.6"/>
 <metadata id="metadata9999">
  <rdf:RDF>
   <cc:Work>
    <dc:format>image/svg+xml</dc:format>
    <dc:type rdf:resource="http://purl.org/dc/dcmitype/StillImage"/>
    <dc:title>Ivy icon theme</dc:title>
    <cc:license rdf:resource="http://creativecommons.org/licenses/by-sa/4.0/"/>
    <dc:creator>
     <cc:Agent>
      <dc:title>Sixsixfive (sixsixfive.deviantart.com)</dc:title>
     </cc:Agent>
    </dc:creator>
    <dc:publisher>
     <cc:Agent>
      <dc:title>Sixsixfive (sixsixfive.deviantart.com)</dc:title>
     </cc:Agent>
    </dc:publisher>
    <dc:source>https://github.com/sixsixfive</dc:source>
    <dc:subject>
     <rdf:Bag>
      <rdf:li>ivy</rdf:li>
     </rdf:Bag>
    </dc:subject>
    <dc:contributor>
     <cc:Agent>
      <dc:title>ssf</dc:title>
     </cc:Agent>
    </dc:contributor>
    <dc:rights>
     <cc:Agent>
      <dc:title>Sixsixfive (sixisixfive.deviantart.com)</dc:title>
     </cc:Agent>
    </dc:rights>
    <dc:description>A simple icon theme published under CC-BY-SA_V4(http://creativecommons.org/licenses/by-sa/4.0)</dc:description>
    <dc:identifier>SSF</dc:identifier>
   </cc:Work>
  </rdf:RDF>
 </metadata>
 <!--Part of the Ivy icon them published under the CC-BY-SA_V4: http://creativecommons.org/licenses/by-sa/4.0 -->
</svg>
