<?xml version="1.0" encoding="UTF-8" standalone="no"?>
<svg
   xmlns:dc="http://purl.org/dc/elements/1.1/"
   xmlns:cc="http://creativecommons.org/ns#"
   xmlns:rdf="http://www.w3.org/1999/02/22-rdf-syntax-ns#"
   xmlns:svg="http://www.w3.org/2000/svg"
   xmlns="http://www.w3.org/2000/svg"
   xmlns:xlink="http://www.w3.org/1999/xlink"
   viewBox="0 0 48 48"
   id="svg2"
   version="1.1">
  <defs
     id="defs4">
    <linearGradient
       id="linearGradient4198">
      <stop
         id="stop4200" />
      <stop
         offset="1"
         id="stop4202"
         stop-opacity="0.882" />
    </linearGradient>
    <linearGradient
       id="linearGradient4236">
      <stop
         id="stop4238" />
      <stop
         offset="1"
         id="stop4240"
         stop-opacity="0" />
    </linearGradient>
    <linearGradient
       id="linearGradient4226">
      <stop
         stop-color="#6a6a6a"
         id="stop4228" />
      <stop
         offset="1"
         stop-color="#333"
         id="stop4230" />
    </linearGradient>
    <linearGradient
       id="0"
       y1="7.06"
       y2="41.3"
       x1="43.917"
       gradientUnits="userSpaceOnUse"
       x2="43.928">
      <stop
         stop-color="#fff"
         id="stop7" />
      <stop
         offset="1"
         stop-color="#fff"
         id="stop9"
         stop-opacity="0" />
    </linearGradient>
    <linearGradient
       id="linearGradient4234"
       xlink:href="#linearGradient4226"
       y1="42"
       y2="6"
       gradientUnits="userSpaceOnUse"
       x2="0" />
    <linearGradient
       id="linearGradient4242"
       xlink:href="#linearGradient4236"
       y1="39"
       y2="35"
       gradientUnits="userSpaceOnUse"
       x2="0" />
    <radialGradient
       cx="25.841"
       cy="42.718"
       r="17"
       id="radialGradient4204"
       xlink:href="#linearGradient4198"
       gradientUnits="userSpaceOnUse"
       gradientTransform="matrix(1.2352943 -1.3529414 1.0461815 0.95520928 -52.611803 29.15752)" />
    <linearGradient
       id="linearGradient4181">
      <stop
         id="stop4183"
         offset="0"
         style="stop-color:#ffffff;stop-opacity:1;" />
      <stop
         id="stop4185"
         offset="1"
         style="stop-color:#ffffff;stop-opacity:0;" />
    </linearGradient>
    <linearGradient
       gradientTransform="matrix(0.69999997,0,0,0.7,-0.7879593,-0.795417)"
       gradientUnits="userSpaceOnUse"
       x2="0"
       y2="43"
       y1="3"
       id="1">
      <stop
         id="stop12"
         stop-color="#66b03e" />
      <stop
         id="stop14"
         stop-color="#95ce76"
         offset="1" />
    </linearGradient>
    <linearGradient
       gradientUnits="userSpaceOnUse"
       y2="45"
       x2="22"
       y1="19"
       x1="22"
       id="linearGradient4187"
       xlink:href="#linearGradient4181" />
  </defs>
  <rect
     width="46"
     opacity="0.1"
     x="1"
     y="38"
     rx="1"
     height="6"
     stroke-linejoin="round"
     stroke-linecap="round"
     id="rect4164"
     stroke-width="1.5"
     ry="1" />
  <rect
     width="42"
     x="3"
     y="6"
     fill="url(#linearGradient4234)"
     rx="2"
     height="36"
     id="rect18"
     ry="2" />
  <path
     fill="url(#radialGradient4204)"
     id="path20"
     d="M 7 10 V 34 H 41 V 10 H 7 z" />
  <g
     fill="none"
     id="g26">
    <path
       stroke="#000"
       opacity="0.7"
       id="path28"
       d="M 5,6.5 C 4.161723,6.5 3.5,7.161723 3.5,8 l 0,32 c 0,0.838277 0.661723,1.5 1.5,1.5 l 38,0 c 0.838277,0 1.5,-0.661723 1.5,-1.5 l 0,-32 C 44.5,7.161723 43.838277,6.5 43,6.5 l -38,0 z" />
    <path
       stroke="url(#0)"
       opacity="0.2"
       id="path30"
       d="M 5,7.5 C 4.699797,7.5 4.5,7.699797 4.5,8 l 0,32 c 0,0.300203 0.199797,0.5 0.5,0.5 l 38,0 c 0.300203,0 0.5,-0.199797 0.5,-0.5 l 0,-32 C 43.5,7.699797 43.3002,7.5 43,7.5 l -38,0 z" />
  </g>
  <path
     opacity="0.2"
     fill="#fff"
     id="path32"
     d="M 7,34 H41 V35 H7 z" />
  <path
     fill="none"
     stroke="#000"
     id="path36"
     d="m 7.5094376,10.509438 -0.038521,22.942604 33.0581662,0.07704 0,-22.981125 z" />
  <rect
     width="40"
     opacity="0.6"
     x="4"
     y="35"
     fill="url(#linearGradient4242)"
     height="4"
     stroke-linejoin="round"
     stroke-linecap="round"
     id="rect4214" />
  <rect
     width="46"
     x="1"
     y="37"
     fill="#777"
     rx="1"
     height="6"
     stroke-linejoin="round"
     stroke-linecap="round"
     id="rect4170"
     stroke-width="1.5"
     ry="1" />
  <rect
     width="9"
     opacity="0.2"
     x="34"
     y="40"
     fill="#fff"
     rx="1"
     height="2"
     stroke-linejoin="round"
     stroke-linecap="round"
     id="rect4212"
     ry="1" />
  <circle
     opacity="0.2"
     fill="#fff"
     cx="8"
     cy="41"
     stroke-linejoin="round"
     stroke-linecap="round"
     id="circle4206"
     r="1" />
  <circle
     cx="8"
     cy="40"
     stroke-linejoin="round"
     stroke-linecap="round"
     r="1"
     id="path4202" />
  <circle
     opacity="0.2"
     fill="#fff"
     cx="12"
     cy="41"
     stroke-linejoin="round"
     stroke-linecap="round"
     r="1"
     id="circle4208" />
  <circle
     cx="12"
     cy="40"
     stroke-linejoin="round"
     stroke-linecap="round"
     id="circle4204"
     r="1" />
  <rect
     width="9"
     x="34"
     y="39"
     rx="1"
     height="2"
     stroke-linejoin="round"
     stroke-linecap="round"
     id="rect4210"
     ry="1" />
  <rect
     width="44"
     opacity="0.2"
     x="2"
     y="38"
     fill="#fff"
     rx="1"
     ry="0.5"
     height="1"
     stroke-linejoin="round"
     stroke-linecap="round"
     id="rect4220" />
  <path
     fill="none"
     stroke="#000"
     stroke-linejoin="round"
     stroke-linecap="round"
     id="path4218"
     d="m 2,38.435547 c -0.3199994,0 -0.5644531,0.244454 -0.5644531,0.564453 l 0,4 c 0,0.319999 0.2444537,0.564453 0.5644531,0.564453 l 44,0 c 0.319999,0 0.564453,-0.244454 0.564453,-0.564453 l 0,-4 c 0,-0.319999 -0.244454,-0.564453 -0.564453,-0.564453 l -44,0 z"
     transform="matrix(1 0 0 1 0 -1.00045)" />
  <g
     transform="translate(15.993594,16)"
     id="g3512">
    <path
       d="m 2.0000005,17.004583 a 14,14 0 0 0 27.9999985,0 14,14 0 1 0 -27.9999985,0 z"
       id="path4189"
       style="opacity:0.1;fill:#000000" />
    <path
       style="fill:url(#1)"
       id="path18"
       d="m 2.0000005,16.004583 a 14,14 0 0 0 27.9999985,0 14,14 0 1 0 -27.9999985,0 z" />
    <path
       transform="translate(0,-16)"
       d="m 15.578125,19.480469 c -5.161908,-0.06676 -9.9121334,3.926235 -11.5117188,8.791015 a 1.0338241,1.0338241 0 0 1 -0.00781,0.01953 c -0.8963556,2.553917 -0.8167408,5.422197 0.1386718,7.970703 a 1.0338241,1.0338241 0 0 1 0.015625,0.04492 c 1.6739702,5.183842 7.418556,8.51595 12.802734,8.185547 a 1.0338241,1.0338241 0 0 1 0.02148,-0.002 c 2.522945,-0.101114 4.96676,-1.160496 6.94336,-2.798828 a 1.0338241,1.0338241 0 0 1 0.02734,-0.02148 c 5.357977,-4.158253 5.906819,-13.184805 1.3125,-18.117188 l -0.0039,-0.0039 c -2.490584,-2.6232 -6.084809,-4.206358 -9.685547,-4.068359 a 1.0338241,1.0338241 0 0 1 -0.05273,0 z"
       id="path4179"
       style="opacity:0.4;fill:none;stroke:url(#linearGradient4187);stroke-linejoin:round" />
    <path
       style="opacity:0.4"
       id="path26"
       d="m 20,15 a 4,4 0 0 1 -8,0 4,4 0 1 1 8,0 z" />
    <path
       style="fill:#ffffff"
       id="path28-7"
       d="m 20,16 a 4,4 0 0 1 -8,0 4,4 0 1 1 8,0 z" />
    <path
       id="path3374"
       d="M 15.591797,2.447266 C 9.901317,2.373666 4.818698,6.673977 3.0840211,11.949608 2.101983,14.747654 2.189803,17.85601 3.2277213,20.624595 c 1.842539,5.705855 8.0045787,9.256683 13.8494527,8.898008 2.783347,-0.111551 5.434003,-1.270365 7.563564,-3.03548 5.8913,-4.572158 6.476001,-14.23629 1.429528,-19.645484 C 23.382295,4.008126 19.519895,2.296721 15.591797,2.447266 Z"
       style="opacity:0.6;fill:none;stroke:#000000;stroke-linejoin:round" />
  </g>
  <metadata
     id="metadata9999">
    <rdf:RDF>
      <cc:Work>
        <dc:format>image/svg+xml</dc:format>
        <dc:type
           rdf:resource="http://purl.org/dc/dcmitype/StillImage" />
        <dc:title></dc:title>
        <cc:license
           rdf:resource="http://creativecommons.org/licenses/by-sa/4.0/" />
        <dc:creator>
          <cc:Agent>
            <dc:title>Sixsixfive (sixsixfive.deviantart.com)</dc:title>
          </cc:Agent>
        </dc:creator>
        <dc:publisher>
          <cc:Agent>
            <dc:title>Sixsixfive (sixsixfive.deviantart.com)</dc:title>
          </cc:Agent>
        </dc:publisher>
        <dc:source>https://github.com/sixsixfive</dc:source>
        <dc:subject>
          <rdf:Bag>
            <rdf:li>ivy</rdf:li>
          </rdf:Bag>
        </dc:subject>
        <dc:contributor>
          <cc:Agent>
            <dc:title>ssf</dc:title>
          </cc:Agent>
        </dc:contributor>
        <dc:rights>
          <cc:Agent>
            <dc:title>Sixsixfive (sixisixfive.deviantart.com)</dc:title>
          </cc:Agent>
        </dc:rights>
        <dc:description>A simple icon theme published under CC-BY-SA_V4(http://creativecommons.org/licenses/by-sa/4.0)</dc:description>
        <dc:identifier>SSF</dc:identifier>
      </cc:Work>
    </rdf:RDF>
  </metadata>
  <!--Part of the Ivy icon them published under the CC-BY-SA_V4: http://creativecommons.org/licenses/by-sa/4.0 -->
</svg>
