<?xml version="1.0" encoding="UTF-8" standalone="no"?><svg xmlns:rdf="http://www.w3.org/1999/02/22-rdf-syntax-ns#" xmlns:cc="http://creativecommons.org/ns#" xmlns:svg="http://www.w3.org/2000/svg" id="svg2" viewBox="0 0 48 48" version="1.1" xmlns:xlink="http://www.w3.org/1999/xlink" xmlns:dc="http://purl.org/dc/elements/1.1/" xmlns="http://www.w3.org/2000/svg"><defs id="defs4"><linearGradient id="0" x2="41.919" y2="41.887" xlink:href="#3" x1="42" y1="4" gradientUnits="userSpaceOnUse"/><linearGradient id="1" x2="0" y2="44" xlink:href="#3" y1="26" gradientUnits="userSpaceOnUse"/><linearGradient id="2" x2="0" y2="44.969" y1="25" gradientUnits="userSpaceOnUse"><stop id="stop9" stop-color="#ed4c70"/><stop offset="1" id="stop11" stop-color="#f58fa5"/></linearGradient><linearGradient id="3"><stop id="stop14" stop-color="#fff"/><stop offset="1" id="stop16" stop-color="#fff" stop-opacity="0"/></linearGradient><linearGradient id="4" x2="0" y2="42" y1="2" gradientUnits="userSpaceOnUse"><stop id="stop19" stop-color="#5288d1"/><stop offset="1" id="stop21" stop-color="#a3bfe6"/></linearGradient></defs><path id="path23" opacity="0.15" d="M 23.59375 4.03125 C 18.259672 3.872824 12.894414 5.957146 9.0662 9.674982 5.237996 13.392817 2.997648 18.69482 3 24.03125 3.00817 29.26203 5.167288 34.457359 8.868902 38.15319 12.570515 41.849018 17.769217 44.00001 23 44 v -19.96875 h 20 C 43.00227 18.892766 40.931898 13.78275 37.35359 10.09497 33.775289 6.40718 28.72997 4.183798 23.59375 4.03125 z"/><path id="path25" opacity="0.15" d="M 25 26.03125 V 46 A 20 20 0 0 0 45 26.03125 h -20 z"/><path id="path27" d="M 23.59375 3 C 18.259672 2.841574 12.894414 4.925896 9.0662 8.643732 5.237996 12.361567 2.997648 17.66357 3 23 3.00817 28.23078 5.167288 33.426109 8.868902 37.12194 12.570515 40.817768 17.769217 42.968756 23 42.96875 V 23 H 43 C 43.00227 17.861516 40.931898 12.7515 37.35359 9.06372 33.775289 5.37593 28.72997 3.152548 23.59375 3 z" fill="url(#4)"/><path id="path29" d="m 25 25 v 19.96875 A 20 20 0 0 0 45 25 h -20 z" fill="url(#2)"/><g id="g31" fill="none"><g id="g33" stroke="#000"><path id="path35" opacity="0.4" d="M 23.59375,3.4375 C 18.378655,3.282608 13.08729,5.333145 9.34375,8.96875 5.600213,12.604355 3.4352,17.781743 3.4375,23 c 0.00799,5.114627 2.130268,10.198424 5.75,13.8125 3.516161,3.510666 8.408693,5.570901 13.375,5.6875 l 0,-19.5 A 0.422527,0.422527 0 0 1 23,22.5625 l 19.53125,0 C 42.41844,17.686265 40.4288,12.84525 37.03125,9.34375 33.53182,5.737253 28.616464,3.586677 23.59375,3.4375 Z"/><path id="path37" opacity="0.4" d="m 25.53125,25.53125 0,18.875 c 0.139722,-0.0038 0.286278,0.0074 0.4375,0 0.335197,-0.01645 0.603512,-0.02964 0.9375,-0.0625 0.333988,-0.03286 0.605524,-0.07581 0.9375,-0.125 0.331976,-0.04919 0.608335,-0.09084 0.9375,-0.15625 0.329165,-0.06541 0.611937,-0.137285 0.9375,-0.21875 0.325563,-0.08147 0.616321,-0.152675 0.9375,-0.25 0.321179,-0.09732 0.590228,-0.168298 0.90625,-0.28125 0.316022,-0.112952 0.564895,-0.215442 0.875,-0.34375 0.310105,-0.128308 0.571557,-0.262896 0.875,-0.40625 0.303443,-0.143354 0.547699,-0.248194 0.84375,-0.40625 0.296051,-0.158056 0.555803,-0.296372 0.84375,-0.46875 0.287947,-0.172378 0.533349,-0.344964 0.8125,-0.53125 0.279151,-0.186286 0.511566,-0.331504 0.78125,-0.53125 0.269684,-0.199746 0.490431,-0.381025 0.75,-0.59375 0.259569,-0.212725 0.469921,-0.399807 0.71875,-0.625 0.248829,-0.225193 0.450009,-0.41913 0.6875,-0.65625 0.237491,-0.23712 0.430668,-0.439023 0.65625,-0.6875 0.225582,-0.248477 0.411869,-0.459514 0.625,-0.71875 0.213131,-0.259236 0.393583,-0.480629 0.59375,-0.75 0.200167,-0.269371 0.375778,-0.50239 0.5625,-0.78125 0.186722,-0.27886 0.327171,-0.524823 0.5,-0.8125 0.172829,-0.287677 0.310231,-0.547947 0.46875,-0.84375 0.158519,-0.295803 0.293671,-0.540532 0.4375,-0.84375 0.143829,-0.303218 0.246208,-0.565096 0.375,-0.875 0.128792,-0.309904 0.230304,-0.559155 0.34375,-0.875 0.113446,-0.315845 0.214672,-0.585224 0.3125,-0.90625 0.09783,-0.321026 0.168026,-0.612064 0.25,-0.9375 0.08197,-0.325436 0.152828,-0.608437 0.21875,-0.9375 0.06592,-0.329063 0.106537,-0.605602 0.15625,-0.9375 0.04971,-0.331898 0.09162,-0.603564 0.125,-0.9375 0.03338,-0.333936 0.04552,-0.602329 0.0625,-0.9375 0.0077,-0.15121 -0.004,-0.297784 0,-0.4375 l -18.90625,0 z"/></g><path id="path39" opacity="0.4" d="M 23.5625,4.46875 C 18.640151,4.322553 13.628958,6.285468 10.09375,9.71875 6.558542,13.152033 4.466578,18.0725 4.46875,23 c 0.00755,4.828849 2.01923,9.680821 5.4375,13.09375 3.06894,3.064144 7.29926,4.887937 11.625,5.25 L 21.53125,23 A 1.462118,1.462118 0 0 1 23,21.53125 l 18.375,0 C 41.02026,17.290175 39.24261,13.145719 36.28125,10.09375 32.975886,6.687257 28.30594,4.609633 23.5625,4.46875 Z" stroke="url(#0)"/><path id="path41" opacity="0.4" d="m 26.5,26.5 0,16.90625 c 0.106553,-0.0091 0.19157,-0.01935 0.3125,-0.03125 0.699653,-0.06884 1.0917,-0.112981 1.78125,-0.25 0.68955,-0.137019 1.108431,-0.264869 1.78125,-0.46875 0.672819,-0.203881 1.037879,-0.324966 1.6875,-0.59375 0.649621,-0.268784 1.03607,-0.450147 1.65625,-0.78125 0.62018,-0.331103 0.977722,-0.54726 1.5625,-0.9375 0.584778,-0.39024 0.893744,-0.616874 1.4375,-1.0625 0.543756,-0.445626 0.846243,-0.722021 1.34375,-1.21875 0.497507,-0.496729 0.772274,-0.800692 1.21875,-1.34375 0.446476,-0.543058 0.702596,-0.884583 1.09375,-1.46875 0.391154,-0.584167 0.605427,-0.911588 0.9375,-1.53125 0.332073,-0.619662 0.51145,-1.00705 0.78125,-1.65625 0.2698,-0.6492 0.388817,-1.015001 0.59375,-1.6875 0.204933,-0.672499 0.299403,-1.091915 0.4375,-1.78125 0.138097,-0.689335 0.211316,-1.081706 0.28125,-1.78125 C 43.41834,26.691589 43.4282,26.606539 43.4375,26.5 L 26.5,26.5 Z" stroke="url(#1)"/></g><metadata id="metadata9999"><rdf:RDF><cc:Work><dc:format>image/svg+xml</dc:format><dc:type rdf:resource="http://purl.org/dc/dcmitype/StillImage"/><dc:title>Ivy icon theme</dc:title><cc:license rdf:resource="http://creativecommons.org/licenses/by-sa/4.0/"/><dc:creator><cc:Agent><dc:title>Sixsixfive (sixsixfive.deviantart.com)</dc:title></cc:Agent></dc:creator><dc:publisher><cc:Agent><dc:title>Sixsixfive (sixsixfive.deviantart.com)</dc:title></cc:Agent></dc:publisher><dc:source>https://github.com/sixsixfive</dc:source><dc:subject><rdf:Bag><rdf:li>ivy</rdf:li></rdf:Bag></dc:subject><dc:contributor><cc:Agent><dc:title>ssf</dc:title></cc:Agent></dc:contributor><dc:rights><cc:Agent><dc:title>Sixsixfive (sixisixfive.deviantart.com)</dc:title></cc:Agent></dc:rights><dc:description>A simple icon theme published under CC-BY-SA_V4(http://creativecommons.org/licenses/by-sa/4.0)</dc:description><dc:identifier>SSF</dc:identifier></cc:Work></rdf:RDF></metadata><!--Part of the Ivy icon them published under the CC-BY-SA_V4: http://creativecommons.org/licenses/by-sa/4.0 -->
</svg>