<?xml version="1.0" encoding="UTF-8" standalone="no"?><svg xmlns:cc="http://creativecommons.org/ns#" xmlns:svg="http://www.w3.org/2000/svg" xmlns="http://www.w3.org/2000/svg" xmlns:dc="http://purl.org/dc/elements/1.1/" xmlns:rdf="http://www.w3.org/1999/02/22-rdf-syntax-ns#" id="svg2" version="1.1" viewBox="0 0 48 48"><defs id="defs4"><linearGradient gradientUnits="userSpaceOnUse" y1="5.158" id="0" x1="43.06" y2="57.35" x2="45.503"><stop id="stop7" stop-color="#fff"/><stop stop-opacity="0" id="stop9" stop-color="#fff" offset="1"/></linearGradient><linearGradient gradientUnits="userSpaceOnUse" y1="4" id="1" y2="41" x2="0"><stop id="stop12" stop-color="#ddd"/><stop id="stop14" stop-color="#ebebeb" offset="1"/></linearGradient></defs><path opacity="0.1" d="M 4,5.22 H44 V43.22 H4 z" id="path16"/><path d="M 4,4.22 H44 V42.22 H4 z" id="path18" fill="url(#1)"/><path stroke="#000" opacity="0.4" d="m 4.468728 4.688542 v 37.0625 h 39.0625 v -37.0625 h -39.0625 z" id="path20" fill="none"/><g transform="matrix(0.98965 0 0 1.0105 0 -1)" id="g22"><path d="m 25.821957,20.112362 c 0.497325,-0.686784 0.745993,-1.274902 0.746003,-1.764356 -10e-6,-0.670994 -0.157894,-1.231482 -0.473652,-1.681466 -0.307884,-0.457849 -0.821007,-0.686781 -1.539371,-0.686796 -0.860476,1.5e-5 -1.444647,0.335519 -1.752514,1.006511 -0.307881,0.663128 -0.461818,1.622273 -0.461811,2.877439 l 0,5.13913 c -7e-6,1.255184 0.240767,2.218276 0.72232,2.88928 0.489433,0.663116 1.18807,0.994673 2.095912,0.99467 1.010449,3e-6 1.709085,-0.2684 2.095912,-0.805209 0.386805,-0.536802 0.580213,-0.967036 0.580225,-1.290703 -1.2e-5,-1.128866 -0.46577,-2.028805 -1.397275,-2.69982 -0.505239,-0.339443 -1.755241,-0.326637 -3.144612,-0.358222 l 0,-2.898138 c 1.286747,-0.197345 2.331499,-0.438118 2.528863,-0.72232 m -7.720535,16.554154 0,-16.577837 c -2e-6,-2.218259 0.544698,-3.891829 1.634101,-5.020716 0.899935,-0.939394 1.788033,-1.539353 2.664295,-1.79988 0.87625,-0.268384 1.618305,-0.402586 2.226167,-0.402604 0.607845,0.0079 0.959137,0.01975 1.053877,0.03552 1.618301,0.252633 2.881373,0.888116 3.78922,1.906451 0.631522,0.694706 0.94729,1.752529 0.947305,3.173471 -1.5e-5,0.726281 -0.217105,1.417023 -0.651273,2.07223 -0.528925,0.80522 -1.18809,1.239401 -1.977499,1.302544 1.16833,0.315779 2.115634,0.805219 2.841915,1.468323 1.13675,1.018361 1.705133,2.324851 1.705149,3.919474 -1.6e-5,1.405173 -0.493404,2.628774 -1.480164,3.670807 -0.98679,1.034142 -2.368275,1.551212 -4.144459,1.551212 -1.776206,0 -3.232686,-0.753896 -4.369444,-2.261691 l 0,6.962692 -4.23919,0" id="path24" fill="#fff"/><path d="m 25.821957,19.122678 c 0.497325,-0.686784 0.745993,-1.274902 0.746003,-1.764356 -10e-6,-0.670994 -0.157894,-1.231482 -0.473652,-1.681466 -0.307884,-0.457849 -0.821007,-0.686781 -1.539371,-0.686796 -0.860476,1.5e-5 -1.444647,0.335519 -1.752514,1.006511 -0.307881,0.663128 -0.461818,1.622273 -0.461811,2.877439 l 0,5.13913 c -7e-6,1.255184 0.240767,2.218276 0.72232,2.88928 0.489433,0.663116 1.18807,0.994673 2.095912,0.99467 1.010449,3e-6 1.709085,-0.2684 2.095912,-0.805209 0.386805,-0.536802 0.580213,-0.967036 0.580225,-1.290703 -1.2e-5,-1.128866 -0.46577,-2.028805 -1.397275,-2.69982 -0.505239,-0.339443 -1.755241,-0.326637 -3.144612,-0.358222 l 0,-2.898138 c 1.286747,-0.197345 2.331499,-0.438118 2.528863,-0.72232 m -7.720535,16.554154 0,-16.577837 c -2e-6,-2.218259 0.544698,-3.891829 1.634101,-5.020716 0.899935,-0.939394 1.788033,-1.539353 2.664295,-1.79988 0.87625,-0.268384 1.618305,-0.402586 2.226167,-0.402604 0.607845,0.0079 0.959137,0.01975 1.053877,0.03552 1.618301,0.252633 2.881373,0.888116 3.78922,1.906451 0.631522,0.694706 0.94729,1.752529 0.947305,3.173471 -1.5e-5,0.726281 -0.217105,1.417023 -0.651273,2.07223 -0.528925,0.80522 -1.18809,1.239401 -1.977499,1.302544 1.16833,0.315779 2.115634,0.805219 2.841915,1.468323 1.13675,1.018361 1.705133,2.324851 1.705149,3.919474 -1.6e-5,1.405173 -0.493404,2.628774 -1.480164,3.670807 -0.98679,1.034142 -2.368275,1.551212 -4.144459,1.551212 -1.776206,0 -3.232686,-0.753896 -4.369444,-2.261691 l 0,6.962692 -4.23919,0" id="path26" fill="#6a6a6a"/></g><path stroke="url(#0)" opacity="0.8" d="m 5.437528 5.657342 v 35.125 h 37.125 v -35.125 h -37.125 z" id="path28" fill="none"/><metadata id="metadata9999"><rdf:RDF><cc:Work><dc:format>image/svg+xml</dc:format><dc:type rdf:resource="http://purl.org/dc/dcmitype/StillImage"/><dc:title>Ivy icon theme</dc:title><cc:license rdf:resource="http://creativecommons.org/licenses/by-sa/4.0/"/><dc:creator><cc:Agent><dc:title>Sixsixfive (sixsixfive.deviantart.com)</dc:title></cc:Agent></dc:creator><dc:publisher><cc:Agent><dc:title>Sixsixfive (sixsixfive.deviantart.com)</dc:title></cc:Agent></dc:publisher><dc:source>https://github.com/sixsixfive</dc:source><dc:subject><rdf:Bag><rdf:li>ivy</rdf:li></rdf:Bag></dc:subject><dc:contributor><cc:Agent><dc:title>ssf</dc:title></cc:Agent></dc:contributor><dc:rights><cc:Agent><dc:title>Sixsixfive (sixisixfive.deviantart.com)</dc:title></cc:Agent></dc:rights><dc:description>A simple icon theme published under CC-BY-SA_V4(http://creativecommons.org/licenses/by-sa/4.0)</dc:description><dc:identifier>SSF</dc:identifier></cc:Work></rdf:RDF></metadata><!--Part of the Ivy icon them published under the CC-BY-SA_V4: http://creativecommons.org/licenses/by-sa/4.0 -->
</svg>