<?xml version="1.0" encoding="UTF-8" standalone="no"?>
<svg xmlns:dc="http://purl.org/dc/elements/1.1/" xmlns:cc="http://creativecommons.org/ns#" xmlns:rdf="http://www.w3.org/1999/02/22-rdf-syntax-ns#" xmlns:svg="http://www.w3.org/2000/svg" xmlns="http://www.w3.org/2000/svg" xmlns:xlink="http://www.w3.org/1999/xlink" version="1.1" id="svg2" viewBox="0 0 48 48">
 <defs id="defs4">
  <linearGradient gradientUnits="userSpaceOnUse" x2="42" y2="26" x1="40" y1="-3" id="0">
   <stop id="stop7" stop-color="#d02604"/>
   <stop id="stop9" stop-color="#eed45a" offset="1"/>
  </linearGradient>
  <linearGradient gradientUnits="userSpaceOnUse" x2="0" y2="45" y1="18" xlink:href="#2" id="1"/>
  <linearGradient id="2">
   <stop id="stop13" stop-color="#ff8b36"/>
   <stop id="stop15" stop-color="#eed45a" offset="1"/>
  </linearGradient>
  <linearGradient gradientUnits="userSpaceOnUse" x2="31" y2="36" x1="33" y1="16" xlink:href="#2" id="3"/>
  <linearGradient gradientUnits="userSpaceOnUse" x2="0" y2="44.06" y1="1.938" id="4">
   <stop id="stop19" stop-color="#fff"/>
   <stop id="stop21" stop-opacity="0" stop-color="#fff" offset="1"/>
  </linearGradient>
  <radialGradient gradientUnits="userSpaceOnUse" id="5" r="21.06" cy="12" cx="22">
   <stop id="stop24" stop-color="#bababa"/>
   <stop id="stop26" stop-color="#dedede" offset="1"/>
  </radialGradient>
  <radialGradient gradientUnits="userSpaceOnUse" id="6" r="18.19" cy="14" cx="25">
   <stop id="stop29"/>
   <stop id="stop31" stop-opacity="0.264" offset="1"/>
  </radialGradient>
 </defs>
 <path id="path33" d="M 24 2.563 C 12.1515 2.563 2.5617 12.13162 2.5625 23.9692 2.561662 35.8071 12.15348 45.4379 24 45.438 35.8465 45.438 45.4383 35.80713 45.4375 23.9692 45.43834 12.1316 35.84846 2.563 24 2.563 z m 0 18.375 c 1.68363 -0.000002 3.0625 1.37887 3.0625 3.0625 0 1.68363 -1.37887 3.0625 -3.0625 3.0625 -1.68363 0 -3.0625 -1.37887 -3.0625 -3.0625 0 -1.68363 1.37887 -3.0625 3.0625 -3.0625 z" stroke="#000" fill="none" opacity="0.15"/>
 <path id="path35" d="M 24 1.9375 C 12.3502 1.9375 2.9367 11.33044 2.9375 22.9687 2.936676 34.607 12.3538 44.0624 24 44.0625 35.6462 44.0625 45.0633 34.60704 45.0625 22.9687 45.06332 11.3304 35.64983 1.9375 24 1.9375 z m 0 17.625 c 1.89014 -0.000001 3.4375 1.54736 3.4375 3.4375 0 1.89014 -1.54736 3.4375 -3.4375 3.4375 -1.89014 0 -3.4375 -1.54736 -3.4375 -3.4375 0 -1.89014 1.54736 -3.4375 3.4375 -3.4375 z" fill="url(#5)"/>
 <path id="path37" d="M 6.8438 10.7812 C 4.56842 13.97449 3.15585 17.81908 2.9688 22 h 17.75 c 0.01604 -0.05231 0.04405 -0.105009 0.0625 -0.15625 L 6.8438 10.78125 z" fill="#fff" opacity="0.24"/>
 <path id="path39" d="M 24,2.4375 C 12.6209,2.4375 3.4367,11.60205 3.4375,22.9687 3.4366957,34.3354 12.62628,43.5624 24,43.5625 35.3737,43.562499 44.5633,34.33542 44.5625,22.9687 44.563304,11.602 35.37908,2.4375 24,2.4375 z m 0,16.625 c 2.16216,-2e-6 3.9375,1.77534 3.9375,3.9375 0,2.16216 -1.77534,3.9375 -3.9375,3.9375 -2.16216,0 -3.9375,-1.77534 -3.9375,-3.9375 0,-2.16216 1.77534,-3.9375 3.9375,-3.9375 z" stroke="url(#4)" fill="none" opacity="0.8"/>
 <path id="path41" d="M 24 4.8125 C 13.8995 4.8125 5.8118 12.88485 5.8125 22.9687 5.811786 33.052 13.91397 41.1874 24 41.1875 34.086 41.1875 42.1882 33.05203 42.1875 22.9687 42.18821 12.8848 34.10047 4.8125 24 4.8125 z M 24 18 c 2.76 0 5 2.24 5 5 0 2.76 -2.24 5 -5 5 -2.76 0 -5 -2.24 -5 -5 0 -2.76 2.24 -5 5 -5 z" fill="url(#6)" opacity="0.18"/>
 <path id="path43" d="m 24,18 c -2.76,0 -5,2.24 -5,5 0,2.76 2.24,5 5,5 2.76,0 5,-2.24 5,-5 0,-2.76 -2.24,-5 -5,-5 z m 0,1.5625 c 1.89014,-1e-6 3.4375,1.54736 3.4375,3.4375 0,1.89014 -1.54736,3.4375 -3.4375,3.4375 -1.89014,0 -3.4375,-1.54736 -3.4375,-3.4375 0,-1.89014 1.54736,-3.4375 3.4375,-3.4375 z" fill="#ebebeb"/>
 <path id="path45" d="m 24 15.4375 c -4.15098 0 -7.5625 3.41152 -7.5625 7.5625 0 4.15098 3.41152 7.5625 7.5625 7.5625 4.15098 0 7.5625 -3.41152 7.5625 -7.5625 0 -4.15098 -3.41152 -7.5625 -7.5625 -7.5625 z m 0 1.7812 c 3.18674 0 5.78125 2.59451 5.78125 5.78125 0 3.18674 -2.59451 5.78125 -5.78125 5.78125 -3.18674 0 -5.78125 -2.59451 -5.78125 -5.78125 0 -3.18674 2.59451 -5.78125 5.78125 -5.78125 z" fill="#2e3436" opacity="0.2"/>
 <path id="path47" d="M 24 1.5625 C 12.1515 1.5625 2.5617 11.13112 2.5625 22.9687 2.561662 34.8066 12.15348 44.4374 24 44.4375 35.8465 44.4375 45.4383 34.80663 45.4375 22.9687 45.43834 11.1311 35.84846 1.5625 24 1.5625 z m 0 18.375 c 1.68363 -0.000002 3.0625 1.37887 3.0625 3.0625 0 1.68363 -1.37887 3.0625 -3.0625 3.0625 -1.68363 0 -3.0625 -1.37887 -3.0625 -3.0625 0 -1.68363 1.37887 -3.0625 3.0625 -3.0625 z" stroke="#6a6a6a" fill="none" opacity="0.6"/>
 <path id="path49" d="m 27.4375 23 c 0 0.337526 -0.06443 0.659945 -0.15625 0.96875 l 14.125 10.8438 c 2.2939 -3.3731 3.65023 -7.42866 3.65625 -11.8125 h -17.625 z" fill="#fff" opacity="0.14"/>
 <path id="path51" d="M 36 18 C 35.697511 23.64334 35.96999 29.5422 33 34 29.39472 28.72947 25.71183 30.23387 23.90625 30.0625 25.70864 30.852149 27.73682 31.37007 25 37 c -3.20211 -1.20211 -4.67905 -1.2728 -6.46875 -1.0625 3.51914 2.7246 7.62107 5.21084 9.3125 8.71875 9.75619 -1.72649 17.2707 -9.89439 18.0625 -19.9375 C 44.47404 26.58962 42.63971 28.13539 40 29 41.07532 23.16555 37.7467 21.29464 36 18 z" fill="url(#1)"/>
 <path id="path53" d="m 27 16 c 3.83701 2.17767 8.80798 5.67047 4.2335 11.7513 C 26.6753 26.55566 28.67346 20.18448 27 16 z" fill="url(#3)"/>
 <g id="g55" fill="none">
  <g id="g57" stroke="#000">
   <path id="path59" d="m 27.8125,17.0938 c 0.468318,1.9306 0.467923,4.04003 0.6875,5.84375 0.134441,1.10437 0.35642,2.07487 0.78125,2.8125 0.371211,0.644529 0.941966,1.08452 1.75,1.375 1.93894,-2.75349 1.83031,-4.77795 0.8125,-6.46875 -0.865522,-1.43781 -2.44893,-2.58513 -4.03125,-3.5625 z" opacity="0.2"/>
   <path id="path61" d="m 36.4688,19.7188 c -0.196662,5.10596 -0.200727,10.3922 -3,14.5938 a 0.570661,0.570661 0 0 1 -0.9375,0 c -1.73724,-2.53965 -3.41217,-3.34643 -4.875,-3.625 -0.584926,-0.111389 -1.10232,-0.07974 -1.625,-0.0625 0.256627,0.238434 0.500666,0.503452 0.65625,0.875 0.500338,1.19485 0.208147,2.879 -1.1875,5.75 a 0.570661,0.570661 0 0 1 -0.6875,0.28125 c -2.17384,-0.816086 -3.45981,-1.00443 -4.625,-1.03125 3.02522,2.23513 6.21038,4.4481 7.875,7.5 8.79314,-1.69767 15.5875,-8.76424 17,-17.6562 -1.30516,1.33054 -2.79516,2.50627 -4.875,3.1875 a 0.570661,0.570661 0 0 1 -0.75,-0.625 c 0.516666,-2.80333 -0.0061,-4.53642 -0.875,-6.0625 -0.601574,-1.05652 -1.3546,-2.06519 -2.09375,-3.125 z" opacity="0.2"/>
  </g>
  <g id="g63" stroke="#fff">
   <path id="path65" d="m 37.3125,22.75 c -0.183913,4.20185 -0.560852,8.46397 -3,12.125 a 1.57445,1.57445 0 0 1 -2.625,0 c -1.54711,-2.26171 -2.84863,-2.89671 -4.03125,-3.15625 0.3935,1.53935 0.03289,3.32971 -1.25,5.96875 A 1.57445,1.57445 0 0 1 24.5625,38.5 c 1.54595,1.25304 2.88361,2.68621 3.9375,4.34375 7.1305,-1.62122 12.8053,-6.94739 14.9375,-13.875 C 42.532701,29.549313 41.63232,30.12912 40.5,30.5 a 1.57445,1.57445 0 0 1 -2.0625,-1.78125 c 0.47974,-2.60298 0.03603,-4.02578 -0.75,-5.40625 -0.09639,-0.169292 -0.26501,-0.394243 -0.375,-0.5625 z" opacity="0.36"/>
   <path id="path67" d="m 29.125,19.125 c 0.138362,1.32852 0.178639,2.5879 0.3125,3.6875 0.127701,1.049 0.368209,1.91437 0.6875,2.46875 0.143839,0.249746 0.462898,0.334732 0.65625,0.5 1.18709,-2.02577 1.00552,-3.36993 0.25,-4.625 C 30.605331,20.448709 29.91776,19.7586 29.125,19.125 Z" opacity="0.2"/>
  </g>
 </g>
 <path id="path69" d="M 39.9361 4.9986 C 40.756093 12.29933 36.14758 14.42049 42.00004 20 46.44914 16.32332 42.566318 10.33049 39.9361 4.9986 z" fill="url(#0)"/>
 <g id="g71" fill="none">
  <path id="path73" d="m 40.5938,7.5938 c -0.118881,2.35386 -0.712441,4.11252 -0.9375,5.625 -0.151444,1.01776 -0.144605,1.91834 0.21875,2.90625 0.318311,0.865444 1.02195,1.8644 2.125,3 0.722399,-0.730311 1.17813,-1.50287 1.34375,-2.375 C 43.541119,15.71101 43.41868,14.539 43.06255,13.2813 42.554419,11.48678 41.58669,9.53961 40.5938,7.5938 Z" opacity="0.1" stroke="#000"/>
  <path id="path75" d="m 41.0938,10.875 c -0.191567,0.908958 -0.399843,1.82691 -0.5,2.5 -0.13892,0.933595 -0.142201,1.62605 0.15625,2.4375 0.171792,0.467079 0.84164,1.17139 1.3125,1.78125 0.171784,-0.324225 0.305774,-0.666721 0.375,-1.03125 0.159677,-0.840827 0.05011,-1.861 -0.28125,-3.03125 -0.232375,-0.820659 -0.654531,-1.74652 -1.0625,-2.65625 z" opacity="0.14" stroke="#fff"/>
 </g>
 <metadata id="metadata9999">
  <rdf:RDF>
   <cc:Work>
    <dc:format>image/svg+xml</dc:format>
    <dc:type rdf:resource="http://purl.org/dc/dcmitype/StillImage"/>
    <dc:title>Ivy icon theme</dc:title>
    <cc:license rdf:resource="http://creativecommons.org/licenses/by-sa/4.0/"/>
    <dc:creator>
     <cc:Agent>
      <dc:title>Sixsixfive (sixsixfive.deviantart.com)</dc:title>
     </cc:Agent>
    </dc:creator>
    <dc:publisher>
     <cc:Agent>
      <dc:title>Sixsixfive (sixsixfive.deviantart.com)</dc:title>
     </cc:Agent>
    </dc:publisher>
    <dc:source>https://github.com/sixsixfive</dc:source>
    <dc:subject>
     <rdf:Bag>
      <rdf:li>ivy</rdf:li>
     </rdf:Bag>
    </dc:subject>
    <dc:contributor>
     <cc:Agent>
      <dc:title>ssf</dc:title>
     </cc:Agent>
    </dc:contributor>
    <dc:rights>
     <cc:Agent>
      <dc:title>Sixsixfive (sixisixfive.deviantart.com)</dc:title>
     </cc:Agent>
    </dc:rights>
    <dc:description>A simple icon theme published under CC-BY-SA_V4(http://creativecommons.org/licenses/by-sa/4.0)</dc:description>
    <dc:identifier>SSF</dc:identifier>
   </cc:Work>
  </rdf:RDF>
 </metadata>
 <!--Part of the Ivy icon them published under the CC-BY-SA_V4: http://creativecommons.org/licenses/by-sa/4.0 -->
</svg>
