<?xml version="1.0" encoding="UTF-8" standalone="no"?><svg xmlns:xlink="http://www.w3.org/1999/xlink" xmlns:cc="http://creativecommons.org/ns#" viewBox="0 0 48 48" version="1.1" id="svg2" xmlns:svg="http://www.w3.org/2000/svg" xmlns="http://www.w3.org/2000/svg" xmlns:rdf="http://www.w3.org/1999/02/22-rdf-syntax-ns#" xmlns:dc="http://purl.org/dc/elements/1.1/"><defs id="defs4"><linearGradient id="linearGradient4227"><stop stop-opacity="1" stop-color="#ff8c36" id="stop4229"/><stop offset="1" stop-opacity="1" stop-color="#5288d1" id="stop4231"/></linearGradient><linearGradient id="linearGradient4153"><stop stop-opacity="1" stop-color="#c12204" id="stop4155"/><stop offset="1" stop-opacity="1" stop-color="#fc8068" id="stop4157"/></linearGradient><linearGradient x2="0" gradientUnits="userSpaceOnUse" y2="40.485" id="0" y1="10.765"><stop stop-color="#fff" id="stop7"/><stop offset="1" stop-opacity="0" stop-color="#fff" id="stop9"/></linearGradient><linearGradient x2="0.00844067" gradientUnits="userSpaceOnUse" x1="0" y2="32.674267" id="5467" y1="9.9659996"><stop stop-opacity="1" stop-color="#d02604" id="stop12"/><stop offset="1" stop-opacity="1" stop-color="#ff8b36" id="stop14"/></linearGradient><linearGradient x2="37" gradientUnits="userSpaceOnUse" x1="37" xlink:href="#linearGradient4153" y2="44" id="linearGradient4159" y1="26"/><radialGradient r="19.891602" gradientUnits="userSpaceOnUse" fx="23.447456" fy="15.620892" cx="23.447456" cy="15.620892" xlink:href="#linearGradient4227" id="radialGradient4233" gradientTransform="matrix(-1.1562668 1.1562669 -1.1562669 -1.1562669 69.173435 15.950401)"/></defs><path opacity="0.15" id="path3365" d="m 44.002139,25.000198 a 20.00007,20.000037 0 1 1 -40.0000211,0 20.00007,20.000037 0 1 1 40.0000211,0 z"/><path fill-opacity="1" fill="url(#5467)" id="path26" transform="matrix(1.18474 0 0 1.27706 -9.01 -8.727)" d="m 44.7458 25.6271 a 16.8814 15.661 0 1 1 -33.7627 0 16.8814 15.661 0 1 1 33.7627 0 z"/><path fill-opacity="1" opacity="0.2" fill="#000" id="path4241" d="m 34,23.50012 a 10,9.50012 0 0 1 -20,0 10,9.50012 0 1 1 20,0 z"/><path fill-opacity="1" fill="#ffc136" id="path27" d="m 33,24.00027 a 9,8.99997 0 0 1 -18,0 9,8.99997 0 1 1 18,0 z"/><path stroke-dasharray="none" fill-opacity="1" fill-rule="evenodd" stroke-linejoin="round" stroke-miterlimit="4" opacity="1" fill="url(#radialGradient4233)" stroke="none" id="rect4148" stroke-width="3" stroke-linecap="round" stroke-dashoffset="0" stroke-opacity="1" d="M 4.1230469 26 A 20.00007 20.000037 0 0 0 43.90625 26 L 4.1230469 26 z "/><rect stroke-dasharray="none" height="1" width="38" fill-opacity="1" fill-rule="evenodd" stroke-linejoin="round" stroke-miterlimit="4" opacity="0.3" fill="#000" stroke="none" id="rect4235" stroke-width="3" stroke-linecap="round" x="5" y="26" stroke-dashoffset="0" stroke-opacity="1"/><g fill="none" id="g29" stroke-width="0.813"><path opacity="0.4" stroke="url(#0)" id="path31" transform="matrix(1.18474 0 0 1.27706 -9.01 -8.727)" d="m 27.875,11.1562 c -8.7313,0 -15.7188,6.51002 -15.7188,14.4688 0,7.95873 6.98745,14.4688 15.7188,14.4688 8.7313,0 15.6875,-6.50717 15.6875,-14.4688 0,-7.96158 -6.9562,-14.4688 -15.6875,-14.4688 z"/><path opacity="0.51" stroke="#000" id="path33" transform="matrix(1.18474 0 0 1.27706 -9.01 -8.727)" d="m 27.875,10.375 c -9.11523,0 -16.5,6.84339 -16.5,15.25 0,8.40661 7.38477,15.25 16.5,15.25 9.11523,0 16.4688,-6.84239 16.4688,-15.25 0,-8.40761 -7.35352,-15.25 -16.4688,-15.25 z"/></g><metadata id="metadata9999"><rdf:RDF><cc:Work><dc:format>image/svg+xml</dc:format><dc:type rdf:resource="http://purl.org/dc/dcmitype/StillImage"/><dc:title/><cc:license rdf:resource="http://creativecommons.org/licenses/by-sa/4.0/"/><dc:creator><cc:Agent><dc:title>Sixsixfive (sixsixfive.deviantart.com)</dc:title></cc:Agent></dc:creator><dc:publisher><cc:Agent><dc:title>Sixsixfive (sixsixfive.deviantart.com)</dc:title></cc:Agent></dc:publisher><dc:source>https://github.com/sixsixfive</dc:source><dc:subject><rdf:Bag><rdf:li>ivy</rdf:li></rdf:Bag></dc:subject><dc:contributor><cc:Agent><dc:title>ssf</dc:title></cc:Agent></dc:contributor><dc:rights><cc:Agent><dc:title>Sixsixfive (sixisixfive.deviantart.com)</dc:title></cc:Agent></dc:rights><dc:description>A simple icon theme published under CC-BY-SA_V4(http://creativecommons.org/licenses/by-sa/4.0)</dc:description><dc:identifier>SSF</dc:identifier></cc:Work></rdf:RDF></metadata><!--Part of the Ivy icon them published under the CC-BY-SA_V4: http://creativecommons.org/licenses/by-sa/4.0 -->
</svg>