<?xml version="1.0" encoding="UTF-8" standalone="no"?>
<svg
   xmlns:dc="http://purl.org/dc/elements/1.1/"
   xmlns:cc="http://creativecommons.org/ns#"
   xmlns:rdf="http://www.w3.org/1999/02/22-rdf-syntax-ns#"
   xmlns:svg="http://www.w3.org/2000/svg"
   xmlns="http://www.w3.org/2000/svg"
   xmlns:xlink="http://www.w3.org/1999/xlink"
   id="svg2"
   viewBox="0 0 48 48"
   version="1.1">
  <defs
     id="defs4">
    <linearGradient
       id="linearGradient4463">
      <stop
         id="stop4465"
         offset="0"
         style="stop-color:#d6d6d6;stop-opacity:1" />
      <stop
         id="stop4467"
         offset="1"
         style="stop-color:#f9f9f9;stop-opacity:1" />
    </linearGradient>
    <linearGradient
       gradientUnits="userSpaceOnUse"
       x2="0"
       y2="44"
       y1="3"
       id="linearGradient7346">
      <stop
         id="stop7348"
         stop-color="#171717" />
      <stop
         id="stop7350"
         stop-color="#6a6a6a"
         offset="1" />
    </linearGradient>
    <linearGradient
       gradientUnits="userSpaceOnUse"
       x2="0"
       y2="44"
       y1="3"
       id="linearGradient6540">
      <stop
         id="stop6542"
         stop-color="#ed4c70"
         style="stop-color:#5288d1;stop-opacity:1" />
      <stop
         id="stop6544"
         stop-color="#f27c96"
         offset="1"
         style="stop-color:#6e9bd8;stop-opacity:1" />
    </linearGradient>
    <linearGradient
       id="0"
       y1="3"
       y2="44"
       x2="0"
       gradientUnits="userSpaceOnUse">
      <stop
         stop-color="#5288d1"
         id="stop7" />
      <stop
         offset="1"
         stop-color="#8db0e1"
         id="stop9" />
    </linearGradient>
    <linearGradient
       id="1"
       y1="3"
       x1="40"
       y2="42.969"
       x2="39.906"
       gradientUnits="userSpaceOnUse">
      <stop
         stop-color="#fff"
         id="stop12" />
      <stop
         offset="1"
         stop-color="#fff"
         stop-opacity="0"
         id="stop14" />
    </linearGradient>
    <linearGradient
       xlink:href="#1"
       id="linearGradient3369"
       gradientUnits="userSpaceOnUse"
       x1="40"
       y1="3"
       x2="39.906"
       y2="42.969" />
    <linearGradient
       xlink:href="#linearGradient6540"
       id="linearGradient3371"
       gradientUnits="userSpaceOnUse"
       y1="3"
       x2="0"
       y2="44"
       gradientTransform="translate(0,3.0000001)" />
    <linearGradient
       xlink:href="#linearGradient7346"
       id="linearGradient3375"
       gradientUnits="userSpaceOnUse"
       y1="3"
       x2="0"
       y2="44"
       gradientTransform="translate(0,3.0000001)" />
    <linearGradient
       xlink:href="#0"
       id="linearGradient3417"
       gradientUnits="userSpaceOnUse"
       y1="3"
       x2="0"
       y2="44"
       gradientTransform="translate(0,-0.9999999)" />
    <linearGradient
       xlink:href="#1"
       id="linearGradient3419"
       gradientUnits="userSpaceOnUse"
       x1="40"
       y1="3"
       x2="39.906"
       y2="42.969"
       gradientTransform="translate(0,-0.9999999)" />
    <path
       opacity="0.4"
       id="0-7"
       d="m 17.6183 21.2899 a 1.88431 1.64877 0 1 1 -3.76862 0 1.88431 1.64877 0 1 1 3.76862 0 z" />
    <linearGradient
       gradientUnits="userSpaceOnUse"
       y2="47"
       x2="33"
       y1="17"
       x1="33"
       id="linearGradient4469"
       xlink:href="#linearGradient4463" />
    <clipPath
       id="clipPath4482"
       clipPathUnits="userSpaceOnUse">
      <rect
         style="fill:#ffffff"
         id="rect4484"
         height="42"
         rx="1.209"
         y="5"
         x="7.9860001"
         width="34.951"
         ry="1.209" />
    </clipPath>
  </defs>
  <rect
     ry="1.209"
     fill="url(#linearGradient3417)"
     id="rect3401"
     height="42"
     rx="1.209"
     y="1"
     x="3.986"
     width="34.951" />
  <path
     stroke="#000"
     fill="none"
     opacity="0.4"
     d="m 5.1873,1.5000001 c -0.403779,0 -0.6875,0.299839 -0.6875,0.71875 l 0,39.5624999 c 0,0.418911 0.283721,0.71875 0.6875,0.71875 l 32.5313,0 c 0.40378,0 0.71875,-0.31497 0.71875,-0.71875 l 0,-39.5624999 c 0,-0.403779 -0.31497,-0.71875 -0.71875,-0.71875 l -32.5313,0 z"
     id="path3405" />
  <path
     stroke="url(#linearGradient3419)"
     fill="none"
     opacity="0.5"
     d="m 5.531,2.5312001 0,38.9374999 31.875,0 0,-38.9374999 -31.875,0 z"
     id="path3407" />
  <rect
     ry="1.209"
     fill="url(#linearGradient3417)"
     id="rect3409"
     height="42"
     rx="1.209"
     y="1"
     x="7.986"
     width="34.951" />
  <path
     stroke="#000"
     fill="none"
     opacity="0.4"
     d="m 9.1875,1.5000001 c -0.403779,0 -0.6875,0.299839 -0.6875,0.71875 L 8.5,41.78125 C 8.5,42.20016 8.783721,42.5 9.1875,42.5 l 32.5312,0 c 0.40378,0 0.71875,-0.31497 0.71875,-0.71875 l 0,-39.5624999 c 0,-0.403779 -0.31497,-0.71875 -0.71875,-0.71875 l -32.5312,0 z"
     id="path3413" />
  <path
     stroke="url(#linearGradient3419)"
     fill="none"
     opacity="0.5"
     d="m 9.5313,2.5312001 0,38.9374999 31.875,0 0,-38.9374999 -31.875,0 z"
     id="path3415" />
  <rect
     ry="1.209"
     fill="#ebebeb"
     id="rect3377"
     height="42"
     rx="1.209"
     y="2"
     x="3.986"
     width="34.951" />
  <path
     stroke="#fff"
     fill="none"
     d="m 5.1873,2.5000001 c -0.403779,0 -0.6875,0.299839 -0.6875,0.71875 l 0,39.5624999 c 0,0.418911 0.283721,0.71875 0.6875,0.71875 l 32.5313,0 c 0.40378,0 0.71875,-0.31497 0.71875,-0.71875 l 0,-39.5624999 c 0,-0.403779 -0.31497,-0.71875 -0.71875,-0.71875 l -32.5313,0 z"
     id="path3381" />
  <path
     stroke="#000"
     fill="none"
     opacity="0.4"
     id="path3441"
     d="m 5.1873,1.5000001 c -0.403779,0 -0.6875,0.299839 -0.6875,0.71875 l 0,39.5624999 c 0,0.418911 0.283721,0.71875 0.6875,0.71875 l 32.5313,0 c 0.40378,0 0.71875,-0.31497 0.71875,-0.71875 l 0,-39.5624999 c 0,-0.403779 -0.31497,-0.71875 -0.71875,-0.71875 l -32.5313,0 z" />
  <rect
     ry="1.209"
     fill="#ebebeb"
     id="rect3385"
     height="42"
     rx="1.209"
     y="2"
     x="7.986"
     width="34.951" />
  <path
     stroke="#fff"
     fill="none"
     opacity="0.82"
     d="m 9.1875,2.5000001 c -0.403779,0 -0.6875,0.299839 -0.6875,0.71875 L 8.5,42.78125 C 8.5,43.20016 8.783721,43.5 9.1875,43.5 l 32.5312,0 c 0.40378,0 0.71875,-0.31497 0.71875,-0.71875 l 0,-39.5624999 c 0,-0.403779 -0.31497,-0.71875 -0.71875,-0.71875 l -32.5312,0 z"
     id="path3389" />
  <rect
     ry="1.209"
     opacity="0.1"
     width="38.951"
     x="4"
     y="6"
     rx="1.209"
     height="42"
     id="rect16" />
  <rect
     stroke-linecap="square"
     opacity="0.2"
     id="rect3431"
     width="1"
     height="4"
     x="8"
     y="2" />
  <rect
     ry="1.209"
     fill="url(#linearGradient3375)"
     width="34.951"
     x="3.986"
     y="5"
     rx="1.209"
     height="42"
     id="rect18" />
  <path
     stroke="#000"
     fill="none"
     opacity="0.4"
     id="path3445"
     d="m 9.1875,1.5000001 c -0.403779,0 -0.6875,0.299839 -0.6875,0.71875 L 8.5,41.78125 C 8.5,42.20016 8.783721,42.5 9.1875,42.5 l 32.5312,0 c 0.40378,0 0.71875,-0.31497 0.71875,-0.71875 l 0,-39.5624999 c 0,-0.403779 -0.31497,-0.71875 -0.71875,-0.71875 l -32.5312,0 z" />
  <g
     id="g20"
     transform="translate(0,3.0000001)"
     fill="none">
    <path
       d="M 5.1873,2.5 C 4.783521,2.5 4.4998,2.799839 4.4998,3.21875 l 0,39.5625 c 0,0.418911 0.283721,0.71875 0.6875,0.71875 l 32.5313,0 c 0.40378,0 0.71875,-0.31497 0.71875,-0.71875 l 0,-39.5625 C 38.43735,2.814971 38.12238,2.5 37.7186,2.5 l -32.5313,0 z"
       id="path22"
       opacity="0.4"
       stroke="#000" />
    <path
       d="m 5.531,3.5312 0,38.9375 31.875,0 0,-38.9375 -31.875,0 z"
       id="path24"
       opacity="0.5"
       stroke="url(#linearGradient3369)"
       style="opacity:0.4" />
  </g>
  <rect
     ry="1.209"
     fill="url(#linearGradient3371)"
     width="34.951"
     x="7.986"
     y="5"
     rx="1.209"
     height="42"
     id="rect26" />
  <g
     clip-path="url(#clipPath4482)"
     id="g4473">
    <path
       style="fill:url(#linearGradient4469);fill-opacity:1"
       d="m 28.443038,17.033121 c -9.136221,0 -16.531152,6.106732 -16.531152,13.645001 0,7.538166 7.394911,13.644798 16.531152,13.644798 2.385636,0 4.667088,-0.419569 6.71577,-1.169508 C 38.298438,43.899098 40.99871,44.868339 42.959438,47 42.477024,44.368785 42.118946,41.729976 41.461302,39.098963 43.673465,36.777868 45,33.85992 45,30.678122 44.999999,23.139853 37.57926,17.033121 28.442988,17.033121 Z"
       id="path53" />
    <path
       style="opacity:0.7;fill:none;stroke:#000000"
       id="path3661"
       d="m 28.443359,16.435547 c -9.402198,0 -17.128906,6.313523 -17.128906,14.242187 0,7.928566 7.726684,14.242188 17.128906,14.242188 2.3741,0 4.638729,-0.419786 6.699219,-1.146484 3.040836,0.731787 5.566831,1.662934 7.376953,3.630859 a 0.59699586,0.59699586 0 0 0 1.027344,-0.511719 c -0.460947,-2.514128 -0.828419,-5.066873 -1.449219,-7.636719 2.167902,-2.377246 3.5,-5.341223 3.5,-8.578125 -10e-7,-7.930002 -7.752048,-14.242187 -17.154297,-14.242187 z" />
    <use
       height="100%"
       width="100%"
       y="0"
       x="0"
       xlink:href="#0-7"
       transform="matrix(-1.0614,0,0,1.21303,51.700064,5.1747051)"
       id="use69"
       style="fill:#000000;fill-opacity:1;opacity:1" />
    <use
       height="100%"
       width="100%"
       y="0"
       x="0"
       xlink:href="#0-7"
       transform="matrix(-1.0614,0,0,1.21303,44.700064,5.1747051)"
       id="use71"
       style="fill:#000000;fill-opacity:1;opacity:1" />
    <use
       height="100%"
       width="100%"
       y="0"
       x="0"
       xlink:href="#0-7"
       transform="matrix(-1.0614,0,0,1.21303,37.700064,5.1747051)"
       id="use73"
       style="fill:#000000;fill-opacity:1;opacity:1" />
  </g>
  <g
     id="g30"
     transform="translate(0,3.0000001)"
     fill="none">
    <path
       d="M 9.1875,2.5 C 8.783721,2.5 8.5,2.799839 8.5,3.21875 l 0,39.5625 C 8.5,43.20016 8.783721,43.5 9.1875,43.5 l 32.5312,0 c 0.40378,0 0.71875,-0.31497 0.71875,-0.71875 l 0,-39.5625 C 42.43745,2.814971 42.12248,2.5 41.7187,2.5 l -32.5312,0 z"
       id="path32"
       opacity="0.4"
       stroke="#000"
       style="opacity:0.5" />
    <path
       d="m 9.5313,3.5312 0,38.9375 31.875,0 0,-38.9375 -31.875,0 z"
       id="path34"
       opacity="0.5"
       stroke="url(#linearGradient3369)"
       style="opacity:0.3" />
  </g>
  <metadata
     id="metadata9999">
    <rdf:RDF>
      <cc:Work>
        <dc:format>image/svg+xml</dc:format>
        <dc:type
           rdf:resource="http://purl.org/dc/dcmitype/StillImage" />
        <dc:title></dc:title>
        <cc:license
           rdf:resource="http://creativecommons.org/licenses/by-sa/4.0/" />
        <dc:creator>
          <cc:Agent>
            <dc:title>Sixsixfive (sixsixfive.deviantart.com)</dc:title>
          </cc:Agent>
        </dc:creator>
        <dc:publisher>
          <cc:Agent>
            <dc:title>Sixsixfive (sixsixfive.deviantart.com)</dc:title>
          </cc:Agent>
        </dc:publisher>
        <dc:source>https://github.com/sixsixfive</dc:source>
        <dc:subject>
          <rdf:Bag>
            <rdf:li>ivy</rdf:li>
          </rdf:Bag>
        </dc:subject>
        <dc:contributor>
          <cc:Agent>
            <dc:title>ssf</dc:title>
          </cc:Agent>
        </dc:contributor>
        <dc:rights>
          <cc:Agent>
            <dc:title>Sixsixfive (sixisixfive.deviantart.com)</dc:title>
          </cc:Agent>
        </dc:rights>
        <dc:description>A simple icon theme published under CC-BY-SA_V4(http://creativecommons.org/licenses/by-sa/4.0)</dc:description>
        <dc:identifier>SSF</dc:identifier>
      </cc:Work>
    </rdf:RDF>
  </metadata>
  <!--Part of the Ivy icon them published under the CC-BY-SA_V4: http://creativecommons.org/licenses/by-sa/4.0 -->
</svg>
