<?xml version="1.0" encoding="UTF-8" standalone="no"?><svg xmlns:cc="http://creativecommons.org/ns#" xmlns:rdf="http://www.w3.org/1999/02/22-rdf-syntax-ns#" xmlns:svg="http://www.w3.org/2000/svg" id="svg2" viewBox="0 0 48 48" version="1.1" xmlns:dc="http://purl.org/dc/elements/1.1/" xmlns="http://www.w3.org/2000/svg"><defs id="defs4"><linearGradient id="0" x2="0" y2="41.28" y1="5.158" gradientUnits="userSpaceOnUse"><stop id="stop7" stop-color="#fff"/><stop offset="1" id="stop9" stop-color="#fff" stop-opacity="0"/></linearGradient><linearGradient id="1" x2="0" y2="4.22" y1="42.22" gradientUnits="userSpaceOnUse"><stop id="stop12" stop-color="#ddd"/><stop offset="1" id="stop14" stop-color="#fff"/></linearGradient><mask id="2"><path id="path17" d="M 4.054,14 H44.014 V42.21 H4.054 z" fill-rule="evenodd" fill="#fff" color="#000"/></mask></defs><path id="path19" opacity="0.1" d="M 4.054,15 H44.014 V43.21 H4.054 z" fill-rule="evenodd" fill="#171717" color="#000"/><path id="path21" d="M 4,4.22 H44 V42.22 H4 z" fill="url(#1)"/><path id="path23" d="M 4,4.22 H44 V14 H4 z" fill="#5288d1"/><g id="g25" fill="none"><g id="g27" stroke="#000"><path id="path29" opacity="0.4" d="m 4.4688,4.6886 0,37.0625 39.0625,0 0,-37.0625 -39.0625,0 z"/><path id="path31" opacity="0.562" d="m 4.9369,13.5286 38.1261,4e-4"/></g><path id="path33" opacity="0.5" d="m 5.4375,5.6573 0,35.125 37.125,0 0,-35.125 -37.125,0 z" stroke="url(#0)"/></g><path id="path35" d="M 4.054,14 H44.014 V42.21 H4.054 z" fill-rule="evenodd" fill="#171717" color="#000"/><path mask="url(#2)" id="path37" opacity="0.8" d="m 4.4688 4.6886 v 37.0625 h 39.0625 v -37.0625 h -39.0625 z" stroke="#000" fill="none"/><g id="g39" fill-rule="evenodd" fill="#fff" color="#000"><path id="path41" d="m 13,19 1,0 0,1 -1,0 z"/><path id="path43" d="m 9,19 1,0 0,1 -1,0 z"/><path id="path45" d="m 10,19 1,0 0,1 -1,0 z"/><path id="path47" d="m 11,20 1,0 0,1 -1,0 z"/><path id="path49" d="m 13,20 1,0 0,1 -1,0 z"/><path id="path51" d="m 12,21 1,0 0,1 -1,0 z"/><path id="path53" d="m 17,17 3,0 0,1 -3,0 z"/><g id="g55" transform="matrix(-1 0 0 -1 0 0)"><path id="path57" d="m -20,-21 3,0 0,1 -3,0 z"/><path id="path59" d="m -20,-24 3,0 0,1 -3,0 z"/></g><g id="g61" transform="matrix(0 -1 1 0 0 0)"><path id="path63" d="m -23,20 2,0 0,1 -2,0 z"/><path id="path65" d="m -20,16 2,0 0,1 -2,0 z"/><path id="path67" d="m -25,18 9,0 0,1 -9,0 z"/></g><path id="path69" d="m 8,20 1,0 0,1 -1,0 z"/><path id="path71" d="m 8,21 1,0 0,1 -1,0 z"/><path id="path73" d="m 20,18 1,0 0,1 -1,0 z"/><path id="path75" d="m -23,16 1,0 0,1 -1,0 z" transform="matrix(0 -1 1 0 0 0)"/><path id="path77" d="m 24,24 5,0 0,1 -5,0 z"/><path id="path79" d="M 7,8 8,8 8,9 7,9 Z"/><path id="path81" d="m 8,9 1,0 0,1 -1,0 z"/><path id="path83" d="m 9,10 1,0 0,1 -1,0 z"/><path id="path85" d="m 7,10 1,0 0,1 -1,0 z"/><path id="path87" d="m 9,8 1,0 0,1 -1,0 z"/><path id="path89" d="m 12,8 1,0 0,3 -1,0 z"/><path id="path91" d="m 10,-15 1,0 0,3 -1,0 z" transform="matrix(0 1 -1 0 0 0)"/><path id="path93" d="m -15,-11 1,0 0,3 -1,0 z" transform="matrix(-1 0 0 -1 0 0)"/><g id="g95" transform="matrix(0 -1 1 0 0 0)"><path id="path97" d="m -9,12 1,0 0,3 -1,0 z"/><path id="path99" d="m -11,17 1,0 0,3 -1,0 z"/></g></g><metadata id="metadata9999"><rdf:RDF><cc:Work><dc:format>image/svg+xml</dc:format><dc:type rdf:resource="http://purl.org/dc/dcmitype/StillImage"/><dc:title>Ivy icon theme</dc:title><cc:license rdf:resource="http://creativecommons.org/licenses/by-sa/4.0/"/><dc:creator><cc:Agent><dc:title>Sixsixfive (sixsixfive.deviantart.com)</dc:title></cc:Agent></dc:creator><dc:publisher><cc:Agent><dc:title>Sixsixfive (sixsixfive.deviantart.com)</dc:title></cc:Agent></dc:publisher><dc:source>https://github.com/sixsixfive</dc:source><dc:subject><rdf:Bag><rdf:li>ivy</rdf:li></rdf:Bag></dc:subject><dc:contributor><cc:Agent><dc:title>ssf</dc:title></cc:Agent></dc:contributor><dc:rights><cc:Agent><dc:title>Sixsixfive (sixisixfive.deviantart.com)</dc:title></cc:Agent></dc:rights><dc:description>A simple icon theme published under CC-BY-SA_V4(http://creativecommons.org/licenses/by-sa/4.0)</dc:description><dc:identifier>SSF</dc:identifier></cc:Work></rdf:RDF></metadata><!--Part of the Ivy icon them published under the CC-BY-SA_V4: http://creativecommons.org/licenses/by-sa/4.0 -->
</svg>